<svg id="Layer_1" data-name="Layer 1" xmlns="http://www.w3.org/2000/svg" viewBox="0 0 720 720"><defs><style>.cls-1{fill:#1c1e21;}</style></defs><title>25287_Selene _DV</title><path class="cls-1" d="M320.89,330.22A30.5,30.5,0,0,0,310,371.5a13.71,13.71,0,0,1-13.18,9.94,13.71,13.71,0,0,1,13.71,13.72,13.73,13.73,0,0,1,9.52-13.06,30.5,30.5,0,0,0,42.69-10.05,38.59,38.59,0,0,1-55.07,31.36,68,68,0,0,0,34.79,22.29V410H329.64a41.49,41.49,0,0,0,22.9-10.66,40.82,40.82,0,0,0,4.44-4.78h14a13.4,13.4,0,0,0,0-26.79H348.57v10.69a33.83,33.83,0,0,0,10.41-6.3,27.53,27.53,0,0,1-22.45,11.72,27.22,27.22,0,0,1-3.4-.22V325.5H320.18V310.05h22.28V294.3a68.1,68.1,0,0,0-48.85,51A38.49,38.49,0,0,1,320.89,330.22Z"/><path class="cls-1" d="M348.57,325.5v26.77H371a13.39,13.39,0,0,0,0-26.77Z"/><path class="cls-1" d="M366.45,310.05V292.32c-2.13-.2-4.28-.31-6.45-.31s-4.32.11-6.45.31v17.73Z"/><path class="cls-1" d="M399.81,338.89a28.74,28.74,0,0,1-8.44,20.39l-.76.72a28.85,28.85,0,0,1-13.08,49.21V425.7a68,68,0,0,0,0-131.4v16.5A28.85,28.85,0,0,1,399.81,338.89Z"/><path class="cls-1" d="M353.55,410v17.73c2.13.2,4.28.31,6.45.31s4.32-.11,6.45-.31V410Z"/><path class="cls-1" d="M419.48,300.52A84.11,84.11,0,1,0,444.12,360,83.8,83.8,0,0,0,419.48,300.52ZM413.1,413.1A75,75,0,0,1,286,372.73,76.29,76.29,0,0,1,284.91,360,75.09,75.09,0,1,1,413.1,413.1Z"/><path class="cls-1" d="M285.26,281.49a4.84,4.84,0,0,1-1.18-2.88,6.48,6.48,0,0,1,.65-3.2,8.44,8.44,0,0,1,2.31-2.92l2.45,2.93a2.21,2.21,0,0,0-.85,1.38,1.88,1.88,0,0,0,.49,1.46Zm14.33,2.75a2.36,2.36,0,0,0-1.6-.87,7.71,7.71,0,0,0-2.17.08l-2.55.43a13.84,13.84,0,0,1-2.73.21,7.39,7.39,0,0,1-2.74-.6,6.92,6.92,0,0,1-2.56-2l3.87-3.23a2.41,2.41,0,0,0,1.59.86,7.76,7.76,0,0,0,2.18-.07l2.55-.43a13.78,13.78,0,0,1,2.73-.21,7.39,7.39,0,0,1,2.74.6,7,7,0,0,1,2.56,2ZM292.52,276a3.57,3.57,0,0,0-1.64-.95,1.62,1.62,0,0,0-1.39.35L287,272.49a6.92,6.92,0,0,1,2.75-1.47,5.51,5.51,0,0,1,2.85,0,6.92,6.92,0,0,1,2.75,1.54Zm2.29,10a4.73,4.73,0,0,0,2.33,1.51,2.32,2.32,0,0,0,2.09-.49l2.45,2.94a7.2,7.2,0,0,1-5,1.88,7.36,7.36,0,0,1-4.84-2.34Zm8.65-5.05a4.92,4.92,0,0,1,1.17,2.88,6.53,6.53,0,0,1-.64,3.21,8.53,8.53,0,0,1-2.31,2.92l-2.45-2.94a2.19,2.19,0,0,0,.84-1.38,1.83,1.83,0,0,0-.48-1.46Z"/><path class="cls-1" d="M309.21,258.38l4.61-2,8.83,20-4.61,2Zm3.77-1.66,6.51-2.88,1.54,3.51-6.5,2.87Zm4.92,11.87-1.55-3.5,5.39-2.38,1.55,3.5Zm3.64,8.25-1.55-3.5,7.06-3.11,1.55,3.5Z"/><path class="cls-1" d="M341.35,270.18l-3.25-21.63,5-.75,3.24,21.63Zm4.08-.61-.57-3.79,7-1,.57,3.78Z"/><path class="cls-1" d="M367.61,246.67l5,.57L370.13,269l-5-.57Zm1.31,22.16.44-3.8,7.66.88-.43,3.8Zm1-9,.44-3.8,5.85.67-.44,3.8Zm1.77-12.73,7.06.81-.44,3.8-7.06-.81Z"/><path class="cls-1" d="M389.31,272.85,398,252.8l4.62,2-8.72,20.05Zm8.69,3.78.79-23.5,3.9,1.69-.79,23.51Zm1.09.48,8.72-20.06,4.63,2-8.73,20.05Z"/><path class="cls-1" d="M429.35,270l3.84,3.27L419,290l-3.84-3.27Zm-11.26,19.13,2.48-2.91,5.87,5L424,294.17Zm5.84-6.87,2.49-2.91,4.48,3.82-2.48,2.91Zm8.56-9.58,5.42,4.6-2.49,2.92L430,275.63Z"/><path class="cls-1" d="M254.82,352a3.77,3.77,0,0,1-2.61-1.21,3.5,3.5,0,0,1-.7-2.73l2.23-.13a.89.89,0,0,0,.12.57,1,1,0,0,0,.47.4,2.12,2.12,0,0,0,.77.2Zm-.71-4.81a1.15,1.15,0,0,0-.25.33.93.93,0,0,0-.12.41l-2.23.13a3.51,3.51,0,0,1,.26-1.06,3.9,3.9,0,0,1,.64-1Zm1,1.91,9.19.91-.28,2.89-9.19-.9Z"/><path class="cls-1" d="M254.52,362.72l.19,2.91a1.68,1.68,0,0,0-1.07.39,1.11,1.11,0,0,0-.33.91l-2.2.14a4.52,4.52,0,0,1,.35-2.13,3.76,3.76,0,0,1,1.22-1.55A3.37,3.37,0,0,1,254.52,362.72Zm.52,8.19a3.45,3.45,0,0,1-1.91-.42,3.83,3.83,0,0,1-1.41-1.39,4.52,4.52,0,0,1-.61-2.07l2.2-.14a1.11,1.11,0,0,0,.44.86,1.64,1.64,0,0,0,1.11.26Zm-.54-8.19,5.83-.37.18,2.91-5.82.37Zm.34,5.29,5.82-.37.19,2.9-5.82.37Zm5.45-5.65a3.32,3.32,0,0,1,1.92.42,3.85,3.85,0,0,1,1.4,1.38,4.53,4.53,0,0,1,.62,2.07l-2.21.14a1.09,1.09,0,0,0-.44-.86,1.63,1.63,0,0,0-1.1-.25Zm.53,8.18-.19-2.9a1.63,1.63,0,0,0,1.06-.39,1.07,1.07,0,0,0,.33-.91l2.21-.14a4.52,4.52,0,0,1-.35,2.13,3.89,3.89,0,0,1-1.22,1.55A3.32,3.32,0,0,1,260.82,370.54Z"/><path class="cls-1" d="M253.45,382.42l12.31-2.75.64,2.84-12.32,2.75Z"/><path class="cls-1" d="M257.27,396.37,269,391.66l1.08,2.7-11.71,4.7Zm2,5.07,9.84-9.34.92,2.28-9.85,9.34Zm.25.63,11.71-4.7,1.09,2.7-11.71,4.7Z"/><path class="cls-1" d="M274.27,427.1l9.82-7.92,1.83,2.27-9.83,7.91Zm6.32-8.75,1.72-1.38,5.39,6.69L286,425Z"/><path class="cls-1" d="M285.34,439.32l8.3-9.51,2.19,1.92-8.3,9.5Zm4,3.53,8.3-9.51,2.19,1.91-8.3,9.51Zm.16-6.75,1.46-1.66,4,3.53-1.46,1.66Z"/><path class="cls-1" d="M307.41,440.67l2.49,1.51L303.35,453l-2.49-1.51Zm-4.66,11.93,1.14-1.88L307.7,453l-1.15,1.88Zm2.7-4.45,1.15-1.88,2.9,1.76-1.14,1.89Zm4-6.24L313,444l-1.14,1.89-3.51-2.13Z"/><path class="cls-1" d="M329,460.9l2.81.74a1.68,1.68,0,0,0,0,1.14,1.14,1.14,0,0,0,.76.6l-.57,2.13a4.54,4.54,0,0,1-1.91-1,3.89,3.89,0,0,1-1.08-1.65A3.35,3.35,0,0,1,329,460.9Zm0,0,1.51-5.65,2.81.74-1.5,5.66Zm1.5-5.64a3.53,3.53,0,0,1,1-1.68,3.88,3.88,0,0,1,1.76-.89,4.42,4.42,0,0,1,2.16.08l-.57,2.13a1.05,1.05,0,0,0-.95.15,1.59,1.59,0,0,0-.59,1Zm4.15,6.49,2.41,1.12a4.21,4.21,0,0,1-2,2.39,4.1,4.1,0,0,1-3.07.24l.56-2.14a1.3,1.3,0,0,0,1.21-.25A2.64,2.64,0,0,0,334.62,461.76Zm1.18-4.43a2.68,2.68,0,0,0-.06-1.61,1.3,1.3,0,0,0-.92-.81l.56-2.14a4.18,4.18,0,0,1,2.56,1.72,4.27,4.27,0,0,1,.51,3.07Z"/><path class="cls-1" d="M353.2,456,349,468.32l-2.8-.24,4.18-12.31Zm-4.14,10.34.18-2.2,4.47.38-.18,2.2ZM353.23,456l2.07,12.84-2.79-.24-2.07-12.83Z"/><path class="cls-1" d="M364.66,459.26a2.86,2.86,0,0,1,.4-1.75,3.73,3.73,0,0,1,1.36-1.31,4.83,4.83,0,0,1,2.06-.61l.19,2.2a1.25,1.25,0,0,0-.86.37,1.1,1.1,0,0,0-.25.85Zm5.88,6a1.38,1.38,0,0,0-.47-.94,4.61,4.61,0,0,0-1.06-.68l-1.34-.63a8.65,8.65,0,0,1-1.37-.81,4.16,4.16,0,0,1-1.09-1.19,4.11,4.11,0,0,1-.55-1.8l2.9-.25a1.38,1.38,0,0,0,.47.94,4.76,4.76,0,0,0,1.05.68l1.35.64a8.08,8.08,0,0,1,1.36.8,4.18,4.18,0,0,1,1.1,1.19,4,4,0,0,1,.54,1.8Zm-2.86-.72a2.73,2.73,0,0,0,.6,1.49,1.34,1.34,0,0,0,1.15.46l.19,2.19a4.08,4.08,0,0,1-3-.76,4.22,4.22,0,0,1-1.51-2.7Zm2.23-5.5a2,2,0,0,0-.47-1,.9.9,0,0,0-.77-.29l-.19-2.2a3.94,3.94,0,0,1,1.78.21,3.23,3.23,0,0,1,1.35,1,4,4,0,0,1,.79,1.63Zm3.52,6a2.79,2.79,0,0,1-.39,1.75,3.81,3.81,0,0,1-1.36,1.31,4.83,4.83,0,0,1-2.06.61l-.19-2.19a1.3,1.3,0,0,0,.86-.38,1.1,1.1,0,0,0,.25-.85Z"/><path class="cls-1" d="M384.6,466.14,381.29,454l2.81-.77,3.3,12.18Zm-.35-5.28-.58-2.13,5.18-1.4.58,2.13Zm5.52,3.88-3.3-12.18,2.8-.76L392.58,464Z"/><path class="cls-1" d="M407.89,443.55l2.47-1.53L417,452.75l-2.48,1.53Zm2-1.25,3.48-2.16,1.17,1.88-3.49,2.16Zm3.75,6.4-1.16-1.88L415.4,445l1.16,1.88Zm2.74,4.42-1.16-1.88L419,448.9l1.16,1.88Z"/><path class="cls-1" d="M422.87,437.4a3.47,3.47,0,0,1-.84-1.77,3.9,3.9,0,0,1,.24-2,4.4,4.4,0,0,1,1.26-1.75l1.46,1.65a1.1,1.1,0,0,0-.41.88,1.65,1.65,0,0,0,.47,1Zm3.86,4.38-3.87-4.39,2.18-1.93,3.87,4.39Zm.81-7.67a2.74,2.74,0,0,0-1.37-.84,1.33,1.33,0,0,0-1.2.31l-1.46-1.65a4.15,4.15,0,0,1,2.85-1.17,4.19,4.19,0,0,1,2.83,1.28Zm-.82,7.65,2.18-1.92a1.65,1.65,0,0,0,1,.6,1.12,1.12,0,0,0,.92-.29l1.46,1.65a4.5,4.5,0,0,1-1.9,1,3.76,3.76,0,0,1-2,0A3.35,3.35,0,0,1,426.72,441.76Zm3.85-4.21,2.26-1.38a4.23,4.23,0,0,1,.91,3,4.15,4.15,0,0,1-1.51,2.68l-1.46-1.65a1.33,1.33,0,0,0,.46-1.15A2.67,2.67,0,0,0,430.57,437.55Z"/><path class="cls-1" d="M435.45,425.23a3.37,3.37,0,0,1-1.13-1.6,3.75,3.75,0,0,1-.11-2,4.39,4.39,0,0,1,.93-2l1.73,1.38a1.06,1.06,0,0,0-.25.93,1.59,1.59,0,0,0,.65.93Zm5.11-6.42-1.81,2.28a1.67,1.67,0,0,0-1.05-.43,1.07,1.07,0,0,0-.85.46l-1.73-1.38a4.65,4.65,0,0,1,1.68-1.35,3.91,3.91,0,0,1,1.95-.33A3.33,3.33,0,0,1,440.56,418.81Zm-.57,10-4.56-3.64,1.81-2.27,4.56,3.63Zm3.3-4.14-4.57-3.64,1.81-2.27,4.57,3.63ZM440,428.83l1.81-2.28a1.67,1.67,0,0,0,1,.43,1.07,1.07,0,0,0,.85-.46l1.73,1.38a4.52,4.52,0,0,1-1.68,1.34,3.81,3.81,0,0,1-1.95.34A3.4,3.4,0,0,1,440,428.83Zm5.11-6.42a3.37,3.37,0,0,1,1.13,1.6,3.75,3.75,0,0,1,.11,2,4.44,4.44,0,0,1-.93,1.95l-1.73-1.38a1.06,1.06,0,0,0,.25-.93,1.59,1.59,0,0,0-.65-.93Z"/><path class="cls-1" d="M454.08,415l-11.15-5.92,1.37-2.57,11.14,5.92Zm2.56-4.83-13.49-1.51,1.16-2.16,13.48,1.5Zm.32-.6-11.14-5.92,1.36-2.57L458.33,407Z"/><path class="cls-1" d="M453.92,393.66a3.38,3.38,0,0,1-1.64-1.08,3.8,3.8,0,0,1-.81-1.8,4.44,4.44,0,0,1,.16-2.15l2.11.66a1.1,1.1,0,0,0,.1,1,1.67,1.67,0,0,0,.94.63Zm2.44-7.83-.86,2.78a1.59,1.59,0,0,0-1.14,0,1.07,1.07,0,0,0-.63.72l-2.11-.65a4.52,4.52,0,0,1,1.09-1.87,3.83,3.83,0,0,1,1.69-1A3.36,3.36,0,0,1,456.36,385.83Zm3.09,9.56-5.57-1.74.87-2.78,5.57,1.74Zm1.58-5.05-5.57-1.74.87-2.78,5.57,1.74Zm-1.59,5.05.87-2.78a1.62,1.62,0,0,0,1.13,0,1.08,1.08,0,0,0,.63-.73l2.11.66a4.52,4.52,0,0,1-1.09,1.86,3.76,3.76,0,0,1-1.69,1A3.45,3.45,0,0,1,459.44,395.39Zm2.44-7.83a3.38,3.38,0,0,1,1.64,1.08,3.93,3.93,0,0,1,.82,1.79,4.56,4.56,0,0,1-.17,2.15l-2.11-.65a1.1,1.1,0,0,0-.1-1,1.63,1.63,0,0,0-.94-.64Z"/><path class="cls-1" d="M467.62,377.31,455.08,376l.31-2.89,12.55,1.36Zm.48-4.37-12.84,1.36.23-2.09,12.83-1.36Zm0-.07-12.26-4.08.23-2.09,12.25,4.08Zm.38-3.57L456,367.94l.31-2.89,12.55,1.35Z"/><path class="cls-1" d="M464.08,352.56l-8.33-2.48-.21-2.53,8.33,2.48Zm0,0-7.81,3.81-.25-3.07,7.85-3.29Zm4.51-.37-4.51.37-.21-2.55,4.51-.37Z"/><circle class="cls-1" cx="450.87" cy="315.96" r="5.84"/><circle class="cls-1" cx="269.13" cy="315.96" r="5.84"/><path class="cls-1" d="M483,360h-3a120,120,0,1,1-35.15-84.85A119.55,119.55,0,0,1,480,360h6.08A126.08,126.08,0,1,0,360,486.08,126.07,126.07,0,0,0,486.08,360Z"/></svg>