<?xml version="1.0" standalone="no"?>
<!DOCTYPE svg PUBLIC "-//W3C//DTD SVG 1.1//EN" "http://www.w3.org/Graphics/SVG/1.1/DTD/svg11.dtd">
<svg xmlns="http://www.w3.org/2000/svg" xmlns:xlink="http://www.w3.org/1999/xlink" width="1920" height="1920" viewBox="0 0 1920 1920"><defs><clipPath id="b"><rect width="1920" height="1920"/></clipPath></defs><g id="a" clip-path="url(#b)"><rect width="1920" height="1920" fill="#fff"/><rect width="1920" height="1920" fill="#fff"/><g transform="translate(200 835)"><g transform="translate(237.07)"><path d="M-1688.271,509.846h195.254l-156.932,47.734Z" transform="translate(1688.271 -355.549)" fill="#26de81"/><path d="M-1688.271,503.2l64.71-76.308,130.544,76.308Z" transform="translate(1688.271 -348.899)" fill="#20b265"/><path d="M-1688.271,342.1l64.71,77.989-37.426,44.135-27.285-33.714Z" transform="translate(1688.271 -342.103)" fill="#187f47"/></g><g transform="translate(0 48.407)"><path d="M-1750.746,442.463H-1946l156.933-47.734Z" transform="translate(1946 -394.728)" fill="#26de81"/><path d="M-1750.746,446.623l-64.71,76.308L-1946,446.623Z" transform="translate(1946 -398.888)" fill="#20b265"/><path d="M-1739.37,603.723l-64.71-77.989,37.427-44.134,27.284,33.714Z" transform="translate(1934.624 -401.692)" fill="#187f47"/></g><g transform="translate(487.961 74.964)"><path d="M723.745,937.082h23.537L686.761,823.4,626.227,937.082h23.537l13.008-24.441h47.965Zm-49.9-45.209,12.914-24.255,12.914,24.255Z" transform="translate(-626.227 -823.4)"/><path d="M743.621,933.541h-22V830.316l69.2,56.456V829.886h22V933.114l-69.2-56.456Z" transform="translate(-574.14 -819.859)"/><g transform="translate(274.456 9.976)"><path d="M906.815,829.853,866.045,884.7l.02,48.363h-22V884.7l-40.314-54.851h22l29.313,36.717,29.753-36.717Z" transform="translate(-803.751 -829.853)"/></g><path d="M1248.016,829.893h-49.933a51.822,51.822,0,1,0,0,103.644h51.889V870.855h-53.845v21.722h32.115v19.242H1198.1a30.1,30.1,0,1,1,0-60.2h51.889V829.9Z" transform="translate(-342.279 -819.855)"/><path d="M1010,850.521h57.431V829.728H1010a29.979,29.979,0,0,0-29.945,29.943v44A29.981,29.981,0,0,0,1010,933.613h57.431V912.834H1010a9.177,9.177,0,0,1-9.166-9.165V892.059h56.139V871.28h-56.139V859.672A9.176,9.176,0,0,1,1010,850.5" transform="translate(-433.029 -819.945)"/><path d="M1267.2,850.521h57.432V829.728H1267.2a29.975,29.975,0,0,0-29.943,29.943v44a29.98,29.98,0,0,0,29.943,29.945h57.432V912.834H1267.2a9.177,9.177,0,0,1-9.168-9.165V892.059h56.139V871.28h-56.139V859.672a9.176,9.176,0,0,1,9.168-9.168" transform="translate(-292.593 -819.945)"/><g transform="translate(406.34 10.027)"><path d="M992.715,829.886V933.541h-22v-40.88H911.057v40.871h-22V829.886h22v40.829h59.658V829.886Z" transform="translate(-889.057 -829.886)"/></g><g transform="translate(676.034 12.036)"><path d="M1063.5,831.185h46.175q16.555,0,29.258,6.317a47.312,47.312,0,0,1,19.747,17.784q7.046,11.479,7.042,26.719,0,15.255-7.042,26.718a47.275,47.275,0,0,1-19.747,17.791q-12.708,6.32-29.258,6.316H1063.5Zm45.011,82.33q15.252,0,24.325-8.491t9.075-23.02q0-14.517-9.075-23.012t-24.325-8.5h-21.49v63.021Z" transform="translate(-1063.501 -831.185)"/></g></g></g></g></svg>