<?xml version="1.0" encoding="UTF-8" standalone="no"?>
<svg
   id="b0fe9f0f-2260-4388-9a96-9bddc071a125"
   data-name="Layer 1"
   viewBox="0 0 840.00043 488.28021"
   version="1.1"
   sodipodi:docname="kth-white-transparent.svg"
   inkscape:version="1.1 (c4e8f9e, 2021-05-24)"
   width="840.00043"
   height="488.28021"
   inkscape:export-filename="/Users/fernando/Downloads/kth-white-transparent.png"
   inkscape:export-xdpi="719.97998"
   inkscape:export-ydpi="719.97998"
   xmlns:inkscape="http://www.inkscape.org/namespaces/inkscape"
   xmlns:sodipodi="http://sodipodi.sourceforge.net/DTD/sodipodi-0.dtd"
   xmlns="http://www.w3.org/2000/svg"
   xmlns:svg="http://www.w3.org/2000/svg">
  <defs
     id="defs58" />
  <sodipodi:namedview
     id="namedview56"
     pagecolor="#505050"
     bordercolor="#eeeeee"
     borderopacity="1"
     inkscape:pageshadow="0"
     inkscape:pageopacity="0"
     inkscape:pagecheckerboard="0"
     showgrid="false"
     inkscape:zoom="0.58828125"
     inkscape:cx="254.98008"
     inkscape:cy="498.91102"
     inkscape:window-width="1792"
     inkscape:window-height="1067"
     inkscape:window-x="0"
     inkscape:window-y="25"
     inkscape:window-maximized="1"
     inkscape:current-layer="b0fe9f0f-2260-4388-9a96-9bddc071a125"
     fit-margin-top="0"
     fit-margin-left="0"
     fit-margin-right="0"
     fit-margin-bottom="0"
     width="840.00043px" />
  <g
     id="g4183"
     inkscape:export-filename="/Users/fernando/Downloads/kth-memes.png"
     inkscape:export-xdpi="300.02441"
     inkscape:export-ydpi="300.02441">
    <path
       d="m 292.7291,473.85041 c -10.815,4.3333 -24.5146,-6.4974 -35.33,0 -4.3221,0 -6.4832,0 -10.815,-2.1691 -7.2068,-0.72 -11.5387,-0.72 -18.0218,1.4445 -2.161,0 -8.654,-4.3284 -11.5386,-4.3284 -12.9761,2.1642 -24.5147,6.4975 -37.4907,2.1642 -6.4929,0 -13.7,-4.3333 -8.654,-13.72 4.3319,-8.6666 15.1469,-10.8308 24.5147,-15.1641 0,-2.1642 4.3319,-6.4974 2.161,-10.8307 -10.815,-15.8838 -24.5146,-25.27 -30.9978,-42.5984 h -4.3318 c -10.815,-7.2221 -17.2982,-15.8886 -26.6757,-29.6083 -4.3221,-6.4974 -17.2982,-15.8837 -22.3537,0 -2.161,13 2.1709,26.7195 -2.161,42.6033 -2.161,10.8307 2.161,19.4973 2.161,31.0478 0,4.3333 4.3319,6.4975 6.493,8.6666 6.4929,2.1642 8.6539,7.2172 12.976,11.5505 4.3319,4.3333 2.161,17.3331 -2.161,17.3331 -35.33,4.3284 -69.2219,4.3284 -104.5418,4.3284 -4.3319,0 -6.4929,4.3333 -11.5386,4.3333 -6.4929,0 -4.3319,-7.2222 -8.654,-7.2222 2.1611,-2.1642 4.3221,-4.3283 0,-8.6616 2.1611,0 4.3221,-2.1691 4.3221,-2.1691 -2.161,-8.6617 5.0555,-11.55 9.3776,-15.8838 8.6539,-6.4975 22.3536,-4.3333 26.6757,-12.995 9.3775,-15.164 11.5386,-33.2169 9.3775,-51.27 0,-2.1641 -2.1708,-2.1641 -2.1708,-4.3283 6.4929,-10.8308 -2.161,-24.55 0,-35.3811 9.3776,-28.8837 5.0555,-55.5982 5.0555,-83.0374 -2.1708,-4.3333 -2.1708,-8.6666 -2.1708,-13 5.0457,-40.4341 2.8846,-80.1485 3.6082,-120.5827 v -22.3854 c -2.161,-4.328398 0,-10.830798 0,-17.328198 -2.161,-7.2173 -6.4929,-15.8838 -12.976,-20.2171 -12.2622,-7.9419 -26.6757,-7.2221 -40.3754,-11.55 -4.3319,0 -2.1708,-6.5024 -6.4929,-6.5024 2.161,-2.1642 4.3221,-4.3284 0,-9.3863 4.3221,-2.1642 6.4929,-6.4975 11.5386,-8.6617 17.2982,-6.5024 33.1686,-10.8307 51.19,-19.4973001 h 6.4929 c 13.7005,-10.8312 30.9989,-8.66709997 46.8589,-8.66709997 0,4.33329997 2.1708,6.50239997 4.3319,8.66659997 4.3221,15.8838001 -4.3319,31.7725001 -2.1611,46.9316001 5.76,42.6033 -0.7236,82.317598 0.7138,124.920898 4.3319,24.5454 -8.6539,49.0958 -2.161,75.8152 2.161,10.8308 -0.7236,24.55 5.7693,33.2121 11.5386,11.5554 19.469,-8.6617 27.3993,-15.1592 2.1611,0 4.3221,0 6.4832,-2.1691 0.7236,-2.1642 1.4472,-6.4974 2.1708,-8.6665 7.93,-9.3863 13.7,-18.048 18.0217,-28.8788 4.3221,-9.3863 10.0914,-18.0528 4.3221,-24.55 -5.76,-2.1691 -9.3678,-7.2221 -15.8607,-11.5554 -3.5985,-4.3333 -1.4374,-15.8838 5.7693,-18.048 25.2383,-6.5024 49.0293,0.72 73.544,-1.4444 9.3776,-2.1691 18.7454,-6.5024 29.56,-4.3333 6.4929,2.1642 12.976,2.1642 14.4232,9.3863 -0.7236,2.1642 -3.6082,4.3333 -5.7693,6.4975 -31.7214,15.164 -65.6136,22.3861 -85.0826,59.2117 0,0 -2.8846,2.8839 -5.0457,3.6086 -2.161,2.8888 -2.161,5.053 -2.8846,7.9419 -6.4832,1.4444 -7.2068,8.6665 -12.2525,12.2752 -2.161,0 -3.6082,0.7246 -6.4929,3.6086 -20.9064,18.7775 -7.93,21.6615 0.7236,35.3811 0,2.1691 0,4.3333 2.1611,6.5024 2.161,2.1641 4.3221,2.1641 6.4929,2.1641 9.3678,11.5506 18.0217,22.3813 28.8367,33.9367 2.1611,2.1642 2.1611,8.6666 4.3221,10.8308 9.3776,4.3333 11.5386,13.72 15.87,20.2171 2.1611,2.169 6.4831,4.3332 8.6442,6.4974 8.654,22.3862 33.1686,33.9367 46.1447,51.99 9.3775,-2.1642 13.7,6.4975 18.0315,13.72 4.3234,6.4966 -4.3306,12.9938 -9.3763,15.1629 z"
       id="path9"
       style="fill:#ffffff;fill-opacity:1" />
    <path
       d="m 298.8179,347.12311 c -8.6539,-0.7247 -18.0315,-4.3333 -22.3536,-10.8308 -2.161,-7.2221 -6.4929,-11.5554 -8.6539,-15.8838 -2.1611,-11.5554 -4.3221,-20.222 2.161,-28.8836 0,-2.1691 5.0457,-6.4975 7.2165,-11.5554 4.3221,-8.6617 12.9761,-6.4975 20.1828,-10.8308 6.4929,-2.1642 10.815,2.1691 17.3079,5.058 h 9.3678 c 12.9858,10.8307 23.8009,24.5454 19.469,41.8785 -7.2068,18.048 -24.515,33.212 -44.6975,31.0479 z"
       id="path11"
       style="fill:#ffffff;fill-opacity:1" />
    <path
       d="m 573.2531,211.74331 c -15.1469,11.5505 -32.445,5.7728 -47.5919,9.3863 -5.0457,1.4445 -12.976,1.4445 -16.5745,5.0531 -2.1708,4.3333 -5.7693,5.7777 -10.1012,9.3863 -11.5386,20.9417 -17.2981,43.323 -26.6757,64.2647 -7.93,10.8308 -13.7,22.3813 -19.469,33.9367 a 147.9806,147.9806 0 0 1 -9.3677,22.3813 v 9.3912 c -4.3319,11.5505 -12.2623,20.9369 -15.8607,31.7676 v 5.7777 c 12.976,11.5505 24.5146,-5.053 33.8824,-13 4.3221,-3.6086 10.0914,-10.8308 15.8607,-14.4394 a 9.6927,9.6927 0 0 0 1.4472,-5.7777 c 5.7693,-7.9419 19.4592,-20.9368 26.6757,-9.3863 2.1611,7.9419 1.4375,15.164 -2.161,23.1059 -7.93,7.2221 -9.3776,16.6085 -13.7,25.9948 -1.4472,3.6135 -7.2165,3.6135 -9.3775,7.2221 -5.7693,11.5505 -15.1371,20.9369 -26.6757,28.159 -2.1611,2.1691 -2.1611,5.7777 -3.6083,7.9419 -5.7693,5.0579 -11.5288,10.8307 -19.469,14.4443 -7.2067,3.6086 -12.976,9.3863 -20.9064,12.9949 a 64.3962,64.3962 0 0 1 -16.5843,7.2221 c -5.7693,2.1642 -11.5288,-1.4444 -17.2981,0 -5.0457,1.4445 -9.3776,0 -11.5386,-2.1691 -9.3776,-16.6035 -10.815,-39.7094 0.7236,-56.3179 2.161,-2.1691 0,-7.9419 0,-9.3863 19.4592,-43.323 41.0892,-84.4818 56.236,-129.9739 0,-3.6087 2.1611,-7.2173 2.1611,-11.5506 7.93,-13 13.7,-25.9947 19.469,-38.99 2.161,-5.7777 -3.6083,-13.72 -9.3776,-13.72 -12.9761,-2.1691 -28.1132,5.7728 -37.4907,-4.3333 -3.5985,-5.7777 -3.5985,-15.164 0,-20.217 5.7693,-5.7777 12.976,-5.7777 20.9162,-7.9419 5.76,-1.4445 11.5288,4.3283 17.2981,0.72 a 5.5317,5.5317 0 0 0 3.6083,1.4445 l 1.4374,-1.4445 c 9.3776,5.7777 19.469,0 25.2383,-7.2221 1.4374,-4.3284 1.4374,-9.3863 3.6082,-13.72 2.1611,-3.6086 3.5985,-9.3863 5.7693,-12.995 7.93,-7.2221 7.93,-16.6084 13.69,-25.9947 12.9858,-17.3283 30.284,-30.3281 53.3612,-28.159 14.4233,11.5505 7.2067,30.3281 -2.8847,43.323 v 4.3333 c -7.2067,10.8307 -20.9064,23.8257 -7.93,35.3811 15.1371,0.72 30.284,-2.8889 45.4211,-1.4444 3.6081,10.107 3.6081,20.9378 -2.1612,24.5513 z"
       id="path13"
       style="fill:#ffffff;fill-opacity:1" />
    <path
       d="m 823.4161,351.82331 c 0,3.6086 -5.7693,7.2172 -7.2068,10.8308 -6.4929,15.164 -12.2622,30.3231 -21.64,45.4872 -2.1611,3.6135 -7.93,9.3863 -9.3678,14.4442 -4.3221,9.3863 -10.0914,17.3282 -15.8607,26.7146 -5.7693,7.2221 -15.1469,9.3863 -22.3536,14.4393 -4.3221,2.1691 -4.3221,5.7777 -7.93,7.9419 -12.976,7.2222 -28.1229,10.8308 -41.8226,14.4443 -11.5288,3.6086 -20.1828,-7.9419 -31.7214,-13.72 -9.3678,-3.6086 -16.5843,-11.5554 -20.1926,-23.1059 -2.161,-13 0,-24.55 9.3776,-33.2169 2.1611,-2.1642 3.6083,-2.1642 5.7693,-5.7729 7.93,-7.9467 18.7454,-5.7777 28.1229,0 7.93,5.7729 11.5289,17.3283 18.7454,25.27 7.93,3.6086 18.7454,3.6086 24.5147,-5.7777 11.5288,-24.55 27.3993,-44.7675 33.1588,-69.3178 3.6083,-9.3864 7.93,-17.3282 9.3776,-26.7146 0,-3.6086 0,-7.2221 0.7236,-9.3863 1.4374,-3.6086 5.0457,-5.7777 5.7693,-9.3863 0,-24.55 7.93,-49.1007 0.7138,-73.6511 -3.5985,-9.3863 -9.3678,-18.7726 -18.7453,-18.7726 -9.3678,1.4444 -15.1371,8.6616 -23.0675,14.4393 -3.6083,0 -7.2165,2.1691 -9.3776,3.6087 -9.3677,9.3912 -18.7453,16.6084 -28.8367,25.9947 -1.4472,2.1691 -1.4472,5.7777 -3.6083,7.9468 -2.161,1.44 -3.6082,1.44 -5.7693,3.6086 -7.93,12.995 -18.7453,20.2171 -28.8367,31.7676 -7.2068,11.5554 -11.5386,24.55 -18.7454,35.3811 -2.161,2.1691 -5.7693,4.3333 -7.93,5.7777 -9.3776,15.1641 -13.7,30.3281 -26.6855,43.3231 -4.3221,5.7777 -4.3221,13 -6.4832,18.7775 -1.4472,3.6086 -5.0457,5.7728 -7.2067,9.3863 -13.7,20.9369 -15.87,62.0957 -47.5919,56.318 -6.4929,-1.4445 -11.5386,-5.7777 -11.5386,-11.55 0,-13 4.3319,-26.72 10.1012,-37.55 v -7.9419 c 7.93,-24.55 19.4592,-44.7675 28.8367,-69.3178 v -9.3863 c 12.2525,-36.1009 31.0076,-65.7092 37.4907,-101.81 7.2166,-9.3863 7.2166,-22.3862 13.7,-33.9367 1.4472,-3.6086 5.0457,-7.2221 7.2067,-11.5554 0,-3.6086 -1.4374,-9.3863 0,-12.9949 10.1012,-20.9418 19.469,-37.5453 25.2383,-59.9315 l 4.3319,-2.1642 c 0,-11.5554 7.2067,-18.7775 9.3678,-30.327998 0,-3.6087 4.3318,-9.3864 5.7693,-12.995 4.3221,-9.3912 0.7236,-20.9417 -9.3776,-22.3861 -18.7453,-2.1642 -35.33,-4.3333 -54.075,-6.4975 -3.5985,-7.9419 0,-13 7.2165,-15.164 9.3678,0 17.2981,-3.6087 26.6757,-5.0531 26.6757,-2.1691 51.19,-5.0579 77.8661,-8.6665 3.6082,0 7.2165,-3.6087 10.815,-3.6087 7.93,0 11.5386,7.2173 11.5386,12.995 -2.161,9.3863 -2.161,17.3282 -5.7693,26.7145 -4.3231,16.6083 -15.8614,29.6081 -23.7918,46.936298 v 7.2222 c -1.4472,5.7728 -7.2067,11.5505 -9.3775,17.3282 -11.5289,39.7144 -30.9978,75.0955 -46.8585,112.6408 -1.4472,9.3863 -5.7693,17.3282 -9.3776,26.7145 -2.161,5.058 -2.161,15.1641 7.2068,13 17.3079,-7.2222 25.2382,-24.55 36.0532,-38.9946 4.3221,-2.1642 7.93,-3.6087 11.5386,-5.7729 7.93,-7.2221 11.5387,-16.6084 20.9064,-22.3861 10.0914,-3.6086 17.308,-7.2222 25.2383,-12.995 15.1371,-7.2221 31.7214,-13 46.8683,-7.2221 a 79.613,79.613 0 0 1 26.6757,20.9417 c 7.2067,10.1061 5.0457,23.106 10.815,32.4923 -2.161,36.1008 -5.0457,70.0374 -16.5843,106.1432 z"
       id="path15"
       style="fill:#ffffff;fill-opacity:1" />
  </g>
</svg>
