<svg width="2098" height="2023" viewBox="0 0 2098 2023" fill="none" xmlns="http://www.w3.org/2000/svg">
<path d="M1049 12C496.755 12 49 459.755 49 1012C49 1564.24 496.755 2012 1049 2012C1601.24 2012 2049 1564.24 2049 1012C2049 459.755 1601.24 12 1049 12ZM1623.29 782.408C1581.04 852.612 1494.92 900.367 1486.96 904.449C1470.84 913.02 1464.92 925.469 1465.94 944.041C1466.96 962.612 1462.47 1054.65 1406.35 1095.27C1377.57 1116.08 1261.45 1143.02 1208.18 1152C1180.84 1156.69 1174.51 1165.06 1159.41 1174.04C1139 1186.69 1066.55 1287.1 1054.31 1309.35C1055.94 1309.14 1282.67 1238.73 1292.88 1237.1C1319.82 1233.02 1340.22 1240.78 1353.49 1260.37C1366.14 1279.14 1378.59 1298.12 1391.04 1317.1C1395.53 1323.84 1399.82 1330.78 1404.1 1337.71L1408.59 1344.86C1410.22 1347.51 1412.47 1350.57 1413.49 1354.65C1414.31 1357.51 1416.14 1367.1 1410.63 1372.82C1405.53 1378.12 1396.76 1378.12 1392.06 1376.9C1387.57 1375.67 1380.84 1373.02 1375.33 1368.53L1367.78 1362.2C1361.86 1357.1 1350.63 1354.65 1341.86 1355.06C1331.65 1355.47 1318.18 1352.2 1311.65 1348.12C1299 1339.96 1295.73 1319.55 1295.73 1319.35C1294.1 1312.61 1289.2 1310.78 1284.71 1310.78C1276.55 1310.57 1270.22 1313.02 1263.69 1314.86C1233.9 1323.84 1204.31 1333.02 1174.51 1342.41L1131.86 1355.67C1110.84 1362.2 1089.82 1368.73 1069 1375.67C1063.29 1377.51 1057.78 1380.37 1051.86 1383.43C1049.41 1384.65 1046.96 1385.88 1044.51 1387.1C1042.06 1388.33 1039.41 1389.76 1036.96 1391.18C1031.45 1394.24 1025.53 1397.51 1019 1399.35C997.776 1405.67 979.204 1396.49 970.429 1375.27C964.714 1361.59 969.816 1334.45 972.878 1326.49C992.061 1276.69 1054.51 1182.82 1054.51 1182.2C1053.49 1181.8 985.327 1209.14 974.102 1217.71C943.286 1241.18 871.041 1296.69 870.02 1302C865.327 1326.69 850.02 1345.27 826.551 1354.45C809.612 1360.98 799.408 1374.45 789.408 1387.51C789.408 1387.51 608.388 1636.9 596.143 1650.37C592.469 1654.45 558.592 1689.96 549.612 1706.49C547.571 1710.57 539.816 1726.9 537.776 1730.98C536.143 1734.24 532.469 1743.02 518.592 1742.41C504.714 1741.8 504.306 1722.41 503.694 1714.04C502.265 1693.43 506.755 1673.22 517.571 1652C518.592 1649.96 530.837 1631.39 526.347 1616.49C522.265 1603.43 518.388 1583.22 524.51 1573.02C534.102 1556.9 551.041 1556.29 573.694 1552.61C589.408 1549.96 600.837 1542.2 611.857 1526.08C635.122 1492.2 722.674 1367.92 742.469 1339.14C747.776 1331.59 751.857 1321.8 753.694 1312.2C759.408 1283.22 776.959 1263.02 807.571 1250.57C814.102 1247.92 935.939 1146.08 935.939 1133.02C935.939 1123.63 922.674 1118.53 912.469 1115.67C911.041 1115.27 834.51 1095.47 799.612 1079.55C780.633 1070.98 766.347 1063.43 749.408 1051.18C726.347 1034.24 680.225 1042.41 673.49 1043.43C640.837 1048.12 616.551 1062.82 589 1081.39C584.102 1084.86 559 1093.84 546.347 1086.69C521.653 1072.61 467.367 1047.31 447.367 1016.9C438.184 1002.82 439.408 979.959 445.939 954.653C466.959 895.878 497.98 869.551 555.327 853.633C596.143 839.551 678.388 836.49 717.98 833.429C720.633 832.612 808.388 830.571 870.02 798.939C911.041 777.918 1032.88 696.898 1208.18 702.408C1279 704.653 1412.88 773.837 1464.51 775.878C1517.16 778.122 1543.49 772.204 1573.9 740.776C1582.47 731.796 1619 653.02 1584.51 609.959C1571.65 594.041 1558.39 579.755 1543.08 566.694C1522.47 549.143 1501.04 532.408 1482.47 512.612C1441.45 469.143 1428.8 409.755 1448.18 363.429C1460.63 330.98 1486.76 316.898 1524.51 324.245C1551.04 329.347 1570.43 353.225 1589.41 365.878C1600.02 373.02 1617.78 377.102 1629.41 379.959C1644.1 383.429 1655.12 394.653 1654.51 402.204C1653.9 409.755 1634.51 416.286 1615.94 414.857C1593.9 413.429 1556.14 413.225 1533.49 420.776C1518.39 426.286 1511.65 443.02 1516.14 459.551C1519.82 473.02 1548.59 497.102 1559.41 506.082C1581.04 523.837 1604.1 539.959 1622.06 562.204C1642.27 587.51 1652.88 616.286 1656.14 648.122C1661.04 696.898 1648.18 740.776 1623.29 782.408Z" fill="#8D45DD"/>
</svg>
