<?xml version="1.0" encoding="UTF-8"?>
<svg id="Layer_1" xmlns="http://www.w3.org/2000/svg" version="1.1" viewBox="0 0 78.4 78.4">
  <!-- Generator: Adobe Illustrator 29.1.0, SVG Export Plug-In . SVG Version: 2.1.0 Build 142)  -->
  <defs>
    <style>
      .st0 {
        fill: #24282a;
      }
    </style>
  </defs>
  <path class="st0" d="M40,31.6c-1.5,0-2.8.4-4,1.3s-2.3,2-3.2,3.3v14.3c.8,1.2,1.7,2.1,2.9,2.7,1.1.7,2.4,1,3.7,1,2.4,0,4.3-1,5.6-2.9s1.9-4.7,1.9-8.5-.6-6.6-1.7-8.5c-1.2-1.7-2.9-2.7-5.2-2.7Z"/>
  <path class="st0" d="M66.4,0H12C5.4,0,0,5.4,0,12v54.4c0,6.6,5.4,12,12,12h54.4c6.6,0,12-5.4,12-12V12c0-6.6-5.4-12-12-12ZM20.9,50.8l-13.1-8.2v-4.8l12.8-7.8,2.5,3.4-11.3,6.9,11.6,7.2-2.5,3.3ZM48.9,53.9c-2,2.8-4.8,4.1-8.5,4.1s-6-1.2-7.9-3.6l-.3,3h-4.1V16.9l4.6-.5v16c2.2-2.9,5-4.4,8.3-4.4s6.4,1.3,8.2,4c1.8,2.6,2.6,6.3,2.6,11.1.1,4.4-.9,8-2.9,10.8ZM70.5,42.6l-13.1,8.2-2.4-3.3,11.6-7.2-11.3-6.9,2.5-3.4,12.7,7.9v4.7Z"/>
</svg>