<svg id="logosandtypes_com" data-name="logosandtypes com" xmlns="http://www.w3.org/2000/svg" viewBox="0 0 150 150"><defs><style>.cls-1{fill:none;}.cls-2{fill:#159e49;}.cls-3{fill:#333433;}</style></defs><path class="cls-1" d="M0,0H150V150H0Z"/><polyline class="cls-2" points="117.66 140.19 117.66 126.89 35.89 126.89 35.89 140.19"/><path class="cls-3" d="M113.46,66.58a24.45,24.45,0,0,0-11.38-8.8,21.11,21.11,0,0,0,9.2-7.81,21.91,21.91,0,0,0,3.51-12.31,22.87,22.87,0,0,0-2.39-9.8,21.23,21.23,0,0,0-6-7.81,27.54,27.54,0,0,0-9.2-5.43A38.37,38.37,0,0,0,85.46,13.1H35.89V25.54a13.77,13.77,0,0,1,13.63,13.9h0A13.7,13.7,0,0,1,36,53.28h-.06V64.6A13.76,13.76,0,0,1,49.52,78.5h0v2.32a13.77,13.77,0,0,1-13.63,13.7v12.77H87.65a33.76,33.76,0,0,0,12.11-2,26.48,26.48,0,0,0,9.53-5.3,23.26,23.26,0,0,0,6-8.41A24.19,24.19,0,0,0,117.63,81,24.14,24.14,0,0,0,113.46,66.58Zm-51.1-40H82.22a14.18,14.18,0,0,1,10.13,3.7,12,12,0,0,1,4.43,9.6,11.93,11.93,0,0,1-3.9,9.34,14.73,14.73,0,0,1-10.13,3.57H62.36Zm33.1,62.68a15.17,15.17,0,0,1-11.12,3.91h-22V64.8H84.54a16.75,16.75,0,0,1,10.92,3.9,13.59,13.59,0,0,1,4.1,10.2A12.24,12.24,0,0,1,95.46,89.22Z"/></svg>