<?xml version="1.0" encoding="UTF-8"?>
<svg id="Layer_1" xmlns="http://www.w3.org/2000/svg" version="1.1" viewBox="0 0 32 36">
  <!-- Generator: Adobe Illustrator 29.3.1, SVG Export Plug-In . SVG Version: 2.1.0 Build 151)  -->
  <defs>
    <style>
      .st0 {
        fill: #777;
      }
    </style>
  </defs>
  <path class="st0" d="M30.6,8.5L16.9.6c-.6-.4-1.4-.4-2,0L1.3,8.5c-.6.4-1,1-1,1.7v15.8c0,.7.4,1.4,1,1.7l13.7,7.9c.6.4,1.4.4,2,0l13.7-7.9c.6-.4,1-1,1-1.7v-15.8c0-.7-.4-1.4-1-1.7h0ZM16.2,17.2c-.2.1-.4.1-.6,0L2.3,9.5,15.6,1.8c.2-.1.4-.1.6,0l13.3,7.7-13.3,7.7ZM14.9,18.4c0,0,.2.1.3.1v15.7L1.9,26.6c-.2-.1-.3-.3-.3-.5v-15.4l13.3,7.7Z"/>
</svg>