<?xml version="1.0" encoding="UTF-8"?>
<svg id="Layer_1" xmlns="http://www.w3.org/2000/svg" xmlns:svg="http://www.w3.org/2000/svg" version="1.1" viewBox="0 0 100 100">
  <!-- Generator: Adobe Illustrator 29.1.0, SVG Export Plug-In . SVG Version: 2.1.0 Build 142)  -->
  <defs>
    <style>
      .st0 {
        fill: #fdcf60;
      }

      .st1 {
        fill: #90e4b5;
      }

      .st2 {
        fill: #ff9d94;
      }

      .st3 {
        fill: #fff;
      }

      .st4 {
        fill: #0b1088;
      }
    </style>
  </defs>
  <g id="rect23">
    <rect class="st4" y="0" width="100" height="100" rx="15" ry="15"/>
  </g>
  <rect id="rect14" class="st3" x="47.6" y="60.1" width="8.7" height="16.7"/>
  <rect id="rect15" class="st0" x="47.6" y="18" width="8.7" height="19.6"/>
  <rect id="rect16" class="st1" x="47.6" y="37.6" width="8.7" height="22.5"/>
  <circle id="circle16" class="st2" cx="31.3" cy="48.7" r="5.2"/>
  <rect id="rect17" class="st0" x="13.9" y="35.5" width="8.7" height="4.4"/>
  <rect id="rect18" class="st1" x="31.4" y="18" width="9.8" height="8.7"/>
  <rect id="rect19" class="st1" x="13.9" y="60.1" width="8.7" height="16.7"/>
  <rect id="rect20" class="st3" x="13.9" y="39.9" width="8.7" height="20.2"/>
  <path id="path20" class="st3" d="M31.4,18c-9.6,0-17.5,7.9-17.5,17.5h8.7c0-4.8,3.9-8.8,8.8-8.8v-8.7Z"/>
  <rect id="rect21" class="st0" x="60.8" y="18" width="7.7" height="8.7"/>
  <path id="path21" class="st3" d="M68.6,18v8.7c4.8,0,8.8,3.9,8.8,8.8s-3.9,8.8-8.8,8.8v8.7c9.6,0,17.5-7.8,17.5-17.5s-7.9-17.5-17.5-17.5Z"/>
  <rect id="rect22" class="st1" x="60.8" y="44.3" width="7.7" height="8.7"/>
</svg>