<?xml version="1.0" encoding="UTF-8" standalone="no"?>
<svg version="1.1" width="2466.8179" height="1496.2" id="svg587" sodipodi:docname="green_enhance_download_image_1711530720636.svg" inkscape:version="1.3.2 (091e20e, 2023-11-25)" xmlns:inkscape="http://www.inkscape.org/namespaces/inkscape" xmlns:sodipodi="http://sodipodi.sourceforge.net/DTD/sodipodi-0.dtd" xmlns="http://www.w3.org/2000/svg" xmlns:svg="http://www.w3.org/2000/svg">
  <defs id="defs587"/>
  <sodipodi:namedview id="namedview587" pagecolor="#ffffff" bordercolor="#000000" borderopacity="0.25" inkscape:showpageshadow="2" inkscape:pageopacity="0.0" inkscape:pagecheckerboard="0" inkscape:deskcolor="#d1d1d1" inkscape:zoom="0.35355339" inkscape:cx="2237.2858" inkscape:cy="1056.4175" inkscape:window-width="1920" inkscape:window-height="1015" inkscape:window-x="0" inkscape:window-y="41" inkscape:window-maximized="1" inkscape:current-layer="svg587"/>
  <path d="m 462.7056,35.559721 496.02785,-0.0554 495.24935,476.513189 c 0,0 -7.9513,133.68782 -1.3046,152.6643 -1.3153,2.54086 -1.5442,5.06686 -1.9726,7.8789 0.6294,-10e-4 1.2588,-0.002 1.9073,-0.003 0.3595,4.16317 294.6581,2.82751 294.6581,2.82751 0,0 -0.2671,134.50667 0.8905,191.73327 0,0 -359.6206,-0.4368 -541.4559,-0.555 C 963.16585,588.72003 463.7087,38.563801 463.7087,38.563801 l -1,-3 z" fill="#fedb01" id="path2" style="fill:#22a705;fill-opacity:1" sodipodi:nodetypes="cccccccccccc"/>
  <path d="m 967.70555,672.56009 h 238.99995 v 194 c 81.0935,-0.3171 173.1407,-1.094 254.233,-1.5728 l -2.134,198.71591 c -118.5804,2.7302 -676.09661,0.8682 -676.09661,0.8682 L 967.70785,871.57149 h -3.6517 l -231.34826,-0.9993 c 0,0 -0.039,-130.66889 0.01,-196.00001 z" fill="#d33d3e" id="path3" style="fill:#2ee366;fill-opacity:1" sodipodi:nodetypes="ccccccccccc"/>
  <path d="m 1776.7203,283.3055 c 156.7152,1.81491 470.2681,1.64506 470.2681,1.64506 0,0 135.2157,129.32745 195.7171,191.60893 l -210,1 -207,199 -277.5881,0.0319 c 0,0 0.4308,-133.39606 0.5869,-199.03193 9.6229,-36.12225 -3.3023,-194.18407 28.016,-194.25399 z" fill="#be508e" id="path4" style="fill:#2ee366;fill-opacity:1" sodipodi:nodetypes="cccccccc"/>
  <path d="m 1457.2873,1063.7294 -4.3399,201.2202 c 0,0 -170.7491,0.7322 -255.238,0.6136 9e-4,0.6797 0,1.3594 0,2.0597 l -1.3596,-202.5747 z" fill="#c05492" id="path5" style="fill:#31a560;fill-opacity:1" sodipodi:nodetypes="cccccc"/>
  <path d="m 738.11469,288.33586 1.5909,193.22386 226.99996,1.00037 v 191 c -87.33056,1.008 -262.01776,1.23022 -262.01776,1.23022 L 288.7109,289.56371 c 131.62387,-0.94031 449.40379,-1.22785 449.40379,-1.22785 z" fill="#bf2c25" id="path6" style="fill:#427494;fill-opacity:1" sodipodi:nodetypes="ccccccc"/>
  <path d="M 462.7056,35.559721 738.16419,288.3812 c -92.0461,1.52001 -449.3623,1.25341 -449.3623,1.25341 L 23.705605,37.560671 c 0,0 244.457375,-1.93807 438.999995,-1.99998 z" fill="#46c3ee" id="path7" sodipodi:nodetypes="cccccc"/>
  <path id="path8" style="fill:#49c4ec;fill-opacity:1" d="m 1495.0056,865.58299 c 0.9189,-0.013 1.8112,-0.025 2.7031,-0.037 l 175,170.00001 c 3.3244,-3.3038 6.6472,-6.6093 9.9668,-9.918 1.365,-1.3609 2.7302,-2.7215 4.0957,-4.082 215.1299,-219.77251 334.5844,-335.71111 338.9375,-345.00003 -87.7055,-0.3387 -175.4117,-0.48606 -263.1171,-0.84193 -1.6137,-0.002 -1.6137,-9.5e-4 -3.1954,-0.002 -0.9916,-0.006 -1.9536,-0.0126 -2.916,-0.0176 -2.4887,-0.008 -4.6391,-0.10839 -7.0703,-0.64648 -0.5786,-0.16706 -1.1397,-0.33005 -1.7012,-0.49219 -1.1146,2.22861 -1.1157,2.22947 -1.1367,8.32226 -0.034,56.58829 -0.069,113.18286 1.0957,169.76176 0.021,1.2093 0.041,2.3829 0.061,3.5566 0.035,1.7864 0.044,3.5738 -0.021,5.3594 -2.9292,1.4791 -2.9288,1.4789 -6.4492,1.2656 -156.8551,2.4118 -243.88,2.6604 -246.252,2.7716 z" sodipodi:nodetypes="sccscccccccccccccs"/>
  <path id="path593" style="fill:#49c4ec;fill-opacity:1" d="m 966.71465,482.54782 -0.2035,191.07772 c 0,0 -11.836,-1.42281 239.91495,-1.12084 l 1.3218,-190.38559 z" sodipodi:nodetypes="ccccc"/>
  <path d="M 1463.7055,36.559721 V 287.55971 l -204.9414,-0.008 c 0,0 -161.9289,-162.22648 -243.1563,-241.355439 l -6.9023,-6.63671 v -2 c 151.6657,-0.80864 303.3327,-0.86096 455,-1.00001 z" fill="#b3cc16" id="path10" sodipodi:nodetypes="ccccccc"/>
  <path d="m 1350.3621,410.48613 c 102.9138,95.26861 103.6207,101.53039 103.6207,101.53039 2.2759,14.71327 -1.6214,161.23367 -1.6214,161.23367 l -245.6405,-0.85878 1.6648,-394.7099 z" fill="#b0cb1a" id="path11" sodipodi:nodetypes="cccccc"/>
  <path d="m 970.34185,1264.9517 c 132.24635,-0.9146 -12.2646,0.6985 219.11185,0.451 6.1375,0.038 6.1375,0.038 7.2518,1.1524 0,60.806 0.8595,121.6555 -0.5145,182.4532 -0.056,2.4221 -0.1183,4.8438 -0.1836,7.2657 -0.016,0.7261 -0.033,1.4521 -0.049,2.2002 -0.1472,4.9657 -0.1472,4.9657 -1.2623,6.0809 -145.3248,1.1085 -290.67011,1.1115 -435.99991,0.9997 l -1,-3 c 1.0842,-1.6892 1.0842,-1.6892 2.8164,-3.5586 0.9747,-1.0574 0.9747,-1.0574 1.9692,-2.1362 2.6149,-2.7222 173.26586,-167.8587 189.65186,-183.7427 l 2.5625,-2.5625 c 1.2661,-1.2979 1.2661,-1.2979 2.5578,-2.6221 4.0495,-3.3146 8.0291,-3.0641 13.0785,-2.9859 z" fill="#49c4ec" id="path12" sodipodi:nodetypes="cccccccccccccccc"/>
  <path d="m 1771.5523,283.2969 244.2132,0.27584 c 0,0 2.9147,129.39146 3.94,193.98675 -90.1465,0.10845 -180.2931,-0.10401 -270.4382,0.4434 l -0.4368,-174.00606 22.7218,-20.70032 z" fill="#d53c3d" id="path13" style="fill:#22a705;fill-opacity:1" sodipodi:nodetypes="ccccccc"/>
  <path d="m 1595.7055,476.55972 c 50.9327,1.45163 102.1082,-2.25322 153,1.00003 0.1356,0.74462 -0.3607,198.92495 -0.3607,198.92495 l -298.692,-0.36882 146.0427,-199.55613 z" fill="#30a15f" id="path15" sodipodi:nodetypes="sccccs"/>
  <path d="m 1497.6488,865.67769 c 0,0 66.9657,59.17411 175.1187,169.98881 -73.2377,76.4662 -146.4522,153.909 -220.0125,230.0657 6.6877,-185.8525 4.2218,-401.97281 4.2218,-401.97281 z" fill="#af2e4d" id="path16" sodipodi:nodetypes="ccccc" style="fill:#54f560;fill-opacity:1"/>
  <path d="m 738.08789,288.32889 c 0,0 116.0949,-2.13744 226.61766,0.23073 0,0.55631 0.01,1.11262 0.013,1.68579 0.479,64.10657 0.97,128.21356 1.9879,192.31421 -40.169,0.0985 -55.67576,0.0267 -226.99996,-1 -2.139,-59.05159 -1.6186,-193.23073 -1.6186,-193.23073 z" fill="#f7a115" id="path17" style="fill:#46c3ee;fill-opacity:1" sodipodi:nodetypes="cccccc"/>
  <path d="m 1471.6984,39.912131 c 4.9098,5.30358 236.7359,225.133699 247.2571,235.835539 0.5027,0.50725 1.0054,1.0145 1.5234,1.53711 1.4105,1.42347 2.8186,2.84936 4.2266,4.27539 0.7785,0.73864 1.5571,1.47727 2.3593,2.23828 1.6407,1.76172 1.6407,1.76172 1.6407,3.76172 h -265 V 36.560171 Z" fill="#31a560" id="path18" sodipodi:nodetypes="ccscccccc"/>
  <path d="m 1196.5016,1065.1855 c 0.2504,68.1495 1.2415,201.346 1.2415,201.346 0,0 -157.3662,-0.6338 -236.04885,-0.9701 l 2,-1 1,-3 h 2 c 0.2507,-0.5752 0.5014,-1.1505 0.7597,-1.7431 66.29815,-64.5879 132.02885,-129.7597 198.43165,-194.2401 9.8751,-0.2969 19.1867,-0.4957 30.616,-0.3927 z" fill="#427494" id="path19" sodipodi:nodetypes="ccccccccc"/>
  <path d="m 1748.9861,305.27911 -0.2806,172.28061 -153,-1 c 0,0 59.8413,-64.50721 145.375,-163.125 0.6264,-0.72445 1.2529,-1.4489 1.8984,-2.19531 1.7511,-1.7036 4.2128,-5.89807 6.0072,-5.9603 z" fill="#b6d324" id="path20" sodipodi:nodetypes="cccccc"/>
  <path style="fill:#22a705;fill-opacity:1" d="m 1486.7497,894.1244 c 26.6644,-69.51311 26.6644,-69.51311 26.6644,-69.51311" id="path594"/>
  <path d="m 738.11469,288.33586 1.5909,193.22386 226.99996,1.00037 v 191 c -87.33056,1.008 -262.01776,1.23022 -262.01776,1.23022 L 288.7109,289.56371 c 131.62387,-0.94031 449.40379,-1.22785 449.40379,-1.22785 z" fill="#bf2c25" id="path1" style="fill:#427494;fill-opacity:1" sodipodi:nodetypes="ccccccc"/>
</svg>