<?xml version="1.0" encoding="UTF-8"?><svg id="Layer_1" xmlns="http://www.w3.org/2000/svg" viewBox="0 0 601 601"><defs><style>.cls-1{fill:#fff;}.cls-2{fill:none;stroke:#000;stroke-miterlimit:10;}.cls-3{fill:#555;}.cls-4{fill:#222;}</style></defs><rect class="cls-3" x=".5" y=".5" width="600" height="600" rx="100" ry="100"/><rect class="cls-2" x=".5" y=".5" width="600" height="600" rx="100" ry="100"/><path class="cls-1" d="M232.04,221.46c0,12.59-1.42,24.44-4.26,35.55-2.84,11.11-7.78,20.8-14.81,29.07-7.04,8.27-16.54,14.81-28.51,19.63-11.98,4.81-27.1,7.22-45.36,7.22-16.79,0-31.23-2.04-43.33-6.11-12.1-4.07-22.1-8.82-29.99-14.26l19.26-44.81c7.16,4.2,14.81,7.9,22.96,11.11,8.15,3.21,17.03,4.81,26.66,4.81,14.07,0,24.19-3.45,30.37-10.37,6.17-6.91,9.26-18.52,9.26-34.81V51.12h57.77v170.34Z"/><path class="cls-1" d="M253.51,188.87h83.69v23.33h-83.69v-23.33Z"/><path class="cls-1" d="M362.38,307.74V51.12h173.3v48.51h-115.54v50.36h102.57v47.4h-102.57v61.84h124.05v48.51h-181.82Z"/><path class="cls-4" d="M218.71,462.71c0,15.65-2.44,29.26-7.31,40.83-4.87,11.57-11.78,21.22-20.74,28.96-8.96,7.74-19.74,13.48-32.35,17.22-12.61,3.74-26.57,5.61-41.87,5.61-7.3,0-15.57-.31-24.78-.91-9.22-.61-18-1.87-26.35-3.78v-175.58c8.35-1.91,17.22-3.13,26.61-3.65,9.39-.52,17.74-.78,25.05-.78,15.13,0,28.96,1.79,41.48,5.35,12.52,3.57,23.26,9.13,32.22,16.7,8.96,7.57,15.87,17.13,20.74,28.7,4.87,11.57,7.31,25.35,7.31,41.35ZM98.18,526.11c1.91.17,4.44.31,7.57.39,3.13.09,7.39.13,12.78.13,22.09,0,38.57-5.61,49.44-16.83,10.87-11.22,16.31-26.91,16.31-47.09s-5.31-36.26-15.91-47.22c-10.61-10.96-27.05-16.44-49.31-16.44-9.74,0-16.7.26-20.87.78v126.27Z"/><path class="cls-4" d="M254.71,553.24v-180.79h116.1v27.92h-83.22v44.61h74.09v27.39h-74.09v52.96h89.48v27.92h-122.36Z"/><path class="cls-4" d="M514.92,553.24c-5.05-9.48-11.41-19.92-19.08-31.33-7.66-11.41-15.68-22.41-24.04-33.01-3.46,4.16-7.22,9.11-11.29,14.86-4.06,5.76-8.13,11.63-12.19,17.62s-7.83,11.79-11.28,17.38-6.23,10.42-8.32,14.48h-37.57c8-14.46,17.24-29.3,27.73-44.53,10.48-15.23,21.86-31.18,34.13-47.85l-59.25-88.41h39.13l39.57,59.35,39.74-59.35h37.57l-58.56,87.47c13.53,17.65,25.5,34.37,35.91,50.13,10.42,15.77,19.18,30.17,26.31,43.19h-38.51Z"/></svg>