<?xml version="1.0" encoding="UTF-8"?><svg id="Layer_1" xmlns="http://www.w3.org/2000/svg" viewBox="0 0 600 600"><defs><style>.cls-1{fill:#fff;}.cls-2{fill:#555;}.cls-3{fill:#222;}</style></defs><rect class="cls-2" width="600" height="600" rx="100" ry="100"/><path class="cls-1" d="M386.07,276.65c0,15.05-1.7,29.21-5.09,42.48-3.4,13.28-9.29,24.86-17.7,34.74-8.41,9.89-19.77,17.7-34.08,23.45-14.31,5.75-32.38,8.63-54.21,8.63-20.07,0-37.33-2.43-51.78-7.3-14.46-4.87-26.41-10.54-35.85-17.04l23.01-53.55c8.55,5.02,17.7,9.45,27.44,13.28,9.74,3.84,20.36,5.75,31.86,5.75,16.82,0,28.91-4.13,36.29-12.39,7.37-8.26,11.06-22.13,11.06-41.6V73.09h69.04v203.56Z"/><path class="cls-3" d="M237.72,485.18c0,11.92-1.86,22.28-5.56,31.09-3.71,8.81-8.97,16.16-15.79,22.05-6.82,5.89-15.03,10.26-24.63,13.11-9.6,2.85-20.23,4.27-31.88,4.27-5.56,0-11.85-.23-18.87-.7-7.02-.46-13.71-1.42-20.06-2.88v-133.7c6.36-1.46,13.11-2.38,20.26-2.78,7.15-.4,13.51-.6,19.07-.6,11.52,0,22.05,1.36,31.59,4.07,9.54,2.72,17.71,6.95,24.53,12.71,6.82,5.76,12.08,13.05,15.79,21.85,3.71,8.81,5.56,19.3,5.56,31.49ZM145.94,533.46c1.46.13,3.38.23,5.76.3,2.38.07,5.63.1,9.73.1,16.82,0,29.37-4.27,37.65-12.81,8.27-8.54,12.42-20.49,12.42-35.86s-4.04-27.61-12.12-35.96c-8.08-8.34-20.6-12.52-37.55-12.52-7.42,0-12.71.2-15.89.6v96.15Z"/><path class="cls-3" d="M265.14,554.12v-137.67h88.4v21.26h-63.37v33.97h56.42v20.86h-56.42v40.33h68.14v21.26h-93.17Z"/><path class="cls-3" d="M463.28,554.12c-3.85-7.22-8.69-15.17-14.53-23.86-5.84-8.68-11.94-17.06-18.3-25.14-2.63,3.17-5.5,6.94-8.59,11.32-3.09,4.38-6.19,8.86-9.28,13.42s-5.96,8.98-8.59,13.23c-2.63,4.26-4.74,7.93-6.33,11.02h-28.61c6.09-11.01,13.13-22.31,21.11-33.91,7.98-11.6,16.65-23.74,25.99-36.44l-45.11-67.32h29.8l30.13,45.2,30.26-45.2h28.61l-44.6,66.61c10.3,13.44,19.42,26.17,27.35,38.18,7.93,12.01,14.61,22.97,20.03,32.89h-29.32Z"/></svg>