<svg xmlns="http://www.w3.org/2000/svg" xmlns:xlink="http://www.w3.org/1999/xlink" width="1366" zoomAndPan="magnify" viewBox="0 0 1024.5 576" height="768" preserveAspectRatio="xMidYMid meet" version="1.0"><defs><g/></defs><g fill="#4e91ff" fill-opacity="1"><g transform="translate(322.528747, 523.525948)"><g><path d="M 90.703125 -67.921875 L 90.703125 0 L 75.171875 0 L 75.171875 -57.703125 L 57.296875 0 L 39.328125 0 L 21.34375 -58.015625 L 21.34375 0 L 5.921875 0 L 5.921875 -67.921875 L 32.578125 -67.921875 L 48.515625 -15.328125 L 64.453125 -67.921875 Z M 90.703125 -67.921875 "/></g></g></g><g fill="#4e91ff" fill-opacity="1"><g transform="translate(419.056688, 523.525948)"><g><path d="M 40.453125 1.734375 C 33.910156 1.734375 28.359375 0.765625 23.796875 -1.171875 C 19.234375 -3.109375 15.539062 -5.726562 12.71875 -9.03125 C 9.894531 -12.34375 7.832031 -16.140625 6.53125 -20.421875 C 5.238281 -24.710938 4.59375 -29.207031 4.59375 -33.90625 C 4.59375 -38.539062 5.238281 -42.984375 6.53125 -47.234375 C 7.832031 -51.492188 9.894531 -55.304688 12.71875 -58.671875 C 15.539062 -62.046875 19.234375 -64.71875 23.796875 -66.6875 C 28.359375 -68.664062 33.910156 -69.65625 40.453125 -69.65625 C 46.984375 -69.65625 52.515625 -68.664062 57.046875 -66.6875 C 61.578125 -64.71875 65.253906 -62.046875 68.078125 -58.671875 C 70.898438 -55.304688 72.957031 -51.492188 74.25 -47.234375 C 75.550781 -42.984375 76.203125 -38.539062 76.203125 -33.90625 C 76.203125 -29.207031 75.550781 -24.726562 74.25 -20.46875 C 72.957031 -16.21875 70.898438 -12.421875 68.078125 -9.078125 C 65.253906 -5.742188 61.578125 -3.109375 57.046875 -1.171875 C 52.515625 0.765625 46.984375 1.734375 40.453125 1.734375 Z M 20.84375 -33.90625 C 20.84375 -29.007812 21.4375 -24.859375 22.625 -21.453125 C 23.8125 -18.046875 25.832031 -15.457031 28.6875 -13.6875 C 31.550781 -11.914062 35.472656 -11.03125 40.453125 -11.03125 C 45.421875 -11.03125 49.332031 -11.914062 52.1875 -13.6875 C 55.050781 -15.457031 57.078125 -18.046875 58.265625 -21.453125 C 59.460938 -24.859375 60.0625 -29.007812 60.0625 -33.90625 C 60.0625 -38.945312 59.460938 -43.171875 58.265625 -46.578125 C 57.078125 -49.984375 55.050781 -52.570312 52.1875 -54.34375 C 49.332031 -56.113281 45.421875 -57 40.453125 -57 C 35.472656 -57 31.550781 -56.113281 28.6875 -54.34375 C 25.832031 -52.570312 23.8125 -49.984375 22.625 -46.578125 C 21.4375 -43.171875 20.84375 -38.945312 20.84375 -33.90625 Z M 20.84375 -33.90625 "/></g></g></g><g fill="#4e91ff" fill-opacity="1"><g transform="translate(499.854154, 523.525948)"><g><path d="M 62.40625 -16.546875 L 62.40625 -11.953125 C 62.40625 -9.160156 62.539062 -6.878906 62.8125 -5.109375 C 63.082031 -3.335938 63.390625 -1.632812 63.734375 0 L 48.203125 0 C 47.796875 -1.226562 47.472656 -2.796875 47.234375 -4.703125 C 46.992188 -6.609375 46.875 -8.957031 46.875 -11.75 L 46.875 -15.328125 C 46.875 -19.140625 45.835938 -21.910156 43.765625 -23.640625 C 41.691406 -25.378906 38.953125 -26.25 35.546875 -26.25 L 21.546875 -26.25 L 21.546875 0 L 5.921875 0 L 5.921875 -67.921875 L 41.78125 -67.921875 C 49.269531 -67.921875 54.882812 -66.203125 58.625 -62.765625 C 62.375 -59.328125 64.25 -54.847656 64.25 -49.328125 C 64.25 -44.566406 62.882812 -40.632812 60.15625 -37.53125 C 57.4375 -34.4375 54.066406 -32.445312 50.046875 -31.5625 C 52.359375 -31.019531 54.453125 -30.1875 56.328125 -29.0625 C 58.203125 -27.9375 59.679688 -26.382812 60.765625 -24.40625 C 61.859375 -22.4375 62.40625 -19.816406 62.40625 -16.546875 Z M 38.296875 -37.390625 C 41.835938 -37.390625 44.335938 -38.222656 45.796875 -39.890625 C 47.265625 -41.554688 48 -43.957031 48 -47.09375 C 48 -49.945312 47.234375 -52.125 45.703125 -53.625 C 44.171875 -55.125 41.703125 -55.875 38.296875 -55.875 L 21.546875 -55.875 L 21.546875 -37.390625 Z M 38.296875 -37.390625 "/></g></g></g><g fill="#4e91ff" fill-opacity="1"><g transform="translate(568.802694, 523.525948)"><g><path d="M 46.578125 -55.671875 L 34.015625 -55.671875 L 34.015625 -12.359375 L 46.578125 -12.359375 L 46.578125 0 L 5.921875 0 L 5.921875 -12.359375 L 18.484375 -12.359375 L 18.484375 -55.671875 L 5.921875 -55.671875 L 5.921875 -67.921875 L 46.578125 -67.921875 Z M 46.578125 -55.671875 "/></g></g></g><g fill="#4e91ff" fill-opacity="1"><g transform="translate(621.305724, 523.525948)"><g><path d="M 58.9375 0 L 54.03125 -13.890625 L 23.59375 -13.890625 L 18.6875 0 L 3.0625 0 L 26.96875 -67.921875 L 50.65625 -67.921875 L 74.5625 0 Z M 27.78125 -25.84375 L 49.84375 -25.84375 L 38.8125 -57.203125 Z M 27.78125 -25.84375 "/></g></g></g><g fill="#4e91ff" fill-opacity="1"><g transform="translate(698.840476, 523.525948)"><g/></g></g><path fill="#5092ff" d="M 511.898438 394.402344 C 613.515625 394.402344 695.886719 312.027344 695.886719 210.414062 C 695.886719 108.800781 613.515625 26.425781 511.898438 26.425781 C 410.285156 26.425781 327.910156 108.800781 327.910156 210.414062 C 327.910156 312.027344 410.285156 394.402344 511.898438 394.402344 Z M 511.898438 394.402344 " fill-opacity="1" fill-rule="nonzero"/><path fill="#ffffff" d="M 596.507812 125.835938 C 602.917969 128.785156 607.027344 135.195312 607.027344 142.253906 L 607.027344 283.667969 C 607.027344 293.648438 598.9375 301.738281 588.957031 301.738281 C 578.976562 301.738281 570.886719 293.648438 570.886719 283.667969 L 570.886719 185.117188 C 570.886719 183.714844 569.238281 182.957031 568.175781 183.871094 L 523.648438 222.039062 C 517.042969 227.703125 507.335938 227.851562 500.554688 222.394531 L 455.585938 186.183594 C 454.511719 185.316406 452.914062 186.082031 452.914062 187.460938 L 452.914062 283.667969 C 452.914062 293.648438 444.824219 301.738281 434.84375 301.738281 C 424.863281 301.738281 416.773438 293.648438 416.773438 283.667969 L 416.773438 146.277344 C 416.773438 139.320312 420.765625 132.984375 427.042969 129.980469 C 433.316406 126.976562 440.757812 127.839844 446.175781 132.203125 L 510.464844 183.972656 C 511.082031 184.46875 511.964844 184.453125 512.5625 183.941406 L 577.195312 128.535156 C 582.554688 123.941406 590.097656 122.886719 596.507812 125.835938 Z M 596.507812 125.835938 " fill-opacity="1" fill-rule="nonzero"/></svg>