<svg xmlns="http://www.w3.org/2000/svg" xmlns:xlink="http://www.w3.org/1999/xlink" width="1366" zoomAndPan="magnify" viewBox="0 0 1024.5 576" height="768" preserveAspectRatio="xMidYMid meet" version="1.0"><defs><g/></defs><g fill="#4e91ff" fill-opacity="1"><g transform="translate(425.637309, 323.183716)"><g><path d="M 113.609375 -85.078125 L 113.609375 0 L 94.15625 0 L 94.15625 -72.28125 L 71.765625 0 L 49.25 0 L 26.734375 -72.671875 L 26.734375 0 L 7.421875 0 L 7.421875 -85.078125 L 40.8125 -85.078125 L 60.765625 -19.1875 L 80.734375 -85.078125 Z M 113.609375 -85.078125 "/></g></g></g><g fill="#4e91ff" fill-opacity="1"><g transform="translate(546.541222, 323.183716)"><g><path d="M 50.65625 2.171875 C 42.46875 2.171875 35.515625 0.957031 29.796875 -1.46875 C 24.085938 -3.90625 19.460938 -7.191406 15.921875 -11.328125 C 12.390625 -15.460938 9.8125 -20.210938 8.1875 -25.578125 C 6.5625 -30.953125 5.75 -36.582031 5.75 -42.46875 C 5.75 -48.269531 6.5625 -53.835938 8.1875 -59.171875 C 9.8125 -64.503906 12.390625 -69.28125 15.921875 -73.5 C 19.460938 -77.71875 24.085938 -81.0625 29.796875 -83.53125 C 35.515625 -86.007812 42.46875 -87.25 50.65625 -87.25 C 58.84375 -87.25 65.773438 -86.007812 71.453125 -83.53125 C 77.128906 -81.0625 81.734375 -77.71875 85.265625 -73.5 C 88.804688 -69.28125 91.382812 -64.503906 93 -59.171875 C 94.625 -53.835938 95.4375 -48.269531 95.4375 -42.46875 C 95.4375 -36.582031 94.625 -30.972656 93 -25.640625 C 91.382812 -20.316406 88.804688 -15.566406 85.265625 -11.390625 C 81.734375 -7.210938 77.128906 -3.90625 71.453125 -1.46875 C 65.773438 0.957031 58.84375 2.171875 50.65625 2.171875 Z M 26.09375 -42.46875 C 26.09375 -36.332031 26.835938 -31.128906 28.328125 -26.859375 C 29.828125 -22.597656 32.367188 -19.359375 35.953125 -17.140625 C 39.535156 -14.921875 44.4375 -13.8125 50.65625 -13.8125 C 56.882812 -13.8125 61.789062 -14.921875 65.375 -17.140625 C 68.957031 -19.359375 71.492188 -22.597656 72.984375 -26.859375 C 74.484375 -31.128906 75.234375 -36.332031 75.234375 -42.46875 C 75.234375 -48.78125 74.484375 -54.066406 72.984375 -58.328125 C 71.492188 -62.597656 68.957031 -65.84375 65.375 -68.0625 C 61.789062 -70.28125 56.882812 -71.390625 50.65625 -71.390625 C 44.4375 -71.390625 39.535156 -70.28125 35.953125 -68.0625 C 32.367188 -65.84375 29.828125 -62.597656 28.328125 -58.328125 C 26.835938 -54.066406 26.09375 -48.78125 26.09375 -42.46875 Z M 26.09375 -42.46875 "/></g></g></g><g fill="#4e91ff" fill-opacity="1"><g transform="translate(647.74228, 323.183716)"><g><path d="M 78.171875 -20.71875 L 78.171875 -14.96875 C 78.171875 -11.46875 78.335938 -8.609375 78.671875 -6.390625 C 79.015625 -4.179688 79.398438 -2.050781 79.828125 0 L 60.390625 0 C 59.878906 -1.53125 59.472656 -3.488281 59.171875 -5.875 C 58.867188 -8.269531 58.71875 -11.21875 58.71875 -14.71875 L 58.71875 -19.1875 C 58.71875 -23.96875 57.414062 -27.441406 54.8125 -29.609375 C 52.21875 -31.785156 48.785156 -32.875 44.515625 -32.875 L 27 -32.875 L 27 0 L 7.421875 0 L 7.421875 -85.078125 L 52.328125 -85.078125 C 61.710938 -85.078125 68.75 -82.921875 73.4375 -78.609375 C 78.125 -74.304688 80.46875 -68.703125 80.46875 -61.796875 C 80.46875 -55.828125 78.757812 -50.898438 75.34375 -47.015625 C 71.9375 -43.140625 67.71875 -40.644531 62.6875 -39.53125 C 65.59375 -38.851562 68.21875 -37.804688 70.5625 -36.390625 C 72.90625 -34.984375 74.757812 -33.039062 76.125 -30.5625 C 77.488281 -28.09375 78.171875 -24.8125 78.171875 -20.71875 Z M 47.984375 -46.828125 C 52.410156 -46.828125 55.539062 -47.867188 57.375 -49.953125 C 59.207031 -52.046875 60.125 -55.054688 60.125 -58.984375 C 60.125 -62.566406 59.164062 -65.296875 57.25 -67.171875 C 55.332031 -69.046875 52.242188 -69.984375 47.984375 -69.984375 L 27 -69.984375 L 27 -46.828125 Z M 47.984375 -46.828125 "/></g></g></g><g fill="#4e91ff" fill-opacity="1"><g transform="translate(734.102195, 323.183716)"><g><path d="M 58.34375 -69.71875 L 42.609375 -69.71875 L 42.609375 -15.484375 L 58.34375 -15.484375 L 58.34375 0 L 7.421875 0 L 7.421875 -15.484375 L 23.15625 -15.484375 L 23.15625 -69.71875 L 7.421875 -69.71875 L 7.421875 -85.078125 L 58.34375 -85.078125 Z M 58.34375 -69.71875 "/></g></g></g><g fill="#4e91ff" fill-opacity="1"><g transform="translate(799.863673, 323.183716)"><g><path d="M 73.8125 0 L 67.671875 -17.40625 L 29.546875 -17.40625 L 23.40625 0 L 3.84375 0 L 33.78125 -85.078125 L 63.453125 -85.078125 L 93.390625 0 Z M 34.796875 -32.375 L 62.4375 -32.375 L 48.609375 -71.640625 Z M 34.796875 -32.375 "/></g></g></g><g fill="#4e91ff" fill-opacity="1"><g transform="translate(896.985738, 323.183716)"><g/></g></g><path fill="#5092ff" d="M 240.574219 402.863281 C 307.050781 402.863281 360.9375 348.972656 360.9375 282.5 C 360.9375 216.023438 307.050781 162.136719 240.574219 162.136719 C 174.101562 162.136719 120.210938 216.023438 120.210938 282.5 C 120.210938 348.972656 174.101562 402.863281 240.574219 402.863281 Z M 240.574219 402.863281 " fill-opacity="1" fill-rule="nonzero"/><path fill="#ffffff" d="M 295.925781 227.171875 C 300.117188 229.101562 302.804688 233.292969 302.804688 237.910156 L 302.804688 330.421875 C 302.804688 336.949219 297.515625 342.242188 290.984375 342.242188 C 284.457031 342.242188 279.164062 336.949219 279.164062 330.421875 L 279.164062 265.953125 C 279.164062 265.035156 278.085938 264.539062 277.390625 265.136719 L 248.261719 290.105469 C 243.9375 293.808594 237.589844 293.910156 233.152344 290.335938 L 203.734375 266.648438 C 203.03125 266.082031 201.988281 266.582031 201.988281 267.484375 L 201.988281 330.421875 C 201.988281 336.949219 196.695312 342.242188 190.164062 342.242188 C 183.636719 342.242188 178.34375 336.949219 178.34375 330.421875 L 178.34375 240.542969 C 178.34375 235.992188 180.957031 231.847656 185.0625 229.878906 C 189.167969 227.914062 194.035156 228.480469 197.578125 231.335938 L 239.636719 265.203125 C 240.039062 265.527344 240.617188 265.519531 241.007812 265.179688 L 283.292969 228.9375 C 286.796875 225.929688 291.730469 225.242188 295.925781 227.171875 Z M 295.925781 227.171875 " fill-opacity="1" fill-rule="nonzero"/></svg>