<?xml version="1.0" encoding="UTF-8"?><svg id="a" xmlns="http://www.w3.org/2000/svg" viewBox="0 0 1408.7 1408.7"><defs><style>.b{fill:#505050;}</style></defs><path class="b" d="M907.7,470.5h-405.2c-17.2,0-31.3,14.1-31.3,31.3v405.2c0,17.2,14.1,31.3,31.3,31.3h405.2c17.2,0,31.3-14.1,31.3-31.3v-405.2c0-17.2-14.1-31.3-31.3-31.3Z"/><path class="b" d="M440,4.3H34.8C17.6,4.3,3.5,18.4,3.5,35.6v405.2c0,17.2,14.1,31.3,31.3,31.3h405.2c17.2,0,31.3-14.1,31.3-31.3V35.6c0-17.2-14.1-31.3-31.3-31.3Z"/><path class="b" d="M1373.9,4.3h-405.2c-17.2,0-31.3,14.1-31.3,31.3v405.2c0,17.2,14.1,31.3,31.3,31.3h405.2c17.2,0,31.3-14.1,31.3-31.3V35.6c0-17.2-14.1-31.3-31.3-31.3Z"/><path class="b" d="M440,936.7H34.8c-17.2,0-31.3,14.1-31.3,31.3v405.2c0,17.2,14.1,31.3,31.3,31.3h405.2c17.2,0,31.3-14.1,31.3-31.3v-405.2c0-17.2-14.1-31.3-31.3-31.3h0Z"/><path class="b" d="M1373.9,936.7h-405.2c-17.2,0-31.3,14.1-31.3,31.3v405.2c0,17.2,14.1,31.3,31.3,31.3h405.2c17.2,0,31.3-14.1,31.3-31.3v-405.2c0-17.2-14.1-31.3-31.3-31.3h0Z"/></svg>