<?xml version="1.0" encoding="UTF-8"?>
<svg id="Layer_1" xmlns="http://www.w3.org/2000/svg" xmlns:xlink="http://www.w3.org/1999/xlink" version="1.1" viewBox="0 0 512 512">
  <!-- Generator: Adobe Illustrator 29.2.1, SVG Export Plug-In . SVG Version: 2.1.0 Build 116)  -->
  <defs>
    <style>
      .st0, .st1 {
        fill: none;
      }

      .st1 {
        stroke: #fff;
        stroke-miterlimit: 10;
        stroke-width: 17px;
      }

      .st2 {
        fill: url(#linear-gradient);
      }

      .st3 {
        fill: #fff;
      }

      .st4 {
        clip-path: url(#clippath);
      }
    </style>
    <linearGradient id="linear-gradient" x1="221.5" y1="1608.6" x2="294" y2="1879.1" gradientTransform="translate(0 -1530)" gradientUnits="userSpaceOnUse">
      <stop offset=".1" stop-color="#739eee"/>
      <stop offset=".9" stop-color="#f869c6"/>
    </linearGradient>
    <clipPath id="clippath">
      <rect class="st0" x="54.9" y="369.3" width="402" height="138.2"/>
    </clipPath>
  </defs>
  <circle class="st2" cx="256.9" cy="210.8" r="140"/>
  <g class="st4">
    <path class="st3" d="M406.2,395.9c.4-1.9.6-3.8.6-5.8,0-7.2-2.9-14.1-7.6-20.6-38.4,33.6-88.4,54.1-143.3,54.1s-104.9-20.5-143.3-54.1c-4.7,6.5-7.6,13.4-7.6,20.6s.3,3.9.7,5.8c-31.6,11.9-50.9,27.4-50.9,44.5,0,37,90,67.1,201.1,67.1s201.1-30,201.1-67-19.3-32.6-50.9-44.5h.1Z"/>
  </g>
  <path class="st3" d="M88.4,205.7h16.8c0-83.3,67.5-150.9,150.8-150.9v-16.8c-92.6,0-167.6,75-167.6,167.6h0Z"/>
  <path id="symbol" class="st3" d="M307.2,158c-7.8-17.7-25.7-21.4-47.6-17.8l-7-27.3-16.6,4.3,6.9,27.2c-4.4,1.1-8.8,2-13.3,3.3l-6.9-27-16.6,4.3,7,27.3c-3.6,1-33.5,8.7-33.5,8.7l4.6,17.8s12.2-3.4,12.1-3.1c6.8-1.8,9.9,1.6,11.4,4.8l19.3,74.8c.2,2.2-.2,5.9-4.8,7.1.3.2-12.1,3.1-12.1,3.1l1.8,20.7s29.6-7.6,33.5-8.6l7.1,27.6,16.6-4.3-7.1-27.8c4.6-1.1,9-2.2,13.3-3.3l7.1,27.6,16.6-4.3-7.1-27.6c25.6-6.2,43.6-22.3,39.9-47-2.4-14.9-18.6-27-32.1-28.4,8.3-7.4,12.5-18.1,7.4-32.1h.1ZM299.2,223.1c3.3,24.4-30.6,27.4-41.8,30.4l-9.7-36.5c11.2-2.9,46-15.3,51.6,6.2h-.1ZM278.7,173.4c3.5,21.7-25.5,24.2-34.9,26.6l-8.9-33.1c9.4-2.3,36.6-13.6,43.8,6.5Z"/>
  <circle class="st1" cx="256.9" cy="205.7" r="192.4"/>
</svg>