<?xml version="1.0" encoding="UTF-8"?>
<svg id="svg2" xmlns="http://www.w3.org/2000/svg" xmlns:xlink="http://www.w3.org/1999/xlink" xmlns:svg="http://www.w3.org/2000/svg" xmlns:sodipodi="http://sodipodi.sourceforge.net/DTD/sodipodi-0.dtd" xmlns:inkscape="http://www.inkscape.org/namespaces/inkscape" version="1.1" viewBox="0 0 172.9 178.9">
  <!-- Generator: Adobe Illustrator 29.3.0, SVG Export Plug-In . SVG Version: 2.1.0 Build 146)  -->
  <defs>
    <style>
      .st0, .st1, .st2, .st3 {
        fill: none;
      }

      .st4 {
        fill: #fff;
      }

      .st5 {
        fill: #0ac18e;
      }

      .st1 {
        stroke-width: 5.3px;
      }

      .st1, .st2, .st3 {
        stroke: #000;
        stroke-miterlimit: 13.3;
      }

      .st2 {
        stroke-width: 4px;
      }

      .st3 {
        stroke-width: 2.7px;
      }

      .st6 {
        clip-path: url(#clippath);
      }
    </style>
    <clipPath id="clippath">
      <rect class="st0" x="-22.5" y="-46.8" width="217.6" height="262"/>
    </clipPath>
  </defs>
  <sodipodi:namedview id="namedview4" bordercolor="#000000" borderopacity="0.25" inkscape:deskcolor="#d1d1d1" inkscape:pagecheckerboard="0" inkscape:pageopacity="0.0" inkscape:showpageshadow="2" pagecolor="#ffffff"/>
  <g id="g8" inkscape:groupmode="layer" inkscape:label="StableHedge Logo">
    <g id="g10">
      <g class="st6">
        <g id="g12">
          <g id="g18">
            <path id="path20" class="st5" d="M133.3,143.5c.3-.3.6-.7.9-1,.7-.8,1.5-1.7,2.2-2.5.3-.4.6-.7.9-1.1.8-.9,1.5-1.8,2.2-2.7.3-.3.5-.7.8-1,.8-1,1.5-1.9,2.2-2.9.2-.3.4-.6.7-.9.7-.9,1.3-1.8,1.9-2.8.3-.4.5-.8.8-1.1.6-.9,1.2-1.8,1.8-2.7.3-.4.6-.9.8-1.3.6-1,1.2-1.9,1.8-2.9.2-.4.5-.8.7-1.2.6-1,1.1-2,1.6-2.9.2-.4.5-.8.7-1.3.5-.9.9-1.8,1.4-2.8.3-.5.5-1,.8-1.5.4-.9.8-1.7,1.2-2.6.3-.6.6-1.2.8-1.8.4-.9.8-1.8,1.1-2.7.2-.6.5-1.2.7-1.8.3-.9.7-1.8,1-2.7.2-.6.5-1.2.7-1.9.4-1.1.7-2.2,1.1-3.3.1-.5.3-.9.4-1.3.3-1,.6-1.9.8-2.9.2-.6.4-1.2.5-1.8.3-.9.5-1.9.7-2.8.2-.6.3-1.3.5-1.9.2-.8.4-1.7.5-2.6.2-.8.3-1.5.5-2.3.1-.7.2-1.4.4-2,.2-.9.3-1.9.5-2.9.2-1,.3-2.1.4-3.1,0-.6.2-1.2.3-1.9,0-.8.2-1.7.2-2.5,0-.8.2-1.7.2-2.5.3-3.4.4-6.8.4-10.2s0-3,0-4.4c0-.2,0-.5,0-.7,0-1.2-.1-2.5-.2-3.7,0-.2,0-.4,0-.6,0-1.3-.2-2.6-.3-3.9,0-.1,0-.3,0-.4-.1-1-.2-2.1-.3-3.1,0,0,0,0,0,0,0-.3,0-.6-.1-.9-21.3-19.5-49.7-31.4-80.9-31.4s-.2,0-.3,0-.2,0-.3,0c-31.2,0-59.6,11.9-80.9,31.4,0,.3,0,.6-.1.9,0,0,0,0,0,0-.1,1-.2,2.1-.3,3.1,0,.1,0,.3,0,.4-.1,1.3-.2,2.6-.3,3.9,0,.2,0,.4,0,.6,0,1.2-.1,2.5-.2,3.7,0,.2,0,.5,0,.7,0,1.5,0,2.9,0,4.4,0,3.4.1,6.8.4,10.2,0,.8.2,1.7.2,2.5,0,.8.1,1.7.2,2.5,0,.6.2,1.2.3,1.9.1,1,.3,2.1.4,3.1.1,1,.3,1.9.5,2.9.1.7.2,1.4.4,2,.1.8.3,1.5.5,2.3.2.9.3,1.7.5,2.6.1.6.3,1.3.5,1.9.2.9.5,1.9.7,2.8.2.6.4,1.2.5,1.8.3,1,.5,1.9.8,2.9.1.5.3.9.4,1.3.4,1.1.7,2.2,1.1,3.3.2.6.5,1.3.7,1.9.3.9.6,1.8,1,2.7.2.6.5,1.2.7,1.8.4.9.7,1.8,1.1,2.7.3.6.5,1.2.8,1.8.4.9.8,1.8,1.2,2.6.2.5.5,1,.8,1.5.5.9.9,1.9,1.4,2.8.2.4.5.8.7,1.3.5,1,1.1,2,1.6,2.9.2.4.5.8.7,1.2.6,1,1.2,2,1.8,2.9.3.4.6.9.8,1.3.6.9,1.2,1.8,1.8,2.7.3.4.5.8.8,1.1.6.9,1.3,1.9,1.9,2.8.2.3.4.6.7.9.7,1,1.5,2,2.2,2.9.3.3.5.7.8,1,.7.9,1.5,1.8,2.2,2.7.3.4.6.7.9,1.1.7.8,1.5,1.7,2.2,2.5.3.3.6.7.9,1,.8.8,1.5,1.7,2.3,2.5.3.3.7.6,1,1,.8.8,1.6,1.6,2.4,2.4.3.3.6.6,1,.9.8.8,1.7,1.6,2.6,2.3.3.3.6.5.9.8.9.8,1.8,1.6,2.7,2.3.3.3.6.5.9.7.9.7,1.9,1.5,2.8,2.2.3.2.6.4.9.7,1,.7,1.9,1.5,2.9,2.2.3.2.6.4.9.6,1,.7,2,1.4,3.1,2.1.4.2.7.4,1.1.7,1,.6,2,1.3,3,1.9.4.2.8.4,1.2.7,1,.6,2,1.2,3,1.7.3.2.7.4,1,.5,1.1.6,2.1,1.2,3.2,1.7.3.2.6.3,1,.5,1.1.6,2.2,1.1,3.4,1.6.4.2.8.3,1.2.5,1.1.5,2.1,1,3.2,1.4h0s0,0,0,0c.3,0,.6,0,1,0s.2,0,.3,0c0,0,.2,0,.3,0,.3,0,.6,0,1,0,0,0,0,0,0,0h0c1.1-.5,2.1-.9,3.2-1.4.4-.2.8-.3,1.2-.5,1.1-.5,2.3-1.1,3.4-1.6.3-.2.6-.3,1-.5,1.1-.6,2.2-1.1,3.2-1.7.3-.2.7-.4,1-.5,1-.6,2-1.1,3-1.7.4-.2.8-.4,1.2-.7,1-.6,2-1.2,3-1.9.4-.2.7-.4,1.1-.7,1-.7,2.1-1.4,3.1-2.1.3-.2.6-.4.9-.6,1-.7,2-1.4,2.9-2.2.3-.2.6-.4.9-.7.9-.7,1.9-1.5,2.8-2.2.3-.3.6-.5.9-.7.9-.8,1.8-1.5,2.7-2.3.3-.3.6-.5.9-.8.9-.8,1.7-1.6,2.6-2.3.3-.3.6-.6,1-.9.8-.8,1.6-1.6,2.4-2.4.3-.3.7-.6,1-1,.8-.8,1.6-1.6,2.3-2.5"/>
          </g>
          <g id="g22">
            <path id="path24" class="st1" d="M133.3,143.5c.3-.3.6-.7.9-1,.7-.8,1.5-1.7,2.2-2.5.3-.4.6-.7.9-1.1.8-.9,1.5-1.8,2.2-2.7.3-.3.5-.7.8-1,.8-1,1.5-1.9,2.2-2.9.2-.3.4-.6.7-.9.7-.9,1.3-1.8,1.9-2.8.3-.4.5-.8.8-1.1.6-.9,1.2-1.8,1.8-2.7.3-.4.6-.9.8-1.3.6-1,1.2-1.9,1.8-2.9.2-.4.5-.8.7-1.2.6-1,1.1-2,1.6-2.9.2-.4.5-.8.7-1.3.5-.9.9-1.8,1.4-2.8.3-.5.5-1,.8-1.5.4-.9.8-1.7,1.2-2.6.3-.6.6-1.2.8-1.8.4-.9.8-1.8,1.1-2.7.2-.6.5-1.2.7-1.8.3-.9.7-1.8,1-2.7.2-.6.5-1.2.7-1.9.4-1.1.7-2.2,1.1-3.3.1-.5.3-.9.4-1.3.3-1,.6-1.9.8-2.9.2-.6.4-1.2.5-1.8.3-.9.5-1.9.7-2.8.2-.6.3-1.3.5-1.9.2-.8.4-1.7.5-2.6.2-.8.3-1.5.5-2.3.1-.7.2-1.4.4-2,.2-.9.3-1.9.5-2.9.2-1,.3-2.1.4-3.1,0-.6.2-1.2.3-1.9,0-.8.2-1.7.2-2.5,0-.8.2-1.7.2-2.5.3-3.4.4-6.8.4-10.2s0-3,0-4.4c0-.2,0-.5,0-.7,0-1.2-.1-2.5-.2-3.7,0-.2,0-.4,0-.6,0-1.3-.2-2.6-.3-3.9,0-.1,0-.3,0-.4-.1-1-.2-2.1-.3-3.1,0,0,0,0,0,0,0-.3,0-.6-.1-.9-21.3-19.5-49.7-31.4-80.9-31.4s-.2,0-.3,0-.2,0-.3,0c-31.2,0-59.6,11.9-80.9,31.4,0,.3,0,.6-.1.9,0,0,0,0,0,0-.1,1-.2,2.1-.3,3.1,0,.1,0,.3,0,.4-.1,1.3-.2,2.6-.3,3.9,0,.2,0,.4,0,.6,0,1.2-.1,2.5-.2,3.7,0,.2,0,.5,0,.7,0,1.5,0,2.9,0,4.4,0,3.4.1,6.8.4,10.2,0,.8.2,1.7.2,2.5,0,.8.1,1.7.2,2.5,0,.6.2,1.2.3,1.9.1,1,.3,2.1.4,3.1.1,1,.3,1.9.5,2.9.1.7.2,1.4.4,2,.1.8.3,1.5.5,2.3.2.9.3,1.7.5,2.6.1.6.3,1.3.5,1.9.2.9.5,1.9.7,2.8.2.6.4,1.2.5,1.8.3,1,.5,1.9.8,2.9.1.5.3.9.4,1.3.4,1.1.7,2.2,1.1,3.3.2.6.5,1.3.7,1.9.3.9.6,1.8,1,2.7.2.6.5,1.2.7,1.8.4.9.7,1.8,1.1,2.7.3.6.5,1.2.8,1.8.4.9.8,1.8,1.2,2.6.2.5.5,1,.8,1.5.5.9.9,1.9,1.4,2.8.2.4.5.8.7,1.3.5,1,1.1,2,1.6,2.9.2.4.5.8.7,1.2.6,1,1.2,2,1.8,2.9.3.4.6.9.8,1.3.6.9,1.2,1.8,1.8,2.7.3.4.5.8.8,1.1.6.9,1.3,1.9,1.9,2.8.2.3.4.6.7.9.7,1,1.5,2,2.2,2.9.3.3.5.7.8,1,.7.9,1.5,1.8,2.2,2.7.3.4.6.7.9,1.1.7.8,1.5,1.7,2.2,2.5.3.3.6.7.9,1,.8.8,1.5,1.7,2.3,2.5.3.3.7.6,1,1,.8.8,1.6,1.6,2.4,2.4.3.3.6.6,1,.9.8.8,1.7,1.6,2.6,2.3.3.3.6.5.9.8.9.8,1.8,1.6,2.7,2.3.3.3.6.5.9.7.9.7,1.9,1.5,2.8,2.2.3.2.6.4.9.7,1,.7,1.9,1.5,2.9,2.2.3.2.6.4.9.6,1,.7,2,1.4,3.1,2.1.4.2.7.4,1.1.7,1,.6,2,1.3,3,1.9.4.2.8.4,1.2.7,1,.6,2,1.2,3,1.7.3.2.7.4,1,.5,1.1.6,2.1,1.2,3.2,1.7.3.2.6.3,1,.5,1.1.6,2.2,1.1,3.4,1.6.4.2.8.3,1.2.5,1.1.5,2.1,1,3.2,1.4h0s0,0,0,0c.3,0,.6,0,1,0s.2,0,.3,0c0,0,.2,0,.3,0,.3,0,.6,0,1,0,0,0,0,0,0,0h0c1.1-.5,2.1-.9,3.2-1.4.4-.2.8-.3,1.2-.5,1.1-.5,2.3-1.1,3.4-1.6.3-.2.6-.3,1-.5,1.1-.6,2.2-1.1,3.2-1.7.3-.2.7-.4,1-.5,1-.6,2-1.1,3-1.7.4-.2.8-.4,1.2-.7,1-.6,2-1.2,3-1.9.4-.2.7-.4,1.1-.7,1-.7,2.1-1.4,3.1-2.1.3-.2.6-.4.9-.6,1-.7,2-1.4,2.9-2.2.3-.2.6-.4.9-.7.9-.7,1.9-1.5,2.8-2.2.3-.3.6-.5.9-.7.9-.8,1.8-1.5,2.7-2.3.3-.3.6-.5.9-.8.9-.8,1.7-1.6,2.6-2.3.3-.3.6-.6,1-.9.8-.8,1.6-1.6,2.4-2.4.3-.3.7-.6,1-1,.8-.8,1.6-1.6,2.3-2.5Z"/>
          </g>
          <g id="g26">
            <path id="path28" d="M86.3,161.3c-1-.5-2-1-3-1.5l-.9-.4c-1-.5-1.9-1-2.9-1.5l-.9-.5c-.8-.5-1.7-1-2.5-1.4l-1.2-.7c-.9-.5-1.8-1.1-2.6-1.6l-1-.6c-.9-.6-1.9-1.2-2.8-1.9l-.8-.5c-.9-.6-1.8-1.3-2.6-1.9l-.8-.6c-.8-.6-1.7-1.3-2.5-2l-.9-.7c-.8-.7-1.6-1.4-2.4-2.1l-.8-.7c-.7-.6-1.4-1.3-2.2-2l-1-.9c-.7-.6-1.3-1.3-2-1.9l-1.1-1.1c-.6-.7-1.3-1.3-1.9-2l-1.1-1.1c-.6-.6-1.2-1.3-1.7-2l-1.1-1.2c-.6-.8-1.3-1.5-1.9-2.3l-.8-1c-.7-.9-1.3-1.7-2-2.6l-.6-.8c-.6-.8-1.1-1.5-1.6-2.3l-.9-1.2c-.5-.7-.9-1.4-1.3-2,0,0-.9-1.4-1-1.5-.5-.8-.9-1.6-1.4-2.3l-.8-1.4c-.5-.8-.9-1.6-1.3-2.4l-.8-1.4c-.3-.6-.7-1.3-1-1.9,0,0-.9-1.7-1-1.9-.3-.5-.5-1.1-.8-1.6l-.7-1.5c-.1-.3-.2-.5-.4-.8-.3-.6-.5-1.2-.7-1.7l-.6-1.5c-.1-.3-.2-.5-.3-.8-.2-.6-.4-1.1-.6-1.7l-.6-1.6c-.1-.3-.2-.6-.3-.9-.3-.9-.6-1.7-.9-2.6l-.5-1.5c-.2-.6-.4-1.2-.5-1.9l-.5-1.6c0-.3-.2-.5-.2-.8-.2-.6-.3-1.2-.5-1.8l-.4-1.6c0-.3-.1-.6-.2-.8-.1-.5-.2-1-.3-1.4l-.4-1.8c0-.4-.2-.8-.2-1.1,0-.3-.1-.6-.2-.9l-.3-1.7c-.1-.6-.2-1.2-.3-1.8-.1-.7-.2-1.4-.3-2l-.2-1.6c0-.3,0-.5-.1-.8,0-.4,0-.9-.1-1.3l-.2-1.8c0-.5,0-.9-.1-1.4-.2-3-.3-6.1-.3-9.2s0-2.7,0-4v-.7c0-1.1.1-2.2.2-3.3v-.5c.1-.9.2-1.8.3-2.6,19.1-16,43.1-24.7,68.1-24.7.1,0,.5,0,.5,0,.1,0,.2,0,.4,0,25,0,49,8.8,68.1,24.7,0,.9.1,1.7.2,2.6v.4c.1,1.2.2,2.3.2,3.4v.7c0,1.3.1,2.6.1,4,0,3.1-.1,6.1-.3,9.2,0,.5,0,.9-.1,1.4l-.2,1.8c0,.4,0,.9-.1,1.3,0,.3,0,.5-.1.8l-.2,1.6c0,.7-.2,1.4-.3,2.1,0,.6-.2,1.2-.3,1.7l-.3,1.7c0,.3-.1.6-.2.9,0,.4-.2.8-.2,1.1l-.4,1.8c0,.5-.2,1-.3,1.4,0,.3-.1.6-.2.8l-.4,1.6c-.2.6-.3,1.2-.5,1.8,0,.3-.1.5-.2.8l-.5,1.6c-.2.6-.4,1.2-.5,1.9l-.5,1.5c-.3.9-.6,1.8-.9,2.6-.1.3-.2.6-.3.9l-.6,1.5c-.2.6-.4,1.1-.6,1.7-.1.3-.2.5-.3.8l-.6,1.5c-.2.6-.5,1.2-.7,1.8-.1.3-.2.5-.4.8l-.7,1.5c-.3.6-.5,1.1-.8,1.7,0,.2-1,1.9-1,1.9-.3.6-.6,1.3-1,1.9l-.8,1.5c-.4.8-.8,1.5-1.3,2.3l-.8,1.3c-.5.8-.9,1.6-1.4,2.4-.1.2-1,1.5-1,1.5-.4.7-.9,1.4-1.3,2.1l-.9,1.2c-.5.8-1.1,1.5-1.6,2.3l-.6.8c-.7.9-1.3,1.8-2,2.6l-.8,1c-.6.8-1.2,1.5-1.9,2.3l-1.1,1.3c-.6.7-1.1,1.3-1.7,2l-1.1,1.1c-.6.7-1.3,1.3-1.9,2l-1.1,1.1c-.6.6-1.3,1.3-1.9,1.9l-1,.9c-.7.7-1.4,1.3-2.2,2l-.8.7c-.8.7-1.6,1.4-2.4,2.1l-.8.7c-.9.7-1.7,1.4-2.5,2l-.8.6c-.9.7-1.8,1.3-2.6,1.9l-.8.5c-.9.6-1.8,1.3-2.8,1.9l-1,.6c-.9.6-1.8,1.2-2.7,1.7l-1.2.7c-.8.5-1.7,1-2.5,1.5l-.9.5c-1,.5-1.9,1-2.9,1.5l-.9.4c-1,.5-2,1-3,1.5h-.1s-.1,0-.1,0Z"/>
          </g>
          <g id="g30">
            <path id="path32" class="st3" d="M86.3,161.3c-1-.5-2-1-3-1.5l-.9-.4c-1-.5-1.9-1-2.9-1.5l-.9-.5c-.8-.5-1.7-1-2.5-1.4l-1.2-.7c-.9-.5-1.8-1.1-2.6-1.6l-1-.6c-.9-.6-1.9-1.2-2.8-1.9l-.8-.5c-.9-.6-1.8-1.3-2.6-1.9l-.8-.6c-.8-.6-1.7-1.3-2.5-2l-.9-.7c-.8-.7-1.6-1.4-2.4-2.1l-.8-.7c-.7-.6-1.4-1.3-2.2-2l-1-.9c-.7-.6-1.3-1.3-2-1.9l-1.1-1.1c-.6-.7-1.3-1.3-1.9-2l-1.1-1.1c-.6-.6-1.2-1.3-1.7-2l-1.1-1.2c-.6-.8-1.3-1.5-1.9-2.3l-.8-1c-.7-.9-1.3-1.7-2-2.6l-.6-.8c-.6-.8-1.1-1.5-1.6-2.3l-.9-1.2c-.5-.7-.9-1.4-1.3-2,0,0-.9-1.4-1-1.5-.5-.8-.9-1.6-1.4-2.3l-.8-1.4c-.5-.8-.9-1.6-1.3-2.4l-.8-1.4c-.3-.6-.7-1.3-1-1.9,0,0-.9-1.7-1-1.9-.3-.5-.5-1.1-.8-1.6l-.7-1.5c-.1-.3-.2-.5-.4-.8-.3-.6-.5-1.2-.7-1.7l-.6-1.5c-.1-.3-.2-.5-.3-.8-.2-.6-.4-1.1-.6-1.7l-.6-1.6c-.1-.3-.2-.6-.3-.9-.3-.9-.6-1.7-.9-2.6l-.5-1.5c-.2-.6-.4-1.2-.5-1.9l-.5-1.6c0-.3-.2-.5-.2-.8-.2-.6-.3-1.2-.5-1.8l-.4-1.6c0-.3-.1-.6-.2-.8-.1-.5-.2-1-.3-1.4l-.4-1.8c0-.4-.2-.8-.2-1.1,0-.3-.1-.6-.2-.9l-.3-1.7c-.1-.6-.2-1.2-.3-1.8-.1-.7-.2-1.4-.3-2l-.2-1.6c0-.3,0-.5-.1-.8,0-.4,0-.9-.1-1.3l-.2-1.8c0-.5,0-.9-.1-1.4-.2-3-.3-6.1-.3-9.2s0-2.7,0-4v-.7c0-1.1.1-2.2.2-3.3v-.5c.1-.9.2-1.8.3-2.6,19.1-16,43.1-24.7,68.1-24.7.1,0,.5,0,.5,0,.1,0,.2,0,.4,0,25,0,49,8.8,68.1,24.7,0,.9.1,1.7.2,2.6v.4c.1,1.2.2,2.3.2,3.4v.7c0,1.3.1,2.6.1,4,0,3.1-.1,6.1-.3,9.2,0,.5,0,.9-.1,1.4l-.2,1.8c0,.4,0,.9-.1,1.3,0,.3,0,.5-.1.8l-.2,1.6c0,.7-.2,1.4-.3,2.1,0,.6-.2,1.2-.3,1.7l-.3,1.7c0,.3-.1.6-.2.9,0,.4-.2.8-.2,1.1l-.4,1.8c0,.5-.2,1-.3,1.4,0,.3-.1.6-.2.8l-.4,1.6c-.2.6-.3,1.2-.5,1.8,0,.3-.1.5-.2.8l-.5,1.6c-.2.6-.4,1.2-.5,1.9l-.5,1.5c-.3.9-.6,1.8-.9,2.6-.1.3-.2.6-.3.9l-.6,1.5c-.2.6-.4,1.1-.6,1.7-.1.3-.2.5-.3.8l-.6,1.5c-.2.6-.5,1.2-.7,1.8-.1.3-.2.5-.4.8l-.7,1.5c-.3.6-.5,1.1-.8,1.7,0,.2-1,1.9-1,1.9-.3.6-.6,1.3-1,1.9l-.8,1.5c-.4.8-.8,1.5-1.3,2.3l-.8,1.3c-.5.8-.9,1.6-1.4,2.4-.1.2-1,1.5-1,1.5-.4.7-.9,1.4-1.3,2.1l-.9,1.2c-.5.8-1.1,1.5-1.6,2.3l-.6.8c-.7.9-1.3,1.8-2,2.6l-.8,1c-.6.8-1.2,1.5-1.9,2.3l-1.1,1.3c-.6.7-1.1,1.3-1.7,2l-1.1,1.1c-.6.7-1.3,1.3-1.9,2l-1.1,1.1c-.6.6-1.3,1.3-1.9,1.9l-1,.9c-.7.7-1.4,1.3-2.2,2l-.8.7c-.8.7-1.6,1.4-2.4,2.1l-.8.7c-.9.7-1.7,1.4-2.5,2l-.8.6c-.9.7-1.8,1.3-2.6,1.9l-.8.5c-.9.6-1.8,1.3-2.8,1.9l-1,.6c-.9.6-1.8,1.2-2.7,1.7l-1.2.7c-.8.5-1.7,1-2.5,1.5l-.9.5c-1,.5-1.9,1-2.9,1.5l-.9.4c-1,.5-2,1-3,1.5h-.1s-.1,0-.1,0Z"/>
          </g>
          <g id="g34">
            <path id="path36" class="st4" d="M125.1,78.6s17,8.1,16.2,17.4-9.1,19.5-9.1,19.5l-9.9,13s9.8-11,8.2-15.6-10.5-6.8-10.5-6.8c0,0,5.7-20.8,5.2-27.4"/>
          </g>
          <g id="g38">
            <path id="path40" class="st3" d="M125.1,78.6s17,8.1,16.2,17.4-9.1,19.5-9.1,19.5l-9.9,13s9.8-11,8.2-15.6-10.5-6.8-10.5-6.8c0,0,5.7-20.8,5.2-27.4Z"/>
          </g>
          <g id="g42">
            <path id="path44" class="st4" d="M45.5,86.3s-17.9-.6-19.8-9.8c-1.9-9.2,1.7-17.3,1.7-17.3l8.1-17.4s-7.4,11.4-4.4,15.4c3,4,21.6,4.8,21.6,4.8,0,0-9.7,18.1-7.2,24.2"/>
          </g>
          <g id="g46">
            <path id="path48" class="st3" d="M45.5,86.3s-17.9-.6-19.8-9.8c-1.9-9.2,1.7-17.3,1.7-17.3l8.1-17.4s-7.4,11.4-4.4,15.4c3,4,21.6,4.8,21.6,4.8,0,0-9.7,18.1-7.2,24.2Z"/>
          </g>
          <g id="g50">
            <path id="path52" class="st5" d="M127.3,82.6c0,22.6-18.3,40.9-40.9,40.9s-40.9-18.3-40.9-40.9,18.3-40.9,40.9-40.9,40.9,18.3,40.9,40.9"/>
          </g>
          <g id="g54">
            <path id="path56" class="st1" d="M127.3,82.6c0,22.6-18.3,40.9-40.9,40.9s-40.9-18.3-40.9-40.9,18.3-40.9,40.9-40.9,40.9,18.3,40.9,40.9Z"/>
          </g>
          <g id="g58">
            <path id="path60" class="st3" d="M85.4,155.5l-.9-.4c-.8-.4-1.7-.9-2.6-1.4l-1-.6c-.7-.4-1.5-.8-2.2-1.3l-1.3-.8c-.7-.4-1.5-.9-2.3-1.4l-1.2-.8c-.8-.5-1.7-1.1-2.6-1.8l-.8-.6c-.8-.5-1.6-1.2-2.4-1.8l-.9-.6c-.7-.5-1.5-1.2-2.3-1.8l-1-.8c-.7-.6-1.4-1.2-2.2-1.8l-1-.8c-.6-.5-1.2-1.1-1.9-1.7l-1.2-1.1c-.5-.5-1.1-1.1-1.7-1.7l-1.2-1.2c-.5-.5-1-1.1-1.6-1.7l-1.2-1.3c-.5-.5-1-1.1-1.5-1.7l-1.2-1.4c-.5-.6-1.1-1.4-1.7-2.1l-.9-1.1c-.6-.8-1.2-1.6-1.9-2.5l-.6-.8c-.4-.6-.9-1.3-1.4-2l-1-1.4c-.4-.6-.8-1.2-1.2-1.8,0,0-.9-1.4-1-1.6-.4-.7-.8-1.4-1.3-2.1l-.9-1.5c-.4-.6-.7-1.3-1.1-2.1l-.9-1.6c-.3-.5-.5-1.1-.8-1.6,0,0-.9-1.7-1-2-.2-.5-.5-1-.7-1.5,0,0-1-2.1-1.1-2.3-.2-.5-.4-1-.6-1.5,0,0-.9-2.1-1-2.3-.2-.5-.4-1-.6-1.5,0,0-.8-2.2-.9-2.4-.3-.8-.5-1.6-.8-2.4l-.6-1.7c-.1-.5-.3-1-.5-1.6,0,0-.6-2.2-.7-2.4-.1-.5-.3-1-.4-1.6,0,0-.6-2.3-.6-2.5,0-.4-.2-.8-.3-1.2l-.4-2c0-.3-.1-.6-.2-.9,0-.2-.5-2.7-.5-2.7,0-.5-.2-1-.3-1.5,0-.6-.2-1.2-.2-1.7l-.2-1.8c0-.3,0-.5,0-.7,0-.3,0-.7-.1-1l-.2-2.2c0-.4,0-.7-.1-1.1-.2-2.9-.3-5.9-.3-8.8s0-2.6,0-3.8v-.6c0-1.1.1-2.2.2-3.2,0,0,0-.8,0-1,17.9-14.4,40.4-22.3,63.4-22.4h.5s.4,0,.4,0c23,0,45.5,8,63.4,22.4,0,.2,0,1,0,1,0,1.1.1,2.1.2,3.2v.8c0,1.2,0,2.4,0,3.7,0,2.9-.1,5.9-.3,8.8,0,.4,0,.7-.1,1.1l-.2,2.2c0,.4,0,.7-.1,1.1,0,.2-.3,2.5-.3,2.5,0,.6-.2,1.2-.2,1.8,0,.5-.2,1-.3,1.5,0,0-.4,2.5-.5,2.7,0,.3-.1.6-.2.8l-.4,2c-.1.5-.2.9-.3,1.4,0,.2-.6,2.6-.6,2.6-.1.5-.2,1-.4,1.5,0,.2-.7,2.4-.7,2.4-.2.5-.3,1.1-.5,1.6l-.5,1.6c-.3.8-.5,1.6-.8,2.4,0,.2-.9,2.3-.9,2.3-.2.6-.4,1.1-.6,1.6,0,.2-.9,2.2-.9,2.2-.3.6-.5,1.2-.7,1.7,0,.2-1.1,2.3-1.1,2.3-.2.5-.4,1-.7,1.5-.1.2-1,2-1,2-.3.6-.6,1.2-.9,1.7l-.8,1.4c-.4.8-.8,1.5-1.2,2.2l-.8,1.4c-.4.7-.9,1.5-1.3,2.2-.1.2-1.1,1.6-1.1,1.6-.4.6-.8,1.2-1.2,1.8l-.9,1.3c-.5.7-.9,1.4-1.4,2l-.5.7c-.7.9-1.3,1.8-1.9,2.6l-.9,1.1c-.6.7-1.1,1.4-1.7,2l-1.2,1.4c-.5.6-1,1.2-1.5,1.7l-1.1,1.2c-.6.6-1.1,1.2-1.7,1.8l-1.2,1.2c-.6.6-1.1,1.1-1.7,1.7l-1,.9c-.7.6-1.3,1.2-2,1.8l-.8.7c-.8.7-1.6,1.4-2.4,2l-1,.8c-.8.6-1.5,1.2-2.2,1.8l-.7.5c-.9.7-1.7,1.3-2.6,1.9l-.7.5c-.9.7-1.8,1.3-2.7,1.8l-1.1.7c-.8.5-1.6,1-2.4,1.5l-1.3.8c-.7.4-1.5.9-2.2,1.3l-.8.4c-1,.5-1.9,1-2.8,1.5l-.8.4c-.4.2-.7.3-1.1.5-.3-.2-.7-.3-1-.5Z"/>
          </g>
          <g id="g62">
            <path id="path64" class="st4" d="M91.9,46.7c22.5,3.3,42.5,16.7,56.5,28.5,0,0,0,0,0,0,0-.2.5-2.7.5-2.7,0-.5.2-1,.3-1.5,0-.6.2-1.2.2-1.8,0,0,.3-2.3.3-2.5,0-.4,0-.7.1-1.1l.2-2.2c0-.4,0-.7.1-1.1.2-2.9.3-5.9.3-8.8s0-2.6,0-3.7v-.8c0-1.1-.1-2.1-.2-3.2,0,0,0-.8,0-1-17.9-14.4-40.4-22.3-63.4-22.4h-.4s-.5,0-.5,0c-11,0-21.8,1.8-32.1,5.3-11.3,3.8-23.9,7.5-28.4,38,3.3-15.9,24-25.3,66.6-19"/>
          </g>
          <g id="g66">
            <path id="path68" class="st2" d="M91.9,46.7c22.5,3.3,42.5,16.7,56.5,28.5,0,0,0,0,0,0,0-.2.5-2.7.5-2.7,0-.5.2-1,.3-1.5,0-.6.2-1.2.2-1.8,0,0,.3-2.3.3-2.5,0-.4,0-.7.1-1.1l.2-2.2c0-.4,0-.7.1-1.1.2-2.9.3-5.9.3-8.8s0-2.6,0-3.7v-.8c0-1.1-.1-2.1-.2-3.2,0,0,0-.8,0-1-17.9-14.4-40.4-22.3-63.4-22.4h-.4s-.5,0-.5,0c-11,0-21.8,1.8-32.1,5.3-11.3,3.8-23.9,7.5-28.4,38,3.3-15.9,24-25.3,66.6-19Z"/>
          </g>
          <g id="g70">
            <path id="path72" class="st4" d="M75.7,116.7c-17.8-4.7-35-14.5-46.1-24.5.3.7.6,1.7.6,1.7.2.5.4,1,.6,1.5,0,.2,1,2.3,1,2.3.2.5.4,1,.6,1.5,0,.2,1.1,2.3,1.1,2.3.2.5.4,1,.7,1.5.1.2,1,2,1,2,.3.6.6,1.1.8,1.6,0,0,3.9,6.8,7.3,11.2,6.5,8.4,18.9,21.2,36.1,24.5,15.7,3,24.7,1.7,29.9-.5l.3-.3c.8-.6,1.5-1.3,2.4-2l.8-.7c.7-.6,1.3-1.2,2-1.8l1-.9c.6-.5,1.1-1.1,1.7-1.7l1.2-1.2c.6-.6,1.1-1.2,1.7-1.8l1.1-1.2c.5-.6,1-1.1,1.5-1.7l1.2-1.4c.6-.7,1.1-1.4,1.7-2l.9-1.1c.6-.8,1.3-1.6,2-2.6l.5-.7c.5-.7,1-1.3,1.4-2l.9-1.3c.4-.6.8-1.2,1.2-1.8-9.4,6.5-32.2,7.8-57.2,1.2"/>
          </g>
          <g id="g74">
            <path id="path76" class="st2" d="M75.7,116.7c-17.8-4.7-35-14.5-46.1-24.5.3.7.6,1.7.6,1.7.2.5.4,1,.6,1.5,0,.2,1,2.3,1,2.3.2.5.4,1,.6,1.5,0,.2,1.1,2.3,1.1,2.3.2.5.4,1,.7,1.5.1.2,1,2,1,2,.3.6.6,1.1.8,1.6,0,0,3.9,6.8,7.3,11.2,6.5,8.4,18.9,21.2,36.1,24.5,15.7,3,24.7,1.7,29.9-.5l.3-.3c.8-.6,1.5-1.3,2.4-2l.8-.7c.7-.6,1.3-1.2,2-1.8l1-.9c.6-.5,1.1-1.1,1.7-1.7l1.2-1.2c.6-.6,1.1-1.2,1.7-1.8l1.1-1.2c.5-.6,1-1.1,1.5-1.7l1.2-1.4c.6-.7,1.1-1.4,1.7-2l.9-1.1c.6-.8,1.3-1.6,2-2.6l.5-.7c.5-.7,1-1.3,1.4-2l.9-1.3c.4-.6.8-1.2,1.2-1.8-9.4,6.5-32.2,7.8-57.2,1.2Z"/>
          </g>
          <g id="g78">
            <path id="path80" d="M102,90.3c-1-4-4.1-5.3-9.1-4l-11.1,2.8,2.9,11.8,11.1-2.8c5-1.2,7.2-3.7,6.2-7.7M77,69.8l2.8,11.2,9.5-2.4c4.7-1.2,6.7-3.7,5.8-7.4-.9-3.7-3.9-4.9-8.6-3.8l-9.5,2.4ZM111.9,89.1c2.1,8.2-2.4,14.4-13.3,17.1l-21.4,5.3-11.9-47.6,20.2-5c10.3-2.6,16.9,1.1,18.7,8.5,1.2,4.8,0,9-2.9,11.8,5,.6,9,3.9,10.5,9.9"/>
          </g>
          <g id="g82">
            <path id="path84" d="M90.8,103.1l3.1,12.5-6.2,1.5-3.1-12.5,6.2-1.5Z"/>
          </g>
          <g id="g86">
            <path id="path88" d="M78.1,52l3.1,12.5-6.2,1.5-3.1-12.5,6.2-1.5Z"/>
          </g>
          <g id="g90">
            <path id="path92" d="M100,100.8l3.1,12.5-6.2,1.5-3.1-12.5,6.2-1.5Z"/>
          </g>
          <g id="g94">
            <path id="path96" d="M87.3,49.7l3.1,12.5-6.2,1.5-3.1-12.5,6.2-1.5Z"/>
          </g>
        </g>
      </g>
    </g>
  </g>
</svg>