<?xml version="1.0" encoding="UTF-8"?>
<svg id="Layer_1" xmlns="http://www.w3.org/2000/svg" version="1.1" viewBox="0 0 141.7 109.8">
  <!-- Generator: Adobe Illustrator 29.1.0, SVG Export Plug-In . SVG Version: 2.1.0 Build 142)  -->
  <defs>
    <style>
      .st0 {
        fill: #666;
      }

      .st1 {
        fill: #b3b3b3;
      }

      .st2 {
        fill: #333;
      }
    </style>
  </defs>
  <path class="st2" d="M141.7,72.4l-64.7,37.4-12.2-7.1h0l-52.5-30.4c-3.6-2.3-6.5-5.5-8.6-9.1C1.3,59.1,0,54.3,0,49.4s2.2-8.1,5.5-10.3c.4-.3.9-.5,1.3-.8,3.5-1.8,7.8-1.9,11.7.3l14.1,7.8,9.5,5.6,2.5,1.5,32.4,18.7,32.3-18.7,32.4,18.7h0v.2Z"/>
  <path class="st1" d="M83.8,1.7c-8.2-4.8-18.6,1.2-18.6,10.7s4.6,17.8,12.1,22.9l31.9,18.5h0l32.4-18.7L83.8,1.7Z"/>
  <path class="st0" d="M77.3,35.3c-7.5-5.1-12.1-13.7-12.1-22.9s2.4-8.3,5.7-10.5c-.2,0,.2,0,0,0L20.4,30.3l-8.1,4.9-5.5,3.2c3.5-1.8,7.8-1.9,11.7.3l13.9,7.9,12.2,7.1,32.4,18.7,32.3-18.7-31.9-18.5h0Z"/>
</svg>