<?xml version="1.0" encoding="UTF-8"?>
<svg id="svg837" xmlns="http://www.w3.org/2000/svg" xmlns:svg="http://www.w3.org/2000/svg" xmlns:sodipodi="http://sodipodi.sourceforge.net/DTD/sodipodi-0.dtd" xmlns:rdf="http://www.w3.org/1999/02/22-rdf-syntax-ns#" xmlns:inkscape="http://www.inkscape.org/namespaces/inkscape" xmlns:dc="http://purl.org/dc/elements/1.1/" xmlns:cc="http://creativecommons.org/ns#" version="1.1" viewBox="0 0 447 222">
  <!-- Generator: Adobe Illustrator 29.2.1, SVG Export Plug-In . SVG Version: 2.1.0 Build 116)  -->
  <defs>
    <style>
      .st0 {
        fill: #777;
      }
    </style>
  </defs>
  <sodipodi:namedview id="namedview839" bordercolor="#666666" borderopacity="1" fit-margin-bottom="0" fit-margin-left="0" fit-margin-right="0" fit-margin-top="0" gridtolerance="10" guidetolerance="10" inkscape:current-layer="svg837" inkscape:cx="23.252984" inkscape:cy="80.442305" inkscape:pagecheckerboard="true" inkscape:pageopacity="0" inkscape:pageshadow="2" inkscape:window-height="1017" inkscape:window-maximized="1" inkscape:window-width="1920" inkscape:window-x="1912" inkscape:window-y="70" inkscape:zoom="0.8924289" objecttolerance="10" pagecolor="#ffffff" showgrid="false"/>
  <g id="Layer_5">
    <path id="path830" class="st0" d="M29,63.8c-.1-29.7,19-46.2,54.1-46.3,25.3,0,29.8,16.3,29.8,22.3,0,11.4-16.3,23.6-16.3,23.6,0,0,.9,7.1,14.9,7.1s27.6-9.2,27.5-32.2C138.9,11.9,111.1-.1,83.7,0,60.7,0-.2,3.3,0,63.4c.2,53.4,101.6,58.1,101.6,92.3.1,37.1-41.8,47.1-55.9,47.1s-19.9-10-20-15.4c-.1-30.1,30-38.4,30-38.4,0-2.2-1.8-12.2-13.4-12.2-30,0-42,25.7-41.9,50.8,0,21.3,15.2,34.6,38.1,34.5,43.8-.2,93.1-21.4,92.9-68.5-.2-44.1-102.4-55.6-102.5-89.7Z" inkscape:connector-curvature="0"/>
    <path id="path832" class="st0" d="M446.2,181.9c-.3-.8-1.3-.6-2.6.4-5,4.1-16.3,15.6-42.9,15.7-48.4.2-56.8-79.2-56.8-79.2,0,0,36.9-27.4,42.7-38.4,5.8-11-12.6-13.5-12.6-13.5,0,0-25.8,31.2-44.1,40.4,2-13.6,15.5-44.5,16.3-62.3s-21.6-13.5-25.1-11.8c0,7.8-19.7,78.3-26.9,117.1-4.2,6.7-10.3,14.4-15.7,14.4-3.1,0-4.3-5.8-4.3-14.1,0-11.5,6.4-29.9,6.3-41.1,0-7.7-3.6-8.2-6.7-8.2-.7,0-4.4.1-5,.1-7.9,0-5.3-6.7-12.4-6.7-21.8,0-49.5,23.7-50.7,59.3-7.3,4.8-17.6,10.9-22.9,10.9-5.5,0-6.9-5.1-6.9-9.4,0-7.7,12.5-53.3,12.5-53.3,0,0,15.9-4.1,22.9-5.4,5.3-1,6.8-1.4,8.8-3.9s6-7.7,9.3-12.4,0-8.3-5.9-8.3c-7.8,0-28.8,4.9-28.8,4.9,0,0,10.1-43.1,10.1-44,0-.9-1.1-1.3-2.8-1.3-3.8,0-10.6,2-15,3.6-6.7,2.4-12.1,10.5-13.2,14.3-1.1,3.8-8.6,33.4-8.6,33.4,0,0-40.4,13.9-45.9,15.9-.3.1-.6.4-.6.8s4.6,17.9,14.1,17.9c6.8,0,26.7-8.1,26.7-8.1,0,0-10.2,40.4-10.2,53.8,0,8.6,4.1,18.8,21.1,18.7,15.8,0,29.6-8.1,37.4-13.8,4.2,10.6,14.2,13.6,21.1,13.5,15.3,0,27.1-12.1,28.6-13.8,2,4.7,6.7,13.6,17.4,13.6,6,0,12.3-6.7,16.9-13.3,0,1.4,0,2.7,0,4.1,1.9,16.7,26.8,6.9,28.2,4.6.8-12.1.3-36.8,5.2-52.1,6.5,52.1,30.9,87.2,75,87,24.6,0,37.2-7.1,42.5-12.9,4.3-4.7,5.7-11.3,3.8-17.3h0ZM235,164.7c-21.1,0,6.5-54.4,24.5-54.4,0,7-.4,54.4-24.5,54.4h0Z" inkscape:connector-curvature="0"/>
    <path id="path834" class="st0" d="M406.5,181.4c19.1,0,33.9-12.6,36.6-16.6,3.5-5.3-4.1-13.3-6.5-13.1-6,5.7-12.3,12.7-26.5,12.7-16.6,0-12.9-18.1-12.9-18.1,0,0,32,4.1,44.9-18.8,4.1-7.3,4.3-17.5,2.6-21.8-1.7-4.4-11-12.4-25.8-11.2-18.2,1.5-41.2,20.4-46.2,43.1-4.1,18.2,3.6,44,33.7,43.9h0ZM426.9,105c3-.1,2.7,4.8,1.9,9.9-1.1,7-10.8,24.7-29.1,24,1.3-10.3,14.9-33.5,27.2-33.9h0Z" inkscape:connector-curvature="0"/>
  </g>
</svg>