<?xml version="1.0" encoding="UTF-8"?>
<svg id="Layer_1" xmlns="http://www.w3.org/2000/svg" xmlns:xlink="http://www.w3.org/1999/xlink" version="1.1" viewBox="0 0 108 110">
  <!-- Generator: Adobe Illustrator 29.2.1, SVG Export Plug-In . SVG Version: 2.1.0 Build 116)  -->
  <defs>
    <style>
      .st0 {
        fill: none;
      }

      .st1, .st2 {
        fill: #9f9f9f;
      }

      .st2 {
        fill-rule: evenodd;
      }

      .st3 {
        clip-path: url(#clippath);
      }
    </style>
    <clipPath id="clippath">
      <rect class="st0" y="79.8" width="107.6" height="30.2"/>
    </clipPath>
  </defs>
  <g class="st3">
    <path class="st2" d="M47.2,91.1c1.6-2.3,4.2-3.5,7.2-3.5h0c5.9,0,10,4.5,10,10.7s-4.2,10.8-10.1,10.8-5.6-1.2-7.2-3.4v2.9h-4.6v-28.8h4.6v11.3ZM54.1,105.1c3.6,0,6.1-2.7,6.1-6.7s-2.2-6.7-5.9-6.7-6.2,2.7-6.2,6.7,2.4,6.7,5.9,6.7ZM15,104.4c-1.1.9-2.1,1.2-3.3,1.2-1.8,0-2.8-1.1-2.8-3v-10.7h7.4v-4.1h-7.4v-5.4h-4.6v5.4H1l-1,4.1h4.3v10.8c0,4.7,2.5,7.3,7,7.3s3.9-.6,5.6-2h.1c0,0-1.8-3.7-1.8-3.7h-.2ZM28.5,87.4c-5.9,0-10.2,4.5-10.2,10.8s4.1,10.8,10.4,10.8,6.3-1.1,8.5-3.5h.1c0-.1-2.5-3.1-2.5-3.1h-.1c-1.7,1.8-3.4,2.6-5.7,2.6-3.5,0-5.7-1.9-6.1-5.5h15.2v-.2c0-.2,0-.4,0-.5,0-.2,0-.4,0-.6,0-6.5-3.8-10.7-9.6-10.7ZM23,96.4c.6-3,2.7-4.9,5.5-4.9s4.6,1.8,5,4.9h-10.5ZM77,87.4c-5.9,0-10.2,4.5-10.2,10.8s4.1,10.8,10.4,10.8,6.3-1.1,8.5-3.5h.1c0-.1-2.5-3.1-2.5-3.1h-.1c-1.7,1.8-3.4,2.6-5.7,2.6-3.5,0-5.7-1.9-6.1-5.5h15.2v-.2c0-.2,0-.4,0-.5,0-.2,0-.4,0-.6,0-6.5-3.8-10.7-9.6-10.7ZM77,91.5c2.8,0,4.6,1.8,5,4.9h-10.5c.6-3,2.7-4.9,5.5-4.9ZM106.8,87.8l-7.2,9.9,8,10.9h-5.5l-5.2-7.4-5.1,7.4h-5.2l7.7-10.6-7.4-10.1h5.5l4.5,6.8,4.5-6.8h5.2Z"/>
  </g>
  <path class="st1" d="M55.8,19.1c2.8-4.7,8-6.1,8-6.1,0,0-9.8-2.6-9.8-13.1,0,10.4-9.8,13.1-9.8,13.1,0,0,5.2,1.4,8,6.1h-13.4v18.1l3.1-5.6h6.1v31.2l12.2,12.5v-38.2c-3.1-1.5-7.6-5.2-9.2-8,2.7.8,6.4,2,9.3,2.6h9.1v-12.5h-13.4Z"/>
</svg>