<?xml version="1.0" encoding="UTF-8"?>
<svg id="Layer_1" xmlns="http://www.w3.org/2000/svg" xmlns:xlink="http://www.w3.org/1999/xlink" version="1.1" viewBox="0 0 788 788">
  <!-- Generator: Adobe Illustrator 29.1.0, SVG Export Plug-In . SVG Version: 2.1.0 Build 142)  -->
  <defs>
    <style>
      .st0 {
        fill: none;
      }

      .st1 {
        fill: #0ac18e;
      }

      .st2 {
        clip-path: url(#clippath);
      }
    </style>
    <clipPath id="clippath">
      <path class="st0" d="M598.5,184.7c-31.9-72.4-105.3-87.9-195.1-72.9L374.6,0l-68,17.6,28.4,111.6c-17.9,4.5-36.3,8.4-54.5,13.5l-28.4-110.9-68,17.6,28.9,111.9c-14.7,4.2-137.4,35.6-137.4,35.6l18.7,72.9s50-14,49.5-12.9c27.7-7.3,40.8,6.6,46.9,19.7l79.3,306.6c1,8.9-.6,24-19.7,29.2,1.1.6-49.5,12.7-49.5,12.7l7.4,85s121.6-31.1,137.5-35.1l29.2,113.2,68-17.6-29.2-114c18.7-4.4,36.9-8.9,54.7-13.5l29,113.3,68-17.6-29.2-113c104.8-25.5,178.8-91.6,163.6-192.6-9.7-60.9-76.3-110.9-131.5-116.6,34-30.1,51.3-74.2,30.1-131.7h0ZM565.8,451.6c13.5,100.1-125.6,112.4-171.5,124.5l-40-149.8c46.1-12.1,188.6-62.9,211.5,25.3h0ZM482,247.6c14.3,89-104.6,99.3-143,109.1l-36.4-135.9c38.5-9.5,150.2-55.6,179.4,26.8h0Z"/>
    </clipPath>
  </defs>
  <g class="st2">
    <circle class="st1" cx="400.4" cy="398" r="635.2"/>
  </g>
</svg>