<?xml version="1.0" encoding="UTF-8"?>
<svg id="Layer_1" xmlns="http://www.w3.org/2000/svg" xmlns:xlink="http://www.w3.org/1999/xlink" version="1.1" viewBox="0 0 1087.5 776.2">
  <!-- Generator: Adobe Illustrator 29.3.1, SVG Export Plug-In . SVG Version: 2.1.0 Build 151)  -->
  <defs>
    <style>
      .st0 {
        mask: url(#mask);
      }

      .st1 {
        fill: url(#linear-gradient1);
      }

      .st2 {
        fill: url(#linear-gradient);
      }

      .st3 {
        fill: #1e1e1e;
      }

      .st4 {
        filter: url(#luminosity-invert-noclip);
      }

      .st5 {
        fill: none;
        stroke: #1e1e1e;
        stroke-miterlimit: 10;
        stroke-width: 70px;
      }

      .st6 {
        fill: #fff;
      }

      .st7 {
        fill: #5271ff;
      }

      .st8 {
        fill: #38b6ff;
      }
    </style>
    <linearGradient id="linear-gradient" x1="207.2" y1="80.7" x2="264.7" y2="23.3" gradientTransform="translate(0 782.8) scale(1 -1)" gradientUnits="userSpaceOnUse">
      <stop offset="0" stop-color="#38b6ff"/>
      <stop offset="1" stop-color="#5271ff"/>
    </linearGradient>
    <filter id="luminosity-invert-noclip" x="436.6" y=".8" width="654.9" height="645.6" color-interpolation-filters="sRGB" filterUnits="userSpaceOnUse">
      <feColorMatrix result="cm" values="-1 0 0 0 1 0 -1 0 0 1 0 0 -1 0 1 0 0 0 1 0"/>
      <feFlood flood-color="#fff" result="bg"/>
      <feBlend in="cm" in2="bg"/>
    </filter>
    <mask id="mask" x="436.6" y=".8" width="654.9" height="645.6" maskUnits="userSpaceOnUse">
      <g class="st4">
        <rect class="st6" x="436.6" y="296.2" width="654.9" height="54.7"/>
      </g>
    </mask>
    <linearGradient id="linear-gradient1" x1="605.3" y1="613.1" x2="915.3" y2="303.1" xlink:href="#linear-gradient"/>
  </defs>
  <g>
    <path class="st3" d="M358.5,763.4c-8.7-8.5-13.1-19.3-13.1-32.5s4.4-24,13.1-32.6,19.4-12.8,32.2-12.8,17.2,2.1,24.3,6.2c7.1,4.1,12.4,10.1,16.1,18.1h-11c-2.8-5.3-6.7-9.3-11.9-12.1-5.2-2.8-11-4.3-17.5-4.3-10.4,0-19,3.4-25.8,10.3s-10.2,15.9-10.2,27.2,3.4,20.3,10.2,27.2,15.4,10.3,25.8,10.3,12.4-1.4,17.5-4.3c5.2-2.9,9.1-6.9,11.9-12.2h11c-3.6,7.9-9,13.9-16.1,18s-15.2,6.2-24.3,6.2-23.4-4.3-32.2-12.8h0Z"/>
    <path class="st3" d="M576.6,775.3l-7.5-20.8h-41.5l-7.6,20.8h-9l32.8-89h9.3l32.6,89h-9.1ZM530.2,747.3h36.2l-18-49.8-18.2,49.8Z"/>
    <path class="st3" d="M671.9,709.7c0,3.5.9,6.4,2.8,8.6,1.8,2.2,4.2,3.9,7.1,5,2.9,1.1,6.2,2,9.7,2.8s7.1,1.6,10.6,2.6c3.5.9,6.8,2.2,9.7,3.7s5.3,3.8,7.1,6.9c1.9,3.1,2.8,6.9,2.8,11.5,0,6.8-2.5,12.7-7.6,17.8s-12,7.6-20.8,7.6-16-2-21.5-5.9c-5.5-4-8.3-9.3-8.3-16h9.5c.3,4.1,2.1,7.5,5.3,10.3,3.2,2.7,7.9,4.1,14.3,4.1s11.3-1.6,15.1-4.9c3.7-3.3,5.6-7.3,5.6-12.2s-1.7-8.5-5.2-11c-3.4-2.4-7.6-4.1-12.4-5.1-4.8-.9-9.7-2-14.6-3.3-4.9-1.3-9-3.7-12.5-7.3-3.4-3.6-5.1-8.9-5.1-15.7s2.6-12.5,7.7-17c5.1-4.5,11.9-6.7,20.3-6.7s15,1.9,19.8,5.8c4.8,3.9,7.7,9,8.8,15.5h-10.2c-.3-3.6-2.2-6.8-5.4-9.5-3.3-2.7-7.7-4.1-13.4-4.1s-10.3,1.4-13.8,4.3c-3.5,2.8-5.3,7-5.3,12.4v-.2h0Z"/>
    <path class="st3" d="M859.1,686.3h9v89h-9v-41.1h-47.7v41.1h-9v-89h9v40.6h47.7v-40.6Z"/>
    <circle class="st2" cx="235.9" cy="730.8" r="40.6"/>
  </g>
  <g>
    <g>
      <g>
        <rect class="st8" x="-20.5" y="446.8" width="347.6" height="78.6" transform="translate(-298.8 250.7) rotate(-45)"/>
        <rect class="st7" x="304.3" y="312.3" width="78.6" height="347.6" transform="translate(-243.1 385.3) rotate(-45)"/>
      </g>
      <g>
        <rect class="st3" x="114.1" y="-12.8" width="78.6" height="347.6" transform="translate(-68.9 155.6) rotate(-45)"/>
        <rect class="st3" x="169.7" y="121.7" width="347.6" height="78.6" transform="translate(-13.3 290.1) rotate(-45)"/>
      </g>
    </g>
    <g class="st0">
      <circle class="st5" cx="760.3" cy="323.6" r="287.8"/>
    </g>
    <g>
      <circle class="st1" cx="760.3" cy="324.7" r="219.2"/>
      <path id="symbol" class="st6" d="M828.7,251.1c-11-25-36.3-30.3-67.3-25.2l-10-38.6-23.5,6.1,9.8,38.5c-6.2,1.5-12.5,2.9-18.8,4.6l-9.8-38.2-23.5,6.1,10,38.6c-5.1,1.5-47.4,12.3-47.4,12.3l6.4,25.2s17.3-4.8,17.1-4.4c9.5-2.5,14.1,2.3,16.2,6.8l27.3,105.8c.4,3.1-.2,8.3-6.8,10.1.4.2-17.1,4.4-17.1,4.4l2.5,29.3s42-10.7,47.5-12.2l10.1,39,23.5-6.1-10.1-39.3c6.4-1.5,12.7-3.1,18.9-4.6l10,39.1,23.5-6.1-10.1-39c36.1-8.8,61.7-31.6,56.5-66.5-3.4-21.1-26.3-38.2-45.4-40.2,11.7-10.4,17.7-25.6,10.4-45.4h0ZM817.4,343.2c4.6,34.5-43.3,38.8-59.2,43l-13.8-51.7c15.9-4.2,65.1-21.7,73,8.7ZM788.4,272.8c5,30.7-36.1,34.2-49.3,37.7l-12.5-46.9c13.3-3.3,51.9-19.2,61.9,9.3h0Z"/>
    </g>
  </g>
</svg>