<?xml version="1.0" encoding="UTF-8"?>
<svg id="Layer_1" xmlns="http://www.w3.org/2000/svg" version="1.1" viewBox="0 0 40 40">
  <!-- Generator: Adobe Illustrator 29.1.0, SVG Export Plug-In . SVG Version: 2.1.0 Build 142)  -->
  <defs>
    <style>
      .st0, .st1 {
        fill: #3267cf;
      }

      .st1 {
        fill-rule: evenodd;
      }
    </style>
  </defs>
  <path class="st0" d="M29.8,37.4c-4.4,2.5-9.8,3.3-15.1,1.8-5.3-1.5-9.5-5-12.1-9.4C0,25.4-.7,20,.7,14.7c.3-1,.6-2,1.1-2.9,1-2.2,4.2-1,3.1,1.5-.3.8-.6,1.6-.9,2.4-1.2,4.4-.5,8.9,1.5,12.6,2.1,3.7,5.6,6.6,10,7.8,4.3,1.2,8.6.6,12.2-1.3,2.4-1.3,4.1,1.7,2,2.8ZM10.2,2.6C14.6.1,20-.7,25.3.8c5.3,1.5,9.5,5,12.1,9.4,2.5,4.5,3.3,9.9,1.9,15.2-.3,1-.6,2-1.1,2.9-.9,2-4.1.7-3.1-1.5.3-.8.6-1.6.9-2.4,1.2-4.4.5-8.9-1.5-12.6-2.1-3.7-5.6-6.6-10-7.8-4.3-1.2-8.6-.6-12.2,1.3-2.3,1.2-4.1-1.6-2-2.8Z"/>
  <path class="st1" d="M15.6,16.9c-.2-.9-1.1-1.6-1.7-2l-1.4-.9-2.5-1.6-2.5-1.6-2.5-1.6c-.8-.5-1.7-1.1-2.5-1.6-2.4-1.5-1-2.1,1.2-1.5,1.1.3,2.2.6,3.2.9l4.7,1.3,3.6,1c3.1,2.2,4.5,5.7.4,7.7ZM24.4,23.2c.2.9,1.1,1.6,1.7,2l1.4.9,2.5,1.6,2.5,1.6,2.5,1.6c.8.5,1.7,1.1,2.5,1.6,2.4,1.5,1,2.1-1.2,1.5-1.1-.3-2.2-.6-3.2-.9l-4.7-1.3-3.6-1c-3.1-2.2-4.5-5.7-.4-7.7ZM16,18.2l1.6-1s5.6-3.4,0-7.4l3.5,1,4.7,1.3c8.8,2.4,3.7,6.2,1.4,7.7-.5.4-1.1.7-1.6,1l-1.6,1-1.6,1s-5.6,3.4,0,7.4l-3.5-1-2.9-.8c-9.1-2.5-5.9-6.3-3.2-8.2.5-.4,1.1-.7,1.6-1l1.6-1ZM26.6,25.5s-.2-.1-.5-.3l.5.3ZM13.4,14.6s.2.1.5.3l-.5-.3Z"/>
</svg>