<?xml version="1.0" encoding="utf-8"?>
<!DOCTYPE svg PUBLIC "-//W3C//DTD SVG 1.1//EN" "http://www.w3.org/Graphics/SVG/1.1/DTD/svg11.dtd">
<svg version="1.1" id="VARG" xmlns="http://www.w3.org/2000/svg" xmlns:xlink="http://www.w3.org/1999/xlink" x="0px" y="0px"
 width="220px" height="86px" viewBox="0 0 220 86" enable-background="new 0 0 220 86" xml:space="preserve">
<path fill="#F50127" d="M216.326,48.604c-0.375-0.653-0.891-1.168-1.547-1.541c-0.656-0.375-1.355-0.561-2.098-0.561
c-0.74,0-1.438,0.186-2.097,0.561c-0.658,0.373-1.173,0.887-1.547,1.541c-0.373,0.654-0.56,1.356-0.56,2.106
c0,0.763,0.193,1.474,0.582,2.131c0.389,0.658,0.904,1.167,1.549,1.528s1.334,0.542,2.07,0.542s1.428-0.181,2.072-0.542
c0.646-0.361,1.163-0.87,1.553-1.528c0.389-0.657,0.582-1.368,0.582-2.131C216.889,49.961,216.701,49.258,216.326,48.604z
 M215.759,52.521c-0.331,0.558-0.771,0.988-1.315,1.293c-0.547,0.306-1.135,0.459-1.762,0.459s-1.214-0.152-1.761-0.459
c-0.547-0.305-0.985-0.735-1.313-1.293c-0.33-0.558-0.493-1.16-0.493-1.812c0-0.637,0.159-1.233,0.476-1.789
c0.317-0.556,0.754-0.991,1.313-1.31c0.557-0.315,1.149-0.475,1.781-0.475c0.629,0,1.224,0.159,1.78,0.475
c0.558,0.318,0.994,0.754,1.312,1.31c0.316,0.556,0.476,1.152,0.476,1.789C216.253,51.361,216.089,51.965,215.759,52.521z"/>
<g>
<g>
<path fill="#F50127" d="M66.377,3.442C65.922,3.376,55.094,1.89,42.538,6.296C30.91,10.376,15.24,20.317,7.897,44.891
c-1.24,4.15,0.016,9.781,8.607,8.996h32.191c3.613,0,6.543-2.93,6.543-6.543s-2.93-6.543-6.543-6.543H23.449
c9.566-20.431,26.605-24.1,35.453-24.543v31.348c0,3.613,2.929,6.543,6.543,6.543c3.613,0,6.542-2.93,6.542-6.543V9.918
C71.988,6.664,69.598,3.905,66.377,3.442z"/>
<g>
<path fill="#F50127" d="M132.493,3.403c0.354-0.026,0.075-0.015-0.05-0.005c-0.123-0.01-0.4-0.021-0.047,0.005
c-0.006,0.002,0.006,0.003,0.047,0.003C132.486,3.406,132.499,3.405,132.493,3.403z"/>
<path fill="#F50127" d="M132.443,3.406c-8.219,0.188-13.523,2.806-17.403,7.01c-3.442-3.854-9.36-7.083-17.405-7.01
c-8.964-0.629-24.426,7.422-23.292,21.953v22.247c0,3.612,2.929,6.543,6.542,6.543c3.613,0,6.543-2.931,6.543-6.543V25.422
c0.031-7.692,8.323-8.907,10.206-8.942c9.3-0.227,10.699,7.792,10.731,8.942v22.184c0,3.613,3.06,6.533,6.674,6.533
c3.613,0,6.674-2.92,6.674-6.533V25.422c0.381-8.216,8.148-9.082,10.73-8.942c1.535,0.122,9.738,0.552,10.207,8.942v22.184
c0,3.613,2.93,6.543,6.543,6.543s6.543-2.93,6.543-6.543V25.359C155.999,24.089,155.02,4.086,132.443,3.406z"/>
</g>
<path fill="#F50127" d="M207.551,32.827c-3.222-1.637-7.16-0.352-8.797,2.87c-2.436,4.794-7.286,7.771-12.656,7.771
c-3.789,0-7.352-1.476-10.029-4.155c-2.68-2.679-4.155-6.241-4.155-10.029s1.476-7.351,4.155-10.029
c2.679-2.679,6.24-4.155,10.029-4.155c5.717,0,10.942,3.191,13,7.941c1.438,3.316,5.289,4.839,8.604,3.403
s4.839-5.289,3.401-8.605c-4.101-9.465-14.149-15.825-25.008-15.825c-15.037,0-27.27,12.233-27.27,27.27
c0,7.284,2.836,14.132,7.988,19.283c5.149,5.15,11.998,7.986,19.281,7.986c10.324,0,19.646-5.721,24.324-14.931
C212.057,38.402,210.771,34.464,207.551,32.827z"/>
</g>
</g>
<path fill="#F50127" d="M213.861,51.729c-0.203-0.379-0.396-0.625-0.577-0.736c0.344-0.146,0.6-0.354,0.767-0.624
c0.167-0.269,0.25-0.552,0.25-0.849c0-0.256-0.06-0.492-0.179-0.711c-0.119-0.218-0.282-0.386-0.488-0.502
c-0.206-0.119-0.511-0.178-0.913-0.178h-1.65v5.193h0.816v-2.182h0.608c0.085,0,0.224,0.168,0.414,0.506l0.169,0.321l0.711,1.354
h0.93L213.861,51.729z M212.456,50.516h-0.567v-1.758h0.619c0.287,0,0.487,0.039,0.602,0.117c0.113,0.078,0.201,0.176,0.261,0.294
s0.089,0.25,0.089,0.396c0,0.24-0.072,0.457-0.221,0.655C213.092,50.417,212.831,50.516,212.456,50.516z"/>
<polygon fill="#F50127" points="13.003,82.938 8.921,82.938 8.921,66.85 3.014,66.85 3.014,63.395 18.91,63.395 18.91,66.85 
13.003,66.85 "/>
<polygon fill="#F50127" points="35.105,74.173 35.105,82.938 31.022,82.938 31.022,63.395 35.105,63.395 35.105,70.797 
42.727,70.797 42.727,63.395 46.81,63.395 46.81,82.938 42.727,82.938 42.727,74.173 "/>
<polygon fill="#F50127" points="75.011,66.85 64.64,66.85 64.64,70.96 74.167,70.96 74.167,74.417 64.64,74.417 64.64,79.48 
75.474,79.48 75.474,82.938 60.639,82.938 60.639,63.395 75.011,63.395 "/>
<path fill="#F50127" d="M98.777,63.395h-4.709L87.1,82.938h4.3l1.361-4.028h7.213l1.252,4.028h4.437L98.777,63.395z M93.851,75.533
l2.504-7.73h0.055l2.423,7.73H93.851z"/>
<polygon fill="#F50127" points="126.407,82.938 122.324,82.938 122.324,66.85 116.417,66.85 116.417,63.395 132.313,63.395 
132.313,66.85 126.407,66.85 "/>
<path fill="#F50127" d="M160.05,78.527c0-3.647-0.87-4.246-2.477-4.954c1.932-0.653,3.021-2.505,3.021-4.655
c0-1.688-0.951-5.525-6.15-5.525h-9.881v19.543h4v-7.648h4.221c3.021,0,3.185,1.035,3.185,3.702c0,2.015,0.163,3.021,0.437,3.946
h4.519V82.42C160.05,82.093,160.05,81.386,160.05,78.527z M153.354,71.995h-4.791V66.77h5.092c2.395,0,2.857,1.523,2.857,2.559
C156.512,71.26,155.477,71.995,153.354,71.995z"/>
<polygon fill="#F50127" points="188.414,66.85 178.043,66.85 178.043,70.96 187.57,70.96 187.57,74.417 178.043,74.417 
178.043,79.48 188.877,79.48 188.877,82.938 174.042,82.938 174.042,63.395 188.414,63.395 "/>
<path fill="#F50127" d="M204.939,76.922c0.026,1.088,0.572,3.157,4.138,3.157c1.933,0,4.083-0.463,4.083-2.531
c0-1.524-1.471-1.933-3.539-2.423l-2.096-0.49c-3.157-0.734-6.207-1.443-6.207-5.744c0-2.177,1.171-6.016,7.513-6.016
c5.987,0,7.595,3.92,7.622,6.314h-3.919c-0.109-0.871-0.437-2.938-4.001-2.938c-1.553,0-3.403,0.571-3.403,2.341
c0,1.524,1.252,1.852,2.069,2.041l4.763,1.17c2.668,0.653,5.118,1.743,5.118,5.254c0,5.879-5.988,6.396-7.703,6.396
c-7.132,0-8.357-4.11-8.357-6.533h3.92V76.922z"/>
</svg>
