<?xml version="1.0" encoding="UTF-8" standalone="no"?>
<!-- Created with Inkscape (http://www.inkscape.org/) -->

<svg
   width="239.53543"
   height="273.9494"
   viewBox="0 0 63.37708 72.482444"
   version="1.1"
   id="svg1"
   inkscape:version="1.3.2 (091e20ef0f, 2023-11-25)"
   sodipodi:docname="arialogo-new-blue.svg"
   inkscape:export-filename="arialogo.svg"
   inkscape:export-xdpi="115.2"
   inkscape:export-ydpi="115.2"
   xml:space="preserve"
   xmlns:inkscape="http://www.inkscape.org/namespaces/inkscape"
   xmlns:sodipodi="http://sodipodi.sourceforge.net/DTD/sodipodi-0.dtd"
   xmlns="http://www.w3.org/2000/svg"
   xmlns:svg="http://www.w3.org/2000/svg"><sodipodi:namedview
     id="namedview1"
     pagecolor="#ffffff"
     bordercolor="#000000"
     borderopacity="0.25"
     inkscape:showpageshadow="2"
     inkscape:pageopacity="0.0"
     inkscape:pagecheckerboard="0"
     inkscape:deskcolor="#d1d1d1"
     inkscape:document-units="mm"
     inkscape:export-bgcolor="#ffffff00"
     inkscape:zoom="0.77326038"
     inkscape:cx="162.29979"
     inkscape:cy="-58.195145"
     inkscape:window-width="1920"
     inkscape:window-height="1048"
     inkscape:window-x="1920"
     inkscape:window-y="0"
     inkscape:window-maximized="1"
     inkscape:current-layer="layer1"
     showgrid="false" /><defs
     id="defs1" /><g
     inkscape:label="Layer 1"
     inkscape:groupmode="layer"
     id="layer1"
     transform="translate(-7.440171,-2.8819693)"><path
       style="fill:#ffffff;stroke-width:1.29323"
       d="m 187.75028,130.37567 c -5.32465,-1.883 -5.46438,-2.06159 -2.97648,-3.80418 2.49183,-1.74535 14.54341,-4.63227 15.4699,-3.70578 0.81589,0.81589 -1.23609,5.77458 -3.20391,7.7424 -2.29429,2.2943 -2.13312,2.29833 -9.28951,-0.23244 z"
       id="path2"
       transform="scale(0.26458333)"
       inkscape:export-filename="arialogo-l.svg"
       inkscape:export-xdpi="115.2"
       inkscape:export-ydpi="115.2" /><path
       style="fill:#0e50fa;fill-opacity:1;stroke-width:0.342167"
       d="M 35.850032,74.214926 C 29.820032,70.583851 21.563312,62.526532 17.222552,56.037305 14.322522,51.701888 11.430182,45.673079 9.5893313,40.126592 8.0818111,35.584395 7.8307211,33.451716 7.6320511,23.502081 l -0.19188,-9.610109 3.5502399,-1.286306 C 32.915242,4.6619722 37.499792,3.1159044 39.651372,2.9402081 c 2.19729,-0.179429 2.47479,-0.1037855 9.61913,2.6220528 4.04611,1.5437466 10.54936,3.9087484 14.45166,5.2555591 l 7.09509,2.448748 -0.006,9.238479 c -0.003,5.081163 -0.15248,10.368874 -0.33186,11.75047 -0.73989,5.698633 -4.72687,15.212205 -9.27877,22.140627 -4.17404,6.353296 -14.99051,16.544197 -19.60711,18.473134 -1.96402,0.820618 -3.60474,0.633703 -5.74376,-0.654352 z"
       id="path81" /><path
       style="fill:#fffffc;fill-opacity:1;stroke:none;stroke-width:0.492072"
       d="m 43.6767,17.975465 h -0.130193 c -0.410285,-0.744485 -0.953277,-1.353306 -1.56407,-1.94238 -0.397652,-0.383505 -0.815215,-0.755231 -1.300196,-1.025551 -1.615957,-0.900716 -3.245444,-0.315742 -3.894432,1.406036 -0.879746,2.333989 -0.960701,4.839241 -0.792551,7.290426 h -0.130197 c -0.166734,-0.736301 -0.34445,-1.473992 -0.526443,-2.20664 -0.06513,-0.262242 -0.137032,-0.634602 -0.403946,-0.771718 -0.334072,-0.171614 -0.748359,0.110826 -1.024022,0.277179 -0.73476,0.443402 -1.452566,0.901462 -2.211792,1.304246 -3.344125,1.774131 -6.985715,3.48255 -8.478754,7.255664 -2.277514,5.75559 1.911708,11.87348 4.675571,16.664826 1.491972,2.586437 3.165666,6.051131 2.329153,9.113585 -0.339564,1.243151 -1.166274,2.233818 -1.911014,3.254842 3.188884,-1.139059 5.500779,-2.893613 7.190455,-5.858729 0.617389,-1.083421 0.89835,-2.324325 1.532538,-3.385043 l -0.63682,3.385043 -1.31609,2.734074 c 1.469661,-0.317905 2.483604,-1.486463 3.22801,-2.734074 1.290271,-2.162472 1.950164,-4.419713 2.274739,-6.900279 0.208546,-1.593828 0.213806,-3.585048 1.565955,-4.711255 1.30551,-1.087365 3.104353,0.03637 4.388368,0.616585 0.690692,0.312112 1.376532,0.634543 2.083104,0.909721 0.559248,0.217805 1.12234,0.429987 1.692518,0.617581 3.036698,0.999096 8.228567,1.903096 9.113576,-2.380002 l -1.952909,0.260387 v -0.130193 c 0.915927,-0.231933 1.983827,-0.581562 2.594808,-1.349365 1.14447,-1.438224 0.430705,-3.692887 -1.162672,-4.379169 v -0.130195 l 2.473683,-0.911358 -0.520774,2.864267 h 0.130192 c 0.557385,-1.11683 0.888121,-2.412168 0.510854,-3.645431 -0.277839,-0.908235 -0.950647,-1.635268 -1.553411,-2.34349 -0.924122,-1.085817 -1.918907,-2.128124 -2.792604,-3.254849 -1.057469,-1.363724 -1.47562,-3.076709 -2.333326,-4.556792 -1.311067,-2.262398 -3.735007,-4.318023 -6.199935,-5.207757 1.003249,0.08083 1.848534,0.571365 2.73358,1.01568 0.356446,0.178943 0.885961,0.516645 1.290122,0.289526 0.380515,-0.213834 0.460231,-0.78983 0.52515,-1.175711 0.16238,-0.965215 0.158855,-2.051197 -0.158437,-2.987529 -0.143045,-0.42212 -0.402445,-0.868587 -0.897695,-0.896552 -0.460757,-0.02603 -0.910757,0.274336 -1.279433,0.513567 -0.983114,0.637925 -1.953666,1.914365 -3.124645,2.166625 -1.228659,0.264691 -3.824883,-0.949033 -4.036015,0.944202 m 8.072027,-1.692519 c -0.474775,0.678886 -1.053319,1.021239 -1.822717,1.301937 l 1.822717,-1.301937 M 39.250106,24.48516 h -0.130192 c 0.580192,-1.362979 2.25388,-2.605845 2.2231,-4.165944 -0.01112,-0.563086 -0.284352,-1.071634 -0.53058,-1.562588 0.271805,0.07813 0.536486,0.151131 0.785311,0.290467 0.935558,0.523877 1.062604,1.351724 0.42915,2.183223 -0.870006,1.142 -1.965712,2.053586 -2.776789,3.254842 m 11.587261,1.041553 -2.603877,-1.562327 c 1.306307,-0.308219 2.155274,0.353053 2.603877,1.562327 M 36.38584,25.00594 36.646225,26.307878 H 36.516033 L 36.38584,25.00594 m 4.556786,0.260384 -1.301938,2.864269 h -0.130193 l 1.171746,-2.864269 h 0.260385 m 10.806101,4.296403 -1.451641,-1.140362 -2.063596,-0.499733 -2.343492,-1.093979 c 0.516026,-0.311877 1.081564,-0.601444 1.692632,-0.656557 1.939802,-0.174948 3.321766,1.956451 4.166097,3.390631 m -10.675905,-2.343491 -0.65097,1.822716 0.390582,-1.822716 h 0.260388 m -4.426597,1.692521 c 0.132224,1.847041 -0.253067,3.616552 -0.906594,5.337952 -0.36764,0.968373 -0.879321,1.869546 -1.176508,2.864267 h -0.130192 l 0.891742,-4.166205 1.321552,-4.036014 m 10.155129,0 1.432136,0.520775 v 0.130195 l -1.562328,-0.520775 0.130192,-0.130195 m 10.415519,5.988923 v 0.130194 c -1.830418,-0.504477 -3.110725,-2.008128 -4.166208,-3.515238 l 4.166208,3.385044 m 0.520775,1.822715 v 0.260387 h -0.26039 v -0.260387 h 0.26039 m 1.041552,0.650969 v 0.260388 H 58.518812 V 37.374364 H 58.7792 m -2.083105,0.390581 0.130197,0.260389 h -0.260389 l 0.130192,-0.260389 M 22.1947,37.89514 c 0.677971,3.984291 1.708079,7.822722 2.769655,11.717457 0.917685,3.366809 1.812124,6.781024 0.09461,10.024934 3.248426,-0.336132 4.98106,-3.762719 4.573255,-6.770086 C 28.891279,47.403384 25.239457,42.509025 22.455085,37.89514 H 22.1947 m 35.67314,0.781165 v 0.260386 h -0.260383 v -0.260386 h 0.260385 m 1.432136,0.130194 -0.260391,0.39058 0.260391,-0.39058 m -7.030475,0.911356 v 0.130195 l -1.69252,-0.520777 1.69252,0.390582 m -17.445989,0.130195 0.911357,3.124655 H 35.604678 C 35.12877,42.028577 34.684715,40.922875 34.823514,39.84805 Z"
       id="path82" /></g></svg>
