<svg xmlns="http://www.w3.org/2000/svg" width="239.535" height="273.949" viewBox="0 0 63.377 72.482" xmlns:v="https://vecta.io/nano"><path d="M42.236 31.613c-1.409-.498-1.446-.545-.788-1.007s3.848-1.226 4.093-.98c.216.216-.327 1.528-.848 2.049-.607.607-.564.608-2.458-.061z" fill="#fff"/><path d="M28.41 71.333c-6.03-3.631-14.287-11.688-18.627-18.178-2.9-4.335-5.792-10.364-7.633-15.911C.642 32.702.391 30.57.192 20.62L0 11.01l3.55-1.286C25.475 1.78 30.06.234 32.211.058c2.197-.179 2.475-.104 9.619 2.622 4.046 1.544 10.549 3.909 14.452 5.256l7.095 2.449-.006 9.238c-.003 5.081-.152 10.369-.332 11.75-.74 5.699-4.727 15.212-9.279 22.141-4.174 6.353-14.991 16.544-19.607 18.473-1.964.821-3.605.634-5.744-.654z" fill="#0e50fa"/><path d="M36.237 15.093h-.13c-.41-.744-.953-1.353-1.564-1.942-.398-.384-.815-.755-1.3-1.026-1.616-.901-3.245-.316-3.894 1.406-.88 2.334-.961 4.839-.793 7.29h-.13l-.526-2.207c-.065-.262-.137-.635-.404-.772-.334-.172-.748.111-1.024.277l-2.212 1.304c-3.344 1.774-6.986 3.483-8.479 7.256-2.278 5.756 1.912 11.873 4.676 16.665 1.492 2.586 3.166 6.051 2.329 9.114-.34 1.243-1.166 2.234-1.911 3.255 3.189-1.139 5.501-2.894 7.19-5.859.617-1.083.898-2.324 1.533-3.385l-.637 3.385-1.316 2.734c1.47-.318 2.484-1.486 3.228-2.734 1.29-2.162 1.95-4.42 2.275-6.9.209-1.594.214-3.585 1.566-4.711 1.306-1.087 3.104.036 4.388.617.691.312 1.377.635 2.083.91.559.218 1.122.43 1.693.618 3.037.999 8.229 1.903 9.114-2.38l-1.953.26v-.13c.916-.232 1.984-.582 2.595-1.349 1.144-1.438.431-3.693-1.163-4.379v-.13l2.474-.911-.521 2.864h.13c.557-1.117.888-2.412.511-3.645-.278-.908-.951-1.635-1.553-2.343-.924-1.086-1.919-2.128-2.793-3.255-1.057-1.364-1.476-3.077-2.333-4.557-1.311-2.262-3.735-4.318-6.2-5.208 1.003.081 1.849.571 2.734 1.016.356.179.886.517 1.29.29.381-.214.46-.79.525-1.176.162-.965.159-2.051-.158-2.988-.143-.422-.402-.869-.898-.897-.461-.026-.911.274-1.279.514-.983.638-1.954 1.914-3.125 2.167-1.229.265-3.825-.949-4.036.944m8.072-1.693c-.475.679-1.053 1.021-1.823 1.302l1.823-1.302M31.81 21.603h-.13c.58-1.363 2.254-2.606 2.223-4.166-.011-.563-.284-1.072-.531-1.563.272.078.536.151.785.29.936.524 1.063 1.352.429 2.183-.87 1.142-1.966 2.054-2.777 3.255m11.587 1.042l-2.604-1.562c1.306-.308 2.155.353 2.604 1.562m-14.452-.521l.26 1.302h-.13l-.13-1.302m4.557.26l-1.302 2.864h-.13l1.172-2.864h.26m10.806 4.296l-1.452-1.14-2.064-.5-2.343-1.094c.516-.312 1.082-.601 1.693-.657 1.94-.175 3.322 1.956 4.166 3.391m-10.676-2.343l-.651 1.823.391-1.823h.26m-4.427 1.693c.132 1.847-.253 3.617-.907 5.338-.368.968-.879 1.87-1.177 2.864h-.13l.892-4.166 1.322-4.036m10.155 0l1.432.521v.13l-1.562-.521.13-.13m10.416 5.989v.13c-1.83-.504-3.111-2.008-4.166-3.515l4.166 3.385m.521 1.823v.26h-.26v-.26h.26m1.042.651v.26h-.26v-.26h.26m-2.083.391l.13.26h-.26l.13-.26m-34.501.13c.678 3.984 1.708 7.823 2.77 11.717.918 3.367 1.812 6.781.095 10.025 3.248-.336 4.981-3.763 4.573-6.77-.741-5.464-4.393-10.358-7.177-14.972h-.26m35.673.781v.26h-.26v-.26h.26m1.432.13l-.26.391.26-.391m-7.03.911v.13l-1.693-.521 1.693.391m-17.446.13l.911 3.125h-.13c-.476-.944-.92-2.05-.781-3.125z" fill="#fffffc"/></svg>