<svg xmlns="http://www.w3.org/2000/svg" viewBox="0 0 1020.2 780" xmlns:v="https://vecta.io/nano"><style>.O,.F,.A,.L,.C,.M,.V{isolation:isolate}.F{mix-blend-mode:color-dodge}</style><defs><radialGradient id="A" cx="-548.35" cy="93.85" fx="-548.35" fy="93.85" r="335.2" gradientTransform="translate(1029.6 255.2) scale(.8)" gradientUnits="userSpaceOnUse"><stop offset="0" stop-color="#fff" stop-opacity=".7"/><stop offset="1" stop-color="#fff" stop-opacity="0"/></radialGradient></defs><g class="A"><path d="M430.1 707.3c-14.6-1-31.2-3.1-45-5.8-59.1-11.7-114.8-39.5-159.4-79.7-4.3-3.9-20.1-19.5-24.1-24-10.3-11.1-22.6-27.1-31.6-40.8-3.5-5.4-9-14.2-9-14.5s-.7-1.3-1.6-2.8c-2-3.4-5.4-9.8-9.2-17.3-20.2-40.4-31.8-84.1-34.8-131.1-.5-8.6-.5-29.1 0-37.7 4.3-67.4 27-129.3 67-182.6 10-13.4 17.9-22.4 31.2-35.6 12-12 18.3-17.6 29.6-26.5C310.5 56.1 397 30.8 482.1 39c72.6 7.1 140.5 37.3 194.5 86.7 26.5 24.2 48.4 52 66.5 84.3 2.7 4.7 9.7 18.8 12.6 25.3 14.4 32.1 24 68.1 27.6 103.4 1.3 13 1.7 20.8 1.7 33.9 0 33.8-4.9 66.5-14.9 98.8-22 71.1-67.6 133.4-128.3 175.8-50.9 35.5-109.6 55.8-173.2 59.8-7.6.5-31 .5-38.5 0v.3z" fill="#6bbb1a"/><path class="C" d="M486.8 683.8c21 3.7 42.3 5.4 63.6 5.3 23.2-6.4 45.6-15.3 67-26.6 12.7-6.7 19.9-11.1 33.8-20.8 15.3-10.6 24.7-18.1 36.9-29.4 48.6-45.3 81.6-101.9 97.3-167.2 2-8.3 5.5-28.4 6.4-36.9 5-46.5.9-91.4-12.3-134.5-2.4-8.1-4.8-15-6.2-18.6-.6-1.5-1.1-2.9-1.1-3 0-.3-3.9-9.9-6.5-15.8-6.6-14.9-16.1-32.8-24.3-45.5-3.2-5.1-16.2-23.1-19.8-27.7-37.3-47.1-87.8-84.2-144.3-105.9-13.2-5.1-29.2-10.1-43.5-13.6-7.4-1.8-30.6-5.9-38.1-6.8-63.7-7.1-125.1 2.5-181.6 28.4l-11.4 5.5c-28.4 27.6-52.4 59.9-70.5 95.7-16.3 32.3-27.4 65.9-33.6 101.6s-3.4 22.1-4.4 36.1c-2.8 38 .7 77.7 9.9 114.3 1.9 7.4 6.6 23.6 8.5 29.1 13 37.5 30.8 70.9 54 101.3 47.4 62.1 112.7 106.6 187.2 127.4a376.81 376.81 0 0 0 33.1 7.5l-.1.1z" fill="#ececec" opacity=".3"/><g fill="#00f"><path d="M95.7 294.5c1.8 1 2.4 3.3 1.3 5.1s-3.4 2.4-5.3 1.4-2.4-3.3-1.3-5.1 3.4-2.4 5.3-1.4zm-14.2 43.9c1.8 1 2.4 3.3 1.3 5.1s-3.4 2.4-5.3 1.4-2.4-3.3-1.3-5.1 3.4-2.4 5.3-1.4zm237.8 326.8c1.8 1 2.4 3.3 1.3 5.1s-3.4 2.4-5.3 1.4-2.4-3.3-1.3-5.1 3.4-2.4 5.3-1.4zm-96.1-266.8c1.8 1 2.4 3.3 1.3 5.1s-3.4 2.4-5.3 1.4-2.4-3.3-1.3-5.1 3.4-2.4 5.3-1.4zM403 582.7c1.8 1 2.4 3.3 1.3 5.1s-3.4 2.4-5.3 1.4-2.4-3.3-1.3-5.1 3.4-2.4 5.3-1.4zm-309.8-142c1.8 1 2.4 3.3 1.3 5.1s-3.4 2.4-5.3 1.4-2.4-3.3-1.3-5.1 3.4-2.4 5.3-1.4zM292 258.6c1.8 1 2.4 3.3 1.3 5.1s-3.4 2.4-5.3 1.4-2.4-3.3-1.3-5.1 3.4-2.4 5.3-1.4zM172.6 479.8c1.8 1 2.4 3.3 1.3 5.1s-3.4 2.4-5.3 1.4-2.4-3.3-1.3-5.1 3.4-2.4 5.3-1.4z"/><path d="M174.2 478.1c1.8 1 2.4 3.3 1.3 5.1s-3.4 2.4-5.3 1.4-2.4-3.3-1.3-5.1 3.4-2.4 5.3-1.4zm294.7 41.3c1.8 1 2.4 3.3 1.3 5.1s-3.4 2.4-5.3 1.4-2.4-3.3-1.3-5.1 3.4-2.4 5.3-1.4zm-324.6-206c1.8 1 2.4 3.3 1.3 5.1s-3.4 2.4-5.3 1.4-2.4-3.3-1.3-5.1 3.4-2.4 5.3-1.4zm45.2 309.5c1.8 1 2.4 3.3 1.3 5.1s-3.4 2.4-5.3 1.4-2.4-3.3-1.3-5.1 3.4-2.4 5.3-1.4zm-12.1-37c1.8 1 2.4 3.3 1.3 5.1s-3.4 2.4-5.3 1.4-2.4-3.3-1.3-5.1 3.4-2.4 5.3-1.4zm235.3-245.5c1.8 1 2.4 3.3 1.3 5.1s-3.4 2.4-5.3 1.4-2.4-3.3-1.3-5.1 3.4-2.4 5.3-1.4zM280.8 683.5c1.8 1 2.4 3.3 1.3 5.1s-3.4 2.4-5.3 1.4-2.4-3.3-1.3-5.1 3.4-2.4 5.3-1.4zm47.4-251c1.8 1 2.4 3.3 1.3 5.1s-3.4 2.4-5.3 1.4-2.4-3.3-1.3-5.1 3.4-2.4 5.3-1.4zm-41.4 125.9c1.8 1 2.4 3.3 1.3 5.1s-3.4 2.4-5.3 1.4-2.4-3.3-1.3-5.1 3.4-2.4 5.3-1.4zm-28.1 56.8c1.8 1 2.4 3.3 1.3 5.1s-3.4 2.4-5.3 1.4-2.4-3.3-1.3-5.1 3.4-2.4 5.3-1.4h0zM110.8 432.9c1.8 1 2.4 3.3 1.3 5.1s-3.4 2.4-5.3 1.4-2.4-3.3-1.3-5.1 3.4-2.4 5.3-1.4zm1-88.1c1.8 1 2.4 3.3 1.3 5.1s-3.4 2.4-5.3 1.4-2.4-3.3-1.3-5.1 3.4-2.4 5.3-1.4zm130.8 305c1.8 1 2.4 3.3 1.3 5.1s-3.4 2.4-5.3 1.4-2.4-3.3-1.3-5.1 3.4-2.4 5.3-1.4zM202.7 604c1.8 1 2.4 3.3 1.3 5.1s-3.4 2.4-5.3 1.4-2.4-3.3-1.3-5.1 3.4-2.4 5.3-1.4zm-47.4-27.9c1.8 1 2.4 3.3 1.3 5.1s-3.4 2.4-5.3 1.4-2.4-3.3-1.3-5.1 3.4-2.4 5.3-1.4zm-44.6-82.6c1.8 1 2.4 3.3 1.3 5.1s-3.4 2.4-5.3 1.4-2.4-3.3-1.3-5.1 3.4-2.4 5.3-1.4zm276.9-313.3c1.8 1 2.4 3.3 1.3 5.1s-3.4 2.4-5.3 1.4-2.4-3.3-1.3-5.1 3.4-2.4 5.3-1.4zM289.7 126c1.8 1 2.4 3.3 1.3 5.1s-3.4 2.4-5.3 1.4-2.4-3.3-1.3-5.1 3.4-2.4 5.3-1.4zM245 157.4c1.8 1 2.4 3.3 1.3 5.1s-3.4 2.4-5.3 1.4-2.4-3.3-1.3-5.1 3.4-2.4 5.3-1.4zm-72.6 14.2c1.8 1 2.4 3.3 1.3 5.1s-3.4 2.4-5.3 1.4-2.4-3.3-1.3-5.1 3.4-2.4 5.3-1.4zM114 274.9c1.8 1 2.4 3.3 1.3 5.1s-3.4 2.4-5.3 1.4-2.4-3.3-1.3-5.1 3.4-2.4 5.3-1.4zm-.4-46.4c1.8 1 2.4 3.3 1.3 5.1s-3.4 2.4-5.3 1.4-2.4-3.3-1.3-5.1 3.4-2.4 5.3-1.4zm471.5 309c1.8 1 2.4 3.3 1.3 5.1s-3.4 2.4-5.3 1.4-2.4-3.3-1.3-5.1 3.4-2.4 5.3-1.4zm70-373.8c1.8 1 2.4 3.3 1.3 5.1s-3.4 2.4-5.3 1.4-2.4-3.3-1.3-5.1 3.4-2.4 5.3-1.4zm-39.3 120.5c1.8 1 2.4 3.3 1.3 5.1s-3.4 2.4-5.3 1.4-2.4-3.3-1.3-5.1 3.4-2.4 5.3-1.4zm-78.3 92.4c1.8 1 2.4 3.3 1.3 5.1s-3.4 2.4-5.3 1.4-2.4-3.3-1.3-5.1 3.4-2.4 5.3-1.4zM249.1 671.5c1.8 1 2.4 3.3 1.3 5.1s-3.4 2.4-5.3 1.4-2.4-3.3-1.3-5.1 3.4-2.4 5.3-1.4zm-31.3-437.1c1.8 1 2.4 3.3 1.3 5.1s-3.4 2.4-5.3 1.4-2.4-3.3-1.3-5.1 3.4-2.4 5.3-1.4zm-72.4-32.1c1.8 1 2.4 3.3 1.3 5.1s-3.4 2.4-5.3 1.4-2.4-3.3-1.3-5.1 3.4-2.4 5.3-1.4zm-24.9-.9c1.8 1 2.4 3.3 1.3 5.1s-3.4 2.4-5.3 1.4-2.4-3.3-1.3-5.1 3.4-2.4 5.3-1.4zm25.8 30.8c1.8 1 2.4 3.3 1.3 5.1s-3.4 2.4-5.3 1.4-2.4-3.3-1.3-5.1 3.4-2.4 5.3-1.4zM509 642.3c1.8 1 2.4 3.3 1.3 5.1s-3.4 2.4-5.3 1.4-2.4-3.3-1.3-5.1 3.4-2.4 5.3-1.4zm-132.7 30.6c1.8 1 2.4 3.3 1.3 5.1s-3.4 2.4-5.3 1.4-2.4-3.3-1.3-5.1 3.4-2.4 5.3-1.4zm82.6-36.3c1.8 1 2.4 3.3 1.3 5.1s-3.4 2.4-5.3 1.4-2.4-3.3-1.3-5.1 3.4-2.4 5.3-1.4zM639.1 48.5c1.8 1 2.4 3.3 1.3 5.1S637 56 635.1 55s-2.4-3.3-1.3-5.1 3.4-2.4 5.3-1.4zm-76.5 4.7c1.8 1 2.4 3.3 1.3 5.1s-3.4 2.4-5.3 1.4-2.4-3.3-1.3-5.1 3.4-2.4 5.3-1.4zm-20.5 25.1c1.8 1 2.4 3.3 1.3 5.1s-3.4 2.4-5.3 1.4-2.4-3.3-1.3-5.1 3.4-2.4 5.3-1.4zm-56.3 125.9c1.8 1 2.4 3.3 1.3 5.1s-3.4 2.4-5.3 1.4-2.4-3.3-1.3-5.1 3.4-2.4 5.3-1.4zm-93.7-92c1.8 1 2.4 3.3 1.3 5.1s-3.4 2.4-5.3 1.4-2.4-3.3-1.3-5.1 3.4-2.4 5.3-1.4zm44.1-29.6c1.8 1 2.4 3.3 1.3 5.1s-3.4 2.4-5.3 1.4-2.4-3.3-1.3-5.1 3.4-2.4 5.3-1.4zm277.4 245.6c1.8 1 2.4 3.3 1.3 5.1s-3.4 2.4-5.3 1.4-2.4-3.3-1.3-5.1 3.4-2.4 5.3-1.4zm-60.1 130c1.8 1 2.4 3.3 1.3 5.1s-3.4 2.4-5.3 1.4-2.4-3.3-1.3-5.1 3.4-2.4 5.3-1.4zm101.2 96.4c1.8 1 2.4 3.3 1.3 5.1s-3.4 2.4-5.3 1.4-2.4-3.3-1.3-5.1 3.4-2.4 5.3-1.4zm-17.4-13.4c1.8 1 2.4 3.3 1.3 5.1s-3.4 2.4-5.3 1.4-2.4-3.3-1.3-5.1 3.4-2.4 5.3-1.4zM613.2 593c1.8 1 2.4 3.3 1.3 5.1s-3.4 2.4-5.3 1.4-2.4-3.3-1.3-5.1 3.4-2.4 5.3-1.4zm43.1 2.9c1.8 1 2.4 3.3 1.3 5.1s-3.4 2.4-5.3 1.4-2.4-3.3-1.3-5.1 3.4-2.4 5.3-1.4zm31.1-459.1c1.8 1 2.4 3.3 1.3 5.1s-3.4 2.4-5.3 1.4-2.4-3.3-1.3-5.1 3.4-2.4 5.3-1.4zm-8.8-27.6c1.8 1 2.4 3.3 1.3 5.1s-3.4 2.4-5.3 1.4-2.4-3.3-1.3-5.1 3.4-2.4 5.3-1.4zm58 36.1c1.8 1 2.4 3.3 1.3 5.1s-3.4 2.4-5.3 1.4-2.4-3.3-1.3-5.1 3.4-2.4 5.3-1.4zm-100-50.2c1.8 1 2.4 3.3 1.3 5.1s-3.4 2.4-5.3 1.4-2.4-3.3-1.3-5.1 3.4-2.4 5.3-1.4zm-74 38.4c1.8 1 2.4 3.3 1.3 5.1s-3.4 2.4-5.3 1.4-2.4-3.3-1.3-5.1 3.4-2.4 5.3-1.4zM635 61.2c1.8 1 2.4 3.3 1.3 5.1s-3.4 2.4-5.3 1.4-2.4-3.3-1.3-5.1 3.4-2.4 5.3-1.4zm165.7 229c1.8 1 2.4 3.3 1.3 5.1s-3.4 2.4-5.3 1.4-2.4-3.3-1.3-5.1 3.4-2.4 5.3-1.4zm-2.1 141.2c1.8 1 2.4 3.3 1.3 5.1s-3.4 2.4-5.3 1.4-2.4-3.3-1.3-5.1 3.4-2.4 5.3-1.4zm-15.3-16.2c1.8 1 2.4 3.3 1.3 5.1s-3.4 2.4-5.3 1.4-2.4-3.3-1.3-5.1 3.4-2.4 5.3-1.4zm-50 67.1c1.8 1 2.4 3.3 1.3 5.1s-3.4 2.4-5.3 1.4-2.4-3.3-1.3-5.1 3.4-2.4 5.3-1.4z"/><path d="M778 388.6c1.8 1 2.4 3.3 1.3 5.1s-3.4 2.4-5.3 1.4-2.4-3.3-1.3-5.1 3.4-2.4 5.3-1.4zm-22.5-139.8c1.8 1 2.4 3.3 1.3 5.1s-3.4 2.4-5.3 1.4-2.4-3.3-1.3-5.1 3.4-2.4 5.3-1.4zm19.9 244.6c1.8 1 2.4 3.3 1.3 5.1s-3.4 2.4-5.3 1.4-2.4-3.3-1.3-5.1 3.4-2.4 5.3-1.4zm35.5-47c1.8 1 2.4 3.3 1.3 5.1s-3.4 2.4-5.3 1.4-2.4-3.3-1.3-5.1 3.4-2.4 5.3-1.4zm9.4-56.4c1.8 1 2.4 3.3 1.3 5.1s-3.4 2.4-5.3 1.4-2.4-3.3-1.3-5.1 3.4-2.4 5.3-1.4zM746 159.1c1.8 1 2.4 3.3 1.3 5.1s-3.4 2.4-5.3 1.4-2.4-3.3-1.3-5.1 3.4-2.4 5.3-1.4zm-74.1-87.4c1.8 1 2.4 3.3 1.3 5.1s-3.4 2.4-5.3 1.4-2.4-3.3-1.3-5.1 3.4-2.4 5.3-1.4zm45.8 41.8c1.8 1 2.4 3.3 1.3 5.1s-3.4 2.4-5.3 1.4-2.4-3.3-1.3-5.1 3.4-2.4 5.3-1.4zm65.2 412.4c1.8 1 2.4 3.3 1.3 5.1s-3.4 2.4-5.3 1.4-2.4-3.3-1.3-5.1 3.4-2.4 5.3-1.4zm2.9-17.5c1.8 1 2.4 3.3 1.3 5.1s-3.4 2.4-5.3 1.4-2.4-3.3-1.3-5.1 3.4-2.4 5.3-1.4h0zm-34.3 5.3c1.8 1 2.4 3.3 1.3 5.1s-3.4 2.4-5.3 1.4-2.4-3.3-1.3-5.1 3.4-2.4 5.3-1.4z"/></g><path d="M439.5 584c-.3-.7-2.6-9.3-5.3-19.1l-11.1-40c-.1 0-16.7 4.3-36.8 9.8l-36.7 9.9c-.1-.1-4.7-43.6-4.7-44.9s.3-1 1.4-1.2c3.1-.6 23.4-6.2 26.3-7.2 4.2-1.6 7.6-4.7 8.5-8.1 1.2-4 .9-6.5-1.8-16.3l-9.9-35.8-13.2-48-10.9-39.6-7-25.3c-1-3.8-2.4-7.7-3-8.8-1.8-3.2-4.6-5.8-8-7.4-2.8-1.4-3.5-1.6-7.2-1.7-5.6-.3-9.8.7-30.7 6.8-3.4 1-5 1.3-5.1.9-.3-.8-10.3-37.7-10.4-38.1 0-.2 3.6-1.4 8.1-2.6l36.4-10.1 28.6-8c.2-.1-3.4-13.5-7.9-29.8l-8-29.9c0-.3 1.2-.7 2.4-1 1.3-.3 9.3-2.6 17.9-4.9l15.8-4.2 8.1 29.2 8.2 29.2c.1.1 5.7-1.5 12.6-3.5l14.4-4.2c1.5-.4 1.8-.7 1.8-1.3 0-.5-3.6-13.4-7.9-28.9l-7.7-28.5c0-.4 35.9-10.5 36.2-10.2s3.8 13.5 8.3 29.8l8.3 29.8c0 .1 1.8 0 3.7-.4 17.4-3.1 37.7-3.9 49.6-2.1 28.1 4.4 45.1 18.4 53.7 44.4 8.2 24.8 4.1 45.4-12.6 62.8l-3.1 3.2h4.9c34.7 0 56.3 16.5 65.5 49.8 5.4 19.7 5.7 38.1.6 53.3-1.7 5.3-5.7 13.1-9.1 17.9-6.1 8.6-17.5 18.6-29.3 25.6-11.6 7-31.6 15.8-45.4 20.2-1.3.4-2.4.8-2.6 1-.2.1 3 12.1 7 26.6l8.3 30.2 1 3.8-17.8 4.9-18.3 4.9c-.2 0-4.1-13.3-8.5-29.6l-8.2-29.7-13.2 3.4-14.5 3.8c-.8.1-1.4.5-1.4.8 0 .5.7 2.8 10.8 39.9l5.3 19.8c-.1.1-8.2 2.3-18.1 5.1l-18.1 4.9-.4-1.3h.2zm18.6-115.6c38.9-10.2 59.8-19.7 72.6-32.9 3.9-4.1 5.5-6.3 7.5-10.6 2.3-4.7 2.9-7.8 2.9-13.3 0-8.8-3.3-17.5-9-23.6-13.3-14.2-37-16.1-76.4-6-9.5 2.4-29.1 8.3-29.1 8.7s4.9 18.1 10.9 39.9l10.9 39.8c0 .4.9.2 9.8-2.1l-.1.1zm-33.6-116.8c27.5-7.2 42.5-13.4 54.2-22.6 4.1-3.2 6.7-6.1 9.4-10.2 2.5-3.8 3.6-6.7 4.5-11.6.8-4.7.3-9.8-1.6-15.5-4.3-12.8-13-19.8-27.6-22.3-3.4-.5-5.9-.7-12.5-.5-9.5.3-16.8 1.3-28.5 4.3-7.2 1.8-25.5 7.1-25.9 7.5s5.3 20.3 18.1 66.5c1 3.6 1.9 6.2 2.2 6.2s3.8-.8 7.7-1.9v.1z" fill="#fff"/><circle class="F" cx="569.4" cy="292.6" r="281.3" fill="url(#A)"/><path d="M523.2 409.4l63.4-59.2 120.5-4.3.9 121-56.2 66s2.5-45.6-40.4-86.8-88.2-36.7-88.2-36.7" fill="#315bfa"/><path d="M515.5 546.3s3-60.7 27.1-85.9 84.6-29.6 84.6-29.6-3.2 59.4-27.2 84.5-84.6 31-84.6 31" fill="#ffacd8"/><path d="M549.2,482.4c.9-16.8,15.2-31.8,31.9-33.4s29.5,10.7,28.6,27.5-15.2,31.8-31.9,33.4-29.5-10.7-28.6-27.5" fill="#ffccd0"/><path d="M794.7,254.1s-75.6,7.4-170.4,92.4-51.1,110.9-36.9,124.7,82.3,7,122.6-42.3c80.5-98.7,84.7-174.8,84.7-174.8" fill="#e7e5e0"/><path d="M724.6,298.8c-12.3,1.2-23.2,9.6-28.5,20.7,3.9-2.1,8.1-3.5,12.6-4,16.7-1.6,29.5,10.7,28.6,27.5-.2,4.5-1.5,8.8-3.4,12.7,10.7-5.8,18.7-17.1,19.3-29.4.9-16.8-11.9-29.1-28.6-27.5" fill="rgba(1,10,46,.9)"/><path d="M571.5,487.8s1.7-30.4,9.6-38.8,102.8-93.3,109.9-86.5-73.4,105.6-81.4,113.9-38.2,11.3-38.2,11.3" fill="#00f"/><path class="L" d="M116.7 597.9l-29 12L46.3 596l15.1-41.1 27.5-15.2s-6.7 15.2 2.6 34.6 25.2 23.7 25.2 23.7" opacity=".9" fill="#4667e5"/><path class="M" d="M136.8 552.4s-8.7 20.2-20.1 25.7-32.4-.7-32.4-.7 8.7-19.7 20-25.2 32.6.3 32.6.3" fill="#ffb2c5" opacity=".8"/><path d="M117.2,569.8c-2.4,5.6-9.2,8.8-15.1,7.3s-8.6-7.4-6.2-12.9,9.2-8.8,15.1-7.3,8.6,7.4,6.2,12.9" fill="#ffcced"/><ellipse class="O" cx="750.93" cy="326.28" rx="3.3" ry="106" transform="matrix(.999994 -.003491 .003491 .999994 -1.13 2.62)" fill="#fff5ed" opacity=".9"/><ellipse cx="750.9" cy="319.1" rx="2.1" ry="2.9" fill="#fff"/><path d="M281.5,288.5l-17.3,30.8-44.3,52-34.6-1.2-66.4-15.8-17.3-32.1-22.1-67.8,17.3-30.8,44.3-52,34.6,1.2,66.4,15.8,17.3,32.1,22.1,67.8Z" fill="rgba(255,178,165,.4)"/><path d="M717.2 550.6l-6.7 10-16.7 17.2h-12.4c0 .1-23.6-3.9-23.6-3.9l-5.7-9.9-6.9-21.1 6.7-10 16.7-17.2H681c0-.1 23.6 3.9 23.6 3.9l5.7 9.9 6.9 21.1z" fill="rgba(255,178,165,.5)"/><path d="M482.3,424.2l-4.5,8-11.6,13.5-9-.3-17.3-4-4.5-8.3-5.7-17.5,4.5-8,11.6-13.5,9,.3,17.3,4,4.5,8.3,5.7,17.5Z" fill="rgba(255,178,165,.6)"/><path d="M4.9,615.9s26.6,7.1,69.5-9.6,31.5-31.1,28.4-37.6-27-12.9-46.9-1.3c-39.9,23.2-51,48.5-51,48.5" fill="#b9b6a7"/><path d="M110.3,565.1s-4.4,10.1-8.2,11.9-46.7,18.5-48.3,15.3,38.3-26.4,42.1-28.3,14.4,1,14.4,1" fill="#5e7ced"/><path d="M364.1 105l-14.8 13.2-33.2 19.8-18.6-6.5-33.3-19.5-3.8-19.7-.2-39.3L275 39.8 308.2 20l18.6 6.5L360.1 46l3.8 19.7.2 39.3zm450.4 245.7l-5.4 4.1L797 361l-6.8-2-12.1-6.1-1.4-6.2v-12.2l5.3-4.1 12.1-6.2 6.8 2 12.1 6.1 1.4 6.2v12.2h.1zm-123.2-66.1l-3.9 3.4-8.7 5.1-4.9-1.7-8.7-5-1-5.1v-10.1l3.8-3.4 8.7-5.1 4.9 1.7 8.7 5 1 5.1v10.1h.1z" fill="rgba(239,255,200,.3)"/><path d="M1020.2,686.2l-17.3,30.8-44.3,52-34.6-1.2-66.4-15.8-17.3-32.1-22.1-67.8,17.3-30.8,44.3-52,34.6,1.2,66.4,15.8,17.3,32.1,22.1,67.8Z" fill="rgba(255,178,165,.4)"/><g fill="rgba(239,255,200,.3)"><path d="M575.9,217.1l-9.6,7.6-21.4,11.4-12-3.7-21.5-11.2-2.5-11.4v-22.6c-.1,0,9.5-7.6,9.5-7.6l21.4-11.4,12,3.7,21.5,11.2,2.5,11.4v22.6h.1Z"/><path d="M599.9 233.7l-9.6 7.6-21.4 11.4-12-3.7-21.5-11.2-2.5-11.4v-22.6c-.1 0 9.5-7.6 9.5-7.6l21.4-11.4 12 3.7 21.5 11.2 2.5 11.4v22.6h.1zm348.8 191l-9.6 7.6-21.4 11.4-12-3.7-21.5-11.2-2.5-11.4v-22.6c-.1 0 9.5-7.6 9.5-7.6l21.4-11.4 12 3.7 21.5 11.2 2.5 11.4v22.6h.1z"/><path d="M982.2,439.7l-9.6,7.6-21.4,11.4-12-3.7-21.5-11.2-2.5-11.4v-22.6c-.1,0,9.5-7.6,9.5-7.6l21.4-11.4,12,3.7,21.5,11.2,2.5,11.4v22.6h.1Z"/></g><path d="M746.5 564.5l-6.7 10-16.7 17.2h-12.4c0 .1-23.6-3.9-23.6-3.9l-5.7-9.9-6.9-21.1 6.7-10 16.7-17.2h12.4c0-.1 23.6 3.9 23.6 3.9l5.7 9.9 6.9 21.1zM471.1 405.7l-6.7 10-16.7 17.2h-12.4c0 .1-23.6-3.9-23.6-3.9l-5.7-9.9-6.9-21.1 6.7-10 16.7-17.2h12.4c0-.1 23.6 3.9 23.6 3.9l5.7 9.9 6.9 21.1z" fill="rgba(255,178,165,.5)"/><g transform="matrix(.999949 -.010123 .010123 .999949 -6.12 .42)"><circle cx="38" cy="600.5" r="7.9" fill="#fff"/><circle class="V" cx="38" cy="600.5" r="7.9" fill="none" opacity=".7" stroke="#000" stroke-linejoin="round" stroke-width="1.6"/></g></g></svg>