<?xml version="1.0" encoding="UTF-8"?>
<svg id="Layer_1" xmlns="http://www.w3.org/2000/svg" version="1.1" viewBox="0 0 20.3 27.5">
  <!-- Generator: Adobe Illustrator 29.1.0, SVG Export Plug-In . SVG Version: 2.1.0 Build 142)  -->
  <defs>
    <style>
      .st0 {
        fill: #0073ff;
        stroke: #0073ff;
        stroke-miterlimit: 10;
      }
    </style>
  </defs>
  <path class="st0" d="M2.5,8.3c0-1.5,1.2-2.6,2.6-2.6h11.8l-2,2c-.3.3-.3.9,0,1.2s.9.3,1.2,0l3.4-3.4c.2,0,.3-.4.3-.7s-.1-.5-.3-.6l-3.4-3.5c-.3-.3-.9-.3-1.2,0-.3.3-.3.9,0,1.2l2,2H5.1C2.7,3.9.8,5.9.8,8.3v8.1c0,.5.4.9.9.9s.9-.4.9-.9v-8.1h0Z"/>
  <path class="st0" d="M15.2,21.7H3.4l2-2c.3-.3.3-.9,0-1.2-.3-.3-.9-.3-1.2,0l-3.4,3.4c-.2.1-.3.4-.3.7s0,.5.3.6l3.4,3.5c.3.3.9.3,1.2,0s.3-.9,0-1.2l-2-2h11.8c2.4,0,4.3-2,4.3-4.4v-8.1c0-.5-.4-.9-.9-.9s-.9.4-.9.9v8.1c0,1.5-1.1,2.6-2.5,2.6Z"/>
</svg>