<svg xmlns="http://www.w3.org/2000/svg" viewBox="0 0 20.3 27.5" fill="#0073ff" stroke="#0073ff" stroke-miterlimit="10" xmlns:v="https://vecta.io/nano"><path d="M2.5 8.3c0-1.5 1.2-2.6 2.6-2.6h11.8l-2 2c-.3.3-.3.9 0 1.2s.9.3 1.2 0l3.4-3.4c.2 0 .3-.4.3-.7s-.1-.5-.3-.6L16.1.7c-.3-.3-.9-.3-1.2 0s-.3.9 0 1.2l2 2H5.1C2.7 3.9.8 5.9.8 8.3v8.1c0 .5.4.9.9.9s.9-.4.9-.9V8.3h0zm12.7 13.4H3.4l2-2c.3-.3.3-.9 0-1.2s-.9-.3-1.2 0L.8 21.9c-.2.1-.3.4-.3.7s0 .5.3.6l3.4 3.5c.3.3.9.3 1.2 0s.3-.9 0-1.2l-2-2h11.8c2.4 0 4.3-2 4.3-4.4V11c0-.5-.4-.9-.9-.9s-.9.4-.9.9v8.1c0 1.5-1.1 2.6-2.5 2.6z"/></svg>