<?xml version="1.0" encoding="UTF-8"?><svg id="a" xmlns="http://www.w3.org/2000/svg" xmlns:xlink="http://www.w3.org/1999/xlink" viewBox="0 0 608.682 597.009"><defs><linearGradient id="b" x1="390.3879" y1="388.1979" x2="228.84" y2="226.65" gradientUnits="userSpaceOnUse"><stop offset="0" stop-color="#72ff74"/><stop offset="1" stop-color="#009b99"/></linearGradient></defs><path d="M141.5157,229.009c-28.589,53.682-21.184,123.89,8.861,175,9.869,16.781,23.809,29.772,35.629,45,8.7,11.22,15.77,25.433,22.39,38,3.03,5.758-.3101,11.063-.79,17-.87,10.901-.58,22.827,3.79,33,6.35,14.798,18.39,26.318,33.12,32.572,5.8101,2.468,12.3,2.841,18,5.398,7.23,3.245,11.87,10.541,19,14.209,12.37,6.36,37.5601,6.504,51,3.06,10.8101-2.769,16.04-10.945,25-16.385,5.27-3.202,12.23-3.38,18-5.398,10.58-3.704,19.55-10.905,26.67-19.456,11.02-13.223,13.02-28.424,12.29-45-.21-4.832-3.01-10.271-2.28-15,.72-4.646,4.76-9.005,7.03-13,5.0699-8.888,9.51-18.114,14.58-27,18.78-32.948,49.8-58.005,55.71-98l17,4c-6.48-34.776-14.98-73.051-28-106h-2c-13.65,24.606-28.91,48.318-42.46,73-2.96,5.392-14.61,19.361-12.72,25.667,1.22,4.079,11.7-.612,14.1801-1.667-2.04,20.357-20.23,41.249-34,55-66.6801,66.579-181.76,39.674-216-47-37.532-95.04,48.9399-195.3,148-178.72,33.8199,5.661,64.5599,27.446,84.21,54.885,7.67,10.702,12.22,22.573,18.79,33.83,9.5699-4.675,15.3-20.056,20.42-29,2.2-3.848,4.1801-9.658,8.62-11.397,5.28-2.065,13.35-.603,18.96-.603,13.37,0,26.71.416,40-1.17,34.3101-4.095,63.13-36.935,75.77-66.83,18.78-44.413,4.51-95.621-27.45-129.82-7.58-8.1162-22.41-27.402-34.3199-26.184,8.15,22.073,26.2,38.529,29.7,63,4.87,34.088-14.15,70.568-48.7,80.254-21.21,5.945-46.1801,2.746-68,2.746-15.1899,0-35.38,3.511-50-.637-19.8-5.62-37.41-16.055-58-20.479-17.3-3.716-35.51-2.999-53-1.794-27.58,1.899-48.3199,14.984-74,22.273-13.77,3.908-32.6899.637-47,.637-41.097,0-87.734,8.354-116.33-28-21.723-27.614-15.272-60.21-.411-89,4.993-9.6723,14.8-19.241,16.742-30-13.574,3.1899-25.305,18.2-34.344,28C-1.3391,67.587-12.1401,125.202,15.7449,173c27.432,47.021,75.747,56,125.77,56l.0007.009Z"/><circle cx="309.614" cy="307.424" r="114.2316" style="fill:url(#b);"/><path d="M345.2461,269.0665c-5.7406-13.0178-18.9323-15.8011-35.0813-13.1047l-5.1897-20.121-12.235,3.1602,5.1027,20.063c-3.2182.8118-6.5234,1.5076-9.7996,2.4354l-5.1027-19.947-12.235,3.1602,5.1897,20.121c-2.6383.7538-24.7019,6.4074-24.7019,6.4074l3.3632,13.1047s8.9878-2.5224,8.9008-2.3194c4.9868-1.3047,7.3352,1.1887,8.4369,3.5371l14.2645,55.1443c.174,1.5946-.116,4.3199-3.5371,5.2477.203.116-8.9008,2.2904-8.9008,2.2904l1.3337,15.2792,24.7308-6.3204,5.2477,20.3529,12.235-3.1602-5.2477-20.4979,9.8286-2.4354,5.2187,20.3819,12.235-3.1602-5.2477-20.3239c18.8453-4.5809,32.153-16.4679,29.4277-34.6464-1.7396-10.9593-13.7136-19.947-23.6581-20.9618,6.1175-5.4217,9.2197-13.3367,5.4216-23.6871h0ZM339.3606,317.0496c2.4354,18.0045-22.5854,20.208-30.8483,22.3824l-7.1902-26.9343c8.2919-2.1745,33.9216-11.3072,38.0385,4.5519h0ZM324.2843,280.3737c2.5804,16.004-18.8163,17.8596-25.7166,19.6281l-6.5524-24.4409c6.9293-1.7106,27.0213-10.0025,32.269,4.8128h0Z" style="fill:#fff;"/></svg>