<?xml version="1.0" encoding="UTF-8"?><svg id="a" xmlns="http://www.w3.org/2000/svg" xmlns:xlink="http://www.w3.org/1999/xlink" viewBox="0 0 2500 597.009"><defs><linearGradient id="b" x1="1247.2595" y1="390.7128" x2="1085.7116" y2="229.1649" gradientUnits="userSpaceOnUse"><stop offset="0" stop-color="#72ff74"/><stop offset="1" stop-color="#009b99"/></linearGradient></defs><path d="M294.3223,360.4739c0,14.9355-4.0249,27.0703-12.0752,36.4004-8.0498,9.335-18.8452,16.2207-32.375,20.6504-13.5352,4.4346-28.4702,6.6494-44.7998,6.6494h-122.1499v-248.5h144.1997c11.665,0,21.7549,3.0952,30.2754,9.2749,8.5146,6.1851,15.0498,14.1753,19.5996,23.9751,4.5503,9.7998,6.8252,19.9502,6.8252,30.4502,0,11.4351-2.9751,22.52-8.9248,33.25-5.9502,10.7349-14.875,18.7852-26.7754,24.1504,14.23,4.1992,25.4902,11.5498,33.7754,22.0498,8.2793,10.5,12.4248,24.3848,12.4248,41.6494ZM151.1724,233.7742v38.1499h46.5498c3.0298,0,5.9502-.5249,8.75-1.5752,2.8003-1.0498,5.1299-2.9746,7-5.7749,1.8647-2.7998,2.8003-6.7646,2.8003-11.8999,0-4.665-.7603-8.3398-2.2754-11.0249-1.52-2.6797-3.5-4.665-5.9497-5.9502-2.4502-1.2798-5.1953-1.9248-8.2251-1.9248h-48.6499ZM225.0225,346.4739c0-4.1992-.7603-7.875-2.2754-11.0244-1.52-3.1504-3.5601-5.6553-6.125-7.5254-2.5703-1.8643-5.5996-2.7998-9.0996-2.7998h-56.3501v41.6504h53.8999c3.7295,0,7.1147-.8154,10.1499-2.4502,3.0298-1.6299,5.4253-3.9648,7.1753-7,1.75-3.0303,2.625-6.6504,2.625-10.8506Z"/><path d="M321.2681,297.4739c0-15.1646,2.8545-30.0396,8.5747-44.625,5.7148-14.5796,14.0547-27.8247,25.0249-39.7246,10.9648-11.9004,24.3252-21.4048,40.0752-28.5254,15.75-7.1147,33.54-10.6748,53.375-10.6748,23.7998,0,44.5649,4.96,62.2998,14.875,17.73,9.9204,30.915,23.0454,39.5503,39.375l-52.1499,37.1001c-3.0352-8.165-7.4102-14.4648-13.125-18.8999-5.7207-4.4297-11.9004-7.5254-18.5503-9.2754s-13.125-2.625-19.4248-2.625c-9.8003,0-18.2603,1.9253-25.375,5.7754-7.1206,3.8496-12.9502,8.9248-17.5,15.2246-4.5503,6.3003-7.9351,13.3003-10.1499,21-2.2207,7.7002-3.3252,15.4004-3.3252,23.1006,0,8.6348,1.2798,16.9199,3.8501,24.8496,2.5649,7.9355,6.2998,14.9951,11.1997,21.1748,4.9004,6.1855,10.9048,11.0254,18.0254,14.5254,7.1147,3.5,15.1045,5.25,23.9746,5.25,6.3003,0,12.7148-.9902,19.25-2.9746,6.5298-1.9805,12.48-5.1904,17.8501-9.625,5.3647-4.4297,9.4502-10.3799,12.25-17.8506l55.6499,33.25c-4.8999,12.1357-13.0703,22.5205-24.5,31.1504-11.4351,8.6348-24.3848,15.2246-38.8496,19.7744-14.4707,4.5508-28.8203,6.8252-43.0503,6.8252-18.4351,0-35.2954-3.6748-50.5747-11.0244-15.2852-7.3506-28.4707-17.1504-39.5503-29.4004-11.085-12.25-19.6602-26.0146-25.7251-41.2998-6.0703-15.2803-9.0996-30.8545-9.0996-46.7256Z"/><path d="M807.0654,175.6741v248.5h-68.25v-97.2998h-83.2998v97.2998h-68.25v-248.5h68.25v91.7002h83.2998v-91.7002h68.25Z"/><path d="M1723.1514,360.4739c0,14.9355-4.0254,27.0703-12.0752,36.4004-8.0498,9.335-18.8457,16.2207-32.375,20.6504-13.5352,4.4346-28.4707,6.6494-44.7998,6.6494h-122.1504v-248.5h144.2002c11.665,0,21.7549,3.0952,30.2754,9.2749,8.5146,6.1851,15.0498,14.1753,19.5996,23.9751s6.8252,19.9502,6.8252,30.4502c0,11.4351-2.9756,22.52-8.9248,33.25-5.9502,10.7349-14.875,18.7852-26.7754,24.1504,14.2295,4.1992,25.4902,11.5498,33.7754,22.0498,8.2793,10.5,12.4248,24.3848,12.4248,41.6494ZM1580.001,233.7742v38.1499h46.5498c3.0303,0,5.9502-.5249,8.75-1.5752,2.8008-1.0498,5.1299-2.9746,7-5.7749,1.8652-2.7998,2.8008-6.7646,2.8008-11.8999,0-4.665-.7607-8.3398-2.2754-11.0249-1.5205-2.6797-3.5-4.665-5.9502-5.9502-2.4502-1.2798-5.1953-1.9248-8.2246-1.9248h-48.6504ZM1653.8516,346.4739c0-4.1992-.7607-7.875-2.2754-11.0244-1.5205-3.1504-3.5605-5.6553-6.125-7.5254-2.5703-1.8643-5.5996-2.7998-9.0996-2.7998h-56.3506v41.6504h53.9004c3.7295,0,7.1143-.8154,10.1494-2.4502,3.0303-1.6299,5.4258-3.9648,7.1758-7,1.75-3.0303,2.625-6.6504,2.625-10.8506Z"/><path d="M1872.2471,425.9241c-19.8359,0-36.8711-3.2588-51.1006-9.7832-14.2354-6.5244-25.8447-15.4932-34.8252-26.9121-8.9844-11.4189-15.5742-24.5215-19.7744-39.3203-4.2002-14.7979-6.2998-30.3516-6.2998-46.665v-127.5693h68.25v127.5146c0,8.1543.8145,15.958,2.4492,23.4062,1.6299,7.4541,4.2002,14.0938,7.7002,19.9121,3.5,5.8242,7.9902,10.4238,13.4756,13.8027,5.4795,3.3799,12.1895,5.0645,20.125,5.0645,8.1641,0,15.0498-1.6846,20.6494-5.0645,5.6006-3.3789,10.0898-8.0391,13.4756-13.9775,3.3789-5.9395,5.8896-12.6328,7.5244-20.0869,1.6299-7.4482,2.4502-15.1377,2.4502-23.0566v-127.5146h68.25v127.5693c0,17.249-2.2754,33.3271-6.8252,48.2344-4.5498,14.9141-11.375,27.9619-20.4746,39.1455-9.1006,11.1895-20.71,19.8682-34.8252,26.042-14.1201,6.1748-30.8604,9.2588-50.2246,9.2588Z"/><path d="M2034.2959,424.1741v-248.5h68.25v189h112.6992v59.5h-180.9492Z"/><path d="M2249.542,424.1741v-248.5h68.25v189h112.7002v59.5h-180.9502Z"/><path d="M998.3873,231.5238c-28.589,53.682-21.184,123.89,8.861,175,9.869,16.781,23.809,29.772,35.629,45,8.7,11.22,15.77,25.433,22.39,38,3.03,5.758-.3101,11.063-.79,17-.87,10.901-.58,22.827,3.79,33,6.35,14.798,18.39,26.318,33.12,32.572,5.8101,2.468,12.3,2.841,18,5.398,7.23,3.245,11.87,10.541,19,14.209,12.37,6.36,37.5601,6.504,51,3.06,10.8101-2.769,16.04-10.945,25-16.385,5.27-3.202,12.23-3.38,18-5.398,10.58-3.704,19.55-10.905,26.67-19.456,11.02-13.223,13.02-28.424,12.29-45-.21-4.832-3.01-10.271-2.28-15,.72-4.646,4.76-9.005,7.03-13,5.0699-8.888,9.51-18.114,14.58-27,18.78-32.948,49.8-58.005,55.71-98l17,4c-6.48-34.776-14.98-73.051-28-106h-2c-13.65,24.606-28.91,48.318-42.46,73-2.96,5.392-14.61,19.361-12.72,25.667,1.22,4.079,11.7-.612,14.1801-1.667-2.04,20.357-20.23,41.249-34,55-66.6801,66.579-181.76,39.674-216-47-37.532-95.04,48.9399-195.3,148-178.72,33.8199,5.661,64.5599,27.446,84.21,54.885,7.67,10.702,12.22,22.573,18.79,33.83,9.5699-4.675,15.3-20.056,20.42-29,2.2-3.848,4.1801-9.658,8.62-11.397,5.28-2.065,13.35-.603,18.96-.603,13.37,0,26.71.416,40-1.17,34.3101-4.095,63.13-36.935,75.77-66.83,18.78-44.413,4.51-95.621-27.45-129.82-7.58-8.1162-22.41-27.402-34.3199-26.184,8.15,22.073,26.2,38.529,29.7,63,4.87,34.088-14.15,70.568-48.7,80.254-21.21,5.945-46.1801,2.746-68,2.746-15.1899,0-35.38,3.511-50-.637-19.8-5.62-37.41-16.055-58-20.479-17.3-3.716-35.51-2.999-53-1.794-27.58,1.899-48.3199,14.984-74,22.273-13.77,3.908-32.6899.637-47,.637-41.097,0-87.734,8.354-116.33-28-21.723-27.614-15.272-60.21-.411-89,4.993-9.6723,14.8-19.241,16.742-30-13.574,3.1899-25.305,18.2-34.344,28-36.512,39.587-47.313,97.202-19.428,145,27.432,47.021,75.747,56,125.77,56l.0007.009Z"/><circle cx="1166.4855" cy="309.9388" r="114.2316" style="fill:url(#b);"/><path d="M1202.1177,271.5814c-5.7406-13.0178-18.9323-15.8011-35.0813-13.1047l-5.1897-20.121-12.235,3.1602,5.1027,20.063c-3.2182.8118-6.5234,1.5076-9.7996,2.4354l-5.1027-19.947-12.235,3.1602,5.1897,20.121c-2.6383.7538-24.7019,6.4074-24.7019,6.4074l3.3632,13.1047s8.9878-2.5224,8.9008-2.3194c4.9868-1.3047,7.3352,1.1887,8.4369,3.5371l14.2645,55.1443c.174,1.5946-.116,4.3199-3.5371,5.2477.203.116-8.9008,2.2904-8.9008,2.2904l1.3337,15.2792,24.7308-6.3204,5.2477,20.3529,12.235-3.1602-5.2477-20.4979,9.8286-2.4354,5.2187,20.3819,12.235-3.1602-5.2477-20.3239c18.8453-4.5809,32.153-16.4679,29.4277-34.6464-1.7396-10.9593-13.7136-19.947-23.6581-20.9618,6.1175-5.4217,9.2197-13.3367,5.4216-23.6871h0ZM1196.2322,319.5644c2.4354,18.0045-22.5854,20.208-30.8483,22.3824l-7.1902-26.9343c8.2919-2.1745,33.9216-11.3072,38.0385,4.5519h0ZM1181.1559,282.8885c2.5804,16.004-18.8163,17.8596-25.7166,19.6281l-6.5524-24.4409c6.9293-1.7106,27.0213-10.0025,32.269,4.8128h0Z" style="fill:#fff;"/></svg>