<?xml version="1.0" encoding="UTF-8"?><svg id="a" xmlns="http://www.w3.org/2000/svg" viewBox="0 0 78.39 138.2"><path d="M75.35,81.81l.23.35c.53.82.84,1.53.88,2.19.17,2.68-1.06,5.67-3.45,8.75-2.37,3.06-5.74,6.03-9.48,8.63-7.96,5.54-17.67,7.95-27.29,6.8-9.62-1.16-18.48-5.81-24.9-13.07-6.42-7.26-9.94-16.63-9.91-26.32.04-9.69,3.63-19.03,10.1-26.24,6.47-7.22,15.37-11.8,25-12.88,9.87-1.11,19.17-.45,27.06,6.86,1.18,1.09,2.41,2.18,3.58,3.21.78.69,1.54,1.36,2.24,1.99,1.83,1.65,3.42,3.19,4.66,4.73,1.24,1.53,2.06,2.99,2.42,4.45.35,1.42.3,2.96-.39,4.72-.32.82-.97,1.58-1.86,2.29l-1.07.86c-1.28,1.02-2.85,1.61-4.48,1.68-.38.02-.76,0-1.14-.03l-.67-.07c-1.57-.16-3.02-.77-4.16-1.78-.44-.39-.9-.8-1.37-1.21-2.33-2.08-5-4.46-7.7-6.37-4.41-3.11-9.8-4.5-15.16-3.9-5.36.6-10.31,3.16-13.91,7.17s-5.6,9.21-5.62,14.61c-.02,5.39,1.94,10.61,5.51,14.65,3.57,4.04,8.5,6.63,13.86,7.28,5.35.64,10.76-.7,15.19-3.78l.06-.04.05-.04c1.92-1.58,3.44-2.87,4.72-3.96,1.99-1.69,3.42-2.9,4.92-3.99.69-.51,1.53-.86,2.45-1.08l.73-.17c1.39-.32,2.84-.26,4.2.18.71.23,1.38.56,1.99.98l.51.35c.88.6,1.62,1.36,2.2,2.24" style="fill:none; stroke:#00c58b; stroke-miterlimit:10; stroke-width:2px;"/><path d="M33.09,4.11l41.11,42.29c3.31,3.4,3.23,8.83-.17,12.13h0c-3.4,3.3-8.83,3.23-12.14-.17L20.78,16.07c-3.3-3.4-3.23-8.83.17-12.14h0c3.4-3.3,8.83-3.23,12.14.17Z" style="fill:none; stroke:#00c58b; stroke-miterlimit:10; stroke-width:2px;"/><path d="M33.09,134.45l41.11-42.29c3.31-3.4,3.23-8.83-.17-12.13h0c-3.4-3.3-8.83-3.23-12.14.17l-41.11,42.28c-3.3,3.4-3.23,8.83.17,12.14h0c3.4,3.3,8.83,3.23,12.14-.17Z" style="fill:none; stroke:#00c58b; stroke-miterlimit:10; stroke-width:2px;"/></svg>