<svg xmlns="http://www.w3.org/2000/svg" viewBox="0 0 160.3 115.3" xmlns:v="https://vecta.io/nano"><path d="M95.2 94.8l9.2-74.2c0-1 .8-1.7 1.8-1.7h27.6c17.6 0 28.2 10 26.4 24.9l-3.3 27.7c-1.9 14.9-15 24.9-32.6 24.9H96.7c-1.1 0-1.6-.7-1.5-1.6zM118 78.6h9.2c4.8 0 8.7-4.2 9.7-10.6l2.5-20.6c.8-6.4-2.1-10.6-7.3-10.6h-9c-.4 0-.7.2-.8.7l-5 40.5c0 .4.2.6.7.6h0zM23.1 44.7c-2.6 0-3.8-1.1-2.8-2.5 1.1-1.4 4.1-2.5 6.6-2.5h52.7c2.6 0 4.5 1.1 4.3 2.5s-2.5 2.5-5.1 2.5H23.1zM3.2 56.9c-2.6 0-3.8-1.1-2.8-2.5S4.4 52 7 52h71c2.6 0 4.6 1.1 4.4 2.5S80 57 77.4 57H3.2zm32.1 12.2c-2.6 0-4.1-1.1-3.3-2.5s3.5-2.5 6.1-2.5h38.6c2.6 0 4.6 1.1 4.4 2.5s-2.5 2.5-5 2.5H35.3z" fill="#24e6aa"/></svg>