<svg xmlns="http://www.w3.org/2000/svg" viewBox="0 0 115.439 115.439" xmlns:v="https://vecta.io/nano"><circle cx="57.72" cy="57.72" r="57.72" fill="#49bc7d"/><path d="M39.893 32.706c6.043-1.634 10.122-1.576 13.823.279 3.311 1.693 5.706 4.795 6.854 9.038 2.025 7.486-.752 12.881-8.217 15.971 8.744-1.561 14.412 1.815 16.64 10.052 1.237 4.576.754 8.545-1.483 12.097-2.472 3.972-6.323 6.353-13.172 8.206l-29.973 8.106-2.047-7.57 6.768-1.831-10.913-40.349-6.768 1.831-2.047-7.57 30.536-8.259h0zm1.224 24.667c7.171-1.939 9.916-5.539 8.431-11.029-.63-2.33-2.079-4.17-3.867-5.025-2.177-1.019-3.902-.999-8.736.309l-7.412 2.004 4.253 15.724 7.331-1.983zm7.547 24.385c3.706-1.002 5.527-1.941 6.962-3.669 1.851-2.107 2.384-4.93 1.574-7.925-1.53-5.657-5.737-7.465-12.747-5.569l-8.621 2.332 4.613 17.055 8.218-2.223h0zm34.105-17.439c-.306-.809-.531-1.642-.621-1.974-1.732-6.406-1.444-8.538 2.037-14.211l2.377-3.679c2.564-4.264 3.107-6.732 2.163-10.226-2.268-8.384-16.303-4.971-12.619 5.732l-9.371 2.49c-2.78-8.525-2.305-18.266 12.273-21.599 8.698-1.988 17.724.238 20.553 10.699 1.418 5.241 1.152 10.237-2.558 15.703L94.72 50.64c-2.574 3.91-2.827 5.854-1.879 10.954L82.77 64.318h-.001zm13.592 6.948h0a6.05 6.05 0 0 1-4.259 7.417l-.162.044a6.05 6.05 0 0 1-7.417-4.259h0a6.05 6.05 0 0 1 4.259-7.417l.162-.044a6.05 6.05 0 0 1 7.417 4.259z"/><use href="#B"/><use href="#B" x="13.1" y="-3.543"/><use href="#B" x="16.366" y="60.504"/><use href="#B" x="29.464" y="56.961"/><defs ><path id="B" d="M18.574 26.726l5.477-1.481 4.226 15.626-5.477 1.481z"/></defs></svg>