<svg xmlns="http://www.w3.org/2000/svg" viewBox="0 0 712.6 712.6" xmlns:v="https://vecta.io/nano"><rect width="712.6" height="712.6" rx="241.5" fill="#141414"/><rect x="59.3" y="59.3" width="594" height="594" rx="200" fill="#fff"/><path d="M476.8 183.3c66 .3 119.5 53.8 119.5 119.9s-53.7 119.9-119.9 119.9-67.3-15.4-89.3-39.8h-61.4c-22 24.6-53.9 40.1-89.5 40.1-66.2 0-119.9-53.7-119.9-119.9S170 183.6 236.2 183.6h-.4v-.3h241zM353.9 571c-77.8-1-118.2-53.3-110.1-66.3 8.2-13.1 45 7.2 112.4 7.2h0c67.4 0 104.2-20.3 112.4-7.2s-33 66.3-112.4 66.3h-2.4z" fill="#141414" fill-rule="evenodd"/><circle cx="476.3" cy="303.3" r="65" fill="#77ffa8"/><path d="M236.3 238.5h4.7 2.3a14.15 14.15 0 0 1 13.6 12.3l.7 6.5c.8 7.4 1.4 15 1.9 22.7h0 0l22.7 1.8c2.2.2 4.4.5 6.6.8 6.9.9 12.1 6.7 12.2 13.6v7 4.7 2.3a14.15 14.15 0 0 1-12.3 13.6c-2 .3-4.2.5-6.5.7-7.4.8-15 1.4-22.7 1.9h0 0c-.5 7.7-1.1 15.3-1.9 22.7-.2 2.3-.5 4.4-.7 6.5-.8 6.8-6.5 12-13.3 12.3h-.3-2.3-4.7-7c-6.8-.1-12.5-5.2-13.5-11.9v-.3l-.3-2.2c-.2-1.5-.3-2.9-.5-4.4-.6-6-1.2-13.3-1.8-22.1l-.6-.6h.6a409.18 409.18 0 0 1-22.7-1.8c-2.3-.2-4.4-.5-6.5-.7-6.8-.8-12-6.5-12.3-13.3v-.3-2.3-4.7-7c.2-6.9 5.3-12.7 12.2-13.6 2.2-.3 4.4-.5 6.6-.8 6-.6 13.3-1.2 22-1.8.2-.2.4-.4.7-.6v.6l1.8-22.7c.2-1.5.3-2.9.5-4.4l.3-2.2c.9-6.9 6.7-12.1 13.6-12.2h7z" fill-rule="evenodd" fill="#fff"/></svg>