<svg xmlns="http://www.w3.org/2000/svg" viewBox="0 0 788 788" xmlns:v="https://vecta.io/nano"><g fill="#0ac18e"><path d="M287 .2H-.5v289.5C36.5 149.1 146.8 38.2 287 .2zm501.5 289.5V.2H501c140.2 38 250.5 148.9 287.5 289.5zM501 787.8h287.5V498.3c-37 140.6-147.3 251.5-287.5 289.5zM-.5 498.3v289.5H287C146.8 749.8 36.5 638.9-.5 498.3z"/><circle cx="394" cy="394" r="335"/></g><path d="M498.5 281.5c-16.8-38.2-55.5-46.3-102.9-38.4l-15.2-59-35.9 9.3 15 58.8c-9.4 2.4-19.1 4.4-28.7 7.1l-15-58.5-35.9 9.3 15.2 59c-7.7 2.2-72.4 18.8-72.4 18.8l9.9 38.4s26.4-7.4 26.1-6.8c14.6-3.8 21.5 3.5 24.7 10.4l41.8 161.7c.5 4.7-.3 12.7-10.4 15.4.6.3-26.1 6.7-26.1 6.7l3.9 44.8 72.5-18.5 15.4 59.7 35.9-9.3-15.4-60.1 28.8-7.1 15.3 59.8 35.9-9.3-15.4-59.6c55.3-13.4 94.3-48.3 86.3-101.6-5.1-32.1-40.2-58.5-69.4-61.5 18-15.9 27.1-39.1 16-69.5h0zm-17.3 140.7c7.1 52.8-66.2 59.3-90.5 65.6l-21.1-79c24.4-6.3 99.6-33.1 111.6 13.4zM437 314.7c7.6 46.9-55.2 52.4-75.4 57.6l-19.2-71.7c20.3-5.1 79.2-29.4 94.6 14.1z" fill="#fff"/></svg>