<svg xmlns="http://www.w3.org/2000/svg" width="800" height="800" fill="none" viewBox="0 0 45 45" xmlns:v="https://vecta.io/nano"><g clip-path="url(#C)" fill="#0ac18e"><path d="M29.503 17.099c-.164-4.299-3.848-7.99-10.798-11.193l-1.028-.464-1.028.464C9.537 9.183 5.845 12.972 5.845 17.4v1.315l2.629-.001h18.405l2.629.001V17.4zM8.652 16.085l.026-.093.082-.256c.856-2.482 3.648-4.909 8.515-7.22l.402-.188.402.188.496.239c4.723 2.319 7.379 4.752 8.101 7.237l.025.093z"/><path d="M25.564 25.665H9.781V17.78h15.783z" stroke="#0ac18e" stroke-linejoin="round" stroke-width="2"/><path d="M36.678 10.142c.494 1.833.718 3.857.718 6.325 0 3.084-.786 6.155-2.344 9.202l-2.997-.001c1.814-3.093 2.712-6.156 2.712-9.201 0-2.531-.25-4.487-.798-6.233 1.208-2.312 2.113-2.312 2.709-.092z"/><path d="M36.212 7.317c2.805.373-1.696 4.663-2.244 2.917a3.29 3.29 0 0 0-1.825 2.731l-.007.216h-2.629a5.92 5.92 0 0 1 3.91-5.567c-.196-.902 3.133-1.062 2.795-.296z"/><path d="M36.212 7.317c2.805.373 4.988 2.712 5.12 5.585l.007.279H38.71c0-1.371-.839-2.545-2.032-3.038-.849-.622-1.524-.968-3.26-2.529-.196-.902 3.133-1.062 2.795-.296z"/><path d="M36.212 7.317c-.252.118-1.694.685-2.795.296-.196-.902-1.246-1.663-2.595-1.663-1.425 0-2.515.849-2.621 1.818l-.008.154h-2.629c0-2.599 2.402-4.601 5.258-4.601 1.554 0 2.974.593 3.945 1.551.97-.96 1.783 1.679 1.445 2.445z"/><path d="M38.71 3.321c2.765 0 5.103 1.875 5.251 4.351l.008.25h-2.629c0-1.031-1.129-1.972-2.629-1.972-1.198 0-2.16.601-2.498 1.367-.116.179-1.142.191-2.795.296-.196-.902.379-3.699 1.35-2.741.97-.96 2.389-1.551 3.943-1.551z"/><mask id="A" x="-17" y="-18" width="80" height="81" maskUnits="userSpaceOnUse"><path d="m63-17.5h-80v80h80z" fill="#f2ddbb"/></mask><g transform="matrix(1.3146 0 0 1.3146 -5.3294 -7.1961)" mask="url(#A)"><path d="M31.556 28c1.119.001 2.201.411 3.016 1.176.39.365.901.584 1.444.628l.206.008v2c-1.119 0-2.201-.411-3.017-1.176-.438-.411-1.03-.636-1.649-.636s-1.212.225-1.65.636c-.816.765-1.898 1.176-3.017 1.176-1.039 0-2.047-.354-2.838-1.017l-.179-.159c-.439-.411-1.03-.636-1.65-.636s-1.211.225-1.649.636c-.816.765-1.899 1.176-3.018 1.176s-2.201-.411-3.017-1.176C14.1 30.225 13.509 30 12.889 30s-1.211.225-1.65.636c-.758.71-1.745 1.116-2.778 1.17l-.239.006v-2c.551 0 1.079-.178 1.498-.506l.152-.13c.816-.765 1.898-1.175 3.017-1.176s2.201.411 3.017 1.176c.438.411 1.029.636 1.649.636s1.211-.224 1.65-.636c.816-.764 1.898-1.175 3.017-1.176s2.201.411 3.017 1.176c.439.411 1.03.636 1.65.636s1.211-.225 1.649-.636c.816-.765 1.898-1.175 3.018-1.176z"/><use href="#D"/><path d="M3.709 28c1.119.001 2.201.411 3.016 1.176.39.365.901.584 1.444.628l.206.008v2c-1.119 0-2.201-.411-3.017-1.176C4.92 30.225 4.328 30 3.709 30s-1.212.225-1.65.636c-.816.765-1.898 1.176-3.017 1.176-1.039 0-2.047-.354-2.838-1.017l-.179-.159c-.439-.411-1.03-.636-1.65-.636s-1.211.225-1.649.636c-.816.765-1.899 1.176-3.018 1.176s-2.201-.411-3.017-1.176c-.438-.411-1.029-.636-1.649-.636s-1.211.225-1.65.636c-.758.71-1.745 1.116-2.778 1.17l-.239.006v-2c.551 0 1.079-.178 1.498-.506l.152-.13c.816-.765 1.898-1.175 3.017-1.176s2.201.411 3.017 1.176c.438.411 1.029.636 1.649.636s1.211-.224 1.65-.636c.816-.764 1.898-1.175 3.017-1.176s2.201.411 3.017 1.176c.439.411 1.03.636 1.65.636s1.211-.225 1.649-.636c.816-.765 1.898-1.175 3.018-1.176z"/></g><mask id="B" x="-17" y="-18" width="80" height="81" maskUnits="userSpaceOnUse"><path d="m63-17.5h-80v80h80z" fill="#f2ddbb"/></mask><g transform="matrix(1.3146 0 0 1.3146 -5.3294 -7.1961)" mask="url(#B)"><path d="M31.556 33c1.119.001 2.201.411 3.016 1.176.39.365.901.584 1.444.628l.206.008v2c-1.119 0-2.201-.411-3.017-1.176-.438-.411-1.03-.636-1.649-.636s-1.212.225-1.65.636c-.816.765-1.898 1.176-3.017 1.176-1.039 0-2.047-.354-2.838-1.017l-.179-.159c-.439-.411-1.03-.636-1.65-.636s-1.211.225-1.649.636c-.816.765-1.899 1.176-3.018 1.176s-2.201-.411-3.017-1.176C14.1 35.225 13.509 35 12.889 35s-1.211.225-1.65.636c-.758.71-1.745 1.116-2.778 1.17l-.239.006v-2c.551 0 1.079-.178 1.498-.506l.152-.13c.816-.765 1.898-1.175 3.017-1.176s2.201.411 3.017 1.176c.438.411 1.029.636 1.649.636s1.211-.224 1.65-.636c.816-.764 1.898-1.175 3.017-1.176s2.201.411 3.017 1.176c.439.411 1.03.636 1.65.636s1.211-.225 1.649-.636c.816-.765 1.898-1.175 3.018-1.176z"/><path d="M59.209 33c1.119.001 2.201.411 3.016 1.176.39.365.901.584 1.444.628l.206.008v2c-1.119 0-2.201-.411-3.017-1.176-.438-.411-1.03-.636-1.649-.636s-1.212.225-1.65.636c-.816.765-1.898 1.176-3.017 1.176-1.039 0-2.047-.354-2.838-1.017l-.179-.159c-.439-.411-1.03-.636-1.65-.636s-1.211.225-1.649.636c-.816.765-1.899 1.176-3.018 1.176s-2.201-.411-3.017-1.176c-.438-.411-1.029-.636-1.649-.636s-1.211.225-1.65.636c-.758.71-1.745 1.116-2.778 1.17l-.239.006v-2c.551 0 1.079-.178 1.498-.506l.152-.13c.816-.765 1.898-1.175 3.017-1.176s2.201.411 3.017 1.176c.438.411 1.029.636 1.649.636s1.211-.224 1.65-.636c.816-.764 1.898-1.175 3.017-1.176s2.201.411 3.017 1.176c.439.411 1.03.636 1.65.636s1.211-.225 1.649-.636c.816-.765 1.898-1.175 3.018-1.176zm-55.5 0c1.119.001 2.201.411 3.016 1.176.39.365.901.584 1.444.628l.206.008v2c-1.119 0-2.201-.411-3.017-1.176C4.92 35.225 4.328 35 3.709 35s-1.212.225-1.65.636c-.816.765-1.898 1.176-3.017 1.176-1.039 0-2.047-.354-2.838-1.017l-.179-.159c-.439-.411-1.03-.636-1.65-.636s-1.211.225-1.649.636c-.816.765-1.899 1.176-3.018 1.176s-2.201-.411-3.017-1.176c-.438-.411-1.029-.636-1.649-.636s-1.211.225-1.65.636c-.758.71-1.745 1.116-2.778 1.17l-.239.006v-2c.551 0 1.079-.178 1.498-.506l.152-.13c.816-.765 1.898-1.175 3.017-1.176s2.201.411 3.017 1.176c.438.411 1.029.636 1.649.636s1.211-.224 1.65-.636c.816-.764 1.898-1.175 3.017-1.176s2.201.411 3.017 1.176c.439.411 1.03.636 1.65.636s1.211-.225 1.649-.636c.816-.765 1.898-1.175 3.018-1.176z"/></g></g><defs><clipPath id="C"><path fill="#fff" d="M0 0h45v45H0z"/></clipPath><path id="D" d="M59.209 28c1.119.001 2.201.411 3.016 1.176.39.365.901.584 1.444.628l.206.008v2c-1.119 0-2.201-.411-3.017-1.176-.438-.411-1.03-.636-1.649-.636s-1.212.225-1.65.636c-.816.765-1.898 1.176-3.017 1.176-1.039 0-2.047-.354-2.838-1.017l-.179-.159c-.439-.411-1.03-.636-1.65-.636s-1.211.225-1.649.636c-.816.765-1.899 1.176-3.018 1.176s-2.201-.411-3.017-1.176c-.438-.411-1.029-.636-1.649-.636s-1.211.225-1.65.636c-.758.71-1.745 1.116-2.778 1.17l-.239.006v-2c.551 0 1.079-.178 1.498-.506l.152-.13c.816-.765 1.898-1.175 3.017-1.176s2.201.411 3.017 1.176c.438.411 1.029.636 1.649.636s1.211-.224 1.65-.636c.816-.764 1.898-1.175 3.017-1.176s2.201.411 3.017 1.176c.439.411 1.03.636 1.65.636s1.211-.225 1.649-.636c.816-.765 1.898-1.175 3.018-1.176z"/></defs><path d="M8.863 15.565c.913-2.318 3.56-4.598 7.749-6.671l1.071-.53 1.097.543c4.188 2.074 6.928 4.476 7.743 6.787l.125.355H8.673z" fill="#0ac18e" stroke="#0ac18e" stroke-opacity=".992" stroke-width=".127"/><path d="M20.454 14.464c-.479-1.085-1.578-1.317-2.925-1.092l-.433-1.678-1.02.263.425 1.673-.817.203-.425-1.663-1.02.263.433 1.678-2.059.534.28 1.092.742-.193c.416-.109.612.099.703.295l1.189 4.597c.014.133-.01.36-.295.438.017.01-.742.191-.742.191l.111 1.274 2.062-.527.438 1.697 1.02-.263-.437-1.709.819-.203.435 1.699 1.02-.263-.437-1.694c1.571-.382 2.681-1.373 2.453-2.889-.145-.914-1.143-1.663-1.972-1.748.51-.452.769-1.112.452-1.975zm-.491 4c.203 1.501-1.883 1.685-2.572 1.866l-.599-2.245c.691-.181 2.828-.943 3.171.379zm-1.257-3.058c.215 1.334-1.569 1.489-2.144 1.636l-.546-2.038c.578-.143 2.253-.834 2.69.401z" fill="#fff"/></svg>