<?xml version="1.0" encoding="UTF-8"?>
<svg width="800px" height="800px" fill="none" version="1.1" viewBox="0 0 45 45" xmlns="http://www.w3.org/2000/svg">
<g clip-path="url(#c)" fill="#0ac18e">
<path d="m29.503 17.099c-0.16433-4.2988-3.8479-7.9903-10.798-11.193l-1.028-0.46407-1.028 0.46407c-7.1121 3.2773-10.804 7.0661-10.804 11.494v1.3146l2.6292-0.0013h18.405l2.6292 0.0013v-1.3146zm-20.851-1.0136 0.02629-0.09334 0.08151-0.25635c0.85582-2.482 3.6481-4.9088 8.5148-7.2199l0.40227-0.18799 0.40227 0.18799 0.49561 0.23926c4.7234 2.319 7.379 4.7523 8.1007 7.237l0.02498 0.09334z" stroke-width="1.3146"/>
<path d="m25.564 25.665h-15.783v-7.8851h15.783z" stroke="#0ac18e" stroke-linecap="round" stroke-linejoin="round" stroke-width="2"/>
<g stroke-width="1.3146">
<path d="m36.678 10.142c0.4943 1.8326 0.71778 3.8571 0.71778 6.3246 0 3.0841-0.78614 6.155-2.344 9.2023l-2.9973-0.0013c1.8142-3.0933 2.7121-6.1564 2.7121-9.201 0-2.5306-0.24978-4.4868-0.79797-6.2326 1.2081-2.3124 2.1126-2.3124 2.7094-0.09202z"/>
<path d="m36.212 7.3172c2.8054 0.37335-1.6959 4.663-2.2441 2.9171-1.0241 0.50613-1.7458 1.5302-1.8247 2.7305l-0.0066 0.2156h-2.6292c0-2.5635 1.6301-4.7445 3.9097-5.5674-0.19588-0.90183 3.1327-1.0622 2.7949-0.29579z"/>
<path d="m36.212 7.3172c2.8054 0.37335 4.9877 2.7121 5.1204 5.5845l0.0066 0.2787h-2.6292c0-1.3711-0.83873-2.5451-2.0324-3.0381-0.84927-0.62181-1.5237-0.96756-3.2603-2.5293-0.19588-0.90183 3.1327-1.0622 2.7949-0.29579z"/>
<path d="m36.212 7.3172c-0.25241 0.11832-1.6945 0.68492-2.7949 0.29579-0.19588-0.90183-1.2463-1.663-2.5951-1.663-1.425 0-2.5149 0.84924-2.6214 1.8181l-0.0079 0.15381h-2.6292c0-2.599 2.4018-4.6012 5.2585-4.6012 1.5539 0 2.9737 0.59289 3.9452 1.5513 0.97019-0.95967 1.7826 1.6788 1.4448 2.4452z"/>
<path d="m38.71 3.3208c2.7646 0 5.1033 1.8746 5.2506 4.3514l0.0079 0.24978h-2.6292c0-1.0307-1.1293-1.9719-2.6292-1.9719-1.1976 0-2.1599 0.60078-2.4978 1.3672-0.11569 0.17879-1.1424 0.19062-2.7949 0.29579-0.19588-0.90183 0.37861-3.6993 1.3501-2.741 0.97019-0.95967 2.3887-1.5513 3.9425-1.5513z"/>
</g>
<mask id="b" x="-17" y="-18" width="80" height="81" maskUnits="userSpaceOnUse">
<path d="m63-17.5h-80v80h80z" fill="#f2ddbb"/>
</mask>
<g transform="matrix(1.3146 0 0 1.3146 -5.3294 -7.1961)" mask="url(#b)">
<path d="m31.556 28c1.119 1e-3 2.201 0.411 3.016 1.176 0.39 0.365 0.901 0.584 1.444 0.628l0.206 8e-3v2c-1.119 0-2.201-0.411-3.017-1.176-0.438-0.411-1.03-0.636-1.649-0.636-0.62 0-1.212 0.225-1.65 0.636-0.816 0.765-1.898 1.176-3.017 1.176-1.039 0-2.047-0.354-2.838-1.017l-0.179-0.159c-0.439-0.411-1.03-0.636-1.65-0.636s-1.211 0.225-1.649 0.636c-0.816 0.765-1.899 1.176-3.018 1.176s-2.201-0.411-3.017-1.176c-0.438-0.411-1.029-0.636-1.649-0.636s-1.211 0.225-1.65 0.636c-0.758 0.71-1.745 1.116-2.778 1.17l-0.23901 6e-3v-2c0.551 0 1.079-0.178 1.498-0.506l0.15199-0.13c0.81602-0.765 1.898-1.175 3.017-1.176 1.119 1e-3 2.201 0.411 3.017 1.176 0.438 0.411 1.029 0.636 1.649 0.636s1.211-0.224 1.65-0.636c0.816-0.764 1.898-1.175 3.017-1.176 1.119 1e-3 2.201 0.411 3.017 1.176 0.439 0.411 1.03 0.636 1.65 0.636s1.211-0.225 1.649-0.636c0.816-0.765 1.898-1.175 3.018-1.176z"/>
<path d="m59.209 28c1.119 1e-3 2.201 0.411 3.016 1.176 0.39 0.365 0.901 0.584 1.444 0.628l0.206 8e-3v2c-1.119 0-2.201-0.411-3.017-1.176-0.438-0.411-1.03-0.636-1.649-0.636-0.62 0-1.212 0.225-1.65 0.636-0.816 0.765-1.898 1.176-3.017 1.176-1.039 0-2.047-0.354-2.838-1.017l-0.179-0.159c-0.439-0.411-1.03-0.636-1.65-0.636s-1.211 0.225-1.649 0.636c-0.816 0.765-1.899 1.176-3.018 1.176s-2.201-0.411-3.017-1.176c-0.438-0.411-1.029-0.636-1.649-0.636s-1.211 0.225-1.65 0.636c-0.758 0.71-1.745 1.116-2.778 1.17l-0.239 6e-3v-2c0.551 0 1.079-0.178 1.498-0.506l0.152-0.13c0.816-0.765 1.898-1.175 3.017-1.176 1.119 1e-3 2.201 0.411 3.017 1.176 0.438 0.411 1.029 0.636 1.649 0.636s1.211-0.224 1.65-0.636c0.816-0.764 1.898-1.175 3.017-1.176 1.119 1e-3 2.201 0.411 3.017 1.176 0.439 0.411 1.03 0.636 1.65 0.636s1.211-0.225 1.649-0.636c0.816-0.765 1.898-1.175 3.018-1.176z"/>
<path d="m3.709 28c1.119 1e-3 2.201 0.411 3.016 1.176 0.39 0.365 0.901 0.584 1.444 0.628l0.206 8e-3v2c-1.119 0-2.201-0.411-3.017-1.176-0.438-0.411-1.03-0.636-1.649-0.636-0.62 0-1.212 0.225-1.65 0.636-0.816 0.765-1.898 1.176-3.017 1.176-1.039 0-2.047-0.354-2.838-1.017l-0.179-0.159c-0.439-0.411-1.03-0.636-1.65-0.636s-1.211 0.225-1.649 0.636c-0.816 0.765-1.899 1.176-3.018 1.176s-2.201-0.411-3.017-1.176c-0.438-0.411-1.029-0.636-1.649-0.636s-1.211 0.225-1.65 0.636c-0.758 0.71-1.745 1.116-2.778 1.17l-0.239 6e-3v-2c0.551 0 1.079-0.178 1.498-0.506l0.152-0.13c0.816-0.765 1.898-1.175 3.017-1.176 1.119 1e-3 2.201 0.411 3.017 1.176 0.438 0.411 1.029 0.636 1.649 0.636s1.211-0.224 1.65-0.636c0.816-0.764 1.898-1.175 3.017-1.176 1.119 1e-3 2.201 0.411 3.017 1.176 0.439 0.411 1.03 0.636 1.65 0.636 0.62 0 1.211-0.225 1.649-0.636 0.816-0.765 1.898-1.175 3.018-1.176z"/>
</g>
<mask id="a" x="-17" y="-18" width="80" height="81" maskUnits="userSpaceOnUse">
<path d="m63-17.5h-80v80h80z" fill="#f2ddbb"/>
</mask>
<g transform="matrix(1.3146 0 0 1.3146 -5.3294 -7.1961)" mask="url(#a)">
<path d="m31.556 33c1.119 1e-3 2.201 0.411 3.016 1.176 0.39 0.365 0.901 0.584 1.444 0.628l0.206 8e-3v2c-1.119 0-2.201-0.411-3.017-1.176-0.438-0.411-1.03-0.636-1.649-0.636-0.62 0-1.212 0.225-1.65 0.636-0.816 0.765-1.898 1.176-3.017 1.176-1.039 0-2.047-0.354-2.838-1.017l-0.179-0.159c-0.439-0.411-1.03-0.636-1.65-0.636s-1.211 0.225-1.649 0.636c-0.816 0.765-1.899 1.176-3.018 1.176s-2.201-0.411-3.017-1.176c-0.438-0.411-1.029-0.636-1.649-0.636s-1.211 0.225-1.65 0.636c-0.758 0.71-1.745 1.116-2.778 1.17l-0.23901 6e-3v-2c0.551 0 1.079-0.178 1.498-0.506l0.15199-0.13c0.81602-0.765 1.898-1.175 3.017-1.176 1.119 1e-3 2.201 0.411 3.017 1.176 0.438 0.411 1.029 0.636 1.649 0.636s1.211-0.224 1.65-0.636c0.816-0.764 1.898-1.175 3.017-1.176 1.119 1e-3 2.201 0.411 3.017 1.176 0.439 0.411 1.03 0.636 1.65 0.636s1.211-0.225 1.649-0.636c0.816-0.765 1.898-1.175 3.018-1.176z"/>
<path d="m59.209 33c1.119 1e-3 2.201 0.411 3.016 1.176 0.39 0.365 0.901 0.584 1.444 0.628l0.206 8e-3v2c-1.119 0-2.201-0.411-3.017-1.176-0.438-0.411-1.03-0.636-1.649-0.636-0.62 0-1.212 0.225-1.65 0.636-0.816 0.765-1.898 1.176-3.017 1.176-1.039 0-2.047-0.354-2.838-1.017l-0.179-0.159c-0.439-0.411-1.03-0.636-1.65-0.636s-1.211 0.225-1.649 0.636c-0.816 0.765-1.899 1.176-3.018 1.176s-2.201-0.411-3.017-1.176c-0.438-0.411-1.029-0.636-1.649-0.636s-1.211 0.225-1.65 0.636c-0.758 0.71-1.745 1.116-2.778 1.17l-0.239 6e-3v-2c0.551 0 1.079-0.178 1.498-0.506l0.152-0.13c0.816-0.765 1.898-1.175 3.017-1.176 1.119 1e-3 2.201 0.411 3.017 1.176 0.438 0.411 1.029 0.636 1.649 0.636s1.211-0.224 1.65-0.636c0.816-0.764 1.898-1.175 3.017-1.176 1.119 1e-3 2.201 0.411 3.017 1.176 0.439 0.411 1.03 0.636 1.65 0.636s1.211-0.225 1.649-0.636c0.816-0.765 1.898-1.175 3.018-1.176z"/>
<path d="m3.709 33c1.119 1e-3 2.201 0.411 3.016 1.176 0.39 0.365 0.901 0.584 1.444 0.628l0.206 8e-3v2c-1.119 0-2.201-0.411-3.017-1.176-0.438-0.411-1.03-0.636-1.649-0.636-0.62 0-1.212 0.225-1.65 0.636-0.816 0.765-1.898 1.176-3.017 1.176-1.039 0-2.047-0.354-2.838-1.017l-0.179-0.159c-0.439-0.411-1.03-0.636-1.65-0.636s-1.211 0.225-1.649 0.636c-0.816 0.765-1.899 1.176-3.018 1.176s-2.201-0.411-3.017-1.176c-0.438-0.411-1.029-0.636-1.649-0.636s-1.211 0.225-1.65 0.636c-0.758 0.71-1.745 1.116-2.778 1.17l-0.239 6e-3v-2c0.551 0 1.079-0.178 1.498-0.506l0.152-0.13c0.816-0.765 1.898-1.175 3.017-1.176 1.119 1e-3 2.201 0.411 3.017 1.176 0.438 0.411 1.029 0.636 1.649 0.636s1.211-0.224 1.65-0.636c0.816-0.764 1.898-1.175 3.017-1.176 1.119 1e-3 2.201 0.411 3.017 1.176 0.439 0.411 1.03 0.636 1.65 0.636 0.62 0 1.211-0.225 1.649-0.636 0.816-0.765 1.898-1.175 3.018-1.176z"/>
</g>
</g>
<defs>
<clipPath id="c">
<rect width="45" height="45" fill="#fff"/>
</clipPath>
</defs>
<path transform="scale(.05625)" d="m157.57 276.71c16.23-41.216 63.297-81.735 137.76-118.59l19.034-9.4214 19.5 9.6594c74.445 36.877 123.16 79.573 137.65 120.65l2.2258 6.3085h-319.56z" fill="#0ac18e" stroke="#0ac18e" stroke-opacity=".99216" stroke-width="2.2621" style="font-variation-settings:'wght' 600"/>
<path class="st1" d="m20.454 14.464c-0.47859-1.0853-1.5784-1.3173-2.9247-1.0925l-0.43266-1.6775-1.02 0.26347 0.42542 1.6727c-0.2683 0.06768-0.54386 0.1257-0.81699 0.20304l-0.42542-1.663-1.02 0.26347 0.43267 1.6775c-0.21996 0.06285-2.0594 0.53419-2.0594 0.53419l0.28039 1.0925s0.74931-0.21029 0.74206-0.19337c0.41575-0.10876 0.61153 0.09911 0.70339 0.29489l1.1892 4.5974c0.01449 0.13294-0.0097 0.36015-0.29489 0.4375 0.01692 0.0097-0.74206 0.19095-0.74206 0.19095l0.11118 1.2738s1.8225-0.46651 2.0618-0.52693l0.4375 1.6968 1.02-0.26347-0.4375-1.7089c0.28039-0.06527 0.55352-0.13294 0.81941-0.20304l0.43508 1.6992 1.02-0.26347-0.4375-1.6944c1.5711-0.38191 2.6806-1.3729 2.4534-2.8885-0.14503-0.91368-1.1433-1.663-1.9724-1.7476 0.51002-0.452 0.76865-1.1119 0.452-1.9748zm-0.49068 4.0004c0.20304 1.501-1.8829 1.6847-2.5718 1.866l-0.59945-2.2455c0.6913-0.18128 2.828-0.94268 3.1713 0.37949zm-1.2569-3.0577c0.21512 1.3343-1.5687 1.489-2.144 1.6364l-0.54627-2.0376c0.5777-0.14261 2.2528-0.83391 2.6903 0.40124z" fill="#fff" stroke-width=".024171"/>
</svg>
