<?xml version="1.0" encoding="UTF-8"?><svg id="a" xmlns="http://www.w3.org/2000/svg" xmlns:xlink="http://www.w3.org/1999/xlink" viewBox="0 0 196 140"><defs><linearGradient id="b" x1="48.616" y1="157.534" x2="147.383" y2="-13.534" gradientTransform="translate(0 142) scale(1 -1)" gradientUnits="userSpaceOnUse"><stop offset="0" stop-color="#f8c32c"/><stop offset="1" stop-color="#f6921d"/></linearGradient></defs><path d="M190,10H6c-3.314,0-6,2.686-6,6v108c0,3.314,2.686,6,6,6h88.931c1.176.069,2.359.113,3.552.113s2.376-.045,3.552-.113h87.964c3.314,0,6-2.686,6-6V16c0-3.314-2.686-6-6-6h.001ZM144.012,70.113c0,25.145-20.384,45.529-45.529,45.529s-45.529-20.384-45.529-45.529c0-24.117,18.755-43.842,42.474-45.415h6.11c23.719,1.573,42.474,21.298,42.474,45.415ZM14.774,115.755V24.698h44.524c-12.74,11.002-20.814,27.261-20.814,45.415,0,18.279,8.184,34.637,21.076,45.642H14.774ZM180.941,115.755h-43.533c12.892-11.005,21.076-27.363,21.076-45.642,0-18.154-8.074-34.413-20.814-45.415h43.271v91.057Z" style="fill:url(#b);"/></svg>