<svg xmlns="http://www.w3.org/2000/svg" viewBox="0 0 600 600" xmlns:v="https://vecta.io/nano"><g opacity=".6" fill="#53d2ad"><path d="M600 200v200H400v200H200V400h200V200h200z"/><path d="M400 0v200H200v200H0V200h200V0h200z"/></g><g fill="#0ac08d"><path d="M579 0c.4.9 1.2.8 2 1 10.6 2.2 14.9 8.6 19 18v181H400V0h179z"/><path d="M200 200h200v200H200V200z"/><path d="M200 400v200H19c-9.2-4-16-8.5-18-19s0-1.6-1-2V400h200z"/></g><path d="M600 400v178c-3 11.9-10.2 19-22 22H400V400h200zM200 0v200H0V22c1.6-1.6 1.3-4.1 2-6l3-5c1.8-2.5 3.5-4.2 6-6l5-3c1.9-.8 4.4-.3 6-2h178z" fill="#90e1cb" opacity=".3"/></svg>