<svg xmlns="http://www.w3.org/2000/svg" height="100%" viewBox="0 0 1900 1000" fill-rule="evenodd" clip-rule="evenodd" stroke-linejoin="round" stroke-miterlimit="4" fill="none"><g transform="scale(1.9 1)"><path fill="none" d="M0 0h1000v1000H0z"/><clipPath id="prefix__a"><path d="M0 0h1000v1000H0z"/></clipPath><g clip-path="url(#prefix__a)"><path d="M1000.002 0h-868.42C58.96 0 .002 112.03.002 250v750h868.424c72.618 0 131.576-112.02 131.576-250V0z"/><g><path fill="#777" d="M202.302 362.634h-92.516c-17.02 0-30.839 26.255-30.839 58.592V881.25h92.517c17.02 0 30.838-26.255 30.838-58.591V362.634z"/><path fill="#777" d="M134.457 242.945h12.336v132.73h-12.336zM337.993 246.27h-92.516c-17.02 0-30.839 26.255-30.839 58.595v457.003h92.516c17.02 0 30.84-26.256 30.84-58.596V246.27z"/><path fill="#777" d="M270.148 131.245h12.336v118.984h-12.336zM270.148 881.254h12.336V750.523h-12.336z"/><g><path fill="#777" d="M473.684 131.251h-92.516c-17.02 0-30.84 26.26-30.84 58.596v453.78h92.517c17.02 0 30.839-26.251 30.839-58.595v-453.78z"/><path fill="#777" d="M405.839 761.871h12.335v-126.75H405.84z"/></g><g><path fill="#777" d="M526.296 124.968h33.902c13.207 0 23.01 3.702 29.41 10.614 6.399 7.159 9.666 18.267 9.666 33.324 0 9.874-1.361 18.266-4.22 25.178-2.724 7.159-6.4 11.602-11.029 13.576v1.235c5.99 2.962 10.348 7.652 13.07 14.563 2.724 6.665 4.085 15.305 4.085 26.166 0 16.045-3.267 28.634-9.939 37.767-6.671 9.133-15.657 13.823-27.094 13.823h-37.85V124.968zm26.278 67.635h7.897c3.812 0 6.671-1.481 8.713-4.196 2.043-2.716 3.132-6.912 3.132-12.59 0-9.873-4.085-14.81-12.39-14.81h-7.352v31.596zm0 34.805v37.027h9.258c8.17 0 12.254-6.172 12.254-18.76 0-5.925-1.09-10.368-3.268-13.577-2.178-2.962-5.31-4.69-9.53-4.69h-8.714zM700.686 124.968V231.11c0 22.956-3.54 40.976-10.756 53.565-7.216 12.589-17.564 19.007-31.179 19.007-13.207 0-23.418-6.171-30.498-18.514-7.216-12.342-10.756-29.868-10.756-53.071v-107.13h26.414v103.427c0 12.59 1.361 21.476 3.812 27.153 2.587 5.678 6.399 8.393 11.437 8.393 5.31 0 9.258-2.715 11.709-8.393 2.314-5.43 3.54-14.564 3.54-27.4v-103.18h26.277zM755.804 190.381l16.747-65.413h28.456L769.01 232.345v68.87h-26.414v-67.39l-31.996-108.857h28.592l16.611 65.413z" fill-rule="nonzero"/><g><path fill="#777" d="M609.817 587.022h-26.413v-71.831h-30.498v71.831h-26.414V410.776h26.414v65.413h30.498v-65.413h26.413v176.246zM721.753 498.652c0 29.622-3.949 52.331-11.982 67.635-8.033 15.552-19.742 23.204-35.263 23.204-15.25 0-26.958-7.9-35.127-23.204-8.033-15.55-12.118-38.26-12.118-67.882 0-29.374 3.949-51.59 12.118-67.141 8.033-15.551 19.878-23.203 35.263-23.203 15.522 0 27.23 7.652 35.127 22.956 8.033 15.304 11.982 38.014 11.982 67.635zm-66.85 0c0 34.065 6.534 51.097 19.605 51.097 6.671 0 11.573-4.196 14.84-12.342 3.132-8.393 4.766-21.229 4.766-38.755 0-17.526-1.634-30.608-4.902-39.001-3.267-8.393-8.169-12.59-14.568-12.59-13.207 0-19.742 17.28-19.742 51.591zM821.807 495.196c0 29.375-4.493 52.084-13.343 67.882-8.986 16.045-21.512 23.944-37.715 23.944H739.3V410.776h33.629c15.657 0 27.639 7.158 36.216 21.722 8.442 14.564 12.663 35.299 12.663 62.698zm-27.23 1.728c0-16.291-1.77-28.14-5.31-36.039-3.54-7.652-8.85-11.601-16.067-11.601h-7.624v98.737h5.854c8.033 0 13.888-4.196 17.564-12.589s5.582-21.229 5.582-38.508zM839.221 587.022V410.776h26.277v137.739h37.442v38.507h-63.719z" fill-rule="nonzero"/></g><g><path fill="#777" d="M594.403 819.024c0 10.861-1.498 20.735-4.63 29.128-2.995 8.393-7.488 15.057-13.206 19.747-5.719 4.69-12.526 7.159-20.287 7.159-6.4 0-11.845-.988-16.202-2.469-4.493-1.727-8.986-4.69-13.752-8.64v-42.456c5.038 4.69 10.212 8.392 15.658 10.86 5.31 2.716 10.347 3.95 14.84 3.95 3.949 0 6.808-1.234 8.578-3.702 1.77-2.469 2.723-5.678 2.723-9.38 0-2.469-.408-4.69-1.09-6.418-.68-1.728-1.905-3.703-3.54-5.43-1.633-1.976-5.854-5.678-12.934-11.356-6.263-5.183-11.028-10.367-14.296-15.057-3.131-4.937-5.446-10.614-6.943-17.032-1.634-6.418-2.315-13.824-2.315-22.463 0-16.292 3.268-28.88 9.803-38.014 6.4-9.133 15.385-13.576 26.822-13.576 10.075 0 20.287 4.196 30.77 12.589l-8.032 36.78c-9.123-7.653-16.883-11.356-23.555-11.356-3.404 0-5.854 1.235-7.488 3.21-1.498 2.221-2.315 4.936-2.315 8.145 0 3.456.953 6.665 2.996 9.38 1.906 2.716 7.352 7.653 16.066 14.811 8.305 6.912 14.16 14.317 17.427 21.97 3.268 7.898 4.902 17.772 4.902 29.62zM667.128 872.59H609.4V696.342h57.728v38.26h-31.45v27.647h29.136v38.261h-29.137v33.324h31.451v38.754zM684.122 872.59V696.342h26.277v137.739h37.442v38.507h-63.72zM763.366 872.59V696.342h26.277v137.739h37.442v38.507h-63.719z" fill-rule="nonzero"/></g></g></g></g></g></svg>