<svg xmlns="http://www.w3.org/2000/svg" viewBox="0 0 78.4 78.4" fill="#24282a" xmlns:v="https://vecta.io/nano"><path d="M40 31.6c-1.5 0-2.8.4-4 1.3s-2.3 2-3.2 3.3v14.3c.8 1.2 1.7 2.1 2.9 2.7 1.1.7 2.4 1 3.7 1 2.4 0 4.3-1 5.6-2.9s1.9-4.7 1.9-8.5-.6-6.6-1.7-8.5c-1.2-1.7-2.9-2.7-5.2-2.7zM66.4 0H12A12.04 12.04 0 0 0 0 12v54.4a12.04 12.04 0 0 0 12 12h54.4a12.04 12.04 0 0 0 12-12V12a12.04 12.04 0 0 0-12-12zM20.9 50.8L7.8 42.6v-4.8L20.6 30l2.5 3.4-11.3 6.9 11.6 7.2-2.5 3.3zm28 3.1c-2 2.8-4.8 4.1-8.5 4.1s-6-1.2-7.9-3.6l-.3 3h-4.1V16.9l4.6-.5v16c2.2-2.9 5-4.4 8.3-4.4s6.4 1.3 8.2 4c1.8 2.6 2.6 6.3 2.6 11.1.1 4.4-.9 8-2.9 10.8zm21.6-11.3l-13.1 8.2-2.4-3.3 11.6-7.2-11.3-6.9 2.5-3.4 12.7 7.9v4.7z"/></svg>