<svg xmlns="http://www.w3.org/2000/svg" viewBox="0 0 229.5 357.94" xmlns:v="https://vecta.io/nano"><circle cx="114.75" cy="243.19" r="114.75" fill="#33b98c"/><path d="M152.99 205.37c-5.75-13.08-19.01-15.86-35.25-13.15l-5.21-20.21-12.3 3.19 5.14 20.14c-3.22.82-6.54 1.51-9.83 2.43l-5.14-20.04-12.3 3.19 5.21 20.21c-2.64.75-24.8 6.44-24.8 6.44l3.39 13.15s9.04-2.53 8.94-2.33c5-1.3 7.36 1.2 8.46 3.56l14.32 55.39c.17 1.61-.1 4.35-3.56 5.27.21.1-8.94 2.29-8.94 2.29l1.34 15.35 24.83-6.34 5.27 20.45 12.3-3.19-5.27-20.59 9.86-2.43 5.24 20.48 12.3-3.19-5.27-20.41c18.94-4.59 32.3-16.54 29.56-34.8-1.75-11-13.77-20.04-23.77-21.07 6.17-5.45 9.28-13.39 5.48-23.81h0v.02zm-5.93 48.19c2.43 18.09-22.68 20.31-31 22.47l-7.23-27.06c8.36-2.16 34.12-11.34 38.23 4.59zm-15.14-36.82c2.6 16.06-18.91 17.95-25.83 19.73l-6.58-24.56c6.95-1.75 27.13-10.07 32.4 4.83h.01z" fill="#fff"/><path d="M89.24 7.74l-16.44 8.9v3.03l12.42-6.7v.95l-12.36 6.66-.06-.11V23l13.02-6.91v.95l-12.96 6.88-.06-.11v2.54l13.54-7.06v.94l-13.48 7.03-.06-.1v2.52l14.08-7.21v.94L72.86 30.6l-.06-.1v19.2l.94-.43v.92l-.9.41-.04-.08v2.52l1.59-.72v.92l-1.56.7-.03-.07v2.51l2.08-.93v.92l-2.05.91-.03-.07v2.51l2.66-1.16v.91l-2.64 1.14-.03-.06v2.5l3.36-1.44v.91l-3.33 1.42-.03-.07v2.51l4.02-1.69v.9l-4 1.67-.02-.05v2.49l4.62-1.89v.9l-4.6 1.88-.02-.05v2.49l4.62-1.85v.9l-4.6 1.84-.02-.04v2.47l4.62-1.81v.9l-4.6 1.8-.02-.04v2.49l4.62-1.78v.9l-4.61 1.77v2.44l4.61-1.74v.89L72.8 83.9v2.44l4.61-1.69v.89l-4.61 1.7h0v2.45l4.62-1.66v.89l-4.61 1.65h0v2.44l3.92-1.37v.89l-3.92 1.37v2.45l3.18-1.09v.89l-3.18 1.08v2.46l2.24-.75v.88l-2.24.75v2.45l1.77-.57v.88l-1.77.58v12.46l.81-.24v.87l-.81.23v2.46l1.72-.48v.86l-1.72.49v2.46l2.35-.64v.87l-2.35.65v2.46l2.94-.78v.51c8.11-2.69 16.59-4.56 25.35-5.51V29.07h-3.22v-.83h3.22V25.6h-4.76v-.84h4.76v-2.63h-6.4v-.84h6.4v-2.64h-8.07v-.84h8.07v-2.63h-9.48v-.83h9.48v-2.63H89.99v-.84h11.11V8.29H89.65v-.84h11.45V4.93H89.25v2.8l-.01.01zM74.15 33.26v-.94l13.17-6.63v.94l-13.17 6.64v-.01zm.98 2.86v-.94l12.75-6.31v.93l-12.75 6.32zm.79 2.96v-.93L88.57 32v.93l-12.65 6.15zm1.07 2.85V41l12.18-5.83v.93l-12.18 5.83h0zm1.03 1.96l11.15-5.24v.93l-11.15 5.24v-.93zm1.12 2.86l10.03-4.63v.92l-10.03 4.62v-.92.01zm17.67 65.58h-7.18l-.46.14v-.85l.4-.12h7.24v.84-.01zm0-3.46h-7.19l-.44.13v-.87l.32-.1h7.31v.84zm0-3.47H89.6l-.43.13v-.87l.3-.1h7.33v.84h.01zm0-3.46h-7.22l-.42.13v-.88l.29-.09h7.34v.84h.01zm0-3.47h-7.23l-.41.13v-.88l.27-.09h7.36v.84h.01zm0-3.47h-7.24l-.4.14v-.89l.26-.08h7.38v.84V95zm0-3.47h-7.25l-.39.13v-.89l.25-.08h7.39v.84zm0-3.47h-7.26l-.37.13v-.88l.23-.08h7.41v.84l-.01-.01zm0-3.47h-7.27l-.36.13v-.89l.21-.08h7.42v.84zm0-3.47h-7.29l-.35.13v-.9l.19-.07h7.44v.84h.01zm0-3.47h-7.3l-.34.13v-.9l.18-.07h7.45v.84h.01zm0-3.47H89.5l-1.17.45v-.9l1.01-.39h7.46v.84h.01zm0-3.47h-7.32l-2.62 1.03v-.9l2.46-.97h7.48v.84zm0-3.47h-7.32l-3.29 1.32v-.91l3.13-1.25h7.48v.84zm-.26-4.3v.84h-7.06l-4.16 1.71v-.9l3.99-1.64h7.23v-.01zm-.56-2.64h-6.52l-4.78 2v-.91l4.61-1.93h6.69v.84zm-.84-4.31v.84h-5.69l-5.55 2.36v-.9l5.37-2.3h5.87zm-.78-2.63h-4.92l-6.69 2.91v-.91l6.52-2.84h5.1v.84h-.01zm-1.05-4.31v.84h-3.89l-7.8 3.46v-.92l7.63-3.38h4.07-.01zm-1.33-3.47v.83h-2.57l-8.72 3.94v-.92l8.54-3.86H92l-.01.01zm65.53 54.06s1.22 6.24-.16 9.59c0 0 .65-9.5-7.56-15.47l.74 3.55s-1.7-3.69-4.97-6.5a2.43 2.43 0 0 1-2.41 2.12 2.09 2.09 0 0 1-.67-.11c6.75 10.26 10.73 22.67 13.08 34.06l-.09-.03c1.75.62 3.49 1.27 5.2 1.97v-22.73c-.8-2.24-1.88-4.77-3.16-6.46v.01zm-7.44-17.14l3.38 1.3s-5.92-.85-10.76 1.71a3.26 3.26 0 0 1 .36.88c3.94-1.28 10.7-2.25 17.32 2.62l-7.09-1.14s3.8.63 7.37 3.2v-9.33c-2.91-.66-6.58-.79-10.59.76h.01zm10.59-8.56V71.7c-1.88.45-4.56 1.2-5.7 2.1 0 0 2.46-.53 5.7.14zm0 19.66a5.35 5.35 0 0 0-.91-.44 12.06 12.06 0 0 0 .91 1.1v-.66zm-1.46-14.4l1.47.65v-.67a14.31 14.31 0 0 0-1.47.01v.01zm-9.82 45.68c-2.37-12.68-6.58-23.03-9.47-29.11-.1.01-.2.03-.3.03-1.3 0-2.37-.94-2.59-2.17a3.95 3.95 0 0 1-2.39.9c-.79 4.64.69 9.07.69 9.07l-1.89-3.09c-1.89 9.97 5.08 16.45 5.08 16.45-3.29-1.5-6.68-6.88-6.68-6.88.5 4.59 4.39 11.46 4.39 11.46-10.77-4.49-10.47-14.65-10.47-14.65-1.1 2.09-1.1 8.08-1.1 8.08-3.89-8.37 2.19-16.35 2.19-16.35l-4.39 5.68c1.18-6.39 4.92-10.18 8.29-12.36-.16-.43-.26-.88-.26-1.36-3.94 1.92-6.55 5.18-6.55 5.18l1.57-3.27c-9.41 3.81-11.07 13.18-11.07 13.18-.52-3.58 2.16-9.34 2.16-9.34-3.58 2.9-7.26 9.9-7.26 9.9-2.06-11.48 6.65-16.74 6.65-16.74-2.35.21-7.38 3.45-7.38 3.45 4.93-7.8 14.93-7.01 14.93-7.01l-7.15-.61c7.28-3 13.39-.76 16.99 1.36.36-.11.73-.18 1.13-.18a3.91 3.91 0 0 1 .91.11c-3.65-3.57-9.41-4.01-9.41-4.01l3.13-.47c-7.38-4.91-14.96-1.5-14.96-1.5 2.32-2.14 7.8-3.04 7.8-3.04-3.86-1.16-10.72-.37-10.72-.37 7.27-7.14 15.35-3.44 15.35-3.44-1.31-1.59-6.12-3.63-6.12-3.63 7.17-.25 11.4 5.73 12.24 7.05v-.04L129.81 72c1.03.67 1.89 1.41 2.66 2.17a16.95 16.95 0 0 1 .47-3.68l1.48 6.05h0c-.09-.39-1.88-8.61 4.04-13.79 0 0-2.12 4.78-1.98 6.84 0 0 3.36-8.23 13.54-8 0 0-5.54 4.12-7.56 7.6 0 0 4.61-3.1 7.77-3.13 0 0-7.86 2.71-9.88 11.34l2.61-1.8s-3.42 3.74-4.03 8.39c.3-.09.61-.15.94-.15.15 0 .29.02.44.04 1.11-4.01 3.99-10.03 11.52-12.89l-4.79 5.34s5.74-6.31 13.64-5.48V47.01h2.11v-.87c0-.34-.79-.63-2.11-.87v-6.6h2.11v-.87c0-.34-.79-.63-2.11-.88v-3.34s-.28-.15-1.5-.35v-5.41c0-2.61-10.29-3.56-18.11-3.91V22.6s.06-.7-.53-.92c-.58.22-.52.92-.52.92v1.27c-3.3-.12-6.02-.14-7.13-.15V22.6s.06-.7-.52-.92c-.59.22-.53.92-.53.92v1.12c-1.1 0-3.82.02-7.11.15V22.6s.06-.7-.53-.92c-.59.22-.53.92-.53.92v1.31c-7.83.35-18.11 1.29-18.11 3.91v5.41c-1.23.2-1.5.35-1.5.35v3.34c-1.32.25-2.11.54-2.11.88v.87h2.11v6.6c-1.32.24-2.11.53-2.11.87v.87h2.11v73.24c3.45-.29 6.93-.45 10.45-.45 12.15 0 23.9 1.77 34.99 5.07l-.1-.03-.01.04zm72.63-42.69l.63-4.47h-16.83v-8.76l.53-1.71h-2.08s.72-.31.72-.7-.09-.87-1.26-.87h-.29v-.29s.78-.17.78-.62v-.23h-3.15v.23c0 .44.77.62.77.62v.29h-.3c-1.17 0-1.25.49-1.25.87s.71.7.71.7h-1.96v-10.4h-4.11v-2.24h-.91v-5.27h-.48v-4.33h-.27l-.03-4.41s-.02-.05-.06-.05c-.02 0-.05.03-.05.05l-.03 4.41h-.27v4.33h-.49v5.27h-.91v2.24h-4.11v10.4h-1.96s.72-.31.72-.7-.09-.87-1.26-.87h-.3v-.29s.77-.17.77-.62v-.23h-3.15v.23c0 .44.78.62.78.62v.29h-.3c-1.17 0-1.26.49-1.26.87s.72.7.72.7H180l.54 1.71v8.76H163.7l.63 4.47h3.96v4.04h-3.96v44.16a122.98 122.98 0 0 1 13.25 6.87h-.02c1.63-10.41 4.89-22.81 11.39-32.7a1.89 1.89 0 0 1-.53.08c-.98 0-1.78-.73-1.91-1.68-2.59 2.22-3.94 5.15-3.94 5.15l.58-2.81c-6.5 4.73-5.99 12.25-5.99 12.25-1.09-2.65-.12-7.59-.12-7.59-2.2 2.92-3.69 9-3.69 9-3.78-8.43 1.91-14.14 1.91-14.14-1.77.61-5.01 4.07-5.01 4.07 2.3-6.94 10.13-8.25 10.13-8.25l-5.61.9c5.24-3.86 10.6-3.09 13.72-2.07.06-.25.16-.48.29-.7-3.84-2.03-8.52-1.35-8.52-1.35l2.68-1.03c-7.49-2.9-13.54 1.6-13.54 1.6 1.64-2.35 6.32-4.22 6.32-4.22-3.64-.27-9.56 1.77-9.56 1.77 5.04-7.74 12.92-6.05 12.92-6.05-1.47-1.15-6.13-2.01-6.13-2.01 7.08-1.83 12.42 4.05 12.42 4.05l-3.8-4.23c5.96 2.27 8.24 7.04 9.12 10.21.11-.02.23-.03.35-.03.26 0 .51.05.74.12-.49-3.69-3.19-6.65-3.19-6.65l2.06 1.42c-1.59-6.84-7.82-8.98-7.82-8.98 2.5.02 6.15 2.48 6.15 2.48-1.6-2.76-5.99-6.02-5.99-6.02 8.07-.18 10.73 6.34 10.73 6.34.11-1.63-1.57-5.42-1.57-5.42 4.69 4.11 3.27 10.62 3.2 10.93h0l1.18-4.79c.25 1.02.35 1.99.37 2.91.61-.61 1.29-1.19 2.11-1.72l-2.3 4.08v.03c.66-1.05 4.01-5.79 9.69-5.59 0 0-3.81 1.61-4.85 2.87 0 0 6.4-2.93 12.16 2.73 0 0-5.43-.63-8.49.29 0 0 4.34.71 6.18 2.41 0 0-6.01-2.7-11.85 1.19l2.48.38s-4.56.35-7.45 3.17c.23-.05.47-.09.72-.09.31 0 .61.06.89.14 2.84-1.68 7.69-3.45 13.45-1.08l-5.67.48s7.92-.63 11.83 5.55c0 0-3.98-2.57-5.85-2.73 0 0 6.9 4.16 5.27 13.26 0 0-2.91-5.54-5.75-7.84 0 0 2.13 4.57 1.71 7.4 0 0-1.32-7.43-8.77-10.44l1.25 2.59s-2.07-2.59-5.19-4.11c0 .38-.08.74-.21 1.08 2.67 1.73 5.64 4.72 6.57 9.79l-3.47-4.5s4.82 6.32 1.74 12.95c0 0 0-4.74-.87-6.4 0 0 .24 8.05-8.29 11.61 0 0 3.08-5.45 3.47-9.08 0 0-2.68 4.26-5.29 5.45 0 0 5.53-5.13 4.03-13.03l-1.5 2.45s1.17-3.51.55-7.19c-.72-.02-1.37-.29-1.89-.71-.17.98-1.02 1.72-2.05 1.72-.08 0-.16-.01-.24-.02-3.02 6.37-7.87 18.63-8.77 33.28l-.19-.12a124.18 124.18 0 0 1 39.98 42.79v-96.6h-3.96v-4.04h3.96l-.02-.03zm-44.2 4.04h-7.31v-4.04h7.31v4.04zm2.73 0h-.54v-4.04h.54v4.04zm25.79 0h-.53v-4.04h.53v4.04zm9.5 0h-7.3v-4.04h7.3v4.04zM5.22 77.13c8.33-5.56 44.94-6.64 59.63-2.49h.14v.04c1.5.43 2.76.92 3.74 1.46h.84V64.76c-6.55-1.59-13.1-2.69-19.66-3.32V45.41c-6.61-8.19-13.58-12.23-20.95-15.98l-5.49-.12v32.22c-6.27.64-12.54 1.71-18.82 3.23v12.37h.58-.01zm66.4 19.52V90.9H69.3V77.48c-.88-.51-1.97-.98-3.24-1.4v53.99l5.56-2.23v-2.11H69.3v-2.96h2.32v-5.75H69.3v-2.96h2.32v-5.75H69.3v-2.96h2.32V99.6H69.3v-2.96h2.32v.01zm-14.2 37.54l7.74-3.74V75.78c-2.19-.65-4.82-1.18-7.74-1.6v60.01zm-13.07 7.97c3.9-2.72 7.96-5.22 12.17-7.48v-60.6c-3.72-.49-7.87-.8-12.17-.93v69.01zM30 73.3v80.49c4.21-3.98 8.7-7.67 13.44-11.04V73.09c-4.44-.11-9.02-.04-13.44.21zm-13.5 95.53a124.31 124.31 0 0 1 12.59-14.15v-81.3c-4.51.28-8.81.76-12.59 1.41v94.04zM4.87 90.9H2.55v5.75h2.32v2.96H2.55v5.75h2.32v2.96H2.55v5.75h2.32v2.96H2.55v5.75h2.32v2.96H2.55v5.75h2.32v2.95H2.55v5.75h2.32v2.95H2.55v5.75h2.32v2.95H2.55v5.75h2.32v2.95H2.55v5.75h2.32v2.95H2.55V175h2.32v2.95H2.55v5.76h2.32v3.56c3.11-6.04 6.7-11.8 10.72-17.21v-95.1c-4.73.88-8.53 2.06-10.72 3.54v12.4z" fill="#436c64"/></svg>