<svg xmlns="http://www.w3.org/2000/svg" viewBox="0 0 125.2 146.6" xmlns:v="https://vecta.io/nano"><path d="M122.6 90.9c-1.6-4.1-4-8.1-7.1-11.8-3.2-3.6-6.9-6.7-10.8-9.1-3.4-2.1-7.4-3.8-11.6-5.1-.1 0-.2-.1-.2-.2v-.2c-4-11.4-13.4-20.8-25.8-25.7 0 0-.1 0-.2-.1l-1.6-.6c-.2 0-.3-.1-.4-.1l-1.5-.4c-8.5-2.7-17.6-3.1-26.4-1.4h-.3s-.1-.2-.1-.3V0H0v77.1c0 4.5.8 9 2.5 13.8 1.6 4.1 4 8.1 7.1 11.8 3.2 3.6 6.8 6.7 10.8 9.1 3.5 2.1 7.4 3.8 11.6 5.1 0 0 .2.1.2.2h0v.1A41.55 41.55 0 0 0 38 128c3 3.9 6.4 7.2 10.4 9.9 4.2 2.8 8.7 5 13.5 6.5 5.2 1.5 10.4 2.3 15.6 2.3s12.6-1.1 18.3-3.3c5.6-2 10.6-5 15.1-8.9 4.3-3.8 7.8-8.2 10.2-13.4 2.5-5.3 3.8-10.8 3.8-16.5s-.9-9.2-2.6-13.7h0zm-92.2 18.7h-.2-.1c-2.3-.9-4.4-2-6.4-3.2-3.6-2.3-6.7-4.9-9.3-7.9a34.93 34.93 0 0 1-6.1-10C6.9 84.8 6.1 80.9 6.1 77V6.5c0-.2.2-.4.4-.4H30c.2 0 .4.2.4.4v31 .3 66.8c0 1.4.1 3 .3 4.7 0 .1 0 .3-.2.4h0zm36.3-63.7c0-.1 0-.3.2-.3h.4c7.9 3.8 14.3 9.7 17.9 16.9v.4c0 .1-.2.2-.4.2-2.5-.3-4.9-.5-7-.5-3.6 0-7.2.4-10.6 1h0-.2s-.1-.2-.1-.3V46.1h0zm-30.5-3.2c0-.2.1-.3.3-.4 3.4-.8 7-1.2 10.8-1.2s8.8.6 12.9 1.8c.2 0 .3.2.3.4v23c0 .2 0 .3-.2.4h-.1c-.1 0-.2 0-.3-.1-3.2-3.4-7.8-5.4-12.6-5.4s-7.4 1.2-10.4 3.4c-.1 0-.3.1-.4 0-.1 0-.2-.2-.2-.4V42.6h0zm21.9 34.4c0 5.5-4.9 10-10.8 10s-10.8-4.5-10.8-10 4.9-10 10.8-10 10.8 4.5 10.8 10zm-20.8 34.8c-.2 0-.3-.1-.3-.3-.5-2.4-.8-4.7-.8-7V89.9c0-.1 0-.3.2-.4s.3 0 .4 0c3 2.3 6.6 3.4 10.4 3.4C56.4 92.9 64 85.8 64 77s-.4-3.8-1.1-5.7V71c0-.1.1-.2.2-.2l1.2-.4c4.4-1.3 8.8-1.9 13.3-1.9s6.4.3 10 1c.1 0 .3.1.3.3.5 2.4.8 4.8.8 7 0 4.7-.9 9.2-2.9 13.5 0 .2-.3.3-.5.2-2.1-1-4.5-1.5-6.9-1.5-8.9 0-16.2 7-16.2 15.7s.3 3.3.8 5v.3s-.1.2-.2.2h-.5c-4.8 1.8-9.9 2.6-15.1 2.6s-6.5-.3-10-1h0zm51.6-7c0 5.5-4.7 10-10.4 10s-4.3-.6-6.1-1.9h0c-.1-.2-.3-.3-.4-.4-1.4-1.1-2.5-2.6-3.2-4.3h0c0-.3-.1-.4-.1-.5-.3-.9-.4-1.9-.4-2.9 0-5.5 4.7-10 10.4-10s2.8.3 4.1.8a.76.76 0 0 1 .4.2h.1a11.02 11.02 0 0 1 4 3.4c0 .1.2.2.2.4v.2c1.1 1.5 1.6 3.3 1.6 5.1h0zm26.9 13.6c-2 4.2-5 8.1-8.8 11.4-3.9 3.4-8.3 6.1-13.2 7.8-5.1 1.9-10.5 2.8-15.9 2.8s-9.4-.7-14.1-2.1c-4.3-1.3-8.3-3.2-11.8-5.7-3.7-2.5-6.6-5.3-9-8.6-1.2-1.5-2.2-3.2-3.2-5.2v-.4c0-.1.2-.2.4-.2 2.5.4 4.9.5 7.1.5 6.4 0 12.6-1.1 18.5-3.4l.5-.2h.4c3 3.1 7.3 4.9 11.7 4.9 8.9 0 16.2-7 16.2-15.7s-1.4-7.3-3.9-10.1c-.1-.1-.1-.3 0-.4h0c0-.2 0-.3.2-.5h0c2.5-5.4 3.8-10.9 3.8-16.6 0-1.5 0-3.1-.2-4.7 0-.1 0-.3.1-.4s.2-.1.4 0c2.4.9 4.4 2 6.4 3.1 3.6 2.3 6.7 4.9 9.3 7.9a34.93 34.93 0 0 1 6.1 10 32.5 32.5 0 0 1 2.1 11.5c0 3.9-1.1 9.5-3.2 13.8h0z" fill="#ff005c"/></svg>