<?xml version="1.0" encoding="UTF-8"?><svg id="a" xmlns="http://www.w3.org/2000/svg" xmlns:xlink="http://www.w3.org/1999/xlink" viewBox="0 0 725.372 725.792"><defs><linearGradient id="b" x1="-1629.226" y1="643.015" x2="-1520.21" y2="736.808" gradientTransform="translate(4811.269 -1906.046) scale(2.962 2.991)" gradientUnits="userSpaceOnUse"><stop offset="0" stop-color="#5a9fd4"/><stop offset="1" stop-color="#306998"/></linearGradient><linearGradient id="c" x1="-1430.802" y1="838.382" x2="-1469.731" y2="783.303" gradientTransform="translate(4811.269 -1906.046) scale(2.962 2.991)" gradientUnits="userSpaceOnUse"><stop offset="0" stop-color="#ffd43b"/><stop offset="1" stop-color="#ffe873"/></linearGradient></defs><path d="M289.166.005c-24.136.111-47.183,2.169-67.46,5.76-59.741,10.557-70.587,32.645-70.587,73.389v53.807h141.175v17.934H98.134c-41.028,0-76.959,24.663-88.195,71.577-12.963,53.775-13.537,87.331,0,143.481,10.036,41.796,34.004,71.577,75.031,71.577h48.541v-64.501c0-46.598,40.317-87.7,88.195-87.7h141.012c39.253,0,70.587-32.319,70.587-71.741V79.149c0-38.258-32.277-67.002-70.587-73.389C338.461,1.727,313.303-.111,289.166.005h0ZM212.819,43.276c14.585,0,26.49,12.105,26.49,26.985s-11.91,26.822-26.49,26.822-26.49-11.989-26.49-26.822,11.858-26.985,26.49-26.985h0Z" style="fill:url(#b);"/><path d="M590.981,284.914v62.689c0,48.605-41.207,89.511-88.195,89.511h-141.012c-38.627,0-70.587,33.056-70.587,71.741v134.43c0,38.263,33.267,60.768,70.587,71.741,44.687,13.142,87.542,15.517,141.012,0,35.541-10.289,70.587-31.002,70.587-71.741v-53.801h-141.012v-17.934h211.599c41.033,0,56.318-28.623,70.587-71.577,14.743-44.219,14.116-86.752,0-143.481-10.141-40.843-29.507-71.577-70.587-71.577h-52.98ZM511.669,625.351c14.632,0,26.49,11.989,26.49,26.822s-11.858,26.985-26.49,26.985-26.49-12.105-26.49-26.985,11.91-26.822,26.49-26.822Z" style="fill:url(#c);"/><circle cx="362.895" cy="363" r="244.099" style="fill:#0ac18e;"/><path d="M439.036,281.035c-12.267-27.817-40.456-33.765-74.964-28.003l-11.09-42.996-26.145,6.753,10.904,42.872c-6.877,1.735-13.94,3.222-20.94,5.204l-10.904-42.624-26.145,6.753,11.09,42.996c-5.638,1.611-52.785,13.692-52.785,13.692l7.187,28.003s19.206-5.39,19.02-4.956c10.656-2.788,15.674,2.54,18.029,7.558l30.481,117.836c.372,3.407-.248,9.231-7.558,11.214.434.248-19.02,4.894-19.02,4.894l2.85,32.65,52.847-13.506,11.214,43.492,26.145-6.753-11.214-43.801,21.002-5.204,11.152,43.554,26.145-6.753-11.214-43.43c40.27-9.789,68.707-35.19,62.883-74.035-3.717-23.419-29.304-42.624-50.554-44.793,13.072-11.585,19.701-28.499,11.585-50.616h0ZM426.46,383.569c5.204,38.473-48.262,43.182-65.919,47.828l-15.365-57.555c17.719-4.647,72.486-24.162,81.284,9.727h0ZM394.243,305.197c5.514,34.199-40.208,38.164-54.953,41.943l-14.002-52.227c14.807-3.655,57.741-21.374,68.955,10.284h0Z" style="fill:#fff;"/></svg>