<svg xmlns="http://www.w3.org/2000/svg" viewBox="0 0 598.49 531.33" xmlns:v="https://vecta.io/nano"><defs><linearGradient id="A" x1="299.24" y1="595.99" x2="299.24" y2="-111.37" gradientUnits="userSpaceOnUse"><stop offset="0" stop-color="#8f0cf4"/><stop offset="1" stop-color="#9e60f4"/></linearGradient><linearGradient id="B" x1="240" y1="568.4" x2="240" y2="402.7" href="#A"/><linearGradient id="C" x1="464.448" y1="567.309" x2="490.998" y2="403.75" href="#A"/><linearGradient id="D" x1="359.14" y1="454.1" x2="359.14" y2="-102.1" href="#A"/></defs><path d="m563.86,225.52c-16.2,0-29.94,11.32-33.7,27.07-15.76,65.98-87.98,115.98-174.44,115.98-97.94,0-177.63-64.17-177.63-143.05v-63.53c0-79.26-64.25-143.51-143.51-143.51h0C15.49,18.48,0,33.96,0,53.06s15.49,34.59,34.59,34.59h3.3c39.23,0,71.03,31.8,71.03,71.03v66.83c0,117.02,110.72,212.23,246.81,212.23,119.13,0,218.81-72.95,241.81-169.63,5.17-21.72-11.34-42.6-33.68-42.6Z" fill="url(#A)"/><path d="m240,433.11c-27.12,0-49.11,21.99-49.11,49.11s21.99,49.11,49.11,49.11,49.11-21.99,49.11-49.11-21.99-49.11-49.11-49.11Z" fill="url(#B)"/><circle cx="478.28" cy="482.22" r="49.11" transform="matrix(.98708 -.160226 .160226 .98708 -71.07 82.84)" fill="url(#C)"/><path d="M322.4 295.08a14.61 14.61 0 0 1 10.64 14.07v.08c0 11.29 9.15 20.44 20.44 20.44h15.54c11.29 0 20.44-9.15 20.44-20.44v-1.36a14.6 14.6 0 0 1 10.22-13.94c54.84-17.24 94.78-68.64 94.78-129.13S454.53 52.91 399.68 35.67a14.6 14.6 0 0 1-10.22-13.94v-1.29C389.46 9.15 380.31 0 369.02 0h-15.54c-11.29 0-20.44 9.15-20.44 20.44a14.61 14.61 0 0 1-10.64 14.07c-56.83 16.01-98.58 68.37-98.58 130.29s41.75 114.28 98.58 130.29zm36.7-196.47c35.25 0 64.12 27.65 66.07 62.42 2.05 36.51-27.39 68.74-63.93 69.91-37.41 1.19-68.24-28.92-68.24-66.15s29.67-66.18 66.1-66.18z" fill="url(#D)"/></svg>