<svg xmlns="http://www.w3.org/2000/svg" width="434.366" height="557.715" viewBox="0 0 114.926 147.562" xmlns:v="https://vecta.io/nano"><g fill="#007f33"><path d="M54.248 1.161v16.838l3.993 1.16c3.736 1.184 7.023 2.72 9.86 4.611s5.272 4.611 7.307 8.158 3.05 7.59 3.05 12.131c0 4.447-.709 8.395-2.128 11.846s-3.121 6.008-5.108 7.662-3.973 3.004-5.959 4.044-3.689 1.656-5.108 1.844l-2.128.426c.661.095 1.536.284 2.625.568s3.026 1.088 5.817 2.412 5.249 2.933 7.378 4.824 4.065 4.681 5.817 8.371 2.624 7.852 2.624 12.485c0 18.034-9.354 28.618-28.041 31.767v16.096c34.497-6.183 60.678-36.344 60.678-72.62S88.745 7.344 54.248 1.161M41.428 73.71h-6.101l.142 49.799h5.959c3.026 0 5.58-2.151 7.662-6.455s3.121-10.712 3.121-19.224-1.017-14.66-3.05-18.444-4.611-5.675-7.732-5.675"/><path d="M41.428 24.053h-6.101l.142 41.57h5.959c1.228 0 2.483-.66 3.76-1.986s2.434-3.665 3.476-7.023 1.561-7.448 1.561-12.272c0-6.998-.876-12.106-2.625-15.323s-3.809-4.87-6.172-4.966"/></g><path d="M41.428 123.51h-5.959l-.142-49.799h6.101c3.121 0 5.697 1.893 7.732 5.675s3.05 9.931 3.05 18.444-1.042 14.922-3.121 19.225-4.635 6.455-7.662 6.455m0-99.457c2.363.095 4.42 1.752 6.172 4.965s2.625 8.324 2.625 15.323c0 4.824-.521 8.916-1.561 12.272s-2.199 5.699-3.476 7.023-2.532 1.986-3.76 1.986h-5.959l-.142-41.57zm40.861 74.486c0-4.633-.876-8.797-2.625-12.485s-3.689-6.478-5.817-8.371-4.589-3.498-7.378-4.824-4.731-2.128-5.817-2.412-1.964-.472-2.625-.568l2.128-.426c1.419-.188 3.121-.802 5.108-1.844s3.973-2.388 5.959-4.044 3.689-4.208 5.108-7.662 2.128-7.4 2.128-11.846c0-4.541-1.017-8.584-3.05-12.131s-4.469-6.265-7.307-8.158-6.125-3.427-9.86-4.611c-1.401-.443-2.732-.829-3.993-1.16V0H47.3v16.668c-2.295-.273-4.492-.418-6.581-.418h-5.73V0h-6.948v16.25H0v7.803h8.087v99.457H.142v7.803h27.899v16.25h6.948v-16.25h6.156c2.139 0 4.184-.074 6.155-.207v16.457h6.948v-17.256c18.687-3.149 28.041-13.733 28.041-31.767" fill="#fab915"/></svg>