<svg xmlns="http://www.w3.org/2000/svg" width="1200" height="1200" xmlns:v="https://vecta.io/nano"><defs><linearGradient x1="50%" y1="0%" x2="50%" y2="100%" id="A"><stop stop-color="#091c57" offset="0%"/><stop stop-color="#142f94" offset="100%"/></linearGradient><ellipse id="B" cx="600" cy="599.933" rx="600" ry="599.933"/></defs><g transform="translate(0 2.613)" fill-rule="evenodd"><mask id="C" fill="#fff"><use href="#B"/></mask><use fill="url(#A)" href="#B"/><path d="M556.179 841.695c21.242 0 40.946-4.533 59.133-15.865 18.211-9.821 34.883-23.418 48.524-40.793 13.641-16.62 24.274-36.26 31.852-57.41 7.578-21.908 11.367-43.816 11.367-67.232 0-28.706-4.547-50.614-14.398-67.234-9.875-16.62-29.578-23.416-55.344-23.416-8.336 0-16.696.753-30.336 3.776s-25.008 9.821-36.375 18.885l-58.375 246.266c18.188 3.023 37.133 3.023 43.953 3.023zM673.77 457.001c28.766 0 53.726 5.294 74.928 15.878 21.179 9.831 37.819 23.442 52.19 41.59 13.638 17.395 23.471 37.811 30.279 61.25S841 624.118 841 651.34c0 41.59-7.564 80.157-23.448 117.21-15.908 36.297-36.33 69.568-62.803 96.035-26.497 27.221-57.508 49.152-93.838 64.274-36.306 15.881-74.905 23.442-116.529 23.442-5.295 0-15.128 0-28.742-.756-13.638 0-29.522-1.512-46.163-3.779-17.397-3.026-36.33-6.049-55.239-10.587-19.666-4.538-37.842-11.343-55.239-19.66L514.884 264.93 654.104 243l-55.239 231.391c12.102-5.291 23.471-9.829 35.573-12.099 12.858-3.779 25.717-5.291 39.332-5.291h0z" fill="#fffffe" mask="url(#C)"/></g></svg>