<svg xmlns="http://www.w3.org/2000/svg" viewBox="0 0 2946 2946" xmlns:v="https://vecta.io/nano"><g fill="#777"><path d="M0 412.5V825h825V0H0v412.5zm707 0V707H118V118h589v294.5zm-471 0V589h353V236H236v176.5zM1060 59v59H943v118h117v117H943v118h235l-.2 163.1-.3 163.1-17.6 8.2c-66.8 31.3-131.1 74.6-187.1 126L960.2 943H707v118h118v60.9l-7.4 14.3-13.7 28-6.3 13.8H707v118h25.6c22 0 25.5.2 25.1 1.4-1.5 3.8-8.1 35.9-11.2 53.9-3.3 19.5-7.5 52.8-7.5 59.4v3.3h-32v118l-117.7-.2-117.8-.3v-117l58.8-.3 58.7-.2v-118H471v-235h118V943H0v118h236v117H0v118h118v118H0v589h118v-471h118v236l58.8-.2 58.7-.3.3-58.8.2-58.7h117v118h326.5l4.4 10.3c2.5 5.6 8.7 18.5 13.8 28.6l9.3 18.4v59.7H707v118l117.8.2 117.7.3.3 117.7.2 117.8h118v-152.9l16.3 10.3c63.3 40.3 133.3 71.1 204.5 90.1l14.2 3.8V2357h-118v118h-117v-118H943v589h236v-471h235v353h236v-118h118v-117h235v-118h118v118h118v-118h118v235l-235.7.2-235.8.3-.3 58.7-.2 58.8-58.8.2-58.7.3-.3 58.8-.2 58.7h119v-118h706v118h354v-118h-118l.2-58.8.3-58.7 58.8-.3 58.7-.2v-235h-236v117l-58.7.2-58.8.3-.3 58.7-.2 58.8h-117v-235l58.8-.2 58.7-.3.3-117.8.2-117.7h353v-589h-354l.2 58.7.3 58.8 58.7.3 58.8.2.2 58.8.3 58.7 58.8.3 58.7.2v235h-236v118h-117v-236h118l-.2-58.8-.3-58.7-235.7-.3-235.8-.2v-59.3l9.8-19.6c5.4-10.8 11.7-23.8 13.9-28.9l4.2-9.2h90.1v-118h118v118h118v-236h118v-118h-386v-3.8c0-13.7-7.9-66.3-14.5-95.7l-3.5-17.2c0-1 5.3-1.3 25-1.3h25v-117h118v117h118v-235l58.8-.2 58.7-.3.3-58.8.2-58.7h-118v117h-118V943h-118v235h-90.9l-2.3-5.3c-1.2-2.8-7.3-15.5-13.5-28l-11.3-22.8V943l-58.7-.2-58.8-.3-.3-117.8-.2-117.7h-117V589h117V353l-117.7.2-117.8.3-.3 117.7-.2 117.8h-235V471h118l-.2-58.8-.3-58.7-58.7-.3-58.8-.2v118h-118V236h354V0h-118v118h-354v118h-117V0h-119v59zm236 353.5V471h-117V354h117v58.5zM1414 530v59h118v118h118v25.1c0 23.4-.1 25-1.7 24.5-4.8-1.5-29.7-6.8-44.8-9.5-20.5-3.7-40.6-6.6-58.3-8.2l-13.2-1.3V707h-118v31h-3.7c-14.8 0-69.5 8.5-100.5 15.6-5.9 1.3-11.4 2.4-12.2 2.4-1.5 0-1.6-13.5-1.6-141.8l.7-142.5c.3-.4 26.9-.7 59-.7h58.3v59zm471 254.1c0 61.3-.3 76.9-1.2 76.3-.7-.4-4.4-2.8-8.3-5.4-26.3-17.5-70.3-41.5-100.2-54.8l-7.3-3.2v-90h117v77.1zm118 167.4c0 4.7-.1 8.5-.3 8.5s-4-3.8-8.7-8.5l-8.5-8.5h17.5v8.5zm-518.7 51.1c27.7 6.9 38.7 10 38.7 11s-6.1 25.8-13.5 55.7l-15.9 63.9-2.3 9.7 11.6 2.6 32 7.6 20.6 4.7c.1-.2 7.3-28.9 16-63.8l16.6-64.4c.7-.8 78.6 17.9 80.1 19.3.3.3-6.7 30.3-15.7 66.6l-16.2 66.2c.2.1 6.1 2.4 13.2 5.1 51 19.2 85.2 39 110.1 63.7 30.2 30 43.9 67.8 39.5 109-7 64.6-38.5 107.6-91.1 124l-10.4 3.4c-1.6.6-.7 1.4 5 4.6 45.6 25.3 72.4 60 78.5 101.4 1.9 13.4.6 41.8-2.6 57-6.1 29.2-19.7 62.4-34.6 84.6-9.2 13.9-26.6 31.5-39.7 40.4-41.1 27.8-95.2 35.7-174.7 25.6l-32.3-4.8c-7.3-1.3-13.4-2.1-13.6-1.8s-7.7 30.4-16.7 66.8c-11.3 45.9-16.7 66.3-17.6 66.3s-76.1-18.5-78.9-19.5c-.8-.2 4.2-22 15.2-66.1l15.7-66.4c-.4-.4-8.2-2.6-17.3-4.8l-31.2-8.1-14.8-3.9-1 3.8c-.6 2.1-8 31.8-16.4 66l-15.9 62.7c-.7.6-78.7-18.6-80-19.7-.4-.4 6.7-30.7 15.9-67.4l16.2-67.2c-.3-.2-36.8-9.6-81.2-20.7l-80.6-21.2c.1-2.4 39.7-92 40.7-91.8s13.6 3.4 28.9 7.4c31.6 8.1 40.5 9.3 48 6.4 5.7-2.1 11.6-7.4 14.9-12.9 1.7-2.8 10.6-36.8 29.1-110.6l27.4-110.5c.5-2.2 9-36.6 19-76.5 17.3-68.8 18.2-72.9 17.7-80-.6-10.3-3.7-17.8-10.2-24.8-9.4-10.1-16.6-13-59-23.2l-26.4-6.6c-.6-.5 21.1-86.4 21.8-86.4s30.1 7.4 66.1 16.5l96.4 23.3c.1-.1 7.6-30.1 16.6-66.5 13.5-54.2 16.7-66.2 18-65.8l40.3 10.1zM353 1237.5v58.5H236v-117h117v58.5zm0 235.5v59H236v-118h117v59zm385.4 61.2c.3 1.3.8 5.9 1.1 10.3 1.7 21.5 8.1 61.9 14 88.6l3.5 16.2c0 .3-11.2.7-25 .7h-25v-118h15.5c15.2 0 15.5 0 15.9 2.2zM951.5 1995l8 8H943v-8c0-4.4.1-8 .3-8s3.8 3.6 8.2 8zm1405.3 185.3l.2 176.7-176.7-.2-176.8-.3-.3-175.5.3-176.8c.3-1 36.2-1.2 176.7-1l176.3.3.3 176.8zM1885 2280.5V2475h-117v-118h-118v-118h118v-88.9l6.3-2.8c29.3-13 68.9-34.6 99.7-54.5l10.8-6.8c.2 0 .2 87.5.2 194.5zm-353 17.5v59h-118v-118h118v59zm118 294.5V2710h-118v-235h118v117.5zm1178 59v58.5h-118v118h-117v-118h117v-117h118v58.5zM1449.7 1317.7l-19.9 80.7c-.4 2.2-1.9 1.7 26.8 9.1 51.2 13.1 88.6 17.3 116.4 13 35.9-5.4 57.6-23.6 65-54.5 2.5-10.5 2.7-26.5.4-35.4-8.7-34.4-47-60.8-114-78.7-8.4-2.2-53.9-12.9-55-12.9s-9 35.4-19.7 78.7zm-41.3 165.7c-.8 2.4-43.4 174.8-43.4 175.9s9.2 3.6 24.3 7.5c61.9 16 93.6 20.8 130.2 19.9 22.2-.6 34-2.5 47.4-7.7 31-12 48.1-37.4 48.3-71.5.2-21.3-7.8-38.3-26.1-55.8-21.8-20.8-59.1-38.5-111.1-52.8-25.9-7-69.1-16.7-69.6-15.5zM2121 2180v59h118v-118h-118v59z"/><path d="M1885 59v59h118V0h-118v59zm236 353.5V825h825V0h-825v412.5zm707 0V707h-589V118h589v294.5zm-471 0V589h353V236h-353v176.5zM943 707v118h118V589H943v118zm1767.2 294.7l.3 58.8 58.7.3 58.8.2.2 58.8.3 58.7 58.8.3 58.7.2v-119h-118V943h-118l.2 58.7z"/><use href="#B"/><path d="M2710,1473v59h236v-118h-236v59Z"/><use href="#B" x="-2239" y="707"/><path d="M0 2533.5V2946h825v-825H0v412.5zm707 0V2828H118v-589h589v294.5zm-471 0V2710h353v-353H236v176.5z"/></g><defs ><path id="B" d="M2592.7 1178.7c-.4.3-.7 26.9-.7 59v58.3h118v-118h-58.3l-59 .7z"/></defs></svg>