<svg xmlns="http://www.w3.org/2000/svg" viewBox="0 0 150 150" xmlns:v="https://vecta.io/nano"><path d="M117.66 140.19v-13.3H35.89v13.3" fill="#159e49"/><path d="M113.46 66.58a24.45 24.45 0 0 0-11.38-8.8 21.11 21.11 0 0 0 9.2-7.81 21.91 21.91 0 0 0 3.51-12.31 22.87 22.87 0 0 0-2.39-9.8 21.23 21.23 0 0 0-6-7.81 27.54 27.54 0 0 0-9.2-5.43 38.37 38.37 0 0 0-11.74-1.52H35.89v12.44a13.77 13.77 0 0 1 13.63 13.9h0A13.7 13.7 0 0 1 36 53.28h-.06V64.6a13.76 13.76 0 0 1 13.58 13.9h0v2.32a13.77 13.77 0 0 1-13.63 13.7v12.77h51.76a33.76 33.76 0 0 0 12.11-2 26.48 26.48 0 0 0 9.53-5.3 23.26 23.26 0 0 0 6-8.41A24.19 24.19 0 0 0 117.63 81a24.14 24.14 0 0 0-4.17-14.42zm-51.1-40h19.86a14.18 14.18 0 0 1 10.13 3.7 12 12 0 0 1 4.43 9.6 11.93 11.93 0 0 1-3.9 9.34 14.73 14.73 0 0 1-10.13 3.57H62.36zm33.1 62.68a15.17 15.17 0 0 1-11.12 3.91h-22V64.8h22.2a16.75 16.75 0 0 1 10.92 3.9 13.59 13.59 0 0 1 4.1 10.2 12.24 12.24 0 0 1-4.1 10.32z" fill="#333433"/></svg>