<svg xmlns="http://www.w3.org/2000/svg" viewBox="0 0 89.5 105.5" fill-rule="evenodd" xmlns:v="https://vecta.io/nano"><path d="M0 64c0-22.8 18.6-41.3 41.5-41.3s41.3 18.6 41.3 41.5-18.6 41.3-41.5 41.3h-.4C18.2 105.3 0 86.7 0 64zm72.7.4c.1-17.3-13.8-31.4-31.1-31.6S10.2 46.6 10 63.9c-.1 17.3 13.8 31.4 31.1 31.6 17.3 0 31.4-13.8 31.6-31.1h0z" fill="#555"/><path d="M78.1 37c-7.2-9.8-18-16.3-30.1-17.9L59.4 0l30.1 17.8L78.1 37z" fill="#49bb7f"/><path d="M50.9 63.9c2.3-1.2 3.8-3.6 3.7-6.2 0-2.1-1-4.1-2.7-5.3-1.8-1.3-4.5-2-7.9-2H30.3v28.1h14.5c3.7 0 6.4-.7 8.4-2 1.9-1.3 3-3.4 2.9-5.7 0-1.6-.4-3.1-1.4-4.4-1-1.2-2.3-2.1-3.8-2.5h0zm-7.7-8.6c1.3 0 2.5.2 3.6.8.8.5 1.3 1.5 1.2 2.5 0 1-.4 1.9-1.2 2.5-1.1.6-2.4.9-3.6.8h-6.5v-6.6h6.5zm1.2 18.3h-7.6v-6.9h7.6c3.4 0 5.2 1.2 5.2 3.5 0 1-.4 2-1.3 2.6-1.2.6-2.5.9-3.9.8h0z" fill="#555"/></svg>