<svg xmlns="http://www.w3.org/2000/svg" fill="none" height="96" width="96" xmlns:v="https://vecta.io/nano"><path d="M8.214 34.888l-4.38 4.38a12.48 12.48 0 0 0-2.836 4.109 12.48 12.48 0 0 0 0 9.783 12.48 12.48 0 0 0 2.836 4.109L39.12 92.902a10.74 10.74 0 0 0 2.88 2.1V51.808z" fill="#3d89f5"/><path d="M87.786 34.888l4.38 4.38a12.48 12.48 0 0 1 3.834 9 12.48 12.48 0 0 1-3.834 9L56.88 92.902a10.74 10.74 0 0 1-2.88 2.1V51.808z" fill="#1656b9"/><path d="M79.314 25.948l-22.08-22.14a12.54 12.54 0 0 0-9-3.808 12.54 12.54 0 0 0-9 3.808l-22.14 22.14 31.02 15.48z" fill="#85b5f8"/></svg>