<svg xmlns="http://www.w3.org/2000/svg" viewBox="0 0 22.1 40" xmlns:v="https://vecta.io/nano"><path d="M21.3 20l-10.1 6.3V39l10.1-6.3V20z" fill="#fff200"/><path d="M11.1,13.7L1,20V7.3L11.1,1v12.7Z" fill="#21dff3"/><path d="M21.3 20l-10.1 6.3L1 20l10.1-6.3L21.2 20z" fill="#ff0078"/><path d="M1 20l10.1-6.3m0 12.7l10.1-6.3" fill="none" stroke="#0c0d13" stroke-miterlimit="10" stroke-width=".6"/><path d="M1,32.7l10.1-6.3v12.7L1,32.7Z" fill="#a42eff"/><g fill="none" stroke="#0c0d13" stroke-linejoin="round" stroke-width="1.8"><path d="M19.9 19.2l-8.2-5.1c-.4-.3-.7-.7-.7-1.2V1L1 7.3v11.1c0 1 .5 1.9 1.3 2.4l8.2 5.1c.4.3.7.7.7 1.2V39l10.1-6.3V21.6c0-1-.5-1.9-1.3-2.4z"/><path d="M11.1,39L1,32.7l9.5-6" stroke-linecap="round"/></g></svg>