<svg xmlns="http://www.w3.org/2000/svg" height="800" width="800" viewBox="0 0 512.004 512.004" xmlns:v="https://vecta.io/nano"><path d="M229.96 78.102a8.68 8.68 0 0 1-8.643-8.01c-.043-.521-4.487-52.736-34.738-52.736a8.68 8.68 0 0 1-8.678-8.678c0-4.79 3.888-8.678 8.678-8.678 46.288 0 51.833 65.961 52.042 68.773a8.67 8.67 0 0 1-7.984 9.303 9.03 9.03 0 0 1-.677.026m52.085.004c-.217 0-.443-.009-.668-.026-4.773-.356-8.357-4.53-7.992-9.311.208-2.803 5.753-68.764 52.042-68.764 4.79 0 8.678 3.888 8.678 8.678s-3.888 8.678-8.678 8.678c-30.382 0-34.695 52.198-34.738 52.727-.339 4.556-4.149 8.018-8.644 8.018" fill="#95a5a5"/><path d="M256.002 86.784c12.019 0 23.474 2.317 34.07 6.37.391-2.065.642-4.191.642-6.37 0-19.17-15.542-34.712-34.712-34.712S221.29 67.614 221.29 86.784c0 2.178.252 4.304.642 6.37 10.596-4.053 22.051-6.37 34.07-6.37" fill="#4c8056"/><g fill="#95a5a5"><path d="M160.54 182.246c-1.137 0-2.3-.226-3.419-.712L96.375 155.5c-3.185-1.362-5.259-4.504-5.259-7.966V52.076H39.049c-4.79 0-8.678-3.888-8.678-8.678a8.68 8.68 0 0 1 8.678-8.678h60.746a8.67 8.67 0 0 1 8.678 8.678v98.408l55.496 23.786c4.4 1.883 6.439 6.986 4.547 11.394-1.407 3.281-4.609 5.26-7.976 5.26m190.924 0c-3.367 0-6.569-1.979-7.975-5.259-1.892-4.408.147-9.511 4.547-11.394l55.496-23.786V43.399a8.67 8.67 0 0 1 8.678-8.678h60.746a8.68 8.68 0 0 1 8.678 8.678c0 4.79-3.888 8.678-8.678 8.678h-52.068v95.458c0 3.463-2.074 6.604-5.259 7.966l-60.746 26.034c-1.119.485-2.282.711-3.419.711M91.121 251.665a8.67 8.67 0 0 1-4.304-1.145l-60.746-34.712c-4.165-2.378-5.606-7.68-3.228-11.837a8.69 8.69 0 0 1 11.837-3.228l57.925 33.098 40.205-8.036c4.712-.946 9.277 2.109 10.205 6.804.946 4.695-2.1 9.268-6.804 10.205l-43.39 8.678a8.1 8.1 0 0 1-1.7.173m-.009 260.339c-1.458 0-2.942-.364-4.296-1.145-4.165-2.378-5.606-7.68-3.228-11.837l32.508-56.893-41.55-91.414c-1.623-3.558-.66-7.758 2.343-10.257l52.068-43.39c3.679-3.072 9.147-2.577 12.219 1.111 3.072 3.679 2.569 9.155-1.111 12.219l-46.983 39.155 40.648 89.435c1.154 2.543 1.024 5.476-.364 7.897l-34.712 60.746c-1.597 2.803-4.531 4.373-7.542 4.373m329.78 0c-3.011 0-5.944-1.571-7.541-4.374l-34.712-60.746a8.66 8.66 0 0 1-.364-7.897l40.648-89.435-46.982-39.155c-3.679-3.063-4.183-8.539-1.111-12.219 3.063-3.679 8.539-4.174 12.219-1.111l52.068 43.39c3.003 2.499 3.966 6.699 2.343 10.257l-41.55 91.414 32.508 56.893c2.378 4.157.937 9.459-3.228 11.837a8.58 8.58 0 0 1-4.298 1.146"/><path d="M420.884 251.665c-.564 0-1.137-.052-1.701-.174l-43.39-8.678c-4.703-.937-7.749-5.511-6.804-10.205a8.66 8.66 0 0 1 10.205-6.804l40.205 8.036 57.925-33.098c4.157-2.369 9.468-.929 11.837 3.228 2.378 4.157.937 9.459-3.228 11.837l-60.746 34.712c-1.318.756-2.802 1.146-4.303 1.146"/></g><path d="M256.002 485.97h0c-67.098 0-121.492-54.393-121.492-121.492V208.276h242.983v156.203c.001 67.098-54.393 121.491-121.491 121.491" fill="#4c8056"/><g fill="#396640"><path d="M351.46 208.276H160.545v-26.034c0-52.719 42.739-95.458 95.458-95.458s95.458 42.739 95.458 95.458v26.034z"/><path d="M342.782 449.428V208.276h-17.356v255.826c6.239-4.356 12.054-9.259 17.356-14.674m-52.068 31.445V208.272h-17.356v276.315c5.927-.842 11.741-2.039 17.356-3.714m-52.068 3.716V208.274H221.29v272.601c5.615 1.675 11.429 2.863 17.356 3.714m-52.068-20.487V208.276h-17.356v241.152c5.303 5.415 11.117 10.326 17.356 14.674"/></g></svg>