<?xml version="1.0" encoding="UTF-8"?><svg id="a" xmlns="http://www.w3.org/2000/svg" xmlns:xlink="http://www.w3.org/1999/xlink" viewBox="0 0 393.138 533.675"><defs><linearGradient id="b" x1="1512.409" y1="1282.257" x2="-81.098" y2="-361.002" gradientTransform="translate(191.14 417.055) scale(.129 -.129)" gradientUnits="userSpaceOnUse"><stop offset="0" stop-color="#ff7d38"/><stop offset=".613" stop-color="#fe6412"/><stop offset="1" stop-color="#eb4600"/></linearGradient><linearGradient id="c" x1="1222.488" y1="1653.305" x2="-53.679" y2="310.976" gradientTransform="translate(191.141 417.266) scale(.129 -.129)" gradientUnits="userSpaceOnUse"><stop offset="0" stop-color="#61c5ff"/><stop offset="1" stop-color="#2a92fa"/></linearGradient><linearGradient id="d" x1="1492.082" y1="2771.857" x2="-35.444" y2="1120.057" gradientTransform="translate(191.139 417.44) scale(.129 -.129)" gradientUnits="userSpaceOnUse"><stop offset="0" stop-color="#ffc414"/><stop offset="1" stop-color="#ff9447"/></linearGradient><linearGradient id="e" x1="1987.114" y1="5557.454" x2="-1638.521" y2="-500.044" gradientTransform="translate(191.342 417.234) scale(.129 -.129)" gradientUnits="userSpaceOnUse"><stop offset=".105" stop-color="#776a83"/><stop offset=".569" stop-color="#312938"/><stop offset=".96" stop-color="#19151d"/></linearGradient></defs><path d="M353.886,233.397c-5.579,5.563-10.225,11.284-13.364,19.669-3.139,8.383-4.692,17.514-6.929,31.952-3.202,20.556-9.448,28.64-14.395,33.743-10.1,10.412-24.448,9.826-41.935,6.37-10.987-2.171-13.841.443-26.904,11.729l-68.872,68.182-.031,103.51c0,1.854,2.251,2.79,3.568,1.474l203.407-203.009c2.744-2.743,4.298-6.451,4.298-10.335l.252-102.591-39.097,39.29v.016Z" vector-effect="non-scaling-stroke" style="fill:url(#b);"/><path d="M271.844,301.109c13.254.38,22.496,9.969,33.404,3.09,10.908-6.878,10.607-14.533,12.715-27.182,2.125-12.663,6.325-27.387,10.068-36.262,3.757-8.891,12.144-20.255,20.673-28.544l43.964-45.724.287-46.073c0-2.821-3.393-4.247-5.392-2.25l-199.937,199.872c-3.932,3.93-6.136,9.255-6.136,14.804v45.359l67.54-67.771s9.544-9.682,22.797-9.302l.016-.016Z" vector-effect="non-scaling-stroke" style="fill:url(#c);"/><path d="M392.982,85.066l-211.527,212.013v-45.265c0-5.547,2.204-10.873,6.136-14.804L387.575,37.091c1.98-1.981,5.39-.587,5.39,2.235v45.74h.016Z" vector-effect="non-scaling-stroke" style="fill:url(#d);"/><path d="M379.543,1.627L21.444,79.62c-12.826,2.79-21.974,14.138-21.974,27.261v261.399c0,3.882,1.538,7.606,4.296,10.365l150.678,150.63c3.076,3.074,8.339.903,8.339-3.456V245.67c.016-9.239,3.694-18.114,10.226-24.645L384.044,9.853c3.442-3.439.27-9.256-4.485-8.226h-.016Z" vector-effect="non-scaling-stroke" style="fill:url(#e);"/></svg>