<svg xmlns="http://www.w3.org/2000/svg" viewBox="0 0 694.9 694.8" xmlns:v="https://vecta.io/nano"><path d="M693.9 399.7c-1.8 8.5-2.4 9.2-28.1 35.7-31.8 32.9-204.4 205.4-233.4 233.4l-22.5 21.7-5.8 1.9a47.62 47.62 0 0 1-31.4-.5c-3.9-1.4-6-3.2-23.4-20-27-26-299.6-298.6-314.9-314.9-22.5-24-29.8-33.2-31.9-40.3C.6 310.5 0 277.5 0 156.6V43.3l2.2-5.5c3.7-9.3 7.1-15 12.2-20.4 6-6.4 10.9-9.8 20.7-14L42.7.1h111.1c114.1 0 150.6.6 161 2.4 10.1 1.8 13.1 3.7 27.4 17.5C370.5 47.2 530.3 205.9 590 266.1l101.2 104.7c3.6 7.7 4.7 19.8 2.7 29.1h0zm-30.8-15.2c-1.1-1.6-6.1-7.3-11.1-12.7-12.6-13.7-316.9-317.9-328.3-328.2q-13.2-11.9-26.2-12.5c-15.1-.7-184.1-.7-220.2 0-17.1.4-31.2 1-32.7 1.4-3.1.9-7.5 4.6-10.1 8.4-1.8 2.6-2 3.7-2.7 12.3-.8 11.3-1.1 230.7-.3 245.8.7 12.4-.2 10.9 16.7 29.1 15 16.1 249.2 250.9 293.9 294.7 32.8 32.1 40.8 39.5 44.9 41.5 2.1 1 2.5 1 4.6 0 1.3-.6 5.2-3.6 8.7-6.6 7.2-6.3 229-227.4 246.8-246.1 13.8-14.5 18.1-19.8 18.1-22.3 0-1-.9-3.1-2.1-4.7h0zm-185.6-5.1c-2.4 16.6-6.7 27.6-17.3 43.5l-5.1 7.7 10.2 10.2 10.2 10.2-6.5 6.5-6.5 6.5-6.9-6.7-10.6-10.2-3.6-3.4-3.3 2.5c-8 6.1-23.8 13.9-33.7 16.7-17.2 4.8-35.6 2.8-52.9-5.6-7.7-3.7-23-14-23-15.4 0-1 8.1-9.8 14.9-16.3l4.6-4.4 6.4 4.3c13.1 8.8 19.9 10.9 33.7 10.4 10.5-.4 15.5-1.8 25.5-7 3.7-1.9 7.2-3.8 7.8-4.2.8-.6-5.5-7.3-31.6-33.3l-33.3-32.6c-.4 0-7.3 3.3-15.2 7.3-21.8 11-34 14.5-47.2 13.7-12.4-.8-22.5-5.8-34.5-17.4-8.9-8.5-12.7-13.6-17-22.5-5.4-11.3-6-14-5.9-30.8 0-13.4.1-14.9 1.6-19.1 2.7-7.5 7.5-17.2 12.2-24.4 2.4-3.7 4.3-7.2 4.1-7.8-.1-.6-3.5-4.5-7.4-8.7l-7.2-7.7 6.2-6.7 6.2-6.7 8.4 8.4 8.4 8.4 6.7-4.1c14.7-9 21.4-11.2 36.6-12.1 15.9-1 30 2.8 49 13l5.9 3.2-9.5 9.5c-5.2 5.2-10 9.8-10.7 10.2-.9.5-3.1-.1-8.6-2.5-9.3-4-14.8-5.3-22.7-5.3-9.1 0-18.8 3-24.4 7.6l-1.6 1.3 30.2 29.9c16.6 16.5 30.5 29.9 31 29.9s5.5-2.5 11.2-5.6c21.8-11.9 33.8-15.6 49.7-15.6s31.3 5.8 43.5 18.1c8.9 9 17.2 22.9 19.9 33.4 2 7.8 2.9 18.2 2.1 23.8h0zM448.2 368c-1.3-6.8-4.6-12.4-11.7-19.6-5.3-5.3-7.5-7-12.1-9.2l-5.7-2.7h-9.2c-8.1 0-9.9.3-14.6 1.9-4.2 1.5-20.8 9.1-21.7 10-.1.1 13.8 14.2 30.9 31.2l31.1 31 3.9-5.2c4.7-6.2 7.3-11.3 8.7-16.7 1.2-4.9 1.4-15.5.4-20.8h0zm-140.3-57.9c-13.6-13.6-26.2-25.8-28-27.1-4.8-3.3-6.7-2.9-9.2 1.7-3.7 6.9-5.7 14.3-6.1 22.9-.4 9.5.2 11.8 6 20.5 8.7 13.2 21.6 20.5 33.5 19 8.3-1 28.4-9 28.4-11.2s-11.1-12.2-24.6-25.8zM195.3 146.9c-3.3 18.5-16 34.9-33.3 43.2-14.7 7.1-32.4 7.7-47.6 1.6-14.5-5.8-25.6-16.2-32.5-30.3-4.1-8.5-5.3-13.8-5.3-23.9 0-10.6.9-16.8 3.5-22.8 7.8-18.5 22.4-31.9 39.7-36.3 22.4-5.8 45.2.7 60.3 17.2 12.8 14 18.5 33.2 15.2 51.4h0zm-32-22.8c-3.9-8.3-10.4-14-19.4-17-9.4-3.2-20.1-.2-28.4 8.1-5.1 5.1-7.4 9.3-8.9 16.8-1.2 5.9-1.2 6.1.3 11.1 6.9 22.7 33 30.4 49.3 14.6 9.4-9.1 12.3-22.6 7.1-33.5z" fill="#0ac18e"/></svg>