<?xml version="1.0" encoding="UTF-8"?><svg id="a" xmlns="http://www.w3.org/2000/svg" xmlns:xlink="http://www.w3.org/1999/xlink" viewBox="0 0 179.622 179.622"><defs><linearGradient id="b" x1="80.26" y1="99.45" x2="142.813" y2="35.065" gradientUnits="userSpaceOnUse"><stop offset=".002" stop-color="#01946b"/><stop offset="1" stop-color="#09bd8b"/></linearGradient></defs><path d="M179.622,89.811c0-10.13-8.212-18.343-18.343-18.343s-18.343,8.212-18.343,18.343c0,2.102.371,4.112,1.022,5.993l-.019-.007s.054.123.13.309c.117.321.228.644.363.956,1.03,2.874,3.092,10.163.074,16.091-1.979,3.886-5.24,6.538-7.864,8.257-1.471.964-2.777,1.689-3.649,2.147-2.036.891-3.95,2.153-5.616,3.82-1.511,1.511-2.684,3.228-3.558,5.052l-.029-.06s-3.809,10.051-11.871,12.673c-4.147,1.349-8.329.918-11.4.278-1.317-.275-2.462-.579-3.356-.839-2.252-.987-4.735-1.543-7.351-1.543s-5.097.556-7.348,1.542c-.895.261-2.042.565-3.361.841-3.071.64-7.252,1.071-11.4-.278-8.062-2.622-11.871-12.673-11.871-12.673l-.028.058c-.873-1.823-2.046-3.539-3.557-5.05-1.671-1.671-3.59-2.936-5.632-3.827-.873-.459-2.172-1.182-3.635-2.14-2.624-1.719-5.886-4.371-7.864-8.257-3.012-5.917-.963-13.191.069-16.075.143-.331.262-.673.385-1.013.066-.158.113-.267.113-.267l-.017.006c.65-1.88,1.021-3.891,1.021-5.992,0-1.922-.298-3.773-.846-5.514h.003s-.811-2.212-1.446-5.263c-.64-3.071-1.071-7.252.278-11.4,2.076-6.382,8.79-10.089,11.506-11.361.115-.047.225-.108.339-.158.512-.231.828-.353.828-.353l-.033-.016c1.779-.868,3.453-2.024,4.932-3.502,1.42-1.42,2.546-3.018,3.403-4.718l.005.013s.046-.114.129-.302c.101-.209.2-.419.293-.631.395-.823,1.071-2.121,2.072-3.649,1.719-2.624,4.371-5.886,8.257-7.864,5.98-3.044,13.348-.919,16.168.102.272.117.554.212.832.316.219.089.355.149.355.149l-.007-.022c1.899.665,3.932,1.046,6.058,1.046,10.13,0,18.343-8.212,18.343-18.343S99.942,0,89.811,0c-6.486,0-12.172,3.375-15.434,8.456l-.005-.016s-.759.857-2.164,4.117c-1.764,4.092-1.943,7.845-8.936,11.318-6.99,3.472-16.837-1.491-16.837-1.491l.005.014c-6.679-2.832-14.69-1.537-20.135,3.907-5.447,5.447-6.741,13.465-3.903,20.145.128.349.273.73.438,1.145,1.647,4.141,4.173,6.921,1.685,14.322-2.488,7.398-12.96,10.851-12.96,10.851l.011.005c-6.778,2.695-11.577,9.3-11.577,17.038,0,7.161,4.113,13.348,10.097,16.368.608.319,1.402.706,2.479,1.17,4.092,1.764,7.845,1.943,11.318,8.936,3.472,6.99-1.491,16.837-1.491,16.837l.026-.009c-2.871,6.692-1.588,14.741,3.875,20.204,4.594,4.594,11.015,6.225,16.921,4.927l-.005.011s1.143-.069,4.441-1.381c4.141-1.647,6.921-4.173,14.322-1.685,5.795,1.949,9.159,8.779,10.349,11.655,2.357,7.408,9.288,12.778,17.478,12.778s15.147-5.388,17.492-12.816c1.204-2.898,4.564-9.676,10.333-11.616,7.4-2.489,10.181.038,14.322,1.685,3.298,1.311,4.441,1.381,4.441,1.381l-.006-.011c5.907,1.299,12.329-.333,16.923-4.927,5.464-5.464,6.746-13.512,3.876-20.204l.024.009s-4.963-9.847-1.491-16.837c3.473-6.992,7.226-7.172,11.318-8.936,1.063-.458,1.849-.84,2.455-1.157,5.998-3.016,10.123-9.21,10.123-16.381Z" style="fill:#3563b1;"/><path d="M153.317,26.305c-7.163-7.163-18.777-7.163-25.94,0-2.367,2.367-3.935,5.223-4.737,8.241l-.013-.013s-.744,1.354-.744,6.015c0,5.755-.381,12.439-5.624,17.325-7.787,7.257-16.2,3.328-20.91,2.501-.723-.127-1.428-.206-2.105-.262-.124-.013-.248-.023-.373-.034-.292-.02-.566-.032-.84-.042-.646-.042-1.289-.098-1.945-.098-16.245,0-29.414,13.169-29.414,29.414s13.169,29.414,29.414,29.414c14.805,0,27.021-10.95,29.075-25.186l.065.071s.261-1.341.256-3.949c.001-.118.018-.232.018-.35,0-.316-.037-.623-.047-.936-.014-.418-.039-.867-.067-1.334-.022-.285-.026-.574-.055-.856-.064-.818-.147-1.683-.267-2.632-.808-6.382-1.396-13.566,4.772-20.34,2.936-3.224,7.543-5.764,12.353-5.587,2.099.077,3.774.017,5.141-.094.943-.05,1.883-.164,2.811-.359,1.016-.196,1.52-.377,1.52-.377l-.002-.002c2.803-.845,5.446-2.371,7.661-4.587,7.163-7.163,7.163-18.777,0-25.94Z" style="fill:url(#b);"/><path id="c" d="M99.26,79.474c-1.478-3.352-4.875-4.069-9.033-3.374l-1.336-5.181-3.15.814,1.314,5.166c-.829.209-1.68.388-2.523.627l-1.314-5.136-3.15.814,1.336,5.181c-.679.194-6.361,1.65-6.361,1.65l.866,3.374s2.314-.649,2.292-.597c1.284-.336,1.889.306,2.172.911l3.673,14.199c.045.411-.03,1.112-.911,1.351.052.03-2.292.59-2.292.59l.343,3.934s5.629-1.441,6.368-1.627l1.351,5.241,3.15-.814-1.351-5.278c.866-.202,1.71-.411,2.531-.627l1.344,5.248,3.15-.814-1.351-5.233c4.853-1.18,8.279-4.24,7.577-8.921-.448-2.822-3.531-5.136-6.092-5.397,1.575-1.396,2.374-3.434,1.396-6.099h0ZM97.745,91.829c.627,4.636-5.816,5.203-7.943,5.763l-1.851-6.935c2.135-.56,8.735-2.912,9.795,1.172ZM93.863,82.386c.664,4.121-4.845,4.599-6.622,5.054l-1.687-6.293c1.784-.44,6.958-2.576,8.309,1.239Z" style="fill:#fff;"/><path d="M121.317,83.306c.024.187.022.347.041.53.315,1.795.51,3.631.51,5.515,0,17.553-14.23,31.783-31.782,31.783s-31.783-14.23-31.783-31.783,14.23-31.782,31.783-31.782c3.363,0,6.6.531,9.642,1.499,2.891.7,6.138,1.287,9.454.35-5.519-3.528-12.059-5.6-19.095-5.6-19.625,0-35.533,15.909-35.533,35.533s15.909,35.533,35.533,35.533,35.533-15.909,35.533-35.533c0-6.111-1.545-11.859-4.262-16.881-.812,3.455-.521,7.036-.04,10.836Z" style="fill:#0ac18e;"/></svg>