<svg xmlns="http://www.w3.org/2000/svg" viewBox="0 0 649.96 157" xmlns:v="https://vecta.io/nano"><defs><linearGradient id="A" x1="26.49" y1="78.48" x2="130.43" y2="78.48" href="#V"><stop offset="0" stop-color="#0ed47f"/><stop offset="1" stop-color="#0ac18e"/></linearGradient><linearGradient id="B" x1="127.655" y1="154.36" x2="127.655" y2="3.91" href="#V"><stop offset="0" stop-color="#0ac18e"/><stop offset="1" stop-color="#0ed47f"/></linearGradient><linearGradient id="C" x1="0" y1="78.5" x2="126.22" y2="78.5" href="#V"><stop offset="0" stop-color="#0ed47f"/><stop offset="1" stop-color="#0ac18e"/></linearGradient><linearGradient id="D" x1="204.24" y1="144.06" x2="204.24" y2="117.93" href="#V"><stop offset="0" stop-color="#0ac18e"/><stop offset="1" stop-color="#0ed47f"/></linearGradient><linearGradient id="E" x1="248.24" y1="144.05" x2="248.24" y2="117.92" href="#V"><stop offset="0" stop-color="#0ac18e"/><stop offset="1" stop-color="#0ed47f"/></linearGradient><linearGradient id="F" x1="269.49" y1="144.05" x2="269.49" y2="117.26" href="#V"><stop offset="0" stop-color="#0ac18e"/><stop offset="1" stop-color="#0ed47f"/></linearGradient><linearGradient id="G" x1="285.13" y1="144.39" x2="285.13" y2="119.89" href="#V"><stop offset="0" stop-color="#0ac18e"/><stop offset="1" stop-color="#0ed47f"/></linearGradient><linearGradient id="H" x1="306.78" y1="144.42" x2="306.78" y2="124.28" href="#V"><stop offset="0" stop-color="#0ac18e"/><stop offset="1" stop-color="#0ed47f"/></linearGradient><linearGradient id="I" x1="332.025" y1="144.4" x2="332.025" y2="124.27" href="#V"><stop offset="0" stop-color="#0ac18e"/><stop offset="1" stop-color="#0ed47f"/></linearGradient><linearGradient id="J" x1="372.73" y1="144.04" x2="372.73" y2="124.27" href="#V"><stop offset="0" stop-color="#0ac18e"/><stop offset="1" stop-color="#0ed47f"/></linearGradient><linearGradient id="K" x1="414.98" y1="144.4" x2="414.98" y2="117.55" href="#V"><stop offset="0" stop-color="#0ac18e"/><stop offset="1" stop-color="#0ed47f"/></linearGradient><linearGradient id="L" x1="442.09" y1="144.41" x2="442.09" y2="124.28" href="#V"><stop offset="0" stop-color="#0ac18e"/><stop offset="1" stop-color="#0ed47f"/></linearGradient><linearGradient id="M" x1="466.74" y1="144.4" x2="466.74" y2="124.26" href="#V"><stop offset="0" stop-color="#0ac18e"/><stop offset="1" stop-color="#0ed47f"/></linearGradient><linearGradient id="N" x1="491.895" y1="144.06" x2="491.895" y2="116.49" href="#V"><stop offset="0" stop-color="#0ac18e"/><stop offset="1" stop-color="#0ed47f"/></linearGradient><linearGradient id="O" x1="538.205" y1="144.05" x2="538.205" y2="117.92" href="#V"><stop offset="0" stop-color="#0ac18e"/><stop offset="1" stop-color="#0ed47f"/></linearGradient><linearGradient id="P" x1="569.04" y1="144.41" x2="569.04" y2="124.28" href="#V"><stop offset="0" stop-color="#0ac18e"/><stop offset="1" stop-color="#0ed47f"/></linearGradient><linearGradient id="Q" x1="588.98" y1="144.05" x2="588.98" y2="116.48" href="#V"><stop offset="0" stop-color="#0ac18e"/><stop offset="1" stop-color="#0ed47f"/></linearGradient><linearGradient id="R" x1="603.63" y1="144.05" x2="603.63" y2="116.48" href="#V"><stop offset="0" stop-color="#0ac18e"/><stop offset="1" stop-color="#0ed47f"/></linearGradient><linearGradient id="S" x1="623.665" y1="144.41" x2="623.665" y2="124.28" href="#V"><stop offset="0" stop-color="#0ac18e"/><stop offset="1" stop-color="#0ed47f"/></linearGradient><path id="T" d="M267 119.59c0-.67.21-1.23.64-1.67s1.04-.66 1.84-.66 1.41.22 1.85.66c.43.44.65 1 .65 1.67s-.22 1.21-.65 1.64c-.43.44-1.05.65-1.85.65s-1.41-.22-1.84-.65c-.43-.44-.64-.98-.64-1.64zm4.67 24.46h-4.4v-19.42h4.4v19.42z"/><path id="U" d="M287.16,119.91v4.72h3.46v3.23h-3.46v10.84c0,.74.15,1.28.44,1.6.3.33.82.49,1.58.49.51,0,1.02-.06,1.54-.18v3.37c-1,.27-1.97.41-2.89.41-3.38,0-5.07-1.85-5.07-5.55v-11h-3.22v-3.23h3.22v-4.72h4.4v.02Z"/><linearGradient id="V" gradientUnits="userSpaceOnUse"/></defs><circle cx="78.46" cy="78.48" r="51.97" fill="url(#A)"/><path d="M99.26 58.37c-2.63-7.82-10.17-8.9-19.07-7.63l-2.58-11.1-6.76 1.57 2.52 10.81c-1.78.41-3.58.87-5.38 1.33l-2.53-10.88-6.75 1.57 2.58 11.1L57 56.2v-.03l-9.33 2.17 1.68 7.22s4.97-1.26 4.91-1.15c2.74-.64 4 .74 4.58 2.06l2.94 12.65a6.93 6.93 0 0 1 .73-.12c-.23.05-.47.11-.71.17l4.12 17.72c.08.89-.11 2.38-2.02 2.83.1.06-4.91 1.14-4.91 1.14l.54 8.39 8.79-2.05 4.84-1.09 2.62 11.23 6.75-1.57-2.59-11.11 5.41-1.2 2.57 11.06 6.76-1.57-2.61-11.21c11.21-3.3 18.49-8.01 17-18.91-1.2-8.77-6.14-11.67-12.95-11.72 3.45-2.91 5.08-6.99 3.14-12.72v-.02zM95.4 84.58c1.96 8.39-12.63 10.78-17.21 11.85l-3.46-14.88c4.58-1.07 18.63-5.73 20.67 3.02v.01zm-8.03-20.25c1.78 7.63-10.41 9.53-14.23 10.42L70 61.26c3.81-.89 15.51-4.89 17.37 3.07h0z" fill="#fff"/><path d="M103.23 3.97h0c-.06-.02-.13-.05-.19-.06l.38.13-.19-.06v-.01zm37.58 27.4c-.25-.72-.62-1.41-1.12-2.03-1.34-1.66-3.3-2.53-5.28-2.53a6.77 6.77 0 0 0-4.24 1.49c-.83.67-1.46 1.49-1.88 2.4-.42.9-.64 1.89-.64 2.87 0 1.49.48 2.99 1.49 4.24.67.83 1.49 1.46 2.4 1.89.9.42 1.89.64 2.88.64.74 0 1.49-.12 2.21-.37.71-.25 1.4-.62 2.03-1.12.83-.67 1.46-1.49 1.89-2.4.42-.9.64-1.89.64-2.88 0-.74-.12-1.49-.37-2.21l-.01.01zm10.29 17.28c-1.07-2.61-3.6-4.2-6.26-4.2-.86 0-1.73.17-2.57.51-2.61 1.07-4.2 3.6-4.2 6.26h0c0 .87.17 1.73.51 2.57a6.73 6.73 0 0 0 2.54 3.08c1.1.72 2.4 1.12 3.72 1.12.86 0 1.73-.17 2.57-.51 2.61-1.07 4.2-3.6 4.2-6.26h0c0-.87-.17-1.73-.51-2.57h0zm5.46 21.77c-.35-3.48-3.29-6.08-6.72-6.08a5.58 5.58 0 0 0-.7.04c-3.48.35-6.08 3.29-6.08 6.72h0c0 .23.01.47.04.7a6.77 6.77 0 0 0 2.21 4.35c1.21 1.08 2.8 1.73 4.52 1.73a5.58 5.58 0 0 0 .7-.04 6.77 6.77 0 0 0 4.35-2.21c1.08-1.21 1.73-2.8 1.73-4.52 0-.23-.01-.46-.04-.69h-.01zm-2.33 16.87a6.72 6.72 0 0 0-3.99-2.35c-.41-.08-.83-.11-1.23-.11a6.78 6.78 0 0 0-6.65 5.54c-.08.41-.11.83-.11 1.24a6.78 6.78 0 0 0 5.54 6.65c.41.08.83.11 1.24.11 1.6 0 3.11-.57 4.3-1.55a6.72 6.72 0 0 0 2.35-3.99 6.59 6.59 0 0 0 .12-1.24c0-1.6-.57-3.11-1.55-4.3h-.02zm-6.01 20.23c-.63-1.05-1.56-1.94-2.73-2.53a6.77 6.77 0 0 0-3.07-.74c-2.46 0-4.84 1.35-6.03 3.7a6.73 6.73 0 0 0-.74 3.06v.02a6.74 6.74 0 0 0 3.7 6.02c.49.25 1 .44 1.51.56.52.12 1.04.18 1.55.18h0c2.46 0 4.83-1.35 6.03-3.69.25-.49.44-1 .56-1.52s.18-1.04.18-1.56a6.8 6.8 0 0 0-.97-3.49l.01-.01zm-12.97 15.33c-1.31-1.24-2.98-1.85-4.65-1.85-1.8 0-3.59.71-4.92 2.12a6.68 6.68 0 0 0-1.39 2.18c-.31.79-.46 1.62-.46 2.45 0 1.8.71 3.59 2.12 4.93.66.62 1.4 1.08 2.19 1.39a6.71 6.71 0 0 0 2.46.46c.9 0 1.79-.18 2.63-.53s1.62-.89 2.28-1.59c.62-.65 1.08-1.4 1.39-2.18.31-.79.46-1.62.46-2.45v-.02a6.73 6.73 0 0 0-2.12-4.91h.01zm-36.55 31.5l.29-.07.22-.06-.51.14v-.01z" fill="url(#B)"/><path d="M126.19 19.59v.02c0 .67-.1 1.33-.3 1.98a6.74 6.74 0 0 1-.91 1.87 6.79 6.79 0 0 1-2.47 2.16c-.96.49-2.02.74-3.09.74-.67 0-1.34-.1-1.99-.3s-1.28-.51-1.87-.91a6.55 6.55 0 0 1-1.05-.9c-.42-.16-.83-.37-1.23-.62-9.77-6.21-20.99-9.67-32.59-10.06l-2.22-.04c-35.82 0-64.97 29.14-64.97 64.97s28.28 64.1 63.37 64.95h.15l1.45.02c12.05 0 23.82-3.32 34.02-9.61a6.77 6.77 0 0 1 9.31 2.21 6.77 6.77 0 0 1-2.21 9.31 77.76 77.76 0 0 1-20.31 8.82c-.02 0-.04.01-.06.02-.17.05-.34.09-.51.14-6.56 1.75-13.36 2.64-20.23 2.64-.53 0-1.05 0-1.57-.02h-.22c-20.3-.45-39.32-8.57-53.72-22.97C10.32 121.36 2.52 105.15.51 87.64c0-.03 0-.05-.01-.08v-.13c0-.04 0-.07-.01-.11A80.63 80.63 0 0 1 0 78.5c0-19.9 7.36-38.68 20.79-53.22a67.74 67.74 0 0 1 2.2-2.29C37.82 8.16 57.53 0 78.5 0a79.85 79.85 0 0 1 2.68.05C88.65.3 95.99 1.61 103 3.91c.02 0 .05.01.07.02.13.04.26.08.38.13.02 0 .05.02.07.03a77.9 77.9 0 0 1 17.04 8.13 7.01 7.01 0 0 1 1.29 1.06 6.89 6.89 0 0 1 1.47.77 6.76 6.76 0 0 1 2.9 5.56l-.03-.02z" fill="url(#C)"/><path d="M209.32 137.97h-10.21l-2.13 6.09h-4.76l9.96-26.13h4.11l9.97 26.13h-4.78l-2.15-6.09h-.01zm-8.92-3.66h7.64l-3.82-10.84-3.82 10.84z" fill="url(#D)"/><path d="M238.85 144.05v-26.13h9.03c2.98 0 5.25.59 6.8 1.78 1.56 1.18 2.33 2.95 2.33 5.29 0 1.2-.32 2.27-.98 3.23-.65.96-1.61 1.7-2.86 2.23 1.42.38 2.52 1.1 3.3 2.16s1.17 2.33 1.17 3.81c0 2.45-.79 4.34-2.38 5.65-1.59 1.32-3.86 1.98-6.81 1.98h-9.61.01zm4.58-15.13h4.49c1.42 0 2.54-.32 3.34-.96s1.2-1.55 1.2-2.72c0-1.29-.37-2.23-1.11-2.8-.74-.58-1.9-.86-3.46-.86h-4.45v7.34h-.01zm0 3.34v8.17h5.09c1.44 0 2.56-.35 3.37-1.06s1.21-1.69 1.21-2.94c0-2.72-1.4-4.1-4.2-4.17h-5.47 0z" fill="url(#E)"/><use href="#T" fill="url(#F)"/><use href="#U" fill="url(#G)"/><path d="M307.2 140.93c1.1 0 2.01-.32 2.73-.95a3.22 3.22 0 0 0 1.16-2.35h4.14c-.05 1.21-.43 2.34-1.14 3.38-.71 1.05-1.67 1.88-2.89 2.49s-2.53.92-3.95.92c-2.74 0-4.91-.88-6.51-2.64-1.61-1.76-2.41-4.19-2.41-7.29v-.45c0-2.95.8-5.32 2.39-7.1s3.76-2.66 6.51-2.66c2.33 0 4.23.67 5.69 2.02 1.47 1.35 2.23 3.11 2.31 5.3h-4.14c-.05-1.11-.43-2.03-1.15-2.75s-1.63-1.08-2.74-1.08c-1.42 0-2.52.51-3.3 1.53-.77 1.02-1.16 2.58-1.18 4.66v.7c0 2.11.38 3.68 1.15 4.71.76 1.03 1.87 1.55 3.32 1.55l.01.01z" fill="url(#H)"/><path d="M322.93 134.16c0-1.9.38-3.62 1.14-5.14.76-1.53 1.83-2.7 3.2-3.52 1.38-.82 2.96-1.23 4.74-1.23 2.64 0 4.79.84 6.43 2.53 1.65 1.69 2.54 3.92 2.67 6.71l.02 1.02c0 1.92-.37 3.63-1.11 5.13-.74 1.51-1.81 2.67-3.19 3.5s-2.98 1.24-4.79 1.24c-2.76 0-4.98-.91-6.63-2.74-1.66-1.82-2.49-4.26-2.49-7.29v-.22l.01.01zm4.4.38c0 2 .42 3.56 1.25 4.69s1.99 1.7 3.47 1.7 2.64-.57 3.46-1.72 1.24-2.83 1.24-5.04c0-1.96-.42-3.52-1.28-4.67-.85-1.15-2.01-1.72-3.46-1.72s-2.58.57-3.42 1.7c-.85 1.13-1.27 2.82-1.27 5.07l.01-.01z" fill="url(#I)"/><use href="#T" x="83.05" fill="url(#F)"/><path d="M368.77,124.63l.13,2.24c1.45-1.73,3.35-2.6,5.7-2.6,4.08,0,6.15,2.31,6.23,6.94v12.83h-4.4v-12.58c0-1.23-.27-2.15-.81-2.74s-1.42-.89-2.63-.89c-1.77,0-3.1.8-3.96,2.39v13.82h-4.4v-19.42h4.14v.01Z" fill="url(#J)"/><path d="M425.45 135.54c-.27 2.79-1.3 4.96-3.11 6.52s-4.22 2.34-7.22 2.34c-2.1 0-3.95-.49-5.55-1.48s-2.83-2.39-3.7-4.21-1.32-3.93-1.36-6.34v-2.44c0-2.46.44-4.63 1.32-6.51s2.15-3.33 3.79-4.34c1.65-1.02 3.55-1.53 5.71-1.53 2.91 0 5.25.78 7.02 2.34s2.8 3.77 3.1 6.63h-4.56c-.22-1.88-.77-3.23-1.66-4.06s-2.19-1.25-3.9-1.25c-1.99 0-3.52.72-4.59 2.17-1.07 1.44-1.62 3.56-1.64 6.35v2.32c0 2.82.51 4.98 1.53 6.47s2.51 2.23 4.48 2.23c1.8 0 3.15-.4 4.06-1.2.9-.8 1.48-2.13 1.72-4h4.56v-.01z" fill="url(#K)"/><path d="M446 144.05c-.19-.37-.36-.98-.51-1.81-1.4 1.45-3.11 2.17-5.14 2.17s-3.57-.56-4.81-1.67-1.86-2.49-1.86-4.13c0-2.07.77-3.66 2.33-4.76 1.55-1.11 3.77-1.66 6.65-1.66h2.7v-1.27c0-1.01-.28-1.81-.85-2.41-.57-.61-1.43-.91-2.59-.91-1 0-1.82.25-2.46.75s-.96 1.13-.96 1.89h-4.4c0-1.06.36-2.06 1.07-2.99s1.68-1.65 2.91-2.18c1.22-.53 2.59-.79 4.1-.79 2.29 0 4.12.57 5.48 1.71s2.06 2.75 2.1 4.82v8.76c0 1.75.25 3.14.74 4.18v.3H446zm-4.83-3.14a5.02 5.02 0 0 0 2.45-.63c.76-.42 1.34-.98 1.73-1.69v-3.66h-2.37c-1.63 0-2.85.28-3.67.84s-1.23 1.36-1.23 2.39c0 .84.28 1.51.84 2s1.31.74 2.26.74l-.01.01z" fill="url(#L)"/><path d="M470.52,138.77c0-.78-.32-1.37-.97-1.78-.65-.41-1.72-.77-3.21-1.08-1.5-.31-2.74-.7-3.75-1.18-2.2-1.05-3.29-2.58-3.29-4.58,0-1.67.71-3.07,2.13-4.2s3.23-1.69,5.43-1.69c2.34,0,4.23.57,5.68,1.72,1.44,1.15,2.16,2.64,2.16,4.47h-4.4c0-.84-.31-1.54-.94-2.09-.63-.56-1.46-.83-2.5-.83-.96,0-1.75.22-2.36.66s-.92,1.03-.92,1.78c0,.67.28,1.19.85,1.56.57.37,1.71.75,3.44,1.12,1.73.38,3.08.82,4.06,1.35.98.52,1.71,1.15,2.19,1.87.48.73.72,1.62.72,2.66,0,1.75-.73,3.16-2.19,4.24s-3.37,1.63-5.74,1.63c-1.61,0-3.03-.29-4.29-.86-1.26-.58-2.23-1.36-2.93-2.37-.7-1-1.05-2.09-1.05-3.25h4.27c.06,1.03.45,1.82,1.18,2.38s1.68.83,2.88.83,2.04-.22,2.64-.65.91-1.01.91-1.71h0Z" fill="url(#M)"/><path d="M488.2 126.75c1.43-1.65 3.25-2.47 5.45-2.47 4.18 0 6.29 2.36 6.35 7.09v12.69h-4.4v-12.53c0-1.34-.29-2.29-.88-2.84-.59-.56-1.44-.83-2.58-.83-1.76 0-3.08.78-3.95 2.33v13.87h-4.4v-27.57h4.4v10.26h.01z" fill="url(#N)"/><path d="M545.14 137.59l4.06-19.67h4.54l-6.08 26.13h-4.38l-5.01-19.08-5.12 19.08h-4.4l-6.08-26.13h4.54l4.09 19.63 5.03-19.63h3.84l4.98 19.67h-.01z" fill="url(#O)"/><path d="M572.95 144.05c-.19-.37-.36-.98-.51-1.81-1.4 1.45-3.11 2.17-5.14 2.17s-3.57-.56-4.81-1.67-1.86-2.49-1.86-4.13c0-2.07.77-3.66 2.33-4.76 1.55-1.11 3.77-1.66 6.65-1.66h2.7v-1.27c0-1.01-.28-1.81-.85-2.41-.57-.61-1.43-.91-2.59-.91-1 0-1.82.25-2.46.75s-.96 1.13-.96 1.89h-4.4c0-1.06.36-2.06 1.07-2.99s1.68-1.65 2.91-2.18c1.22-.53 2.59-.79 4.1-.79 2.29 0 4.12.57 5.48 1.71s2.06 2.75 2.1 4.82v8.76c0 1.75.25 3.14.74 4.18v.3h-4.5zm-4.83-3.14a5.02 5.02 0 0 0 2.45-.63c.76-.42 1.34-.98 1.73-1.69v-3.66h-2.37c-1.63 0-2.85.28-3.67.84s-1.23 1.36-1.23 2.39c0 .84.28 1.51.84 2s1.31.74 2.26.74l-.01.01z" fill="url(#P)"/><path d="M591.18 144.05h-4.4v-27.57h4.4v27.57z" fill="url(#Q)"/><path d="M605.83,144.05h-4.4v-27.57h4.4v27.57Z" fill="url(#R)"/><path d="M624.43 144.41c-2.79 0-5.05-.87-6.78-2.61s-2.6-4.06-2.6-6.95v-.54c0-1.94.38-3.67 1.13-5.2.75-1.52 1.81-2.71 3.18-3.56s2.88-1.27 4.56-1.27c2.67 0 4.73.84 6.18 2.53s2.18 4.07 2.18 7.16v1.76h-12.79c.13 1.6.67 2.87 1.62 3.8s2.14 1.4 3.57 1.4c2.01 0 3.66-.81 4.92-2.42l2.37 2.24c-.78 1.16-1.83 2.06-3.14 2.7s-2.78.96-4.41.96h.01zm-.52-16.64c-1.21 0-2.18.42-2.92 1.26s-1.22 2.01-1.42 3.5h8.38v-.32c-.09-1.46-.49-2.56-1.18-3.31s-1.64-1.12-2.86-1.12v-.01z" fill="url(#S)"/><use href="#U" x="359.24" fill="url(#G)"/><path d="M227.04 84.92c-20.36 0-35.58-14.19-35.58-34.92s15.69-34.74 35.86-34.74c9.24 0 19.24 3.36 24.75 9.71L241.24 35.8c-2.99-4.11-8.31-6.07-13.35-6.07-11.11 0-19.05 8.59-19.05 20.26s7.75 20.26 18.77 20.26c6.26 0 11.2-2.8 14.01-6.72l11.11 10.46c-5.79 6.72-14.57 10.93-25.68 10.93h-.01zm29.32-41.93c5.42-5.14 13.17-7.84 20.73-7.84 15.59 0 21.38 7.66 21.38 24.56v23.44h-14.01V78.2h-.28c-2.34 3.83-7.66 6.07-13.17 6.07-7.38 0-16.9-3.64-16.9-14.57 0-13.45 16.34-15.69 29.88-15.69v-.75c0-4.58-3.64-6.72-8.4-6.72-4.39 0-8.68 2.15-11.49 4.76l-7.75-8.31h.01zm28.11 19.89h-1.96c-6.72 0-14.29.84-14.29 6.35 0 3.55 3.55 4.76 6.63 4.76 6.16 0 9.62-3.73 9.62-9.53v-1.59.01zm52.76-12.51c-2.43-2.33-5.98-4.2-9.71-4.2-2.9 0-5.79 1.03-5.79 3.73s2.52 3.36 8.5 4.67c7.09 1.59 14.85 5.13 14.85 14.19 0 11.77-10.37 15.87-19.89 15.87-7.56 0-15.41-2.52-20.26-7.19l8.59-9.06c2.71 2.99 6.91 5.23 11.39 5.23 2.52 0 5.51-1.03 5.51-4.02s-2.89-3.83-9.24-5.32c-6.44-1.5-13.54-4.76-13.54-13.54 0-11.11 10.46-15.6 19.33-15.6 6.91 0 14.1 2.24 18.67 6.54l-8.4 8.68-.01.02zm47.34 32.77V57.93c0-5.23-1.31-9.8-6.82-9.8s-8.31 4.39-8.31 9.9v25.12h-15.31V12.56h15.31v29.97h.19c2.05-3.73 6.91-7.19 13.35-7.19 12.6 0 16.99 9.71 16.99 19.05v28.76h-15.41l.01-.01zm50.42 1.49c-14.01 0-25.77-9.71-25.77-24.93s11.77-24.56 25.77-24.56 25.86 9.34 25.86 24.56-11.76 24.93-25.86 24.93zm0-36.79c-7.19 0-10.93 5.88-10.93 11.86s3.83 12.05 11.02 12.05 11.02-6.07 11.02-12.05-3.92-11.86-11.11-11.86h0zm66.11 35.3v-25.4c0-5.14-1.4-9.8-6.91-9.8s-8.22 4.67-8.22 9.99v25.21h-15.41v-46.5h14.85v6.44h.19c2.15-4.11 7.47-7.75 13.91-7.75 12.51 0 16.99 9.71 16.99 19.05v28.76h-15.41.01zm34.83-52.94c-4.95 0-8.78-3.83-8.78-8.4s3.83-8.41 8.78-8.41 8.78 3.74 8.78 8.41-3.92 8.4-8.78 8.4zm-7.66 52.95v-46.5h15.31v46.5h-15.31zm24.65-.01V71.19l21.85-22.78h-21.01V36.65h39.69v11.48l-22.5 23.16h23.44v11.86h-41.46l-.01-.01zm96.64-19.05h-33.71c.47 5.14 5.6 8.78 11.11 8.78 4.86 0 8.22-2.05 10.27-4.86l10.64 6.72c-4.39 6.35-11.67 9.9-21.1 9.9-14.01 0-25.59-8.87-25.59-24.56s11.02-24.93 25.12-24.93 23.34 9.43 23.34 25.31c0 1.21 0 2.52-.09 3.64h.01zm-14.01-9.52c0-4.86-3.08-8.87-9.15-8.87s-10.18 4.11-10.55 8.87h19.7z"/></svg>