<svg xmlns="http://www.w3.org/2000/svg" viewBox="0 0 923.9 1159.6" xmlns:v="https://vecta.io/nano"><style><![CDATA[.C,.E,.J,.A,.I,.D,.F{isolation:isolate}.K{opacity:0}.L{fill:#00fffe}.M{fill:#fefffe}.N{fill:#30e483}]]></style><g fill-rule="evenodd"><path class="A" d="M923.2 691.6c-.3 7.7-1.1 15.5-2.4 23.3-.3 7.6-1.4 15.6-3.1 23.6-.9 6.4-2.1 12.9-3.8 19.3-.7 4.1-1.4 8.3-2.4 12.6l-6.9 22.8c-1.7 5.9-3.6 11.5-5.9 17.1-2.2 6.4-4.7 12.7-7.5 18.9-16.5 39.5-39.3 76.2-68.2 109.9-6.3 6-12.1 12.4-17.8 19l22.9 43.1c11.8 30.2 12.3 59.4 1.3 87.4-18.7 41.1-50.5 64.6-95.5 70.6-42 2.9-76.2-12.7-102.4-47l-26-42.6c-58.1 13.6-116.1 14.4-174 2.4-5.6-.8-11.1-2-16.6-3.5-.2-.4-.6-.6-1.1-.3l-37.1-11.1c-82.9-29.6-150.1-80.4-201.9-152.6a1221.71 1221.71 0 0 1-29.3-52.3c-4.3-15.6-4.6-31.2-.8-46.7 9.8-33.9 31.8-55.3 66.3-64.2 22.8-4.4 44.3-.7 64.1 11 11.1 6.5 20 15.3 26.8 26.3 35.9 63.2 88 103.5 156.6 120.8 79.8 16.8 150.9-1.5 213.3-55 59.7-57.8 84.6-128.1 74.9-210.9-6.5-35.1-18.5-68.2-35.9-99.3-7.6-31.8-.6-60 21-84.4 30.4-28.2 64.6-34.2 102.5-17.9 9.9 5.6 18.8 12.5 26.6 20.7 46.2 73.4 66.9 153.2 62.3 239.3h.3z" fill="#555"/><path d="M443.9 254.9c-68.4-8.4-129.7 9.1-183.7 52.6-22.7 19.2-41.3 41.7-56 67.5l-10.5 22.6-6.3 16.4c-2.6 7.2-4.5 14.5-5.7 22.1-1.3 4.3-2.3 8.6-3.1 12.9-9.6 57.5.3 111.8 29.9 163 13.8 33.2 9.8 63.7-12 91.4-29.9 32-65.1 39.8-105.5 23.4-10.2-5.5-19.3-12.4-27.5-20.7C23.8 644 2.7 576.2.1 502.6-.7 469 2.3 435.8 9.2 403c1.4-2.7 1.9-5.6 1.6-8.7 3.8-14.4 8-28.4 12.8-42.5 1.4-1.9 2.3-4.1 2.3-6.5 20.8-54.6 51.6-103.1 92.6-145.6-7.6-14.1-15-28.3-22.1-42.6-9.5-22.7-11.6-46-6-69.8 5.6-23.9 18-44.1 37.2-60.8 26.2-21.3 56-29.7 89.3-25.4 31.6 4.4 57.2 19.9 76.7 46.5 7.8 13.7 15.8 27.2 24 40.6 52.7-11.7 105.6-13.4 158.6-5.4 5.1.8 10.2 1.8 15.3 2.7 25 5.6 49.4 12.8 73.2 21.8 95.8 38.8 166.9 104.8 213.7 197.6 10.2 43.4-3.3 77.7-40.5 102.7-39.1 18.4-74.3 13.5-105.5-14.8-3.3-3.9-6.4-7.9-9.2-12-36.1-64.4-89.2-105.2-159.4-122.7L444 255h0z" class="N"/><path class="C K M" d="M835.1,231.9q.7.3,0,0Z"/><path class="D K L" d="M100.1,259.6q-.3-.7,0,0Z"/><g class="M C"><path class="K" d="M873.4 259.6q.7.3 0 0zm15 12.8q.7.3 0 0zm26.2 25.5q.7.3 0 0zm12 13.5q.7.3 0 0z"/></g><g class="L D"><path class="K" d="M45.4 312.9q-.3-.7 0 0zm-9.8 12q-.3-.7 0 0z"/></g><path class="C K M" d="M939.4,327.1q.7.3,0,0Z"/><path class="E K" d="M472.1,370.6q.7.3,0,0Z" fill="#30e382"/><path class="F N" d="M448.9,371.4c67.6-1.9,124.2,21.9,169.9,71.2,33.4,39.9,50.3,84.9,50.6,135,.7,61.9-23,115.3-71.2,160.1-46.4,38.2-98.7,54.6-157.1,49.1l-1.5,1.5c-1.5-1.2-3.3-1.9-5.2-2.2-.2.5-.5,1-.8,1.5-1.5-1.2-3.3-1.9-5.2-2.2l-.8.8c-69.8-13.8-121.5-52.4-154.9-115.9l.8-.8c-12.7-25.3-19.5-52.4-20.2-81.4-1.9-56.2,15.7-105.5,52.9-147.8,39.2-41.9,86.8-64.9,142.9-69h-.2Z"/><path class="D K L" d="M169.9,437.4q.7.3,0,0Z"/><path d="M425.6 453.1c2.4.2 4 1.5 4.9 3.8 5.2 9.9 10.5 19.6 16.1 29.2 11.4-5.4 23.4-8.6 36-9.8 21.6 1.1 35.2 12.1 40.9 33a54.8 54.8 0 0 1 0 12.8c-1.2 5.6-2.9 10.8-5.2 15.8 17.9-5.7 32.9-1.4 45 12.8 7.7 10.7 11.8 22.7 12.4 36-.5 9.3-3.4 17.8-8.6 25.5-9.6 11.1-20.6 20.6-33 28.5-.5 1-.5 2 0 3l17.2 30c.6.9.4 1.6-.4 2.2-5.3 2.4-10.3 5.3-15 8.6-1.8.8-3.5 1.3-5.2 1.5-5.6-11.2-11.8-22-18.4-32.6-5.5 2.9-10.9 5.9-16.1 9l18.8 33.4-20.2 11.6c-5.7-10.6-11.6-21.1-17.6-31.5-.6-.9-1.3-1.7-2.2-2.2-11.7 5.7-23.1 12.1-34.1 19.1-2.3 1.5-4.8 2.4-7.5 2.6-2.5-8.3-5.3-16.5-8.2-24.8 0-1.1.5-2 1.5-2.6 6.2-2.8 11.8-6.4 16.9-10.9.5-2.5.5-5 0-7.5l-51.8-92.2c-3.5-4.2-7.8-5.5-13.1-4.1-6.1 3-12.1 6.1-18 9.4-2.7-3.9-5.3-7.9-7.9-12l-4.1-8.6c1.3-1.5 2.8-2.8 4.5-3.8 12.3-6.5 24.3-13.3 36-20.6-5.7-10.6-11.6-21.1-17.6-31.5-.6-.9-.4-1.6.4-2.2l18.8-10.5c6.7 10.4 12.7 21.2 18 32.2 1 .1 2 0 3-.4 4.2-2.8 8.4-5.4 12.8-7.9.2-.5.5-1 .8-1.5l-14.6-26.2c-1.3-2.1-2.2-4.3-2.6-6.8 6.3-2.7 12.3-5.9 18-9.8h-.6z" fill="#fdfefe"/><path d="M459.4 513.1c17.9-.8 26.2 7.7 25.1 25.5-2.4 5.9-6.1 11.1-10.9 15.4-8.7 6.2-17.7 11.8-27 16.9l-23.2-40.5c10.9-8 22.9-13.8 36-17.2h0z" fill="#33e484"/><path class="E K" d="M696.4,569.4q.7.3,0,0Z" fill="#30e382"/><path d="M502.9,570.9c14.1-1.4,23.3,4.6,27.4,18,.4,7-1.6,13.2-6,18.8l-10.9,10.9c-10,7.1-20.5,13.2-31.5,18.4-.4-1.8-1-3.5-1.9-5.2-7.7-12.9-15-26.1-22.1-39.4,13.6-10.1,28.6-17.2,45-21.4h0Z" fill="#33e484"/><path class="I K" d="M696.4,583.6q.7.3,0,0Z" fill="#30e482"/><g class="L D"><path class="K" d="M-148.9 663.9q-.3.3 0 0zm321 60.7q.7.3 0 0zm11.3 13.5q.7.3 0 0zm26.2 24.8q.7.3 0 0z"/></g><path class="J K N" d="M510.4,787.6q.7.3,0,0Z"/><path class="D K L" d="M44.6,846.1q-.3.3,0,0Z"/><path class="C K M" d="M926.6,847.6q.7.3,0,0Z"/><path class="D K L" d="M49.1,851.4q-.3.3,0,0Z"/><g class="M C"><path class="K" d="M915.4 860.4q.7.3 0 0zm-.8.7h.8c0 .5-.4.5-.8 0zm-27.7 27q.7.3 0 0z"/></g><path class="D K L" d="M86.6,888.9q-.3.3,0,0Z"/><path class="C K M" d="M553.9,967.6q-.3.3,0,0Z"/></g></svg>