<svg xmlns="http://www.w3.org/2000/svg" viewBox="0 0 803.959 690.637" xmlns:v="https://vecta.io/nano"><g fill-rule="evenodd"><path d="M280.976 679.998l446.34-312.531c11.874-8.43 20.329-20.842 23.343-34.544l52.075-236.765c6.268-28.499-12.14-54.789-41.065-58.646L521.373 5.469c-13.906-1.854-28.461 1.846-40.305 10.139L34.588 328.121c-24.872 17.416-32.074 50.162-16.062 73.03l188.33 268.964c16.012 22.867 49.247 27.299 74.119 9.884zM647.737 99.951c22.62-15.839 53.798-10.341 69.636 12.279s10.341 53.798-12.279 69.636-53.798 10.341-69.636-12.279-10.341-53.798 12.279-69.636z" fill="#057148"/><path d="M270.976 674.998l446.34-312.531c11.874-8.43 20.329-20.842 23.343-34.544l52.075-236.765c6.268-28.499-12.14-54.789-41.065-58.646L511.373.469c-13.906-1.854-28.461 1.846-40.305 10.139L24.588 323.121C-.284 340.536-7.486 373.283 8.526 396.15l188.33 268.964c16.012 22.867 49.247 27.299 74.119 9.884zM637.737 94.951c22.62-15.839 53.798-10.341 69.636 12.279s10.341 53.798-12.279 69.636-53.798 10.341-69.636-12.279-10.341-53.798 12.279-69.636z" fill="#0ac18e"/></g><path d="M177.609 461.915c-14.481 10.139-28.787 13.186-42.921 9.138s-27.229-14.679-39.288-31.899c-5.993-8.559-10.186-17.01-12.577-25.348s-3.195-16.231-2.408-23.68 3.126-14.316 7.024-20.606 9.1-11.712 15.612-16.271c3.77-2.64 7.424-4.716 10.961-6.229s6.761-2.653 9.665-3.429 5.443-1.253 7.613-1.437 3.771-.265 4.805-.25l7.39 22.862c-3.927.23-8.13 1.02-12.607 2.374s-9.03 3.653-13.656 6.894c-3.084 2.159-5.687 4.871-7.807 8.135s-3.391 7.014-3.814 11.238.141 8.913 1.699 14.053 4.426 10.696 8.607 16.668c3.346 4.778 6.916 8.919 10.707 12.419s7.739 6.04 11.844 7.615 8.395 2.099 12.87 1.557c4.476-.536 9.027-2.426 13.654-5.666 2.912-2.038 5.388-4.067 7.422-6.087s3.76-3.93 5.176-5.737 2.565-3.538 3.448-5.196l2.368-4.551 18.595 14.795c-1.433 3.971-4.162 8.553-8.189 13.742s-9.424 10.159-16.191 14.898zm104.555-76.325l-10.952-8.838-11.334-8.934-34.785 24.356 4.564 13.717 4.578 13.258-20.82 14.578-12.102-37.585-9.884-32.908-8.167-29.771a697.38 697.38 0 0 1-6.717-28.117l19.005-13.308 24.071 15.966c8.103 5.527 16.523 11.459 25.262 17.801l27.557 20.533 31.196 24.216-21.474 15.036zm-80.123-63.161c.604 1.815 1.383 4.32 2.331 7.508l3.335 11.025 4.15 13.782 4.833 15.725 25.469-17.834-12.965-10.089-11.497-8.67-9.3-6.841-6.356-4.606zm127.325 3.632c2.828-1.979 4.97-3.888 6.429-5.727s2.415-3.616 2.866-5.344.438-3.384-.039-4.979-1.274-3.187-2.39-4.78c-2.368-3.382-5.709-5.234-10.019-5.556s-10.711.568-19.208 2.658a119.34 119.34 0 0 1-11.615 2.013 39.05 39.05 0 0 1-11.917-.333c-3.95-.718-7.822-2.233-11.613-4.55s-7.36-5.86-10.706-10.638-5.588-9.623-6.729-14.536-1.239-9.7-.293-14.369 2.927-9.131 5.943-13.396 7.051-8.163 12.108-11.704c5.996-4.198 11.704-7.082 17.119-8.648s10.163-2.445 14.246-2.633l7.076 22.415c-3.532.247-7.218.864-11.061 1.848s-7.908 2.977-12.191 5.977c-4.799 3.36-7.706 6.548-8.725 9.559s-.413 6.112 1.817 9.297c1.325 1.892 2.826 3.216 4.502 3.968s3.588 1.159 5.733 1.213 4.436-.136 6.871-.581 5.078-.997 7.934-1.663c6.021-1.247 11.423-2.102 16.21-2.562s9.221-.187 13.303.809 7.901 2.852 11.454 5.554 7.073 6.545 10.557 11.521c6.761 9.656 9.092 19.188 6.995 28.59s-9.016 18.217-20.754 26.436c-3.942 2.761-7.691 4.977-11.242 6.648s-6.831 2.965-9.829 3.88-5.692 1.538-8.075 1.871-4.454.524-6.211.565l-7.309-22.473c3.841-.165 8.18-.944 13.021-2.331s10.087-4.058 15.742-8.018zm44.22-158.684l20.049-14.039 72.449 103.469-20.05 14.038-30.736-43.896-33.672 23.578 30.736 43.896-20.049 14.038-72.449-103.469 20.049-14.038 27.704 39.566 33.672-23.578-27.704-39.566zm120.763-46.733l14.909-10.439-13.58-28.318 16.708-11.699 13.579 28.318 9.334-6.536 12.023 17.171-12.172 8.522 9.827 20.487 15.203-10.646 12.022 17.17-18.041 12.632 13.579 28.318-16.707 11.698-13.58-28.317-14.908 10.439 13.579 28.318-16.707 11.698-13.58-28.317-9.334 6.536-12.022-17.17 12.172-8.522-9.827-20.488-15.203 10.646-12.023-17.171 18.041-12.633-13.579-28.318 16.708-11.699 13.579 28.318zm19.013 39.645l14.908-10.439-9.826-20.487-14.909 10.439 9.827 20.487z" fill="#fff"/><path d="M255.663 544.662c10.303 14.713 15.798 27.685 16.49 38.914s-3.196 19.81-11.663 25.738-17.859 6.649-28.176 2.156-20.625-14.092-30.928-28.805c-5.121-7.314-9.021-14.229-11.698-20.75s-4.176-12.549-4.497-18.088.478-10.484 2.395-14.833 4.937-7.967 9.062-10.855c8.467-5.929 17.858-6.646 28.175-2.156s20.596 14.051 30.839 28.679zm-16.5 11.553c-3.061-4.37-6.023-8.216-8.887-11.536s-5.606-6.004-8.227-8.053-5.12-3.305-7.495-3.772-4.579.01-6.604 1.428-3.208 3.313-3.546 5.679-.011 5.146.982 8.333 2.559 6.697 4.698 10.522 4.742 7.928 7.802 12.298 6.038 8.24 8.932 11.599 5.669 6.057 8.326 8.079 5.154 3.282 7.495 3.772 4.522.028 6.549-1.391 3.226-3.322 3.6-5.716.047-5.169-.981-8.333-2.629-6.679-4.798-10.549-4.784-7.988-7.846-12.36zm78.156-54.726c10.303 14.713 15.799 27.686 16.49 38.914s-3.196 19.81-11.663 25.738-17.859 6.65-28.176 2.157-20.625-14.092-30.928-28.805c-5.121-7.314-9.021-14.23-11.698-20.751s-4.176-12.549-4.496-18.088.478-10.484 2.395-14.833 4.937-7.967 9.062-10.855c8.467-5.929 17.858-6.646 28.175-2.156s20.597 14.051 30.839 28.679zm-16.5 11.554c-3.06-4.37-6.023-8.216-8.887-11.537s-5.606-6.003-8.227-8.053-5.12-3.305-7.495-3.772-4.578.01-6.603 1.428-3.209 3.313-3.546 5.68-.011 5.146.982 8.333 2.559 6.697 4.699 10.522 4.741 7.927 7.801 12.297 6.038 8.24 8.932 11.6 5.669 6.057 8.326 8.079 5.154 3.281 7.495 3.772 4.522.028 6.549-1.392 3.227-3.321 3.601-5.716.046-5.168-.982-8.333-2.629-6.679-4.798-10.549-4.784-7.987-7.846-12.359zm78.157-54.727c10.303 14.713 15.799 27.686 16.49 38.914s-3.196 19.811-11.663 25.739-17.859 6.649-28.176 2.156-20.625-14.092-30.928-28.805c-5.121-7.314-9.021-14.23-11.698-20.75s-4.176-12.549-4.496-18.089.478-10.483 2.394-14.833 4.937-7.967 9.062-10.854c8.467-5.929 17.858-6.646 28.175-2.157s20.596 14.051 30.839 28.679zm-16.5 11.554c-3.06-4.37-6.023-8.216-8.887-11.537s-5.606-6.003-8.227-8.053-5.12-3.305-7.495-3.771-4.578.01-6.604 1.428-3.209 3.313-3.546 5.679-.011 5.146.982 8.333 2.559 6.697 4.699 10.522 4.741 7.927 7.801 12.297 6.038 8.24 8.932 11.6 5.669 6.057 8.326 8.079 5.154 3.282 7.495 3.772 4.522.028 6.55-1.391 3.226-3.322 3.6-5.716.047-5.169-.981-8.334-2.629-6.678-4.798-10.549-4.784-7.987-7.846-12.359zm78.156-54.725c10.303 14.713 15.799 27.685 16.49 38.913s-3.195 19.811-11.662 25.739-17.859 6.649-28.176 2.156-20.625-14.092-30.928-28.805c-5.121-7.314-9.021-14.229-11.698-20.75s-4.176-12.549-4.496-18.089.478-10.483 2.395-14.832 4.937-7.967 9.062-10.855c8.467-5.929 17.858-6.646 28.175-2.156s20.597 14.051 30.839 28.679zm-16.5 11.553c-3.06-4.37-6.022-8.216-8.887-11.537s-5.605-6.003-8.227-8.052-5.119-3.305-7.494-3.772-4.579.01-6.604 1.428-3.209 3.313-3.547 5.679-.011 5.146.982 8.333 2.559 6.697 4.698 10.522 4.741 7.928 7.802 12.297 6.038 8.241 8.932 11.6 5.669 6.057 8.325 8.079 5.154 3.282 7.495 3.772 4.522.028 6.549-1.391 3.227-3.322 3.601-5.716.046-5.169-.981-8.333-2.629-6.679-4.798-10.55-4.784-7.987-7.847-12.359zm78.158-54.726c10.303 14.713 15.799 27.686 16.49 38.914s-3.195 19.81-11.663 25.738-17.858 6.649-28.176 2.157-20.625-14.093-30.928-28.806c-5.121-7.314-9.021-14.229-11.697-20.75s-4.177-12.549-4.496-18.088.478-10.484 2.395-14.833 4.937-7.967 9.062-10.855c8.467-5.929 17.857-6.646 28.175-2.156s20.597 14.051 30.839 28.679zm-16.5 11.553c-3.06-4.37-6.022-8.215-8.887-11.536s-5.606-6.003-8.227-8.053-5.12-3.305-7.495-3.772-4.578.01-6.604 1.428-3.208 3.313-3.546 5.679-.012 5.146.981 8.333 2.559 6.698 4.699 10.523 4.741 7.927 7.801 12.297 6.038 8.24 8.932 11.6 5.67 6.057 8.326 8.078 5.154 3.282 7.494 3.772 4.522.028 6.55-1.391 3.226-3.322 3.6-5.716.047-5.168-.981-8.333-2.629-6.679-4.797-10.549-4.784-7.988-7.847-12.36zm78.157-54.726c10.303 14.713 15.799 27.686 16.49 38.914s-3.196 19.81-11.663 25.738-17.858 6.649-28.176 2.157-20.625-14.092-30.928-28.805c-5.121-7.314-9.021-14.23-11.698-20.75s-4.176-12.549-4.496-18.089.478-10.483 2.395-14.833 4.937-7.967 9.062-10.854c8.468-5.929 17.858-6.646 28.176-2.157s20.596 14.051 30.839 28.679zm-16.5 11.554c-3.061-4.37-6.023-8.216-8.887-11.537s-5.606-6.003-8.227-8.053-5.12-3.305-7.495-3.772-4.579.011-6.604 1.429-3.209 3.313-3.546 5.679-.012 5.146.981 8.333 2.559 6.697 4.698 10.522 4.741 7.927 7.802 12.297 6.038 8.24 8.932 11.6 5.669 6.057 8.325 8.079 5.154 3.281 7.495 3.772 4.522.028 6.549-1.392 3.227-3.322 3.601-5.716.047-5.168-.981-8.333-2.629-6.679-4.798-10.549-4.784-7.987-7.846-12.359zm10.04-44.806l4.14-8.066c1.367-2.898 2.592-5.886 3.673-8.962l2.798-9.289c.784-3.114 1.295-6.197 1.533-9.248l11.289-7.904 61.193 87.392-16.174 11.325-44.062-62.927c-.993 3.203-2.345 6.435-4.05 9.695s-3.474 6.285-5.3 9.066l-15.039-11.082zm87.66-39.768c2.648 3.783 3.635 7.387 2.955 10.806s-2.322 6.041-4.927 7.865-5.631 2.472-9.078 1.94-6.493-2.69-9.142-6.474-3.634-7.384-2.955-10.804 2.321-6.043 4.926-7.867 5.633-2.468 9.077-1.938 6.494 2.689 9.143 6.472zm24.357 35.942l3.274 4.098c.625.816 1.144 1.52 1.555 2.106 1.767 2.522 3.436 5.332 5.01 8.426s2.999 6.325 4.278 9.689a96 96 0 0 1 3.291 10.476c.915 3.617 1.598 7.213 2.049 10.781l-15.262 5.236c-2.221-6.713-4.714-12.739-7.476-18.07s-5.262-9.593-7.5-12.789c-.354-.505-.827-1.143-1.423-1.918l-1.83-2.383-1.786-2.319-1.114-1.476 16.934-11.857z" fill="#201447"/></svg>