<svg xmlns="http://www.w3.org/2000/svg" viewBox="0 0 489.72 490.87" xmlns:v="https://vecta.io/nano"><defs><linearGradient id="A" x1="82.94" y1="245.45" x2="407.92" y2="245.45" gradientUnits="userSpaceOnUse"><stop offset="0" stop-color="#0ed47f"/><stop offset="1" stop-color="#0ac18e"/></linearGradient><linearGradient id="B" x1="399.2" y1="482.63" x2="399.2" y2="12.3" gradientUnits="userSpaceOnUse"><stop offset="0" stop-color="#0ac18e"/><stop offset="1" stop-color="#0ed47f"/></linearGradient><linearGradient id="C" x1="0" y1="245.435" x2="394.65" y2="245.435" gradientUnits="userSpaceOnUse"><stop offset="0" stop-color="#0ed47f"/><stop offset="1" stop-color="#0ac18e"/></linearGradient></defs><circle cx="245.43" cy="245.45" r="162.49" fill="url(#A)"/><path d="M310.45 182.58c-8.23-24.46-31.78-27.82-59.61-23.86l-8.08-34.71-21.12 4.92 7.87 33.79-16.81 4.15-7.92-34.02-21.11 4.92 8.08 34.7-13.4 3.31-.03-.11-29.14 6.78 5.26 22.56s15.53-3.93 15.34-3.58c8.56-1.99 12.5 2.33 14.31 6.42l9.21 39.54c.6-.13 1.37-.28 2.27-.37l-2.23.52 12.9 55.39c.25 2.78-.33 7.44-6.3 8.84.32.18-15.36 3.57-15.36 3.57l1.68 26.22 27.5-6.4 15.12-3.39 8.18 35.1 21.1-4.91-8.1-34.74 16.92-3.76 8.04 34.57 21.12-4.92-8.15-35.04c35.04-10.31 57.82-25.05 53.14-59.11-3.76-27.43-19.19-36.48-40.48-36.63 10.79-9.1 15.89-21.87 9.83-39.76l-.03.01zm-12.08 81.93c6.12 26.23-39.49 33.71-53.81 37.06l-10.82-46.51c14.32-3.33 58.26-17.9 64.63 9.46v-.01zm-25.1-63.32c5.55 23.87-32.56 29.81-44.48 32.59l-9.82-42.18c11.92-2.78 48.51-15.3 54.31 9.6l-.01-.01z" fill="#fff"/><path d="M322.86 12.49h0c-.2-.08-.41-.14-.61-.19l1.2.4-.59-.2v-.01zm117.48 85.67a21.08 21.08 0 0 0-3.51-6.36c-4.18-5.2-10.31-7.9-16.5-7.9-4.65 0-9.34 1.53-13.25 4.67-2.59 2.09-4.57 4.66-5.89 7.49-1.33 2.83-2.01 5.9-2.01 8.99 0 4.66 1.51 9.35 4.66 13.26a21.15 21.15 0 0 0 7.5 5.91 21.32 21.32 0 0 0 9 2c2.33 0 4.66-.38 6.91-1.15 2.23-.78 4.38-1.94 6.34-3.51a21 21 0 0 0 5.9-7.49c1.32-2.83 2-5.9 2.01-9a21.06 21.06 0 0 0-1.16-6.91h0zm32.18 54.03c-3.36-8.18-11.25-13.12-19.57-13.12a21.15 21.15 0 0 0-8.04 1.6c-8.18 3.36-13.13 11.26-13.13 19.58v.04c0 2.67.52 5.37 1.6 7.99 1.68 4.09 4.49 7.37 7.93 9.63 3.43 2.26 7.49 3.5 11.65 3.5a21.15 21.15 0 0 0 8.04-1.6c8.17-3.36 13.12-11.26 13.12-19.58v-.04c0-2.67-.52-5.37-1.6-8zm17.07 68.07a21.16 21.16 0 0 0-21.01-19.01c-.72 0-1.45.03-2.18.11a21.16 21.16 0 0 0-19.01 21.01v.02c0 .71.03 1.44.11 2.17.55 5.44 3.13 10.2 6.91 13.59 3.77 3.39 8.76 5.42 14.12 5.42a23.06 23.06 0 0 0 2.18-.11 21.12 21.12 0 0 0 13.59-6.91c3.39-3.78 5.42-8.76 5.42-14.13 0-.71-.03-1.44-.11-2.16h-.02zm-7.3 52.73c-3.06-3.71-7.39-6.4-12.48-7.35a21.17 21.17 0 0 0-3.86-.36c-10.01 0-18.9 7.13-20.79 17.32-.25 1.29-.36 2.6-.36 3.87 0 10 7.13 18.9 17.32 20.78a20.35 20.35 0 0 0 3.87.36c5 0 9.72-1.79 13.43-4.83a21.05 21.05 0 0 0 7.35-12.48 20.53 20.53 0 0 0 .36-3.88c0-5-1.79-9.72-4.84-13.43h0zm-18.79 63.24c-1.97-3.28-4.87-6.06-8.52-7.92-3.08-1.57-6.36-2.32-9.59-2.32-7.7 0-15.12 4.23-18.86 11.56a20.99 20.99 0 0 0-2.31 9.58v.05c0 7.68 4.23 15.09 11.55 18.82 1.54.79 3.12 1.36 4.73 1.74 1.62.38 3.24.57 4.86.57h.03c7.69 0 15.11-4.22 18.84-11.55.8-1.54 1.37-3.14 1.75-4.76s.57-3.25.57-4.87c0-3.84-1.07-7.62-3.04-10.9h-.01zm-40.56 47.92c-4.09-3.87-9.32-5.78-14.53-5.78-5.62 0-11.22 2.22-15.38 6.62-1.93 2.04-3.38 4.36-4.34 6.83-.96 2.46-1.44 5.06-1.45 7.67 0 5.62 2.21 11.24 6.62 15.41 2.05 1.94 4.38 3.38 6.85 4.34a21.24 21.24 0 0 0 7.69 1.45c2.8 0 5.61-.56 8.23-1.66a21.3 21.3 0 0 0 7.14-4.96 21.07 21.07 0 0 0 4.33-6.83c.96-2.46 1.44-5.06 1.45-7.67v-.07c0-5.6-2.23-11.2-6.62-15.35h.01zm-114.26 98.48c.3-.06.61-.14.91-.22a13.89 13.89 0 0 0 .69-.2l-1.6.42z" fill="url(#B)"/><path d="M394.65 61.32v.05a20.65 20.65 0 0 1-.95 6.2c-.63 2.03-1.57 3.99-2.85 5.83-2.06 2.95-4.73 5.21-7.72 6.75-3 1.52-6.31 2.32-9.66 2.32-2.09 0-4.19-.3-6.23-.94-2.03-.63-4-1.58-5.85-2.86-1.21-.85-2.3-1.79-3.28-2.82-1.32-.5-2.61-1.15-3.85-1.94-30.54-19.42-65.63-30.23-101.88-31.46a200.93 200.93 0 0 0-6.95-.12c-112 0-203.12 91.12-203.12 203.12s88.42 200.4 198.13 203.06h.47l4.53.05c37.69 0 74.47-10.39 106.37-30.04 9.94-6.13 22.98-3.03 29.11 6.91 6.13 9.95 3.03 22.99-6.92 29.11-19.83 12.22-41.22 21.48-63.51 27.59-.07.02-.14.03-.2.06l-1.6.42c-20.51 5.46-41.76 8.26-63.25 8.26a267.01 267.01 0 0 1-4.91-.05c-.23 0-.45 0-.68-.02-63.47-1.4-122.93-26.79-167.96-71.82C32.33 379.42 7.96 328.74 1.66 274a1.07 1.07 0 0 1-.03-.25c0-.04-.02-.09-.03-.14 0-.09-.02-.18-.03-.27 0-.11-.03-.23-.03-.34A247.14 247.14 0 0 1 0 245.44c0-62.23 23.01-120.93 65.01-166.38a231.86 231.86 0 0 1 6.88-7.17C118.24 25.54 179.88 0 245.44 0c2.79 0 5.59.05 8.37.14 23.34.79 46.29 4.87 68.23 12.07.08.02.14.04.22.07l1.2.4c.08.03.15.05.23.08 18.63 6.25 36.52 14.77 53.28 25.42 1.51.96 2.85 2.07 4.02 3.32 1.59.59 3.14 1.4 4.6 2.42 5.9 4.11 9.06 10.7 9.06 17.38v.02z" fill="url(#C)"/></svg>