<svg xmlns="http://www.w3.org/2000/svg" viewBox="0 0 78.5 54" xmlns:v="https://vecta.io/nano"><path d="M41,46.7c20.7,0,37.5,1,37.5,2.2s-16.8,2.2-37.5,2.2-37.5-1-37.5-2.2,16.8-2.2,37.5-2.2Z" fill="#e1e1e1" fill-rule="evenodd"/><path d="M12.9 21.6c-1.2-1.6-2.4-3.6-3.8-6.3-.8-1.4-.9-2 .5-2.6l24-9.9c.7-.3 1.6-.3 2.2.7 3.2 4.8 5.6 8.2 9 11.8 5.2 5.3 10.8 11.1 20.7 15.3 3.1 1.1 6.1 2.1 9.7 2.7.1 0 .8.3.8.9v5.6l-16.8 9.6c-.8.7-1.7 1.4-3.6.8L5.7 39.9v-3.3l-4-1c-.3 0-.3-.5 0-.7l4.1-3.4c0-.6.2-1.1.5-1.5-1.8-.6-2.5-1.4-1.4-2.5l7.3-5.4.6-.5z" fill="#f60"/><path d="M74.5 34.1L56.3 44.4c-8.4-1.7-15.5-4.3-21.5-7.2 1.6.4 3.2.6 5 .6 8 0 14.6-4.2 14.6-9.4s-.4-2.4-1-3.4c6.3 4.8 13.5 8.4 21.1 9.2zM39.7 19.6c7.4 0 13.4 3.8 13.4 8.5s-6 8.5-13.4 8.5-13.4-3.8-13.4-8.5 6-8.5 13.4-8.5zm8.8 1.1c-2.4-1.1-5.4-1.8-8.6-1.8-8 0-14.6 4.2-14.6 9.4s.5 2.8 1.4 4.1c-8.8-6-14-12.8-16.5-18.1L34.5 3.7c3.1 5.2 8 11.5 14 17zm-10-.2l-.6 1.9H36c0-.1-.4 1-.4 1 1.2.1 1.7 0 1.4.9l-1.8 5.9c-.2.6-.3.5-1.2.4h-1c0-.1-.5 1.5-.5 1.5l2 .3-.6 2.1 2.7.5.6-2.1 2.2.3-.5 2.2 2.6.3.5-2.2h1.2c.9-.1 1.6-.4 2.2-.7s1-1 1.1-1.6c.1-.5 0-1.1-.1-1.5-.2-.4-.5-.8-.9-1-.3-.2-.8-.4-1.4-.6 1.1 0 1.7-.4 2.4-1s.8-1.5.4-2.2c-.5-.9-1.7-1.3-2.8-1.6l.4-2-1.7-.2-.5 1.9-2-.2.5-1.9-2.1-.2zm.4 5.9l.8-2.6 1.6.2a8.24 8.24 0 0 1 1.8.4c1.4.5.9 2.3-.8 2.4-.4 0-1 0-1.8-.1l-1.5-.2zm-.4 1.5l1.8.3c.8.1 1.4.3 1.7.4.3.2.6.4.7.6s.2.5 0 .8c0 .4-.3 1-.7 1.2-.3.2-.7.3-1.1.4s-.9 0-1.5-.1c-.2 0-1.9-.3-1.9-.3l.9-3.3zm-3.9 11.8c2.8.6 4.4.9 5.9 1.1 4.2 1.3 7.8 2.5 12 3.5-5.9-.9-11.8-2.7-17.9-4.6zm27.8 1.9l12.8-7.4c.2-.1.2-.2-.1-.3-6.2-1-12.4-3.1-19-7.6-2.5-1.8-8.5-6.9-11.4-10.1-3.4-3.6-6.2-7.8-9.5-12.4-.2-.4-.4-.6-.6-.7-.2 0-.4 0-.8.1L10.5 13c-1.5.6-1.4 1.1-.6 2.4 3.6 7.6 10.2 14.1 16.8 18.5.9 1.8 2.3 3.7 5.6 5-7.4-2.6-16-6.1-25.8-10.7l5.1-3.8-.6-.4-5.1 3.7c-.7.7-.5 1.1 0 1.3 5.8 2.9 29 12.2 40.1 15.1C38.3 42.4 13.7 34 6.5 30.9c-.4.6-.2 1.2.4 1.5l.6.2c2.3.7 20.3 7 23.9 7.8-4.1-.6-23.2-6.5-25.1-7.2v1l26.5 7.5 2.5 1-30-7.3c-1.3-.3-2.1-.3-1.2-1.7L2.5 35c-.2 0-.2.2 0 .3l34.4 8.5 1.5.6-32-7.4v.7l24.8 5.7 2.6 1-27.3-5.8v.8L56 49.7c.7.2 1.7.2 2.3-.4l16.8-9.8-5.2 2.2 5.3-3.1-9.4 4.1 9.4-5-4.9 1.9 4.9-3-8 3.7 8-4.8-12.6 6.1z" fill="#fefefe"/></svg>