<svg xmlns="http://www.w3.org/2000/svg" width="360" height="360" xmlns:v="https://vecta.io/nano"><circle fill="#201447" cx="180" cy="180.001" r="176.4"/><path d="M75.251 274.833l-19.326 17.542 5.837 6.125 18.456-18.455-4.967-5.212zm-10.236-12.698l-3.28-4.798-21.768 14.403 3.792 5.545 21.256-15.15zm-34.679-7.085l23.354-11.661c-1.752-3.484-3.364-7.05-4.829-10.691l-24.2 9.789a166.93 166.93 0 0 0 5.675 12.563zm-10.543-26.384l24.985-7.566-1.608-5.702-25.267 6.567 1.89 6.701zm-4.621-19.283l25.702-4.56-.891-5.76-25.858 3.552 1.047 6.768zm-1.758-12.82l25.977-2.54c-.377-3.824-.596-7.694-.661-11.602l-26.094.508a169.45 169.45 0 0 0 .778 13.634zm2.116-47.846l25.638 4.902 1.215-5.798-25.426-5.918-1.427 6.814zm2.856-12.462l25.171 6.917a140.31 140.31 0 0 1 7.894-21.9l-23.789-10.753a166.18 166.18 0 0 0-9.276 25.736zM33.21 99.48l22.875 12.575 2.92-5.07-22.362-13.463-3.433 5.958zm15.652-23.523l20.431 16.24 3.775-4.564-19.77-17.04-4.436 5.364zm31.486 3.873c2.751-2.737 5.619-5.357 8.586-7.861L72.07 52.051c-3.487 2.944-6.855 6.022-10.09 9.238L80.348 79.83zm26.125-20.512l5.087-2.955L98.893 33.54l-5.978 3.472 13.558 22.306zm16.127-8.464c3.583-1.595 7.245-3.043 10.978-4.341l-8.631-24.637a166.09 166.09 0 0 0-12.865 5.086L122.6 50.854zm15.541-5.848a140.35 140.35 0 0 1 16.951-4.115l-4.689-25.681a166.15 166.15 0 0 0-19.919 4.839l7.657 24.957zm32.794-6.008l5.869-.257-.562-26.093-6.957.304 1.65 26.046zm18.294.011l5.896.499 2.769-25.954-6.929-.586-1.736 26.041zm21.547 3.063a140.25 140.25 0 0 1 22.192 6.902l9.688-24.241a166.09 166.09 0 0 0-26.079-8.113l-5.801 25.452zm26.638 8.789l5.321 2.507L254.3 29.966l-6.254-2.947-10.632 23.842zm16.176 8.496c3.342 2.043 6.589 4.226 9.74 6.531l15.348-21.111c-3.705-2.708-7.521-5.272-11.447-7.674L253.59 59.357zm30.169 24.74l19.193-17.684-4.73-4.927-18.448 18.462 3.985 4.149zm27.531-7.951L290.806 92.32l3.553 4.687 21.106-15.353-4.175-5.508zm12.36 17.873l-22.408 13.385 2.967 5.178 22.929-12.479-3.488-6.084zm6.301 11.512l-23.399 11.571a140.59 140.59 0 0 1 4.772 10.658l24.234-9.704c-1.7-4.265-3.575-8.441-5.607-12.525zm9.827 24.394l-24.918 7.787 1.616 5.586 25.2-6.808-1.898-6.565zm7.569 54.313l.054-4.237-.279-9.577-26.059 1.447.238 8.13-.046 3.625 26.092.612zm-2.589 25.54l-25.683-4.668-1.183 5.834 25.51 5.535 1.356-6.701zm-2.82 12.769l-25.241-6.658-1.599 5.628 24.961 7.644 1.879-6.614zm-9.48 26.677l-23.76-10.815-2.567 5.34 23.31 11.75 3.017-6.275zm-5.746 11.436L303.885 248a141.57 141.57 0 0 1-12.857 19.407l20.575 16.06c5.631-7.154 10.687-14.781 15.109-22.807zm-42.337 14.583l-4.582 4.791 18.456 18.455 5.382-5.629-19.256-17.617z" fill="#d1ced9"/><circle fill="#0ac18e" cx="180" cy="180.001" r="132.299"/><path d="M221.268 135.577c-6.647-15.076-21.926-18.301-40.629-15.178l-6.011-23.302-14.169 3.659 5.91 23.238c-3.729.94-7.557 1.745-11.35 2.821l-5.911-23.103-14.17 3.661 6.012 23.303c-3.056.872-28.608 7.42-28.608 7.42l3.895 15.178s10.409-2.921 10.309-2.687c5.775-1.511 8.495 1.377 9.771 4.097l16.521 63.866c.202 1.848-.134 5.004-4.095 6.078.234.134-10.309 2.652-10.309 2.652l1.544 17.697 28.641-7.321 6.079 23.572 14.17-3.659-6.078-23.74 11.383-2.821 6.045 23.605 14.17-3.66-6.078-23.538c21.826-5.307 37.238-19.074 34.082-40.127-2.015-12.692-15.881-23.101-27.4-24.277 7.08-6.28 10.675-15.448 6.276-27.434h0zm-6.816 55.572c2.82 20.853-26.159 23.404-35.729 25.922l-8.327-31.194c9.604-2.518 39.287-13.095 44.056 5.272zm-17.461-42.476c2.987 18.536-21.793 20.684-29.784 22.731l-7.59-28.306c8.027-1.981 31.296-11.584 37.374 5.575zm70.868 169.426c.804-.518 1.322-.962 1.555-1.334s.204-.783-.087-1.234c-.228-.354-.643-.523-1.244-.511s-1.452.138-2.55.373l-2.38.408c-.736.086-1.424.063-2.063-.066s-1.236-.39-1.793-.78-1.075-.959-1.556-1.705c-.935-1.451-1.135-2.946-.599-4.484s1.745-2.915 3.628-4.127c.941-.606 1.897-1.104 2.868-1.494s1.774-.649 2.41-.782l1.434 3.906c-.624.152-1.279.352-1.966.6s-1.403.612-2.148 1.092c-1.373.885-1.813 1.709-1.32 2.475.113.176.244.314.392.414s.351.155.608.169.588-.002.987-.05a16.68 16.68 0 0 0 1.478-.26c1.19-.263 2.211-.423 3.063-.481s1.586-.003 2.207.164a4.12 4.12 0 0 1 1.626.843c.462.394.901.915 1.317 1.561.983 1.527 1.153 3.052.51 4.574s-2.015 2.958-4.113 4.311c-1.374.884-2.592 1.502-3.656 1.854l-2.276.634-1.558-4.034c.935-.186 1.849-.448 2.74-.787a13.32 13.32 0 0 0 2.486-1.249zm-29.531-.044c.685-.619 1.608-1.334 2.771-2.146s2.435-1.556 3.819-2.229c1.405-.684 2.665-1.069 3.777-1.157s2.104.072 2.977.478 1.648 1.015 2.328 1.825 1.296 1.783 1.848 2.916l4.55 9.347-4.689 2.282-4.273-8.78c-.735-1.511-1.456-2.483-2.16-2.919s-1.604-.388-2.694.144l-1.047.568-.953.6 6.219 12.777-4.688 2.282-7.785-15.988zm-16.405 14.921c-.517-1.549-.731-2.984-.643-4.306s.391-2.497.907-3.53a8.21 8.21 0 0 1 2.086-2.651 8.84 8.84 0 0 1 2.905-1.633c2.479-.826 4.69-.722 6.635.314s3.408 3.027 4.39 5.971l.282.958.238.935-11.223 3.742c.45.981 1.195 1.631 2.235 1.948s2.27.239 3.686-.233a15.13 15.13 0 0 0 2.59-1.14c.819-.458 1.465-.9 1.938-1.329l2.003 3.797c-.221.221-.531.472-.93.752s-.852.562-1.361.842l-1.659.83c-.599.273-1.207.513-1.826.72-1.572.524-3.017.747-4.333.67s-2.492-.393-3.525-.945-1.917-1.322-2.651-2.308-1.316-2.12-1.744-3.404zm10.989-5.768a5.37 5.37 0 0 0-.625-1.156c-.255-.358-.562-.649-.919-.875s-.765-.372-1.218-.442-.969-.009-1.544.183c-.554.185-.998.438-1.333.759a3.12 3.12 0 0 0-.747 1.079 3.54 3.54 0 0 0-.255 1.284c-.008.458.026.907.1 1.35l6.541-2.182zm-24.224 5.777l1.214-2.021 1.202-2.072 1.087-1.942.871-1.597 6.077-1.232-2.741 4.708-2.995 4.688c.812.479 1.67 1.074 2.576 1.784l2.666 2.232 2.444 2.366 1.949 2.216-5.877 1.191-1.65-1.724-1.929-1.863-2.082-1.743c-.717-.547-1.408-.992-2.071-1.335l1.604 7.908-5.11 1.036-5.231-25.795 4.944-1.859 3.052 15.054zm-8.708 4.186c.099 1.443-.021 2.778-.358 4.006s-.873 2.294-1.605 3.197a8.18 8.18 0 0 1-2.711 2.167c-1.074.541-2.298.859-3.671.953-1.35.092-2.594-.057-3.731-.447a8.18 8.18 0 0 1-2.98-1.778c-.849-.796-1.537-1.777-2.061-2.946s-.835-2.474-.934-3.918.038-2.773.411-3.992.932-2.273 1.678-3.167a8.47 8.47 0 0 1 2.73-2.15c1.074-.541 2.262-.856 3.566-.945 1.327-.091 2.559.059 3.697.448a8.3 8.3 0 0 1 2.979 1.761c.849.783 1.535 1.755 2.058 2.912s.834 2.456.932 3.899zm-5.308.362c-.11-1.606-.516-2.847-1.219-3.723s-1.648-1.273-2.835-1.192-2.076.604-2.664 1.568-.829 2.249-.719 3.855.522 2.858 1.239 3.757 1.668 1.307 2.855 1.226 2.068-.615 2.645-1.602.808-2.282.698-3.889zm-11.695-14.072l-.225 4.65-7.306-.354-.948 19.577-5.454-.264.948-19.577-7.307-.354.225-4.649 20.067.971zm-41.157 19.756l4.758-25.887 5.281.116-1.594 8.675c.365-.051.827-.079 1.385-.083a8.38 8.38 0 0 1 1.595.133c1.468.27 2.653.695 3.556 1.276s1.577 1.292 2.027 2.134.703 1.79.758 2.844-.031 2.201-.258 3.44l-1.879 10.224-5.129-.943 1.765-9.604c.304-1.652.307-2.862.009-3.628s-1.021-1.256-2.168-1.467c-.459-.084-.897-.123-1.313-.116l-1.132.059-2.531 13.77-5.13-.943zm-11.206-7.142c.914.283 1.587.396 2.022.335s.73-.347.89-.859c.125-.4-.012-.828-.408-1.281s-1.038-1.024-1.922-1.716l-1.841-1.563a6.54 6.54 0 0 1-1.273-1.624c-.311-.573-.495-1.198-.553-1.876s.045-1.439.308-2.287c.513-1.648 1.531-2.761 3.055-3.338s3.354-.533 5.493.133a16.92 16.92 0 0 1 2.986 1.24c.921.494 1.637.943 2.147 1.346l-2.075 3.606c-.518-.381-1.091-.755-1.722-1.122s-1.37-.683-2.216-.946c-1.56-.484-2.475-.293-2.745.576-.063.2-.084.39-.066.565s.105.369.261.576.379.449.672.725.675.599 1.147.967c.965.744 1.744 1.424 2.335 2.038s1.021 1.214 1.292 1.798a4.14 4.14 0 0 1 .397 1.788c-.006.607-.123 1.278-.351 2.012-.54 1.734-1.599 2.843-3.179 3.327s-3.562.354-5.946-.387c-1.56-.485-2.816-1.022-3.769-1.612l-1.948-1.339 2.093-3.784a17.08 17.08 0 0 0 2.362 1.597c.835.467 1.686.835 2.554 1.105zm-11.275-20.483c1.408.624 2.51 1.304 3.307 2.04s1.345 1.528 1.646 2.376.379 1.75.236 2.707-.447 1.959-.91 3.004l-4.396 9.92-3.082-.734c-1.306-.336-2.823-.887-4.55-1.653-1.088-.481-2.033-1.015-2.833-1.6s-1.423-1.236-1.87-1.958a4.72 4.72 0 0 1-.713-2.364c-.03-.854.183-1.794.636-2.818.435-.98 1-1.726 1.698-2.233a5 5 0 0 1 2.307-.93c.841-.113 1.728-.07 2.662.127a13.92 13.92 0 0 1 2.776.904l1.612.811a8.12 8.12 0 0 1 1.076.726l.199-.448c.359-.811.402-1.569.129-2.277s-1.018-1.332-2.233-1.871c-.811-.359-1.637-.654-2.478-.888s-1.598-.369-2.268-.411l1.094-4.109 1.16.188 1.474.347 1.637.496a17.9 17.9 0 0 1 1.684.648zm-5.799 14.122l1.358.563 1.066.357 1.603-3.616c-.173-.127-.442-.297-.807-.511a10.08 10.08 0 0 0-1.028-.531 10.34 10.34 0 0 0-1.299-.48c-.418-.122-.81-.174-1.174-.157a1.97 1.97 0 0 0-.974.296c-.284.181-.511.463-.681.847-.331.747-.31 1.375.064 1.886s.997.957 1.872 1.346zm-19.532-5.466c-3.354-2.073-5.333-4.585-5.937-7.537s.155-6.144 2.277-9.578c1.055-1.707 2.265-3.064 3.628-4.073s2.797-1.687 4.301-2.033 3.047-.359 4.632-.038 3.131.947 4.64 1.879c.873.54 1.627 1.095 2.262 1.666s1.168 1.106 1.6 1.606.771.95 1.018 1.349l.517.896-3.658 2.923c-.427-.729-.988-1.475-1.685-2.234s-1.581-1.47-2.652-2.132c-.715-.442-1.488-.755-2.32-.94a5.58 5.58 0 0 0-2.525.024c-.851.201-1.693.62-2.525 1.257s-1.617 1.552-2.353 2.742c-.589.953-1.034 1.906-1.334 2.858s-.402 1.87-.303 2.754.417 1.732.957 2.546 1.346 1.552 2.417 2.214a14.66 14.66 0 0 0 1.89 1.004l1.604.6a8.7 8.7 0 0 0 1.332.309l1.103.146-1.02 4.514c-.9-.008-2.044-.221-3.431-.64s-2.867-1.113-4.435-2.082z" fill="#fff"/></svg>