<svg xmlns="http://www.w3.org/2000/svg" viewBox="0 0 489.7 490.9" xmlns:v="https://vecta.io/nano"><defs><linearGradient id="A" x1="82.9" y1="245.4" x2="407.9" y2="245.4" gradientUnits="userSpaceOnUse"><stop offset="0" stop-color="#0ed47f"/><stop offset="1" stop-color="#0ac18e"/></linearGradient><linearGradient id="B" x1="399.2" y1="482.6" x2="399.2" y2="12.3" gradientUnits="userSpaceOnUse"><stop offset="0" stop-color="#0ac18e"/><stop offset="1" stop-color="#0ed47f"/></linearGradient><linearGradient id="C" x1="0" y1="245.4" x2="394.7" y2="245.4" gradientUnits="userSpaceOnUse"><stop offset="0" stop-color="#0ed47f"/><stop offset="1" stop-color="#0ac18e"/></linearGradient></defs><circle cx="245.4" cy="245.4" r="162.5" fill="url(#A)"/><path d="M310.5 182.6c-8.2-24.5-31.8-27.8-59.6-23.9l-8.1-34.7-21.1 4.9 7.9 33.8-16.8 4.1-7.9-34-21.1 4.9 8.1 34.7-13.4 3.3h0c0-.1-29.1 6.7-29.1 6.7l5.3 22.6 15.3-3.6c8.6-2 12.5 2.3 14.3 6.4l9.2 39.5c.6-.1 1.4-.3 2.3-.4l-2.2.5 12.9 55.4c.2 2.8-.3 7.4-6.3 8.8.3.2-15.4 3.6-15.4 3.6l1.7 26.2L214 335l15.1-3.4 8.2 35.1 21.1-4.9-8.1-34.7 16.9-3.8 8 34.6 21.1-4.9-8.1-35c35-10.3 57.8-25 53.1-59.1-3.8-27.4-19.2-36.5-40.5-36.6 10.8-9.1 15.9-21.9 9.8-39.8h0zm-12.1 81.9c6.1 26.2-39.5 33.7-53.8 37.1l-10.8-46.5c14.3-3.3 58.3-17.9 64.6 9.5h0zm-25.1-63.3c5.5 23.9-32.6 29.8-44.5 32.6l-9.8-42.2c11.9-2.8 48.5-15.3 54.3 9.6h0z" fill="#fff"/><path d="M322.9 12.5h0c-.2 0-.4-.1-.6-.2l1.2.4-.6-.2h0zm117.4 85.7c-.8-2.3-2-4.5-3.5-6.4a21.12 21.12 0 0 0-16.5-7.9c-6.2 0-9.3 1.5-13.2 4.7-2.6 2.1-4.6 4.7-5.9 7.5s-2 5.9-2 9c0 4.7 1.5 9.3 4.7 13.3 2 2.5 4.6 4.5 7.5 5.9 2.8 1.3 5.9 2 9 2 2.3 0 4.7-.4 6.9-1.2s4.4-1.9 6.3-3.5c2.5-2 4.5-4.6 5.9-7.5 1.3-2.8 2-5.9 2-9 0-2.4-.4-4.7-1.2-6.9h0zm32.2 54c-3.4-8.2-11.2-13.1-19.6-13.1-2.8 0-5.5.5-8 1.6-8.2 3.4-13.1 11.3-13.1 19.6h0c0 2.7.5 5.4 1.6 8 1.7 4.1 4.5 7.4 7.9 9.6 3.4 2.3 7.5 3.5 11.6 3.5 2.8 0 5.5-.5 8-1.6 8.2-3.4 13.1-11.3 13.1-19.6h0c0-2.7-.5-5.4-1.6-8h0zm17.1 68.1c-1.1-10.8-10.2-19-21-19-.7 0-1.5 0-2.2.1-10.8 1.1-19 10.2-19 21h0c0 .7 0 1.5.1 2.2.5 5.4 3.1 10.2 6.9 13.6s8.8 5.4 14.1 5.4c.7 0 1.5 0 2.2-.1 5.2-.5 10.1-3 13.6-6.9 3.4-3.8 5.4-8.8 5.4-14.1s0-1.4-.1-2.2h0zm-7.3 52.7c-3.1-3.7-7.4-6.4-12.5-7.4-1.3-.2-2.6-.4-3.9-.4-10 0-18.9 7.1-20.8 17.3-.2 1.3-.4 2.6-.4 3.9 0 10 7.1 18.9 17.3 20.8 1.3.2 2.6.4 3.9.4 5 0 9.7-1.8 13.4-4.8 3.8-3.2 6.5-7.6 7.4-12.5.2-1.3.4-2.6.4-3.9 0-5-1.8-9.7-4.8-13.4h0zm-18.8 63.2c-2-3.3-4.9-6.1-8.5-7.9-3.1-1.6-6.4-2.3-9.6-2.3-7.7 0-15.1 4.2-18.9 11.6-1.5 3-2.3 6.2-2.3 9.6h0a21.29 21.29 0 0 0 11.5 18.9c1.5.8 3.1 1.4 4.7 1.7 1.6.4 3.2.6 4.9.6h0c7.7 0 15.1-4.2 18.8-11.5a19.78 19.78 0 0 0 1.8-4.8c.4-1.7.6-3.2.6-4.9 0-3.8-1.1-7.6-3-10.9h0zm-40.6 48a20.92 20.92 0 0 0-14.5-5.8c-5.2 0-11.2 2.2-15.4 6.6-1.9 2-3.4 4.4-4.3 6.8-1 2.5-1.4 5.1-1.5 7.7 0 5.6 2.2 11.2 6.6 15.4 2 1.9 4.4 3.4 6.9 4.3 2.5 1 5.1 1.4 7.7 1.5 2.8 0 5.6-.6 8.2-1.7 2.7-1.1 5.1-2.8 7.1-5 1.9-2 3.3-4.3 4.3-6.8s1.4-5.1 1.5-7.7h0c0-5.7-2.2-11.3-6.6-15.4h0 0zm-114.2 98.4c.3 0 .6-.1.9-.2.2 0 .5-.1.7-.2l-1.6.4z" fill="url(#B)"/><path d="M394.6 61.3h0c0 2.2-.3 4.2-1 6.2-.6 2-1.6 4-2.9 5.8-2.1 2.9-4.7 5.2-7.7 6.8-3 1.5-6.3 2.3-9.7 2.3s-4.2-.3-6.2-.9-4-1.6-5.9-2.9c-1.2-.8-2.3-1.8-3.3-2.8-1.3-.5-2.6-1.2-3.9-1.9-30.5-19.4-65.6-30.2-101.9-31.5-2.3 0-4.6-.1-6.9-.1-112 0-203.1 91.1-203.1 203.1s88.4 200.4 198.1 203.1h5c37.7 0 74.5-10.3 106.4-30 9.9-6.1 23-3 29.1 6.9 6.1 10 3 23-6.9 29.1-19.8 12.2-41.2 21.5-63.5 27.6h-.2l-1.6.4c-20.5 5.5-41.8 8.3-63.2 8.3h-4.9-.7c-63.5-1.4-122.9-26.8-168-71.8-39.4-39.6-63.7-90.3-70-145v-.2-.1-.3-.3C.5 263.8 0 254.6 0 245.4 0 183.2 23 124.5 65 79c2.2-2.4 4.5-4.8 6.9-7.2C118.2 25.5 179.9 0 245.4 0l8.4.1C277.1.9 300.1 5 322 12.2h.2l1.2.4h.2c18.6 6.2 36.5 14.8 53.3 25.4 1.5 1 2.9 2.1 4 3.3 1.6.6 3.1 1.4 4.6 2.4a21.18 21.18 0 0 1 9.1 17.4h0z" fill="url(#C)"/></svg>