<?xml version="1.0" encoding="UTF-8"?><svg id="a" xmlns="http://www.w3.org/2000/svg" viewBox="0 0 409.6 409.6"><path d="M149.308,409.6H0V0h409.6v409.6h-148.51c-19.761-25.54-29.796-60.896-31.126-93.032-.769-18.592,2.054-19.601,10.366-33.92,6.389,5.609,13.413,7.903,21.558,9.581,23.512,4.846,45.243-2.019,57.779-23.263.927-1.571,1.974-6.035,2.901-6.68.955-.665,15.424-2.795,19.126-4.029,60.156-20.037,61.723-104.189,4.892-129.39,22.308-45.684-15.884-97.802-66.334-88.147-5.426,1.038-11.636,4.183-15.969,4.791C256.146,14.872,225.168-3.725,194.021,1.597c-22.133,3.782-42.063,22.427-47.918,43.914-52.285-21.344-100.777,20.996-85.196,76.026.503,1.776,3.207,6.001,2.861,7.332-.211.811-12.113,7.396-14.192,8.934-45.68,33.784-31.373,107.108,23.54,121.632,3.272.865,13.099,1.658,14.672,2.893.833.654,4.408,9.029,6.103,11.463,7.404,10.634,20.314,17.386,33.061,19.237,13.986,2.031,29.353.548,40.72-8.783,9.501,16.868,13.929,18.657,11.866,40.21-2.862,29.894-11.517,61.35-30.23,85.145Z" style="fill:#fefefe;"/><path d="M222.765,202.005l-16.658,103.508c.734,36.779,8.386,74.407,31.03,104.087h-87.828c18.712-23.795,27.368-55.251,30.23-85.145,2.064-21.554-2.365-23.343-11.866-40.21-2.13-3.781-4.214-7.431-6.388-11.178-4.364-7.525-18.219-28.11-20.134-34.554-2.824-9.506,10.962-15.84,17.698-11.314,11.592,10.764,21.133,29.173,32.35,39.508,4.332,3.991,6.334,2.536,7.908-2.526,5.384-17.316,4.91-40.391,10.476-58.19,2.416-5.217,8.266-5.084,13.182-3.985Z" style="fill:#be6101;"/><path d="M240.331,282.648c-8.313,14.319-11.135,15.329-10.366,33.92,1.329,32.136,11.364,67.492,31.126,93.032h-23.953c-22.645-29.68-30.296-67.308-31.03-104.087l16.658-103.508c4.021.899,6.717,2.109,7.213,6.782,1.222,11.502-5.558,30.865-5.635,43.166-.017,2.778.205,5.269,3.616,5.223,5.219-.069,20.458-23.392,27.959-23.257,6.13.111,8.762,6.426,6.941,11.779-2.355,6.924-17.642,28.531-22.528,36.949Z" style="fill:#9a4d02;"/><path d="M264.284,45.511c4.333-.607,10.543-3.752,15.969-4.791,38.935,9.487,59.314,51.81,41.586,88.147,58.779,26.501,54.275,113.762-9.308,130.567-3.043.804-13.449,1.794-14.689,2.877-.638.558-3.691,8.232-4.958,10.212-6.454,10.085-19.188,17.895-30.995,19.706-8.145-1.679-15.169-3.973-21.558-9.581,4.887-8.418,20.173-30.025,22.528-36.949,1.821-5.353-.81-11.668-6.941-11.779-7.501-.136-22.74,23.188-27.959,23.257-3.411.045-3.634-2.446-3.616-5.223.077-12.302,6.857-31.664,5.635-43.166-.497-4.673-3.192-5.883-7.213-6.782-4.916-1.099-10.765-1.232-13.182,3.985-5.566,17.799-5.092,40.874-10.476,58.19-1.574,5.062-3.577,6.517-7.908,2.526-11.216-10.335-20.758-28.744-32.35-39.508-6.736-4.525-20.523,1.808-17.698,11.314,1.915,6.444,15.771,27.029,20.134,34.554l-17.314,12.628-17.019,7.333c-12.747-1.851-25.657-8.603-33.061-19.237-1.695-2.434-5.27-10.809-6.103-11.463-1.573-1.235-11.401-2.028-14.672-2.893-54.914-14.524-69.221-87.848-23.54-121.632,2.079-1.538,13.981-8.123,14.192-8.934.346-1.331-2.358-5.556-2.861-7.332-15.581-55.03,32.911-97.37,85.196-76.026,5.855-21.487,25.785-40.132,47.918-43.914,8.167,3.438,15.832,6.348,23.083,11.649,15.845,11.586,23.35,35.604,47.18,32.265ZM92.622,130.939c-.255.26-5.63.655-7.179,1.213-46.419,16.733-31.012,85.083,13.83,83.111,18.066-.794,67.225-43.34,81.982-56.764,14.051-12.782,47.045-44.014,53.368-60.809,5.048-13.41-3.541-29.874-13.881-38.578-21.698-18.264-53.555-10.108-66.364,14.295-32.326-20.366-73.459,6.016-66.196,44.01.449,2.347,4.939,13.013,4.441,13.522Z" style="fill:#129a12;"/><path d="M261.888,292.229c11.808-1.811,24.542-9.621,30.995-19.706,1.267-1.98,4.32-9.654,4.958-10.212,1.24-1.083,11.646-2.073,14.689-2.877,63.583-16.806,68.087-104.066,9.308-130.567,17.728-36.337-2.651-78.66-41.586-88.147,50.45-9.654,88.642,42.463,66.334,88.147,56.831,25.201,55.264,109.353-4.892,129.39-3.702,1.233-18.172,3.364-19.126,4.029-.927.646-1.974,5.109-2.901,6.68-12.537,21.244-34.267,28.108-57.779,23.263Z" style="fill:#0a7c0a;"/><path d="M264.284,45.511c-23.83,3.339-31.335-20.679-47.18-32.265-7.251-5.302-14.916-8.211-23.083-11.649,31.147-5.322,62.125,13.275,70.263,43.914Z" style="fill:#0a7d0a;"/><path d="M161.285,273.067c2.173,3.748,4.258,7.397,6.388,11.178-11.368,9.331-26.734,10.814-40.72,8.783l17.019-7.333,17.314-12.628Z" style="fill:#049103;"/><path d="M92.622,130.939c.498-.508-3.992-11.175-4.441-13.522-7.263-37.994,33.87-64.376,66.196-44.01,12.809-24.402,44.667-32.559,66.364-14.295,10.34,8.704,18.929,25.168,13.881,38.578-6.323,16.795-39.317,48.028-53.368,60.809-14.757,13.424-63.916,55.97-81.982,56.764-44.842,1.971-60.249-66.378-13.83-83.111,1.549-.558,6.925-.953,7.179-1.213Z" style="fill:#28a428;"/></svg>