<svg xmlns="http://www.w3.org/2000/svg" width="34" height="36" fill="none" xmlns:v="https://vecta.io/nano"><path d="M17.779 35.081C8.285 35.081.564 27.282.564 17.704S8.285.327 17.779.327c6.595 0 12.688 3.884 15.535 9.884L34 11.653l-4.813 4.855-3.205-3.189 2.499-2.525c-2.314-3.649-6.36-5.939-10.702-5.939-6.994 0-12.688 5.765-12.688 12.839s5.694 12.839 12.688 12.839c4.342 0 8.387-2.29 10.702-5.939l-8.776-8.872a2.68 2.68 0 0 0-1.925-.807 2.7 2.7 0 0 0-1.925.807 2.79 2.79 0 0 0 0 3.925 2.68 2.68 0 0 0 1.925.808 2.7 2.7 0 0 0 1.925-.808l.778-.797 3.216 3.189-.789.797c-1.372 1.39-3.195 2.146-5.131 2.146s-3.758-.767-5.131-2.146c-2.816-2.842-2.816-7.472 0-10.314 1.372-1.38 3.185-2.147 5.131-2.147 1.935 0 3.758.767 5.131 2.147L34 23.725l-.686 1.441c-2.847 6.031-8.951 9.915-15.535 9.915z" fill="url(#A)"/><defs><linearGradient id="A" x1="33.99" y1="17.705" x2=".565" y2="17.705" gradientUnits="userSpaceOnUse"><stop offset=".1" stop-color="#00dec0"/><stop offset="1" stop-color="#00c5e5"/></linearGradient></defs></svg>