<?xml version="1.0" encoding="UTF-8"?><svg id="a" xmlns="http://www.w3.org/2000/svg" viewBox="0 0 409.6 409.6"><path d="M222.76,202.01l-16.66,103.51c.73,36.78,8.39,74.41,31.03,104.09h-87.83c18.71-23.8,27.37-55.25,30.23-85.14,2.06-21.55-2.37-23.34-11.87-40.21-2.13-3.78-4.21-7.43-6.39-11.18-4.36-7.52-18.22-28.11-20.13-34.55-2.82-9.51,10.96-15.84,17.7-11.31,11.59,10.76,21.13,29.17,32.35,39.51,4.33,3.99,6.33,2.54,7.91-2.53,5.38-17.32,4.91-40.39,10.48-58.19,2.42-5.22,8.27-5.08,13.18-3.99h0Z" style="fill:#be6101;"/><path d="M240.33,282.65c-8.31,14.32-11.13,15.33-10.37,33.92,1.33,32.14,11.36,67.49,31.13,93.03h-23.95c-22.65-29.68-30.3-67.31-31.03-104.09l16.66-103.51c4.02.9,6.72,2.11,7.21,6.78,1.22,11.5-5.56,30.87-5.63,43.17-.02,2.78.21,5.27,3.62,5.22,5.22-.07,20.46-23.39,27.96-23.26,6.13.11,8.76,6.43,6.94,11.78-2.36,6.92-17.64,28.53-22.53,36.95h0Z" style="fill:#9a4d02;"/><path d="M264.28,45.51c4.33-.61,10.54-3.75,15.97-4.79,38.93,9.49,59.31,51.81,41.59,88.15,58.78,26.5,54.27,113.76-9.31,130.57-3.04.8-13.45,1.79-14.69,2.88-.64.56-3.69,8.23-4.96,10.21-6.45,10.08-19.19,17.89-30.99,19.71-8.15-1.68-15.17-3.97-21.56-9.58,4.89-8.42,20.17-30.02,22.53-36.95,1.82-5.35-.81-11.67-6.94-11.78-7.5-.14-22.74,23.19-27.96,23.26-3.41.05-3.63-2.45-3.62-5.22.08-12.3,6.86-31.66,5.63-43.17-.5-4.67-3.19-5.88-7.21-6.78-4.92-1.1-10.76-1.23-13.18,3.99-5.57,17.8-5.09,40.87-10.48,58.19-1.57,5.06-3.58,6.52-7.91,2.53-11.22-10.33-20.76-28.74-32.35-39.51-6.74-4.52-20.52,1.81-17.7,11.31,1.91,6.44,15.77,27.03,20.13,34.55l-17.31,12.63-17.02,7.33c-12.75-1.85-25.66-8.6-33.06-19.24-1.69-2.43-5.27-10.81-6.1-11.46-1.57-1.23-11.4-2.03-14.67-2.89-54.91-14.52-69.22-87.85-23.54-121.63,2.08-1.54,13.98-8.12,14.19-8.93.35-1.33-2.36-5.56-2.86-7.33-15.58-55.03,32.91-97.37,85.2-76.03,5.85-21.49,25.79-40.13,47.92-43.91,8.17,3.44,15.83,6.35,23.08,11.65,15.85,11.59,23.35,35.6,47.18,32.27h0ZM92.62,130.94c-.25.26-5.63.65-7.18,1.21-46.42,16.73-31.01,85.08,13.83,83.11,18.07-.79,67.22-43.34,81.98-56.76,14.05-12.78,47.04-44.01,53.37-60.81,5.05-13.41-3.54-29.87-13.88-38.58-21.7-18.26-53.55-10.11-66.36,14.3-32.33-20.37-73.46,6.02-66.2,44.01.45,2.35,4.94,13.01,4.44,13.52h0Z" style="fill:#129a12;"/><path d="M261.89,292.23c11.81-1.81,24.54-9.62,30.99-19.71,1.27-1.98,4.32-9.65,4.96-10.21,1.24-1.08,11.65-2.07,14.69-2.88,63.58-16.81,68.09-104.07,9.31-130.57,17.73-36.34-2.65-78.66-41.59-88.15,50.45-9.65,88.64,42.46,66.33,88.15,56.83,25.2,55.26,109.35-4.89,129.39-3.7,1.23-18.17,3.36-19.13,4.03-.93.65-1.97,5.11-2.9,6.68-12.54,21.24-34.27,28.11-57.78,23.26h0Z" style="fill:#0a7c0a;"/><path d="M264.28,45.51c-23.83,3.34-31.33-20.68-47.18-32.26-7.25-5.3-14.92-8.21-23.08-11.65,31.15-5.32,62.12,13.27,70.26,43.91Z" style="fill:#0a7d0a;"/><path d="M161.29,273.07c2.17,3.75,4.26,7.4,6.39,11.18-11.37,9.33-26.73,10.81-40.72,8.78l17.02-7.33,17.31-12.63h0Z" style="fill:#049103;"/><path d="M92.62,130.94c.5-.51-3.99-11.18-4.44-13.52-7.26-37.99,33.87-64.38,66.2-44.01,12.81-24.4,44.67-32.56,66.36-14.29,10.34,8.7,18.93,25.17,13.88,38.58-6.32,16.79-39.32,48.03-53.37,60.81-14.76,13.42-63.92,55.97-81.98,56.76-44.84,1.97-60.25-66.38-13.83-83.11,1.55-.56,6.93-.95,7.18-1.21h0Z" style="fill:#28a428;"/></svg>