<svg xmlns="http://www.w3.org/2000/svg" viewBox="0 0 44.2 24" fill="#5022ed" xmlns:v="https://vecta.io/nano"><path d="M38.1 2.4l-2.4 3.5c-.7-.3-1.6-.5-2.5-.5s-1 0-1.5.2h-.2c-.7.2-1.5.5-2.1 1 0 0-.1 0-.2.1-.5.4-1.1.9-1.5 1.5-1.6 2-2.8 4.8-4.9 7.9-.2.3-.4.6-.7.9-1.6 2.2-3.8 4.1-6.3 5.3a.76.76 0 0 0-.4.2c-.3.1-.7.3-1.1.4-.3 0-.5.1-.7.2-.7.1-1.4.3-2.1.3H11a10.97 10.97 0 0 1-11-11C0 6.3 4.9 1.3 11 1.3s5.6 1.1 7.6 3.1l-2.4 3.5c-2.4-3-6.8-3.3-9.6-.8-2.9 2.4-3.2 6.8-.8 9.7 1.3 1.6 3.2 2.4 5.2 2.4h.5c.9 0 1.8-.3 2.6-.7h0c2.4-1.1 4.3-3.5 7.5-9.2.1-.2.3-.5.4-.7 1.1-2 2.6-3.7 4.3-5.1 0 0 .1 0 .2-.1 0 0 .2-.1.3-.2.2-.1.4-.3.6-.4.3-.1.5-.3.8-.4h.2c.1-.2.3-.3.3-.3.1 0 .3-.1.5-.2a11.4 11.4 0 0 1 8.7.5zm6.1 7.8v2.1 1.2c0 .3 0 .6-.1 1-1.2 6.1-6.9 10-12.9 8.8-2-.4-3.9-1.4-5.4-2.7l2.4-3.5c2.6 2.8 6.9 3 9.7.4.9-.8 1.6-1.8 1.9-3H33l2.9-4.2h8.5z"/></svg>