<?xml version="1.0" encoding="UTF-8"?><svg id="a" xmlns="http://www.w3.org/2000/svg" viewBox="0 0 650.88 436.8"><path d="M389.473.013h5.756c.474.024.967-.038,1.439,0,20.655,1.657,48.278,18.967,66.512,29.166,21.645,12.107,42.737,25.186,63.643,38.507,4.353,7.868-2.519,6.513-7.536,4.656-40.526-14.996-98.848-66.091-143.609-53.756-31.912,8.794-69.881,41.362-101.001,55.342-15.384,6.911-21.107-6.919-8.615-16.283C286.21,42.542,364.081,1.958,387.554.013h1.919Z" style="fill:#ed3439;"/><path d="M527.013,363.078c2.287,2.218-.768,5.112-2.218,6.42-14.534,13.11-58.085,35.724-76.966,45.806-53.159,28.383-63.387,26.496-117.044-.149-10.538-5.233-65.658-34.258-70.053-40.729-4.505-6.632-1.736-13.624,6.191-14.382,33.597,13.859,63.061,38.581,96.478,53.194,53.35,23.33,107.818-31.994,155.405-49.247,1.969-.714,6.41-2.655,8.207-.912Z" style="fill:#ed3439;"/><path d="M345.252,310.848c4.345.046,8.675-.779,12.938.679,9.807,3.354,6.725,17.841-2.993,18.371-98.731-3.141-197.762-1.556-296.456-5.275-3.152-.119-15.368-.142-16.75-1.954-3.109-4.077,2.363-6.369,5.721-6.227,99.107.805,198.485-6.631,297.541-5.594Z" style="fill:#1863a1;"/><path d="M238.864,210.016h-16.308v-44.829c0-8.389-7.765-14.154-15.315-9.076-3.607,2.427-5.79,10.719-5.79,14.829v39.076h-16.308v-44.829c0-11.281-13.248-15.267-18.309-5.356-6.028,11.807-1.156,36.823-2.796,50.185h-16.308v-70.001h12.471c.474,0,1.469,8.552,2.647,9.104.399.187,3.22-4.301,4.049-5.048,7.515-6.772,20.958-7.068,28.58-.243,1.031.923,3.406,5.319,4.296,5.329.612.007,5.641-6.742,9.02-8.276,13.753-6.243,30.07,1.543,30.07,17.592v51.542Z" style="fill:#777;"/><path d="M268.602,140.015c.382.266,1.579,8.792,1.922,9.107.444.407,6.284-6.824,8.93-8.088,6.396-3.055,15.792-2.853,21.921.979,2.361,1.476,5.856,7.086,6.328,7.159.697.107,6.746-7.492,10.797-8.902,15.002-5.222,28.764,3.513,28.764,19.643v50.104h-16.308v-42.912c0-19.147-21.104-15.423-21.104,1.918v40.994h-16.308v-42.912c0-19.119-21.104-16.068-21.104,3.356v39.555h-16.308v-70.001c1.784.348,11.808-.462,12.471,0Z" style="fill:#777;"/><path d="M617.305,210.016h-11.272c-.895,0-2.917-9.529-3.837-9.578-.491-.026-4.442,5.7-6.701,7.194-29.012,19.18-47.597-31.41-15.905-39.392,4.083-1.029,20.643-1.1,21.41-1.852,1.378-1.351-1.166-10.163-3.677-11.912-7.816-5.443-20.684,3.689-22.417,3.234-.767-.201-5.868-12.208-5.606-13.065.45-1.467,13.51-5.206,15.703-5.516,14.275-2.018,32.302,2.741,32.302,20.303v50.583ZM600.997,177.412c-8.478.254-20.866.124-20.662,11.751.24,13.689,20.662,8.385,20.662-3.361v-8.391Z" style="fill:#777;"/><path d="M99.663,139.192c44.685-5.607,44.595,67.824,9.872,71.718-43.461,4.874-44.083-67.425-9.872-71.718ZM102.042,154.515c-13.039,2.346-15.095,43.759,5.113,41.07,13.887-1.848,16.053-44.878-5.113-41.07Z" style="fill:#777;"/><path d="M64.273,205.94c-1.426,4.146-22.197,5.385-26.155,5.049-43.153-3.659-41.703-89.706,1.44-93.523,4.225-.374,26.933,1.815,27.035,7.316.014.751-4.099,13.868-4.743,14.255-.812.488-13.228-5.766-17.967-5.771-20.099-.019-21.47,29.114-18.803,43.291,4.324,22.988,21.436,20.291,39.195,13.801-.745,3.61.996,12.686,0,15.582Z" style="fill:#777;"/><path d="M415.853,179.81h-38.851c.762,21.713,21.039,19.13,35.494,11.986v14.863c0,.6-10.046,3.473-11.417,3.69-29.698,4.695-42.696-13.254-40.371-41.314,3.564-43,55.146-35.916,55.146-4.808v15.582ZM400.505,167.344c.755-20.173-23.194-20.041-23.023,0h23.023Z" style="fill:#777;"/><path d="M166.573,104.884c-1.938-2.27,1.279-4.652,3.454-4.672,54.798-.002,109.738-4.383,164.503-4.331,4.054.004,12.685-.634,16.104.251,7.051,1.825,6.062,13.968-1.667,14.181-55.751-2.077-111.714-1.377-167.437-3.843-2.602-.115-13.898-.345-14.956-1.586Z" style="fill:#1963a1;"/><path d="M519.937,206.18c-.129.283-4.772,2.593-5.507,2.886-48.598,19.338-54.816-65.257-16.662-69.876,3.449-.418,23.074.481,23.927,4.888.142.731-4.004,13.774-4.644,14.155-.978.583-13.95-8.157-21.59-1.212-6.649,6.044-6.78,27.914-1.142,34.73,6.294,7.609,19.044,2.862,25.617-1.874-.701,3.083.932,14.259,0,16.302Z" style="fill:#777;"/><path d="M591.404,240.222c.296.249.577,7.302.963,7.668.612.581,7.172-7.526,14.272-8.502,23.868-3.279,31.272,18.052,28.339,37.918-3.405,23.069-26.327,30.039-42.611,14.221l.476,33.559h-8.394c-.051,0-.719-.668-.719-.719v-84.145c1.147.202,7.349-.274,7.674,0ZM605.2,247.06c-17.116,2.651-16.641,40.425-1.237,44.615,28.769,7.825,31.701-49.334,1.237-44.615Z" style="fill:#777;"/><path d="M21.584,220.564v38.357l35.254-38.357h10.792c-2.813,4.846-30.839,31.59-31.117,33.872-.331,2.713,29.594,38.237,32.076,44.28h-10.312c-2.33,0-24.795-35.705-28.065-37.186-1.018-.461-8.628,6.184-8.628,6.74v30.446h-9.113v-78.152h9.113Z" style="fill:#777;"/><rect x="634.092" y="112.685" width="16.308" height="97.33" style="fill:#777;"/><path d="M467.895,139.056c.85.357.026,17.682-.723,18.221-.319.23-5.946-.678-7.854-.425-8.164,1.084-13.726,8.395-13.726,16.485v36.679h-16.308v-70.001h12.231c.866,0,2.192,11.926,2.875,11.984,1.003.084,7.492-12.942,14.872-12.942,1.474,0,7.962-.282,8.634,0Z" style="fill:#777;"/><path d="M205.289,215.769c1.153,1.153-.632,28.724-.474,32.6,9.05-14.545,40.284-12.019,40.284,7.914v42.432h-9.113v-41.953c0-14.09-30.697-14.126-30.697,5.274v36.679h-9.113v-82.946c1.289.24,8.791-.322,9.113,0Z" style="fill:#777;"/><path d="M415.853,287.688c.517-.586,12.511,3.488,15.177,3.768,7.94.831,22.418.76,24.414-9.501,4.688-24.092-40.274-13.227-38.615-43.877.874-16.152,17.786-19.499,30.851-18.403,1.939.163,14.545,2.857,15.129,3.818.219.36-2.012,7.865-2.373,8.082-.706.424-12.463-3.659-16.028-3.835-9.814-.482-19.41,2.265-18.002,14.159,2.068,17.469,45.365,10.799,38.037,41.859-3.541,15.006-21.695,16.938-34.456,15.932-1.606-.127-14.134-2.256-14.134-3.612,0-1.229-.277-8.076,0-8.391Z" style="fill:#777;"/><path d="M269.082,271.387c-.82.775,1.936,10.219,2.792,11.833,6.748,12.724,24.161,9.092,35.1,4.948v8.151c0,.636-11.152,3.169-12.3,3.288-24.081,2.492-36.756-10.772-34.691-34.678,3.143-36.383,49.389-31.031,49.389-3.85v9.589c0,.051-.669.719-.719.719-4.973,0-38.133-1.359-39.571,0ZM299.779,263.715c1.175-23.654-30.083-22.335-30.218,0h30.218Z" style="fill:#777;"/><path d="M536.62,239.399c41.25-5.161,41.203,56.518,9.872,60.211-40.52,4.776-41.173-56.295-9.872-60.211ZM537.57,247.061c-22.486,3.339-16.708,57.479,12.427,43.587,13.89-6.624,15.311-47.705-12.427-43.587Z" style="fill:#777;"/><path d="M373.165,298.716h-9.113v-42.432c0-13.058-30.697-14.525-30.697,6.712v35.72h-9.113v-58.494h7.674c.389,0,.429,7.447,1.205,7.677.407.121,4.744-4.743,6.321-5.668,11.278-6.621,33.724-2.858,33.724,13.094v43.391Z" style="fill:#777;"/><rect x="533.846" y="140.015" width="16.308" height="70.001" style="fill:#777;"/><path d="M182.266,296.558c-1.144,3.082-16.164,3.415-18.961,3.132-30.477-3.087-30.452-57.658.961-60.441,2.854-.253,18.449.286,18.879,3.511.049.368-2.024,6.832-2.323,7.052-.996.73-14.116-6.851-23.722.493-8.276,6.327-8.348,24.513-4.318,33.055,5.518,11.695,19.363,9.277,29.485,5.767-.374,1.774.51,6.058,0,7.432Z" style="fill:#777;"/><path d="M489.239,226.797v13.425h16.788c-.164.916.519,7.192-.719,7.192h-16.068v37.158c0,11.628,16.541,6.17,17.264,6.952.229.247.077,6.248-.224,6.726-.996,1.585-11.356,1.642-13.387,1.369-6.734-.906-12.767-7.103-12.767-14.088v-38.117h-8.154c-2.242-7.311,5.836-5.513,8.185-8.486,3.134-3.965.165-14.629,9.082-12.13Z" style="fill:#777;"/><path d="M115.115,226.797v13.425h17.267v6.712h-16.548c-.051,0-.719.668-.719.719v35.001c0,14.521,16.95,8.011,17.744,8.869.237.256.179,6.304-.47,6.96-2.116,2.141-14.515,1.105-17.607-.154-4-1.63-8.301-7.577-8.301-11.839v-38.836c0-.051-.669-.719-.719-.719h-7.914c-2.306-6.548,6.294-5.222,8.501-7.804,3.025-3.54.237-15.198,8.767-12.333Z" style="fill:#777;"/><rect x="78.182" y="240.222" width="8.634" height="58.494" style="fill:#777;"/><circle cx="542.138" cy="122.11" r="9.515" style="fill:#777;"/><path d="M78.829,219.771c6.243-6.152,12.903,6.063,7.011,9.646-6.574,3.998-11.479-5.243-7.011-9.646Z" style="fill:#777;"/></svg>