<svg xmlns="http://www.w3.org/2000/svg" viewBox="0 0 2500 2500" xmlns:v="https://vecta.io/nano"><path d="M1250 0L167.1 625v1250L1250 2500l1082.9-625V625L1250 0h0zm0 0L167.1 625v1250L1250 2500l1082.9-625V625L1250 0h0z" fill="#fff"/><path d="M1677.5 2011.7h-154.1L1339 1842.4v-86.8l191-182.3v-288.6l249.6-162.8 284.3 214.8-386.4 675h0zm-638-455.7l28.2-271.3-93.3-243.1h551.2l-91.2 243.1 26.1 271.3h-212.7-208.3 0zm125.9 286.4l-184.5 171.4H824.6l-388.5-677.1L722.6 1124l251.7 160.6v288.6l191 182.3.1 86.9h0zm-342.9-1302h852.9l102 434H722.7l99.8-434h0zM1250 0L167.1 625v1250L1250 2500l1082.9-625V625L1250 0h0z" fill="#03316c"/></svg>