<?xml version="1.0" encoding="UTF-8"?>
<svg id="Layer_1" xmlns="http://www.w3.org/2000/svg" xmlns:xlink="http://www.w3.org/1999/xlink" version="1.1" viewBox="0 0 338.8 443.1">
  <!-- Generator: Adobe Illustrator 29.3.1, SVG Export Plug-In . SVG Version: 2.1.0 Build 151)  -->
  <defs>
    <style>
      .st0 {
        fill: #d1ced9;
      }

      .st0, .st1, .st2, .st3 {
        fill-rule: evenodd;
      }

      .st4 {
        stroke: #201446;
        stroke-miterlimit: 4;
        stroke-width: 6px;
      }

      .st4, .st5 {
        fill: none;
      }

      .st6, .st7 {
        fill: #fff;
      }

      .st1 {
        fill: #201446;
      }

      .st2 {
        fill: url(#linear-gradient);
      }

      .st5 {
        stroke: #ececec;
        stroke-width: 9px;
      }

      .st7 {
        fill-opacity: .4;
      }

      .st3 {
        fill: #0ac08d;
      }

      .st8 {
        fill: #0c88b4;
        fill-opacity: .5;
      }

      .st9 {
        fill: #ececec;
      }
    </style>
    <linearGradient id="linear-gradient" x1="350.2" y1="308.8" x2="150.2" y2="295.5" gradientTransform="translate(0 422.4) scale(1 -1)" gradientUnits="userSpaceOnUse">
      <stop offset="0" stop-color="#0ac18e"/>
      <stop offset="1" stop-color="#23a6d5"/>
    </linearGradient>
  </defs>
  <path class="st5" d="M40.6,72.8C21.4,150.9,2.9,315.2,83.1,347"/>
  <path class="st5" d="M327.6,193.1c-42.2,68.5-146.4,196.8-225.4,161.9"/>
  <path class="st2" d="M325.8,108.3c17.5,42.8,17.3,90.7-.6,133.4l-5.3-2.2c-1.7-16.8-12.3-32.2-29-39.2-16.7-7-35.1-3.8-48.3,6.7l-41.3-17.3c-1.7-16.8-12.3-32.2-29-39.2-16.7-7-35.1-3.8-48.3,6.7l-37.5-15.7c-1.7-16.8-12.3-32.2-29-39.2-16.7-7-35.1-3.8-48.3,6.7l-5.3-2.2C21.7,64.2,55.8,30.5,98.6,13c42.8-17.5,90.7-17.3,133.4.6,42.6,17.9,76.4,51.9,93.9,94.7Z"/>
  <rect class="st9" x="28.4" y="239.9" width="207.4" height="12.4" transform="translate(-145.9 272.8) rotate(-67.2)"/>
  <path class="st7" d="M309.3,186.4c3.6,1.5,7.7-.3,8.9-3.9,3.8-11.4,5.7-23.5,5.6-35.6-.1-14.4-3-28.7-8.7-42-5.6-13.3-13.8-25.4-24.1-35.5-8.6-8.5-18.6-15.5-29.4-20.7-3.5-1.7-7.6,0-9,3.6l-.7,1.7c-1.5,3.6.3,7.6,3.7,9.4,8.9,4.4,17.1,10.3,24.3,17.3,8.8,8.7,15.8,19,20.6,30.4,4.8,11.4,7.3,23.6,7.4,35.9,0,10-1.5,20-4.5,29.5-1.2,3.7.5,7.8,4.1,9.2l1.7.7Z"/>
  <path class="st7" d="M237.4,56.1c3.7-1.1,5.8-5.1,4.4-8.7-.5-1.3-1-2.6-1.5-3.9-1.5-3.6-5.7-5-9.2-3.2l-1.7.8c-3.5,1.7-4.8,5.9-3.4,9.5.2.5.4,1,.6,1.4,1.4,3.6,5.3,5.7,9,4.6l1.8-.5Z"/>
  <path class="st8" d="M109,32.5c-.7-3.8-4.3-6.3-8.1-5.4-14.1,3.5-27.4,9.8-39.1,18.4-11.7,8.7-21.5,19.6-28.9,32.1-2,3.3-.6,7.6,2.8,9.3l1.7.9c3.4,1.8,7.6.4,9.6-2.9,6.3-10.3,14.5-19.3,24.2-26.6,9.7-7.2,20.7-12.5,32.4-15.5,3.7-1,6.3-4.6,5.6-8.4l-.3-1.8Z"/>
  <circle class="st6" cx="90.3" cy="351.9" r="87.5" transform="translate(-222.4 166.9) rotate(-45)"/>
  <path class="st3" d="M110.2,289.3c-3.2-1-6.2-1.7-8.5-2.1-.3,0-.9-.2-1.3-.2-1.6-.3-8.1-.9-8.3-.7,0,0-.2,0-.3,0-.1,0-.5,0-.9,0-.4,0-1,0-1.3,0-1.6,0-4.6.2-5.6.3-.3,0-1,.1-1.5.2-.5,0-1.3.2-1.9.3-.6,0-1.2.2-1.4.2-.2,0-.4,0-.5,0,0,0-.8.2-1.7.4s-1.7.4-1.9.4c-.2,0-.4.1-.5,0,0,0-.3,0-.6.1s-.5.2-.5.1c0,0-.3,0-.5.1-.2,0-.8.3-1.3.4-.4.1-.9.3-1,.3-.1,0-.7.2-1.4.4-1.5.5-6.3,2.4-7.7,3.1-.6.3-1.2.6-1.3.6-.1,0-.6.3-1,.5-.4.2-.9.5-1.2.6-.2.1-.4.2-.5.3,0,0-.2.2-.5.3-.2.1-.5.2-.6.3-.5.4-2.3,1.5-2.5,1.6-.1,0-.3.2-.3.2,0,0-.2.2-.4.3-.2,0-.5.3-.6.4-.2.1-.7.5-1.2.8-.8.6-1.3,1-2.2,1.7-.3.2-.5.4-.6.4-.2,0-3.1,2.7-4.2,3.7-.2.2-.6.6-.9.9-.3.3-.6.6-.6.6,0,0-.1.2-.3.3-.1,0-.3.3-.5.4-.4.4-2.9,3.3-3.3,3.8-.2.2-.6.8-1,1.3-.4.5-.8,1.1-1,1.3-3.9,5.6-5.1,7.9-7.4,13.3-2.1,4.9-2.9,7.5-3.8,12.3-.5,2.7-.6,2.8-.7,3.9,0,.6-.2,1.3-.2,1.6,0,.6-.4,4.4-.4,5,0,.2,0,.5,0,.7,0,.1,0,.3,0,.4,0,0,0,.5,0,.9,0,.4,0,1,0,1.3,0,1.5.2,5.4.3,5.6,0,0,0,.4.1.7.1,1.2.2,1.8.3,2.8,0,.6.2,1.2.2,1.4,0,.2,0,.4,0,.5,0,0,.2.9.4,1.8.2.9.4,1.8.4,1.9,0,.1,0,.3,0,.3,0,0,0,.3.1.6.1.3.2.5.1.5,0,0,0,.3.1.5,0,.2.3.8.4,1.3.1.4.3.9.3,1,0,.1.2.7.4,1.4.5,1.5,2.4,6.3,3.1,7.7.3.6.6,1.2.6,1.3,0,.1.3.6.5,1,.2.4.5.9.6,1.2.1.2.2.4.3.5,0,0,.2.2.3.5.1.3.2.5.3.5,0,0,.2.2.3.4,0,.2.4.7.8,1.2.3.5.6,1,.6,1,0,0,0,.2.2.2,0,0,.2.2.3.4,0,.2.3.5.4.6.1.2.5.7.9,1.2.3.5.9,1.2,1.2,1.5.3.4.7.9.9,1.2.6.8,2.7,3.1,3.7,4.2.2.2.6.6.9.9.3.3.6.6.7.6.1,0,.2.1.2.2,0,.2,5,4.5,6.3,5.4.3.2.8.5,1,.7.8.5,2.3,1.6,3.4,2.2.9.6,1.7,1,4.4,2.5,1.5.8,8.5,3.8,10.2,4.3,3.6,1.1,6.1,1.7,8.7,2.2.3,0,.9.2,1.3.2,1,.2,2.4.3,5,.6,2.2.2,2.7.2,3.3.2.1,0,.3,0,.4,0,0,0,.5,0,.9,0,.4,0,1,0,1.3,0,1.6,0,4.6-.2,5.6-.3.4,0,1-.1,1.5-.2.5,0,1.3-.2,1.9-.3.6,0,1.2-.2,1.4-.2s.6-.1.7-.2c.2,0,.4,0,.5,0,0,0,.2,0,.2,0,0,0,.6-.2,1.2-.3.6-.1,1.2-.3,1.4-.3.2,0,.4-.1.5,0,0,0,.3,0,.6-.1.3-.1.5-.2.5-.1,0,0,.3,0,.5-.1s.8-.2,1.2-.4c.4-.1.9-.3,1-.3.2,0,.8-.3,1.4-.5,1.5-.5,6.3-2.4,7.7-3.1.6-.3,1.2-.6,1.3-.6.2,0,.6-.3,1-.5.4-.2.9-.5,1.1-.6.2-.1.4-.2.5-.3,0,0,.2-.2.5-.3.2-.1.5-.2.6-.3.5-.3,2.3-1.5,2.6-1.6.2,0,.4-.2.4-.3,0,0,.1-.1.3-.2.1,0,.4-.2.6-.3.2-.1.7-.5,1.2-.8.8-.6,1.3-1,2.2-1.7.3-.2.5-.4.6-.4.2,0,3.1-2.7,4.2-3.7.2-.2.6-.6.9-.9.3-.3.6-.6.6-.6,0,0,.1-.2.3-.3.5-.4.8-.8,2.2-2.4,1.7-2,2.6-3.1,3.2-3.9.2-.3.6-.8.7-1,1.6-2.3,3.2-4.9,4.7-7.7.9-1.8,3.6-8.2,4.3-10.2.9-2.8,1.7-6.2,2.2-8.8,0-.3.2-.9.2-1.3.2-.9.3-2.3.5-4.9.2-2.2.2-2.7.2-3.3,0-.1,0-.3,0-.4,0,0,0-.5,0-.9,0-.4,0-1,0-1.3,0-1.5-.2-5.4-.3-5.6,0,0,0-.4-.1-.7-.1-1.2-.2-1.8-.3-2.8,0-.6-.2-1.2-.2-1.4,0-.2-.1-.5-.2-.7,0-.2,0-.4,0-.5,0,0,0-.2,0-.4,0-.2-.5-2.3-.6-2.9,0-.1-.1-.4-.2-.7,0-.2-.1-.5-.1-.5,0,0,0-.3-.1-.5,0-.2-.3-.8-.4-1.3-.1-.4-.3-.9-.3-1,0-.1-.2-.7-.4-1.4-.5-1.5-2.4-6.3-3.1-7.7-.3-.6-.6-1.2-.6-1.3,0-.1-.3-.6-.5-1-.2-.4-.5-.9-.6-1.2-.1-.2-.2-.4-.3-.5,0,0-.2-.2-.3-.5-.1-.2-.2-.5-.3-.5,0,0-.2-.2-.3-.4,0-.2-.4-.7-.8-1.3-.3-.5-.6-1-.7-1.2,0-.1-.1-.3-.2-.3,0,0-.2-.2-.2-.3,0-.1-.2-.4-.3-.6-.1-.2-.5-.7-.9-1.2-.3-.5-.9-1.2-1.2-1.5-.3-.4-.7-.9-.9-1.2-.6-.8-2.7-3.1-3.7-4.2-.2-.2-.6-.6-.9-.9-.3-.3-.6-.6-.7-.6-.1,0-.2-.1-.2-.2,0-.2-5-4.4-6.4-5.4-.3-.2-.8-.6-1-.7-2.1-1.5-4.5-3-7.7-4.7-1.4-.8-8.8-3.9-10.4-4.3ZM103,312.8c-.8-.1-1.4-.2-2.1-.3-1.2-.2-4.4-.6-4.4-.6,0,0,0,.2-.1.5,0,.4-.1,1.2-.4,2.8,0,.3-.1.8-.2,1.1,0,.3-.1.8-.2,1.1,0,.3-.1.8-.2,1.1,0,.3-.1.8-.2,1.1,0,.3-.2,1.1-.3,1.7-.3,2-.3,2.1-.4,2.2,0,0-.5,0-1,0-.5,0-1.1-.2-1.4-.2-.3,0-.8-.1-1.1-.2-.3,0-.8-.1-1-.1-.7,0-.9-.2-.8-.6,0-.2,0-.5.1-.7,0-.2,0-.5.1-.8,0-.5.5-3.6.8-5.8.2-1.4.3-1.9.5-3,0-.6.1-1,0-1.1,0,0-.2,0-.3,0-.2,0-1,0-2.7-.3-.6,0-1.4-.2-2.2-.3-.3,0-.8-.1-1.1-.2-.3,0-.7,0-.7,0,0,0-.2.7-.3,1.6-.1.8-.3,1.8-.3,2.1,0,.3-.1.8-.2,1.1,0,.3-.1.8-.2,1.1,0,.3-.1.9-.2,1.4-.3,2.1-.5,3.6-.6,4.1-.1.5-.2.5-.5.4-.2,0-.7-.1-1-.2-.3,0-.8-.1-1.1-.2-.3,0-.9-.1-1.5-.2s-1.2-.2-1.4-.2c-.2,0-1.1-.2-2-.3-.9-.1-2.1-.3-2.6-.4-.5,0-1.2-.2-1.6-.2-.4,0-1.1-.2-1.7-.3-.9-.2-1.1-.1-1.2,0,0,.1-.2,1.2-.4,2.3-.2,1.1-.4,2.7-.5,3.5-.1.8-.2,1.5-.2,1.6,0,.1.2.2,2.7.5,3.4.5,4.1.7,4.8,1.3.8.8,1.4,1.9,1.3,2.8,0,.2-.1.8-.2,1.4,0,.6-.2,1.6-.3,2.2,0,.6-.2,1.3-.2,1.6,0,.3-.1.8-.2,1.1,0,.3-.1.8-.2,1.1,0,.5-.2,1.3-.7,4.8-.1.7-.2,1.6-.3,1.9,0,.3-.1.8-.2,1.1,0,.3-.1.8-.2,1.1,0,.3-.2.9-.2,1.4-.1,1-.6,4.4-.7,5.2,0,.3-.1.8-.2,1.1s-.1.8-.2,1.1c0,.3-.2.9-.2,1.4-.1.9-.4,3.3-.6,4.1,0,.3-.1.8-.2,1.1-.2,1.3-.7,2-1.6,2.4-.8.3-1.3.3-4-.1-3-.5-2.8-.5-3.1.5-.3.8-.5,1.6-1.8,5.5-.3,1-.6,1.9-.5,1.9,0,.1.3.2,1.7.4.3,0,.8.1,1.1.2.6.1,3.2.5,5.8.8.8.1,1.7.2,2,.3.3,0,.8.1,1.1.2,2.6.4,2.7.4,2.6.9-.1.5-.2,1.3-.4,2.7-.1,1.1-.2,1.6-.4,2.7,0,.3-.2,1.6-.4,2.8-.2,1.3-.3,2.4-.4,2.6,0,.5,0,.6.6.7.3,0,.8.1,1.1.2s.8.1,1.1.2c.3,0,.8.1,1.1.2,3.1.5,3.3.5,3.3.2s0-.5,0-.8c.1-.8.4-2.3.5-3.3,0-.3.1-.8.2-1.1,0-.3.2-1.3.3-2.3.1-.9.3-2.3.4-3l.2-1.3h.4c.2,0,.5,0,.6.1.1,0,.4.1.7.1.5,0,1.9.3,2.8.4.3,0,.7.1.9.1.4,0,.4.2.3,1.1,0,.5-.7,4.4-.9,6.1,0,.6-.2,1.3-.2,1.6,0,.3-.1.8-.2,1.1,0,.3-.1.8-.2,1.1,0,.3,0,.7,0,.8,0,.1.8.3,2.4.5,2.7.4,3.2.5,4,.6.3,0,.6,0,.7,0,0,0,.3-1,.4-2.1.3-2.1.4-2.7.6-3.7,0-.3.2-1,.2-1.7.6-4.2.6-4.5,1-4.3.1,0,.9.2,1.7.2,1.6.2,1.7.2,2.8.1.4,0,.8,0,.8,0,.1,0,2.7-.1,2.8-.2,0,0,.4,0,.8-.1.4,0,.8,0,.9-.2.1,0,.3,0,.4,0,0,0,.2,0,.3,0,.1,0,.6-.2,1-.3,1.7-.5,4.5-1.8,5.6-2.6.2-.2.5-.4.5-.4.2,0,1.6-1.4,2-2,.8-1.1,1.1-1.4,1.8-2.6.9-1.6,1.6-4,1.8-5.9,0-.6,0-2.3-.2-2.4,0,0,0-.2,0-.2,0,0,0-.4-.1-.7,0-.3-.1-.6-.1-.6,0-.2-1.4-3.6-1.7-4.2-.2-.3-.3-.5-.4-.6,0-.2-.8-1.3-1.4-2-1.2-1.4-3-3-3.8-3.4-.4-.2-.4-.2.4-.5.3-.1.9-.4,1.2-.6.3-.2.6-.4.7-.4.1,0,.4-.3,1.5-1.1.2-.2.6-.6.9-.9,1.4-1.7,2.2-3.2,2.6-5.2.1-.6.3-1.3.3-1.6,0-.2,0-.5,0-.6,0,0,0-.2,0-.4.1-.3-.1-2.9-.3-3.3,0,0-.1-.4-.2-.7-.2-.8-.6-1.7-1-2.4-.2-.3-.4-.6-.4-.7,0-.1-1-1.3-1.3-1.7-2-2.1-4.2-3.6-7.7-4.9-1.9-.7-4-1.4-4.6-1.5-.1,0-.2-.2-.1-.3,0-.2,0-.4,0-.5,0-.3.6-4.5.9-6.1,0-.3.2-1.3.3-2.3.1-.9.3-1.9.3-2.1,0-.5,0-.5-.7-.6ZM96.9,332.5c-.7-.2-1.5-.4-1.8-.5-.4,0-.9-.1-1.2-.2-.7-.1-2.6-.4-4.3-.6-1.2-.1-1.5-.2-1.5-.1,0,0-.2,1.1-.3,2.1,0,.2-.1.9-.2,1.5-.2,1.1-.3,2-.5,3.5,0,.5-.1,1-.2,1.3,0,.3-.1,1-.2,1.6,0,.6-.2,1.3-.2,1.6,0,.3-.1.8-.2,1.1,0,.3,0,.7-.1.9,0,.5.4.6,3.6,1.2,1.9.3,2.2.4,3.5.5,1.8.1,4.2,0,4.8-.2.1,0,.3,0,.3,0,.2,0,1.9-.6,2.5-1.1.3-.2.8-.6,1-.9.2-.2.5-.5.6-.6.1,0,.5-.8.8-1.6.6-1.3.6-1.6.6-2.3,0-.4,0-.9-.1-1,0-.1,0-.3,0-.4,0-.2-.7-2.1-.9-2.2,0,0-.2-.2-.2-.3-.5-1.2-3.1-2.7-5.8-3.6ZM95.8,354.6c-.6-.2-1.3-.4-1.7-.4-1.8-.4-2.4-.5-2.8-.6-.3,0-.9-.1-1.4-.2-.5,0-1.1-.2-1.4-.2-.2,0-.7,0-1-.1-.3,0-.8,0-1.1-.1-.3,0-.7,0-.9-.1-.7-.1-.7-.1-1.1,3.3,0,.5-.2,1.4-.3,2.1-.1.7-.3,2-.4,2.9-.1.9-.3,1.9-.3,2.1,0,.3-.1.9-.2,1.3,0,.5-.2,1.2-.2,1.6,0,.5-.1,1-.2,1.3-.2.9-.2.9,1.4,1.2.3,0,.9.2,1.3.3,2.8.5,5.2.9,6.8,1,1.3,0,4,0,4.4-.3.1,0,.4,0,.5,0,.5,0,3.2-1.2,3.9-1.8,1.2-1,1.5-1.5,2.2-3,.6-1.4.6-1.5.6-2.6,0-.6,0-1.1-.1-1.2,0,0,0-.1,0-.2,0-.1-.3-.9-.7-1.8-.3-.5-1.4-1.7-2-2.1-.4-.2-.9-.6-1.2-.8-.7-.5-2.5-1.2-4-1.6Z"/>
  <path class="st1" d="M119.8,269.5c-13.6-4.8-27.1-6.2-41.1-4.4-7.3,1-14,2.8-21.2,5.6-6.9,2.8-12.9,6.1-18.8,10.4-10.8,7.9-19.3,17.7-25.8,29.7-1.6,3.1-5,11.1-6.1,14.5-5.7,18.1-5.5,36.8.6,54.6.9,2.6,3,7.8,4.2,10.1,8.2,16.8,21,30,37.6,38.9,3.1,1.7,11.1,5,14.5,6.1,18,5.6,36.4,5.5,54.2-.5,8.3-2.8,16.7-7.1,23.7-12.2,10.8-7.9,19.3-17.7,25.8-29.7,1.5-2.8,4.9-10.9,5.8-13.8,5-15.6,5.7-30.9,2.1-46.7-1.7-7.6-4.7-15.4-8.5-22.4-8.2-15-20.5-27.2-35.6-35.3-1.9-1-9.7-4.5-11.6-5.1ZM117.8,273.6c-.4-.1-.5,0-.6.3-.4.9-4.1,11.7-4,11.8,0,0,.6.3,1.4.5l1.3.5.5-1.4c.3-.7,1.4-3.4,2.4-6l1.8-4.6-1.2-.5c-.6-.3-1.4-.5-1.6-.6ZM127.3,277.6c-.1.2-4.6,9.2-5.1,10.2l-.7,1.3,1.3.7c.7.4,1.3.6,1.4.6,0,0,1.4-2.4,2.9-5.3,1.6-2.9,3-5.4,3.1-5.6l.2-.4-.7-.4c-1.8-1-2.4-1.3-2.4-1.2ZM106.2,270.4c-3.2-.6-7.8-1.2-7.9-1.1,0,0-.2,1.5-.3,3.1-.2,1.7-.4,3.7-.4,4.4-.5,5.2-.5,5.3-.2,5.3,1.2.1,5.7.8,6.8,1,1.2.3,1.4.3,1.5,0,0-.1.3-1.1.5-2.1.6-2.8,2.2-10.1,2.2-10.2,0,0-.3-.2-2.2-.5ZM138.2,284.4c0,.1-.7.9-1.3,1.8-1.6,2.2-3.1,4.3-4.6,6.4-.7,1-1.3,1.9-1.4,2,0,.1,0,.3.2.5,2.4,1.7,5.2,4,7.1,5.9.7.7,1.3,1.2,1.3,1.2,0,0,8.8-8.9,8.9-9.1.2-.3-4.2-4.3-7.8-7.1-2.5-1.9-2.3-1.8-2.5-1.6ZM95,269c-1.7-.1-6.3-.1-6.3,0,0,.1,0,11.6.2,12.5v.4s1.6,0,1.6,0c.9,0,2.1,0,2.9,0s1.4,0,1.4,0c0,0,.2-2.3.3-5.1.2-2.8.3-5.7.4-6.4,0-1.3,0-1.4-.4-1.5ZM149.9,295.7c-1.9,1.7-7.1,6.6-7.8,7.4l-.8.8.9,1c.5.5,1,1,1,1,.1,0,9.8-8.2,9.8-8.4,0-.1-1.5-1.7-1.9-2.1l-.4-.4-.8.7ZM79.8,269.5c-.8,0-1.6.2-1.7.3-.2.1,0,1.4,1.7,12.6,0,.2.2.2.7.1.4,0,1-.1,1.4-.2.4,0,.8-.2.8-.2,0-.1-1.2-11.8-1.3-12.5,0-.2-.2-.3-1.6,0ZM156.8,303.7c-.4.3-1.5,1.1-2.4,1.7-.9.7-3,2.1-4.5,3.2-1.5,1.1-2.8,2-2.8,2.1,0,.1,3,4.7,3.2,4.8,0,0,2.6-1.4,5.6-3.3l5.5-3.3-.2-.4c-.3-.5-3-4.6-3.3-5-.2-.2-.3-.2-.9.2ZM110.2,289.3c-3.2-1-6.2-1.7-8.5-2.1-.3,0-.9-.2-1.3-.2-1.6-.3-8.1-.9-8.3-.7,0,0-.2,0-.3,0-.1,0-.5,0-.9,0-.4,0-1,0-1.3,0-1.6,0-4.6.2-5.6.3-.4,0-1,.1-1.5.2-.5,0-1.3.2-1.9.2-.6,0-1.2.2-1.4.2-.2,0-.4,0-.5,0,0,0-.8.2-1.7.4s-1.7.4-1.9.4c-.2,0-.4.1-.5,0,0,0-.3,0-.6.1-.3.1-.5.2-.5.1,0,0-.3,0-.5.1-.2,0-.8.3-1.3.4-.4.1-.9.3-1,.3-.1,0-.7.2-1.4.4-1.5.5-6.3,2.4-7.7,3.1-.6.3-1.2.6-1.3.6-.1,0-.6.3-1,.5-.4.2-.9.5-1.2.6-.2.1-.4.2-.5.3,0,0-.2.2-.5.3-.2,0-.5.2-.6.3-.5.4-2.3,1.5-2.5,1.6-.1,0-.3.2-.3.2,0,0-.2.2-.4.3-.2,0-.5.3-.6.4-.2.1-.7.5-1.2.8-.8.6-1.3,1-2.2,1.7-.3.2-.5.4-.6.4-.2,0-3.1,2.7-4.2,3.7-.2.2-.6.6-.9.9-.3.3-.6.6-.6.6,0,0-.1.2-.3.3-.1,0-.3.3-.5.4-.4.4-2.9,3.3-3.3,3.8-.2.2-.6.8-1,1.3-.4.5-.8,1.1-1,1.3-3.9,5.6-5.1,7.9-7.4,13.3-2.1,4.9-2.9,7.5-3.8,12.3-.5,2.7-.6,2.8-.7,3.9,0,.6-.2,1.3-.2,1.6,0,.6-.4,4.4-.4,5,0,.2,0,.5,0,.7,0,.1,0,.3,0,.4,0,0,0,.5,0,.9,0,.4,0,1,0,1.3,0,1.5.2,5.4.3,5.6,0,0,0,.4.1.7.1,1.2.2,1.8.3,2.8,0,.6.2,1.2.2,1.4,0,.2,0,.4,0,.5,0,0,.2.9.4,1.8.2.9.4,1.8.4,1.9,0,.1,0,.3,0,.3,0,0,0,.3.1.6.1.3.2.5.1.5,0,0,0,.3.1.5,0,.2.3.8.4,1.3.1.4.3.9.3,1,0,.1.2.7.4,1.4.5,1.5,2.4,6.3,3.1,7.7.3.6.6,1.2.6,1.3,0,.1.3.6.5,1,.2.4.5.9.6,1.2.1.2.2.4.3.5,0,0,.2.2.3.5.1.3.2.5.3.5,0,0,.2.2.3.4,0,.2.4.7.8,1.2.3.5.6,1,.6,1,0,0,0,.2.2.2,0,0,.2.2.3.4,0,.2.3.5.4.6.1.2.5.7.9,1.2s.9,1.2,1.2,1.5c.3.4.7.9.9,1.2.6.8,2.7,3.1,3.7,4.2.2.2.6.6.9.9.3.3.6.6.7.6.1,0,.2.1.2.2,0,.2,5,4.5,6.3,5.4.3.2.8.5,1,.7.8.5,2.3,1.6,3.4,2.2.9.6,1.7,1,4.4,2.5,1.5.8,8.5,3.8,10.2,4.3,3.6,1.1,6.1,1.7,8.7,2.2.3,0,.9.2,1.3.2,1,.2,2.4.3,5,.6,2.2.2,2.7.2,3.3.2.1,0,.3,0,.4,0,0,0,.5,0,.9,0,.4,0,1,0,1.3,0,1.6,0,4.6-.2,5.6-.3.4,0,1-.1,1.5-.2.5,0,1.3-.2,1.9-.3.6,0,1.2-.2,1.4-.2s.6-.1.7-.2c.2,0,.4,0,.5,0,0,0,.2,0,.2,0,0,0,.6-.2,1.2-.3.6-.1,1.2-.3,1.4-.3.2,0,.4-.1.5,0,0,0,.3,0,.6-.1.3-.1.5-.2.5-.1,0,0,.3,0,.5-.1s.8-.2,1.2-.4c.4-.1.9-.3,1-.3.2,0,.8-.3,1.4-.5,1.5-.5,6.3-2.4,7.7-3.1.6-.3,1.2-.6,1.3-.6.2,0,.6-.3,1-.5.4-.2.9-.5,1.1-.6.2-.1.4-.2.5-.3,0,0,.2-.2.5-.3.2-.1.5-.2.6-.3.5-.3,2.3-1.5,2.6-1.6.2,0,.4-.2.4-.3,0,0,.1-.1.3-.2.1,0,.4-.2.6-.3.2-.1.7-.5,1.2-.8.8-.6,1.3-1,2.2-1.7.3-.2.5-.4.6-.4.2,0,3.1-2.7,4.2-3.7.2-.2.6-.6.9-.9.3-.3.6-.6.6-.6,0,0,.1-.2.3-.3.5-.4.8-.8,2.2-2.4,1.7-2,2.6-3.1,3.2-3.9.2-.3.6-.8.7-1,1.6-2.3,3.2-4.9,4.7-7.7.9-1.8,3.6-8.2,4.3-10.2.9-2.8,1.7-6.2,2.2-8.8,0-.3.2-.9.2-1.3.2-.9.3-2.3.5-4.9.2-2.2.2-2.7.2-3.3,0-.1,0-.3,0-.4,0,0,0-.5,0-.9,0-.4,0-1,0-1.3,0-1.5-.2-5.4-.3-5.6,0,0,0-.4-.1-.7-.1-1.2-.2-1.8-.3-2.8,0-.6-.2-1.2-.2-1.4,0-.2-.1-.5-.2-.7,0-.2,0-.4,0-.5,0,0,0-.2,0-.4,0-.2-.5-2.3-.6-2.9,0-.1-.1-.4-.2-.7,0-.2-.1-.5-.1-.5,0,0,0-.3-.1-.5,0-.2-.3-.8-.4-1.3-.1-.4-.3-.9-.3-1,0-.1-.2-.7-.4-1.4-.5-1.5-2.4-6.3-3.1-7.7-.3-.6-.6-1.2-.6-1.3,0-.1-.3-.6-.5-1-.2-.4-.5-.9-.6-1.2s-.2-.4-.3-.5c0,0-.2-.2-.3-.5-.1-.2-.2-.5-.3-.5,0,0-.2-.2-.3-.4,0-.2-.4-.7-.8-1.3-.3-.5-.6-1-.7-1.2,0-.1-.1-.3-.2-.3,0,0-.2-.2-.2-.3,0-.1-.2-.4-.3-.6-.1-.2-.5-.7-.9-1.2-.3-.5-.9-1.2-1.2-1.5-.3-.4-.7-.9-.9-1.2-.6-.8-2.7-3.1-3.7-4.2-.2-.2-.6-.6-.9-.9-.3-.3-.6-.6-.7-.6-.1,0-.2-.1-.2-.2,0-.2-5-4.4-6.4-5.4-.3-.2-.8-.6-1-.7-2.1-1.5-4.5-3-7.7-4.7-1.4-.8-8.8-3.9-10.4-4.3ZM64.8,272.9c-1.9.6-5.6,2-5.6,2.1,0,0,1,2.8,2.3,6l2.4,5.9,1.8-.6c1-.4,2.2-.8,2.7-.9.5-.2.9-.3,1-.4,0,0-.2-.7-.4-1.5-.2-.8-1.1-3.4-1.9-5.9-.8-2.5-1.4-4.6-1.5-4.8,0-.2-.2-.2-.8,0ZM161,322.7l-5.9,2.4.5,1.3c.3.7.5,1.4.5,1.4,0,0,.9-.3,2-.7,1.1-.4,2.1-.8,2.3-.8,3.3-1.2,7.8-2.8,7.8-2.9,0-.2-1.1-3-1.2-3.1,0,0-2.8,1-6,2.4ZM52.4,278c-1.7.9-2.1,1.1-2,1.3.2.5,6,11,6.1,11.1,0,0,.7-.2,1.4-.6l1.3-.7-.2-.4c-.1-.2-1.3-2.7-2.8-5.5-1.4-2.8-2.6-5.3-2.7-5.4-.1-.2-.3-.2-1.1.2ZM168,330.1c-1.2.3-2.5.7-2.9.8-.4.1-.9.3-1.1.3-.2,0-1.6.5-3.2.9-1.6.4-2.9.8-3,.9,0,0,.4,2.4.6,2.8,0,0,2.5-.5,8.5-1.9,1.1-.3,2.4-.6,3-.7.8-.2,1.1-.3,1.1-.5,0-.3-.7-3-.8-3.1,0,0-1,.2-2.2.6ZM39.9,285.9c-.7.6-1.3,1.1-1.2,1.1,0,0,1.5,1.9,3.2,4,4.3,5.4,4.7,5.9,4.8,5.9.1,0,2.1-1.5,2.2-1.7,0-.1-7.3-10.3-7.5-10.4,0,0-.7.4-1.4,1ZM171.5,340.2c-3.1.4-11.5,1.6-11.7,1.7-.1,0-.2.5,0,1.5,0,.8.2,1.4.2,1.5,0,0,2.2-.2,4.8-.4,2.6-.3,5.4-.5,6.1-.6.8,0,1.5-.2,1.6-.2.2,0,.2-.4,0-1.7-.1-.9-.3-1.6-.3-1.7,0,0-.5,0-.9,0ZM166.6,346.9c-3.5.2-6.4.4-6.4.4,0,0,0,.8,0,1.8,0,1,0,2.2,0,2.8,0,.6,0,1.1,0,1.1.1,0,12.6.3,12.8.2.2,0,.2-6.1,0-6.6,0-.2-1.7-.1-6.4.2ZM33.9,290.9c-.3.2-3.5,3.5-4.8,4.9-2.2,2.4-4.3,4.9-4.1,5.1,0,0,9.9,7.9,10.1,7.9,0,0,.4-.4.9-1,1.6-1.9,3.7-4.2,5.3-5.8.9-.9,1.6-1.7,1.6-1.7,0,0-1.2-1.3-2.5-2.7s-3.3-3.5-4.3-4.6c-2-2.2-1.9-2.1-2-2ZM168.3,359.1c-2.4-.2-5.2-.5-6.3-.6-1.3-.1-2-.1-2,0,0,0-.1.7-.2,1.4-.1,1.4-.1,1.3,1,1.5.4,0,3.1.4,6.1.8s5.4.7,5.5.7c0,0,.2-.6.3-1.3.2-1.5.2-2.1,0-2.1,0,0-2.1-.2-4.5-.4ZM22.3,304.2c-1.3,1.8-1.3,1.7-.9,2,.2.1,1.5,1,2.9,1.9,1.4.9,3.2,2.1,4,2.6,2.2,1.5,3.6,2.4,3.7,2.4.2-.1,1.6-2.3,1.6-2.4,0,0-.6-.5-1.3-1-.7-.5-3-2.1-5-3.6-2.1-1.5-3.8-2.7-3.9-2.8-.1,0-.4.2-.9.9ZM162.9,377.4c-2.4-.9-4.8-1.7-5.4-1.9l-1.1-.4-1.1,2.7-1.1,2.7,2.1,1c1.1.5,3.8,1.7,5.9,2.7l3.9,1.7,1.2-3c.7-1.6,1.2-3.1,1.2-3.2,0-.3.2-.2-5.5-2.2ZM21.3,324.3c-2-.8-4.7-1.8-5.9-2.3l-2.2-.9-.4,1c-.6,1.4-1.9,5.2-1.8,5.4,0,0,.9.4,2.1.7,1.1.3,3.8,1.2,6.1,1.9,2.2.7,4.1,1.2,4.1,1.2,0,0,.4-.9.7-2,.4-1.1.8-2.3.9-2.7.1-.4.2-.7.1-.8,0,0-1.8-.7-3.8-1.5ZM20.3,333c-.9-.2-3.5-.9-5.9-1.5-2.3-.6-4.2-1.1-4.3-1.1,0,0-.2.7-.4,1.6-.3,1.2-.3,1.6-.2,1.7.1,0,1.6.4,3.3.8,1.7.4,4.4,1,6.1,1.4,2.7.6,3,.7,3.1.4,0-.1.2-.8.4-1.4.3-1.1.3-1.1,0-1.3-.2-.1-1.1-.4-2-.6ZM148.2,391.1c-.5.7-.8,1.2-.8,1.3,0,0,.8.6,1.8,1.3,1,.7,3.3,2.3,5.2,3.7,1.9,1.3,3.5,2.4,3.5,2.4.2,0,1.9-2.7,1.8-2.8,0,0-2.4-1.6-5.2-3.5-2.8-1.8-5.2-3.4-5.3-3.5-.1-.1-.3.1-1,1.1ZM18.6,341.4c-1.1-.1-3.8-.5-6.1-.9-2.3-.3-4.2-.6-4.2-.5-.1,0-.6,3.1-.5,3.3,0,0,4,.5,7.4.8.6,0,2,.2,3.2.3,1.2.1,2.1.2,2.2.2,0,0,.1-.7.2-1.5.1-1.1.1-1.5,0-1.5-.1,0-1.1-.2-2.2-.3ZM145.7,394.6c-1.4,1.6-1.6,2-1.5,2.2,0,.1,1.9,1.6,3.9,3.3,2.1,1.7,4.2,3.5,4.8,4,.6.5,1.1.8,1.1.8.1,0,2.1-2.5,2.1-2.6,0,0-1.2-1-2.6-2.1-1.4-1.1-3.7-2.8-5-3.8-1.3-1-2.4-1.8-2.5-1.9,0,0-.2,0-.3,0ZM18.8,350.7c-.5,0-3.3,0-6.1,0-2.8,0-5.2,0-5.3,0-.2,0-.2,4,0,6.3v.5s6.5-.4,6.5-.4c3.5-.2,6.4-.4,6.5-.4,0,0,0-.4,0-.9,0-.5,0-1.7,0-2.8,0-1.5,0-2-.3-2.1-.1,0-.7-.1-1.2-.1ZM136.8,404.1c-.7.6-1,1-1,1.1.1.3,8.1,9.6,8.2,9.7.2,0,2.6-2.1,2.5-2.3,0-.2-8.5-9.3-8.7-9.4,0,0-.6.4-1.1.9ZM132.8,407.4c-1.7,1.4-4.5,3.2-6.5,4.4-1.1.6-2,1.2-2,1.2,0,0,.6,1.3,1.5,2.7.8,1.4,2.2,4,3.1,5.6.9,1.6,1.7,2.9,1.8,2.9.3,0,3.8-2.2,5.9-3.6,2.2-1.5,5.1-3.6,5.2-3.9,0-.1-2-2.8-5.5-7.1-.2-.3-.9-1.1-1.4-1.8-.5-.7-1-1.2-1-1.2,0,0-.5.3-1.1.7ZM15.1,365.7c-3.4.7-6.3,1.2-6.3,1.3,0,0,0,.8.3,1.7.3,1.6.3,1.6.7,1.5.4,0,12.1-2.7,12.2-2.7,0,0-.5-2.8-.6-2.9,0,0-2.9.5-6.3,1.2ZM22.7,375.6c-.9.3-2.4.8-3.3,1.2s-2.9,1-4.5,1.6c-1.9.7-2.8,1.1-2.8,1.2,0,.3,1.4,3.7,1.5,3.7,0,0,2.8-1,6-2.4l5.9-2.4-.6-1.7c-.3-.9-.6-1.7-.6-1.7,0,0-.7.2-1.6.6ZM118.2,416c-.8.4-1.4.7-1.5.7,0,0,4.1,10.2,4.7,11.4l.3.5,1.6-.7c.9-.4,1.7-.8,1.7-.9,0-.2-5.1-11.6-5.3-11.7,0,0-.7.3-1.5.6ZM29.6,391.4c-1.8-.2-3.6.4-5.2,1.8-1.7,1.4-2.5,3.1-2.4,4.9.1,1.9,2.1,4.8,3.9,5.7l.5.3.4-.5c.2-.3.5-.7.7-.9.3-.4.3-.4-.2-.7-.7-.4-2-1.9-2.3-2.7-.5-1.2-.2-2.2.8-3.3,1.9-2,4.2-2.2,5.6-.7.6.6,1.2,1.8,1.3,2.7v.5c.1,0,1.2-.3,1.2-.3l1.1-.3v-.5c-.1-.8-1-2.7-1.7-3.5-1.2-1.4-2.4-2.2-3.9-2.3ZM105,424.1c-1.8,0-3.3.4-4,1.2-.8.8-1,2.1-.4,3.2.4.9,1.1,1.3,3.4,1.8,1,.2,1.3.5,1.2.9-.2.5-1.7.8-3.1.6-.4,0-.7,0-.7,0,0,.2-.1,2.1,0,2.1.2,0,2,.1,2.7,0,2.6-.3,4.1-1.5,3.9-3.3-.1-1.6-1-2.3-3.4-2.8-1.1-.2-1.5-.4-1.4-.9,0-.4.8-.7,1.8-.7.5,0,1,0,1.1,0,0,0,.2,0,.3,0,.2-.2.2-1.9,0-2,0,0-.6-.1-1-.1ZM95.3,425.3c-1.3,0-4.4.4-4.7.7,0,0,0,2.1.1,4.5l.2,4.4h1.2c.7,0,1.3-.1,1.3-.1,0,0,0-1.4,0-3.1-.3-4.4-.3-3.9.6-4,1,0,1.5.1,1.7.7.1.3.3,1.8.4,3.3.1,1.6.2,2.8.2,2.9.1,0,2.4,0,2.5-.2,0,0,0-1,0-2.1,0-1.1-.1-2.4-.2-2.9,0-1.3-.4-2.5-1-3.1-.5-.6-1.6-1.1-2.4-1.1ZM34.1,400.3c0,0-.3.4-.5.7-.2.3-.5.6-.5.7-.1.1,0,.3.3.5.7.5,1.6,1.4,1.9,1.9.2.4.3.6,0,1-.1.3-.3.6-.3.6,0,0-.4-.3-.8-.7-1.9-2.3-3.8-2.5-5.4-.8-1.1,1.2-.8,2.8.9,4.6.7.8,2.4,2.2,2.9,2.4.2,0,.6-.2,2.5-2,1.9-1.8,2.3-2.2,2.6-2.9.6-1.1.5-1.9-.3-3.1-.8-1.2-3-3.1-3.3-2.8ZM48.5,408.4c-.1.1-1,1.6-2.1,3.2-1,1.6-2.6,3.9-3.4,5.2-.8,1.2-1.5,2.3-1.4,2.4,0,.1,2,1.5,2.1,1.4,0,0,.9-1.3,1.9-2.9l1.9-2.8h.4c.6.3,1.1.7,1.3,1.1.1.3.1.5-.1,1.1-.2.4-.5,1-.7,1.4-1.2,1.7-2.1,3.2-2.2,3.4-.1.2,0,.3.9.9.6.4,1.1.7,1.1.7,0,0,.7-1,1.5-2.2,1.8-2.7,2.4-4,2.3-5-.1-1.2-.9-2.2-2.3-2.9-.5-.3-.8-.5-.8-.6,0,0,.5-.8,1.1-1.7.6-.8,1-1.6,1.1-1.7,0-.1-.2-.3-1.1-.7-1.2-.5-1.2-.5-1.4-.2ZM74.2,419.7c-1,0-1.3,0-1.3.2-.2.6-2.5,12.5-2.5,12.5,0,0,1.8.5,2.4.5.1,0,.3-.6.5-1.8.2-1,.4-1.9.4-1.9.1,0,1.1,1.7,1.7,3,.3.8.7,1.4.8,1.4.1,0,.8.1,1.4.3.7.1,1.2.2,1.3.2.1-.3-2.2-5.3-2.6-5.5-.2-.1,0-.3,1.4-1.3,1.7-1.2,2.8-2.1,2.8-2.2,0,0-.7-.2-1.5-.3l-1.5-.3-.6.4c-.3.2-1.1.8-1.6,1.2-.7.5-1.1.7-1.1.6,0-.1.3-1.7.7-3.6.4-1.8.7-3.4.6-3.5,0,0-.6-.1-1.3-.1ZM84.7,425.2c-2.1,0-3.9,1.3-4.4,3.4-.7,2.7.3,4.9,2.4,5.8,1,.4,3.6.5,4.7.2h.4c0-.1,0-1.2,0-1.2,0-1-.2-1.3-.6-1.1,0,0-.6.1-1.1.2-.7,0-1.2,0-1.9-.2-.9-.3-.9-.4-1.2-.8-.1-.3-.2-.6-.2-.6,0,0,1.3,0,2.8.1,1.5.1,2.8.2,2.9.2.2,0,.3-1.9.2-2.7-.2-.9-.6-1.8-1.2-2.2-.6-.5-2-1-2.8-1.1ZM40.6,407.2c-.5,0-1.3.3-1.8.7-.5.4-1,1.7-1,2.3,0,.3.4,1.1.7,1.9.7,1.4.8,1.9.3,2.1-.5.2-1.6-.7-2.4-2-.5-.7-.4-.7-1.5.2l-.7.6.5.8c.6.9.9,1.1,1.9,2,1.9,1.4,3.4,1.5,4.5,0,.9-1.1.8-2-.2-4.1-.4-.7-.6-1.4-.5-1.5.3-.7,1.3-.2,2.3,1,.5.6.7.7.8.7.4-.2,1.4-1,1.4-1.1,0-.2-.9-1.4-1.7-2.1-.7-.6-2-1.3-2.7-1.3ZM55.2,413.7c0,0-.3.6-.6,1.1l-.4,1,1.5.7c.8.4,1.6.8,1.6.8,0,0-.9,2-2,4.3-1.1,2.3-2,4.3-2,4.4,0,0,.6.4,1.2.7l1.2.6,1.5-3.3c.9-1.8,1.8-3.8,2.1-4.4l.6-1.1,1.6.8,1.6.8.5-1c.3-.6.5-1.1.5-1.1,0,0-1.7-.9-3.8-1.9-2.1-1-4-1.9-4.4-2.1-.5-.3-.7-.3-.8-.2ZM84.3,427.4c-.3,0-.6.2-.8.4-.4.4-.6,1-.4,1.1.2,0,2.9.3,3,.3.2,0,0-.7-.2-1.1-.4-.5-.9-.8-1.6-.7ZM31.3,405.5c-.4.2-.7.6-.7.9,0,.3.8,1.3,1.2,1.7.2.2.3.1.9-.3.3-.3.6-.6.7-.7,0-.2-.6-1.1-1.3-1.4-.4-.2-.6-.3-.8-.2ZM66,421.3c-1.9-.4-3.7.4-4.7,2.1-1.2,2.1-1.2,4.5.2,6,.4.4.8.7,1.6,1,1,.4,1.2.5,2.1.4,1.9-.1,3.1-1.1,3.9-3.3.4-1.1.4-1.3.4-2.3-.2-2-1.6-3.6-3.6-4ZM65.2,423.5c-.7,0-1.1.4-1.6,1.3-.5,1-.6,1.9-.3,2.7.3.8,1.1,1.2,1.9.9,1.2-.4,2.2-2.8,1.6-4-.2-.4-1.1-.9-1.6-.9Z"/>
  <path class="st0" d="M122.3,270.5c1,.4,2.6,1.1,3.5,1.5,1,.4.2,0-1.8-.8-1.9-.8-2.7-1.1-1.8-.7ZM118.7,269.1c.3.2.8.4,1.1.5s0,0-.5-.3c-.6-.3-.9-.3-.6-.2ZM128.2,273.1c.3.2.8.4,1.1.5.3,0,0,0-.5-.3-.6-.3-.9-.3-.6-.2ZM103.5,265.3c-.8,0-.4.1.5.2.4,0,.6,0,.4,0-.2,0-.6-.2-.9-.2ZM100.2,264.8c-.4,0-.8,0-.7,0,0,0,.5.1,1,.1.5,0,.8,0,.7,0s-.6-.1-1-.1ZM145.1,283.7c.4.3.7.6.8.6.2,0-.6-.6-1.1-.9-.2-.1-.1,0,.3.3ZM96.8,264.5c-.7,0-1.3,0-1.3,0,0,0,.7.1,1.5.2.8,0,1.4,0,1.3,0-.1,0-.8-.1-1.5-.2ZM147.7,285.9c.6.5,1.1,1,1.2.9,0,0-1.9-1.8-2.1-1.9,0,0,.4.4,1,.9ZM118,273.6c-.5-.2-.6-.1-.7.2-.4,1-4.1,11.8-4.1,11.8,0,0,.6.3,1.4.5l1.3.5.5-1.4c.3-.7,1.4-3.4,2.4-6l1.8-4.6-1.1-.4c-.6-.2-1.3-.5-1.6-.6ZM126.9,278.4c-.2.4-1.1,2.1-1.9,3.7-.8,1.6-1.8,3.7-2.3,4.5-.5.9-.9,1.8-1,2.1l-.2.5,1.3.6c.7.3,1.3.6,1.3.6,0,0,1.8-3.1,4.6-8.2.7-1.3,1.4-2.5,1.5-2.7.2-.4.4-.2-2-1.5l-.8-.4-.4.8ZM106.2,270.4c-3-.6-7.9-1.3-7.9-1.1,0,0-.2,2.1-.5,4.6-.9,8.8-.8,8.3-.5,8.3,1.7.2,6.2.9,7.6,1.2h.6c0,.1.2-.5.2-.5,0-.3.7-3.1,1.4-6.2.7-3.1,1.2-5.7,1.3-5.7,0-.1.1-.1-2.1-.5ZM90.6,264.3c-.5,0-.9,0-.9,0,0,0,1.9.1,2,0,.2,0-.2-.1-1.1-.1ZM151.6,289.5c0,.2,1.4,1.4,1.5,1.4,0,0-.2-.3-.6-.7-.7-.7-.9-.9-.8-.7ZM138.1,284.4c-.1.1-1.2,1.6-2.4,3.3-1.2,1.7-2.8,3.9-3.5,4.8-.7,1-1.3,1.8-1.3,2,0,.2.1.4.7.8,2.3,1.7,5.5,4.4,7.2,6,.4.4.8.7.8.7,0,0,8.8-8.9,8.9-9.1.1-.1-.6-.9-2.7-2.8-2.6-2.3-4.4-3.8-7.2-5.8-.3-.2-.3-.2-.5,0ZM92.9,268.9c-3.1,0-4.3,0-4.3,0,0,0,0,2.6,0,5.6,0,3,0,5.9,0,6.3,0,.4,0,.8.2.9s.7,0,1.4,0c.7,0,1.9,0,2.7,0,1.1,0,1.5,0,1.5-.2,0-.1.2-2.4.3-5.1.2-2.7.3-5.5.4-6.2,0-.7,0-1.4,0-1.4,0,0-1.1,0-2.4-.1ZM82.5,264.6c-.4,0-1.6.2-2.8.3-1.2.1-2.3.3-2.5.4-.4.1-.1,0,2.8-.3,1-.1,2.2-.3,2.6-.3.4,0,.7-.1.7-.1,0,0-.4,0-.8,0ZM157.8,296.2c1.9,2.5,2.8,3.6,3.1,4,.2.3.4.5.4.4,0-.1-3.7-5-3.9-5.1,0,0,.1.2.4.6ZM150.1,295.5c-.3.3-2.1,1.9-3.9,3.6-1.8,1.7-3.7,3.4-4.1,3.9l-.8.8.9,1c.5.5.9,1,1,1,.1,0,9.8-8.2,9.8-8.4,0-.1-1.5-1.7-1.8-2.1l-.4-.4-.6.5ZM73.9,265.8c-1.7.3-4.5,1-4.6,1.1,0,0,.3,0,.9-.2.6-.1,1.9-.4,2.9-.6,1.6-.3,2-.4,1.9-.5,0,0-.5,0-1.1.2ZM162.4,302.3s.4.8,1,1.6c.6.9,1.3,2,1.6,2.5.3.5.6.9.5.8,0-.4-3.1-5.1-3.2-4.9ZM79.5,269.6c-.8.1-1.5.3-1.5.3,0,0,.1,1.4.4,3,.2,1.6.7,4.3.9,6.1.3,1.8.5,3.3.5,3.4,0,.2.1.2.7.1.4,0,1-.1,1.4-.2.4,0,.8-.2.8-.2.1-.3-1.3-12.5-1.5-12.6,0,0-.8,0-1.7.1ZM156.9,303.6c-.3.2-1.8,1.3-3.2,2.3-1.5,1.1-3.5,2.6-4.6,3.3-1.1.8-2,1.4-2,1.5,0,.1,3,4.7,3.2,4.8,0,0,2.3-1.3,10.4-6.2l.7-.4-.6-.9c-1-1.6-2.3-3.6-2.8-4.2l-.5-.6-.6.4ZM66.3,267.6c-.7.2-1.4.4-1.6.5-.2,0-.9.3-1.6.5-.6.2-1.3.4-1.6.5-.3,0-1.1.4-1.9.7-.8.3-1.5.6-1.5.7s.6-.1,1.4-.5c1.9-.7,4.2-1.5,6.3-2.1,1.5-.4,1.8-.5,1.7-.6,0,0-.6.1-1.2.3ZM166.6,309.2c.1.2.7,1.4,1.3,2.6.6,1.2,1.5,3,2,4.1.5,1.1.9,1.9.9,1.9,0,0,0-.4-.2-.7-.2-.3-.5-1.2-.9-1.9-.3-.7-.8-1.7-1.1-2.3-.3-.6-.6-1.1-.6-1.2,0-.2-1.4-2.6-1.5-2.8,0-.1,0,0,0,.2ZM63.9,273.2c-2.1.7-4.7,1.7-4.7,1.9,0,.3,4.6,11.7,4.7,11.8,0,0,.8-.2,1.7-.5.8-.3,2-.7,2.6-.9.6-.2,1.1-.4,1.1-.4,0,0-.7-2.5-1.7-5.5-.9-3-1.8-5.7-1.9-6.2l-.2-.8-1.6.5ZM57.1,270.8c-.3.1-.5.3-.5.3,0,0,.3,0,.7-.2.3-.1.6-.3.5-.3,0,0-.4,0-.7.2ZM171.1,318.7c.1.3.3.6.3.6.1,0-.3-1.1-.5-1.2,0,0,0,.2.1.6ZM55.5,271.5c-.3.2-1.2.6-1.8.8-.7.3-1.7.8-2.3,1.1-.6.3-1.1.6-1.2.6,0,0-2.4,1.3-2.8,1.5-.1,0-.2.1-.1.1,0,0,.8-.3,1.6-.8,2-1.1,4.2-2.1,6-2.9.8-.3,1.4-.7,1.3-.7,0,0-.4,0-.8.2ZM172,321c.7,1.9,1.5,4.2,2.1,6.3.3.9.5,1.7.5,1.7,0,0,0,0,0-.2-.1-.5-.8-3-.9-3.1,0,0-.2-.6-.4-1.2-.2-.6-.6-1.7-.8-2.4-.3-.7-.6-1.6-.7-1.9-.1-.4-.3-.7-.4-.7,0,0,.1.6.4,1.4ZM161,322.7l-5.9,2.4.4,1c.2.5.4,1.1.5,1.4v.4c.1,0,2.2-.7,2.2-.7,1.1-.4,2.1-.8,2.2-.8.1,0,1.2-.4,2.4-.9,1.2-.4,2.8-1,3.6-1.3.7-.3,1.5-.5,1.7-.6.3-.1.3-.2-.3-1.7-.3-.9-.7-1.6-.7-1.6,0,0-2.7,1.1-6,2.4ZM51.9,278.3c-.8.4-1.5.8-1.5.9,0,.2,5.9,11.1,6.2,11.2.2,0,2.3-1.1,2.4-1.3,0,0-.5-1.3-1.2-2.7-1.4-2.8-4.1-8.1-4.3-8.5-.1-.2-.3-.2-1.6.5ZM45,276.9c-1.1.6-3.9,2.4-4.1,2.6-.3.3.4-.1,2-1.2.9-.6,1.9-1.2,2.3-1.4.4-.2.7-.4.6-.5,0,0-.4.2-.8.4ZM175.2,331.2c0,.3.3,1.1.4,1.7.1.6.3,1.1.3,1.1,0,0-.6-2.9-.7-3.2,0-.1,0,0,0,.3ZM169.2,329.8c-.5.1-2.8.8-5,1.4-6.2,1.7-6.4,1.8-6.4,2,0,.1.2.7.4,1.4.2.7.3,1.2.4,1.2s.7-.1,1.5-.3c.8-.2,3.5-.8,6.1-1.5,2.8-.7,4.7-1.2,4.8-1.3,0-.2-.6-3.1-.7-3.1,0,0-.5,0-1,.2ZM176.1,335.3c.2,1,.4,1.7.3,1.2,0-.5-.4-2.1-.5-2.2,0,0,0,.4.1,1ZM39.4,280.6c-2.3,1.6-5.3,4-5.3,4.1,0,0,.7-.4,1.5-1.1,1.3-1,3.8-2.9,4.8-3.6.2-.1.3-.3.3-.3,0,0-.6.3-1.2.8ZM176.5,337.1c0,.2.2,1.3.3,2.3.1,1,.3,2.6.4,3.7,0,1,.2,1.8.3,1.8.2,0-.7-6.9-1-7.8v-.4c-.1,0,0,.5,0,.5ZM40.8,285.2c-.3.2-.9.7-1.3,1l-.8.7,3.3,4.1c3.9,4.9,4.7,5.9,4.8,5.9.1,0,2.1-1.5,2.2-1.7,0,0-.8-1.2-1.7-2.6-1-1.3-2.6-3.6-3.7-5-1-1.4-1.9-2.6-2-2.7,0,0-.4,0-.6.2ZM166.5,340.9c-3.1.4-6,.9-6.3.9h-.6c0,.1.2,1.5.2,1.5,0,.8.2,1.4.2,1.5,0,0,1.5,0,3.3-.3,4.2-.4,4.8-.5,6.2-.6.7,0,1.5-.1,1.9-.2,1.5-.1,1.5,0,1.2-1.9-.1-.9-.3-1.6-.3-1.7,0,0-2.7.3-5.8.7ZM32.8,285.7c-.5.4-.8.7-.8.8,0,0,.4-.3.9-.7.5-.4.8-.8.8-.8,0,0-.4.3-.9.7ZM177.6,346.5c0,.6.1,1.1.1,1.1,0,0,0-2.2-.1-2.3,0,0,0,.5,0,1.1ZM166.6,346.9c-3.5.2-6.4.4-6.4.5,0,0,0,.5,0,1.1,0,1.4.1,4.3,0,4.4,0,0,0,.2,0,.2.1,0,12.7.3,12.9.2.2,0,0-6.8-.1-6.8,0,0-2.9.2-6.4.4ZM28.7,289.6c-.4.4-.7.7-.7.8,0,0,.3-.3.7-.6.4-.4.7-.7.7-.8,0,0-.3.3-.7.6ZM33,291.8c-3.4,3.3-8.4,9-8,9.1,0,0,2.3,1.8,5,3.9,2.7,2.1,5,3.9,5,3.9,0,0,.3-.3.6-.6,1.6-2.1,4.4-5.1,6.4-7,.5-.5.9-.9.8-1,0,0-8-8.7-8.6-9.3,0,0-.6.3-1.1.9ZM177.7,351.4c0,.1,0,.6,0,1.1,0,.4,0,.8,0,.8,0,0,.1-2,0-2,0,0,0,0,0,.2ZM102.5,324.8c-.2,0,0,0,.4.2.4.1.8.2.9.2.1,0-.9-.4-1.3-.4ZM111.5,328.6c.7.6,1.3,1,1.3.8,0-.1-1.3-1.1-1.6-1.2-.1,0,0,.1.3.3ZM24.6,294c-.4.5-.7.9-.7.9,0,0,.4-.3.8-.8.4-.5.7-.9.7-.9,0,0-.4.3-.8.8ZM177.5,357.7c0,1-.1,2.3,0,2.1,0-.2.2-2.2.2-2.4,0,0,0,0,0,.2ZM116.2,333.7c.2.5.5,1.3.7,1.8.2.5.3.7.2.4-.1-.7-.7-2-1.1-2.6-.2-.3-.1-.1,0,.4ZM22.2,296.8c-.3.4-.5.7-.5.8,0,0,.3-.2.6-.6.3-.4.5-.7.5-.8,0,0-.3.2-.6.6ZM177.3,361c0,0,0,.5-.1,1,0,.5,0,.7,0,.4.1-.5.2-1.6,0-1.4ZM166.4,358.9c-3.4-.3-6.3-.6-6.3-.6,0,0-.4,2.4-.4,2.6,0,.2,2.6.6,7.4,1.2.6,0,2,.3,3.1.4,1.1.2,2.1.3,2.1.2.2,0,.5-3.2.4-3.3,0,0-2.9-.3-6.4-.7ZM18.2,302.2c-.3.4-.5.8-.5.9,0,0,.3-.3.5-.7.3-.4.5-.8.5-.9,0,0-.3.3-.5.7ZM22.3,304.3c-.4.6-.9,1.3-1,1.4-.2.2,0,.3,2.5,2,1.4,1,3.8,2.5,5.3,3.5,1.5,1,2.7,1.8,2.8,1.8.1,0,1.7-2.1,1.7-2.3,0,0-.4-.4-1-.8-1.7-1.3-8.5-6.2-9-6.5l-.4-.3-.8,1.1ZM116.6,344.2c-.3.6-.6,1.3-.8,1.6l-.2.4.3-.4c.2-.2.5-.9.8-1.6l.5-1.2-.5,1.2ZM66.6,325c0,.3-.1.7-.2,1.1,0,.6,0,.6,0,.1,0-.3.1-.7.2-1.1,0-.6,0-.6,0-.1ZM16.5,304.7c-.3.5-.5.9-.5.9,0,0,.3-.3.6-.8.3-.5.5-.9.5-.9,0,0-.3.3-.6.8ZM175.6,371c0,.3-.2.8-.2,1.1,0,.4,0,.4.1-.2.1-.4.2-.9.2-1.1,0-.3,0-.2-.1.2ZM103.5,342.2c-.6,1.4-.6,1.5-.2.8.3-.4.5-1.1.6-1.5.2-.7.1-.6-.5.8ZM11.7,313.3c-.3.6-.3.9-.2.6.2-.3.4-.8.5-1.1,0-.3,0,0-.3.5ZM172.8,380.8c-.3.6-.3.9-.2.6s.4-.8.5-1.1c0-.3,0,0-.3.5ZM163,377.5c-2.3-.8-4.8-1.7-5.4-1.9l-1.2-.4-1.1,2.7-1.1,2.7,1.8.8c1,.5,3.6,1.7,5.9,2.7l4.1,1.8,1.2-3c.7-1.6,1.2-3.1,1.2-3.2,0-.3.2-.2-5.4-2.2ZM9.6,318c-.8,2-1.2,2.8-.7,1.8s1.1-2.6,1.5-3.7c.4-1,0-.2-.8,1.8ZM170.9,385.7c-.8,2-1.1,2.8-.7,1.8.4-1,1.1-2.6,1.5-3.6.4-1,0-.2-.8,1.8ZM95.3,354.4c-.5-.1-.5,0-.2,0,.2,0,.7.2,1,.3.6.1.6.1.2,0-.2-.1-.7-.2-1-.3ZM21.6,324.4c-2-.8-4.6-1.8-5.9-2.4l-2.4-1-.4,1c-.6,1.3-1.9,5.2-1.8,5.4,0,0,1.2.5,2.7,1,6.5,2,9.5,2.9,9.5,2.9,0,0,.3-.8.6-1.7.3-.9.7-2.1.9-2.6.2-.5.4-1,.3-1,0,0-1.7-.7-3.6-1.5ZM7.8,322.8c-.3.6-.3.9-.2.6.2-.3.4-.8.5-1.1,0-.3,0,0-.3.5ZM168.8,390.3c-.3.6-.3.9-.2.6s.4-.8.5-1.1c0-.3,0,0-.3.5ZM116.5,369.6c-.8,1.8-.8,1.9-.3,1,.3-.5.7-1.4.8-2,.3-.9.2-.9-.5.9ZM84.2,356.5c-.1.5-.2,1.6,0,1.4,0,0,0-.5.1-1,0-.5,0-.7,0-.4ZM20.2,333c-1.8-.4-8.1-2.1-9.4-2.5-.6-.2-.7-.2-.8,0,0,.2-.2.8-.4,1.5-.2.7-.3,1.3-.3,1.4,0,.2.5.3,2.1.7,8.4,1.9,10.3,2.3,10.4,2.3,0,0,.2-.6.4-1.4l.4-1.3-.4-.2c-.2-.1-1.1-.4-2.1-.6ZM98.9,369.1c-.7.3-1.2.5-1.1.5,0,0,1.7-.6,2.1-.8.5-.3.2-.2-1,.3ZM148.2,391.1l-.8,1.2.4.3c.2.2,1.7,1.2,3.3,2.3,1.6,1.1,3.8,2.6,4.8,3.4,1.1.8,2,1.4,2,1.4.2,0,1.9-2.7,1.8-2.8,0,0-.6-.5-1.3-.9-.7-.4-1.6-1-2-1.3-.5-.3-2.2-1.4-3.9-2.5-1.7-1.1-3.2-2.1-3.3-2.1-.1-.1-.3.1-1,1.1ZM5.1,331.8c-.1.4-.2.9-.2,1.1,0,.5.3-.6.4-1.3,0-.4,0-.4-.1.2ZM164,398.8c-.3.5-.5.9-.5.9,0,0,.3-.3.6-.8.3-.5.5-.9.5-.9,0,0-.3.3-.6.8ZM110.5,376.6c-.6.3-1.1.7-1.1.7,0,0,.5-.2,1.1-.6.6-.4,1.1-.7,1.1-.7,0-.1-.1,0-1.1.5ZM71,360.6c-.2,1-.2,1.5-.2,1.5,0,0,.3-1.7.3-1.8,0,0,0,0-.1.3ZM4.5,334.4c-.2.4-.4,1.9-.3,1.6,0-.1.2-.6.2-1,0-.5,0-.7,0-.5ZM162.3,401.3c-.3.4-.5.8-.5.9,0,0,.3-.3.5-.7.3-.4.5-.8.5-.9,0,0-.3.3-.5.7ZM20.5,341.7s-1.7-.2-3.8-.5c-5.6-.8-8.4-1.2-8.5-1.2-.1,0-.5,3-.5,3.3,0,0,1.5.2,3.3.4,1.8.2,4.7.5,6.3.7,1.6.2,3,.3,3.1.3,0,0,.2-.7.3-1.4.1-1.1.1-1.4,0-1.5-.1,0-.3,0-.3,0ZM145.8,394.5c-.2.2-1.6,2.1-1.6,2.2,0,0,2.9,2.5,7.5,6.3,1.2,1,2.2,1.8,2.2,1.8,0,0,.4-.3.8-.8.9-1.1,1.4-1.8,1.3-1.8,0,0-2.3-1.7-5-3.8-2.7-2.1-5-3.8-5.1-3.9,0,0-.2,0-.2,0ZM105.7,378.5c-1.3.3-1.4.4-.9.4.2,0,.4,0,.5,0,0,0,.5-.2.9-.3s.8-.2.7-.3-.6,0-1.2.3ZM3.4,341.2c-.1.5-.2,1.6,0,1.4,0,0,0-.5.1-1,0-.5,0-.7,0-.4ZM158.3,406.7c-.3.4-.5.7-.5.8,0,0,.3-.2.6-.6.3-.4.5-.7.5-.8,0,0-.3.2-.6.6ZM3.2,343.8c0,.2-.3,2.9-.2,2.8,0,0,.1-.7.2-1.5,0-.8,0-1.4,0-1.3ZM16.3,350.7c-2,0-4.8,0-6.2,0-1.4,0-2.5,0-2.6,0-.2,0-.2,3.2,0,5.5v1.4c0,0,6.3-.4,6.3-.4,3.4-.2,6.3-.4,6.5-.5.2,0,.2-.3.1-1,0-.5,0-1.8,0-2.8,0-1-.1-1.9-.2-1.9,0,0-1.8-.1-3.8-.1ZM156.2,409.2c-.5.5-.9,1.1-1,1.1,0,0,0,.1,0,.1.2,0,1.8-2,1.9-2.1,0,0-.4.3-.8.8ZM136.8,404.1c-.7.6-1,1-1,1.1,0,.2,8.1,9.6,8.2,9.7.2,0,2.6-2.1,2.5-2.3,0,0-1.3-1.5-2.9-3.2-1.5-1.7-3.5-3.7-4.3-4.6-.8-.9-1.5-1.6-1.5-1.6,0,0-.5.4-1.1.9ZM60,372.5c-.4,1.3-.4,1.3-.1,1.4.2,0,.2,0,0,0-.1-.1-.1-.4.1-1.3l.3-1.2-.4,1.1ZM92.8,387.9c0,.3-.1.7-.2,1.1,0,.6,0,.6,0,.1,0-.3.1-.7.2-1.1,0-.6,0-.6,0-.1ZM2.8,350.4c0,.2,0,2.1,0,2,0,0,0-.5,0-1,0-.9,0-1.2,0-1ZM151.9,413.9c-.4.4-.7.7-.7.8,0,0,.3-.3.7-.6s.7-.7.7-.8c0,0-.3.3-.7.6ZM132.5,407.6c-1.6,1.2-4.6,3.2-6.5,4.4-.8.5-1.6.9-1.6,1,0,.1,1.7,3.3,5.4,9.9l.8,1.4.7-.4c1-.6,3.8-2.2,5.3-3.3,1.8-1.2,5.1-3.7,5.2-3.8,0,0-.9-1.4-2.1-2.9-1.2-1.5-3-3.8-3.9-5-1-1.2-1.8-2.2-1.8-2.2,0,0-.6.4-1.3,1ZM2.8,356c0,.1.1,2.3.2,2.3,0,0,0-.5,0-1.1,0-1.2-.1-1.3-.2-1.2ZM147.6,417.8c-.5.4-.8.8-.8.8,0,0,1.8-1.4,1.7-1.5,0,0-.4.3-.9.7ZM20.5,364.6c-.4,0-3.2.6-6.3,1.2l-5.5,1.1v.4c.3,1.2.6,2.5.7,2.7,0,0,.7,0,1.4-.1.7-.2,3.4-.8,6.1-1.4,2.7-.6,4.9-1.1,5-1.1,0,0-.5-2.8-.6-2.9,0,0-.4,0-.8.1ZM3,358.8c-.1.2.8,7,1,7.8v.4c.1,0,0-.5,0-.5,0-.2-.2-1.3-.3-2.3-.1-1-.3-2.5-.4-3.4-.2-1.7-.2-2.3-.3-2.1ZM144.9,420c-.8.6-2.1,1.6-2.9,2.2-.8.6-1.7,1.2-1.9,1.4l-.4.3.4-.2c.8-.4,6.3-4.6,6.2-4.8,0,0-.7.4-1.5,1.1ZM23.5,375.3c-.4.1-3.1,1.1-6.1,2.1-4.4,1.5-5.3,1.9-5.3,2.1,0,.1.4,1,.7,2l.7,1.7,5.9-2.4c3.3-1.3,5.9-2.5,5.9-2.5,0,0-.3-.8-.6-1.7l-.6-1.7-.7.3ZM119.1,415.6c-.3.1-1,.4-1.5.7l-.9.4,2.5,5.9,2.5,5.9,1.7-.7c.9-.4,1.7-.7,1.7-.8,0,0,0-.4-.2-.7-.1-.3-.6-1.3-1.1-2.3-.5-1-1.1-2.3-1.3-2.9-.3-.6-.9-1.9-1.3-2.9-.9-1.9-1.3-2.8-1.4-2.8,0,0-.3,0-.6.2ZM4.1,367.2c0,.5.4,2.1.5,2.2,0,0-.3-2-.4-2.2,0-.1,0-.1,0,0ZM138.1,425c-.9.6-2,1.3-2.5,1.6-.5.3-.9.6-.8.5.3,0,5.1-3.1,4.9-3.2,0,0-.8.4-1.7,1ZM4.8,370.7c.1.7.3,1.4.4,1.7l.2.5v-.6c-.5-1.8-.8-2.8-.8-2.9,0,0,0,.5.2,1.2ZM5.8,374.8c.2,1,.9,3.1,1.1,3.7.1.4.3.8.2.8,0,0,0,.1.1.2,0,0,0-.5-.3-1.1-.2-.7-.6-1.7-.8-2.4-.2-.7-.4-1.3-.4-1.3,0,0,0,0,0,.2ZM131.6,428.8c-2,1.1-3.8,2-5.8,2.8-.9.4-1.6.7-1.5.8,0,0,.8-.2,1.5-.6.8-.4,1.6-.7,1.9-.8.2-.1.9-.4,1.5-.7.6-.3,1.1-.6,1.2-.6,0,0,2.4-1.3,2.8-1.5.1,0,.2-.1.1-.1,0,0-.8.3-1.6.8ZM7.6,380.5c.6,1.9,1.2,3.5,1.3,3.5,0,0-.3-1.1-.8-2.3s-.7-1.8-.5-1.2ZM32.8,393.2c.7.7,1.3,1.6,1.7,2.4.1.3.3.5.3.4.2-.4-1.8-3.2-2.4-3.4,0,0,0,.2.4.5ZM26.5,391.8c-.9.4-2,1-1.8,1.1,0,0,.3-.2.6-.4.3-.2,1-.5,1.5-.7.5-.2.9-.4.8-.4,0,0-.6.2-1.1.4ZM103.4,424.2c-2.1.4-3.2,1.4-3.1,3,0,.7.5,1.8.8,1.9,0,0,0-.1-.1-.3-.4-.6-.6-1.7-.4-2.4.4-1.1,1.5-1.9,3.3-2.1.5,0,.8-.1.7-.2,0,0-.6,0-1.1.1ZM9.1,384.3c0,.2.4,1.2.5,1.2,0,0,0-.3-.2-.7-.1-.3-.3-.6-.3-.5ZM123.3,432.7c-.3.1-.6.3-.5.3.2,0,1.2-.4,1.2-.5,0,0-.3,0-.7.2ZM9.7,385.8c0,0,0,.4.3.7.2.3.6,1.2.8,1.9.3.7.8,1.7,1.1,2.3.3.6.6,1.1.6,1.1,0,.2,1.4,2.6,1.5,2.8.2.3-.2-.6-1.4-2.8-.6-1.2-1.5-3-2-4.1-.5-1.1-.9-1.9-.9-1.9ZM120.4,433.8c-1.1.4-3.1,1.1-4.3,1.5-2.3.7-3.3,1-2.9,1,.3,0,2.9-.8,3.1-.9,0,0,.6-.2,1.2-.4.6-.2,1.6-.5,2.2-.7.6-.2,1.5-.5,2-.7.5-.2.9-.4.9-.4,0,0-1,.3-2.1.7ZM28,394.2c-.5.2-1,.5-1.3.6l-.4.3.5-.3c.6-.3,1.5-.7,2-.8.2,0,.3-.1.3-.1,0,0-.5,0-1,.2ZM31.8,395.7c.3.4.6,1.2.8,1.6.1.4.2.8.2.9,0,.1,2.3-.4,2.3-.5,0,0-.1,0-1.1.2l-1.1.3-.2-.6c-.2-.9-1.1-2.4-1.4-2.6,0,0,.2.3.5.8ZM105.4,428.2c.3.1.7.3,1,.4.3,0,0,0-.5-.3-.5-.2-.8-.3-.5-.2ZM107.2,429.3c.2.2.4.8.4,1.3.1.9.2,1,.1,0,0-.6-.5-1.6-.7-1.7,0,0,0,.1.2.4ZM25.6,395.8c-.7.7-1,1.4-1,2.1,0,.7.4,1.7.9,2.3.2.3.3.4.3.2-1.3-2-1.3-3.2,0-4.5.3-.3.5-.6.5-.6,0,0-.3.2-.6.5ZM22.7,394.9c-.2.2-.4.7-.5,1-.1.3,0,.2.3-.4.5-1,.7-1.4.2-.6ZM94.2,425.3c-.6,0-1.1,0-1.1.1,0,0,.4,0,.9,0,.5,0,1.1,0,1.3,0,.2,0,.3,0,.3,0s-.6,0-1.2,0ZM97.7,426.7c.5.8.6,1.1.7,2.4.1,1.2.2,1.5.2.3,0-1.3-.3-2.2-.7-2.7-.5-.8-.6-.7-.2,0ZM91.8,425.7c-.6.1-1.1.3-1.2.4-.1,0,0,2.4,0,2.3,0,0,0-.5,0-1.1v-1.1c0,0,.7-.2.7-.2.4-.1,1-.3,1.2-.3.2,0,.4-.1.3-.1,0,0-.6,0-1.1.2ZM105,430.7c.4.5-.2,1-1.5,1.1-.4,0-.7,0-.6.1.2,0,1,0,1.6-.2.3,0,.6-.2.7-.4.1-.3,0-.7-.2-.8,0,0,0,0,0,.2ZM37.6,403.9c.2.5.3,1,.3,1.1,0,0,0,.1,0,.1.2,0,0-1.2-.4-1.6-.2-.4-.2-.3,0,.5ZM106.8,432.7c-.4.4-1.8,1-2.7,1.1-.8.1-1,.2-.3.2.9,0,2.2-.5,2.8-1,.3-.2.6-.5.6-.5,0,0-.2,0-.4.2ZM48.6,408.2c0,0,.3.2.7.4,1.3.5,1.5.5.4,0-.6-.3-1.1-.4-1.1-.4ZM95.7,428.4c0,.3.3,1.7.4,3.2.1,1.5.2,2.6.2,2.6.1-.3-.3-5.2-.5-5.7l-.2-.6.2.5ZM98.6,430.4c0,.1,0,2.1.1,2.1,0,0,0-.5,0-1.1,0-.6-.1-1-.1-1ZM86.4,425.7c.5.3,1.1.6,1.2.7.1.1,0,0,0-.2-.2-.2-.7-.5-1.2-.7l-.9-.4,1,.5ZM84.2,425.2c-.7,0-2.2.5-1.9.6,0,0,.2,0,.4-.1.3-.2,1.4-.4,2.1-.4.3,0,.4,0,.3,0-.1,0-.5,0-1,0ZM22.3,399.5c.3.8,1.5,2.5,2.2,3.2.3.3.7.6.7.5,0,0-.2-.2-.4-.5-.7-.6-1.7-2-2.1-2.9-.4-.9-.6-1.1-.3-.3ZM75.2,421.4c0,.1-.2.6-.2,1,0,.4,0,.7,0,.5,0-.1.2-.6.2-1,0-.4,0-.7,0-.5ZM88.1,427.1c.1.3.3.7.4,1l.2.5v-.5c-.2-.3-.3-.7-.5-1l-.3-.4.2.5ZM15,396.4c0,.3,1.7,2.9,1.7,2.8,0,0-.2-.5-.6-1-.3-.5-.8-1.2-.9-1.5-.2-.3-.3-.4-.2-.3ZM40.5,407.2c-.5,0-1.6.5-1.8.8,0,0,.2,0,.5-.2.8-.6,1.6-.5,2.8,0,.6.3.9.4.8.3-.3-.3-1.8-.9-2.3-.9ZM110.8,436.8c-.3,0-1.4.3-2.5.6-1.1.2-2.2.5-2.4.5h-.4c0,.1.4,0,.4,0,1.5-.2,5.7-1.2,5.5-1.3,0,0-.3,0-.6.1ZM93.2,429.2c0,.1.3,5.2.3,5.2,0,0,0-1.2-.1-2.7-.1-1.4-.2-2.6-.2-2.5ZM44,409.2s.2.3.4.5c.2.3.4.5.4.6,0,0-.2.4-.6.6-.3.2-.6.4-.5.5,0,0,1.2-.8,1.3-1,0,0-.2-.4-.4-.7-.5-.6-.5-.7-.6-.6ZM59.9,416c1.3.7,3.5,1.6,3.4,1.5,0,0-1.1-.5-2.3-1.1-1.6-.7-1.9-.8-1.1-.4ZM80.3,425.1c0,0-.3.4-.6.6-.4.3-.7.5-.6.5,0,0,1.4-1,1.5-1.1,0,0,0-.1-.1-.1,0,0-.1,0-.1,0ZM88.6,429.7c0,.6,0,1,0,1,0,0,.2-1.8,0-1.9,0,0,0,.4-.1.9ZM84.6,427.2c-.6,0-1.3.5-1.6,1.1-.3.6-.2.8.2.7.2,0,.2,0,0-.1-.2,0-.2-.2,0-.5.3-.6.6-.9,1.2-1,1-.2,1.9.5,1.9,1.5,0,.3,0,.4.1.2,0-.1,0-.5-.1-.9-.2-.5-.4-.7-.8-.8-.3-.1-.6-.2-.8-.2ZM81.5,426.4c-.2.2-.4.5-.5.7-.2.4-.2.4.2,0,.2-.3.5-.6.6-.7.1-.1.2-.2.1-.2,0,0-.2,0-.4.3ZM77.5,424.6c-.4.2-1.4,1-1.3,1.1,0,0,.4-.2.8-.5.4-.3.8-.5,1-.5.3,0,.3,0,0,0-.1,0-.4,0-.5,0ZM35.8,408.2c-.4.4-.8.8-.8.8,0,0,.4-.3.8-.7.4-.4.8-.8.8-.8,0,0-.4.3-.8.7ZM16.9,399.4c0,0,.2.5.5.9.7,1,.7,1,.8,1,0,0-.3-.5-.6-1-.4-.5-.6-.9-.6-.8ZM33.1,406.4c.2.3.3.5.3.6,0,.2-1.2,1.2-1.4,1.3-.1,0-.1,0,0,.1.2,0,1.4-1,1.5-1.3,0-.2-.4-1-.7-1.1,0,0,0,.2.2.4ZM72.3,422.9c0,.1-.2.6-.2,1s0,.7,0,.5c.2-.4.4-1.9.3-1.6ZM42.2,410.3s.3.4.6.8c.4.5.6.7.7.6,0,0,0,0,0,0,0,0-.4-.2-.6-.6-.4-.5-.8-1-.7-.7ZM50.7,414.1c1,.9,1.2,1.4,1.2,2.6,0,.3,0,.4,0,.3.4-.9-.6-2.9-1.6-3.3-.1,0,0,.1.3.4ZM63.2,419.6c0,.2-.2.2-1.7-.5l-1.6-.8-.3.7-.3.7.3-.6.3-.6,1.6.8,1.6.8v-.3c.2-.2.2-.3.2-.3,0,0-.1,0-.2.2ZM41,411.8c.4.9.7,1.8.8,2.1,0,.3,0,.3,0,.2,0-.5-.2-1.3-.9-2.6l-.7-1.3.7,1.6ZM90.8,431.4c0,0,0,.9,0,1.8.1,1.7.1,1.7.5,1.7.2,0,.4,0,.4,0,0,0-.2,0-.3,0-.3,0-.3-.2-.4-1.7,0-1-.2-1.7-.2-1.7ZM30.5,406.4c0,.2.9,1.6,1.2,1.7.1,0,0-.2-.3-.5-.3-.3-.6-.8-.7-1,0-.2-.2-.3-.2-.2ZM67.4,421.9c.4.3.9.7,1,.8.1.1.3.2.3.2.2,0-1.3-1.3-1.9-1.5-.1,0,.1.2.6.5ZM28.1,405.6c-.1.3.4,1.6.9,2.4.3.5.7.9.8.9,0,0,0-.2-.4-.6-.7-.9-1-1.4-1.1-2.2,0-.4-.2-.6-.2-.5ZM37.9,409.7c-.1.3.2,1.4.8,2.3.3.6.6,1.2.7,1.4,0,.2,0,.3.1.1,0-.1-.2-.8-.6-1.4-.3-.7-.7-1.5-.7-1.9,0-.4-.2-.6-.2-.5ZM88.5,431c0,0-.5,0-1.1,0-.6,0-1.1,0-1.1,0,0,0,2,.3,2.2.2,0,0,.1-.1.1-.2,0,0,0,0-.1,0ZM75.1,426.4c-.5.3-.9.6-.9.5,0,0-.1,0-.1,0,0,0,0,.2,0,.2,0,.1,2-1.2,1.9-1.3,0,0-.4.2-.9.6ZM64,421.4c-.7.2-1.7.8-2.1,1.3-.1.2.1,0,.5-.3.7-.6,1.1-.8,2.1-1,.2,0,.4-.1.3-.1,0,0-.4,0-.8.1ZM69.1,423.8c.2.5.3,1.1.4,1.5,0,.4,0,.6.1.6.1-.3-.2-1.9-.5-2.4-.3-.5-.3-.5,0,.3ZM77,427.7c-.5.3-.9.7-.9.8,0,0,.1,0,.2,0,.1-.1.6-.5,1-.8.4-.3.7-.5.7-.6,0,0-.5.3-1,.6ZM19.4,403.2c.2.5,3.6,4.8,3.7,4.7,0,0-.3-.4-.7-.9-.4-.5-1.1-1.4-1.6-2-1.5-2-1.7-2.2-1.5-1.8ZM49.1,415.6c.3.4.3.6,0,1.6-.2.6-.2.6.1-.1.3-.7.3-.9.2-1.2-.1-.2-.3-.5-.4-.5,0,0,0,0,.1.3ZM102.2,438.4c-.7.1-2.1.3-3.1.4-1,.1-1.8.2-1.8.3,0,0,5.4-.5,6-.7.7-.2.3-.2-1,0ZM84.1,430.7c-1.5-.1-1.7,0-1.3.9.2.4.4.6,1.1.9.5.2.9.3,1.1.3.1,0-.1-.2-.7-.3-.7-.2-1-.4-1.2-.7-.3-.4-.4-.8-.2-.9,0,0,.7,0,1.5,0,.8,0,1.4,0,1.3,0-.1,0-.8-.1-1.6-.2ZM56,420.3c-.3.7-.4,1.1-.2.7.2-.4.4-1,.6-1.4.1-.4,0,0-.3.7ZM87.2,432.5c-.1,0-.6.1-1,.1-.4,0-.8,0-.7.1,0,0,1,0,1.8-.1.3,0,.4-.1.3-.2-.1,0-.3,0-.4,0ZM65.3,423.4c-.2,0-.5,0-.7.2l-.4.2.5-.2c.6-.2,1.6,0,1.9.6.1.2.3.6.3.9,0,.3.1.4.2.3,0,0,0-.5-.2-.9-.2-.6-.4-.7-.8-.9-.3-.1-.6-.2-.8-.2ZM35.9,411.6c-.1,0-.3.2-.5.4l-.3.3.4-.2c.2-.1.4-.2.4-.3,0,0,.2.2.5.6.6.8,1.6,1.8,2,2,.2,0,.5,0,.7-.1l.3-.2-.4.2c-.3.2-.4.2-.8-.1-.6-.4-1.5-1.4-1.9-2-.2-.4-.3-.5-.5-.4ZM30,409.1c0,0,1.3,1.2,1.5,1.3,0,0-.1-.2-.4-.5-.8-.8-1-.9-1.1-.9ZM76.5,429c.1.2.6,1.1,1,1.9.4.8.8,1.5.8,1.5,0,0,0,0,0-.1-.7-1.6-1.3-2.6-1.6-3.1-.2-.3-.3-.4-.2-.2ZM87.7,433.9c0,.6,0,.7-1.6.8-.5,0-1,.1-.9.1,0,0,1.8,0,2.3-.2.4-.1.4-.2.4-.6,0-.3,0-.5,0-.6,0,0,0,.1,0,.4ZM80.2,431.2c0,.6.4,1.4.6,1.7.1.1,0-.1-.1-.6-.2-.4-.4-1-.4-1.2q0-.4,0,0ZM34.8,412.5c-.4.3-.4.6,0,1.1.3.3.3.3.2,0,0-.2-.2-.4-.3-.5-.1-.1,0-.2.2-.5.4-.4.3-.5,0-.1ZM41,415.7c-.2.2-.6.5-1,.6-.8.3-.7.4.1,0,.3-.1.8-.4.9-.6.5-.5.4-.6,0-.1ZM74.1,429.7c.2.4.8,1.4,1.2,2.3l.7,1.6.8.2c.5,0,.7.1.6,0-.1,0-.5-.2-.8-.2h-.6c0,0-.6-1.4-.6-1.4-.6-1.5-1.4-3-1.6-3,0,0,0,.2.3.6ZM54.8,422.8c-.3.6-.4.9-.2.6.2-.3.4-.8.5-1.2s0-.1-.3.5ZM63,426.1c-.2.4,0,1.5.3,1.8.2.2.5.4.8.5.5.2.6.2,1.2,0,.4-.2.8-.4.8-.6,0-.3,0-.3-.2,0-.7.9-2.2.7-2.7-.3-.1-.3-.2-.8-.2-1.1,0-.3,0-.5,0-.4ZM81.8,434c.3.2,1.6.9,1.5.7,0,0-.4-.3-.9-.5-.5-.3-.8-.3-.6-.2ZM27.4,412.7c0,0,1.4,1.5,1.5,1.4,0,0-.2-.3-.5-.6-.3-.3-.7-.6-.8-.7-.1-.1-.2-.2-.2-.1ZM89.8,439.2c-1,0-1.3,0-.7.1.5,0,1.9,0,1.8,0,0,0-.5,0-1,0ZM53.7,425.1c-.4.8-.4.9-.2,1,.2,0,.2,0,.1,0,0,0,0-.5.2-1l.3-.9-.4.9ZM60.5,427.4c0,.4.7,1.7.8,1.6,0,0,0-.1,0-.2,0,0-.3-.5-.5-1-.2-.4-.3-.7-.3-.5ZM56,426.4l-.3.6-.9-.3-.9-.3.9.4.9.4.3-.7c.2-.4.3-.7.2-.7,0,0-.2.3-.3.6ZM31.6,416.7c0,.2,1.6,1.6,1.7,1.5,0,0-.3-.3-.7-.7-.4-.4-.8-.7-.9-.8,0,0-.1,0-.1,0ZM83.8,439c-.6,0-1.1,0-1,0,0,0,2.1.2,2.3.2.2,0-.1-.1-1.2-.2ZM34.9,419.6c.2.2.6.5.8.6.2.1.1,0-.3-.3-.7-.6-1.1-.9-.5-.3ZM80,438.6c-.5,0-.6,0-.3,0,.6.1,1.6.2,1.3,0-.1,0-.6-.1-1-.1ZM37.9,422c.3.2.6.5.8.5.1,0,0-.1-.3-.4-.7-.6-1.1-.7-.5-.2ZM76.5,438.1c-.4,0-.5,0-.4,0s.5.1.9.2c.8,0,.4-.1-.5-.2ZM44.7,426.5c.3.2.6.4.9.5.3.1.3,0-.1-.2-.7-.5-1.3-.7-.7-.3ZM68.2,436.4c-.5-.1-.5,0-.2,0,.2,0,.6.2.9.3.5,0,.5,0,.2,0-.2,0-.6-.2-.9-.3ZM51.2,430.1c.3.2.8.4,1.1.5.3,0,0,0-.5-.3-.6-.3-.9-.3-.6-.2ZM60.7,434.1c.3.2.8.4,1.1.5.3,0,0,0-.5-.3-.6-.3-.9-.3-.6-.2ZM54.6,431.7c1,.4,2.6,1.1,3.6,1.5,1,.4.2,0-1.8-.8-2-.8-2.8-1.1-1.8-.7Z"/>
  <circle class="st4" cx="91.7" cy="351.7" r="87.4" transform="translate(-221.8 167.9) rotate(-45)"/>
</svg>