<svg xmlns="http://www.w3.org/2000/svg" viewBox="0 0 338.8 443.1" xmlns:v="https://vecta.io/nano"><defs><linearGradient id="A" x1="350.204" y1="113.666" x2="150.204" y2="126.966" gradientUnits="userSpaceOnUse"><stop offset="0" stop-color="#0ac18e"/><stop offset="1" stop-color="#23a6d5"/></linearGradient></defs><path d="M40.6 72.8C21.4 150.9 2.9 315.2 83.1 347m244.5-153.9C285.4 261.6 181.2 389.9 102.2 355" fill="none" stroke="#ececec" stroke-width="9"/><path d="M325.8 108.3c17.5 42.8 17.3 90.7-.6 133.4l-5.3-2.2c-1.7-16.8-12.3-32.2-29-39.2s-35.1-3.8-48.3 6.7l-41.3-17.3c-1.7-16.8-12.3-32.2-29-39.2s-35.1-3.8-48.3 6.7l-37.5-15.7c-1.7-16.8-12.3-32.2-29-39.2S22.4 98.5 9.2 109l-5.3-2.2C21.7 64.2 55.8 30.5 98.6 13s90.7-17.3 133.4.6c42.6 17.9 76.4 51.9 93.9 94.7h-.1z" fill="url(#A)" fill-rule="evenodd"/><path d="M86.26,339.584l80.371-191.194,11.431,4.805-80.371,191.194-11.431-4.805Z" fill="#ececec"/><path d="M309.3,186.4c3.6,1.5,7.7-.3,8.9-3.9,3.8-11.4,5.7-23.5,5.6-35.6-.1-14.4-3-28.7-8.7-42-5.6-13.3-13.8-25.4-24.1-35.5-8.6-8.5-18.6-15.5-29.4-20.7-3.5-1.7-7.6,0-9,3.6l-.7,1.7c-1.5,3.6.3,7.6,3.7,9.4,8.9,4.4,17.1,10.3,24.3,17.3,8.8,8.7,15.8,19,20.6,30.4s7.3,23.6,7.4,35.9c0,10-1.5,20-4.5,29.5-1.2,3.7.5,7.8,4.1,9.2l1.7.7h.1ZM237.4,56.1c3.7-1.1,5.8-5.1,4.4-8.7l-1.5-3.9c-1.5-3.6-5.7-5-9.2-3.2l-1.7.8c-3.5,1.7-4.8,5.9-3.4,9.5.2.5.4,1,.6,1.4,1.4,3.6,5.3,5.7,9,4.6l1.8-.5h0Z" fill="rgba(255,255,255,.4)"/><path d="M109,32.5c-.7-3.8-4.3-6.3-8.1-5.4-14.1,3.5-27.4,9.8-39.1,18.4-11.7,8.7-21.5,19.6-28.9,32.1-2,3.3-.6,7.6,2.8,9.3l1.7.9c3.4,1.8,7.6.4,9.6-2.9,6.3-10.3,14.5-19.3,24.2-26.6,9.7-7.2,20.7-12.5,32.4-15.5,3.7-1,6.3-4.6,5.6-8.4l-.3-1.8.1-.1Z" fill="rgba(12,136,180,.5)"/><circle cx="90.283" cy="351.879" r="87.5" fill="#fff"/><circle cx="91.844" cy="350.479" r="92.499" fill="#201447"/><path d="M20.337 369.883l-13.204 3.601 1.271 4.251 13.014-4.235-1.082-3.617zm-1.764-8.369l-.392-3.022-13.598 1.553.453 3.493 13.537-2.024zM4.052 349.955l13.687.105.286-6.145-13.638-1.181-.336 7.221h0zM5.4 335.117l13.476 2.407.605-3.047-13.37-2.941-.711 3.581h0zm2.427-10.11l13.096 3.982.954-2.904-12.929-4.49-1.12 3.412h0zm2.228-6.409l12.744 4.991 2.451-5.579-12.315-5.969-2.879 6.557zm12.369-21.857l10.815 8.389 1.947-2.421-10.475-8.813-2.288 2.845h0zm4.298-5.144l10.118 9.219a73.57 73.57 0 0 1 8.898-8.357l-8.56-10.683c-3.749 2.981-7.247 6.265-10.456 9.821zm15.675-13.66l7.699 11.317 2.57-1.675-7.248-11.61-3.021 1.968zm12.909-7.271l5.685 12.449 2.85-1.235-5.186-12.665-3.349 1.452zm13.793 9.299a74.76 74.76 0 0 1 5.882-1.632l-3.144-13.319a88.3 88.3 0 0 0-6.913 1.917l4.174 13.033zm17.088-3.372l3.08-.171-.491-13.679-3.619.201 1.031 13.649zm9.549-.12a73.73 73.73 0 0 1 6.163.582l1.826-13.566a86.92 86.92 0 0 0-7.222-.683l-.767 13.667zm8.654.964a73.58 73.58 0 0 1 8.9 2.109l3.917-13.117c-3.432-1.04-6.925-1.867-10.46-2.476l-2.358 13.484zm16.754 4.992l2.804 1.276 5.943-12.328-3.323-1.513-5.424 12.564zm8.547 4.356l2.637 1.636 7.467-11.47-3.099-1.922-7.005 11.757zm9.341 6.556c3.14 2.588 6.06 5.433 8.729 8.504l10.293-9.024a87.09 87.09 0 0 0-10.258-9.994l-8.765 10.515h0zm10.358 10.443l1.89 2.437 10.971-8.186-2.222-2.865-10.639 8.613zm5.539 7.818c1.076 1.75 2.074 3.542 2.998 5.369l12.194-6.215a87.94 87.94 0 0 0-3.524-6.309l-11.668 7.155zm8.214 18.737l13.175-3.699-1.039-3.428-13.012 4.24.875 2.887h0zm14.757 2.833l-13.42 2.687.546 3.035 13.515-2.155-.641-3.567zm1.525 11.292l-13.655.926.155 3.125 13.683-.378-.183-3.673zm.207 6.878l-13.687-.158a73.91 73.91 0 0 1-.305 6.116l13.633 1.229a87.43 87.43 0 0 0 .359-7.187h0zm-1.21 13.738l-13.497-2.288-.573 2.995 13.396 2.812.674-3.519zm-9.381 27.182l1.033-1.967 2.147-4.542-12.522-5.522-1.822 3.856-.884 1.683 12.048 6.492h0zm-7.284 11.319l-10.892-8.29-1.94 2.445 10.605 8.654 2.227-2.809h0zm-4.355 5.297l-10.212-9.115-2.086 2.25 9.847 9.509 2.451-2.644zm-10.775 10.212l-8.531-10.705-2.47 1.885 8.099 11.035 2.902-2.215zm-5.405 3.978l-7.656-11.346a74.17 74.17 0 0 1-10.624 6.011l5.795 12.399c4.333-2.004 8.51-4.366 12.485-7.065h0zm-23.254-3.255l-3.281 1.149 4.236 13.014 3.854-1.35-4.809-12.813h0z" fill="#d1ced9"/><circle cx="91.844" cy="350.479" r="69.373" transform="matrix(.707107 -.707107 .707107 .707107 -220.926 167.596)" fill="#0ac18e"/><path d="M121.695,339.534c.479-8.626-5.894-13.767-15.377-16.756l2.733-12.319-7.492-1.66-2.765,12.265c-1.966-.448-3.947-.982-5.975-1.381l2.733-12.202-7.493-1.659-2.733,12.32c-1.636-.319-15.134-3.337-15.134-3.337l-1.79,8.019s5.559,1.111,5.457,1.196c3.058.667,3.642,2.664,3.592,4.239l-7.469,33.776c-.345.912-1.253,2.307-3.359,1.866.077.118-5.448-1.213-5.448-1.213l-3.488,8.637,15.126,3.391-2.766,12.462,7.492,1.66,2.806-12.54,5.991,1.389-2.789,12.469,7.492,1.66,2.758-12.445c11.462,2.711,21.939-.057,25.471-10.646,2.077-6.411-1.927-14.573-7.031-17.862,4.802-1.251,8.663-4.68,9.458-11.328h0ZM105.293,363.883c-3.642,10.416-17.791,4.716-22.862,3.616l3.528-16.558c5.087,1.108,21.474,3.225,19.335,12.942ZM107.235,339.88c-3.013,9.373-15.104,4.483-19.325,3.539l3.185-15.033c4.222.983,17.381,2.03,16.14,11.495h0ZM100.057,435.912c.499-.051.847-.135,1.044-.254s.282-.317.253-.597c-.022-.22-.176-.397-.46-.535s-.711-.281-1.28-.432l-1.209-.375c-.364-.135-.68-.309-.948-.522s-.485-.476-.652-.791-.274-.704-.322-1.167c-.092-.9.17-1.647.787-2.238s1.509-.947,2.677-1.066c.584-.059,1.149-.065,1.696-.016s.983.119,1.312.208l-.259,2.166c-.328-.077-.681-.14-1.061-.187s-.801-.048-1.264,0c-.852.087-1.254.367-1.206.843.011.109.039.205.085.287s.127.156.244.224.275.139.473.211c.247.088.498.165.753.23.619.16,1.134.328,1.546.504s.742.376.992.602c.243.215.434.482.559.781.122.294.203.642.244,1.043.096.947-.187,1.701-.85,2.259s-1.645.903-2.947,1.036c-.852.086-1.569.085-2.15-.003l-1.214-.245.231-2.256c.481.135.971.23,1.468.284.485.053.974.056,1.459.008h0ZM86.267,428.868c.467-.126,1.069-.241,1.805-.344s1.508-.148,2.315-.133c.819.015,1.5.134,2.04.358s.966.534,1.278.931.529.866.654,1.407.182,1.141.17,1.802l-.097,5.45-2.734-.049.091-5.119c.016-.881-.09-1.507-.315-1.878s-.657-.563-1.293-.573l-.624.016-.588.054-.133,7.45-2.734-.049.165-9.323h0ZM75.051,431.939c.127-.847.368-1.568.724-2.165s.777-1.074,1.263-1.434c.478-.356,1.025-.609,1.605-.743.572-.135,1.165-.159,1.746-.072,1.355.204,2.363.778,3.026,1.725s.873,2.225.631,3.835l-.096.515-.111.494-6.135-.921c-.023.565.171,1.046.581,1.442s1.004.652,1.778.768c.49.074.986.102,1.482.083.492-.019.899-.072,1.222-.16l.033,2.251c-.156.051-.36.094-.613.13s-.532.06-.836.07l-.973-.007c-.345-.015-.686-.047-1.025-.098-.859-.129-1.588-.368-2.184-.717s-1.071-.776-1.423-1.28-.581-1.074-.69-1.709-.111-1.304-.005-2.006h0ZM81.559,431.857c.023-.229.017-.461-.017-.689-.034-.228-.108-.437-.221-.627s-.269-.356-.464-.496-.451-.235-.765-.282c-.303-.045-.571-.033-.803.038-.223.065-.429.176-.606.327-.174.152-.318.335-.425.539-.113.212-.204.43-.274.655l3.576.536h0ZM68.864,428.796l1.048-.656,1.055-.682.97-.649.787-.539,3.133.87-2.401,1.548-2.515,1.478c.266.417.525.899.78,1.446l.715,1.677.579,1.687.384,1.499-3.03-.841-.361-1.198-.458-1.329-.558-1.31c-.205-.426-.422-.798-.65-1.116l-1.131,4.077-2.634-.731,3.691-13.299,2.753.307-2.154,7.761h0ZM63.799,428.681c-.297.698-.671,1.293-1.12,1.787s-.954.864-1.51,1.112c-.561.249-1.169.374-1.782.368-.631-.003-1.278-.145-1.942-.428-.653-.278-1.199-.644-1.637-1.096-.43-.438-.76-.963-.97-1.54-.207-.574-.296-1.196-.262-1.867s.198-1.355.495-2.053.677-1.287,1.142-1.768.976-.841,1.537-1.081c.565-.241,1.173-.362,1.787-.355.631.003,1.261.138,1.891.407.642.273,1.182.636,1.621,1.089.428.436.76.958.973,1.531.211.568.3,1.185.269,1.85s-.194,1.346-.492,2.044h0ZM61.232,427.587c.331-.777.436-1.453.316-2.03s-.467-.987-1.041-1.231-1.114-.211-1.618.099-.922.854-1.253,1.631-.436,1.46-.315,2.05.469,1.008,1.043,1.252,1.113.204,1.617-.12.92-.874,1.251-1.651h0ZM59.114,418.23l-1.211,2.12-3.33-1.903-5.099,8.923-2.486-1.421,5.099-8.923-3.331-1.903,1.211-2.119,9.147,5.227ZM35.181,417.673l8.381-10.966,2.44,1.31-2.808,3.675c.183.063.405.16.667.291.251.124.49.272.714.442.622.475,1.075.956,1.358,1.442s.43.979.44,1.479-.097,1.004-.322,1.509-.538,1.021-.939,1.546l-3.31,4.331-2.173-1.661,3.109-4.068c.535-.7.824-1.264.867-1.693s-.178-.83-.664-1.201c-.195-.148-.39-.271-.586-.366l-.543-.242-4.458,5.833-2.173-1.661h0ZM31.643,411.67c.36.35.647.563.865.637s.424.011.62-.19c.154-.157.191-.39.114-.696s-.242-.725-.49-1.259l-.489-1.168c-.125-.341-.196-.699-.209-1.062-.009-.342.054-.678.188-1.008s.363-.662.688-.996c.632-.648,1.372-.926,2.222-.833s1.694.549,2.535,1.369c.407.394.776.826,1.101,1.29.313.45.541.83.683,1.14l-1.827,1.192c-.151-.301-.33-.612-.538-.934s-.478-.645-.811-.969c-.614-.597-1.087-.726-1.42-.384-.077.078-.132.162-.165.248s-.039.197-.015.331.07.3.142.499.173.44.306.725c.274.577.476,1.08.606,1.508s.188.81.176,1.148c-.009.324-.091.642-.24.93-.147.282-.361.568-.643.857-.665.682-1.423.948-2.277.799s-1.749-.682-2.687-1.595c-.614-.598-1.073-1.147-1.378-1.65l-.592-1.089,1.878-1.271c.204.455.447.893.724,1.308.279.417.589.791.931,1.124h0ZM31.246,399.416c.51.626.863,1.206,1.06,1.74s.265,1.034.204,1.502-.239.908-.534,1.321-.675.809-1.14,1.187l-4.414,3.59-1.266-1.076c-.53-.468-1.108-1.086-1.733-1.855-.394-.484-.709-.958-.943-1.422s-.371-.916-.408-1.36c-.038-.438.041-.877.229-1.274.189-.406.512-.795.967-1.166.436-.355.878-.569,1.325-.64.436-.072.883-.033,1.299.114.42.147.824.378,1.214.692.398.322.76.685,1.082,1.083l.56.762c.126.189.236.388.33.595l.2-.162c.361-.294.561-.638.602-1.033s-.159-.865-.599-1.405c-.294-.361-.609-.695-.947-1.004s-.659-.553-.962-.732l1.489-1.66.497.364.606.513.647.621c.223.224.434.458.633.703h0ZM25.177,404.637l.501.586.413.42,1.609-1.309c-.051-.101-.136-.244-.256-.431-.109-.171-.227-.335-.354-.493-.152-.189-.317-.367-.493-.533-.166-.156-.337-.274-.511-.353-.164-.077-.345-.109-.526-.093-.176.017-.349.095-.52.234-.332.27-.472.569-.419.897s.238.684.555,1.074h0ZM17.349,397.437c-1.074-1.766-1.402-3.411-.982-4.934s1.534-2.834,3.342-3.934c.899-.547,1.787-.893,2.664-1.041s1.708-.123,2.493.073,1.509.557,2.174,1.084,1.238,1.187,1.721,1.982c.28.46.5.899.661,1.317s.283.795.366,1.131.134.627.155.873l.028.542-2.405.496c-.026-.442-.111-.924-.256-1.445s-.389-1.063-.732-1.627c-.229-.377-.516-.707-.861-.991-.345-.284-.751-.486-1.186-.589-.445-.108-.939-.113-1.479-.013s-1.125.341-1.752.722c-.502.305-.937.645-1.303,1.018s-.633.778-.797,1.215-.217.909-.158,1.417.26,1.045.603,1.61c.192.322.408.629.644.919l.607.662c.171.168.354.322.549.461l.481.331-1.55,1.867c-.419-.218-.903-.589-1.451-1.115s-1.075-1.202-1.577-2.028h0Z" fill="#fff"/></svg>