<svg xmlns="http://www.w3.org/2000/svg" viewBox="0 0 338.8 443.1" xmlns:v="https://vecta.io/nano"><defs><linearGradient id="A" x1="350.2" y1="113.6" x2="150.2" y2="126.9" gradientUnits="userSpaceOnUse"><stop offset="0" stop-color="#0ac18e"/><stop offset="1" stop-color="#23a6d5"/></linearGradient></defs><path d="M40.6 72.8C21.4 150.9 2.9 315.2 83.1 347m244.5-153.9C285.4 261.6 181.2 389.9 102.2 355" fill="none" stroke="#ececec" stroke-width="9"/><path d="M325.8 108.3c17.5 42.8 17.3 90.7-.6 133.4l-5.3-2.2c-1.7-16.8-12.3-32.2-29-39.2s-35.1-3.8-48.3 6.7l-41.3-17.3c-1.7-16.8-12.3-32.2-29-39.2s-35.1-3.8-48.3 6.7l-37.5-15.7c-1.7-16.8-12.3-32.2-29-39.2S22.4 98.5 9.2 109l-5.3-2.2C21.7 64.2 55.8 30.5 98.6 13s90.7-17.3 133.4.6c42.6 17.9 76.4 51.9 93.9 94.7z" fill-rule="evenodd" fill="url(#A)"/><path d="M86.26 339.584l80.371-191.194 11.431 4.805-80.371 191.194z" fill="#ececec"/><path d="M309.3 186.4c3.6 1.5 7.7-.3 8.9-3.9 3.8-11.4 5.7-23.5 5.6-35.6-.1-14.4-3-28.7-8.7-42-5.6-13.3-13.8-25.4-24.1-35.5-8.6-8.5-18.6-15.5-29.4-20.7-3.5-1.7-7.6 0-9 3.6l-.7 1.7c-1.5 3.6.3 7.6 3.7 9.4 8.9 4.4 17.1 10.3 24.3 17.3 8.8 8.7 15.8 19 20.6 30.4s7.3 23.6 7.4 35.9c0 10-1.5 20-4.5 29.5-1.2 3.7.5 7.8 4.1 9.2l1.7.7zM237.4 56.1c3.7-1.1 5.8-5.1 4.4-8.7l-1.5-3.9c-1.5-3.6-5.7-5-9.2-3.2l-1.7.8c-3.5 1.7-4.8 5.9-3.4 9.5.2.5.4 1 .6 1.4 1.4 3.6 5.3 5.7 9 4.6l1.8-.5z" fill-opacity=".4" fill="#fff"/><path d="M109,32.5c-.7-3.8-4.3-6.3-8.1-5.4-14.1,3.5-27.4,9.8-39.1,18.4-11.7,8.7-21.5,19.6-28.9,32.1-2,3.3-.6,7.6,2.8,9.3l1.7.9c3.4,1.8,7.6.4,9.6-2.9,6.3-10.3,14.5-19.3,24.2-26.6,9.7-7.2,20.7-12.5,32.4-15.5,3.7-1,6.3-4.6,5.6-8.4l-.3-1.8Z" fill="#0c88b4" fill-opacity=".5"/><circle cx="90.3" cy="351.9" r="87.5" transform="matrix(.707107 -.707107 .707107 .707107 -222.4 166.9)" fill="#fff"/><g fill-rule="evenodd"><path d="M110.2 289.3c-3.2-1-6.2-1.7-8.5-2.1-.3 0-.9-.2-1.3-.2-1.6-.3-8.1-.9-8.3-.7h-.3-.9-1.3c-1.6 0-4.6.2-5.6.3-.3 0-1 .1-1.5.2-.5 0-1.3.2-1.9.3-.6 0-1.2.2-1.4.2h-.5l-1.7.4-1.9.4c-.2 0-.4.1-.5 0 0 0-.3 0-.6.1s-.5.2-.5.1c0 0-.3 0-.5.1-.2 0-.8.3-1.3.4l-1 .3c-.1 0-.7.2-1.4.4-1.5.5-6.3 2.4-7.7 3.1l-1.3.6c-.1 0-.6.3-1 .5l-1.2.6c-.2.1-.4.2-.5.3 0 0-.2.2-.5.3-.2.1-.5.2-.6.3-.5.4-2.3 1.5-2.5 1.6-.1 0-.3.2-.3.2s-.2.2-.4.3c-.2 0-.5.3-.6.4-.2.1-.7.5-1.2.8l-2.2 1.7c-.3.2-.5.4-.6.4-.2 0-3.1 2.7-4.2 3.7l-.9.9-.6.6s-.1.2-.3.3c-.1 0-.3.3-.5.4a128.77 128.77 0 0 0-3.3 3.8c-.2.2-.6.8-1 1.3l-1 1.3c-3.9 5.6-5.1 7.9-7.4 13.3-2.1 4.9-2.9 7.5-3.8 12.3-.5 2.7-.6 2.8-.7 3.9 0 .6-.2 1.3-.2 1.6 0 .6-.4 4.4-.4 5v.7.4.9 1.3c0 1.5.2 5.4.3 5.6a2.64 2.64 0 0 0 .1.7c.1 1.2.2 1.8.3 2.8 0 .6.2 1.2.2 1.4v.5l.4 1.8.4 1.9v.3s0 .3.1.6.2.5.1.5a1.34 1.34 0 0 0 .1.5c0 .2.3.8.4 1.3.1.4.3.9.3 1s.2.7.4 1.4c.5 1.5 2.4 6.3 3.1 7.7.3.6.6 1.2.6 1.3s.3.6.5 1 .5.9.6 1.2c.1.2.2.4.3.5a1.41 1.41 0 0 0 .3.5c.1.3.2.5.3.5 0 0 .2.2.3.4 0 .2.4.7.8 1.2l.6 1s0 .2.2.2c0 0 .2.2.3.4 0 .2.3.5.4.6.1.2.5.7.9 1.2.3.5.9 1.2 1.2 1.5.3.4.7.9.9 1.2.6.8 2.7 3.1 3.7 4.2l.9.9c.3.3.6.6.7.6s.2.1.2.2c0 .2 5 4.5 6.3 5.4.3.2.8.5 1 .7.8.5 2.3 1.6 3.4 2.2.9.6 1.7 1 4.4 2.5 1.5.8 8.5 3.8 10.2 4.3 3.6 1.1 6.1 1.7 8.7 2.2.3 0 .9.2 1.3.2 1 .2 2.4.3 5 .6 2.2.2 2.7.2 3.3.2h.4.9 1.3c1.6 0 4.6-.2 5.6-.3.4 0 1-.1 1.5-.2.5 0 1.3-.2 1.9-.3.6 0 1.2-.2 1.4-.2s.6-.1.7-.2h.5.2s.6-.2 1.2-.3 1.2-.3 1.4-.3.4-.1.5 0c0 0 .3 0 .6-.1s.5-.2.5-.1c0 0 .3 0 .5-.1s.8-.2 1.2-.4c.4-.1.9-.3 1-.3.2 0 .8-.3 1.4-.5 1.5-.5 6.3-2.4 7.7-3.1.6-.3 1.2-.6 1.3-.6.2 0 .6-.3 1-.5s.9-.5 1.1-.6.4-.2.5-.3c0 0 .2-.2.5-.3.2-.1.5-.2.6-.3.5-.3 2.3-1.5 2.6-1.6.2 0 .4-.2.4-.3 0 0 .1-.1.3-.2.1 0 .4-.2.6-.3s.7-.5 1.2-.8l2.2-1.7c.3-.2.5-.4.6-.4.2 0 3.1-2.7 4.2-3.7l.9-.9.6-.6s.1-.2.3-.3c.5-.4.8-.8 2.2-2.4 1.7-2 2.6-3.1 3.2-3.9.2-.3.6-.8.7-1 1.6-2.3 3.2-4.9 4.7-7.7.9-1.8 3.6-8.2 4.3-10.2.9-2.8 1.7-6.2 2.2-8.8 0-.3.2-.9.2-1.3.2-.9.3-2.3.5-4.9.2-2.2.2-2.7.2-3.3v-.4-.9-1.3c0-1.5-.2-5.4-.3-5.6 0 0 0-.4-.1-.7-.1-1.2-.2-1.8-.3-2.8 0-.6-.2-1.2-.2-1.4s-.1-.5-.2-.7v-.5-.4c0-.2-.5-2.3-.6-2.9 0-.1-.1-.4-.2-.7 0-.2-.1-.5-.1-.5s0-.3-.1-.5c0-.2-.3-.8-.4-1.3-.1-.4-.3-.9-.3-1s-.2-.7-.4-1.4c-.5-1.5-2.4-6.3-3.1-7.7-.3-.6-.6-1.2-.6-1.3s-.3-.6-.5-1-.5-.9-.6-1.2c-.1-.2-.2-.4-.3-.5 0 0-.2-.2-.3-.5-.1-.2-.2-.5-.3-.5 0 0-.2-.2-.3-.4 0-.2-.4-.7-.8-1.3l-.7-1.2c0-.1-.1-.3-.2-.3 0 0-.2-.2-.2-.3s-.2-.4-.3-.6-.5-.7-.9-1.2c-.3-.5-.9-1.2-1.2-1.5-.3-.4-.7-.9-.9-1.2-.6-.8-2.7-3.1-3.7-4.2l-.9-.9c-.3-.3-.6-.6-.7-.6s-.2-.1-.2-.2c0-.2-5-4.4-6.4-5.4-.3-.2-.8-.6-1-.7-2.1-1.5-4.5-3-7.7-4.7-1.4-.8-8.8-3.9-10.4-4.3zm-7.2 23.5c-.8-.1-1.4-.2-2.1-.3-1.2-.2-4.4-.6-4.4-.6s0 .2-.1.5c0 .4-.1 1.2-.4 2.8 0 .3-.1.8-.2 1.1 0 .3-.1.8-.2 1.1 0 .3-.1.8-.2 1.1 0 .3-.1.8-.2 1.1 0 .3-.2 1.1-.3 1.7-.3 2-.3 2.1-.4 2.2h-1c-.5 0-1.1-.2-1.4-.2s-.8-.1-1.1-.2c-.3 0-.8-.1-1-.1-.7 0-.9-.2-.8-.6 0-.2 0-.5.1-.7 0-.2 0-.5.1-.8 0-.5.5-3.6.8-5.8.2-1.4.3-1.9.5-3 0-.6.1-1 0-1.1h-.3c-.2 0-1 0-2.7-.3-.6 0-1.4-.2-2.2-.3-.3 0-.8-.1-1.1-.2h-.7s-.2.7-.3 1.6c-.1.8-.3 1.8-.3 2.1s-.1.8-.2 1.1c0 .3-.1.8-.2 1.1 0 .3-.1.9-.2 1.4l-.6 4.1c-.1.5-.2.5-.5.4-.2 0-.7-.1-1-.2-.3 0-.8-.1-1.1-.2-.3 0-.9-.1-1.5-.2s-1.2-.2-1.4-.2-1.1-.2-2-.3-2.1-.3-2.6-.4c-.5 0-1.2-.2-1.6-.2s-1.1-.2-1.7-.3c-.9-.2-1.1-.1-1.2 0 0 .1-.2 1.2-.4 2.3s-.4 2.7-.5 3.5l-.2 1.6c0 .1.2.2 2.7.5 3.4.5 4.1.7 4.8 1.3.8.8 1.4 1.9 1.3 2.8 0 .2-.1.8-.2 1.4 0 .6-.2 1.6-.3 2.2 0 .6-.2 1.3-.2 1.6s-.1.8-.2 1.1c0 .3-.1.8-.2 1.1 0 .5-.2 1.3-.7 4.8-.1.7-.2 1.6-.3 1.9 0 .3-.1.8-.2 1.1 0 .3-.1.8-.2 1.1 0 .3-.2.9-.2 1.4-.1 1-.6 4.4-.7 5.2 0 .3-.1.8-.2 1.1s-.1.8-.2 1.1c0 .3-.2.9-.2 1.4-.1.9-.4 3.3-.6 4.1 0 .3-.1.8-.2 1.1-.2 1.3-.7 2-1.6 2.4-.8.3-1.3.3-4-.1-3-.5-2.8-.5-3.1.5-.3.8-.5 1.6-1.8 5.5-.3 1-.6 1.9-.5 1.9 0 .1.3.2 1.7.4.3 0 .8.1 1.1.2a142 142 0 0 0 5.8.8c.8.1 1.7.2 2 .3.3 0 .8.1 1.1.2 2.6.4 2.7.4 2.6.9s-.2 1.3-.4 2.7c-.1 1.1-.2 1.6-.4 2.7 0 .3-.2 1.6-.4 2.8-.2 1.3-.3 2.4-.4 2.6 0 .5 0 .6.6.7.3 0 .8.1 1.1.2s.8.1 1.1.2c.3 0 .8.1 1.1.2 3.1.5 3.3.5 3.3.2v-.8c.1-.8.4-2.3.5-3.3 0-.3.1-.8.2-1.1 0-.3.2-1.3.3-2.3a115.24 115.24 0 0 1 .4-3l.2-1.3h.4c.2 0 .5 0 .6.1.1 0 .4.1.7.1.5 0 1.9.3 2.8.4.3 0 .7.1.9.1.4 0 .4.2.3 1.1 0 .5-.7 4.4-.9 6.1 0 .6-.2 1.3-.2 1.6s-.1.8-.2 1.1c0 .3-.1.8-.2 1.1v.8c0 .1.8.3 2.4.5l4 .6h.7s.3-1 .4-2.1c.3-2.1.4-2.7.6-3.7 0-.3.2-1 .2-1.7.6-4.2.6-4.5 1-4.3.1 0 .9.2 1.7.2 1.6.2 1.7.2 2.8.1h.8c.1 0 2.7-.1 2.8-.2 0 0 .4 0 .8-.1.4 0 .8 0 .9-.2h.4.3c.1 0 .6-.2 1-.3 1.7-.5 4.5-1.8 5.6-2.6.2-.2.5-.4.5-.4.2 0 1.6-1.4 2-2 .8-1.1 1.1-1.4 1.8-2.6.9-1.6 1.6-4 1.8-5.9 0-.6 0-2.3-.2-2.4v-.2s0-.4-.1-.7c0-.3-.1-.6-.1-.6 0-.2-1.4-3.6-1.7-4.2-.2-.3-.3-.5-.4-.6 0-.2-.8-1.3-1.4-2-1.2-1.4-3-3-3.8-3.4-.4-.2-.4-.2.4-.5.3-.1.9-.4 1.2-.6s.6-.4.7-.4.4-.3 1.5-1.1l.9-.9c1.4-1.7 2.2-3.2 2.6-5.2.1-.6.3-1.3.3-1.6v-.6-.4c.1-.3-.1-2.9-.3-3.3 0 0-.1-.4-.2-.7-.2-.8-.6-1.7-1-2.4-.2-.3-.4-.6-.4-.7s-1-1.3-1.3-1.7c-2-2.1-4.2-3.6-7.7-4.9-1.9-.7-4-1.4-4.6-1.5-.1 0-.2-.2-.1-.3v-.5c0-.3.6-4.5.9-6.1 0-.3.2-1.3.3-2.3.1-.9.3-1.9.3-2.1 0-.5 0-.5-.7-.6zm-6.1 19.7l-1.8-.5a4.3 4.3 0 0 1-1.2-.2l-4.3-.6c-1.2-.1-1.5-.2-1.5-.1 0 0-.2 1.1-.3 2.1 0 .2-.1.9-.2 1.5-.2 1.1-.3 2-.5 3.5a4.44 4.44 0 0 1-.2 1.3c0 .3-.1 1-.2 1.6 0 .6-.2 1.3-.2 1.6s-.1.8-.2 1.1c0 .3 0 .7-.1.9 0 .5.4.6 3.6 1.2 1.9.3 2.2.4 3.5.5 1.8.1 4.2 0 4.8-.2h.3c.2 0 1.9-.6 2.5-1.1.3-.2.8-.6 1-.9l.6-.6c.1 0 .5-.8.8-1.6.6-1.3.6-1.6.6-2.3 0-.4 0-.9-.1-1v-.4c0-.2-.7-2.1-.9-2.2 0 0-.2-.2-.2-.3-.5-1.2-3.1-2.7-5.8-3.6zm-1.1 22.1c-.6-.2-1.3-.4-1.7-.4l-2.8-.6c-.3 0-.9-.1-1.4-.2-.5 0-1.1-.2-1.4-.2-.2 0-.7 0-1-.1-.3 0-.8 0-1.1-.1-.3 0-.7 0-.9-.1-.7-.1-.7-.1-1.1 3.3 0 .5-.2 1.4-.3 2.1l-.4 2.9c-.1.9-.3 1.9-.3 2.1 0 .3-.1.9-.2 1.3 0 .5-.2 1.2-.2 1.6a4.44 4.44 0 0 1-.2 1.3c-.2.9-.2.9 1.4 1.2.3 0 .9.2 1.3.3 2.8.5 5.2.9 6.8 1 1.3 0 4 0 4.4-.3h.5c.5 0 3.2-1.2 3.9-1.8 1.2-1 1.5-1.5 2.2-3 .6-1.4.6-1.5.6-2.6 0-.6 0-1.1-.1-1.2v-.2c0-.1-.3-.9-.7-1.8-.3-.5-1.4-1.7-2-2.1-.4-.2-.9-.6-1.2-.8-.7-.5-2.5-1.2-4-1.6z" fill="#0ac08d"/><path d="M119.8 269.5c-13.6-4.8-27.1-6.2-41.1-4.4-7.3 1-14 2.8-21.2 5.6-6.9 2.8-12.9 6.1-18.8 10.4-10.8 7.9-19.3 17.7-25.8 29.7-1.6 3.1-5 11.1-6.1 14.5-5.7 18.1-5.5 36.8.6 54.6.9 2.6 3 7.8 4.2 10.1 8.2 16.8 21 30 37.6 38.9 3.1 1.7 11.1 5 14.5 6.1 18 5.6 36.4 5.5 54.2-.5 8.3-2.8 16.7-7.1 23.7-12.2 10.8-7.9 19.3-17.7 25.8-29.7 1.5-2.8 4.9-10.9 5.8-13.8 5-15.6 5.7-30.9 2.1-46.7-1.7-7.6-4.7-15.4-8.5-22.4-8.2-15-20.5-27.2-35.6-35.3-1.9-1-9.7-4.5-11.6-5.1zm-2 4.1c-.4-.1-.5 0-.6.3-.4.9-4.1 11.7-4 11.8 0 0 .6.3 1.4.5l1.3.5.5-1.4c.3-.7 1.4-3.4 2.4-6l1.8-4.6-1.2-.5c-.6-.3-1.4-.5-1.6-.6zm9.5 4l-5.1 10.2-.7 1.3 1.3.7c.7.4 1.3.6 1.4.6 0 0 1.4-2.4 2.9-5.3l3.1-5.6.2-.4-.7-.4c-1.8-1-2.4-1.3-2.4-1.2zm-21.1-7.2c-3.2-.6-7.8-1.2-7.9-1.1 0 0-.2 1.5-.3 3.1-.2 1.7-.4 3.7-.4 4.4-.5 5.2-.5 5.3-.2 5.3 1.2.1 5.7.8 6.8 1 1.2.3 1.4.3 1.5 0 0-.1.3-1.1.5-2.1l2.2-10.2s-.3-.2-2.2-.5zm32 14c0 .1-.7.9-1.3 1.8l-4.6 6.4-1.4 2c0 .1 0 .3.2.5 2.4 1.7 5.2 4 7.1 5.9.7.7 1.3 1.2 1.3 1.2l8.9-9.1c.2-.3-4.2-4.3-7.8-7.1-2.5-1.9-2.3-1.8-2.5-1.6zM95 269c-1.7-.1-6.3-.1-6.3 0s0 11.6.2 12.5v.4h1.6 2.9 1.4s.2-2.3.3-5.1l.4-6.4c0-1.3 0-1.4-.4-1.5zm54.9 26.7c-1.9 1.7-7.1 6.6-7.8 7.4l-.8.8.9 1 1 1c.1 0 9.8-8.2 9.8-8.4 0-.1-1.5-1.7-1.9-2.1l-.4-.4-.8.7zm-70.1-26.2c-.8 0-1.6.2-1.7.3-.2.1 0 1.4 1.7 12.6 0 .2.2.2.7.1.4 0 1-.1 1.4-.2.4 0 .8-.2.8-.2 0-.1-1.2-11.8-1.3-12.5 0-.2-.2-.3-1.6 0zm77 34.2c-.4.3-1.5 1.1-2.4 1.7-.9.7-3 2.1-4.5 3.2s-2.8 2-2.8 2.1 3 4.7 3.2 4.8c0 0 2.6-1.4 5.6-3.3l5.5-3.3-.2-.4c-.3-.5-3-4.6-3.3-5-.2-.2-.3-.2-.9.2zm-46.6-14.4c-3.2-1-6.2-1.7-8.5-2.1-.3 0-.9-.2-1.3-.2-1.6-.3-8.1-.9-8.3-.7h-.3-.9-1.3c-1.6 0-4.6.2-5.6.3-.4 0-1 .1-1.5.2-.5 0-1.3.2-1.9.2s-1.2.2-1.4.2h-.5l-1.7.4c-.9.2-1.7.4-1.9.4s-.4.1-.5 0c0 0-.3 0-.6.1s-.5.2-.5.1c0 0-.3 0-.5.1-.2 0-.8.3-1.3.4-.4.1-.9.3-1 .3s-.7.2-1.4.4c-1.5.5-6.3 2.4-7.7 3.1-.6.3-1.2.6-1.3.6s-.6.3-1 .5-.9.5-1.2.6c-.2.1-.4.2-.5.3 0 0-.2.2-.5.3-.2 0-.5.2-.6.3-.5.4-2.3 1.5-2.5 1.6-.1 0-.3.2-.3.2s-.2.2-.4.3c-.2 0-.5.3-.6.4-.2.1-.7.5-1.2.8l-2.2 1.7c-.3.2-.5.4-.6.4-.2 0-3.1 2.7-4.2 3.7l-.9.9-.6.6s-.1.2-.3.3c-.1 0-.3.3-.5.4a128.77 128.77 0 0 0-3.3 3.8c-.2.2-.6.8-1 1.3s-.8 1.1-1 1.3c-3.9 5.6-5.1 7.9-7.4 13.3-2.1 4.9-2.9 7.5-3.8 12.3-.5 2.7-.6 2.8-.7 3.9 0 .6-.2 1.3-.2 1.6 0 .6-.4 4.4-.4 5v.7.4.9 1.3c0 1.5.2 5.4.3 5.6a2.64 2.64 0 0 0 .1.7c.1 1.2.2 1.8.3 2.8 0 .6.2 1.2.2 1.4v.5l.4 1.8.4 1.9v.3s0 .3.1.6.2.5.1.5a1.34 1.34 0 0 0 .1.5c0 .2.3.8.4 1.3.1.4.3.9.3 1s.2.7.4 1.4c.5 1.5 2.4 6.3 3.1 7.7.3.6.6 1.2.6 1.3s.3.6.5 1 .5.9.6 1.2c.1.2.2.4.3.5a1.41 1.41 0 0 0 .3.5c.1.3.2.5.3.5 0 0 .2.2.3.4 0 .2.4.7.8 1.2l.6 1s0 .2.2.2c0 0 .2.2.3.4 0 .2.3.5.4.6.1.2.5.7.9 1.2s.9 1.2 1.2 1.5c.3.4.7.9.9 1.2.6.8 2.7 3.1 3.7 4.2l.9.9c.3.3.6.6.7.6s.2.1.2.2c0 .2 5 4.5 6.3 5.4.3.2.8.5 1 .7.8.5 2.3 1.6 3.4 2.2.9.6 1.7 1 4.4 2.5 1.5.8 8.5 3.8 10.2 4.3 3.6 1.1 6.1 1.7 8.7 2.2.3 0 .9.2 1.3.2 1 .2 2.4.3 5 .6 2.2.2 2.7.2 3.3.2h.4.9 1.3c1.6 0 4.6-.2 5.6-.3.4 0 1-.1 1.5-.2.5 0 1.3-.2 1.9-.3.6 0 1.2-.2 1.4-.2s.6-.1.7-.2h.5.2s.6-.2 1.2-.3 1.2-.3 1.4-.3.4-.1.5 0c0 0 .3 0 .6-.1s.5-.2.5-.1c0 0 .3 0 .5-.1s.8-.2 1.2-.4c.4-.1.9-.3 1-.3.2 0 .8-.3 1.4-.5 1.5-.5 6.3-2.4 7.7-3.1.6-.3 1.2-.6 1.3-.6.2 0 .6-.3 1-.5s.9-.5 1.1-.6.4-.2.5-.3c0 0 .2-.2.5-.3.2-.1.5-.2.6-.3.5-.3 2.3-1.5 2.6-1.6.2 0 .4-.2.4-.3 0 0 .1-.1.3-.2.1 0 .4-.2.6-.3s.7-.5 1.2-.8l2.2-1.7c.3-.2.5-.4.6-.4.2 0 3.1-2.7 4.2-3.7l.9-.9.6-.6s.1-.2.3-.3c.5-.4.8-.8 2.2-2.4 1.7-2 2.6-3.1 3.2-3.9.2-.3.6-.8.7-1 1.6-2.3 3.2-4.9 4.7-7.7.9-1.8 3.6-8.2 4.3-10.2.9-2.8 1.7-6.2 2.2-8.8 0-.3.2-.9.2-1.3.2-.9.3-2.3.5-4.9.2-2.2.2-2.7.2-3.3v-.4-.9-1.3c0-1.5-.2-5.4-.3-5.6 0 0 0-.4-.1-.7-.1-1.2-.2-1.8-.3-2.8 0-.6-.2-1.2-.2-1.4s-.1-.5-.2-.7v-.5-.4c0-.2-.5-2.3-.6-2.9 0-.1-.1-.4-.2-.7 0-.2-.1-.5-.1-.5s0-.3-.1-.5c0-.2-.3-.8-.4-1.3-.1-.4-.3-.9-.3-1s-.2-.7-.4-1.4c-.5-1.5-2.4-6.3-3.1-7.7-.3-.6-.6-1.2-.6-1.3s-.3-.6-.5-1-.5-.9-.6-1.2-.2-.4-.3-.5c0 0-.2-.2-.3-.5-.1-.2-.2-.5-.3-.5 0 0-.2-.2-.3-.4 0-.2-.4-.7-.8-1.3l-.7-1.2c0-.1-.1-.3-.2-.3 0 0-.2-.2-.2-.3s-.2-.4-.3-.6-.5-.7-.9-1.2c-.3-.5-.9-1.2-1.2-1.5-.3-.4-.7-.9-.9-1.2-.6-.8-2.7-3.1-3.7-4.2l-.9-.9c-.3-.3-.6-.6-.7-.6s-.2-.1-.2-.2c0-.2-5-4.4-6.4-5.4-.3-.2-.8-.6-1-.7-2.1-1.5-4.5-3-7.7-4.7-1.4-.8-8.8-3.9-10.4-4.3zm-45.4-16.4c-1.9.6-5.6 2-5.6 2.1 0 0 1 2.8 2.3 6l2.4 5.9 1.8-.6c1-.4 2.2-.8 2.7-.9.5-.2.9-.3 1-.4 0 0-.2-.7-.4-1.5s-1.1-3.4-1.9-5.9l-1.5-4.8c0-.2-.2-.2-.8 0zm96.2 49.8l-5.9 2.4.5 1.3c.3.7.5 1.4.5 1.4s.9-.3 2-.7 2.1-.8 2.3-.8l7.8-2.9c0-.2-1.1-3-1.2-3.1 0 0-2.8 1-6 2.4zM52.4 278c-1.7.9-2.1 1.1-2 1.3.2.5 6 11 6.1 11.1 0 0 .7-.2 1.4-.6l1.3-.7-.2-.4c-.1-.2-1.3-2.7-2.8-5.5l-2.7-5.4c-.1-.2-.3-.2-1.1.2zM168 330.1c-1.2.3-2.5.7-2.9.8s-.9.3-1.1.3-1.6.5-3.2.9-2.9.8-3 .9c0 0 .4 2.4.6 2.8 0 0 2.5-.5 8.5-1.9 1.1-.3 2.4-.6 3-.7.8-.2 1.1-.3 1.1-.5 0-.3-.7-3-.8-3.1 0 0-1 .2-2.2.6zM39.9 285.9c-.7.6-1.3 1.1-1.2 1.1l3.2 4 4.8 5.9c.1 0 2.1-1.5 2.2-1.7 0-.1-7.3-10.3-7.5-10.4 0 0-.7.4-1.4 1zm131.6 54.3c-3.1.4-11.5 1.6-11.7 1.7-.1 0-.2.5 0 1.5 0 .8.2 1.4.2 1.5l4.8-.4c2.6-.3 5.4-.5 6.1-.6.8 0 1.5-.2 1.6-.2.2 0 .2-.4 0-1.7-.1-.9-.3-1.6-.3-1.7h-.9zm-4.9 6.7l-6.4.4v1.8 2.8 1.1c.1 0 12.6.3 12.8.2.2 0 .2-6.1 0-6.6 0-.2-1.7-.1-6.4.2zm-132.7-56c-.3.2-3.5 3.5-4.8 4.9-2.2 2.4-4.3 4.9-4.1 5.1l10.1 7.9s.4-.4.9-1c1.6-1.9 3.7-4.2 5.3-5.8.9-.9 1.6-1.7 1.6-1.7l-2.5-2.7-4.3-4.6c-2-2.2-1.9-2.1-2-2zm134.4 68.2l-6.3-.6c-1.3-.1-2-.1-2 0l-.2 1.4c-.1 1.4-.1 1.3 1 1.5.4 0 3.1.4 6.1.8l5.5.7s.2-.6.3-1.3c.2-1.5.2-2.1 0-2.1l-4.5-.4zm-146-54.9c-1.3 1.8-1.3 1.7-.9 2 .2.1 1.5 1 2.9 1.9l4 2.6c2.2 1.5 3.6 2.4 3.7 2.4.2-.1 1.6-2.3 1.6-2.4 0 0-.6-.5-1.3-1l-5-3.6-3.9-2.8c-.1 0-.4.2-.9.9zm140.6 73.2c-2.4-.9-4.8-1.7-5.4-1.9l-1.1-.4-1.1 2.7-1.1 2.7 2.1 1 5.9 2.7 3.9 1.7 1.2-3c.7-1.6 1.2-3.1 1.2-3.2 0-.3.2-.2-5.5-2.2zM21.3 324.3l-5.9-2.3-2.2-.9-.4 1c-.6 1.4-1.9 5.2-1.8 5.4 0 0 .9.4 2.1.7 1.1.3 3.8 1.2 6.1 1.9 2.2.7 4.1 1.2 4.1 1.2s.4-.9.7-2c.4-1.1.8-2.3.9-2.7s.2-.7.1-.8l-3.8-1.5zm-1 8.7c-.9-.2-3.5-.9-5.9-1.5l-4.3-1.1s-.2.7-.4 1.6c-.3 1.2-.3 1.6-.2 1.7.1 0 1.6.4 3.3.8l6.1 1.4c2.7.6 3 .7 3.1.4 0-.1.2-.8.4-1.4.3-1.1.3-1.1 0-1.3-.2-.1-1.1-.4-2-.6zm127.9 58.1c-.5.7-.8 1.2-.8 1.3a75.72 75.72 0 0 0 1.8 1.3l5.2 3.7 3.5 2.4c.2 0 1.9-2.7 1.8-2.8l-5.2-3.5-5.3-3.5c-.1-.1-.3.1-1 1.1zM18.6 341.4c-1.1-.1-3.8-.5-6.1-.9-2.3-.3-4.2-.6-4.2-.5-.1 0-.6 3.1-.5 3.3 0 0 4 .5 7.4.8.6 0 2 .2 3.2.3l2.2.2.2-1.5c.1-1.1.1-1.5 0-1.5s-1.1-.2-2.2-.3zm127.1 53.2c-1.4 1.6-1.6 2-1.5 2.2 0 .1 1.9 1.6 3.9 3.3l4.8 4c.6.5 1.1.8 1.1.8.1 0 2.1-2.5 2.1-2.6 0 0-1.2-1-2.6-2.1s-3.7-2.8-5-3.8l-2.5-1.9h-.3zM18.8 350.7h-6.1-5.3c-.2 0-.2 4 0 6.3v.5l6.5-.4 6.5-.4v-.9-2.8c0-1.5 0-2-.3-2.1-.1 0-.7-.1-1.2-.1zm118 53.4c-.7.6-1 1-1 1.1.1.3 8.1 9.6 8.2 9.7.2 0 2.6-2.1 2.5-2.3 0-.2-8.5-9.3-8.7-9.4 0 0-.6.4-1.1.9zm-4 3.3c-1.7 1.4-4.5 3.2-6.5 4.4-1.1.6-2 1.2-2 1.2a24.95 24.95 0 0 0 1.5 2.7l3.1 5.6c.9 1.6 1.7 2.9 1.8 2.9.3 0 3.8-2.2 5.9-3.6 2.2-1.5 5.1-3.6 5.2-3.9 0-.1-2-2.8-5.5-7.1-.2-.3-.9-1.1-1.4-1.8s-1-1.2-1-1.2-.5.3-1.1.7zM15.1 365.7L8.8 367s0 .8.3 1.7c.3 1.6.3 1.6.7 1.5.4 0 12.1-2.7 12.2-2.7 0 0-.5-2.8-.6-2.9 0 0-2.9.5-6.3 1.2zm7.6 9.9c-.9.3-2.4.8-3.3 1.2s-2.9 1-4.5 1.6c-1.9.7-2.8 1.1-2.8 1.2 0 .3 1.4 3.7 1.5 3.7 0 0 2.8-1 6-2.4l5.9-2.4-.6-1.7c-.3-.9-.6-1.7-.6-1.7s-.7.2-1.6.6zm95.5 40.4c-.8.4-1.4.7-1.5.7l4.7 11.4.3.5 1.6-.7c.9-.4 1.7-.8 1.7-.9 0-.2-5.1-11.6-5.3-11.7 0 0-.7.3-1.5.6zm-88.6-24.6c-1.8-.2-3.6.4-5.2 1.8-1.7 1.4-2.5 3.1-2.4 4.9.1 1.9 2.1 4.8 3.9 5.7l.5.3.4-.5c.2-.3.5-.7.7-.9.3-.4.3-.4-.2-.7-.7-.4-2-1.9-2.3-2.7-.5-1.2-.2-2.2.8-3.3 1.9-2 4.2-2.2 5.6-.7.6.6 1.2 1.8 1.3 2.7v.5c.1 0 1.2-.3 1.2-.3l1.1-.3v-.5c-.1-.8-1-2.7-1.7-3.5-1.2-1.4-2.4-2.2-3.9-2.3zm75.4 32.7c-1.8 0-3.3.4-4 1.2-.8.8-1 2.1-.4 3.2.4.9 1.1 1.3 3.4 1.8 1 .2 1.3.5 1.2.9-.2.5-1.7.8-3.1.6h-.7c0 .2-.1 2.1 0 2.1.2 0 2 .1 2.7 0 2.6-.3 4.1-1.5 3.9-3.3-.1-1.6-1-2.3-3.4-2.8-1.1-.2-1.5-.4-1.4-.9 0-.4.8-.7 1.8-.7h1.1.3c.2-.2.2-1.9 0-2 0 0-.6-.1-1-.1zm-9.7 1.2c-1.3 0-4.4.4-4.7.7a121.58 121.58 0 0 0 .1 4.5l.2 4.4h1.2c.7 0 1.3-.1 1.3-.1v-3.1c-.3-4.4-.3-3.9.6-4 1 0 1.5.1 1.7.7.1.3.3 1.8.4 3.3l.2 2.9c.1 0 2.4 0 2.5-.2v-2.1c0-1.1-.1-2.4-.2-2.9 0-1.3-.4-2.5-1-3.1-.5-.6-1.6-1.1-2.4-1.1zm-61.2-25s-.3.4-.5.7-.5.6-.5.7c-.1.1 0 .3.3.5.7.5 1.6 1.4 1.9 1.9.2.4.3.6 0 1-.1.3-.3.6-.3.6s-.4-.3-.8-.7c-1.9-2.3-3.8-2.5-5.4-.8-1.1 1.2-.8 2.8.9 4.6.7.8 2.4 2.2 2.9 2.4.2 0 .6-.2 2.5-2s2.3-2.2 2.6-2.9c.6-1.1.5-1.9-.3-3.1s-3-3.1-3.3-2.8zm14.4 8.1c-.1.1-1 1.6-2.1 3.2-1 1.6-2.6 3.9-3.4 5.2-.8 1.2-1.5 2.3-1.4 2.4 0 .1 2 1.5 2.1 1.4 0 0 .9-1.3 1.9-2.9l1.9-2.8h.4c.6.3 1.1.7 1.3 1.1.1.3.1.5-.1 1.1l-.7 1.4c-1.2 1.7-2.1 3.2-2.2 3.4s0 .3.9.9c.6.4 1.1.7 1.1.7l1.5-2.2c1.8-2.7 2.4-4 2.3-5-.1-1.2-.9-2.2-2.3-2.9-.5-.3-.8-.5-.8-.6 0 0 .5-.8 1.1-1.7.6-.8 1-1.6 1.1-1.7 0-.1-.2-.3-1.1-.7-1.2-.5-1.2-.5-1.4-.2zm25.7 11.3c-1 0-1.3 0-1.3.2-.2.6-2.5 12.5-2.5 12.5s1.8.5 2.4.5c.1 0 .3-.6.5-1.8l.4-1.9c.1 0 1.1 1.7 1.7 3 .3.8.7 1.4.8 1.4s.8.1 1.4.3l1.3.2c.1-.3-2.2-5.3-2.6-5.5-.2-.1 0-.3 1.4-1.3 1.7-1.2 2.8-2.1 2.8-2.2 0 0-.7-.2-1.5-.3l-1.5-.3-.6.4c-.3.2-1.1.8-1.6 1.2-.7.5-1.1.7-1.1.6s.3-1.7.7-3.6c.4-1.8.7-3.4.6-3.5 0 0-.6-.1-1.3-.1zm10.5 5.5c-2.1 0-3.9 1.3-4.4 3.4-.7 2.7.3 4.9 2.4 5.8 1 .4 3.6.5 4.7.2h.4v-1.2c0-1-.2-1.3-.6-1.1l-1.1.2c-.7 0-1.2 0-1.9-.2-.9-.3-.9-.4-1.2-.8l-.2-.6s1.3 0 2.8.1l2.9.2c.2 0 .3-1.9.2-2.7-.2-.9-.6-1.8-1.2-2.2-.6-.5-2-1-2.8-1.1zm-44.1-18c-.5 0-1.3.3-1.8.7s-1 1.7-1 2.3c0 .3.4 1.1.7 1.9.7 1.4.8 1.9.3 2.1s-1.6-.7-2.4-2c-.5-.7-.4-.7-1.5.2l-.7.6.5.8c.6.9.9 1.1 1.9 2 1.9 1.4 3.4 1.5 4.5 0 .9-1.1.8-2-.2-4.1-.4-.7-.6-1.4-.5-1.5.3-.7 1.3-.2 2.3 1 .5.6.7.7.8.7.4-.2 1.4-1 1.4-1.1 0-.2-.9-1.4-1.7-2.1-.7-.6-2-1.3-2.7-1.3zm14.6 6.5s-.3.6-.6 1.1l-.4 1 1.5.7 1.6.8-2 4.3c-1.1 2.3-2 4.3-2 4.4a12.96 12.96 0 0 0 1.2.7l1.2.6 1.5-3.3c.9-1.8 1.8-3.8 2.1-4.4l.6-1.1 1.6.8 1.6.8.5-1c.3-.6.5-1.1.5-1.1s-1.7-.9-3.8-1.9l-4.4-2.1c-.5-.3-.7-.3-.8-.2zm29.1 13.7c-.3 0-.6.2-.8.4-.4.4-.6 1-.4 1.1.2 0 2.9.3 3 .3.2 0 0-.7-.2-1.1-.4-.5-.9-.8-1.6-.7zm-53-21.9c-.4.2-.7.6-.7.9s.8 1.3 1.2 1.7c.2.2.3.1.9-.3l.7-.7c0-.2-.6-1.1-1.3-1.4-.4-.2-.6-.3-.8-.2zM66 421.3c-1.9-.4-3.7.4-4.7 2.1-1.2 2.1-1.2 4.5.2 6 .4.4.8.7 1.6 1 1 .4 1.2.5 2.1.4 1.9-.1 3.1-1.1 3.9-3.3.4-1.1.4-1.3.4-2.3-.2-2-1.6-3.6-3.6-4zm-.8 2.2c-.7 0-1.1.4-1.6 1.3-.5 1-.6 1.9-.3 2.7s1.1 1.2 1.9.9c1.2-.4 2.2-2.8 1.6-4-.2-.4-1.1-.9-1.6-.9z" fill="#201446"/><path d="M122.3 270.5l3.5 1.5c1 .4.2 0-1.8-.8l-1.8-.7zm-3.6-1.4c.3.2.8.4 1.1.5s0 0-.5-.3c-.6-.3-.9-.3-.6-.2zm9.5 4c.3.2.8.4 1.1.5.3 0 0 0-.5-.3-.6-.3-.9-.3-.6-.2zm-24.7-7.8c-.8 0-.4.1.5.2h.4c-.2 0-.6-.2-.9-.2zm-3.3-.5h-.7s.5.1 1 .1h.7c-.1 0-.6-.1-1-.1zm44.9 18.9c.4.3.7.6.8.6.2 0-.6-.6-1.1-.9-.2-.1-.1 0 .3.3zm-48.3-19.2h-1.3l1.5.2h1.3c-.1 0-.8-.1-1.5-.2zm50.9 21.4c.6.5 1.1 1 1.2.9l-2.1-1.9a16.46 16.46 0 0 0 1 .9zM118 273.6c-.5-.2-.6-.1-.7.2-.4 1-4.1 11.8-4.1 11.8s.6.3 1.4.5l1.3.5.5-1.4c.3-.7 1.4-3.4 2.4-6l1.8-4.6-1.1-.4c-.6-.2-1.3-.5-1.6-.6zm8.9 4.8l-1.9 3.7c-.8 1.6-1.8 3.7-2.3 4.5-.5.9-.9 1.8-1 2.1l-.2.5 1.3.6a27.43 27.43 0 0 1 1.3.6s1.8-3.1 4.6-8.2l1.5-2.7c.2-.4.4-.2-2-1.5l-.8-.4-.4.8zm-20.7-8c-3-.6-7.9-1.3-7.9-1.1l-.5 4.6c-.9 8.8-.8 8.3-.5 8.3 1.7.2 6.2.9 7.6 1.2h.6c0 .1.2-.5.2-.5 0-.3.7-3.1 1.4-6.2s1.2-5.7 1.3-5.7c0-.1.1-.1-2.1-.5zm-15.6-6.1h-.9s1.9.1 2 0c.2 0-.2-.1-1.1-.1zm61 25.2c0 .2 1.4 1.4 1.5 1.4 0 0-.2-.3-.6-.7-.7-.7-.9-.9-.8-.7zm-13.5-5.1c-.1.1-1.2 1.6-2.4 3.3s-2.8 3.9-3.5 4.8c-.7 1-1.3 1.8-1.3 2s.1.4.7.8c2.3 1.7 5.5 4.4 7.2 6 .4.4.8.7.8.7l8.9-9.1c.1-.1-.6-.9-2.7-2.8-2.6-2.3-4.4-3.8-7.2-5.8-.3-.2-.3-.2-.5 0zm-45.2-15.5h-4.3v5.6 6.3c0 .4 0 .8.2.9s.7 0 1.4 0h2.7c1.1 0 1.5 0 1.5-.2 0-.1.2-2.4.3-5.1l.4-6.2v-1.4s-1.1 0-2.4-.1zm-10.4-4.3c-.4 0-1.6.2-2.8.3s-2.3.3-2.5.4c-.4.1-.1 0 2.8-.3 1-.1 2.2-.3 2.6-.3s.7-.1.7-.1h-.8zm75.3 31.6l3.1 4c.2.3.4.5.4.4s-3.7-5-3.9-5.1c0 0 .1.2.4.6zm-7.7-.7c-.3.3-2.1 1.9-3.9 3.6s-3.7 3.4-4.1 3.9l-.8.8.9 1c.5.5.9 1 1 1s9.8-8.2 9.8-8.4c0-.1-1.5-1.7-1.8-2.1l-.4-.4-.6.5zm-76.2-29.7c-1.7.3-4.5 1-4.6 1.1 0 0 .3 0 .9-.2.6-.1 1.9-.4 2.9-.6 1.6-.3 2-.4 1.9-.5 0 0-.5 0-1.1.2zm88.5 36.5a11.82 11.82 0 0 0 1 1.6 77.99 77.99 0 0 1 1.6 2.5c.3.5.6.9.5.8 0-.4-3.1-5.1-3.2-4.9zm-82.9-32.7c-.8.1-1.5.3-1.5.3s.1 1.4.4 3c.2 1.6.7 4.3.9 6.1.3 1.8.5 3.3.5 3.4 0 .2.1.2.7.1.4 0 1-.1 1.4-.2.4 0 .8-.2.8-.2.1-.3-1.3-12.5-1.5-12.6 0 0-.8 0-1.7.1zm77.4 34c-.3.2-1.8 1.3-3.2 2.3-1.5 1.1-3.5 2.6-4.6 3.3-1.1.8-2 1.4-2 1.5s3 4.7 3.2 4.8c0 0 2.3-1.3 10.4-6.2l.7-.4-.6-.9c-1-1.6-2.3-3.6-2.8-4.2l-.5-.6-.6.4zm-90.6-36c-.7.2-1.4.4-1.6.5-.2 0-.9.3-1.6.5-.6.2-1.3.4-1.6.5-.3 0-1.1.4-1.9.7s-1.5.6-1.5.7.6-.1 1.4-.5c1.9-.7 4.2-1.5 6.3-2.1 1.5-.4 1.8-.5 1.7-.6 0 0-.6.1-1.2.3zm100.3 41.6l1.3 2.6 2 4.1a63.06 63.06 0 0 0 .9 1.9s0-.4-.2-.7-.5-1.2-.9-1.9c-.3-.7-.8-1.7-1.1-2.3s-.6-1.1-.6-1.2c0-.2-1.4-2.6-1.5-2.8 0-.1 0 0 0 .2zm-102.7-36c-2.1.7-4.7 1.7-4.7 1.9 0 .3 4.6 11.7 4.7 11.8 0 0 .8-.2 1.7-.5.8-.3 2-.7 2.6-.9s1.1-.4 1.1-.4-.7-2.5-1.7-5.5l-1.9-6.2-.2-.8-1.6.5zm-6.8-2.4c-.3.1-.5.3-.5.3s.3 0 .7-.2c.3-.1.6-.3.5-.3 0 0-.4 0-.7.2zm114 47.9c.1.3.3.6.3.6.1 0-.3-1.1-.5-1.2 0 0 0 .2.1.6zM55.5 271.5c-.3.2-1.2.6-1.8.8-.7.3-1.7.8-2.3 1.1s-1.1.6-1.2.6l-2.8 1.5c-.1 0-.2.1-.1.1 0 0 .8-.3 1.6-.8 2-1.1 4.2-2.1 6-2.9.8-.3 1.4-.7 1.3-.7 0 0-.4 0-.8.2zM172 321c.7 1.9 1.5 4.2 2.1 6.3.3.9.5 1.7.5 1.7v-.2c-.1-.5-.8-3-.9-3.1l-.4-1.2c-.2-.6-.6-1.7-.8-2.4-.3-.7-.6-1.6-.7-1.9-.1-.4-.3-.7-.4-.7 0 0 .1.6.4 1.4zm-11 1.7l-5.9 2.4.4 1c.2.5.4 1.1.5 1.4v.4c.1 0 2.2-.7 2.2-.7 1.1-.4 2.1-.8 2.2-.8s1.2-.4 2.4-.9c1.2-.4 2.8-1 3.6-1.3.7-.3 1.5-.5 1.7-.6.3-.1.3-.2-.3-1.7-.3-.9-.7-1.6-.7-1.6l-6 2.4zM51.9 278.3c-.8.4-1.5.8-1.5.9 0 .2 5.9 11.1 6.2 11.2.2 0 2.3-1.1 2.4-1.3 0 0-.5-1.3-1.2-2.7l-4.3-8.5c-.1-.2-.3-.2-1.6.5zm-6.9-1.4c-1.1.6-3.9 2.4-4.1 2.6-.3.3.4-.1 2-1.2.9-.6 1.9-1.2 2.3-1.4s.7-.4.6-.5l-.8.4zm130.2 54.3c0 .3.3 1.1.4 1.7s.3 1.1.3 1.1l-.7-3.2c0-.1 0 0 0 .3zm-6-1.4c-.5.1-2.8.8-5 1.4-6.2 1.7-6.4 1.8-6.4 2 0 .1.2.7.4 1.4s.3 1.2.4 1.2.7-.1 1.5-.3 3.5-.8 6.1-1.5c2.8-.7 4.7-1.2 4.8-1.3 0-.2-.6-3.1-.7-3.1 0 0-.5 0-1 .2zm6.9 5.5c.2 1 .4 1.7.3 1.2 0-.5-.4-2.1-.5-2.2 0 0 0 .4.1 1zM39.4 280.6c-2.3 1.6-5.3 4-5.3 4.1 0 0 .7-.4 1.5-1.1l4.8-3.6c.2-.1.3-.3.3-.3s-.6.3-1.2.8zm137.1 56.5c0 .2.2 1.3.3 2.3l.4 3.7c0 1 .2 1.8.3 1.8.2 0-.7-6.9-1-7.8v-.4c-.1 0 0 .5 0 .5zM40.8 285.2c-.3.2-.9.7-1.3 1l-.8.7L42 291l4.8 5.9c.1 0 2.1-1.5 2.2-1.7l-1.7-2.6c-1-1.3-2.6-3.6-3.7-5-1-1.4-1.9-2.6-2-2.7 0 0-.4 0-.6.2zm125.7 55.7l-6.3.9h-.6a57.62 57.62 0 0 0 .2 1.5c0 .8.2 1.4.2 1.5 0 0 1.5 0 3.3-.3l6.2-.6c.7 0 1.5-.1 1.9-.2 1.5-.1 1.5 0 1.2-1.9-.1-.9-.3-1.6-.3-1.7l-5.8.7zM32.8 285.7c-.5.4-.8.7-.8.8 0 0 .4-.3.9-.7s.8-.8.8-.8-.4.3-.9.7zm144.8 60.8a6.27 6.27 0 0 0 .1 1.1s0-2.2-.1-2.3v1.1zm-11 .4c-3.5.2-6.4.4-6.4.5v1.1c0 1.4.1 4.3 0 4.4v.2c.1 0 12.7.3 12.9.2.2 0 0-6.8-.1-6.8l-6.4.4zM28.7 289.6c-.4.4-.7.7-.7.8 0 0 .3-.3.7-.6.4-.4.7-.7.7-.8 0 0-.3.3-.7.6zm4.3 2.2c-3.4 3.3-8.4 9-8 9.1l5 3.9 5 3.9.6-.6c1.6-2.1 4.4-5.1 6.4-7 .5-.5.9-.9.8-1l-8.6-9.3s-.6.3-1.1.9zm144.7 59.6v1.1.8s.1-2 0-2v.2zm-75.2-26.6c-.2 0 0 0 .4.2.4.1.8.2.9.2s-.9-.4-1.3-.4zm9 3.8c.7.6 1.3 1 1.3.8 0-.1-1.3-1.1-1.6-1.2-.1 0 0 .1.3.3zM24.6 294l-.7.9s.4-.3.8-.8l.7-.9s-.4.3-.8.8zm152.9 63.7c0 1-.1 2.3 0 2.1 0-.2.2-2.2.2-2.4v.2zm-61.3-24l.7 1.8c.2.5.3.7.2.4-.1-.7-.7-2-1.1-2.6-.2-.3-.1-.1 0 .4zm-94-36.9c-.3.4-.5.7-.5.8 0 0 .3-.2.6-.6s.5-.7.5-.8c0 0-.3.2-.6.6zM177.3 361s0 .5-.1 1v.4c.1-.5.2-1.6 0-1.4zm-10.9-2.1l-6.3-.6-.4 2.6c0 .2 2.6.6 7.4 1.2.6 0 2 .3 3.1.4 1.1.2 2.1.3 2.1.2.2 0 .5-3.2.4-3.3l-6.4-.7zM18.2 302.2c-.3.4-.5.8-.5.9 0 0 .3-.3.5-.7.3-.4.5-.8.5-.9 0 0-.3.3-.5.7zm4.1 2.1c-.4.6-.9 1.3-1 1.4-.2.2 0 .3 2.5 2 1.4 1 3.8 2.5 5.3 3.5s2.7 1.8 2.8 1.8 1.7-2.1 1.7-2.3c0 0-.4-.4-1-.8-1.7-1.3-8.5-6.2-9-6.5l-.4-.3-.8 1.1zm94.3 39.9c-.3.6-.6 1.3-.8 1.6l-.2.4.3-.4c.2-.2.5-.9.8-1.6l.5-1.2-.5 1.2zm-50-19.2c0 .3-.1.7-.2 1.1v.1c0-.3.1-.7.2-1.1v-.1zm-50.1-20.3c-.3.5-.5.9-.5.9s.3-.3.6-.8.5-.9.5-.9-.3.3-.6.8zM175.6 371c0 .3-.2.8-.2 1.1 0 .4 0 .4.1-.2.1-.4.2-.9.2-1.1 0-.3 0-.2-.1.2zm-72.1-28.8c-.6 1.4-.6 1.5-.2.8.3-.4.5-1.1.6-1.5.2-.7.1-.6-.5.8zm-91.8-28.9c-.3.6-.3.9-.2.6.2-.3.4-.8.5-1.1 0-.3 0 0-.3.5zm161.1 67.5c-.3.6-.3.9-.2.6s.4-.8.5-1.1c0-.3 0 0-.3.5zm-9.8-3.3l-5.4-1.9-1.2-.4-1.1 2.7-1.1 2.7 1.8.8c1 .5 3.6 1.7 5.9 2.7l4.1 1.8 1.2-3c.7-1.6 1.2-3.1 1.2-3.2 0-.3.2-.2-5.4-2.2zM9.6 318c-.8 2-1.2 2.8-.7 1.8s1.1-2.6 1.5-3.7c.4-1 0-.2-.8 1.8zm161.3 67.7l-.7 1.8 1.5-3.6c.4-1 0-.2-.8 1.8zm-75.6-31.3c-.5-.1-.5 0-.2 0 .2 0 .7.2 1 .3.6.1.6.1.2 0-.2-.1-.7-.2-1-.3zm-73.7-30l-5.9-2.4-2.4-1-.4 1c-.6 1.3-1.9 5.2-1.8 5.4 0 0 1.2.5 2.7 1l9.5 2.9s.3-.8.6-1.7l.9-2.6c.2-.5.4-1 .3-1l-3.6-1.5zm-13.8-1.6c-.3.6-.3.9-.2.6.2-.3.4-.8.5-1.1 0-.3 0 0-.3.5zm161 67.5c-.3.6-.3.9-.2.6s.4-.8.5-1.1c0-.3 0 0-.3.5zm-52.3-20.7c-.8 1.8-.8 1.9-.3 1 .3-.5.7-1.4.8-2 .3-.9.2-.9-.5.9zm-32.3-13.1c-.1.5-.2 1.6 0 1.4 0 0 0-.5.1-1v-.4zm-64-23.5c-1.8-.4-8.1-2.1-9.4-2.5-.6-.2-.7-.2-.8 0 0 .2-.2.8-.4 1.5s-.3 1.3-.3 1.4c0 .2.5.3 2.1.7l10.4 2.3s.2-.6.4-1.4l.4-1.3-.4-.2c-.2-.1-1.1-.4-2.1-.6zm78.7 36.1c-.7.3-1.2.5-1.1.5 0 0 1.7-.6 2.1-.8.5-.3.2-.2-1 .3zm49.3 22l-.8 1.2.4.3c.2.2 1.7 1.2 3.3 2.3s3.8 2.6 4.8 3.4a66.73 66.73 0 0 0 2 1.4c.2 0 1.9-2.7 1.8-2.8 0 0-.6-.5-1.3-.9s-1.6-1-2-1.3c-.5-.3-2.2-1.4-3.9-2.5l-3.3-2.1c-.1-.1-.3.1-1 1.1zM5.1 331.8c-.1.4-.2.9-.2 1.1 0 .5.3-.6.4-1.3 0-.4 0-.4-.1.2zm158.9 67c-.3.5-.5.9-.5.9s.3-.3.6-.8.5-.9.5-.9-.3.3-.6.8zm-53.5-22.2c-.6.3-1.1.7-1.1.7s.5-.2 1.1-.6 1.1-.7 1.1-.7c0-.1-.1 0-1.1.5zm-39.5-16c-.2 1-.2 1.5-.2 1.5l.3-1.8-.1.3zM4.5 334.4c-.2.4-.4 1.9-.3 1.6 0-.1.2-.6.2-1v-.5zm157.8 66.9c-.3.4-.5.8-.5.9 0 0 .3-.3.5-.7.3-.4.5-.8.5-.9 0 0-.3.3-.5.7zM20.5 341.7l-3.8-.5-8.5-1.2c-.1 0-.5 3-.5 3.3l3.3.4 6.3.7c1.6.2 3 .3 3.1.3 0 0 .2-.7.3-1.4.1-1.1.1-1.4 0-1.5h-.3zm125.3 52.8c-.2.2-1.6 2.1-1.6 2.2l7.5 6.3 2.2 1.8s.4-.3.8-.8c.9-1.1 1.4-1.8 1.3-1.8l-5-3.8-5.1-3.9h-.2zm-40.1-16c-1.3.3-1.4.4-.9.4h.5s.5-.2.9-.3.8-.2.7-.3-.6 0-1.2.3zM3.4 341.2c-.1.5-.2 1.6 0 1.4 0 0 0-.5.1-1v-.4zm154.9 65.5c-.3.4-.5.7-.5.8 0 0 .3-.2.6-.6s.5-.7.5-.8c0 0-.3.2-.6.6zM3.2 343.8c0 .2-.3 2.9-.2 2.8l.2-1.5v-1.3zm13.1 6.9h-6.2-2.6c-.2 0-.2 3.2 0 5.5v1.4l6.3-.4c3.4-.2 6.3-.4 6.5-.5.2 0 .2-.3.1-1v-2.8c0-1-.1-1.9-.2-1.9 0 0-1.8-.1-3.8-.1zm139.9 58.5c-.5.5-.9 1.1-1 1.1v.1c.2 0 1.8-2 1.9-2.1 0 0-.4.3-.8.8zm-19.4-5.1c-.7.6-1 1-1 1.1 0 .2 8.1 9.6 8.2 9.7.2 0 2.6-2.1 2.5-2.3 0 0-1.3-1.5-2.9-3.2-1.5-1.7-3.5-3.7-4.3-4.6s-1.5-1.6-1.5-1.6l-1.1.9zM60 372.5c-.4 1.3-.4 1.3-.1 1.4h0c-.1-.1-.1-.4.1-1.3l.3-1.2-.4 1.1zm32.8 15.4c0 .3-.1.7-.2 1.1v.1c0-.3.1-.7.2-1.1v-.1zm-90-37.5v2-1-1zm149.1 63.5c-.4.4-.7.7-.7.8 0 0 .3-.3.7-.6s.7-.7.7-.8c0 0-.3.3-.7.6zm-19.4-6.3c-1.6 1.2-4.6 3.2-6.5 4.4-.8.5-1.6.9-1.6 1s1.7 3.3 5.4 9.9l.8 1.4.7-.4c1-.6 3.8-2.2 5.3-3.3 1.8-1.2 5.1-3.7 5.2-3.8 0 0-.9-1.4-2.1-2.9l-3.9-5-1.8-2.2s-.6.4-1.3 1zM2.8 356c0 .1.1 2.3.2 2.3v-1.1c0-1.2-.1-1.3-.2-1.2zm144.8 61.8c-.5.4-.8.8-.8.8s1.8-1.4 1.7-1.5c0 0-.4.3-.9.7zM20.5 364.6c-.4 0-3.2.6-6.3 1.2l-5.5 1.1v.4c.3 1.2.6 2.5.7 2.7 0 0 .7 0 1.4-.1.7-.2 3.4-.8 6.1-1.4l5-1.1s-.5-2.8-.6-2.9c0 0-.4 0-.8.1zM3 358.8c-.1.2.8 7 1 7.8v.4c.1 0 0-.5 0-.5 0-.2-.2-1.3-.3-2.3s-.3-2.5-.4-3.4c-.2-1.7-.2-2.3-.3-2.1zM144.9 420l-2.9 2.2c-.8.6-1.7 1.2-1.9 1.4l-.4.3.4-.2c.8-.4 6.3-4.6 6.2-4.8 0 0-.7.4-1.5 1.1zM23.5 375.3c-.4.1-3.1 1.1-6.1 2.1-4.4 1.5-5.3 1.9-5.3 2.1 0 .1.4 1 .7 2l.7 1.7 5.9-2.4c3.3-1.3 5.9-2.5 5.9-2.5s-.3-.8-.6-1.7l-.6-1.7-.7.3zm95.6 40.3a9.33 9.33 0 0 0-1.5.7l-.9.4 2.5 5.9 2.5 5.9 1.7-.7c.9-.4 1.7-.7 1.7-.8 0 0 0-.4-.2-.7-.1-.3-.6-1.3-1.1-2.3s-1.1-2.3-1.3-2.9c-.3-.6-.9-1.9-1.3-2.9-.9-1.9-1.3-2.8-1.4-2.8 0 0-.3 0-.6.2zm-115-48.4c0 .5.4 2.1.5 2.2 0 0-.3-2-.4-2.2 0-.1 0-.1 0 0zm134 57.8a77.99 77.99 0 0 1-2.5 1.6c-.5.3-.9.6-.8.5.3 0 5.1-3.1 4.9-3.2 0 0-.8.4-1.7 1zM4.8 370.7c.1.7.3 1.4.4 1.7l.2.5v-.6l-.8-2.9a4.83 4.83 0 0 0 .2 1.2zm1 4.1c.2 1 .9 3.1 1.1 3.7.1.4.3.8.2.8 0 0 0 .1.1.2 0 0 0-.5-.3-1.1-.2-.7-.6-1.7-.8-2.4s-.4-1.3-.4-1.3v.2zm125.8 54c-2 1.1-3.8 2-5.8 2.8-.9.4-1.6.7-1.5.8 0 0 .8-.2 1.5-.6a16.44 16.44 0 0 1 1.9-.8c.2-.1.9-.4 1.5-.7s1.1-.6 1.2-.6l2.8-1.5c.1 0 .2-.1.1-.1 0 0-.8.3-1.6.8zm-124-48.3c.6 1.9 1.2 3.5 1.3 3.5 0 0-.3-1.1-.8-2.3s-.7-1.8-.5-1.2zm25.2 12.7c.7.7 1.3 1.6 1.7 2.4.1.3.3.5.3.4.2-.4-1.8-3.2-2.4-3.4 0 0 0 .2.4.5zm-6.3-1.4c-.9.4-2 1-1.8 1.1l.6-.4c.3-.2 1-.5 1.5-.7s.9-.4.8-.4c0 0-.6.2-1.1.4zm76.9 32.4c-2.1.4-3.2 1.4-3.1 3 0 .7.5 1.8.8 1.9 0 0 0-.1-.1-.3-.4-.6-.6-1.7-.4-2.4.4-1.1 1.5-1.9 3.3-2.1.5 0 .8-.1.7-.2 0 0-.6 0-1.1.1zM9.1 384.3c0 .2.4 1.2.5 1.2 0 0 0-.3-.2-.7-.1-.3-.3-.6-.3-.5zm114.2 48.4c-.3.1-.6.3-.5.3.2 0 1.2-.4 1.2-.5 0 0-.3 0-.7.2zM9.7 385.8s0 .4.3.7c.2.3.6 1.2.8 1.9.3.7.8 1.7 1.1 2.3s.6 1.1.6 1.1c0 .2 1.4 2.6 1.5 2.8.2.3-.2-.6-1.4-2.8l-2-4.1c-.5-1.1-.9-1.9-.9-1.9zm110.7 48l-4.3 1.5c-2.3.7-3.3 1-2.9 1 .3 0 2.9-.8 3.1-.9l1.2-.4 2.2-.7c.6-.2 1.5-.5 2-.7s.9-.4.9-.4-1 .3-2.1.7zM28 394.2c-.5.2-1 .5-1.3.6l-.4.3.5-.3c.6-.3 1.5-.7 2-.8.2 0 .3-.1.3-.1s-.5 0-1 .2zm3.8 1.5c.3.4.6 1.2.8 1.6.1.4.2.8.2.9s2.3-.4 2.3-.5c0 0-.1 0-1.1.2l-1.1.3-.2-.6c-.2-.9-1.1-2.4-1.4-2.6a21.98 21.98 0 0 0 .5.8zm73.6 32.5c.3.1.7.3 1 .4.3 0 0 0-.5-.3-.5-.2-.8-.3-.5-.2zm1.8 1.1c.2.2.4.8.4 1.3.1.9.2 1 .1 0 0-.6-.5-1.6-.7-1.7 0 0 0 .1.2.4zm-81.6-33.5c-.7.7-1 1.4-1 2.1s.4 1.7.9 2.3c.2.3.3.4.3.2-1.3-2-1.3-3.2 0-4.5.3-.3.5-.6.5-.6s-.3.2-.6.5zm-2.9-.9c-.2.2-.4.7-.5 1s0 .2.3-.4c.5-1 .7-1.4.2-.6zm71.5 30.4c-.6 0-1.1 0-1.1.1h.9 1.3.3-1.2zm3.5 1.4c.5.8.6 1.1.7 2.4.1 1.2.2 1.5.2.3 0-1.3-.3-2.2-.7-2.7-.5-.8-.6-.7-.2 0zm-5.9-1c-.6.1-1.1.3-1.2.4-.1 0 0 2.4 0 2.3v-1.1-1.1l.7-.2c.4-.1 1-.3 1.2-.3s.4-.1.3-.1c0 0-.6 0-1.1.2zm13.2 5c.4.5-.2 1-1.5 1.1-.4 0-.7 0-.6.1.2 0 1 0 1.6-.2.3 0 .6-.2.7-.4.1-.3 0-.7-.2-.8v.2zm-67.4-26.8c.2.5.3 1 .3 1.1v.1c.2 0 0-1.2-.4-1.6-.2-.4-.2-.3 0 .5zm69.2 28.8c-.4.4-1.8 1-2.7 1.1-.8.1-1 .2-.3.2.9 0 2.2-.5 2.8-1 .3-.2.6-.5.6-.5s-.2 0-.4.2zm-58.2-24.5s.3.2.7.4c1.3.5 1.5.5.4 0-.6-.3-1.1-.4-1.1-.4zm47.1 20.2c0 .3.3 1.7.4 3.2l.2 2.6c.1-.3-.3-5.2-.5-5.7l-.2-.6.2.5zm2.9 2c0 .1 0 2.1.1 2.1v-1.1c0-.6-.1-1-.1-1zm-12.2-4.7c.5.3 1.1.6 1.2.7s0 0 0-.2c-.2-.2-.7-.5-1.2-.7l-.9-.4 1 .5zm-2.2-.5c-.7 0-2.2.5-1.9.6 0 0 .2 0 .4-.1.3-.2 1.4-.4 2.1-.4h.3-1zm-61.9-25.7c.3.8 1.5 2.5 2.2 3.2.3.3.7.6.7.5 0 0-.2-.2-.4-.5-.7-.6-1.7-2-2.1-2.9s-.6-1.1-.3-.3zm52.9 21.9c0 .1-.2.6-.2 1v.5c0-.1.2-.6.2-1v-.5zm12.9 5.7c.1.3.3.7.4 1l.2.5v-.5c-.2-.3-.3-.7-.5-1l-.3-.4.2.5zM15 396.4c0 .3 1.7 2.9 1.7 2.8 0 0-.2-.5-.6-1-.3-.5-.8-1.2-.9-1.5-.2-.3-.3-.4-.2-.3zm25.5 10.8c-.5 0-1.6.5-1.8.8 0 0 .2 0 .5-.2.8-.6 1.6-.5 2.8 0 .6.3.9.4.8.3-.3-.3-1.8-.9-2.3-.9zm70.3 29.6c-.3 0-1.4.3-2.5.6-1.1.2-2.2.5-2.4.5h-.4c0 .1.4 0 .4 0 1.5-.2 5.7-1.2 5.5-1.3 0 0-.3 0-.6.1zm-17.6-7.6c0 .1.3 5.2.3 5.2s0-1.2-.1-2.7l-.2-2.5zm-49.2-20a3.91 3.91 0 0 0 .4.5c.2.3.4.5.4.6 0 0-.2.4-.6.6-.3.2-.6.4-.5.5 0 0 1.2-.8 1.3-1 0 0-.2-.4-.4-.7-.5-.6-.5-.7-.6-.6zm15.9 6.8c1.3.7 3.5 1.6 3.4 1.5 0 0-1.1-.5-2.3-1.1-1.6-.7-1.9-.8-1.1-.4zm20.4 9.1s-.3.4-.6.6c-.4.3-.7.5-.6.5l1.5-1.1s0-.1-.1-.1h-.1zm8.3 4.6v1s.2-1.8 0-1.9c0 0 0 .4-.1.9zm-4-2.5c-.6 0-1.3.5-1.6 1.1s-.2.8.2.7c.2 0 .2 0 0-.1-.2 0-.2-.2 0-.5.3-.6.6-.9 1.2-1 1-.2 1.9.5 1.9 1.5 0 .3 0 .4.1.2 0-.1 0-.5-.1-.9-.2-.5-.4-.7-.8-.8-.3-.1-.6-.2-.8-.2zm-3.1-.8a3.04 3.04 0 0 0-.5.7c-.2.4-.2.4.2 0 .2-.3.5-.6.6-.7s.2-.2.1-.2c0 0-.2 0-.4.3zm-4-1.8c-.4.2-1.4 1-1.3 1.1 0 0 .4-.2.8-.5s.8-.5 1-.5h0-.5zm-41.7-16.4l-.8.8s.4-.3.8-.7l.8-.8s-.4.3-.8.7zm-18.9-8.8s.2.5.5.9c.7 1 .7 1 .8 1l-.6-1c-.4-.5-.6-.9-.6-.8zm16.2 7c.2.3.3.5.3.6 0 .2-1.2 1.2-1.4 1.3-.1 0-.1 0 0 .1.2 0 1.4-1 1.5-1.3 0-.2-.4-1-.7-1.1 0 0 0 .2.2.4zm39.2 16.5c0 .1-.2.6-.2 1v.5c.2-.4.4-1.9.3-1.6zm-30.1-12.6l.6.8c.4.5.6.7.7.6 0 0-.4-.2-.6-.6-.4-.5-.8-1-.7-.7zm8.5 3.8c1 .9 1.2 1.4 1.2 2.6v.3c.4-.9-.6-2.9-1.6-3.3-.1 0 0 .1.3.4zm12.5 5.5c0 .2-.2.2-1.7-.5l-1.6-.8-.3.7-.3.7.3-.6.3-.6 1.6.8 1.6.8v-.3c.2-.2.2-.3.2-.3s-.1 0-.2.2zM41 411.8c.4.9.7 1.8.8 2.1v.2c0-.5-.2-1.3-.9-2.6l-.7-1.3.7 1.6zm49.8 19.6v1.8c.1 1.7.1 1.7.5 1.7h.4-.3c-.3 0-.3-.2-.4-1.7 0-1-.2-1.7-.2-1.7zm-60.3-25c0 .2.9 1.6 1.2 1.7.1 0 0-.2-.3-.5s-.6-.8-.7-1c0-.2-.2-.3-.2-.2zm36.9 15.5c.4.3.9.7 1 .8a1.44 1.44 0 0 0 .3.2c.2 0-1.3-1.3-1.9-1.5-.1 0 .1.2.6.5zm-39.3-16.3c-.1.3.4 1.6.9 2.4.3.5.7.9.8.9 0 0 0-.2-.4-.6-.7-.9-1-1.4-1.1-2.2 0-.4-.2-.6-.2-.5zm9.8 4.1c-.1.3.2 1.4.8 2.3l.7 1.4c0 .2 0 .3.1.1 0-.1-.2-.8-.6-1.4-.3-.7-.7-1.5-.7-1.9s-.2-.6-.2-.5zM88.5 431h-1.1-1.1s2 .3 2.2.2c0 0 .1-.1.1-.2h-.1zm-13.4-4.6c-.5.3-.9.6-.9.5h-.1v.2c0 .1 2-1.2 1.9-1.3 0 0-.4.2-.9.6zm-11.1-5c-.7.2-1.7.8-2.1 1.3-.1.2.1 0 .5-.3.7-.6 1.1-.8 2.1-1 .2 0 .4-.1.3-.1 0 0-.4 0-.8.1zm5.1 2.4c.2.5.3 1.1.4 1.5 0 .4 0 .6.1.6.1-.3-.2-1.9-.5-2.4s-.3-.5 0 .3zm7.9 3.9c-.5.3-.9.7-.9.8h.2c.1-.1.6-.5 1-.8s.7-.5.7-.6l-1 .6zm-57.6-24.5c.2.5 3.6 4.8 3.7 4.7 0 0-.3-.4-.7-.9l-1.6-2c-1.5-2-1.7-2.2-1.5-1.8zm29.7 12.4c.3.4.3.6 0 1.6-.2.6-.2.6.1-.1s.3-.9.2-1.2c-.1-.2-.3-.5-.4-.5l.1.3zm53.1 22.8l-3.1.4c-1 .1-1.8.2-1.8.3 0 0 5.4-.5 6-.7.7-.2.3-.2-1 0zm-18.1-7.7c-1.5-.1-1.7 0-1.3.9.2.4.4.6 1.1.9.5.2.9.3 1.1.3.1 0-.1-.2-.7-.3-.7-.2-1-.4-1.2-.7-.3-.4-.4-.8-.2-.9h1.5 1.3c-.1 0-.8-.1-1.6-.2zM56 420.3c-.3.7-.4 1.1-.2.7s.4-1 .6-1.4c.1-.4 0 0-.3.7zm31.2 12.2c-.1 0-.6.1-1 .1s-.8 0-.7.1c0 0 1 0 1.8-.1.3 0 .4-.1.3-.2h-.4zm-21.9-9.1c-.2 0-.5 0-.7.2l-.4.2.5-.2c.6-.2 1.6 0 1.9.6.1.2.3.6.3.9s.1.4.2.3c0 0 0-.5-.2-.9-.2-.6-.4-.7-.8-.9-.3-.1-.6-.2-.8-.2zm-29.4-11.8c-.1 0-.3.2-.5.4l-.3.3.4-.2c.2-.1.4-.2.4-.3 0 0 .2.2.5.6.6.8 1.6 1.8 2 2 .2 0 .5 0 .7-.1l.3-.2-.4.2c-.3.2-.4.2-.8-.1-.6-.4-1.5-1.4-1.9-2-.2-.4-.3-.5-.5-.4zm-5.9-2.5s1.3 1.2 1.5 1.3c0 0-.1-.2-.4-.5-.8-.8-1-.9-1.1-.9zM76.5 429c.1.2.6 1.1 1 1.9s.8 1.5.8 1.5v-.1c-.7-1.6-1.3-2.6-1.6-3.1-.2-.3-.3-.4-.2-.2zm11.2 4.9c0 .6 0 .7-1.6.8-.5 0-1 .1-.9.1 0 0 1.8 0 2.3-.2.4-.1.4-.2.4-.6v-.6.4zm-7.5-2.7c0 .6.4 1.4.6 1.7.1.1 0-.1-.1-.6-.2-.4-.4-1-.4-1.2q0-.4 0 0zm-45.4-18.7c-.4.3-.4.6 0 1.1.3.3.3.3.2 0 0-.2-.2-.4-.3-.5s0-.2.2-.5c.4-.4.3-.5 0-.1zm6.2 3.2c-.2.2-.6.5-1 .6-.8.3-.7.4.1 0 .3-.1.8-.4.9-.6.5-.5.4-.6 0-.1zm33.1 14c.2.4.8 1.4 1.2 2.3l.7 1.6.8.2c.5 0 .7.1.6 0-.1 0-.5-.2-.8-.2H76l-.6-1.4c-.6-1.5-1.4-3-1.6-3 0 0 0 .2.3.6zm-19.3-6.9c-.3.6-.4.9-.2.6s.4-.8.5-1.2 0-.1-.3.5zm8.2 3.3c-.2.4 0 1.5.3 1.8.2.2.5.4.8.5.5.2.6.2 1.2 0 .4-.2.8-.4.8-.6 0-.3 0-.3-.2 0-.7.9-2.2.7-2.7-.3-.1-.3-.2-.8-.2-1.1v-.4zm18.8 7.9c.3.2 1.6.9 1.5.7 0 0-.4-.3-.9-.5-.5-.3-.8-.3-.6-.2zm-54.4-21.3s1.4 1.5 1.5 1.4c0 0-.2-.3-.5-.6s-.7-.6-.8-.7-.2-.2-.2-.1zm62.4 26.5c-1 0-1.3 0-.7.1h1.8-1zm-36.1-14.1c-.4.8-.4.9-.2 1h.1s0-.5.2-1l.3-.9-.4.9zm6.8 2.3c0 .4.7 1.7.8 1.6v-.2s-.3-.5-.5-1c-.2-.4-.3-.7-.3-.5zm-4.5-1l-.3.6-.9-.3-.9-.3.9.4.9.4.3-.7c.2-.4.3-.7.2-.7 0 0-.2.3-.3.6zm-24.4-9.7c0 .2 1.6 1.6 1.7 1.5l-.7-.7c-.4-.4-.8-.7-.9-.8h-.1zM83.8 439h-1l2.3.2c.2 0-.1-.1-1.2-.2zm-48.9-19.4c.2.2.6.5.8.6s.1 0-.3-.3c-.7-.6-1.1-.9-.5-.3zm45.1 19h-.3c.6.1 1.6.2 1.3 0-.1 0-.6-.1-1-.1zM37.9 422c.3.2.6.5.8.5.1 0 0-.1-.3-.4-.7-.6-1.1-.7-.5-.2zm38.6 16.1h-.4c.1 0 .5.1.9.2.8 0 .4-.1-.5-.2zm-31.8-11.6c.3.2.6.4.9.5s.3 0-.1-.2c-.7-.5-1.3-.7-.7-.3zm23.5 9.9c-.5-.1-.5 0-.2 0 .2 0 .6.2.9.3h.2c-.2 0-.6-.2-.9-.3zm-17-6.3c.3.2.8.4 1.1.5.3 0 0 0-.5-.3-.6-.3-.9-.3-.6-.2zm9.5 4c.3.2.8.4 1.1.5.3 0 0 0-.5-.3-.6-.3-.9-.3-.6-.2zm-6.1-2.4l3.6 1.5c1 .4.2 0-1.8-.8l-1.8-.7z" fill="#d1ced9"/></g><circle cx="91.7" cy="351.7" r="87.4" transform="matrix(.707107 -.707107 .707107 .707107 -221.8 167.9)" stroke="#201446" stroke-width="6" fill="none"/></svg>