<svg xmlns="http://www.w3.org/2000/svg" viewBox="0 0 50.4 50" fill="#1dcd75" xmlns:v="https://vecta.io/nano"><path d="M47 14.7l-1-1.8c-.3.3-.7.5-1.1.7a4.68 4.68 0 0 1-6.2-2.2s0-.1-.1-.1c-.3.2-.6.5-1 .6a4.68 4.68 0 0 1-6.2-2.2c-.4-.9-.5-1.9-.4-2.8-1.8 0-3.5-1-4.3-2.7-.5-1.1-.6-2.3-.2-3.4-4-.3-8.1.5-11.9 2.3C2.4 8.8-2.8 23.4 2.9 35.5c5.7 12.2 20.3 17.4 32.4 11.7C47.5 41.4 52.8 26.9 47 14.7zm-9.3 14.5c-.2.7-.4 1.3-.8 1.8a6.73 6.73 0 0 1-1.5 1.4 12.81 12.81 0 0 1-2 1.1c-.7.3-1.6.6-2.5.9l1.1 4.5-2.7.6-1-4.5-2.2.5 1 4.5-2.7.6-1.1-4.5c-.2 0-.5 0-1 .2-.4 0-.8.2-1 .2l-3.5.8-.2-3.4 2-.5c.6 0 .9-.5.8-1.1l-1.7-7.1h.3c0-.1-.3-.1-.3-.1L17.5 20c-.3-.8-1-1-1.9-.8l-2 .5-.7-2.9 3.8-.9 1.7-.4-1-4.5 2.7-.6 1 4.4c1-.2 1.7-.4 2.2-.5l-1-4.3 2.7-.6 1 4.5c1-.1 1.8-.2 2.6-.2s1.5.1 2.2.3 1.3.6 1.8 1a3.99 3.99 0 0 1 1.1 1.9c.7 2.1.3 3.8-1.3 5.1 1.5 0 2.6.4 3.5 1.1s1.5 1.9 1.7 3.6c.3 1 .3 1.8.1 2.5h0z"/><path d="M25.6 23.1l1-.3.9-.4c.3-.2.6-.3.8-.5s.4-.4.5-.6c.2-.2.3-.5.3-.8s0-.6-.1-.9c-.1-.4-.2-.7-.5-1-.2-.3-.5-.5-.7-.6l-1-.3c-.4-.1-.7-.1-1-.1s-.7 0-1.1.1-.8.1-1 .2c-.3.1-.6.1-1 .2l-.7.2 1.3 5.4c.1 0 .3-.1.6-.1.4-.1.6-.1.8-.2.3-.1.5-.2.9-.3zm6.1 3.4c-.3-.3-.5-.5-.8-.7s-.7-.3-1.1-.3-.9-.1-1.2-.1-.8.1-1.3.1c-.5.1-.9.2-1.2.2-.3.1-.7.2-1.1.3l-.8.2 1.4 6h.7c.3 0 .6 0 .9-.2.2-.1.5-.1.9-.2l1-.3c.3-.1.6-.2 1-.4s.7-.3.9-.5c.3-.2.5-.3.8-.6.3-.2.4-.5.6-.7.1-.2.2-.5.3-.8v-.9c-.5-.3-.7-.7-1-1h0z"/></svg>