<?xml version="1.0" encoding="utf-8"?>
<!-- Generator: Adobe Illustrator 24.2.3, SVG Export Plug-In . SVG Version: 6.00 Build 0)  -->
<svg version="1.1" id="Layer_1" xmlns="http://www.w3.org/2000/svg" xmlns:xlink="http://www.w3.org/1999/xlink" x="0px" y="0px"
	 viewBox="0 0 256 256" style="enable-background:new 0 0 256 256;" xml:space="preserve">
<style type="text/css">
	.st0{fill:url(#SVGID_1_);}
	.st1{fill:#FFFFFF;}
	.st2{fill:url(#SVGID_2_);}
</style>
<g>
	<linearGradient id="SVGID_1_" gradientUnits="userSpaceOnUse" x1="63.9893" y1="17.1302" x2="192.0107" y2="238.8698">
		<stop  offset="0" style="stop-color:#16FDC4"/>
		<stop  offset="1" style="stop-color:#02A5F9"/>
	</linearGradient>
	<circle class="st0" cx="128" cy="128" r="128"/>
	<path class="st1" d="M155.5,130.7L155.5,130.7L155.5,130.7c-0.1-0.1-0.1-0.2-0.1-0.3l0,0l0,0l0,0l0,0l0,0l0,0l0,0
		c-0.7-2.2-2-4.2-3.8-5.6l0,0c-0.1,0-0.1-0.1-0.2-0.1l-0.1-0.1h-0.1l0,0h-0.1l0,0H151l0,0h-0.1l0,0h-0.1l0,0h-0.1l0,0v-0.1l0,0h-0.1
		l0,0h-0.1l0,0h-0.1l0,0h-0.1l0,0h-0.1l0,0h-0.1l0,0H150l0,0h-0.1l0,0h-0.1l0,0h-0.1l0,0h-0.1l0,0h-0.1l0,0h-0.1l0,0h-0.1l0,0h-0.1
		l0,0h-0.1H149l0,0c0,0-0.1,0-0.1-0.1c-1.6-0.8-3.4-1.4-5.1-1.6c0.5-0.5,1-1.1,1.4-1.7l0.1-0.1l0,0l0,0v-0.1l0,0v-0.1l0,0v-0.1l0,0
		v-0.1l0,0v-0.1l0,0v-0.1l0,0v-0.1l0,0v-0.1l0,0v-0.1l0,0V120l0,0v-0.1l0,0v-0.1l0,0v-0.1l0,0v-0.1l0,0v-0.1l0,0v-0.1l0,0v-0.1l0,0
		v-0.1l0,0v-0.1l0,0V119l0,0v-0.1l0,0v-0.1l0,0v-0.1v-0.1c0-0.1,0-0.1,0.1-0.2l0,0c0.8-1.9,1-4,0.5-6l0,0l0,0l0,0l0,0l0,0l0,0l0,0
		l0,0c0-0.1,0-0.1,0-0.2l0,0l0,0l0,0l0,0l0,0l0,0c0-0.1,0-0.2-0.1-0.2c0-0.1,0-0.2-0.1-0.2v-0.1l0,0c0-0.1,0-0.1,0-0.2l0,0l0,0l0,0
		l0,0l0,0l0,0l0,0c-0.6-2-1.8-3.7-3.3-5l0,0l-0.1-0.1h-0.1h-0.1l0,0l0,0l0,0l0,0l0,0l0,0l0,0H142l0,0h-0.1l0,0h-0.1l0,0h-0.1l0,0
		h-0.1l0,0h-0.1l0,0h-0.1l0,0h-0.1l0,0h-0.1l0,0h-0.1l0,0H141l0,0h-0.1l0,0h-0.1l0,0h-0.1l0,0h-0.1l0,0h-0.1l0,0h-0.1l0,0h-0.1l0,0
		h-0.1h-0.1l0,0l-0.1-0.1c-3.1-1.6-7-2.1-10.9-1.1l-1,0.3L126.7,93l-6,1.5l2.6,10l-4.8,1.2l-2.6-10l-6,1.5l2.6,10l-12.4,3.2l1.6,6.4
		l5-1.3c1.7-0.4,3.3,0.6,3.8,2.2l0,0l0,0l0,0l6.9,26.9c0.3,1.1-0.4,2.2-1.5,2.5l-4.4,1.1l0.3,7.6l12.4-3.2l2.6,10l6-1.5l-2.6-10.1
		l4.8-1.2l2.6,10l6-1.5l-2.6-10.1c1-0.3,1.9-0.5,2.5-0.6c4.4-1.1,8-3.7,10.2-7l0.1-0.1l0,0v-0.1v-0.1l0,0v-0.1l0,0v-0.1l0,0V140l0,0
		v-0.1l0,0v-0.1l0,0v-0.1l0,0v-0.1l0,0v-0.1l0,0v-0.1l0,0v-0.1l0,0v-0.1l0,0v-0.1l0,0V139l0,0v-0.1l0,0v-0.1l0,0v-0.1l0,0v-0.1l0,0
		v-0.1l0,0v-0.1l0,0v-0.1l0,0v-0.1l0,0v-0.1V138c0-0.1,0.1-0.1,0.1-0.2l0,0c0.9-2.1,1.1-4.5,0.6-6.8l0,0l0,0l0,0l0,0l0,0l0,0l0,0
		l0,0v-0.2l0,0l0,0l0,0l0,0l0,0l0,0l0,0l0,0l0,0l0,0l0,0l0,0l0,0l0,0l0,0c0-0.1,0-0.2-0.1-0.3C155.5,130.9,155.5,130.8,155.5,130.7z
		 M120.2,112.7c1-0.3,5.3-1.3,6.7-1.7c2.2-0.6,4.4-0.3,6.1,0.5h0.1l0,0l0,0l0,0l0,0l0,0l0,0l0,0l0,0l0,0l0,0l0,0l0,0l0,0l0,0l0,0
		l0,0l0,0l0,0l0,0l0,0l0,0l0,0l0,0l0,0l0,0l0,0l0,0l0,0l0,0l0,0l0,0l0,0l0,0l0,0l0,0l0,0l0,0l0,0l0,0l0,0l0,0l0,0l0,0l0,0l0,0l0,0
		l0,0l0,0c0,0,0.1,0,0.1,0.1l0,0c0.9,0.7,1.5,1.6,1.8,2.6l0,0l0,0v0.1l0,0l0,0v0.1v0.1l0,0l0,0v0.1l0,0l0,0c0.2,1.1,0.1,2.2-0.3,3.2
		l0,0v0.1l0,0l0,0l0,0l0,0l0,0l0,0l0,0l0,0l0,0l0,0l0,0l0,0l0,0l0,0l0,0l0,0l0,0l0,0l0,0l0,0l0,0l0,0l0,0l0,0l0,0l0,0l0,0l0,0l0,0
		l0,0l0,0l0,0l0,0l0,0l0,0l0,0l0,0l0,0l0,0l0,0l0,0l0,0l0,0l0,0l0,0l0,0l0,0l0,0v0.1c-1.1,1.5-2.9,2.8-5.1,3.4
		c-1.4,0.4-5.6,1.5-6.6,1.7L120.2,112.7z M143.7,133.3L143.7,133.3L143.7,133.3c0,0.1,0,0.1,0,0.1l0,0l0,0l0,0l0,0l0,0l0,0l0,0
		c0.2,1.2,0.1,2.4-0.5,3.5l0,0l-0.1,0.1l0,0l0,0l0,0l0,0l0,0l0,0l0,0l0,0l0,0l0,0l0,0l0,0l0,0l0,0l0,0l0,0l0,0l0,0l0,0l0,0l0,0l0,0
		l0,0l0,0l0,0l0,0l0,0l0,0l0,0l0,0l0,0l0,0l0,0l0,0l0,0l0,0l0,0l0,0l0,0l0,0l0,0l0,0l0,0l0,0l0,0l0,0l0,0l0,0v0.1
		c-1.3,1.7-3.5,3.1-6.1,3.8c-1.7,0.4-6.7,1.7-7.9,2l-3.4-13.3c1.2-0.3,6.2-1.6,7.9-2c2.6-0.7,5.2-0.5,7.2,0.4h0.1l0,0l0,0l0,0l0,0
		l0,0l0,0l0,0l0,0l0,0l0,0l0,0l0,0l0,0l0,0l0,0l0,0l0,0l0,0l0,0l0,0l0,0l0,0l0,0l0,0l0,0l0,0l0,0l0,0l0,0l0,0l0,0l0,0l0,0l0,0l0,0
		l0,0l0,0l0,0l0,0l0,0l0,0l0,0l0,0l0,0l0,0l0,0l0,0l0,0c0,0,0.1,0,0.1,0.1l0,0c1,0.7,1.7,1.7,2.1,2.8l0,0l0,0v0.1l0,0l0,0v0.1
		C143.7,133.2,143.7,133.2,143.7,133.3L143.7,133.3z"/>
	<g>
		<path class="st1" d="M250.1,128c0-5.6-3-10.4-7.4-13c4.6-15.8,2.9-33.3-5.9-48.7C228,51.1,213.8,41,198,37v-0.1
			c0-8.4-6.8-15.2-15.2-15.2c-2.9,0-5.5,0.8-7.8,2.2C163.5,12,147.5,4.6,129.8,4.6c-17.6,0-33.5,7.3-44.9,19c-2.2-1.3-4.7-2-7.5-2
			c-8.4,0-15.2,6.8-15.2,15.2c-16,3.9-30.5,14.1-39.3,29.5c-5.7,9.8-8.4,20.6-8.4,31.2c0,5.4,0.7,10.8,2.1,16
			c-6.2,1.9-10.7,7.7-10.7,14.5s4.5,12.6,10.7,14.5c-1.4,5.2-2.1,10.6-2.1,16c0,10.6,2.7,21.4,8.4,31.2
			c8.9,15.4,23.3,25.5,39.3,29.5c0,8.4,6.8,15.2,15.2,15.2c2.7,0,5.3-0.7,7.5-2c11.4,11.7,27.3,19,44.9,19
			c17.7,0,33.7-7.4,45.1-19.2c2.3,1.4,4.9,2.2,7.8,2.2c8.4,0,15.2-6.8,15.2-15.2v-0.1c15.8-4,30-14.1,38.8-29.3
			c8.8-15.3,10.5-32.9,5.9-48.7C247.1,138.4,250.1,133.6,250.1,128z M233.5,68.2c5.2,9.1,7.9,19.1,7.9,29.4c0,5.1-0.7,10.3-2,15.3
			c-1.1,4-2.5,7.8-4.4,11.4c-5.2-8.1-12.3-15-21.2-20.2c-5.1-2.9-10.4-5.1-15.9-6.4c0,0,0,0,0-0.1c0-5.7-3.2-10.7-7.8-13.3
			c1.6-5.4,2.4-11.2,2.4-17.1c0-10.2-2.5-19.9-6.8-28.4C204.8,39.9,223.2,50.3,233.5,68.2z M181.4,217.3c-9.7-0.2-19.4-2.7-28.4-7.9
			c-8.2-4.7-14.9-11.2-19.9-18.8c20.6-1.1,38.6-12.1,49.2-28.4c4.1,8,6.4,17.1,6.4,26.7C188.7,199.1,186.1,208.8,181.4,217.3z
			 M70.9,188.8c0-9.6,2.3-18.6,6.4-26.7c10.6,16.3,28.6,27.4,49.2,28.4c-4.9,7.5-11.6,14.1-19.9,18.8c-8.9,5.2-18.7,7.7-28.4,7.9
			C73.6,208.8,70.9,199.1,70.9,188.8z M78.3,38.7c9.7,0.2,19.4,2.7,28.4,7.9c8.3,4.8,15,11.3,19.9,18.8
			C105.9,66.5,88,77.6,77.3,93.9c-4.1-8-6.4-17.1-6.4-26.7C70.9,56.9,73.6,47.2,78.3,38.7z M188.7,67.2c0,9.6-2.3,18.7-6.4,26.7
			c-10.6-16.3-28.6-27.4-49.2-28.4c5-7.7,11.7-14.1,19.9-18.8c8.9-5.2,18.7-7.7,28.4-7.9C186.1,47.2,188.7,56.9,188.7,67.2z
			 M74,99.6c-4.4,8.5-6.8,18.2-6.8,28.4s2.5,19.9,6.8,28.4c-9-0.5-18-3-26.3-7.8c-8.9-5.2-16-12.3-21-20.6c5-8.3,12-15.5,21-20.6
			C56.1,102.6,65.1,100.1,74,99.6z M185.6,156.4c4.4-8.5,6.8-18.2,6.8-28.4s-2.5-19.9-6.8-28.4c9,0.5,18,3,26.3,7.8
			c8.8,5.1,15.9,12.2,21,20.6c-5.1,8.5-12.2,15.6-21,20.6C203.6,153.4,194.6,155.9,185.6,156.4z M129.8,8.3
			c20.6,0,38.8,10.7,49.3,26.8c-9.6,0.5-19.2,3.2-28,8.3c-5.1,2.9-9.6,6.5-13.6,10.6c-2.2-1.2-4.7-2-7.4-2c-2.8,0-5.5,0.8-7.8,2.2
			c-4-4.1-8.6-7.8-13.8-10.8c-8.9-5.1-18.4-7.8-28-8.3C91,19,109.2,8.3,129.8,8.3z M26.2,68.2C36.5,50.3,54.8,39.9,74,38.8
			c-4.4,8.5-6.8,18.2-6.8,28.4c0,6,0.9,11.8,2.5,17.4c-4.4,2.6-7.4,7.5-7.4,13c-5.6,1.4-11.1,3.5-16.4,6.6
			c-8.8,5.1-16,12.1-21.2,20.1C16,107.1,15.9,86,26.2,68.2z M26.2,187.8c-5.3-9.3-7.9-19.4-7.9-29.4c0-9.3,2.2-18.5,6.4-26.7
			c5.2,8,12.3,15,21.2,20.1c5.3,3,10.8,5.2,16.4,6.6c0,5.5,3,10.3,7.4,13c-1.6,5.5-2.5,11.3-2.5,17.4c0,10.2,2.5,19.9,6.8,28.4
			C54.8,216.1,36.5,205.7,26.2,187.8z M129.8,247.7c-20.6,0-38.8-10.7-49.3-26.8c9.6-0.5,19.2-3.2,28-8.3c4.4-2.6,8.4-5.6,11.9-9
			c2.6,2.2,6,3.5,9.6,3.5c3.5,0,6.8-1.2,9.3-3.2c3.5,3.3,7.4,6.2,11.7,8.7c8.9,5.1,18.4,7.8,28,8.3
			C168.6,237,150.5,247.7,129.8,247.7z M233.5,187.8c-10.3,17.9-28.6,28.3-47.8,29.3c4.4-8.5,6.8-18.2,6.8-28.4
			c0-5.9-0.8-11.7-2.4-17.1c4.7-2.6,7.8-7.6,7.8-13.3c0,0,0,0,0-0.1c5.4-1.4,10.8-3.5,15.9-6.4c8.9-5.1,16-12.1,21.2-20.2
			c1.8,3.6,3.3,7.4,4.4,11.4c1.4,5.1,2,10.2,2,15.3C241.4,168.7,238.7,178.8,233.5,187.8z"/>
	</g>
</g>
<linearGradient id="SVGID_2_" gradientUnits="userSpaceOnUse" x1="58.4129" y1="-501.7066" x2="176.1793" y2="-501.7066" gradientTransform="matrix(0.5768 0.8169 -0.8169 0.5768 -347.431 321.6636)">
	<stop  offset="0" style="stop-color:#16FDC4"/>
	<stop  offset="1" style="stop-color:#02A5F9"/>
</linearGradient>
<circle class="st2" cx="130" cy="128" r="59"/>
<path class="st1" d="M148.6,108.2c-3.1-6.8-9.6-8.1-18-6.8l-2.8-10.2l-6.2,1.6l2.5,10.2c-1.6,0.3-3.4,0.9-5,1.2L116.6,94l-6.2,1.6
	l2.8,10.2c-1.2,0.3-12.7,3.4-12.7,3.4l1.9,6.8l4.7-1.2c2.5-0.6,3.7,0.6,4.3,1.9l7.5,28.6c0,0.9,0,2.2-1.9,2.8l-4.7,1.2l0.6,7.8
	c0,0,11.2-2.8,12.7-3.1l2.8,10.6l6.2-1.6l-2.8-10.6c1.9-0.3,3.4-0.9,5-1.2l2.8,10.6l6.2-1.6l-2.8-10.6c9.6-2.5,16.5-8.4,15.2-18
	c-0.9-5.6-7.1-10.2-12.1-10.9C148.9,117.8,150.5,113.7,148.6,108.2z M145.5,133c1.2,9.3-11.5,10.6-15.8,11.5l-3.7-13.7
	C130,129.6,143.3,124.9,145.5,133z M137.7,114.1c1.2,8.4-9.6,9.3-13.4,10.2l-3.4-12.7C124.7,110.6,134.9,106.6,137.7,114.1z"/>
</svg>
