<svg xmlns="http://www.w3.org/2000/svg" viewBox="0 0 256 256" xmlns:v="https://vecta.io/nano"><linearGradient id="A" gradientUnits="userSpaceOnUse" x1="63.989" y1="17.13" x2="192.011" y2="238.87"><stop offset="0" stop-color="#16fdc4"/><stop offset="1" stop-color="#02a5f9"/></linearGradient><circle cx="128" cy="128" r="128" fill="url(#A)"/><g fill="#fff"><path d="M155.5 130.7h0 0c-.1-.1-.1-.2-.1-.3h0 0 0 0 0 0 0c-.7-2.2-2-4.2-3.8-5.6h0c-.1 0-.1-.1-.2-.1l-.1-.1h-.1 0-.1 0-.1 0-.1 0-.1 0-.1 0v-.1h0-.1 0-.1 0-.1 0-.1 0-.1 0-.1 0-.1 0-.1 0-.1 0-.1 0-.1 0-.1 0-.1 0-.1 0-.1 0-.1-.1 0s-.1 0-.1-.1c-1.6-.8-3.4-1.4-5.1-1.6a11.51 11.51 0 0 0 1.4-1.7l.1-.1h0 0v-.1h0v-.1h0v-.1h0v-.1h0v-.1h0v-.1h0v-.1h0v-.1h0v-.1h0v-.1h0v-.1h0v-.1h0v-.1h0v-.1h0v-.1h0v-.1h0v-.1h0v-.1h0v-.1h0v-.1h0v-.1h0v-.1h0v-.1-.1c0-.1 0-.1.1-.2h0c.8-1.9 1-4 .5-6h0 0 0 0 0 0 0 0v-.2h0 0 0 0 0 0c0-.1 0-.2-.1-.2 0-.1 0-.2-.1-.2v-.1h0v-.2h0 0 0 0 0 0 0c-.6-2-1.8-3.7-3.3-5h0l-.1-.1h-.1-.1 0 0 0 0 0 0 0-.1 0-.1 0-.1 0-.1 0-.1 0-.1 0-.1 0-.1 0-.1 0-.1 0-.1 0-.1 0-.1 0-.1 0-.1 0-.1 0-.1 0-.1 0-.1-.1 0l-.1-.1c-3.1-1.6-7-2.1-10.9-1.1l-1 .3-1.4-12.5-6 1.5 2.6 10-4.8 1.2-2.6-10-6 1.5 2.6 10-12.4 3.2 1.6 6.4 5-1.3c1.7-.4 3.3.6 3.8 2.2h0 0 0l6.9 26.9c.3 1.1-.4 2.2-1.5 2.5l-4.4 1.1.3 7.6 12.4-3.2 2.6 10 6-1.5-2.6-10.1 4.8-1.2 2.6 10 6-1.5-2.6-10.1c1-.3 1.9-.5 2.5-.6 4.4-1.1 8-3.7 10.2-7l.1-.1h0v-.1-.1h0v-.1h0v-.1h0v-.1h0v-.1h0v-.1h0v-.1h0v-.1h0v-.1h0v-.1h0v-.1h0v-.1h0v-.1h0v-.1h0v-.1h0v-.1h0v-.1h0v-.1h0v-.1h0v-.1h0v-.1h0v-.1h0v-.1-.1c0-.1.1-.1.1-.2h0c.9-2.1 1.1-4.5.6-6.8h0 0 0 0 0 0 0 0v-.2h0 0 0 0 0 0 0 0 0 0 0 0 0 0 0c0-.1 0-.2-.1-.3 1.1.4 1.1.3 1.1.2zm-35.3-18c1-.3 5.3-1.3 6.7-1.7 2.2-.6 4.4-.3 6.1.5h.1 0 0 0 0 0 0 0 0 0 0 0 0 0 0 0 0 0 0 0 0 0 0 0 0 0 0 0 0 0 0 0 0 0 0 0 0 0 0 0 0 0 0 0 0 0 0 0 0s.1 0 .1.1h0c.9.7 1.5 1.6 1.8 2.6h0 0v.1h0 0v.1.1h0 0v.1h0 0c.2 1.1.1 2.2-.3 3.2h0v.1h0 0 0 0 0 0 0 0 0 0 0 0 0 0 0 0 0 0 0 0 0 0 0 0 0 0 0 0 0 0 0 0 0 0 0 0 0 0 0 0 0 0 0 0 0 0 0 0v.1c-1.1 1.5-2.9 2.8-5.1 3.4-1.4.4-5.6 1.5-6.6 1.7l-2.8-10.4zm23.5 20.6h0 0v.1h0 0 0 0 0 0 0c.2 1.2.1 2.4-.5 3.5h0l-.1.1h0 0 0 0 0 0 0 0 0 0 0 0 0 0 0 0 0 0 0 0 0 0 0 0 0 0 0 0 0 0 0 0 0 0 0 0 0 0 0 0 0 0 0 0 0 0 0 0v.1c-1.3 1.7-3.5 3.1-6.1 3.8-1.7.4-6.7 1.7-7.9 2l-3.4-13.3 7.9-2c2.6-.7 5.2-.5 7.2.4h.1 0 0 0 0 0 0 0 0 0 0 0 0 0 0 0 0 0 0 0 0 0 0 0 0 0 0 0 0 0 0 0 0 0 0 0 0 0 0 0 0 0 0 0 0 0 0 0 0s.1 0 .1.1h0c1 .7 1.7 1.7 2.1 2.8h0 0v.1h0 0v.1l.6 2.2h0z"/><path d="M250.1 128a15.04 15.04 0 0 0-7.4-13c4.6-15.8 2.9-33.3-5.9-48.7C228 51.1 213.8 41 198 37v-.1c0-8.4-6.8-15.2-15.2-15.2-2.9 0-5.5.8-7.8 2.2C163.5 12 147.5 4.6 129.8 4.6c-17.6 0-33.5 7.3-44.9 19-2.2-1.3-4.7-2-7.5-2-8.4 0-15.2 6.8-15.2 15.2-16 3.9-30.5 14.1-39.3 29.5-5.7 9.8-8.4 20.6-8.4 31.2 0 5.4.7 10.8 2.1 16-6.2 1.9-10.7 7.7-10.7 14.5s4.5 12.6 10.7 14.5c-1.4 5.2-2.1 10.6-2.1 16 0 10.6 2.7 21.4 8.4 31.2 8.9 15.4 23.3 25.5 39.3 29.5 0 8.4 6.8 15.2 15.2 15.2 2.7 0 5.3-.7 7.5-2 11.4 11.7 27.3 19 44.9 19 17.7 0 33.7-7.4 45.1-19.2 2.3 1.4 4.9 2.2 7.8 2.2 8.4 0 15.2-6.8 15.2-15.2v-.1c15.8-4 30-14.1 38.8-29.3 8.8-15.3 10.5-32.9 5.9-48.7 4.5-2.7 7.5-7.5 7.5-13.1zm-16.6-59.8c5.2 9.1 7.9 19.1 7.9 29.4 0 5.1-.7 10.3-2 15.3-1.1 4-2.5 7.8-4.4 11.4-5.2-8.1-12.3-15-21.2-20.2-5.1-2.9-10.4-5.1-15.9-6.4v-.1c0-5.7-3.2-10.7-7.8-13.3 1.6-5.4 2.4-11.2 2.4-17.1 0-10.2-2.5-19.9-6.8-28.4 19.1 1.1 37.5 11.5 47.8 29.4zm-52.1 149.1c-9.7-.2-19.4-2.7-28.4-7.9-8.2-4.7-14.9-11.2-19.9-18.8 20.6-1.1 38.6-12.1 49.2-28.4 4.1 8 6.4 17.1 6.4 26.7 0 10.2-2.6 19.9-7.3 28.4zM70.9 188.8c0-9.6 2.3-18.6 6.4-26.7 10.6 16.3 28.6 27.4 49.2 28.4-4.9 7.5-11.6 14.1-19.9 18.8-8.9 5.2-18.7 7.7-28.4 7.9-4.6-8.4-7.3-18.1-7.3-28.4zm7.4-150.1c9.7.2 19.4 2.7 28.4 7.9 8.3 4.8 15 11.3 19.9 18.8-20.7 1.1-38.6 12.2-49.3 28.5-4.1-8-6.4-17.1-6.4-26.7 0-10.3 2.7-20 7.4-28.5zm110.4 28.5c0 9.6-2.3 18.7-6.4 26.7-10.6-16.3-28.6-27.4-49.2-28.4 5-7.7 11.7-14.1 19.9-18.8 8.9-5.2 18.7-7.7 28.4-7.9 4.7 8.4 7.3 18.1 7.3 28.4zM74 99.6c-4.4 8.5-6.8 18.2-6.8 28.4s2.5 19.9 6.8 28.4c-9-.5-18-3-26.3-7.8-8.9-5.2-16-12.3-21-20.6 5-8.3 12-15.5 21-20.6 8.4-4.8 17.4-7.3 26.3-7.8zm111.6 56.8c4.4-8.5 6.8-18.2 6.8-28.4s-2.5-19.9-6.8-28.4c9 .5 18 3 26.3 7.8 8.8 5.1 15.9 12.2 21 20.6-5.1 8.5-12.2 15.6-21 20.6-8.3 4.8-17.3 7.3-26.3 7.8zM129.8 8.3c20.6 0 38.8 10.7 49.3 26.8-9.6.5-19.2 3.2-28 8.3-5.1 2.9-9.6 6.5-13.6 10.6-2.2-1.2-4.7-2-7.4-2-2.8 0-5.5.8-7.8 2.2-4-4.1-8.6-7.8-13.8-10.8-8.9-5.1-18.4-7.8-28-8.3C91 19 109.2 8.3 129.8 8.3zM26.2 68.2C36.5 50.3 54.8 39.9 74 38.8c-4.4 8.5-6.8 18.2-6.8 28.4 0 6 .9 11.8 2.5 17.4a15.17 15.17 0 0 0-7.4 13c-5.6 1.4-11.1 3.5-16.4 6.6-8.8 5.1-16 12.1-21.2 20.1-8.7-17.2-8.8-38.3 1.5-56.1zm0 119.6c-5.3-9.3-7.9-19.4-7.9-29.4 0-9.3 2.2-18.5 6.4-26.7 5.2 8 12.3 15 21.2 20.1 5.3 3 10.8 5.2 16.4 6.6 0 5.5 3 10.3 7.4 13-1.6 5.5-2.5 11.3-2.5 17.4 0 10.2 2.5 19.9 6.8 28.4-19.2-1.1-37.5-11.5-47.8-29.4zm103.6 59.9c-20.6 0-38.8-10.7-49.3-26.8 9.6-.5 19.2-3.2 28-8.3 4.4-2.6 8.4-5.6 11.9-9 2.6 2.2 6 3.5 9.6 3.5 3.5 0 6.8-1.2 9.3-3.2 3.5 3.3 7.4 6.2 11.7 8.7 8.9 5.1 18.4 7.8 28 8.3-10.4 16.1-28.5 26.8-49.2 26.8zm103.7-59.9c-10.3 17.9-28.6 28.3-47.8 29.3 4.4-8.5 6.8-18.2 6.8-28.4 0-5.9-.8-11.7-2.4-17.1 4.7-2.6 7.8-7.6 7.8-13.3v-.1c5.4-1.4 10.8-3.5 15.9-6.4 8.9-5.1 16-12.1 21.2-20.2 1.8 3.6 3.3 7.4 4.4 11.4 1.4 5.1 2 10.2 2 15.3a58.74 58.74 0 0 1-7.9 29.5z"/></g><linearGradient id="B" gradientUnits="userSpaceOnUse" x1="96.106" y1="79.997" x2="164.033" y2="176.2"><stop offset="0" stop-color="#16fdc4"/><stop offset="1" stop-color="#02a5f9"/></linearGradient><circle cx="130" cy="128" r="59" fill="url(#B)"/><path d="M148.6 108.2c-3.1-6.8-9.6-8.1-18-6.8l-2.8-10.2-6.2 1.6 2.5 10.2c-1.6.3-3.4.9-5 1.2L116.6 94l-6.2 1.6 2.8 10.2c-1.2.3-12.7 3.4-12.7 3.4l1.9 6.8 4.7-1.2c2.5-.6 3.7.6 4.3 1.9l7.5 28.6c0 .9 0 2.2-1.9 2.8l-4.7 1.2.6 7.8 12.7-3.1 2.8 10.6 6.2-1.6-2.8-10.6c1.9-.3 3.4-.9 5-1.2l2.8 10.6 6.2-1.6-2.8-10.6c9.6-2.5 16.5-8.4 15.2-18-.9-5.6-7.1-10.2-12.1-10.9 2.8-2.9 4.4-7 2.5-12.5zm-3.1 24.8c1.2 9.3-11.5 10.6-15.8 11.5l-3.7-13.7c4-1.2 17.3-5.9 19.5 2.2zm-7.8-18.9c1.2 8.4-9.6 9.3-13.4 10.2l-3.4-12.7c3.8-1 14-5 16.8 2.5z" fill="#fff"/></svg>