<svg xmlns="http://www.w3.org/2000/svg" viewBox="0 0 88.67 122.88" xmlns:v="https://vecta.io/nano"><g fill-rule="evenodd"><path d="M19.62,27,39.12,3.85C40.45,2.27,41.88,0,44.19,0c2,.05,3.2,1.94,4.38,3.32L69.32,27.51c2.25,3.23.33,6.62-3.6,6.62h-5.6L81.38,59.05c2.55,2.52,1.25,6.57-1.68,7.12H67.34L85.88,87.92l2,2.38c1.55,1.77.77,5.83-2.57,6.23H5.14c-5.21.48-6.27-3.64-4-7.06L21,66.17l-.57-.57H9.77c-3.85.57-5.28-3.61-2.94-6.54L28.24,33.91H22c-3.92.1-4.89-3.5-2.37-6.9Z" fill="#56b320"/><path d="M42.52.4A3.49,3.49,0,0,1,44.19,0c2,.05,3.2,1.94,4.38,3.32L69.32,27.51c2.25,3.23.33,6.62-3.6,6.62h-5.6L81.38,59.05c2.55,2.52,1.25,6.57-1.68,7.12H67.34L85.88,87.92l2,2.38c1.55,1.77.77,5.83-2.57,6.23H62.22L42.52.4Z" fill="#4da11d"/><path d="M51.94 96.53l5.54 26.35H30.71l5.55-26.35h15.68 0z" fill="#8c5d0f"/></g><path d="M39.34 111.21l-1.12 6.43-.21 1.22-1.18-.16-1.86-.24.43-2.43.68.09.91-5.21 2.35.31v-.01h0zm1.67-12.07l-1.48 9.54-2.35-.26 1.48-9.54 2.35.26h0 0z" fill="#af7311"/></svg>