<svg xmlns="http://www.w3.org/2000/svg" viewBox="0 0 64 64" xmlns:v="https://vecta.io/nano"><path d="M47.9 9.85a5.27 5.27 0 0 0-4-1.85H20.12a5.28 5.28 0 0 0-5.29 5.28v40.3a2.42 2.42 0 0 0 1.56 2.26 2.34 2.34 0 0 0 .86.16 2.44 2.44 0 0 0 1.81-.81l12.2-13.76a1.82 1.82 0 0 1 1.36-.61h7.74a5.27 5.27 0 0 0 5.22-4.46l3.52-22.25a5.31 5.31 0 0 0-1.2-4.26z" fill="#0ac18e"/><path d="M44.09 14.21l-.9 6.23a1.22 1.22 0 0 1-1.2 1H30.7a2.45 2.45 0 0 0-2.47 2.46 2.4 2.4 0 0 0 2.41 2.37h10.22a1.21 1.21 0 0 1 1.19 1.4L40.91 35a1.21 1.21 0 0 1-1.2 1h-9a2.41 2.41 0 0 0-1.81.81L20.73 46a.61.61 0 0 1-1.06-.41V14.9a2.07 2.07 0 0 1 2.07-2.07H42.9a1.21 1.21 0 0 1 1.19 1.38z" fill="#f7941d"/></svg>