<?xml version="1.0" encoding="UTF-8"?><svg id="a" xmlns="http://www.w3.org/2000/svg" viewBox="0 0 23.3 24.4"><ellipse cx="21.9" cy="15.8" rx="1.4" ry="1.5" style="fill:#ff9d94;"/><ellipse cx="8.2" cy="15.8" rx="1.4" ry="1.5" style="fill:#ff9d94;"/><ellipse cx="15.1" cy="7.3" rx="1.4" ry="1.5" style="fill:#ff9d94;"/><ellipse cx="1.4" cy="9.7" rx="1.4" ry="1.5" style="fill:#ff9d94;"/><rect x="20.8" y="11" width="2.3" height="2.5" style="fill:#ffd166;"/><path d="M13.9,19.5c0,1.4-1,2.5-2.3,2.5s-2.3-1.1-2.3-2.5h-2.3c0,2.7,2.1,4.9,4.5,4.9s4.5-2.2,4.5-4.9h-2.2Z" style="fill:#ffd166;"/><rect x="7.1" y="9.7" width="2.3" height="3.7" style="fill:#ffd166;"/><rect x="20.8" y="4.9" width="2.3" height="4.8" style="fill:#90e4b5;"/><rect x="7.1" y="7.3" width="2.3" height="1.2" style="fill:#90e4b5;"/><path d="M7.1,7.3c0-1.4-1-2.5-2.3-2.5s-2.3,1.1-2.3,2.5H.2C.2,4.6,2.2,2.5,4.7,2.5s4.5,2.2,4.5,4.9h-2.2Z" style="fill:#0b1088;"/><path d="M20.8,4.9c0-1.4-1-2.5-2.3-2.5s-2.3,1.1-2.3,2.5h-2.3c0-2.7,2.1-4.9,4.5-4.9s4.5,2.2,4.5,4.9h-2.2Z" style="fill:#0b1088;"/><rect x="7.1" y="18.3" width="2.3" height="1.2" style="fill:#0b1088;"/><rect x="13.9" y="9.7" width="2.3" height="9.8" style="fill:#0b1088;"/><rect x="20.8" y="9.7" width="2.3" height="1.2" style="fill:#0b1088;"/><rect x="7.1" y="8.5" width="2.3" height="1.2" style="fill:#0b1088;"/></svg>