<svg xmlns="http://www.w3.org/2000/svg" width="100" height="100" xmlns:v="https://vecta.io/nano"><rect width="100" height="100" ry="16.189" fill="#0b1088"/><path d="M64.008 49.569v-7.7h0c0-9.6-7.8-17.5-17.5-17.5h-4.5v8.7h4.5c4.8 0 8.8 3.9 8.8 8.8v7.7z" fill="#fdcf60"/><path d="M64.008 54.069h-8.7v7.7c0 4.8-3.9 8.8-8.8 8.8h-4.5v8.7h4.5c9.6 0 17.5-7.8 17.5-17.5zm0-4.5v-7.7h0c0-9.6 7.8-17.5 17.5-17.5h4.5v8.7h-4.5c-4.8 0-8.8 3.9-8.8 8.8v7.7z" fill="#fff"/><path d="M64.008 54.069h8.8v7.7c0 4.8 3.9 8.8 8.8 8.8h4.5v8.7h-4.5c-9.6 0-17.5-7.8-17.5-17.5z" fill="#90e4b5"/><circle cx="32.208" cy="35.469" r="5.2" fill="#ff9d94"/><path d="M14.808 57.369h8.7v4.4h-8.7z" fill="#fdcf60"/><path d="M32.308 70.569h5.3v8.7h-5.3zm-17.5-50.1h8.7v14.9h-8.7z" fill="#90e4b5"/><path d="M14.808 35.469h8.7v22h-8.7zm17.5 43.9c-9.6 0-17.5-7.9-17.5-17.5h8.7c0 4.8 3.9 8.8 8.8 8.8z" fill="#fff"/></svg>