<svg xmlns="http://www.w3.org/2000/svg" width="100" height="100" xmlns:v="https://vecta.io/nano"><rect width="100" height="100" ry="16.189" fill="#0b1088"/><path d="M47.6 62.7h8.7v16.7h-8.7z" fill="#fff"/><path d="M47.6 20.6h8.7v19.6h-8.7z" fill="#fdcf60"/><path d="M47.6 40.2h8.7v22.5h-8.7z" fill="#90e4b5"/><circle cx="31.3" cy="51.3" r="5.2" fill="#ff9d94"/><path d="M13.9 38.1h8.7v4.4h-8.7z" fill="#fdcf60"/><path d="M31.4 20.6h9.8v8.7h-9.8zM13.9 62.7h8.7v16.7h-8.7z" fill="#90e4b5"/><path d="M13.9 42.5h8.7v20.2h-8.7zm17.5-21.9c-9.6 0-17.5 7.9-17.5 17.5h8.7c0-4.8 3.9-8.8 8.8-8.8z" fill="#fff"/><path d="M60.8 20.6h7.7v8.7h-7.7z" fill="#fdcf60"/><path d="M68.6 20.6v8.7c4.8 0 8.8 3.9 8.8 8.8a8.75 8.75 0 0 1-8.8 8.8v8.7c9.6 0 17.5-7.8 17.5-17.5s-7.9-17.5-17.5-17.5z" fill="#fff"/><path d="M60.8 46.9h7.7v8.7h-7.7z" fill="#90e4b5"/></svg>