<svg xmlns="http://www.w3.org/2000/svg" width="100" height="100" xmlns:v="https://vecta.io/nano"><rect width="100" height="100" ry="16.189" fill="#0b1088"/><circle cx="81.57" cy="48.674" r="5.2" fill="#ff9d94"/><path d="M46.47 61.774h8.7v17.5h-8.7z" fill="#fdcf60"/><g fill="#90e4b5"><path d="M46.47 39.974h8.7v17.3h-8.7z"/><path d="M63.97 22.574c-9.6 0-17.5 7.8-17.5 17.5h8.7c0-4.8 3.9-8.8 8.8-8.8z"/></g><path d="M68.37 31.274c4.8 0 8.8 3.9 8.8 8.8h8.7c0-9.6-7.9-17.5-17.5-17.5z" fill="#fdcf60"/><path d="M77.17 57.374h8.7v21.9h-8.7zm-30.7 0h8.7v4.5h-8.7z" fill="#fff"/><circle cx="19.07" cy="22.374" r="5.2" fill="#ff9d94"/><path d="M14.67 31.274h8.7v8.8h-8.7z" fill="#fdcf60"/><path d="M32.27 70.574h4.4v8.7h-4.4z" fill="#fff"/><path d="M14.67 39.974h8.7v21.8h-8.7z" fill="#90e4b5"/><path d="M14.77 61.774c0 9.6 7.8 17.5 17.5 17.5v-8.7c-4.8 0-8.8-3.9-8.8-8.8z" fill="#fff"/><path d="M36.57 70.574h4.5v8.7h-4.5z" fill="#fdcf60"/></svg>