<svg xmlns="http://www.w3.org/2000/svg" width="100" height="100" xmlns:v="https://vecta.io/nano"><rect width="100" height="100" ry="16.189" fill="#0b1088"/><circle cx="32.217" cy="35.391" r="5.2" fill="#ff9d94"/><path d="M14.817 57.291h8.7v4.4h-8.7z" fill="#fdcf60"/><path d="M32.317 70.491h5.3v8.7h-5.3zm-17.5-50.1h8.7v14.9h-8.7zm62.5 41.4h8.7v17.5h-8.7z" fill="#90e4b5"/><path d="M42.117 61.791h8.7v17.5h-8.7zm-27.3-26.4h8.7v22h-8.7z" fill="#fff"/><path d="M56.317 31.291h4.5v8.7h-4.5zm-14.2-10.9h8.7v19.6h-8.7z" fill="#fdcf60"/><path d="M42.117 39.991h8.7v21.7h-8.7z" fill="#90e4b5"/><path d="M77.317 53.291h8.7v8.5h-8.7z" fill="#fdcf60"/><path d="M32.317 79.291c-9.6 0-17.5-7.9-17.5-17.5h8.7c0 4.8 3.9 8.8 8.8 8.8zm36.2-48h-7.7v8.7h7.7c4.8 0 8.8 3.9 8.8 8.8h8.7c0-9.6-7.8-17.5-17.5-17.5z" fill="#fff"/></svg>