<svg xmlns="http://www.w3.org/2000/svg" viewBox="0 0 100 100" xmlns:v="https://vecta.io/nano"><path d="M50 100c-3.4 0-6.8-.3-10.1-1-6.4-1.3-12.5-3.9-17.9-7.5-8-5.4-14.3-13.1-18.1-22-1.3-3-2.3-6.2-2.9-9.4-1.4-6.6-1.4-13.5 0-20.2C2.3 33.5 4.9 27.4 8.5 22c5.5-8 13.1-14.3 22-18.1 3-1.3 6.2-2.3 9.4-2.9C46.5-.4 53.4-.4 60.1 1 66.5 2.3 72.6 4.9 78 8.5c8 5.4 14.3 13.1 18.1 22 1.3 3 2.3 6.2 2.9 9.4 1.4 6.6 1.4 13.5 0 20.2-1.3 6.4-3.9 12.5-7.5 17.9-5.4 8-13.1 14.3-22 18.1-3 1.3-6.2 2.3-9.4 2.9-3.3.7-6.7 1-10.1 1zm0-87.1c-2.5 0-5 .3-7.5.8-4.7 1-9.3 2.9-13.3 5.6-6 4-10.6 9.7-13.4 16.3-.9 2.2-1.7 4.6-2.2 7-1 4.9-1 10 0 15 1 4.7 2.9 9.3 5.6 13.3 4 6 9.7 10.6 16.3 13.4 2.2.9 4.6 1.7 7 2.2 4.9 1 10 1 15 0 4.7-1 9.3-2.9 13.3-5.6 6-4 10.6-9.7 13.4-16.3.9-2.2 1.7-4.6 2.2-7 1-4.9 1-10 0-15-1-4.7-2.9-9.3-5.6-13.3-4-6-9.7-10.6-16.3-13.4-2.2-.9-4.6-1.7-7-2.2-2.5-.5-5-.8-7.5-.8z" fill="#3663e0"/><path d="M49.9 92.8c-2.9 0-5.8-.3-8.6-.9-5.5-1.1-10.7-3.3-15.3-6.5-6.9-4.7-12.3-11.2-15.5-18.9-1.1-2.6-1.9-5.3-2.5-8.1a42.02 42.02 0 0 1 0-17.3c1.1-5.5 3.3-10.7 6.5-15.3 4.7-6.9 11.2-12.3 18.9-15.5 2.6-1.1 5.3-1.9 8.1-2.5a42.02 42.02 0 0 1 17.3 0c5.5 1.1 10.7 3.3 15.3 6.5C81 19 86.4 25.5 89.6 33.2c1.1 2.6 1.9 5.3 2.5 8.1a42.02 42.02 0 0 1 0 17.3c-1.1 5.5-3.3 10.7-6.5 15.3-4.7 6.9-11.2 12.3-18.9 15.5-2.6 1.1-5.3 1.9-8.1 2.5s-5.7.9-8.6.9h0zm0-80c-2.5 0-5 .3-7.5.8-4.7 1-9.3 2.9-13.3 5.6-6 4-10.6 9.7-13.4 16.3-.9 2.2-1.7 4.6-2.2 7-1 4.9-1 10 0 15 1 4.7 2.9 9.3 5.6 13.3 4 6 9.7 10.6 16.3 13.4 2.2.9 4.6 1.7 7 2.2 4.9 1 10 1 15 0 4.7-1 9.3-2.9 13.3-5.6 6-4 10.6-9.7 13.4-16.3.9-2.2 1.7-4.6 2.2-7 1-4.9 1-10 0-15-1-4.7-2.9-9.3-5.6-13.3-4-6-9.7-10.6-16.3-13.4-2.2-.9-4.6-1.7-7-2.2-2.5-.5-5-.8-7.5-.8h0z" fill="#2a4dad"/><path d="M74.9 39.1h0c-1.3-1.4-3.1-2.1-5-2.1H53.4v26.1h4.7v-9.6h11.8c1.9 0 3.7-.8 5-2.1h0c1.3-1.4 2.1-3.2 2.1-5v-2.3c0-1.9-.7-3.7-2.1-5zm-2.5 7.3a2.61 2.61 0 0 1-.7 1.7 2.61 2.61 0 0 1-1.7.7H58.2v-7.1H70a2.34 2.34 0 0 1 2.4 2.4v2.3zm-44.7 3.7c0 4.6 3.8 8.4 8.4 8.4h8.4v-5h-8.4v-4.7h13.1v14.4H36.1c-7.2 0-13.1-5.9-13.1-13.1S28.9 37 36.1 37h13.1v4.7H36.1c-4.6 0-8.4 3.8-8.4 8.4z" fill="#777"/></svg>