<svg xmlns="http://www.w3.org/2000/svg" viewBox="0 0 37.7 30" fill="#777" xmlns:v="https://vecta.io/nano"><path d="M12.9 20.6c-2.7 0-4.9 2.2-4.9 4.8v.8h2.7c0-.2-.1-.5-.1-.8 0-1.2 1-2.2 2.3-2.2s2.3 1 2.3 2.2 0 .5-.1.8h2.7v-.8c0-2.6-2.2-4.8-4.9-4.8zm19.7 1.7c-1-.2-2 .3-2.5 1.1-.1.6-.2 1.2-.4 1.8-.2.7.2 1.4.9 1.6h.4c.6 0 1.1-.4 1.3-.9.3-1.1.6-2.3.7-3.5h-.4zm-8.8-7.4c.7 0 1.3-.6 1.3-1.3s-.6-1.3-1.3-1.3-1.3.6-1.3 1.3.6 1.3 1.3 1.3zm13.7 4c0-.4-.6-.6-1-.5h0c-1.2.4-2.4.7-3.6.8-.4-4.9-2.8-9.6-6.4-12.7-3-2.5-6.6-3.6-10.2-3.1-4.1.6-6.9 3.5-6.9 7.1s1.7 5.2 4.1 6.3l2-2c-2-.4-3.5-2.2-3.5-4.3s1.5-4.1 4.7-4.5c3.6-.5 6.4 1.1 8.1 2.6 3 2.6 5.1 6.6 5.5 10.7-2-.2-3.9-.8-5.5-1.7-.3-.1-.6-.2-.9-.1-.7.1-1.1.8-1 1.5h0c.4 2.1.4 4.1 0 6.1 0 .4-.2.8-.3 1.2h2.7c0-.2.1-.4.2-.6.4-1.6.5-3.3.4-4.9 1.5.4 3.1.7 4.6.7 2.3 0 4.6-.5 6.7-1.4.4-.2.6-.6.4-1v-.2h-.1zM8 11.1c.2-.3.3-.7.3-1.1 0-.7-.2-1.3-.6-1.8-4.8 3-7.7 8.1-7.7 13.7s.2 2.9.6 4.3h2.7c-.5-1.4-.7-2.8-.7-4.3 0-4.3 2-8.2 5.4-10.7h0z"/></svg>