<?xml version="1.0" encoding="UTF-8"?><svg id="a" xmlns="http://www.w3.org/2000/svg" viewBox="0 0 213.9 300.3"><path d="M109.1.2h.5c11.4,0,22.6,1.9,33.6,6.3.1,0,.2.1.4.2,7.1,2.8,13.9,6.4,19.8,11.2.114.124.25.225.4.3.114.124.25.225.4.3.114.124.25.225.4.3,1.2,1,2.7,2.4,2.9,4.1.1,1,.7,1.5,1.4,2.2.1.2.3.4.4.6.4.5.7,1,1.1,1.6.7,1,1.4,2,2.1,3.1.133.256.301.492.5.7l2.1,3.2c.1.2.2.4.4.6,2.2,3.5,4.3,7.1,6.1,10.7.1.3.3.6.5.9,6.1,12,6.6,21.7,1.1,42.3h.4c3.1.3,5.9,1.2,8.2,3.3,0,0,.2.1.2.2,1.6,1.5,2.5,3.5,3,5.5,0,.1,0,.2.1.4,1.5,5.7,0,12.4-2.5,17.6,0,0,0,.2-.1.2-1.4,2.8-3,5.4-5.1,7.7-.124.114-.225.25-.3.4-1.1,1.2-2.2,2.3-3.5,3.3-.1.1-.2.2-.4.3-2.5,2-5.3,3.6-8.2,4.7-.2,0-.4.1-.5.2-2.2.8-4.4,1.4-6.7,1.7h-.7s-.2,0-.5.3c1,.9,2.1,1.7,3.1,2.5.1,0,.2.2.3.2,2,1.4,5,2.1,7.4,2.1h1.1c.9,0,1.5.2,2.2.9l.2.2.2.2c.3.4.3.9.3,1.4v.4c-.1,1.4-1.5,2.4-2.5,3.2-2.5,1.9-5.1,3.6-8,5,0,0-.2,0-.3.1-1.8.9-3.7,1.6-5.6,2.2-.1,0-.2,0-.4.1-1.4.5-2.7.8-4.2,1.1h-.4l-1.9.3c-.2,0-.5,0-.7.1h-.3c-.4,0-.7.1-1.1.5-.2.5-.3,1-.3,1.6v.4c0,.4-.1.7-.1,1.1s-.1.7-.1,1.1c0,.2,0,.5-.1.7,0,.6-.2,1.2-.4,1.9v.9c.2.2.4.4.7.6,0,0,.2.1.2.2.2.2.5.4.7.6.1,0,.2.2.4.3.2.2.5.3.7.5l1.2.9c.6.5,1.3,1,1.9,1.5,1,.7,1.9,1.5,2.9,2.2.1.1.2.2.4.3l5.1,4.2c.2.2.5.4.7.6l.2.2c.2.2.4.3.6.5l.3.3v.2s.1,0,.2.1c.3.1.5.3.7.5l.2.2.2.2.3.3.6.6.9.9.6.6.2.2c.5.5,1,1,1.5,1.6.2.3.5.6.8.9.7.7,1.3,1.5,1.9,2.4.2.2.4.5.6.7,7.2,9,12.8,21.3,13.2,39-.5,4.2-1.8,8.1-3.7,11.9,0,0,.2,0,.2.1,4,1.5,7.8,3.2,11.2,5.7.1,0,.2.1.3.2,6.3,4.5,10.9,10.7,12.3,18.4,1,7.1-1.2,14.2-5.4,19.9-.2.2-.4.5-.6.7,0,.1-.2.2-.3.4-1.6,2-3.4,3.9-5.3,5.5l-.2.2c-7.3,6.1-16.6,9.6-25.9,11.3-.2,0-.3,0-.5.1-2.7.5-5.4.8-8.2,1.1h-.5c-3.9.4-7.8.4-11.6.4h-.4c-4.5,0-7.9,0-10.2-.2h-1.2c-4.7-.4-9.4-.9-14-1.5h-.4c-1.6-.2-3.2-.5-4.8-.7h-.3c-7.7-1.3-13-2.3-15.9-3.2-1-.2-1.9,0-3,.2-.3,0-.6.1-1,.2-.2,0-.3,0-.5.1-11.2,2.5-22.8,4-34.2,4.6h-.4c-1,0-2,.1-3,.1h-.5c-3.1.1-6.2.1-9.4.1h-.4c-7.2,0-12.6-.2-16.1-.7h-.2c-3.8-.5-7.4-1.3-11.1-2.5h-.2c-2.5-.7-4.9-1.7-7.2-2.9-.3-.1-.6-.3-.9-.4-3.2-1.6-6.1-3.7-8.8-6.1-.3-.2-.6-.5-.9-.7-.7-.6-1.4-1.4-2.1-2.1-.2-.2-.4-.5-.6-.7-3.3-3.8-5.7-8.4-6.9-13.3v-.3c-.4-1.7-.5-3.4-.5-5.2v-1c0-1.9.2-3.8.7-5.7v-.3c0-.3.2-.6.2-.9v-.3c1.2-4,3.8-7.5,6.7-10.4l.3-.3.4-.4s.1-.2.2-.2c.786-.786,1.621-1.52,2.5-2.2.1-.1.3-.2.5-.4,1.3-1,2.6-1.8,4-2.6.2-.1.4-.2.6-.4,2.6-1.5,5.3-2.6,8.2-3.6,0-.1-.1-.3-.2-.5-4.5-9.6-4.1-19.4-1.1-29.4,0-.1,0-.2.1-.4.8-2.7,2-5.4,3.1-7.9.1-.3.3-.6.4-.9,1.6-3.5,3.6-6.8,5.8-9.8,0,0,.1-.2.2-.3.812-1.11,1.679-2.178,2.6-3.2.3-.4.6-.7.9-1.1.7-.9,1.5-1.7,2.3-2.6.2-.3.5-.5.7-.8.9-1,1.6-1.7,2.1-2.1l.9-.9c.5-.5.9-.9,1.4-1.3.3-.3.6-.6,1-.9.6-.6,1.3-1.1,2-1.7.4-.3.7-.6,1-.9.9-.7,1.7-1.4,2.6-2.1.2-.1.4-.3.6-.5s.4-.3.6-.5c.3-.2.6-.5.9-.7,1-.8,2.1-1.6,3.1-2.4,0,0,.2-.1.2-.2.1,0,.2-.1.3-.2.3-.2.5-.4.8-.6l.9-.6c.1,0,.2-.2.4-.2s.2-.1.3-.2c.4-.5.2-1.1,0-1.7v-.4c0-.4-.1-.7-.2-1.1-.2-1.1-.4-2.1-.4-3.2.022-.606-.153-1.203-.5-1.7-.4-.1-.7-.2-1-.2-.2,0-.3,0-.5-.1-.2,0-.4,0-.5-.1-.2,0-.4,0-.6-.1h-.3c-6.7-1.2-13.1-3.7-18.6-7.9,0,0-.2-.1-.3-.2-.3-.2-.6-.5-.9-.7l-.2-.2c-1.5-1.2-2.3-2.2-2.4-3.1,0-.8.2-1.5.7-2.1.8-.8,1.5-.8,2.5-.8,4.5-.1,7.8-1.7,11.2-4.6.2-.1.4-.3.7-.4,0,0,0-.2-.1-.2-.2,0-.5-.1-.8-.2-.2,0-.4,0-.5-.1h-.3c-1.9-.3-3.6-.7-5.4-1.4-.1,0-.2,0-.3-.1-3.4-1.2-6.5-3-9.4-5.2-.3-.2-.6-.5-.9-.7l-.9-.9-.4-.4c-.8-.8-1.5-1.5-2.2-2.4-.2-.2-.4-.5-.6-.7-4.6-5.4-7.6-13.6-7-20.7.4-3.9,1.4-7.6,4.5-10.2,1.7-1.3,3.7-2.1,5.7-2.6h2.2c1.1,0,2,.2,3.1.4v-.3c-.6-2.6-1.1-5.2-1.6-7.8,0-.2,0-.5-.1-.8-.4-2.4-.7-4.7-.9-7.1v-.4c-.3-2.7-.4-5.5-.4-8.3v-1.2c-.003-2.578.198-5.153.6-7.7v-.3c.4-2.6.9-5.5,2.1-7.9,0-.2,0-.5.1-.8.4-2.9,1.2-5.8,2.1-8.6v-.3c.8-2.6,1.7-5.2,3-7.6.1-.3.3-.6.4-.9,1.5-3,3.5-6,6.1-8.2.1,0,.2-.2.4-.3,8.4-7.3,20.1-11.8,44.2-17.3,1.7,0,3.2-.7,4.8-1.3,3.4-1.3,7.1-1.6,10.7-2h.6C106.2,0,107.1,0,108,0h.4l.7.2Z" style="fill:#010101;"/><path d="M28.1,240.8c.3.2.6.6.8.9.1.2.3.4.5.5.054.108.121.209.2.3,1.9,2.3,4.3,4.5,6.8,6,.1,0,.3.2.4.3v.2c.1,0,.2,0,.4.1.5.2.7.4,1.1.7.4.2.7.4,1,.5v.2h.3c.5.2,1,.5,1.5.8l1.2.6v.2h.2c.583.19,1.152.424,1.7.7l1.6.7c.3.1.6.3.9.5l1.6.6c.5.2,1,.4,1.5.5,0,0,.2,0,.2.1.4.1.8.3,1.2.5.5.2,1,.4,1.5.5h.3c.2,0,.4.1.6.2v.2c.4,0,.7,0,1,.1v.2l-4.6.7c-.3,0-.6,0-.9.1h-.5c-.4,0-.7.2-1.1.3-.2,0-.5,0-.7.1h-.4c-.3,0-.5,0-.8.1h-.8c-.1,0-.4.1-.7.3-.4.2-.5.2-.6.1-1.1.1-2,.5-2.9,1.1-.4.6-.5,1.1-.4,1.8v1h.2c.2.2.3.5.5.7.3.4.7.5,1.2.5,1,0,1.9-.1,2.9-.3.5-.1,1-.2,1.5-.1v-.2h.2l2.5-.4c.3,0,.6,0,.9-.1.5,0,.9-.1,1.4-.2h1.2c.2,0,.4,0,.5-.2h2.4c.3,0,.5,0,.8-.2.7-.2,1.4-.2,2.2-.3h.5c.5,0,1,0,1.5-.1h1c.9,0,1.8-.1,2.7-.2h.4l3.5-.1h1.3v-.2l6.4-.2h3.5c.9,0,1.4,0,2,.6.2,0,.3.2.5.2.15.025.29.095.4.2v.2h.2c.6.1,1.2.4,1.9.7,1.7.7,3.7,1.1,5.6,1.4.3,0,.5,0,.8.1,4.9.7,10.9.2,15-2.7.4-.3.6-.6,1-.9.3.1.6.3.9.5v.2s.2,0,.3.1c.4.1.6.3.9.6.9.6,1.8.9,2.8,1.3.1,0,.2,0,.3.1,1,.4,2.1.5,3.2.7h.5c1.1.2,2.3.2,3.4.2h.2c1.5,0,3.1-.1,4.6-.4h.3c1.1-.1,2.2-.4,3.2-.7.1,0,.3,0,.4-.1,1-.3,1.9-.6,2.8-1,.1,0,.2,0,.3-.1.2,0,.5-.2.7-.4,1.3-.9,2.4-.9,3.9-.8h4c1.2,0,2.4-.2,3.6-.4.3,0,.6,0,.9-.1.4,0,.8-.1,1.2-.2h.6c.3,0,.6,0,.9-.1h.3c.6,0,1.2-.2,1.8-.4.2,0,.5-.1.7-.1h1.4v-.2h.2c.4,0,.7-.1,1.1-.2h.4c.7-.1,1.4-.3,2-.5.5-.2,1-.2,1.6-.4.9-.1,1.6-.4,2.4-.7.9-.4,1.9-.6,2.8-.9.4-.1.8-.2,1.1-.4.5-.3,1.1-.4,1.7-.6.7-.2,1.3-.4,1.9-.8s1.4-.7,2.1-.7v-.2c.1,0,.2,0,.3-.1.1,0,.3,0,.4-.1.1,0,.3,0,.4-.1.5-.2.8-.4,1.2-.7.3-.2.7-.3,1-.5.9-.5,1.8-.9,2.7-1.5.1,0,.2-.1.3-.2,2.2-1.4,4.3-2.8,6.3-4.6,0,0,.2-.1.2-.2.2-.1.3-.3.5-.4.3-.3.6-.5,1-.6,0,0,0-.2.1-.2.2-.3.3-.4.7-.5,0-.2.2-.4.2-.5.1-.1.2-.3.4-.4,0,0,.1-.2.2-.2,0,0,.1-.2.2-.2.5-.5,1-1,1.4-1.6.4,0,.8.2,1.2.2v.2h.2c.7.1,1.4.3,2,.6.5.2,1,.4,1.6.5.4.1.7.3,1,.5s.6.3.9.5l.2.1c.9.5,1.7.9,2.6,1.3v.2c.1,0,.2,0,.4.1.5.2.7.4,1.1.7.1,0,.2.2.4.2.6.4,1.1.8,1.6,1.2.1,0,.2.2.4.3.6.5,1.1.9,1.6,1.4.3.4.7.7,1,1,.6.5,1,1,1.4,1.6.1.2.3.4.5.6.5.5.9,1.2,1.3,1.8,0,.1.1.2.2.4.2.4.3.7.4,1.1h.2c0,.2.1.3.2.5,0,.1,0,.2.1.3v.6h.2c0,.1,0,.2.1.3,0,.1.1.3.1.4s.1.3.1.4c0,.3.2.5.4.8,0,.3.1.6.2.9,0,.1,0,.3.1.5.2,1.3.2,2.6.2,3.9v.8c0,3.3-1.1,6.5-2.6,9.5,0,.2-.2.4-.2.5h-.2c0,.1,0,.2-.1.4-.2.5-.4.7-.6,1.1,0,.1-.2.2-.3.4-.1.1-.2.2-.3.4s-.3.4-.4.6c0,0-.1.2-.2.2-.199.208-.367.444-.5.7-.3.4-.6.7-1,1.1-.1.2-.3.3-.4.5l-1.5,1.5h-.2s0,.1-.1.2c-.2.3-.3.5-.6.7,0,0-.2.1-.2.2-.1,0-.2.1-.3.2-.1,0-.2.1-.3.2-.7.5-1.4,1.1-2.1,1.6-.1.1-.3.2-.5.3-2,1.4-3.2,2-3.6,2v.2c-.5.2-1,.4-1.6.5v.2c-.6.3-1.2.6-2,.6,0,.1,0,.2-.1.4-.2,0-.5.2-.8.2-.6.2-1.2.4-1.9.7-.2,0-.4.1-.6.1v.2c-1,.3-1.8.6-2.2.7l-.9.3c-.5.2-.9.3-1.4.4-.4.1-.7.2-1.1.3-.8.2-1.5.4-2.3.5-.6.1-1.1.2-1.6.4-1.2.3-2.4.5-3.6.5v.2c-1.5.2-3.1.4-4.6.5h-1.1c-1.4.1-2.8.1-4.2.1v.2h-10.9c-2,0-3.9,0-5.8-.1v-.2h-1.3c-.6,0-1.1,0-1.7-.1-.6,0-1.3-.1-2-.1-2.208-.101-4.41-.301-6.6-.6v-.2h-.2c-.9,0-1.8,0-2.7-.2h-.4c-.4,0-.7-.1-1-.1v-.2h-.5c-.7,0-1.5-.1-2.2-.2h-.4c-.3,0-.7-.1-1-.1v-.2h-.3c-1.1,0-2.1-.2-3.1-.4h-.4c-.8-.1-1.5-.2-2.3-.5,0,0,0-.2-.1-.2.4,0,.8,0,1.2-.1v-.2c.3,0,.6-.2.9-.2h.2c.5-.1.9-.2,1.4-.2v-.2h.2c.4-.1.8-.2,1.2-.4.1,0,.2,0,.4-.1.8-.2,1.5-.5,2.3-.8.5-.2.9-.3,1.4-.5h.3c.7-.2,1.4-.4,2.1-.5v-.2c.1,0,.3,0,.5-.1.2,0,.4-.1.6-.2h.3c.539-.184,1.073-.384,1.6-.6h.4v-.2c.2,0,.5-.2.7-.2.1,0,.3-.1.4-.1.3,0,.5-.1.8-.1v-.2c.3,0,.6-.2.8-.2.1,0,.3-.1.5-.1.3,0,.5-.1.6-.1v-.2s.1,0,.2-.1c.6-.3,1-.5,1.4-1.1.2-.8.3-1.8,0-2.6-.4-.6-.9-1-1.6-1.2-.9,0-1.7,0-2.6.2v.2c-.1,0-.2,0-.4.1l-2.4.9c-.6.3-1.3.5-2,.8-.1,0-.2,0-.3.1-.2.1-.5.2-.8.3-.1,0-.3.1-.5.2-.2,0-.3.1-.5.2-.1,0-.3.1-.5.2-.3,0-.6.1-.9.1v.2c-.3,0-.6.2-1,.2h-.3c-.4.1-.7.2-1.1.2v.2c-.2,0-.5.1-.7.2-.1,0-.2,0-.4.1-.4,0-.7.1-1,0v.2h-.2c-.4.1-.7.2-1.1.3-.1,0-.2,0-.4.1l-2.1.6c-.3.1-.6.1-.9,0v.2h-.3l-1.2.3c-.1,0-.3,0-.4.1-.6.1-1.1.3-1.7.5-.4.2-.7.2-1.1.3-.4,0-.7.1-1,.2-.337.086-.671.186-1,.3h-.8c-1.1.2-2.1.5-3.2.8-.5.1-.9.1-1.3.1v.2c-1.2.3-2.4.5-3.7.7-.6.1-1.2.2-1.8.4-.7.2-1.4.3-2.1.4l-3.6.6h-.4c-.3,0-.6.1-.9.2-1.6.3-3.3.5-5,.7-.4,0-.9.1-1.3.1-.3,0-.5,0-.8.1h-.7c-.2,0-.4,0-.5.2-.2,0-.5,0-.7.1h-1l-2.8.3-2.9.3h-.5c-.5,0-1.1.1-1.6.1h-.3l-7.2.5h-3.3c-2.8.1-5.7.1-8.6.1h-.3c-3,0-6,0-9-.1h-.5c-2.3,0-4.6-.3-6.9-.5v-.2h-.4c-1.9,0-3.2-.3-3.6-.6-.2,0-.5,0-.7-.1h-1.2c-.4,0-.7-.1-1-.2v-.2h-.3c-.7-.1-1.5-.2-2.2-.5v-.2h-.4c-1-.1-1.9-.5-2.8-.9-.4-.2-.9-.4-1.3-.5v-.2h-.3c-.4,0-.8-.2-1.2-.4v-.2c-.2,0-.3-.1-.5-.1-.6-.2-1.2-.5-1.8-.9-.3-.1-.6-.3-.9-.4v-.2c-.1,0-.2,0-.3-.1-.5-.2-.9-.4-1.4-.7,0,0-.2,0-.2-.1-.2-.1-.4-.2-.6-.4v-.2s-.2,0-.3-.1c-1.1-.5-2-1.4-2.8-2.1l-.2-.2c-.4-.4-.8-.7-1.2-1.2l-.2-.2c-1-.9-1.8-1.9-2.6-3l-.2-.2-.2-.2c-.2-.2-.4-.4-.5-.6-.3-.4-.4-.7-.6-1.1h-.2l-2-3.9c0-.1-.1-.2-.2-.4-.7-1.7-1.1-3.5-1.4-5.3v-.4c-.2-1.7,0-3.4.1-5.1v-.4c0-.7.2-1.1.4-1.4.1-.4.2-.7.3-1l.4-1.4h.2v-.3c0-.1,0-.2.1-.4,0-.1,0-.2.1-.4.1-.4.2-.5.5-.7,0-.2.2-.4.3-.6.1-.4.3-.6.5-.7.1-.2.2-.5.4-.7.2-.4.4-.6.7-.9.124-.114.225-.25.3-.4.2-.2.4-.5.6-.7.1-.2.3-.4.5-.6.4-.5.8-.8,1.2-1.2.3-.3.6-.6,1-.9,1.2-1.1,2.6-2.1,4-3,.2-.1.4-.3.7-.4,1.4-.9,2.8-1.7,4.3-2.3.4-.1.8-.4,1.2-.5,1-.5,2-.8,3-1.1.2,0,.5-.1.7-.2.4-.1.7-.2,1.1-.1l.2-.2.2-.9Z" style="fill:#7dd856;"/><path d="M100.9,52.4c.1,0,.3,0,.4.1l1,.3v.2h.4c.7.1,1.5.3,2.2.5v.2h.5c.5,0,.9.2,1.4.4.6.2,1.2.4,1.8.5.5.1.9.3,1.4.5l2,.6c.5.1.9.3,1.4.5.2,0,.5.1.8.2.1,0,.2,0,.4.1h.3v.2h.4c.7.1,1.3.3,2,.5v.2h.2c.9.1,1.7.4,2.5.7.4.1.7.2,1,.4,0,0,.2,0,.2.1.7.3,1.5.5,2.3.7.2,0,.5.2.7.4.5.1.9.2,1.4.4.3,0,.5.2.7.4.3.1.6.2,1,.4.1,0,.2,0,.3.1l2.2.7c.4.1.7.3,1,.5.2,0,.4.1.6.2.5.1.9.3,1.3.6.2.1.5.2.7.3.15.025.29.095.4.2.3.1.6.2.9.4.8.3,1.6.6,2.3,1s1.4.7,2.2,1c1,.4,2,.9,3,1.4.2.1.5.3.8.4l3,1.6c1,.6,1.3.7,2,1v.2c.1,0,.2,0,.4.1.6.2.9.4,1.4.8.2.2.5.4.8.5l2.4,1.7c.3.2.6.5.9.7l3.1,2.8.6.6c.6.5,1.2,1.1,1.7,1.8l1.7,2c.5.6.8,1,.8,1.3h.2c.7.7,1.2,1.5,1.8,2.4.1.1.2.3.3.5,1.3,1.7,1.9,2.8,1.9,3.1.1,0,.2,0,.4.1,0,.1.2.3.3.5,0,.1.1.2.1.3s.1.2.1.3.1.2.2.3c.3.5.4.8.4,1h.2c0,.2.2.3.2.5,0,.1.1.2.1.3,0,.2.1.3.1.5h.2c0,.2.2.3.2.5,0,.1.1.2.1.3,0,.2.1.3.1.5h.2c0,.2.2.4.2.6,0,.1.1.2.1.3,0,.2.1.4.1.5h.2c0,.2.2.4.2.6,0,.1.1.2.1.3,0,.2.1.4.1.5h.2c.9,1.6,1.4,2.7,1.2,4.6v.7c0,1.1-.2,1.9-.3,2.4h-.2v.4c0,1.4-.3,2.7-.6,4.1h-.2v.4c0,.6-.1,1.1-.3,1.6,0,.2-.1.4-.2.6,0,.1,0,.2-.1.3-.2.6-.3,1.2-.5,1.8-.1.4-.2.8-.4,1.2-.2.5-.3,1-.5,1.4,0,.1,0,.2-.1.3-.2.6-.4,1.1-.5,1.7l-.7,1.9-.9,2.2c-.1.4-.3.8-.5,1.2-.025.15-.095.29-.2.4l-.6,1.4c-.4.7-.7,1.4-1,2.2-.2.5-.4.9-.7,1.4,0,.1,0,.2-.1.4h-.2v.2s0,.2-.1.3c0,.1,0,.2-.1.3,0,.2-.1.4-.2.5-.4,0-.6-.2-.9-.5l-.2-.2s-.2-.1-.2-.2c0,0-.2-.1-.2-.2-.1-.1-.3-.3-.5-.4-.3-.3-.6-.5-1-.8-.1-.1-.2-.3-.3-.4-.2-.1-.4-.2-.6-.4-.208-.199-.444-.367-.7-.5-.1-.1-.2-.2-.4-.3s-.2-.2-.4-.3l-2.9-2.3c-.208-.199-.444-.367-.7-.5l-.2-.2c-.2-.2-.4-.3-.6-.5-.208-.199-.444-.367-.7-.5-.1,0-.2-.1-.3-.2v-.2c-.1,0-.2,0-.3-.1-.4-.1-.7-.3-1-.5-.1,0-.2-.1-.3-.2,0,0-.2-.1-.2-.2v-.2s-.2,0-.2-.1l-1.1-.6c-.4-.2-.8-.5-1.2-.7-.1,0-.3-.2-.4-.2-.2-.1-.5-.3-.7-.4-.1,0-.3-.2-.4-.4-.2-.1-.5-.2-.8-.4l-2-.9v-.2h-.2c-.5-.1-1-.3-1.5-.6-.4-.2-.9-.4-1.4-.6-.2,0-.4-.2-.7-.3-.5-.2-1.1-.4-1.7-.5-.3,0-.6-.2-1-.3-.6-.2-1.3-.3-2-.4-.3,0-.6-.1-.8-.2-1-.3-2.1-.3-3.1-.3h-2.7c-1.8,0-3.6.1-5.3.4l-3,.5v.2c-.1,0-.3,0-.4.1-.9.2-1.9.5-2.7.9-.2,0-.4.1-.6.1v.2c-.4.1-.8.2-1.1.4-.1,0-.2,0-.3.1-.1,0-.2,0-.3.1-.1,0-.2,0-.3.1h-.6v.2c-.1,0-.2,0-.4.1-.8.3-1.5.5-2.3,1-1.7.9-3.8,1.1-5.7.5,0,0-.2,0-.3-.1-.1,0-.2,0-.3-.1-.2-.1-.5-.2-.8-.3-.1,0-.2,0-.3-.1l-1.4-.6-1.6-.7s-.2,0-.2-.1c0,0-.2,0-.2-.1-.2-.1-.5-.2-.8-.3,0,0-.2,0-.2-.1-.2-.1-.5-.2-.7-.3-.5-.2-.9-.3-1.4-.4v-.2h-.2c-.4,0-.7-.1-1.1-.2-.1,0-.3,0-.5-.1-.1,0-.3,0-.5-.1-.1,0-.3,0-.5-.1-.3,0-.5-.1-.7-.2-.3-.1-.6-.2-1-.2h-1.2c-.3,0-.5-.1-.8-.1s-.6-.1-.9-.1c-2.6-.4-5.4-.2-8.1,0v.2l-3.7.4v.2h-.2l-1.1.3c-.1,0-.2,0-.4.1l-2.1.7c-.3.1-.7.2-1,.2v.2c-.1,0-.2,0-.4.1l-2,.9c-.2.1-.4.2-.6.2v.2c-.1,0-.2.1-.4.2-.5.2-1,.5-1.4.7l-.2.1c-1.1.6-2.1,1.4-3.2,2.1-.1,0-.2.2-.4.2l-2.8,2c-.3.2-.5.4-.8.6-.5.3-.9.7-1.3,1-.2.2-.5.4-.7.6l-3,2.5c-.4.4-.9.7-1.3,1.1-.6.5-1.1,1-1.6,1.5-.2.1-.4.2-.6.2l-1.5-3-.6-1.2c-.2-.5-.5-1-.7-1.5-.1-.3-.2-.6-.4-.9l-.9-2c-.2-.4-.4-.9-.5-1.3-.3-.7-.5-1.4-.7-2.1-.1-.4-.2-.7-.4-1.1,0-.3-.1-.6-.1-1h-.2l-.3-1v-.3c-.1-.5-.3-1-.4-1.4l-.3-1.1c-.2-.5-.3-1.1-.4-1.6,0-.2-.1-.4-.2-.5-.2-.4-.2-.8-.4-1.2,0-.2,0-.3-.1-.5,0-.5-.1-.9,0-1.4h-.2c-.3-1-.4-2-.4-3h-.2c-.4-2.5-.6-5.1-.8-7.6v-.2l-.1-2.9v-.5c0-.5.1-.8.5-1.2,0,0,.2-.1.2-.2.4-.4.9-.7,1.3-1.1l1.8-1.6c.4-.3.7-.6,1-.9l2.1-1.7c.2-.2.5-.4.7-.6l1.7-1.4c.4-.3.7-.5,1-.8l3.4-2.7c.4-.3.8-.6,1.2-1,.7-.5,1.2-.9,1.5-1.2,0,0,.2-.1.2-.2l1.1-.8c.2-.2.5-.4.8-.6l2.8-2,1.8-1.3,3.5-2.6c.5-.3.9-.6,1.4-1l2.6-1.8,2.6-1.8,1.7-1.2s.2-.1.2-.2c.4-.2.8-.5,1.2-.8l1.4-.9c.6-.4,1-.6,1.2-.6v-.2c.4-.2.7-.4,1-.6.2-.1.5-.3.7-.4.1,0,.2-.1.4-.2.1,0,.2-.2.4-.2,0,0,.1-.1.2-.1l2.6-1.7c.7-.5,1.5-1,2.2-1.4l2.7-1.8,1.4-.9s.1-.1.2-.1l1.4-.8c.2-.1.5-.3.8-.5l2-1.2.2-.1c1.5-.8,2.5-.7,4.1-.2h.1l-.3-.3Z" style="fill:#f1a571;"/><path d="M109,5.4h5.1l3.3.1v.2h.3c1.2,0,2.5.1,3.7.2h.6l2.5.3v.2h.4c1.1,0,2,.2,3.1.5.6.1,1.2.3,1.7.4l2.7.7,1.2.3c.5.1,1,.3,1.5.5.6.2,1.1.4,1.7.5v.2h.4c1.1.2,2.2.5,3.2,1,.2,0,.4.1.5.2l1.4.6,1.9.9c.3.1.5.2.8.4.2,0,.4.2.6.2l4.5,2.2c.3.1.5.3.8.4l2.8,1.5v.2c.1,0,.2,0,.4.1.3.1.6.2,1,.4v.2c.1,0,.2,0,.4.1.5.2.7.4,1.1.7.1,0,.2.1.4.2.5.3,1,.7,1.4,1,.2.1.4.2.5.4l.2.2c.2.1.4.3.6.4v.2h-.3c-.6.1-1.3.3-1.9.5s-1.1.4-1.7.5h-.3c-.4.1-.8.2-1.2.2v.2c-.2,0-.4,0-.6.1h-1.3v.2h-.2l-3.4,1c-.5.2-1,.3-1.5.4-.3,0-.5.2-.7.3-.5.2-.9.3-1.4.4h-.3c-.2,0-.4,0-.6.1v.2c-.2,0-.5.1-.7.2-.1,0-.3,0-.4.1-.4.1-.8.2-1.2.2v.2c-.1,0-.2,0-.4.1-1,.2-2,.6-3,1-.2,0-.4.1-.6.2l-2.2.9c-.5.2-1,.4-1.6.5h-.3c-.2,0-.5.1-.7.2v.2c-.2,0-.5.1-.7.2-.1,0-.2,0-.4.1h-.7v.2c-.3,0-.5.2-.8.2s-.3.1-.5.1c-.3,0-.5.1-.8.1v.2c-.1,0-.3,0-.4.1-.2,0-.4.1-.5.2h-.2l-1.4.6c-.2,0-.4.1-.7.2-.1,0-.2,0-.3.1h-.7v.2c-.1,0-.2,0-.4.1-.9.3-1.8.7-2.7,1.1-.2,0-.5.1-.7.1v.2c-.2,0-.3.1-.5.2-.1,0-.2,0-.3.1h-.6v.2c-.1,0-.3.1-.4.1-.9.3-1.7.6-2.6,1.1-.7.4-1.5.7-2.4.8v.2s-.2,0-.2.1l-2,.9c-.3.1-.6.3-.9.4l-2,.9c-.1,0-.2.1-.4.2l-2.6,1.3c-.9.4-.7.4-1.1.5-.2,0-.4.2-.5.2,0,0-.2,0-.2.1-.2.1-.5.2-.7.4-.2.1-.4.2-.6.2v.2c-.1,0-.3.1-.5.2l-2.4,1.2c-.8.5-1.4.7-1.6.7v.2c-.8.4-1.5.9-2.3,1.2l-.4.2c-.8.4-1.2.6-1.4.6,0,.1,0,.2-.1.4-.2.1-.5.2-.7.4-.7.4-1.5.7-2.2,1.2-.455.23-.89.498-1.3.8,0,0-.2.1-.3.2s-.4.2-.9.4v.2c-.1,0-.3.2-.5.3l-2,1.2c-.1,0-.2.1-.3.2l-2.4,1.6c-.41.302-.845.57-1.3.8-.4.2-.7.5-1.1.7-.4.3-.9.6-1.4.9l-4.1,2.7c-.5.4-1,.7-1.6,1.1l-1.9,1.3c-.4.3-.8.5-1.2.8l-3.5,2.5-2.8,2-2.5,1.8c-.2.1-.3.2-.5.4,0,0-.2.1-.2.2l-1.7,1.2-2.9,2.2c-.1,0-.2.1-.3.2l-.2.2c-.1,0-.3.1-.5.1v.2c-.2.1-.4.3-.6.5-.8.5-1.5,1.1-2.3,1.7-.3.2-.5.4-.8.6l-3.1,2.5-1.2.9-1.3,1c-.1,0-.2.1-.3.2l-2.3,1.9c-.3.2-.6.5-.8.7l-2,1.7-.2.2-1.5,1.3c-.1,0-.3.1-.5.1-.3-1.2-.5-2.4-.7-3.7l-.4-2.2c-.2-.9-.2-1.7-.3-2.6h-.2l-.4-3.2v-1.1c0-.5-.1-1.1-.2-1.6-.7-5.3-.9-11.1,0-16.5h.2v-.4c0-1.4.3-2.8.6-4.2h.2v-.9c0-.2,0-.4.2-.7h.2c0-.2,0-.3.1-.5.6-2.8,2.7-5.2,4.6-7.3.2-.2.4-.5.6-.7.1-.2.3-.3.4-.5l.3-.3c.7-.8,1.5-1.6,2.3-2.4l.3-.3c.5-.5,1.1-1,1.6-1.5l.6-.6c.1-.1.2-.2.4-.3s.2-.2.4-.4.4-.2.6-.2v-.2c.2-.2.4-.4.6-.5.114-.124.25-.225.4-.3l.2-.2c.4-.3.7-.6,1.1-.9,1.2-1,2.4-2,3.6-2.9.5-.4,1-.7,1.4-1.1.6-.5,1.1-.9,1.7-1.3s1.1-.8,1.7-1.2c.9-.7,1.9-1.3,2.8-2,.4-.2.7-.5,1.1-.7,1.3-.9,2.6-1.7,3.9-2.6l.9-.6s.2-.1.2-.2c.1-.1.3-.2.5-.3.5-.3.9-.5,1.4-.6v-.2l.9-.6c.2-.1.4-.2.5-.3,0,0,.2,0,.3-.1.455-.23.89-.498,1.3-.8.2,0,.4-.2.6-.3.3-.1.5-.3.7-.5.2-.1.5-.2.7-.4.3-.2.6-.4,1-.6.9-.6,1.9-1.1,2.9-1.7,0,0,.1,0,.2-.1,1.4-.8,2.5-1.3,3.3-1.6l.2-.2c.3-.3.7-.5,1.1-.7,0,0,.1,0,.2-.1.4-.2.9-.4,1.4-.5v-.2s.2,0,.3-.1c.8-.3,1.6-.7,2.4-1.1.7-.4,1.5-.7,2.3-1,.1,0,.3-.1.5-.2.4-.2.8-.3,1.2-.5.7-.2,1.4-.5,2-.8.5-.2,1-.4,1.5-.5h.3c.5-.1.9-.2,1.4-.2v-.2c1.1-.2,2.1-.4,3.2-.5h.5c.8-.1,1.6-.1,2.5-.1v-.2c1.2-.1,2.4-.1,3.6-.1l.4.5-.7,2.2Z" style="fill:#c8e164;"/><path d="M113.4,182v.2h.3c1,0,2,.2,3,.5v.2h.5c.6,0,1.2.2,1.9.5v.2h.4c.7,0,1.3.4,1.9.6v.2h.3c.5.1.9.3,1.3.5v.2h.3c.4.1.8.3,1.2.5v.2c.2,0,.4,0,.6.1,0,.1,0,.2.1.4.2.1.5.2.8.2l1.2.6v.2c.3.1.6.3.9.4,0,0,.1.2.2.2.2.3.4.4.7.5l.5.5c.2.1.4.3.5.5l1.2,1.1.3.3c.2.2.4.4.6.7l.6.6c.3.3.4.4.4.8,0,0,.2,0,.2.1.2,0,.3.3.5.5.2.5.5.7.9,1,.3.2.5.5.6.9v.4h.4c.025.15.095.29.2.4.1.4.3.6.6.9.3.5.4.9.4,1.2h.2c.4.7.6,1.3.6,1.7h.2c0,.2.1.3.2.5,0,0,0,.2.1.3v.6h.2l.3.9s0,.2.1.2c.1.4.2.7.2,1.2h.2l.3,1.4c0,.1,0,.2.1.4v.4c.1.1.2.2.2.4v.8h.2c0,.4.1.7.2,1.1v.3c.1.6.1,1.2.1,1.8h.2c.1,1,.1,2,.1,3.1v4.2l-.1,2.6h-.2v.3c0,1.2-.2,2.4-.5,3.6h-.2v.4c-.1.7-.3,1.5-.5,2.2h-.2v.3c-.1.6-.3,1.2-.5,1.8h-.2v.3c0,.1,0,.2-.1.4,0,.1,0,.2-.1.4,0,.2-.1.4-.2.6h-.2v.3c0,.1,0,.2-.1.4,0,.1,0,.2-.1.4-.1.4-.2.5-.5.7-.1.2-.2.5-.3.7-.2.5-.4.7-.6.8l-.2.4c-.1.3-.3.4-.5.5-.1.2-.2.4-.4.6,0,.1-.1.2-.2.3,0,0,0,.2-.1.2h-.2s0,.1-.1.2c-.2.4-.5.7-.8,1.1l-.2.2c-.4.4-.7.9-1.2,1.2,0,.1-.1.2-.2.3l-.2.2h-.5v-.2c-2.8,0-5.6.1-8.4.5h-1.1v.2c-.3,0-.6.1-.9.2-.2,0-.3,0-.5.1h-1v.2c-.3,0-.6.2-.9.2-.2,0-.3.1-.5.1-.3,0-.6.1-.8.1v.2c-.2,0-.5.2-.8.2-.1,0-.3.1-.4.1-.2,0-.5.1-.6.1v.2c-.2,0-.4.2-.6.2-.1,0-.2.1-.4.1s-.4.1-.6.1v.2c-.2,0-.4.2-.6.2-.1,0-.2.1-.3.1-.2,0-.4.1-.5.1v.2c-.1,0-.3.2-.5.3-.1,0-.2.1-.3.2s-.2.1-.3.2c-.7.5-1.4.9-2,1.5-.1.1-.3.2-.6.2,0,0,0,.1-.1.2-.2.3-.4.6-.6.8s-.4.5-.6.8c-.4,0-.6,0-.7-.2,0,0-.1-.2-.2-.2-.4-.4-.7-.9-1.1-1.2l-.3-.3c-.2-.2-.4-.3-.6-.4,0,0-.1-.2-.2-.2-.2-.3-.4-.4-.7-.5v-.2c-.4-.2-.7-.4-1.1-.5-.6-.3-1.2-.6-1.7-1l-1.1-.6v-.2h-.2c-.4,0-.6-.2-.9-.3-.849-.377-1.717-.71-2.6-1v-.2h-.4c-.9-.1-1.8-.4-2.7-.6l-1.7-.3h-.4l-2.6-.2v-.2h-3.8v.2c-1.1.2-1.9.2-2.4-.1-.3-.3-.5-.6-.8-.9-.1,0-.2-.2-.4-.2,0-.1,0-.2-.1-.3-.2-.4-.3-.4-.7-.6,0-.2,0-.4-.1-.5-.2-.1-.3-.2-.5-.2v-.2h-.2v-.8h-.5c-.2-.4-.2-.5-.2-.9-.1,0-.2,0-.4-.1v-.2h-.2c0-.3,0-.6-.1-.9h-.2c0-.2,0-.4-.1-.6h-.2v-.2h-.4c-.1-.4-.2-.7-.4-1.1,0,0,0-.2-.1-.3-.2-.5-.3-1-.4-1.5h-.2c0-.2,0-.5-.1-.8h-.2c0-.3-.2-.5-.2-.8,0-.1,0-.3-.1-.5,0-.3-.1-.5-.1-.8h-.2c0-.3-.2-.6-.2-.9v-.2c-.1-.5-.2-1-.2-1.5h-.2c0-.4-.1-.7-.2-1v-.3c0-.4-.1-.7-.2-1v-.5c-.2-1.6-.2-3.2-.2-4.8v-1.4c0-2.5.2-4.9.7-7.4h.2v-.2c0-.8.2-1.6.5-2.4h.2v-.4c0-.6.3-1.2.5-1.9h.2v-.8c0-.2.1-.4.2-.5h.2v-.3c.1-.6.4-1.2.6-1.8h.4v-.4c0-.3.1-.5.2-.7h.4c0-.2,0-.5.1-.8h.2v-.5h.2v-.4h.4v-.5c.1,0,.2,0,.4-.1,0-.1,0-.2.1-.4h.2c0-.2,0-.5.1-.8h.5v-.5c.2-.2.4-.4.6-.5,0-.1,0-.2.1-.4.1-.1.3-.2.5-.4.6-.5,1.2-1.1,1.8-1.7l.3-.3.3-.3.3-.3c.1-.1.3-.3.4-.5.2-.1.4-.2.6-.4.1,0,.2-.2.3-.2.3-.2.7-.5,1-.6.2-.1.4-.3.6-.5.189-.182.438-.288.7-.3,0-.1,0-.2.1-.4.2-.1.4-.2.6-.4.6-.4,1.2-.7,1.9-1.1.3-.2.6-.2,1-.3v-.2c.1,0,.2-.1.4-.1s.3-.1.5-.2c0,0,.2,0,.2-.1l1.4-.6,1.4-.5.8-.3c.5-.2,1-.2,1.6-.3v-.2l1.6-.3c.1,0,.3,0,.4-.1.8-.1,1.5-.3,2.3-.2v-.2c3.8-.5,7.7-.4,11.5.1v.2h.1Z" style="fill:#e74d8e;"/><path d="M153.4,168.4l1.4.9c.1,0,.2.1.4.2,0,0,.2.1.2.2v.2s.1,0,.2.1c.3.1.5.3.7.5,0,0,.2.1.2.2,0,0,.2.1.2.2.2.1.4.2.5.4,0,0,.2.1.2.2.2.1.4.3.6.4v.2c.1,0,.2,0,.3.1.4.2.7.4,1.1.7l1.2.9c.3.2.6.5.9.7.2.2.4.4.6.5.114.124.25.225.4.3l.2.2,1.4,1.1c.1,0,.2.1.3.2.879.68,1.714,1.414,2.5,2.2l1.8,1.6c.4.3.7.6,1.1,1l.5.5.2.2.5.5,1.2,1.3c.2.2.4.5.6.7l2.1,2.4.9,1.1,1.9,2.5c0,.1.1.2.2.3.4.5.6,1,.8,1.6.1,0,.2,0,.4.1.3.5.4.8.4,1h.2l.3.6c0,.1.1.2.2.4s0,.3.1.6h.2c.3.4.4.6.4,1.2h.2s0,.1.1.2c.2.4.4.7.5,1.1,0,.1.1.2.2.4.226.553.494,1.087.8,1.6l.5,1.1c.2.5.4,1,.7,1.5.3.7.6,1.3.8,2v.3c.1.4.2.7.2,1.1h.2v.2c0,.1,0,.2.1.3,0,.1,0,.2.1.3l.3,1c.2.6.4,1.2.5,1.9,0,.2.1.5.2.7v.3l.3,1.1c.3,1.1.5,2.2.4,3.3h.2c.5,5.5.4,9.1-.2,10.8-.1.4-.2.9-.3,1.3,0,.2-.1.5-.1.7v.3c0,.2-.1.4-.2.7h-.2v.3c-.2,1.1-.5,2.1-1.1,3,0,.2-.1.4-.1.5h-.2v.3c-.1.5-.3.8-.5,1.2s-.5.9-.7,1.3h-.2c0,.1,0,.2-.1.3-.2.5-.4.9-.9,1.3-.3.3-.6.6-.9,1-1.4,1.6-2.9,3.2-4.6,4.5-.1.1-.3.2-.4.3-.9.7-1.9,1.4-2.8,2-.1,0-.2.1-.4.2-1.2.8-2.4,1.5-3.7,2.2,0,0-.2,0-.2.1-.4.2-.6.3-1,.3v.2h-.2c-.6.2-1.3.5-1.9.8s-1.3.6-1.9.9c-.1,0-.3.1-.5.2l-1.2.3v.2c-.2,0-.4.1-.6.2-.1,0-.2,0-.4.1h-.7v.2h-.2c-.4.1-.7.2-1.1.3-.1,0-.2,0-.4.1-.6.2-1.1.3-1.7.5l-1.4.3h-.7v.2c-2,.5-4,1-6,1.2-.3,0-.6.1-.8.3-.2,0-.4,0-.6.1h-1.2c-.8.1-1.6.1-2.4.1v.2c-.5,0-1.1.1-1.6.2h-.5c-1.1.1-2.2.2-3.3.2l.3-.6c.1-.2.2-.3.3-.5.2-.4.5-.8.7-1.2.5-.8.8-1.5,1.1-2.4,0-.2.2-.5.3-.8s.2-.6.2-.9c.2-1.1.5-1.6,1.4-2.4,1.1-1,2-2.4,2.7-3.6,0-.1.1-.2.2-.3,1.2-1.9,1.8-3.8,1.8-6v-.4c.025-.669-.149-1.33-.5-1.9,0-.2-.1-.5-.2-.8,0-.1,0-.2-.1-.4v-.3h-.2c0-.1-.1-.2-.2-.4-.4-.8-1.2-1.3-1.9-1.8,0-.4.1-.5.4-.8.1-.1.2-.2.4-.3s.2-.2.4-.3.5-.2.7-.3h.2c0-.1,0-.2.1-.4.2-.1.4-.2.7-.4.1,0,.2-.1.4-.2.1,0,.2-.1.4-.2l.2-.1c.3-.2.6-.2.8-.2v-.2s.1,0,.2-.1c.4-.2.7-.4,1.1-.5.1,0,.2-.1.4-.2.553-.226,1.087-.494,1.6-.8.5-.2,1-.4,1.5-.5v-.2c.1,0,.2,0,.3-.1.6-.2,1.2-.4,1.8-.7.5-.2.9-.3,1.5-.4v-.2c.1,0,.3-.1.5-.1s.4-.1.6-.2c0,0,.2,0,.3-.1.6-.2,1.2-.4,1.8-.7.5-.2.9-.2,1.4-.2v-.2c.3,0,.6-.2.9-.2.2,0,.3-.1.5-.1.3,0,.6-.1,1-.1v-.2c.3,0,.6-.2,1-.2h.3c.4-.1.8-.2,1.2-.2v-.2c.1,0,.3,0,.4-.1.2,0,.4,0,.6-.1h.3c.7-.2,1.2-.4,1.6-1,.5-.9.5-1.7.2-2.7-.3-.7-.9-1.1-1.6-1.4h-1.8v.2c-.2,0-.5.1-.7.2-.1,0-.3,0-.4.1h-.9v.2c-.3,0-.6.2-1,.2h-.3c-.4.1-.8.2-1.2.2v.2c-.3,0-.6.2-1,.2h-.3c-.4.1-.7.2-1.1.2v.2c-.3,0-.6.2-.9.2-.2,0-.3.1-.5.1-.3,0-.6.1-.8.1v.2c-.337.086-.671.186-1,.3,0,0-.2,0-.3.1-.4.1-.7.2-1.2.2v.2c-.2,0-.5.2-.8.2-.1,0-.3.1-.4.1-.2,0-.5.1-.6.1v.2c-.3.1-.6.2-1,.3-.1,0-.2,0-.3.1-.5.2-.8.2-1,.2v.2c-.5.1-1,.2-1.4.4v.2c-.2,0-.4.2-.6.2-.1,0-.2.1-.4.1s-.4.1-.6.1v.2c-.2,0-.4.2-.6.2-.1,0-.2.1-.4.1s-.4.1-.6.1v.2c-.2,0-.3.2-.5.2-.1,0-.2.1-.3.1-.2,0-.4.1-.6.1v-1.4c0-.3,0-.6.1-.8.3-1.7.2-3.5.2-5.2v-1.4c0-2.4,0-4.7-.7-7l-.3-1.5c-.1-.6-.3-1.2-.5-1.8-.2-.5-.2-1-.4-1.6h-.2c0-.1,0-.3-.1-.5-.1-.4-.2-.8-.4-1.2v-.3c-.1-.4-.3-.7-.5-1.1l-.6-1.2-.2-.4c0-.2-.1-.4-.1-.6h-.2c0-.1-.1-.2-.2-.4,0-.2-.2-.3-.2-.5,0,0,0-.2-.1-.2-.2-.4-.4-.7-.6-1.1-.1-.2-.2-.4-.2-.5h-.2c-.1-.2-.2-.4-.4-.6-.2-.4-.5-.8-.7-1.2-.1-.2-.2-.4-.2-.6-.1,0-.2,0-.4-.1-.1-.1-.2-.3-.4-.5-.4-.6-.9-1.1-1.4-1.7-.3-.4-.6-.7-.9-1.1.2-.6.5-1,.9-1.4.7-.9,1.3-1.8,1.9-2.8.1-.2.3-.5.5-.8.4-.6.7-1.1,1-1.7.2-.4.4-.6.7-.9l.2.2c.6.7,1,1.1,1.9,1.3.8,0,1.2-.2,1.8-.6l.6-.3v-.2c.3-.4.6-.6.9-1,.9-1,1.8-1.9,2.4-3.1,0-.1.1-.2.2-.3h.2c0-.1,0-.2.1-.3.2-.5.5-1,.8-1.5,1-1.7,1.9-3.6,2.5-5.5h.2v-.2c.1-.6.2-1.2.5-1.8h0l.3,2.3Z" style="fill:#7cd656;"/><path d="M60.6,168.5h.2c0,.3.1.5.2.8.1.6.3,1.1.6,1.6.1.3.2.6.4.9,0,.1.1.2.1.3.1.3.3.6.4,1l1.7,3.3c.1.2.2.4.4.6,0,.1.1.2.2.3.1.2.3.5.4.7,0,.1.1.2.2.4,0,.1.1.2.2.3.2.3.5.5.7.8.2.2.4.5.6.7.1.1.2.2.3.4,0,.1.2.2.3.4.8,1,1.8,1.8,2.9,2.4.8,0,1.4,0,2.1-.5.3-.3.5-.6.8-.9.1,0,.2,0,.4.1v.5h.2c0,.3.2.6.2.9h.2l.3.6c0,.1.1.2.2.4,0,.2.1.4.1.6h.2l.3.6c0,.1.1.2.2.3,0,.2.1.4.1.5h.2c.1.2.2.4.4.6.411.61.88,1.179,1.4,1.7.1.2.2.4.2.5-.2.4-.5.6-.7,1l-1.5,1.8c-.1.1-.2.3-.3.4-.7,1-1.4,1.9-1.9,3h-.2c0,.1,0,.2-.1.4-.2.5-.4.8-.7,1.2-.2.4-.4.8-.5,1.2h-.2v.3c0,.4-.2.6-.4,1-.3.6-.5,1.2-.7,1.8-.1.4-.2.7-.4,1-.2.6-.4,1.2-.5,1.8h-.2v.3c-.1.7-.2,1.4-.5,2.1l-.5,2.5c0,.5-.1,1-.3,1.5-.3,1.2-.3,2.4-.3,3.6v2.8c0,1.5,0,3,.3,4.6v.3c0,.2.1.5.1.7.1.5.2,1,.2,1.5-.7-.2-1.2-.5-1.9-.9-.2-.1-.4-.2-.5-.3,0,0-.2,0-.2-.1l-.6-.2v-.2h-.2c-.5-.1-.9-.3-1.3-.5-.2,0-.4-.2-.5-.2,0,0-.2,0-.2-.1-.9-.4-1.7-.8-2.7-1.1-.4-.1-.7-.3-1-.4-.6-.3-1.3-.5-1.9-.8-.1,0-.2-.1-.4-.1-1-.4-2-.7-3-1v-.2c-.6-.1-1.2-.2-1.8-.4v-.2h-.3c-.6-.1-1.1-.2-1.7-.4h-.3l-2-.6c-1-.4-2.1-.7-3.1-.2-.7.4-1,.7-1.3,1.4-.1.9-.1,1.7.4,2.6.6.7,1.4.9,2.2,1.1.2,0,.4.1.6.2.1,0,.3,0,.4.1v.2h.5c.7,0,1.4.2,2,.5v.2h.5c1,.1,2,.4,3,.9.849.377,1.717.71,2.6,1,.2,0,.4.1.5.2.4.1.8.3,1.2.4v.2c.2,0,.3,0,.5.1.6.1,1.1.4,1.7.6.4.2.7.3,1,.5,1.5.6,2.8,1.3,4.2,2.1.4.2.7.4,1,.5v.2c.1,0,.2,0,.4.1.3.1.6.2,1,.4v.2c.1,0,.2,0,.3.1.4.1.5.3.7.5.2,0,.5.2.6.2v.2c.1,0,.2,0,.4.1v.2c-.1,0-.3.2-.5.3-1.5,1.1-2.5,2.7-2.8,4.6-.2,4.8,2.2,8.3,5.2,11.8.1,0,.2.2.3.2.3.4.4.7.4,1.2.1.6.3,1.1.6,1.7.2.4.4.8.5,1.2.4,1,.9,1.8,1.4,2.6.3.5.4.8.4,1-1,0-2,0-3.1-.1h-.3c-.5,0-1-.2-1.6-.3-.8-.2-1.6-.2-2.4-.4h-.5c-.5,0-.9-.1-1.4-.2v-.2h-.3c-1.5,0-3-.2-4.3-.8-.5-.2-1.1-.3-1.7-.4-.3,0-.5-.1-.7-.2-.3-.1-.5-.2-.8-.3h-.9c-.3,0-.5-.1-.8-.2v-.2h-.4c-.4,0-.9-.2-1.3-.3-.1,0-.3,0-.4-.1h-.3v-.2c-.1,0-.3,0-.5-.1-.2,0-.4-.1-.6-.1h-.6c-.1,0-.2-.1-.3-.1-.2,0-.4-.1-.6-.2v-.2h-.2c-.6-.1-1.2-.3-1.8-.6-.4-.2-.8-.4-1.2-.5-.4-.2-.7-.4-1.1-.5s-.7-.4-1.1-.5c-.7-.4-1.5-.7-2.2-1.2-.4-.2-.7-.5-1.1-.6-.2-.1-.4-.2-.6-.4v-.2c-.1,0-.2,0-.4-.1-.5-.2-.8-.4-1.2-.7-.1,0-.2-.1-.4-.2s-.3-.2-.5-.4c-.323-.322-.694-.591-1.1-.8-.9-.6-1.6-1.3-2.4-2-.2-.2-.5-.5-.8-.7-.7-.6-1.2-1.2-1.8-2-.281-.381-.619-.719-1-1-.4-.5-.9-1-1-1.7h-.2c-.4-.6-.5-1-.5-1.2h-.2c-.5-1-1.1-2-1.6-3.1-.1-.3-.2-.5-.4-.8-.3-.6-.5-1.4-.6-2,0-.3-.2-.6-.3-.9-.2-.4-.3-.8-.3-1.3,0-.4-.1-.8-.2-1.2-.1-.5-.2-1-.2-1.5v-1.7c0-3.4-.1-7,.9-10.3.2-.8.4-1.6.5-2.4h.2v-1.1c0-.3.1-.6.2-.9h.2c0-.1,0-.3.1-.5.2-.8.4-1.6.7-2.4h.2v-.3c.1-.7.3-1.4.6-2,.2-.5.4-1.1.6-1.6.1-.4.4-.7.6-1,0-.1,0-.2.1-.4,0-.2.2-.3.4-.4,0-.2.1-.4.2-.6,0-.1,0-.2.1-.3v-.2h.2c0-.1,0-.3.1-.5.3-1,.9-1.9,1.5-2.8,0-.1.1-.2.2-.4.3-.5.5-.7.7-.8,0-.2.2-.3.3-.5,0-.1.1-.2.1-.3,0,0,0-.1.1-.2h.2c0-.1,0-.2.1-.4.2-.5.4-.7.7-1.1.1-.1.2-.3.3-.4l.2-.2c.2-.2.4-.5.6-.7.6-.9,1.3-1.7,2.1-2.6.4-.5.8-.9,1.2-1.4.5-.7,1.1-1.3,1.7-1.9l.5-.5.9-.9.4-.4c.7-.7,1.5-1.5,2.2-2.1.4-.4.9-.8,1.2-1.2.8-.7,1.6-1.5,2.5-2.2.2-.2.5-.4.7-.6.7-.5,1.4-1.1,2-1.6l.2-.2c.2-.2.5-.4.7-.6l.2-.2c.3-.2.6-.5,1-.7.3-.2.5-.3.7-.6.2-.2.5-.4.7-.6l.2-.2,2.6-2c.208-.199.444-.367.7-.5h0l.6-1.2Z" style="fill:#c8e164;"/><path d="M108.6,140.6v.2h.2c.9,0,1.9.2,2.7.7.5.3,1,.5,1.6.7,1,.4,2,.9,2.9,1.5.4.2.9.4,1.4.6v.2h.2c.1,0,.2,0,.3.1.1,0,.2,0,.3.1.2,0,.4.1.5.2v.2h.3c.4.1.8.3,1.2.5v.2h.3c.4,0,.6.2,1,.4.1,0,.2.1.4.2.1,0,.2.1.4.2,1.2.7,2.5,1.3,3.8,1.9.3.1.5.2.8.4l1.4.6c.3.1.6.3.9.5.7.4,1.4.6,2,.9.3.1.6.2.9.4l2.4.9c.4.1.8.3,1.2.5,1.6.6,3.2,1,4.8,1.3.1,0,.3,0,.4.1,2.2.5,4.4.6,6.7.7h.9l2.2.1v1.2h-.2v.3c0,1.2-.2,2.4-.4,3.6v.5c-.1.8-.2,1.6-.5,2.4h-.2v.9c0,.2-.1.4-.2.6-.2.5-.3.9-.4,1.4-.2.7-.4,1.4-.7,2-.2.5-.3.9-.4,1.4,0,.1,0,.2-.1.3-.1,0-.2,0-.4.1,0,.2-.1.4-.1.6s-.1.5-.2.9h-.2v.2c-.1.6-.4,1-.7,1.5,0,.1-.1.2-.2.3-.6,1.1-1.1,1.8-1.4,2.2h-.2c0-.1-.1-.2-.2-.4,0-.2-.2-.3-.2-.5,0,0,0-.2-.1-.2-.4-.7-.7-1.2-1.5-1.5-.809-.205-1.666-.098-2.4.3-.5.4-.8.9-1.1,1.6l-.9,1.9-.5,1-1.6,3c-.1.2-.2.4-.4.6-.8,1.4-1.7,2.8-2.8,4.1-.8-.2-1.5-.8-2.1-1.4-.4-.2-.7-.5-1.1-.7-.1,0-.2-.1-.3-.2-.1,0-.2-.1-.3-.1,0,0-.1-.1-.2-.1v-.2c-.1,0-.2,0-.3-.1-.5-.2-.8-.4-1.2-.7-.3-.2-.6-.3-.9-.4v-.2h-.2c-.7-.2-1.3-.5-2-.8-.4-.2-.8-.4-1.2-.5l-.6-.3c-.9-.4-1.7-.7-2.7-.9-.5-.1-.9-.2-1.4-.4l-2-.5h-.4c-.3,0-.6-.1-1-.2v-.2h-.2c-.4,0-.8,0-1.2-.1h-.4c-.6,0-1.1-.1-1.7-.2-.9-.1-1.8,0-2.7,0h-.3c-4.5,0-9.2.2-13.3,2.1-.5.2-1.1.4-1.7.5-.3,0-.5.2-.7.3-.4.2-.8.4-1.2.5-1.3.5-2.4,1.1-3.6,1.9-.2.1-.4.2-.7.4-.705.409-1.374.877-2,1.4-.1,0-.2.1-.3.2-.6.4-1.1.9-1.7,1.4,0,0-.1,0-.2.1-.4-.1-.5-.2-.7-.6,0-.1-.1-.2-.2-.3,0-.1-.1-.2-.2-.3,0,0-.1-.2-.2-.3-.3-.5-.6-.9-.8-1.5h-.2c0-.2-.2-.3-.2-.5,0-.1-.1-.2-.1-.3,0-.2-.1-.3-.1-.5h-.2c-.2-.4-.4-.7-.6-1.1,0-.1-.1-.2-.2-.3-.2-.5-.5-.9-.6-1.5h-.2s0-.2-.1-.3c-.4-.9-.9-1.9-1.4-2.8-.1-.3-.3-.6-.4-.9-.3-.6-.7-1-1.4-1.2-.9-.2-1.6-.2-2.4.2-.6.4-.9,1-1.2,1.6l-.2.4c0,.1-.1.2-.1.3h-.2c-.1-.2-.3-.4-.5-.6,0-.1-.2-.2-.2-.4-.1-.2-.2-.5-.2-.7h-.2c-1.1-2-2-4.1-2.9-6.3,0-.1,0-.2-.1-.3-.3-.8-.6-1.5-.5-2.4h-.2c0-.4-.2-.7-.2-1.1v-.3c-.1-.5-.2-.9-.2-1.4,0-.3,0-.5-.2-.7-.1-.3-.2-.6-.2-.9v-.8c-.1-.8-.2-1.6-.4-2.4-.2-.7-.2-1.5-.2-2.3,1-.1,2.1-.1,3.1-.2,1.2,0,2.3-.1,3.5-.2.6,0,1.2-.1,1.7,0v-.2h.3c.5,0,.9-.2,1.4-.2h.5c.9-.1,1.6-.3,2.4-.6.2,0,.4-.1.6-.1.4,0,.6-.2,1-.3.7-.3,1.4-.4,2-.5v-.2c.2,0,.5-.2.7-.2.1,0,.3-.1.4-.1.3,0,.5-.1.8-.1v-.2c.1,0,.3-.1.4-.1.2,0,.4-.1.5-.2.1,0,.2,0,.3-.1.6-.2,1.3-.5,1.9-.7h.5v-.2s.1,0,.2-.1c.6-.2,1.2-.5,1.7-.8l1.5-.6v-.2c.2,0,.4-.2.6-.2s.2-.1.4-.1.4-.1.6-.1v-.2c.15-.025.29-.095.4-.2.6-.3,1.2-.6,1.9-1,.1,0,.2-.1.3-.2,0,0,.2-.1.3-.2.1,0,.2-.1.3-.1.2-.1.4-.2.6-.4h.5v-.2c.15-.025.29-.095.4-.2,1-.5,1.9-1,2.8-1.5.2,0,.4-.2.6-.2s.3-.1.4-.2c.3-.3.6-.4,1-.5.4-.2.8-.3,1.2-.5.6-.3,1.4-.6,2.1-.6v-.2c1.7-.6,3.3-.6,5.1-.5h-.3l-.6-1.3ZM83.8,118.9h2.2c1.6,0,3.3,0,4.8.5.2,0,.4.1.6.1h.7c.7.1,1.5.3,2.2.5v.2h.2c.7.1,1.3.3,2,.6.4.1.8.2,1.2.4v.2h.3c.8.2,1.6.5,2.4.9,1.3.6,2.5,1,3.9,1.2.3,0,.5.1.7.2v.2h3.8v-.2c.4,0,.8-.2,1.1-.2h1.5v-.2h.2c.4-.1.7-.2,1.1-.4.1,0,.2,0,.4-.1.1,0,.2,0,.4-.1.1,0,.2,0,.4-.1.4-.1.7-.3,1-.5.2-.1.4-.2.6-.2.4-.1.7-.3,1.1-.5,1.8-.7,3-1.1,3.6-1.1v-.2h.3c.1,0,.3,0,.4-.1.1,0,.3,0,.4-.1.3,0,.6-.1.9-.2,3.6-1,8.9-1.2,12.5,0v.2h.3c.8,0,1.6.2,2.4.5v.2h.3c.5.1.8.2,1.2.5.3.1.6.2.9.4,1,.4,1.9,1,2.8,1.5.2.1.5.3.8.4v.2c.1,0,.2,0,.4.1.4.1.7.3,1.1.6.1,0,.2.2.4.2.6.4,1.1.8,1.7,1.2.2.1.4.3.6.5,1.1.7,2.1,1.5,3.2,2.4.4.3.7.6,1.2.9.1,0,.2.2.4.2v.2c.1,0,.2,0,.3.1.4.2.7.5,1.1.8.4.4.8.7,1.2,1.1.711.512,1.38,1.081,2,1.7.5.4.9.8,1.4,1.2s1,.9,1.5,1.3c1.1.9,2.1,1.9,3.2,2.7.3.2.6.5.9.7,1.1.9,2.2,1.8,3.4,2.5.1,0,.3.2.4.4,1,.6,2.1,1,3.3,1.3v.2h1v.4c-1,.8-2.3,1.3-3.5,1.8-.4.2-.7.4-1.1.6-.3.1-.6.2-1,.2v.2c-.1,0-.2,0-.4.1h-.2c-.2,0-.4.1-.5.2-.4.1-.8.2-1.1.4-.5.2-.8.2-1.3.2v.2c-1,.3-2,.5-3,.6h-.5c-.2,0-.4.1-.6.2-.4.1-.7.2-1.1.2h-1.2c-1,.1-2,.2-3,.1v.2h-3.9c-1.8,0-3.5,0-5.3-.3h-.4c-.4,0-.7-.1-1.1-.2h-.4c-.6-.1-1.1-.2-1.6-.5-.4,0-.7-.1-1-.2h-.3c-.2,0-.4,0-.7-.1v-.2h-.4c-.7-.1-1.4-.3-2.1-.5v-.2h-.2c-.8-.1-1.5-.4-2.2-.6v-.2h-.3c-.8-.2-1.4-.4-1.7-.6l-1-.5c-.6-.2-1.1-.4-1.6-.7-.2,0-.4-.2-.7-.3v-.2h-.2c-.4-.1-.9-.3-1.3-.4v-.2c-.1,0-.3-.1-.5-.1-.9-.3-1.7-.7-2.5-1.2v-.2c-.2,0-.3-.1-.5-.1-.7-.2-1.4-.6-2.1-1-.2-.1-.5-.3-.7-.4-.1,0-.2-.1-.4-.2-.7-.4-1.5-.7-2.2-1.1v-.2c-.1,0-.3,0-.5-.1-.6-.2-1.1-.5-1.7-.7-.9-.5-1.9-.8-2.8-1.1-.5-.2-1-.4-1.4-.6-1.1-.4-2.3-.7-3.5-.8h-.3c-1.3,0-2.6,0-3.8.2h-1.1v.2h-.2c-.3.1-.7.2-1,.3-.1,0-.2,0-.4.1-.8.2-1.5.5-2.2.9-.4.2-.6.2-1,.2v.2c-.4.2-.7.4-1.1.5-.1,0-.2.1-.3.1s-.2.1-.3.1-.2,0-.3.1c-.2,0-.3.1-.5.1,0,.1,0,.2-.1.4-.2.1-.5.2-.7.3-.4.1-.8.3-1.2.5-.2.1-.4.2-.7.2v.2c-.2.1-.5.2-.7.4s-.4.2-.6.3c-.6.3-1.1.6-1.7.7v.2s-.1,0-.2.1c-.1,0-.2.1-.3.1s-.2,0-.3.1c-.7.4-1.5.7-2.2,1.1-.1,0-.2.1-.3.1-.4.2-.8.4-1.1.6-.4.2-.7.4-1.1.5-.8.3-1.6.6-2.4,1-1.4.6-2.8,1.2-4.3,1.7-.1,0-.2,0-.3.1-.5.2-.9.3-1.4.2v.2h-.3l-1.2.3c-.1,0-.3,0-.4.1-.1,0-.3,0-.4.1-.1,0-.2,0-.4.1-.3,0-.5.2-.7.2-.8.2-1.6.3-2.5.4h-.3c-2,.2-3.9.2-5.8.2h-.4c-1.8,0-3.6-.1-5.4-.3-.4,0-.9,0-1.2-.1-1.1-.1-2.2-.4-3.3-.7-.4-.1-.9-.2-1.3-.3v-.2h-.4c-.7-.1-1.4-.3-2.1-.5v-.2h-.2c-.9-.1-1.6-.4-2.4-.7-.15-.025-.29-.095-.4-.2l-2.7-1.2v-.2c-.1,0-.2,0-.4-.1-.8-.3-1.2-.5-1.4-.8v-.2h.5v-.2c.1,0,.3,0,.4-.1,2.6-.7,4.6-2.2,6.6-3.9.2-.2.4-.4.6-.5s.4-.4.6-.5c.2-.2.4-.2.6-.2v-.2c.3-.3.6-.4.8-.4,0-.1,0-.2.1-.4.2-.2.4-.4.6-.5l1.5-1.2c.4-.4.9-.8,1.4-1.2l1.5-1.2,2.1-1.8c.2-.2.5-.4.7-.6.6-.5,1.2-1,1.8-1.4l1.3-1c1.3-1,2.1-1.5,2.3-1.5v-.2c.1,0,.3-.2.5-.3.5-.3,1-.6,1.4-.9,1.6-1.1,2.5-1.6,2.8-1.6v-.2c1.5-.8,2.4-1.3,2.9-1.5s.6-.3.5-.4c.4-.2.6-.2,1-.2v-.2c.1,0,.2,0,.4-.1.6-.2,1.2-.5,1.9-.7.6-.3,1.3-.4,2-.4v-.2c.4,0,.8-.1,1.2-.2h.9c1-.1,2-.2,3-.2h0l-.8-.5Z" style="fill:#f0f1f1;"/><path d="M163.3,26.4c.1.2.2.4.4.6.1,0,.2.2.3.3.2.3.3.4.4.8h.4c.1.3.2.5.4.6l1,1.5,1,1.5.9,1.2c.2.2.4.5.5.8.054.108.121.209.2.3,0,.1.1.2.2.3,0,0,.1.2.2.2,0,.1.1.3.1.5h.2c0,.1.2.3.3.5,0,.1.1.2.2.3.054.108.121.209.2.3,0,.1.1.2.2.3.3.5.5.9.5,1.1h.2c0,.1.2.3.3.5,0,.1.1.2.2.3.054.108.121.209.2.3,0,.1.1.2.2.3.3.5.5.9.5,1.1h.2c0,.2.2.3.2.5,0,.1.1.2.1.3,0,.2.1.3.1.5h.2c.9,1.5,1.3,2.5,1.3,2.7h.2c0,.2.2.4.2.6,0,.1.1.2.1.3,0,.2.1.4.1.5h.2s0,.2.1.3c.3.6.6,1.3,1,1.9.3.5.5,1,.7,1.5.1.3.2.6.4.9.1.2.2.4.2.6l.6,1.4c.3.6.5,1.2.8,1.9,0,.2.2.4.2.6.3.7.5,1.4.7,2.1.1.4.3.7.4,1.1.4,1,.7,2.1.6,3.1h.2c.3,1.5.4,2.6.4,3.4h.2v4.7h-.2v.2c0,1.2-.3,2.4-.6,3.5,0,.3-.1.7-.2,1,0,.2-.1.4-.1.6v.3c-.121.547-.288,1.082-.5,1.6,0,.2-.1.5-.1.7v.4c0,.3-.1.6-.2.8-.107.723-.308,1.429-.6,2.1l-.3,1.2c0,.2,0,.3-.1.5v.4h-.2v.2c0,.7-.2,1.4-.5,2.1-.2.5-.3,1-.4,1.4-.2,1.1-.5,2.2-1,3.2l-.6,1.9c-.1.4-.2.8-.4,1.2-.1.4-.3.8-.4,1.2-.1.3-.2.6-.4,1h-.2c0-.1-.1-.2-.2-.3-.2-.4-.4-.9-.7-1.2-.1-.2-.2-.4-.3-.5-.507-1-1.075-1.969-1.7-2.9-.4-.6-.6-1-.6-1.2h-.2c0-.1-.1-.2-.1-.3-.4-.9-.9-1.7-1.5-2.4-.2-.2-.4-.4-.5-.7-.332-.556-.7-1.091-1.1-1.6-.1-.2-.3-.4-.4-.6-.2-.3-.4-.6-.7-.9-.2-.2-.3-.4-.5-.7-.6-.9-1.3-1.8-2.1-2.6-.322-.323-.591-.694-.8-1.1l-.6-.6-.6-.6-2.4-2.5-.3-.3-1.5-1.4c-.2-.1-.3-.3-.5-.4-1.5-1.3-3.1-2.7-4.8-3.7-.1,0-.2-.1-.3-.2v-.2c-.1,0-.2,0-.4-.1-.4-.1-.7-.3-1.1-.5v-.2h-.3c-.7-.3-1.3-.7-1.9-1v-.2h-.2s-.2,0-.3-.1c-.1,0-.2,0-.3-.1-.3-.1-.6-.2-.8-.4v-.2h-.2c-.8-.2-1.5-.6-2.2-1s-1.5-.8-2.3-1.1c-.4-.1-.7-.3-1-.5l-1.7-.8c-.2-.1-.5-.2-.7-.3-.1,0-.2-.1-.4-.2l-.6-.3c-.849-.377-1.717-.71-2.6-1v-.2h-.3c-.9-.2-1.7-.5-2.5-.8-.4-.1-.7-.3-1.1-.4v-.2h-.2c-1.3-.3-2.5-.8-3.7-1.3l-1.7-.6v-.2h-.2c-.8-.1-1.5-.4-2.2-.7s-1.5-.5-2.2-.7v-.2h-1.1c-.3,0-.6-.1-.9-.2v-.2h-.3c-.7-.1-1.4-.2-2.1-.5v-.2c-.2,0-.3,0-.5-.1-.7-.2-1.5-.4-2.2-.5v-.2h-.2c-.9-.1-1.7-.4-2.6-.7-.5-.2-1-.3-1.6-.5-.3,0-.6-.2-.9-.3-.5-.2-1.1-.3-1.6-.5v-.2h-.4c-.7,0-1.3-.3-1.9-.5.4-.5.7-.6,1.3-.8.3-.1.4-.3.6-.5.5-.3.7-.4,1.3-.4v-.2c.2,0,.3-.2.5-.2.1,0,.2-.1.3-.1.2,0,.5-.1.8-.1v-.2s.2,0,.3-.1l2.6-1.2,2.5-1.2c.2-.1.5-.2.7-.4,1.3-.6,2.6-1.2,4-1.6.2,0,.3-.2.4-.4.9-.5,2-1,3-1v-.2c.1,0,.2-.1.4-.1l3.2-1.3,2.7-1.1s.2,0,.3-.1c.4-.1.7-.2,1.1-.2v-.2c.3,0,.5-.2.8-.2s.3-.1.5-.1c.3,0,.6-.1.9-.1v-.2c.2,0,.5-.2.7-.2.1,0,.3-.1.4-.1.3,0,.6-.1.9-.1v-.2h.4c1.1-.5,2.2-.8,3.3-1.3.9-.4,1.8-.7,2.7-.9.6-.1,1.2-.4,1.7-.6l1.6-.6c.2,0,.4-.1.5-.2,1.3-.5,2.6-.9,4-1.1v-.2c.7-.2,1.3-.3,1.7-.2v-.2c.2,0,.3,0,.5-.1.2,0,.4-.1.7-.2h.3l1.9-.6c.6-.2,1.2-.4,1.8-.4v-.2h.2c.4,0,.7-.2,1-.2h.4c.5-.1,1-.2,1.5-.5.6-.2,1.2-.4,1.8-.5h.9c.4,0,.5,0,.8.2v-.4l.3-2.2Z" style="fill:#81da5a;"/><path d="M186.3,240.8c.4,0,.8.2,1.2.2v.2h.2c.7.1,1.4.3,2,.6.5.2,1,.4,1.6.5.4.1.7.3,1,.5.2.1.5.2.7.4.1,0,.2.1.4.2,0,0,.2,0,.2.1-.2.5-.4.8-.8,1.2-.2.2-.4.5-.5.8s-.4.5-.6.8-.4.5-.6.8c-.1.1-.2.2-.3.4h-.2s0,.1-.1.2c-.3.5-.7.9-1.1,1.3-.124.114-.225.25-.3.4-.7.9-1.5,1.6-2.4,2.4-.2.1-.4.3-.5.5,0,0-.2.1-.2.2-.2.1-.4.3-.5.5-.1,0-.2.2-.3.2l-.2.2s-.2.2-.5.2v.2c-.3.2-.6.5-.9.7-.1,0-.2.1-.3.2-.2.1-.4.2-.5.4-.2.1-.4.3-.6.4l-2.2,1.5c-.4.2-.7.4-1,.7-.4.3-.9.5-1.3.7l-1.1.6c-.6.3-1.1.6-1.7.8-.5.2-1,.5-1.4.7-.7.4-1.4.6-2.2.8v.2l-4.5,1.5c-.1,0-.2,0-.4.1l-2.1.6c-.2,0-.5.1-.7.2-.5.2-1,.2-1.6.4h-.4c-.4,0-.7.1-1.1.2h-.4l-1.7.3c-.4,0-.9.2-1.3.2-2.4.5-4.9.6-7.4.7h-.6l-6.2.1h-3.4c-1,0-2.1,0-3.1-.1v-.2h-1.4c0,.2-.2.4-.2.5-.2.2-.5.4-.8.5,0,0,0,.2-.1.2-.7.4-1.5.7-2.3.9-.1,0-.2,0-.4.1-.2,0-.5.1-.7.2-.2,0-.5.1-.7.2l-2.1.5h-.3c-1.3.2-2.6.3-4,.3h-4.4c-2.2,0-4.3-.7-6.2-1.7-.1,0-.2-.1-.4-.2l-.9-.6v-.2h-.2c-.4-.2-.7-.6-1.1-.9l-.2-.2c-.9-.9-2.3-2.5-2.3-3.8h-.4v.3c-.1.6-.5,1.1-.9,1.7,0,.1-.1.2-.2.3-.5.7-1,1.3-1.6,1.9l-.2.2c-.422.421-.892.79-1.4,1.1-.1,0-.2.1-.4.2s-.4.2-.6.2v.2c-.2,0-.4.2-.6.2-.1,0-.2,0-.4.1-.2,0-.5.1-.7.1v.2c-.8.2-1.5.5-2.4.4v.2c-.5.1-1,.1-1.5.1h-5.3c-1.2,0-2.4,0-3.6-.3-.1,0-.3,0-.5-.1-.2,0-.3,0-.5-.1-.2,0-.3,0-.5-.1l-1.4-.3h-.3c-1.4-.3-2.5-.9-3.7-1.5v-.2s-.2,0-.2-.1c-.3-.2-.4-.4-.5-.7h-.4c-2.6,0-5.1,0-7.7-.1h-.3c-1,0-2.1-.2-3.1-.3l-2.5-.2c-1.7-.1-3.3-.2-5-.6-.5,0-1-.1-1.5-.2-.9,0-1.7-.2-2.5-.4l-2.1-.4c-1.1-.1-2.2-.4-3.2-.6h0c.1-.1.2-.1.4-.2h1c.3,0,.5,0,.7-.2h2.4c.3,0,.5,0,.8-.2.7-.2,1.4-.2,2.2-.3h.5c.5,0,1,0,1.5-.1h1c.9,0,1.8-.1,2.7-.2h.4l3.5-.1h1.3v-.2l6.4-.2h3.5c.9,0,1.4,0,2,.6.2,0,.3.2.5.2.15.025.29.095.4.2v.2h.2c.6.1,1.2.4,1.9.7,1.7.7,3.7,1.1,5.6,1.4.3,0,.5,0,.8.1,4.9.7,10.9.2,15-2.7.4-.3.6-.6,1-.9.3.1.6.3.9.5v.2c.1,0,.2,0,.3.1.4.1.6.3.9.6.9.6,1.8.9,2.8,1.3.1,0,.2,0,.3.1,1,.4,2.1.5,3.2.7h.5c1.1.2,2.3.2,3.4.2h.2c1.5,0,3.1-.1,4.6-.4h.3c1.1-.1,2.2-.4,3.2-.7.1,0,.3,0,.4-.1,1-.3,1.9-.6,2.8-1,.1,0,.2,0,.3-.1.2,0,.5-.2.7-.4,1.3-.9,2.4-.9,3.9-.8h4c1.2,0,2.4-.2,3.6-.4.3,0,.6,0,.9-.1.4,0,.8-.1,1.2-.2h.6c.3,0,.6,0,.9-.1h.3c.6,0,1.2-.2,1.8-.4.2,0,.5-.1.7-.1h1.4v-.2h.2c.4,0,.7-.1,1.1-.2h.4c.7-.1,1.4-.3,2-.5.5-.2,1-.2,1.6-.4.9-.1,1.6-.4,2.4-.7.9-.4,1.9-.6,2.8-.9.4-.1.8-.2,1.1-.4.5-.3,1.1-.4,1.7-.6.7-.2,1.3-.4,1.9-.8s1.4-.7,2.1-.7v-.2c.1,0,.2,0,.3-.1.1,0,.3,0,.4-.1.1,0,.3,0,.4-.1.5-.2.8-.4,1.2-.7.3-.2.7-.3,1-.5.9-.5,1.8-.9,2.7-1.5.1,0,.2-.1.3-.2,2.2-1.4,4.3-2.8,6.3-4.6,0,0,.2-.1.2-.2.2-.1.3-.3.5-.4.3-.3.6-.5,1-.6,0,0,0-.2.1-.2.2-.3.3-.4.7-.5,0-.2.2-.4.2-.5.1-.1.2-.3.4-.4,0,0,.1-.2.2-.2,0,0,.1-.2.2-.2.5-.5,1-1,1.4-1.6h0l.1-.5Z" style="fill:#70c04b;"/><path d="M104.3,192.5c0,.2,0,.5.1.7v1.3h.2v.3c0,.1,0,.2.1.4,0,.1,0,.2.1.4,0,.2.2.5.4.7,0,.3.1.6.1.8v1.5h.3c1-.2,2-.2,3.1-.2h.8c2.2,0,3.9.5,5.5,2.1,1.5,1.7,1.7,3.6,1.6,5.8,0,.6-.2,1.1-.4,1.6h-.2s0,.2-.1.3c-.2.4-.5.7-.8,1,0,.1,0,.2-.1.4h.4c1.7.2,3.1.5,4.4,1.7.1,0,.2.1.4.2,1.4,1.3,1.9,3.4,2,5.3,0,1.4,0,2.6-.4,3.9h-.2v.2c-.2.7-.4,1.1-1,1.6l-.5.5c-.9.9-2,1.5-3.1,2.1l-.2.1c-.5.2-.9.4-1.4.5v.2l-.8.3c-.1,0-.3.1-.5.2-.3,0-.5.1-.8.1,0,.4.2.8.2,1.2v1c0,.1.2.3.4.7.1.4.2.8.2,1.2,0,.5.1.7.4,1.1v.9c-.5.2-1,.4-1.5.5-.2,0-.5.1-.8.2-.5.1-.9.1-1.4.1v-.3c-.1-.6-.3-1.2-.5-1.9-.2-.5-.3-.9-.4-1.4-.1-.4-.2-.9-.4-1.3,0-.3-.1-.6,0-1-.1,0-.3,0-.4.1-.2,0-.4.1-.5.1h-.3c-.4.1-.8.2-1.2.2v.2h-.4c.1.5.2,1.1.4,1.6,0,.1,0,.3.1.5,0,.1,0,.3.1.5,0,.1,0,.3.1.4.1.4.2.7.4,1,0,.3.1.6.2.9,0,.1,0,.3.1.4v.9h-.2c-.4,0-.7.1-1,.2h-.4c-.5,0-.9.2-1.4.4h-.6c-.2,0-.3-.2-.5-.5-.2-.5-.2-1-.3-1.5-.1-.7-.2-1.2-.5-1.9s-.4-1.4-.4-2.1c-.5,0-1,.2-1.4.3-.8.4-1.7.5-2.6.6v.2h-.4c-.7.1-1.4.3-2.1.5-.4.1-.7.1-1.1.1-.2-.2-.2-.5-.2-.8v-1.3c0-.8-.1-1.6,0-2.4.6-.3,1.1-.5,1.7-.6l.1-.1h.5c.5,0,.7-.1,1.1-.5.4-1.3-.1-2.8-.6-4,0-.3-.1-.5-.2-.8-.1-.5-.2-1-.4-1.4l-.6-2.4c-.1-.5-.2-.9-.4-1.3l-.3-1.1c-.1-.5-.2-.9-.4-1.4l-.3-1.1c-.1-.6-.3-1.2-.5-1.9-.2-.5-.3-1.1-.4-1.7-.1-.4-.3-.7-.5-1v-.4c-.4-.1-.6-.1-1-.1h-1.8c-.3,0-.5,0-.8.1v.2c-.4,0-.9,0-1.3.1-.3-.6-.4-1.2-.5-1.9v-.3c-.1-.7-.2-1.2,0-1.9.6-.1.9-.2,1.1-.3.4-.1.9-.2,1.3-.4l2.8-.7h.9c.2,0,.5-.1.8-.2-.2-1.4-.5-2.8-1-4.2-.2-.7-.3-1.3-.4-2,.1,0,.2,0,.4-.1l2.2-.6c.4-.1.7-.2,1.1-.2v.2c0,.3.2.6.2,1v.4c.1.4.2.9.4,1.3.2.5.3,1,.4,1.4.1.5.2,1,.4,1.5.8,0,1.4-.1,2.1-.4.2,0,.5-.1.7-.1l-.3-1.2v-.4c-.1-.6-.3-1.1-.5-1.6s-.3-1-.4-1.5v-.9h-.2v-.5l1.1-.3c.3,0,.6-.1.9-.2.1,0,.3,0,.4-.1.1,0,.2,0,.4-.1h1-.3l.4.1Z" style="fill:#030001;"/><path d="M100.9,52.4c.1,0,.3,0,.4.1l1,.3v.2h.4c.7.1,1.5.3,2.2.5v.2h.5c.5,0,.9.2,1.4.4.6.2,1.2.4,1.8.5.5.1.9.3,1.4.5l2,.6c.5.1.9.3,1.4.5.2,0,.5.1.8.2.1,0,.2,0,.4.1h.3v.2h.4c.7.1,1.3.3,2,.5v.2h.2c.9.1,1.7.4,2.5.7.4.1.7.2,1,.4,0,0,.2,0,.2.1.7.3,1.5.5,2.3.7.2,0,.5.2.7.4.5.1.9.2,1.4.4.3,0,.5.2.7.4.3.1.6.2,1,.4.1,0,.2,0,.3.1l2.2.7c.4.1.7.3,1,.5.2,0,.4.1.6.2.5.1.9.3,1.3.6.2.1.5.2.7.3.15.025.29.095.4.2.3.1.6.2.9.4.8.3,1.6.6,2.3,1s1.4.7,2.2,1c1,.4,2,.9,3,1.4.2.1.5.3.8.4l3,1.6c1,.6,1.3.7,2,1v.2c.1,0,.2,0,.4.1.6.2.9.4,1.4.8.2.2.5.4.8.5l2.4,1.7c.3.2.6.5.9.7l3.1,2.8.6.6c.6.5,1.2,1.1,1.7,1.8l1.7,2c.5.6.8,1,.8,1.3h.2c.7.7,1.2,1.5,1.8,2.4.1.1.2.3.3.5,1.3,1.7,1.9,2.8,1.9,3.1.1,0,.2,0,.4.1,0,.1.2.3.3.5,0,.1.1.2.1.3s.1.2.1.3.1.2.2.3c.3.5.4.8.4,1h.2c0,.2.2.3.2.5,0,.1.1.2.1.3,0,.2.1.3.1.5h.2c0,.2.2.3.2.5,0,.1.1.2.1.3,0,.2.1.3.1.5h.2c0,.2,0,.4.1.5h-.2v-.2h-.2c-.4-.4-.5-.7-.5-.9h-.2c0-.1-.1-.2-.2-.4-.3-.6-.7-1-1.2-1.5-.4-.4-.7-.9-1.1-1.3-.3-.4-.6-.7-1-1.1-.2-.2-.4-.4-.5-.6-.2-.2-.4-.5-.6-.7-.3-.3-.6-.6-.9-1-.5-.5-.9-1-1.4-1.4-.4-.4-.8-.7-1.1-1.2-.4-.5-.9-.9-1.3-1.2-.2-.1-.3-.3-.5-.5-.5-.4-1-.9-1.5-1.2-.2-.2-.4-.3-.6-.5-.3-.3-.6-.5-1-.8-.5-.3-.7-.5-.9-.7l-.9-.6c-.406-.209-.777-.478-1.1-.8-.6-.5-1.2-.7-1.8-1.1-.3-.2-.6-.4-.9-.5v-.2h-.3c-.4-.1-.8-.3-1.2-.5v-.2h-.3c-.5-.1-.9-.3-1.3-.5v-.2h-.3c-.4,0-.7-.2-1-.4v-.2h-.3c-.4,0-.7-.2-1-.4-.3-.1-.7-.3-1-.4-.4-.2-.8-.4-1.2-.5l-2.2-.9v-.2c-.1,0-.3,0-.4-.1-.6-.1-1.1-.3-1.6-.6-.4-.1-.7-.3-1-.4l-2.3-.9v-.2h-1c-.4-.1-.6-.3-1-.5l-1-.3c-.5-.1-1-.3-1.5-.5-.3-.1-.6-.2-.9-.4-.1,0-.2,0-.4-.1v-.2h-.5c-.7-.1-1.4-.4-2-.7-.7-.3-1.5-.5-2.2-.7v-.2c-.2,0-.3,0-.5-.1-1-.2-2-.5-3-.9-.3,0-.5-.2-.8-.2-.5-.2-1-.3-1.5-.6-.6-.4-1.4-.5-2.1-.7-.547-.121-1.082-.288-1.6-.5l-.9-.3c-.2,0-.5-.1-.7-.2v-.2h-.4c-.5,0-1-.2-1.6-.4h-.3c-.2,0-.4-.1-.6-.2v-.2h-.3c-.7-.1-1.4-.2-2.1-.5v-.2c-.5,0-1-.2-1.4-.2v-.2c-.2,0-.3,0-.5-.1-.7-.1-1.4-.3-2.1-.5h-.3l-1.8-.6c-.3,0-.6-.1-.8-.2-.5-.1-.8-.2-.9-.3-.5,0-.9,0-1.3.1v.2c-.3.2-.6.3-1,.5-.2.1-.5.3-.8.4-.2,0-.4.1-.6.1v.2c-.1,0-.2.1-.4.2l-2.6,1.6c-.8.6-.9.6-1.2.6,0,.1,0,.2-.1.4-.3.1-.6.2-.9.4l-.4.4c-.2.2-.5.3-.7.5-.1,0-.2.1-.4.2s-.5.2-.7.3v.2c-.2.2-.5.3-.7.5-.7.4-1.4.9-2.1,1.4-.4.2-.7.5-1.1.7l-2,1.5-1.1.8-1.9,1.4-1.1.9-2.6,1.9-2.2,1.6c-.3.2-.5.3-.5.4-.7.7-1.6,1.2-2.5,1.8-.4.2-.7.5-1,.8-.2.1-.4.3-.5.4-.1,0-.2.2-.3.2l-1.1.8-1.1.9-1.2.9-1.7,1.4c-.2.1-.4.3-.6.4l-1.6,1.3-1.5,1.1-1.5,1.1-1.1.9c-.4.2-.6.5-1,.8-.3.2-.5.4-.8.6l-.2.2-1.2.9c-.2.2-.4.3-.5.5-.6.6-1.4,1.2-2.1,1.7-.2.1-.4.3-.6.5-.3.3-.7.6-1.1.9-.9.6-1.7,1.3-2.5,2-.9.8-1.6,1.2-1.9,1.5-.2.1-.4.3-.6.5-.3.3-.6.5-.9.7-.4.2-.7.5-1,.9-.2.1-.4.3-.6.5,0,0-.2.2-.3.2-.2.1-.4.2-.5.3-.2-.4-.2-.7-.2-1.1v-1.8l-.1-2.8v-.5c0-.5.1-.8.5-1.1,0,0,.2-.1.2-.2.4-.4.9-.7,1.3-1.1l1.8-1.6c.4-.3.7-.6,1-.9l2.1-1.7c.2-.2.5-.4.7-.6l1.7-1.4c.4-.3.7-.5,1-.8l3.4-2.7c.4-.3.8-.6,1.2-1,.7-.5,1.2-.9,1.5-1.2,0,0,.2-.1.2-.2l1.1-.8c.2-.2.5-.4.8-.6l2.8-2,1.8-1.3,3.5-2.6c.5-.3.9-.6,1.4-1l2.6-1.8,2.6-1.8,1.7-1.2s.2-.1.2-.2c.4-.2.8-.5,1.2-.8l1.4-.9c.6-.4,1-.6,1.2-.6v-.2c.4-.2.7-.4,1-.6.2-.1.5-.3.7-.4.1,0,.2-.1.4-.2.1,0,.2-.2.4-.2,0,0,.1-.1.2-.1l2.6-1.7c.7-.5,1.5-1,2.2-1.4l2.7-1.8,1.4-.9s.1-.1.2-.1l1.4-.8c.2-.1.5-.3.8-.5l2-1.2.2-.1c1.5-.8,2.5-.7,4.1-.2h.1l.5-1.5Z" style="fill:#cc8b60;"/><path d="M113.4,131.5c.3,0,.6.1.9.2.4.1.9.2,1.3.4.7.3,1.4.5,2.2.7v.2h.3c.5.1,1,.3,1.4.5.4.1.7.3,1.1.4l2.4,1,1.7.8c.1,0,.2,0,.3.1.6.3,1.3.5,1.9.8v.2h.3c.4,0,.7.2,1,.4.4.2.7.4,1.1.5.3.1.6.3.9.5.4.2.6.3,1,.4v.2h.2c.7.2,1.3.5,2,.8.4.2.8.4,1.2.5v.2h.3c1.1.2,2.1.7,3.1,1.2v.2h.3c.4.1.8.2,1.2.5.2,0,.3.1.5.2.3.1.6.2.9.4,1.1.5,2.3.8,3.5,1.1v.2h.4c.8.1,1.6.3,2.3.6.4.1.7.2,1.1.2.5,0,.9.1,1.4.2,1.4.3,2.8.4,4.2.3h1.2c1.9,0,3.8-.1,5.8-.4l3-.5c.4,0,.6-.1.9-.3.3,0,.6-.1,1-.2.723-.107,1.429-.308,2.1-.6l1-.3c.2,0,.4-.2.6-.2s.4-.1.6-.1v-.2c.4,0,.8.2,1.2.2v.2c.4,0,.7,0,1,.1v.2c-1,.8-2.3,1.3-3.5,1.8l-1.1.6c-.3.1-.6.2-1,.2v.2c-.1,0-.2,0-.4.1h-.2c-.2,0-.4.1-.5.2-.4.1-.8.2-1.1.4-.5.2-.8.2-1.3.2v.2c-1,.3-2,.5-3,.6h-.5c-.2,0-.4.1-.6.2-.4.1-.7.2-1.1.2h-1.2c-1,.1-2,.2-3,.1v.2h-3.9c-1.8,0-3.5,0-5.3-.3h-.4c-.4,0-.7-.1-1.1-.2h-.4c-.6-.1-1.1-.2-1.6-.5-.4,0-.7-.1-1-.2h-.3c-.2,0-.4,0-.7-.1v-.2h-.4c-.7-.1-1.4-.3-2.1-.5v-.2h-.2c-.8-.1-1.5-.4-2.2-.6v-.2h-.3c-.8-.2-1.4-.4-1.7-.6l-1-.5c-.6-.2-1.1-.4-1.6-.7-.2,0-.4-.2-.7-.3v-.2h-.2c-.4-.2-.9-.4-1.3-.5v-.2c-.1,0-.3-.1-.5-.1-.9-.3-1.7-.7-2.5-1.2v-.2c-.2,0-.3-.1-.5-.1-.7-.2-1.4-.6-2.1-1-.2-.1-.5-.3-.7-.4-.1,0-.2-.1-.4-.2-.7-.4-1.5-.7-2.2-1.1v-.2c-.1,0-.3,0-.5-.1-.6-.2-1.1-.5-1.7-.7-.9-.5-1.9-.8-2.8-1.1l-1.4-.6c-1.1-.4-2.3-.7-3.5-.8h-.3c-1.3,0-2.6,0-3.8.2h-1.1v.2h-.2l-1,.3c-.1,0-.2,0-.4.1-.8.2-1.5.5-2.2.9-.4.2-.6.2-1,.2v.2c-.4.2-.7.4-1.1.5-.1,0-.2.1-.3.1s-.2.1-.3.1-.2,0-.3.1c-.2,0-.3.1-.5.1,0,.1,0,.2-.1.4-.2.1-.5.2-.7.3-.4.1-.8.3-1.2.5-.2.1-.4.2-.7.2v.2c-.2.1-.5.2-.7.4s-.4.2-.6.3c-.6.3-1.1.6-1.7.7v.2s-.1,0-.2.1c-.1,0-.2.1-.3.1s-.2,0-.3.1c-.7.4-1.5.7-2.2,1.1-.1,0-.2.1-.3.1l-1.1.6c-.4.2-.7.4-1.1.5l-2.4,1-4.3,1.7c-.1,0-.2,0-.3.1-.5.2-.9.3-1.4.2v.2h-.3l-1.2.3c-.1,0-.3,0-.4.1-.1,0-.3,0-.4.1-.1,0-.2,0-.4.1-.3,0-.5.2-.7.2-.8.2-1.6.3-2.5.4h-.3c-2,.2-3.9.2-5.8.2h-.4c-1.8,0-3.6-.1-5.4-.3-.4,0-.9,0-1.2-.1-1.1-.1-2.2-.4-3.3-.7l-1.3-.3v-.2h-.4c-.7-.1-1.4-.3-2.1-.5v-.2h-.2c-.9-.1-1.6-.4-2.4-.7-.15-.025-.29-.095-.4-.2l-2.7-1.2v-.2c-.1,0-.2,0-.4-.1-.8-.3-1.2-.5-1.4-.8v-.2h.5v-.2l1.6-.4s0,.2.1.2c.3.1.6.2,1,.2s.4,0,.5.1h.3l1.2.3v.2h.5c.9,0,1.6.3,2.5.5.2,0,.4.1.6.1h.3c.8.2,1.5.3,2.3.4h.4c.2,0,.5,0,.8.1.3,0,.6,0,.9.1,1.8.2,3.6.2,5.5.2h3.5v-.2h1.4c.5,0,.9-.2,1.3-.4.5-.2,1.1-.3,1.6-.4h.4c.7-.2,1.5-.3,2.2-.5v-.2h.2c.4-.1.7-.3,1.1-.4.1,0,.2-.1.4-.1l2.2-.9c.2,0,.4-.2.6-.2,0,0,.2,0,.3-.1.2,0,.4-.2.6-.2.5-.2,1-.4,1.4-.7l1.3-.6c.5-.2.9-.4,1.3-.7.6-.4,1.5-.9,2.2-.9v-.2s.2,0,.2-.1c.5-.2,1-.4,1.5-.7.5-.2.9-.4,1.4-.5v-.2c.1,0,.3-.1.4-.1.2,0,.4-.1.5-.2,0,0,.2,0,.2-.1.4-.1.7-.3,1.1-.5.2-.1.4-.2.7-.2v-.2c.1,0,.3-.1.5-.1s.4-.1.6-.2c.1,0,.2,0,.3-.1.5-.2.9-.4,1.4-.7.3,0,.5-.1.8-.1v-.2c.1,0,.2,0,.4-.1.2,0,.3-.1.5-.2s.3-.1.5-.2c.3-.1.6-.2.9-.4.4-.2.9-.4,1.3-.5.1,0,.3-.1.5-.1.3,0,.6-.1.8-.1v-.2h.2c.1,0,.2,0,.4-.1.1,0,.2,0,.4-.1.2,0,.5-.1.7-.2l1.7-.5,1.2-.3c3.5-1.1,8.1-.7,11.6.3h0l-1.1.9Z" style="fill:#cfd1d2;"/><path d="M86.1,188.9v.3c0,.5.2.6.6.9.2.1.4.2.5.4.4.2.7.5,1,.7.5.4,1,.7,1.5,1,.2.1.4.2.5.3.1,0,.2.1.3.2,0,0,.2.1.2.2.2.1.5.2.7.2v.2h.2c.6.2,1.2.4,1.7.7.7.3,1.4.6,2.1.6h0c0,.1-1.6.4-1.6.4.1.5.2,1.1.4,1.6,0,.1,0,.3.1.5,0,.1,0,.3.1.4,0,.1,0,.2.1.4.1.4.2.8.4,1.2,0,.2.1.5.1.7v1.4c-1,.4-2.1.7-3.1.9l-2.4.7c-.5.1-.9.2-1.4.2,0,.9.1,1.6.3,2.5,0,.1,0,.3.1.4,0,.4.1.7.2,1h1.3v-.2c.4-.2.7-.3,1.2-.3h1.8c.2,0,.4,0,.7.3s.4.4.4.6c0,0,0,.2-.1.2s-.2-.2-.4-.2c0,.1,0,.3-.1.4-.1.5-.4.9-.7,1.3h-.2c0,.1,0,.2-.1.4,0,.3-.2.6-.4.8h-.2v.3c-.2.5-.5.9-.9,1.4-.5.7-.9,1.4-1.3,2.2-.3.6-.7,1.2-1.1,1.8-.2.2-.3.5-.4.7l-.6.9c-.3.4-.5.8-.7,1.3-.211.412-.445.813-.7,1.2-.4.5-.6,1.1-.9,1.6h-.2v.3c0,.4-.2.6-.4,1,0,.1-.1.2-.2.4,0,.1-.1.2-.2.4,0,.1-.1.2-.2.4l-.6,1.1-2.3,4.1-.9,1.6c0,.1-.1.2-.2.4s-.2.5-.4.7c-.5.8-.9,1.7-1.2,2.6h.2c0,.2,0,.4-.1.5v-.4c-.1,0-.2,0-.4-.1v-.2h-.2c0-.3,0-.6-.1-.9h-.2c0-.2,0-.4-.1-.6h-.2v-.2h-.4c-.1-.4-.2-.7-.4-1.1,0,0,0-.2-.1-.3-.2-.5-.3-1-.4-1.5h-.2c0-.2,0-.5-.1-.8h-.2c0-.3-.2-.5-.2-.8,0-.1,0-.3-.1-.5,0-.3-.1-.5-.1-.8h-.2c0-.3-.2-.6-.2-.9v-.2c-.1-.5-.2-1-.2-1.5h-.2c0-.4-.1-.7-.2-1v-.3c0-.4-.1-.7-.2-1v-.5c-.2-1.6-.2-3.2-.2-4.8v-1.4c0-2.5.2-4.9.7-7.4h.2v-.2c0-.8.2-1.6.5-2.4h.2v-.4c0-.6.3-1.2.5-1.9h.2v-.8c0-.2.1-.4.2-.5h.2v-.3c.1-.6.4-1.2.6-1.8h.4v-.4c0-.3.1-.5.2-.7h.4c0-.2,0-.5.1-.8h.2v-.5h.2v-.4h.4v-.5c.1,0,.2,0,.4-.1,0-.1,0-.2.1-.4h.2c0-.2,0-.5.1-.8h.5v-.5c.2-.2.4-.4.6-.5,0-.1,0-.2.1-.4.1-.1.3-.2.5-.4.6-.5,1.2-1.1,1.8-1.7l.3-.3.3-.3.3-.3c.1-.1.3-.3.4-.5.2-.1.4-.2.6-.4.1,0,.2-.2.4-.3.2-.2.4-.2.6-.2h-.2l.1-.3Z" style="fill:#f1429d;"/><path d="M113.4,182v.2h.3c1,0,2,.2,3,.5v.2h.5v.2h.4c.4,0,.7.1,1,.2v.2h.3c.1,0,.3,0,.4.1.1,0,.3,0,.4.1.4.1.6.3.9.6.2,0,.4.2.6.2s.4.1.5.2v.2h.2c.6.2,1.2.4,1.7.9l.4.2,1.1.6c.1,0,.2.1.4.2,0,0,.2.1.2.2v.2c.1,0,.2,0,.4.1.6.2,1,.5,1.5.9l.3.3.2.2c-.2.5-.4.6-.9.9-.2.1-.4.3-.6.4-.7.6-1.5,1.1-2.4,1.6,0,0-.2.1-.2.2-.4.2-.7.4-1.2.5v.2c-.1,0-.2,0-.3.1-.3,0-.5.2-.8.4-.2.1-.5.2-.6.2v.2c-.3.1-.6.2-.9.4l-.6.3-2.1.8c-.3.1-.6.2-.9.4-.3.1-.5.2-.8.2v.2c-.3,0-.6.2-1,.2h-.3c-.4.1-.8.2-1.2.2v.2l-1.5.3c-.1,0-.3,0-.4.1-.1,0-.3,0-.4.1h-.4c-.2.1-.5.1-.9.1v.2h-2c-.3,0-.5,0-.8.1h-1.3c-.4-.5-.4-1-.4-1.7-.1-.4-.2-.7-.5-1.1,0-.4-.1-.7-.1-1h-.2c0-.2,0-.4-.1-.6v-1.4l-2.9.7c-.3.1-.6.1-.9,0v.5h.2v.2c0,.4.2.7.2,1.1v.4c.1.6.3,1.1.5,1.7.2.5.3,1,.4,1.5v.7l-.9.3s-.2,0-.2.1c-.6.2-1.1.2-1.7.2-.3-.7-.5-1.3-.6-2-.1-.6-.2-1.2-.5-1.7-.2-.7-.3-1.4-.4-2.1-.1,0-.2,0-.3.1-1.6.5-2.5.5-4.1-.2-.1,0-.2-.1-.3-.2-.3-.2-.6-.3-.9-.4-.1,0-.3-.1-.5-.2v-.2h-.2c-.5-.1-1-.5-1.4-.7-.256-.133-.492-.301-.7-.5-.5-.3-1-.7-1.5-1.1-.2-.1-.4-.3-.6-.5-.4-.2-.7-.5-1-.8,0-.5.1-.6.4-1,.1,0,.2-.2.4-.3.1-.1.2-.2.4-.3.2-.2.5-.2.7-.2,0-.1,0-.2.1-.4.2-.1.4-.2.6-.4.6-.4,1.2-.7,1.9-1.1.3-.2.6-.2,1-.3v-.2c.1,0,.2-.1.4-.1s.3-.1.5-.2c0,0,.2,0,.2-.1l1.4-.6,1.4-.5.8-.3c.5-.2,1-.2,1.6-.3v-.2l1.6-.3c.1,0,.3,0,.4-.1.8-.1,1.5-.3,2.3-.2v-.2c3.8-.5,7.7-.4,11.5.1v.2l-.2.7Z" style="fill:#f954a1;"/><path d="M203.5,277.3c.1,0,.2,0,.4.1l-1.9,2.2c-.1.1-.3.3-.4.5-.5.6-1,1.1-1.6,1.6h-.2s0,.1-.1.2c-.2.3-.3.5-.6.7,0,0-.2.1-.2.2-.1,0-.2.1-.3.2-.1,0-.2.1-.3.2l-2.1,1.6c-.1.1-.3.2-.5.3-2,1.4-3.2,2-3.6,2v.2c-.5.2-1,.4-1.6.5v.2c-.6.3-1.2.6-2,.6,0,.1,0,.2-.1.4-.2,0-.5.2-.8.2l-1.9.7c-.2,0-.4.1-.6.1v.2l-2.2.7-.9.3c-.5.2-.9.3-1.4.4l-1.1.3-2.3.5c-.6.1-1.1.2-1.6.4-1.2.3-2.4.5-3.6.5v.2l-4.6.5h-1.1l-4.2.1v.2h-10.9c-2,0-3.9,0-5.8-.1v-.2h-1.3c-.6,0-1.1,0-1.7-.1-.6,0-1.3-.1-2-.1l-6.6-.6v-.2h-.2c-.9,0-1.8,0-2.7-.2h-.4c-.4,0-.7-.1-1-.1v-.2h-.5c-.7,0-1.5-.1-2.2-.2h-.4c-.3,0-.7-.1-1-.1v-.2h-.3c-1.1,0-2.1-.2-3.1-.4h-.4c-.8-.1-1.5-.2-2.3-.5,0,0,0-.2-.1-.2.4,0,.8,0,1.2-.1v-.2c.3,0,.6-.2.9-.2h.2c.5-.1.9-.2,1.4-.2v-.2h.2c.4-.1.8-.2,1.2-.4.1,0,.2,0,.4-.1.8-.2,1.5-.5,2.3-.8l1.4-.5h.3l2.1-.5v-.2c.1,0,.3,0,.5-.1.2,0,.4-.1.6-.2h.3l1.6-.6h.4v-.2c.2,0,.5-.2.7-.2.1,0,.3-.1.4-.1.3,0,.5-.1.8-.1v-.2c.3,0,.6-.2.8-.2s.3,0,.5-.1c.1,0,.4,0,.6-.1v-.2s.1,0,.2-.1c.6-.3,1-.5,1.4-1.1.1-.5.1-.9.1-1.4v-1s.2,0,.2.1v1.2c0,.5,0,.9-.3,1.4.1,0,.2,0,.3.1.7.2,1.4.5,2.1.8.6.2,1.2.5,1.9.6v.2h.2c.8.1,1.5.3,2.2.6,3.6,1.4,7.5,2.2,11.3,2.7.3,0,.6.1,1,.1,4.1.6,8.4.7,12.6.4h.2c1.3-.1,2.6-.3,3.8-.6.2,0,.5-.1.8-.1.2,0,.5,0,.7-.1h.4c.6-.1,1.1-.2,1.6-.5.4,0,.7-.1,1.1-.2,1.6-.4,3.2-.9,4.8-1.4l.9-.3c.4-.1.7-.2,1-.4.4-.1.7-.2,1-.4,1.2-.4,2.5-.9,3.7-1.4.4-.2.9-.4,1.3-.6.2,0,.3-.1.5-.2.3,0,.5-.1.8-.1v-.2c.3-.1.6-.2.8-.3.1,0,.3-.1.5-.2.3,0,.5-.1.6-.1v-.2s.2,0,.2-.1c1-.4,1.9-.8,2.7-1.3.5-.2.9-.5,1.4-.5v-.2l.6-.3c.1,0,.2-.1.4-.2.2,0,.4-.1.6-.1v-.2c.1,0,.2-.1.3-.1.15-.025.29-.095.4-.2.1-.1.3-.1.4-.2.3-.1.5-.3.7-.4l.2-.2.2-.2-.3-1Z" style="fill:#70bf4b;"/><path d="M134.3,279.9c-.4.3-.8.5-1.3.6,0,0-.2,0-.2.1l-2.5,1s-.2,0-.3.1c-.2.1-.5.2-.8.3-.1,0-.3.1-.5.2s-.3.1-.5.2c-.1,0-.3.1-.5.2-.3,0-.6.1-.9.1v.2c-.3,0-.6.2-1,.2h-.3c-.4.1-.7.2-1.1.2v.2c-.2,0-.5.1-.7.2-.1,0-.2,0-.4.1-.4,0-.7.1-1,0v.2h-.2l-1.1.3c-.1,0-.2,0-.4.1l-2.1.6c-.3.1-.6.1-.9,0v.2h-.3l-1.2.3c-.1,0-.3,0-.4.1-.6.1-1.1.3-1.7.5-.4.2-.7.2-1.1.3-.4,0-.7.1-1,.2l-1,.3h-.8c-1.1.2-2.1.5-3.2.8-.5.1-.9.1-1.3.1v.2c-1.2.3-2.4.5-3.7.7-.6.1-1.2.2-1.8.4-.7.2-1.4.3-2.1.4l-3.6.6h-.4c-.3,0-.6.1-.9.2l-5,.7c-.4,0-.9.1-1.3.1-.3,0-.5,0-.8.1h-.7c-.2,0-.4,0-.5.2-.2,0-.5,0-.7.1h-1l-2.8.3-2.9.3h-.5c-.5,0-1.1.1-1.6.1h-.3l-7.2.5h-3.3l-8.6.1h-.3c-3,0-6,0-9-.1h-.5c-2.3,0-4.6-.3-6.9-.5v-.2h-.4c-1.9,0-3.2-.3-3.6-.6-.5-.3-.7-.4-.7-.1h-1.2c-.4,0-.7-.1-1-.2v-.2h-.3c-.7-.1-1.5-.2-2.2-.5v-.2h-.4c-1-.1-1.9-.5-2.8-.9-.4-.2-.9-.4-1.3-.5v-.2h-.3c-.4,0-.8-.2-1.2-.4v-.2c-.2,0-.3,0-.5-.1-.6-.2-1.2-.5-1.8-.9-.3-.1-.6-.3-.9-.4v-.2c-.1,0-.2,0-.3-.1-.5-.2-.9-.4-1.4-.7,0,0-.1-.1-.2-.1-.2-.1-.4-.2-.6-.4v-.2c-.1,0-.2,0-.3-.1-1.1-.5-2-1.4-2.8-2.1l-.2-.2c-.6-.6-1.2-1.1-1.7-1.8.6,0,1.1.3,1.6.6.2,0,.4.2.6.2.1,0,.2,0,.3.1,2.1.9,4.2,1.6,6.4,2.2h.3c2.4.7,4.7,1.3,7.1,1.6.4,0,.8.1,1.2.2l1.4.3h1c.4,0,.7.1,1,.1h.5c.2,0,.4.1.5.2.2,0,.4,0,.7.1h1.4c.4,0,.7,0,1,.1.5,0,1,.1,1.5.2l5.6.6c.4,0,.8,0,1.2.1.7,0,1.4.1,2.1.2h.9c4.5.4,9,.4,13.5.4h2.4c4.5,0,8.9,0,13.3-.3h.7l4-.3c.6,0,1.2-.1,1.9-.1,1.8-.1,3.6-.3,5.4-.5,1.4-.2,2.8-.3,4.2-.5.8,0,1.5-.2,2.3-.3l2.1-.3c1.9-.2,3.8-.5,5.7-.8.4,0,.7-.1,1-.2.7-.1,1.4-.2,2.1-.4.3,0,.6-.1.8-.1,1.4-.2,2.7-.5,4.1-.7l1.9-.3c.4,0,.8-.1,1.2-.3.7-.2,1.4-.3,2-.4.3,0,.5-.1.8-.1h.4c.2,0,.3,0,.4-.2.2,0,.4,0,.6-.1h.8c.9-.1,1.9-.3,2.8-.6.6-.1,1.2-.3,1.9-.4.5-.1.9-.2,1.4-.4l1.5-.3c.6-.1,1.2-.3,1.8-.5.4-.1.7-.2,1.1-.3h.3c.5-.1.9-.2,1.3-.2v-.2c.5-.1.9-.1,1.4-.1h.2l-.4.9Z" style="fill:#70bf4b;"/><path d="M108.6,140.6v.2h.2c.9,0,1.9.2,2.7.7.5.3,1,.5,1.6.7,1,.4,2,.9,2.9,1.5.4.2.9.4,1.4.6v.2h.2c.1,0,.2,0,.3.1.1,0,.2,0,.3.1.2,0,.4.1.5.2v.2h.3c.4.1.8.3,1.2.5v.2h.3c.4,0,.6.2,1,.4.1,0,.2.1.4.2.1,0,.2.1.4.2,1.2.7,2.5,1.3,3.8,1.9.3.1.5.2.8.4l1.4.6c.3.1.6.3.9.5.7.4,1.4.6,2,.9.3.1.6.2.9.4l2.4.9c.4.1.8.3,1.2.5,1.6.6,3.2,1,4.8,1.3.1,0,.3,0,.4.1,2.2.5,4.4.6,6.7.7h.9l2.2.1v1.2h-.2v.3c0,1.2-.2,2.4-.4,3.6v.5c-.1.8-.2,1.6-.5,2.4-.1-.428-.1-.872,0-1.3v-.7h-.2c-1.5.2-3,.2-4.4,0h-.3c-.6-.1-1.1-.2-1.6-.5-.5-.2-.9-.2-1.4-.4l-2.1-.6c-.6-.2-1.2-.5-1.9-.6-1-.3-1.9-.7-2.9-1.2-.6-.3-1.3-.5-2-.7-.5-.2-1-.4-1.5-.7-.1,0-.2,0-.4-.1v-.2c-.1,0-.3,0-.5-.1-.5-.1-.8-.3-1.2-.5s-.9-.4-1.3-.5v-.2c-.1,0-.3,0-.5-.1-.5-.1-.8-.3-1.2-.5-.3-.1-.6-.2-.9-.4-.2,0-.4-.2-.5-.2v-.2c-.2,0-.3,0-.5-.1-.4-.1-.7-.2-1.1-.4v-.2h-.2c-.5-.1-1-.4-1.4-.6v-.2h-.3c-.4-.1-.8-.3-1.2-.5v-.2c-.4-.1-.8-.2-1.2-.4v-.2h-.3c-.5-.1-.9-.4-1.3-.6v-.2h-.2c-1.1-.3-2.3-1.2-3.2-1.9-.4-.3-.7-.5-1.1-.6-.4-.2-.8-.4-1.2-.7-.4-.2-.7-.4-1.2-.5-.2,0-.3-.1-.5-.2-1.7-.8-4.6-.4-6.4.1-.1,0-.2.1-.4.1,0,.1,0,.2-.1.4-.2,0-.3.1-.5.1h-.5v.2c-.2,0-.3.2-.5.2-.1,0-.2.1-.3.1-.2,0-.3.1-.5.1v.2c-.2,0-.3.2-.5.2-.1,0-.2.1-.3.1-.2,0-.3.1-.5.1,0,.1,0,.2-.1.4-.2,0-.3.2-.5.3s-.3.1-.3.1c0,0-.2,0-.5.1v.2c-.3.2-.6.4-1,.5h-.3c-.5.4-.8.5-1,.5v.2c-.2.1-.5.2-.8.4-.15.025-.29.095-.4.2-.2.1-.5.2-.6.2v.2l-.6.3c-.15.025-.29.095-.4.2-.3.2-.7.3-1,.5-.2.1-.4.2-.5.3,0,0-.2,0-.3.1l-1.6.9c-.2.1-.5.2-.8.3-.1,0-.3,0-.5.1,0,.1,0,.2-.1.4-.2,0-.5.1-.7.2-.1,0-.2,0-.4.1h-.3v.2c-.1,0-.2,0-.3.1-.9.3-1.7.7-2.5,1.1l-1.3.6c-.4.1-.7.3-1.1.5-1.1.5-1.9.7-2.2.7v.2c-.2,0-.5.2-.7.2-.1,0-.3.1-.4.1-.3,0-.5.1-.8.1v.2c-.2,0-.4.1-.6.2-.1,0-.2,0-.4.1h-.7v.2c-.6.2-1.1.4-1.7.5h-.3c-.3,0-.6.2-.9.2h-.3l-1.3.3c-.3,0-.6.1-.8.3-.4,0-.7.1-1.1.2h-.3c-1.4.2-3.1.4-4.5,0,0,.1,0,.2-.1.4v-.4l-.5-3c0-.2,0-.3-.1-.5,0-.2-.1-.5-.2-.7-.1-.6,0-1.2,0-1.8l3.1-.2c1.2,0,2.3-.1,3.5-.2.6,0,1.2-.1,1.7,0v-.2h.3c.5,0,.9-.2,1.4-.2h.5c.9-.1,1.6-.3,2.4-.6.2,0,.4-.1.6-.1.4,0,.6-.2,1-.3.7-.3,1.4-.4,2-.5v-.2c.2,0,.5-.2.7-.2.1,0,.3-.1.4-.1.3,0,.5-.1.8-.1v-.2c.1,0,.3-.1.4-.1.2,0,.4-.1.5-.2.1,0,.2,0,.3-.1l1.9-.7h.5v-.2s.1,0,.2-.1c.6-.2,1.2-.5,1.7-.8l1.5-.6v-.2c.2,0,.4-.2.6-.2s.2-.1.4-.1.4-.1.6-.1v-.2c.15-.025.29-.095.4-.2l1.9-1c.1,0,.2-.1.3-.2,0,0,.2-.1.3-.2.1,0,.2-.1.3-.1.2-.1.4-.2.6-.4h.5v-.2c.15-.025.29-.095.4-.2l2.8-1.5c.2,0,.4-.2.6-.2s.3-.1.4-.2c.3-.3.6-.4,1-.5.4-.2.8-.3,1.2-.5.6-.3,1.4-.6,2.1-.6v-.2c1.7-.6,3.3-.6,5.1-.5h.1v-.3Z" style="fill:#cfd1d2;"/><path d="M109,5.4h5.1l3.3.1v.2h.3c1.2,0,2.5.1,3.7.2h.6l2.5.3v.2h.4c1.1,0,2,.2,3.1.5.6.1,1.2.3,1.7.4l2.7.7,1.2.3c.5.1,1,.3,1.5.5.6.2,1.1.4,1.7.5v.2h.4c1.1.2,2.2.5,3.2,1,.2,0,.4.1.5.2l1.4.6,1.9.9c.3.1.5.2.8.4.2,0,.4.2.6.2l4.5,2.2c.3.1.5.3.8.4l2.8,1.5v.2c.1,0,.2,0,.4.1.3.1.6.2,1,.4v.2c.1,0,.2,0,.4.1.5.2.7.4,1.1.7.1,0,.2.1.4.2.5.3,1,.7,1.4,1,.2.1.4.2.5.4l.2.2c.2.1.4.3.6.4v.2h-.3c-.7.1-1.3.3-2,.5-1.4.5-2.4.7-3.1.6-.7,0-.9-.3-.8-.5v-.2c-.1,0-.2,0-.3-.1-.6-.2-.9-.5-1-.7-.2,0-.3-.2-.5-.3-.1,0-.2-.1-.3-.1,0,0-.1,0-.2-.1v-.2h-.3c-.346-.064-.662-.24-.9-.5-.5-.3-1-.5-1.6-.8-.1,0-.2-.1-.4-.2-.7-.4-1.5-.7-2.3-1-.2-.1-.5-.2-.7-.3-2.1-.9-4.2-1.6-6.4-2.3-.2,0-.5-.2-.8-.2-1.1-.4-2.2-.6-3.4-.9-.5-.1-1.1-.2-1.6-.4-5.6-1.6-11.5-2.2-17.3-2.8h-.4c-2.6-.2-5.1-.4-7.7-.4h-1.3c-2.3,0-4.6.1-6.9.3h-.5c-1.1.1-2.2.3-3.3.5l-2,.3c-2.6.4-5.3,1-7.9,1.5h-.4c-.2,0-.5.1-.7.2h-.9c0-.2,0-.3.1-.5.2-.1.5-.2.8-.2l.2-.2c.3-.3.7-.5,1.1-.7,0,0,.1,0,.2-.1.4-.2.9-.4,1.4-.5v-.2s.2,0,.3-.1c.8-.3,1.6-.7,2.4-1.1.7-.4,1.5-.7,2.3-1,.1,0,.3-.1.5-.2.4-.2.8-.3,1.2-.5.7-.2,1.4-.5,2-.8.5-.2,1-.4,1.5-.5h.3c.5-.1.9-.2,1.4-.2v-.2c1.1-.2,2.1-.4,3.2-.5h.5c.8-.1,1.6-.1,2.5-.1v-.2c1.2-.1,2.4-.1,3.6-.1h0v.4Z" style="fill:#d6ec76;"/><path d="M141.4,235c.7.4,1.2.7,1.6,1.4.3,1.8-.7,3.5-1.7,4.9-.5.7-1.1,1.4-1.7,2.1-.2.2-.4.5-.6.7l-.6.6c-.7.6-.8,1.4-1,2.2-.6,2.4-1.6,5-3.5,6.8l-.3.3-.4.4-.2.2c-.5.6-1.1,1-1.8,1.5l-.2.1c-.4.2-.7.4-.9.4v.2c-.2.1-.5.2-.7.3-.15.025-.29.095-.4.2-.3,0-.5.1-.8.1v.2c-.1,0-.2,0-.4.1-.173-.016-.346.019-.5.1-.173-.016-.346.019-.5.1-.2,0-.4.1-.8.3-.5.2-1,.2-1.5.3h-.3c-1.5.2-3,.3-4.6.3h-.3c-2,0-4-.2-5.9-.7v-.2h-.3c-.6-.1-1-.4-1.5-.7-.1,0-.2-.1-.4-.2-.6-.6-1.2-1.5-1.2-2.4v-.3c0-.9.1-1.5.5-2.3,0,0,0-.1.1-.2.4-.7.9-1.2,1.5-1.8l.2-.2c.6-.6,1.3-1.2,2.1-1.6,0,0,.1-.1.2-.1,1.9-1.1,3.8-2.1,5.9-2.7.1,0,.3,0,.4-.1,1.9-.5,3.8-1,5.7-1h.3l3.7.1h.3c.5,0,1,.2,1.5.4,1.3.4,2.5.4,3.8,0,.5-.4.8-.8,1-1.4v-2.4s.1-.2.2-.2c.5-.6,1-1.2,1.4-1.9,0-.1.1-.2.2-.3.5-.6.9-1.3,1.4-2l1-1.5h0v-.1ZM72.9,235c.1.2.2.4.4.7l1.5,2.5s.1.1.1.2c.2.2.3.5.5.7l.2.2c.3.5.7.8,1.1,1.2.3.3.4.5.4.9-.001.743-.102,1.483-.3,2.2h.2c0,.1,0,.2.1.4.271.487.692.872,1.2,1.1,1.2.3,2.5,0,3.6-.4,3.8-1.1,8.7-.4,12.3,1,.2,0,.4.1.6.2,3.4,1.1,7.4,3.5,9.1,6.8.2.5.2,1,.2,1.5v.3c0,.8-.1,1.4-.6,2.1,0,.1-.1.2-.2.4-1.5,1.5-3.4,1.9-5.4,2.1h-.3c-1.1.1-2.2.1-3.4.1h-.3c-2.3,0-4.4-.2-6.6-1l-.9-.3c-.1,0-.3,0-.4-.1-.1,0-.2,0-.3-.1v-.2h-.3c-.5-.1-.9-.3-1.3-.5v-.2c-.1,0-.2,0-.4-.1-.5-.2-.8-.4-1.2-.7-.1-.1-.3-.2-.4-.3-.1,0-.2-.2-.4-.3-.1,0-.2-.2-.2-.2-.7-.6-1.3-1.2-1.8-2,0,0-.1-.2-.2-.2-.5-.6-.9-1.3-1.3-2l-.1-.2c-.4-.6-.6-1.3-.8-2,0-.2-.2-.5-.2-.7l-.3-1.2c-.2-1.2-.8-1.9-1.8-2.6-1.7-1.5-3.6-4.1-3.8-6.4,0-.7,0-1.2.4-1.8.5-.5.9-.8,1.2-.8h0l.1-.3Z" style="fill:#f0a571;"/><path d="M34,94.5v.2c.2,0,.5.2.8.2v.2h.3c.6.2,1.1.4,1.3.6.1.6.2,1.2.2,1.8v1.5c0,.5,0,1.1.1,1.6v1.6h.2l.1,2.1c-.4-.2-.7-.4-1.1-.7-1.1-.7-2.1-1.4-3.3-1.9-.1,0-.2-.1-.4-.2-1-.5-2-.7-3.1-.4-.3.2-.5.3-.7.6l-.2.2c-.4.5-.4,1.2-.3,1.8.3.7.7,1.3,1.4,1.6l.8.3c.4.1.8.3,1.1.4.1,0,.2.1.4.1.4.2.7.4,1,.7.1,0,.2.1.3.2.4.2.7.6,1.1.9l.2.2,1.2,1.2.3.3c.5.5,1.1,1.1,1.4,1.8,0,.2.2.3.3.4.3.3.5.7.7,1.1l.1.2c.8,1.4,1.2,2.3,1.2,2.7h.2v.2l.3,1c0,.1,0,.2.1.3l.5,1.6.5,1.7c0,.2.2.4.4.6s.2.3.2.5c.1.4.3.9.5,1.2.2.5.4.9.5,1.4,0,.1,0,.2.1.3,0,.2.2.4.2.7.2.6.5,1.2.8,1.8.2.4.3.7.4,1.1-.7,0-1.3-.2-1.9-.4h-.3c-1.6-.5-3-1.2-4.5-2-.2,0-.4-.2-.5-.2v-.2c-.1,0-.3,0-.4-.1-.5-.1-.8-.4-1.1-.7-.2-.2-.5-.4-.8-.5-.5-.4-1-.7-1.4-1.2-.2-.1-.3-.3-.5-.4-.4-.4-.9-.8-1.2-1.2l-.5-.5c-2.5-2.6-3.7-4.4-3.7-5.4h-.2l-.6-1.2c0-.1-.1-.2-.2-.3-.4-.7-.6-1.4-.7-2.2h-.2c0-.1,0-.2-.1-.3,0-.1-.1-.3-.1-.4s-.1-.3-.1-.5l-.3-1c-.8-2.5-1.1-5.1-1-7.7v-.3c.1-2,.6-4.2,2.1-5.6.8-.7,1.5-1.1,2.5-1.5.2,0,.5-.2.8-.3,1.5-.6,3.2-.1,4.7.3h.1v.1Z" style="fill:#eea370;"/><path d="M183.2,94h.3c.5,0,1,0,1.5.1v.2h.5c1.4.3,2.7,1.3,3.6,2.4.2.5.4.9.5,1.4,0,.1.1.3.1.4.4,1.4.5,2.6.5,4v.2c0,1.6,0,3.3-.4,4.9h-.2v.2c0,1-.4,2-.6,2.9h-.2v.3c-.1.8-.3,1.4-.7,2.1-.1.3-.2.6-.4.9h-.2v.3c-.3,1.3-1.4,2.6-2.2,3.6,0,0-.1.2-.2.2-2.1,2.9-4.8,5.3-7.9,7.1h-.2c0,.1,0,.2-.1.4-.2,0-.4.2-.6.2-.4.1-.8.3-1.2.5-.5.3-1.1.5-1.7.7-.1,0-.2,0-.3.1-1.5.6-2.5.9-3,.9,0-.6.1-1,.5-1.4,0-.2.1-.4.2-.6.2-.7.5-1.3.8-1.9.2-.4.4-.9.6-1.4.1-.2.2-.5.3-.7.6-1.4.9-2.8,1.3-4.2h.2c0-.4.2-.9.2-1.3h.2v-.2c.121-.547.288-1.082.5-1.6h.2v-.2s0-.2.1-.3,0-.2.1-.3c.2-.5.4-.8.6-1,0-.2.2-.4.2-.5,1.4-2.9,4.1-5.5,7.1-6.8,0,0,.2,0,.2-.1.524-.274,1.109-.411,1.7-.4v-.2c.5-.4.8-.6,1-.6v-1.3c0-.6,0-1-.4-1.5-.1,0-.2-.2-.4-.2v-.2c-1-.2-2.1-.2-3.1,0v.2c-.1,0-.2,0-.3.1-1.6.6-2.9,1.4-4.2,2.5-.2.1-.4.2-.5.2v-.6c.2-.2.4-.5.6-.6v-.2h.4v-.5c.1-.7.4-1.3.7-2,.2-.6.4-1.1.5-1.7h.2v-.4c.2-.9.4-1.7.7-2.5l.3-.9c.1-.3.3-.5.6-.7.6-.2,1.2-.1,1.7-.1h.1l.2.1Z" style="fill:#efa470;"/><path d="M28.1,240.8c.3.2.6.6.8.9.1.2.3.4.5.5.054.108.121.209.2.3,1.9,2.3,4.3,4.5,6.8,6,.1,0,.3.2.4.3v.2c.1,0,.2,0,.4.1.5.2.7.4,1.1.7.4.2.7.4,1,.5v.2h.3c.5.2,1,.5,1.5.8l1.2.6v.2h.2c.583.19,1.152.424,1.7.7l1.6.7c.3.1.6.3.9.5l1.6.6c.5.2,1,.4,1.5.5,0,0,.2,0,.2.1.4.1.8.3,1.2.5.5.2,1,.4,1.5.5h.3c.2,0,.4.1.6.2v.2c.4,0,.7,0,1,.1v.2l-4.6.7c-.3,0-.6,0-.9.1h-.5c-.4,0-.7.2-1.1.3-.2,0-.5,0-.7.1h-.4c-.3,0-.5,0-.8.1h-.8c-.262.012-.511.118-.7.3-.149.176-.402.218-.6.1h-.4c-.2,0-.5,0-.7.1-.7.1-1.2.3-1.7.7v-.4h-.3c-.1,0-.3,0-.4-.1-.1,0-.3,0-.4-.1-.4-.1-.8-.3-1.2-.5-.5-.3-1.1-.5-1.6-.8-.1,0-.2-.1-.4-.2-.3-.1-.6-.2-.8-.4v-.2c-.1,0-.2,0-.4-.1-.5-.1-.9-.4-1.4-.7-.1-.1-.3-.2-.4-.3-.1,0-.2-.1-.4-.2,0,0-.2,0-.2-.1v-.2c-.1,0-.2,0-.3-.1l-1.1-.6c-.1-.1-.2-.2-.4-.3l-4.1-3.3c-.3-.2-.6-.5-.9-.7-.6-.5-1.2-1.1-1.7-1.6l-.3-.3-1.6-1.7c-.4-.5-.8-.9-1.2-1.3-.8-.9-1.2-1.4-1.2-1.7-.3,0-.6,0-.9.1,1.2-1,2.8-1.5,4.2-2.1.1,0,.2-.1.4-.1.8-.4,1.7-.6,2.5-.9.1,0,.2-.1.4-.1.4-.1.7-.2,1.2-.1h0l.3.5Z" style="fill:#70bf4b;"/><path d="M159,27.2c0,.2.2.5.2.8-1,.5-1.8.9-2.9,1v.2c-.2,0-.4.2-.6.2-.1,0-.2,0-.4.1-.1,0-.4,0-.9.1v.2l-1.5.6c-.15.025-.29.095-.4.2-.15.025-.29.095-.4.2-.1,0-.2.1-.4.2-.2,0-.5.1-.9.1v.2c-.2,0-.5.2-.7.2-.1,0-.2.1-.4.1s-.5.1-.7.1v.2c-.1,0-.2,0-.4.1-.1,0-.3.1-.5.2s-.3.1-.5.2c-.3.1-.5.2-.8.4-.4.2-.7.2-1.2.3v.2l-.8.3c-.1,0-.3.1-.5.2-.3,0-.5.1-.8.1v.2s-.2,0-.3.1c-1.1.5-2.2.9-3.2,1.5-.5.3-1.1.4-1.7.5v.2c-.2,0-.5.2-.7.2-.1,0-.2.1-.4.1s-.4.1-.6.1v.2c-.2,0-.5.2-.7.2-.1,0-.2.1-.4.1s-.4.1-.6.1v.2c-.2,0-.5.2-.7.2-.1,0-.2.1-.4.1s-.4.1-.6.1v.2s-.1,0-.2.1l-3.5,1.6c-.5.2-.8.4-1.3.4v.2s-.1,0-.2.1l-4.2,2.1c-.9.5-1.5.7-1.9.7v.2l-1.1.6c-.2.1-.5.2-.7.4-.5.2-.8.4-1.1.4v.2c-.2,0-.3.2-.5.2-.1,0-.2.1-.3.1-.2,0-.4.1-.6.1v.2c-.5.3-.9.4-1.2.4v.2l-.6.3c-.1,0-.2.1-.3.2-.2,0-.4.1-.7.1v.2c-.2,0-.3.2-.5.2-.1,0-.2.1-.3.1-.2,0-.3.1-.5.1,0,.1,0,.2-.1.4-.2,0-.3.2-.5.3-.1,0-.2.1-.3.1,0,0-.1,0-.2.1l.4.4c-.5,0-1-.2-1.5-.4s-.9-.3-1.4-.4l-1-.3c-.5-.2-1.1-.3-1.6-.5v-.2h-.4c-.7,0-1.3-.3-1.9-.5.4-.5.7-.6,1.3-.8.3-.1.4-.3.6-.5.5-.3.7-.4,1.3-.4v-.2c.2,0,.3-.2.5-.2.1,0,.2-.1.3-.1.2,0,.5-.1.8-.1v-.2s.2,0,.3-.1l2.6-1.2,2.5-1.2c.2-.1.5-.2.7-.4,1.3-.6,2.6-1.2,4-1.6.2,0,.3-.2.4-.4.9-.5,2-1,3-1v-.2c.1,0,.2-.1.4-.1l3.2-1.3,2.7-1.1s.2,0,.3-.1c.4-.1.7-.2,1.1-.2v-.2c.3,0,.5-.2.8-.2s.3-.1.5-.1c.3,0,.6-.1.9-.1v-.2c.2,0,.5-.2.7-.2.1,0,.3-.1.4-.1.3,0,.6-.1.9-.1v-.2h.4c1.1-.5,2.2-.8,3.3-1.3.9-.4,1.8-.7,2.7-.9.6-.1,1.2-.4,1.7-.6l1.6-.6c.2,0,.4-.1.5-.2,1.3-.5,2.6-.9,4-1.1v-.2c.7-.2,1.3-.3,1.7-.2v-.2c.2,0,.3,0,.5-.1.2,0,.4-.1.7-.2h.3l1.9-.6c.6-.2,1.2-.4,1.8-.4v-.2c.4,0,.7-.2,1-.2h.3l1-.2h0l.4.6Z" style="fill:#6fbe4a;"/><path d="M60.5,195.1c.2.5,0,.8-.1,1.3-.9,4.9-1.1,10.8-.3,15.7v.4c.2,1.1.6,1.9,1.5,2.6l.3.3c.6.5,1.2,1,1.8,1.4,0,0,.2.1.2.2.8.5,1.7.8,2.6,1.1.1,0,.2,0,.4.1v.2c.3,0,.6,0,.9.1v.2c.2,1.4.4,2.7.7,4.1v1c-.7-.2-1.2-.5-1.9-.9-.2-.1-.4-.2-.5-.3l-.2-.1c-.2,0-.4-.2-.6-.2v-.2h-.2c-.5-.1-.9-.3-1.3-.5-.2,0-.4-.2-.5-.2,0,0-.2,0-.2-.1-.9-.4-1.7-.8-2.7-1.1-.4-.1-.7-.3-1-.4-.6-.3-1.3-.5-1.9-.8-.1,0-.2,0-.4-.1-1-.4-2-.7-3-1v-.2c-.3,0-.6,0-.9-.1,0,0,.2,0,.2-.1v-2.3c0-1.9.1-3.6.5-5.3,0-.2,0-.3.1-.5.4-1.6.8-3.2,1.3-4.8h.2v-.3c0-.1,0-.3.1-.4,0-.1,0-.3.1-.4,0-.2.1-.5.2-.8h.2v-.2c0-.1,0-.2.1-.4,0-.1,0-.2.1-.4.1-.3.2-.6.4-.9h.2v-.3c.4-1.7,2-3.7,3.1-5.1h.1l.4-.3Z" style="fill:#adc352;"/><path d="M121.1,88.8v.2h.3c.7.2,1,.8,1.4,1.4.025.15.095.29.2.4l.9,1.3c.1.1.2.3.3.4,1.4,1.5,3.3,2.3,5.3,2.4,1.2,0,2.4,0,3.5-.3.2,0,.5,0,.8-.1v-.2h.2c1.8-.7,3-2,4-3.7.4-.7.8-1.4,1.6-1.7.9-.1,1.6-.1,2.3.4.4.3.5.5.6,1h.2c0,1,0,1.7-.5,2.6,0,.1-.1.2-.2.3-1.4,2.5-3.6,4.6-6.3,5.7-.2,0-.5.1-.8.1v.2c-.2,0-.4.1-.6.2-.1,0-.2,0-.4.1-2.9.6-6.5.5-9.2-.8-.1,0-.2-.1-.4-.2-.9-.5-1.7-1-2.5-1.8-.1,0-.2-.1-.4-.2-.9-.6-1.6-1.7-2.2-2.7v-.2h-.2c-.8-1.4-1.1-2.4-.9-3,.5-1.6,1.6-1.9,3.1-1.7h0l-.1-.1Z" style="fill:#040202;"/><path d="M74.7,88.8c.6.2.9.5,1.1,1.1v.4h.2s0,.1.1.2c.2.6.5,1,1,1.5.1.2.3.3.4.5,1.3,1.5,3.1,2.4,5.1,2.5,1.6,0,3.1-.1,4.7-.4v-.2s.2,0,.2-.1c1.8-.9,3-2.1,3.9-3.8.5-.8.9-1.2,1.8-1.5.7-.1,1.3,0,1.9.3.5.5.8.7.9,1.5,0,1.2-.3,1.9-1,2.9,0,.1-.2.2-.2.4-1.7,2.4-4.1,4.4-6.9,5.2-.1,0-.3.1-.4.1-1.2.4-2.4.4-3.6.4h-.5c-1.1,0-2.2-.1-3.3-.3v-.2h-.2c-.9-.1-1.6-.4-2.4-.7v-.2h-.2c-1.6-.5-3.1-2-4-3.3-.1-.2-.3-.4-.4-.6-.3-.4-.5-.8-.7-1.2-.025-.15-.095-.29-.2-.4-.4-.8-.4-1.6-.2-2.4.7-1.2,1.6-1.5,3-1.2h0l-.1-.5Z" style="fill:#030201;"/><path d="M91.5,206.4h1.8c.2,0,.4,0,.7.3s.4.4.4.6v.2c-.3,0-.4-.2-.5-.2,0,.1,0,.3-.1.4-.1.5-.4.9-.7,1.3h-.2c0,.1,0,.2-.1.4,0,.3-.2.6-.4.8h-.2v.3c-.2.5-.5.9-.9,1.4-.5.7-.9,1.4-1.3,2.2-.3.6-.7,1.2-1.1,1.8-.2.2-.3.5-.4.7l-.6.9c-.3.4-.5.8-.7,1.3-.211.412-.445.813-.7,1.2-.4.5-.6,1.1-.9,1.6h-.2v.3c0,.4-.2.6-.4,1,0,.1-.1.2-.2.4,0,.1-.1.2-.2.4,0,.1-.1.2-.2.4l-.6,1.1-2.3,4.1-.9,1.6c0,.1-.1.2-.2.4s-.2.5-.4.7c-.5.8-.9,1.7-1.2,2.6h.2c0,.2,0,.4-.1.5v-.4c-.1,0-.2,0-.4-.1v-.2h-.2c0-.3,0-.6-.1-.9h-.2c0-.2,0-.4-.1-.6h-.2v-.2h-.4c-.1-.4-.2-.7-.4-1.1,0-.1,0-.2-.1-.3-.2-.5-.3-1-.4-1.5h-.2c0-.2,0-.5-.1-.8h-.2c0-.3-.2-.5-.2-.8,0-.1,0-.3-.1-.5,0-.3-.1-.5-.1-.8h-.2v-.4h.2c0,.2,0,.4.1.6h.2c0,.3,0,.6.1.9h.2c0,.2.2.5.2.8,0,.1,0,.3.1.4,0,.2.1.5.1.6h.2c.1-.4.2-.8.4-1.2h.2v-.2s0-.2.1-.3c0,0,0-.2.1-.3,0-.2.1-.4.2-.5h.2c.1-.4.2-.8.4-1.2h.2s0-.2.1-.2l.6-1.4c0-.1.1-.2.1-.3l1.5-2.7h.2v-.2c.2-.8.6-1.6,1.1-2.3h.2c0-.1,0-.2.1-.4.1-.4.3-.8.5-1.2h.2c0-.1,0-.2.1-.4,0-.3.2-.5.3-.7h.2v-.3c.2-.5.4-.9.7-1.4.2-.3.4-.6.5-.9l.1-.2c.1-.2.2-.4.3-.5.3-.5.6-.9,1-1.4.1-.2.2-.4.4-.7.1-.3.3-.5.5-.8l1.1-1.6s.1-.1.1-.2c.2-.4.4-.7.5-1.2.4,0,.8,0,1.2-.1v-.2c.4-.2.7-.3,1.2-.3h0l.2-.1Z" style="fill:#d3218f;"/><path d="M117.2,183c.2,0,.5.1.8.2.1,0,.3,0,.4.1.2,0,.5.1.6.2v.2h.4c.7,0,1.3.4,1.9.6v.2h.3c.5.1.9.3,1.3.5v.2h.3c.4.1.8.3,1.2.5v.2c.2,0,.4,0,.6.1,0,.1,0,.2.1.4.2.1.5.2.8.2l1.2.6v.2c.3.1.6.3.9.4,0,0,.1.2.2.2.2.3.4.4.7.5l.5.5c.2.1.4.3.5.5l1.2,1.1.3.3c.2.2.4.4.6.7s.4.4.6.6c.3.3.4.4.4.8.2,0,.3.2.5.2,0,.1.2.2.2.4,0,.1,0,.2-.1.4-.5-.5-.8-1-1-1.3-.1-.2-.3-.3-.5-.4-.4.1-.7.3-1,.6-1.2,1-2.5,1.9-3.8,2.7-.1,0-.2.1-.3.2-.5.3-.8.4-1,.4,0,.1,0,.2-.1.4-.1,0-.3.2-.5.3-.1,0-.2.1-.4.2-.15.025-.29.095-.4.2-.2.1-.5.2-.7.4-2.3,1.1-3.7,1.7-4.2,1.7v.2h-.2l-1,.3c-.1,0-.2,0-.4.1-.1,0-.2,0-.3.1-.1,0-.2,0-.3.1-.2,0-.4.2-.5.4-.3.1-.6.2-.9.2,0,0,0-.2-.1-.2-1-1.6-2.4-2.5-4.2-2.9-.7-.1-1.5-.1-2.3-.1h-.8c-.6,0-1.2,0-1.8.2h-1.2c0-.1,0-.2.1-.4h4.1v-.2l1.5-.3c.1,0,.3,0,.4-.1.1,0,.3,0,.4-.1h.4c.2-.1.5-.1.9-.1v-.2c.4,0,.7-.2,1-.2h.3c.4-.1.7-.2,1.2-.2v-.2l2.3-.9c.1,0,.2,0,.3-.1.2,0,.4-.1.6-.2.5-.2.9-.4,1.3-.7.3,0,.5-.1.8-.1v-.2c.7-.4,1.3-.6,1.7-.6v-.2c.1,0,.2-.1.4-.2,1.2-.7,2.4-1.4,3.5-2.3.1,0,.2-.2.3-.2.2-.1.4-.2.5-.4.1,0,.3-.2.5-.3,0-.2,0-.3-.1-.5-.2-.1-.4-.3-.6-.4,0,0,0-.2-.1-.2-.2-.1-.4-.2-.7-.4-.1,0-.2-.1-.4-.2-.1,0-.2,0-.3-.1v-.2s-.2,0-.2-.1c-.3-.1-.6-.3-.9-.5l-1.6-.9c-.2-.1-.5-.2-.7-.4l-.4-.2h-.2v-.4h-.3c-.4-.1-.7-.2-1-.5v-.2h-.3c-.1,0-.3,0-.4-.1-.1,0-.3,0-.4-.1-.2,0-.5-.1-.6-.2v-.2h-.4c-.4,0-.7-.1-1-.2v-.2h0l-.4-.2Z" style="fill:#d53678;"/><path d="M74.2,12.6c-.3.3-.5.5-1,.6-.7.3-1.4.7-2.1,1.2l-1.5.9-2.2,1.4q-.7.5-1.1.7l-1.5,1-1,.7-5,3.4c-.2.2-.5.3-.7.5-.9.6-1.8,1.3-2.6,2l-1.2.9-3.2,2.5-.3.3-2.7,2.2c-.2.2-.5.4-.7.6,0,0-.2.1-.2.2-.1.1-.3.3-.5.4-.3.2-.6.5-.8.7-.1,0-.3.1-.4.1,0,0,0,.1-.1.2-.2.3-.3.5-.6.7-.7.6-1.4,1.3-2,2v-.6c0-.2.1-.4.1-.4,0-.1.1-.2.1-.4,0-.1,0-.2.1-.3h.2v-.3c.5-2.3,2.4-5,3.9-6.8,0-.1.2-.2.2-.3,1-1.2,2.2-2.3,3.5-3.2.114-.124.25-.225.4-.3l1.3-.9c.1,0,.2-.2.4-.2s.2-.1.3-.2c.1,0,.2-.1.3-.2.2,0,.4-.2.6-.3l.2-.2c.3-.3.6-.4,1-.5v-.2l2.9-1.4.2-.2c.5-.4.9-.6,1.5-.6v-.2c.2,0,.3-.2.5-.2.1,0,.2-.1.3-.1.2,0,.5-.1.8-.1v-.2l3-1.3c.9-.3,1.7-.7,2.5-1.1.4-.2.9-.4,1.3-.5.3-.1.6-.2.9-.4.1,0,.2,0,.3-.1.2-.1.5-.2.8-.3.823-.372,1.701-.608,2.6-.7v-.2c.6-.2,1-.2,1.3-.1h0l-.1-.2Z" style="fill:#8ee068;"/><path d="M114.2,215.3c.2.2.3.4.4.7,0,0,0,.2.1.3v.6h.2c0,1.4-.2,2.4-.7,3-.1,0-.2.2-.4.3-.1.1-.2.3-.4.5-.4.5-.9.7-1.5,1-.2,0-.3.2-.4.4-.2,0-.5.1-.8.2-.2,0-.4.1-.6.2-.2,0-.5.1-.7.1v.2c-.1,0-.3,0-.4.1l-2.3.6c-.5.2-.8.2-1.4.2-.3-.7-.5-1.5-.6-2.2l-.6-2.4c-.2-.6-.4-1.1-.5-1.7v-.3c-.1-.5-.2-1-.2-1.6.1,0,.3,0,.4-.1.2,0,.4-.1.5-.2h.2c.4-.1.7-.2,1.1-.4,2.2-.9,6.4-1.1,8.3.6h0l.3-.1Z" style="fill:#e54a8e;"/><path d="M86.1,188.9v.3c0,.5.2.6.6.9.2.1.4.2.5.4.4.2.7.5,1,.7.5.4,1,.7,1.5,1,.2.1.4.2.5.3.1,0,.2.1.3.2,0,0,.2.1.2.2.2.1.5.2.7.2v.2h.2c.6.2,1.2.4,1.7.7.7.3,1.4.6,2.1.6h0c-.5.2-1,.3-1.6.4.1.5.2,1.1.4,1.6,0,.1,0,.3.1.5,0,.1,0,.3.1.4,0,.1,0,.2.1.4.1.4.2.8.4,1.2,0,.2.1.5.1.7v1.4c-1.2.5-2.5.8-3.8,1v-.2c.7-.2,1.1-.2,1.7-.2,0,0,0-.1.1-.2.3-.6.6-1,.8-1.1.2,0,.3-.2.1-.4h-.8c-.2,0-.4-.1-.7-.2v-.2h-.3c-.4,0-.7-.2-1.1-.4-.1,0-.2-.1-.4-.1,0,0-.2,0-.2-.1v-.2h-.2c-.7-.2-1.2-.5-1.9-.9l-.6-.3c-.1,0-.2-.1-.3-.2l-.6-.3c-.4-.2-.7-.5-.8-.6-.2-.1-.4-.2-.5-.3-.5-.2-.9-.5-1.3-.8-.1,0-.2-.1-.3-.2l-.2-.2v-.2c-.1,0-.2,0-.3-.1-.4-.1-.6-.3-.9-.5v-.2c-.1,0-.2,0-.3-.1-.1,0-.2,0-.3-.1,0-.1,0-.2-.1-.4-.2,0-.4.2-.6.2,0,.2-.1.4-.1.5-.2.2-.4.4-.6.5-.1.2-.2.4-.4.6-.1,0-.2,0-.4.1v.3c-.064.346-.24.662-.5.9h-.2v.2c-.1,0-.2,0-.4.1v-.5c.1,0,.2,0,.4-.1,0-.1,0-.2.1-.4h.2v-.8h.7v-.5c.2-.2.4-.4.6-.5,0-.1,0-.2.1-.4.1-.1.3-.2.5-.4.6-.5,1.2-1.1,1.8-1.7l.3-.3.3-.3.3-.3c.1-.1.3-.3.4-.5.2-.1.4-.2.6-.4.1-.1.2-.2.4-.3.2-.2.4-.2.6-.2h-.2l.4-.4Z" style="fill:#d32787;"/><path d="M156.6,272.4c.6.4,1.2.8,1.5,1.5,0,1.3,0,2.2-.5,2.7-.6.5-1.2.7-1.9,1-.3.1-.6.2-.8.4-.8.3-1.5.6-2.3.7v.2c-.1,0-.2,0-.4.1-.9.3-1.8.7-2.7,1.1-.2,0-.5.1-.7.1v.2c-.7.2-1.4.1-2.1-.1v-.2h-.2c-.5-.3-.9-.8-1.1-1.4,0-1.1,0-1.9.4-2.4.563-.672,1.34-1.131,2.2-1.3h.2v-.2h.2c.4-.1.7-.2,1.1-.4.1,0,.2,0,.4-.1.583-.19,1.152-.424,1.7-.7.7-.4,1.5-.6,2.4-.8v-.2c.8-.4,1.9-.5,2.7-.1h0l-.1-.1Z" style="fill:#020301;"/><path d="M108.4,203.7c.7.5,1.4,1.1,1.6,2v1.4c0,.7-.1,1.1-.6,1.7-.4.4-.9.7-1.4,1-.1,0-.2.1-.3.2-1,.7-2.2,1-3.3,1.2-.2,0-.4.2-.6.4s-.5.2-.7,0c-.2-.1-.3-.1-.4,0h-.3c-.3-.6-.5-1.2-.6-1.9s-.3-1.2-.5-1.9c-.2-.6-.4-1.1-.5-1.7,0-.2-.1-.5-.2-.8-.1-.4-.1-.7-.1-1.1,1-.5,2.1-.8,3.2-1,.2,0,.4,0,.6-.1,1.2-.3,3-.3,4.1.3h0v.3Z" style="fill:#e54b8d;"/><path d="M68.3,15.7c.1,0,.2,0,.4.1l-2.7,1.7c-.4.2-.8.5-1.2.8l-1,.7-5,3.4c-.2.2-.5.3-.7.5-.9.6-1.8,1.3-2.6,2l-1.2.9-3.2,2.5-.3.3-2.7,2.2c-.2.2-.5.4-.7.6,0,0-.2.1-.2.2-.1.1-.3.3-.5.4-.3.2-.6.5-.8.7-.1,0-.3.1-.4.1,0,0,0,.1-.1.2-.2.3-.3.5-.6.7-.7.6-1.4,1.3-2,2v-.6c0-.2.1-.4.1-.4,0-.1.1-.2.1-.4,0-.1,0-.2.1-.3h.2v-.3c.3-1.2,1-2.4,1.6-3.5h.2s0,.1-.1.2c0,.2-.2.4-.3.7l1.8-1.6,2.7-2.3.2-.2c.2-.2.4-.3.6-.5.1-.1.2-.2.4-.3s.4-.2.5-.2v-.2c.208-.199.444-.367.7-.5.1-.1.3-.2.4-.3.3-.2.6-.4.9-.5v-.2c.2-.1.4-.2.6-.4.406-.209.777-.478,1.1-.8.189-.182.438-.288.7-.3v-.2c.6-.4,1-.5,1.2-.5v-.2c.256-.133.492-.301.7-.5.15-.025.29-.095.4-.2.3-.1.6-.3.9-.4.3-.2.5-.3.7-.6l.6-.3,1.7-.9c.6-.4,1.3-.7,1.9-1,.2,0,.4-.2.5-.2,0,0,.2,0,.2-.1.3-.1.6-.3.9-.5.5-.2.8-.4,1.4-.4v-.2c.6-.3,1-.4,1.4-.4v-.2h.2v-.2l.3-.1Z" style="fill:#7cd555;"/><path d="M133.9,194.6c.7.3,1.1.8,1.4,1.4v.4h.4c.025.15.095.29.2.4.1.4.3.6.6.9.3.5.4.9.4,1.2h.2c.4.7.6,1.3.6,1.7h.2c0,.2.1.3.2.5,0,0,0,.2.1.3s0,.3,0,.6h.2l.3.9s0,.2.1.2c.1.4.2.7.2,1.2h.2l.3,1.4c0,.1,0,.2.1.4v.4c.1.1.2.2.2.4v.8h.2c0,.4.1.7.2,1.1v.3c.1.6.1,1.2.1,1.8h.2c.1,1,.1,2,.1,3.1v4.2l-.1,2.6h-.2v.3c0,1.2-.2,2.4-.5,3.6h-.2v.4c-.1.7-.3,1.5-.5,2.2h-.2v.3c-.1.6-.3,1.2-.5,1.8h-.2v.3c0,.1,0,.2-.1.4,0,.1,0,.2-.1.4,0,.2-.1.4-.2.6h-.2v.3c0,.1,0,.2-.1.4,0,.1,0,.2-.1.4-.1.4-.2.5-.5.7-.1.2-.2.5-.3.7-.2.5-.4.7-.6.8,0,.1-.1.2-.2.4-.1.3-.3.4-.5.5-.1.2-.2.4-.4.6,0,.1-.1.2-.2.3,0,0,0,.2-.1.2h-.2s0,.1-.1.2c-.2.4-.5.7-.8,1.1l-.2.2c-.4.4-.7.9-1.2,1.2,0,.1-.1.2-.2.3l-.2.2h-.5v-.2c-2.8,0-5.6.1-8.4.5h-1.1v.2c-.3,0-.6.1-.9.2-.2,0-.3,0-.5.1h-1v.2c-.3,0-.6.2-.9.2-.2,0-.3.1-.5.1-.3,0-.6.1-.8.1v.2c-.2,0-.5.2-.8.2-.1,0-.3.1-.4.1-.2,0-.5.1-.6.1v.2c-.2,0-.4.2-.6.2-.1,0-.2.1-.4.1s-.4.1-.6.1v.2c-.2,0-.4.2-.6.2-.1,0-.2.1-.3.1-.2,0-.4.1-.5.1v.2c-.1,0-.3.2-.5.3-.1,0-.2.1-.3.2s-.2.1-.3.2c-.7.5-1.4.9-2,1.5-.1.1-.3.2-.6.2,0,0,0,.1-.1.2-.2.3-.4.6-.6.8s-.4.5-.6.8c-.4,0-.6,0-.7-.2,0,0-.1-.2-.2-.2-.4-.4-.7-.9-1.1-1.2l-.3-.3c-.2-.2-.4-.3-.6-.4,0,0-.1-.2-.2-.2-.2-.3-.4-.4-.7-.5v-.2c-.4-.2-.7-.4-1.1-.5-.2-.1-.4-.2-.6-.4-.2-.1-.4-.2-.5-.3h0c.9-.1,1.4.2,2.1.8.2.2.5.3.7.5.2.1.3.3.4.6.1,0,.2,0,.4.1v.2s.1,0,.2.1c.5.3.9.7,1.3,1.2.2.2.5.3.9.3.1-.1.3-.3.4-.5.4-.6.9-1.1,1.5-1.6h.2c0-.1,0-.2.1-.4.1-.1.3-.2.5-.4.1,0,.2-.1.3-.2.4-.3.9-.5,1.3-.8.4-.2.7-.4,1-.6,2.2-1.4,4.8-2.3,7.3-3,.1,0,.2,0,.4-.1,1.1-.3,2.2-.5,3.3-.7h.4l3.8-.2h.5l2.9.1c.2,0,.4,0,.6-.2l.2-.2h.2v-.2c.3-.7.8-1.3,1.5-1.6.4-.2.5-.5.7-1,.1,0,.2-.2.4-.2.2-.3.4-.6.5-.9.3-.6.5-.9.7-1.1.199-.208.367-.444.5-.7,0-.1.1-.2.1-.3,0,0,0-.1.1-.2h.2v-.3c0-.4.2-.7.4-1.1,0-.1.1-.2.1-.4,0,0,0-.2.1-.2h.2v-.4c0-.4.2-.8.4-1.2h.2c0-.1,0-.3.1-.4,0-.2.1-.4.1-.6v-.3l.3-1.2h.2v-.5c0-.6.2-1.2.4-1.9h.2v-1c0-.3,0-.6.1-.9.2-1.9.2-3.9.2-5.9v-.7c0-2.1,0-4.3-.6-6.3l-.3-1.3-1.1-4.5c0-.3-.1-.6-.1-.9h-.2c-.2-.4-.2-.6-.2-1h-.2c0-.1,0-.3-.1-.4,0-.2-.1-.4-.2-.5,0,0,0-.2-.1-.3-.2-.5-.3-.8-.7-1.1,0-.2-.2-.4-.2-.6l-.2-.2c-.3-.3-.4-.6-.5-1h-.2s0-.2-.1-.2c0-.1-.1-.2-.2-.3,0,0-.1-.2-.2-.3-.2-.3-.4-.5-.6-.7,0-.1-.1-.2-.2-.4,0-.2-.2-.4-.5-.4v-.2l.2.2.5.4Z" style="fill:#652343;"/><path d="M128.2,238.9h1.7c-.7.2-1.5.2-2.2.3h-4.1v.2c-.4,0-.7.1-1.1.2h-.3c-.5,0-1,.2-1.5.1v.2c-.2,0-.5.1-.7.2-.1,0-.3,0-.4.1h-.8v.2c-.4,0-.9.2-1.3.2v.2c-.2,0-.4,0-.6.1v.2l-1,.2v.2c-.2,0-.4.2-.6.2-.1,0-.2.1-.4.1s-.4.1-.6.1v.2c-.2,0-.4.2-.6.2-.1,0-.2.1-.3.1-.2,0-.4.1-.5.1v.2c-.1,0-.3.2-.5.3-.1,0-.2.1-.3.2s-.2.1-.3.2c-.7.5-1.4.9-2,1.5-.1.1-.3.2-.6.2,0,0,0,.1-.1.2-.2.3-.4.6-.6.8s-.4.5-.6.8-.4.2-.7-.2-.4-.5-.2-.2c-.4-.4-.7-.9-1.1-1.2l-.3-.3c-.2-.2-.4-.3-.6-.4,0,0-.1-.2-.2-.2-.2-.3-.4-.4-.7-.5,0,0,0-.2-.1-.2-.3-.2-.6-.4-.9-.5-.2-.1-.4-.2-.6-.4-.2-.1-.4-.2-.5-.3h0c.9-.1,1.4.2,2.1.8.2.2.5.3.7.5.2.1.3.3.4.6.1,0,.2,0,.4.1v.2s.1,0,.2.1c.5.3.9.7,1.3,1.2.2.2.5.3.9.3.1-.1.3-.3.4-.5.4-.6.9-1.1,1.5-1.6h.2c0-.1,0-.2.1-.4.1-.1.3-.2.5-.4.1,0,.2-.1.3-.2.4-.3.9-.5,1.3-.8.4-.2.7-.4,1-.6,2.2-1.4,4.8-2.3,7.3-3,.1,0,.2,0,.4-.1,1.1-.3,2.2-.5,3.3-.7h.4c1.3-.2,2.6-.2,3.9-.2v.2l-.4.9Z" style="fill:#d32c86;"/><path d="M97.9,195.5h.2c0,.2,0,.4.1.6.7.2,1.5.5,2.2.6v.2h.8c0-.2,0-.4.1-.5.4,1,.5,1.9.6,2.9l-.9.3s-.2,0-.2.1c-.6.2-1.1.2-1.7.2-.3-.7-.5-1.3-.6-2l-.6-2.3v-.2h0v.1Z" style="fill:#cf2a80;"/><path d="M75.3,202.4c.1.5.1.7,0,1.2v.4c-.1.1-.2.2-.2.4,0,.1,0,.2-.1.4l-.3,1h-.2v.3c-.1.9-.3,1.8-.5,2.7h-.2v.2c0,.4,0,.7-.1,1.1v1.1c0,.3,0,.6-.1.9v4.3l.2,4.2c0,.6.1,1.3.1,2h.2c.4,1.8.6,3.1.5,3.9h-.1c0-.2-.1-.5-.2-.7v-.4c-.2-.4-.2-.8-.2-1.2h-.2c0-.4-.1-.7-.2-1v-.3c0-.4-.1-.7-.2-1v-.5c-.2-1.6-.2-3.2-.2-4.8v-1.4c0-2.5.2-4.9.7-7.4h.2v-.2c0-.8.2-1.6.5-2.4h.2v-.4c0-.6.3-1.2.5-1.9h.2v-.4h-.2l-.1-.1Z" style="fill:#ba2c82;"/><path d="M133.9,194.6c.7.3,1.1.8,1.4,1.4v.4h.4c.025.15.095.29.2.4.1.4.3.6.6.9.3.5.4.9.4,1.2h.2c.4.7.6,1.3.6,1.7h.2c0,.2.1.3.2.5,0,.1,0,.2.1.3v.6h.2l.3.9s0,.2.1.2c.1.4.2.7.2,1.2h.2l1.1,5.1v.4c.1.9.2,1.7.1,2.6h.2v6.8h-.2v.3c0,.7,0,1.3-.1,1.9h-.1v-.4l.1-4.9v-.7c0-2.1,0-4.3-.6-6.3l-.3-1.3-1.1-4.5c0-.3-.1-.6-.1-.9h-.2c-.2-.4-.2-.6-.2-1h-.2c0-.1-.1-.3-.1-.4,0-.2-.1-.4-.2-.5,0,0,0-.2-.1-.3-.2-.5-.3-.8-.7-1.1,0-.2-.2-.4-.2-.6l-.2-.2c-.3-.3-.4-.6-.5-1h-.2s0-.2-.1-.2c0-.1-.1-.2-.2-.3,0-.1-.1-.2-.2-.3-.2-.3-.4-.5-.6-.7,0-.1-.1-.2-.2-.4,0-.2-.2-.4-.5-.4v-.2h0l.3-.2Z" style="fill:#cf4372;"/><path d="M133.7,237h.2c-.2.4-.4.7-.6,1l-.2.2c-.7.9-1.3,1.4-1.7,1.5h-2c-2.2,0-4.2,0-6.4.4h-1.1v.2c-.3,0-.6.1-.9.2-.2,0-.3,0-.5.1h-1v.2c-.3,0-.6.2-.9.2-.2,0-.3.1-.5.1-.3,0-.6.1-.8.1v.2c-.3,0-.5,0-.8.1l.2-.2h.4v-.2c.5-.2.8-.2,1.3-.2v-.2c.2,0,.5-.1.7-.2.1,0,.2,0,.4-.1h.9v-.2c.3,0,.6-.1,1-.2h.3c.6-.1,1.1-.1,1.7-.1v-.2c.7,0,1.4-.1,2-.2h.3l4.8-.1h.8c.4,0,.5-.1.7-.4h.2v-.2c.3-.6.7-1,1.1-1.4h0l.4-.4Z" style="fill:#b22f6e;"/><path d="M113.4,182v.2h.3c1,0,2,.2,3,.5-.5.2-.9.1-1.4,0-.2,0-.3,0-.5-.1-.2,0-.4,0-.5-.1-.2,0-.4,0-.5-.1-.4,0-.9-.1-1.3-.2v-.2h-8.4c-.6,0-1.1.1-1.7.3-1.1.2-2.2.3-3.4.2h0c.293-.203.643-.308,1-.3h.3c.6-.1,1.2-.1,1.9-.1v-.2c3.8-.5,7.7-.4,11.5.1h-.3Z" style="fill:#9a3161;"/><path d="M117.2,183c.2,0,.5.1.8.2.1,0,.3,0,.4.1.2,0,.5.1.6.2v.2h.4c.7,0,1.3.4,1.9.6v.2h.3c.5.1.9.3,1.3.5v.2h.3c.4.1.8.3,1.2.5v.2c.2,0,.4,0,.6.1,0,.1,0,.2.1.4.2.1.5.2.8.2l1.2.6v.2c.3.1.6.3.9.4,0,0,.1.2.2.2.2.3.4.4.7.5l.5.5c.2.1.4.3.5.5l1.2,1.1.3.3c.1.1.3.3.6.7s.5.5.6.6c.3.3.4.4.4.8.2,0,.3.2.5.2,0,.1.2.2.2.4,0,.1,0,.2-.1.4-.5-.5-.8-1-1-1.2-.2-.4-.5-.6-.9-.8l-.6-.6-.3-.3-1-1-.2-.2c0-.1-.1-.3-.1-.4-.1,0-.2,0-.3-.1-.4-.2-.4-.3-.6-.7-.2,0-.4-.1-.5-.1-.5-.3-.8-.6-.9-.8l-.4-.2c-.3-.1-.4-.3-.5-.5l-.6-.3c-.4-.2-.7-.4-.8-.6-.2,0-.4-.2-.6-.3-.1,0-.2-.1-.3-.1s-.2,0-.3-.1h-.2v-.4c-.3,0-.6-.2-.9-.2v-.2h-.3c-.1,0-.2,0-.4-.1-.1,0-.2,0-.4-.1-.2,0-.4-.1-.6-.2v-.2h-.4c-.4,0-.9-.2-1.3-.4-.1,0-.3-.1-.4-.1s-.2,0-.3-.1v-.2h-.4c-.4,0-.7-.1-1-.2v-.2h0l.1-.1Z" style="fill:#682442;"/><path d="M86.3,238.9h.5c.8,0,1.4,0,1.7.1v.2h.2c1,0,2,.1,3,.3v.2c-1.2,0-2.4-.1-3.5-.2v-.2h-3.8v.2c-.3,0-.6,0-1,.1h-1c-.3,0-.4-.2-.4-.5,1.4-.2,2.7-.3,4.2-.3h0l.1.1Z" style="fill:#a92977;"/><path d="M140.6,221.5h.2l-.4,2.5h-.2v.5c0,.6-.2,1.2-.4,1.9h-.2v.3c-.1.8-.3,1.5-.6,2.2h-.2v.4c0,.4-.2.8-.4,1.2h-.2v.2c-.3,1.1-.6,1.8-1,2.1-.1.2-.3.5-.4.8h-.2c0,.1,0,.2-.1.4-.1.4-.2.6-.5.8v-.5h.2c0-.1,0-.2.1-.4.2-.5.4-.8.7-1.2l1.2-2.5h.2v-.3c0-.4.2-.8.4-1.2h.2c0-.1,0-.3.1-.5,0-.2.1-.4.1-.6v-.9c0-.2.1-.5.2-.8h.2v-.3l.6-3.2h.2v-.9h.2Z" style="fill:#d13e77;"/><path d="M133.9,194.6c.7.3,1.1.8,1.4,1.4v.4h.4c.025.15.095.29.2.4.1.4.3.6.6.9.3.5.4.9.4,1.2h.2c.4.7.6,1.3.6,1.7h.2c0,.2.1.3.2.5,0,.1,0,.2.1.3v.6h.2l.3.9s0,.2.1.2c.1.4.2.7.2,1.2h.2c0,.3.2.7.2,1v.3c.1.5.2.9.2,1.5-.2-.4-.3-.7-.4-1.1v-.6h-.2l-.3-1.1c0-.1,0-.2-.1-.3-.2-.5-.3-1.1-.4-1.6h-.2c-.2-.4-.2-.6-.2-1h-.2c0-.1-.1-.3-.1-.4,0-.2-.1-.4-.2-.5,0,0,0-.2-.1-.3-.2-.5-.3-.8-.7-1.1,0-.2-.2-.4-.2-.6l-.2-.2c-.3-.3-.4-.6-.5-1h-.2s0-.2-.1-.2c0-.1-.1-.2-.2-.3,0-.1-.1-.2-.2-.3-.2-.3-.4-.5-.6-.7,0-.1-.1-.2-.2-.4,0-.2-.2-.4-.5-.4v-.2h0l.3-.2Z" style="fill:#63213f;"/><path d="M91.8,239.9c1.8,0,3,.2,3.8.5.2,0,.4.1.6.2l1.6.6v.4h.2c.3,0,.6.2.9.3.1,0,.2,0,.3.1h.2v.2h.2c-.4,0-.8,0-1.2-.2-.849-.377-1.717-.71-2.6-1v-.2h-.4c-1.1-.1-2.1-.4-3.2-.7-.2,0-.4-.1-.6-.1h0v-.1h.2Z" style="fill:#c82c88;"/><path d="M116.6,242l-1,.2v.2c-.2,0-.4.2-.6.2-.1,0-.2.1-.4.1s-.4.1-.6.1v.2c-.2,0-.4.2-.6.2-.1,0-.2.1-.3.1-.2,0-.4.1-.5.1v.2c-.1,0-.3.2-.5.3-.1,0-.2.1-.3.2s-.2.1-.3.2c-.7.5-1.4.9-2,1.5-.1.1-.3.2-.6.2,0,0,0,.1-.1.2-.2.3-.4.6-.6.8s-.4.5-.6.8c-.2,0-.4,0-.5-.1h.4s0-.1.1-.2c.2-.4.4-.6.7-1,0-.1.2-.2.2-.4.3-.3.6-.5.9-.7.2-.1.3-.2.5-.4l.2-.2c.1-.1.2-.3.3-.4,0-.2.2-.2.5-.2.4-.2.7-.4,1.1-.8.2-.1.5-.3.8-.4.312-.206.648-.374,1-.5.2,0,.4-.1.7-.1v-.2c.2-.1.5-.2.7-.3.15-.025.29-.095.4-.2h.9l.1.3Z" style="fill:#642a48;"/><path d="M75.3,202.4c.1.5.1.7,0,1.2v.4c-.1.1-.2.2-.2.4,0,.1,0,.2-.1.4l-.3,1h-.2v.3c-.1.9-.3,1.8-.5,2.7h-.2v.5h-.2c0,.6,0,1.2-.1,1.8h-.1c0-.8,0-1.5.2-2.3v-.3c0-.2.1-.5.1-.8h.2v-.2c0-.8.2-1.6.5-2.4h.2v-.4c0-.6.3-1.2.5-1.9h.2v-.4h0Z" style="fill:#952e69;"/><path d="M128.2,238.9h1.7c-.7.2-1.5.2-2.2.3h-4.1v.2l-1.5.3c-.2,0-.5.1-.8.1-.2,0-.3,0-.5.1h-1.6c.5-.3,1-.4,1.5-.5h.3c2.4-.6,4.8-.9,7.2-.9h0v.4Z" style="fill:#d93583;"/><path d="M130,239.3h0c-.1.1-.2.1-.3.1-2.2,0-4.5.2-6.7.5h-1.1v.2c-.3,0-.6.1-.9.2-.2,0-.3,0-.5.1h-1v.2c-.3,0-.6.2-.9.2-.2,0-.3,0-.5.1-.2,0-.4,0-.8.1v.2c-.2,0-.5,0-.8.1l.2-.2h.4v-.2c.5-.2.8-.2,1.3-.2v-.2c.2,0,.5-.1.7-.2.1,0,.2,0,.4-.1h.9v-.2c3.2-.6,6.3-.8,9.5-.8h0l.1.1Z" style="fill:#57233e;"/><path d="M111.1,182h1.3v.2h.2c1.6,0,3.1.4,4.6.8v.2h.4c.4,0,.7.1,1,.2v.2h.3c.1,0,.3,0,.4.1.1,0,.3,0,.4.1.2,0,.5.2.6.4l-2.6-.6v-.2h-.4c-.7-.1-1.5-.3-2.2-.5v-.2h-.2c-1,0-2-.2-3-.4v-.2h-.9v-.2l.1.1Z" style="fill:#dc4180;"/><path d="M120.5,184.4h.5v.2h.3c.1,0,.2,0,.4.1.1,0,.2,0,.4.1.2,0,.4.1.6.2v.2c.3,0,.6.2.9.2v.2c.1,0,.2,0,.4.1.4.1.8.3,1.2.5v.2c.1,0,.2,0,.4.1.4.1.7.3,1.1.5v.2c.1,0,.2,0,.4.1.3,0,.5.3.7.5.1,0,.2.1.3.2.2.1.4.3.4.5v.2c0-.1-.4-.3-.9-.8-.5-.4-1-.6-1.6-.9v-.2s-.2,0-.2-.1c-.3-.1-.6-.3-.9-.5l-1.6-.9c-.2-.1-.5-.2-.7-.4-.1,0-.2-.1-.4-.2h-.2v-.4h-.3c-.4-.1-.7-.2-1-.5h0c0-.1,0,0,0,0l-.2.6Z" style="fill:#db437d;"/><path d="M113.9,215.1c.2.1.3.3.4.4,0,0,0,.2-.1.2,0-.1-.1-.2-.2-.3-.7-.7-1.7-.9-2.6-.9h-2.7c-.9,0-1.8.1-2.7.4h-.8c2.1-1.1,6.8-1.5,8.7.1h0v.1Z" style="fill:#9f3562;"/><path d="M78.3,196.6c.1,0,.2,0,.4.1-.1.4-.3.7-.5,1.1,0,.1,0,.2-.1.3-.3.7-.7,1.3-1.2,1.8h-.2c-.1.6-.3,1.2-.4,1.8h-.2v.2h-.2l-.2.5c0-.5.2-.8.2-1h.2v-.3c.1-.6.4-1.2.6-1.8h.4v-.4c0-.2.1-.4.2-.7h.4c0-.2,0-.5.1-.8h.2v-.5h.2v-.4h0l.1.1Z" style="fill:#972d67;"/><path d="M117.2,183c.2,0,.5.1.8.2.1,0,.3,0,.4.1.2,0,.5.1.6.2v.2h.4c.7,0,1.3.4,1.9.6v.2h.3c.5.1.9.3,1.3.5v.2h.3c.4.1.8.3,1.2.5v.2c.2,0,.4,0,.6.1,0,.1,0,.2.1.4,0,.1.3.2.8.2v.4c-.6-.3-.9-.6-1-.8s-.3-.3-.6-.3c-.1,0-.2-.1-.3-.1s-.2,0-.3-.1h-.2v-.4c-.3,0-.6-.2-.9-.2v-.2h-.3c-.1,0-.2,0-.4-.1-.1,0-.2,0-.4-.1-.2,0-.4-.1-.6-.2v-.2h-.4c-.4,0-.9-.2-1.3-.4-.1,0-.3-.1-.4-.1s-.2,0-.3-.1v-.2h-.4c-.4,0-.7-.1-1-.2v-.2h0l.1-.1Z" style="fill:#6e2747;"/><path d="M101.4,243.5c.9,0,1.4.4,2.1.9.2.2.5.3.7.5s.4.3.4.6h.4v.4s.1,0,.2.1c.6.3,1,.8,1.4,1.4,0,0,0,.2-.1.2l-.3-.3-.4-.4-.2-.2c-.3-.3-.6-.5-1-.7,0,0-.1-.2-.2-.2-.2-.3-.4-.4-.7-.5v-.2c-.4-.2-.7-.4-1.1-.5-.2-.1-.4-.2-.6-.4-.2-.1-.4-.2-.5-.3h0v-.2l-.1-.2Z" style="fill:#b12a77;"/><path d="M146.1,212.3h.1v3.9c0,2.8-.1,4.9-.4,6.3v.3c0,.2,0,.5-.1.8,0,0,.2,0,.2.1-.2,0-.3.2-.5.2,0-.6.1-1.2.2-1.8v-.4c0-.3,0-.7.1-1,.2-1.8.2-3.6.3-5.5v-3.1h.1v.2Z" style="fill:#15250f;"/><path d="M73.3,221.6h.2v.8h.2c.4,1.8.6,3.1.5,3.9h-.1c0-.2-.1-.5-.2-.7v-.4c-.2-.4-.2-.8-.2-1.2h-.2c-.2-.8-.3-1.5-.2-2.4h0Z" style="fill:#922e69;"/><path d="M48.5,37.4c0,.3,0,.5-.1.6l-.2.2-.2.2s-.2.2-.3.2l-.3.3-.9.9-.6.6-1.4,1.4s-.2,0-.2-.1l2.6-2.7.3-.3,1.4-1.3h-.1Z" style="fill:#a2b651;"/><path d="M89.2,291.9h0c-.1.1-.2.2-.4.2-.407.009-.812.077-1.2.2h-.5c-.2,0-.5,0-.8.1h-.5c-.2,0-.3.1-.5.2-.2,0-.5,0-.7.1h-1.5l-2.4.1c.4-.2.8-.3,1.3-.4h1c1-.1,1.9-.2,2.9-.5.4,0,.7-.1,1.1-.1h.3c.6,0,1.2-.1,1.9,0h0v.1Z" style="fill:#305320;"/><path d="M81.7,192.6c0,.1,0,.2.1.4-.1,0-.2,0-.4.1v.2c-.1.4-.4.5-.7.8-.1.2-.2.4-.4.6h-.4v.4c-.064.346-.24.662-.5.9h-.2v.2h-.4c0,.1,0-.4,0-.4h.4c0-.1.1-.5.1-.5h.2v-.8h.7v-.5c.2-.2.4-.4.6-.5,0-.1,0-.2.1-.4.2-.2.5-.4.8-.6h0v.1Z" style="fill:#8d2b60;"/><path d="M120.5,240.3c-.4.2-.8.3-1.3.4h-.7v.2c-.4,0-.9.2-1.3.2v.2c-.2,0-.4.1-.6.2,0,0-.2,0-.3.1h-.7.8v-.4c0-.2.2-.3.4-.4.1,0,.2,0,.4-.1.1,0,.2,0,.4-.1.1,0,.2,0,.4-.1.1,0,.3-.1.4-.1.7-.2,1.4-.2,2.1-.2h0v.1Z" style="fill:#cd2f80;"/><path d="M78.6,235c.2,0,.4,0,.6.1,0,.3,0,.6.1.9h.2c.4.1.6.4.9.8,0,.1.2.2.3.4.1.1.2.2.3.4s.2.2.3.4c0,.1.1.2.2.3v.4c-.5-.2-.6-.4-.8-.7-.1-.4-.3-.4-.6-.6,0-.2,0-.4-.1-.5-.2-.1-.3-.2-.5-.2v-.2h-.2v-.8h-.5v-.5h-.1l-.1-.2Z" style="fill:#b72d83;"/><path d="M111,222.1c-.6.3-1,.4-1.3.4v.2c-.1,0-.3,0-.4.1l-2.3.6c-.5.2-.8.2-1.4.2,0-.2,0-.4-.1-.6,0,.1,0,.2.1.4.4,0,.7-.2,1.1-.2h.3c.5-.1,1-.2,1.5-.5h.8v-.2c.2,0,.4-.1.6-.2,0,0,.2,0,.3-.1h.7l.1-.1Z" style="fill:#a23466;"/><path d="M88.5,239.1c1.1,0,2.2.1,3.3.3h.3c.5.1,1,.2,1.5.4h0c-.6.1-1.2.1-1.8,0v-.2h-.4c-1,0-1.9-.1-2.9-.2v-.2h0v-.1Z" style="fill:#d82894;"/><path d="M93.5,201.9v.2c-.2,0-.5,0-.7.1h-1.4v.2h-.4c-.2,0-.3,0-.5.1-.1,0-.3,0-.5.1s-.4,0-.6.2h-1c.4-.4.8-.4,1.2-.5.2,0,.4-.1.6-.1h.3c.6-.1,1.1-.3,1.7-.4.4-.1.7-.1,1.2-.1h0l.1.2Z" style="fill:#551835;"/><path d="M95.4,229.7h.1c0,.4,0,.7.1,1h.2c.2,0,.5-.1.7-.1.3,0,.5-.1.8-.1h1.6v.2h-.4c-.7.1-1.4.3-2.1.5-.4.1-.7.1-1.1.1,0,0-.1-.2-.1-.4v-1l.2-.2Z" style="fill:#6b1f46;"/><path d="M111.1,182h1.3v.2h.2c1.6,0,3.1.4,4.6.8h0c-1.1,0-2.2-.1-3.3-.3-.2,0-.4,0-.6-.1-.5,0-.9-.1-1.4-.2v-.2h-.9v-.1l.1-.1Z" style="fill:#c83a77;"/><path d="M74.2,12.6c-.3.4-.6.5-1,.7-.1,0-.2,0-.4.1-.2,0-.5.2-.7.2v-.2s-.1,0-.2.1c0,0-.2,0-.3.1-.1,0-.2,0-.3.1h-.8l1-.3s.2,0,.3-.1c.4-.1.7-.2,1.1-.2v-.2c.6-.2,1-.2,1.3-.1v-.2Z" style="fill:#74b756;"/><path d="M98.8,224.1h.1c0,.5,0,.8-.1,1.2-.7.8-1.9,1.1-3,1.2-.2,0-.4,0-.5-.1.1,0,.2,0,.3-.1.1,0,.3-.1.4-.1s.3-.1.4-.1c.2,0,.4-.2.5-.2h.5c.4,0,.8-.2,1.1-.5.1-.4.2-.8.2-1.2h0l.1-.1Z" style="fill:#5a1b3b;"/><path d="M106.1,203.3h1.2c.2,0,.5,0,.7.3l-4.3.1c.7-.5,1.5-.4,2.4-.4h0Z" style="fill:#ab3168;"/><path d="M126.1,187.3c.4,0,.7.2,1,.4v.2c.3.1.6.3.9.4,0,0,.1.2.2.2.2.3.4.4.7.5l.5.5.2.2.2.2c-.6-.2-1-.4-1.2-.6v-.2h-.2c-.4-.1-.7-.4-1.1-.6,0,0,0-.2-.1-.2s-.2-.1-.4-.2c-.4-.2-.6-.4-.8-.7h0l.1-.1Z" style="fill:#571f39;"/><path d="M96,240.9c.6.1,1.2.2,1.8.4v.2h.2c.3,0,.6.2.9.3.1,0,.2,0,.3.1h.2v.2h.2c-.4,0-.8,0-1.2-.2-.849-.377-1.717-.71-2.6-1v-.2h0l.2.2Z" style="fill:#9a296b;"/><path d="M136.7,198.8s0,.2.1.2c0,.2.3.3.5.4s.4.3.4.9c0,.5,0,.7.2.5,0,.3.1.5.1.6h.2v.5c-.1,0-.1-.2-.1-.2h-.2c-.1-.4-.2-.8-.4-1.2h-.2c0-.2-.2-.4-.2-.6s-.1-.2-.1-.4-.1-.5-.1-.7h-.2Z" style="fill:#d24372;"/><path d="M132.5,192.9c.3.3.5.5.6.9.2.4.3.4.6.6,0,.2.1.4.1.5h.4c.3.5.4.8.4,1.1h.4c0,.1-.2.3-.2.3-.5-.5-.9-1-1.3-1.6v-.2h-.2c-.4-.3-.6-.6-.8-1.1v-.2h0v-.3Z" style="fill:#d24272;"/><path d="M74.3,226.3h.2c0,.2,0,.4.1.6h.2c0,.3,0,.6.1.9h.2c.1.4.2.9.4,1.3h-.2v-.4h-.4c0-.3-.2-.5-.2-.8s-.1-.3-.1-.5c0-.3-.1-.5-.1-.8h-.2v-.4h0v.1Z" style="fill:#9e2c71;"/><path d="M91.5,206.4h1.1c.6,0,1.1.1,1.4.3v.2h-.4v-.2h-1.2c-.1,0-.4,0-.8.1h-1.3c.4-.4.6-.4,1.2-.4h0Z" style="fill:#821754;"/><path d="M138.7,202.8h.2c0,.2.1.3.2.5,0,.1,0,.2.1.3v.8h.2c0,.3.2.7.2,1v.3c.1.5.2.9.2,1.5-.2-.4-.3-.7-.4-1.1v-.6h-.2c0-.1-.1-.3-.1-.5s-.1-.4-.2-.6c0,0,0-.2-.1-.3s0-.2,0-.3v-.3c0-.2-.1-.4-.2-.6h0l.1-.1Z" style="fill:#6c2445;"/><path d="M76.7,199.3h.4c0,.2,0,.4-.1.5h-.2c-.1.6-.3,1.2-.4,1.8h-.2v.2h-.2l-.2.5c0-.5.2-.8.2-1h.2v-.3c.1-.6.4-1.2.6-1.8h0l-.1.1Z" style="fill:#862f5d;"/><path d="M180.1,108c0,.3,0,.5-.2.6,0,0-.2.1-.2.2l-.2.2-.3.3-.3.3c-.5.5-.8.7-1,.7.2-.4.4-.6.6-.9l.2-.2.2-.2.2-.2c.4-.4.7-.6.9-.7h0l.1-.1Z" style="fill:#c3865c;"/><path d="M145.8,220.4h.2c0,1.1-.2,2.2-.4,3.3,0,0,.2,0,.2.1-.2,0-.3.2-.5.2,0-.4,0-.8.1-1.2v-.4c0-.7.1-1.4.2-2.1h0l.2.1Z" style="fill:#365c24;"/><path d="M73.8,223.3c.6.6.5,1.6.5,2.4v.6h-.1c-.3-1-.5-1.9-.4-3h0Z" style="fill:#a32d74;"/><path d="M116.6,242l-1,.2v.2c-.2,0-.4.2-.6.2-.1,0-.2.1-.4.1s-.4.1-.6.1v.2h-.6c0,.1.5-.1.5-.1v-.2h.6v-.4c.2-.1.5-.2.7-.3.15-.025.29-.095.4-.2h.9l.1.2Z" style="fill:#592540;"/><path d="M108,246.6h.4c-.2.5-.6,1-.9,1.4-.2,0-.3,0-.5-.1-.2,0-.3-.2-.2-.5,0-.3.2-.2.6.1,0,0,0-.1.1-.2,0,0,.1-.2.2-.2,0,0,.1-.2.2-.2l.2-.2h0l-.1-.1Z" style="fill:#c52982;"/><path d="M135.4,234.6h.2c-.1.3-.2.5-.3.7,0,.1-.1.2-.2.3l-.2.2h-.2c0,.1,0,.2-.1.4-.2.4-.3.6-.7.8,0-.6.4-1,.8-1.4h.2v-.2c0-.2.2-.4.4-.7h0l.1-.1Z" style="fill:#d23c7a;"/><path d="M45,30.5h.2s0,.1-.1.2c0,.2-.2.4-.3.7,0,0,.2,0,.2.1h-.2s0,.1-.1.2c-.2.4-.5.6-.8.8.2-.5.4-1,.7-1.4,0-.1.1-.2.2-.4,0-.1.1-.2.2-.3h0v.1Z" style="fill:#6eb14f;"/><path d="M108.4,214.4l-1.3.3c-.1,0-.2,0-.4.1-.1,0-.2,0-.4.1h-1.1c.9-.5,2.1-.8,3.1-.5h.1Z" style="fill:#63203d;"/><path d="M139.7,205.4h.1c0,.2,0,.4.1.6v1.1h.2c0,.4,0,.9.1,1.3-.5-.5-.5-.7-.6-1.3,0-.1,0-.3-.1-.5v-1.2h.2Z" style="fill:#c63e6c;"/><path d="M138.2,201.9l.2.5h.2c.2.6.4,1.1.5,1.7h-.2v-.2h-.2c0-.2-.2-.5-.2-.7,0-.1-.1-.3-.1-.4,0-.3-.1-.5-.1-.8h0l-.1-.1Z" style="fill:#cb416e;"/><path d="M135.1,196.2c.3.4.4.6.5,1h.2c.3.5.4.8.4,1h.4c0,.1-.1.5-.1.5-.4-.5-.6-.9-.6-1.2-.1,0-.2,0-.4-.1-.3-.5-.4-.7-.4-1.3h0v.1Z" style="fill:#d34272;"/><path d="M97.7,183v.2l-.9.3c-.2,0-.3.1-.5.1-.326.1-.674.1-1,0,.7-.4,1.5-.7,2.4-.6h0Z" style="fill:#993062;"/><path d="M91.8,239.9h1.3c.5,0,.9,0,1.3.3v.2c-.7,0-1.3-.2-2-.4-.2,0-.4-.1-.6-.1h0c0-.1,0,0,0,0Z" style="fill:#922a67;"/><path d="M133.7,237h.2c-.2.4-.4.7-.6,1l-.2.2c-.281.381-.619.719-1,1h-.2c.1-.3.2-.4.4-.5h.2v-.2c.3-.6.7-1,1.1-1.4h0l.1-.1Z" style="fill:#d33a7c;"/><path d="M104.6,245.7c.5,0,.7,0,1.1.4,0,.1.2.2.2.4l.4.4c.182.189.288.438.3.7l-.3-.3-.4-.4-.2-.2-.2-.2-.2-.2s-.2-.2-.6-.4h0l-.1-.2Z" style="fill:#ae2975;"/><path d="M118,241.2c-.2,0-.5,0-.8.1v.2c-.2,0-.4.1-.6.2,0,0-.2,0-.3.1h-.7c.2,0,.5,0,.8-.1,0-.2,0-.4.1-.5.6-.1,1.1-.1,1.4,0h.1Z" style="fill:#b62d75;"/><path d="M78.6,235c.2,0,.4,0,.6.1,0,.3,0,.6.1.9h.4c0,.2,0,.4.1.6h-.4v-.4h-.2v-.8h-.5v-.5h-.1v.1Z" style="fill:#962d6c;"/><path d="M101.7,199.5c-1.1.4-1.9.6-2.5.5.8-.4,1.6-.8,2.5-.5Z" style="fill:#7f194e;"/><path d="M105.2,211c-.2.1-.4.2-.5.2l-.4.2c-.6.2-1.2.3-1.8.3.4-.2.6-.4,1-.5.1,0,.2,0,.3-.1.5-.1.9-.2,1.5-.2h0l-.1.1Z" style="fill:#ab376b;"/><path d="M101.4,243.5c.8,0,1.2.2,1.8.6l-.5.2s-.1,0-.2-.1-.2-.1-.2-.2-.2-.1-.2-.2c-.2-.1-.4-.3-.6-.4h0l-.1.1Z" style="fill:#b22b78;"/><path d="M49.3,25.1c0,.3,0,.5-.2.7l-.3.3-.3.3-.2.2h-.4c.5-.6,1-1.1,1.6-1.6h0l-.2.1Z" style="fill:#76ba57;"/><path d="M99.7,242.6c.6,0,1.1.1,1.7.4v.5s-.1,0-.2-.1c-.3-.1-.6-.3-.9-.4-.1,0-.2-.1-.3-.1,0,0-.1,0-.2-.1h0v-.1l-.1-.1Z" style="fill:#9f296c;"/><path d="M106.8,228.1h.5c0,.1-.4.1-.4.1l.4,2c-.4-.4-.5-.6-.6-1.2,0-.3,0-.6.1-.9h0Z" style="fill:#5b1c3a;"/><path d="M79.8,195c0,.1.1.3.1.5s-.2.4-.5.6h-.2v.2c-.1,0-.2,0-.4.1v-.5c.1,0,.2,0,.4-.1,0-.1,0-.2.1-.4.2,0,.4-.1.5-.1v-.4h0v.1Z" style="fill:#ac2e73;"/><path d="M77,199.4h.2c-.2.5-.4.8-.5,1.2h-.2v.4h-.2c.1-.4.2-.8.4-1.2h.2c0-.1,0-.2.1-.4h0Z" style="fill:#d32c8e;"/><path d="M126.1,187.3c.4,0,.7.2,1,.4v.2l.5.2v.2h.2c-.2.1-.3,0-.5,0,0,0,0-.2-.1-.2s-.2-.1-.4-.2c-.4-.2-.6-.4-.8-.7h0l.1.1Z" style="fill:#672442;"/><path d="M83.7,13.2v.2l.2.2c-.5,0-1,.2-1.4.2.2-.4.4-.6.6-.7s.4-.1.6-.1h0v.2Z" style="fill:#b9cc64;"/><path d="M113.4,243c.1,0,.2,0,.4.1-.2,0-.4,0-.5.1v.2l-.6.3c-.1,0-.2.1-.4.2h-.7s.1,0,.2-.1c0,0,.2-.1.3-.2.1,0,.2-.1.3-.2.2-.1.5-.3.7-.4.1,0,.2-.1.3-.1h0v.1Z" style="fill:#7d2d57;"/><path d="M76.1,230.6c.3.4.4.8.5,1.3h.2v.2h.2c0,.2,0,.4-.1.5v-.2h-.4c0-.2-.2-.4-.2-.6,0-.1-.1-.2-.1-.4s-.1-.5-.1-.9h0v.1Z" style="fill:#6f3252;"/><path d="M186.3,240.8c.4,0,.8.2,1.2.2-.4,0-.6.2-.9.2-.4.1-.6.3-.9.6,0,0-.2,0-.2-.1.2-.3.5-.6.8-.9h0Z" style="fill:#508a36;"/><path d="M105.1,195.8c.4.2.4.4.5.9v1.5s-.2,0-.2-.1c0-.2-.1-.5-.2-.8,0-.1,0-.3-.1-.5v-.9h0v-.1Z" style="fill:#7a2851;"/><path d="M109.3,208.8v.4c-.1,0-.2,0-.4.1,0,0,0,.2-.1.2,0,.2-.3.3-.5.4h-.3l1.3-1.2h0v.1Z" style="fill:#541c34;"/><path d="M120.5,184.4h.5v.2h.3c.1,0,.2,0,.4.1.1,0,.2,0,.4.1.2,0,.4.2.6.4-.7-.1-1.3-.3-2-.6v-.2h-.2Z" style="fill:#c63b73;"/><path d="M68.3,222h.1c0,.2,0,.4.1.6v1.4c-.2,0-.4-.2-.5-.2h.2v-1.6h0l.1-.2Z" style="fill:#79893a;"/><path d="M43,34.2c.1.4.1.5,0,.9,0,0,.2,0,.2.1-.3.2-.5.4-.8.6,0-.2.1-.4.2-.6,0-.1,0-.2.1-.4,0-.2.1-.5.2-.7h0l.1.1Z" style="fill:#58983d;"/><path d="M74.2,12.6c-.3.4-.6.5-1,.5,0,0-.2,0-.2-.1v-.2c.6-.2,1-.2,1.3-.1h0l-.1-.1Z" style="fill:#426f2f;"/><path d="M81.7,192.6c0,.1,0,.2.1.4-.1,0-.2,0-.4.1v.4c-.1,0-.2,0-.4.1,0-.4,0-.6.2-.7l.6-.5h0l-.1.2Z" style="fill:#b02e75;"/><path d="M111.6,197.6c-.6.3-1,.4-1.7.4v-.2c.2,0,.4-.1.6-.1h1.1v-.1Z" style="fill:#e13c8a;"/><path d="M94.1,184h.2c-.2.2-.4.4-.6.5-.1,0-.2.1-.3.2-.4.1-.5.1-.8,0,.2,0,.3-.2.5-.2.1,0,.2-.1.3-.1.2,0,.4-.2.6-.2h0l.1-.2Z" style="fill:#8d2d5d;"/><path d="M100.9,182.2s-.2,0-.2.1c-.2,0-.3.2-.4.3h-1.4c.7-.3,1.4-.4,2.1-.4h-.1Z" style="fill:#993162;"/><path d="M44.3,143.2h.2c0,.2,0,.3-.1.4h1.1s0,.2.1.2c-.2,0-.5-.1-.8-.2-.1,0-.3,0-.4-.1-.1,0-.2,0-.4-.1,0-.1,0-.2-.1-.4h.2v-.1l.2.3Z" style="fill:#e0e2e2;"/><path d="M104,244.8c.2,0,.3.2.5.2,0,.1,0,.2.1.4.1,0,.2,0,.4.1-.2,0-.3.1-.5.1-.3-.2-.4-.4-.5-.7v-.2.1Z" style="fill:#cc2e87;"/><path d="M145.7,222.5h.1c0,.4,0,.8-.1,1.2,0,0,.2,0,.2.1-.2,0-.3.2-.5.2v-1.1c0-.2,0-.4.2-.5h0l.1.1Z" style="fill:#4e8635;"/><path d="M74.3,205h.2c0,.2,0,.4.1.6h-.2v.4h-.2c0-.5,0-.8.1-1h0Z" style="fill:#8e2d64;"/><path d="M145.9,230h.2c-.1.3-.3.5-.4.7,0,.1-.2.2-.2.3l-.2.2h-.2c0-.3.1-.5.3-.7s.4-.3.6-.5h-.1Z" style="fill:#5fa442;"/><path d="M60.5,195.1c.1.5.1.7,0,1.2,0-.1-.2-.2-.2-.4,0,0-.2,0-.2.1.1-.4.2-.6.5-.9h-.1Z" style="fill:#b5cc58;"/><path d="M111.1,182h1.3v.2h.5c0,.1-.9.1-.9.1v-.2h-.9v-.1Z" style="fill:#ce3d7c;"/><path d="M106.6,214.7h-.4v.2c-.4,0-.7,0-1,.1.4-.5.8-.6,1.4-.4h0v.1Z" style="fill:#49172d;"/><path d="M71.9,173.3c-.2.4-.3.6-.6.9h-.2c.3-.6.6-.9.9-.9h-.1Z" style="fill:#2c2c2c;"/><path d="M72.7,88.9h.2c-.4.5-.7.8-1,1.1,0-.3,0-.5.2-.6s.4-.3.6-.5h0Z" style="fill:#412d1f;"/><path d="M67,16.4l.5.2c-.3.2-.6.4-.9.5,0-.4.1-.5.4-.8v.1Z" style="fill:#74c750;"/><path d="M110.8,231.8c.3.5.3.9.4,1.4-.1,0-.2-.2-.4-.4v-1Z" style="fill:#8e2d5a;"/><path d="M105.2,211.2v.2c-.4,0-.8,0-1.2.1,0-.2.2-.3.4-.4h.8v.1Z" style="fill:#411529;"/><path d="M89.7,186.4v.5c-.4,0-.7,0-.9.1.4-.4.7-.6.9-.6h0Z" style="fill:#c0367f;"/><path d="M97.7,183v.2c-.4,0-.7.2-1,.2v-.4c.4-.1.6-.1,1-.1h0v.1Z" style="fill:#b53473;"/><path d="M42.5,91.8c0,.3,0,.5-.2.6,0,0-.2.1-.2.2s-.2.1-.2.2c0,0-.1.1-.2.1.1-.6.4-.8.9-1.2h0l-.1.1Z" style="fill:#aa7550;"/><path d="M82.1,239.2h1s-.2,0-.2.1v.2c-.2,0-.4,0-.6-.1v-.2h-.2Z" style="fill:#b82283;"/><path d="M139.3,88.9h.2c-.1.3-.2.4-.4.5l-.2.2c-.1.1-.3.2-.5.2.2-.4.4-.6.8-.9h.1Z" style="fill:#3f2b1d;"/></svg>