<?xml version="1.0" encoding="UTF-8"?>
<svg version="1.1" viewBox="0 0 2466.8 1496.2" xmlns="http://www.w3.org/2000/svg">
<path d="m462.71 35.56 496.03-0.0554 495.25 476.51s-7.9513 133.69-1.3046 152.66c-1.3153 2.5409-1.5442 5.0669-1.9726 7.8789 0.6294-1e-3 1.2588-2e-3 1.9073-3e-3 0.3595 4.1632 294.66 2.8275 294.66 2.8275s-0.2671 134.51 0.8905 191.73c0 0-359.62-0.4368-541.46-0.555-243.54-277.84-743-828-743-828l-1-3z" fill="#22a705"/>
<path d="m967.71 672.56h239v194c81.094-0.3171 173.14-1.094 254.23-1.5728l-2.134 198.72c-118.58 2.7302-676.1 0.8682-676.1 0.8682l185-193h-3.6517l-231.35-0.9993s-0.039-130.67 0.01-196z" fill="#2ee366"/>
<path d="m1776.7 283.31c156.72 1.8149 470.27 1.6451 470.27 1.6451s135.22 129.33 195.72 191.61l-210 1-207 199-277.59 0.0319s0.4308-133.4 0.5869-199.03c9.6229-36.122-3.3023-194.18 28.016-194.25z" fill="#2ee366"/>
<path d="m1457.3 1063.7-4.3399 201.22s-170.75 0.7322-255.24 0.6136c9e-4 0.6797 0 1.3594 0 2.0597l-1.3596-202.57z" fill="#31a560"/>
<path d="m738.11 288.34 1.5909 193.22 227 1.0004v191c-87.331 1.008-262.02 1.2302-262.02 1.2302l-415.98-385.23c131.62-0.94031 449.4-1.2278 449.4-1.2278z" fill="#427494"/>
<path d="m462.71 35.56 275.46 252.82c-92.046 1.52-449.36 1.2534-449.36 1.2534l-265.1-252.07s244.46-1.9381 439-2z" fill="#46c3ee"/>
<path d="m1495 865.58c0.9189-0.013 1.8112-0.025 2.7031-0.037l175 170c3.3244-3.3038 6.6472-6.6093 9.9668-9.918 1.365-1.3609 2.7302-2.7215 4.0957-4.082 215.13-219.77 334.58-335.71 338.94-345-87.706-0.3387-175.41-0.48606-263.12-0.84193-1.6137-2e-3 -1.6137-9.5e-4 -3.1954-2e-3 -0.9916-6e-3 -1.9536-0.0126-2.916-0.0176-2.4887-8e-3 -4.6391-0.10839-7.0703-0.64648-0.5786-0.16706-1.1397-0.33005-1.7012-0.49219-1.1146 2.2286-1.1157 2.2295-1.1367 8.3223-0.034 56.588-0.069 113.18 1.0957 169.76 0.021 1.2093 0.041 2.3829 0.061 3.5566 0.035 1.7864 0.044 3.5738-0.021 5.3594-2.9292 1.4791-2.9288 1.4789-6.4492 1.2656-156.86 2.4118-243.88 2.6604-246.25 2.7716z" fill="#49c4ec"/>
<path d="m966.71 482.55-0.2035 191.08s-11.836-1.4228 239.91-1.1208l1.3218-190.39z" fill="#49c4ec"/>
<path d="m1463.7 36.56v251l-204.94-8e-3s-161.93-162.23-243.16-241.36l-6.9023-6.6367v-2c151.67-0.80864 303.33-0.86096 455-1z" fill="#b3cc16"/>
<path d="m1350.4 410.49c102.91 95.269 103.62 101.53 103.62 101.53 2.2759 14.713-1.6214 161.23-1.6214 161.23l-245.64-0.85878 1.6648-394.71z" fill="#b0cb1a"/>
<path d="m970.34 1265c132.25-0.9146-12.265 0.6985 219.11 0.451 6.1375 0.038 6.1375 0.038 7.2518 1.1524 0 60.806 0.8595 121.66-0.5145 182.45-0.056 2.4221-0.1183 4.8438-0.1836 7.2657-0.016 0.7261-0.033 1.4521-0.049 2.2002-0.1472 4.9657-0.1472 4.9657-1.2623 6.0809-145.32 1.1085-290.67 1.1115-436 0.9997l-1-3c1.0842-1.6892 1.0842-1.6892 2.8164-3.5586 0.9747-1.0574 0.9747-1.0574 1.9692-2.1362 2.6149-2.7222 173.27-167.86 189.65-183.74l2.5625-2.5625c1.2661-1.2979 1.2661-1.2979 2.5578-2.6221 4.0495-3.3146 8.0291-3.0641 13.078-2.9859z" fill="#49c4ec"/>
<path d="m1771.6 283.3 244.21 0.27584s2.9147 129.39 3.94 193.99c-90.146 0.10845-180.29-0.10401-270.44 0.4434l-0.4368-174.01 22.722-20.7z" fill="#22a705"/>
<path d="m1595.7 476.56c50.933 1.4516 102.11-2.2532 153 1 0.1356 0.74462-0.3607 198.92-0.3607 198.92l-298.69-0.36882 146.04-199.56z" fill="#30a15f"/>
<path d="m1497.6 865.68s66.966 59.174 175.12 169.99c-73.238 76.466-146.45 153.91-220.01 230.07 6.6877-185.85 4.2218-401.97 4.2218-401.97z" fill="#54f560"/>
<path d="m738.09 288.33s116.09-2.1374 226.62 0.23073c0 0.55631 0.01 1.1126 0.013 1.6858 0.479 64.107 0.97 128.21 1.9879 192.31-40.169 0.0985-55.676 0.0267-227-1-2.139-59.052-1.6186-193.23-1.6186-193.23z" fill="#46c3ee"/>
<path d="m1471.7 39.912c4.9098 5.3036 236.74 225.13 247.26 235.84 0.5027 0.50725 1.0054 1.0145 1.5234 1.5371 1.4105 1.4235 2.8186 2.8494 4.2266 4.2754 0.7785 0.73864 1.5571 1.4773 2.3593 2.2383 1.6407 1.7617 1.6407 1.7617 1.6407 3.7617h-265v-251z" fill="#31a560"/>
<path d="m1196.5 1065.2c0.2504 68.15 1.2415 201.35 1.2415 201.35s-157.37-0.6338-236.05-0.9701l2-1 1-3h2c0.2507-0.5752 0.5014-1.1505 0.7597-1.7431 66.298-64.588 132.03-129.76 198.43-194.24 9.8751-0.2969 19.187-0.4957 30.616-0.3927z" fill="#427494"/>
<path d="m1749 305.28-0.2806 172.28-153-1s59.841-64.507 145.38-163.12c0.6264-0.72445 1.2529-1.4489 1.8984-2.1953 1.7511-1.7036 4.2128-5.8981 6.0072-5.9603z" fill="#b6d324"/>
<path d="m1486.7 894.12c26.664-69.513 26.664-69.513 26.664-69.513" fill="#22a705"/>
<path d="m738.11 288.34 1.5909 193.22 227 1.0004v191c-87.331 1.008-262.02 1.2302-262.02 1.2302l-415.98-385.23c131.62-0.94031 449.4-1.2278 449.4-1.2278z" fill="#427494"/>
</svg>
