<svg xmlns="http://www.w3.org/2000/svg" viewBox="0 0 2466.8 1496.2" xmlns:v="https://vecta.io/nano"><path d="M462.71 35.56l496.03-.055 495.25 476.51s-7.951 133.69-1.305 152.66c-1.315 2.541-1.544 5.067-1.973 7.879l1.907-.003c.36 4.163 294.66 2.827 294.66 2.827l.89 191.73-541.46-.555-743-828-1-3z" fill="#22a705"/><path d="M967.71 672.56h239v194l254.23-1.573-2.134 198.72c-118.58 2.73-676.1.868-676.1.868l185-193h-3.652l-231.35-.999.01-196zm808.99-389.25l470.27 1.645 195.72 191.61-210 1-207 199-277.59.032.587-199.03c9.623-36.122-3.302-194.18 28.016-194.25z" fill="#2ee366"/><path d="M1457.3 1063.7l-4.34 201.22-255.24.614v2.06l-1.36-202.57z" fill="#31a560"/><use href="#B" fill="#427494"/><path d="M462.71 35.56l275.46 252.82-449.36 1.253-265.1-252.07 439-2z" fill="#46c3ee"/><path d="M1495 865.58l2.703-.037 175 170 9.967-9.918 4.096-4.082 338.94-345-263.12-.842-3.195-.002-2.916-.018c-2.489-.008-4.639-.108-7.07-.646l-1.701-.492c-1.115 2.229-1.116 2.23-1.137 8.322l1.096 169.76.061 3.557-.021 5.359c-2.929 1.479-2.929 1.479-6.449 1.266l-246.25 2.772zM966.71 482.55l-.203 191.08s-11.836-1.423 239.91-1.121l1.322-190.39z" fill="#49c4ec"/><path d="M1463.7 36.56v251l-204.94-.008-243.16-241.36-6.902-6.637v-2l455-1z" fill="#b3cc16"/><path d="M1350.4 410.49c102.91 95.269 103.62 101.53 103.62 101.53 2.276 14.713-1.621 161.23-1.621 161.23l-245.64-.859 1.665-394.71z" fill="#b0cb1a"/><path d="M970.34 1265c132.25-.915-12.265.698 219.11.451 6.138.038 6.138.038 7.252 1.152l-.514 182.45-.184 7.266-.049 2.2c-.147 4.966-.147 4.966-1.262 6.081l-436 1-1-3c1.084-1.689 1.084-1.689 2.816-3.559l1.969-2.136c2.615-2.722 173.27-167.86 189.65-183.74l2.563-2.562 2.558-2.622c4.049-3.315 8.029-3.064 13.078-2.986z" fill="#49c4ec"/><path d="M1771.6 283.3l244.21.276 3.94 193.99c-90.146.108-180.29-.104-270.44.443l-.437-174.01 22.722-20.7z" fill="#22a705"/><path d="M1595.7 476.56c50.933 1.452 102.11-2.253 153 1 .136.745-.361 198.92-.361 198.92l-298.69-.369 146.04-199.56z" fill="#30a15f"/><path d="M1497.6 865.68s66.966 59.174 175.12 169.99l-220.01 230.07c6.688-185.85 4.222-401.97 4.222-401.97z" fill="#54f560"/><path d="M738.09 288.33s116.09-2.137 226.62.231l.013 1.686 1.988 192.31c-40.169.099-55.676.027-227-1-2.139-59.052-1.619-193.23-1.619-193.23z" fill="#46c3ee"/><path d="M1471.7 39.912c4.91 5.304 236.74 225.13 247.26 235.84l1.523 1.537 4.227 4.275 2.359 2.238c1.641 1.762 1.641 1.762 1.641 3.762h-265v-251z" fill="#31a560"/><path d="M1196.5 1065.2l1.242 201.35-236.05-.97 2-1 1-3h2l.76-1.743 198.43-194.24c9.875-.297 19.187-.496 30.616-.393z" fill="#427494"/><path d="M1749 305.28l-.281 172.28-153-1s59.841-64.507 145.38-163.12l1.898-2.195c1.751-1.704 4.213-5.898 6.007-5.96z" fill="#b6d324"/><path d="M1486.7 894.12l26.664-69.513" fill="#22a705"/><use href="#B" fill="#427494"/><defs ><path id="B" d="M738.11 288.34l1.591 193.22 227 1v191l-262.02 1.23-415.98-385.23 449.4-1.228z"/></defs></svg>