<?xml version="1.0" encoding="UTF-8"?><svg id="a" xmlns="http://www.w3.org/2000/svg" xmlns:xlink="http://www.w3.org/1999/xlink" viewBox="0 0 1104 648.326"><defs><linearGradient id="b" x1="580.535" y1="814.586" x2="557.111" y2="240.687" gradientTransform="translate(0 648.326) scale(1 -1)" gradientUnits="userSpaceOnUse"><stop offset="0" stop-color="#82d0f5"/><stop offset=".999" stop-color="#fff"/></linearGradient><linearGradient id="c" x1="402.153" y1="658.841" x2="482.215" y2="947.76" gradientTransform="translate(0 648.326) scale(1 -1)" gradientUnits="userSpaceOnUse"><stop offset=".274" stop-color="#006889"/><stop offset="1" stop-color="#00b0eb"/></linearGradient><linearGradient id="d" x1="576.255" y1="610.597" x2="656.314" y2="899.506" gradientTransform="translate(0 648.326) scale(1 -1)" gradientUnits="userSpaceOnUse"><stop offset=".274" stop-color="#006889"/><stop offset="1" stop-color="#00b0eb"/></linearGradient><linearGradient id="e" x1="488.317" y1="344.413" x2="319.167" y2="-7.421" gradientTransform="translate(-4.248 634.975) rotate(1.41) scale(1 -1)" gradientUnits="userSpaceOnUse"><stop offset=".269" stop-color="#00789f"/><stop offset="1" stop-color="#00b0eb"/></linearGradient><linearGradient id="f" x1="876.342" y1="-29.844" x2="100.088" y2="168.571" gradientTransform="translate(0 648.326) scale(1 -1)" gradientUnits="userSpaceOnUse"><stop offset=".269" stop-color="#00789f"/><stop offset="1" stop-color="#00b0eb"/></linearGradient><linearGradient id="g" x1="170.42" y1="215.527" x2="430.089" y2="126.693" gradientTransform="translate(-4.248 634.975) rotate(1.41) scale(1 -1)" gradientUnits="userSpaceOnUse"><stop offset=".269" stop-color="#00789f"/><stop offset="1" stop-color="#00b0eb"/></linearGradient><linearGradient id="h" x1="1090.303" y1="668.566" x2="496.167" y2="-103.033" gradientTransform="translate(0 648.326) scale(1 -1)" gradientUnits="userSpaceOnUse"><stop offset=".235" stop-color="#ffce00"/><stop offset=".808" stop-color="#ee7402"/></linearGradient><linearGradient id="i" x1="1054.462" y1="678.654" x2="536.85" y2="6.437" gradientTransform="translate(0 648.326) scale(1 -1)" gradientUnits="userSpaceOnUse"><stop offset=".235" stop-color="#ffce00"/><stop offset=".808" stop-color="#ee7402"/></linearGradient><linearGradient id="j" x1="1070.784" y1="738.229" x2="556.781" y2="70.699" gradientTransform="translate(0 648.326) scale(1 -1)" gradientUnits="userSpaceOnUse"><stop offset=".235" stop-color="#ffce00"/><stop offset=".808" stop-color="#ee7402"/></linearGradient><linearGradient id="k" x1="823.56" y1="225.086" x2="714.713" y2="83.728" gradientTransform="translate(0 648.326) scale(1 -1)" gradientUnits="userSpaceOnUse"><stop offset=".235" stop-color="#ffce00"/><stop offset=".808" stop-color="#ee7402"/></linearGradient></defs><path d="M1098.545,623.114c.884-13.259,1.455-26.597,1.455-40.083C1100,261.037,853.771,0,550.008,0,246.251,0,0,261.037,0,583.031c0,13.486.597,26.824,1.468,40.083h1097.077Z" style="fill:url(#b); isolation:isolate; opacity:.8;"/><path d="M439.807,196.3l17.62,5.918-17.541-10.14c-44.548-16.031-76.627-.212-95.102,14.813l-8.014-8.397,13.4,3.288-11.322-13.026,16.627,2.611s-15.588-10.627-16.743-11.693c-1.146-1.049,19.835.248,19.835.248l-18.456-13.24s20.98,1.297,23.211,1.733c2.248.488-20.642-6.826-26.224-8.239-5.491-1.378,36.087-7.695,39.135-7.206-2.301-.648-19.346-6.878-19.346-6.878l23.327-8.701-16.68-3.137,23.202-17.807-16.166-4.826,13.66-2.791-14.628-7.109s15.827-9.758,17.479-10.352c1.608-.614-17.042,1.278-17.042,1.278l17.585-13.977-21.851,11.127c-30.506,23.219-42.867,50.162-46.796,74.021l-11.179,1.059s6.272-6.044,6.664-6.389c.401-.383-7.216.71-7.216.71l4.719-5.554-5.322,1.51-.809-7.758s-5.492,24.385.195,45.011c.862,3.073,1.902,5.712,2.941,8.129-3.634-3.135-8.015-6.309-13.409-9.338-27.176-15.321-63.661-16.2-63.661-16.2l10.699,3.944-4.018,7.02,9.564-4.743s-4.285,10.396-3.591,9.934c.666-.434,11.392-7.155,11.392-7.155l-5.581,16.006,11.775-9.997,1.101,9.418,8.512-5.304.828,10.842,8.532-4.337-1.698,5.561,6.167-5.002s.613,12.859,1.19,11.881c.587-1.031,9.659-10.814,9.659-10.814,0,0-2.115,11.214-1.51,10.183.578-1.031,6.995-5.233,6.995-5.233l-2.57,5.154,8.337-2.631-4.657,3.048,9.18-1.44s-4.746,5.742-3.955,5.519c.828-.223,7.952-2.827,7.952-2.827l-2.104,4.568c-25.834-4.309-81.88-5.259-119.966,54.678l-9.208,22.749,12.414-18.74s-.301,18.74.205,17.078c.462-1.688,8.851-18.279,8.851-18.279l8.31,13.971,1.589-13.827,6.194,15.71,15.791-24.669,4.532,16.342,6.701-23.949s7.642,16.448,8.487,18.662c-.738-2.943,2.008-44.912,3.847-39.608,1.885,5.449,11.09,27.665,10.469,25.453-.667-2.169-3.725-22.972-3.725-22.972l14.789,17.256s-3.094-20.766-1.964-19.737c.782.704,6.611,7.777,10.193,12.184-1.698,2.123-3.395,4.354-5.092,6.754-26.535,37.526-33.236,90.908-33.236,90.908l7.377-15.099,9.65,6.888-5.501-14.69s14.609,7.802,14.048,6.746c-.506-1.031-8.833-17.791-8.833-17.791l22.661,10.61-12.875-18.758,13.932-.223-6.487-13.294,16.05.409-5.119-13.141,7.927,3.35-6.462-9.828s19.001,1.084,17.587.07c-1.412-1.005-14.36-15.783-14.36-15.783,0,0,16.101,4.783,14.698,3.761-1.405-1.04-6.637-11.056-6.637-11.056l8.104,4.141-1.814-13.098,3.386,6.566c-1.564,5.874-2.693,13.026-2.605,21.718.302,31.192,17.826,63.244,17.826,63.244l-1.981-11.259,8.051-.017-8.851-5.918s11.126-1.512,10.442-1.867c-.711-.355-11.926-6.282-11.926-6.282l16.642-3.163-14.52-5.225,7.572-5.645-8.841-4.737,8.982-6.104-7.996-5.235,5.67-1.296-7.474-2.862s10.895-6.94,9.73-6.965c-1.181,0-14.183-2.969-14.183-2.969,0,0,10.761-3.742,9.58-3.742-1.157,0-8.017-3.457-8.017-3.457l5.76-.32-6.476-5.963,4.949,2.498-5.822-7.197s2.515.425,4.479.611c91.646,157.628,35.937,251.922,35.937,251.922l24.899.817c42.121-111.445-31.067-231.055-54.332-264.921.71-.507,1.679-.756,2.967-.595,1.333.417,2.364,1.04,2.364,1.04l.364-.597c.186-.027.223-.114.15-.221l.625-1.005c.816.515,1.651,1.27,2.504,2.364,2.293,2.968,2.249,1.741,1.253-1.004l.668-2.844c.426,1.856.914,3.74,1.048,4.112.257.8,2.416-6.334,2.416-6.334l3.823,8.433v-5.538l2.382,8.48,2.915-5.041s-.018,7.68-.524,8.736c-.535,1.058,7.659-6.878,7.659-6.878,0,0-3.182,12.965-3.724,14.006-.542,1.057,10.566-5.546,10.566-5.546l-.8,7.961,3.733-4.515,1.022,9.546,9.552-5.298.222,10.068,8.46-4.222-1.865,15.312,10.335-13.436s.248,12.68.248,13.436c0,.809,6.317-8.433,6.317-8.433l1.317,10.557,3.65-7.188,9.144,6.796s-20.712-30.044-48.464-44.385c-4.836-2.498-9.33-4.257-13.49-5.563.098-4.737.301-11.642.463-12.46.203-1.279,8.734,13.863,8.734,13.863l.863-18.786s8.574,15.152,9.258,16.91c.684,1.778-4.576-17.435-6.078-21.94-1.529-4.406,21.603,21.675,22.58,23.922-.567-1.847-3.938-16.5-3.938-16.5l16.521,12.244-5.304-12.938,22.774,8.068-3.926-13.41,8.059,8.239-1.663-13.33s13.901,6.586,15.082,7.428c1.148.877-8.562-11.217-8.562-11.217ZM317.511,181.149c-.017,1.03-.017,2.069,0,3.083l-2.791.15,2.791-3.233ZM317.511,185.032c.011,1.164.081,2.275.124,3.421-1.707-.568-3.288-1.039-3.288-1.039l3.164-2.382ZM317.902,192.291c.054.952.125,1.938.214,2.862-2.071-.169-4.86-.329-4.86-.329,0,0,2.336-1.315,4.646-2.533ZM318.525,198.629l-2.879.62s1.386-1.243,2.674-2.336c.09.577.133,1.173.205,1.716ZM318.686,199.767c.051.487.141.949.211,1.42l-2.549,2.346,2.338-3.766ZM318.952,201.48c.203,1.395.416,2.729.63,3.999-1.262.516-2.898,1.333-2.898,1.333l2.268-5.332ZM319.858,206.866c.177.906.346,1.715.524,2.532l-2.462.498c0-.045-.019-.045-.019-.063.126-.249,1.14-1.688,1.957-2.967ZM324.674,234.698c.294.454.533.942.844,1.404-.132.302-.327.603-.479.94-.223-.851-.453-1.678-.667-2.478l.302.134ZM340.235,210.829c-.526.471-1.023.969-1.504,1.396l-2.523-1.574,4.027.178ZM318.959,164.095c-.844,5.136-1.261,10.086-1.438,14.848l-5.591-1.865,4.923-4.834-6.052-2.284,8.158-5.865ZM303.622,238.093c-.667.62-1.335,1.164-2,1.848l-1.608-4.755,3.608,2.907ZM290.478,238.074l7.572,5.51c-1.619,1.688-3.242,3.527-4.888,5.491l-2.684-11.001ZM319.368,235.808s2.205,2.4,4.169,4.4c-.987,2.168-1.911,4.656-2.702,7.481l-1.467-11.881ZM327.472,240.75l.792-.079c.328.523.648,1.039.95,1.535-.985-.834-1.742-1.456-1.742-1.456ZM351.466,220.817l.907,2.693c-.499-.045-1.023-.107-1.538-.124l.631-2.569ZM357.305,224.273l1.848-6.388,3.385,7.614c-1.828-.488-3.563-.896-5.233-1.226Z" style="fill:url(#c);"/><path d="M402.607,313.858c.818-.631,10.532-5.226,10.532-5.226l-1.164,9.331,5.67-5.767-2.774,9.385,15.96-5.651-3.706,9.082,11.571-8.576s-2.364,10.256-2.764,11.535c.702-1.572,16.868-19.825,15.836-16.723-1.076,3.127-4.744,16.563-4.239,15.329.445-1.218,6.433-11.829,6.433-11.829l.623,13.17s5.981-10.636,6.132-9.73c.079.56.223,5.43.303,8.726-2.924.898-6.079,2.141-9.473,3.91-19.399,10.042-33.92,31.086-33.92,31.086l6.425-4.755,2.551,5.003.888-7.366s4.462,6.469,4.462,5.873c0-.56.169-9.42.169-9.42l7.233,9.42-1.315-10.718,5.935,2.969.161-7.02,6.664,3.679.738-6.664,2.586,3.137-.578-5.555s7.794,4.62,7.43,3.857c-.372-.693-2.621-9.794-2.621-9.794,0,0,5.776,5.554,5.383,4.817-.363-.737-.363-6.114-.363-6.114l2.051,3.519,1.646-5.919v3.893l2.665-5.936s1.545,4.994,1.714,4.443c.099-.293.426-1.581.748-2.861l.47,1.963c-.71,1.929-.764,2.789.871.693.577-.738,1.155-1.271,1.758-1.651l.408.71c-.042.106-.008.132.108.158l.257.437s.721-.463,1.643-.764c.924-.107,1.608.062,2.098.442-14.227,20.688-54.971,87.018-45.605,155.38h15.515c-5.242-29.467-4.21-80.004,34.641-146.811,1.386-.197,3.144-.463,3.144-.463l-4.096,5.022,3.474-1.742-4.513,4.168,4.017.25s-4.817,2.383-5.59,2.383c-.854,0,6.682,2.639,6.682,2.639,0,0-9.107,2.096-9.918,2.096-.851,0,6.8,4.87,6.8,4.87l-5.225,2.017,3.972.89-5.617,3.651,6.31,4.282-6.213,3.325,5.306,3.962-10.174,3.662,11.667,2.222s-7.837,4.14-8.326,4.38c-.508.24,7.259,1.307,7.259,1.307l-6.168,4.132,5.626.028-1.378,7.89s12.264-22.447,12.459-44.308c.106-6.096-.704-11.073-1.812-15.205l2.382-4.62-1.263,9.197,5.663-2.888s-3.671,7.02-4.64,7.721c-.978.712,10.291-2.602,10.291-2.602,0,0-9.074,10.334-10.051,11.045-.988.701,12.298-.07,12.298-.07l-4.514,6.878,5.544-2.328-3.581,9.187,11.259-.276-4.541,9.305,9.732.168-8.995,13.127,15.857-7.448s-5.83,11.757-6.197,12.486c-.38.727,9.843-4.737,9.843-4.737l-3.831,10.255,6.751-4.791,5.146,10.567s-4.684-37.367-23.265-63.663c-1.193-1.679-2.371-3.217-3.575-4.72,2.542-3.073,6.595-8.022,7.139-8.512.805-.764-1.344,13.811-1.344,13.811l10.355-12.095s-2.17,14.582-2.632,16.093c-.452,1.528,6.017-14.014,7.353-17.809,1.286-3.749,3.213,25.646,2.653,27.707.613-1.546,5.97-13.071,5.97-13.071l4.684,16.778,3.184-11.42,11.062,17.231,4.311-10.984,1.117,9.696,5.816-9.8s5.885,11.614,6.225,12.803c.348,1.209.116-11.933.116-11.933l8.721,13.079-6.461-15.914c-26.658-41.952-65.915-41.278-84.024-38.284l-1.448-3.209s4.977,1.823,5.561,1.983c.525.178-2.763-3.855-2.763-3.855l6.414,1.003-3.251-2.15,5.829,1.874-1.802-3.642s4.512,2.985,4.886,3.696c.427.71-1.048-7.155-1.048-7.155,0,0,6.356,6.861,6.771,7.563.42.71.819-8.309.819-8.309l4.338,3.518-1.209-3.909,5.998,3.056.568-7.589,5.983,3.688.752-6.549,8.272,6.949-3.916-11.224s7.482,4.763,7.974,5.047c.467.347-2.545-6.948-2.545-6.948l6.722,3.296-2.838-4.906,7.511-2.772s-25.549.603-44.585,11.374c-3.757,2.116-6.817,4.346-9.394,6.532.736-1.689,1.469-3.546,2.045-5.696,4.016-14.431.176-31.52.176-31.52l-.593,5.448-3.724-1.068,3.315,3.884s-5.315-.754-5.057-.515c.284.275,4.681,4.487,4.681,4.487l-7.836-.727c-2.745-16.734-11.411-35.6-32.79-51.862l-15.284-7.783,12.289,9.794s-13.045-1.325-11.915-.917c1.155.437,12.236,7.279,12.236,7.279l-10.22,4.985,9.527,1.955-11.304,3.368,16.234,12.485-11.659,2.18,16.333,6.12s-11.943,4.33-13.552,4.781c2.133-.32,31.254,4.08,27.423,5.065-3.901.977-19.94,6.088-18.377,5.758,1.563-.302,16.262-1.236,16.262-1.236l-12.946,9.313s14.706-.932,13.915-.186c-.826.729-11.757,8.166-11.757,8.166l11.651-1.794-7.891,9.136,9.34-2.33-5.598,5.883c-12.922-10.522-35.394-21.622-66.587-10.398l-12.28,7.11,12.343-4.132s-6.807,8.459-5.999,7.881ZM513.151,335.203l-1.864,7.723c-1.147-1.35-2.301-2.656-3.438-3.865l5.302-3.858ZM498.919,287.528l-4.223,1.643,3.448,3.341-3.901,1.324c-.141-3.368-.417-6.816-1.031-10.406l5.707,4.098ZM492.938,333.638l-1.039,8.309c-.57-1.964-1.192-3.698-1.876-5.217,1.377-1.43,2.915-3.092,2.915-3.092ZM465.088,321.091l1.27,4.453c-1.163.248-2.382.524-3.651.87l2.381-5.323Z" style="fill:url(#d);"/><path d="M474.666,590.862c-69.926-24.517-144.723-5.322-217.048-8.662-1.787-.087-1.681,2.471.096,2.524,9.127.489,18.351.642,27.583.62-9.696.607-19.363,1.383-29.013,2.242-16.166,1.455-38.408.948-51.328,11.355-3.102,2.55-.232,7.398,3.456,7.176,7.811-.486,17.223,4.578,25.211,5.28,12.555,1.067,25.086,1.098,37.642.729,28.037-.771,56.312.063,84.314,1.436,15.719.75,31.334,2.413,46.814,4.937,7.535,1.172,15.07,2.746,22.393,4.905,4.87.311,7.375,2.799,7.499,7.303-3.456,2.313-8.521,3.237-12.54,4.24-30.541,7.609-63.395,8.185-94.789,9.843-2.302.142-2.16,3.326.168,3.353,35.005.264,71.029,1.479,104.753-8.776,4.94-1.494,13.355-5.734,11.287-11.918-2.614-7.72-16.609-10.503-23.541-12.15-35.777-8.602-73.82-7.899-110.44-7.899-15.702,0-31.307.438-47.027.871-8.726.301-17.425.105-26.152-.782-3.989-.465-13.872-1.373-18.82-4.266,5.571-1.906,12.165-1.695,17.904-2.096,11.109-.734,22.137-2.482,33.245-3.395,24.562-2.054,49.311-3.189,73.988-2.841,26.019.385,52.455.877,78.333,3.427,18.856,1.864,37.58,4.219,56.357,1.061,5.227-.892,3.406-7.237-.345-8.517ZM411.414,588.333c-26.579-1.495-53.123-3.094-79.719-3.797,38.379-1.009,76.742-1.465,113.789,6.922-11.339-.807-22.615-2.434-34.07-3.125Z" style="fill:url(#e);"/><path d="M466.981,528.357c-321.03-13.526-453.703,47.367-453.703,47.367,9.02,20.154,75.446,5.221,167.614-9.708-13.535,3.857-19.949,6.772-19.949,6.772,7.437,16.479,91.68-14.031,183.592-14.583,91.913-.56,182.314,12.335,265.765,29.884,83.453,17.531,86.682,1.254,86.682,1.254-49.242-.652-149.35-33.474-309.597-40.211-20.758-.871-39.908-1.093-57.565-.871,16.893-1.048,33.963-1.67,51.275-1.741,184.184-1.118,365.285,24.715,532.472,59.85,167.205,35.109,173.724,2.476,173.724,2.476-98.675-1.266-299.279-66.955-620.31-80.489Z" style="fill:url(#f);"/><path d="M847.134,548.556s-327.335-172.511-719.311-12.654c0-.001,167.953-58.651,719.311,12.654Z" style="fill:url(#g);"/><path d="M897.429,465.28c-45.87-7.827-80.404-14.43-104.139-14.164,0,0,3.208-19.504,96.889-1.065,6.585,1.36,13.354,2.532,20.081,3.813,25.414-24.937,43.471-57.637,50.026-94.702-93.016-12.727-189.327-19.746-286.57-16.582-13.792.451-27.471,1.386-40.883,2.594,14.125-.533,29.353-.773,45.966-.471,128.009,2.416,208.535,28.304,247.881,27.824,0,0-2.313,13.942-69.239.729-66.942-13.196-139.349-22.331-212.661-19.923-10.637.372-21.034,1.324-31.286,2.576,6.286,39.972,26.127,75.81,54.971,102.283,65.672,10.664,132.735,19.444,200.815,25.664,10.022-5.281,19.431-11.554,28.149-18.576Z" style="fill:url(#h); fill-rule:evenodd;"/><path d="M611.717,314.791c-.327,4.532-.357,9.019-.357,13.48,38.227-2.612,81.574-3.856,130.523-2.968,83.551,1.564,156.782,8.132,220.627,16.272.62-8.496.428-16.805-.127-25.051-134.203-3.777-249.133-16.511-345.787-30.685-2.321,9.391-4.09,18.955-4.879,28.952Z" style="fill:url(#i); fill-rule:evenodd;"/><path d="M959.297,293.108c-.715-3.518-1.566-6.967-2.511-10.361-110.56-11.588-184.652-31.928-226.065-31.439,0,0,3.147-19.55,96.836-1.048,40.548,7.979,82.545,14.777,125.427,19.798-22.518-63.627-80.597-111.372-152.209-116.944-77.936-6.105-147.935,39.731-176.23,108.29,108.443,16.996,220.775,28.612,334.752,31.704Z" style="fill:url(#j); fill-rule:evenodd;"/><path d="M812.357,502.462c-31.981-3.288-62.179-6.966-91.194-10.912,16.293,6.638,33.792,10.884,52.268,12.324,13.311,1.058,26.314.427,38.926-1.412Z" style="fill:url(#k); fill-rule:evenodd;"/><path d="M154.323,447.97s12.121-2.63,22.276-.665c10.177,1.964,20.741,10.361,32.214,11.019,11.462.648,9.073-3.671,9.073-3.671,0,0-7.332,1.085-9.295-5.188-1.946-6.267,6.044-11.251,18.377-19.896,12.334-8.648,14.698-17.284,12.334-22.696,0,0-2.185,3.448-12.334,8.859-10.166,5.411-17.515,15.338-25.504,22.482-8.016,7.127-8.425,7.571-16.005,6.079-7.534-1.529-23.778-3.92-31.136,3.677Z" style="fill:#3b3b3b;"/><path d="M168.559,362.341s-9.482-2.034-17.453-.513c-7.954,1.527-16.271,8.129-25.272,8.653-8.986.48-7.137-2.887-7.137-2.887,0,0,5.766.844,7.329-4.071,1.502-4.93-4.762-8.823-14.439-15.622-9.693-6.771-11.535-13.543-9.693-17.78,0,0,1.74,2.693,9.693,6.94,7.971,4.239,13.737,12.05,20.013,17.639,6.282,5.608,6.611,5.936,12.557,4.764,5.916-1.21,18.651-3.084,24.402,2.877Z" style="fill:#3b3b3b;"/></svg>