<svg xmlns="http://www.w3.org/2000/svg" viewBox="0 0 601 601" xmlns:v="https://vecta.io/nano"><rect x=".5" y=".5" width="600" height="600" rx="100" fill="#555"/><rect x=".5" y=".5" width="600" height="600" rx="100" fill="none" stroke="#000" stroke-miterlimit="10"/><path d="M232.04 221.46c0 12.59-1.42 24.44-4.26 35.55s-7.78 20.8-14.81 29.07c-7.04 8.27-16.54 14.81-28.51 19.63-11.98 4.81-27.1 7.22-45.36 7.22-16.79 0-31.23-2.04-43.33-6.11s-22.1-8.82-29.99-14.26l19.26-44.81c7.16 4.2 14.81 7.9 22.96 11.11s17.03 4.81 26.66 4.81c14.07 0 24.19-3.45 30.37-10.37 6.17-6.91 9.26-18.52 9.26-34.81V51.12h57.77v170.34zm21.47-32.59h83.69v23.33h-83.69v-23.33zm108.87 118.87V51.12h173.3v48.51H420.14v50.36h102.57v47.4H420.14v61.84h124.05v48.51H362.37z" fill="#fff"/><path d="M218.71 462.71c0 15.65-2.44 29.26-7.31 40.83s-11.78 21.22-20.74 28.96-19.74 13.48-32.35 17.22-26.57 5.61-41.87 5.61c-7.3 0-15.57-.31-24.78-.91-9.22-.61-18-1.87-26.35-3.78V375.06c8.35-1.91 17.22-3.13 26.61-3.65s17.74-.78 25.05-.78c15.13 0 28.96 1.79 41.48 5.35 12.52 3.57 23.26 9.13 32.22 16.7s15.87 17.13 20.74 28.7 7.31 25.35 7.31 41.35zm-120.53 63.4c1.91.17 4.44.31 7.57.39 3.13.09 7.39.13 12.78.13 22.09 0 38.57-5.61 49.44-16.83s16.31-26.91 16.31-47.09-5.31-36.26-15.91-47.22c-10.61-10.96-27.05-16.44-49.31-16.44-9.74 0-16.7.26-20.87.78V526.1zm156.53 27.13V372.45h116.1v27.92h-83.22v44.61h74.09v27.39h-74.09v52.96h89.48v27.92H254.71zm260.21 0c-5.05-9.48-11.41-19.92-19.08-31.33-7.66-11.41-15.68-22.41-24.04-33.01-3.46 4.16-7.22 9.11-11.29 14.86l-12.19 17.62c-4.06 5.99-7.83 11.79-11.28 17.38s-6.23 10.42-8.32 14.48h-37.57c8-14.46 17.24-29.3 27.73-44.53 10.48-15.23 21.86-31.18 34.13-47.85l-59.25-88.41h39.13l39.57 59.35 39.74-59.35h37.57l-58.56 87.47c13.53 17.65 25.5 34.37 35.91 50.13 10.42 15.77 19.18 30.17 26.31 43.19h-38.51z" fill="#222"/></svg>