<svg xmlns="http://www.w3.org/2000/svg" height="200" width="200" xmlns:v="https://vecta.io/nano"><defs><g id="A"><circle cx="150" cy="50" r="38"/><path d="M13 13q53 56 85 0m0 0v54c0 19-44 57-86 5"/></g><g id="B" stroke-linecap="round" fill="none"><use href="#A" stroke="#fff" stroke-width="14"/><use href="#A" stroke="#000" stroke-width="12"/></g><path id="C" d="M0 200v-7l10-9 10-44 5-40 5 34 10 26 10-5 10-17 5-38 5 5 5-55 5 50 10 35 5 15 5-60 3 15 5-20 7 18 5-33 5 20 15-35 5 35 10-20 10 36 10 58 10 20 15 7v9z"/></defs><use href="#B"/><use href="#B" transform="rotate(180 100 100)"/><use href="#C" stroke="#a00" fill="#d66"/><path stroke="#aa0" fill="#dd6" d="M0 200v-7l10-9 10-44 10-5 10 25 10-5 10-15 30-5 5 15 25-40 45-3 10 57 10 20 15 7v9z"/><path stroke="#0a0" fill="#6d6" d="M0 200v-7l10-8 40-20 40-5 60-5 22-5 3 15 10 19 15 7v9z"/><path stroke="#00c" fill="#66e" d="M0 200v-5l10-5 40-3 40 1 60-1 35-3 15 7v9z"/><use href="#C" stroke="#000" fill="none"/></svg>