<svg xmlns="http://www.w3.org/2000/svg" viewBox="0 0 264 271" xmlns:v="https://vecta.io/nano"><path d="M242.8,136.5c0,62.3-50.5,112.8-112.8,112.8S17.2,198.8,17.2,136.5,67.7,23.7,130,23.7s112.8,50.5,112.8,112.8h0ZM172,155V57.5l-1.5-1.5h-43l-71,97,2.5,30h84v30h29v-30h18v-28h-18Z" fill="#f6941f"/><path d="M250 194l-6-5.4c49.7-109.5-69.3-220-174.7-161.8L64 21c114.5-62 239.7 54 186 173z" fill="#247abe"/><path d="M133 262v7C70.9 270.9 14.1 226.4 1 166l7.5 1c13.4 56.1 66.7 96.6 124.5 95h0z" fill="#257abe"/><path d="M143 155H90l53-73v73z" fill="#f69522"/></svg>