<svg xmlns="http://www.w3.org/2000/svg" fill="none" height="46" width="46" xmlns:v="https://vecta.io/nano"><rect fill="#7132f5" rx="23" height="46" width="46"/><path fill="#fff" d="M22.997 12.7C16.923 12.7 12 17.688 12 23.84v4.774a1.58 1.58 0 0 0 1.57 1.59c.867 0 1.575-.711 1.575-1.59V23.84c0-.881.7-1.592 1.57-1.592a1.58 1.58 0 0 1 1.57 1.592v4.774a1.58 1.58 0 0 0 1.57 1.59 1.58 1.58 0 0 0 1.572-1.59V23.84a1.58 1.58 0 0 1 1.57-1.592c.87 0 1.575.711 1.575 1.592v4.774a1.58 1.58 0 0 0 1.57 1.59 1.58 1.58 0 0 0 1.57-1.59V23.84c0-.881.703-1.592 1.575-1.592a1.58 1.58 0 0 1 1.57 1.592v4.774a1.58 1.58 0 0 0 1.572 1.59 1.58 1.58 0 0 0 1.57-1.59V23.84C34 17.688 29.074 12.7 22.997 12.7z"/></svg>