<?xml version="1.0" encoding="UTF-8"?>
<svg id="b0fe9f0f-2260-4388-9a96-9bddc071a125" xmlns="http://www.w3.org/2000/svg" xmlns:svg="http://www.w3.org/2000/svg" xmlns:sodipodi="http://sodipodi.sourceforge.net/DTD/sodipodi-0.dtd" xmlns:inkscape="http://www.inkscape.org/namespaces/inkscape" version="1.1" viewBox="0 0 840 797.3">
  <!-- Generator: Adobe Illustrator 29.1.0, SVG Export Plug-In . SVG Version: 2.1.0 Build 142)  -->
  <defs>
    <style>
      .st0 {
        fill: #777;
      }
    </style>
  </defs>
  <sodipodi:namedview id="namedview56" width="840.00043px" bordercolor="#eeeeee" borderopacity="1" fit-margin-bottom="0" fit-margin-left="0" fit-margin-right="0" fit-margin-top="0" inkscape:current-layer="b0fe9f0f-2260-4388-9a96-9bddc071a125" inkscape:cx="254.98008" inkscape:cy="498.91102" inkscape:pagecheckerboard="0" inkscape:pageopacity="0" inkscape:pageshadow="0" inkscape:window-height="1067" inkscape:window-maximized="1" inkscape:window-width="1792" inkscape:window-x="0" inkscape:window-y="25" inkscape:zoom="0.58828125" pagecolor="#505050" showgrid="false"/>
  <g id="g4183" inkscape:export-filename="/Users/fernando/Downloads/kth-memes.png" inkscape:export-xdpi="300.02441" inkscape:export-ydpi="300.02441">
    <path id="path9" class="st0" d="M292.7,628.4c-10.8,4.3-24.5-6.5-35.3,0-4.3,0-6.5,0-10.8-2.2-7.2-.7-11.5-.7-18,1.4-2.2,0-8.7-4.3-11.5-4.3-13,2.2-24.5,6.5-37.5,2.2-6.5,0-13.7-4.3-8.7-13.7,4.3-8.7,15.1-10.8,24.5-15.2,0-2.2,4.3-6.5,2.2-10.8-10.8-15.9-24.5-25.3-31-42.6h-4.3c-10.8-7.2-17.3-15.9-26.7-29.6-4.3-6.5-17.3-15.9-22.4,0-2.2,13,2.2,26.7-2.2,42.6-2.2,10.8,2.2,19.5,2.2,31s4.3,6.5,6.5,8.7c6.5,2.2,8.7,7.2,13,11.6,4.3,4.3,2.2,17.3-2.2,17.3-35.3,4.3-69.2,4.3-104.5,4.3s-6.5,4.3-11.5,4.3-4.3-7.2-8.7-7.2c2.2-2.2,4.3-4.3,0-8.7,2.2,0,4.3-2.2,4.3-2.2-2.2-8.7,5.1-11.5,9.4-15.9,8.7-6.5,22.4-4.3,26.7-13,9.4-15.2,11.5-33.2,9.4-51.3,0-2.2-2.2-2.2-2.2-4.3,6.5-10.8-2.2-24.5,0-35.4,9.4-28.9,5.1-55.6,5.1-83-2.2-4.3-2.2-8.7-2.2-13,5-40.4,2.9-80.1,3.6-120.6v-22.4c-2.2-4.3,0-10.8,0-17.3-2.2-7.2-6.5-15.9-13-20.2-12.3-7.9-26.7-7.2-40.4-11.5-4.3,0-2.2-6.5-6.5-6.5,2.2-2.2,4.3-4.3,0-9.4,4.3-2.2,6.5-6.5,11.5-8.7,17.3-6.5,33.2-10.8,51.2-19.5h6.5c13.7-10.8,31-8.6,46.9-8.6,0,4.3,2.2,6.5,4.3,8.7,4.3,15.9-4.3,31.8-2.2,46.9,5.8,42.6-.7,82.3.7,124.9,4.3,24.5-8.7,49.1-2.2,75.8,2.2,10.8-.7,24.5,5.8,33.2,11.5,11.6,19.5-8.7,27.4-15.2,2.2,0,4.3,0,6.5-2.2.7-2.2,1.4-6.5,2.2-8.7,7.9-9.4,13.7-18,18-28.9,4.3-9.4,10.1-18.1,4.3-24.6-5.8-2.2-9.4-7.2-15.9-11.6-3.6-4.3-1.4-15.9,5.8-18,25.2-6.5,49,.7,73.5-1.4,9.4-2.2,18.7-6.5,29.6-4.3,6.5,2.2,13,2.2,14.4,9.4-.7,2.2-3.6,4.3-5.8,6.5-31.7,15.2-65.6,22.4-85.1,59.2,0,0-2.9,2.9-5,3.6-2.2,2.9-2.2,5.1-2.9,7.9-6.5,1.4-7.2,8.7-12.3,12.3-2.2,0-3.6.7-6.5,3.6-20.9,18.8-7.9,21.7.7,35.4,0,2.2,0,4.3,2.2,6.5s4.3,2.2,6.5,2.2c9.4,11.6,18,22.4,28.8,33.9,2.2,2.2,2.2,8.7,4.3,10.8,9.4,4.3,11.5,13.7,15.9,20.2,2.2,2.2,6.5,4.3,8.6,6.5,8.7,22.4,33.2,33.9,46.1,52,9.4-2.2,13.7,6.5,18,13.7,4.3,6.5-4.3,13-9.4,15.2h0l.3.2Z"/>
    <path id="path11" class="st0" d="M298.8,501.6c-8.7-.7-18-4.3-22.4-10.8-2.2-7.2-6.5-11.6-8.7-15.9-2.2-11.6-4.3-20.2,2.2-28.9,0-2.2,5-6.5,7.2-11.6,4.3-8.7,13-6.5,20.2-10.8,6.5-2.2,10.8,2.2,17.3,5.1h9.4c13,10.8,23.8,24.5,19.5,41.9-7.2,18-24.5,33.2-44.7,31h0Z"/>
    <path id="path13" class="st0" d="M573.3,366.2c-15.1,11.6-32.4,5.8-47.6,9.4-5,1.4-13,1.4-16.6,5.1-2.2,4.3-5.8,5.8-10.1,9.4-11.5,20.9-17.3,43.3-26.7,64.3-7.9,10.8-13.7,22.4-19.5,33.9-2.5,7.7-5.6,15.2-9.4,22.4v9.4c-4.3,11.6-12.3,20.9-15.9,31.8v5.8c13,11.6,24.5-5.1,33.9-13,4.3-3.6,10.1-10.8,15.9-14.4,1.1-1.7,1.6-3.7,1.4-5.8,5.8-7.9,19.5-20.9,26.7-9.4,2.2,7.9,1.4,15.2-2.2,23.1-7.9,7.2-9.4,16.6-13.7,26-1.4,3.6-7.2,3.6-9.4,7.2-5.8,11.6-15.1,20.9-26.7,28.2-2.2,2.2-2.2,5.8-3.6,7.9-5.8,5.1-11.5,10.8-19.5,14.4-7.2,3.6-13,9.4-20.9,13-5.2,3.2-10.7,5.6-16.6,7.2-5.8,2.2-11.5-1.4-17.3,0-5,1.4-9.4,0-11.5-2.2-9.4-16.6-10.8-39.7.7-56.3,2.2-2.2,0-7.9,0-9.4,19.5-43.3,41.1-84.5,56.2-130,0-3.6,2.2-7.2,2.2-11.6,7.9-13,13.7-26,19.5-39,2.2-5.8-3.6-13.7-9.4-13.7-13-2.2-28.1,5.8-37.5-4.3-3.6-5.8-3.6-15.2,0-20.2,5.8-5.8,13-5.8,20.9-7.9,5.8-1.4,11.5,4.3,17.3.7,1,.9,2.3,1.4,3.6,1.4l1.4-1.4c9.4,5.8,19.5,0,25.2-7.2,1.4-4.3,1.4-9.4,3.6-13.7,2.2-3.6,3.6-9.4,5.8-13,7.9-7.2,7.9-16.6,13.7-26,13-17.3,30.3-30.3,53.4-28.2,14.4,11.6,7.2,30.3-2.9,43.3v4.3c-7.2,10.8-20.9,23.8-7.9,35.4,15.1.7,30.3-2.9,45.4-1.4,3.6,10.1,3.6,20.9-2.2,24.6h.3Z"/>
    <path id="path15" class="st0" d="M823.4,506.3c0,3.6-5.8,7.2-7.2,10.8-6.5,15.2-12.3,30.3-21.6,45.5-2.2,3.6-7.9,9.4-9.4,14.4-4.3,9.4-10.1,17.3-15.9,26.7-5.8,7.2-15.1,9.4-22.4,14.4-4.3,2.2-4.3,5.8-7.9,7.9-13,7.2-28.1,10.8-41.8,14.4-11.5,3.6-20.2-7.9-31.7-13.7-9.4-3.6-16.6-11.6-20.2-23.1-2.2-13,0-24.5,9.4-33.2,2.2-2.2,3.6-2.2,5.8-5.8,7.9-7.9,18.7-5.8,28.1,0,7.9,5.8,11.5,17.3,18.7,25.3,7.9,3.6,18.7,3.6,24.5-5.8,11.5-24.5,27.4-44.8,33.2-69.3,3.6-9.4,7.9-17.3,9.4-26.7,0-3.6,0-7.2.7-9.4,1.4-3.6,5-5.8,5.8-9.4,0-24.5,7.9-49.1.7-73.7-3.6-9.4-9.4-18.8-18.7-18.8-9.4,1.4-15.1,8.7-23.1,14.4-3.6,0-7.2,2.2-9.4,3.6-9.4,9.4-18.7,16.6-28.8,26-1.4,2.2-1.4,5.8-3.6,7.9-2.2,1.4-3.6,1.4-5.8,3.6-7.9,13-18.7,20.2-28.8,31.8-7.2,11.6-11.5,24.5-18.7,35.4-2.2,2.2-5.8,4.3-7.9,5.8-9.4,15.2-13.7,30.3-26.7,43.3-4.3,5.8-4.3,13-6.5,18.8-1.4,3.6-5,5.8-7.2,9.4-13.7,20.9-15.9,62.1-47.6,56.3-6.5-1.4-11.5-5.8-11.5-11.5,0-13,4.3-26.7,10.1-37.5v-7.9c7.9-24.5,19.5-44.8,28.8-69.3v-9.4c12.3-36.1,31-65.7,37.5-101.8,7.2-9.4,7.2-22.4,13.7-33.9,1.4-3.6,5-7.2,7.2-11.6,0-3.6-1.4-9.4,0-13,10.1-20.9,19.5-37.5,25.2-59.9l4.3-2.2c0-11.6,7.2-18.8,9.4-30.3,0-3.6,4.3-9.4,5.8-13,4.3-9.4.7-20.9-9.4-22.4-18.7-2.2-35.3-4.3-54.1-6.5-3.6-7.9,0-13,7.2-15.2,9.4,0,17.3-3.6,26.7-5.1,26.7-2.2,51.2-5.1,77.9-8.7,3.6,0,7.2-3.6,10.8-3.6,7.9,0,11.5,7.2,11.5,13-2.2,9.4-2.2,17.3-5.8,26.7-4.3,16.6-15.9,29.6-23.8,46.9v7.2c-1.4,5.8-7.2,11.6-9.4,17.3-11.5,39.7-31,75.1-46.9,112.6-1.4,9.4-5.8,17.3-9.4,26.7-2.2,5.1-2.2,15.2,7.2,13,17.3-7.2,25.2-24.6,36.1-39,4.3-2.2,7.9-3.6,11.5-5.8,7.9-7.2,11.5-16.6,20.9-22.4,10.1-3.6,17.3-7.2,25.2-13,15.1-7.2,31.7-13,46.9-7.2,10.3,5,19.4,12.1,26.7,20.9,7.2,10.1,5,23.1,10.8,32.5-2.2,36.1-5,70-16.6,106.1h0v.5Z"/>
  </g>
</svg>