<svg xmlns="http://www.w3.org/2000/svg" viewBox="0 0 181.7 275" xmlns:v="https://vecta.io/nano"><defs><linearGradient id="A" x1="47.9" y1="65.82" x2="47.9" y2="236.34" gradientUnits="userSpaceOnUse"><stop offset="0" stop-color="#51b258"/><stop offset="1" stop-color="#3d8742"/></linearGradient></defs><path d="M158.6,243.6l-53.1,30.6v-60.9l53.1-30.6v60.9Z" fill="#336636"/><path d="M105.8 30.5L52.7 61.1 0 30.6 53.1 0l52.7 30.5zm52.8 152.2l-53.1 30.7-52.8-30.5 53.1-30.7 52.8 30.5z" fill="#74c87a"/><path d="M52.7 61.1V122l.4 60.7 52.7-30.5V30.5L52.7 61.1z" fill="#336636"/><path d="M53.1 122.2l-.3-61.1L0 30.6v182.7L53.1 244l52.4 30.2v-60.9l-52.4-30.6v-60.5z" fill="url(#A)"/><path d="M181.7 149.3l-53.1 30.6V119l53.1-30.6v60.9z" fill="#336636"/><path d="M181.7 88.4L128.6 119 75.9 88.6 129 57.9l52.7 30.5z" fill="#74c87a"/><path d="M128.6 179.9l-52.7-30.5V88.6l52.7 30.4v60.9z" fill="#51b258"/><path d="M108.4,154.2l-14-8.1v-8c0-2.6,1-4.3,2.8-4.8l.5-.2-.5-.8c-1.7-2.3-2.7-5.1-2.8-8,0-4.4,3.1-6.2,7-4,4.1,2.7,6.7,7.1,7,12,0,2.5-1,4.3-2.8,4.8l-.5.2.5.8c1.7,2.3,2.7,5.1,2.8,8v8.1Z" fill="#29542b"/></svg>