<?xml version="1.0" encoding="UTF-8"?><svg id="a" xmlns="http://www.w3.org/2000/svg" viewBox="0 0 1155 1138"><path d="M606.1,0c156.4,9.4,304.1,73.5,404.9,194.5,42.5,51.1,98.4,128.7,118.3,191.7,15.9,50.4,22,101.2,25.7,153.8v53c-5.7,130-52.1,257.5-138.5,355-104.9,118.5-260.3,185.6-418.4,190h-30c-116.3-5.5-237.7-39.9-330.9-110.4l109.5-207.6,173.4,167,230.1-547.9,74.9,32.9-34-252-206.9,149.5,73.8,35.8-177.8,425.7-162.4-160-162.6,292.6C56.9,872.3,7.3,736.6.3,604c.7-21.6-1-43.4,0-65C13.9,239,250.2,15.1,547.2,0h59Z" style="fill:#4bc0bd;"/></svg>