<svg xmlns="http://www.w3.org/2000/svg" width="1366" zoomAndPan="magnify" viewBox="0 0 1024.5 576" height="768" preserveAspectRatio="xMidYMid meet" xmlns:v="https://vecta.io/nano"><path d="M539.246 238.106v85.078h-19.453v-72.281l-22.391 72.281h-22.516l-22.516-72.672v72.672h-19.312v-85.078h33.391l19.953 65.891 19.969-65.891zm57.951 87.25c-8.187 0-15.141-1.215-20.859-3.641-5.711-2.437-10.336-5.723-13.875-9.859-3.531-4.133-6.109-8.883-7.734-14.25-1.625-5.375-2.437-11.004-2.437-16.891 0-5.801.813-11.367 2.438-16.703s4.203-10.109 7.734-14.328c3.539-4.219 8.164-7.562 13.875-10.031 5.719-2.477 12.672-3.719 20.859-3.719s15.117 1.242 20.797 3.719c5.676 2.469 10.281 5.813 13.813 10.031a40.22 40.22 0 0 1 7.734 14.328c1.625 5.336 2.438 10.902 2.438 16.703 0 5.887-.812 11.496-2.437 16.828-1.617 5.324-4.195 10.074-7.734 14.25-3.531 4.18-8.137 7.484-13.812 9.922-5.68 2.426-12.609 3.641-20.797 3.641zm-24.562-44.641c0 6.137.742 11.34 2.234 15.609 1.5 4.262 4.039 7.5 7.625 9.719s8.484 3.328 14.703 3.328c6.227 0 11.133-1.109 14.719-3.328s6.117-5.457 7.609-9.719c1.5-4.27 2.25-9.473 2.25-15.609 0-6.312-.75-11.598-2.25-15.859-1.492-4.27-4.027-7.516-7.609-9.734s-8.492-3.328-14.719-3.328c-6.219 0-11.121 1.109-14.703 3.328s-6.125 5.465-7.625 9.734c-1.492 4.262-2.234 9.547-2.234 15.859zm153.279 21.75v5.75c0 3.5.164 6.359.5 8.578l1.156 6.391h-19.437c-.512-1.531-.918-3.488-1.219-5.875-.305-2.395-.453-5.344-.453-8.844v-4.469c0-4.781-1.305-8.254-3.906-10.422-2.594-2.176-6.027-3.266-10.297-3.266h-17.516v32.875h-19.578v-85.078h44.906c9.383 0 16.422 2.156 21.109 6.469 4.688 4.305 7.031 9.906 7.031 16.813 0 5.969-1.711 10.898-5.125 14.781-3.406 3.875-7.625 6.371-12.656 7.484 2.906.68 5.531 1.727 7.875 3.141 2.344 1.406 4.195 3.352 5.563 5.828 1.363 2.469 2.047 5.75 2.047 9.844zm-30.187-26.109c4.426 0 7.555-1.039 9.391-3.125 1.832-2.094 2.75-5.102 2.75-9.031 0-3.582-.961-6.312-2.875-8.187s-5.008-2.812-9.266-2.812h-20.984v23.156zm96.719-22.891h-15.734V307.7h15.734v15.484h-50.922V307.7h15.734v-54.234h-15.734v-15.359h50.922zm81.231 69.719l-6.141-17.406h-38.125l-6.141 17.406h-19.562l29.938-85.078h29.672l29.938 85.078zm-39.016-32.375h27.641l-13.828-39.266zm0 0" fill="#4e91ff"/><path fill="#5092ff" d="M240.574 402.863c66.477 0 120.363-53.891 120.363-120.363s-53.887-120.363-120.363-120.363S120.211 216.023 120.211 282.5s53.891 120.363 120.363 120.363zm0 0"/><path fill="#fff" d="M295.926 227.172a11.82 11.82 0 0 1 6.879 10.738v92.512a11.82 11.82 0 0 1-11.82 11.82c-6.527 0-11.82-5.293-11.82-11.82v-64.469c0-.918-1.078-1.414-1.773-.816l-29.129 24.969c-4.324 3.703-10.672 3.805-15.109.23l-29.418-23.687c-.703-.566-1.746-.066-1.746.836v62.938c0 6.527-5.293 11.82-11.824 11.82s-11.82-5.293-11.82-11.82v-89.879a11.83 11.83 0 0 1 6.719-10.664c4.105-1.965 8.973-1.398 12.516 1.457l42.059 33.867a1.07 1.07 0 0 0 1.371-.023l42.285-36.242c3.504-3.008 8.438-3.695 12.633-1.766zm0 0"/></svg>