<svg xmlns="http://www.w3.org/2000/svg" width="1366" zoomAndPan="magnify" viewBox="0 0 1024.5 576" height="768" preserveAspectRatio="xMidYMid meet" xmlns:v="https://vecta.io/nano"><path d="M413.232 455.604v67.922h-15.531v-57.703l-17.875 57.703h-17.969l-17.984-58.016v58.016h-15.422v-67.922h26.656l15.938 52.594 15.938-52.594zm46.278 69.656c-6.543 0-12.094-.969-16.656-2.906s-8.258-4.555-11.078-7.859c-2.824-3.312-4.887-7.109-6.187-11.391-1.293-4.289-1.937-8.785-1.937-13.484 0-4.633.645-9.078 1.938-13.328 1.301-4.258 3.363-8.07 6.188-11.437 2.82-3.375 6.516-6.047 11.078-8.016 4.563-1.977 10.113-2.969 16.656-2.969 6.531 0 12.063.992 16.594 2.969 4.531 1.969 8.207 4.641 11.031 8.016 2.82 3.367 4.879 7.18 6.172 11.438 1.301 4.25 1.953 8.695 1.953 13.328 0 4.699-.652 9.18-1.953 13.438-1.293 4.25-3.352 8.047-6.172 11.391-2.824 3.336-6.5 5.969-11.031 7.906s-10.062 2.906-16.594 2.906zm-19.609-35.641c0 4.898.594 9.047 1.781 12.453s3.207 5.996 6.063 7.766c2.863 1.773 6.785 2.656 11.766 2.656 4.969 0 8.879-.883 11.734-2.656 2.863-1.77 4.891-4.359 6.078-7.766 1.195-3.406 1.797-7.555 1.797-12.453 0-5.039-.602-9.266-1.797-12.672-1.187-3.406-3.215-5.992-6.078-7.766-2.855-1.77-6.766-2.656-11.734-2.656-4.98 0-8.902.887-11.766 2.656-2.855 1.773-4.875 4.359-6.062 7.766s-1.781 7.633-1.781 12.672zm122.359 17.36v4.594c0 2.793.133 5.074.406 6.844l.922 5.109h-15.531c-.406-1.227-.73-2.797-.969-4.703s-.359-4.254-.359-7.047v-3.578c0-3.812-1.039-6.582-3.109-8.312-2.074-1.738-4.812-2.609-8.219-2.609h-14v26.25h-15.625v-67.922h35.859c7.488 0 13.102 1.719 16.844 5.156 3.75 3.438 5.625 7.918 5.625 13.438 0 4.762-1.367 8.695-4.094 11.797-2.719 3.094-6.09 5.086-10.109 5.969 2.313.543 4.406 1.375 6.281 2.5s3.352 2.68 4.438 4.656c1.094 1.969 1.641 4.59 1.641 7.859zm-24.109-20.844c3.539 0 6.039-.832 7.5-2.5 1.469-1.664 2.203-4.066 2.203-7.203 0-2.852-.766-5.031-2.297-6.531s-4-2.25-7.406-2.25h-16.75v18.484zm77.23-18.281h-12.562v43.313h12.563v12.359h-40.656v-12.359h12.563v-43.312h-12.562v-12.25h40.656zm64.863 55.672l-4.906-13.891H644.9l-4.906 13.891h-15.625l23.906-67.922h23.688l23.906 67.922zm-31.156-25.844h22.063l-11.031-31.359zm0 0" fill="#4e91ff"/><path fill="#5092ff" d="M511.898 394.402c101.617 0 183.988-82.375 183.988-183.988S613.516 26.426 511.898 26.426 327.91 108.801 327.91 210.414s82.375 183.988 183.988 183.988zm0 0"/><path fill="#fff" d="M596.508 125.836c6.41 2.949 10.52 9.359 10.52 16.418v141.414c0 9.98-8.09 18.07-18.07 18.07s-18.07-8.09-18.07-18.07v-98.551c0-1.402-1.648-2.16-2.711-1.246l-44.527 38.168c-6.605 5.664-16.313 5.813-23.094.355l-44.969-36.211c-1.074-.867-2.672-.102-2.672 1.277v96.207c0 9.98-8.09 18.07-18.07 18.07s-18.07-8.09-18.07-18.07V146.277c0-6.957 3.992-13.293 10.27-16.297s13.715-2.141 19.133 2.223l64.289 51.77c.617.496 1.5.48 2.098-.031l64.633-55.406a18.07 18.07 0 0 1 19.313-2.699zm0 0"/></svg>