<svg xmlns="http://www.w3.org/2000/svg" fill="none" height="32" width="32" xmlns:v="https://vecta.io/nano"><path d="M16 30c7.732 0 14-6.268 14-14S23.732 2 16 2 2 8.268 2 16s6.268 14 14 14z" fill="#5092ff"/><path d="M22.438 9.564c.488.224.8.712.8 1.249v10.76c0 .759-.616 1.375-1.375 1.375s-1.375-.616-1.375-1.375v-7.499c0-.107-.125-.164-.206-.095l-3.388 2.904c-.503.431-1.241.442-1.757.027l-3.422-2.755c-.082-.066-.203-.008-.203.097v7.321c0 .759-.616 1.375-1.375 1.375s-1.375-.616-1.375-1.375V11.12c0-.529.304-1.012.781-1.24s1.044-.163 1.456.169l4.892 3.939c.047.038.114.037.16-.002l4.918-4.216c.408-.349.982-.43 1.469-.205z" fill="#fff"/></svg>