<svg xmlns="http://www.w3.org/2000/svg" viewBox="0 0 84 46.6" xmlns:v="https://vecta.io/nano"><defs><linearGradient id="A" x1="59" y1="43.5" x2="79" y2=".6" gradientUnits="userSpaceOnUse"><stop offset="0" stop-color="#d4202c"/><stop offset="0" stop-color="#dc3d29" stop-opacity=".8"/><stop offset=".2" stop-color="#e45926" stop-opacity=".6"/><stop offset=".3" stop-color="#ea7123" stop-opacity=".4"/><stop offset=".4" stop-color="#f08521" stop-opacity=".2"/><stop offset=".6" stop-color="#f4941f" stop-opacity=".1"/><stop offset=".7" stop-color="#f79f1e" stop-opacity="0"/><stop offset=".8" stop-color="#f8a51d" stop-opacity="0"/><stop offset="1" stop-color="#f9a71d" stop-opacity="0"/></linearGradient><linearGradient id="B" x1="1013.5" y1="-24.8" x2="1033.5" y2="18.1" gradientTransform="translate(1038.5 27.9) rotate(-180) scale(1 -1)" gradientUnits="userSpaceOnUse"><stop offset="0" stop-color="#d4202c"/><stop offset="0" stop-color="#dc3d29" stop-opacity=".8"/><stop offset=".2" stop-color="#e45926" stop-opacity=".6"/><stop offset=".3" stop-color="#ea7123" stop-opacity=".4"/><stop offset=".4" stop-color="#f08521" stop-opacity=".2"/><stop offset=".6" stop-color="#f4941f" stop-opacity=".1"/><stop offset=".7" stop-color="#f79f1e" stop-opacity="0"/><stop offset=".8" stop-color="#f8a51d" stop-opacity="0"/><stop offset="1" stop-color="#f9a71d" stop-opacity="0"/></linearGradient></defs><path d="M76.2 0c-2.9 0-5.5 1.6-6.9 4.1l-.2.3L63 16.6 55.2 32l5.1 10.1.3.5c.8 1.4 2 2.5 3.4 3.2 1.4-.7 2.6-1.8 3.4-3.2l.3-.5L83 11.9l.4-.7c1.7-4 0-8.6-4.1-10.3-1-.4-2-.7-3.1-.7h0zM28.9 14.6l-5.1-10-.3-.6c-.8-1.4-2-2.5-3.4-3.2-1.4.7-2.6 1.8-3.4 3.2l-.3.6L1 34.8l-.4.7c-1.8 4 0 8.6 4 10.4 3.7 1.7 8.1.2 10.1-3.4l.2-.3L21.1 30l7.8-15.4h0z" fill="#ff5100"/><path d="M76.2 0c-2.9 0-5.5 1.6-6.9 4.1l-.2.3-6.2 12.2L55.1 32l5.1 10.1.3.5c.8 1.4 2 2.5 3.4 3.2 1.4-.7 2.6-1.8 3.4-3.2l.3-.5L83 11.9l.4-.7c1.7-4 0-8.6-4.1-10.3-1-.4-2-.7-3.1-.7h0z" fill="url(#A)"/><path d="M7.9,46.6c2.8,0,5.5-1.5,6.9-4l.2-.3,6.2-12.2,7.8-15.4-5.1-10.1-.3-.6c-.8-1.4-2-2.5-3.4-3.2-1.4.7-2.6,1.8-3.4,3.2l-.3.6L1,34.8l-.4.7c-1.7,4,0,8.6,4.1,10.3,1,.4,2,.7,3.1.7h0Z" fill="url(#B)"/><path d="M28.9 14.6l-5.1-10-.3-.6c-.8-1.4-2-2.5-3.4-3.2l1.5-.6c.7-.2 1.3-.2 2-.2h10.7c2.8 0 5.5 1.5 6.9 4l.3.6L55.3 32l5.1 10 .3.5c.8 1.4 2 2.5 3.5 3.3-1.1.5-2.3.8-3.5.8H50a7.78 7.78 0 0 1-6.8-4l-.3-.5-13.8-27.4z" fill="#ff8c44"/></svg>