<svg xmlns="http://www.w3.org/2000/svg" viewBox="0 0 414.7 204.8" xmlns:v="https://vecta.io/nano"><defs><radialGradient id="A" cx="-427.5" cy="610.6" fx="-427.5" fy="610.6" r="1" gradientTransform="translate(41121.7 57448.4) rotate(-.5) scale(94.5 -94.5)" gradientUnits="userSpaceOnUse"><stop offset="0" stop-color="#fff"/><stop offset=".6" stop-color="#fff"/><stop offset="1" stop-color="#d6d7dd"/></radialGradient><radialGradient id="B" cx="-427.5" cy="610.6" fx="-427.5" fy="610.6" r="1" gradientTransform="translate(41046.9 57449.4) rotate(-.5) scale(94.5 -94.5)" gradientUnits="userSpaceOnUse"><stop offset="0" stop-color="#f7ed1a"/><stop offset=".2" stop-color="#f7ed1a"/><stop offset="1" stop-color="#ef7c29"/></radialGradient><radialGradient id="C" cx="-427.5" cy="610.6" fx="-427.5" fy="610.6" r="1" gradientTransform="translate(40979.2 57455.5) rotate(-.5) scale(94.5 -94.5)" gradientUnits="userSpaceOnUse"><stop offset="0" stop-color="#fff"/><stop offset=".6" stop-color="#fff"/><stop offset="1" stop-color="#d6d7dd"/></radialGradient></defs><path d="M298.4,9.8c-9.8-6.2-21.4-8.4-33.7-7.6-36.5,2.4-79.3,31.5-100,64.2-27.7,43.9-18.8,99.2,19.9,123.6,11.3,7.2,24,10.8,36.9,11.4,31.1,1.3,63.7-15.6,83.3-46.6,27.7-43.9,32.3-120.6-6.4-145" fill="url(#A)"/><path d="M194.3 2.6l-4.6.2c-36.5 2.4-79.3 31.5-100 64.2-27.7 43.9-18.8 99.2 19.9 123.7 11.3 7.2 24 10.8 36.9 11.4s26-1.7 38.4-7.2c-61.6-32.2-47-101.3-28.2-128.6 14.6-23.1 41-44.9 67.2-55.6-.2-.1-.3-.2-.5-.3-8.6-5.4-18.5-7.8-29.1-7.8z" fill="url(#B)"/><path d="M123,3.3c-37.5,0-83.3,30.1-104.9,64.4C-9.6,111.5-.7,166.9,38,191.3c22.3,14.1,49.5,14.8,74,4.5-3.2-1.4-6.4-3.1-9.5-5.1-38.7-24.4-47.6-79.8-19.9-123.6,14.9-23.6,41.3-45.3,68.6-56.5-8.3-5.1-17.9-7.3-28.1-7.4Z" fill="url(#C)"/><path d="M169.3 81l-1.5 4.6c1.6-1.8 3.3-3.2 5.1-4.2 1.8-.9 3.8-1.4 5.9-1.4 2.6 0 4.6.6 5.9 1.8s2 2.8 2 4.6c0 1.9-.6 5-1.7 9.4l-9.1 35.1h-15.2c0 .1 9-34.6 9-34.6.9-3.4 1.3-5.6 1.3-6.3 0-.8-.5-1.1-1.6-1.1-1 0-1.8.4-2.3 1.3s-1.2 3.2-2.2 7l-8.8 33.9h-15.2c0 .1 13-50 13-50h15.6m39.3 17.4l1-3.7c.7-2.6 1-4.3.9-5.1 0-.8-.5-1.1-1.4-1.1-1.1 0-1.8.3-2.2 1s-1 2.4-1.7 5.2l-1 3.7h4.4zm13.1 8l-19.7.2-2.8 10.9c-.6 2.3-.8 3.7-.7 4.4.2.7.7 1 1.6 1a3.17 3.17 0 0 0 2.6-1.3c.6-.9 1.2-2.6 1.9-5.1l1.7-6.6H221c0-.1-1 3.6-1 3.6-.8 3.1-1.6 5.5-2.4 7.1-.8 1.7-2.2 3.4-4.1 5.4-1.9 1.9-4.1 3.3-6.5 4.3s-5.3 1.5-8.6 1.5c-3.2 0-5.9-.4-8.1-1.3s-3.8-2.2-4.8-3.8c-.9-1.6-1.4-3.4-1.5-5.3 0-2 .5-4.8 1.4-8.5l3.8-14.6c1.1-4.4 2.6-7.8 4.4-10.4 1.8-2.5 4.3-4.5 7.3-5.9s6.3-2.1 9.8-2.1c4.3 0 7.6.8 9.9 2.3 2.4 1.6 3.7 3.7 4.2 6.4.4 2.7 0 6.4-1.2 11.3l-1.7 6.6m60.8-26.5l-19.1 50.2h-16.4l3.1-24.2c-1.7 4.5-3.5 9-5.4 13.4l-4.4 10.9-16.4.2 6.5-50.1h13c-.2 1.2-1.5 10.8-4.1 28.7l10.9-28.9h12.4c0-.1-4.3 28.7-4.3 28.7 2.7-8.5 6.4-18.1 10.9-28.9h13m19.2 17.5l1-3.7c.7-2.6 1-4.3.9-5.1 0-.8-.5-1.1-1.4-1.1-1.1 0-1.8.3-2.2 1s-1 2.4-1.7 5.2l-1 3.7h4.4zm13.2 8l-19.6.2-2.8 10.8c-.6 2.3-.8 3.7-.7 4.4s.7 1 1.6 1c1.1 0 2-.4 2.6-1.3s1.2-2.6 1.9-5.1l1.7-6.6H314c0-.1-1 3.6-1 3.6-.8 3.1-1.6 5.5-2.4 7.1-.8 1.7-2.2 3.4-4.1 5.4-1.9 1.9-4.1 3.3-6.5 4.3s-5.3 1.5-8.6 1.5c-3.2 0-5.9-.4-8.1-1.3s-3.8-2.2-4.7-3.8-1.4-3.4-1.5-5.3.4-4.8 1.4-8.5l3.8-14.6c1.1-4.4 2.6-7.8 4.5-10.4 1.8-2.5 4.3-4.5 7.3-5.9s6.3-2.1 9.8-2.1c4.3 0 7.6.7 9.9 2.3 2.4 1.6 3.7 3.7 4.2 6.4.4 2.7 0 6.4-1.2 11.3l-1.7 6.7m27.4-13c.6-2.3.8-3.8.7-4.4s-.6-.9-1.5-.9-1.6.4-2.2 1.1-1.1 2.2-1.7 4.3l-4.4 16.9c-.6 2.2-.8 3.7-.7 4.4s.6 1 1.5 1c1 0 1.7-.4 2.3-1.2.5-.8 1.1-2.7 1.9-5.5l4-15.6zm18.7-13.4l-10 38.7c-1.4 5.2-2.4 8.6-3 10.1s-1.9 3.1-3.8 4.9c-1.9 1.7-4.2 3-7.1 3.9-2.8.9-6.2 1.4-10.1 1.4-4.9 0-8.6-.8-11.1-2.4s-3.2-4.9-2-9.7h14.8c-.6 2.1 0 3.3 1.6 3.2 1.1 0 2-.4 2.6-1.1s1.1-2.1 1.7-4.3l1-3.8c-1.6 1.2-3.2 2.1-4.8 2.7s-3.2.9-4.8.9c-2.7 0-4.9-.5-6.3-1.6-1.5-1.1-2.3-2.5-2.5-4.3s.1-4.3 1-7.7l4.7-18.2c1.2-4.8 3-8.2 5.2-10.3s5.1-3.2 8.6-3.2c1.9 0 3.5.4 4.9 1.1 1.4.8 2.5 1.9 3.3 3.5l2-3.8h14.2m21.2 13.1c.6-2.3.8-3.8.7-4.4s-.6-.9-1.5-.9-1.6.4-2.2 1.1c-.5.7-1.1 2.1-1.6 4.3l-4.4 16.9c-.6 2.2-.8 3.7-.7 4.4 0 .7.6 1 1.5 1 1 0 1.7-.4 2.3-1.2.5-.8 1.2-2.6 1.9-5.5l4-15.5zM401.2 79l-10 38.7c-1.3 5.2-2.3 8.6-3 10.1-.6 1.5-1.9 3.1-3.8 4.9-1.9 1.7-4.3 3-7.1 4-2.8.9-6.2 1.4-10.1 1.4-4.9 0-8.5-.7-11-2.4-2.5-1.6-3.2-4.9-2-9.7H369c-.6 2.1 0 3.3 1.6 3.3 1.2 0 2-.4 2.6-1.1s1.1-2.1 1.7-4.3l1-3.8c-1.6 1.2-3.2 2.1-4.8 2.7s-3.2.9-4.8 1c-2.8 0-4.9-.5-6.3-1.6-1.5-1.1-2.3-2.5-2.5-4.3s.1-4.3 1-7.7l4.7-18.2c1.2-4.8 3-8.2 5.2-10.3 2.3-2.1 5.1-3.2 8.6-3.2 1.9 0 3.5.4 4.9 1.1 1.4.8 2.5 1.9 3.3 3.5l2.1-3.8h14.2m6.2 3.4h.9c.4 0 .8-.2.7-.5 0-.4-.3-.7-.6-.7h-1.1v1.2zm-.8 2.4v-4.3h1.9c.4 0 .7 0 .9.1.2 0 .4.2.5.4s.2.5.2.7 0 .6-.3.8c-.2.2-.5.4-.9.4.1 0 .2 0 .3.1.2.2.3.3.5.6l.7 1.2h-1.2l-.9-1.5c-.2-.2-.3-.2-.5-.2h-.4v1.7h-.9" fill="#002d6a"/><path d="M412.3,83c0,2-1.6,3.6-3.7,3.6s-3.7-1.6-3.7-3.6,1.6-3.7,3.7-3.7,3.7,1.6,3.7,3.7Z" fill="none" stroke="#002d6a" stroke-miterlimit="10" stroke-width=".7"/></svg>