<svg xmlns="http://www.w3.org/2000/svg" viewBox="0 0 33 33" xmlns:v="https://vecta.io/nano"><path fill-rule="evenodd" fill="#777" d="M32.5.5l-1.645.406-.001 1.312 1.646-.394V.5zm-2.148.572l-2.432.592-.002 1.913 2.434-.575V1.072zm-6.834 1.647l3.792-.931v3.034l-3.794.903.002-3.007zm0 5.353l3.792-.914v2.979l-3.794.887.002-2.952zm4.757 4.025l-2.504.609-.002 1.968 2.505-.591v-1.986zm-.355-5.636l2.432-.592V7.8l-2.434.575.002-1.913zm-.791-1.237l-1.645.406-.001 1.312 1.646-.394V5.224zm1.219-.756l1.646-.389v1.269l-1.646.378.001-1.257zm-4.295 8.901l1.145-.271v.883l-1.145.263.001-.875zm2.933-2.704l-1.145.271-.001.875 1.145-.263v-.883zm-3.435 1.034l1.645-.389v1.269l-1.646.378.001-1.257zM.5 8.227v24.271l6.371-1.444V15.642l9.525 13.052 6.367-1.504.004-24.257-6.371 1.504-.015 15.356L6.857 6.713.5 8.227z"/></svg>