<svg xmlns="http://www.w3.org/2000/svg" viewBox="0 0 56.5 16.2" xmlns:v="https://vecta.io/nano"><path d="M12.4 13.6l-.5.2V.8h1.8v15h-1.8L2.2 3l.5-.2v12.9H.8V.8h1.8l9.7 12.8zM24.7 16c-1.4 0-2.6-.3-3.7-.9s-2-1.5-2.6-2.7c-.7-1.1-1-2.5-1-4.1s.3-2.9 1-4.1 1.5-2.1 2.6-2.7 2.4-.9 3.7-.9 2.6.3 3.7.9 2 1.5 2.7 2.7 1 2.5 1 4.1-.3 2.9-1 4.1c-.6 1.1-1.6 2.1-2.7 2.7s-2.3.9-3.7.9zm0-1.7c1 0 2-.2 2.8-.7s1.5-1.1 2-2 .7-2 .7-3.3-.2-2.4-.7-3.3-1.1-1.6-2-2c-.8-.5-1.8-.7-2.8-.7s-2 .2-2.8.7-1.5 1.1-2 2-.7 2-.7 3.3.2 2.4.7 3.3 1.1 1.6 2 2c.8.4 1.8.7 2.8.7zm14.2 1.5L33.5.8h2l4.6 13h-.6L44 .8h2l4.4 13h-.6l4.7-13h1.9l-5.3 15h-1.9L44.8 2.4h.5l-4.4 13.4H39z" fill="#64acff"/></svg>