<?xml version="1.0" encoding="UTF-8"?>
<svg version="1.1" viewBox="0 0 56.5 16.2" xmlns="http://www.w3.org/2000/svg">
<defs>
<style>.st0 {
        fill: #64acff;
      }</style>
</defs>
<path class="st0" d="m12.4 13.6-0.5 0.2v-13h1.8v15h-1.8l-9.7-12.8 0.5-0.2v12.9h-1.9v-14.9h1.8s9.7 12.8 9.7 12.8zm12.3 2.4c-1.4 0-2.6-0.3-3.7-0.9s-2-1.5-2.6-2.7c-0.7-1.1-1-2.5-1-4.1s0.3-2.9 1-4.1 1.5-2.1 2.6-2.7 2.4-0.9 3.7-0.9 2.6 0.3 3.7 0.9 2 1.5 2.7 2.7 1 2.5 1 4.1-0.3 2.9-1 4.1c-0.6 1.1-1.6 2.1-2.7 2.7s-2.3 0.9-3.7 0.9zm0-1.7c1 0 2-0.2 2.8-0.7s1.5-1.1 2-2 0.7-2 0.7-3.3-0.2-2.4-0.7-3.3-1.1-1.6-2-2c-0.8-0.5-1.8-0.7-2.8-0.7s-2 0.2-2.8 0.7-1.5 1.1-2 2-0.7 2-0.7 3.3 0.2 2.4 0.7 3.3 1.1 1.6 2 2c0.8 0.4 1.8 0.7 2.8 0.7zm14.2 1.5-5.4-15h2l4.6 13h-0.6l4.5-13h2l4.4 13h-0.6l4.7-13h1.9l-5.3 15h-1.9l-4.4-13.4h0.5l-4.4 13.4h-1.9z"/>
</svg>
