<svg xmlns="http://www.w3.org/2000/svg" viewBox="0 0 1408.7 1408.7" fill="#505050" xmlns:v="https://vecta.io/nano"><path d="M907.7 470.5H502.5c-17.2 0-31.3 14.1-31.3 31.3V907c0 17.2 14.1 31.3 31.3 31.3h405.2c17.2 0 31.3-14.1 31.3-31.3V501.8c0-17.2-14.1-31.3-31.3-31.3zM440 4.3H34.8C17.6 4.3 3.5 18.4 3.5 35.6v405.2c0 17.2 14.1 31.3 31.3 31.3H440c17.2 0 31.3-14.1 31.3-31.3V35.6c0-17.2-14.1-31.3-31.3-31.3zm933.9 0H968.7c-17.2 0-31.3 14.1-31.3 31.3v405.2c0 17.2 14.1 31.3 31.3 31.3h405.2c17.2 0 31.3-14.1 31.3-31.3V35.6c0-17.2-14.1-31.3-31.3-31.3zM440 936.7H34.8c-17.2 0-31.3 14.1-31.3 31.3v405.2c0 17.2 14.1 31.3 31.3 31.3H440c17.2 0 31.3-14.1 31.3-31.3V968c0-17.2-14.1-31.3-31.3-31.3h0zm933.9 0H968.7c-17.2 0-31.3 14.1-31.3 31.3v405.2c0 17.2 14.1 31.3 31.3 31.3h405.2c17.2 0 31.3-14.1 31.3-31.3V968c0-17.2-14.1-31.3-31.3-31.3h0z"/></svg>