<svg xmlns="http://www.w3.org/2000/svg" width="480" height="480" xmlns:v="https://vecta.io/nano"><defs><linearGradient id="A" y1="240" x2="480" y2="240" gradientUnits="userSpaceOnUse"><stop offset="0" stop-color="#ff6464"/><stop offset="1" stop-color="#ff0034"/></linearGradient><linearGradient id="B" x1="120" y1="240" x2="360" y2="240" gradientUnits="userSpaceOnUse"><stop offset="0" stop-color="#ff0034"/><stop offset="1" stop-color="#ff6464"/></linearGradient></defs><circle cx="240" cy="240" r="240" fill="url(#A)"/><circle cx="240" cy="240" r="120" fill="url(#B)"/><g opacity=".5"><path d="M240,120A120,120,0,1,1,120,240,120,120,0,0,1,240,120m0-60a179.64,179.64,0,1,0,70.08,14.17A179,179,0,0,0,240,60Z" fill="#fff"/></g><path d="M240 360a120 120 0 1 1 66.27-220.09 29.91 29.91 0 0 0 37.73-3.86h0a30 30 0 0 0-4.79-46.3A179.24 179.24 0 0 0 240.93 60C142.49 59.51 60.19 141.22 60 239.65a180 180 0 0 0 279.3 150.51A30 30 0 0 0 344 344h0a29.84 29.84 0 0 0-37.64-4A119.19 119.19 0 0 1 240 360z" fill="#fff"/></svg>