<?xml version="1.0" encoding="UTF-8"?><svg id="Layer_1" xmlns="http://www.w3.org/2000/svg" viewBox="0 0 513.02 605.62"><path d="M451.42,281.71c-.88-1.74-2.58-2.21-3.94-3.06-49.12-30.39-98.23-60.79-147.43-91.05-3.73-2.29-4.52-3.4-1-6.9,12.38-12.29,21.04-27,26.16-43.67,1.17-3.81,2.11-4.69,5.88-2.35,50.62,31.44,101.42,62.6,152.02,94.08,39.9,24.82,39.79,81.26.15,105.63-66.94,41.13-133.77,82.43-200.65,123.66-.57.35-1.11.76-1.71,1.04-1.31.6-2.47,2.38-3.91,1.62-1.49-.78-.69-2.71-.69-4.11-.05-20.49.09-40.98-.14-61.47-.04-3.89,1.3-5.92,4.49-7.89,55.56-34.21,111.06-68.53,166.56-102.84,1.41-.87,2.79-1.78,4.21-2.69Z" style="fill:#f05255;"/><path d="M321.19,102.73c.06,56.91-46.04,103.13-102.83,103.11-56.73-.02-103.11-46.46-103.01-103.11C115.45,46.1,161.43.12,218.1,0c56.98-.12,103.02,45.76,103.08,102.73Z" style="fill:#0ac08d;"/><path d="M174.95,339.07c0,6.17.04,12.33-.03,18.5-.02,1.41.78,3.33-.63,4.14-1.45.83-2.69-.83-3.9-1.58-25.09-15.46-50.16-30.95-75.23-46.44-9.49-5.86-18.93-11.81-28.5-17.54-2.44-1.47-3.38-3.13-3.34-5.99.16-11.83,0-23.66.09-35.49.07-9.39,5.25-12.27,13.36-7.27,29.33,18.1,58.59,36.31,87.87,54.49,6.92,4.3,10.49,10.43,10.34,18.69-.11,6.16-.02,12.33-.02,18.5Z" style="fill:#4772b7;"/><path d="M174.95,254.41c-12.41-7.65-23.99-14.78-35.55-21.93-22.64-14-45.05-28.41-68.06-41.79-7.47-4.34-9.23-9.36-7.54-16.94,1.66-.31,2.7,1.01,3.89,1.75,33.67,20.84,67.26,41.83,101.05,62.48,4.7,2.87,7.25,5.84,6.25,11.38-.23,1.29-.03,2.65-.03,5.05Z" style="fill:#4772b7;"/><path d="M127.03,366.85c0,1,0,2,0,2.99-.03,9.17-7.35,13.65-15.7,9.59-1.9-.92-3.45-2.39-3.73-4.42-.76-5.6-1.11-11.31.14-16.82.97-4.3,5.3-5.76,12.23-4.92,4.2.5,6.65,2.85,7,7.1.18,2.15.03,4.32.03,6.48h.03Z" style="fill:#4772b7;"/><path d="M69.12,379.37c0-1,0-1.99,0-2.99.02-9.28,7.2-13.9,15.55-9.58,7.03,3.63,3.64,10.6,4.27,16.2.43,3.8-.29,7.37-4.35,9.18-9.46,4.21-15.47-.77-15.47-12.8Z" style="fill:#4772b7;"/><path d="M69.12,420.36c0-1,0-1.99,0-2.99.02-9.3,6.91-13.7,15.51-9.83,2.82,1.27,4.25,3.7,4.32,6.76.09,3.98.2,7.98-.02,11.96-.31,5.6-3.38,7.67-10.61,7.53-6.28-.12-8.95-2.41-9.18-7.95-.08-1.82-.01-3.65-.01-5.48Z" style="fill:#4772b8;"/><path d="M69.12,338.47c0-1,0-1.99,0-2.99.02-9.21,7.27-13.85,15.56-9.56,7.05,3.65,3.6,10.61,4.26,16.2.45,3.8-.3,7.36-4.36,9.18-8.55,3.84-15.44-.54-15.46-9.83,0-1,0-1.99,0-2.99Z" style="fill:#4772b7;"/><path d="M165.06,386.27c0,1-.08,2,.01,2.99,1.04,11.02-6.71,11.84-14.88,10.13-3.53-.74-4.92-3.73-4.99-7.2-.07-3.66-.12-7.32,0-10.97.21-6.11,2.95-8.19,10.46-8.15,6.54.04,9.17,2.33,9.38,8.21.06,1.66,0,3.32.01,4.99Z" style="fill:#4772b7;"/><path d="M127.03,407.85c0,1-.03,2,0,2.99.13,3.6.06,7.33-3.68,9.1-4.04,1.91-8.54,2.01-12.51,0-5.59-2.83-5.6-21.81-.03-24.65,3.99-2.03,8.48-1.94,12.52-.02,3.73,1.77,3.83,5.49,3.7,9.09-.04,1.16,0,2.33,0,3.49Z" style="fill:#4772b7;"/><path d="M165.06,427.68c0,.83,0,1.66,0,2.49-.02,9.31-6.61,13.58-15.37,9.97-3.19-1.31-4.42-3.87-4.48-7.1-.07-3.65-.12-7.31,0-10.97.21-6.08,2.94-8.13,10.48-8.08,6.54.04,9.16,2.32,9.35,8.2.06,1.83,0,3.66.01,5.48Z" style="fill:#4772b7;"/><path d="M107.16,448.39c0-1,0-1.99,0-2.99.02-9.17,7.23-13.57,15.66-9.57,1.74.83,3.24,2.06,3.57,3.92,1.04,5.9,1.44,11.93-.16,17.72-1.13,4.09-5.85,5.48-12.5,4.41-4.2-.68-6.39-3.27-6.55-7.5-.08-1.99-.01-3.99-.02-5.98Z" style="fill:#4772b7;"/><path d="M145.2,467.77c0-1.83-.11-3.66.02-5.48.35-4.72,2.91-7.12,7.66-7.34,10.31-.46,12.17,1.33,12.17,11.79,0,1.49,0,2.99,0,4.48-.02,8.28-2.26,10.59-10.14,10.49-7.48-.1-9.69-2.35-9.73-9.96,0-1.33,0-2.66,0-3.98h.02Z" style="fill:#4772b7;"/><path d="M266.57,209.29c-3.27-2.04-5.97-2.32-9.69-1.09-45.35,15-85.48,5.92-119.41-27.63-17.7-17.5-27.54-39.35-30.57-64.18-.28-2.32.35-5.15-2.32-6.73-10.86-6.44-21.01-14.15-33.24-18.1-36.16-11.67-63.15,8.48-69.84,37.63-1.99,8.68-1.42,17.56-1.42,26.39.02,101.32.02,202.63,0,303.95,0,16.45,6.63,29.45,20.63,38.14,53.62,33.27,107.35,66.36,161.02,99.55,5.73,3.54,11.86,6.02,18.42,7.43,19.08,4.09,36.5-5.11,42.74-22.51,1.94-5.41,2.4-11,2.4-16.71-.07-82.99-.13-165.97-.05-248.96,0-3.51-1.23-5.34-4.09-7.07-15.67-9.47-31.23-19.15-46.85-28.7-1.19-.73-2.22-2.1-4.39-1.45v250.95c-2.1-1.23-3.68-2.11-5.21-3.06-41.79-25.81-83.54-51.68-125.41-77.36-3.32-2.04-4.32-4.2-4.31-7.95.1-95.65.08-191.3.11-286.96,0-1.59-.46-3.27.62-5.22,4.41,2.35,8.92,4.45,13.13,7.03,68.63,42.22,137.22,84.52,205.86,126.73,2.42,1.49,3.33,3.16,3.29,6-.16,11.16-.09,22.33-.03,33.49,0,1.34-.72,2.98,1.15,4.27,29.84-17.91,59.75-35.86,90.33-54.2-34.93-21.6-68.94-42.57-102.86-63.69ZM200.18,314.52v-5.51c8.2,1.95,8.68,2.55,8.68,10.57,0,48.16,0,96.32,0,144.49v5.9q-8.68-3.28-8.68-11.45c0-48,0-95.99,0-143.99Z" style="fill:#4772b7;"/><path d="M246.06,90.75c3.35,1.54,6.74,2.39,9.67,4.34,13.15,8.72,14.24,25.85,2.24,36.15-4.25,3.65-9.15,6.15-14.47,7.58-2.71.73-3.05,1.88-2.39,4.2,1.05,3.67,1.85,7.42,2.97,11.08.81,2.65.21,4.05-2.69,4.34-1.31.13-2.67.44-3.85,1-2.99,1.44-3.74-.27-4.3-2.68-.87-3.72-2.04-7.38-2.76-11.13-.82-4.3-3.42-2.27-5.66-1.9-2.31.39-4.17.69-2.97,4,1.3,3.58,1.81,7.43,2.95,11.07,1.73,5.49-2.94,4.26-5.39,5.3-2.78,1.18-4.96,1.45-5.51-2.71-.48-3.6-2-7.05-2.64-10.63-.5-2.8-1.86-3.11-4.19-2.49-5.14,1.37-10.31,2.64-15.46,3.98-1.28.33-2.69,1.02-2.89-1.17-.3-3.31-.65-6.63-.78-9.95-.09-2.18,1.91-1.88,3.26-2.27,7.99-2.32,8.11-2.52,5.97-10.79-3.33-12.88-6.68-25.75-9.99-38.63-2.09-8.1-3.67-9.46-11.44-6.79-5.59,1.92-5.42-1.64-6.49-4.87-1.19-3.61-1.48-6.1,3.5-6.79,4.58-.64,9-2.34,13.55-3.34,2.54-.56,3.28-1.66,2.48-4.15-.87-2.68-1.19-5.57-2.24-8.17-1.88-4.69-.87-6.9,4.43-7.89,3.84-.72,5.4-.07,6.03,3.72.54,3.27,1.68,6.44,2.28,9.71.61,3.35,2.72,2.7,4.78,1.99,1.93-.66,5.14-.21,3.97-4.05-.73-2.38-1.3-4.82-1.9-7.24-1.97-7.89-1.94-7.8,5.77-9.47,2.26-.49,3.34-.11,3.86,2.22.87,3.89,2.12,7.7,2.91,11.61.51,2.51,1.49,3.26,4.07,2.74,2.42-.49,4.98-.56,7.45-.43,8.27.44,15.5,3.09,19.27,11.11,3.61,7.65,2.56,14.91-3.41,21.42Z" style="fill:#fefefe;"/><path d="M231.58,104.32c6.98-.05,11.68,2.62,13.15,7.32,1.58,5.08-1.08,10.81-6.76,14.15-5.53,3.25-11.78,4.31-17.92,5.74-2.37.55-2.45-1.14-2.81-2.47-1.63-5.91-3.11-11.86-4.77-17.77-.54-1.91-.44-2.95,1.82-3.6,5.76-1.66,11.56-2.95,17.3-3.37Z" style="fill:#0ac08e;"/><path d="M218.47,72.88c7.7-.07,12.16,2.74,13.36,7.82,1.11,4.7-1.68,9.46-7.24,12.38-.29.15-.59.3-.89.45-12.7,6-14.06,5.4-17.52-7.79q-2.7-10.26,7.81-12.35c1.79-.35,3.63-.41,4.49-.5Z" style="fill:#0ac08e;"/></svg>