<?xml version="1.0" encoding="UTF-8"?><svg id="base" xmlns="http://www.w3.org/2000/svg" xmlns:xlink="http://www.w3.org/1999/xlink" viewBox="0 0 130.14 193.82"><defs><linearGradient id="linear-gradient" x1="120.63" y1="139.74" x2="9.5" y2="28.61" gradientUnits="userSpaceOnUse"><stop offset=".16" stop-color="#ef5354"/><stop offset=".78" stop-color="#4b72b7"/></linearGradient></defs><path d="M65.07,0C29.13,0,0,29.13,0,65.07c0,42.84,45.41,106.41,62.27,127.41.71.88,1.67,1.34,2.8,1.34s2.09-.46,2.8-1.34c16.86-21,62.27-84.56,62.27-127.41C130.14,29.13,101.01,0,65.07,0Z" style="fill:url(#linear-gradient); fill-rule:evenodd;"/><path d="M65.07,114.59c24.64,0,44.74-20.1,44.74-44.74s-20.1-44.74-44.74-44.74-44.74,20.1-44.74,44.74,20.1,44.74,44.74,44.74Z" style="fill:#fff; fill-rule:evenodd;"/><path d="M65.07,29.01c24.06,0,43.68,18.99,44.69,42.79.03-.65.04-1.29.04-1.95,0-24.71-20.03-44.74-44.74-44.74s-44.74,20.03-44.74,44.74c0,.65.01,1.3.04,1.95,1.02-23.8,20.64-42.79,44.69-42.79Z" style="fill:#262f3e; fill-rule:evenodd; opacity:.3;"/><path d="M65.07,7.78c34.66,0,62.99,27.1,64.96,61.26.07-1.33.11-2.65.11-3.98C130.14,29.13,101.01,0,65.07,0S0,29.13,0,65.07c0,1.26.04,2.54.12,3.82C2.17,34.8,30.46,7.78,65.07,7.78Z" style="fill:#262f3e; fill-rule:evenodd;"/><path d="M65.83,99.83c-7.72,0-15.43,0-23.15,0-2.41,0-4.32-1.51-4.85-3.82-.09-.41-.12-.82-.12-1.24,0-10.26,0-20.51,0-30.77,0-.44.06-.58.55-.48.74.15,1.51.13,2.25,0,.31-.06.4,0,.39.32-.02.84,0,1.67,0,2.51,0,9.32,0,18.65,0,27.97,0,1.28.59,2.1,1.68,2.39.22.06.45.05.67.05,15.09,0,30.19,0,45.28,0,1.43,0,2.31-.88,2.31-2.31,0-10.13,0-20.25,0-30.38,0-.57,0-.56.58-.5.74.07,1.48.1,2.21-.05.27-.06.44-.03.4.31-.01.09,0,.19,0,.29,0,10.22-.03,20.45.02,30.67.01,2.7-2.07,5.09-5.07,5.08-7.72-.03-15.43-.01-23.15-.01Z" style="fill:#4871b6;"/><path d="M65.88,94.63c-5.99,0-11.99,0-17.98,0-2.66,0-4.42-1.75-4.42-4.4,0-1.8,0-3.6,0-5.4,0-2.48,1.8-4.28,4.29-4.28,12.09,0,24.17,0,36.26,0,2.49,0,4.29,1.79,4.3,4.28,0,1.83,0,3.66,0,5.5,0,2.53-1.79,4.31-4.31,4.31-6.04,0-12.09,0-18.13,0Z" style="fill:#ef5455;"/><path d="M58.39,72.36c-.06,3.63-2.99,6.5-6.55,6.43-3.61-.07-6.4-3.01-6.34-6.68.06-3.51,3.05-6.3,6.68-6.23,3.4.07,6.27,3.06,6.21,6.47Z" style="fill:#ef5454;"/><path d="M77.32,68.19c1.98,0,3.95,0,5.93,0,.87,0,1.28.4,1.28,1.26,0,2.8,0,5.59,0,8.39,0,.87-.41,1.27-1.27,1.27-2.7,0-5.4,0-8.1.01-.4,0-.47-.13-.47-.49.02-1.93,0-3.86,0-5.79,0-1.29-.64-1.93-1.91-1.93-.77,0-1.54-.01-2.31,0-.28,0-.41-.05-.39-.37.03-.38,0-.77,0-1.16.01-.77.43-1.2,1.19-1.2,2.01,0,4.02,0,6.03,0Z" style="fill:#ef5454;"/><path d="M66.61,72.24c1.83,0,3.66,0,5.5,0,.86,0,1.27.41,1.27,1.27,0,1.45,0,2.89,0,4.34,0,.86-.41,1.26-1.28,1.26-3.68,0-7.36,0-11.04,0-.82,0-1.24-.41-1.25-1.24-.01-1.46-.01-2.92,0-4.39,0-.84.43-1.24,1.26-1.24,1.85,0,3.7,0,5.54,0Z" style="fill:#ef5454;"/><path d="M97.44,52.93c-.13.09-.28.05-.41.05-3.1,0-6.2,0-9.3,0-.25,0-.44,0-.59-.28-1.95-3.45-3.91-6.9-5.87-10.34-.02-.04-.03-.09-.06-.15.13-.09.28-.05.41-.05,1.96,0,3.92,0,5.88,0,.28,0,.48.06.67.28,3.02,3.4,6.05,6.79,9.07,10.18.08.09.19.17.21.31Z" style="fill:#4972b7;"/><path d="M71.76,42.16c.51,0,1.01,0,1.51,0,1.62,0,3.24,0,4.87,0,.25,0,.41.04.54.29,1.79,3.43,3.59,6.85,5.38,10.27.04.07.05.14.09.26h-.56c-3.05,0-6.1,0-9.16,0-.4,0-.53-.11-.61-.51-.66-3.37-1.35-6.73-2.03-10.09-.01-.06-.02-.12-.03-.23Z" style="fill:#4972b7;"/><path d="M65.97,52.98c-1.57,0-3.15,0-4.72,0-.34,0-.44-.07-.38-.43.55-3.32,1.09-6.65,1.61-9.97.06-.35.2-.43.53-.43,1.96.02,3.92.02,5.88,0,.35,0,.47.11.52.43.45,2.84.91,5.67,1.36,8.5.08.51.13,1.02.25,1.52.08.33-.03.38-.32.37-1.57-.01-3.15,0-4.72,0Z" style="fill:#4972b7;"/><path d="M52.64,52.98c-1.56,0-3.12,0-4.68,0-.37,0-.5-.02-.28-.43,1.77-3.35,3.53-6.7,5.28-10.06.12-.24.26-.35.55-.35,1.99.01,3.99.02,5.98,0,.36,0,.42.09.35.44-.68,3.3-1.34,6.6-1.99,9.9-.08.4-.23.5-.63.49-1.53-.03-3.05-.01-4.58-.01Z" style="fill:#4972b7;"/><path d="M50.61,42.16c-.33.58-.62,1.11-.92,1.64-1.67,2.94-3.34,5.89-5.01,8.83-.13.23-.25.36-.55.36-3.18-.01-6.36,0-9.54,0-.08,0-.15,0-.33-.02.67-.75,1.28-1.44,1.89-2.13,2.47-2.77,4.93-5.54,7.39-8.32.22-.25.44-.36.78-.35,1.93.02,3.85,0,5.78,0h.5Z" style="fill:#4972b7;"/><path d="M52.69,54.63c1.54,0,3.08,0,4.62,0,.31,0,.44.06.47.41.11,1.2,0,2.38-.44,3.5-.87,2.25-2.75,2.98-4.99,2.88-1.78-.08-3.24-.76-4.12-2.4-.67-1.25-.83-2.61-.79-4.01,0-.34.19-.38.47-.37,1.59,0,3.18,0,4.77,0Z" style="fill:#4972b7;"/><path d="M39.43,54.63c1.56,0,3.12,0,4.67,0,.32,0,.43.08.46.42.09,1.25-.02,2.47-.5,3.64-.68,1.64-1.96,2.47-3.69,2.69-.69.09-1.38.08-2.06-.05-2.28-.43-3.72-2.07-3.99-4.51-.06-.57-.1-1.15-.1-1.73,0-.36.14-.46.49-.46,1.57.02,3.15,0,4.72,0Z" style="fill:#4972b7;"/><path d="M92.38,54.63c1.53,0,3.05.02,4.58-.01.45,0,.57.13.57.56.02,1.3-.13,2.56-.73,3.74-.74,1.44-1.96,2.21-3.53,2.44-1,.14-1.99.11-2.95-.22-1.9-.64-2.73-2.11-3.05-3.97-.11-.67-.11-1.34-.1-2.02,0-.38.13-.53.54-.52,1.56.02,3.12,0,4.67,0Z" style="fill:#4972b7;"/><path d="M79.02,54.63c1.56,0,3.12.01,4.68,0,.36,0,.5.07.5.47.02,1.28-.1,2.53-.67,3.71-.77,1.58-2.07,2.38-3.8,2.57-.84.09-1.67.06-2.48-.16-1.98-.54-2.91-1.97-3.28-3.88-.15-.76-.12-1.53-.11-2.31,0-.33.14-.4.44-.4,1.57.01,3.15,0,4.72,0Z" style="fill:#4972b7;"/><path d="M65.95,54.63c1.53,0,3.05.02,4.58-.01.47-.01.55.15.56.57.01,1.18-.1,2.34-.59,3.44-.75,1.68-2.07,2.55-3.88,2.75-.86.09-1.7.06-2.53-.18-2-.56-2.9-2.03-3.25-3.96-.13-.72-.09-1.44-.1-2.16,0-.37.15-.45.49-.45,1.57.02,3.15,0,4.72,0Z" style="fill:#4972b7;"/><path d="M65.95,92.7c-6.02,0-12.05,0-18.07,0-1.59,0-2.46-.88-2.46-2.48,0-1.8,0-3.6,0-5.4,0-1.43.92-2.35,2.35-2.35,12.1,0,24.2,0,36.29,0,1.43,0,2.34.92,2.34,2.35,0,1.85,0,3.7,0,5.54,0,1.4-.93,2.32-2.33,2.32-6.04,0-12.08,0-18.12,0Z" style="fill:#fff;"/></svg>