<?xml version="1.0" encoding="utf-8"?>
<!-- Generator: Adobe Illustrator 21.0.0, SVG Export Plug-In . SVG Version: 6.00 Build 0)  -->
<svg version="1.1" id="Layer_1" xmlns="http://www.w3.org/2000/svg" xmlns:xlink="http://www.w3.org/1999/xlink" x="0px" y="0px"
	 viewBox="0 0 612 792" style="enable-background:new 0 0 612 792;" xml:space="preserve">
<style type="text/css">
	.st0{clip-path:url(#SVGID_2_);}
	.st1{fill:#4B72B8;}
	.st2{clip-path:url(#SVGID_6_);}
	.st3{fill:#FFFFFF;}
	.st4{fill:#32B88C;}
</style>
<g>
	<defs>
		<path id="SVGID_1_" d="M325.5,430.2c-9-5.5-19.9-12.3-26.1-16.2l71.1-43.1l-87.8-54.5l22.5-13.8c23.5,14.5,77,47.5,80.2,50.1
			c4.2,3.3,11,7.7,11,21c0,13.3-12.5,20.2-12.5,20.2L325.5,430.2"/>
	</defs>
	<clipPath id="SVGID_2_">
		<use xlink:href="#SVGID_1_"  style="overflow:visible;"/>
	</clipPath>
	<g class="st0">
		<defs>
			<rect id="SVGID_3_" x="282.7" y="302.5" width="113.7" height="127.7"/>
		</defs>
		<clipPath id="SVGID_4_">
			<use xlink:href="#SVGID_3_"  style="overflow:visible;"/>
		</clipPath>
		<g style="clip-path:url(#SVGID_4_);">
			
				<image style="overflow:visible;" width="244" height="270" xlink:href="6FB145FE.jpg"  transform="matrix(0.48 0 0 -0.48 281.5126 431.3253)">
			</image>
		</g>
	</g>
</g>
<path class="st1" d="M291.8,417.9c-9.5,5.8-19.1,11.8-21.4,13.6c-4.8,3.8-12.7,9-12.7,24.4c0,1,0.1,1.9,0.2,2.8l-0.1,0.1v12.8
	l-13.1-8.1c0,0-3.2-2.1-3.2-6.2c0-4,0-121.3,0-121.3l0-0.3c0.2-1.4,0.7-2.2,1.1-2.6l19.3-11.9c0,0,0,0,0,0l36.9-22.7
	c0,0-11-7.6-20.2-8.4c-9.2-0.8-15.8,3-15.8,3s-32,19.1-36.6,22.7c-0.4,0.2-0.7,0.5-1.1,0.7c-0.8,0.6-1.6,1.3-2.3,1.9
	c-3.7,3.2-7.6,8-7.8,17.8c0,0.2,0,0.3,0,0.3s0,115.3,0,126.9c0,11.6,8.6,15.9,8.6,15.9s29.2,18.3,33,20.5c3.8,2.2,9.7,4.2,17.1,0.7
	c5.1-2.4,7.1-7.1,7.8-10.2c0.4-1.8,0.5-5.6,0.5-5.6V460c0-4,2.1-5.1,2.1-5.1l33.7-20.9C309.7,429,296,420.5,291.8,417.9z"/>
<g>
	<defs>
		<path id="SVGID_5_" d="M241.4,438.6c0-7.2,0-15.8,0-25.1c30.9-19.5,69.6-43.9,69.6-43.9s4.4-3.2,9.3-3.2c2.8,0,5.9,1.1,8.3,4.5
			c7,10-6.1,16.4-6.1,16.4L241.4,438.6 M241.4,407.5c0-8.3,0-16.8,0-25c14.5-9.2,27.1-17.2,27.1-17.2s4.4-3.2,9.3-3.2
			c2.8,0,5.9,1.1,8.3,4.5c7,10-6.1,16.4-6.1,16.4L241.4,407.5 M241.4,376.6c0-9.3,0-17.9,0-24.8c19.5-12.3,38.7-24.3,38.7-24.3
			s4.4-3.5,9.3-3.5c2.7,0,5.6,1.1,7.9,4.4c7,10-6.1,16.4-6.1,16.4L241.4,376.6"/>
	</defs>
	<clipPath id="SVGID_6_">
		<use xlink:href="#SVGID_5_"  style="overflow:visible;"/>
	</clipPath>
	<g class="st2">
		<defs>
			<rect id="SVGID_7_" x="241.4" y="324" width="94.2" height="114.5"/>
		</defs>
		<clipPath id="SVGID_8_">
			<use xlink:href="#SVGID_7_"  style="overflow:visible;"/>
		</clipPath>
		<g style="clip-path:url(#SVGID_8_);">
			
				<image style="overflow:visible;" width="204" height="242" xlink:href="6FB145F9.jpg"  transform="matrix(0.48 0 0 -0.48 240.0623 439.562)">
			</image>
		</g>
	</g>
</g>
<path class="st3" d="M302.1,393.9c20.6,0,37.4-16.8,37.4-37.4c0-20.6-16.8-37.4-37.4-37.4c-20.6,0-37.4,16.8-37.4,37.4
	C264.7,377.1,281.5,393.9,302.1,393.9L302.1,393.9z"/>
<path class="st3" d="M302.1,393.9v1.8c21.6,0,39.2-17.6,39.2-39.2c0-21.6-17.6-39.2-39.2-39.2c-21.6,0-39.2,17.6-39.2,39.2
	c0,21.6,17.6,39.2,39.2,39.2V393.9v-1.8c-9.8,0-18.7-4-25.2-10.4c-6.4-6.5-10.4-15.3-10.4-25.2c0-9.8,4-18.7,10.4-25.2
	c6.5-6.4,15.3-10.4,25.2-10.4c9.8,0,18.7,4,25.2,10.4c6.4,6.5,10.4,15.3,10.4,25.2c0,9.8-4,18.7-10.4,25.2
	c-6.5,6.4-15.3,10.4-25.2,10.4V393.9L302.1,393.9z"/>
<path class="st4" d="M302.1,388.3c17.6,0,31.8-14.2,31.8-31.8c0-17.6-14.2-31.8-31.8-31.8c-17.6,0-31.8,14.2-31.8,31.8
	C270.3,374.1,284.5,388.3,302.1,388.3L302.1,388.3z"/>
<path class="st3" d="M314.6,344.1c-1.9-4.3-6.3-5.2-11.6-4.3l-1.7-6.6l-4,1l1.7,6.6c-1.1,0.3-2.2,0.5-3.2,0.8L294,335l-4,1l1.7,6.6
	c-0.9,0.2-8.2,2.1-8.2,2.1l1.1,4.3l2.9-0.8c1.6-0.4,2.4,0.4,2.8,1.2l4.7,18.2c0.1,0.5,0,1.4-1.2,1.7l-2.9,0.8l0.4,5
	c0,0,7.2-1.8,8.2-2.1l1.7,6.7l4-1l-1.7-6.8c1.1-0.3,2.2-0.5,3.2-0.8l1.7,6.7l4-1l-1.7-6.7c6.2-1.5,10.6-5.4,9.7-11.4
	c-0.6-3.6-4.5-6.6-7.8-6.9C314.8,350.1,315.8,347.5,314.6,344.1L314.6,344.1z M312.6,359.9c0.8,5.9-7.5,6.7-10.2,7.4l-2.4-8.9
	C302.8,357.7,311.3,354.7,312.6,359.9L312.6,359.9z M307.6,347.8c0.9,5.3-6.2,5.9-8.5,6.5l-2.2-8.1
	C299.3,345.7,305.9,342.9,307.6,347.8L307.6,347.8z"/>
</svg>
