<?xml version="1.0" encoding="UTF-8"?>
<svg id="Layer_1" xmlns="http://www.w3.org/2000/svg" xmlns:xlink="http://www.w3.org/1999/xlink" version="1.1" viewBox="0 0 181.4 212.4">
  <!-- Generator: Adobe Illustrator 29.4.0, SVG Export Plug-In . SVG Version: 2.1.0 Build 152)  -->
  <defs>
    <style>
      .st0 {
        fill: #32b88c;
      }

      .st1 {
        fill: url(#linear-gradient);
      }

      .st2 {
        fill: #4b72b8;
      }

      .st3 {
        fill: #fff;
      }

      .st4 {
        fill: #f05454;
      }
    </style>
    <linearGradient id="linear-gradient" x1="26.8" y1="-687.3" x2="115.9" y2="-687.3" gradientTransform="translate(0 -596) scale(1 -1)" gradientUnits="userSpaceOnUse">
      <stop offset="0" stop-color="#fff" stop-opacity="0"/>
      <stop offset=".2" stop-color="#32b88c"/>
    </linearGradient>
  </defs>
  <path class="st4" d="M110.5,140.2c-9-5.5-19.9-12.3-26.1-16.2l71.1-43.1L67.7,26.4l22.5-13.8c23.5,14.5,77,47.5,80.2,50.1,4.2,3.3,11,7.7,11,21s-12.5,20.2-12.5,20.2c0,0-58.4,36.3-58.4,36.3h0Z"/>
  <path class="st2" d="M76.8,127.9c-9.5,5.8-19.1,11.8-21.4,13.6-4.8,3.8-12.7,9-12.7,24.4s0,1.9.2,2.8h0v12.9l-13.1-8.1s-3.2-2.1-3.2-6.2V45.7c.2-1.4.7-2.2,1.1-2.6l19.3-11.9h0l36.9-22.7S72.8.9,63.6.1c-9.2-.8-15.8,3-15.8,3,0,0-32,19.1-36.6,22.7-.4.2-.7.5-1.1.7-.8.6-1.6,1.3-2.3,1.9-3.7,3.2-7.6,8-7.8,17.8v127.2c0,11.6,8.6,15.9,8.6,15.9,0,0,29.2,18.3,33,20.5,3.8,2.2,9.7,4.2,17.1.7,5.1-2.4,7.1-7.1,7.8-10.2.4-1.8.5-5.6.5-5.6v-24.7c0-4,2.1-5.1,2.1-5.1l33.7-20.9c-8.1-5-21.8-13.5-26-16.1h0Z"/>
  <path class="st1" d="M26.8,148.6v-25.1c30.8-19.5,69.4-43.9,69.4-43.9,0,0,4.4-3.2,9.3-3.2s5.9,1.1,8.3,4.5c7,10-6.1,16.4-6.1,16.4l-80.9,51.3M26.8,117.5v-25c14.5-9.2,27-17.2,27-17.2,0,0,4.4-3.2,9.3-3.2s5.9,1.1,8.3,4.5c7,10-6.1,16.4-6.1,16.4l-38.5,24.5M26.8,86.6v-24.8c19.5-12.3,38.6-24.3,38.6-24.3,0,0,4.4-3.5,9.3-3.5s5.6,1.1,7.9,4.4c7,10-6.1,16.4-6.1,16.4l-49.7,31.8Z"/>
  <path class="st3" d="M87.1,103.9c20.6,0,37.4-16.8,37.4-37.4s-16.8-37.4-37.4-37.4-37.4,16.8-37.4,37.4,16.8,37.4,37.4,37.4h0Z"/>
  <path class="st0" d="M87.1,98.3c17.6,0,31.8-14.2,31.8-31.8s-14.2-31.8-31.8-31.8-31.8,14.2-31.8,31.8,14.2,31.8,31.8,31.8h0Z"/>
  <path class="st3" d="M99.6,54.1c-1.9-4.3-6.3-5.2-11.6-4.3l-1.7-6.6-4,1,1.7,6.6c-1.1.3-2.2.5-3.2.8l-1.8-6.6-4,1,1.7,6.6c-.9.2-8.2,2.1-8.2,2.1l1.1,4.3,2.9-.8c1.6-.4,2.4.4,2.8,1.2l4.7,18.2c0,.5,0,1.4-1.2,1.7l-2.9.8.4,5s7.2-1.8,8.2-2.1l1.7,6.7,4-1-1.7-6.8c1.1-.3,2.2-.5,3.2-.8l1.7,6.7,4-1-1.7-6.7c6.2-1.5,10.6-5.4,9.7-11.4-.6-3.6-4.5-6.6-7.8-6.9,2.2-1.7,3.2-4.3,2-7.7h0ZM97.6,69.9c.8,5.9-7.5,6.7-10.2,7.4l-2.4-8.9c2.8-.7,11.3-3.7,12.6,1.5h0ZM92.6,57.8c.9,5.3-6.2,5.9-8.5,6.5l-2.2-8.1c2.4-.5,9-3.3,10.7,1.6h0Z"/>
</svg>