<?xml version="1.0" encoding="UTF-8"?><svg id="Layer_1" xmlns="http://www.w3.org/2000/svg" xmlns:xlink="http://www.w3.org/1999/xlink" viewBox="0 0 181.39999 212.41044"><defs><clipPath id="clippath"><path d="M110.5,140.21067c-9-5.5-19.9-12.29999-26.1-16.20001l71.1-43.09998L67.7,26.41068l22.5-13.80005c23.5,14.5,77,47.5,80.2,50.10004,4.2,3.29999,11,7.70001,11,21s-12.5,20.20001-12.5,20.20001c0,0-58.4,36.29999-58.39999,36.29999Z" style="fill:none;"/></clipPath><linearGradient id="linear-gradient" x1="26.8" y1="901.31066" x2="115.85827" y2="901.31066" gradientTransform="translate(0 -810)" gradientUnits="userSpaceOnUse"><stop offset=".05" stop-color="#fff"/><stop offset=".2" stop-color="#32b88c"/></linearGradient></defs><path d="M110.5,140.21065c-9-5.5-19.9-12.3-26.1-16.2l71.1-43.1L67.7,26.41066l22.5-13.8c23.5,14.5,77,47.5,80.2,50.1,4.2,3.3,11,7.7,11,21s-12.5,20.2-12.5,20.2c0,0-58.4,36.3-58.39999,36.3Z" style="fill:#f05454;"/><g style="clip-path:url(#clippath);"><rect x="67.7" y="12.51066" width="113.7" height="127.7" style="fill:#f05454;"/></g><path d="M76.8,127.91066c-9.5,5.8-19.1,11.8-21.4,13.6-4.8,3.8-12.7,9-12.7,24.39999s0,1.89999.2,2.8h0v12.89999l-13.1-8.10001s-3.2-2.10001-3.2-6.2V45.71066c.2-1.4.7-2.2,1.1-2.6l19.3-11.9h0l36.9-22.7S72.8.91066,63.6.11066c-9.2-.8-15.8,3-15.8,3,0,0-32,19.1-36.6,22.7-.4.2-.7.5-1.1.7-.8.6-1.6,1.3-2.3,1.9C4.1,31.61066.2,36.41066,0,46.21066v127.19999c0,11.60001,8.6,15.89999,8.6,15.89999,0,0,29.2,18.3,33,20.5,3.8,2.2,9.7,4.2,17.1.7,5.1-2.39999,7.1-7.10001,7.8-10.2.4-1.8.5-5.60001.5-5.60001v-24.7c0-4,2.1-5.10001,2.1-5.10001l33.7-20.89999c-8.1-5-21.8-13.5-26-16.1h0v.00002Z" style="fill:#4b72b8;"/><path d="M26.8,148.61066v-25.1c30.8-19.5,69.4-43.9,69.4-43.9,0,0,4.4-3.2,9.3-3.2s5.9,1.1,8.3,4.5c7,10-6.1,16.4-6.1,16.4l-80.9,51.3M26.8,117.51066v-25c14.5-9.2,27-17.2,27-17.2,0,0,4.4-3.2,9.3-3.2s5.9,1.1,8.3,4.5c7,10-6.1,16.4-6.1,16.4l-38.5,24.5M26.8,86.61066v-24.8c19.5-12.3,38.59999-24.3,38.59999-24.3,0,0,4.4-3.5,9.3-3.5s5.6,1.1,7.9,4.4c7,10-6.1,16.4-6.1,16.4,0,0-49.7,31.8-49.7,31.8Z" style="fill:url(#linear-gradient);"/><path d="M87.1,103.91066c20.6,0,37.4-16.8,37.4-37.4s-16.8-37.4-37.4-37.4-37.4,16.8-37.4,37.4,16.8,37.4,37.4,37.4h0Z" style="fill:#fff;"/><path d="M87.1,98.31066c17.6,0,31.8-14.2,31.8-31.8s-14.2-31.8-31.8-31.8-31.8,14.2-31.8,31.8,14.2,31.8,31.8,31.8h0Z" style="fill:#32b88c;"/><path d="M99.6,54.11066c-1.9-4.3-6.3-5.2-11.6-4.3l-1.7-6.6-4,1,1.7,6.6c-1.1.3-2.2.5-3.2.8l-1.8-6.6-4,1,1.7,6.6c-.9.2-8.2,2.1-8.2,2.1l1.1,4.3,2.9-.8c1.6-.4,2.4.4,2.8,1.2l4.7,18.2c0,.5,0,1.4-1.2,1.7l-2.9.8.4,5s7.2-1.8,8.2-2.1l1.7,6.7,4-1-1.7-6.8c1.1-.3,2.2-.5,3.2-.8l1.7,6.7,4-1-1.7-6.7c6.2-1.5,10.6-5.4,9.7-11.4-.6-3.6-4.5-6.6-7.8-6.9,2.2-1.7,3.2-4.3,2-7.7h0ZM97.6,69.91066c.8,5.9-7.5,6.7-10.2,7.4l-2.4-8.9c2.8-.7,11.3-3.7,12.6,1.5h0ZM92.6,57.81066c.9,5.3-6.2,5.9-8.5,6.5l-2.2-8.1c2.4-.5,9-3.3,10.7,1.6h0Z" style="fill:#fff;"/></svg>