<svg xmlns="http://www.w3.org/2000/svg" viewBox="0 0 181.4 212.4" xmlns:v="https://vecta.io/nano"><defs><linearGradient id="A" x1="26.8" y1="91.3" x2="115.9" y2="91.3" gradientUnits="userSpaceOnUse"><stop offset="0" stop-color="#fff" stop-opacity="0"/><stop offset=".2" stop-color="#32b88c"/></linearGradient></defs><path d="M110.5 140.2L84.4 124l71.1-43.1-87.8-54.5 22.5-13.8 80.2 50.1c4.2 3.3 11 7.7 11 21s-12.5 20.2-12.5 20.2l-58.4 36.3h0z" fill="#f05454"/><path d="M76.8 127.9c-9.5 5.8-19.1 11.8-21.4 13.6-4.8 3.8-12.7 9-12.7 24.4s0 1.9.2 2.8h0v12.9l-13.1-8.1s-3.2-2.1-3.2-6.2V45.7c.2-1.4.7-2.2 1.1-2.6L47 31.2h0L83.9 8.5S72.8.9 63.6.1s-15.8 3-15.8 3-32 19.1-36.6 22.7c-.4.2-.7.5-1.1.7-.8.6-1.6 1.3-2.3 1.9-3.7 3.2-7.6 8-7.8 17.8v127.2c0 11.6 8.6 15.9 8.6 15.9l33 20.5c3.8 2.2 9.7 4.2 17.1.7 5.1-2.4 7.1-7.1 7.8-10.2.4-1.8.5-5.6.5-5.6V170c0-4 2.1-5.1 2.1-5.1l33.7-20.9-26-16.1h0z" fill="#4b72b8"/><path d="M26.8 148.6v-25.1l69.4-43.9s4.4-3.2 9.3-3.2 5.9 1.1 8.3 4.5c7 10-6.1 16.4-6.1 16.4l-80.9 51.3m0-31.1v-25l27-17.2s4.4-3.2 9.3-3.2 5.9 1.1 8.3 4.5c7 10-6.1 16.4-6.1 16.4l-38.5 24.5m0-30.9V61.8l38.6-24.3s4.4-3.5 9.3-3.5 5.6 1.1 7.9 4.4c7 10-6.1 16.4-6.1 16.4L26.8 86.6z" fill="url(#A)"/><path d="M87.1,103.9c20.6,0,37.4-16.8,37.4-37.4s-16.8-37.4-37.4-37.4-37.4,16.8-37.4,37.4,16.8,37.4,37.4,37.4h0Z" fill="#fff"/><path d="M87.1,98.3c17.6,0,31.8-14.2,31.8-31.8s-14.2-31.8-31.8-31.8-31.8,14.2-31.8,31.8,14.2,31.8,31.8,31.8h0Z" fill="#32b88c"/><path d="M99.6 54.1c-1.9-4.3-6.3-5.2-11.6-4.3l-1.7-6.6-4 1 1.7 6.6c-1.1.3-2.2.5-3.2.8L79 45l-4 1 1.7 6.6c-.9.2-8.2 2.1-8.2 2.1l1.1 4.3 2.9-.8c1.6-.4 2.4.4 2.8 1.2L80 77.6c0 .5 0 1.4-1.2 1.7l-2.9.8.4 5 8.2-2.1 1.7 6.7 4-1-1.7-6.8c1.1-.3 2.2-.5 3.2-.8l1.7 6.7 4-1-1.7-6.7c6.2-1.5 10.6-5.4 9.7-11.4-.6-3.6-4.5-6.6-7.8-6.9 2.2-1.7 3.2-4.3 2-7.7h0zm-2 15.8c.8 5.9-7.5 6.7-10.2 7.4L85 68.4c2.8-.7 11.3-3.7 12.6 1.5h0zm-5-12.1c.9 5.3-6.2 5.9-8.5 6.5l-2.2-8.1c2.4-.5 9-3.3 10.7 1.6h0z" fill="#fff"/></svg>