<svg xmlns="http://www.w3.org/2000/svg" viewBox="0 0 130.14 193.82" xmlns:v="https://vecta.io/nano"><defs><linearGradient id="A" x1="120.63" y1="139.74" x2="9.5" y2="28.61" gradientUnits="userSpaceOnUse"><stop offset=".16" stop-color="#ef5354"/><stop offset=".78" stop-color="#4b72b7"/></linearGradient></defs><g fill-rule="evenodd"><path d="M65.07,0C29.13,0,0,29.13,0,65.07c0,42.84,45.41,106.41,62.27,127.41.71.88,1.67,1.34,2.8,1.34s2.09-.46,2.8-1.34c16.86-21,62.27-84.56,62.27-127.41C130.14,29.13,101.01,0,65.07,0Z" fill="url(#A)"/><path d="M65.07,114.59c24.64,0,44.74-20.1,44.74-44.74s-20.1-44.74-44.74-44.74-44.74,20.1-44.74,44.74,20.1,44.74,44.74,44.74Z" fill="#fff"/><g fill="#262f3e"><path d="M65.07 29.01c24.06 0 43.68 18.99 44.69 42.79.03-.65.04-1.29.04-1.95 0-24.71-20.03-44.74-44.74-44.74S20.32 45.14 20.32 69.85c0 .65.01 1.3.04 1.95C21.38 48 41 29.01 65.05 29.01z" opacity=".3"/><path d="M65.07,7.78c34.66,0,62.99,27.1,64.96,61.26.07-1.33.11-2.65.11-3.98C130.14,29.13,101.01,0,65.07,0S0,29.13,0,65.07c0,1.26.04,2.54.12,3.82C2.17,34.8,30.46,7.78,65.07,7.78Z"/></g></g><path d="M65.83 99.83H42.68c-2.41 0-4.32-1.51-4.85-3.82a5.73 5.73 0 0 1-.12-1.24V64c0-.44.06-.58.55-.48.74.15 1.51.13 2.25 0 .31-.06.4 0 .39.32v2.51 27.97c0 1.28.59 2.1 1.68 2.39.22.06.45.05.67.05h45.28c1.43 0 2.31-.88 2.31-2.31V64.07c0-.57 0-.56.58-.5.74.07 1.48.1 2.21-.05.27-.06.44-.03.4.31-.01.09 0 .19 0 .29l.02 30.67c.01 2.7-2.07 5.09-5.07 5.08l-23.15-.01z" fill="#4871b6"/><path d="M65.88 94.63H47.9c-2.66 0-4.42-1.75-4.42-4.4v-5.4c0-2.48 1.8-4.28 4.29-4.28h36.26c2.49 0 4.29 1.79 4.3 4.28v5.5c0 2.53-1.79 4.31-4.31 4.31H65.89z" fill="#ef5455"/><path d="M58.39 72.36c-.06 3.63-2.99 6.5-6.55 6.43-3.61-.07-6.4-3.01-6.34-6.68.06-3.51 3.05-6.3 6.68-6.23 3.4.07 6.27 3.06 6.21 6.47zm18.93-4.17h5.93c.87 0 1.28.4 1.28 1.26v8.39c0 .87-.41 1.27-1.27 1.27l-8.1.01c-.4 0-.47-.13-.47-.49v-5.79c0-1.29-.64-1.93-1.91-1.93-.77 0-1.54-.01-2.31 0-.28 0-.41-.05-.39-.37.03-.38 0-.77 0-1.16.01-.77.43-1.2 1.19-1.2h6.03zm-10.71 4.05h5.5c.86 0 1.27.41 1.27 1.27v4.34c0 .86-.41 1.26-1.28 1.26H61.06c-.82 0-1.24-.41-1.25-1.24v-4.39c0-.84.43-1.24 1.26-1.24h5.54z" fill="#ef5454"/><path d="M97.44 52.93c-.13.09-.28.05-.41.05h-9.3c-.25 0-.44 0-.59-.28l-5.87-10.34c-.02-.04-.03-.09-.06-.15.13-.09.28-.05.41-.05h5.88c.28 0 .48.06.67.28l9.07 10.18c.08.09.19.17.21.31zM71.76 42.16h1.51 4.87c.25 0 .41.04.54.29l5.38 10.27c.04.07.05.14.09.26h-.56-9.16c-.4 0-.53-.11-.61-.51l-2.03-10.09-.03-.23zm-5.79 10.82h-4.72c-.34 0-.44-.07-.38-.43l1.61-9.97c.06-.35.2-.43.53-.43h5.88c.35 0 .47.11.52.43l1.36 8.5.25 1.52c.08.33-.03.38-.32.37-1.57-.01-3.15 0-4.72 0zm-13.33 0h-4.68c-.37 0-.5-.02-.28-.43l5.28-10.06c.12-.24.26-.35.55-.35h5.98c.36 0 .42.09.35.44l-1.99 9.9c-.08.4-.23.5-.63.49l-4.58-.01zm-2.03-10.82l-.92 1.64-5.01 8.83c-.13.23-.25.36-.55.36-3.18-.01-6.36 0-9.54 0-.08 0-.15 0-.33-.02l1.89-2.13 7.39-8.32c.22-.25.44-.36.78-.35h5.78.5zm2.08 12.47h4.62c.31 0 .44.06.47.41.11 1.2 0 2.38-.44 3.5-.87 2.25-2.75 2.98-4.99 2.88-1.78-.08-3.24-.76-4.12-2.4-.67-1.25-.83-2.61-.79-4.01 0-.34.19-.38.47-.37h4.77zm-13.26 0h4.67c.32 0 .43.08.46.42.09 1.25-.02 2.47-.5 3.64-.68 1.64-1.96 2.47-3.69 2.69a6.47 6.47 0 0 1-2.06-.05c-2.28-.43-3.72-2.07-3.99-4.51l-.1-1.73c0-.36.14-.46.49-.46h4.72zm52.95 0l4.58-.01c.45 0 .57.13.57.56.02 1.3-.13 2.56-.73 3.74-.74 1.44-1.96 2.21-3.53 2.44-1 .14-1.99.11-2.95-.22-1.9-.64-2.73-2.11-3.05-3.97-.11-.67-.11-1.34-.1-2.02 0-.38.13-.53.54-.52h4.67zm-13.36 0h4.68c.36 0 .5.07.5.47.02 1.28-.1 2.53-.67 3.71-.77 1.58-2.07 2.38-3.8 2.57-.84.09-1.67.06-2.48-.16-1.98-.54-2.91-1.97-3.28-3.88-.15-.76-.12-1.53-.11-2.31 0-.33.14-.4.44-.4h4.72zm-13.07 0l4.58-.01c.47-.01.55.15.56.57.01 1.18-.1 2.34-.59 3.44-.75 1.68-2.07 2.55-3.88 2.75-.86.09-1.7.06-2.53-.18-2-.56-2.9-2.03-3.25-3.96-.13-.72-.09-1.44-.1-2.16 0-.37.15-.45.49-.45h4.72z" fill="#4972b7"/><path d="M65.95 92.7H47.88c-1.59 0-2.46-.88-2.46-2.48v-5.4c0-1.43.92-2.35 2.35-2.35h36.29c1.43 0 2.34.92 2.34 2.35v5.54c0 1.4-.93 2.32-2.33 2.32H65.95z" fill="#fff"/></svg>