<?xml version="1.0" encoding="UTF-8"?><svg id="a" xmlns="http://www.w3.org/2000/svg" viewBox="0 0 177.481 148.766"><path d="M7.454,53.519c-1.467-.832-7.332-4.363-7.454-5.707L7.791,0l164.088.093c.322.524.391,1.133.51,1.725,2.065,10.233,5.007,33.68,5.092,43.929.033,3.909-2.385,5.625-5.527,7.772-18.588,12.703-38.175,7.982-55.263-4.489-13.854,11.812-27.285,17.132-44.197,7.198-1.727-1.014-9.171-7.174-9.778-7.198-.727-.029-10.11,6.523-12.426,7.575-14.657,6.658-29.091,4.705-42.837-3.087Z" style="fill:#187754;"/><path d="M171.954,53.519l-.017,93.233c-.068.513-.269.992-.683,1.317-1.183.931-12.228.363-14.8.45v-82h-48v82c-32.752-.078-65.521.034-98.28.03l-2.02-.48-.7-94.55c13.745,7.792,28.18,9.744,42.837,3.087,2.316-1.052,11.699-7.603,12.426-7.575.607.024,8.051,6.183,9.778,7.198,16.912,9.934,30.343,4.614,44.197-7.198,17.087,12.471,36.675,17.192,55.263,4.489ZM19.454,66.519v57h76v-57H19.454Z" style="fill:#1dbc81;"/><path d="M108.454,148.519v-82h48v82c-15.977.536-32.078.038-48,0Z" style="fill:#187754;"/><rect x="19.454" y="66.519" width="76" height="57" style="fill:#187754;"/></svg>