<svg xmlns="http://www.w3.org/2000/svg" width="620" height="620" fill="none" xmlns:v="https://vecta.io/nano"><path d="M457.468 262.483c11.881 82.304-73.312 99.719-122.325 98.197-3.147-.098-6.113 1.434-7.972 3.975-5.07 6.931-13.175 15.894-19.432 15.894-7.027 0-13.351 13.514-16.235 21.921-.303.883.565 1.697 1.453 1.409 77.623-25.204 108.082-33.849 121.204-31.419 10.593 1.961 30.406 37.425 38.988 54.912-21.333 1.226-28.444-17.896-33.348-21.328-3.924-2.745-5.395 9.806-5.64 16.425-4.659-2.451-10.544-5.883-11.035-16.425s-5.885-7.844-10.053-7.354-68.169 21.082-77.732 23.779-20.598 6.374-29.67 12.747c-15.204 7.355-25.012 2.207-27.709-10.296-2.158-10.002 11.852-40.775 19.126-54.912-8.991 3.35-27.66 10.149-30.406 10.541-2.663.381-36.447 26.462-54.513 40.632-1.054.827-1.732 2.038-1.975 3.355-2.89 15.705-12.116 20.101-28.11 28.331-12.87 6.623-57.821 75.699-80.934 112.989-1.598 2.578-3.944 4.56-6.463 6.25-14.681 9.856-29.634 34.938-35.698 47.214-8.631-24.907 2.616-46.332 9.318-53.932-2.943-2.549-9.727-1.062-12.751 0 8.337-28.682 37.517-28.682 36.536-28.682 5.395-4.658 68.659-95.116 70.13-99.283 1.46-4.134-.942-23.466 30.855-34.065a6.57 6.57 0 0 0 1.453-.686c24.772-15.922 43.355-41.588 49.593-52.521-33.073-2.274-70.946-20.713-90.748-32.556-4.269-2.553-8.796-4.775-13.739-5.334-27.113-3.069-54.26 14.275-65.199 24.162-4.512-6.275.572-24.514 3.678-32.849-10.985-1.569-27.137 14.382-33.839 22.553-7.258-11.374-.899-31.705 3.188-40.449-14.516.393-24.358 7.028-27.464 10.297 12.015-89.478 103.921-63.455 104.95-62.267-4.904-5.099-4.495-11.767-3.678-14.464 55.663 1.471 81.655-7.844 98.084-17.405 129.472-72.317 185.257-27.946 205.855-16.792s57.992 15.689 83.862 5.393c30.896-13.973 26.245-49.991 19.984-63.738-6.865-15.076-45.609-35.914-59.341-62.266S447.95 6.037 463.858 1.57c15.156-4.256 25.98.695 34.287 8.198 5.539 5.002 21.089 8.58 27.587 10.909s17.287 5.393 16.674 7.232-11.016 1.593-12.628 1.593c-3.311 0-7.234.49-3.311 2.329 4.601 1.866 11.546 4.577 14.871 6.363.432.232.343.836-.131.964-22.565 6.073-42.713-6.458-57.652 7.995-15.203 14.709 17.165 25.985 33.84 43.636s33.839 38.733 20.107 86.781c-10.631 37.198-55.186 68.824-78.2 81.195-1.323.712-2.049 2.232-1.834 3.719z" fill="#7b50c2"/></svg>