<svg xmlns="http://www.w3.org/2000/svg" width="360" height="360" xmlns:v="https://vecta.io/nano"><g fill="#fff"><use href="#B"/><use href="#C"/></g><g fill="#0ac18e"><use href="#B"/><use href="#C" opacity=".3"/></g><defs ><path id="B" d="M120.927 179.95c.809-28.245 18.001-47.67 38.992-55.209 12.693-4.547 28.159-4.291 40.015 0 21.213 7.679 38.498 27.964 38.719 55.209.121 13.846-4.961 26.25-11.773 35.324-12.609 16.796-37.55 30.325-66.703 20.399v50.757l-39.249 59.911-.001-166.391zm78.227 9.968c7.022-14.325-3.483-31.549-19.659-31.342-11.942.146-20.085 9.005-21.082 18.799-2.28 22.271 22.825 30.132 35.604 18.805 2.096-1.861 4.135-4.236 5.137-6.262z"/><path id="C" d="M72.249 320.354l-.242-45.972V210.81c0-21.952-.93-42.699 3.663-59.389 8.882-32.251 29.73-55.618 58.344-69.067 15.129-7.119 33.525-11.024 53.112-9.944 19.794 1.095 35.785 7.563 48.384 15.175 25.949 15.65 45.902 41.606 51.027 76.395 6.203 42.116-11.203 73.215-31.4 93.398-19.856 19.86-53.912 36.191-94.959 29.054l-39.249 59.911c24.613 9.916 60.669 13.029 90 7.578 29.381-5.459 52.987-16.711 72.731-30.869 12.366-8.879 23.618-19.222 33.403-31.152l.375-.48c1.722-2.109 3.386-4.269 5.011-6.476.413-.56.797-1.129 1.198-1.692 1.502-2.088 2.974-4.197 4.381-6.373l.24-.374c15.332-23.806 25.441-52.887 28.258-87.938l.152-3.303.133-5.033c0-1.804-.084-3.577-.133-5.36l-.152-3.049c-2.729-50.516-25.075-89.536-51.94-116.415C277.477 28.289 238.928 6.65 188.658 3.639a181.07 181.07 0 0 0-8.649-.219 185.82 185.82 0 0 0-9.531.256c-21.219 1.533-39.963 5.966-56.61 12.581l-2.549 1.008c-.232.093-.451.202-.688.303-10.109 4.312-19.741 9.556-28.783 15.603l-1.818 1.24-3.664 2.604c-7.585 5.572-14.613 11.639-21.101 18.126-6.501 6.501-12.621 13.542-18.255 21.147l-3.597 5.061c-.009.009-.014.021-.024.032-19.058 28.213-30.188 62.229-30.188 98.845 0 57.078 27.071 107.804 69.048 140.128z"/></defs></svg>