<svg xmlns="http://www.w3.org/2000/svg" viewBox="0 0 400 400" xmlns:v="https://vecta.io/nano"><circle cx="200" cy="200" r="200" fill="#212934"/><path d="M27.74 225.38v-4.46l4.947-.6v-29.457l-4.797-1.386v-5.209l11.655-1.499h.225l1.949 1.461v1.649l-.225 6.559h.225c.225-.624.699-1.455 1.424-2.492s1.673-2.092 2.848-3.167 2.548-1.973 4.122-2.698 3.323-1.087 5.247-1.087c.699 0 1.293.051 1.78.15s.868.213 1.143.337v10.793c-.475-.35-1.156-.637-2.042-.862s-2.055-.337-3.504-.337c-1.599 0-3.004.181-4.216.543s-2.243.774-3.092 1.236-1.549.895-2.099 1.294v24.135l8.695.675v4.422H27.74zm52.73.824c-4.547 0-8.264-.924-11.149-2.773s-5.009-4.409-6.371-7.683-2.042-7.021-2.042-11.242c0-3.397.487-6.446 1.462-9.145s2.348-4.99 4.122-6.877 3.898-3.329 6.371-4.329 5.209-1.499 8.208-1.499c5.072 0 8.944 1.324 11.618 3.972s4.072 6.359 4.197 11.131c0 1.624-.05 3.042-.15 4.254s-.25 2.267-.45 3.166H71.964c.075 2.249.381 4.254.918 6.016s1.286 3.267 2.249 4.516 2.136 2.199 3.522 2.849 2.992.974 4.816.974c2.048 0 4.104-.355 6.165-1.067s3.654-1.455 4.778-2.23l1.874 4.085c-.8.85-2.011 1.73-3.635 2.643s-3.492 1.681-5.603 2.305-4.304.937-6.577.937zm-8.545-25.597h14.391l.094-1.573c.038-.55.056-1.087.056-1.612 0-2.973-.487-5.371-1.461-7.195s-2.686-2.736-5.134-2.736c-1.1 0-2.112.2-3.036.6s-1.743 1.081-2.455 2.042-1.281 2.292-1.705 3.991-.675 3.86-.75 6.483zm41.299 25.597c-2.249 0-4.335-.475-6.259-1.424s-3.466-2.361-4.628-4.235-1.743-4.172-1.743-6.896c0-2.348.637-4.391 1.912-6.127s3.036-3.16 5.284-4.272 4.853-1.949 7.814-2.511 6.14-.855 9.538-.881v-1.911c0-1.924-.2-3.467-.6-4.628s-1.162-2.011-2.286-2.549-2.761-.806-4.909-.806c-2.899 0-5.422.413-7.57 1.237l-5.022 2.136-2.398-4.872c.6-.5 1.755-1.199 3.466-2.099s3.797-1.717 6.259-2.455 5.128-1.105 8.001-1.105c3.823 0 6.827.543 9.013 1.63s3.748 2.749 4.685 4.984 1.406 5.078 1.406 8.526v22.823h4.084v4.197c-.575.149-1.399.312-2.473.487l-3.429.449-3.317.188c-1.699 0-2.842-.25-3.429-.749s-.881-1.512-.881-3.036v-1.986c-.625.726-1.524 1.556-2.698 2.492s-2.586 1.737-4.235 2.398-3.511.993-5.584.993zm4.872-6.221c1.074 0 2.273-.312 3.598-.938s2.473-1.386 3.448-2.285v-12.293c-3.124 0-5.666.375-7.626 1.124s-3.398 1.737-4.31 2.961-1.368 2.574-1.368 4.048c0 1.624.268 2.985.806 4.085s1.274 1.924 2.211 2.474 2.017.824 3.242.824zm41.56 6.221c-2.224 0-4.316-.406-6.277-1.218s-3.698-2.048-5.209-3.71-2.692-3.798-3.542-6.408-1.274-5.716-1.274-9.313c0-4.098.843-7.882 2.53-11.355s4.185-6.264 7.496-8.376 7.364-3.167 12.161-3.167a23.53 23.53 0 0 1 2.867.168c.911.112 1.755.269 2.529.468v-12.705l-7.345-1.012v-4.197l15.478-1.424h.262l2.1 1.574v55.278h4.01v4.272c-1.075.225-2.442.469-4.104.73s-3.268.394-4.816.394c-1.475 0-2.586-.231-3.335-.693s-1.125-1.53-1.125-3.204v-2.099c-.824 1.124-1.88 2.137-3.166 3.036s-2.724 1.617-4.311 2.154a15.27 15.27 0 0 1-4.928.806zm3.936-6.221c1.148 0 2.204-.175 3.166-.524s1.799-.793 2.511-1.331 1.269-1.067 1.668-1.593V189.29c-.35-.5-1.074-.931-2.174-1.293s-2.299-.543-3.598-.543c-1.948 0-3.71.543-5.284 1.63s-2.83 2.867-3.767 5.34-1.43 5.784-1.48 9.931c-.05 3.698.324 6.696 1.124 8.994s1.88 3.979 3.242 5.041 2.892 1.593 4.592 1.593zm33.503 6.072c-1.499 0-2.823-.538-3.972-1.611s-1.725-2.448-1.725-4.123c0-1.849.638-3.366 1.911-4.553s2.823-1.78 4.647-1.78 3.242.587 4.254 1.761 1.518 2.512 1.518 4.011c0 1.948-.631 3.485-1.893 4.609s-2.843 1.687-4.741 1.687zm31.443.149c-4.447 0-8.095-.931-10.943-2.792s-4.96-4.396-6.333-7.607-2.062-6.84-2.062-10.887c0-3.273.487-6.265 1.462-8.976s2.386-5.06 4.234-7.046 4.091-3.523 6.728-4.61 5.603-1.63 8.9-1.63c2.099 0 3.916.156 5.453.468s2.854.644 3.953.993a34.72 34.72 0 0 0 2.812.787l-.487 12.854h-6.559l-1.837-8.282c-.1-.45-.393-.812-.88-1.087s-1.056-.481-1.705-.619-1.263-.206-1.837-.206c-1.749 0-3.285.506-4.609 1.518s-2.361 2.623-3.11 4.834-1.138 5.128-1.162 8.75c-.025 2.824.212 5.297.712 7.421s1.212 3.892 2.137 5.303 2.023 2.474 3.298 3.186 2.686 1.067 4.234 1.067c1.523 0 2.929-.149 4.216-.449s2.455-.681 3.505-1.144 1.961-.942 2.735-1.442l1.762 3.897c-.7.75-1.762 1.568-3.186 2.455s-3.117 1.648-5.078 2.286-4.079.955-6.353.955zm30.88 0c-2.249 0-4.335-.475-6.259-1.424s-3.467-2.361-4.629-4.235-1.742-4.172-1.742-6.896c0-2.348.637-4.391 1.911-6.127s3.036-3.16 5.284-4.272 4.854-1.949 7.814-2.511 6.14-.855 9.537-.881v-1.911c0-1.924-.2-3.467-.6-4.628a4.26 4.26 0 0 0-2.286-2.549c-1.124-.537-2.761-.806-4.909-.806-2.898 0-5.422.413-7.57 1.237l-5.021 2.136-2.398-4.872c.6-.5 1.755-1.199 3.466-2.099s3.798-1.717 6.259-2.455 5.128-1.105 8.001-1.105c3.823 0 6.827.543 9.014 1.63s3.748 2.749 4.685 4.984 1.405 5.078 1.405 8.526v22.823h4.085v4.197c-.575.149-1.399.312-2.474.487l-3.429.449-3.317.188c-1.699 0-2.842-.25-3.429-.749s-.881-1.512-.881-3.036v-1.986c-.625.726-1.524 1.556-2.698 2.492s-2.586 1.737-4.234 2.398-3.511.993-5.584.993zm4.872-6.221c1.073 0 2.272-.312 3.598-.938s2.473-1.386 3.447-2.285v-12.293c-3.123 0-5.665.375-7.626 1.124s-3.398 1.737-4.311 2.961-1.367 2.574-1.367 4.048c0 1.624.268 2.985.806 4.085s1.274 1.924 2.211 2.474 2.018.824 3.242.824zm41.898 6.221c-2.349 0-4.535-.2-6.559-.6l-5.34-1.33-3.617-1.105v-9.819h6.259l1.724 5.847c.25.399.737.793 1.462 1.181s1.58.699 2.567.937a12.65 12.65 0 0 0 2.979.356c1.648 0 2.985-.225 4.01-.675s1.786-1.074 2.286-1.874.749-1.698.749-2.698a4.38 4.38 0 0 0-1.518-3.392c-1.012-.913-2.386-1.768-4.122-2.567l-6.016-2.66c-2.198-.949-4.065-2.03-5.603-3.242s-2.698-2.636-3.485-4.272-1.181-3.565-1.181-5.79c0-2.273.669-4.285 2.005-6.034s3.224-3.129 5.659-4.141 5.29-1.518 8.563-1.518c2.423 0 4.51.163 6.259.487l4.403 1.031 2.904.731v9.856h-5.884l-1.761-5.696c-.2-.324-.569-.637-1.106-.937s-1.193-.543-1.967-.73-1.625-.281-2.549-.281c-1.349 0-2.529.2-3.541.6s-1.787.969-2.324 1.705-.806 1.606-.806 2.605c0 1.499.45 2.717 1.35 3.653s2.086 1.743 3.561 2.418l4.646 2.023 4.703 2.192c1.537.787 2.924 1.687 4.16 2.698s2.217 2.218 2.942 3.616 1.086 3.062 1.086 4.984c0 2.324-.612 4.429-1.836 6.315s-3.092 3.379-5.603 4.479-5.666 1.648-9.463 1.648zm25.784-5.959v-49.656l-5.696-.937v-4.048l14.054-1.649h.15l2.023 1.424.037 16.64-.487 6.558c.875-.774 2.049-1.611 3.523-2.511s3.173-1.661 5.097-2.286 3.96-.937 6.108-.937c3.199 0 5.666.594 7.402 1.78s2.941 3.011 3.617 5.472 1.012 5.615 1.012 9.463v20.649l4.871.675v4.497h-19.75v-4.497l4.271-.675v-20.649c0-2.398-.162-4.353-.486-5.865s-.943-2.629-1.855-3.354-2.28-1.087-4.104-1.087c-1.124 0-2.243.182-3.354.543a16.39 16.39 0 0 0-3.129 1.387c-.975.562-1.812 1.143-2.511 1.743v27.283l4.497.675v4.497h-19.488v-4.497l4.197-.638z" fill="#97a2b6"/></svg>