<?xml version="1.0" encoding="UTF-8"?><svg id="a" xmlns="http://www.w3.org/2000/svg" xmlns:xlink="http://www.w3.org/1999/xlink" viewBox="0 0 716.893 813.041"><defs><filter id="b" x="2.646" y="4.28" width="628.8" height="815.76" filterUnits="userSpaceOnUse"><feOffset dx="0" dy="5"/><feGaussianBlur result="c" stdDeviation="5"/><feFlood flood-color="#000" flood-opacity=".75"/><feComposite in2="c" operator="in"/><feComposite in="SourceGraphic"/></filter></defs><path d="M240.053,731.237c27.238,61.606,72.661,79.893,135.87,52.204l272.58-120.259c62.899-27.809,80.06-74.024,52.825-135.629l-186.521-420.709c-14.285-32.31-26.732-38.911-59.66-51.649l-118.043-45.664c-32.928-12.738-46.303-8.626-78.614,5.659l-99.087,43.808c-32.741,14.477-44.472,21.723-57.21,54.652l-45.664,118.044c-12.618,32.617-16.543,46.455-1.947,78.885l185.47,420.66ZM230.07,164.77c-23.774-9.197-34.563-34.745-25.603-57.908,9.079-23.469,34.134-34.801,57.908-25.604,23.773,9.196,34.681,34.44,25.602,57.909-8.96,23.163-34.135,34.799-57.908,25.603Z" style="fill:#43936d;"/><path d="M120.18,718.194c14.605,65.756,55.552,92.609,122.968,77.876l290.892-64.371c67.136-14.912,93.041-56.855,78.438-122.61l-100.244-449.152c-7.66-34.487-18.567-43.404-48.352-62.362l-106.773-67.962c-29.784-18.958-43.707-17.554-78.194-9.894l-105.762,23.49c-34.947,7.763-47.873,12.564-66.831,42.349l-67.963,106.774c-18.779,29.503-25.346,42.3-17.405,76.965l99.224,448.897ZM225.341,155.817c-18.671-11.884-23.498-35.474-11.92-53.664,11.731-18.431,34.994-23.805,53.665-11.921,18.67,11.884,23.65,35.235,11.919,53.665-11.579,18.191-34.995,23.803-53.664,11.92Z" style="fill:#fff; filter:url(#b);"/><path d="M392.286,338.823c-20.76-28.907-54.486-28.923-92.626-14.001l-23.072-46.579-28.321,14.04,22.829,46.482c-7.459,3.645-15.191,7.052-22.733,11.011l-22.769-46.198-28.321,14.04,23.072,46.579c-6.07,3.205-57.165,28.413-57.165,28.413l14.985,30.345s20.701-10.806,20.593-10.264c11.535-5.763,18.568-.87,22.475,4.311l63.333,127.634c1.248,3.814,1.942,10.634-5.954,14.668.557.179-20.608,10.193-20.608,10.193l11.138,36.714,57.28-28.215,23.333,47.117,28.321-14.04-23.408-47.472,22.804-11.026,23.277,47.203,28.321-14.04-23.318-47.046c43.77-20.924,70.22-56.879,54.181-99.973-9.905-25.93-43.847-41.761-68.713-39.12,12.181-16.424,15.696-37.397,1.066-60.776h0ZM402.604,459.311c15.239,42.817-44.873,61.104-63.979,70.685l-31.48-62.226c19.177-9.596,77.208-45.158,95.458-8.459h0ZM346.801,377.302c14.563,37.846-36.857,53.413-52.836,61.298l-28.633-56.451c16.08-7.758,60.99-38.409,81.47-4.847h0Z" style="fill:#0ac18e;"/></svg>