<svg xmlns="http://www.w3.org/2000/svg" width="419.98" height="419.98" viewBox="0 0 111.12 111.12" xmlns:v="https://vecta.io/nano"><g transform="matrix(1.4565 0 0 1.4565 -13.0512 -7.4992)" opacity=".995"><path d="M47.106 6.965c-20.064 0-36.329 16.265-36.329 36.329a36.33 36.33 0 0 0 72.658 0c0-20.064-16.265-36.329-36.329-36.329zm-.177 2.985h.177c18.416 0 33.345 14.929 33.345 33.345a33.34 33.34 0 0 1-9.767 23.578 33.35 33.35 0 0 1-23.578 9.767c-18.416 0-33.345-14.929-33.345-33.345 0-18.347 14.821-33.247 33.168-33.345zm.179 2.446a30.9 30.9 0 1 0 0 61.8 30.9 30.9 0 1 0 0-61.8zm-.694 6.007a20.405 20.405 0 1 0 24.96 19.323 24.897 24.897 0 1 1-24.961-19.322z"/><path d="M46.414 18.403a24.897 24.897 0 0 0 .694 49.785 24.897 24.897 0 0 0 24.267-30.463 20.405 20.405 0 0 1-20.396 20.969 20.405 20.405 0 0 1-4.564-40.292z" fill="#fff"/><g fill="#8dc351"><path d="M50.081 55.867c-.775-.051-1.654-.164-2.384-.309a17.88 17.88 0 0 1-8.449-4.225l-1.276-1.27c-.544-.591-1.199-1.439-1.674-2.162l-.48-.768a1.65 1.65 0 0 0-.084-.147c-.107-.178-.289-.517-.488-.919-1.072-2.14-1.687-4.46-1.847-6.949-.029-.455-.029-1.543 0-1.998.229-3.574 1.432-6.853 3.552-9.679.531-.708.95-1.188 1.652-1.887.635-.635.968-.932 1.567-1.403a17.84 17.84 0 0 1 12.665-3.703 17.8 17.8 0 0 1 10.312 4.598c1.403 1.281 2.566 2.755 3.528 4.471.142.251.513.999.668 1.343.766 1.703 1.274 3.608 1.463 5.483a15.17 15.17 0 0 1 .091 1.798c0 1.794-.262 3.525-.79 5.237-1.168 3.767-3.581 7.073-6.802 9.317-2.7 1.883-5.808 2.957-9.18 3.172a27.24 27.24 0 0 1-2.042-.002z"/></g><g fill="#fff"><path d="M51.065 48.241c-.012-.035-.128-.457-.261-.938l-.547-1.967a87.56 87.56 0 0 0-1.808.481l-1.804.488a136.99 136.99 0 0 1-.23-2.203c0-.035.016-.047.068-.058a23.76 23.76 0 0 0 1.29-.354c.208-.078.372-.232.42-.397.058-.195.043-.319-.088-.802l-.486-1.761-.648-2.356-.535-1.944-.342-1.245c-.051-.187-.117-.381-.148-.432-.091-.158-.226-.284-.391-.364a.62.62 0 0 0-.352-.084c-.276-.012-.479.033-1.51.333-.167.047-.247.062-.251.045-.014-.041-.508-1.854-.512-1.872 0-.008.179-.068.399-.128l1.79-.496 1.403-.395c.008-.006-.167-.665-.387-1.463l-.391-1.471c.004-.012.058-.035.117-.049l.881-.241.776-.208a209.02 209.02 0 0 1 .397 1.434l.403 1.436a11.2 11.2 0 0 0 .621-.171l.706-.206c.072-.021.091-.035.086-.064-.004-.023-.179-.658-.387-1.418l-.379-1.399c0-.019 1.765-.514 1.78-.5.004.004.187.662.407 1.463l.409 1.465c.004.006.086-.004.183-.021.856-.152 1.849-.193 2.436-.105 1.383.214 2.218.905 2.64 2.183.403 1.218.2 2.232-.621 3.084l-.15.156h.243c1.703 0 2.765.809 3.218 2.448.267.967.278 1.872.031 2.619-.084.259-.282.644-.449.878-.298.422-.862.913-1.438 1.259a12.57 12.57 0 0 1-2.228.994l-.128.049c-.008.006.146.597.342 1.309l.407 1.483.051.187-.876.241-.897.239c-.012 0-.202-.654-.42-1.455l-.403-1.461a16.01 16.01 0 0 0-.65.167l-.712.187c-.037.006-.068.025-.068.037 0 .023.033.14.533 1.959l.259.973a61.12 61.12 0 0 1-.891.249l-.887.243zm.909-5.682c1.909-.5 2.94-.967 3.565-1.615.191-.202.272-.311.368-.518.111-.232.144-.383.142-.652 0-.434-.163-.862-.44-1.158-.652-.697-1.817-.79-3.753-.294l-1.432.426c0 .008.241.891.535 1.961l.535 1.956c0 .021.045.01.479-.105zm-1.65-5.738c1.352-.354 2.088-.66 2.664-1.111a1.92 1.92 0 0 0 .463-.5 1.32 1.32 0 0 0 .22-.57c.039-.232.014-.481-.08-.759-.21-.627-.638-.973-1.358-1.095-.169-.027-.288-.033-.613-.023-.467.012-.823.066-1.401.212l-1.271.368c-.008.008.259.996.887 3.267.049.179.095.302.109.302a6.63 6.63 0 0 0 .381-.093zM47.106 9.952c-18.416 0-33.345 14.929-33.345 33.345S28.69 76.642 47.106 76.642s33.345-14.929 33.345-33.345S65.522 9.952 47.106 9.952zm0 2.444c17.066 0 30.9 13.835 30.9 30.9a30.9 30.9 0 0 1-30.9 30.9c-17.066 0-30.9-13.835-30.9-30.9s13.835-30.9 30.9-30.9z"/></g></g></svg>