<svg xmlns="http://www.w3.org/2000/svg" width="160" height="161.782" fill="#5ebd6d" xmlns:v="https://vecta.io/nano"><path d="M79.999 161.782C35.886 161.782 0 125.894 0 81.781S35.886 1.78 79.999 1.78 160 37.667 160 81.781s-35.888 80.001-80.001 80.001zm0-149.5c-38.321 0-69.497 31.177-69.497 69.499s31.176 69.499 69.497 69.499 69.499-31.177 69.499-69.499-31.177-69.499-69.499-69.499zM63.5 99.159a12.99 12.99 0 0 0 5.661-4.665c1.45-2.136 2.213-4.625 2.213-7.207v-1.389c0-1.71-.353-3.445-1.023-5.015-.976-2.298-2.591-4.256-4.661-5.661a12.78 12.78 0 0 0-7.195-2.212h-20.6c-.506 0-.976-.095-1.438-.289-.663-.281-1.258-.769-1.666-1.377-.421-.631-.634-1.325-.641-2.07v-1.393c.005-.512.101-.979.294-1.437.281-.666.768-1.258 1.375-1.668.631-.419 1.326-.635 2.071-.637h31.216v-9.148H37.895c-1.719 0-3.446.354-5.019 1.021a12.96 12.96 0 0 0-5.659 4.664 12.71 12.71 0 0 0-2.21 7.205v1.387c0 1.712.351 3.448 1.017 5.015.978 2.301 2.594 4.259 4.667 5.664a12.75 12.75 0 0 0 7.189 2.212h20.601c.506.001.975.096 1.438.29.663.279 1.258.769 1.666 1.376.426.632.638 1.326.638 2.073v1.389c0 .508-.094.977-.292 1.438-.278.666-.769 1.258-1.374 1.668a3.73 3.73 0 0 1-2.072.638H20.159v9.144h38.327a12.79 12.79 0 0 0 5.014-1.016zm38.909 31.587H93.26v-30.57h-5.428a12.77 12.77 0 0 1-7.196-2.208c-2.074-1.406-3.689-3.362-4.663-5.664a12.84 12.84 0 0 1-1.021-5.016V32.815h9.146v54.474a3.66 3.66 0 0 0 .638 2.072 3.8 3.8 0 0 0 1.664 1.376 3.65 3.65 0 0 0 1.44.294h5.419V77.217c0-2.58.761-5.072 2.211-7.205 1.404-2.072 3.364-3.687 5.661-4.665a12.72 12.72 0 0 1 5.019-1.021h20.813a12.76 12.76 0 0 1 7.192 2.211c2.075 1.406 3.693 3.363 4.667 5.662.666 1.571 1.017 3.306 1.017 5.018v10.07c.005 2.582-.757 5.073-2.21 7.207a12.99 12.99 0 0 1-5.657 4.665c-1.596.674-3.277 1.017-5.019 1.017h-22.065v-9.144h22.065c.748-.005 1.445-.218 2.074-.638.607-.411 1.094-1.003 1.376-1.668a3.7 3.7 0 0 0 .292-1.438V77.211a3.75 3.75 0 0 0-.638-2.071c-.412-.606-1.003-1.096-1.668-1.376a3.65 3.65 0 0 0-1.437-.289H106.14c-.739.002-1.437.216-2.065.637a3.84 3.84 0 0 0-1.381 1.669c-.191.461-.287.931-.287 1.436v53.529z"/></svg>