<svg xmlns="http://www.w3.org/2000/svg" viewBox="0 0 984 640" xmlns:v="https://vecta.io/nano"><path d="M687 597.93C774.44 536.57 831.57 435 831.57 320A339 339 0 0 0 687 42h255v555.93zM152.73 320c0 115 57.14 216.59 144.58 278H42V42h255.32c-87.45 61.37-144.59 163-144.59 278z" fill="#5e5186"/><ellipse cx="492.13" cy="320.12" rx="277.77" ry="277.88" fill="#8e4d8a"/><path d="M484.25 200.12a7.42 7.42 0 0 0-6.79-3.67l-139.53.06L415.9 313c3.93 5.79 3.45 9.68-.25 15.11l-77.3 116.27h81.94l52.54.12h4.66c4.71 0 6.31-3.16 8.41-6.32L527.46 376c1.93-2.8 3.69-7.77 7.64-7.8a7.11 7.11 0 0 0 .73 2q23 34.91 46.19 69.7c1.67 2.5 3.84 4.57 7.5 4.55l57.25-.07-162.52-244.26zm13.68 128.27c-11.16 15.95-21.66 32.35-32.47 48.53l-17.35 25.91q-10.8 0-21.6 0 25.35-38.16 51-76.14c3.28-4.86 3-8-.19-12.69q-25.49-37.79-50.66-75.76 10.69 0 21.39 0 24.86 37.23 49.93 74.31c3.96 5.82 4.02 10.04-.05 15.84z" fill="#fff"/></svg>