<?xml version="1.0" encoding="UTF-8"?><svg id="Layer_1" xmlns="http://www.w3.org/2000/svg" viewBox="0 0 169.5 176.58"><path d="M131.75,142.03c.3-.3.6-.7.9-1,.7-.8,1.5-1.7,2.2-2.5.3-.4.6-.7.9-1.1.8-.9,1.5-1.8,2.2-2.7.3-.3.5-.7.8-1,.8-1,1.5-1.9,2.2-2.9.2-.3.4-.6.7-.9.7-.9,1.3-1.8,1.9-2.8.3-.4.5-.8.8-1.1.6-.9,1.2-1.8,1.8-2.7.3-.4.6-.9.8-1.3.6-1,1.2-1.9,1.8-2.9.2-.4.5-.8.7-1.2.6-1,1.1-2,1.6-2.9.2-.4.5-.8.7-1.3.5-.9.9-1.8,1.4-2.8.3-.5.5-1,.8-1.5.4-.9.8-1.7,1.2-2.6.3-.6.6-1.2.8-1.8.4-.9.8-1.8,1.1-2.7.2-.6.5-1.2.7-1.8.3-.9.7-1.8,1-2.7.2-.6.5-1.2.7-1.9.4-1.1.7-2.2,1.1-3.3.1-.5.3-.9.4-1.3.3-1,.6-1.9.8-2.9.2-.6.4-1.2.5-1.8.3-.9.5-1.9.7-2.8.2-.6.3-1.3.5-1.9.2-.8.4-1.7.5-2.6.2-.8.3-1.5.5-2.3.1-.7.2-1.4.4-2,.2-.9.3-1.9.5-2.9s.3-2.1.4-3.1c0-.6.2-1.2.3-1.9,0-.8.2-1.7.2-2.5s.2-1.7.2-2.5c.3-3.4.4-6.8.4-10.2v-5.1c0-1.2-.1-2.5-.2-3.7v-.6c0-1.3-.2-2.6-.3-3.9v-.4c-.1-1-.2-2.1-.3-3.1h0c0-.3,0-.6-.1-.9C144.65,14.73,116.25,2.83,85.05,2.83s-.2,0-.3,0h-.3C53.25,2.83,24.85,14.73,3.55,34.23c0,.3,0,.6-.1.9h0c-.1,1-.2,2.1-.3,3.1v.4c-.1,1.3-.2,2.6-.3,3.9v.6c0,1.2-.1,2.5-.2,3.7v5.1c0,3.4.1,6.8.4,10.2,0,.8.2,1.7.2,2.5s.1,1.7.2,2.5c0,.6.2,1.2.3,1.9.1,1,.3,2.1.4,3.1s.3,1.9.5,2.9c.1.7.2,1.4.4,2,.1.8.3,1.5.5,2.3.2.9.3,1.7.5,2.6.1.6.3,1.3.5,1.9.2.9.5,1.9.7,2.8.2.6.4,1.2.5,1.8.3,1,.5,1.9.8,2.9.1.5.3.9.4,1.3.4,1.1.7,2.2,1.1,3.3.2.6.5,1.3.7,1.9.3.9.6,1.8,1,2.7.2.6.5,1.2.7,1.8.4.9.7,1.8,1.1,2.7.3.6.5,1.2.8,1.8.4.9.8,1.8,1.2,2.6.2.5.5,1,.8,1.5.5.9.9,1.9,1.4,2.8.2.4.5.8.7,1.3.5,1,1.1,2,1.6,2.9.2.4.5.8.7,1.2.6,1,1.2,2,1.8,2.9.3.4.6.9.8,1.3.6.9,1.2,1.8,1.8,2.7.3.4.5.8.8,1.1.6.9,1.3,1.9,1.9,2.8.2.3.4.6.7.9.7,1,1.5,2,2.2,2.9.3.3.5.7.8,1,.7.9,1.5,1.8,2.2,2.7.3.4.6.7.9,1.1.7.8,1.5,1.7,2.2,2.5.3.3.6.7.9,1,.8.8,1.5,1.7,2.3,2.5.3.3.7.6,1,1,.8.8,1.6,1.6,2.4,2.4.3.3.6.6,1,.9.8.8,1.7,1.6,2.6,2.3.3.3.6.5.9.8.9.8,1.8,1.6,2.7,2.3.3.3.6.5.9.7.9.7,1.9,1.5,2.8,2.2.3.2.6.4.9.7,1,.7,1.9,1.5,2.9,2.2.3.2.6.4.9.6,1,.7,2,1.4,3.1,2.1.4.2.7.4,1.1.7,1,.6,2,1.3,3,1.9.4.2.8.4,1.2.7,1,.6,2,1.2,3,1.7.3.2.7.4,1,.5,1.1.6,2.1,1.2,3.2,1.7.3.2.6.3,1,.5,1.1.6,2.2,1.1,3.4,1.6.4.2.8.3,1.2.5,1.1.5,2.1,1,3.2,1.4h1c.4,0,.2,0,.3,0h1.3c1.1-.5,2.1-.9,3.2-1.4.4-.2.8-.3,1.2-.5,1.1-.5,2.3-1.1,3.4-1.6.3-.2.6-.3,1-.5,1.1-.6,2.2-1.1,3.2-1.7.3-.2.7-.4,1-.5,1-.6,2-1.1,3-1.7.4-.2.8-.4,1.2-.7,1-.6,2-1.2,3-1.9.4-.2.7-.4,1.1-.7,1-.7,2.1-1.4,3.1-2.1.3-.2.6-.4.9-.6,1-.7,2-1.4,2.9-2.2.3-.2.6-.4.9-.7.9-.7,1.9-1.5,2.8-2.2.3-.3.6-.5.9-.7.9-.8,1.8-1.5,2.7-2.3.3-.3.6-.5.9-.8.9-.8,1.7-1.6,2.6-2.3.3-.3.6-.6,1-.9.8-.8,1.6-1.6,2.4-2.4.3-.3.7-.6,1-1,.8-.8,1.6-1.6,2.3-2.5" style="fill:#0ac18e;"/><path d="M131.75,142.03c.3-.3.6-.7.9-1,.7-.8,1.5-1.7,2.2-2.5.3-.4.6-.7.9-1.1.8-.9,1.5-1.8,2.2-2.7.3-.3.5-.7.8-1,.8-1,1.5-1.9,2.2-2.9.2-.3.4-.6.7-.9.7-.9,1.3-1.8,1.9-2.8.3-.4.5-.8.8-1.1.6-.9,1.2-1.8,1.8-2.7.3-.4.6-.9.8-1.3.6-1,1.2-1.9,1.8-2.9.2-.4.5-.8.7-1.2.6-1,1.1-2,1.6-2.9.2-.4.5-.8.7-1.3.5-.9.9-1.8,1.4-2.8.3-.5.5-1,.8-1.5.4-.9.8-1.7,1.2-2.6.3-.6.6-1.2.8-1.8.4-.9.8-1.8,1.1-2.7.2-.6.5-1.2.7-1.8.3-.9.7-1.8,1-2.7.2-.6.5-1.2.7-1.9.4-1.1.7-2.2,1.1-3.3.1-.5.3-.9.4-1.3.3-1,.6-1.9.8-2.9.2-.6.4-1.2.5-1.8.3-.9.5-1.9.7-2.8.2-.6.3-1.3.5-1.9.2-.8.4-1.7.5-2.6.2-.8.3-1.5.5-2.3.1-.7.2-1.4.4-2,.2-.9.3-1.9.5-2.9s.3-2.1.4-3.1c0-.6.2-1.2.3-1.9,0-.8.2-1.7.2-2.5s.2-1.7.2-2.5c.3-3.4.4-6.8.4-10.2v-5.1c0-1.2-.1-2.5-.2-3.7v-.6c0-1.3-.2-2.6-.3-3.9v-.4c-.1-1-.2-2.1-.3-3.1h0c0-.3,0-.6-.1-.9C144.65,14.73,116.25,2.83,85.05,2.83s-.2,0-.3,0-.2,0-.3,0C49.89.9,24.85,14.73,3.55,34.23c0,.3,0,.6-.1.9h0c-.1,1-.2,2.1-.3,3.1v.4c-.1,1.3-.2,2.6-.3,3.9v.6c0,1.2-.1,2.5-.2,3.7v5.1c0,3.4.1,6.8.4,10.2,0,.8.2,1.7.2,2.5s.1,1.7.2,2.5c0,.6.2,1.2.3,1.9.1,1,.3,2.1.4,3.1s.3,1.9.5,2.9c.1.7.2,1.4.4,2,.1.8.3,1.5.5,2.3.2.9.3,1.7.5,2.6.1.6.3,1.3.5,1.9.2.9.5,1.9.7,2.8.2.6.4,1.2.5,1.8.3,1,.5,1.9.8,2.9.1.5.3.9.4,1.3.4,1.1.7,2.2,1.1,3.3.2.6.5,1.3.7,1.9.3.9.6,1.8,1,2.7.2.6.5,1.2.7,1.8.4.9.7,1.8,1.1,2.7.3.6.5,1.2.8,1.8.4.9.8,1.8,1.2,2.6.2.5.5,1,.8,1.5.5.9.9,1.9,1.4,2.8.2.4.5.8.7,1.3.5,1,1.1,2,1.6,2.9.2.4.5.8.7,1.2.6,1,1.2,2,1.8,2.9.3.4.6.9.8,1.3.6.9,1.2,1.8,1.8,2.7.3.4.5.8.8,1.1.6.9,1.3,1.9,1.9,2.8.2.3.4.6.7.9.7,1,1.5,2,2.2,2.9.3.3.5.7.8,1,.7.9,1.5,1.8,2.2,2.7.3.4.6.7.9,1.1.7.8,1.5,1.7,2.2,2.5.3.3.6.7.9,1,.8.8,1.5,1.7,2.3,2.5.3.3.7.6,1,1,.8.8,1.6,1.6,2.4,2.4.3.3.6.6,1,.9.8.8,1.7,1.6,2.6,2.3.3.3.6.5.9.8.9.8,1.8,1.6,2.7,2.3.3.3.6.5.9.7.9.7,1.9,1.5,2.8,2.2.3.2.6.4.9.7,1,.7,1.9,1.5,2.9,2.2.3.2.6.4.9.6,1,.7,2,1.4,3.1,2.1.4.2.7.4,1.1.7,1,.6,2,1.3,3,1.9.4.2.8.4,1.2.7,1,.6,2,1.2,3,1.7.3.2.7.4,1,.5,1.1.6,2.1,1.2,3.2,1.7.3.2.6.3,1,.5,1.1.6,2.2,1.1,3.4,1.6.4.2.8.3,1.2.5,1.1.5,2.1,1,3.2,1.4h1c.4,0,.2,0,.3,0h1.3c1.1-.5,2.1-.9,3.2-1.4.4-.2.8-.3,1.2-.5,1.1-.5,2.3-1.1,3.4-1.6.3-.2.6-.3,1-.5,1.1-.6,2.2-1.1,3.2-1.7.3-.2.7-.4,1-.5,1-.6,2-1.1,3-1.7.4-.2.8-.4,1.2-.7,1-.6,2-1.2,3-1.9.4-.2.7-.4,1.1-.7,1-.7,2.1-1.4,3.1-2.1.3-.2.6-.4.9-.6,1-.7,2-1.4,2.9-2.2.3-.2.6-.4.9-.7.9-.7,1.9-1.5,2.8-2.2.3-.3.6-.5.9-.7.9-.8,1.8-1.5,2.7-2.3.3-.3.6-.5.9-.8.9-.8,1.7-1.6,2.6-2.3.3-.3.6-.6,1-.9.8-.8,1.6-1.6,2.4-2.4.3-.3.7-.6,1-1,.8-.8,1.6-1.6,2.3-2.5h0Z" style="fill:none; stroke:#000; stroke-miterlimit:13.3; stroke-width:5.3px;"/><path d="M84.75,159.83c-37.32-16.83-64.35-54.17-68.2-94.9-.69-6.74-.79-14.44-.4-20.9,14.24-19.48,44.44-26.47,68.4-27.3,21.72.62,69.48,13.62,69.4,31.1-.04,9.07-.08,18.34-2,27.2-6.89,36.84-32.45,69.65-66.6,85.3l-.06-.4c-.14.05-.41-.04-.54-.1Z"/><path d="M84.69,159.77c-1-.5-1.94-.94-2.94-1.44l-.9-.4c-1-.5-1.9-1-2.9-1.5l-.9-.5c-.8-.5-1.7-1-2.5-1.4l-1.2-.7c-.9-.5-1.8-1.1-2.6-1.6l-1-.6c-.9-.6-1.9-1.2-2.8-1.9l-.8-.5c-.9-.6-1.8-1.3-2.6-1.9l-.8-.6c-.8-.6-1.7-1.3-2.5-2l-.9-.7c-.8-.7-1.6-1.4-2.4-2.1l-.8-.7c-.7-.6-1.4-1.3-2.2-2l-1-.9c-.7-.6-1.3-1.3-2-1.9l-1.1-1.1c-.6-.7-1.3-1.3-1.9-2l-1.1-1.1c-.6-.6-1.2-1.3-1.7-2l-1.1-1.2c-.6-.8-1.3-1.5-1.9-2.3l-.8-1c-.7-.9-1.3-1.7-2-2.6l-.6-.8c-.6-.8-1.1-1.5-1.6-2.3l-.9-1.2c-.5-.7-.9-1.4-1.3-2,0,0-.9-1.4-1-1.5-.5-.8-.9-1.6-1.4-2.3l-.8-1.4c-.5-.8-.9-1.6-1.3-2.4l-.8-1.4c-.3-.6-.7-1.3-1-1.9,0,0-.9-1.7-1-1.9-.3-.5-.5-1.1-.8-1.6l-.7-1.5c-.1-.3-.2-.5-.4-.8-.3-.6-.5-1.2-.7-1.7l-.6-1.5c-.1-.3-.2-.5-.3-.8-.2-.6-.4-1.1-.6-1.7l-.6-1.6c-.1-.3-.2-.6-.3-.9-.3-.9-.6-1.7-.9-2.6l-.5-1.5c-.2-.6-.4-1.2-.5-1.9l-.5-1.6c0-.3-.2-.5-.2-.8-.2-.6-.3-1.2-.5-1.8l-.4-1.6c0-.3-.1-.6-.2-.8-.1-.5-.2-1-.3-1.4l-.4-1.8c0-.4-.2-.8-.2-1.1s-.1-.6-.2-.9l-.3-1.7c-.1-.6-.2-1.2-.3-1.8-.1-.7-.2-1.4-.3-2l-.2-1.6c0-.3,0-.5-.1-.8,0-.4,0-.9-.1-1.3l-.2-1.8c0-.5,0-.9-.1-1.4-.2-3-.3-6.1-.3-9.2v-4.7c0-1.1.1-2.2.2-3.3v-.5c.1-.9.2-1.8.3-2.6,19.1-16,43.1-24.7,68.1-24.7h.9c25,0,49,8.8,68.1,24.7,0,.9.1,1.7.2,2.6v.4c.1,1.2.2,2.3.2,3.4v.7c0,1.3.1,2.6.1,4,0,3.1-.1,6.1-.3,9.2,0,.5,0,.9-.1,1.4l-.2,1.8c0,.4,0,.9-.1,1.3,0,.3,0,.5-.1.8l-.2,1.6c0,.7-.2,1.4-.3,2.1,0,.6-.2,1.2-.3,1.7l-.3,1.7c0,.3-.1.6-.2.9,0,.4-.2.8-.2,1.1l-.4,1.8c0,.5-.2,1-.3,1.4,0,.3-.1.6-.2.8l-.4,1.6c-.2.6-.3,1.2-.5,1.8,0,.3-.1.5-.2.8l-.5,1.6c-.2.6-.4,1.2-.5,1.9l-.5,1.5c-.3.9-.6,1.8-.9,2.6-.1.3-.2.6-.3.9l-.6,1.5c-.2.6-.4,1.1-.6,1.7-.1.3-.2.5-.3.8l-.6,1.5c-.2.6-.5,1.2-.7,1.8-.1.3-.2.5-.4.8l-.7,1.5c-.3.6-.5,1.1-.8,1.7,0,.2-1,1.9-1,1.9-.3.6-.6,1.3-1,1.9l-.8,1.5c-.4.8-.8,1.5-1.3,2.3l-.8,1.3c-.5.8-.9,1.6-1.4,2.4-.1.2-1,1.5-1,1.5-.4.7-.9,1.4-1.3,2.1l-.9,1.2c-.5.8-1.1,1.5-1.6,2.3l-.6.8c-.7.9-1.3,1.8-2,2.6l-.8,1c-.6.8-1.2,1.5-1.9,2.3l-1.1,1.3c-.6.7-1.1,1.3-1.7,2l-1.1,1.1c-.6.7-1.3,1.3-1.9,2l-1.1,1.1c-.6.6-1.3,1.3-1.9,1.9l-1,.9c-.7.7-1.4,1.3-2.2,2l-.8.7c-.8.7-1.6,1.4-2.4,2.1l-.8.7c-.9.7-1.7,1.4-2.5,2l-.8.6c-.9.7-1.8,1.3-2.6,1.9l-.8.5c-.9.6-1.8,1.3-2.8,1.9l-1,.6c-.9.6-1.8,1.2-2.7,1.7l-1.2.7c-.8.5-1.7,1-2.5,1.5l-.9.5c-1,.5-1.9,1-2.9,1.5l-.9.4-2.13,1.07c-.22.12-1.42-.01-1.53-.12Z" style="fill:none; stroke:#000; stroke-miterlimit:13.3; stroke-width:2.7px;"/><path d="M123.55,77.13s17,8.1,16.2,17.4-9.1,19.5-9.1,19.5l-9.9,13s9.8-11,8.2-15.6-10.5-6.8-10.5-6.8c0,0,5.7-20.8,5.2-27.4" style="fill:#fff;"/><path d="M123.55,77.13s17,8.1,16.2,17.4-9.1,19.5-9.1,19.5l-9.9,13s9.8-11,8.2-15.6-10.5-6.8-10.5-6.8c0,0,5.7-20.8,5.2-27.4l-.1-.1Z" style="fill:none; stroke:#000; stroke-miterlimit:13.3; stroke-width:2.7px;"/><path d="M43.95,84.83s-17.9-.6-19.8-9.8,1.7-17.3,1.7-17.3l8.1-17.4s-7.4,11.4-4.4,15.4c3,4,21.6,4.8,21.6,4.8,0,0-9.7,18.1-7.2,24.2" style="fill:#fff;"/><path d="M44.95,84.83s-17.9-.6-19.8-9.8,1.7-17.3,1.7-17.3l8.1-17.4s-7.4,11.4-4.4,15.4c3,4,21.6,4.8,21.6,4.8,0,0-9.7,18.1-7.2,24.2v.1Z" style="fill:none; stroke:#000; stroke-miterlimit:13.3; stroke-width:2.7px;"/><path d="M125.75,81.13c0,22.6-18.3,40.9-40.9,40.9s-40.9-18.3-40.9-40.9,18.3-40.9,40.9-40.9,40.9,18.3,40.9,40.9" style="fill:#0ac18e;"/><path d="M125.75,81.13c0,22.6-18.3,40.9-40.9,40.9s-40.9-18.3-40.9-40.9,18.3-40.9,40.9-40.9,40.9,18.3,40.9,40.9Z" style="fill:none; stroke:#000; stroke-miterlimit:13.3; stroke-width:5.3px;"/><path d="M90.35,45.23c22.5,3.3,42.5,16.7,56.5,28.5h0c0-.2.5-2.7.5-2.7,0-.5.2-1,.3-1.5,0-.6.2-1.2.2-1.8,0,0,.3-2.3.3-2.5,0-.4,0-.7.1-1.1l.2-2.2c0-.4,0-.7.1-1.1.2-2.9.3-5.9.3-8.8v-4.5c0-1.1-.1-2.1-.2-3.2v-1c-17.9-14.4-40.4-22.3-63.4-22.4h-.9c-11,0-21.8,1.8-32.1,5.3-11.3,3.8-23.9,7.5-28.4,38,3.3-15.9,24-25.3,66.6-19" style="fill:#fff;"/><path d="M90.35,45.23c22.5,3.3,42.5,16.7,56.5,28.5h0c0-.2.5-2.7.5-2.7,0-.5.2-1,.3-1.5,0-.6.2-1.2.2-1.8,0,0,.3-2.3.3-2.5,0-.4,0-.7.1-1.1l.2-2.2c0-.4,0-.7.1-1.1.2-2.9.3-5.9.3-8.8v-4.5c0-1.1-.1-2.1-.2-3.2v-1c-17.9-14.4-40.4-22.3-63.4-22.4h-.9c-11,0-21.8,1.8-32.1,5.3-11.3,3.8-23.9,7.5-28.4,38,3.3-15.9,24-25.3,66.6-19h-.1Z" style="fill:none; stroke:#000; stroke-miterlimit:13.3; stroke-width:4px;"/><path d="M74.15,115.23c-17.8-4.7-35-14.5-46.1-24.5.3.7.6,1.7.6,1.7.2.5.4,1,.6,1.5,0,.2,1,2.3,1,2.3.2.5.4,1,.6,1.5,0,.2,1.1,2.3,1.1,2.3.2.5.4,1,.7,1.5l1,2c.3.6.6,1.1.8,1.6,0,0,3.9,6.8,7.3,11.2,6.5,8.4,18.9,21.2,36.1,24.5,15.7,3,24.7,1.7,29.9-.5l.3-.3c.8-.6,1.5-1.3,2.4-2l.8-.7c.7-.6,1.3-1.2,2-1.8l1-.9c.6-.5,1.1-1.1,1.7-1.7l1.2-1.2c.6-.6,1.1-1.2,1.7-1.8l1.1-1.2c.5-.6,1-1.1,1.5-1.7l1.2-1.4c.6-.7,1.1-1.4,1.7-2l.9-1.1c.6-.8,1.3-1.6,2-2.6l.5-.7c.5-.7,1-1.3,1.4-2l.9-1.3c.4-.6.8-1.2,1.2-1.8-9.4,6.5-32.2,7.8-57.2,1.2" style="fill:#fff;"/><path d="M74.15,115.23c-17.8-4.7-35-14.5-46.1-24.5.3.7.6,1.7.6,1.7.2.5.4,1,.6,1.5,0,.2,1,2.3,1,2.3.2.5.4,1,.6,1.5,0,.2,1.1,2.3,1.1,2.3.2.5.4,1,.7,1.5l1,2c.3.6.6,1.1.8,1.6,0,0,3.9,6.8,7.3,11.2,6.5,8.4,18.9,21.2,36.1,24.5,15.7,3,24.7,1.7,29.9-.5l.3-.3c.8-.6,1.5-1.3,2.4-2l.8-.7c.7-.6,1.3-1.2,2-1.8l1-.9c.6-.5,1.1-1.1,1.7-1.7l1.2-1.2c.6-.6,1.1-1.2,1.7-1.8l1.1-1.2c.5-.6,1-1.1,1.5-1.7l1.2-1.4c.6-.7,1.1-1.4,1.7-2l.9-1.1c.6-.8,1.3-1.6,2-2.6l.5-.7c.5-.7,1-1.3,1.4-2l.9-1.3c.4-.6.8-1.2,1.2-1.8-9.4,6.5-32.2,7.8-57.2,1.2l.1-.1Z" style="fill:none; stroke:#000; stroke-miterlimit:13.3; stroke-width:4px;"/><path d="M100.45,88.83c-1-4-4.1-5.3-9.1-4l-11.1,2.8,2.9,11.8,11.1-2.8c5-1.2,7.2-3.7,6.2-7.7M75.45,68.33l2.8,11.2,9.5-2.4c4.7-1.2,6.7-3.7,5.8-7.4s-3.9-4.9-8.6-3.8c0,0-9.5,2.4-9.5,2.4ZM110.35,87.63c2.1,8.2-2.4,14.4-13.3,17.1l-21.4,5.3-11.9-47.6,20.2-5c10.3-2.6,16.9,1.1,18.7,8.5,1.2,4.8,0,9-2.9,11.8,5,.6,9,3.9,10.5,9.9"/><path d="M89.25,101.63l3.1,12.5-6.2,1.5-3.1-12.5,6.2-1.5Z"/><path d="M76.55,50.53l3.1,12.5-6.2,1.5-3.1-12.5,6.2-1.5Z"/><path d="M98.45,99.33l3.1,12.5-6.2,1.5-3.1-12.5,6.2-1.5Z"/><path d="M85.75,48.23l3.1,12.5-6.2,1.5-3.1-12.5,6.2-1.5Z"/></svg>