<svg xmlns="http://www.w3.org/2000/svg" viewBox="0 0 141.7 109.8" xmlns:v="https://vecta.io/nano"><path d="M141.7 72.4L77 109.8l-12.2-7.1h0L12.3 72.3c-3.6-2.3-6.5-5.5-8.6-9.1C1.3 59.1 0 54.3 0 49.4s2.2-8.1 5.5-10.3c.4-.3.9-.5 1.3-.8 3.5-1.8 7.8-1.9 11.7.3l14.1 7.8 9.5 5.6 2.5 1.5L77 72.2l32.3-18.7 32.4 18.7h0v.2z" fill="#333"/><path d="M83.8,1.7c-8.2-4.8-18.6,1.2-18.6,10.7s4.6,17.8,12.1,22.9l31.9,18.5h0l32.4-18.7L83.8,1.7Z" fill="#b3b3b3"/><path d="M77.3 35.3c-7.5-5.1-12.1-13.7-12.1-22.9s2.4-8.3 5.7-10.5c-.2 0 .2 0 0 0L20.4 30.3l-8.1 4.9-5.5 3.2c3.5-1.8 7.8-1.9 11.7.3l13.9 7.9 12.2 7.1L77 72.4l32.3-18.7-31.9-18.5h0z" fill="#666"/></svg>