<svg xmlns="http://www.w3.org/2000/svg" viewBox="0 0 447 222" fill="#777" xmlns:v="https://vecta.io/nano"><path d="M29 63.8c-.1-29.7 19-46.2 54.1-46.3 25.3 0 29.8 16.3 29.8 22.3 0 11.4-16.3 23.6-16.3 23.6s.9 7.1 14.9 7.1 27.6-9.2 27.5-32.2C138.9 11.9 111.1-.1 83.7 0 60.7 0-.2 3.3 0 63.4c.2 53.4 101.6 58.1 101.6 92.3.1 37.1-41.8 47.1-55.9 47.1s-19.9-10-20-15.4c-.1-30.1 30-38.4 30-38.4 0-2.2-1.8-12.2-13.4-12.2-30 0-42 25.7-41.9 50.8 0 21.3 15.2 34.6 38.1 34.5 43.8-.2 93.1-21.4 92.9-68.5C131.2 109.5 29 98 28.9 63.9zm417.2 118.1c-.3-.8-1.3-.6-2.6.4-5 4.1-16.3 15.6-42.9 15.7-48.4.2-56.8-79.2-56.8-79.2s36.9-27.4 42.7-38.4S374 66.9 374 66.9s-25.8 31.2-44.1 40.4c2-13.6 15.5-44.5 16.3-62.3s-21.6-13.5-25.1-11.8c0 7.8-19.7 78.3-26.9 117.1-4.2 6.7-10.3 14.4-15.7 14.4-3.1 0-4.3-5.8-4.3-14.1 0-11.5 6.4-29.9 6.3-41.1 0-7.7-3.6-8.2-6.7-8.2-.7 0-4.4.1-5 .1-7.9 0-5.3-6.7-12.4-6.7-21.8 0-49.5 23.7-50.7 59.3-7.3 4.8-17.6 10.9-22.9 10.9-5.5 0-6.9-5.1-6.9-9.4 0-7.7 12.5-53.3 12.5-53.3s15.9-4.1 22.9-5.4c5.3-1 6.8-1.4 8.8-3.9s6-7.7 9.3-12.4 0-8.3-5.9-8.3c-7.8 0-28.8 4.9-28.8 4.9l10.1-44c0-.9-1.1-1.3-2.8-1.3-3.8 0-10.6 2-15 3.6-6.7 2.4-12.1 10.5-13.2 14.3s-8.6 33.4-8.6 33.4L119.3 99c-.3.1-.6.4-.6.8s4.6 17.9 14.1 17.9c6.8 0 26.7-8.1 26.7-8.1s-10.2 40.4-10.2 53.8c0 8.6 4.1 18.8 21.1 18.7 15.8 0 29.6-8.1 37.4-13.8 4.2 10.6 14.2 13.6 21.1 13.5 15.3 0 27.1-12.1 28.6-13.8 2 4.7 6.7 13.6 17.4 13.6 6 0 12.3-6.7 16.9-13.3v4.1c1.9 16.7 26.8 6.9 28.2 4.6.8-12.1.3-36.8 5.2-52.1 6.5 52.1 30.9 87.2 75 87 24.6 0 37.2-7.1 42.5-12.9 4.3-4.7 5.7-11.3 3.8-17.3h0zM235 164.7c-21.1 0 6.5-54.4 24.5-54.4 0 7-.4 54.4-24.5 54.4h0zm171.5 16.7c19.1 0 33.9-12.6 36.6-16.6 3.5-5.3-4.1-13.3-6.5-13.1-6 5.7-12.3 12.7-26.5 12.7-16.6 0-12.9-18.1-12.9-18.1s32 4.1 44.9-18.8c4.1-7.3 4.3-17.5 2.6-21.8-1.7-4.4-11-12.4-25.8-11.2-18.2 1.5-41.2 20.4-46.2 43.1-4.1 18.2 3.6 44 33.7 43.9h0zm20.4-76.4c3-.1 2.7 4.8 1.9 9.9-1.1 7-10.8 24.7-29.1 24 1.3-10.3 14.9-33.5 27.2-33.9h0z"/></svg>