<?xml version="1.0" encoding="UTF-8"?>
<!DOCTYPE svg  PUBLIC '-//W3C//DTD SVG 1.1//EN'  'http://www.w3.org/Graphics/SVG/1.1/DTD/svg11.dtd'>
<svg clip-rule="evenodd" fill-rule="evenodd" image-rendering="optimizeQuality" shape-rendering="geometricPrecision" text-rendering="geometricPrecision" version="1.1" viewBox="0 0 1563 1563" xmlns="http://www.w3.org/2000/svg">
<path d="m125.5 60.5c25.336-0.1666 50.669 0 76 0.5 4.201 39.034 25.868 60.534 65 64.5 39.541-3.873 60.874-25.54 64-65h77c2.141 33.638 19.474 54.805 52 63.5 32.287 4.107 56.121-8.059 71.5-36.5 3.767-8.6008 5.6-17.601 5.5-27h77c2.018 33.186 19.018 54.353 51 63.5 34.115 4.528 58.615-8.638 73.5-39.5 2.901-7.7408 4.401-15.741 4.5-24h77c3.136 39.47 24.469 61.137 64 65 39.368-4.035 61.035-25.702 65-65 25.336-0.1666 50.669 0 76 0.5 4.2 39.034 25.87 60.534 65 64.5 39.54-3.873 60.87-25.54 64-65h77c2.14 33.638 19.47 54.805 52 63.5 32.25 4.127 56.08-8.04 71.5-36.5 3.77-8.6008 5.6-17.601 5.5-27h77c2.13 33.625 19.46 54.792 52 63.5 4.35 0.465 8.68 0.965 13 1.5 0.17 25.336 0 50.669-0.5 76-35 2.994-56.33 21.66-64 56-2.43 32.986 11.4 56.153 41.5 69.5 7.35 2.511 14.85 4.011 22.5 4.5 0.5 25.331 0.67 50.664 0.5 76-32.77 1.942-53.94 18.608-63.5 50-5.25 34.33 7.58 59.163 38.5 74.5 8.02 3.226 16.35 4.726 25 4.5v77c-32.8 1.975-53.97 18.642-63.5 50-5 39.19 11.17 65.023 48.5 77.5 4.96 0.912 9.96 1.412 15 1.5v77c-35.44 1.943-56.94 20.276-64.5 55-2.03 35.78 13.8 59.613 47.5 71.5 5.64 1.08 11.31 1.913 17 2.5 0.17 25.336 0 50.669-0.5 76-35 2.99-56.33 21.66-64 56-2.43 32.99 11.4 56.15 41.5 69.5 7.35 2.51 14.85 4.01 22.5 4.5 0.5 25.33 0.67 50.66 0.5 76-32.77 1.94-53.94 18.61-63.5 50-5.25 34.33 7.58 59.16 38.5 74.5 8.02 3.23 16.35 4.73 25 4.5v77c-39.99 3.32-61.65 24.99-65 65h-77c-1.97-32.79-18.63-53.96-50-63.5-39.75-5.05-65.58 11.45-77.5 49.5-0.99 4.62-1.49 9.28-1.5 14h-77c-1.13-28.28-14.46-48.45-40-60.5-37.22-10.97-65.05 0.53-83.5 34.5-3.42 8.34-5.25 17.01-5.5 26h-76c-2.79-35.29-21.457-56.79-56-64.5-34.386-2.26-57.886 12.57-70.5 44.5-1.942 6.53-2.775 13.2-2.5 20h-77c-2.116-33.27-19.116-54.44-51-63.5-35.489-5.01-60.322 8.82-74.5 41.5-2.524 7.12-3.691 14.45-3.5 22h-77c-0.948-27.41-13.614-47.24-38-59.5-33.668-11.78-60.835-3.28-81.5 25.5-6.284 10.47-9.45 21.8-9.5 34-25.336 0.17-50.669 0-76-0.5-4.267-39.1-25.933-60.6-65-64.5-33.623 2.12-54.79 19.46-63.5 52-0.2 4.25-0.7 8.42-1.5 12.5-25.331 0.5-50.664 0.67-76 0.5-2.106-33.26-19.106-54.43-51-63.5-4.618-0.99-9.2847-1.49-14-1.5v-77c33.621-2.12 54.788-19.45 63.5-52 4.225-32.72-8.275-56.55-37.5-71.5-8.3403-3.42-17.007-5.25-26-5.5v-77c39.217-3.05 60.884-24.22 65-63.5-3.74-39.41-25.24-61.24-64.5-65.5-0.5-25.331-0.6666-50.664-0.5-76 38.885-3.885 60.552-25.219 65-64-1.487-28.175-14.821-48.341-40-60.5-8.0504-3.11-16.384-4.61-25-4.5v-77c33.621-2.121 54.788-19.454 63.5-52 4.131-30.236-6.703-53.402-32.5-69.5-9.7691-4.859-20.102-7.359-31-7.5v-77c38.927-3.427 60.594-24.593 65-63.5-2.421-33.536-19.755-54.869-52-64-4.2901-0.923-8.6234-1.423-13-1.5-0.1666-25.336 0-50.669 0.5-76 38.806-4.14 60.306-25.64 64.5-64.5-3.74-39.406-25.24-61.239-64.5-65.5-0.5-25.331-0.6666-50.664-0.5-76 39.332-3.999 60.999-25.666 65-65z" fill="#fefefe" opacity=".992"/>
<path d="m219.5 164.5h65c1.174 24.334 12.841 41.501 35 51.5 32.132 8.842 55.965-1.325 71.5-30.5 2.787-6.718 4.287-13.718 4.5-21h65c1.488 27.133 15.154 44.966 41 53.5 27.822 5.001 48.989-4.499 63.5-28.5 4.015-7.873 5.848-16.206 5.5-25h66c1.098 24.366 12.765 41.533 35 51.5 31.44 8.86 54.94-0.973 70.5-29.5 3.086-7.012 4.586-14.345 4.5-22h65c3.227 32.893 21.227 51.226 54 55 24.18-0.5 41.68-11.5 52.5-33 2.683-7.097 4.183-14.43 4.5-22h65c3.312 33.145 21.48 51.478 54.5 55 34.13-2.632 52.97-20.966 56.5-55h65c1.17 24.334 12.84 41.501 35 51.5 26.18 7.828 48.01 1.328 65.5-19.5 6.4-9.701 9.9-20.367 10.5-32h65c2 28.838 17 47.005 45 54.5 3.32 0.498 6.65 0.665 10 0.5v65c-21.24 0.7-37.41 10.033-48.5 28-10.12 22.17-8.12 43.17 6 63 11.45 12.476 25.62 19.142 42.5 20v65c-21.24 0.7-37.41 10.033-48.5 28-10.12 22.17-8.12 43.17 6 63 11.45 12.476 25.62 19.142 42.5 20v65c-24.21 0.687-41.38 12.02-51.5 34-8.3 26.643-1.8 48.809 19.5 66.5 9.61 6.705 20.28 9.872 32 9.5v65c-28.01 2.428-46.18 17.095-54.5 44-3.38 34.584 11.46 56.751 44.5 66.5 3.32 0.498 6.65 0.665 10 0.5v65c-28.37 1.945-46.54 16.61-54.5 44-3.52 29.47 7.98 50.64 34.5 63.5 6.5 2.14 13.17 3.31 20 3.5v65c-28.37 1.94-46.54 16.61-54.5 44-3.52 29.47 7.98 50.64 34.5 63.5 6.5 2.14 13.17 3.31 20 3.5v65c-28.77 1.48-46.94 16.14-54.5 44-0.5 3.65-0.67 7.32-0.5 11h-65c-1.66-25.49-14.32-42.99-38-52.5-33.14-7.85-56.64 3.65-70.5 34.5-2.06 5.81-2.89 11.81-2.5 18h-65c-1.53-25.55-14.19-43.05-38-52.5-32.01-7.91-55.18 2.92-69.5 32.5-2.764 6.39-3.931 13.06-3.5 20h-65c-0.749-23.23-11.416-40.06-32-50.5-32.933-11.27-57.766-1.77-74.5 28.5-2.896 7.04-4.396 14.37-4.5 22h-65c-1.308-26.81-14.641-44.64-40-53.5-33.086-5.88-55.92 6.62-68.5 37.5-1.271 5.25-1.771 10.59-1.5 16h-66c-0.682-24.2-12.015-41.36-34-51.5-32.704-9.72-56.871 0.44-72.5 30.5-2.975 6.68-4.141 13.68-3.5 21h-65c-1.663-25.49-14.33-42.99-38-52.5-33.14-7.85-56.64 3.65-70.5 34.5-2.06 5.82-2.893 11.82-2.5 18h-65c-2.106-29.28-17.439-47.44-46-54.5-2.982-0.5-5.982-0.66-9-0.5v-65c34.034-3.53 52.368-22.37 55-56.5-1.24-23.16-12.24-39.82-33-50-7.097-2.68-14.43-4.18-22-4.5v-65c34.028-3.53 52.361-22.36 55-56.5-3.555-33.05-21.888-51.222-55-54.5v-65c27.305-1.906 45.139-15.906 53.5-42 4.687-29.46-6.146-50.96-32.5-64.5-6.777-2.589-13.777-4.089-21-4.5v-65c24.702-1.199 41.869-13.199 51.5-36 8.688-32.121-1.812-55.621-31.5-70.5-6.452-2.447-13.118-3.614-20-3.5v-66c24.702-1.199 41.869-13.199 51.5-36 8.688-32.121-1.812-55.621-31.5-70.5-6.452-2.447-13.118-3.614-20-3.5v-65c34.034-3.534 52.368-22.368 55-56.5-1.24-23.156-12.24-39.823-33-50-7.097-2.683-14.43-4.183-22-4.5v-65c33.35-3.35 51.683-21.683 55-55z" fill="#7ed957"/>
<path d="m917.5 711.5c-0.543 0.06-0.876 0.393-1 1 7.638 0.997 15.304 1.331 23 1 36.836 2.988 62.67 21.321 77.5 55 11.27 25.945 15.27 52.945 12 81-4.44 26.756-16.94 48.923-37.5 66.5-17.672 14.18-37.005 25.847-58 35-12.477 4.742-24.81 9.742-37 15 9.172 30.017 17.839 60.18 26 90.5-18.371 4.84-36.704 9.84-55 15-7.707-29.49-16.04-58.83-25-88-0.5-0.333-1-0.667-1.5-1-14.023 4.671-28.19 8.838-42.5 12.5 8.766 29.46 17.432 58.96 26 88.5-18.078 6.14-36.411 11.47-55 16-8.03-29.78-16.53-59.45-25.5-89-0.414-0.46-0.914-0.79-1.5-1-36.286 10.49-72.619 20.82-109 31-2.636-21.49-5.303-42.994-8-64.5 0.333-1.167 0.667-2.333 1-3.5 15.505-4.211 30.839-9.044 46-14.5 5.505-4.511 8.172-10.345 8-17.5-23.076-83.967-47.242-167.63-72.5-251-5.853-10.016-14.686-15.016-26.5-15-6.1 0.657-12.1 1.824-18 3.5-10.966 3.358-21.966 6.525-33 9.5-5.128-19.385-10.461-38.718-16-58 36.333-10.167 72.5-20.834 108.5-32 0.328-2.707-5e-3 -5.374-1-8-8.144-27.264-15.978-54.597-23.5-82 18.265-5.199 36.599-10.199 55-15 7.859 28.77 16.025 57.436 24.5 86 0.561 0.522 1.228 0.855 2 1 13.746-4.394 27.58-8.394 41.5-12-7.828-29.315-16.161-58.482-25-87.5 17.241-5.854 34.741-11.021 52.5-15.5 1.326 0.255 2.326 0.922 3 2 8.639 28.892 16.806 57.892 24.5 87 33.242-7.305 66.575-7.805 100-1.5 29.183 9.183 49.35 28.017 60.5 56.5 13.121 30.979 10.787 60.646-7 89-4.032 4.861-8.199 9.528-12.5 14z" fill="#fefefe"/>
<path d="m772.5 624.5c16.296-1.099 31.963 1.401 47 7.5 21.607 15.489 28.441 35.989 20.5 61.5-7.445 12.778-17.612 22.945-30.5 30.5-25.358 13.175-52.025 22.675-80 28.5-9.941-35.927-20.274-71.76-31-107.5 23.891-9.639 48.557-16.473 74-20.5z" fill="#7ed957"/>
<path d="m917.5 711.5c7.333 0.667 14.667 1.333 22 2-7.696 0.331-15.362-3e-3 -23-1 0.124-0.607 0.457-0.94 1-1z" fill="#d1f1c3"/>
<path d="m837.5 784.5c19.949-2.175 38.949 0.992 57 9.5 22.209 16.688 28.709 38.188 19.5 64.5-9.653 15.987-22.82 28.154-39.5 36.5-30.063 14.854-61.397 25.354-94 31.5-11.494-38.982-22.828-77.982-34-117 0.318-1.147 0.984-1.981 2-2.5 29.296-9.618 58.963-17.118 89-22.5z" fill="#7ed957"/>
</svg>
