<svg xmlns="http://www.w3.org/2000/svg" viewBox="0 0 1563 1563" image-rendering="optimizeQuality" shape-rendering="geometricPrecision" fill-rule="evenodd" xmlns:v="https://vecta.io/nano"><path d="M219.5,164.5h65c1.2,24.3,12.8,41.5,35,51.5,32.1,8.8,56-1.3,71.5-30.5,2.8-6.7,4.3-13.8,4.5-21h65c1.5,27.1,15.2,45,41,53.5,27.8,5,49-4.5,63.5-28.5,4-7.9,5.8-16.2,5.5-25h66c1.1,24.4,12.8,41.5,35,51.5,31.4,8.9,54.9-1,70.5-29.5,3.1-6.9,4.6-14.4,4.5-22h65c3.2,32.9,21.2,51.2,54,55,24.2-.5,41.7-11.5,52.5-33,2.7-7.1,4.2-14.4,4.5-22h65c3.3,33.1,21.5,51.5,54.5,55,34.1-2.6,53-21,56.5-55h65c1.2,24.3,12.8,41.5,35,51.5,26.2,7.8,48,1.3,65.5-19.5,6.4-9.7,9.9-20.4,10.5-32h65c2,28.8,17,47,45,54.5,3.3.5,6.7.7,10,.5v65c-21.2.7-37.4,10-48.5,28-10.1,22.2-8.1,43.2,6,63,11.4,12.5,25.6,19.1,42.5,20v65c-21.2.7-37.4,10-48.5,28-10.1,22.2-8.1,43.2,6,63,11.4,12.5,25.6,19.1,42.5,20v65c-24.2.7-41.4,12-51.5,34-8.3,26.6-1.8,48.8,19.5,66.5,9.6,6.7,20.3,9.9,32,9.5v65c-28,2.4-46.2,17.1-54.5,44-3.4,34.6,11.5,56.8,44.5,66.5,3.3.5,6.7.7,10,.5v65c-28.4,1.9-46.5,16.6-54.5,44-3.5,29.5,8,50.6,34.5,63.5,6.5,2.1,13.2,3.3,20,3.5v65c-28.4,1.9-46.5,16.6-54.5,44-3.5,29.5,8,50.6,34.5,63.5,6.5,2.1,13.2,3.3,20,3.5v65c-28.8,1.5-46.9,16.1-54.5,44-.5,3.6-.7,7.3-.5,11h-65c-1.7-25.5-14.3-43-38-52.5-33.1-7.8-56.6,3.7-70.5,34.5-2.1,5.8-2.9,11.9-2.5,18h-65c-1.5-25.6-14.2-43.1-38-52.5-32-7.9-55.2,2.9-69.5,32.5-2.7,6.3-3.9,13.1-3.5,20h-65c-.7-23.2-11.4-40.1-32-50.5-32.9-11.3-57.8-1.8-74.5,28.5-2.9,7-4.4,14.4-4.5,22h-65c-1.3-26.8-14.6-44.6-40-53.5-33.1-5.9-55.9,6.6-68.5,37.5-1.3,5.2-1.8,10.6-1.5,16h-66c-.7-24.2-12-41.4-34-51.5-32.7-9.7-56.9.4-72.5,30.5-3,6.7-4.1,13.7-3.5,21h-65c-1.7-25.5-14.3-43-38-52.5-33.1-7.8-56.6,3.7-70.5,34.5-2.1,5.8-2.9,11.8-2.5,18h-65c-2.1-29.3-17.4-47.4-46-54.5-3-.5-6-.7-9-.5v-65c34-3.5,52.4-22.4,55-56.5-1.2-23.2-12.2-39.8-33-50-7.1-2.7-14.4-4.2-22-4.5v-65c34-3.5,52.4-22.4,55-56.5-3.6-33-21.9-51.2-55-54.5v-65c27.3-1.9,45.1-15.9,53.5-42,4.7-29.5-6.1-51-32.5-64.5-6.8-2.6-13.8-4.1-21-4.5v-65c24.7-1.2,41.9-13.2,51.5-36,8.7-32.1-1.8-55.6-31.5-70.5-6.5-2.4-13.1-3.6-20-3.5v-66c24.7-1.2,41.9-13.2,51.5-36,8.7-32.1-1.8-55.6-31.5-70.5-6.5-2.4-13.1-3.6-20-3.5v-65c34-3.5,52.4-22.4,55-56.5-1.2-23.2-12.2-39.8-33-50-7.1-2.7-14.4-4.2-22-4.5v-65c33.4-3.4,51.7-21.7,55-55Z" fill="#7ed957"/><path d="M917.5 711.5c-.5 0-.9.4-1 1 7.6 1 15.3 1.3 23 1 36.8 3 62.7 21.3 77.5 55 11.3 25.9 15.3 52.9 12 81-4.4 26.8-16.9 48.9-37.5 66.5-17.7 14.2-37 25.8-58 35-12.4 4.7-24.8 9.7-37 15 9.2 30 17.8 60.2 26 90.5l-55 15c-7.7-29.5-16-58.8-25-88l-1.5-1c-14 4.7-28.2 8.8-42.5 12.5l26 88.5c-18.1 6.1-36.4 11.5-55 16-8-29.8-16.5-59.4-25.5-89-.4-.5-.9-.8-1.5-1l-109 31-8-64.5 1-3.5c15.5-4.2 30.8-9 46-14.5 5.5-4.5 8.2-10.3 8-17.5l-72.5-251c-5.9-10-14.7-15-26.5-15-6.1.7-12.1 1.8-18 3.5-11 3.4-22 6.5-33 9.5l-16-58 108.5-32c.3-2.7 0-5.4-1-8l-23.5-82 55-15 24.5 86c.6.5 1.2.9 2 1 13.7-4.4 27.6-8.4 41.5-12-7.8-29.3-16.2-58.5-25-87.5 17.2-5.9 34.7-11 52.5-15.5 1.3.3 2.3.9 3 2l24.5 87c33.2-7.3 66.6-7.8 100-1.5 29.2 9.2 49.3 28 60.5 56.5 13.1 31 10.8 60.6-7 89-4 4.8-8.2 9.5-12.5 14z" fill="#fefefe"/><path d="M772.5 624.5c16.3-1.1 32 1.4 47 7.5 21.6 15.5 28.4 36 20.5 61.5-7.4 12.8-17.6 22.9-30.5 30.5-25.4 13.2-52 22.7-80 28.5l-31-107.5c23.9-9.6 48.6-16.5 74-20.5zm65 160c19.9-2.2 38.9 1 57 9.5 22.2 16.7 28.7 38.2 19.5 64.5-9.7 16-22.8 28.2-39.5 36.5-30.1 14.9-61.4 25.4-94 31.5l-34-117c.3-1.1 1-2 2-2.5 29.3-9.6 59-17.1 89-22.5z" fill="#7ed957"/></svg>