<?xml version="1.0" encoding="UTF-8"?><svg xmlns="http://www.w3.org/2000/svg" xmlns:xlink="http://www.w3.org/1999/xlink" viewBox="0 0 900 738.564"><defs><linearGradient id="c" x1="0" y1="369.282" x2="900" y2="369.282" gradientUnits="userSpaceOnUse"><stop offset="0" stop-color="#000" stop-opacity=".2"/><stop offset=".1" stop-color="#fff" stop-opacity="0"/><stop offset=".639" stop-color="#000" stop-opacity=".2"/><stop offset=".976" stop-color="#dadada" stop-opacity=".029"/><stop offset="1" stop-color="#fff" stop-opacity="0"/></linearGradient></defs><g id="a"><path d="M672.851,136.561c.348.037.696.07,1.045.105C449.263,113.543,224.632-110.423,0,69.282v448.567C224.284,188.9,448.567,262.376,672.851,136.561Z" style="fill:#009e49;"/><path d="M227.15,602.003c-.356-.038-.712-.071-1.068-.108,224.64,23.11,449.279,247.098,673.919,67.387V220.715c-224.283,328.949-448.567,255.474-672.85,381.288Z" style="fill:#ce1126;"/><path d="M162.251,601.245c-.07.006-.139.014-.209.021.152-.014.304-.026.455-.039.581-.052,1.163-.102,1.744-.151.599-.05,1.197-.099,1.796-.146.577-.045,1.154-.088,1.732-.129.599-.043,1.199-.085,1.798-.125.581-.038,1.162-.075,1.743-.11.596-.036,1.192-.07,1.789-.103.579-.031,1.159-.061,1.738-.089.599-.029,1.197-.057,1.796-.082.58-.025,1.16-.048,1.741-.07.598-.022,1.197-.043,1.795-.062.577-.018,1.153-.035,1.73-.05.602-.016,1.203-.03,1.805-.042.578-.012,1.155-.022,1.733-.03.597-.009,1.194-.016,1.791-.021.583-.005,1.166-.009,1.75-.011.595-.002,1.189-.003,1.784-.002.581.001,1.163.003,1.744.008.596.004,1.192.01,1.788.018.583.007,1.165.016,1.748.026.594.011,1.187.023,1.781.037.584.013,1.168.028,1.752.045.595.017,1.189.036,1.784.056.581.02,1.162.04,1.743.063.598.023,1.197.048,1.795.075.578.025,1.156.052,1.734.08.599.029,1.198.061,1.797.093.581.031,1.163.064,1.744.098.592.035,1.183.072,1.775.11.588.038,1.175.076,1.763.117.592.041,1.183.084,1.775.128.584.043,1.167.087,1.751.133.594.047,1.188.096,1.783.146.584.049,1.168.099,1.752.15.592.052,1.185.107,1.777.163.586.055,1.172.11,1.759.168.592.058,1.183.118,1.775.179.356.037.712.07,1.068.108,224.283-125.814,448.567-52.339,672.85-381.288v-43.266c-245.916,360.678-491.833,237.556-737.749,423.796ZM737.96,137.298c-.156.014-.313.027-.469.041-.574.052-1.148.101-1.722.149-.604.051-1.207.1-1.811.147-.573.045-1.147.087-1.72.128-.604.044-1.208.086-1.813.126-.574.038-1.148.074-1.722.108-.603.036-1.205.071-1.808.104-.576.031-1.153.061-1.729.089-.601.029-1.202.057-1.803.083-.577.025-1.153.048-1.73.069-.601.022-1.201.043-1.802.062-.576.018-1.152.035-1.728.049-.604.016-1.209.03-1.813.042-.572.012-1.144.022-1.716.03-.605.009-1.209.016-1.814.022-.573.005-1.146.009-1.72.011-.605.002-1.21.003-1.815.002-.573-.001-1.146-.003-1.718-.007-.604-.004-1.208-.01-1.812-.018-.573-.007-1.147-.016-1.721-.026-.606-.011-1.212-.023-1.819-.038-.569-.013-1.139-.028-1.708-.044-.607-.017-1.214-.036-1.821-.057-.574-.019-1.148-.04-1.723-.062-.602-.023-1.203-.049-1.805-.075-.576-.025-1.151-.052-1.727-.08-.603-.03-1.206-.061-1.809-.094-.574-.031-1.147-.063-1.721-.097-.607-.036-1.214-.074-1.82-.113-.569-.037-1.139-.074-1.708-.113-.609-.042-1.217-.086-1.826-.131-.569-.042-1.139-.085-1.708-.13-.608-.048-1.216-.098-1.824-.149-.57-.048-1.14-.096-1.711-.147-.607-.054-1.214-.11-1.821-.167-.571-.053-1.143-.107-1.714-.163-.605-.059-1.211-.121-1.816-.183-.348-.036-.696-.069-1.045-.105C448.567,262.376,224.284,188.9,0,517.849v43.266C245.917,200.437,491.833,323.56,737.75,137.319c.07-.006.14-.014.21-.021Z" style="fill:#fcd116;"/><path d="M896.469,72.074c-.328.257-.657.506-.985.76-.404.314-.809.625-1.213.936-.446.343-.892.692-1.338,1.032-.442.337-.884.665-1.326.999-.405.306-.811.613-1.216.916-.231.173-.463.351-.694.523-.099.074-.198.149-.296.222-.486.361-.971.714-1.457,1.071-.692.51-1.383,1.023-2.075,1.525-.229.166-.459.328-.688.494-.366.265-.733.525-1.099.787-.582.417-1.164.839-1.746,1.251-.515.365-1.03.72-1.546,1.081-.128.09-.256.179-.385.269-.334.233-.667.469-1.001.7-.201.139-.402.281-.603.419-.527.363-1.054.717-1.58,1.077-.65.443-1.3.89-1.95,1.326-.139.093-.278.185-.417.278-.274.183-.547.362-.821.544-.124.083-.248.164-.372.247-.641.425-1.282.854-1.923,1.273-.494.323-.988.638-1.482.957-.377.244-.754.489-1.132.731-.306.196-.612.396-.918.59-.554.353-1.109.697-1.663,1.045-.622.391-1.244.785-1.866,1.17-.557.345-1.113.681-1.67,1.021-.623.38-1.245.764-1.868,1.138-.381.229-.763.453-1.144.68-.378.226-.757.45-1.135.673-.418.247-.836.497-1.253.741-.554.324-1.109.64-1.663.96-.481.277-.962.559-1.444.833-.053.03-.106.061-.158.091-.089.051-.178.1-.268.151-.556.315-1.112.623-1.668.934-.622.348-1.244.699-1.866,1.042-.283.156-.567.309-.85.464-.353.193-.706.383-1.06.574-.198.107-.396.216-.593.323-.343.185-.686.372-1.029.555-.56.299-1.12.591-1.68.885-.175.092-.35.185-.525.277-.256.134-.511.271-.767.404-.187.097-.374.194-.561.291-.56.29-1.121.573-1.681.858-.617.315-1.235.632-1.852.941-.194.097-.387.193-.581.29-.274.136-.547.268-.821.404-.095.047-.19.093-.285.14-.615.303-1.23.609-1.845.907-.549.266-1.099.526-1.648.788-.339.162-.678.326-1.017.486-.288.136-.576.273-.865.408-.569.267-1.138.527-1.707.789-.609.281-1.219.564-1.828.84-.106.048-.212.098-.318.146-.008.003-.015.007-.023.01-.455.205-.91.403-1.366.605-.608.271-1.216.543-1.824.809-.438.191-.876.379-1.315.568-.345.149-.689.297-1.034.444-.396.169-.792.339-1.188.506-.566.239-1.133.471-1.699.706-.534.221-1.067.445-1.601.662-.103.042-.206.083-.309.125-.542.22-1.083.433-1.625.649-.61.243-1.22.487-1.831.726-.339.132-.679.263-1.018.394-.328.127-.657.251-.985.376-.511.195-1.022.391-1.533.583-.568.213-1.137.421-1.705.63-.328.121-.657.245-.985.364-.103.038-.206.077-.31.114-.176.064-.352.125-.527.188-.573.206-1.146.407-1.72.61-.605.214-1.21.428-1.815.637-.249.086-.497.172-.746.257-.277.095-.553.185-.83.279-.046.015-.091.03-.137.046-.607.205-1.215.411-1.822.612-.571.189-1.142.372-1.713.557-.055.018-.109.036-.164.053-.276.089-.552.181-.828.269-.275.088-.55.174-.824.261-.572.181-1.144.356-1.716.533-.607.188-1.215.376-1.822.559-.154.046-.308.095-.462.142-.02.006-.039.012-.059.018-.393.118-.786.229-1.18.345-.612.18-1.223.36-1.834.536-.489.14-.977.277-1.466.414-.309.087-.618.175-.927.261-.378.105-.757.209-1.135.312-.573.156-1.146.308-1.719.461-.537.143-1.074.287-1.61.426-.148.039-.297.077-.445.116-.493.127-.986.249-1.479.373-.604.152-1.207.304-1.811.452-.393.096-.786.191-1.179.286-.298.072-.597.142-.895.213-.487.115-.974.23-1.461.343-.57.132-1.141.26-1.711.388-.44.099-.88.201-1.32.298-.136.03-.271.057-.407.087-.032.007-.064.013-.096.02-.57.124-1.14.244-1.71.365-.608.128-1.215.256-1.823.38-.302.062-.603.124-.905.185-.273.055-.547.106-.82.16-.601.119-1.202.237-1.803.352-.576.11-1.152.216-1.727.323-.192.035-.383.072-.575.107-.146.027-.292.055-.438.082-.264.048-.527.092-.791.139-.574.102-1.148.201-1.722.299-.605.104-1.211.207-1.816.307-.204.034-.407.07-.611.103-.03.005-.059.01-.089.014-.338.055-.675.104-1.013.158-.606.096-1.213.191-1.819.283-.545.083-1.089.163-1.634.242-.268.039-.536.08-.805.119-.365.052-.73.102-1.095.153-.57.079-1.141.156-1.711.232-.554.074-1.109.147-1.663.218-.188.024-.377.049-.565.072-.436.055-.871.105-1.307.158-.607.073-1.213.145-1.819.214-.446.051-.892.101-1.338.15-.263.029-.527.057-.79.085-.469.05-.938.099-1.407.146-.571.058-1.143.114-1.714.169-.449.043-.897.088-1.346.129-.07.006-.14.015-.21.021C491.833,323.56,245.917,200.437,0,561.115v108.167c1.177-.942,2.354-1.872,3.531-2.792.329-.257.657-.506.986-.761.404-.313.808-.625,1.212-.936.445-.342.89-.69,1.335-1.03.49-.373.979-.737,1.469-1.107.358-.27.716-.542,1.075-.81.232-.174.465-.352.697-.525.097-.073.195-.147.292-.219.52-.387,1.041-.765,1.561-1.148.657-.484,1.314-.971,1.971-1.448.231-.168.462-.331.694-.498.366-.265.732-.525,1.099-.787.581-.416,1.162-.838,1.744-1.249.528-.374,1.057-.738,1.585-1.108.115-.08.229-.16.344-.24.335-.234.669-.47,1.004-.702.199-.138.399-.279.598-.416.547-.377,1.093-.745,1.64-1.117.63-.429,1.261-.863,1.891-1.286.142-.095.283-.189.425-.284.269-.18.538-.356.808-.535.139-.092.278-.184.416-.276.629-.417,1.258-.838,1.887-1.25.494-.323.988-.638,1.482-.958.379-.245.757-.491,1.136-.733.305-.195.609-.394.914-.587.56-.356,1.119-.704,1.679-1.055.617-.387,1.233-.778,1.85-1.16.056-.034.111-.07.167-.105.002,0,.003-.002.005-.003.504-.312,1.009-.614,1.513-.922.617-.377,1.235-.758,1.852-1.129.383-.231.767-.456,1.15-.684.376-.224.751-.447,1.127-.669.418-.247.836-.497,1.255-.742.565-.33,1.129-.652,1.694-.978.466-.268.931-.541,1.397-.806.06-.034.12-.07.18-.104.086-.049.172-.096.258-.145.57-.324,1.14-.639,1.71-.958.608-.34,1.216-.683,1.824-1.018.287-.158.573-.312.86-.469.353-.193.705-.382,1.058-.573.197-.107.394-.215.591-.321.342-.184.684-.371,1.026-.554.565-.302,1.129-.596,1.694-.893.171-.09.343-.181.514-.271.255-.134.511-.271.766-.404.186-.097.373-.194.559-.29.568-.294,1.136-.581,1.705-.87.608-.31,1.216-.622,1.825-.927.196-.098.393-.196.589-.294.272-.135.543-.266.815-.401.106-.052.212-.104.318-.156.603-.298,1.207-.597,1.81-.89.551-.267,1.102-.528,1.653-.791.34-.162.68-.327,1.019-.487.287-.136.574-.272.861-.407.571-.268,1.142-.529,1.713-.792.607-.28,1.214-.561,1.82-.836.572-.259,1.144-.512,1.717-.766.605-.269,1.21-.54,1.815-.805.439-.192.878-.379,1.317-.569.344-.148.688-.297,1.032-.443.396-.169.791-.339,1.187-.505.57-.24,1.14-.474,1.71-.71.53-.219,1.059-.442,1.589-.657.103-.042.206-.083.309-.125.549-.222,1.097-.439,1.646-.657.602-.24,1.204-.481,1.807-.716.343-.134.685-.266,1.028-.398.328-.126.655-.25.983-.375.506-.193,1.013-.388,1.519-.578.579-.217,1.159-.429,1.738-.642.322-.118.644-.24.966-.357.102-.037.205-.076.307-.113.175-.063.35-.125.526-.188.577-.208,1.154-.41,1.73-.614.601-.212,1.201-.425,1.802-.632.252-.087.504-.175.756-.261.27-.092.539-.18.809-.272.056-.019.111-.037.167-.056.6-.203,1.201-.407,1.801-.605.576-.19,1.153-.376,1.729-.562.052-.017.105-.034.157-.051.275-.089.549-.18.824-.268.274-.088.549-.174.823-.261.578-.182,1.156-.36,1.734-.538.598-.185,1.196-.37,1.795-.55.167-.05.335-.104.502-.154,0,0,.001,0,.002,0,.413-.124.826-.24,1.239-.362.597-.176,1.194-.352,1.791-.523.495-.142.991-.281,1.486-.42.307-.086.613-.173.92-.258.376-.104.753-.208,1.129-.311.578-.158,1.156-.311,1.733-.464.535-.142,1.069-.286,1.604-.425.148-.038.295-.077.443-.115.495-.128.99-.25,1.485-.375.6-.151,1.2-.302,1.8-.449.397-.097.795-.193,1.192-.289.295-.071.591-.141.886-.211.485-.115.97-.229,1.455-.342.578-.134,1.155-.263,1.733-.393.435-.098.871-.199,1.306-.294.135-.03.27-.057.406-.086.029-.006.058-.012.087-.019.581-.126,1.162-.249,1.743-.372.595-.125,1.189-.251,1.784-.372.31-.063.62-.128.93-.19.266-.053.533-.103.799-.156.008-.002.015-.003.023-.005.594-.117,1.189-.235,1.783-.348.58-.111,1.16-.218,1.74-.325.195-.036.39-.074.585-.109.14-.026.28-.053.42-.078.265-.048.529-.092.794-.14.576-.102,1.153-.202,1.729-.3.601-.103,1.201-.205,1.802-.304.579-.095,1.158-.188,1.738-.279.598-.095,1.195-.189,1.793-.279.552-.084,1.104-.165,1.656-.246.263-.038.526-.079.789-.116.362-.052.724-.102,1.086-.152.583-.081,1.165-.159,1.747-.237.546-.073,1.091-.145,1.637-.214.186-.024.372-.048.558-.072.444-.056.888-.107,1.332-.161.599-.072,1.198-.143,1.797-.212.451-.052.903-.102,1.354-.152.259-.028.519-.056.778-.084.466-.05.931-.098,1.397-.145.582-.059,1.163-.116,1.745-.172.443-.042.887-.087,1.33-.127.07-.006.139-.014.209-.021,245.916-186.24,491.833-63.119,737.749-423.796v-108.167c-1.177.942-2.354,1.872-3.531,2.792Z"/><path d="M331.073,373.122c-16.927,5.932-33.853,12.471-50.78,19.873-15.963-16.272-31.925-31.775-47.888-46.292,5.501,20.242,11.003,40.602,16.504,61.069-16.926,8.57-33.853,18.164-50.779,29.041,0,0,0,0,0,0h0s0,0,0,0c0,0,0,0,0,0,20.327,1.309,40.653,4.468,60.98,9.03,5.501,20.598,11.003,41.298,16.504,62.093,7.061-17.526,14.122-34.898,21.183-52.134,20.327,6.123,40.653,13.372,60.98,21.298-15.963-18.192-31.925-35.965-47.888-53.105,7.061-17.075,14.122-34.027,21.183-50.872ZM651.89,311.106c7.061-17.96,14.122-36.098,21.183-54.434-16.927,9.505-33.853,17.874-50.78,25.365-15.963-16.188-31.925-33.157-47.888-50.689,5.501,21.281,11.003,42.496,16.504,63.634-16.926,6.505-33.853,12.293-50.779,17.621t0,0h0s0,0,0,0c20.326,7.972,40.653,15.282,60.98,21.482,5.502,21.041,11.003,42.001,16.504,62.871,7.061-17.43,14.122-35.008,21.183-52.753,20.327,4.657,40.653,7.927,60.98,9.363-15.963-13.095-31.925-27.321-47.888-42.461Z" style="fill:#fff;"/></g><g id="b"><path d="M0,69.282c300-240,600,240,900,0v600c-300,240-600-240-900,0V69.282Z" style="fill:url(#c);"/></g></svg>