<svg xmlns="http://www.w3.org/2000/svg" viewBox="0 0 234 260.4" xmlns:v="https://vecta.io/nano"><path d="M127.795 260.4h-.479c-8.153-4.821-16.559-10.268-23.949-16.21-2.712-2.18-7.125-4.603-3.75-8.257 3.178-3.44 13.915-9.659 18.369-12.319 2.172-1.298 4.605-2.857 6.882-3.907 2.166-.999 5.949-2.923 7.118.175.215.571.604 2.231.604 2.753v5.515c0 .77 2.231.616 2.728.57 5.494-.508 15.26-3.952 20.519-6.092 76.908-31.306 82.924-146.068 6.643-182.147-1.659-.785-11.925-4.666-12.28-5.231-.276-.439.067-1.234.201-1.731.837-3.093 3.073-10.073 4.514-12.748.406-.754.713-1.437 1.704-1.307.837.109 3.765 1.32 4.799 1.699 37.714 13.826 63.563 45.684 70.355 85.251 10.103 58.86-21.876 118.781-80.059 136.069-6.244 1.855-12.64 2.939-19.015 4.24-.323.3-.503.671-.573 1.105-.307 1.882.011 4.621-.257 6.697-.255 1.977-.702 4.523-2.704 5.448l-1.369.429zM.014 126.843c.821-26.168 11.247-53.482 28.056-73.486 18.597-22.132 44.694-35.685 73.342-39.582 2.382-3.196-.295-9.929 3.016-12.569 2.683-2.139 5.331.099 7.765 1.572 4.729 2.864 20.047 12.869 22.921 16.639 2.735 3.588-1.222 5.919-3.885 7.874-4.866 3.572-19.232 13.183-24.479 14.601-4.954 1.338-4.264-3.286-4.608-6.522-.191-1.794.129-3.997-2.235-3.943-4.014.091-13.705 3.317-17.785 4.775C5.333 63.654-5.193 170.309 62.846 214.222c5.655 3.65 11.733 6.316 17.613 9.493.334.67-4.17 12.321-4.886 13.827-1.121 2.357-1.556 1.988-3.939 1.22-7.934-2.554-20.875-12.124-27.618-17.456C15.704 198.916.258 165.624.014 129.481c-.006-.874-.027-1.765 0-2.638z" fill="#fff"/><path d="M135.466 120.128c3.133.228 5.869.386 8.612 2.059 5.857 3.572 7.881 12.188 6.08 18.51-1.626 5.708-6.957 9.094-11.968 11.528-.985.478-3.748 1.165-4.065 2.184-.622 1.997 4.02 10.146 2.904 12.002-1.163.634-5.244 1.941-6.256 1.212-1.406-1.013-2.419-8.828-3.924-10.222-.946-.876-5.301.316-5.524 1.459-.43 2.204 3.82 11.005 3.089 11.84l-6.538 1.924-4.339-11.938c-1.779.406-13.484 4.968-14.281 4.417-.551-.38-1.559-7.163-1.215-7.945.68-1.546 5.655-1.163 6.209-3.63.438-1.953-.553-4.802-1.084-6.727-2.118-7.676-5.166-16.969-7.91-24.459-.538-1.468-1.269-3.726-2.455-4.738-2.995-2.558-7.481 1.429-9.189.38-.473-.29-2.315-5.258-2.318-5.92-.002-.331.033-.429.213-.7.751-1.129 8.469-3.107 10.316-3.834 2.11-.83 3.492-.875 3.069-3.529-.232-1.458-3.541-9.402-3.04-9.99 1.632-.039 5.099-2.093 6.45-1.09 1.652 1.226 2.792 8.473 4.364 10.382 1.112-.045 5.014-1.132 5.227-2.243.515-2.687-3.54-8.999-2.514-11.144.291-.609 5.58-2.243 5.876-2.055 1.498 1.649 3.283 10.357 4.796 11.043.918.416 1.845-.103 2.744-.125 6.829-.166 16.775 1.425 19.754 8.556 1.789 4.281.455 7.559-2.023 11.096-.41.585-1.203.866-1.06 1.697zm-29.702-8.609c-.358.418 1.157 5.03 1.409 5.857.645 2.113 1.611 5.682 2.521 7.549.781 1.601 2.458.902 3.904.547 5.272-1.294 15.448-6.438 10.705-13.24-4.531-6.498-12.669-2.245-18.54-.712zm19.347 18.752c-2.359.221-9.712 2.012-11.449 3.414-.25.202-.547.513-.63.823-.138.517 2.806 8.963 3.252 10.203.282.783 1.602 4.738 2.084 4.886 5.766-1.194 15.622-4.724 17.592-10.873 2.258-7.046-5.435-8.961-10.849-8.453z" fill="#6ad23e"/><path d="M112.642 50.424c43.215-2.72 80.316 31.086 84.197 73.663.238 2.61.833 8.951-1.185 10.801-1.826 1.674-5.641 1.046-6.602-1.334-1.212-3.003-1.087-9.436-1.601-13.025-6.01-41.918-45.231-68.349-86.556-59.315-2.31.505-7.25 2.608-9.281 1.469-.318-.179-1.564-1.437-1.823-1.774-1.654-2.15-.818-3.674 1.105-5.14 4.325-3.298 16.239-4.999 21.746-5.345zm-44.843 18.21c2.269-.371 5.243 2.558 4.807 4.801-.469 2.416-5.717 6.825-7.506 8.807-23.901 26.466-25.086 69.838-.123 96.041 2.397 2.516 10.016 7.896 9.59 11.48-.187 1.57-2.361 3.517-3.948 3.521-1.599.004-3.328-1.255-4.552-2.184-7.143-5.42-14.885-15.66-19.105-23.572-16.595-31.113-10.297-72.078 16.1-95.718 1.091-.977 3.348-2.95 4.737-3.177zm118.435 87.525c1.997-.276 3.353.692 3.633 2.715.697 5.033-4.376 12.666-7.215 16.719-17.695 25.257-48.908 38.666-79.554 32.899-2.614-.492-10.999-2.196-12.167-4.616-.946-1.96.234-5.346 2.518-5.764 2.936-.538 8.366 1.288 11.522 1.793 27.734 4.435 55.236-6.855 70.969-30.067 1.937-2.857 3.354-5.881 5.125-8.782 1.349-2.21 2.341-4.507 5.17-4.898z" fill="#fff"/></svg>