<?xml version="1.0" encoding="UTF-8"?><svg id="a" xmlns="http://www.w3.org/2000/svg" viewBox="0 0 234 260.4"><path d="M127.79511,260.4h-.47948c-8.15289-4.82073-16.55894-10.26816-23.94916-16.20994-2.71176-2.18027-7.12528-4.60299-3.75001-8.2567,3.17774-3.43988,13.9153-9.65864,18.36934-12.3194,2.1721-1.29757,4.60496-2.85656,6.88162-3.90732,2.16554-.99948,5.94922-2.92327,7.11836.1755.2155.57119.60414,2.23097.60414,2.75267v5.51492c0,.76994,2.23104.61563,2.7284.56966,5.49401-.50777,15.26035-3.95162,20.51884-6.09213,76.90808-31.30614,82.92372-146.0677,6.64264-182.14684-1.65898-.78466-11.92468-4.66619-12.28002-5.23119-.27628-.4393.06667-1.23378.20119-1.7311.83655-3.09284,3.07348-10.07292,4.51376-12.74827.40575-.7537.71269-1.43652,1.70425-1.30746.83718.10896,3.76533,1.31989,4.79898,1.69882,37.71412,13.82565,63.56295,45.68379,70.35457,85.25061,10.10322,58.8596-21.87582,118.78135-80.05939,136.06865-6.24368,1.8551-12.64047,2.93943-19.01512,4.24036-.32269.30017-.50264.67138-.57346,1.1049-.30738,1.88177.01099,4.62058-.25654,6.69701-.25469,1.97677-.70212,4.52283-2.70363,5.4484l-1.36928.42887Z" style="fill:#303030;"/><path d="M.0136,126.84309c.82127-26.16831,11.24729-53.48247,28.05569-73.48618C46.66627,31.2246,72.76367,17.67165,101.41098,13.77458c2.38192-3.19624-.29508-9.92928,3.01601-12.56912,2.68341-2.13941,5.33139.09884,7.76471,1.5723,4.72901,2.86359,20.04678,12.86894,22.92079,16.63902,2.73505,3.58779-1.22216,5.91906-3.88524,7.87394-4.86617,3.5721-19.23185,13.18326-24.47889,14.60065-4.95389,1.3382-4.26391-3.28599-4.60773-6.52168-.19061-1.79381.12868-3.99655-2.23543-3.94287-4.01427.09116-13.7053,3.31673-17.78514,4.77528C5.33261,63.65386-5.1933,170.30942,62.84581,214.22225c5.65461,3.64952,11.73277,6.31573,17.61289,9.49286.33368.66978-4.16985,12.32149-4.88604,13.82692-1.12135,2.35707-1.55591,1.98752-3.93899,1.22021-7.93359-2.55447-20.87482-12.12371-27.61768-17.45629C15.70449,198.91583.25801,165.62403.0136,129.48066c-.00591-.87372-.02739-1.76486,0-2.63757Z" style="fill:#303030;"/><path d="M135.46575,120.12831c3.13346.22784,5.86903.386,8.61207,2.05872,5.85714,3.57172,7.88079,12.18817,6.08011,18.51035-1.62589,5.70849-6.95723,9.09449-11.96828,11.52812-.98482.47828-3.7478,1.16517-4.06526,2.18387-.62219,1.99659,4.02024,10.14609,2.90447,12.00164-1.16288.63356-5.24402,1.94141-6.25554,1.21238-1.40573-1.01315-2.4191-8.82808-3.92416-10.22154-.94635-.87618-5.30057.31564-5.52363,1.4586-.43008,2.20379,3.81999,11.00495,3.08893,11.83986l-6.53774,1.92369-4.33914-11.93781c-1.77947.40571-13.48413,4.96792-14.28133,4.41721-.55078-.38048-1.55925-7.16268-1.21488-7.94548.68012-1.54599,5.6551-1.16321,6.20851-3.63019.43805-1.95272-.55289-4.80217-1.08412-6.72697-2.11848-7.6758-5.1663-16.96938-7.91034-24.45854-.53798-1.46827-1.26859-3.72576-2.45453-4.73845-2.99546-2.55787-7.48107,1.42854-9.18941.37958-.47309-.29049-2.31456-5.25785-2.31809-5.92049-.00176-.33071.03319-.42903.21328-.69972.75118-1.12918,8.46944-3.10708,10.31615-3.83351,2.1099-.82996,3.49157-.87483,3.06936-3.52888-.23195-1.45807-3.54092-9.40211-3.03965-9.99014,1.63215-.03856,5.09874-2.0928,6.44986-1.08977,1.65159,1.22608,2.79168,8.47309,4.36382,10.38197,1.11218-.04531,5.01411-1.13168,5.22698-2.24288.51475-2.6871-3.53991-8.99891-2.51406-11.1439.29102-.60851,5.57956-2.24275,5.87584-2.05543,1.49786,1.6491,3.2834,10.35743,4.79578,11.0435.91773.41631,1.84458-.10298,2.74416-.12487,6.8289-.16621,16.77482,1.42471,19.75432,8.55613,1.78858,4.28097.45489,7.5592-2.02348,11.09562-.40963.58451-1.20346.86586-1.05998,1.69737ZM105.7633,111.5196c-.35828.41806,1.15701,5.03035,1.40945,5.85692.64531,2.11295,1.61086,5.68195,2.5212,7.54909.78066,1.60115,2.45841.90157,3.90437.54654,5.27213-1.29446,15.44802-6.43826,10.70528-13.2403-4.5307-6.49792-12.66855-2.24491-18.54029-.71226ZM125.10987,130.27179c-2.35865.22127-9.7124,2.01222-11.44949,3.41374-.25046.20208-.54714.5132-.62967.82258-.138.51736,2.80602,8.96331,3.25236,10.20304.28202.78331,1.60205,4.73801,2.08368,4.88615,5.76588-1.19424,15.62163-4.7242,17.5921-10.8727,2.25819-7.04625-5.43544-8.96066-10.84898-8.4528Z" style="fill:#6ad23e;"/><path d="M112.64215,50.42415c43.21541-2.7203,80.31571,31.08567,84.19666,73.66296.23787,2.60964.83312,8.95056-1.18501,10.80081-1.82585,1.67398-5.64135,1.04617-6.60203-1.33406-1.21219-3.0034-1.08652-9.43568-1.60115-13.02511-6.01001-41.9181-45.23108-68.34852-86.55585-59.31466-2.31006.50499-7.24993,2.60844-9.28092,1.46883-.31837-.17864-1.56382-1.43661-1.82307-1.77352-1.65432-2.1499-.81769-3.6737,1.10512-5.14,4.32545-3.2985,16.23853-4.99856,21.74625-5.34525Z" style="fill:#313131;"/><path d="M67.79852,68.6335c2.2695-.3706,5.24279,2.55841,4.8073,4.80056-.46934,2.41647-5.71679,6.82544-7.50611,8.8068-23.90135,26.46646-25.08625,69.83763-.12285,96.04115,2.39687,2.51594,10.0161,7.89602,9.59015,11.47991-.18661,1.57011-2.36124,3.51715-3.94824,3.52146-1.59892.00434-3.32777-1.25517-4.55207-2.1842-7.14287-5.42019-14.88496-15.65963-19.10535-23.57221-16.59457-31.11221-10.2967-72.07684,16.10057-95.71649,1.09139-.97738,3.34756-2.95015,4.7366-3.17697Z" style="fill:#313131;"/><path d="M186.23384,156.15948c1.99652-.27617,3.35281.69234,3.63278,2.71526.69651,5.03266-4.37632,12.66641-7.21546,16.71892-17.69493,25.25727-48.90769,38.66597-79.55428,32.89918-2.6142-.49192-10.99862-2.19579-12.1667-4.61606-.94596-1.96003.23408-5.34568,2.51786-5.7639,2.93617-.53769,8.36553,1.28843,11.52159,1.7931,27.73352,4.4347,55.23569-6.85458,70.96926-30.06655,1.93681-2.8574,3.35367-5.8812,5.12459-8.78176,1.34935-2.21008,2.3406-4.50676,5.17036-4.89818Z" style="fill:#313131;"/></svg>