<svg xmlns="http://www.w3.org/2000/svg" viewBox="0 0 108 110" xmlns:v="https://vecta.io/nano"><defs><clipPath id="A"><path d="M0 79.8h107.6V110H0z" fill="none"/></clipPath></defs><g clip-path="url(#A)"><path d="M47.2 91.1c1.6-2.3 4.2-3.5 7.2-3.5h0c5.9 0 10 4.5 10 10.7s-4.2 10.8-10.1 10.8-5.6-1.2-7.2-3.4v2.9h-4.6V79.8h4.6v11.3zm6.9 14c3.6 0 6.1-2.7 6.1-6.7s-2.2-6.7-5.9-6.7-6.2 2.7-6.2 6.7 2.4 6.7 5.9 6.7zm-39.1-.7c-1.1.9-2.1 1.2-3.3 1.2-1.8 0-2.8-1.1-2.8-3V91.9h7.4v-4.1H8.9v-5.4H4.3v5.4H1l-1 4.1h4.3v10.8c0 4.7 2.5 7.3 7 7.3s3.9-.6 5.6-2h.1l-1.8-3.7H15zm13.5-17c-5.9 0-10.2 4.5-10.2 10.8S22.4 109 28.7 109s6.3-1.1 8.5-3.5h.1c0-.1-2.5-3.1-2.5-3.1h-.1c-1.7 1.8-3.4 2.6-5.7 2.6-3.5 0-5.7-1.9-6.1-5.5h15.2v-.2-.5-.6c0-6.5-3.8-10.7-9.6-10.7zm-5.5 9c.6-3 2.7-4.9 5.5-4.9s4.6 1.8 5 4.9H23zm54-9c-5.9 0-10.2 4.5-10.2 10.8S70.9 109 77.2 109s6.3-1.1 8.5-3.5h.1c0-.1-2.5-3.1-2.5-3.1h-.1c-1.7 1.8-3.4 2.6-5.7 2.6-3.5 0-5.7-1.9-6.1-5.5h15.2v-.2-.5-.6c0-6.5-3.8-10.7-9.6-10.7zm0 4.1c2.8 0 4.6 1.8 5 4.9H71.5c.6-3 2.7-4.9 5.5-4.9zm29.8-3.7l-7.2 9.9 8 10.9h-5.5l-5.2-7.4-5.1 7.4h-5.2L94.3 98l-7.4-10.1h5.5l4.5 6.8 4.5-6.8h5.2z" fill="#9f9f9f" fill-rule="evenodd"/></g><path d="M55.8 19.1c2.8-4.7 8-6.1 8-6.1S54 10.4 54-.1C54 10.3 44.2 13 44.2 13s5.2 1.4 8 6.1H38.8v18.1l3.1-5.6H48v31.2l12.2 12.5V37.1c-3.1-1.5-7.6-5.2-9.2-8 2.7.8 6.4 2 9.3 2.6h9.1V19.2H56z" fill="#9f9f9f"/></svg>