<svg xmlns="http://www.w3.org/2000/svg" viewBox="0 0 2988 2988" xmlns:v="https://vecta.io/nano"><ellipse cx="1494.8" cy="1494" rx="1443.3" ry="1442.6" enable-background="new"/><linearGradient id="A" gradientUnits="userSpaceOnUse" x1="2551.464" y1="437.301" x2="438.066" y2="2550.699"><stop offset="0" stop-color="#3ef8f3"/><stop offset="1" stop-color="#07aefe"/></linearGradient><path d="M2872.1 912.5c-75.3-177.9-183.1-337.7-320.3-474.9-26.2-26.2-53.2-51.3-81-75.3l-9.3-7.9c-115.6-98.2-244.6-177.6-384.9-236.9C1892.3 39.5 1696.5 0 1494.7 0 1293 0 1097.2 39.5 912.9 117.4c-178 75.3-337.9 182.9-475.1 320.1-137.3 137.2-245 297-320.3 474.9C39.5 1096.7 0 1292.3 0 1494s39.5 397.3 117.5 581.5c75.3 177.9 183.1 337.7 320.3 474.9 22.2 22.2 45.1 43.7 68.5 64.3l13.3 11.6c117.7 101.5 249.6 183.5 393.3 244.2 184.3 77.9 380.1 117.4 581.8 117.4 201.8 0 397.5-39.5 581.8-117.4 178-75.2 337.9-182.9 475.1-320.1 137.3-137.2 245-297 320.3-474.9 77.9-184.2 117.5-379.9 117.5-581.5.1-201.7-39.4-397.3-117.3-581.5zm-1377.4 1995c-337.4 0-647.6-118.7-890.9-316.5l1481.5-623.5-507.3-514.8-.2.2-1-1L561.3 2555C266.7 2295.7 80.5 1916.2 80.5 1494 80.5 714.6 714.9 80.5 1494.7 80.5c333.3 0 640 115.9 882 309.3L1069.2 937.9l507.6 513.9.2-.2 1 1 841.1-1027.5C2719 684.5 2909 1067.5 2909 1494c0 779.4-634.4 1413.5-1414.3 1413.5zm-732.2-462.8l816.4-886.8 378.4 384-1194.8 502.8zM2242.1 525.8l-669.4 817.7-375.2-379.8 1044.6-437.9z" fill="url(#A)"/></svg>