<svg xmlns="http://www.w3.org/2000/svg" viewBox="0 0 97.8 97.8" fill="#0bc2a6" xmlns:v="https://vecta.io/nano"><path d="M90.3 89.5l-3.6 3.6a11.23 11.23 0 0 1-15.9 0l-1.9-1.9-5.1-5.2-10.5-10.5c-3.4-3.4-8.9-3.4-12.3 0l-5.9 5.9a11.23 11.23 0 0 1-15.9 0l-5.5-5.5 5.1-5.1 5.5 5.5c1.6 1.5 4.1 1.5 5.6 0l5.9-5.9c6.2-6.2 16.4-6.2 22.6 0L68.9 81l5.1 5.1 2 1.9a3.98 3.98 0 0 0 5.7 0l3.6-3.6a18.17 18.17 0 0 0 0-25.7l-5.4-5.4c-1.4-1.4-1.4-3.7 0-5.1l7.4-7.4c1.3-1.3 1.5-3.3.6-4.9l5.2-5.2c3.7 4.5 3.5 11-.6 15.2l-4.8 4.8 2.8 2.8c9.9 10 9.9 26 0 36zm-80-42.4l-4.8 4.8C1.4 56 1.1 62.6 4.9 67l5.2-5.1c-.9-1.6-.7-3.6.6-4.9l7.4-7.4c1.4-1.4 1.4-3.7 0-5.1l-5.4-5.4a18.17 18.17 0 0 1 0-25.7l3.6-3.6c1.6-1.5 4.1-1.5 5.6 0l1.9 1.9 5.1 5.1 10.5 10.5c6.2 6.2 16.4 6.2 22.6 0l5.9-5.9c1.6-1.5 4.1-1.5 5.7 0l5.5 5.5 5.1-5.1-5.5-5.5a11.23 11.23 0 0 0-15.9 0l-5.9 5.9c-3.4 3.4-8.9 3.4-12.3 0L34.1 11.7l-5.2-5.1L27 4.7C22.5.3 15.4.3 11 4.7L7.4 8.3c-9.9 9.9-9.9 26.1 0 36l2.8 2.8zM37.9 9.4c1.1 0 2.1.4 2.8 1.2l7.4 7.4c1.4 1.4 3.7 1.4 5.1 0l5.4-5.4a18.17 18.17 0 0 1 25.7 0l3.6 3.6c1.6 1.6 1.6 4.1 0 5.6L86 23.7l-5.1 5.1-10.5 10.6c-6.2 6.2-6.2 16.4 0 22.6l5.9 5.9a3.98 3.98 0 0 1 0 5.7l-5.5 5.5 5.1 5.1 5.5-5.5a11.23 11.23 0 0 0 0-15.9l-5.9-5.9c-3.4-3.4-3.4-8.9 0-12.3L86 34.1l5.1-5.1 1.9-1.9a11.23 11.23 0 0 0 0-15.9l-3.6-3.6c-9.9-9.9-26-10-35.9 0l-2.8 2.8-4.8-4.8c-4.1-4.1-10.7-4.4-15.2-.7l5.2 5.2c.6-.4 1.3-.6 2.1-.6zM57 87.2l-7.4-7.4c-1.4-1.4-3.7-1.4-5.1 0l-5.4 5.4a18.17 18.17 0 0 1-25.7 0l-3.6-3.6c-1.6-1.6-1.6-4.1 0-5.6l1.9-1.9 5.1-5.1 10.5-10.5c6.2-6.2 6.2-16.4 0-22.6L21.4 30c-1.6-1.6-1.6-4.1 0-5.6l5.5-5.5-5.1-5.1-5.5 5.5a11.23 11.23 0 0 0 0 15.9l5.9 5.9c3.4 3.4 3.4 8.9 0 12.3L11.7 63.9 6.6 69l-1.9 1.9a11.23 11.23 0 0 0 0 15.9l3.6 3.6c9.9 9.9 26.1 9.9 36 0l2.8-2.8 4.8 4.8c4.1 4.1 10.7 4.4 15.2.7l-5.2-5.2c-1.6.9-3.6.6-4.9-.6z"/></svg>