<svg xmlns="http://www.w3.org/2000/svg" width="600" height="360" viewBox="0 0 158.75 95.25" xmlns:v="https://vecta.io/nano"><path d="M44.579 94.047c-2.043-.134-4.361-.432-6.287-.811-8.26-1.627-16.046-5.505-22.28-11.098-.603-.548-2.804-2.718-3.366-3.336-1.434-1.551-3.161-3.779-4.414-5.68-.492-.746-1.264-1.977-1.264-2.018 0-.012-.1-.187-.222-.385-.281-.467-.761-1.359-1.288-2.414C2.629 62.684 1.008 56.59.586 50.052c-.076-1.196-.076-4.053 0-5.249.603-9.389 3.776-18.003 9.366-25.427 1.399-1.86 2.506-3.12 4.355-4.957 1.674-1.668 2.552-2.449 4.133-3.686C27.842 3.381 39.937-.142 51.838 1.007A47.02 47.02 0 0 1 79.03 13.085c3.7 3.365 6.767 7.237 9.302 11.745a66.34 66.34 0 0 1 1.762 3.528 46.98 46.98 0 0 1 3.858 14.405c.187 1.814.24 2.893.24 4.724 0 4.712-.691 9.261-2.084 13.757-3.079 9.897-9.442 18.58-17.937 24.476-7.118 4.945-15.314 7.768-24.206 8.334-1.06.064-4.332.064-5.386-.006z" fill="#0f0"/><path d="M45.902 76.884c-.035-.099-.363-1.295-.743-2.659l-1.557-5.575c-.018-.012-2.33.601-5.146 1.365l-5.134 1.382c-.018-.017-.656-6.071-.656-6.246 0-.099.047-.134.193-.163.439-.082 3.267-.857 3.67-1.003.591-.222 1.06-.659 1.194-1.126.164-.554.123-.904-.252-2.274l-1.382-4.992-1.844-6.677-1.522-5.511-.972-3.528c-.146-.531-.334-1.079-.421-1.225-.258-.449-.644-.805-1.112-1.032-.392-.198-.492-.222-1.001-.239-.784-.035-1.364.093-4.297.945-.474.134-.702.175-.714.128-.041-.117-1.446-5.254-1.458-5.307 0-.023.509-.192 1.136-.362l5.093-1.405 3.992-1.12c.023-.017-.474-1.884-1.101-4.146l-1.112-4.17c.012-.035.164-.099.334-.14l2.506-.682 2.207-.589c.006.006.515 1.837 1.13 4.065l1.147 4.071c.012.012.802-.204 1.768-.484l2.008-.583c.205-.058.258-.099.246-.181-.012-.064-.509-1.866-1.101-4.018l-1.077-3.966c0-.052 5.023-1.458 5.064-1.417.012.012.533 1.878 1.159 4.146l1.165 4.152c.012.017.246-.012.521-.058 2.435-.432 5.263-.548 6.931-.297 3.934.607 6.311 2.566 7.511 6.188 1.147 3.452.568 6.327-1.768 8.742l-.427.443h.691c4.847 0 7.868 2.292 9.156 6.94.761 2.741.79 5.307.088 7.424-.24.735-.802 1.825-1.276 2.49-.849 1.196-2.453 2.589-4.092 3.569-1.622.968-4.414 2.204-6.34 2.817-.176.058-.34.117-.363.14-.023.017.416 1.691.972 3.709l1.159 4.205.146.531-2.494.682-2.552.676c-.035 0-.574-1.855-1.194-4.123l-1.147-4.141c-.006-.012-.837.204-1.85.472l-2.025.531c-.105.017-.193.07-.193.105 0 .064.094.397 1.516 5.552l.738 2.758a175.67 175.67 0 0 1-2.535.706l-2.523.688zm2.587-16.107c5.432-1.417 8.365-2.741 10.145-4.578.544-.572.773-.881 1.048-1.47a3.6 3.6 0 0 0 .404-1.849c0-1.231-.462-2.444-1.253-3.283-1.856-1.977-5.169-2.239-10.678-.834-1.323.338-4.074 1.149-4.074 1.207 0 .023.685 2.525 1.522 5.558l1.522 5.546c0 .058.129.029 1.364-.297zm-4.695-16.265c3.846-1.003 5.942-1.872 7.581-3.149.568-.443.942-.846 1.317-1.417.351-.531.509-.939.626-1.615.111-.659.041-1.365-.228-2.152-.597-1.779-1.815-2.758-3.864-3.103-.48-.076-.82-.093-1.744-.064-1.329.035-2.342.187-3.987.601-1.001.245-3.565.991-3.618 1.044-.023.023.738 2.823 2.523 9.261.14.507.269.857.31.857a18.91 18.91 0 0 0 1.083-.262z" fill="#fff" fill-opacity=".998"/><path d="M111.393 94.106c-25.864 0-46.831-20.888-46.831-46.655S85.529.796 111.393.796s46.831 20.888 46.831 46.655-20.967 46.655-46.831 46.655z" fill="#f0f" fill-rule="evenodd"/><path d="M101.085 75.167v-6.11l6.461-1.181v-3.218l-.123-.041q-6.624-.122-11.735-2.444-5.07-2.363-7.973-6.559-2.903-4.237-2.903-9.777 0-5.622 2.903-9.899 2.903-4.318 8.014-6.803 5.111-2.485 11.694-2.566l.123-.041v-3.34l-6.461-1.181v-6.151h23.267v6.151l-6.502 1.181v3.34l.123.041q6.583.081 11.654 2.566 5.111 2.444 8.014 6.721 2.903 4.277 2.903 9.899 0 5.54-2.903 9.777-2.903 4.237-8.014 6.599-5.07 2.363-11.654 2.485l-.123.041v3.218l6.502 1.181v6.11zm6.215-18.535l.245-.081V34.594l-.245-.041q-3.844.041-6.624 1.426-2.74 1.344-4.253 3.87-1.472 2.526-1.472 5.988 0 3.381 1.472 5.785 1.513 2.403 4.253 3.707 2.74 1.263 6.624 1.304zm10.795 0q3.844-.041 6.583-1.304 2.74-1.304 4.212-3.707 1.513-2.444 1.513-5.866 0-3.463-1.513-5.947-1.472-2.485-4.212-3.829-2.74-1.385-6.583-1.426l-.245.041v21.957z" fill="#fff"/><g transform="matrix(.60169 0 0 .60169 56.278 77.11)"><circle cx="151.13" cy="10.458" r="15.01" fill="#ffb200" stroke="#000" stroke-dasharray="0, 1.4555" stroke-linejoin="bevel" stroke-opacity=".253" stroke-width=".132"/><path d="M142.804 18.847v-2.695l1.556-.246 4.497-5.422-4.343-5.329-1.556-.262V2.182l4.467.015 4.189 5.853 2.326-3.08-1.556-.185V2.182h7.532v2.711l-1.509.262-4.282 5.252 4.513 5.498 1.571.246v2.695h-4.39l-4.497-6.022-2.434 3.265 1.34.169v2.588z" fill="#fff"/></g></svg>