<svg xmlns="http://www.w3.org/2000/svg" width="300" height="300" viewBox="0 0 79.375 79.375" xmlns:v="https://vecta.io/nano"><defs><radialGradient id="A" cx="67.289" cy="117.132" fx="67.289" fy="117.132" r="29.077" gradientTransform="matrix(0.91264508,0,0,0.91264508,-14.02162,-0.98545153)" gradientUnits="userSpaceOnUse"><stop offset="0" stop-color="#fff" stop-opacity=".997"/><stop offset="1" stop-color="#db8e00" stop-opacity="0"/></radialGradient></defs><g transform="translate(.058 -72.521)"><circle cx="39.586" cy="112.856" r="35.849" fill="#fff"/><path d="M39.836 76.664a36.326 36.327 0 0 0-36.327 36.327 36.326 36.327 0 1 0 72.654 0 36.326 36.327 0 0 0-36.326-36.327zM20.05 92.973l10.81.038L41 107.176l5.629-7.455-3.765-.447v-6.3h18.228v6.561l-3.653.634-10.363 12.711 10.922 13.308 3.802.597v6.524H51.177l-10.885-14.575-5.89 7.903 3.243.41v6.263H19.677v-6.524l3.765-.597 10.885-13.122-10.512-12.897-3.765-.634z" fill="#ffb200" stroke="#000" stroke-dasharray="0, 3.52438" stroke-linejoin="bevel" stroke-miterlimit="4.1" stroke-opacity=".253" stroke-width=".32"/><circle style="mix-blend-mode:lighten" cx="47.389" cy="105.914" r="26.537" opacity=".9" fill="url(#A)"/></g></svg>