<svg xmlns="http://www.w3.org/2000/svg" viewBox="0 0 664 720.6" xmlns:v="https://vecta.io/nano"><style>.B{isolation:isolate}.E{mix-blend-mode:screen}</style><defs><linearGradient id="A" x1="196.7" x2="230.7" y1="676" y2="863.9" gradientTransform="translate(-5.5 1234.7) rotate(30) scale(1 -.9) skewX(-26.6)" href="#M"><stop stop-color="#13b3d3" offset="0"/><stop stop-color="#13edb1" offset="1"/></linearGradient><linearGradient id="B" x1="-157.1" x2="127.8" y1="196.2" y2="670" gradientTransform="translate(728.6 631.9) rotate(-30) scale(1 -.9) skewX(-26.6)" href="#M"><stop stop-color="#13b3d3" offset="0"/><stop offset="1"/></linearGradient><linearGradient id="C" x1="-166.8" x2="53.5" y1="291.9" y2="658.6" gradientTransform="translate(801.2 630.9) rotate(-30) scale(1 -.9) skewX(-26.6)" href="#M"><stop stop-color="#13eeb0" offset="0"/><stop stop-color="#13b3d3" offset="1"/></linearGradient><linearGradient id="D" x1="509.5" x2="465.2" y1="391.6" y2="72.8" href="#M"><stop stop-color="#13eeb0" stop-opacity="0" offset="0"/><stop stop-color="#13b3d3" stop-opacity=".3" offset=".5"/><stop stop-color="#13b3d3" stop-opacity="0" offset=".8"/></linearGradient><linearGradient id="E" x1="218.4" x2="208.9" y1="491.7" y2="634.8" gradientTransform="translate(316.5 1241.7) rotate(-30) scale(1 -.9) skewX(26.6)" href="#M"><stop stop-color="#13b3d3" offset="0"/><stop stop-color="#12ebb2" offset="1"/></linearGradient><mask id="F" x="42.2" y="241.8" width="595" height="355.6" maskUnits="userSpaceOnUse"><path d="M49.6 416.8l285.3-168.2c1.9-1.1 5-1.1 6.9 0l287.9 169.7c1.9 1.1 1.9 2.9 0 4.1L344.4 590.6c-1.9 1.1-5 1.1-6.9 0L49.6 420.9c-1.9-1.1-1.9-2.9 0-4.1z" fill="#fff"/></mask><linearGradient id="G" x1="-221.2" x2="182.5" y1="398.2" y2="494.2" gradientTransform="translate(735.5 374.3) rotate(-29.3) scale(1 -.9) skewX(-27.6)" href="#M"><stop stop-color="#0993c7" offset="0"/><stop offset="1"/></linearGradient><linearGradient id="H" x1="-221.9" x2="178.2" y1="395.2" y2="486.1" gradientTransform="translate(726.5 328.9) rotate(-29.3) scale(1 -.9) skewX(-27.6)" href="#M"><stop stop-color="#0eb9da" offset="0"/><stop stop-color="#33ffa3" offset="1"/></linearGradient><linearGradient id="I" x1="270" x2="87.7" y1="504.4" y2="-113.4" href="#M"><stop stop-color="#13eeb0" stop-opacity=".3" offset="0"/><stop stop-color="#13b3d3" stop-opacity=".3" offset=".5"/><stop stop-color="#13b3d3" stop-opacity="0" offset=".8"/></linearGradient><path id="J" d="m125 544.6 63 36.4v17l-63-36.4v-17z"/><path id="K" d="M468 566l63-36.4v17L468 583v-17z"/><path id="L" d="M468 591l63-36.4v17L468 608v-17z"/><linearGradient id="M" gradientUnits="userSpaceOnUse"/></defs><g class="B"><path d="M18.5 422.6l322.2 186v112l-322.2-186z" fill="url(#A)"/><g fill="#fff"><use href="#J"/><use href="#J"/><use href="#J" y="-23"/><use href="#J" y="-23"/></g><path d="M18.5 422.6l322.2-186 322.4 186.2-322.2 186z" fill="url(#B)"/><path class="E" d="M91.1 421.6l249.4-144 249.4 144-249.4 144z" fill="url(#C)"/><path class="E" d="M340.5,210.1l318.5-134-69.1,346.5-249.4,144V210.1Z" fill="url(#D)"/><path d="M340.5 608.6l322.2-186v112l-322.2 186z" fill="url(#E)"/><g class="E" mask="url(#F)"><path d="M49.6 416.8l285.3-168.2c1.9-1.1 5-1.1 6.9 0l287.9 169.7c1.9 1.1 1.9 2.9 0 4.1L344.4 590.6c-1.9 1.1-5 1.1-6.9 0L49.6 420.9c-1.9-1.1-1.9-2.9 0-4.1z" fill="none" stroke="#fff" stroke-width="12"/></g><path d="m180.3 82c89.1-49.9 228.1-53 310.4-6.8 82.4 46.2 76.9 124.1-12.1 174-89.1 49.9-228.1 53-310.4 6.8-82.4-46.2-76.9-124.1 12.1-174z" fill="url(#G)"/><path d="M169.1 37.8c87.9-49.3 228.1-50.5 313.1-2.9 85 47.7 82.8 126.2-5.1 175.5S249 260.9 164 213.3c-85-47.7-82.8-126.2 5.1-175.5z" fill="url(#H)"/><path d="M459.8 42.8c76.1 42.6 76.4 111.6.7 154s-198.7 42.2-274.8-.4-76.4-111.6-.7-154 198.7-42.2 274.8.4z" fill="#29f3f7"/><path class="E" d="M.5 37.6l340.4 184.5V566L91.5 422 .5 37.6z" fill="url(#I)"/><g fill="#fff"><use href="#K"/><use href="#K"/><use href="#L"/><use href="#L"/><path class="E" d="M361.6 97.4l22.5-13 8.7 5-22.5 13-8.7-5zm-17.3-10l22.5-13 8.7 5-22.5 13-8.7-5zm-78.8 65.5l22.5-13 8.7 5-22.5 13-8.7-5zm-17.3-10l22.5-13 8.7 5-22.5 13-8.7-5zm-.6-15l92.8-53.6 22.3 12.9c7.4 4.3 12.9 8.3 16.2 12.1 3.6 3.8 4.8 7.3 3.9 10.8-.8 3.4-4.1 6.8-9.9 10.2-3.5 2-7.1 3.6-10.8 4.7-3.7 1.2-7.3 1.8-10.8 1.9s-6.6-.4-9.5-1.4l-.7.4c1.9 1.8 3.1 3.7 3.5 5.8s-.2 4.3-1.9 6.7-5 5-9.9 7.8c-5.6 3.2-11.7 5.3-18.2 6.3-6.4.9-13 .7-19.7-.8-6.6-1.4-13-3.9-19.2-7.5l-28.2-16.3zm80.5-18.2c4.3 2.5 8.2 3.7 11.7 3.6 3.5 0 6.9-1.1 10.4-3.1 3.6-2.1 5.1-4.1 4.7-6.2-.4-2-2.8-4.3-7.1-6.8l-3.9-2.2-20.7 11.9 4.9 2.9zm-20.5 6.2l-24.2 13.9 6.4 3.7c4.5 2.6 8.7 3.8 12.7 3.4 4.2-.3 8.1-1.6 12-3.8 2.3-1.3 4-2.8 4.9-4.2 1-1.4 1-3 0-4.6-.9-1.6-2.9-3.3-6.1-5.2l-5.7-3.3z"/><path d="M297.4 10.8c-44.3 3.8-85.2 16.1-115.6 34.9l55.4 28.5c18.5-11.4 43.4-19 70.4-21.3l-10.2-42.2zm69 1.2a341.51 341.51 0 0 0-38-2.4l-1.9 42.7c7.8 0 15.5.5 23.1 1.5l16.8-41.7zm87.4 25.2c-16-8.1-34.3-14.7-54.3-19.3l-29.8 39.5c12.1 2.8 23.3 6.8 33 11.8l51-31.9zm62.6 76c-1.3-20.7-13-40.7-33.8-57.6l-62.3 24.7c12.6 10.3 19.8 22.5 20.6 35.1l75.5-2.1zm-12.3 42.6c6.4-9.7 10.4-19.8 11.8-30l-75.3-2.8c-.9 6.2-3.3 12.4-7.2 18.3l70.7 14.5zM488.5 174c3.4-3.2 6.6-6.6 9.4-10l-68.3-17.7c-1.7 2.1-3.7 4.1-5.7 6.1l64.6 21.6zm-59.7 35.2c19.5-7.3 36.5-16.6 50.3-27.3l-60.9-24.7c-8.4 6.5-18.8 12.2-30.6 16.6l41.2 35.4zM169.7 53.9C155.6 64.5 145 76.4 138.3 89l72.4 11.6c4-7.7 10.5-15 19.1-21.4l-60.1-25.3zM135 96.4c-3.4 8.6-5 17.3-4.6 26.1l75.5-1.5c-.2-5.3.8-10.7 2.8-15.9L135 96.4zm-2.4 40.5c4.5 16.3 15.4 31.7 32.1 45.2l62.1-24.8c-10.1-8.2-16.8-17.6-19.5-27.5l-74.6 7.1zm36.8 48.8c6.1 4.5 12.8 8.7 20.1 12.6l52.4-31.2c-4.4-2.4-8.5-5-12.2-7.7l-60.3 26.2zm34.1 19.5c15.6 6.8 32.9 12.3 51.5 16.1l26.8-40.1c-11.3-2.3-21.9-5.6-31.3-9.8l-46.9 33.8zm133.9 22.2c27.2-1.3 53.6-5.9 77.6-13.4l-35.8-37.3c-14.6 4.6-30.7 7.3-47.3 8.2l5.4 42.5zm-61.5-2.6c15.6 2.1 31.7 3.1 47.8 3v-42.7c-9.9 0-19.7-.5-29.2-1.8l-18.6 41.5z" fill-opacity=".6"/></g></g></svg>