<?xml version="1.0" encoding="UTF-8"?>
<svg version="1.1" viewBox="0 0 664 720.6" xmlns="http://www.w3.org/2000/svg">
<defs>
<style>.cls-1 {
        mask: url(#a);
      }

      .cls-2 {
        fill: url(#b);
      }

      .cls-3 {
        fill: url(#c);
      }

      .cls-4 {
        fill: url(#e);
      }

      .cls-5 {
        fill: url(#d);
      }

      .cls-6 {
        fill: url(#f);
      }

      .cls-7 {
        fill: url(#g);
      }

      .cls-8 {
        fill: url(#h);
      }

      .cls-9 {
        fill: #29f3f7;
      }

      .cls-10 {
        fill: url(#i);
      }

      .cls-11 {
        isolation: isolate;
      }

      .cls-12 {
        fill: none;
        stroke: #fff;
        stroke-width: 12px;
      }

      .cls-13, .cls-14 {
        fill: #fff;
      }

      .cls-15 {
        mix-blend-mode: screen;
      }

      .cls-14 {
        fill-opacity: .6;
      }</style>
<linearGradient id="i" x1="196.7" x2="230.7" y1="676" y2="863.9" gradientTransform="translate(-5.5 1234.7) rotate(30) scale(1 -.9) skewX(-26.6)" gradientUnits="userSpaceOnUse">
<stop stop-color="#13b3d3" offset="0"/>
<stop stop-color="#13edb1" offset="1"/>
</linearGradient>
<linearGradient id="h" x1="-157.1" x2="127.8" y1="196.2" y2="670" gradientTransform="translate(728.6 631.9) rotate(-30) scale(1 -.9) skewX(-26.6)" gradientUnits="userSpaceOnUse">
<stop stop-color="#13b3d3" offset="0"/>
<stop offset="1"/>
</linearGradient>
<linearGradient id="g" x1="-166.8" x2="53.5" y1="291.9" y2="658.6" gradientTransform="translate(801.2 630.9) rotate(-30) scale(1 -.9) skewX(-26.6)" gradientUnits="userSpaceOnUse">
<stop stop-color="#13eeb0" offset="0"/>
<stop stop-color="#13b3d3" offset="1"/>
</linearGradient>
<linearGradient id="f" x1="509.5" x2="465.2" y1="279.6" y2="598.4" gradientTransform="translate(0 671.2) scale(1 -1)" gradientUnits="userSpaceOnUse">
<stop stop-color="#13eeb0" stop-opacity="0" offset="0"/>
<stop stop-color="#13b3d3" stop-opacity=".3" offset=".5"/>
<stop stop-color="#13b3d3" stop-opacity="0" offset=".8"/>
</linearGradient>
<linearGradient id="e" x1="218.4" x2="208.9" y1="491.7" y2="634.8" gradientTransform="translate(316.5 1241.7) rotate(-30) scale(1 -.9) skewX(26.6)" gradientUnits="userSpaceOnUse">
<stop stop-color="#13b3d3" offset="0"/>
<stop stop-color="#12ebb2" offset="1"/>
</linearGradient>
<mask id="a" x="42.2" y="241.8" width="595" height="355.6" maskUnits="userSpaceOnUse">
<path class="cls-13" d="M49.6,416.8l285.3-168.2c1.9-1.1,5-1.1,6.9,0l287.9,169.7c1.9,1.1,1.9,2.9,0,4.1l-285.3,168.2c-1.9,1.1-5,1.1-6.9,0L49.6,420.9c-1.9-1.1-1.9-2.9,0-4.1Z"/>
</mask>
<linearGradient id="d" x1="-221.2" x2="182.5" y1="398.2" y2="494.2" gradientTransform="translate(735.5 374.3) rotate(-29.3) scale(1 -.9) skewX(-27.6)" gradientUnits="userSpaceOnUse">
<stop stop-color="#0993c7" offset="0"/>
<stop offset="1"/>
</linearGradient>
<linearGradient id="c" x1="-221.9" x2="178.2" y1="395.2" y2="486.1" gradientTransform="translate(726.5 328.9) rotate(-29.3) scale(1 -.9) skewX(-27.6)" gradientUnits="userSpaceOnUse">
<stop stop-color="#0eb9da" offset="0"/>
<stop stop-color="#33ffa3" offset="1"/>
</linearGradient>
<linearGradient id="b" x1="270" x2="87.7" y1="166.8" y2="784.6" gradientTransform="translate(0 671.2) scale(1 -1)" gradientUnits="userSpaceOnUse">
<stop stop-color="#13eeb0" stop-opacity=".3" offset="0"/>
<stop stop-color="#13b3d3" stop-opacity=".3" offset=".5"/>
<stop stop-color="#13b3d3" stop-opacity="0" offset=".8"/>
</linearGradient>
</defs>
<g class="cls-11">
<polygon class="cls-10" points="18.5 422.6 340.7 608.6 340.7 720.6 18.5 534.6"/>
<path class="cls-13" d="m125 544.6 63 36.4v17l-63-36.4v-17z"/>
<path class="cls-13" d="m125 544.6 63 36.4v17l-63-36.4v-17z"/>
<path class="cls-13" d="m125 521.6 63 36.4v17l-63-36.4v-17z"/>
<path class="cls-13" d="m125 521.6 63 36.4v17l-63-36.4v-17z"/>
<polygon class="cls-8" points="18.5 422.6 340.7 236.6 663.1 422.8 340.9 608.8"/>
<g class="cls-15">
<polygon class="cls-7" points="91.1 421.6 340.5 277.6 589.9 421.6 340.5 565.6"/>
</g>
<g class="cls-15">
<path class="cls-6" d="M340.5,210.1l318.5-134-69.1,346.5-249.4,144V210.1Z"/>
</g>
<polygon class="cls-4" points="340.5 608.6 662.7 422.6 662.7 534.6 340.5 720.6"/>
<g class="cls-15">
<g class="cls-1">
<path class="cls-12" d="M49.6,416.8l285.3-168.2c1.9-1.1,5-1.1,6.9,0l287.9,169.7c1.9,1.1,1.9,2.9,0,4.1l-285.3,168.2c-1.9,1.1-5,1.1-6.9,0L49.6,420.9c-1.9-1.1-1.9-2.9,0-4.1Z"/>
</g>
</g>
<path class="cls-5" d="m180.3 82c89.1-49.9 228.1-53 310.4-6.8 82.4 46.2 76.9 124.1-12.1 174-89.1 49.9-228.1 53-310.4 6.8-82.4-46.2-76.9-124.1 12.1-174z"/>
<path class="cls-3" d="m169.1 37.8c87.9-49.3 228.1-50.5 313.1-2.9 85 47.7 82.8 126.2-5.1 175.5s-228.1 50.5-313.1 2.9c-85-47.7-82.8-126.2 5.1-175.5z"/>
<path class="cls-9" d="m459.8 42.8c76.1 42.6 76.4 111.6 0.7 154s-198.7 42.2-274.8-0.4-76.4-111.6-0.7-154 198.7-42.2 274.8 0.4z"/>
<g class="cls-15">
<path class="cls-2" d="M.5,37.6l340.4,184.5v343.9l-249.4-144L.5,37.6Z"/>
</g>
<path class="cls-13" d="m468 566 63-36.4v17l-63 36.4v-17z"/>
<path class="cls-13" d="m468 566 63-36.4v17l-63 36.4v-17z"/>
<path class="cls-13" d="m468 591 63-36.4v17l-63 36.4v-17z"/>
<path class="cls-13" d="m468 591 63-36.4v17l-63 36.4v-17z"/>
<g class="cls-15">
<path class="cls-13" d="m361.6 97.4 22.5-13 8.7 5-22.5 13-8.7-5zm-17.3-10 22.5-13 8.7 5-22.5 13-8.7-5zm-78.8 65.5 22.5-13 8.7 5-22.5 13-8.7-5zm-17.3-10 22.5-13 8.7 5-22.5 13-8.7-5zm-0.6-15 92.8-53.6 22.3 12.9c7.4 4.3 12.9 8.3 16.2 12.1 3.6 3.8 4.8 7.3 3.9 10.8-0.8 3.4-4.1 6.8-9.9 10.2-3.5 2-7.1 3.6-10.8 4.7-3.7 1.2-7.3 1.8-10.8 1.9s-6.6-0.4-9.5-1.4l-0.7 0.4c1.9 1.8 3.1 3.7 3.5 5.8s-0.2 4.3-1.9 6.7-5 5-9.9 7.8c-5.6 3.2-11.7 5.3-18.2 6.3-6.4 0.9-13 0.7-19.7-0.8-6.6-1.4-13-3.9-19.2-7.5l-28.2-16.3zm80.5-18.2c4.3 2.5 8.2 3.7 11.7 3.6 3.5 0 6.9-1.1 10.4-3.1 3.6-2.1 5.1-4.1 4.7-6.2-0.4-2-2.8-4.3-7.1-6.8l-3.9-2.2-20.7 11.9 4.9 2.9zm-20.5 6.2-24.2 13.9 6.4 3.7c4.5 2.6 8.7 3.8 12.7 3.4 4.2-0.3 8.1-1.6 12-3.8 2.3-1.3 4-2.8 4.9-4.2 1-1.4 1-3 0-4.6-0.9-1.6-2.9-3.3-6.1-5.2l-5.7-3.3z"/>
</g>
<path class="cls-14" d="m297.4 10.8c-44.3 3.8-85.2 16.1-115.6 34.9l55.4 28.5c18.5-11.4 43.4-19 70.4-21.3l-10.2-42.2z"/>
<path class="cls-14" d="M366.4,12c-12.5-1.5-25.2-2.3-38-2.4l-1.9,42.7c7.8,0,15.5.5,23.1,1.5l16.8-41.7Z"/>
<path class="cls-14" d="m453.8 37.2c-16-8.1-34.3-14.7-54.3-19.3l-29.8 39.5c12.1 2.8 23.3 6.8 33 11.8l51-31.9z"/>
<path class="cls-14" d="m516.4 113.2c-1.3-20.7-13-40.7-33.8-57.6l-62.3 24.7c12.6 10.3 19.8 22.5 20.6 35.1l75.5-2.1z"/>
<path class="cls-14" d="M504.1,155.8c6.4-9.7,10.4-19.8,11.8-30l-75.3-2.8c-.9,6.2-3.3,12.4-7.2,18.3l70.7,14.5Z"/>
<path class="cls-14" d="m488.5 174c3.4-3.2 6.6-6.6 9.4-10l-68.3-17.7c-1.7 2.1-3.7 4.1-5.7 6.1l64.6 21.6z"/>
<path class="cls-14" d="m428.8 209.2c19.5-7.3 36.5-16.6 50.3-27.3l-60.9-24.7c-8.4 6.5-18.8 12.2-30.6 16.6l41.2 35.4z"/>
<path class="cls-14" d="m169.7 53.9c-14.1 10.6-24.7 22.5-31.4 35.1l72.4 11.6c4-7.7 10.5-15 19.1-21.4l-60.1-25.3z"/>
<path class="cls-14" d="M135,96.4c-3.4,8.6-5,17.3-4.6,26.1l75.5-1.5c-.2-5.3.8-10.7,2.8-15.9l-73.7-8.7Z"/>
<path class="cls-14" d="m132.6 136.9c4.5 16.3 15.4 31.7 32.1 45.2l62.1-24.8c-10.1-8.2-16.8-17.6-19.5-27.5l-74.6 7.1z"/>
<path class="cls-14" d="m169.4 185.7c6.1 4.5 12.8 8.7 20.1 12.6l52.4-31.2c-4.4-2.4-8.5-5-12.2-7.7l-60.3 26.2z"/>
<path class="cls-14" d="m203.5 205.2c15.6 6.8 32.9 12.3 51.5 16.1l26.8-40.1c-11.3-2.3-21.9-5.6-31.3-9.8l-46.9 33.8z"/>
<path class="cls-14" d="m337.4 227.4c27.2-1.3 53.6-5.9 77.6-13.4l-35.8-37.3c-14.6 4.6-30.7 7.3-47.3 8.2l5.4 42.5z"/>
<path class="cls-14" d="M275.9,224.8c15.6,2.1,31.7,3.1,47.8,3v-42.7c-9.9,0-19.7-.5-29.2-1.8l-18.6,41.5Z"/>
</g>
</svg>
