<?xml version="1.0" encoding="UTF-8"?><svg id="a" xmlns="http://www.w3.org/2000/svg" viewBox="0 0 1661.4 1661.5"><path d="M877,1.3v2c-175.1,17.9-354.8,79-490.9,192.1-127.7,106.1-224,215.9-281.1,374.9-140.7,392.1,51.9,808.7,428,971,178,76.8,375.1,80,556,14,314.1-114.5,486.1-390.9,555.4-707.6l16.6-42.4c9.1,274.3-121,537.3-341.3,697.6-354,257.7-849.8,194.7-1128.6-140.7C-103,1008.5-51.6,477.3,304,187.3,464.4,56.6,669.1-10.2,877,1.3h0Z" style="fill:#393f44;"/><path d="M1621,441.3c.6,2.7-2.1,2.2-4,2.9-57,20.1-83.4,36.8-119.6,86.4-84.1,115.4-91.3,280-202.3,373.7-78.6,66.3-189.5,65.6-283.2,35.1-3.7-5.2,4.6-19.2,7.5-24.8,38.9-74.3,106.4-161,166.6-219.4,28.2-27.4,60.3-51.1,89.1-77.9-145.5,29.1-268.6,127.1-350,248l-5-1.9c-5.7-34.9-4.9-69.9-2.9-105,12.5-141.7,97.3-244.6,226.6-297.4,148.9-60.8,322.6-51,477.3-19.6h0Z" style="fill:#71bf55;"/><path d="M718.9,963.3c-46.2-57.5-94.9-107.2-160.6-142.3-27.4-14.7-60.7-29.8-91.3-33.6,61.6,55.3,112.7,122,152.3,194.6,5.4,9.8,24.5,43.5,23.8,52.4-.3,3.9-.3,2.3-2.9,3.3-6.2,2.3-23.1,4.6-30.5,5.5-106.4,12.7-179.6-31.9-220.3-129.2-32.4-77.5-52-205.8-131.1-250.9-10.7-6.1-21.9-8.6-32.5-13.5-2-.9-4.7-1.3-4.9-4.1,18.2-2.5,36.7-6.1,55-8,121.7-12.4,262.7,5.5,357.9,88,69.1,59.9,98.1,147.8,85,237.9h0Z" style="fill:#71bf55;"/><path d="M781,1457.3c-2.8-2.4-3.3-5.8-3.8-9.2-17.4-114.3-20-227.1-61.3-336.7-40.8-108.2-100.7-182.2-172.9-269.1-1.9-2.2-4.8-3.2-4-7,4.6-4.6,59.1,42.4,65,47.9,77.5,72.5,136.6,171.1,173.9,270.1,8.1,21.5,14.2,51.8,23,71,.9,2,1.2,4.7,4.1,4.9,38.9-141.4,102.2-277.7,194.1-392.5,33.1-41.4,94.6-109.9,138.1-138.4,4.9-3.2,8.1-6.5,14.8-5.2,1.7,1.8-3.7,5.9-4.9,7.1-187.9,174.5-291.3,459.5-284,713.8.4,15-.5,30.1,0,45.1-23.5-3.4-58.1-3.5-82-2h0Z" style="fill:#393f44;"/><path d="M863,1459.3c27.5,4,63.6,12.5,90.4,20.6,49.8,15,98.2,39.1,135.6,75.4-180.9,66-378,62.8-556-14,17.6-10.7,33.7-23.4,52-33,57.8-30.4,131.7-46.9,196-51,23.9-1.5,58.5-1.4,82,2Z" style="fill:#70bf54;"/><path d="M877,1.3l12,1c0,2-9.5.7-12,1V1.3Z" style="fill:#999c9e;"/></svg>