<?xml version="1.0" encoding="UTF-8"?><svg id="a" xmlns="http://www.w3.org/2000/svg" viewBox="0 0 2222 2222"><path d="M1156,172v2c-175.1,17.9-354.8,79-490.9,192.1-127.7,106.1-224,215.9-281.1,374.9-140.7,392.1,51.9,808.7,428,971,178,76.8,375.1,80,556,14,314.1-114.5,486.1-390.9,555.4-707.6l16.6-42.4c9.1,274.3-121,537.3-341.3,697.6-354,257.7-849.8,194.7-1128.6-140.7-294.1-353.8-242.6-884.9,113-1174.9,160.4-130.8,365.1-197.6,573-186h0Z" style="fill:#393f44;"/><path d="M1900,612c.6,2.7-2.1,2.2-4,2.9-57,20.1-83.4,36.8-119.6,86.4-84.1,115.4-91.3,280-202.3,373.7-78.6,66.3-189.5,65.6-283.2,35.1-3.7-5.2,4.6-19.2,7.5-24.8,38.9-74.3,106.4-161,166.6-219.4,28.2-27.4,60.3-51.1,89.1-77.9-145.5,29.1-268.6,127.1-350,248l-5-1.9c-5.7-34.9-4.9-69.9-2.9-105,12.5-141.7,97.3-244.6,226.6-297.4,148.9-60.8,322.6-51,477.3-19.6h0Z" style="fill:#71bf55;"/><path d="M998,1134c-46.2-57.5-94.9-107.2-160.6-142.3-27.4-14.7-60.7-29.8-91.3-33.6,61.6,55.3,112.7,122,152.3,194.6,5.4,9.8,24.5,43.5,23.8,52.4-.3,3.9-.3,2.3-2.9,3.3-6.2,2.3-23.1,4.6-30.5,5.5-106.4,12.7-179.6-31.9-220.3-129.2-32.4-77.5-52-205.8-131.1-250.9-10.7-6.1-21.9-8.6-32.5-13.5-2-.9-4.7-1.3-4.9-4.1,18.2-2.5,36.7-6.1,55-8,121.7-12.4,262.7,5.5,357.9,88,69.1,59.9,98.1,147.8,85,237.9h0Z" style="fill:#71bf55;"/><path d="M1060,1628c-2.8-2.4-3.3-5.8-3.8-9.2-17.4-114.3-20-227.1-61.3-336.7-40.8-108.2-100.7-182.2-172.9-269.1-1.9-2.2-4.8-3.2-4-7,4.6-4.6,59.1,42.4,65,47.9,77.5,72.5,136.6,171.1,173.9,270.1,8.1,21.5,14.2,51.8,23,71,.9,2,1.2,4.7,4.1,4.9,38.9-141.4,102.2-277.7,194.1-392.5,33.1-41.4,94.6-109.9,138.1-138.4,4.9-3.2,8.1-6.5,14.8-5.2,1.7,1.8-3.7,5.9-4.9,7.1-187.9,174.5-291.3,459.5-284,713.8.4,15-.5,30.1,0,45.1-23.5-3.4-58.1-3.5-82-2h0Z" style="fill:#393f44;"/><path d="M1142,1630c27.5,4,63.6,12.5,90.4,20.6,49.8,15,98.2,39.1,135.6,75.4-180.9,66-378,62.8-556-14,17.6-10.7,33.7-23.4,52-33,57.8-30.4,131.7-46.9,196-51,23.9-1.5,58.5-1.4,82,2Z" style="fill:#70bf54;"/><path d="M390,2016c-2.8,3.1,10.2,8.9,13.1,11.9,5.5,5.7,10.1,15.1,10.9,23.1,10.7,98.3-123.9,94.5-187.9,80.8l50.1-215.6c39-2.8,126.4-19,145.8,26.8,12,28.3-2.9,63.1-32,73.1h0ZM308,2002c19.7-.4,61.2,3.1,67.2-21.9,7.4-31-35.8-31.2-55.8-26.3l-11.3,48.2h0ZM284,2096c22.2,4,69.1,5.6,78.1-20.9,13.3-39.2-38.9-39.2-64.2-36.2l-13.9,57.1Z" style="fill:#393f44;"/><path d="M1878,1888l-43.7,189.2c-2.1,19.4,2.9,38.2,7.7,56.7l-41,4.1c-6.7-.4-5.7-12.2-12-12.1-2.1,0-21.1,11.7-29,13.2-38.1,7-68.8-15.3-72.2-54-6.5-75.7,47.8-131.5,124-119.1l16.3-71.7,49.8-6.2h0ZM1802,2004c-44.2-5.8-69.8,29.5-66.1,71.1,2.7,29.8,30.9,29.9,47.8,11.7l18.3-82.7h0Z" style="fill:#72c056;"/><path d="M1296,1914l14,158,89-158h51c.5,2.9-.5,4.9-1.6,7.4-12.9,30.4-39.5,71.5-56.8,101.2-21.7,37.2-44.7,73.8-67.8,110.2-1.5,3.1-3.7,3-6.7,3.3-7.1.8-33.8,1.1-40.1-.1-2.3-.4-4-.7-4.6-3.4l-30.4-218.6h54,0Z" style="fill:#72c056;"/><path d="M841.6,1962.6c122-14.8,94.7,168.8-4.6,177.4-118.1,10.3-88.9-166.1,4.6-177.4ZM841.5,2004.5c-32.5,6.7-46.5,88.1-18.4,93.5,37.5,7.2,54.2-41.1,50.7-70.7-2.3-19.7-12.8-26.8-32.3-22.8h0Z" style="fill:#3a3f44;"/><path d="M1136,2136h-50l25.9-112.9c-.8-20.2-26.8-25.5-39.4-13.7l-30.4,126.6h-48l37.8-160.7c25.3-11.1,74-17.3,99.5-7.7,59.9,22.5,8.3,124.7,4.6,168.4h0Z" style="fill:#3a4045;"/><path d="M1460,2076c2.4,33.9,51.9,21.9,74,16l1.8,39.8c-41.1,13.1-105,16.5-120.7-33.9-14.9-47.8,10-105.3,55.2-126.6,39.9-18.9,98.9-10.9,95.8,43.8-2.9,51.3-65.2,61.4-106.1,60.9h0ZM1462,2042c16.8-.6,61.1-3.8,60.1-26.9-.6-14.6-13.6-14.5-25.2-13.1-17.5,2.2-35.1,22.2-34.9,40h0Z" style="fill:#72c056;"/><path d="M1910,2076c2.4,33.9,51.9,21.9,74,16l1.8,39.8c-41.1,13.1-105,16.5-120.7-33.9-14.9-47.8,10-105.3,55.2-126.6,39.9-18.9,98.9-10.9,95.8,43.8-2.9,51.3-65.2,61.4-106.1,60.9h0ZM1912,2042c16.8-.6,61.1-3.8,60.1-26.9-.6-14.6-13.6-14.5-25.2-13.1-17.5,2.2-35.1,22.2-34.9,40h0Z" style="fill:#72c056;"/><path d="M632,1968l-8,38-53.7.3c-2.4,20-21,63.9-15.4,81.8,5.3,16.9,38,8.6,51.1,5.9l1.7,37.7c-36.7,13.6-100,17.7-103.7-34.7-.7-9.7,1.1-19.8,2.5-29.4,7.1-47.1,24.5-96.2,33.8-143.3l49.7-6.3-10,50h52,0Z" style="fill:#3a3f44;"/><path d="M680.6,2091.4c10.4,11.4,44.1,7,57.4.6l2.8,40.2c-77.6,27-137.5-13.8-114.2-98.7,10.4-37.8,45-68.1,84.5-71.5,11.8-1,48.3,1.2,57,9,2.3,2.1,1.8,2.4,1.1,5-2.6,9.8-12.1,22.8-15.1,33.1-24.2-7.1-51-10.7-68.9,11-13.5,16.4-19.6,54.8-4.6,71.2h0Z" style="fill:#3a4045;"/><path d="M1556,2136l38.2-158.8c27.1-12.6,74.7-19.3,103.1-9.4,2.4.8,3.3-1.1,2.5,2.8-2.6,11.8-10.6,25.2-14,37.1-16.5-1.8-34.9-8.7-50.7.3l-32,128h-47Z" style="fill:#72c056;"/><polygon points="508 1968 468 2136 420 2136 458 1968 508 1968" style="fill:#3a4045;"/><polygon points="1006 1968 965 2136 918 2136 959 1968 1006 1968" style="fill:#3a4045;"/><path d="M987.4,1890.5c36.5-7.7,47.4,32.2,19.6,51.5-10.4,7.2-33.3,6.7-41-5-11.2-16.9,2.9-42.7,21.5-46.5Z" style="fill:#3a4045;"/><path d="M489.5,1890.5c46.1-7.7,41.3,50.4,9.4,55.4-49.3,7.7-42.2-49.9-9.4-55.4Z" style="fill:#3b4146;"/><path d="M1156,172l12,1c0,2-9.5.7-12,1v-2Z" style="fill:#999c9e;"/></svg>