<svg xmlns="http://www.w3.org/2000/svg" viewBox="0 0 295 295" xmlns:v="https://vecta.io/nano"><defs><linearGradient id="A" x1="-250.5" y1="868.8" x2="-249.5" y2="868.8" gradientTransform="translate(246428.1 -70727.5) rotate(-90) scale(283.5 -283.5)" gradientUnits="userSpaceOnUse"><stop offset="0" stop-color="#06859a"/><stop offset="0" stop-color="#06859a"/><stop offset="1" stop-color="#2db194"/></linearGradient><linearGradient id="B" x1="-264" y1="724.4" x2="-160" y2="724.4" gradientTransform="translate(2201.2 -453.3) rotate(-90) scale(2.8 -2.8)" gradientUnits="userSpaceOnUse"><stop offset="0" stop-color="#06859a"/><stop offset="0" stop-color="#06859a"/><stop offset="1" stop-color="#2db194"/></linearGradient></defs><path d="M6,289.2h283.5V5.8H6v283.5Z" fill="url(#A)"/><path d="M 6 5.800000190734863 L 289.5 5.800000190734863 L 289.5 289.30000019073486 L 6 289.30000019073486 Z" fill="#2cb094" fill-opacity="0" stroke="url(#B)" stroke-linejoin="round" stroke-width="11.3"/><path d="M77.9,53.8c105.6,9.1,83-21.9,142.5,44.3v156.3H77.9V53.8Z" fill="#fff"/><g stroke="#109099" stroke-miterlimit="11.3"><path d="M84.7,94l96.1-1.1" fill="#109099" stroke-width="2.8"/><g fill="none" stroke-width="3"><path d="M84.7 117.7l123.5-1.1M84.7 140.9l123.5-1.1M84.7 164.2l123.5-1.1"/><path d="M84.7 164.2l123.5-1.1M84.7 187.4l123.5-1.1M84.7 210.6l123.5-1.1"/></g></g></svg>