<svg xmlns="http://www.w3.org/2000/svg" fill="none" height="400" width="400" xmlns:v="https://vecta.io/nano"><clipPath id="A"><path d="M0 0h400v400H0z"/></clipPath><g clip-path="url(#A)"><circle cx="200" cy="200" fill="#3396ff" r="199.5" stroke="#66b1ff"/><path d="M122.519 148.965c42.791-41.729 112.171-41.729 154.962 0l5.15 5.022c2.14 2.086 2.14 5.469 0 7.555l-17.617 17.18a2.79 2.79 0 0 1-3.874 0l-7.087-6.911c-29.853-29.111-78.253-29.111-108.106 0l-7.59 7.401a2.79 2.79 0 0 1-3.874 0l-17.617-17.18c-2.14-2.086-2.14-5.469 0-7.555zm191.397 35.529l15.679 15.29c2.14 2.086 2.14 5.469 0 7.555l-70.7 68.944a5.58 5.58 0 0 1-7.748 0l-50.178-48.931c-.535-.522-1.402-.522-1.937 0l-50.178 48.931a5.58 5.58 0 0 1-7.748 0l-70.701-68.945a5.25 5.25 0 0 1 0-7.555l15.68-15.29a5.58 5.58 0 0 1 7.748 0l50.179 48.932c.535.522 1.402.522 1.937 0l50.177-48.932a5.58 5.58 0 0 1 7.748 0l50.179 48.932c.535.522 1.402.522 1.937 0l50.179-48.931a5.58 5.58 0 0 1 7.748 0z" fill="#fff"/></g></svg>