<?xml version="1.0" encoding="UTF-8"?><svg id="a" xmlns="http://www.w3.org/2000/svg" viewBox="0 0 153.03 157.79"><polygon points="153.03 69.37 76.52 24.96 76.52 0 153.03 44.41 153.03 69.37" style="fill:#689671;"/><polygon points="0 69.37 76.52 24.96 76.52 0 0 44.41 0 69.37" style="fill:#7fbf87;"/><polygon points="153.03 113.44 76.52 69.03 76.52 44.06 153.03 88.47 153.03 113.44" style="fill:#689671;"/><polygon points="153.03 44.06 76.52 88.47 76.52 113.44 153.03 69.03 153.03 44.06" style="fill:#7fbf87;"/><polygon points="153.03 88.13 76.52 132.54 76.52 157.5 153.03 113.09 153.03 88.13" style="fill:#7fbf87;"/><polygon points="0 113.44 76.52 69.03 76.52 44.06 0 88.47 0 113.44" style="fill:#7fbf87;"/><polygon points="0 44.06 76.52 88.47 76.52 113.44 0 69.03 0 44.06" style="fill:#689671;"/><polygon points="0 88.13 76.52 132.54 76.52 157.5 0 113.09 0 88.13" style="fill:#689671;"/></svg>