<svg xmlns="http://www.w3.org/2000/svg" viewBox="0 0 153.03 157.79" xmlns:v="https://vecta.io/nano"><path d="M153.03 69.37L76.52 24.96V0l76.51 44.41v24.96z" fill="#689671"/><path d="M0 69.37l76.52-44.41V0L0 44.41v24.96z" fill="#7fbf87"/><path d="M153.03 113.44L76.52 69.03V44.06l76.51 44.41v24.97z" fill="#689671"/><path d="M153.03 44.06L76.52 88.47v24.97l76.51-44.41V44.06zm0 44.07l-76.51 44.41v24.96l76.51-44.41V88.13zM0 113.44l76.52-44.41V44.06L0 88.47v24.97z" fill="#7fbf87"/><path d="M0 44.06l76.52 44.41v24.97L0 69.03V44.06zm0 44.07l76.52 44.41v24.96L0 113.09V88.13z" fill="#689671"/></svg>