<svg xmlns="http://www.w3.org/2000/svg" viewBox="0 0 788 788" xmlns:v="https://vecta.io/nano"><defs><clipPath id="A"><path d="M598.5 184.7c-31.9-72.4-105.3-87.9-195.1-72.9L374.6 0l-68 17.6L335 129.2c-17.9 4.5-36.3 8.4-54.5 13.5L252.1 31.8l-68 17.6L213 161.3c-14.7 4.2-137.4 35.6-137.4 35.6l18.7 72.9s50-14 49.5-12.9c27.7-7.3 40.8 6.6 46.9 19.7L270 583.2c1 8.9-.6 24-19.7 29.2 1.1.6-49.5 12.7-49.5 12.7l7.4 85L345.7 675l29.2 113.2 68-17.6-29.2-114 54.7-13.5 29 113.3 68-17.6-29.2-113C641 600.3 715 534.2 699.8 433.2c-9.7-60.9-76.3-110.9-131.5-116.6 34-30.1 51.3-74.2 30.1-131.7h0zm-32.7 266.9C579.3 551.7 440.2 564 394.3 576.1l-40-149.8c46.1-12.1 188.6-62.9 211.5 25.3h0zm-83.8-204c14.3 89-104.6 99.3-143 109.1l-36.4-135.9c38.5-9.5 150.2-55.6 179.4 26.8h0z" fill="none"/></clipPath></defs><g clip-path="url(#A)"><circle cx="400.4" cy="398" r="635.2" fill="#0ac18e"/></g></svg>