<svg xmlns="http://www.w3.org/2000/svg" viewBox="0 0 788 788" xmlns:v="https://vecta.io/nano"><defs><linearGradient id="A" x1="1.5" y1="394" x2="786.5" y2="394" gradientUnits="userSpaceOnUse"><stop offset="0" stop-color="#d5fcdc"/><stop offset="1" stop-color="#9cb9f9"/></linearGradient></defs><circle cx="394" cy="394" r="370" fill="#587d7b" stroke="url(#A)" stroke-width="45"/><path d="M509.4 269.8c-18.6-42.2-61.3-51.2-113.6-42.4L379 162.2l-39.6 10.2 16.5 65c-10.4 2.6-21.1 4.9-31.7 7.9l-16.5-64.6-39.6 10.2 16.8 65.2c-8.5 2.4-80 20.8-80 20.8l10.9 42.4s29.1-8.2 28.8-7.5c16.2-4.2 23.8 3.9 27.3 11.5l46.2 178.6c.6 5.2-.4 14-11.5 17 .7.4-28.8 7.4-28.8 7.4l4.3 49.5 80.1-20.5 17 65.9 39.6-10.2-17-66.4 31.8-7.9 16.9 66 39.6-10.2-17-65.8c61-14.8 104.1-53.3 95.3-112.2-5.6-35.5-44.4-64.6-76.6-67.9 19.8-17.6 29.9-43.2 17.6-76.7h0zm-19 155.4c7.9 58.3-73.2 65.5-99.9 72.5l-23.3-87.2c26.9-7 109.9-36.6 123.2 14.7h0zm-48.9-118.8c8.4 51.8-60.9 57.8-83.3 63.6L337 290.8c22.4-5.5 87.5-32.4 104.5 15.6h0z" fill="#f2a9bf"/></svg>