<svg xmlns="http://www.w3.org/2000/svg" viewBox="0 0 1087.5 776.2" xmlns:v="https://vecta.io/nano"><defs><linearGradient id="A" x1="207.2" y1="702.1" x2="264.7" y2="759.5" gradientUnits="userSpaceOnUse"><stop offset="0" stop-color="#38b6ff"/><stop offset="1" stop-color="#5271ff"/></linearGradient><filter id="B" x="436.6" y=".8" width="654.9" height="645.6" color-interpolation-filters="sRGB" filterUnits="userSpaceOnUse"><feColorMatrix result="A" values="-1 0 0 0 1 0 -1 0 0 1 0 0 -1 0 1 0 0 0 1 0"/><feFlood flood-color="#fff"/><feBlend in="A"/></filter><mask id="C" x="436.6" y=".8" width="654.9" height="645.6" maskUnits="userSpaceOnUse"><g filter="url(#B)"><path d="M436.6 296.2h654.9v54.7H436.6z" fill="#fff"/></g></mask><linearGradient id="D" x1="605.3" y1="169.7" x2="915.3" y2="479.7" href="#A"/><path id="E" d="M2.64 581.131l245.79-245.79 55.579 55.579-245.79 245.79z"/></defs><path d="M358.5 763.4c-8.7-8.5-13.1-19.3-13.1-32.5s4.4-24 13.1-32.6 19.4-12.8 32.2-12.8 17.2 2.1 24.3 6.2 12.4 10.1 16.1 18.1h-11c-2.8-5.3-6.7-9.3-11.9-12.1s-11-4.3-17.5-4.3c-10.4 0-19 3.4-25.8 10.3s-10.2 15.9-10.2 27.2 3.4 20.3 10.2 27.2 15.4 10.3 25.8 10.3 12.4-1.4 17.5-4.3c5.2-2.9 9.1-6.9 11.9-12.2h11c-3.6 7.9-9 13.9-16.1 18s-15.2 6.2-24.3 6.2-23.4-4.3-32.2-12.8h0zm218.1 11.9l-7.5-20.8h-41.5l-7.6 20.8h-9l32.8-89h9.3l32.6 89h-9.1zm-46.4-28h36.2l-18-49.8-18.2 49.8zm141.7-37.6c0 3.5.9 6.4 2.8 8.6 1.8 2.2 4.2 3.9 7.1 5s6.2 2 9.7 2.8 7.1 1.6 10.6 2.6c3.5.9 6.8 2.2 9.7 3.7s5.3 3.8 7.1 6.9c1.9 3.1 2.8 6.9 2.8 11.5 0 6.8-2.5 12.7-7.6 17.8s-12 7.6-20.8 7.6-16-2-21.5-5.9c-5.5-4-8.3-9.3-8.3-16h9.5c.3 4.1 2.1 7.5 5.3 10.3 3.2 2.7 7.9 4.1 14.3 4.1s11.3-1.6 15.1-4.9c3.7-3.3 5.6-7.3 5.6-12.2s-1.7-8.5-5.2-11c-3.4-2.4-7.6-4.1-12.4-5.1-4.8-.9-9.7-2-14.6-3.3s-9-3.7-12.5-7.3c-3.4-3.6-5.1-8.9-5.1-15.7s2.6-12.5 7.7-17 11.9-6.7 20.3-6.7 15 1.9 19.8 5.8 7.7 9 8.8 15.5h-10.2c-.3-3.6-2.2-6.8-5.4-9.5-3.3-2.7-7.7-4.1-13.4-4.1s-10.3 1.4-13.8 4.3c-3.5 2.8-5.3 7-5.3 12.4v-.2h0zm187.2-23.4h9v89h-9v-41.1h-47.7v41.1h-9v-89h9v40.6h47.7v-40.6z" fill="#fff"/><circle cx="235.9" cy="730.8" r="40.6" fill="url(#A)"/><use href="#E" fill="#38b6ff"/><path d="M192.902 390.957l55.579-55.579 245.79 245.79-55.579 55.579z" fill="#5271ff"/><g fill="#fff"><path d="M2.73 65.868L58.309 10.29l245.79 245.79-55.579 55.579z"/><use href="#E" x="190.111" y="-324.972"/></g><g mask="url(#C)"><circle cx="760.3" cy="323.6" r="287.8" fill="none" stroke="#fff" stroke-width="70"/></g><circle cx="760.3" cy="324.7" r="219.2" fill="url(#D)"/><path d="M828.7 251.1c-11-25-36.3-30.3-67.3-25.2l-10-38.6-23.5 6.1 9.8 38.5-18.8 4.6-9.8-38.2-23.5 6.1 10 38.6c-5.1 1.5-47.4 12.3-47.4 12.3l6.4 25.2s17.3-4.8 17.1-4.4c9.5-2.5 14.1 2.3 16.2 6.8l27.3 105.8c.4 3.1-.2 8.3-6.8 10.1.4.2-17.1 4.4-17.1 4.4l2.5 29.3 47.5-12.2 10.1 39 23.5-6.1-10.1-39.3 18.9-4.6 10 39.1 23.5-6.1-10.1-39c36.1-8.8 61.7-31.6 56.5-66.5-3.4-21.1-26.3-38.2-45.4-40.2 11.7-10.4 17.7-25.6 10.4-45.4h0zm-11.3 92.1c4.6 34.5-43.3 38.8-59.2 43l-13.8-51.7c15.9-4.2 65.1-21.7 73 8.7zm-29-70.4c5 30.7-36.1 34.2-49.3 37.7l-12.5-46.9c13.3-3.3 51.9-19.2 61.9 9.3h0z" fill="#fff"/></svg>