<?xml version="1.0" encoding="UTF-8"?>
<svg id="Layer_1" xmlns="http://www.w3.org/2000/svg" xmlns:xlink="http://www.w3.org/1999/xlink" version="1.1" viewBox="0 0 1187.4 708.7">
  <!-- Generator: Adobe Illustrator 29.3.1, SVG Export Plug-In . SVG Version: 2.1.0 Build 151)  -->
  <defs>
    <style>
      .st0 {
        mask: url(#mask);
      }

      .st1 {
        fill: url(#linear-gradient);
      }

      .st2 {
        fill: #1e1e1e;
      }

      .st3 {
        filter: url(#luminosity-invert-noclip);
      }

      .st4 {
        fill: none;
        stroke: #1e1e1e;
        stroke-miterlimit: 10;
        stroke-width: 70px;
      }

      .st5 {
        fill: #fff;
      }

      .st6 {
        fill: #5271ff;
      }

      .st7 {
        fill: #38b6ff;
      }
    </style>
    <filter id="luminosity-invert-noclip" x="478.5" y="1.7" width="708.4" height="703.9" color-interpolation-filters="sRGB" filterUnits="userSpaceOnUse">
      <feColorMatrix result="cm" values="-1 0 0 0 1 0 -1 0 0 1 0 0 -1 0 1 0 0 0 1 0"/>
      <feFlood flood-color="#fff" result="bg"/>
      <feBlend in="cm" in2="bg"/>
    </filter>
    <mask id="mask" x="478.5" y="1.7" width="708.4" height="703.9" maskUnits="userSpaceOnUse">
      <g class="st3">
        <rect class="st5" x="478.5" y="323.6" width="708.3" height="60.2"/>
      </g>
    </mask>
    <linearGradient id="linear-gradient" x1="664.2" y1="525" x2="1005.7" y2="183.7" gradientTransform="translate(0 708) scale(1 -1)" gradientUnits="userSpaceOnUse">
      <stop offset="0" stop-color="#38b6ff"/>
      <stop offset="1" stop-color="#5271ff"/>
    </linearGradient>
  </defs>
  <g>
    <g>
      <rect class="st7" x="-24.9" y="489.3" width="382.8" height="86.6" transform="translate(-327.9 273.7) rotate(-45)"/>
      <rect class="st6" x="332.8" y="341.2" width="86.6" height="382.8" transform="translate(-266.5 421.9) rotate(-45)"/>
    </g>
    <g>
      <rect class="st2" x="123.3" y="-16.7" width="86.6" height="382.8" transform="translate(-74.7 169) rotate(-45)"/>
      <rect class="st2" x="184.6" y="131.4" width="382.8" height="86.6" transform="translate(-13.4 317) rotate(-45)"/>
    </g>
  </g>
  <g>
    <g class="st0">
      <circle class="st4" cx="834.9" cy="353.6" r="316.9"/>
    </g>
    <g>
      <circle class="st1" cx="834.9" cy="353.6" r="241.4"/>
      <path id="symbol" class="st5" d="M910.2,272.6c-12.1-27.5-40-33.4-74.1-27.7l-11-42.5-25.9,6.7,10.8,42.4c-6.8,1.7-13.8,3.2-20.7,5.1l-10.8-42.1-25.9,6.7,11,42.5c-5.6,1.6-52.2,13.5-52.2,13.5l7.1,27.7s19-5.3,18.8-4.9c10.5-2.8,15.5,2.5,17.8,7.5l30.1,116.5c.4,3.4-.2,9.1-7.5,11.1.4.2-18.8,4.8-18.8,4.8l2.8,32.3s46.2-11.8,52.3-13.4l11.1,43,25.9-6.7-11.1-43.3c7.1-1.7,14-3.4,20.8-5.1l11,43.1,25.9-6.7-11.1-42.9c39.8-9.7,67.9-34.8,62.2-73.2-3.7-23.2-29-42.1-50-44.3,12.9-11.5,19.5-28.2,11.5-50h0ZM897.8,374c5.1,38-47.7,42.7-65.2,47.3l-15.2-56.9c17.5-4.6,71.7-23.9,80.4,9.6ZM865.9,296.5c5.5,33.8-39.8,37.7-54.3,41.5l-13.8-51.6c14.6-3.6,57.1-21.1,68.2,10.2h-.1Z"/>
    </g>
  </g>
</svg>