<svg xmlns="http://www.w3.org/2000/svg" viewBox="0 0 1187.4 708.7" xmlns:v="https://vecta.io/nano"><defs><filter id="A" x="479" y="1.4" width="708.4" height="703.9" color-interpolation-filters="sRGB" filterUnits="userSpaceOnUse"><feColorMatrix result="A" values="-1 0 0 0 1 0 -1 0 0 1 0 0 -1 0 1 0 0 0 1 0"/><feFlood flood-color="#fff"/><feBlend in="A"/></filter><mask id="B" x="479" y="1.4" width="708.4" height="703.9" maskUnits="userSpaceOnUse"><g filter="url(#A)"><path d="M479 323.3h708.3v60.2H479z" fill="#fff"/></g></mask><linearGradient id="C" x1="664.7" y1="182.7" x2="1006.2" y2="524" gradientUnits="userSpaceOnUse"><stop offset="0" stop-color="#38b6ff"/><stop offset="1" stop-color="#5271ff"/></linearGradient><path id="D" d="M1.163 637.129l270.68-270.68 61.235 61.235-270.68 270.68z"/></defs><use href="#D" fill="#38b6ff"/><path d="M210.773 427.674l61.235-61.235 270.68 270.68-61.235 61.235z" fill="#5271ff"/><g fill="#fff"><path d="M1.219 69.598L62.454 8.362l270.68 270.68-61.235 61.235z"/><use href="#D" x="209.595" y="-358.125"/></g><g mask="url(#B)"><circle cx="835.5" cy="353.4" r="316.9" fill="none" stroke="#fff" stroke-width="70"/></g><circle cx="835.5" cy="353.4" r="241.4" fill="url(#C)"/><path d="M910.8 272.4c-12.1-27.5-40-33.4-74.1-27.7l-11-42.5-25.9 6.7 10.8 42.4-20.7 5.1-10.8-42.1-25.9 6.7 11 42.5C758.6 265.1 712 277 712 277l7.1 27.7s19-5.3 18.8-4.9c10.5-2.8 15.5 2.5 17.8 7.5l30.1 116.5c.4 3.4-.2 9.1-7.5 11.1.4.2-18.8 4.8-18.8 4.8l2.8 32.3 52.3-13.4 11.1 43 25.9-6.7-11.1-43.3 20.8-5.1 11 43.1 25.9-6.7-11.1-42.9c39.8-9.7 67.9-34.8 62.2-73.2-3.7-23.2-29-42.1-50-44.3 12.9-11.5 19.5-28.2 11.5-50h0zm-12.4 101.4c5.1 38-47.7 42.7-65.2 47.3L818 364.2c17.5-4.6 71.7-23.9 80.4 9.6zm-31.9-77.5c5.5 33.8-39.8 37.7-54.3 41.5l-13.8-51.6c14.6-3.6 57.1-21.1 68.2 10.2h-.1z" fill="#fff"/></svg>