<svg xmlns="http://www.w3.org/2000/svg" viewBox="0 0 40 40" fill="#3267cf" xmlns:v="https://vecta.io/nano"><path d="M29.8 37.4c-4.4 2.5-9.8 3.3-15.1 1.8s-9.5-5-12.1-9.4S-.7 20 .7 14.7c.3-1 .6-2 1.1-2.9 1-2.2 4.2-1 3.1 1.5L4 15.7c-1.2 4.4-.5 8.9 1.5 12.6 2.1 3.7 5.6 6.6 10 7.8a16.48 16.48 0 0 0 12.2-1.3c2.4-1.3 4.1 1.7 2 2.8zM10.2 2.6C14.6.1 20-.7 25.3.8s9.5 5 12.1 9.4c2.5 4.5 3.3 9.9 1.9 15.2-.3 1-.6 2-1.1 2.9-.9 2-4.1.7-3.1-1.5l.9-2.4c1.2-4.4.5-8.9-1.5-12.6-2.1-3.7-5.6-6.6-10-7.8a16.48 16.48 0 0 0-12.2 1.3c-2.3 1.2-4.1-1.6-2-2.8z"/><path d="M15.6 16.9c-.2-.9-1.1-1.6-1.7-2l-1.4-.9-2.5-1.6-2.5-1.6L5 9.2 2.5 7.6c-2.4-1.5-1-2.1 1.2-1.5l3.2.9 4.7 1.3 3.6 1c3.1 2.2 4.5 5.7.4 7.7zm8.8 6.3c.2.9 1.1 1.6 1.7 2l1.4.9 2.5 1.6 2.5 1.6 2.5 1.6 2.5 1.6c2.4 1.5 1 2.1-1.2 1.5l-3.2-.9-4.7-1.3-3.6-1c-3.1-2.2-4.5-5.7-.4-7.7zm-8.4-5l1.6-1s5.6-3.4 0-7.4l3.5 1 4.7 1.3c8.8 2.4 3.7 6.2 1.4 7.7-.5.4-1.1.7-1.6 1l-1.6 1-1.6 1s-5.6 3.4 0 7.4l-3.5-1-2.9-.8c-9.1-2.5-5.9-6.3-3.2-8.2.5-.4 1.1-.7 1.6-1l1.6-1zm10.6 7.3s-.2-.1-.5-.3l.5.3zM13.4 14.6s.2.1.5.3l-.5-.3z" fill-rule="evenodd"/></svg>