<?xml version="1.0" encoding="UTF-8"?>
<svg id="SvgjsSvg1004" xmlns="http://www.w3.org/2000/svg" viewBox="0 0 550.32 550">
  <rect y="500" width="125" height="50" style="fill: #0ac18e;"/>
  <rect x="0" width="50" height="550" style="fill: #0ac18e;"/>
  <rect x="500.32" width="50" height="550" style="fill: #0ac18e;"/>
  <rect x="150" y="500" width="400.32" height="50" style="fill: #0ac18e;"/>
  <rect x="150.01" y="425.04" width="325.24" height="50" style="fill: #23a6d5;"/>
  <rect x="150.01" y="470.89" width="50" height="29.11" style="fill: #23a6d5;"/>
  <rect x="4.08" width="546.23" height="50" style="fill: #0ac18e;"/>
  <rect x="425.25" y="299.05" width="50" height="133.16" style="fill: #23a6d5;"/>
  <rect x="150.01" y="75" width="325.24" height="50" style="fill: #23a6d5;"/>
  <rect x="150.01" y="258.34" width="325.24" height="50" style="fill: #23a6d5;"/>
  <rect x="150" y="122.99" width="50" height="139.55" style="fill: #23a6d5;"/>
  <rect x="75" y="100" width="50" height="409.78" style="fill: #0ac18e;"/>
  <rect x="400.25" y="100" width="50" height="349.24" style="fill: #0ac18e;"/>
  <rect x="161.04" y="85.17" width="50" height="221.99" transform="translate(-84.22 189) rotate(-45)" style="fill: #0ac18e;"/>
  <rect x="209.36" y="179.17" width="244.65" height="50" transform="translate(-47.22 294.34) rotate(-45)" style="fill: #0ac18e;"/>
</svg>