<?xml version="1.0" encoding="utf-8"?>
<!-- Generator: Adobe Illustrator 23.0.0, SVG Export Plug-In . SVG Version: 6.00 Build 0)  -->
<svg version="1.1" id="Layer_1" xmlns="http://www.w3.org/2000/svg" xmlns:xlink="http://www.w3.org/1999/xlink" x="0px" y="0px"
	 viewBox="0 0 1500 500" style="enable-background:new 0 0 1500 500;" xml:space="preserve">
<style type="text/css">
	.st0{opacity:0.46;fill:#D8EBDD;enable-background:new    ;}
	.st1{fill:#489B5C;}
	.st2{fill:#F1F2F2;}
	.st3{fill:#FFFFFF;}
	.st4{fill:none;}
	.st5{fill:#D1D3D4;}
	.st6{fill:#52B66E;}
</style>
<g id="Layer_3">
	<rect class="st0" width="1500" height="500"/>
</g>
<g>
	<g>
		<g>
			<path class="st1" d="M272.76,157.35c0,0-7.38,8.61-12.2,9.43c-5.43,0.92-7.93,0.16-8.77-0.22c-0.36-0.16-0.72-0.3-1.1-0.39
				c-2.29-0.51-7.86-1.24-3.04,9.32l-151.59-1.23c0,0-54.73-4.61-56.58,47.97l1.84,37.51c0,0-15.07,6.46-11.99,23.37
				c2.46,9.53,12.3-7.69,13.53-13.22c4.3-4.92-1.29-49.55,4.3-65.49s13.53-11.38,13.53-11.38s-11.38,15.68-7.38,40.28
				s1.23,39.36-1.84,47.97s1.84,14.14,1.84,14.14s-0.31,7.69,0,12.3s5.53,14.14-2.15,19.99c0,0,9.02,10.45,7.58,14.96H68.8
				c0,0-7.42-6.94-7.79-11.89c-0.71-9.63,0-35.97,3.69-38.74s6.15-9.53,7.07-11.68s2.77,1.23,2.77,1.23l-0.31,48.89l6.05,12.2h9.43
				l-7.48-12.2l3.38-35.36c0,0,2.77-6.46,4.3-5.84c1.69-0.31,1.69-0.31,1.69-0.31l0.38,6.14c0.04,0.71,1.01,1.55,1.83,1.84l1.24,0.1
				c0.96,0.08,1.76-0.72,1.69-1.67l-0.37-5.33l5.69,0.15l2.61,5.84c0,0,4.92,2.31,4.3-1.08c-0.61-3.38-1.33-6.3-1.33-6.3
				s-1.03-5.77,5.02,0c4.41,4.2,5.41,0.99,5.41,0.99s1.05-2.32-2.95-7.45c0.08,0.1,2.45-1.83,2.58-1.95
				c1.72-1.5,3.31-3.28,4.24-5.38c0.46-1.04,0.38-2.28,1.36-2.74c1.41-0.67,3.97-0.59,5.54-0.66c3.6-0.16,8.2-0.51,11.9-0.24
				c4.2,0.31,7.42,0.12,11.57-0.22c1.64-0.13,2.85,0.17,4.42,0.33c2.07,0.21,4.19,0.19,6.27,0.3c7.22,0.38,14.2-0.61,21.41-0.11
				c2.14,0.15,4.5-0.37,6.64-0.27c0.79,0.04,1.58-0.09,2.33-0.36c4.82-1.76,24.29-7.37,27.52,15.59
				c3.69,26.24,3.15,39.74,2.77,40.74c-0.38,1-4.54,5.53,4,7.3l0.23,6.23h14.51l-8.21-14.14c0,0-2.03-26.67,1-30.52
				c3.54-4.48,8.66-32.57,15.84-44.05c4.09-10.7,2.23-35.93,21.33-33.67c0.84,0.1,1.65,0.36,2.38,0.79
				c14.18,8.35,11.2,6.32,25.96,6.63c1.75,0.04,4.28-0.85,5.53-2.08c8.76-8.61-12.6-28.25-12.6-37.35c0,0,1.68-0.95,1.99-3.1
				c0.31-2.15-1.23-4.41-3.07-5.33s8.07-6.77,10.35-11.07c3.59-6.76,1.54-7.07-10.45,3.38c0,0-9.56,1.05-17.67-0.31
				c-0.93-0.16-1.62-0.93-1.65-1.87L272.76,157.35z"/>
			<path class="st1" d="M195.48,272.14c0,0,26.03-6.35,22.96,19.06c-4.71,6.97-12.3,20.09,3.07,49.2h-13.73l-1.84-6.97
				c0,0-7.17-0.41-0.82-5.53c0,0,2.25-38.33-9.63-53.71C195.48,274.19,193.72,272.47,195.48,272.14z"/>
		</g>
		<polygon class="st1" points="375.87,214.03 386.63,214.03 416.15,250.31 387.55,285.97 376.14,285.97 404.77,251.23 		"/>
		<polygon class="st1" points="838.63,214.03 849.39,214.03 878.9,250.31 850.31,285.97 838.9,285.97 867.53,251.23 		"/>
		<polygon class="st1" points="1204.38,214.03 1215.15,214.03 1244.66,250.31 1216.07,285.97 1204.65,285.97 1233.29,251.23 		"/>
		<g>
			<g>
				<polygon class="st1" points="759.91,303.35 491.33,303.35 491.33,195.58 495.33,195.58 495.33,299.35 759.91,299.35 				"/>
			</g>
			<g>
				<polygon class="st1" points="751.3,313.5 482.72,313.5 482.72,205.72 486.72,205.72 486.72,309.5 751.3,309.5 				"/>
			</g>
			<g>
				<path class="st1" d="M772.06,294.43H500.85V186.5h271.21V294.43z M504.85,290.43h263.21V190.5H504.85V290.43z"/>
			</g>
			<g>
				<path class="st1" d="M534.15,215.29c-7.57,8.81-19.5,12.03-31.29,9.63V188.5h37.69C542.49,198.13,540.48,207.92,534.15,215.29z"
					/>
				<path class="st1" d="M510.44,227.69c-2.61,0-5.28-0.27-7.98-0.82l-1.6-0.33V186.5h41.33l0.32,1.6
					c2.13,10.56-0.36,20.95-6.84,28.48l0,0C529.48,223.79,520.4,227.69,510.44,227.69z M504.85,223.25
					c10.95,1.73,21.24-1.67,27.78-9.27l0,0c5.35-6.22,7.58-14.7,6.24-23.48h-34.02V223.25z"/>
			</g>
			<g>
				<path class="st1" d="M502.85,292.43v-41.71c0,0,49-4.3,36.43,41.71H502.85z"/>
				<path class="st1" d="M540.81,294.43h-39.96v-45.54l1.83-0.16c0.95-0.08,23.39-1.89,34.61,11.54c6.43,7.7,7.75,18.7,3.93,32.69
					L540.81,294.43z M504.85,290.43h32.89c2.98-11.95,1.8-21.23-3.53-27.6c-8.18-9.79-24-10.32-29.36-10.2L504.85,290.43
					L504.85,290.43z"/>
			</g>
			<g>
				<path class="st1" d="M726.09,188.5c0,0-4,45.43,43.97,37.82V188.5H726.09z"/>
				<path class="st1" d="M759.83,229.18c-10.3,0-18.57-2.86-24.67-8.55c-12.71-11.86-11.15-31.48-11.07-32.31l0.16-1.82h47.81v41.53
					l-1.69,0.27C766.66,228.89,763.14,229.18,759.83,229.18z M728.01,190.5c-0.04,4.93,0.71,18.68,9.9,27.23
					c6.82,6.35,16.96,8.65,30.15,6.87v-34.1H728.01z"/>
			</g>
			<g>
				<path class="st1" d="M726.63,292.43c0,0-10.53-48.04,43.44-42.97v42.97H726.63z"/>
				<path class="st1" d="M772.06,294.43h-47.05l-0.34-1.57c-0.19-0.86-4.46-21.12,7.43-34.55c7.82-8.83,20.65-12.48,38.15-10.84
					l1.81,0.17V294.43z M728.31,290.43h39.75V251.3c-15.22-1.12-26.3,2.13-32.96,9.66C726.32,270.88,727.6,285.63,728.31,290.43z"/>
			</g>
			<g>
				<path class="st1" d="M630.08,202.27c18.96,0,34.39,17.48,34.39,38.97s-15.43,38.97-34.39,38.97s-34.39-17.48-34.39-38.97
					C595.68,219.75,611.11,202.27,630.08,202.27 M630.08,197.27c-21.76,0-39.39,19.69-39.39,43.97s17.64,43.97,39.39,43.97
					s39.39-19.69,39.39-43.97S651.83,197.27,630.08,197.27L630.08,197.27z"/>
			</g>
			<g>
				<ellipse class="st1" cx="630.08" cy="241.24" rx="31.75" ry="36.74"/>
				<path class="st1" d="M630.08,278.48c-17.78,0-32.25-16.71-32.25-37.24c0-20.54,14.47-37.24,32.25-37.24s32.25,16.71,32.25,37.24
					C662.32,261.77,647.86,278.48,630.08,278.48z M630.08,204.99c-17.23,0-31.25,16.26-31.25,36.24s14.02,36.24,31.25,36.24
					s31.25-16.26,31.25-36.24S647.31,204.99,630.08,204.99z"/>
			</g>
			<g>
				<path class="st2" d="M628.13,270.05v-7.14l-0.93-0.13c-3.86-0.54-7.62-2.25-10.24-4.63l3.72-6.58c3.13,2.42,5.81,3.51,8.56,3.51
					c3.76,0,5.59-1.69,5.59-5.15c0-2.98-3-4.68-6.47-6.64c-4.75-2.69-10.12-5.73-10.12-12.69c0-6.79,3.31-11.48,9.08-12.87l0.83-0.2
					v-7.36h5.04v7.22l0.88,0.17c3.19,0.6,5.98,2.27,8.52,5.09l-4.19,5.46c-2.28-2.06-4.29-2.95-6.57-2.95c-2.23,0-5.2,0.5-5.2,4.86
					c0,2.82,2.89,4.36,6.24,6.14c4.86,2.59,10.36,5.52,10.36,12.9c0,7.01-3.28,11.74-9.23,13.32l-0.81,0.21v7.48h-5.06V270.05z"/>
			</g>
			<g>
				<path class="st2" d="M748.69,215.87v-2.55l-0.33-0.05c-1.38-0.19-2.73-0.8-3.66-1.66l1.33-2.35c1.12,0.86,2.08,1.25,3.06,1.25
					c1.34,0,2-0.6,2-1.84c0-1.06-1.07-1.67-2.32-2.38c-1.7-0.96-3.62-2.05-3.62-4.54c0-2.43,1.18-4.1,3.25-4.6l0.3-0.07v-2.63h1.8
					v2.58l0.32,0.06c1.14,0.22,2.14,0.81,3.05,1.82l-1.5,1.95c-0.81-0.74-1.53-1.06-2.35-1.06c-0.8,0-1.86,0.18-1.86,1.74
					c0,1.01,1.03,1.56,2.23,2.2c1.74,0.92,3.7,1.97,3.7,4.61c0,2.51-1.17,4.2-3.3,4.76l-0.29,0.08v2.68L748.69,215.87L748.69,215.87
					z"/>
			</g>
			<g>
				<path class="st2" d="M748.69,282.55V280l-0.33-0.05c-1.38-0.19-2.73-0.8-3.66-1.66l1.33-2.35c1.12,0.86,2.08,1.25,3.06,1.25
					c1.34,0,2-0.6,2-1.84c0-1.06-1.07-1.67-2.32-2.38c-1.7-0.96-3.62-2.05-3.62-4.54c0-2.43,1.18-4.1,3.25-4.6l0.3-0.07v-2.63h1.8
					v2.58l0.32,0.06c1.14,0.22,2.14,0.81,3.05,1.82l-1.5,1.95c-0.81-0.74-1.53-1.06-2.35-1.06c-0.8,0-1.86,0.18-1.86,1.74
					c0,1.01,1.03,1.56,2.23,2.2c1.74,0.92,3.7,1.97,3.7,4.61c0,2.51-1.17,4.2-3.3,4.76l-0.29,0.08v2.68L748.69,282.55L748.69,282.55
					z"/>
			</g>
			<g>
				<path class="st2" d="M519.23,215.87v-2.55l-0.33-0.05c-1.38-0.19-2.73-0.8-3.66-1.66l1.33-2.35c1.12,0.86,2.08,1.25,3.06,1.25
					c1.34,0,2-0.6,2-1.84c0-1.06-1.07-1.67-2.32-2.38c-1.7-0.96-3.62-2.05-3.62-4.54c0-2.43,1.18-4.1,3.25-4.6l0.3-0.07v-2.63h1.8
					v2.58l0.32,0.06c1.14,0.22,2.14,0.81,3.05,1.82l-1.5,1.95c-0.81-0.74-1.53-1.06-2.35-1.06c-0.8,0-1.86,0.18-1.86,1.74
					c0,1.01,1.03,1.56,2.23,2.2c1.74,0.92,3.7,1.97,3.7,4.61c0,2.51-1.17,4.2-3.3,4.76l-0.29,0.08v2.68L519.23,215.87L519.23,215.87
					z"/>
			</g>
			<g>
				<path class="st2" d="M519.23,282.55V280l-0.33-0.05c-1.38-0.19-2.73-0.8-3.66-1.66l1.33-2.35c1.12,0.86,2.08,1.25,3.06,1.25
					c1.34,0,2-0.6,2-1.84c0-1.06-1.07-1.67-2.32-2.38c-1.7-0.96-3.62-2.05-3.62-4.54c0-2.43,1.18-4.1,3.25-4.6l0.3-0.07v-2.63h1.8
					v2.58l0.32,0.06c1.14,0.22,2.14,0.81,3.05,1.82l-1.5,1.95c-0.81-0.74-1.53-1.06-2.35-1.06c-0.8,0-1.86,0.18-1.86,1.74
					c0,1.01,1.03,1.56,2.23,2.2c1.74,0.92,3.7,1.97,3.7,4.61c0,2.51-1.17,4.2-3.3,4.76l-0.29,0.08v2.68L519.23,282.55L519.23,282.55
					z"/>
			</g>
			<g>
				<g>
					<path class="st1" d="M564.36,251.05c-5.67,0-10.28-4.61-10.28-10.28s4.61-10.28,10.28-10.28s10.28,4.61,10.28,10.28
						S570.03,251.05,564.36,251.05z M564.36,231.49c-5.12,0-9.28,4.16-9.28,9.28s4.16,9.28,9.28,9.28s9.28-4.16,9.28-9.28
						S569.48,231.49,564.36,231.49z"/>
				</g>
				<g>
					<g>
						<path class="st1" d="M559.26,246.47v-1.93h1.63V237h-1.63v-1.93h10.2v3.52h-2.18V237h-3.43v2.64h2.47v1.93h-2.47v2.98h1.75
							v1.93L559.26,246.47L559.26,246.47z"/>
					</g>
				</g>
				<g>
					<path class="st1" d="M580.55,242.5l1.06-1.7l-1.05-1.7l0.68-1.88l-1.39-1.45l0.28-1.99l-1.66-1.13l-0.14-2l-1.85-0.76
						l-0.55-1.93l-1.97-0.35l-0.94-1.77l-2,0.05l-1.29-1.53l-1.95,0.48l-1.57-1.24l-1.81,0.88l-1.8-0.89l-1.58,1.24l-1.94-0.49
						l-1.29,1.53l-2.01-0.07l-0.94,1.77l-1.97,0.35l-0.56,1.92l-1.85,0.75l-0.15,2.01l-1.66,1.12l0.27,1.99l-1.4,1.44l0.68,1.89
						l-1.06,1.7l1.06,1.7l-0.69,1.88l1.39,1.45l-0.28,1.99l1.66,1.13l0.14,2l1.85,0.76l0.55,1.92l1.97,0.36l0.94,1.77l2.01-0.07
						l1.28,1.54l1.95-0.48l1.57,1.24l1.81-0.88l1.8,0.89l1.58-1.24l1.94,0.49l1.3-1.53l2,0.07l0.95-1.77l1.97-0.35l0.55-1.92
						l1.87-0.75l0.14-2.01l1.66-1.12l-0.27-1.99l1.4-1.44L580.55,242.5z M564.37,254.61c-7.65,0-13.83-6.19-13.83-13.84
						c0-7.64,6.18-13.83,13.83-13.83c7.64,0,13.83,6.19,13.83,13.83S572,254.61,564.37,254.61z"/>
				</g>
			</g>
			<g>
				<g>
					<path class="st1" d="M702.47,251.05c-5.67,0-10.28-4.61-10.28-10.28s4.61-10.28,10.28-10.28s10.28,4.61,10.28,10.28
						S708.14,251.05,702.47,251.05z M702.47,231.49c-5.12,0-9.28,4.16-9.28,9.28s4.16,9.28,9.28,9.28s9.28-4.16,9.28-9.28
						S707.59,231.49,702.47,231.49z"/>
				</g>
				<g>
					<g>
						<path class="st1" d="M697.37,246.47v-1.93H699V237h-1.63v-1.93h10.2v3.52h-2.18V237h-3.43v2.64h2.47v1.93h-2.47v2.98h1.75
							v1.93L697.37,246.47L697.37,246.47z"/>
					</g>
				</g>
				<g>
					<path class="st1" d="M718.66,242.5l1.06-1.7l-1.05-1.7l0.68-1.88l-1.39-1.45l0.28-1.99l-1.66-1.13l-0.14-2l-1.85-0.76
						l-0.55-1.93l-1.97-0.35l-0.94-1.77l-2,0.05l-1.29-1.53l-1.95,0.48l-1.57-1.24l-1.81,0.88l-1.8-0.89l-1.58,1.24l-1.94-0.49
						l-1.29,1.53l-2.01-0.07l-0.94,1.77l-1.97,0.35l-0.56,1.92l-1.85,0.75l-0.15,2.01l-1.66,1.12l0.27,1.99l-1.4,1.44l0.68,1.89
						l-1.06,1.7l1.06,1.7l-0.69,1.88l1.39,1.45l-0.28,1.99l1.66,1.13l0.14,2l1.85,0.76l0.55,1.92l1.97,0.36l0.94,1.77l2.01-0.07
						l1.28,1.54l1.95-0.48l1.57,1.24l1.81-0.88l1.8,0.89l1.58-1.24l1.94,0.49l1.3-1.53l2,0.07l0.95-1.77l1.97-0.35l0.55-1.92
						l1.87-0.75l0.14-2.01l1.66-1.12l-0.27-1.99l1.4-1.44L718.66,242.5z M702.48,254.61c-7.65,0-13.83-6.19-13.83-13.84
						c0-7.64,6.18-13.83,13.83-13.83c7.64,0,13.83,6.19,13.83,13.83S710.11,254.61,702.48,254.61z"/>
				</g>
			</g>
		</g>
		<g>
			<g>
				<path class="st1" d="M1128.21,311.19H953.99c-5.61,0-10.2-4.59-10.2-10.2V199.02c0-5.61,4.59-10.2,10.2-10.2h174.22
					c5.61,0,10.2,4.59,10.2,10.2v101.97C1138.41,306.6,1133.82,311.19,1128.21,311.19z"/>
			</g>
			<g>
				<path class="st3" d="M996.05,253.94v1.37c0,2.28-1.87,4.14-4.14,4.14h-31.99c-2.28,0-4.14-1.87-4.14-4.14v-1.37L996.05,253.94
					L996.05,253.94z"/>
			</g>
			<g>
				<rect x="955.78" y="237.39" class="st3" width="13.37" height="5.64"/>
			</g>
			<g>
				<rect x="955.78" y="245.55" class="st3" width="13.37" height="5.89"/>
			</g>
			<g>
				<rect x="971.66" y="237.39" class="st3" width="10.66" height="14.05"/>
				<path class="st4" d="M982.44,251.56h-10.91v-14.3h10.91V251.56z M971.78,251.31h10.41v-13.8h-10.41V251.31z"/>
			</g>
			<g>
				<rect x="984.83" y="237.39" class="st3" width="11.22" height="5.64"/>
			</g>
			<g>
				<rect x="984.83" y="245.55" class="st3" width="11.22" height="5.89"/>
			</g>
			<g>
				<path class="st3" d="M996.05,233.78v1.11h-40.28v-1.11c0-2.28,1.87-4.14,4.14-4.14h31.99
					C994.18,229.63,996.05,231.5,996.05,233.78z"/>
			</g>
			<g>
				<rect x="971.66" y="237.39" class="st3" width="10.66" height="14.05"/>
			</g>
			<g>
				<path class="st2" d="M1048.72,211.08v0.44c0,1.03-0.38,2.35-4.08,2.35c-2.74,0-3.92-0.74-3.92-2.24v-4.01
					c0-1.42,1.4-2.17,3.99-2.17c3.41,0,3.96,1.14,3.96,2.21v0.51h-3.13v-0.7c0-0.45-0.19-0.68-0.84-0.68
					c-0.64,0-0.85,0.21-0.85,0.68v4.33c0,0.44,0.14,0.74,0.84,0.74c0.67,0,0.87-0.25,0.87-0.77v-0.68h3.16V211.08z"/>
				<path class="st2" d="M1053.18,210.19v3.56h-3.1v-8.19h4.03c2.71,0,4.04,0.6,4.04,2.03v0.29c0,1.17-0.92,1.51-1.61,1.68
					c1,0.25,1.48,0.62,1.48,1.76c0,0.79-0.02,1.99,0.11,2.42h-3c-0.2-0.37-0.19-1.44-0.19-2.48c0-0.92-0.21-1.08-1.39-1.08h-0.37
					V210.19z M1053.19,208.95h0.38c1.04,0,1.46-0.17,1.46-0.93v-0.4c0-0.55-0.22-0.82-1.36-0.82h-0.48V208.95z"/>
				<path class="st2" d="M1066.26,210.14h-3.33v2.23h3.9l-0.37,1.38h-6.64v-8.19h6.62v1.39h-3.51v1.79h3.33V210.14z"/>
				<path class="st2" d="M1067.94,205.57h3.82c3.33,0,4.47,0.77,4.47,2.46v3.08c0,1.41-0.59,2.65-4.26,2.65h-4.03L1067.94,205.57
					L1067.94,205.57z M1071.05,212.48h0.61c1.22,0,1.42-0.4,1.42-1.04v-3.67c0-0.6-0.27-0.93-1.44-0.93h-0.58v5.64H1071.05z"/>
				<path class="st2" d="M1081.03,205.57v8.19h-3.1v-8.19H1081.03z"/>
				<path class="st2" d="M1084.46,206.96h-2.35v-1.39h7.82v1.39h-2.37v6.79h-3.1V206.96z"/>
			</g>
			<g>
				<path class="st5" d="M1102.17,211.49c-0.07,0.51-0.53,2.38-4.3,2.38c-4.27,0-4.53-2.44-4.53-4.37c0-2.33,1.15-4.21,4.74-4.21
					c3.82,0,4,1.88,4.03,2.33h-1.42c-0.03-0.28-0.15-1.68-2.64-1.68c-2.87,0-3.25,2.03-3.25,3.55c0,1.83,0.41,3.72,3.11,3.72
					c2.36,0,2.76-1.28,2.83-1.74h1.43V211.49z"/>
				<path class="st5" d="M1106.18,210.9l-1.33,2.85h-1.39l4.04-8.34h1.8l4.18,8.34h-1.49l-1.36-2.85H1106.18z M1110.32,210.27
					c-1.08-2.22-1.74-3.57-1.95-4.19h-0.05c-0.23,0.71-0.96,2.3-1.84,4.19H1110.32z"/>
				<path class="st5" d="M1116.82,209.81v3.95h-1.38v-8.34h4.02c2.68,0,4.04,0.8,4.04,2.11c0,1.26-1.18,1.8-2.23,1.97
					c1.62,0.27,2.04,1,2.04,2.14v0.33c0,0.71,0.04,1.34,0.24,1.79h-1.41c-0.22-0.38-0.23-1.15-0.23-1.81v-0.28
					c0-1.22-0.47-1.86-2.82-1.86H1116.82z M1116.82,209.19h2.37c2.08,0,2.86-0.64,2.86-1.66c0-0.88-0.8-1.5-2.73-1.5h-2.5V209.19z"
					/>
				<path class="st5" d="M1126.28,205.41h3.43c3.64,0,5.36,1.33,5.36,3.94c0,2.84-1.53,4.41-5.64,4.41h-3.15V205.41z
					 M1127.67,213.13h1.67c3.27,0,4.28-1.33,4.28-3.75c0-2.32-1.28-3.35-4.26-3.35h-1.7L1127.67,213.13L1127.67,213.13z"/>
			</g>
			<g>
				<path class="st2" d="M966.29,281.33h1.16v-2.45c0-0.41,0.2-0.61,0.6-0.61c0.4,0,0.6,0.2,0.6,0.61v3.05
					c0,0.2-0.06,0.36-0.17,0.46s-0.26,0.15-0.43,0.15h-4.73c-0.17,0-0.32-0.05-0.43-0.16s-0.17-0.25-0.17-0.45s0.06-0.35,0.17-0.45
					s0.26-0.15,0.43-0.15h1.76v-7.01h-1.76c-0.17,0-0.32-0.05-0.43-0.15s-0.17-0.25-0.17-0.45s0.06-0.36,0.17-0.46
					s0.26-0.16,0.43-0.16h2.96v8.23H966.29z"/>
				<path class="st2" d="M972.56,278.44v2.89h4.13c0.17,0,0.31,0.05,0.43,0.15s0.17,0.25,0.17,0.46c0,0.2-0.06,0.36-0.17,0.46
					s-0.26,0.15-0.43,0.15h-5.33v-3.95c0-0.91,0.45-1.36,1.36-1.36h3.37v-2.91h-4.12c-0.17,0-0.32-0.05-0.43-0.15
					s-0.17-0.25-0.17-0.45s0.06-0.36,0.17-0.46s0.26-0.16,0.43-0.16h3.98c0.2,0,0.38,0.02,0.54,0.07s0.3,0.14,0.44,0.27
					c0.15,0.14,0.25,0.29,0.3,0.45s0.07,0.37,0.07,0.63v2.48c0,0.27-0.02,0.48-0.07,0.63c-0.05,0.16-0.15,0.3-0.3,0.45
					c-0.14,0.13-0.29,0.22-0.44,0.28s-0.33,0.08-0.53,0.08h-3.4V278.44z"/>
				<path class="st2" d="M984.73,274.32h-4.12c-0.17,0-0.32-0.05-0.43-0.15s-0.17-0.25-0.17-0.45s0.06-0.36,0.17-0.46
					s0.26-0.16,0.43-0.16h4.12c0.35,0,0.63,0.12,0.86,0.35s0.34,0.52,0.34,0.86v2.33c0,0.26-0.03,0.48-0.1,0.66
					s-0.19,0.35-0.37,0.51c0.18,0.16,0.3,0.33,0.37,0.51s0.1,0.41,0.1,0.67v2.33c0,0.35-0.11,0.64-0.34,0.87s-0.51,0.35-0.86,0.35
					h-4.12c-0.17,0-0.32-0.05-0.43-0.16s-0.17-0.25-0.17-0.45s0.06-0.35,0.17-0.45s0.26-0.15,0.43-0.15h4.12v-2.02
					c0-0.58-0.2-0.87-0.6-0.87h-2.35c-0.17,0-0.32-0.05-0.43-0.16s-0.17-0.26-0.17-0.46c0-0.21,0.06-0.36,0.17-0.45
					c0.11-0.09,0.26-0.14,0.43-0.14h2.35c0.4,0,0.6-0.3,0.6-0.89V274.32z"/>
				<path class="st2" d="M990.45,278.25h2.33v-3.49c0-0.18,0.05-0.33,0.14-0.44s0.25-0.17,0.46-0.17s0.37,0.06,0.46,0.17
					s0.14,0.26,0.14,0.44v3.49c0.17,0,0.31,0.05,0.42,0.15s0.17,0.25,0.17,0.46s-0.06,0.36-0.17,0.46s-0.26,0.15-0.43,0.15v2.47
					c0,0.41-0.2,0.61-0.6,0.61c-0.21,0-0.36-0.05-0.46-0.15s-0.14-0.25-0.14-0.46v-2.47h-3.53v-5.74c0-0.41,0.2-0.62,0.6-0.62
					c0.21,0,0.36,0.06,0.46,0.17s0.14,0.26,0.14,0.44L990.45,278.25L990.45,278.25z"/>
				<path class="st2" d="M1008.32,274.32v2.91h2.21c0.4,0,0.72,0.11,0.96,0.33c0.15,0.13,0.25,0.28,0.3,0.42
					c0.05,0.15,0.07,0.35,0.07,0.61v2.6c0,0.21-0.02,0.38-0.06,0.52s-0.11,0.28-0.23,0.42c-0.13,0.16-0.28,0.27-0.44,0.33
					s-0.36,0.08-0.61,0.08h-2.67c-0.21,0-0.47-0.07-0.79-0.22l-0.46-0.21c-0.18-0.08-0.3-0.14-0.38-0.18s-0.15-0.1-0.21-0.18
					s-0.1-0.19-0.1-0.32c0-0.16,0.06-0.3,0.17-0.42s0.25-0.18,0.41-0.18c0.12,0,0.25,0.03,0.38,0.1l0.36,0.15
					c0.04,0.02,0.1,0.05,0.2,0.1s0.18,0.08,0.25,0.11s0.13,0.04,0.19,0.04h2.77v-2.89h-3.54v-5.33h4.14c0.17,0,0.31,0.05,0.43,0.15
					s0.17,0.26,0.17,0.46c0,0.2-0.06,0.35-0.17,0.45s-0.26,0.15-0.43,0.15L1008.32,274.32L1008.32,274.32z"/>
				<path class="st2" d="M1015.77,274.32v3.92h4.01c0.29,0,0.48,0.06,0.57,0.18s0.15,0.33,0.15,0.63v2.71c0,0.29-0.06,0.48-0.18,0.6
					s-0.32,0.17-0.6,0.17h-4.36c-0.29,0-0.49-0.06-0.61-0.17s-0.18-0.31-0.18-0.59v-8.05c0-0.41,0.17-0.62,0.52-0.62h0.72
					c0.16,0,0.29,0.06,0.4,0.18s0.17,0.27,0.17,0.43c0,0.18-0.06,0.32-0.17,0.43S1015.95,274.32,1015.77,274.32z M1019.3,279.46
					h-3.53v1.87h3.53V279.46z"/>
				<path class="st2" d="M1027.94,274.32h-3.53c0,0.15-0.05,0.29-0.16,0.42s-0.25,0.19-0.43,0.19s-0.33-0.06-0.44-0.19
					s-0.16-0.27-0.16-0.42v-0.6c0-0.16,0.05-0.3,0.16-0.42s0.25-0.19,0.44-0.19h5.33v3.52c0,0.22-0.01,0.37-0.04,0.45
					s-0.12,0.19-0.28,0.32l-1.68,1.46c-0.16,0.14-0.26,0.24-0.29,0.31s-0.05,0.21-0.05,0.42v2.34c0,0.41-0.2,0.61-0.6,0.61
					c-0.21,0-0.36-0.05-0.46-0.15s-0.14-0.25-0.14-0.46v-2.92c0-0.2,0.01-0.33,0.04-0.4s0.12-0.17,0.27-0.3l1.66-1.45
					c0.15-0.14,0.25-0.24,0.28-0.29s0.06-0.11,0.07-0.18s0.01-0.2,0.01-0.4L1027.94,274.32L1027.94,274.32z"/>
				<path class="st2" d="M1033.66,273.11h2.32c0.2,0,0.35,0.06,0.45,0.18s0.15,0.26,0.15,0.44v3.5c0.35,0,0.65,0.11,0.88,0.33
					c0.22,0.2,0.32,0.5,0.32,0.89v2.88c0,0.38-0.11,0.67-0.32,0.89s-0.51,0.33-0.88,0.33h-3.53c-0.24,0-0.45-0.05-0.64-0.15
					s-0.32-0.24-0.42-0.42s-0.15-0.4-0.15-0.64v-2.88c0-0.39,0.11-0.68,0.33-0.89c0.23-0.22,0.53-0.33,0.87-0.33v-3.5
					c0-0.18,0.05-0.32,0.15-0.44C1033.31,273.17,1033.46,273.11,1033.66,273.11z M1033.05,281.33h3.52v-2.89h-3.52V281.33z
					 M1034.26,277.23h1.13v-2.91h-1.13V277.23z"/>
				<path class="st2" d="M1053.87,281.33v-3.9h-4.12c-0.17,0-0.31-0.06-0.43-0.18s-0.18-0.27-0.18-0.43v-3.09
					c0-0.17,0.06-0.31,0.17-0.43s0.26-0.18,0.43-0.18h4.73c0.17,0,0.31,0.06,0.42,0.18s0.17,0.27,0.17,0.43v8.21
					c0,0.17-0.06,0.31-0.17,0.43s-0.25,0.18-0.43,0.18h-0.6c-0.18,0-0.32-0.06-0.43-0.18s-0.17-0.26-0.17-0.43
					c0-0.18,0.06-0.33,0.17-0.44S1053.69,281.33,1053.87,281.33z M1050.34,276.22h3.53v-1.9h-3.53V276.22z"/>
				<path class="st2" d="M1062.51,274.32h-3.53c0,0.15-0.05,0.29-0.16,0.42s-0.25,0.19-0.43,0.19s-0.33-0.06-0.44-0.19
					s-0.16-0.27-0.16-0.42v-0.6c0-0.16,0.05-0.3,0.16-0.42s0.25-0.19,0.44-0.19h5.33v3.52c0,0.22-0.01,0.37-0.04,0.45
					s-0.12,0.19-0.28,0.32l-1.68,1.46c-0.16,0.14-0.26,0.24-0.29,0.31s-0.05,0.21-0.05,0.42v2.34c0,0.41-0.2,0.61-0.6,0.61
					c-0.21,0-0.36-0.05-0.46-0.15s-0.14-0.25-0.14-0.46v-2.92c0-0.2,0.01-0.33,0.04-0.4s0.12-0.17,0.27-0.3l1.66-1.45
					c0.15-0.14,0.25-0.24,0.28-0.29s0.06-0.11,0.07-0.18s0.01-0.2,0.01-0.4L1062.51,274.32L1062.51,274.32z"/>
				<path class="st2" d="M1068.23,278.25h2.33v-3.49c0-0.18,0.05-0.33,0.14-0.44s0.25-0.17,0.46-0.17s0.37,0.06,0.46,0.17
					s0.14,0.26,0.14,0.44v3.49c0.17,0,0.31,0.05,0.42,0.15s0.17,0.25,0.17,0.46s-0.06,0.36-0.17,0.46s-0.26,0.15-0.43,0.15v2.47
					c0,0.41-0.2,0.61-0.6,0.61c-0.21,0-0.36-0.05-0.46-0.15s-0.14-0.25-0.14-0.46v-2.47h-3.53v-5.74c0-0.41,0.2-0.62,0.6-0.62
					c0.21,0,0.36,0.06,0.46,0.17s0.14,0.26,0.14,0.44v4.53H1068.23z"/>
				<path class="st2" d="M1076.26,274.32v3.92h4.01c0.29,0,0.48,0.06,0.57,0.18s0.15,0.33,0.15,0.63v2.71c0,0.29-0.06,0.48-0.18,0.6
					s-0.32,0.17-0.6,0.17h-4.36c-0.29,0-0.49-0.06-0.61-0.17s-0.18-0.31-0.18-0.59v-8.05c0-0.41,0.17-0.62,0.52-0.62h0.72
					c0.16,0,0.29,0.06,0.4,0.18s0.17,0.27,0.17,0.43c0,0.18-0.06,0.32-0.17,0.43S1076.44,274.32,1076.26,274.32z M1079.79,279.46
					h-3.53v1.87h3.53V279.46z"/>
				<path class="st2" d="M1093.55,274.32v3.92h4.01c0.29,0,0.48,0.06,0.57,0.18s0.15,0.33,0.15,0.63v2.71c0,0.29-0.06,0.48-0.18,0.6
					s-0.32,0.17-0.6,0.17h-4.36c-0.29,0-0.49-0.06-0.61-0.17s-0.18-0.31-0.18-0.59v-8.05c0-0.41,0.17-0.62,0.52-0.62h0.72
					c0.16,0,0.29,0.06,0.4,0.18s0.17,0.27,0.17,0.43c0,0.18-0.06,0.32-0.17,0.43S1093.73,274.32,1093.55,274.32z M1097.07,279.46
					h-3.53v1.87h3.53V279.46z"/>
				<path class="st2" d="M1105.72,274.32h-3.53c0,0.15-0.05,0.29-0.16,0.42s-0.25,0.19-0.43,0.19s-0.33-0.06-0.44-0.19
					s-0.16-0.27-0.16-0.42v-0.6c0-0.16,0.05-0.3,0.16-0.42s0.25-0.19,0.44-0.19h5.33v3.52c0,0.22-0.01,0.37-0.04,0.45
					s-0.12,0.19-0.28,0.32l-1.68,1.46c-0.16,0.14-0.26,0.24-0.29,0.31s-0.05,0.21-0.05,0.42v2.34c0,0.41-0.2,0.61-0.6,0.61
					c-0.21,0-0.36-0.05-0.46-0.15s-0.14-0.25-0.14-0.46v-2.92c0-0.2,0.01-0.33,0.04-0.4s0.12-0.17,0.27-0.3l1.66-1.45
					c0.15-0.14,0.25-0.24,0.28-0.29s0.06-0.11,0.07-0.18s0.01-0.2,0.01-0.4L1105.72,274.32L1105.72,274.32z"/>
				<path class="st2" d="M1114.36,281.33v-3.9h-4.12c-0.17,0-0.31-0.06-0.43-0.18s-0.18-0.27-0.18-0.43v-3.09
					c0-0.17,0.06-0.31,0.17-0.43s0.26-0.18,0.43-0.18h4.73c0.17,0,0.31,0.06,0.42,0.18s0.17,0.27,0.17,0.43v8.21
					c0,0.17-0.06,0.31-0.17,0.43s-0.25,0.18-0.43,0.18h-0.6c-0.18,0-0.32-0.06-0.43-0.18s-0.17-0.26-0.17-0.43
					c0-0.18,0.06-0.33,0.17-0.44S1114.18,281.33,1114.36,281.33z M1110.83,276.22h3.53v-1.9h-3.53V276.22z"/>
				<path class="st2" d="M1120.08,278.25h2.33v-3.49c0-0.18,0.05-0.33,0.14-0.44s0.25-0.17,0.46-0.17s0.37,0.06,0.46,0.17
					s0.14,0.26,0.14,0.44v3.49c0.17,0,0.31,0.05,0.42,0.15s0.17,0.25,0.17,0.46s-0.06,0.36-0.17,0.46s-0.26,0.15-0.43,0.15v2.47
					c0,0.41-0.2,0.61-0.6,0.61c-0.21,0-0.36-0.05-0.46-0.15s-0.14-0.25-0.14-0.46v-2.47h-3.53v-5.74c0-0.41,0.2-0.62,0.6-0.62
					c0.21,0,0.36,0.06,0.46,0.17s0.14,0.26,0.14,0.44v4.53H1120.08z"/>
			</g>
			<g>
				<path class="st2" d="M1093.43,291.6h2.58c0.16,0,0.31,0.04,0.44,0.12c0.13,0.08,0.24,0.19,0.32,0.32s0.12,0.28,0.12,0.44v5.14
					c0,0.16-0.04,0.31-0.12,0.45s-0.18,0.24-0.32,0.32s-0.28,0.12-0.44,0.12h-2.58c-0.16,0-0.31-0.04-0.44-0.12
					s-0.24-0.18-0.32-0.32s-0.12-0.29-0.12-0.45v-5.14c0-0.16,0.04-0.31,0.12-0.44s0.19-0.24,0.32-0.32
					C1093.13,291.64,1093.28,291.6,1093.43,291.6z M1093.43,297.62h2.58v-5.14h-2.58V297.62z"/>
				<path class="st2" d="M1101.5,297.62h0.85v-1.79c0-0.3,0.15-0.45,0.44-0.45c0.29,0,0.44,0.15,0.44,0.45v2.24
					c0,0.15-0.04,0.26-0.13,0.33c-0.08,0.07-0.19,0.11-0.31,0.11h-3.46c-0.13,0-0.23-0.04-0.32-0.11c-0.08-0.08-0.13-0.19-0.13-0.33
					c0-0.15,0.04-0.26,0.13-0.33c0.08-0.07,0.19-0.11,0.32-0.11h1.29v-5.14h-1.29c-0.13,0-0.23-0.04-0.32-0.11
					c-0.08-0.07-0.13-0.18-0.13-0.33s0.04-0.26,0.13-0.34c0.08-0.08,0.19-0.11,0.32-0.11h2.17L1101.5,297.62L1101.5,297.62z"/>
				<path class="st2" d="M1109.47,292.36l-3.38,5.84c-0.06,0.1-0.12,0.18-0.18,0.23c-0.06,0.05-0.14,0.08-0.25,0.08
					s-0.21-0.04-0.3-0.13c-0.09-0.08-0.14-0.18-0.14-0.29c0-0.08,0.02-0.15,0.05-0.22s0.08-0.15,0.15-0.25l3.29-5.69
					c0.07-0.12,0.14-0.21,0.2-0.26c0.06-0.05,0.14-0.08,0.24-0.08c0.07,0,0.14,0.02,0.21,0.06s0.12,0.09,0.16,0.15
					s0.06,0.14,0.06,0.22C1109.57,292.13,1109.54,292.25,1109.47,292.36z"/>
				<path class="st2" d="M1112.44,295.5v2.12h3.03c0.13,0,0.23,0.04,0.31,0.11c0.08,0.07,0.13,0.18,0.13,0.33s-0.04,0.26-0.13,0.33
					c-0.08,0.07-0.19,0.11-0.31,0.11h-3.91v-2.89c0-0.67,0.33-1,1-1h2.47v-2.13H1112c-0.13,0-0.23-0.04-0.32-0.11
					c-0.08-0.07-0.13-0.18-0.13-0.33s0.04-0.26,0.13-0.34c0.08-0.08,0.19-0.11,0.32-0.11h2.92c0.15,0,0.28,0.02,0.39,0.05
					c0.11,0.04,0.22,0.1,0.32,0.2c0.11,0.1,0.18,0.21,0.22,0.33c0.04,0.12,0.05,0.27,0.05,0.46v1.82c0,0.2-0.02,0.35-0.05,0.46
					c-0.04,0.11-0.11,0.22-0.22,0.33c-0.11,0.1-0.21,0.17-0.32,0.2c-0.11,0.04-0.24,0.06-0.39,0.06L1112.44,295.5L1112.44,295.5z"/>
				<path class="st2" d="M1118.77,292.49v2.88h2.94c0.21,0,0.35,0.04,0.42,0.13c0.07,0.09,0.11,0.24,0.11,0.46v1.99
					c0,0.21-0.04,0.35-0.13,0.44c-0.09,0.08-0.23,0.13-0.44,0.13h-3.2c-0.21,0-0.36-0.04-0.44-0.13c-0.09-0.08-0.13-0.23-0.13-0.44
					v-5.9c0-0.3,0.13-0.45,0.38-0.45h0.53c0.12,0,0.21,0.04,0.29,0.13c0.08,0.09,0.12,0.2,0.12,0.32c0,0.13-0.04,0.23-0.12,0.32
					C1119.01,292.44,1118.9,292.49,1118.77,292.49z M1121.35,296.25h-2.58v1.37h2.58V296.25z"/>
			</g>
			<g>
				<path class="st2" d="M964.26,298.79l-0.16,0.54c-0.12,0.42-0.59,0.59-0.96,0.59c-0.53,0-1.08-0.4-1.08-0.96
					c0-0.34,0.19-0.88,0.37-1.38l1.57-4.38c0.23-0.62,0.53-0.96,1.13-0.96h0.74c0.6,0,0.9,0.34,1.13,0.96l1.57,4.38
					c0.17,0.49,0.37,1.04,0.37,1.38c0,0.55-0.54,0.96-1.08,0.96c-0.37,0-0.83-0.17-0.96-0.59l-0.16-0.54H964.26z M965.51,294.61
					h-0.02l-0.8,2.7h1.62L965.51,294.61z"/>
				<path class="st2" d="M974.69,297.88c0.61,0,1.02,0.35,1.02,0.96s-0.41,0.96-1.02,0.96h-3.49c-0.91,0-1.35-0.42-1.35-1.41v-4.85
					c0-0.79,0.45-1.27,1.18-1.27s1.18,0.48,1.18,1.27v4.34L974.69,297.88L974.69,297.88z"/>
				<path class="st2" d="M976.7,293.8c0-0.99,0.43-1.41,1.35-1.41h3.76c0.71,0,1.03,0.35,1.03,0.86s-0.32,0.86-1.03,0.86h-2.74v1.04
					h2.2c0.71,0,1.03,0.35,1.03,0.86s-0.32,0.86-1.03,0.86h-2.2v1.18h2.85c0.71,0,1.03,0.35,1.03,0.86c0,0.51-0.32,0.86-1.03,0.86
					h-3.87c-0.91,0-1.35-0.42-1.35-1.41V293.8z"/>
				<path class="st2" d="M983.83,293.97c-0.15-0.24-0.22-0.43-0.22-0.64c0-0.66,0.52-1.08,1.09-1.08c0.36,0,0.76,0.16,0.96,0.52
					l0.85,1.55l0.85-1.55c0.2-0.36,0.6-0.52,0.96-0.52c0.57,0,1.09,0.42,1.09,1.08c0,0.21-0.06,0.4-0.22,0.64l-1.31,1.99l1.44,2.2
					c0.15,0.24,0.28,0.45,0.28,0.71c0,0.77-0.7,1.05-1.14,1.05c-0.43,0-0.8-0.24-1.04-0.65l-0.9-1.6l-0.9,1.6
					c-0.24,0.41-0.61,0.65-1.04,0.65c-0.44,0-1.14-0.28-1.14-1.05c0-0.26,0.12-0.47,0.28-0.71l1.44-2.2L983.83,293.97z"/>
			</g>
		</g>
		<g>
			<g>
				<circle class="st1" cx="1385.1" cy="250" r="73.38"/>
				<path class="st6" d="M1385.1,323.88c-40.74,0-73.88-33.14-73.88-73.88s33.14-73.88,73.88-73.88s73.88,33.14,73.88,73.88
					S1425.84,323.88,1385.1,323.88z M1385.1,177.12c-40.19,0-72.88,32.7-72.88,72.88c0,40.19,32.7,72.88,72.88,72.88
					s72.88-32.7,72.88-72.88C1457.98,209.81,1425.29,177.12,1385.1,177.12z"/>
			</g>
			<g>
				<path class="st1" d="M1385.1,339.97c-49.61,0-89.97-40.36-89.97-89.97s40.36-89.97,89.97-89.97s89.97,40.36,89.97,89.97
					S1434.71,339.97,1385.1,339.97z M1385.1,168.03c-45.2,0-81.97,36.77-81.97,81.97s36.77,81.97,81.97,81.97
					s81.97-36.77,81.97-81.97S1430.3,168.03,1385.1,168.03z"/>
			</g>
			<g>
				<path class="st3" d="M1421.24,261.07c-0.68-1.9-1.76-3.63-3.23-5.21c-1.46-1.57-3.37-2.94-5.69-4.1
					c-2.33-1.16-5.15-2.08-8.46-2.77c4.83-1.45,8.46-3.7,10.93-6.71c2.47-3.02,3.71-6.44,3.71-10.27c0-2.2-0.4-4.32-1.2-6.32
					c-0.79-2.01-1.96-3.83-3.51-5.48c-1.56-1.66-3.48-3.1-5.77-4.34c-2.29-1.24-4.92-2.19-7.91-2.86c-1.5-0.35-3.18-0.62-5.04-0.84
					v-18.05h-6.96v17.58c-1.18-0.03-2.42-0.05-3.7-0.05h-3.28v-17.53h-6.96v17.53h-24.76v2.08h3.05c3.06,0,5.37,0.82,6.93,2.47
					c1.15,1.28,1.72,4.26,1.72,8.95v49.27c0,4.27-0.46,7.07-1.37,8.38c-1.52,2.03-3.95,3.04-7.29,3.04h-3.05v2.08h24.76v16.53h6.96
					v-16.53h6.97v16.53h6.96v-16.74c5.46-0.33,9.74-1.05,12.86-2.16c2.22-0.82,4.23-1.9,6-3.23c1.78-1.33,3.28-2.81,4.51-4.45
					c1.24-1.63,2.18-3.37,2.84-5.23c0.65-1.85,0.98-3.72,0.98-5.6C1422.24,264.96,1421.91,262.96,1421.24,261.07z M1372.55,216.67
					c3.11-0.82,6.69-1.24,10.75-1.24c3.71,0,6.97,0.43,9.8,1.29c2.83,0.87,5.2,2.03,7.12,3.49c1.91,1.45,3.35,3.18,4.33,5.14
					c0.98,1.97,1.46,4.05,1.46,6.22c0,1.46-0.21,2.86-0.6,4.22c-0.4,1.35-0.98,2.6-1.74,3.76c-0.76,1.17-1.7,2.21-2.84,3.16
					c-1.13,0.93-2.43,1.7-3.9,2.3c-2.86,1.17-7.22,1.75-13.08,1.75c-4.5,0-8.27-0.26-11.29-0.79v-29.3H1372.55z M1406.99,274.23
					c-0.94,1.93-2.34,3.62-4.22,5.07c-1.87,1.44-4.19,2.58-6.95,3.41c-2.77,0.82-5.97,1.24-9.59,1.24c-4.53,0-9.1-0.51-13.68-1.52
					v-31.27c1.07-0.2,2.48-0.33,4.22-0.4c1.72-0.08,3.85-0.11,6.36-0.11c4.3,0,8.03,0.44,11.19,1.35c3.17,0.9,5.79,2.14,7.89,3.69
					c2.09,1.55,3.64,3.4,4.66,5.51c1.01,2.13,1.52,4.39,1.52,6.83C1408.39,270.23,1407.93,272.3,1406.99,274.23z"/>
			</g>
		</g>
	</g>
</g>
</svg>
