<svg xmlns="http://www.w3.org/2000/svg" viewBox="0 0 2370.3 2221.6" xmlns:v="https://vecta.io/nano"><path d="M2356.7 393.2l-183.8-261.7c-10.3-14.6-25.4-25.1-42.8-29.5L1737.8 2.3c-15.7-4-32.2-2.6-47.1 3.8l-326 142c-8.6 3.8-16.1 9.7-21.8 17.3l-.2.2L1185 379.2l-157.6-213.6-.2-.2c-5.6-7.6-13.1-13.5-21.8-17.3L679.6 6.1c-14.8-6.5-31.3-7.8-47-3.8l-392.5 99.6c-17.3 4.4-32.5 14.9-42.8 29.5L13.5 393.2c-12.2 17.3-16.4 39-11.6 59.6L150.4 1097c2.2 9.4 6.2 18.3 11.8 26.1l206 285 349.9 364 467 449.6 467-449.6 349.9-364 206-285c5.6-7.8 9.7-16.7 11.8-26.1l148.6-644.2c4.7-20.6.5-42.3-11.7-59.6z" fill="#231f20"/><path d="M662.1,71.6c2.8-9.5,9.9-10.8,15.9-2.8l458.7,615.7c5.9,7.9,3.2,17.3-6.1,20.7l-719,267.1c-9.3,3.4-14.6-1.5-11.8-11L662.1,71.6Z" fill="#1baaaa"/><path d="M44 444.2c-4.7-8.9-1.9-19.9 6.5-25.4L612.3 62.3c8.4-5.3 12.9-1.9 10.1 7.6L354.6 979.8c-2.8 9.5-9 10.2-13.8 1.5L44 444.2zM520 75.8c8.4-5.3 7.3-7.6-2.2-5.2l-264.1 67.1c-9.6 2.4-22.1 11.1-27.8 19.2L102.9 332c-5.7 8.1-3.5 10.4 4.9 5.1L520 75.8z" fill="#0dba8a"/><path d="M1165.9 1585.8c0 9.9-6.5 13.2-14.5 7.3L397 1034.3c-8-5.9-6.9-13.5 2.4-17L1149 739c9.3-3.5 16.9 1.8 16.9 11.7v835.1z" fill="#097e7b"/><path d="M778.6,1777.5c-7.1-6.9-5.2-14.7,4.3-17.4l366-103.8c9.5-2.7,17.3,3.2,17.3,13.1l-.2,463.4c0,9.9-5.8,12.4-13,5.5l-374.5-360.7Z" fill="#0dba8a"/><path d="M380 1087.2c-1-9.8 4.7-13.1 12.7-7.2l720.5 532.1c8 5.9 6.7 12.9-2.8 15.6L752 1729.4c-9.5 2.7-22.9-.9-29.8-8.1L423.8 1411c-6.9-7.1-13.3-21-14.3-30.9L380 1087.2z" fill="#1baaaa"/><path d="M357.9 1335.2c5.7 8.1 9.5 6.7 8.5-3.2l-27.6-273.6c-1-9.8-9.4-15.1-18.7-11.6l-114.2 42.5c-9.3 3.4-12.2 12.9-6.5 21l158.4 224.9zm-181.4-294.6c1.7 8.4 9.8 13.8 18.2 12.1.9-.2 1.8-.5 2.7-.8l98.2-36.5c9.3-3.4 13-13.4 8.2-22L75.1 579.2c-4.8-8.7-6.9-7.9-4.7 1.8l106 459.7zM1155.4 646c5.9 7.9 10.8 6.3 10.8-3.6v-209c0-9.9-4.8-24.5-10.8-32.4l-150.7-202.2c-5.9-7.9-18.2-17.7-27.3-21.6L740.1 73.9c-9.1-4-11.7-.7-5.8 7.2L1155.2 646z" fill="#0dba8a"/><path d="M1708.2,71.6c-2.8-9.5-9.9-10.8-15.9-2.8l-458.6,615.7c-5.9,7.9-3.2,17.3,6.1,20.7l719,267.1c9.3,3.4,14.6-1.5,11.8-11L1708.2,71.6Z" fill="#1baaaa"/><path d="M2326.3 444.2c4.7-8.9 1.9-19.9-6.5-25.4L1757.9 62.3c-8.4-5.3-12.9-1.9-10.1 7.6l267.8 909.9c2.8 9.5 9 10.2 13.8 1.5l296.9-537.2zM1850.2 75.8c-8.4-5.3-7.4-7.6 2.2-5.2l264.1 67.1c9.6 2.4 22.1 11.1 27.8 19.2l123 175.1c5.7 8.1 3.5 10.4-4.9 5.1L1850.1 75.8z" fill="#0dba8a"/><path d="M1204.3 1585.8c0 9.9 6.5 13.2 14.5 7.3l754.4-558.8c8-5.9 6.9-13.5-2.4-17L1221.2 739c-9.3-3.5-16.9 1.8-16.9 11.7v835.1z" fill="#097e7b"/><path d="M1591.6,1777.5c7.1-6.9,5.2-14.7-4.3-17.4l-366-103.8c-9.5-2.7-17.3,3.2-17.3,13.1l.2,463.4c0,9.9,5.8,12.4,13,5.5l374.5-360.7Z" fill="#0dba8a"/><path d="M1990.3,1087.2c1-9.8-4.7-13.1-12.7-7.2l-720.5,532.1c-8,5.9-6.7,12.9,2.8,15.6l358.4,101.7c9.5,2.7,22.9-.9,29.8-8.1l298.4-310.3c6.9-7.1,13.3-21,14.3-30.9l29.5-292.9Z" fill="#1baaaa"/><path d="M2012.3 1335.2c-5.7 8.1-9.6 6.7-8.6-3.2l27.6-273.6c1-9.8 9.4-15.1 18.7-11.6l114.2 42.5c9.3 3.4 12.2 12.9 6.5 21l-158.4 224.9zm181.5-294.6c-1.7 8.4-9.8 13.8-18.2 12.1-.9-.2-1.8-.5-2.7-.8l-98.2-36.5c-9.3-3.4-13-13.4-8.2-22l228.7-414.2c4.8-8.7 6.9-7.9 4.7 1.8l-106 459.7zM1214.9 646c-5.9 7.9-10.8 6.3-10.8-3.6v-209c0-9.9 4.8-24.5 10.8-32.4l150.7-202.2c5.9-7.9 18.2-17.7 27.3-21.6l237.3-103.4c9.1-4 11.7-.7 5.8 7.2l-420.9 565z" fill="#0dba8a"/><path d="M1107.7 1570.2l-216.5 55.6-5.1-151.4 83.1-21.4c14-3.6 22.4-17.9 18.8-31.9L868 954.2c-6.1-23.5-30.1-37.6-53.6-31.5l-95.6 24.6L685.5 818 900 762.8l-44.7-174.1 122.4-31.4 44.8 173.5 64.8-16.6-44.7-174.1 122.4-31.4 45 174.6 8.6-2.2a303.54 303.54 0 0 1 74.1-9.5c43.6 0 85.8 10 122.1 28.8l6.7 3.6 1.2.7.6.3 1.6 1 .4.3 1.1.6.5.4 1.1.6.5.4.8.5.5.3 1.1.6.7.5 1 .7.5.3 1 .7 1.8 1.1 2.3 1.4.6.3 1.7 1 .9.6.5.3.9.6.5.3 1.4 1 .4.3.9.6.4.3.9.6.2.2.8.5.7.6.8.6.4.3.7.6.3.2.7.5 1.3 1h.2c.3.4.6.6.9.8.6.4 1.1.8 1.6 1.3l1.3 1.1h0c28.2 23.3 48.8 54.4 59.4 89.3l.3.5.3 1.1.6 1.9.6 1.2.5 1.7c.3 1.1.7 2.3 1 3.6.3 1.1.6 2.2.8 3.2l1 1.8v1.4c0 .3.2.6.2.9l.4.7.3 1.4a185.56 185.56 0 0 1-9.5 109.7l-1.2 3.1h-.2l-.7 1.6-.5 1.1-2.1 4.6-.5.9-.2.4-.5.9-.2.4-.5 1-.2.4-.7 1.4-.3.5-.5.9-1.2 2.1-.7 1.2-.5 1-.3.5-.5 1-.3.5-.5 1-.4.7-.6 1.1-.3.5-.6 1.1-.3.5-.8 1.4-.4.5-.6 1.1-.5.7-.7 1.1-.4.5-.7 1.2-.4.5-.7 1.1-.4.5-.7 1.1-.4.5-.6 1-1.8 2.9h-.2c-4.2 6.3-8.7 12.3-13.4 18.1 26.2 5.2 51.5 14.1 75.3 26.3l.3.2.3.2.3.2c.4.2 1 .5 1.7.9l.5.3 1.5.8.7.4 1.3.7.9.5 1.3.7.7.4 1 .6.6.3 1.3.7.6.3 1.3.7 2.6 1.4 1.1.7.6.3 1.7 1 .5.4 1.1.7.5.4 1.1.7.5.4 1.2.7 2.2 1.6 1 .7.5.4 1 .7.5.4 1 .6 2.1 1.5.5.7.5.3.9.7.5.3 1.5 1.1.3.2.9.6.4.3.9.6.5.4.7.5 1.2.9c.6.4 1.2.9 1.8 1.3l1.1.9 1.7 1.3v.2c31.7 26.2 54.8 61 66.6 100.2l.2.4.3.9c.2.7.4 1.4.7 2.2 0 .1 0 .2.1.4l1.2 2.2v2.1l.3 2.7v.3c.3 1 .5 1.9.7 2.8v.2l.2.4 1 2v1.4l.2.9.4.7.3 1.4c8.9 40.9 5.2 83.5-10.5 122.3h0l-1.1 2.9c-.2.3-.3.7-.4 1l-.7 1.5-.5 1.2-.2.5-.7 1.5-.3.5-.4 1-.4.7-.5 1-.3.5-.5 1-.3.5-.5 1-.3.5-.5 1-.3.5-.5 1-.3.5-.2.5-.3.8-.6 1.1-.2.6-.8 1.4-.4.7-.6 1-.4.7-.6 1-.4.8-.7 1.1-.3.6-.7 1.1-2.2 4.1-.8 1.3-.3.6-.7 1.2-.3.6-.9 1.5-.4.7-.7 1.3-2.7 4.3-2 2.9h0c-19.7 29.5-45.3 55.3-76 76.6-32.2 22.3-68.1 38.6-106.1 48.3l-34.1 8.8 44.9 174.9-122.3 31.5-44.8-174.2-64.8 16.6 44.8 174.2-122.3 31.5-45.2-173.5zm86.2-175l67.1-17.5 60.2-15.6c41.6-10.7 78.4-33.4 101.1-62.4l1.1-1.4.2-.2 3.2-4.5.4-.7.2-.3v-.2c.1 0 .3-.3.3-.3l.4-.7v-.2c.1 0 .5-.7.5-.7l.4-.8.5-.6.2-.3.4-.6h0l.4-.5.2-.3.4-.5.2-.3.4-.5.2-.3.4-.5.2-.3.4-.5.2-.3.4-.5.2-.3.4-.5.2-.3.4-.5.2-.3.4-.5.3-.5.2-.3.3-.6.4-.8.4-.7.8-1.5c8.2-16.2 11-34.7 7.7-52.6l-.2-.3-.3-1.5-5.2-9.4 2.2-.7c-5.9-17.2-17.2-32-32.2-42.1h-.1l-.3-.3c-.5-.3-1-.6-1.4-.9l-.8-.6-.5-.3-.6-.3-.5-.4-.3-.2-.5-.4-.3-.2-.5-.4-.3-.2-.6-.4-.3-.2-.5-.3-5.2-2.8-.7-.4h-.2l-.7-.5h-.2c0-.1-.8-.5-.8-.5l-.7-.3-.3-.2-.8-.4-.3-.2-.7-.3h-.2l-.3-.2-.8-.4h-.4c0-.1-.7-.5-.7-.5l-1.4-.5-.7-.3-1.1-.5c-19.4-8.3-42.3-12.7-66.1-12.7-17.7 0-35.3 2.3-52.5 6.8l-74.8 19-52.7 13.4 54.3 211.2zm-85.9-334.8l36.6-9.5 69.4-18c34.7-8.9 65.1-28.8 83.6-54.6l.8-1.1.4-.5.2-.3.4-.6.2-.3.5-.6.2-.3.4-.6h0l.4-.6.2-.3.4-.5.2-.3.4-.5.2-.3.4-.5.2-.3.4-.5.2-.3.4-.5.2-.3.4-.5.2-.3.4-.5.3-.5.2-.3.3-.5.2-.4v-.2c.1 0 .2-.3.2-.3l.3-.4v-.3l.4-.5v-.3l.3-.4v-.3l.4-.5v-.2l.5-.7.2-.7.7-1.1v-.2l.7-1.4c6.9-15.2 8.8-32.2 5.5-48.6-.2-.4-.3-.8-.4-1.3l-.7-1.2-.2-2c0-.2 0-.4-.1-.6h0c0-.3-.1-.5-.2-.7s0-.2 0-.3l-.3-.5s-.4-1.3-.5-1.4l-.2-.3-.3-.9c-4.9-16.1-14.7-30.3-28.2-40.5-.4-.3-.8-.6-1-.7h0l-.5-.3-.7-.4-.8-.5-.2-.2h-.2c0-.1-.2-.2-.2-.2l-.6-.3h-.2c0-.1-.4-.4-.4-.4h-.2c0-.1-1.1-.8-1.1-.8l-.2-.2-.2-.2-.3-.2-.5-.3-.3-.2-.5-.3-.3-.2-.5-.3-.6-.3-.5-.4-.3-.2-.5-.4-.3-.2-.5-.3-2.5-1.3-1.8-1-.8-.4h-.2c0-.1-1.6-1-1.6-1h-.2l-.3-.3h-.2l-1-.5h-.1c-17.4-8.4-37.8-12.8-59-12.8-13.7 0-27.3 1.8-40.5 5.2l-76.7 19.5-29.3 7.4 49.7 192.8z" fill="#fff"/><path d="M1158.2 520.3l45 174.6 17.8-4.5c23.4-6 47.5-9.1 71.7-9.2 42.7 0 83.2 9.8 117.7 27.7l1.8 1h0l.9.5 1.2.7.6.3 1.2.7.6.3 1.1.7.6.3 1.1.7.5.4 1.1.6.5.4 1.1.6.5.4 1.1.6.5.3 1.1.6.5.3 1 .7.5.3 1 .7.5.3.9.6.5.3 1 .6.5.3 1 .6.5.3 1 .6.5.3.9.6.5.3.9.6.5.3.9.6.4.3.9.6.4.3.9.6.4.3.8.5.4.3.7.6.4.3.7.6.4.3.9.6 1.1.8c.8.7 1.7 1.3 2.5 1.9h0c27.6 22.6 47.8 52.8 58 87h0v.2h0v.2h0v.2h0l.9 2.9v.2l.6.9c.4 1.3.8 2.7 1.1 4.1.4 1.4.7 2.8 1 4.1l.4.8h0 0v.4c.3.9.5 1.9.7 2.9h0v.2h0v.2h0v.3c7.5 34.8 4.4 71.1-9 104.1h0l-1.2 3-.6 1.3-.4 1-.2.4-.4.9-.2.4-.4.9-.2.4-.4.9-.2.4-.5.9-.2.4-.5.9-.2.4-.5.9-.2.4-.5.9-.3.5-.5.9-.3.5-.6 1-.3.5-.6 1-.3.5-.5 1-.3.5-.5 1-.3.5-.5 1-.3.5-.6 1.1-.3.5-.6 1.1-.3.5-.6 1.1-.4.5-.6 1.1-.4.5-.7 1.1-.4.5-.7 1.1-.4.5-.7 1.1-.4.5-.7 1.1-.4.5-.7 1.1-.5.8h0l-1.2 1.7c-7.2 10.6-15.2 20.6-23.9 30 31.1 4.3 61.3 13.8 89.2 28.2.7.4 1.3.7 2 1.1h0l.9.6 1.3.7.7.4 1.3.7.7.4 1.3.7.7.4 1.3.7.6.3 1.3.7.6.3 1.3.7.6.3 1.2.7.6.3 1.1.7.6.3 1.1.7.5.4 1.1.7.5.4 1.1.7.5.4 1.1.7.5.4 1 .8.5.4 1 .7.5.4 1 .7.5.4 1 .7.5.4.6.9.5.3 1 .7.5.3.9.7.5.3.9.7.4.3.9.6.4.3.9.6.4.3.9.7 1.3 1 2.8 2.2h0c31.1 25.4 53.8 59.4 65.3 97.8v.2h0v.2h0v.2h0c.4 1.2.6 2.2 1 3.3v.2l.6 1c0 1.8.3 3.4.4 4.3.5 1.5.8 3.1 1.2 4.6l.2.3h0v.2h0v.2h0v.2h0v.2h0v.2h0v.2h0v.3l.7 3.2h0v.2h0v.2h0v.2h0v.2c8.4 39.2 4.9 80-10.2 117.1h0c-.4 1.2-.9 2.3-1.4 3.4l-.6 1.4-.5 1.1-.2.4-.4 1-.3.5-.4 1-.3.5-.5 1-.3.5-.5 1-.3.5-.5 1-.3.5-.5 1-.3.5-.5 1-.3.5-.5 1-.2.6-.6 1.1-.2.6-.6 1.1-.3.6-.6 1.1-.3.6-.6 1.1-.3.6-.7 1.1-.3.6-.7 1.1-.3.6-.7 1.2-.3.6-.7 1.2-.3.6-.7 1.3-.3.6-.7 1.3-.3.6-.7 1.3-.4.7-.7 1.3-.4.7-.8 1.3-.4.7-.8 1.3-.6.9h0l-1.3 1.9c-37.6 56.2-99.8 101.3-176.7 121l-43.2 11.2 44.9 174.8-104 26.8-43.1-173.8-83.2 21.3 44.8 174.2-104 26.7-45.3-173.8-214.2 55.1-4.4-131.9 75.7-19.5c19.1-4.9 30.6-24.4 25.7-43.5l-120-466.8h0c-7.4-28.7-36.5-45.9-65.1-38.6l-86.4 22.2-28.5-110.9 214.5-55.2-44.7-174.1 104-26.7L1016 743l83.2-21.3-44.6-174.1 104-26.7m-57.5 551.1l115.1-30c38.5-9.8 69.8-31.5 88.9-58.3l.6-.9.3-.4.5-.6.2-.3.4-.6.2-.3.5-.6.2-.3.4-.6.2-.3.4-.5.2-.3.4-.5.2-.3.4-.5.2-.3.4-.5.2-.3.4-.5.2-.3.4-.5.2-.3.4-.5.2-.3.4-.5.2-.3.3-.5.2-.3.3-.5.2-.3.3-.5.2-.3.3-.5v-.3l.4-.5v-.3l.4-.5v-.2l.4-.5v-.3l.4-.5v-.2l.4-.5v-.3l.3-.4v-.3l.4-.5.4-.8.7-1.6c7.7-17.3 9.8-36.7 5.9-55.2v-.2c-.3-.5-.4-1-.5-1.5h0l-.3-.6c0-.8-.2-1.6-.4-2.4s-.4-1.4-.6-2.2l-.3-.5h0c-.1-.6-.3-1.1-.5-1.6v-.2c-5.6-18.2-16.8-34.1-31.9-45.5-.5-.3-.9-.7-1.4-1l-.7-.4-.5-.3h-.2c0-.1-.4-.4-.4-.4h-.2c0-.1-.5-.4-.5-.4h-.2c0-.1-.5-.4-.5-.4h-.2c0-.1-.5-.4-.5-.4h-.2c0-.1-.5-.4-.5-.4l-.2-.2-.5-.3-.3-.2-.5-.3-.3-.2-.5-.3-.3-.2-.5-.3-.3-.2-.5-.3-.3-.2-.5-.4-.3-.2-.5-.4-.3-.2-.5-.4-.3-.2-.6-.3-.3-.2-.6-.3-.3-.2-.6-.3-.3-.2-.6-.3-.3-.2-.6-.3-.3-.2-.6-.3-.3-.2-.6-.3-.3-.2-.6-.3-.3-.2-.6-.3-.4-.2-1-.4c-18.4-8.9-40.1-13.7-63.1-13.7-14.5 0-28.8 1.9-42.8 5.5l-115.3 29.3 54.5 211.3m85.2 335.5l136.5-35.5c45.5-11.7 83-36.1 106.2-65.7l.8-1 .4-.4.5-.7.2-.3.5-.7.2-.3.5-.7.2-.3.5-.7.2-.3.5-.7.2-.3.4-.7.2-.3.4-.7.2-.3.4-.7.2-.3.4-.7.2-.3.4-.6.2-.3.5-.6.2-.3.4-.5.2-.3.4-.5.2-.3.4-.5.2-.3.4-.5.2-.3.4-.5.2-.3.4-.5.2-.3.4-.5.2-.3.4-.5.2-.3.4-.5.2-.3.3-.5.2-.3.3-.5.2-.3.3-.6.4-.8.9-1.7c9.5-18.6 12.5-39.8 8.4-60.3h0v-.2h0v-.2l-.3-1.7h0l-.3-.6h0c.1-1.2 0-2.1-.4-2.3l-.6-2.4-.3-.5h0c-.2-.6-.3-1.1-.5-1.6l-.2-.3c-6.3-20-19.2-37.3-36.6-49-.5-.4-1.1-.7-1.7-1.1l-.7-.5-.5-.4-.3-.2-.5-.3-.3-.2-.5-.4-.3-.2-.5-.4-.3-.2-.5-.4-.3-.2-.5-.4-.3-.2-.5-.4-.3-.2-.6-.3-.3-.2-.6-.3-.3-.2-.6-.3-.3-.2-.6-.3-.3-.2-.6-.3-.3-.2-.6-.3-.3-.2-.6-.3-.3-.2-.6-.3-.3-.2-.6-.3-.3-.2-.7-.4-.3-.2-.7-.4-.3-.2-.7-.4-.3-.2-.7-.4h-.4c0-.1-.7-.5-.7-.5h-.4c0-.1-.7-.5-.7-.5h-.4c0-.1-.8-.4-.8-.4l-.6-.2-1.1-.5c-20.4-8.7-44.3-13.4-69.9-13.4-18.5 0-36.9 2.4-54.8 7l-136.7 34.7 59 229.7m-16-908.7l-18.4 4.7-104 26.7-18.4 4.7 4.7 18.4 39.7 155.8-46.4 11.9-40-155.1-4.7-18.4-18.4 4.7-104 26.7-18.5 4.7 4.7 18.4 40 155.7-196.1 50.5-18.4 4.7 4.7 18.4 28.5 110.9 4.7 18.4 18.4-4.7 86.4-22.2c18.4-4.8 37.2 6.2 42 24.6h0v.2l120 466.8c2.3 8.9-3.1 18-12 20.3l-75.7 19.5-14.8 3.8.5 15.2 4.4 131.9.8 23.7 22.9-5.9 195.9-50.3 40.6 155.4 4.8 18.3 18.3-4.7 104-26.7 18.4-4.7-4.7-18.4-40.1-155.8 46.4-11.9 40 155.8 4.7 18.4 18.4-4.7 104-26.8 18.4-4.7-4.7-18.4-40.2-156.5 24.9-6.4c39.1-9.9 76-26.7 109.2-49.7 31.6-22 57.9-48.5 78.3-78.9l1.3-1.9.6-.9.3-.4.3-.4.8-1.3h0l.4-.6.8-1.2.4-.7.2-.3.2-.3.6-1 .2-.4.2-.3.2-.3.7-1.3.2-.3.2-.3.2-.3.6-1 .2-.3v-.3c.1 0 .3-.3.3-.3l.6-1 .2-.3.2-.3.3-.6.6-1.2.3-.6.6-1.2h0l.4-.6.3-.5.3-.6h0l.4-.7.3-.5.3-.5.2-.4.5-1h0v-.3l.2-.5.5-.9v-.2l.2-.2.2-.4.5-1 .4-.8.2-.5.2-.3.4-.8.4-.8h0l.3-.5.3-.7.2-.4.3-.5.3-.7.2-.3.3-.5.3-.7.2-.4.3-.5.3-.7.2-.4.3-.5.3-.7.2-.4.5-.9.4-1 .3-.5.5-1.1.4-.8v-.3c.1 0 .2-.2.2-.2v-.3c.1 0 .5-1 .5-1l.6-1.3v-.2l.1-.2.4-.8c.4-.9.9-2 1.4-3.4h0c16.4-40.5 20.3-85 11.2-127.7l-.6-2.8v-.2-1.8l-1.9-3.6c0-.4-.2-.9-.3-1.3s-.1-1.2-.2-1.8l-.2-4.3-1.7-3.2a25.18 25.18 0 0 1-.6-2l-.5-1.5-.3-.5c-12.3-39.9-35.8-75.5-67.8-102.4l-.2-.5-3.4-2.6-1-.8a23.07 23.07 0 0 0-1.9-1.4h0l-1.2-.9-.5-.3h0l-.6-.5-.7-.5-.2-.2-.4-.3-.7-.5-.2-.2h-.1c0-.1-.4-.4-.4-.4l-.9-.7-.8-.6-.4-.2-.4-.6-2.9-2-.5-.4-.2-.2-.2-.2-.7-.5-.3-.2-.2-.2-.3-.2-.8-.5-.3-.2-.2-.2-.2-.2-.8-.5-.3-.2-1-.7-.5-.4-.5-.4-.5-.3-.6-.4h0l-.4-.3-.5-.3-.7-.4h0l-.4-.4-.5-.3-.6-.4h0l-.5-.3-.5-.3-1.1-.7-.6-.3-.6-.3h0l-.6-.4-.5-.3-.5-.3-.6-.3-1.2-.7-.3-.2-1-.6-.3-.2-.3-.2-.3-.2-1-.6-.3-.2-.3-.2-.3-.2-.7-.4-.4-.2-.2-.2h-.2c0-.1-1-.7-1-.7l-.4-.3-.7-.4-.7-.3-.7-.3-.7-.4-.7-.3-.8-.4h-.2c-1-.7-1.8-1.1-2.3-1.4l-.3-.2-.7-.4c-20-10.3-41.2-18.3-63.1-23.8 1.1-1.6 2.3-3.2 3.4-4.8l.3-.2 2.6-4 .5-.8v-.2l.2-.2.4-.6h0l.3-.5.3-.5.4-.7h0l.3-.5.3-.5.4-.6h0l.3-.5.3-.5.4-.7h0l.3-.5.3-.5.4-.6h0l.6-.8.5-.9v-.2c.1 0 .5-.5.5-.5l.5-.9.4-.8v-.2c.1 0 .3-.3.3-.3l.2-.3.4-.8v-.2c.1 0 .3-.3.3-.3l.2-.3.4-.8v-.2c.1 0 .5-.6.5-.6l.3-.7.2-.4.3-.5.3-.7.2-.4.3-.5.3-.7.2-.4.5-.8.2-.4.6-.9h0l.3-.5.2-.3.2-.4.3-.5h0c0-.1.2-.5.2-.5l.2-.4.5-.9.3-.5.2-.4.2-.4.3-.6.2-.4.2-.3.3-.6.2-.4.2-.3.3-.6.3-.6.2-.4h0l.4-.8.2-.4h0l.4-.9.2-.4.4-.9v-.2l.4-.2 2.5-6.2c14.9-36.5 18.4-76.7 10-115.2l-.6-2.7v-.2-1.9l-1.6-2.8-.6-2.2c-.3-1.4-.7-2.8-1-3.8l-.2-.6-.6-2-.7-1.2c0-.3-.2-.7-.3-1l-.7-2.1-.3-.5c-11.1-35.7-32.2-67.5-60.8-91.7h0l-2.6-2.2c-.7-.6-1.4-1.1-1.9-1.5l-.6-.5-.3-.3-.3-.3-1.1-.8h-.1l-.1-.2-.4-.3-.2-.2-.2-.2-.5-.4h-.1l-.3-.3-.3-.2-.5-.4v-.6c-.1 0-1.1-.8-1.1-.8l-.8-.5h0l-.6-.5-.2-.2-.4-.3-.7-.5-.3-.2-.4-.3-.6-.4-.9-.6-.5-.4-.5-.3-.3-.2-.5-.4-.5-.3-.3-.2-.5-.4-.6-.3-.5-.3h-.1l-.9-.5-.4-.3h-.1l-.9-.5-.4-.2h-.2l-.9-.6-.4-.2-.9-.5h-.2l-.7-.5-.3-.2-.3-.2-.2-.2-.8-.5-.2-.2-.2-.2-.5-.3-.3-.2-.3-.2-.8-.5h-.2c0-.1-.3-.3-.3-.3l-.3-.2h-.2c0-.1-.6-.5-.6-.5l-.9-.5h-.2l-.5-.5-.9-.5h-.2c0-.1-.2-.2-.2-.2l-.5-.3-1.1-.7-.5-.3-.5-.3h0l-.6-.4-.5-.3h0l-1.8-.9-.4-.2h0l-.6-.3-1.2-.6-.5-.3h0l-.4-.2-1.8-1h-.1c-37.6-19.5-81.3-29.9-126.4-29.9-25.6 0-51 3.3-75.8 9.6L1177 514.9l-4.7-18.4v-.5zm-5.2 352.5c12.4-3.2 25.3-4.9 38.1-4.9 19.8 0 38.8 4.1 54.9 11.8h.3c0 .1.3.2.3.2l.7.3h.2c0 .1.2.2.2.2l.4.2h.1l.2.2h.2l.4.3h.3c0 .1.2.2.2.2l.4.2h.1l.1.1h.1l.5.3h.2l.1.2h.1l.5.3h.2.1.1l.5.3h.2v.2h0l.5.3h.2l.5.4.3.2.5.4.3.2.5.4.9.5h.2l.3.3.3.2h.1l.3.3.3.2h.1c0 .1 1.8 1.2 1.8 1.2h.2c0 .1.3.3.3.3h.2c0 .1.6.5.6.5l.5.4h.2c0 .1.6.5.6.5l.6.4.4.2h0l.9.7c11.7 9 20.4 21.4 24.6 35.6l.6 1.8.2.3.4 1.3.2.3.2 3.1 1.1 2.1h0c2.7 14.2 1 29-5 42.2h0c0 .1-.4 1.1-.4 1.1l-1 1.7-.2.7-.4.6v.2l-.4.6v.3l-.3.4v.2l-.4.6v.3l-.3.4v.3c-.1 0-.3.3-.3.3l-.2.3h0l-.5.7-.2.3-.4.5-.2.3-.4.5-.2.3-.4.5-.2.3-.4.5-.2.3-.4.5-.2.3-.4.5-.2.3-.7.9-.2.3-.5.6-.2.3-.4.6v.2h-.2l-.5.7-.6.8c-17.2 24-45.6 42.6-78.1 50.9l-69.5 18.1-27.3 7.1-45-174.4 20.1-5.1 76.8-19.5v.3zm-15.5 341l43.4-11 74.9-19c16.4-4.2 33.2-6.4 50.1-6.4 22.6 0 44.2 4.1 62.4 11.9l1 .4.5.2.4.2.4.2.8.3 1.1.5h.4c0 .1.7.5.7.5h.3l.3.2.5.2.3.2.3.2.4.2h.2c0 .1.2.2.2.2l.4.2h.3c0 .1.2.2.2.2l.4.2h.3c0 .1.2.2.2.2l.5.2h.2l.1.1h.1l.5.3h.2.1l.5.3h.2l.1.2h.1l.5.3h.2l.1.2h.1l.5.3h.2l.1.2h.1l.5.3h.2l.4.3.3.2.6.4.3.2.5.4.3.2.5.4.3.2.5.4.9.5h0l.5.3c.8.6 1.5 1 2 1.3h0c10.6 7.2 19.1 17 24.8 28.5l-3.3 1.1 9.9 18 .2 1.3.2.5c2.5 15.4 0 31.2-7 45.1l-.7 1.3-.4.7v.2c-.1 0-.2.2-.2.2l-.2.4h0l-.2.4-.2.3h0l-.5.7-.2.3-.4.5-.2.3-.4.5-.2.3-.4.5-.2.3-.4.5-.2.3-.4.5-.2.3-.4.5-.2.3-.4.5-.2.3h0l-.7.9-.2.3-.5.6-.7 1.3v.2c-.1 0-.4.4-.4.4v.2c-.1 0-.2.2-.2.2l-.3.5v.2l-.2.2-.3.5v.2l-.5.5-.3.4-.4.6-.2.3h0l-.5.7-.3.4-.5.7h0l-.4.4-.8 1v.2c-.1 0-.2.2-.2.2-21.4 27.4-56.4 48.9-96 59l-60.3 15.7-57.8 15-49.6-192.8v.4z" fill="#231f20"/></svg>