<?xml version="1.0" encoding="UTF-8"?>
<svg id="Layer_1" xmlns="http://www.w3.org/2000/svg" version="1.1" viewBox="0 0 857 857">
  <!-- Generator: Adobe Illustrator 29.2.1, SVG Export Plug-In . SVG Version: 2.1.0 Build 116)  -->
  <defs>
    <style>
      .st0 {
        stroke: #e6e8ea;
      }

      .st0, .st1, .st2, .st3, .st4 {
        fill: none;
        stroke-linecap: round;
        stroke-linejoin: round;
      }

      .st0, .st2 {
        stroke-width: 5px;
      }

      .st5 {
        fill: #003b2f;
      }

      .st1, .st2 {
        stroke: #03fc9d;
      }

      .st1, .st4 {
        stroke-width: 3px;
      }

      .st3 {
        stroke-width: 7px;
      }

      .st3, .st4 {
        stroke: #003b2f;
      }

      .st6 {
        fill: #03fc9d;
      }

      .st7 {
        fill: #e6e8ea;
      }
    </style>
  </defs>
  <path class="st4" d="M233.3,792.9h24.2"/>
  <path class="st1" d="M132,752.1h175.2"/>
  <path class="st4" d="M288.7,792.8h98"/>
  <path class="st6" d="M192.1,320.6v-49.3h-33.9v162.4c2.9-39.3,14.3-78,33.9-113.1Z"/>
  <path class="st6" d="M158.2,474.1v88.3h21.6c-12.2-28.2-19.4-58.2-21.6-88.3Z"/>
  <path class="st2" d="M175.1,558.2v32.8"/>
  <path class="st2" d="M175.1,239.4v83.8"/>
  <g>
    <path class="st6" d="M843.7,206.2h-34v151h34v-151Z"/>
    <path class="st2" d="M826.7,189.6v181"/>
  </g>
  <path class="st7" d="M801,261.8h-34v111.6h34v-111.6Z"/>
  <path class="st0" d="M784,249.5v133.9"/>
  <path class="st7" d="M148.9,463.7h-33.9v32h33.9v-32Z"/>
  <path class="st0" d="M132,453.2v51.9"/>
  <path class="st7" d="M61.4,501.6H27.5v19.1h33.9v-19.1Z"/>
  <path class="st0" d="M44.5,491.1v39"/>
  <path class="st7" d="M670,203.3h-33.9v19.1h33.9v-19.1Z"/>
  <path class="st0" d="M653.1,192.8v39"/>
  <path class="st7" d="M756.1,252.8h-33.9v19.1h33.9v-19.1Z"/>
  <path class="st0" d="M739.1,222.4v75.9"/>
  <path class="st7" d="M711.6,213.3h-33.9v44.2h33.9v-44.2Z"/>
  <path class="st0" d="M694.6,182.8v59.1"/>
  <path class="st6" d="M103.8,467.8h-33.9v59.2h33.9v-59.2Z"/>
  <path class="st2" d="M86.8,457.3v85.6"/>
  <path class="st6" d="M626.1,204.8h-34v25.1h34v-25.1Z"/>
  <path class="st2" d="M609.1,191.8v47.6"/>
  <path class="st3" d="M703.9,450.3l148.9-56.8"/>
  <path class="st3" d="M4.2,717.4l222.1-84.8"/>
  <path class="st6" d="M740.1,694.2c31.9,0,57.8-25.9,57.8-57.8s-25.9-57.8-57.8-57.8-57.8,25.9-57.8,57.8,25.9,57.8,57.8,57.8Z"/>
  <path class="st4" d="M734.4,689.3c31.9,0,57.8-25.9,57.8-57.8s-25.9-57.8-57.8-57.8-57.8,25.9-57.8,57.8,25.9,57.8,57.8,57.8Z"/>
  <path class="st5" d="M763.5,621.8c.5-7.6-6.1-11-14.7-12.9l1.8-10.4-6.8-.9-1.7,10.1c-1.8-.3-3.7-.4-5.4-.6l1.7-10.2-6.8-.9-1.8,10.4c-1.5-.2-2.9-.4-4.4-.5l-9.4-1.2-1.1,6.8s5.1.5,5,.6c2.8.4,3.4,2,3.5,3.3l-2,11.8s.4,0,.7.2c-.3,0-.4,0-.7,0l-2.8,16.6c-.3.8-1,2-2.9,1.8l-5-.6-2.6,7.4,8.8,1.2c1.6.2,3.3.4,4.9.7l-1.8,10.5,6.8.9,1.8-10.4c1.9.3,3.7.5,5.4.8l-1.8,10.3,6.8.9,1.8-10.5c11.6.9,20.1-.7,22.7-10.6,2.1-7.9-1.3-12-7.6-14.3,4.3-1.3,7.3-4.3,7.7-9.9h-.2ZM750.2,643c-1.3,7.8-15.7,5.1-20.2,4.5l2.3-13.9c4.6.6,19.3,1.2,17.9,9.4ZM750.4,623c-1.2,7.1-13.1,4.7-17,4.2l2.1-12.7c3.8.5,16.1,1,14.9,8.4h0Z"/>
  <path class="st6" d="M630.2,144.6c19.5,0,35.3-15.8,35.3-35.3s-15.8-35.3-35.3-35.3-35.3,15.8-35.3,35.3,15.8,35.3,35.3,35.3Z"/>
  <path class="st4" d="M627.4,141c19.5,0,35.3-15.8,35.3-35.3s-15.8-35.3-35.3-35.3-35.3,15.8-35.3,35.3,15.8,35.3,35.3,35.3Z"/>
  <path class="st5" d="M646,103.6c1.2-4.5-2.2-7.3-7.2-9.5l2.3-6-3.9-1.3-2.3,5.8c-1.1-.4-2.1-.7-3.2-1.1l2.3-5.9-3.9-1.3-2.3,6c-.9-.3-1.7-.5-2.5-.9l-5.4-2-1.5,3.9s2.9,1,2.9,1c1.6.5,1.8,1.6,1.7,2.4l-2.7,6.9s.3,0,.4.2c0,0-.3,0-.4-.2l-3.8,9.5s-.8,1.1-2,.7l-2.8-1-2.5,4.1,5.2,1.8c1,.4,1.9.7,2.9,1l-2.4,6.1,3.9,1.3,2.3-6c1.1.4,2.1.8,3.1,1.2l-2.3,6,3.9,1.3,2.4-6.1c6.8,2,12,2,14.9-3.5,2.3-4.5.7-7.4-2.8-9.5,2.7-.3,4.9-1.7,5.8-5h0ZM635.4,114.6c-1.8,4.5-10,1.1-12.7.2l3.1-8c2.7,1,11.4,3.1,9.5,7.8ZM637.9,102.7c-1.6,4.1-8.5,1.2-10.7.4l2.9-7.3c2.2.8,9.5,2.6,7.8,6.9Z"/>
  <path class="st6" d="M563.3,759.4h-69.8c-7.7,0-13.9,6.2-13.9,13.9s6.2,13.9,13.9,13.9h69.8c7.7,0,13.9-6.2,13.9-13.9s-6.2-13.9-13.9-13.9Z"/>
  <path class="st7" d="M705.7,706.6h-164.6c-18.2,0-32.9,14.7-32.9,32.9s14.7,32.9,32.9,32.9h164.6c18.2,0,32.9-14.7,32.9-32.9s-14.7-32.9-32.9-32.9Z"/>
  <path class="st4" d="M678.6,767.4l-17.8,17.8-17.8-17.8,17.8-17.8,17.8,17.8Z"/>
  <path class="st7" d="M273.6,111.8h-43.3c13.7,0,24.9-10.1,24.9-22.5s-11.1-22.5-24.9-22.5h-124.4c-13.7,0-24.9,10.1-24.9,22.5h-38.2c-13.7,0-24.9,10.1-24.9,22.5s11.1,22.5,24.9,22.5h81.5c0,12.5,11.1,22.5,24.9,22.5h124.4c13.7,0,24.9-10.1,24.9-22.5s-11.1-22.5-24.9-22.5Z"/>
  <path class="st4" d="M294.8,74.7h31"/>
  <path class="st1" d="M8.2,351.6h143.5"/>
  <path class="st4" d="M352.9,74.7h125.7"/>
  <path class="st4" d="M776.9,99.5l8.6,18.3"/>
  <path class="st4" d="M791.7,131.1l8.5,18.3"/>
  <path class="st4" d="M763.7,136l18.2-8.6"/>
  <path class="st4" d="M795.3,121.3l18.2-8.6"/>
  <path class="st6" d="M444.5,695.9c132.7,0,240.3-107.6,240.3-240.3s-107.6-240.3-240.3-240.3-240.3,107.6-240.3,240.3,107.6,240.3,240.3,240.3Z"/>
  <path class="st4" d="M414.2,688.4c132.7,0,240.3-107.6,240.3-240.3s-107.6-240.3-240.3-240.3-240.3,107.6-240.3,240.3,107.6,240.3,240.3,240.3Z"/>
  <path class="st5" d="M504.1,357.8c-12.4-29.1-43.1-29.6-78.8-20.3l-12.9-41.9-27,9.4,12.6,40.7c-7.1,2.5-14.3,5.2-21.5,7.8l-12.7-41-26.9,9.4,12.9,41.9c-5.8,2.1-11.5,4.3-17.1,6.2l-37.2,12.8,8.4,27.2s19.8-7.3,19.6-6.9c11-3.8,16.3.9,19,5.7l14.7,47.7c.8-.3,1.8-.5,2.9-.8-.9.4-1.9.6-2.9,1l20.7,66.8c.5,3.4,0,9.3-7.5,11.9.4.2-19.6,6.9-19.6,6.9l4,32.3,35.1-12.3c6.5-2.3,13-4.5,19.3-6.6l13.1,42.3,26.9-9.4-12.9-41.9c7.5-2.4,14.6-4.9,21.6-7.3l12.8,41.7,27-9.4-13-42.2c44.5-18.3,73-40.2,64.5-81.8-6.9-33.5-27.4-42.3-55-39.1,13.3-13,19-29.7,9.9-51h-.2ZM494.4,461.5c9.8,31.6-48.6,48.1-66.9,54.4l-17.3-56c18.3-6.4,74-31.4,84.2,1.6ZM457.4,386.8c8.9,28.8-39.9,42.1-55.1,47.5l-15.7-50.9c15.2-5.3,61.7-26.6,70.9,3.4h0Z"/>
  <path class="st6" d="M269.3,224.4c31.9,0,57.8-25.9,57.8-57.8s-25.9-57.8-57.8-57.8-57.8,25.9-57.8,57.8,25.9,57.8,57.8,57.8Z"/>
  <path class="st4" d="M262,222.6c31.9,0,57.8-25.9,57.8-57.8s-25.9-57.8-57.8-57.8-57.8,25.9-57.8,57.8,25.9,57.8,57.8,57.8Z"/>
  <path class="st5" d="M283.4,142.9c-3-6.9-10.4-7-19-4.6l-3.2-10.1-6.4,2.3,3.1,9.8c-1.7.6-3.4,1.2-5.2,2l-3.1-9.8-6.4,2.3,3.2,10.1c-1.4.5-2.8,1.1-4.1,1.5l-8.9,3.2,2.1,6.5s4.7-1.8,4.7-1.7c2.6-1,3.9.2,4.5,1.3l3.7,11.4s.4-.2.7-.2c-.2,0-.4.2-.7.3l5.2,16c.2.8,0,2.2-1.8,2.9,0,0-4.7,1.7-4.7,1.7l1.1,7.8,8.4-3c1.6-.5,3.1-1.1,4.6-1.6l3.3,10.2,6.4-2.3-3.2-10.1c1.8-.6,3.5-1.2,5.2-1.8l3.2,10,6.4-2.3-3.2-10.2c10.7-4.5,17.5-9.9,15.3-19.9-1.7-8-6.7-10.1-13.3-9.3,3.2-3.1,4.5-7.2,2.2-12.3l-.2-.2ZM281.4,167.8c2.4,7.6-11.6,11.7-15.9,13.3l-4.3-13.5c4.4-1.6,17.7-7.8,20.2.2ZM272.3,149.9c2.2,6.9-9.5,10.2-13.1,11.6l-3.9-12.2c3.7-1.3,14.7-6.6,17,.6Z"/>
  <path class="st4" d="M499.1,146.8l-7.6,15.7"/>
  <path class="st4" d="M486,173.9l-7.6,15.7"/>
  <path class="st4" d="M467.3,157.9l15.7,7.6"/>
  <path class="st4" d="M494.4,171l15.7,7.6"/>
</svg>