<?xml version="1.0" encoding="UTF-8"?><svg xmlns="http://www.w3.org/2000/svg" viewBox="0 0 803.95905 690.63674"><g id="Layer_1"><path d="M280.97566,679.99793l446.34044-312.53111c11.87391-8.43007,20.3294-20.84191,23.34301-34.54361l52.07502-236.76452c6.26825-28.49945-12.13996-54.78911-41.0646-58.64623L521.37293,5.46886c-13.90602-1.85438-28.46128,1.84608-40.30504,10.13917L34.58828,328.12065c-24.87195,17.41552-32.07438,50.16242-16.06239,73.02971l188.33043,268.96377c16.01193,22.86741,49.24743,27.29937,74.11934,9.8838ZM647.73672,99.95061c22.62023-15.83885,53.79754-10.34149,69.63642,12.27879,15.83889,22.62028,10.34144,53.79757-12.27879,69.63642-22.62028,15.83889-53.79754,10.34149-69.63642-12.27879s-10.34149-53.79754,12.27879-69.63642Z" style="fill:#057148; fill-rule:evenodd;"/><path d="M270.97569,674.99794l446.34041-312.53115c11.87391-8.43007,20.3294-20.84191,23.34301-34.54361l52.07501-236.76452c6.26825-28.49945-12.13997-54.78911-41.06461-58.64623L511.3729.46886c-13.90602-1.85438-28.46128,1.84608-40.30504,10.13917L24.58828,323.12068C-.28366,340.53621-7.4861,373.28311,8.5259,396.1504l188.33045,268.96375c16.01193,22.86741,49.24743,27.29937,74.11934,9.88379ZM637.7367,94.9506c22.62023-15.83885,53.79754-10.3415,69.63642,12.27878s10.34145,53.79757-12.27878,69.63642c-22.62028,15.83889-53.79754,10.3415-69.63642-12.27878-15.83889-22.62028-10.3415-53.79754,12.27878-69.63642Z" style="fill:#0ac18e; fill-rule:evenodd;"/></g><g id="Layer_2"><path d="M177.60889,461.91503c-14.48096,10.13867-28.78711,13.18555-42.92139,9.1377-14.1333-4.0459-27.229-14.67871-39.2876-31.89941-5.99316-8.55859-10.18604-17.00977-12.57715-25.34766-2.3916-8.33887-3.19482-16.23145-2.40771-23.67969.78564-7.44824,3.12598-14.31641,7.02393-20.60645,3.89551-6.28809,9.1001-11.71191,15.6123-16.27148,3.76953-2.63965,7.42383-4.71582,10.96094-6.22949,3.53857-1.51074,6.76074-2.65332,9.66504-3.42871,2.90625-.77441,5.44336-1.25293,7.61328-1.4375,2.16992-.18359,3.77051-.26465,4.80469-.25l7.38965,22.8623c-3.92725.23047-8.12988,1.01953-12.60693,2.37402-4.479,1.35645-9.02979,3.65332-13.65625,6.89355-3.08447,2.15918-5.68701,4.87109-7.80664,8.13477-2.11963,3.26465-3.39111,7.01367-3.81445,11.23828-.42432,4.22852.14111,8.91309,1.69873,14.05273,1.55566,5.14062,4.42578,10.69629,8.60693,16.66797,3.3457,4.77832,6.91553,8.91895,10.70703,12.41895,3.79248,3.50195,7.73926,6.04004,11.84424,7.61523,4.10352,1.57715,8.39453,2.09863,12.86963,1.55664,4.47607-.53613,9.02686-2.42578,13.65381-5.66602,2.91162-2.03809,5.3877-4.06738,7.42188-6.08691,2.03516-2.01562,3.76025-3.92969,5.17578-5.7373,1.41602-1.80566,2.56543-3.53809,3.44824-5.19629.88281-1.6543,1.67139-3.17285,2.36768-4.55078l18.59521,14.79492c-1.43311,3.9707-4.16211,8.55273-8.18945,13.74219-4.02637,5.19238-9.42432,10.15918-16.19141,14.89844Z" style="fill:#fff;"/><path d="M282.16357,385.58984c-3.50879-2.90039-7.15869-5.84766-10.95215-8.83789-3.79395-2.99023-7.57324-5.96875-11.3335-8.93359l-34.78467,24.35645c1.51758,4.5625,3.0376,9.13477,4.56445,13.7168,1.52539,4.58594,3.05273,9.00586,4.57812,13.25781l-20.82031,14.57812c-4.45312-13.49316-8.48779-26.02051-12.10205-37.58496-3.61182-11.56055-6.90869-22.53027-9.88379-32.9082s-5.69629-20.2998-8.1665-29.77148c-2.46777-9.4707-4.70703-18.84375-6.7168-28.11719l19.00488-13.30762c7.94385,5.11816,15.96875,10.44141,24.07129,15.96582,8.10303,5.52734,16.52344,11.45898,25.26172,17.80078,8.73828,6.34277,17.9248,13.18848,27.55713,20.5332,9.63477,7.34863,20.0332,15.4209,31.1958,24.21582l-21.47363,15.03613ZM202.04053,322.4287c.604,1.81543,1.38281,4.32031,2.33057,7.50781.9502,3.19141,2.06299,6.86523,3.33545,11.02539,1.27344,4.16113,2.65625,8.75488,4.1499,13.78223,1.49463,5.02832,3.10547,10.26953,4.83301,15.72461l25.46924-17.83398c-4.50439-3.53125-8.82617-6.89551-12.96533-10.08887s-7.97266-6.08203-11.49658-8.66992c-3.52393-2.58301-6.62305-4.86328-9.30029-6.84082-2.67529-1.97461-4.79492-3.50977-6.35596-4.60645Z" style="fill:#fff;"/><path d="M329.36572,326.06054c2.82764-1.97949,4.96973-3.8877,6.4292-5.72656,1.45947-1.83398,2.41455-3.61621,2.86572-5.34375.45117-1.72461.43848-3.38379-.03857-4.97949-.47754-1.5918-1.27393-3.18652-2.38965-4.78027-2.36816-3.38184-5.70947-5.23438-10.01904-5.55566-4.31104-.31836-10.71143.56836-19.20752,2.6582-3.75049.8457-7.62158,1.51855-11.61475,2.0127-3.99316.49902-7.96484.3877-11.91699-.33301-3.9502-.71777-7.82227-2.2334-11.61328-4.5498-3.79297-2.31445-7.36035-5.86035-10.70557-10.6377-3.3457-4.77832-5.58838-9.62305-6.72949-14.53613-1.14014-4.91016-1.23877-9.7002-.29346-14.36914.94531-4.66699,2.92676-9.13086,5.94287-13.39551,3.01709-4.26074,7.05127-8.16309,12.10791-11.7041,5.99609-4.19824,11.70361-7.08203,17.11914-8.64844,5.41455-1.56641,10.16309-2.44531,14.24561-2.63281l7.07568,22.41504c-3.53223.24707-7.21777.86426-11.06055,1.84766-3.84229.98633-7.90771,2.97656-12.19092,5.97656-4.79932,3.36035-7.70605,6.54785-8.7251,9.55859-1.01953,3.01562-.4126,6.1123,1.81738,9.29688,1.32471,1.8916,2.82568,3.21582,4.50195,3.96777,1.67773.75488,3.58838,1.15918,5.7334,1.21289,2.146.05664,4.43604-.13574,6.87109-.58105,2.43408-.44336,5.07764-.99707,7.93408-1.66309,6.021-1.24707,11.42334-2.10156,16.20996-2.56152,4.78516-.45703,9.2207-.1875,13.30322.80859,4.08252,1.00098,7.90137,2.85156,11.4541,5.55371,3.55273,2.70508,7.07324,6.54492,10.55713,11.52051,6.76123,9.65625,9.09229,19.1875,6.99463,28.58984-2.09863,9.40723-9.01611,18.2168-20.75391,26.43555-3.94189,2.76074-7.69141,4.97656-11.24219,6.64844-3.55469,1.67285-6.83105,2.96484-9.8291,3.87988-2.99902.91406-5.69238,1.53809-8.0752,1.87109-2.38428.33398-4.45361.52441-6.21143.56543l-7.30859-22.47266c3.84131-.16504,8.18018-.94434,13.02051-2.33105,4.83887-1.38379,10.08691-4.05762,15.7417-8.01758Z" style="fill:#fff;"/><path d="M373.58594,167.37744l20.04932-14.03857,72.44922,103.46875-20.0498,14.03809-30.73633-43.89551-33.67236,23.57812,30.73584,43.89551-20.04883,14.03809-72.44922-103.46875,20.04932-14.03809,27.7041,39.56641,33.67236-23.57812-27.70361-39.56592Z" style="fill:#fff;"/><path d="M494.34912,120.64404l14.90918-10.43896-13.58008-28.31787,16.70801-11.69873,13.5791,28.31787,9.33398-6.53564,12.02344,17.1709-12.17188,8.52246,9.82715,20.4873,15.20312-10.64551,12.02246,17.16992-18.04102,12.63232,13.5791,28.31787-16.70703,11.69824-13.58008-28.31738-14.9082,10.43896,13.5791,28.31787-16.70703,11.69824-13.58008-28.31738-9.33398,6.53613-12.02246-17.16992,12.17188-8.52246-9.82715-20.48779-15.20312,10.646-12.02344-17.1709,18.04102-12.63281-13.5791-28.31787,16.70801-11.69873,13.5791,28.31787ZM513.36182,160.28906l14.9082-10.43896-9.82617-20.4873-14.90918,10.43896,9.82715,20.4873Z" style="fill:#fff;"/><path d="M255.6626,544.6621c10.30273,14.71289,15.79834,27.68457,16.48975,38.91406.69141,11.23242-3.1958,19.80957-11.6626,25.73828-8.46729,5.92871-17.85889,6.64941-28.17578,2.15625-10.31689-4.48828-20.625-14.0918-30.92773-28.80469-5.12109-7.31445-9.02051-14.22949-11.69775-20.75-2.67822-6.51758-4.17627-12.54883-4.49658-18.08789-.31934-5.53906.47754-10.48438,2.39453-14.83301,1.91553-4.34766,4.93701-7.9668,9.06201-10.85547,8.4668-5.92871,17.85791-6.64551,28.1748-2.15625,10.31689,4.49219,20.59619,14.05078,30.83936,28.67871ZM239.1626,556.21484c-3.06055-4.37012-6.02295-8.21582-8.88721-11.53613-2.86377-3.31836-5.60596-6.00391-8.22656-8.05273-2.62158-2.04785-5.11963-3.30469-7.49463-3.77246-2.37598-.46582-4.57861.00977-6.60352,1.42773-2.02686,1.41895-3.2085,3.31348-3.54639,5.67871-.33838,2.36816-.01123,5.14551.98193,8.33301.99219,3.18945,2.55859,6.69727,4.69824,10.52246,2.14014,3.8291,4.7417,7.92773,7.80176,12.29785,3.06201,4.37207,6.03809,8.24023,8.93164,11.59863,2.89258,3.36328,5.66895,6.05664,8.32568,8.0791,2.65625,2.02441,5.1543,3.28223,7.49463,3.77246,2.33984.49414,4.52246.02832,6.54932-1.39062,2.0249-1.41797,3.22607-3.32227,3.6001-5.71582.37354-2.39062.04688-5.16895-.98145-8.33301-1.02832-3.16211-2.62891-6.67871-4.79785-10.54883-2.16895-3.86719-4.78418-7.98828-7.8457-12.36035Z" style="fill:#201447;"/><path d="M317.31885,501.48925c10.30273,14.71289,15.79883,27.68555,16.49023,38.91406.69141,11.23242-3.1958,19.80957-11.6626,25.73828-8.46729,5.92871-17.85889,6.65039-28.17578,2.15723-10.31689-4.48926-20.625-14.0918-30.92773-28.80469-5.12109-7.31445-9.02051-14.23047-11.69775-20.75098-2.67822-6.51758-4.17627-12.54883-4.49609-18.08789-.31934-5.53809.47754-10.48438,2.39453-14.83301,1.91504-4.34766,4.93652-7.9668,9.06152-10.85547,8.4668-5.92871,17.8584-6.64551,28.1748-2.15625,10.31689,4.49316,20.59668,14.05078,30.83887,28.67871ZM300.81934,513.04296c-3.06006-4.37012-6.02295-8.21582-8.88721-11.53711-2.86377-3.31836-5.60596-6.00293-8.22656-8.05273-2.62109-2.04688-5.11963-3.30469-7.49512-3.77246-2.37598-.46484-4.57812.00977-6.60303,1.42773-2.02686,1.41992-3.2085,3.31348-3.54639,5.67969-.33838,2.36719-.01123,5.14551.98193,8.33301.99219,3.18945,2.55908,6.69727,4.69873,10.52246,2.13965,3.82812,4.74121,7.92676,7.80127,12.29688,3.06201,4.37207,6.03809,8.24023,8.93164,11.59961,2.89307,3.36328,5.66895,6.05664,8.32568,8.0791,2.65625,2.02441,5.1543,3.28125,7.49463,3.77246,2.33984.49316,4.52246.02832,6.54932-1.3916,2.02539-1.41797,3.22656-3.32129,3.60059-5.71582.37305-2.39062.0459-5.16797-.98193-8.33301-1.02832-3.16211-2.62891-6.67871-4.79785-10.54883-2.16895-3.86621-4.78369-7.9873-7.8457-12.35938Z" style="fill:#201447;"/><path d="M378.97607,458.3164c10.30273,14.71289,15.79883,27.68555,16.49023,38.91406.69141,11.2334-3.19629,19.81055-11.66309,25.73926s-17.85889,6.64941-28.17578,2.15625c-10.31689-4.48828-20.625-14.0918-30.92773-28.80469-5.12109-7.31445-9.02051-14.23047-11.69775-20.75-2.67822-6.51758-4.17627-12.54883-4.49609-18.08887-.31982-5.53809.47754-10.4834,2.39404-14.83301,1.91553-4.34766,4.93701-7.9668,9.06201-10.85449,8.46729-5.92871,17.85791-6.64551,28.17529-2.15723,10.31641,4.49316,20.5957,14.05078,30.83887,28.67871ZM362.47607,469.87011c-3.06006-4.37012-6.02295-8.21582-8.88721-11.53711-2.86377-3.31836-5.60596-6.00293-8.22656-8.05273-2.62109-2.04688-5.11963-3.30469-7.49463-3.77148-2.37598-.46582-4.57812.00977-6.60352,1.42773-2.02686,1.41895-3.2085,3.3125-3.54639,5.67871-.33838,2.36816-.01123,5.14551.98193,8.33301.99219,3.18945,2.55908,6.69727,4.69873,10.52246,2.14014,3.82812,4.74121,7.92676,7.80127,12.29688,3.06201,4.37207,6.03809,8.24023,8.93164,11.59961,2.89307,3.36328,5.66895,6.05664,8.32568,8.0791,2.65625,2.02441,5.1543,3.28223,7.49463,3.77246,2.33984.49316,4.52246.02832,6.5498-1.39062,2.02441-1.41797,3.22559-3.32227,3.59961-5.71582.37402-2.3916.04688-5.16895-.98145-8.33398-1.02832-3.16211-2.62891-6.67773-4.79785-10.54883-2.16895-3.86621-4.78369-7.9873-7.8457-12.35938Z" style="fill:#201447;"/><path d="M440.63232,415.14452c10.30273,14.71289,15.79883,27.68457,16.49023,38.91309.69141,11.2334-3.19531,19.81055-11.66211,25.73926-8.46777,5.92871-17.85938,6.64941-28.17578,2.15625-10.31738-4.48828-20.625-14.0918-30.92773-28.80469-5.12109-7.31445-9.02051-14.22949-11.69824-20.75-2.67773-6.51758-4.17578-12.54883-4.49609-18.08887-.31934-5.53809.47754-10.4834,2.39453-14.83203,1.91504-4.34766,4.93652-7.9668,9.06152-10.85547,8.4668-5.92871,17.8584-6.64551,28.1748-2.15625,10.31738,4.49219,20.59668,14.05078,30.83887,28.67871ZM424.13232,426.69726c-3.05957-4.37012-6.02246-8.21582-8.88672-11.53711-2.86328-3.31738-5.60547-6.00293-8.22656-8.05176-2.62109-2.04785-5.11914-3.30469-7.49414-3.77246-2.37695-.46582-4.5791.00977-6.60352,1.42773-2.02734,1.41895-3.20898,3.31348-3.54688,5.67871-.33789,2.36816-.01074,5.14551.98242,8.33301.99219,3.18945,2.55859,6.69727,4.69824,10.52246,2.13965,3.8291,4.74121,7.92773,7.80176,12.29688,3.06152,4.37305,6.03809,8.24121,8.93164,11.59961,2.89258,3.36328,5.66895,6.05664,8.3252,8.0791,2.65625,2.02441,5.1543,3.28223,7.49512,3.77246,2.33984.49414,4.52246.02832,6.54883-1.39062,2.02539-1.41797,3.22656-3.32227,3.60059-5.71582.37305-2.39062.0459-5.16895-.98145-8.33301-1.02832-3.16309-2.62891-6.67871-4.79785-10.5498-2.16895-3.86621-4.78418-7.9873-7.84668-12.35938Z" style="fill:#201447;"/><path d="M502.28955,371.97167c10.30273,14.71289,15.79883,27.68555,16.49023,38.91406.69141,11.23242-3.19531,19.80957-11.66309,25.73828-8.4668,5.92871-17.8584,6.64941-28.17578,2.15723-10.31641-4.48926-20.625-14.09277-30.92773-28.80566-5.12109-7.31445-9.02051-14.22949-11.69727-20.75-2.67871-6.51758-4.17676-12.54883-4.49609-18.08789-.32031-5.53906.47754-10.48438,2.39453-14.83301,1.91504-4.34766,4.93652-7.9668,9.06152-10.85547,8.4668-5.92871,17.85742-6.64551,28.1748-2.15625,10.31641,4.49316,20.59668,14.05078,30.83887,28.67871ZM485.78955,383.52441c-3.05957-4.37012-6.02246-8.21484-8.88672-11.53613-2.86426-3.31836-5.60645-6.00293-8.22656-8.05273-2.62207-2.04688-5.12012-3.30469-7.49512-3.77246-2.37598-.46582-4.57812.00977-6.60352,1.42773-2.02637,1.41992-3.20801,3.31348-3.5459,5.67871-.33887,2.36816-.01172,5.14551.98145,8.33301.99219,3.18945,2.55859,6.69824,4.69922,10.52344,2.13965,3.82812,4.74121,7.92676,7.80078,12.29688,3.0625,4.37207,6.03809,8.24023,8.93164,11.59961,2.89258,3.36328,5.66992,6.05664,8.32617,8.07812,2.65625,2.02539,5.1543,3.28223,7.49414,3.77246,2.33984.49414,4.52246.02832,6.5498-1.39062,2.02441-1.41797,3.22559-3.32227,3.59961-5.71582.37402-2.39062.04688-5.16797-.98145-8.33301-1.02832-3.16211-2.62891-6.67871-4.79688-10.54883-2.16992-3.86621-4.78418-7.98828-7.84668-12.36035Z" style="fill:#201447;"/><path d="M563.94678,328.79882c10.30273,14.71289,15.79883,27.68555,16.49023,38.91406.69141,11.23242-3.19629,19.80957-11.66309,25.73828-8.46777,5.92871-17.8584,6.64941-28.17578,2.15723-10.31738-4.48926-20.625-14.0918-30.92773-28.80469-5.12109-7.31445-9.02051-14.23047-11.69824-20.75-2.67773-6.51855-4.17578-12.54883-4.49609-18.08887-.31934-5.53809.47754-10.4834,2.39453-14.83301,1.91504-4.34766,4.93652-7.9668,9.06152-10.85449,8.46777-5.92871,17.8584-6.64551,28.17578-2.15723,10.31641,4.49316,20.5957,14.05078,30.83887,28.67871ZM547.44678,340.35253c-3.06055-4.37012-6.02344-8.21582-8.88672-11.53711-2.86426-3.31836-5.60645-6.00293-8.22656-8.05273-2.62207-2.04688-5.12012-3.30469-7.49512-3.77246-2.37598-.46484-4.5791.01074-6.60352,1.42871-2.02734,1.41895-3.20898,3.3125-3.5459,5.67871-.33887,2.36816-.01172,5.14551.98145,8.33301.99219,3.18945,2.55859,6.69727,4.69824,10.52246,2.14062,3.82812,4.74121,7.92676,7.80176,12.29688,3.06152,4.37207,6.03809,8.24023,8.93164,11.59961,2.89258,3.36328,5.66895,6.05664,8.3252,8.0791,2.65625,2.02441,5.1543,3.28125,7.49512,3.77246,2.33984.49316,4.52246.02832,6.54883-1.3916,2.02539-1.41797,3.22656-3.32227,3.60059-5.71582.37402-2.39062.04688-5.16797-.98145-8.33301-1.02832-3.16211-2.62891-6.67871-4.79785-10.54883-2.16895-3.86621-4.78418-7.9873-7.8457-12.35938Z" style="fill:#201447;"/><path d="M557.48682,295.54687c1.3916-2.47754,2.77344-5.16504,4.13965-8.06641,1.36719-2.89844,2.5918-5.88574,3.67285-8.96191,1.08301-3.07422,2.01465-6.16992,2.79785-9.28906.78418-3.11426,1.29492-6.19727,1.5332-9.24805l11.28906-7.9043,61.19287,87.3916-16.17432,11.3252-44.0625-62.92676c-.99316,3.20312-2.34473,6.43457-4.0498,9.69531-1.70703,3.26172-3.47363,6.28516-5.2998,9.06641l-15.03906-11.08203Z" style="fill:#201447;"/><path d="M645.14746,255.77929c2.64844,3.7832,3.63477,7.38672,2.95508,10.80566-.67871,3.41992-2.32227,6.04102-4.92676,7.86523-2.60596,1.82422-5.63135,2.47168-9.07764,1.94043-3.44434-.53125-6.49316-2.69043-9.1416-6.47363-2.64941-3.78223-3.63379-7.38379-2.95508-10.80371.67969-3.41797,2.32129-6.04297,4.92578-7.86719,2.60547-1.82422,5.63281-2.46777,9.07715-1.93848,3.44629.53223,6.49365,2.68945,9.14307,6.47168ZM669.50488,291.72167c1.55762,1.91797,2.64941,3.28418,3.27441,4.09766.625.81641,1.14355,1.51953,1.55469,2.10645,1.7666,2.52246,3.43555,5.33203,5.00977,8.42578,1.5752,3.0957,2.99902,6.3252,4.27832,9.68945,1.27637,3.36426,2.37402,6.85742,3.29102,10.47559.91504,3.61719,1.59766,7.21289,2.04883,10.78125l-15.26172,5.23633c-2.2207-6.71289-4.71387-12.73926-7.47559-18.07031-2.76172-5.33008-5.26172-9.59277-7.5-12.78906-.35352-.50488-.82715-1.14258-1.42285-1.91797-.5957-.77148-1.20508-1.56543-1.83008-2.38281-.625-.8125-1.2207-1.58691-1.78613-2.31934-.56738-.73047-.9375-1.22266-1.11426-1.47559l16.93359-11.85742Z" style="fill:#201447;"/></g></svg>