<?xml version="1.0" encoding="UTF-8"?>
<svg id="Layer_1" xmlns="http://www.w3.org/2000/svg" version="1.1" viewBox="0 0 9 13">
  <!-- Generator: Adobe Illustrator 29.1.0, SVG Export Plug-In . SVG Version: 2.1.0 Build 142)  -->
  <defs>
    <style>
      .st0 {
        fill: #777;
      }
    </style>
  </defs>
  <path class="st0" d="M.1,10.2c-.2.2-.2.4,0,.6l2.1,2.1c.2.2.4.2.6,0l2.1-2.1c.2-.2.2-.4,0-.6l-2.1-2.1c-.2-.2-.4-.2-.6,0L.1,10.2Z"/>
  <path class="st0" d="M4.1,6.8c-.2-.2-.2-.4,0-.6l2.1-2.1c.2-.2.4-.2.6,0l2.1,2.1c.2.2.2.4,0,.6l-2.1,2.1c-.2.2-.4.2-.6,0l-2.1-2.1Z"/>
  <path class="st0" d="M.1,2.8c-.2-.2-.2-.4,0-.6L2.2.1c.2-.2.4-.2.6,0l2.1,2.1c.2.2.2.4,0,.6l-2.1,2.1c-.2.2-.4.2-.6,0L.1,2.8Z"/>
</svg>