<svg xmlns="http://www.w3.org/2000/svg" xmlns:xlink="http://www.w3.org/1999/xlink" width="500" zoomAndPan="magnify" viewBox="0 0 375 374.999991" height="500" preserveAspectRatio="xMidYMid meet" version="1.0"><defs><clipPath id="id1"><path d="M 67.195312 46.460938 L 307.945312 46.460938 L 307.945312 248.210938 L 67.195312 248.210938 Z M 67.195312 46.460938 " clip-rule="nonzero"/></clipPath><clipPath id="id2"><path d="M 14.964844 220.140625 L 359.964844 220.140625 L 359.964844 276.390625 L 14.964844 276.390625 Z M 14.964844 220.140625 " clip-rule="nonzero"/></clipPath></defs><rect x="-37.5" width="450" fill="#ffffff" y="-37.499999" height="449.999989" fill-opacity="1"/><rect x="-37.5" width="450" fill="#ffffff" y="-37.499999" height="449.999989" fill-opacity="1"/><rect x="-37.5" width="450" fill="#ffffff" y="-37.499999" height="449.999989" fill-opacity="1"/><g clip-path="url(#id1)"><rect x="-37.5" width="450" fill="#ffffff" y="-37.499999" height="449.999989" fill-opacity="1"/><rect x="-37.5" width="450" fill="#ffffff" y="-37.499999" height="449.999989" fill-opacity="1"/></g><path fill="#26de81" d="M 201.03125 165.496094 L 294.003906 165.496094 L 219.277344 188.226562 Z M 201.03125 165.496094 " fill-opacity="1" fill-rule="nonzero"/><path fill="#20b265" d="M 201.03125 165.5 L 231.84375 129.164062 L 294.003906 165.5 Z M 201.03125 165.5 " fill-opacity="1" fill-rule="nonzero"/><path fill="#187f47" d="M 201.03125 92.023438 L 231.84375 129.160156 L 214.023438 150.175781 L 201.03125 134.121094 Z M 201.03125 92.023438 " fill-opacity="1" fill-rule="nonzero"/><path fill="#26de81" d="M 181.117188 137.804688 L 88.144531 137.804688 L 162.871094 115.074219 Z M 181.117188 137.804688 " fill-opacity="1" fill-rule="nonzero"/><path fill="#20b265" d="M 181.117188 137.804688 L 150.304688 174.140625 L 88.144531 137.804688 Z M 181.117188 137.804688 " fill-opacity="1" fill-rule="nonzero"/><path fill="#187f47" d="M 181.117188 211.277344 L 150.304688 174.140625 L 168.128906 153.125 L 181.121094 169.179688 Z M 181.117188 211.277344 " fill-opacity="1" fill-rule="nonzero"/><g clip-path="url(#id2)"><rect x="-37.5" width="450" fill="#ffffff" y="-37.499999" height="449.999989" fill-opacity="1"/><rect x="-37.5" width="450" fill="#ffffff" y="-37.499999" height="449.999989" fill-opacity="1"/></g><path fill="#000000" d="M 54.679688 266.328125 L 61.859375 266.328125 L 43.394531 231.648438 L 24.925781 266.328125 L 32.109375 266.328125 L 36.078125 258.875 L 50.710938 258.875 Z M 39.453125 252.539062 L 43.394531 245.136719 L 47.332031 252.539062 Z M 39.453125 252.539062 " fill-opacity="1" fill-rule="nonzero"/><path fill="#000000" d="M 76.632812 266.332031 L 69.921875 266.332031 L 69.921875 234.839844 L 91.03125 252.0625 L 91.03125 234.707031 L 97.742188 234.707031 L 97.742188 266.199219 L 76.632812 248.976562 Z M 76.632812 266.332031 " fill-opacity="1" fill-rule="nonzero"/><path fill="#000000" d="M 140.101562 234.691406 L 127.664062 251.425781 L 127.667969 266.179688 L 120.957031 266.179688 L 120.957031 251.425781 L 108.65625 234.691406 L 115.371094 234.691406 L 124.3125 245.890625 L 133.390625 234.691406 Z M 140.101562 234.691406 " fill-opacity="1" fill-rule="nonzero"/><path fill="#000000" d="M 301.246094 234.710938 L 286.015625 234.710938 C 284.976562 234.710938 283.949219 234.8125 282.929688 235.015625 C 281.910156 235.21875 280.921875 235.515625 279.964844 235.914062 C 279.003906 236.3125 278.09375 236.796875 277.230469 237.375 C 276.367188 237.953125 275.570312 238.605469 274.835938 239.339844 C 274.101562 240.074219 273.445312 240.875 272.867188 241.738281 C 272.292969 242.601562 271.804688 243.511719 271.40625 244.46875 C 271.011719 245.429688 270.710938 246.417969 270.507812 247.4375 C 270.304688 248.453125 270.203125 249.480469 270.203125 250.519531 C 270.203125 251.558594 270.304688 252.585938 270.507812 253.605469 C 270.710938 254.621094 271.011719 255.613281 271.40625 256.570312 C 271.804688 257.53125 272.292969 258.441406 272.867188 259.304688 C 273.445312 260.167969 274.101562 260.964844 274.835938 261.699219 C 275.570312 262.433594 276.367188 263.089844 277.230469 263.664062 C 278.09375 264.242188 279.003906 264.730469 279.964844 265.125 C 280.921875 265.523438 281.910156 265.824219 282.929688 266.027344 C 283.949219 266.230469 284.976562 266.328125 286.015625 266.332031 L 301.84375 266.332031 L 301.84375 247.207031 L 285.417969 247.207031 L 285.417969 253.835938 L 295.214844 253.835938 L 295.214844 259.703125 L 286.019531 259.703125 C 285.417969 259.703125 284.820312 259.644531 284.226562 259.527344 C 283.636719 259.410156 283.0625 259.234375 282.503906 259.003906 C 281.949219 258.773438 281.417969 258.492188 280.917969 258.15625 C 280.417969 257.820312 279.953125 257.441406 279.527344 257.015625 C 279.101562 256.589844 278.71875 256.125 278.382812 255.625 C 278.050781 255.121094 277.765625 254.59375 277.535156 254.035156 C 277.304688 253.480469 277.128906 252.90625 277.011719 252.3125 C 276.894531 251.722656 276.835938 251.125 276.835938 250.523438 C 276.835938 249.917969 276.894531 249.320312 277.011719 248.730469 C 277.128906 248.136719 277.304688 247.5625 277.535156 247.007812 C 277.765625 246.449219 278.050781 245.921875 278.382812 245.417969 C 278.71875 244.917969 279.101562 244.453125 279.527344 244.027344 C 279.953125 243.601562 280.417969 243.222656 280.917969 242.886719 C 281.417969 242.550781 281.949219 242.269531 282.503906 242.039062 C 283.0625 241.808594 283.636719 241.632812 284.226562 241.515625 C 284.820312 241.398438 285.417969 241.339844 286.019531 241.339844 L 301.847656 241.339844 L 301.847656 234.710938 Z M 301.246094 234.710938 " fill-opacity="1" fill-rule="nonzero"/><path fill="#000000" d="M 200.949219 240.976562 L 218.46875 240.976562 L 218.46875 234.632812 L 200.949219 234.632812 C 200.347656 234.632812 199.753906 234.691406 199.167969 234.808594 C 198.578125 234.925781 198.007812 235.101562 197.453125 235.332031 C 196.898438 235.5625 196.375 235.84375 195.875 236.175781 C 195.378906 236.507812 194.914062 236.886719 194.492188 237.3125 C 194.066406 237.734375 193.6875 238.195312 193.355469 238.695312 C 193.023438 239.195312 192.742188 239.71875 192.511719 240.273438 C 192.28125 240.828125 192.109375 241.398438 191.988281 241.984375 C 191.871094 242.574219 191.8125 243.167969 191.8125 243.769531 L 191.8125 257.191406 C 191.8125 257.789062 191.871094 258.382812 191.992188 258.972656 C 192.109375 259.5625 192.28125 260.132812 192.511719 260.683594 C 192.742188 261.238281 193.023438 261.765625 193.355469 262.261719 C 193.691406 262.761719 194.066406 263.222656 194.492188 263.648438 C 194.917969 264.070312 195.378906 264.449219 195.875 264.78125 C 196.375 265.117188 196.902344 265.398438 197.453125 265.628906 C 198.007812 265.855469 198.578125 266.03125 199.167969 266.148438 C 199.753906 266.265625 200.347656 266.324219 200.949219 266.324219 L 218.46875 266.324219 L 218.46875 259.988281 L 200.949219 259.988281 C 200.578125 259.984375 200.222656 259.914062 199.878906 259.773438 C 199.535156 259.628906 199.234375 259.429688 198.972656 259.167969 C 198.710938 258.90625 198.507812 258.601562 198.367188 258.261719 C 198.222656 257.917969 198.152344 257.5625 198.152344 257.191406 L 198.152344 253.648438 L 215.277344 253.648438 L 215.277344 247.308594 L 198.152344 247.308594 L 198.152344 243.769531 C 198.152344 243.398438 198.222656 243.039062 198.363281 242.699219 C 198.507812 242.355469 198.710938 242.054688 198.972656 241.789062 C 199.234375 241.527344 199.535156 241.324219 199.878906 241.183594 C 200.222656 241.042969 200.578125 240.96875 200.949219 240.96875 " fill-opacity="1" fill-rule="nonzero"/><path fill="#000000" d="M 322.257812 240.976562 L 339.78125 240.976562 L 339.78125 234.632812 L 322.257812 234.632812 C 321.660156 234.632812 321.066406 234.691406 320.476562 234.808594 C 319.890625 234.925781 319.316406 235.101562 318.765625 235.332031 C 318.210938 235.558594 317.683594 235.84375 317.1875 236.175781 C 316.6875 236.507812 316.226562 236.886719 315.800781 237.3125 C 315.378906 237.734375 315 238.195312 314.664062 238.695312 C 314.332031 239.195312 314.050781 239.71875 313.820312 240.273438 C 313.589844 240.828125 313.417969 241.398438 313.300781 241.984375 C 313.183594 242.574219 313.125 243.167969 313.125 243.769531 L 313.125 257.191406 C 313.125 257.789062 313.183594 258.382812 313.300781 258.972656 C 313.417969 259.5625 313.59375 260.132812 313.820312 260.683594 C 314.050781 261.238281 314.332031 261.765625 314.667969 262.265625 C 315 262.761719 315.378906 263.222656 315.800781 263.648438 C 316.226562 264.070312 316.6875 264.449219 317.1875 264.785156 C 317.683594 265.117188 318.210938 265.398438 318.765625 265.628906 C 319.316406 265.859375 319.890625 266.03125 320.476562 266.148438 C 321.066406 266.265625 321.660156 266.324219 322.257812 266.328125 L 339.78125 266.328125 L 339.78125 259.988281 L 322.257812 259.988281 C 321.886719 259.984375 321.53125 259.914062 321.1875 259.773438 C 320.847656 259.632812 320.542969 259.429688 320.28125 259.167969 C 320.019531 258.90625 319.816406 258.601562 319.675781 258.261719 C 319.535156 257.917969 319.460938 257.5625 319.460938 257.191406 L 319.460938 253.648438 L 336.589844 253.648438 L 336.589844 247.308594 L 319.460938 247.308594 L 319.460938 243.769531 C 319.460938 243.398438 319.53125 243.039062 319.675781 242.699219 C 319.816406 242.355469 320.019531 242.054688 320.28125 241.789062 C 320.542969 241.527344 320.847656 241.328125 321.1875 241.183594 C 321.53125 241.042969 321.886719 240.972656 322.257812 240.972656 " fill-opacity="1" fill-rule="nonzero"/><path fill="#000000" d="M 180.515625 234.707031 L 180.515625 266.332031 L 173.804688 266.332031 L 173.804688 253.859375 L 155.605469 253.859375 L 155.605469 266.328125 L 148.894531 266.328125 L 148.894531 234.707031 L 155.605469 234.707031 L 155.605469 247.164062 L 173.804688 247.164062 L 173.804688 234.707031 Z M 180.515625 234.707031 " fill-opacity="1" fill-rule="nonzero"/><path fill="#000000" d="M 231.171875 235.320312 L 245.257812 235.320312 C 248.625 235.320312 251.597656 235.960938 254.183594 237.246094 C 256.71875 238.46875 258.726562 240.277344 260.207031 242.671875 C 261.640625 245.007812 262.355469 247.722656 262.355469 250.824219 C 262.355469 253.925781 261.640625 256.644531 260.207031 258.976562 C 258.730469 261.371094 256.722656 263.183594 254.183594 264.402344 C 251.597656 265.6875 248.621094 266.332031 245.257812 266.328125 L 231.171875 266.328125 Z M 244.902344 260.4375 C 248.003906 260.4375 250.476562 259.574219 252.324219 257.847656 C 254.167969 256.121094 255.089844 253.777344 255.089844 250.824219 C 255.089844 247.871094 254.167969 245.53125 252.324219 243.804688 C 250.476562 242.074219 248.003906 241.210938 244.902344 241.210938 L 238.347656 241.210938 L 238.347656 260.4375 Z M 244.902344 260.4375 " fill-opacity="1" fill-rule="nonzero"/></svg>