<?xml version="1.0" encoding="utf-8"?>
<!-- Generator: Adobe Illustrator 16.0.0, SVG Export Plug-In . SVG Version: 6.00 Build 0)  -->
<!DOCTYPE svg PUBLIC "-//W3C//DTD SVG 1.1//EN" "http://www.w3.org/Graphics/SVG/1.1/DTD/svg11.dtd">
<svg version="1.1" id="Layer_1" xmlns="http://www.w3.org/2000/svg" xmlns:xlink="http://www.w3.org/1999/xlink" x="0px" y="0px"
	 width="258.024px" height="132.7px" viewBox="0 0 258.024 132.7" enable-background="new 0 0 258.024 132.7" xml:space="preserve">
<path opacity="0.17" fill="#00C58B" d="M254.388,81.387l0.214,0.361c0.498,0.841,0.769,1.564,0.78,2.225
	c0.05,2.688-1.308,5.613-3.832,8.587c-2.504,2.952-6.004,5.771-9.856,8.204c-8.193,5.178-18.001,7.164-27.561,5.584
	c-9.561-1.582-18.208-6.621-24.298-14.16c-6.09-7.537-9.197-17.051-8.732-26.73c0.466-9.678,4.47-18.85,11.253-25.77
	c6.783-6.922,15.874-11.107,25.542-11.766c9.912-0.674,19.174,0.403,26.729,8.045c1.132,1.146,2.31,2.281,3.438,3.369
	c0.747,0.723,1.474,1.422,2.15,2.09c1.751,1.728,3.272,3.338,4.442,4.929c1.169,1.588,1.925,3.077,2.223,4.55
	c0.29,1.439,0.166,2.967-0.601,4.699c-0.356,0.806-1.035,1.531-1.957,2.201l-1.109,0.807c-1.323,0.963-2.917,1.48-4.554,1.48
	c-0.38,0-0.76-0.027-1.134-0.083l-0.666-0.099c-1.559-0.23-2.987-0.906-4.082-1.964c-0.424-0.407-0.861-0.835-1.312-1.274
	c-2.237-2.184-4.795-4.678-7.407-6.703c-4.264-3.305-9.591-4.929-14.972-4.562c-5.382,0.366-10.44,2.697-14.216,6.549
	c-3.776,3.852-6.005,8.956-6.263,14.344c-0.259,5.387,1.471,10.682,4.86,14.877c3.389,4.195,8.201,7,13.522,7.881
	c5.32,0.879,10.78-0.227,15.34-3.107l0.061-0.038l0.056-0.042c1.986-1.494,3.56-2.716,4.892-3.751
	c2.058-1.597,3.543-2.749,5.087-3.77c0.716-0.474,1.566-0.791,2.498-0.966l0.735-0.139c1.403-0.263,2.853-0.137,4.189,0.365
	c0.697,0.26,1.353,0.62,1.947,1.066l0.496,0.372C253.14,79.683,253.851,80.478,254.388,81.387"/>
<g>
	<path fill="#FFFFFF" d="M22.537,101.56c-3.708,0-7.399-0.114-11.073-0.341c-3.675-0.229-7.497-0.764-11.463-1.61V34.048
		c3.122-0.585,6.537-1.024,10.244-1.317c3.707-0.293,7.154-0.438,10.341-0.438c4.292,0,8.244,0.31,11.854,0.927
		c3.61,0.619,6.715,1.676,9.317,3.171c2.601,1.497,4.634,3.464,6.098,5.902s2.195,5.448,2.195,9.024
		c0,5.398-2.602,9.658-7.805,12.78c4.293,1.626,7.22,3.839,8.781,6.634c1.561,2.797,2.341,5.951,2.341,9.463
		c0,7.09-2.585,12.424-7.756,16C40.439,99.772,32.747,101.56,22.537,101.56z M14.829,59.61h7.415c4.683,0,8.032-0.602,10.049-1.806
		c2.015-1.202,3.024-3.138,3.024-5.805c0-2.731-1.041-4.649-3.122-5.756c-2.082-1.105-5.139-1.659-9.17-1.659
		c-1.302,0-2.7,0.018-4.195,0.049c-1.497,0.034-2.829,0.115-4,0.244V59.61z M14.829,71.219v17.463
		c1.105,0.131,2.308,0.229,3.61,0.293c1.3,0.065,2.732,0.098,4.292,0.098c4.552,0,8.228-0.65,11.024-1.951
		c2.796-1.301,4.195-3.707,4.195-7.22c0-3.122-1.171-5.349-3.512-6.683c-2.341-1.332-5.692-2-10.049-2H14.829z"/>
	<path fill="#FFFFFF" d="M90.536,102.047c-10.992,0-19.366-3.056-25.122-9.17c-5.756-6.113-8.634-14.796-8.634-26.049
		c0-5.593,0.878-10.585,2.634-14.976c1.756-4.39,4.162-8.097,7.219-11.122c3.057-3.023,6.698-5.316,10.927-6.877
		c4.227-1.562,8.812-2.342,13.756-2.342c2.861,0,5.463,0.211,7.805,0.634c2.341,0.424,4.39,0.911,6.146,1.464
		c1.756,0.553,3.219,1.121,4.39,1.707c1.17,0.585,2.015,1.041,2.537,1.365l-4.391,12.293c-2.082-1.105-4.504-2.049-7.268-2.829
		c-2.765-0.78-5.902-1.171-9.415-1.171c-2.341,0-4.634,0.391-6.878,1.171c-2.244,0.78-4.229,2.034-5.951,3.756
		c-1.724,1.724-3.107,3.951-4.146,6.683c-1.041,2.732-1.561,6.049-1.561,9.951c0,3.122,0.342,6.033,1.024,8.732
		c0.683,2.699,1.788,5.023,3.317,6.975c1.527,1.951,3.527,3.498,6,4.635c2.471,1.139,5.463,1.707,8.975,1.707
		c2.21,0,4.195-0.129,5.951-0.391c1.756-0.259,3.317-0.568,4.683-0.926s2.568-0.764,3.61-1.221c1.04-0.453,1.983-0.877,2.829-1.268
		l4.195,12.195c-2.146,1.302-5.171,2.473-9.073,3.512C100.194,101.527,95.673,102.047,90.536,102.047z"/>
	<path fill="#FFFFFF" d="M157.852,33.073h15.22v67.609h-15.22V72h-25.561v28.683h-15.22V33.073h15.22v25.854h25.561V33.073z"/>
</g>
<path fill="none" stroke="#00C58B" stroke-width="2" stroke-miterlimit="10" d="M254.388,81.387l0.214,0.361
	c0.498,0.841,0.769,1.564,0.78,2.225c0.05,2.688-1.308,5.613-3.832,8.587c-2.504,2.952-6.004,5.771-9.856,8.204
	c-8.193,5.178-18.001,7.164-27.561,5.584c-9.561-1.582-18.208-6.621-24.298-14.16c-6.09-7.537-9.197-17.051-8.732-26.73
	c0.466-9.678,4.47-18.85,11.253-25.77c6.783-6.922,15.874-11.107,25.542-11.766c9.912-0.674,19.174,0.403,26.729,8.045
	c1.132,1.146,2.31,2.281,3.438,3.369c0.747,0.723,1.474,1.422,2.15,2.09c1.751,1.728,3.272,3.338,4.442,4.929
	c1.169,1.588,1.925,3.077,2.223,4.55c0.29,1.439,0.166,2.967-0.601,4.699c-0.356,0.806-1.035,1.531-1.957,2.201l-1.109,0.807
	c-1.323,0.963-2.917,1.48-4.554,1.48c-0.38,0-0.76-0.027-1.134-0.083l-0.666-0.099c-1.559-0.23-2.987-0.906-4.082-1.964
	c-0.424-0.407-0.861-0.835-1.312-1.274c-2.237-2.184-4.795-4.678-7.407-6.703c-4.264-3.305-9.591-4.929-14.972-4.562
	c-5.382,0.366-10.44,2.697-14.216,6.549c-3.776,3.852-6.005,8.956-6.263,14.344c-0.259,5.387,1.471,10.682,4.86,14.877
	c3.389,4.195,8.201,7,13.522,7.881c5.32,0.879,10.78-0.227,15.34-3.107l0.061-0.038l0.056-0.042c1.986-1.494,3.56-2.716,4.892-3.751
	c2.058-1.597,3.543-2.749,5.087-3.77c0.716-0.474,1.566-0.791,2.498-0.966l0.735-0.139c1.403-0.263,2.853-0.137,4.189,0.365
	c0.697,0.26,1.353,0.62,1.947,1.066l0.496,0.372C253.14,79.683,253.851,80.478,254.388,81.387"/>
<path fill="none" stroke="#00C58B" stroke-width="2" stroke-miterlimit="10" d="M213.485,3.599l41.108,42.286
	c3.305,3.397,3.228,8.83-0.171,12.135l0,0c-3.397,3.303-8.83,3.227-12.136-0.172l-41.108-42.285
	c-3.302-3.398-3.226-8.832,0.172-12.135l0,0C204.749,0.125,210.181,0.201,213.485,3.599z"/>
<path fill="none" stroke="#00C58B" stroke-width="2" stroke-miterlimit="10" d="M196.069,116.512l45.402-37.639
	c3.648-3.025,9.06-2.52,12.083,1.13l0,0c3.023,3.648,2.519,9.058-1.13,12.083l-45.402,37.639c-3.647,3.023-9.058,2.518-12.082-1.131
	l0,0C191.914,124.946,192.42,119.536,196.069,116.512z"/>
</svg>
