<?xml version="1.0" encoding="UTF-8"?>
<svg id="Layer_1" xmlns="http://www.w3.org/2000/svg" version="1.1" viewBox="0 0 160.3 79.3">
  <!-- Generator: Adobe Illustrator 29.1.0, SVG Export Plug-In . SVG Version: 2.1.0 Build 142)  -->
  <defs>
    <style>
      .st0 {
        fill: #24e6aa;
      }
    </style>
  </defs>
  <path class="st0" d="M95.2,76.8L104.4,2.6c.1-1,.8-1.7,1.8-1.7h27.6c17.6,0,28.2,10,26.4,24.9l-3.3,27.7c-1.9,14.9-15,24.9-32.6,24.9h-27.6c-1.1,0-1.6-.7-1.5-1.6ZM118,60.6h9.2c4.8,0,8.7-4.2,9.7-10.6l2.5-20.6c.8-6.4-2.1-10.6-7.3-10.6h-9c-.4,0-.7.2-.8.7l-5,40.5c.1.4.2.6.7.6h0ZM23.1,26.7c-2.6,0-3.8-1.1-2.8-2.5,1.1-1.4,4.1-2.5,6.6-2.5h52.7c2.6,0,4.5,1.1,4.3,2.5s-2.5,2.5-5.1,2.5H23.1ZM3.2,38.9c-2.6,0-3.8-1.1-2.8-2.5s4-2.4,6.6-2.4h71c2.6,0,4.6,1.1,4.4,2.5s-2.4,2.5-5,2.5c0,0-74.2,0-74.2,0ZM35.3,51.1c-2.6,0-4.1-1.1-3.3-2.5.8-1.4,3.5-2.5,6.1-2.5h38.6c2.6,0,4.6,1.1,4.4,2.5s-2.5,2.5-5,2.5h-40.8Z"/>
</svg>