<?xml version="1.0" encoding="UTF-8" standalone="no"?>
<!-- Created with Inkscape (http://www.inkscape.org/) -->

<svg
   width="114.92585mm"
   height="147.56235mm"
   viewBox="0 0 114.92585 147.56235"
   version="1.1"
   id="svg532"
   xmlns:inkscape="http://www.inkscape.org/namespaces/inkscape"
   xmlns:sodipodi="http://sodipodi.sourceforge.net/DTD/sodipodi-0.dtd"
   xmlns="http://www.w3.org/2000/svg"
   xmlns:svg="http://www.w3.org/2000/svg">
  <sodipodi:namedview
     id="namedview534"
     pagecolor="#ffffff"
     bordercolor="#666666"
     borderopacity="1.0"
     inkscape:showpageshadow="2"
     inkscape:pageopacity="0.0"
     inkscape:pagecheckerboard="0"
     inkscape:deskcolor="#d1d1d1"
     inkscape:document-units="mm"
     showgrid="false" />
  <defs
     id="defs529" />
  <g
     inkscape:label="Capa 1"
     inkscape:groupmode="layer"
     id="layer1"
     transform="translate(-57.518598,-85.347158)">
    <path
       d="m 111.76668,86.507831 v 16.838079 c 1.26083,0.3302 2.59186,0.7165 3.99274,1.15958 3.73556,1.18393 7.0231,2.72027 9.86049,4.61116 2.83774,1.89301 5.27191,4.61081 7.30709,8.15799 2.0327,3.54683 3.05011,7.59001 3.05011,12.13061 0,4.44677 -0.70943,8.39506 -2.12795,11.84628 -1.41887,3.45405 -3.12138,6.00781 -5.10787,7.66163 -1.98614,1.65629 -3.97263,3.00355 -5.95877,4.04389 -1.98614,1.04175 -3.689,1.65559 -5.10752,1.84397 l -2.12831,0.4258 c 0.66076,0.0949 1.53635,0.28399 2.62502,0.56762 1.08585,0.28364 3.02578,1.08832 5.81696,2.41159 2.7887,1.32609 5.24933,2.93264 7.37764,4.82424 2.12795,1.893 4.06541,4.68136 5.81695,8.37071 1.74907,3.68864 2.62431,7.85213 2.62431,12.48516 0,18.03435 -9.3539,28.61803 -28.04089,31.76693 v 16.09584 c 34.49708,-6.18314 60.67777,-36.34423 60.67777,-72.62036 0,-36.2765 -26.18069,-66.437583 -60.67777,-72.620719"
       style="fill:#007f33;fill-opacity:1;fill-rule:nonzero;stroke:none;stroke-width:0.352778"
       id="path120" />
    <path
       d="m 98.947057,159.05748 h -6.10059 l 0.14182,49.79917 h 5.95877 c 3.026133,0 5.579893,-2.15053 7.661633,-6.45548 2.07927,-4.30283 3.12102,-10.7121 3.12102,-19.22427 0,-8.51288 -1.01741,-14.66004 -3.05047,-18.44393 -2.03482,-3.78248 -4.6108,-5.67549 -7.732183,-5.67549"
       style="fill:#007f33;fill-opacity:1;fill-rule:nonzero;stroke:none;stroke-width:0.352778"
       id="path124" />
    <path
       d="m 98.947057,109.40016 h -6.10059 l 0.14182,41.57028 h 5.95877 c 1.228023,0 2.482853,-0.6604 3.759913,-1.98614 1.2767,-1.32327 2.43381,-3.66466 3.47591,-7.0231 1.03964,-3.35633 1.56069,-7.4482 1.56069,-12.27243 0,-6.99841 -0.87559,-12.10628 -2.62466,-15.32291 -1.75154,-3.21416 -3.80859,-4.87045 -6.171853,-4.9657"
       style="fill:#007f33;fill-opacity:1;fill-rule:nonzero;stroke:none;stroke-width:0.352778"
       id="path128" />
    <path
       d="m 98.947057,208.85677 h -5.95877 l -0.14182,-49.79917 h 6.10059 c 3.121383,0 5.697363,1.89301 7.732183,5.67514 2.03306,3.78389 3.05047,9.9314 3.05047,18.44392 0,8.51253 -1.04175,14.9218 -3.12102,19.22463 -2.08174,4.30495 -4.6355,6.45548 -7.661633,6.45548 m 0,-99.45652 c 2.363263,0.0953 4.420313,1.75154 6.171853,4.96535 1.74907,3.21698 2.62466,8.32449 2.62466,15.32325 0,4.82389 -0.52105,8.91575 -1.56069,12.27244 -1.0421,3.35844 -2.19921,5.69947 -3.47591,7.02274 -1.27706,1.32609 -2.53189,1.98614 -3.759913,1.98614 h -5.95877 l -0.14182,-41.56992 z M 139.8079,183.8861 c 0,-4.63303 -0.8756,-8.79651 -2.62467,-12.48516 -1.75154,-3.68899 -3.689,-6.4777 -5.81695,-8.37071 -2.12831,-1.89124 -4.58893,-3.49814 -7.37764,-4.82388 -2.79118,-1.32327 -4.73075,-2.12831 -5.81696,-2.41194 -1.08867,-0.28364 -1.96426,-0.47237 -2.62501,-0.56762 l 2.1283,-0.42581 c 1.41852,-0.18838 3.12138,-0.80221 5.10752,-1.84396 1.98614,-1.03999 3.97263,-2.3876 5.95877,-4.0439 1.98649,-1.65347 3.689,-4.20758 5.10787,-7.66162 1.41852,-3.45123 2.12795,-7.39952 2.12795,-11.84628 0,-4.5406 -1.01741,-8.58379 -3.05011,-12.13062 -2.03518,-3.54718 -4.46934,-6.26498 -7.30709,-8.15798 -2.83739,-1.89089 -6.12493,-3.42724 -9.86049,-4.61116 -1.40088,-0.44274 -2.73156,-0.82938 -3.99274,-1.15958 V 85.347156 h -6.94796 v 16.668394 c -2.29482,-0.27269 -4.49227,-0.41839 -6.580713,-0.41839 h -5.73017 V 85.347156 h -6.94796 v 16.250004 h -28.04125 v 7.80309 h 8.08743 v 99.45652 h -7.94526 v 7.80309 h 27.89908 v 16.24965 h 6.94796 v -16.24965 h 6.15562 c 2.138543,0 4.183593,-0.0744 6.155263,-0.20708 v 16.45673 h 6.94796 V 215.65303 C 130.454,212.50414 139.8079,201.92045 139.8079,183.8861"
       style="fill:#fab915;fill-opacity:1;fill-rule:nonzero;stroke:none;stroke-width:0.352778"
       id="path132" />
  </g>
</svg>
