<?xml version="1.0" encoding="UTF-8"?>
<svg id="Layer_1" xmlns="http://www.w3.org/2000/svg" version="1.1" viewBox="0 0 22.1 40">
  <!-- Generator: Adobe Illustrator 29.1.0, SVG Export Plug-In . SVG Version: 2.1.0 Build 142)  -->
  <defs>
    <style>
      .st0 {
        stroke-linecap: round;
        stroke-linejoin: round;
        stroke-width: 1.8px;
      }

      .st0, .st1 {
        fill: none;
        stroke: #0c0d13;
      }

      .st2 {
        fill: #a42eff;
      }

      .st3 {
        fill: #21dff3;
      }

      .st4 {
        fill: #ff0078;
      }

      .st1 {
        stroke-miterlimit: 10;
        stroke-width: .6px;
      }

      .st5 {
        fill: #fff200;
      }
    </style>
  </defs>
  <path class="st5" d="M21.3,20l-10.1,6.3v12.7l10.1-6.3v-12.7Z"/>
  <path class="st3" d="M11.1,13.7L1,20V7.3L11.1,1v12.7Z"/>
  <path class="st4" d="M21.3,20l-10.1,6.3L1,20l10.1-6.3,10.1,6.3Z"/>
  <path class="st1" d="M1,20l10.1-6.3"/>
  <path class="st1" d="M11.1,26.4l10.1-6.3"/>
  <path class="st2" d="M1,32.7l10.1-6.3v12.7L1,32.7Z"/>
  <path class="st0" d="M19.9,19.2l-8.2-5.1c-.4-.3-.7-.7-.7-1.2V1L1,7.3v11.1c0,1,.5,1.9,1.3,2.4l8.2,5.1c.4.3.7.7.7,1.2v11.9l10.1-6.3v-11.1c0-1-.5-1.9-1.3-2.4Z"/>
  <path class="st0" d="M11.1,39L1,32.7l9.5-6"/>
</svg>