<?xml version="1.0" encoding="UTF-8" standalone="no"?>
<!-- Generator: Adobe Illustrator 24.2.3, SVG Export Plug-In . SVG Version: 6.00 Build 0)  -->

<svg
   version="1.1"
   id="Layer_1"
   x="0px"
   y="0px"
   viewBox="0 0 3374.5259 694.81238"
   xml:space="preserve"
   width="3374.5259"
   height="694.81238"
   xmlns="http://www.w3.org/2000/svg"
   xmlns:svg="http://www.w3.org/2000/svg"><defs
   id="defs178"><rect
     x="535.87592"
     y="-258.36066"
     width="3177.3076"
     height="1010.681"
     id="rect56100" /><rect
     x="540.62256"
     y="-63.932861"
     width="3178.4209"
     height="601.58636"
     id="rect38168" /><rect
     x="610.36981"
     y="110.64349"
     width="0.63669556"
     height="100.53669"
     id="rect25236" /><rect
     x="1587.8997"
     y="407.70001"
     width="120.64295"
     height="247.59006"
     id="rect22832" /><rect
     x="578.69977"
     y="59"
     width="3135.5002"
     height="434"
     id="rect9964" /></defs>
<style
   type="text/css"
   id="style144">
	.st0{fill:#4D4D4D;}
	.st1{fill:#0AC18E;}
	.st2{fill:#FFFFFF;}
</style>
<path
   style="fill:#4d4d4d;fill-opacity:1;stroke-width:0.709122"
   d="m 3373.5375,399.72014 c -1.8385,8.45812 -2.4094,9.18356 -28.0742,35.68105 -31.8333,32.86591 -204.408,205.42696 -233.4074,233.38865 l -22.5094,21.70403 -5.7795,1.91017 c -10.1772,3.36365 -21.4091,3.19857 -31.4363,-0.462 -3.85,-1.40555 -5.9583,-3.20686 -23.401,-19.99321 -26.9948,-25.97898 -299.5582,-298.57437 -314.8688,-314.90567 -22.5104,-24.0111 -29.7788,-33.17303 -31.932,-40.25099 -1.9044,-6.25978 -2.4071,-39.31595 -2.4373,-160.23488 l -0.028,-113.26388 2.1864,-5.5142 c 3.6976,-9.32567 7.0533,-14.9661 12.1511,-20.42493 6.0189,-6.44493 10.9059,-9.76362 20.6823,-14.04516 L 2722.2394,0 2833.3801,0.0163 c 114.123,0.0163 150.5937,0.5585 160.9885,2.38903 10.1199,1.78217 13.0968,3.67609 27.4466,17.46207 28.2999,27.187975 188.1031,185.87994 247.7759,246.05295 88.4109,89.15201 99.1324,100.24339 101.2218,104.71271 3.6009,7.70277 4.737,19.83018 2.7249,29.0865 z m -30.792,-15.19054 c -1.1411,-1.57517 -6.1418,-7.28723 -11.1126,-12.69329 -12.5678,-13.66827 -316.9206,-317.947965 -328.2552,-328.17628 -13.2321,-11.94063 -13.1855,-11.91836 -26.1845,-12.54657 -15.1379,-0.73153 -184.0842,-0.66793 -220.2355,0.0828 -17.1231,0.35563 -31.2296,0.95001 -32.666,1.37634 -3.0616,0.90867 -7.4762,4.57419 -10.1421,8.42097 -1.7815,2.57078 -2.0307,3.717935 -2.6718,12.299445 -0.8417,11.26668 -1.0985,230.725475 -0.2877,245.792275 0.6661,12.37667 -0.1663,10.92992 16.7201,29.05977 15.0191,16.12501 249.2116,250.93538 293.9047,294.68008 32.7641,32.06885 40.8453,39.54237 44.852,41.47983 2.0894,1.01036 2.5199,1.01121 4.6093,0.008 1.2676,-0.608 5.1766,-3.58972 8.6868,-6.62604 7.229,-6.25325 228.9852,-227.44372 246.7694,-246.13994 13.8152,-14.52368 18.0867,-19.79267 18.0874,-22.31077 2e-4,-1.01397 -0.9332,-3.13247 -2.0743,-4.70772 z m -185.5807,-5.14908 c -2.3775,16.60226 -6.7265,27.57146 -17.2633,43.54239 l -5.1009,7.7317 10.1577,10.17584 10.1577,10.17583 -6.5481,6.54811 -6.5482,6.54818 -6.9182,-6.73511 c -3.805,-3.70431 -8.5535,-8.27588 -10.5523,-10.15903 l -3.634,-3.42399 -3.3378,2.54773 c -8.0008,6.10711 -23.8146,13.93376 -33.6733,16.6658 -17.2176,4.77126 -35.5906,2.83237 -52.8706,-5.57924 -7.6515,-3.72459 -23.0418,-14.02899 -23.0447,-15.42922 0,-0.9793 8.0506,-9.78667 14.9145,-16.31244 l 4.634,-4.40571 6.3574,4.26821 c 13.1397,8.82176 19.9114,10.90765 33.6586,10.36772 10.4544,-0.41058 15.4813,-1.7811 25.5284,-6.95975 3.7052,-1.90981 7.2153,-3.78445 7.8004,-4.16588 0.8491,-0.55361 -5.5137,-7.27468 -31.5531,-33.32961 -17.9392,-17.9498 -32.938,-32.63608 -33.3307,-32.63608 -0.3927,0 -7.2548,3.29444 -15.249,7.32098 -21.7989,10.97962 -34.0206,14.54062 -47.1547,13.73903 -12.3845,-0.75578 -22.4995,-5.84898 -34.5096,-17.37655 -8.8846,-8.52762 -12.7076,-13.58827 -16.9786,-22.47521 -5.4359,-11.31071 -5.9528,-13.99616 -5.9377,-30.84682 0.011,-13.35916 0.1455,-14.91044 1.6492,-19.14631 2.6705,-7.52272 7.482,-17.17828 12.1541,-24.39055 2.409,-3.71857 4.2745,-7.24127 4.1458,-7.82828 -0.1286,-0.58694 -3.4677,-4.5225 -7.4198,-8.74575 l -7.1858,-7.67859 6.2484,-6.70249 6.2482,-6.70255 8.4475,8.38566 8.4474,8.38558 6.6725,-4.0593 c 14.7203,-8.95551 21.4174,-11.16471 36.6278,-12.08295 15.8902,-0.95923 30.0172,2.80132 49.0015,13.04395 l 5.9174,3.19261 -9.4629,9.51898 c -5.2046,5.23545 -10.0179,9.82659 -10.6961,10.2025 -0.9226,0.51135 -3.0781,-0.12013 -8.5606,-2.50717 -9.2559,-4.0303 -14.8046,-5.33672 -22.7235,-5.34991 -9.1155,-0.0163 -18.7969,2.97477 -24.4474,7.55031 l -1.6487,1.335 30.1696,29.94461 c 16.5932,16.46944 30.545,29.94446 31.0038,29.94446 0.4589,0 5.5031,-2.53851 11.2093,-5.64114 21.8046,-11.85574 33.819,-15.63253 49.7291,-15.63253 17.3928,0 31.3354,5.78828 43.4785,18.05007 8.9435,9.03103 17.214,22.91898 19.8672,33.36131 1.9781,7.78496 2.913,18.24359 2.1236,23.7556 z m -29.3398,-11.42645 c -1.2703,-6.80644 -4.6299,-12.43729 -11.6682,-19.55603 -5.2563,-5.31651 -7.4884,-7.01698 -12.1009,-9.21916 l -5.6558,-2.70027 -9.2186,0.0333 c -8.0612,0.0291 -9.888,0.26635 -14.5504,1.89002 -4.2163,1.46817 -20.8414,9.12187 -21.7178,9.99813 -0.1074,0.10751 13.7794,14.1677 30.8598,31.24479 l 31.0551,31.04921 3.945,-5.1973 c 4.7317,-6.2339 7.3356,-11.26512 8.662,-16.73664 1.1791,-4.86408 1.3785,-15.50843 0.3898,-20.80622 z m -140.2252,-57.82184 c -13.5531,-13.6277 -26.1652,-25.82007 -28.027,-27.09415 -4.7505,-3.25111 -6.6992,-2.89506 -9.1654,1.67459 -3.7163,6.88608 -5.6728,14.25471 -6.0704,22.86317 -0.44,9.52366 0.2216,11.80051 5.9639,20.52343 8.6715,13.17273 21.5924,20.49434 33.5464,19.00895 8.2664,-1.02717 28.3945,-8.95828 28.3945,-11.18833 0,-0.55559 -11.0889,-12.16003 -24.642,-25.78766 z M 2874.9794,146.90571 c -3.3421,18.46981 -16.0128,34.92918 -33.2816,43.23322 -14.7235,7.08009 -32.3908,7.68249 -47.607,1.62325 -14.5135,-5.77942 -25.6449,-16.16175 -32.5162,-30.32803 -4.1288,-8.51231 -5.3059,-13.81116 -5.3015,-23.86439 0.01,-10.64847 0.9415,-16.7806 3.4906,-22.84757 7.7735,-18.501435 22.3573,-31.859455 39.6853,-36.349615 22.4254,-5.81105 45.1958,0.66551 60.3163,17.15565 12.8235,13.985255 18.5071,33.178635 15.2141,51.377485 z m -31.995,-22.84147 c -3.9396,-8.29425 -10.4029,-13.95836 -19.4075,-17.00766 -9.4226,-3.19092 -20.0642,-0.15785 -28.3758,8.0879 -5.0937,5.0532 -7.3557,9.31814 -8.8849,16.7523 -1.2233,5.94706 -1.2193,6.09498 0.2939,11.0765 6.8875,22.67263 32.9973,30.39723 49.2928,14.58331 9.4278,-9.14917 12.2667,-22.57548 7.0815,-33.49235 z"
   id="path82819" /><g
   id="g168"
   transform="translate(0,94.312597)">
	
	
	
	
	
	
	
	
	
	
	
<text
   xml:space="preserve"
   id="text22830"
   style="font-style:normal;font-variant:normal;font-weight:bold;font-stretch:normal;font-size:533.333px;line-height:1.25;font-family:Ubuntu;-inkscape-font-specification:'Ubuntu Bold';letter-spacing:0px;word-spacing:0px;white-space:pre;shape-inside:url(#rect22832);fill:#000000;fill-opacity:1;stroke:none"
   transform="translate(1.6300764,188.78973)" /><text
   xml:space="preserve"
   id="text25234"
   style="font-style:normal;font-variant:normal;font-weight:bold;font-stretch:normal;font-size:533.333px;line-height:1.25;font-family:Ubuntu;-inkscape-font-specification:'Ubuntu Bold';letter-spacing:0px;word-spacing:0px;white-space:pre;shape-inside:url(#rect25236);fill:#000000;fill-opacity:1;stroke:none"
   transform="translate(1.6300764,188.78973)" /><g
   aria-label="CashTags"
   transform="translate(-25.093759,162.12665)"
   id="text56098"
   style="font-weight:bold;font-size:600px;line-height:1.25;font-family:Ubuntu;-inkscape-font-specification:'Ubuntu Bold';letter-spacing:-35.02px;word-spacing:0px;white-space:pre;shape-inside:url(#rect56100)"><path
     d="m 773.475,309.53399 q -101.4,0 -154.8,-56.4 -52.8,-56.4 -52.8,-160.200001 0,-51.6 16.2,-91.7999997 16.2,-40.8000003 44.4,-68.4000003 28.2,-28.2 67.2,-42.599999 39,-14.4 84.6,-14.4 26.4,0 48,4.2 21.6,3.6 37.8,9 16.2,4.8 27,10.2 10.8,5.399999 15.6,8.399999 l -27,75.6 q -19.2,-10.2 -45,-17.4 -25.2,-7.2 -57.6,-7.2 -21.6,0 -42.6,7.2 -20.4,7.2 -36.6,23.4 -15.6,15.6000003 -25.2,40.8 -9.6,25.2 -9.6,61.2 0,28.800001 6,54.000001 6.6,24.6 20.4,42.6 14.4,18 37.2,28.8 22.8,10.2 55.2,10.2 20.4,0 36.6,-2.4 16.2,-2.4 28.8,-5.4 12.6,-3.6 22.2,-7.8 9.6,-4.2 17.4,-7.8 l 25.8,75 q -19.8,12 -55.8,21.6 -36,9.6 -83.4,9.6 z"
     style="fill:#4d4d4d"
     id="path97146" /><path
     d="m 1058.2533,238.73399 q 13.2,0 25.2,-0.6 12,-0.6 19.2,-1.8 v -67.8 q -5.4,-1.2 -16.2,-2.4 -10.8,-1.2 -19.8,-1.2 -12.6,0 -24,1.8 -10.8,1.2 -19.2,5.4 -8.4,4.2 -13.2,11.4 -4.8,7.2 -4.8,18 0,21 13.8,29.4 14.4,7.8 39,7.8 z m -7.2,-261.600001 q 39.6,0 66,9 26.4,9.0000003 42,25.8 16.2,16.8 22.8,40.8 6.6,24 6.6,53.400001 v 186 q -19.2,4.2 -53.4,9.6 -34.2,6 -82.8,6 -30.6,0 -55.80001,-5.4 -24.6,-5.4 -42.6,-17.4 -18,-12.6 -27.6,-32.4 -9.6,-19.8 -9.6,-48.6 0,-27.6 10.8,-46.8 11.4,-19.2 30,-30.6 18.6,-11.4 42.60001,-16.2 24,-5.4 49.8,-5.4 17.4,0 30.6,1.8 13.8,1.2 22.2,3.6 v -8.4 q 0,-22.800001 -13.8,-36.600001 -13.8,-13.8 -48,-13.8 -22.8,0 -45.00001,3.6 -22.2,3 -38.4,9 l -11.4,-71.9999997 q 7.8,-2.4000003 19.2,-4.8000003 12,-3 25.8,-4.8 13.80001,-2.4 28.80001,-3.6 15.6,-1.8 31.2,-1.8 z"
     style="fill:#4d4d4d"
     id="path97148" /><path
     d="m 1325.033,236.93399 q 24.6,0 34.8,-4.8 10.2,-4.8 10.2,-18.6 0,-10.8 -13.2,-18.6 -13.2,-8.4 -40.2,-18.6 -21,-7.8 -38.4,-16.2 -16.8,-8.4 -28.8,-19.8 -12,-12 -18.6,-28.2 -6.6,-16.200001 -6.6,-39.000001 0,-44.4 33,-70.1999997 33,-25.8000003 90.6,-25.8000003 28.8,0 55.2,5.4 26.4,4.8 42,10.8000003 l -15.6,69.5999997 q -15.6,-5.4 -34.2,-9.6 -18,-4.2 -40.8,-4.2 -42,0 -42,23.4 0,5.4 1.8,9.6 1.8,4.2 7.2,8.4 5.4,3.6 14.4,8.4 9.6,4.200001 24,9.600001 29.4,10.8 48.6,21.6 19.2,10.2 30,22.8 11.4,12 15.6,27 4.8,15 4.8,34.8 0,46.8 -35.4,70.8 -34.8,24 -99,24 -42,0 -70.2,-7.2 -27.6,-7.2 -38.4,-12 l 15,-72.6 q 22.8,9 46.8,14.4 24,4.8 47.4,4.8 z"
     style="fill:#4d4d4d"
     id="path97150" /><path
     d="m 1490.4122,301.13399 v -451.2 l 89.4,-14.4 v 151.199999 q 9,-3 22.8,-5.4 14.4,-3 27.6,-3 38.4,0 63.6,10.8 25.8,10.20000025 40.8,29.4 15.6,19.2 21.6,45.6 6.6,26.4 6.6,58.800001 v 178.2 h -89.4 v -167.4 q 0,-43.200001 -11.4,-61.200001 -10.8,-18 -40.8,-18 -12,0 -22.8,2.4 -10.2,1.8 -18.6,4.2 V 301.13399 Z"
     style="fill:#4d4d4d"
     id="path97152" /><path
     d="m 2123.1915,-114.66601 v 79.799999 h -125.4 V 301.13399 h -93.6 V -34.866011 h -125.4 v -79.799999 z"
     style="fill:#0ac18e"
     id="path97154" /><path
     d="m 2217.77,238.73399 q 13.2,0 25.2,-0.6 12,-0.6 19.2,-1.8 v -67.8 q -5.4,-1.2 -16.2,-2.4 -10.8,-1.2 -19.8,-1.2 -12.6,0 -24,1.8 -10.8,1.2 -19.2,5.4 -8.4,4.2 -13.2,11.4 -4.8,7.2 -4.8,18 0,21 13.8,29.4 14.4,7.8 39,7.8 z m -7.2,-261.600001 q 39.6,0 66,9 26.4,9.0000003 42,25.8 16.2,16.8 22.8,40.8 6.6,24 6.6,53.400001 v 186 q -19.2,4.2 -53.4,9.6 -34.2,6 -82.8,6 -30.6,0 -55.8,-5.4 -24.6,-5.4 -42.6,-17.4 -18,-12.6 -27.6,-32.4 -9.6,-19.8 -9.6,-48.6 0,-27.6 10.8,-46.8 11.4,-19.2 30,-30.6 18.6,-11.4 42.6,-16.2 24,-5.4 49.8,-5.4 17.4,0 30.6,1.8 13.8,1.2 22.2,3.6 v -8.4 q 0,-22.800001 -13.8,-36.600001 -13.8,-13.8 -48,-13.8 -22.8,0 -45,3.6 -22.2,3 -38.4,9 l -11.4,-71.9999997 q 7.8,-2.4000003 19.2,-4.8000003 12,-3 25.8,-4.8 13.8,-2.4 28.8,-3.6 15.6,-1.8 31.2,-1.8 z"
     style="fill:#0ac18e"
     id="path97156" /><path
     d="m 2470.1497,133.13399 q 0,75 60.6,75 13.8,0 25.8,-3.6 12,-3.6 20.4,-8.4 V 53.333989 q -6.6,-1.2 -15.6,-1.8 -9,-1.2 -21,-1.2 -35.4,0 -52.8,23.4 -17.4,23.4 -17.4,59.400001 z m 196.2,128.4 q 0,77.4 -39.6,114.6 -39,37.8 -121.2,37.8 -28.8,0 -57.6,-5.4 -28.8,-4.8 -53.4,-13.2 l 15.6,-75 q 21,8.4 43.8,13.2 23.4,4.8 52.8,4.8 38.4,0 54,-16.8 16.2,-16.8 16.2,-43.2 v -11.4 q -14.4,6.6 -30,10.2 -15,3 -33,3 -65.4,0 -100.2,-38.4 -34.8,-39 -34.8,-108.6 0,-34.800001 10.8,-63.000001 10.8,-28.8 31.2,-49.2 21,-20.39999975 51,-31.2 30,-11.4 67.8,-11.4 16.2,0 33,1.8 17.4,1.2 34.2,3.6 16.8,2.4 31.8,6 15.6,3.0000003 27.6,6.6000003 z"
     style="fill:#0ac18e"
     id="path97158" /><path
     d="m 2805.9296,236.93399 q 24.6,0 34.8,-4.8 10.2,-4.8 10.2,-18.6 0,-10.8 -13.2,-18.6 -13.2,-8.4 -40.2,-18.6 -21,-7.8 -38.4,-16.2 -16.8,-8.4 -28.8,-19.8 -12,-12 -18.6,-28.2 -6.6,-16.200001 -6.6,-39.000001 0,-44.4 33,-70.1999997 33,-25.8000003 90.6,-25.8000003 28.8,0 55.2,5.4 26.4,4.8 42,10.8000003 l -15.6,69.5999997 q -15.6,-5.4 -34.2,-9.6 -18,-4.2 -40.8,-4.2 -42,0 -42,23.4 0,5.4 1.8,9.6 1.8,4.2 7.2,8.4 5.4,3.6 14.4,8.4 9.6,4.200001 24,9.600001 29.4,10.8 48.6,21.6 19.2,10.2 30,22.8 11.4,12 15.6,27 4.8,15 4.8,34.8 0,46.8 -35.4,70.8 -34.8,24 -99,24 -42,0 -70.2,-7.2 -27.6,-7.2 -38.4,-12 l 15,-72.6 q 22.8,9 46.8,14.4 24,4.8 47.4,4.8 z"
     style="fill:#0ac18e"
     id="path97160" /></g></g>
<g
   id="g173"
   transform="translate(0,94.312597)">
	<circle
   class="st1"
   cx="249.5"
   cy="256.5"
   r="249.5"
   id="circle170" />
	<path
   id="symbol_1_"
   class="st2"
   d="m 327.10001,173 c -12.5,-28.39999 -41.20001,-34.3 -76.39999,-28.5 l -11.3,-43.7 -26.7,6.9 11.10001,43.7 c -7,1.8 -14.2,3.3 -21.3,5.3 l -11.2,-43.4 -26.7,6.9 11.3,43.8 c -5.7,1.60001 -53.7,14 -53.7,14 l 7.39999,28.5 c 0,0 19.60001,-5.5 19.39999,-5 10.8,-2.8 15.89999,2.60001 18.39999,7.7 l 31,120 c 0.39999,3.5 -0.2,9.5 -7.7,11.39999 0.39999,0.20001 -19.39999,5 -19.39999,5 L 174.2,378.8 c 0,0 47.5,-12.20001 53.8,-13.70001 l 11.5,44.29999 26.60001,-6.89998 -11.39999,-44.60001 c 7.39999,-1.70001 14.39999,-3.5 21.39999,-5.29999 L 287.5,397 314.20001,390.10001 302.80002,345.9 c 41,-10 70,-35.79999 64,-75.39999 -3.79999,-23.8 -29.79999,-43.39999 -51.5,-45.60001 13.29999,-12.1 20.09997,-29.29999 11.79999,-51.9 z m -12.80002,104.39999 c 5.29999,39.20001 -49.10001,44 -67.2,48.70001 l -15.7,-58.60001 c 18.20002,-4.7 74,-24.6 82.9,9.9 z M 281.5,197.7 c 5.60001,34.8 -40.89999,38.90001 -56,42.8 l -14.3,-53.2 c 15.1,-3.90001 58.90001,-21.90001 70.3,10.4 z" />
</g>
</svg>
