<svg id="Layer_1" xmlns="http://www.w3.org/2000/svg" viewBox="0 0 161.5 50"><style>.st0{fill:#444}.st1{fill:#1dcd75}</style><path class="st0" d="M14.5 28.4c0 .3-.2.5-.5.5H4.3c-.1 0-.2.1-.2.2 0 .5.1 1 .2 1.3.4 1.5 1.8 2.4 3.7 2.4 1.6 0 2.7-.7 3.4-1.6.2-.3.4-.3.7-.1l1.8 1.4c.3.2.3.4.1.7-1.3 1.8-3.6 2.9-6.3 2.9-3.2-.1-5.3-1.5-6.4-3.9-.6-1.3-.9-2.8-.9-4.6 0-1.4.1-2.6.5-3.6.9-2.8 3.2-4.5 6.5-4.5 4.4 0 6.5 2.5 7 6.4.1.6.2 1.5.1 2.5zM4.4 24.6c-.1.4-.2.8-.3 1.3 0 .1.1.2.2.2h6.3c.1 0 .2-.1.2-.2-.1-.4-.1-.8-.2-1.1-.4-1.5-1.5-2.4-3.2-2.4-1.6 0-2.6.8-3 2.2zM30.7 24.6v10.5c0 .3-.2.5-.5.5h-2.6c-.3 0-.5-.2-.5-.5v-.8c0-.2-.1-.2-.2-.1-1.1 1.1-2.6 1.6-4.5 1.6-2.9 0-5.3-1.4-5.3-4.8 0-3.2 2.4-5.2 6.6-5.2H27c.1 0 .2-.1.2-.2V25c0-1.6-.9-2.6-2.9-2.6-1.5 0-2.5.6-2.8 1.5-.1.3-.3.4-.6.4l-3-.3c-.3 0-.5-.2-.5-.4.4-2.5 3-4.3 6.6-4.3 4.1 0 6.7 2.2 6.7 5.3zm-3.6 5.5v-1.4c0-.1-.1-.2-.2-.2h-2.6c-2.2 0-3.6.9-3.6 2.4 0 1.4 1.2 2.1 2.7 2.1 1.9 0 3.7-1.2 3.7-2.9zM42.1 22.5H39c-.1 0-.2.1-.2.2v7.6c0 1.6.7 2.3 2.2 2.3h.8c.3 0 .5.2.5.5v2.1c0 .3-.2.5-.5.5h-1.5c-3 0-4.9-.7-5-4.1v-8.9c0-.1-.1-.2-.2-.2h-1.6c-.3 0-.5-.2-.5-.5v-2c0-.3.2-.5.5-.5h1.6c.1 0 .2-.1.2-.2v-3.5c0-.3.2-.5.5-.5h2.5c.3 0 .5.2.5.5v3.5c0 .1.1.2.2.2h3.1c.3 0 .5.2.5.5v2c0 .3-.2.5-.5.5zM58.6 24.3c2.1 1 3.2 2.7 3.2 5.2 0 4.1-3.1 6.1-7.2 6.1h-7.8c-.3 0-.5-.2-.5-.5v-21c0-.3.2-.5.5-.5h7.6c4.4 0 7.2 1.9 7.2 6 0 2.2-1 3.7-2.8 4.6-.3-.1-.3.1-.2.1zm-8.7-7.4v5.8c0 .1.1.2.2.2h4.2c2.2 0 3.6-1.1 3.6-3s-1.4-3.1-3.6-3.1h-4.2c-.2-.1-.2 0-.2.1zm8.2 12.3c0-2-1.4-3.3-3.6-3.3h-4.4c-.1 0-.2.1-.2.2v6.2c0 .1.1.2.2.2h4.5c2.2-.1 3.5-1.3 3.5-3.3zM65.3 28.5v-7.8c0-4.4 3.2-7.4 7.9-7.4s7.9 2.8 7.9 7.1c0 .2-.2.3-.5.4l-2.7.2c-.3 0-.5-.1-.5-.2v-.2c0-2.5-1.7-4.1-4.2-4.1-2.6 0-4.3 1.6-4.3 4.1v8c0 2.5 1.7 4.1 4.3 4.1 2.6 0 4.2-1.6 4.2-4.1 0-.2.2-.4.5-.3l2.6.1c.3 0 .5.1.5.2v.2c0 4.3-3.2 7.2-7.9 7.2-4.7-.1-7.8-3.1-7.8-7.5zM97.5 13.6h2.6c.3 0 .5.2.5.5v21c0 .3-.2.5-.5.5h-2.6c-.3 0-.5-.2-.5-.5v-8.9c0-.1-.1-.2-.2-.2h-8c-.1 0-.2.1-.2.2v8.9c0 .3-.2.5-.5.5h-2.6c-.3 0-.5-.2-.5-.5v-21c0-.3.2-.5.5-.5h2.6c.3 0 .5.2.5.5v8.7c0 .1.1.2.2.2h8c.1 0 .2-.1.2-.2v-8.7c0-.4.1-.5.5-.5z"/><g><path class="st1" d="M158.1 14.7c-.3-.6-.6-1.2-1-1.8-.3.3-.7.5-1.1.7-2.3 1.1-5.1.1-6.2-2.2 0 0 0-.1-.1-.1-.3.2-.6.5-1 .6-2.3 1.1-5.1.1-6.2-2.2-.4-.9-.5-1.9-.4-2.8-1.8 0-3.5-1-4.3-2.7-.5-1.1-.6-2.3-.2-3.4-4-.3-8.1.5-11.9 2.3-12.2 5.7-17.4 20.3-11.7 32.4 5.7 12.2 20.3 17.4 32.4 11.7 12.2-5.8 17.5-20.3 11.7-32.5zm-9.3 14.5c-.2.7-.4 1.3-.8 1.8s-.9 1-1.5 1.4c-.6.4-1.3.8-2 1.1-.7.3-1.6.6-2.5.9l1.1 4.5-2.7.6-1-4.5c-.9.2-1.7.4-2.2.5l1 4.5-2.7.6-1.1-4.5c-.2 0-.5.1-1 .2-.4.1-.8.2-1 .2l-3.5.8-.2-3.4 2-.5c.6-.1.9-.5.8-1.1l-1.7-7.1.3-.1h-.3l-1.2-5.1c-.3-.8-1-1-1.9-.8l-2 .5-.7-2.9 3.8-.9c.8-.2 1.3-.3 1.7-.4l-1-4.5 2.7-.6 1 4.4c1-.2 1.7-.4 2.2-.5l-1-4.3 2.7-.6 1 4.5c1-.1 1.8-.2 2.6-.2s1.5.1 2.2.3c.7.2 1.3.6 1.8 1 .5.5.9 1.1 1.1 1.9.7 2.1.3 3.8-1.3 5.1 1.5 0 2.6.4 3.5 1.1.9.7 1.5 1.9 1.7 3.6.3 1 .3 1.8.1 2.5z"/><path class="st1" d="M136.7 23.1c.4-.1.7-.2 1-.3.2-.1.5-.2.9-.4.3-.2.6-.3.8-.5.2-.2.4-.4.5-.6.2-.2.3-.5.3-.8 0-.3 0-.6-.1-.9-.1-.4-.2-.7-.5-1-.2-.3-.5-.5-.7-.6-.3-.1-.6-.2-1-.3-.4-.1-.7-.1-1-.1-.3 0-.7 0-1.1.1-.4.1-.8.1-1 .2-.3.1-.6.1-1 .2s-.6.2-.7.2l1.3 5.4c.1 0 .3-.1.6-.1.4-.1.6-.1.8-.2.3-.1.5-.2.9-.3zM142.8 26.5c-.3-.3-.5-.5-.8-.7-.3-.2-.7-.3-1.1-.3-.5 0-.9-.1-1.2-.1-.4 0-.8.1-1.3.1-.5.1-.9.2-1.2.2-.3.1-.7.2-1.1.3-.5.1-.7.2-.8.2l1.4 6c.1 0 .3-.1.7-.1.3-.1.6-.1.9-.2.2-.1.5-.1.9-.2s.7-.2 1-.3c.3-.1.6-.2 1-.4s.7-.3.9-.5c.3-.2.5-.3.8-.6.3-.2.4-.5.6-.7.1-.2.2-.5.3-.8v-.9c-.5-.3-.7-.7-1-1z"/></g></svg>