<?xml version="1.0" encoding="utf-8"?>
<svg version="1.1" id="Laag_1" xmlns="http://www.w3.org/2000/svg" xmlns:xlink="http://www.w3.org/1999/xlink" x="0px" y="0px"
	 viewBox="0 0 449 76.8" style="enable-background:new 0 0 449 76.8;" xml:space="preserve">
<style type="text/css">
	.st0{fill:#90E4B5;}
	.st1{fill:#0B1088;}
	.st2{fill:#FDCF60;}
	.st3{fill:#FF9D94;}
</style>
<g>
	<g>
		<path class="st0" d="M106.9,30.1c0-7.7,4.8-11.1,11.5-11.1c1.6,0,3.3,0.2,5,0.5v7.3c-0.9-0.2-1.8-0.4-2.7-0.4
			c-2.9,0-4.8,1.3-4.8,4.5v4.5h7.3v7.5h-7.3v19.3h-9V42.9h-4.6v-7.5h4.6L106.9,30.1L106.9,30.1z M136.5,19.7v42.6h-9V19.7H136.5z"/>
		<path class="st0" d="M141.9,45c0-10.5,7.8-18.1,18.8-18.1c11,0,18.8,7.5,18.8,18.1c0,10.5-7.8,18.1-18.8,18.1
			C149.6,63,141.9,55.5,141.9,45z M170.2,45c0-5.5-4-9.6-9.6-9.6c-5.5,0-9.6,4.1-9.6,9.6s4,9.6,9.6,9.6
			C166.1,54.6,170.2,50.5,170.2,45z"/>
		<path class="st0" d="M230.9,27.8l-11.3,34.5h-7.3l-7.1-21.7l-7.1,21.7h-7.3l-11.3-34.5h9.2l6.2,22.1l7.1-22.1h6.4l7.1,22.1
			l6.2-22.1H230.9z"/>
		<path class="st0" d="M268.3,45c0,1.1-0.1,2.1-0.2,3.1h-28.3c1.2,4.7,5.1,7.7,10.3,7.7c4.2,0,7.3-1.7,9.3-4.8h8.4
			c-2.3,7.3-9,12.1-17.7,12.1C238.8,63,231,55.5,231,45c0-10.5,7.8-18.1,19.1-18.1C261,26.9,268.3,34.4,268.3,45L268.3,45z
			 M239.8,42h20c-1.1-4.7-4.6-7.8-9.7-7.8C245,34.2,241,37.3,239.8,42z"/>
		<path class="st0" d="M309.2,45c0,1.1-0.1,2.1-0.2,3.1h-28.3c1.2,4.7,5.1,7.7,10.3,7.7c4.2,0,7.3-1.7,9.3-4.8h8.4
			c-2.3,7.3-9,12.1-17.7,12.1c-11.3,0-19.1-7.5-19.1-18.1c0-10.5,7.8-18.1,19.1-18.1C302,26.9,309.2,34.4,309.2,45L309.2,45z
			 M280.7,42h20c-1.1-4.7-4.6-7.8-9.7-7.8C285.9,34.2,281.9,37.3,280.7,42z"/>
		<path class="st0" d="M368.5,45c0,10.5-7.4,18.1-17.5,18.1c-4.5,0-8.1-1.5-10.8-4.1v17h-9V27.8h7.9v4.4c2.7-3.3,6.7-5.2,11.9-5.2
			C361.1,26.9,368.5,34.4,368.5,45z M359.3,45c0-5.5-4-9.6-9.6-9.6c-5.5,0-9.6,4.1-9.6,9.6s4,9.6,9.6,9.6
			C355.3,54.6,359.3,50.5,359.3,45z"/>
		<path class="st0" d="M409.5,27.8v34.5h-7.9v-4.4c-2.7,3.3-6.7,5.2-11.9,5.2c-10.1,0-17.5-7.5-17.5-18.1c0-10.5,7.4-18.1,17.5-18.1
			c5.2,0,9.2,2,11.9,5.2v-4.4H409.5z M400.5,45c0-5.5-4-9.6-9.6-9.6c-5.5,0-9.6,4.1-9.6,9.6s4,9.6,9.6,9.6
			C396.5,54.6,400.5,50.5,400.5,45z"/>
		<path class="st0" d="M449,57.5L449,57.5v1.8c0,11.4-5.9,17.4-16.6,17.4c-10.3,0-15.2-5-16.4-12.6h8.7c0.8,3.6,3.5,5.5,7.5,5.5
			c5.4,0,8.1-2.9,8.1-9V59c-2.6,2.5-6.1,3.7-10,3.7c-9.4,0-14.6-6.3-14.6-17V27.8h9v17.6c0,6,3.1,8.9,7.3,8.9c5,0,8.1-3.4,8.1-10.3
			V27.8h9L449,57.5z"/>
	</g>
</g>
<g>
	<g>
		<path class="st1" d="M107,3.2c0-2.2,1.4-3.2,3.3-3.2c0.5,0,0.9,0,1.4,0.1v2.1c-0.3-0.1-0.5-0.1-0.8-0.1c-0.8,0-1.4,0.4-1.4,1.3
			v0.7h2.1v2.2h-2.1v7.8H107V6.3h-1.3V4.2h1.3L107,3.2L107,3.2z M115.6,0.2v13.9H113V0.2H115.6z"/>
		<path class="st1" d="M117.1,9.1c0-3,2.2-5.2,5.4-5.2c3.2,0,5.4,2.2,5.4,5.2c0,3-2.2,5.2-5.4,5.2C119.4,14.3,117.1,12.2,117.1,9.1z
			 M125.3,9.1c0-1.6-1.2-2.8-2.8-2.8c-1.6,0-2.8,1.2-2.8,2.8c0,1.6,1.2,2.8,2.8,2.8C124.1,11.9,125.3,10.7,125.3,9.1z"/>
		<path class="st1" d="M143.2,4.2l-3.3,9.9h-2.1l-2-6.3l-2,6.3h-2.1l-3.3-9.9h2.6l1.8,6.4l2-6.4h1.9l2,6.4l1.8-6.4H143.2z"/>
		<path class="st1" d="M154.3,9.1c0,0.3,0,0.6-0.1,0.9h-8.2c0.3,1.3,1.5,2.2,3,2.2c1.2,0,2.1-0.5,2.7-1.4h2.4
			c-0.7,2.1-2.6,3.5-5.1,3.5c-3.3,0-5.5-2.2-5.5-5.2c0-3,2.2-5.2,5.5-5.2C152.3,3.9,154.3,6.1,154.3,9.1L154.3,9.1z M146.1,8.3h5.8
			c-0.3-1.4-1.3-2.2-2.8-2.2C147.6,6,146.5,6.9,146.1,8.3z"/>
		<path class="st1" d="M166.2,9.1c0,0.3,0,0.6-0.1,0.9h-8.2c0.3,1.3,1.5,2.2,3,2.2c1.2,0,2.1-0.5,2.7-1.4h2.4
			c-0.7,2.1-2.6,3.5-5.1,3.5c-3.3,0-5.5-2.2-5.5-5.2c0-3,2.2-5.2,5.5-5.2C164.1,3.9,166.2,6.1,166.2,9.1L166.2,9.1z M157.9,8.3h5.8
			c-0.3-1.4-1.3-2.2-2.8-2.2C159.4,6,158.3,6.9,157.9,8.3z"/>
	</g>
</g>
<rect x="33.7" y="44.6" class="st1" width="8.7" height="16.7"/>
<rect x="33.7" y="2.5" class="st2" width="8.7" height="19.6"/>
<rect x="33.7" y="22.1" class="st0" width="8.7" height="22.5"/>
<circle class="st3" cx="17.4" cy="33.2" r="5.2"/>
<rect x="0" y="20" class="st2" width="8.7" height="4.4"/>
<rect x="17.5" y="2.5" class="st0" width="9.8" height="8.7"/>
<rect x="0" y="44.6" class="st0" width="8.7" height="16.7"/>
<rect x="0" y="24.4" class="st1" width="8.7" height="20.2"/>
<path class="st1" d="M17.5,2.5C7.9,2.5,0,10.4,0,20l8.7,0c0-4.8,3.9-8.8,8.8-8.8V2.5z"/>
<rect x="46.9" y="2.5" class="st2" width="7.7" height="8.7"/>
<path class="st1" d="M54.7,2.5v8.7c4.8,0,8.8,3.9,8.8,8.8s-3.9,8.8-8.8,8.8v8.7c9.6,0,17.5-7.8,17.5-17.5S64.3,2.5,54.7,2.5z"/>
<rect x="46.9" y="28.8" class="st0" width="7.7" height="8.7"/>
</svg>
