<?xml version="1.0" encoding="UTF-8" standalone="no" ?>
<!DOCTYPE svg PUBLIC "-//W3C//DTD SVG 1.1//EN" "http://www.w3.org/Graphics/SVG/1.1/DTD/svg11.dtd">
<svg xmlns="http://www.w3.org/2000/svg" xmlns:xlink="http://www.w3.org/1999/xlink" version="1.1" width="1080" height="1080" viewBox="0 0 1080 1080" xml:space="preserve">
<desc>Created with Fabric.js 5.2.4</desc>
<defs>
</defs>
<g transform="matrix(1 0 0 1 540 540)" id="7f92d44a-85d2-47ed-b2c1-b36210d607d9"  >
<rect style="stroke: none; stroke-width: 1; stroke-dasharray: none; stroke-linecap: butt; stroke-dashoffset: 0; stroke-linejoin: miter; stroke-miterlimit: 4; fill: rgb(255,255,255); fill-rule: nonzero; opacity: 1; visibility: hidden;" vector-effect="non-scaling-stroke"  x="-540" y="-540" rx="0" ry="0" width="1080" height="1080" />
</g>
<g transform="matrix(1 0 0 1 540 540)" id="386e7272-f023-4d45-8675-4e27daa38ceb"  >
</g>
<g transform="matrix(1.5 0 0 1.5 540 540)"  >
<g style=""   >
		<g transform="matrix(1 0 0 1 283.5 0)" id="mark-red"  >
<path style="stroke: none; stroke-width: 1; stroke-dasharray: none; stroke-linecap: butt; stroke-dashoffset: 0; stroke-linejoin: miter; stroke-miterlimit: 4; fill: rgb(163,28,55); fill-rule: nonzero; opacity: 1;" vector-effect="non-scaling-stroke"  transform=" translate(-105.5, -75)" d="M 37.3723145 150 L 173.627686 150 C 177.407471 150 180.5 146.90744 180.5 143.127655 L 180.5 6.872345 C 180.5 3.0925598 177.407471 0 173.627686 0 L 37.3723145 0 C 33.5925293 0 30.5 3.0925598 30.5 6.872345 L 30.5 143.127655 C 30.5 146.90744 33.5925293 150 37.3723145 150 Z" stroke-linecap="round" />
</g>
		<g transform="matrix(1 0 0 1 246 0)" id="mark-orange"  >
<path style="stroke: none; stroke-width: 1; stroke-dasharray: none; stroke-linecap: butt; stroke-dashoffset: 0; stroke-linejoin: miter; stroke-miterlimit: 4; fill: rgb(241,90,36); fill-rule: nonzero; opacity: 1;" vector-effect="non-scaling-stroke"  transform=" translate(-68, -75)" d="M 20.3106079 127.5 L 115.689392 127.5 C 118.335205 127.5 120.5 125.335205 120.5 122.689362 L 120.5 27.3106385 C 120.5 24.664795 118.335205 22.5000001 115.689392 22.5000001 L 20.3106079 22.5000001 C 17.6647949 22.5000001 15.5 24.664795 15.5 27.3106385 L 15.5 122.689362 C 15.5 125.335205 17.6647949 127.5 20.3106079 127.5 Z" stroke-linecap="round" />
</g>
		<g transform="matrix(1 0 0 1 208.5 0)" id="mark-yellow"  >
<path style="stroke: none; stroke-width: 1; stroke-dasharray: none; stroke-linecap: butt; stroke-dashoffset: 0; stroke-linejoin: miter; stroke-miterlimit: 4; fill: rgb(251,176,59); fill-rule: nonzero; opacity: 1;" vector-effect="non-scaling-stroke"  transform=" translate(-30.5, -75)" d="M 3.2489624 105 L 57.7510376 105 C 59.2630005 105 60.5 103.76297 60.5 102.251068 L 60.5 47.7489319 C 60.5 46.23703 59.2630005 45 57.7510376 45 L 3.2489624 45 C 1.7369995 45 0.5 46.23703 0.5 47.7489319 L 0.5 102.251068 C 0.5 103.76297 1.7369995 105 3.2489624 105 Z" stroke-linecap="round" />
</g>
		<g transform="matrix(1 0 0 1 -302.63 19.59)" id="text"  >
<path style="stroke: none; stroke-width: 1; stroke-dasharray: none; stroke-linecap: butt; stroke-dashoffset: 0; stroke-linejoin: miter; stroke-miterlimit: 4; fill: rgb(242,242,242); fill-rule: nonzero; opacity: 1;" vector-effect="non-scaling-stroke"  transform=" translate(-56.37, -94.59)" d="M 112.735443 64.0189514 L 112.735443 146.666656 C 112.735443 148.507629 111.243072 150 109.40213 150 L 95.4325561 150 C 93.5916137 150 92.0992431 148.507629 92.0992431 146.666656 L 92.0992431 64.0189514 C 92.0992431 61.70578 90.2066345 59.8132019 87.8934631 59.8132019 L 24.84198 59.8132019 C 22.5288086 59.8132019 20.6362305 61.70578 20.6362305 64.0189514 L 20.6362305 146.666656 C 20.6362305 148.507629 19.1438294 150 17.302887 150 L 3.3333435 150 C 1.4923706 150 0 148.507629 0 146.666656 L 0 42.5102844 C 0 40.669342 1.4923706 39.1769714 3.3333435 39.1769714 L 87.8934631 39.1769714 C 101.613312 39.1769714 112.735443 50.2991028 112.735443 64.0189514 Z" stroke-linecap="round" />
</g>
		<g transform="matrix(1 0 0 1 -172.14 19.59)" id="text"  >
<path style="stroke: none; stroke-width: 1; stroke-dasharray: none; stroke-linecap: butt; stroke-dashoffset: 0; stroke-linejoin: miter; stroke-miterlimit: 4; fill: rgb(242,242,242); fill-rule: nonzero; opacity: 1;" vector-effect="non-scaling-stroke"  transform=" translate(-186.86, -94.59)" d="M 218.388763 39.1769714 C 232.144959 39.1769714 243.226868 50.2588806 243.226868 64.0189514 L 243.226868 125.161896 C 243.226868 138.918091 232.144959 150 218.388763 150 L 155.333405 150 C 141.577209 150 130.4953 138.918091 130.4953 125.161896 L 130.4953 64.0189515 C 130.4953 50.2588807 141.57721 39.1769714 155.333405 39.1769714 L 218.388763 39.1769714 L 218.388763 39.1769714 Z M 155.333404 59.8132019 C 153.040039 59.8132019 151.1315 61.7256165 151.1315 64.0189514 L 151.1315 125.161896 C 151.1315 127.455231 153.040039 129.36377 155.333404 129.36377 L 218.388763 129.36377 C 220.682098 129.36377 222.590637 127.455231 222.590637 125.161896 L 222.590637 64.0189514 C 222.590637 61.7256164 220.682098 59.8132019 218.388763 59.8132019 L 155.333404 59.8132019 Z" stroke-linecap="round" />
</g>
		<g transform="matrix(1 0 0 1 -45.28 0)" id="text"  >
<path style="stroke: none; stroke-width: 1; stroke-dasharray: none; stroke-linecap: butt; stroke-dashoffset: 0; stroke-linejoin: miter; stroke-miterlimit: 4; fill: rgb(242,242,242); fill-rule: nonzero; opacity: 1;" vector-effect="non-scaling-stroke"  transform=" translate(-313.72, -75)" d="M 370.083862 3.3333435 L 370.083862 146.666657 C 370.083862 148.507629 368.591492 150 366.750549 150 L 282.19043 150 C 268.472717 150 257.352295 138.879608 257.352295 125.161896 L 257.352295 64.0189515 C 257.352295 50.2991029 268.474426 39.1769715 282.194275 39.1769715 L 349.447632 39.1769715 L 349.447632 3.3333436 C 349.447632 1.4923707 350.940063 1.00000079e-7 352.781006 1.00000079e-7 L 366.750549 1.00000079e-7 C 368.591492 1.00000079e-7 370.083862 1.4923706 370.083862 3.3333435 Z M 345.245789 129.363769 C 347.556824 129.363769 349.447632 127.472931 349.447632 125.161896 L 349.447632 64.0189514 C 349.447632 61.70578 347.555054 59.8132019 345.241882 59.8132019 L 282.19043 59.8132019 C 279.877258 59.8132019 277.98468 61.70578 277.98468 64.0189514 L 277.98468 125.161896 C 277.98468 127.472931 279.875488 129.363769 282.186524 129.363769 L 345.245789 129.363769 Z" stroke-linecap="round" />
</g>
		<g transform="matrix(1 0 0 1 84.63 19.59)" id="text"  >
<path style="stroke: none; stroke-width: 1; stroke-dasharray: none; stroke-linecap: butt; stroke-dashoffset: 0; stroke-linejoin: miter; stroke-miterlimit: 4; fill: rgb(242,242,242); fill-rule: nonzero; opacity: 1;" vector-effect="non-scaling-stroke"  transform=" translate(-443.63, -94.59)" d="M 500 64.0150757 L 500 101.573273 C 500 103.414215 498.507629 104.906586 496.666687 104.906586 L 407.904663 104.906586 L 407.904663 125.161896 C 407.904663 127.472931 409.795532 129.36377 412.106506 129.36377 L 496.666687 129.36377 C 498.50763 129.36377 500 130.856171 500 132.697113 L 500 146.666657 C 500 148.507629 498.507629 150 496.666687 150 L 412.106506 150 C 398.388855 150 387.268433 138.879608 387.268433 125.161896 L 387.268433 64.0189515 C 387.268433 50.2991029 398.390564 39.1769715 412.110413 39.1769715 L 475.161865 39.1769715 C 488.879578 39.1769715 500 50.2973633 500 64.0150757 Z M 479.363769 84.2703552 L 479.363769 64.0189514 C 479.363769 61.70578 477.471191 59.8132019 475.15802 59.8132019 L 412.106506 59.8132019 C 409.795532 59.8132019 407.904663 61.7040405 407.904663 64.0150757 L 407.904663 84.2703552 L 479.363769 84.2703552 L 479.363769 84.2703552 Z" stroke-linecap="round" />
</g>
		<g transform="matrix(1 0 0 1 -346.5 -62.5)" id="text"  >
<path style="stroke: none; stroke-width: 1; stroke-dasharray: none; stroke-linecap: butt; stroke-dashoffset: 0; stroke-linejoin: miter; stroke-miterlimit: 4; fill: rgb(242,242,242); fill-rule: nonzero; opacity: 1;" vector-effect="non-scaling-stroke"  transform=" translate(-12.5, -12.5)" d="M 23.9941101 9.7225342 C 23.9941101 10.3822937 23.8895874 10.971405 23.6465759 11.4927063 C 24.4447937 12.3262329 25 13.5411987 25 14.7914734 L 25 20.1740418 C 25 22.8469849 22.8130798 25 20.1387329 25 L 0 25 L 0 0 L 19.166748 0 C 21.8057861 0 23.9941101 2.1530151 23.9941101 4.8259583 L 23.9941101 9.7225342 Z M 4.8259583 4.5829468 C 4.6875 4.5829468 4.5829468 4.6875 4.5829468 4.8259583 L 4.5829468 9.7225342 C 4.5829468 9.8609925 4.6875 9.9655152 4.8259583 9.9655152 L 19.1667481 9.9655152 C 19.2713013 9.9655152 19.3758545 9.8609925 19.3758545 9.7225342 L 19.3758545 4.8259583 C 19.3758545 4.6875 19.2713013 4.5829468 19.1667481 4.5829468 L 4.8259583 4.5829468 Z M 20.3817139 14.7914734 C 20.3817139 14.6530151 20.278595 14.5838013 20.1387329 14.5838013 L 4.8259582 14.5838013 C 4.6874999 14.5838013 4.5829467 14.6530152 4.5829467 14.7914734 L 4.5829467 20.1740418 C 4.5829467 20.3125001 4.6874999 20.4170533 4.8259582 20.4170533 L 20.1387329 20.4170533 C 20.278595 20.4170533 20.3817139 20.3125001 20.3817139 20.1740418 L 20.3817139 14.7914734 Z" stroke-linecap="round" />
</g>
		<g transform="matrix(1 0 0 1 -324.42 -62.5)" id="text"  >
<polygon style="stroke: none; stroke-width: 1; stroke-dasharray: none; stroke-linecap: butt; stroke-dashoffset: 0; stroke-linejoin: miter; stroke-miterlimit: 4; fill: rgb(242,242,242); fill-rule: nonzero; opacity: 1;" vector-effect="non-scaling-stroke"  points="-2.29,-12.5 2.29,-12.5 2.29,12.5 -2.29,12.5 " />
</g>
		<g transform="matrix(1 0 0 1 -304.39 -62.5)" id="text"  >
<polygon style="stroke: none; stroke-width: 1; stroke-dasharray: none; stroke-linecap: butt; stroke-dashoffset: 0; stroke-linejoin: miter; stroke-miterlimit: 4; fill: rgb(242,242,242); fill-rule: nonzero; opacity: 1;" vector-effect="non-scaling-stroke"  points="12.5,-12.5 12.5,-7.92 2.32,-7.92 2.32,12.5 -2.29,12.5 -2.29,-7.92 -12.5,-7.92 -12.5,-12.5 " />
</g>
		<g transform="matrix(1 0 0 1 -273.35 -62.5)" id="text"  >
<path style="stroke: none; stroke-width: 1; stroke-dasharray: none; stroke-linecap: butt; stroke-dashoffset: 0; stroke-linejoin: miter; stroke-miterlimit: 4; fill: rgb(242,242,242); fill-rule: nonzero; opacity: 1;" vector-effect="non-scaling-stroke"  transform=" translate(-85.65, -12.5)" d="M 78.014801 4.5829468 C 77.8749389 4.5829468 77.77182 4.6875 77.77182 4.8259583 L 77.77182 20.1740418 C 77.77182 20.3125001 77.8749389 20.4170533 78.014801 20.4170533 L 98.1182251 20.4170533 L 98.1182251 24.9999999 L 78.014801 24.9999999 C 75.3404846 24.9999999 73.1874389 22.8469849 73.1874389 20.1740417 L 73.1874389 4.8259582 C 73.1874389 2.1530151 75.3404846 -1.00000022e-7 78.014801 -1.00000022e-7 L 98.1182251 -1.00000022e-7 L 98.1182251 4.5829467 L 78.014801 4.5829467 L 78.014801 4.5829468 Z" stroke-linecap="round" />
</g>
		<g transform="matrix(1 0 0 1 -241.37 -62.5)" id="text"  >
<path style="stroke: none; stroke-width: 1; stroke-dasharray: none; stroke-linecap: butt; stroke-dashoffset: 0; stroke-linejoin: miter; stroke-miterlimit: 4; fill: rgb(242,242,242); fill-rule: nonzero; opacity: 1;" vector-effect="non-scaling-stroke"  transform=" translate(-117.63, -12.5)" d="M 125.302338 0 C 127.941345 0 130.128265 2.1530151 130.128265 4.8259583 L 130.128265 20.1740418 C 130.128265 22.8469849 127.941345 25 125.302338 25 L 109.955627 25 C 107.281311 25 105.128265 22.846985 105.128265 20.1740418 L 105.128265 4.8259583 C 105.128265 2.1530152 107.281311 0 109.955627 0 L 125.302338 0 Z M 125.302338 20.4170532 C 125.40686 20.4170532 125.511414 20.3125 125.511414 20.1740417 L 125.511414 4.8259582 C 125.511414 4.6874999 125.40686 4.5829467 125.302338 4.5829467 L 109.955627 4.5829467 C 109.815765 4.5829467 109.712646 4.6874999 109.712646 4.8259582 L 109.712646 20.1740417 C 109.712646 20.3125 109.815765 20.4170532 109.955627 20.4170532 L 125.302338 20.4170532 Z" stroke-linecap="round" />
</g>
		<g transform="matrix(1 0 0 1 -219.26 -62.5)" id="text"  >
<polygon style="stroke: none; stroke-width: 1; stroke-dasharray: none; stroke-linecap: butt; stroke-dashoffset: 0; stroke-linejoin: miter; stroke-miterlimit: 4; fill: rgb(242,242,242); fill-rule: nonzero; opacity: 1;" vector-effect="non-scaling-stroke"  points="-2.29,-12.5 2.29,-12.5 2.29,12.5 -2.29,12.5 " />
</g>
		<g transform="matrix(1 0 0 1 -197.97 -62.5)" id="text"  >
<polygon style="stroke: none; stroke-width: 1; stroke-dasharray: none; stroke-linecap: butt; stroke-dashoffset: 0; stroke-linejoin: miter; stroke-miterlimit: 4; fill: rgb(242,242,242); fill-rule: nonzero; opacity: 1;" vector-effect="non-scaling-stroke"  points="7.88,-12.5 12.5,-12.5 12.5,12.5 7.5,12.5 -7.92,-5.83 -7.92,12.5 -12.5,12.5 -12.5,-12.5 -7.5,-12.5 7.88,5.83 " />
</g>
		<g transform="matrix(1 0 0 1 -165.65 -62.5)" id="text"  >
<path style="stroke: none; stroke-width: 1; stroke-dasharray: none; stroke-linecap: butt; stroke-dashoffset: 0; stroke-linejoin: miter; stroke-miterlimit: 4; fill: rgb(242,242,242); fill-rule: nonzero; opacity: 1;" vector-effect="non-scaling-stroke"  transform=" translate(-193.35, -12.5)" d="M 185.71286 4.5829468 C 185.572998 4.5829468 185.469879 4.6875 185.469879 4.8259583 L 185.469879 20.1740418 C 185.469879 20.3125001 185.572998 20.4170533 185.71286 20.4170533 L 205.816284 20.4170533 L 205.816284 24.9999999 L 185.71286 24.9999999 C 183.038544 24.9999999 180.885498 22.8469849 180.885498 20.1740417 L 180.885498 4.8259582 C 180.885498 2.1530151 183.038544 -1.00000022e-7 185.71286 -1.00000022e-7 L 205.816284 -1.00000022e-7 L 205.816284 4.5829467 L 185.71286 4.5829467 L 185.71286 4.5829468 Z" stroke-linecap="round" />
</g>
		<g transform="matrix(1 0 0 1 -133.53 -62.5)" id="text"  >
<path style="stroke: none; stroke-width: 1; stroke-dasharray: none; stroke-linecap: butt; stroke-dashoffset: 0; stroke-linejoin: miter; stroke-miterlimit: 4; fill: rgb(242,242,242); fill-rule: nonzero; opacity: 1;" vector-effect="non-scaling-stroke"  transform=" translate(-225.47, -12.5)" d="M 233.106323 0 C 235.779297 0 237.96759 2.1530151 237.96759 4.8259583 L 237.96759 25 L 233.349365 25 L 233.349365 16.5969849 L 217.550568 16.5969849 L 217.550568 25 L 212.967621 25 L 212.967621 4.8259583 C 212.967621 2.1530152 215.119232 0 217.793579 0 L 233.106323 0 Z M 233.349365 12.0140076 L 233.349365 4.8259583 C 233.349365 4.6875 233.244812 4.5829468 233.106323 4.5829468 L 217.793579 4.5829468 C 217.655121 4.5829468 217.550568 4.6875 217.550568 4.8259583 L 217.550568 12.0140076 L 233.349365 12.0140076 Z" stroke-linecap="round" />
</g>
		<g transform="matrix(1 0 0 1 -101.28 -62.5)" id="text"  >
<path style="stroke: none; stroke-width: 1; stroke-dasharray: none; stroke-linecap: butt; stroke-dashoffset: 0; stroke-linejoin: miter; stroke-miterlimit: 4; fill: rgb(242,242,242); fill-rule: nonzero; opacity: 1;" vector-effect="non-scaling-stroke"  transform=" translate(-257.72, -12.5)" d="M 270.222107 6.7359924 L 265.603821 6.7359924 L 265.603821 4.8259582 C 265.603821 4.6874999 265.499268 4.5829467 265.394714 4.5829467 L 250.048035 4.5829467 C 249.909607 4.5829467 249.805054 4.6874999 249.805054 4.8259582 L 249.805054 9.9655151 C 249.805054 10.1039734 249.909607 10.2085266 250.048035 10.2085266 L 265.394714 10.2085266 C 268.033752 10.2085266 270.222107 12.3615417 270.222107 15.0344849 L 270.222107 20.1740418 C 270.222107 22.8469849 268.033753 24.9999999 265.394714 24.9999999 L 250.048035 24.9999999 C 247.373718 24.9999999 245.220642 22.846985 245.220642 20.1740418 L 245.220642 18.2640076 L 249.805054 18.2640076 L 249.805054 20.1740418 C 249.805054 20.3125001 249.909607 20.4170533 250.048035 20.4170533 L 265.394714 20.4170533 C 265.499268 20.4170533 265.603821 20.3125001 265.603821 20.1740418 L 265.603821 15.0344849 C 265.603821 14.8960266 265.499268 14.7914734 265.394714 14.7914734 L 250.048035 14.7914734 C 247.373718 14.7914734 245.220642 12.6384583 245.220642 9.9655151 L 245.220642 4.8259582 C 245.220642 2.1530151 247.373718 -1.00000022e-7 250.048035 -1.00000022e-7 L 265.394714 -1.00000022e-7 C 268.033752 -1.00000022e-7 270.222107 2.153015 270.222107 4.8259582 L 270.222107 6.7359924 L 270.222107 6.7359924 Z" stroke-linecap="round" />
</g>
		<g transform="matrix(1 0 0 1 -68.78 -62.5)" id="text"  >
<polygon style="stroke: none; stroke-width: 1; stroke-dasharray: none; stroke-linecap: butt; stroke-dashoffset: 0; stroke-linejoin: miter; stroke-miterlimit: 4; fill: rgb(242,242,242); fill-rule: nonzero; opacity: 1;" vector-effect="non-scaling-stroke"  points="12.78,-12.5 12.78,12.5 8.2,12.5 8.2,2.29 -8.19,2.29 -8.19,12.5 -12.78,12.5 -12.78,-12.5 -8.19,-12.5 -8.19,-2.29 8.2,-2.29 8.2,-12.5 " />
</g>
</g>
</g>
</svg>