<?xml version="1.0" encoding="utf-8"?>
<!-- Generator: Adobe Illustrator 21.0.0, SVG Export Plug-In . SVG Version: 6.00 Build 0)  -->
<svg version="1.1" xmlns="http://www.w3.org/2000/svg" xmlns:xlink="http://www.w3.org/1999/xlink" x="0px" y="0px"
	 viewBox="0 0 841.9 595.3" style="enable-background:new 0 0 841.9 595.3;" xml:space="preserve">
<style type="text/css">
	.st0{display:none;}
	.st1{display:inline;fill:#272F3E;}
	.st2{display:inline;fill:#F05454;}
	.st3{display:inline;fill:#4B72B8;}
	.st4{display:inline;}
	.st5{fill:#272F3E;}
	.st6{fill:#F05454;}
	.st7{fill:#4B72B8;}
</style>
<g id="Layer_1" class="st0">
	<path class="st1" d="M563.2,471.5c-8,0-13.9-6-13.9-13.9c0-7.9,5.9-13.9,13.9-13.9s13.8,5.9,13.8,13.9S571.2,471.5,563.2,471.5
		 M579.1,436.3l-1,5.3c-3.9-4-9.3-6.3-15.5-6.3c-12.6,0-22.1,9.5-22.1,22.2c0,12.7,9.5,22.3,22.1,22.3c6.2,0,11.5-2.3,15.4-6.2
		l0.8,5.2h7v-42.4L579.1,436.3z M513.8,479.8c10.5,0,18.8-6.6,21.2-16.5h-8.8c-2.3,5.2-6.8,8.2-12.4,8.2c-7.6,0-13.4-6.1-13.4-13.9
		s5.7-13.9,13.4-13.9c5.5,0,10.2,3,12.4,7.8h8.6c-2.4-9.7-10.6-16.2-21-16.2c-12.7,0-22.3,9.5-22.3,22.2
		C491.5,470.2,501.1,479.8,513.8,479.8L513.8,479.8z M459.6,471.5c-8,0-13.9-6-13.9-13.9c0-7.9,5.9-13.9,13.9-13.9
		s13.8,5.9,13.8,13.9S467.6,471.5,459.6,471.5 M475.5,436.3l-1,5.3c-3.9-4-9.3-6.3-15.5-6.3c-12.6,0-22.1,9.5-22.1,22.2
		c0,12.7,9.5,22.3,22.1,22.3c6.2,0,11.5-2.3,15.4-6.2l0.9,5.2h7v-42.4L475.5,436.3z M427.1,470.9c-5.1,0-8-2.8-8-7.9v-19.2h12.6
		v-7.5h-12.6v-9.9h-1.5l-14.8,15.7v1.7h7.6v19.9c0,9.4,5.7,15.1,15,15.1h6.5v-7.9H427.1z M391.9,436.4L379.3,466l-13.5-29.6h-9.5
		l18.5,39.4l-1,2c-3.1,6.8-4.8,8.4-10.5,8.4h-3.6v7.9h4.3c8.6,0,12.9-3.8,17.7-14.4l19.5-43.2H391.9z M326.6,471.5
		c-8,0-13.9-6-13.9-13.9c0-7.9,5.9-13.9,13.9-13.9s13.8,5.9,13.8,13.9S334.6,471.5,326.6,471.5 M342.5,436.3l-1,5.3
		c-3.9-4-9.3-6.3-15.5-6.3c-12.6,0-22.1,9.5-22.1,22.2c0,12.7,9.5,22.3,22.1,22.3c6.2,0,11.5-2.3,15.4-6.2l0.8,5.2h7v-42.4
		L342.5,436.3z M279.7,451.6h-10.9v-19.2h10.9c5.9,0,10,4.1,10,9.6C289.7,447.5,285.6,451.6,279.7,451.6 M280.2,423.8h-20.3v55h9
		v-18.7h11.3c10.7,0,18.8-7.8,18.8-18.2C298.9,431.5,290.8,423.8,280.2,423.8"/>
	<path class="st1" d="M601.9,427.7c0,3.4-2.8,6.2-6.2,6.2c-3.4,0-6.2-2.8-6.2-6.2s2.8-6.2,6.2-6.2
		C599.1,421.5,601.9,424.3,601.9,427.7 M603.4,427.7c0-4.2-3.4-7.7-7.7-7.7c-4.2,0-7.7,3.4-7.7,7.7c0,4.2,3.4,7.7,7.7,7.7
		C599.9,435.4,603.4,431.9,603.4,427.7"/>
	<path class="st1" d="M594.2,424.8h1.8c0.9,0,1.5,0.6,1.5,1.4c0,0.8-0.6,1.4-1.5,1.4h-1.8V424.8z M597.6,431.9h1.6l-1.9-3.3
		c1-0.4,1.7-1.3,1.7-2.4c0-1.6-1.2-2.7-2.8-2.7h-3.3v8.4h1.4v-3.1h1.6L597.6,431.9z"/>
	<path class="st2" d="M361.7,83l180.6,112.2l-120,71.6v51.9L564,232.1c0,0,20.1-11.1,20.1-32.5c0-21.4-11-28.5-17.7-33.8
		c-6.7-5.3-146.8-91.5-146.8-91.5S394.8,55.4,361.7,83"/>
	<path class="st3" d="M488.4,191.6l-66.1,44.1v-44.9l-87.8-48v201.1l26.4,15.7V193.4l39,19.9v167.6c0,0-1.5,15.7-13.4,21.3
		c-11.9,5.5-21.1,2.4-27.3-1.2c-6.2-3.5-53.4-31.1-53.4-31.1s-13.8-6.9-13.8-25.6V140c0,0,0.8-20.9,16.1-32.3
		c15.3-11.4,34.6-7.5,39.4-4.7C352.3,105.8,488.4,191.6,488.4,191.6"/>
	<g class="st4">
		<path class="st5" d="M264.7,514.8v7.4h-1.4v-7.3l-7-11.2h1.5l6.2,9.9l6.3-9.9h1.5L264.7,514.8z"/>
		<path class="st5" d="M271.9,515c0-4.3,3.2-7.4,7.5-7.4c4.3,0,7.5,3.2,7.5,7.4c0,4.3-3.2,7.4-7.5,7.4
			C275.1,522.5,271.9,519.3,271.9,515z M285.5,515c0-3.6-2.6-6.2-6.2-6.2s-6.2,2.6-6.2,6.2c0,3.6,2.6,6.2,6.2,6.2
			C282.9,521.2,285.5,518.6,285.5,515z"/>
		<path class="st5" d="M290.4,516.2v-8.3h1.3v8.1c0,3.2,1.9,5.2,4.8,5.2c3,0,4.8-2,4.8-5.2v-8.1h1.3v8.3c0,3.8-2.4,6.3-6.1,6.3
			C292.8,522.5,290.4,520,290.4,516.2z"/>
		<path class="st5" d="M314.7,507.8v1.2h-1.3c-2.9,0-4.7,2.1-4.7,5.2v8h-1.3v-14.3h1l0.2,2.8c1-1.8,2.6-2.9,4.9-2.9H314.7z"/>
		<path class="st5" d="M344.6,513.1v9.1h-1.3l0-8.7c0-2.9-1.5-4.7-3.8-4.7c-2.6,0-4.5,2.1-4.5,5.2v8.2h-1.3v-8.7
			c0-2.9-1.5-4.7-3.8-4.7c-2.6,0-4.5,2.1-4.5,5.2v8.2h-1.3v-14.3h1l0.2,2.5c1-1.8,2.8-2.8,4.9-2.8c2.2,0,3.8,1.3,4.5,3.3
			c0.9-2,2.8-3.3,5.1-3.3C342.6,507.6,344.6,509.8,344.6,513.1z"/>
		<path class="st5" d="M348.1,515c0-4.3,3.2-7.4,7.5-7.4c4.3,0,7.5,3.2,7.5,7.4c0,4.3-3.2,7.4-7.5,7.4
			C351.3,522.5,348.1,519.3,348.1,515z M361.8,515c0-3.6-2.6-6.2-6.2-6.2s-6.2,2.6-6.2,6.2c0,3.6,2.6,6.2,6.2,6.2
			C359.2,521.2,361.8,518.6,361.8,515z"/>
		<path class="st5" d="M379.1,513.7v8.5h-1.3V514c0-3.3-1.7-5.2-4.6-5.2c-2.8,0-5.1,2.4-5.1,5.2v8.2h-1.3v-14.3h1l0.3,2.9
			c1-1.9,3.1-3.2,5.4-3.2C377,507.6,379.1,510.1,379.1,513.7z"/>
		<path class="st5" d="M396.9,515.5h-13c0.2,3.3,2.7,5.7,5.9,5.7c2.4,0,4.2-1.2,5.3-3.2h1.4c-1.3,2.9-3.7,4.5-6.7,4.5
			c-4.1,0-7.2-3.2-7.2-7.5c0-4.2,3.1-7.4,7.2-7.4c4.2,0,7.1,3.3,7.1,7.4C397,515.1,396.9,515.3,396.9,515.5z M384,514.3h11.7
			c-0.3-3.3-2.7-5.5-5.8-5.5C386.7,508.8,384.3,511.1,384,514.3z"/>
		<path class="st5" d="M412.6,507.9l-7.1,15.4c-1.4,3.1-2.7,4-5.1,4h-1.2v-1.2h1.1c2,0,2.8-0.6,4-3.2l0.8-1.6l-6.6-13.5h1.4l5.8,12
			l5.5-12H412.6z"/>
		<path class="st5" d="M413.3,520.2h1.7v2h-1.7V520.2z"/>
		<path class="st5" d="M432.6,514.8v7.4h-1.4v-7.3l-7-11.2h1.5l6.2,9.9l6.3-9.9h1.5L432.6,514.8z"/>
		<path class="st5" d="M439.7,515c0-4.3,3.2-7.4,7.5-7.4c4.3,0,7.5,3.2,7.5,7.4c0,4.3-3.2,7.4-7.5,7.4
			C442.9,522.5,439.7,519.3,439.7,515z M453.4,515c0-3.6-2.6-6.2-6.2-6.2s-6.2,2.6-6.2,6.2c0,3.6,2.6,6.2,6.2,6.2
			C450.8,521.2,453.4,518.6,453.4,515z"/>
		<path class="st5" d="M458.2,516.2v-8.3h1.3v8.1c0,3.2,1.9,5.2,4.8,5.2c3,0,4.8-2,4.8-5.2v-8.1h1.3v8.3c0,3.8-2.4,6.3-6.1,6.3
			C460.6,522.5,458.2,520,458.2,516.2z"/>
		<path class="st5" d="M482.5,507.8v1.2h-1.3c-2.9,0-4.7,2.1-4.7,5.2v8h-1.3v-14.3h1l0.2,2.8c1-1.8,2.6-2.9,4.9-2.9H482.5z"/>
		<path class="st5" d="M498,522.5c-4.2,0-7.4-3.2-7.4-7.4c0-4.3,3.2-7.4,7.4-7.4c3.2,0,5.8,1.9,6.8,4.7h-1.3c-1-2.1-3-3.4-5.5-3.4
			c-3.5,0-6.1,2.7-6.1,6.2c0,3.5,2.6,6.2,6.1,6.2c2.4,0,4.5-1.3,5.5-3.5h1.3C503.8,520.6,501.2,522.5,498,522.5L498,522.5z"/>
		<path class="st5" d="M507.1,515c0-4.3,3.2-7.4,7.5-7.4c4.3,0,7.5,3.2,7.5,7.4c0,4.3-3.2,7.4-7.5,7.4
			C510.3,522.5,507.1,519.3,507.1,515z M520.7,515c0-3.6-2.6-6.2-6.2-6.2c-3.6,0-6.2,2.6-6.2,6.2c0,3.6,2.6,6.2,6.2,6.2
			C518.1,521.2,520.7,518.6,520.7,515z"/>
		<path class="st5" d="M538.1,513.7v8.5h-1.3V514c0-3.3-1.7-5.2-4.6-5.2c-2.8,0-5.1,2.4-5.1,5.2v8.2h-1.3v-14.3h1l0.3,2.9
			c1-1.9,3.1-3.2,5.4-3.2C535.9,507.6,538.1,510.1,538.1,513.7z"/>
		<path class="st5" d="M549.6,521v1.2h-1.7c-2.8,0-4.5-1.7-4.5-4.6v-8.6H541v-0.3l3.4-3.4h0.3v2.5h4.8v1.2h-4.8v8.5
			c0,2.2,1.2,3.4,3.4,3.4H549.6z"/>
		<path class="st5" d="M560.2,507.8v1.2h-1.3c-2.9,0-4.7,2.1-4.7,5.2v8h-1.3v-14.3h1l0.2,2.8c1-1.8,2.6-2.9,4.9-2.9H560.2z"/>
		<path class="st5" d="M561.2,515c0-4.3,3.2-7.4,7.5-7.4c4.3,0,7.5,3.2,7.5,7.4c0,4.3-3.2,7.4-7.5,7.4
			C564.4,522.5,561.2,519.3,561.2,515z M574.8,515c0-3.6-2.6-6.2-6.2-6.2c-3.6,0-6.2,2.6-6.2,6.2c0,3.6,2.6,6.2,6.2,6.2
			C572.2,521.2,574.8,518.6,574.8,515z"/>
		<path class="st5" d="M579.9,502.8h1.3v19.4h-1.3V502.8z"/>
		<path class="st5" d="M585.5,520.2h1.7v2h-1.7V520.2z"/>
	</g>
</g>
<g id="Layer_2">
	<g>
		<path class="st5" d="M255.6,386.7v11.9h-2.2v-11.9l-11.3-18.1h2.4l10,16.1l10.1-16.1h2.4L255.6,386.7z"/>
		<path class="st5" d="M267.2,387c0-6.9,5.2-12,12.1-12c6.9,0,12.1,5.1,12.1,12c0,6.9-5.2,12-12.1,12
			C272.4,399,267.2,393.9,267.2,387z M289.3,387c0-5.7-4.2-10-10-10s-10,4.2-10,10c0,5.7,4.3,10,10,10
			C285.1,397,289.3,392.7,289.3,387z"/>
		<path class="st5" d="M297.1,388.8v-13.4h2.1v13.1c0,5.2,3,8.5,7.8,8.5c4.8,0,7.8-3.2,7.8-8.5v-13.1h2.1v13.4
			c0,6.2-3.8,10.2-9.9,10.2C300.9,399,297.1,395,297.1,388.8z"/>
		<path class="st5" d="M336.4,375.3v2h-2.2c-4.6,0-7.6,3.4-7.6,8.3v12.9h-2.1v-23.1h1.6l0.4,4.6c1.5-2.9,4.2-4.6,7.9-4.6H336.4z"/>
		<path class="st5" d="M384.7,383.9v14.7h-2.1l0-14.1c0-4.6-2.4-7.6-6.2-7.6c-4.2,0-7.3,3.5-7.3,8.4v13.3h-2.1v-14.1
			c0-4.7-2.4-7.6-6.2-7.6c-4.2,0-7.3,3.5-7.3,8.4v13.3h-2.1v-23.1h1.6l0.4,4.1c1.6-2.8,4.5-4.6,7.9-4.6c3.5,0,6.2,2.1,7.3,5.3
			c1.5-3.3,4.5-5.3,8.2-5.3C381.6,375,384.7,378.6,384.7,383.9z"/>
		<path class="st5" d="M390.5,387c0-6.9,5.2-12,12.1-12c6.9,0,12.1,5.1,12.1,12c0,6.9-5.2,12-12.1,12
			C395.7,399,390.5,393.9,390.5,387z M412.6,387c0-5.7-4.2-10-10-10c-5.7,0-10,4.2-10,10c0,5.7,4.3,10,10,10
			C408.3,397,412.6,392.7,412.6,387z"/>
		<path class="st5" d="M440.6,384.8v13.7h-2.1v-13.3c0-5.3-2.7-8.4-7.4-8.4c-4.5,0-8.2,3.8-8.2,8.5v13.2h-2.1v-23.1h1.6l0.4,4.7
			c1.7-3.1,5-5.2,8.8-5.2C437.1,375,440.6,379,440.6,384.8z"/>
		<path class="st5" d="M469.4,387.7h-21c0.3,5.4,4.3,9.2,9.6,9.2c3.8,0,6.8-1.9,8.6-5.2h2.2c-2.1,4.6-6,7.2-10.8,7.2
			c-6.6,0-11.7-5.2-11.7-12.1c0-6.8,5-12,11.7-12c6.8,0,11.5,5.3,11.5,12C469.4,387.2,469.4,387.5,469.4,387.7z M448.4,385.8h18.9
			c-0.5-5.3-4.4-8.8-9.4-8.8C452.8,377,448.9,380.6,448.4,385.8z"/>
		<path class="st5" d="M494.7,375.4l-11.6,24.8c-2.3,5-4.4,6.5-8.3,6.5H473v-1.9h1.8c3.2,0,4.6-1,6.5-5.1l1.2-2.6l-10.6-21.8h2.3
			l9.4,19.4l8.9-19.4H494.7z"/>
		<path class="st5" d="M495.8,395.3h2.8v3.3h-2.8V395.3z"/>
		<path class="st5" d="M527,386.7v11.9h-2.2v-11.9l-11.3-18.1h2.4l10,16.1l10.1-16.1h2.4L527,386.7z"/>
		<path class="st5" d="M538.5,387c0-6.9,5.2-12,12.1-12c6.9,0,12.1,5.1,12.1,12c0,6.9-5.2,12-12.1,12
			C543.7,399,538.5,393.9,538.5,387z M560.6,387c0-5.7-4.2-10-10-10c-5.7,0-10,4.2-10,10c0,5.7,4.3,10,10,10
			C556.4,397,560.6,392.7,560.6,387z"/>
		<path class="st5" d="M568.4,388.8v-13.4h2.1v13.1c0,5.2,3,8.5,7.8,8.5c4.8,0,7.8-3.2,7.8-8.5v-13.1h2.1v13.4
			c0,6.2-3.8,10.2-9.9,10.2C572.3,399,568.4,395,568.4,388.8z"/>
		<path class="st5" d="M607.8,375.3v2h-2.2c-4.6,0-7.6,3.4-7.6,8.3v12.9h-2.1v-23.1h1.6l0.4,4.6c1.5-2.9,4.2-4.6,7.9-4.6H607.8z"/>
		<path class="st5" d="M632.8,399c-6.8,0-11.9-5.2-11.9-12c0-6.9,5.1-12,11.9-12c5.2,0,9.4,3,10.9,7.6h-2.1
			c-1.5-3.5-4.8-5.6-8.8-5.6c-5.6,0-9.8,4.3-9.8,10c0,5.7,4.2,10,9.8,10c3.9,0,7.2-2.1,8.8-5.7h2.1C642.2,396,638,399,632.8,399
			L632.8,399z"/>
		<path class="st5" d="M647.4,387c0-6.9,5.2-12,12.1-12c6.9,0,12.1,5.1,12.1,12c0,6.9-5.2,12-12.1,12
			C652.6,399,647.4,393.9,647.4,387z M669.5,387c0-5.7-4.2-10-10-10s-10,4.2-10,10c0,5.7,4.3,10,10,10
			C665.3,397,669.5,392.7,669.5,387z"/>
		<path class="st5" d="M697.6,384.8v13.7h-2.1v-13.3c0-5.3-2.7-8.4-7.4-8.4c-4.5,0-8.2,3.8-8.2,8.5v13.2h-2.1v-23.1h1.6l0.4,4.7
			c1.7-3.1,5-5.2,8.8-5.2C694.1,375,697.6,379,697.6,384.8z"/>
		<path class="st5" d="M716.1,396.6v2h-2.8c-4.5,0-7.3-2.8-7.3-7.4v-13.8h-3.9v-0.5l5.5-5.5h0.4v4.1h7.8v1.9h-7.8v13.8
			c0,3.5,1.9,5.5,5.4,5.5H716.1z"/>
		<path class="st5" d="M733.3,375.3v2h-2.2c-4.6,0-7.6,3.4-7.6,8.3v12.9h-2.1v-23.1h1.6l0.4,4.6c1.5-2.9,4.2-4.6,7.9-4.6H733.3z"/>
		<path class="st5" d="M734.9,387c0-6.9,5.2-12,12.1-12c6.9,0,12.1,5.1,12.1,12c0,6.9-5.2,12-12.1,12
			C740.1,399,734.9,393.9,734.9,387z M757,387c0-5.7-4.2-10-10-10s-10,4.2-10,10c0,5.7,4.3,10,10,10C752.7,397,757,392.7,757,387z"
			/>
		<path class="st5" d="M765.2,367.2h2.1v31.3h-2.1V367.2z"/>
		<path class="st5" d="M774.2,395.3h2.8v3.3h-2.8V395.3z"/>
	</g>
	<path class="st6" d="M84.3,221.2l103.8,64.5l-69,41.2v29.9l81.4-49.8c0,0,11.5-6.4,11.5-18.7c0-12.3-6.3-16.4-10.2-19.4
		c-3.8-3-84.4-52.6-84.4-52.6S103.3,205.4,84.3,221.2"/>
	<path class="st7" d="M157.1,283.6l-38,25.3v-25.8l-50.4-27.6v115.6l15.2,9v-95.6l22.4,11.4v96.4c0,0-0.9,9-7.7,12.2
		c-6.8,3.2-12.1,1.4-15.7-0.7c-3.6-2-30.7-17.9-30.7-17.9s-7.9-4-7.9-14.7V254c0,0,0.5-12,9.3-18.5c8.8-6.6,19.9-4.3,22.6-2.7
		C78.9,234.3,157.1,283.6,157.1,283.6"/>
	<path class="st5" d="M740.1,315.1c-13.1,0-22.7-9.8-22.7-22.7s9.6-22.7,22.7-22.7s22.6,9.7,22.6,22.7
		C762.7,305.4,753.1,315.1,740.1,315.1 M766,257.7l-1.7,8.7C758,259.9,749.2,256,739,256c-20.7,0-36.1,15.5-36.1,36.3
		c0,20.8,15.4,36.4,36.1,36.4c10.1,0,18.9-3.8,25.1-10.2l1.4,8.4H777v-69.3H766z M659.3,328.7c17.1,0,30.8-10.7,34.6-26.9h-14.4
		c-3.8,8.4-11.1,13.3-20.2,13.3c-12.4,0-21.8-9.9-21.8-22.8c0-12.8,9.3-22.7,21.8-22.7c9,0,16.6,4.8,20.3,12.8h14.1
		c-3.9-15.9-17.2-26.4-34.4-26.4c-20.7,0-36.4,15.6-36.4,36.3C623,313,638.7,328.7,659.3,328.7z M570.9,315.1
		c-13.1,0-22.7-9.8-22.7-22.7s9.6-22.7,22.7-22.7c13.1,0,22.6,9.7,22.6,22.7C593.5,305.4,583.9,315.1,570.9,315.1 M596.8,257.7
		l-1.7,8.7c-6.3-6.5-15.1-10.3-25.4-10.3c-20.7,0-36.1,15.5-36.1,36.3c0,20.8,15.4,36.4,36.1,36.4c10.1,0,18.9-3.8,25.1-10.2
		l1.4,8.4h11.5v-69.3H596.8z M517.8,314.1c-8.4,0-13-4.6-13-12.9v-31.3h20.5v-12.2h-20.6v-16.2h-2.4l-24.1,25.6v2.8h12.4v32.4
		c0,15.3,9.4,24.7,24.6,24.7h10.6v-12.9H517.8z M460.3,257.7L439.7,306l-22-48.3h-15.5l30.2,64.3l-1.6,3.3
		c-5.1,11.1-7.9,13.8-17.1,13.8h-5.9v12.8h7c14.1,0,21-6.2,28.9-23.6l31.9-70.6H460.3z M353.6,315.1c-13.1,0-22.7-9.8-22.7-22.7
		s9.6-22.7,22.7-22.7c13.1,0,22.6,9.7,22.6,22.7C376.3,305.4,366.7,315.1,353.6,315.1 M379.5,257.7l-1.7,8.7
		c-6.3-6.5-15.1-10.3-25.4-10.3c-20.7,0-36.1,15.5-36.1,36.3c0,20.8,15.4,36.4,36.1,36.4c10.1,0,18.9-3.8,25.1-10.2l1.4,8.4h11.5
		v-69.3H379.5z M277.1,282.5h-17.8v-31.4h17.8c9.6,0,16.3,6.7,16.3,15.7S286.7,282.5,277.1,282.5 M277.8,237.1h-33.2V327h14.7v-30.5
		h18.5c17.5,0,30.6-12.7,30.6-29.7C308.5,249.8,295.2,237.1,277.8,237.1"/>
	<path class="st5" d="M803.9,243.3c0,5.6-4.5,10.2-10.2,10.2c-5.6,0-10.2-4.5-10.2-10.2c0-5.6,4.5-10.2,10.2-10.2
		C799.4,233.2,803.9,237.7,803.9,243.3 M806.3,243.3c0-6.9-5.6-12.6-12.6-12.6c-6.9,0-12.6,5.6-12.6,12.6c0,6.9,5.6,12.6,12.6,12.6
		C800.7,255.9,806.3,250.2,806.3,243.3"/>
	<path class="st5" d="M791.3,238.5h3c1.5,0,2.5,0.9,2.5,2.2c0,1.3-1,2.2-2.5,2.2h-3V238.5z M796.9,250.2h2.5l-3.2-5.4
		c1.7-0.6,2.8-2.1,2.8-4c0-2.5-2-4.4-4.6-4.4H789v13.8h2.3v-5.1h2.6L796.9,250.2z"/>
</g>
</svg>
