<?xml version="1.0" encoding="UTF-8"?>
<svg id="Layer_2" xmlns="http://www.w3.org/2000/svg" version="1.1" viewBox="0 0 377 377">
  <!-- Generator: Adobe Illustrator 29.1.0, SVG Export Plug-In . SVG Version: 2.1.0 Build 142)  -->
  <defs>
    <style>
      .st0 {
        fill: #b6ecde;
      }

      .st1 {
        fill: #0ac18e;
      }
    </style>
  </defs>
  <path class="st1" d="M188.5,125.5c-31.6,0-57.7,23.3-62.3,53.6s-.2,1.6-.3,2.7c-.2,2.2-.4,7.6-.4,7.6v176.8l41.7-63.8v-54.6c6.7,2.4,13.8,3.7,21.3,3.7,34.8,0,63-28.2,63-63s-28.2-63-63-63ZM189.6,212c-13,0-23.6-10.6-23.6-23.6s10.6-23.6,23.6-23.6,23.6,10.6,23.6,23.6-10.6,23.6-23.6,23.6Z"/>
  <path class="st0" d="M188.5,0C84.4,0,0,84.4,0,188.5s29.5,116.1,75.1,150.6v-150.3c0-.2,0-.3,0-.5,0-.2,0-.5,0-.7v-.7h0c.7-63.9,52.7-115.4,116.7-115.4s116.8,52.3,116.8,116.8-52.3,116.8-116.8,116.8-16.7-.9-24.6-2.6h0s-41.7,63.8-41.7,63.8c19.7,7,40.9,10.8,63,10.8,104.1,0,188.5-84.4,188.5-188.5S292.6,0,188.5,0Z"/>
</svg>