<?xml version="1.0" encoding="UTF-8"?>
<svg id="Layer_1" xmlns="http://www.w3.org/2000/svg" xmlns:xlink="http://www.w3.org/1999/xlink" version="1.1" viewBox="0 0 800 418">
  <!-- Generator: Adobe Illustrator 29.2.1, SVG Export Plug-In . SVG Version: 2.1.0 Build 116)  -->
  <defs>
    <style>
      .st0 {
        fill: url(#linear-gradient14);
      }

      .st0, .st1, .st2, .st3, .st4, .st5 {
        fill-rule: evenodd;
      }

      .st1 {
        fill: url(#linear-gradient15);
      }

      .st2 {
        fill: url(#linear-gradient11);
      }

      .st3 {
        fill: url(#linear-gradient10);
      }

      .st4 {
        fill: url(#linear-gradient12);
      }

      .st5 {
        fill: url(#linear-gradient13);
      }

      .st6 {
        fill: url(#linear-gradient2);
        stroke: url(#linear-gradient3);
      }

      .st7 {
        fill: url(#linear-gradient4);
        stroke: url(#linear-gradient5);
      }

      .st8 {
        fill: url(#linear-gradient6);
        stroke: url(#linear-gradient7);
      }

      .st9 {
        fill: url(#linear-gradient8);
        stroke: url(#linear-gradient9);
      }

      .st10, .st11 {
        font-family: Ubuntu-Bold, Ubuntu;
        font-size: 87.6px;
        font-weight: 700;
      }

      .st12 {
        fill: url(#linear-gradient18);
      }

      .st13 {
        fill: url(#linear-gradient16);
      }

      .st14 {
        fill: url(#linear-gradient17);
      }

      .st15 {
        fill: url(#linear-gradient19);
      }

      .st16 {
        fill: #181818;
        stroke: #000;
        stroke-miterlimit: 10;
      }

      .st17 {
        stroke: url(#linear-gradient);
      }

      .st17, .st18 {
        fill: none;
        stroke-width: 20px;
      }

      .st19, .st11 {
        fill: #fff;
      }

      .st18 {
        stroke: url(#linear-gradient1);
      }

      .st20 {
        fill: #0ac18e;
      }
    </style>
    <linearGradient id="linear-gradient" x1="156.9" y1="290.3" x2="156.9" y2="133.9" gradientTransform="translate(0 381) scale(1 -1)" gradientUnits="userSpaceOnUse">
      <stop offset="0" stop-color="#12b9a3"/>
      <stop offset=".2" stop-color="#14b7a9"/>
      <stop offset=".7" stop-color="#1aafbc"/>
      <stop offset="1" stop-color="#1baebf"/>
    </linearGradient>
    <linearGradient id="linear-gradient1" x1="156.9" y1="290.3" x2="156.9" y2="133.9" gradientTransform="translate(0 381) scale(1 -1)" gradientUnits="userSpaceOnUse">
      <stop offset="0" stop-color="#12b9a3"/>
      <stop offset=".2" stop-color="#14b7a9"/>
      <stop offset=".7" stop-color="#1aafbc"/>
      <stop offset="1" stop-color="#1baebf"/>
    </linearGradient>
    <linearGradient id="linear-gradient2" x1="63.2" y1="119.8" x2="63.2" y2="52.6" gradientTransform="translate(0 381) scale(1 -1)" gradientUnits="userSpaceOnUse">
      <stop offset="0" stop-color="#12b9a3"/>
      <stop offset=".2" stop-color="#14b7a9"/>
      <stop offset=".7" stop-color="#1aafbc"/>
      <stop offset="1" stop-color="#1baebf"/>
    </linearGradient>
    <linearGradient id="linear-gradient3" x1="63.2" y1="119.7" x2="63.2" y2="52.7" gradientTransform="translate(0 381) scale(1 -1)" gradientUnits="userSpaceOnUse">
      <stop offset="0" stop-color="#12b9a3"/>
      <stop offset=".2" stop-color="#14b7a9"/>
      <stop offset=".7" stop-color="#1aafbc"/>
      <stop offset="1" stop-color="#1baebf"/>
    </linearGradient>
    <linearGradient id="linear-gradient4" x1="63.2" y1="119.8" x2="63.2" y2="52.6" gradientTransform="translate(0 381) scale(1 -1)" gradientUnits="userSpaceOnUse">
      <stop offset="0" stop-color="#12b9a3"/>
      <stop offset=".2" stop-color="#14b7a9"/>
      <stop offset=".7" stop-color="#1aafbc"/>
      <stop offset="1" stop-color="#1baebf"/>
    </linearGradient>
    <linearGradient id="linear-gradient5" x1="63.2" y1="119.7" x2="63.2" y2="52.7" gradientTransform="translate(0 381) scale(1 -1)" gradientUnits="userSpaceOnUse">
      <stop offset="0" stop-color="#12b9a3"/>
      <stop offset=".2" stop-color="#14b7a9"/>
      <stop offset=".7" stop-color="#1aafbc"/>
      <stop offset="1" stop-color="#1baebf"/>
    </linearGradient>
    <linearGradient id="linear-gradient6" x1="95.7" y1="137" x2="95.7" y2="111.2" gradientTransform="translate(0 381) scale(1 -1)" gradientUnits="userSpaceOnUse">
      <stop offset="0" stop-color="#12b9a3"/>
      <stop offset=".2" stop-color="#14b7a9"/>
      <stop offset=".7" stop-color="#1aafbc"/>
      <stop offset="1" stop-color="#1baebf"/>
    </linearGradient>
    <linearGradient id="linear-gradient7" x1="95.7" y1="137" x2="95.7" y2="111.3" gradientTransform="translate(0 381) scale(1 -1)" gradientUnits="userSpaceOnUse">
      <stop offset="0" stop-color="#12b9a3"/>
      <stop offset=".2" stop-color="#14b7a9"/>
      <stop offset=".7" stop-color="#1aafbc"/>
      <stop offset="1" stop-color="#1baebf"/>
    </linearGradient>
    <linearGradient id="linear-gradient8" x1="95.7" y1="137" x2="95.7" y2="111.2" gradientTransform="translate(0 381) scale(1 -1)" gradientUnits="userSpaceOnUse">
      <stop offset="0" stop-color="#12b9a3"/>
      <stop offset=".2" stop-color="#14b7a9"/>
      <stop offset=".7" stop-color="#1aafbc"/>
      <stop offset="1" stop-color="#1baebf"/>
    </linearGradient>
    <linearGradient id="linear-gradient9" x1="95.7" y1="137" x2="95.7" y2="111.3" gradientTransform="translate(0 381) scale(1 -1)" gradientUnits="userSpaceOnUse">
      <stop offset="0" stop-color="#12b9a3"/>
      <stop offset=".2" stop-color="#14b7a9"/>
      <stop offset=".7" stop-color="#1aafbc"/>
      <stop offset="1" stop-color="#1baebf"/>
    </linearGradient>
    <linearGradient id="linear-gradient10" x1="157" y1="270.8" x2="157" y2="222.5" gradientTransform="translate(0 381) scale(1 -1)" gradientUnits="userSpaceOnUse">
      <stop offset="0" stop-color="#12b9a3"/>
      <stop offset=".2" stop-color="#14b7a9"/>
      <stop offset=".7" stop-color="#1aafbc"/>
      <stop offset="1" stop-color="#1baebf"/>
    </linearGradient>
    <linearGradient id="linear-gradient11" x1="157" y1="270.8" x2="157" y2="222.5" gradientTransform="translate(0 381) scale(1 -1)" gradientUnits="userSpaceOnUse">
      <stop offset="0" stop-color="#12b9a3"/>
      <stop offset=".2" stop-color="#14b7a9"/>
      <stop offset=".7" stop-color="#1aafbc"/>
      <stop offset="1" stop-color="#1baebf"/>
    </linearGradient>
    <linearGradient id="linear-gradient12" x1="127.8" y1="222.5" x2="127.8" y2="174.2" gradientTransform="translate(0 381) scale(1 -1)" gradientUnits="userSpaceOnUse">
      <stop offset="0" stop-color="#12b9a3"/>
      <stop offset=".2" stop-color="#14b7a9"/>
      <stop offset=".7" stop-color="#1aafbc"/>
      <stop offset="1" stop-color="#1baebf"/>
    </linearGradient>
    <linearGradient id="linear-gradient13" x1="127.8" y1="222.5" x2="127.8" y2="174.2" gradientTransform="translate(0 381) scale(1 -1)" gradientUnits="userSpaceOnUse">
      <stop offset="0" stop-color="#12b9a3"/>
      <stop offset=".2" stop-color="#14b7a9"/>
      <stop offset=".7" stop-color="#1aafbc"/>
      <stop offset="1" stop-color="#1baebf"/>
    </linearGradient>
    <linearGradient id="linear-gradient14" x1="186.2" y1="221.4" x2="186.2" y2="173.1" gradientTransform="translate(0 381) scale(1 -1)" gradientUnits="userSpaceOnUse">
      <stop offset="0" stop-color="#12b9a3"/>
      <stop offset=".2" stop-color="#14b7a9"/>
      <stop offset=".7" stop-color="#1aafbc"/>
      <stop offset="1" stop-color="#1baebf"/>
    </linearGradient>
    <linearGradient id="linear-gradient15" x1="186.2" y1="221.4" x2="186.2" y2="173.1" gradientTransform="translate(0 381) scale(1 -1)" gradientUnits="userSpaceOnUse">
      <stop offset="0" stop-color="#12b9a3"/>
      <stop offset=".2" stop-color="#14b7a9"/>
      <stop offset=".7" stop-color="#1aafbc"/>
      <stop offset="1" stop-color="#1baebf"/>
    </linearGradient>
    <linearGradient id="linear-gradient16" x1="157.6" y1="175.3" x2="157.6" y2="156.3" gradientTransform="translate(0 381) scale(1 -1)" gradientUnits="userSpaceOnUse">
      <stop offset="0" stop-color="#12b9a3"/>
      <stop offset=".2" stop-color="#14b7a9"/>
      <stop offset=".7" stop-color="#1aafbc"/>
      <stop offset="1" stop-color="#1baebf"/>
    </linearGradient>
    <linearGradient id="linear-gradient17" x1="157.6" y1="175.3" x2="157.6" y2="156.3" gradientTransform="translate(0 381) scale(1 -1)" gradientUnits="userSpaceOnUse">
      <stop offset="0" stop-color="#12b9a3"/>
      <stop offset=".2" stop-color="#14b7a9"/>
      <stop offset=".7" stop-color="#1aafbc"/>
      <stop offset="1" stop-color="#1baebf"/>
    </linearGradient>
    <linearGradient id="linear-gradient18" x1="148.1" y1="165.8" x2="167.1" y2="165.8" gradientTransform="translate(0 381) scale(1 -1)" gradientUnits="userSpaceOnUse">
      <stop offset="0" stop-color="#12b9a3"/>
      <stop offset=".2" stop-color="#14b7a9"/>
      <stop offset=".7" stop-color="#1aafbc"/>
      <stop offset="1" stop-color="#1baebf"/>
    </linearGradient>
    <linearGradient id="linear-gradient19" x1="148.1" y1="165.8" x2="167.1" y2="165.8" gradientTransform="translate(0 381) scale(1 -1)" gradientUnits="userSpaceOnUse">
      <stop offset="0" stop-color="#12b9a3"/>
      <stop offset=".2" stop-color="#14b7a9"/>
      <stop offset=".7" stop-color="#1aafbc"/>
      <stop offset="1" stop-color="#1baebf"/>
    </linearGradient>
  </defs>
  <rect class="st16" x="-.4" width="800.4" height="418"/>
  <g>
    <g>
      <path class="st17" d="M236.2,166.3c1.5,43.8-32.7,80.4-76.5,81.9-43.8,1.5-80.5-32.8-82-76.6-1.5-43.8,32.7-80.4,76.5-81.9,43.8-1.5,80.5,32.8,82,76.6Z"/>
      <path class="st18" d="M236.2,166.3c1.5,43.8-32.7,80.4-76.5,81.9-43.8,1.5-80.5-32.8-82-76.6-1.5-43.8,32.7-80.4,76.5-81.9,43.8-1.5,80.5,32.8,82,76.6Z"/>
      <path class="st6" d="M71.7,261.8l23.2,18.5c1.2,1,1.4,2.7.4,3.9l-36.6,43.2c-1,1.2-2.8,1.4-4,.4l-23.2-18.5c-1.2-1-1.4-2.7-.4-3.9l36.6-43.2c1-1.2,2.8-1.4,4-.4Z"/>
      <path class="st7" d="M71.7,261.8l23.2,18.5c1.2,1,1.4,2.7.4,3.9l-36.6,43.2c-1,1.2-2.8,1.4-4,.4l-23.2-18.5c-1.2-1-1.4-2.7-.4-3.9l36.6-43.2c1-1.2,2.8-1.4,4-.4Z"/>
      <path class="st8" d="M97,244.6l10.8,8.6c1.2,1,1.4,2.7.4,3.9l-9.9,11.7c-1,1.2-2.8,1.4-4,.4l-10.8-8.6c-1.2-1-1.4-2.7-.4-3.9l9.9-11.7c1-1.2,2.8-1.4,4-.4Z"/>
      <path class="st9" d="M97,244.6l10.8,8.6c1.2,1,1.4,2.7.4,3.9l-9.9,11.7c-1,1.2-2.8,1.4-4,.4l-10.8-8.6c-1.2-1-1.4-2.7-.4-3.9l9.9-11.7c1-1.2,2.8-1.4,4-.4Z"/>
      <path class="st3" d="M157,158.5c13.3,0,24.1-10.8,24.1-24.1s-10.8-24.1-24.1-24.1-24.1,10.8-24.1,24.1,10.8,24.1,24.1,24.1ZM169.6,137.2c-.7,3.2-2.6,6-5.2,7.8,1-2.2,1.7-4.8,2-7.8h3.2ZM169.8,132.7c-.5-3.7-2.5-6.9-5.4-8.9,1.2,2.4,1.9,5.5,2.1,8.9h3.3ZM162,132.7c-.2-3.2-1-5.8-2-7.7-1.3-2.3-2.3-2.4-2.4-2.4s-1.1.1-2.4,2.4c-1,1.8-1.8,4.5-2,7.7h8.9ZM153.3,137.2c.3,2.7,1,4.9,1.9,6.5,1.3,2.3,2.3,2.4,2.4,2.4s1.1-.1,2.4-2.4c.9-1.6,1.6-3.9,1.9-6.5h-8.7ZM148.7,137.2c.3,3.4,1.2,6.4,2.5,8.7-3.4-1.7-6-4.9-6.8-8.7h4.3ZM148.7,132.7c.2-3.8,1.2-7.3,2.6-9.9-3.8,1.9-6.5,5.5-7,9.9h4.4ZM174.4,134.4c0,9.6-7.8,17.4-17.4,17.4s-17.4-7.8-17.4-17.4,7.8-17.4,17.4-17.4,17.4,7.8,17.4,17.4Z"/>
      <path class="st2" d="M157,158.5c13.3,0,24.1-10.8,24.1-24.1s-10.8-24.1-24.1-24.1-24.1,10.8-24.1,24.1,10.8,24.1,24.1,24.1ZM169.6,137.2c-.7,3.2-2.6,6-5.2,7.8,1-2.2,1.7-4.8,2-7.8h3.2ZM169.8,132.7c-.5-3.7-2.5-6.9-5.4-8.9,1.2,2.4,1.9,5.5,2.1,8.9h3.3ZM162,132.7c-.2-3.2-1-5.8-2-7.7-1.3-2.3-2.3-2.4-2.4-2.4s-1.1.1-2.4,2.4c-1,1.8-1.8,4.5-2,7.7h8.9ZM153.3,137.2c.3,2.7,1,4.9,1.9,6.5,1.3,2.3,2.3,2.4,2.4,2.4s1.1-.1,2.4-2.4c.9-1.6,1.6-3.9,1.9-6.5h-8.7ZM148.7,137.2c.3,3.4,1.2,6.4,2.5,8.7-3.4-1.7-6-4.9-6.8-8.7h4.3ZM148.7,132.7c.2-3.8,1.2-7.3,2.6-9.9-3.8,1.9-6.5,5.5-7,9.9h4.4ZM174.4,134.4c0,9.6-7.8,17.4-17.4,17.4s-17.4-7.8-17.4-17.4,7.8-17.4,17.4-17.4,17.4,7.8,17.4,17.4Z"/>
      <path class="st4" d="M152,182.6c0,13.3-10.8,24.1-24.1,24.1s-24.1-10.8-24.1-24.1,10.8-24.1,24.1-24.1,24.1,10.8,24.1,24.1ZM112.7,172c0-1.2,1-2.2,2.2-2.2h9c1.2,0,2.2,1,2.2,2.2v7.9c0,1.2-1,2.2-2.2,2.2h-9c-1.2,0-2.2-1-2.2-2.2v-7.9ZM130.1,183.2c-1.2,0-2.2,1-2.2,2.2v7.9c0,1.2,1,2.2,2.2,2.2h9c1.2,0,2.2-1,2.2-2.2v-7.9c0-1.2-1-2.2-2.2-2.2h-9ZM127.3,172c0-1.2,1-2.2,2.2-2.2h9c1.2,0,2.2,1,2.2,2.2v7.9c0,1.2-1,2.2-2.2,2.2h-9c-1.2,0-2.2-1-2.2-2.2v-7.9ZM114.9,183.2c-1.2,0-2.2,1-2.2,2.2v7.9c0,1.2,1,2.2,2.2,2.2h9c1.2,0,2.2-1,2.2-2.2v-7.9c0-1.2-1-2.2-2.2-2.2h-9Z"/>
      <path class="st5" d="M152,182.6c0,13.3-10.8,24.1-24.1,24.1s-24.1-10.8-24.1-24.1,10.8-24.1,24.1-24.1,24.1,10.8,24.1,24.1ZM112.7,172c0-1.2,1-2.2,2.2-2.2h9c1.2,0,2.2,1,2.2,2.2v7.9c0,1.2-1,2.2-2.2,2.2h-9c-1.2,0-2.2-1-2.2-2.2v-7.9ZM130.1,183.2c-1.2,0-2.2,1-2.2,2.2v7.9c0,1.2,1,2.2,2.2,2.2h9c1.2,0,2.2-1,2.2-2.2v-7.9c0-1.2-1-2.2-2.2-2.2h-9ZM127.3,172c0-1.2,1-2.2,2.2-2.2h9c1.2,0,2.2,1,2.2,2.2v7.9c0,1.2-1,2.2-2.2,2.2h-9c-1.2,0-2.2-1-2.2-2.2v-7.9ZM114.9,183.2c-1.2,0-2.2,1-2.2,2.2v7.9c0,1.2,1,2.2,2.2,2.2h9c1.2,0,2.2-1,2.2-2.2v-7.9c0-1.2-1-2.2-2.2-2.2h-9Z"/>
      <path class="st0" d="M186.2,207.9c13.3,0,24.1-10.8,24.1-24.1s-10.8-24.1-24.1-24.1-24.1,10.8-24.1,24.1,10.8,24.1,24.1,24.1ZM186.2,175.3c-1.6,0-2.8,1.3-2.8,2.8v18c0,1.6,1.3,2.8,2.8,2.8s2.8-1.3,2.8-2.8v-18c0-1.6-1.3-2.8-2.8-2.8ZM189,171.4c0,1.6-1.3,2.8-2.8,2.8s-2.8-1.3-2.8-2.8,1.3-2.8,2.8-2.8,2.8,1.3,2.8,2.8ZM203.6,183.8c0,9.6-7.8,17.4-17.4,17.4s-17.4-7.8-17.4-17.4,7.8-17.4,17.4-17.4,17.4,7.8,17.4,17.4ZM207,183.8c0,11.5-9.3,20.8-20.8,20.8s-20.8-9.3-20.8-20.8,9.3-20.8,20.8-20.8,20.8,9.3,20.8,20.8Z"/>
      <path class="st1" d="M186.2,207.9c13.3,0,24.1-10.8,24.1-24.1s-10.8-24.1-24.1-24.1-24.1,10.8-24.1,24.1,10.8,24.1,24.1,24.1ZM186.2,175.3c-1.6,0-2.8,1.3-2.8,2.8v18c0,1.6,1.3,2.8,2.8,2.8s2.8-1.3,2.8-2.8v-18c0-1.6-1.3-2.8-2.8-2.8ZM189,171.4c0,1.6-1.3,2.8-2.8,2.8s-2.8-1.3-2.8-2.8,1.3-2.8,2.8-2.8,2.8,1.3,2.8,2.8ZM203.6,183.8c0,9.6-7.8,17.4-17.4,17.4s-17.4-7.8-17.4-17.4,7.8-17.4,17.4-17.4,17.4,7.8,17.4,17.4ZM207,183.8c0,11.5-9.3,20.8-20.8,20.8s-20.8-9.3-20.8-20.8,9.3-20.8,20.8-20.8,20.8,9.3,20.8,20.8Z"/>
      <path class="st13" d="M159.8,207.9c0-1.2-1-2.2-2.2-2.2s-2.2,1-2.2,2.2v14.6c0,1.2,1,2.2,2.2,2.2s2.2-1,2.2-2.2v-14.6Z"/>
      <path class="st14" d="M159.8,207.9c0-1.2-1-2.2-2.2-2.2s-2.2,1-2.2,2.2v14.6c0,1.2,1,2.2,2.2,2.2s2.2-1,2.2-2.2v-14.6Z"/>
      <path class="st12" d="M150.3,212.9c-1.2,0-2.2,1-2.3,2.2,0,1.2,1,2.2,2.2,2.2h14.6c1.2,0,2.2-1,2.2-2.2,0-1.2-1-2.2-2.2-2.2h-14.6Z"/>
      <path class="st15" d="M150.3,212.9c-1.2,0-2.2,1-2.3,2.2,0,1.2,1,2.2,2.2,2.2h14.6c1.2,0,2.2-1,2.2-2.2,0-1.2-1-2.2-2.2-2.2h-14.6Z"/>
    </g>
    <g>
      <text class="st10" transform="translate(276.3 196.8)"><tspan class="st19" x="0" y="0">Bitcoin</tspan><tspan class="st20" x="297" y="0">Cash</tspan></text>
      <text class="st11" transform="translate(276.3 276)"><tspan x="0" y="0">Ecosystem</tspan></text>
    </g>
  </g>
</svg>