<?xml version="1.0" encoding="UTF-8"?>
<svg id="Layer_1" xmlns="http://www.w3.org/2000/svg" xmlns:xlink="http://www.w3.org/1999/xlink" version="1.1" viewBox="0 0 800 418">
  <!-- Generator: Adobe Illustrator 29.3.1, SVG Export Plug-In . SVG Version: 2.1.0 Build 151)  -->
  <defs>
    <style>
      .st0 {
        mask: url(#mask);
      }

      .st1 {
        fill-rule: evenodd;
      }

      .st1, .st2, .st3 {
        fill: #fff;
      }

      .st4 {
        fill: url(#linear-gradient2);
      }

      .st5 {
        fill: url(#linear-gradient1);
      }

      .st6 {
        fill: url(#linear-gradient3);
      }

      .st7 {
        fill: url(#linear-gradient);
      }

      .st8 {
        fill: #181818;
        stroke: #000;
        stroke-miterlimit: 10;
      }

      .st9, .st2, .st10 {
        isolation: isolate;
      }

      .st11 {
        mask: url(#mask-2);
      }

      .st12 {
        mask: url(#mask-3);
      }

      .st13 {
        mask: url(#mask-1);
      }

      .st14 {
        stroke-width: 20px;
      }

      .st14, .st15, .st16, .st17 {
        fill: none;
        stroke: #fff;
      }

      .st15 {
        stroke-width: 5px;
      }

      .st16 {
        stroke-width: 10px;
      }

      .st2, .st10 {
        font-family: Ubuntu-Bold, Ubuntu;
        font-size: 87.6px;
        font-weight: 700;
      }

      .st17 {
        stroke-width: 2px;
      }

      .st10 {
        fill: #0ac18e;
      }
    </style>
    <linearGradient id="linear-gradient" x1="148.2" y1="219.4" x2="254.5" y2="317.7" gradientTransform="translate(0 418) scale(1 -1)" gradientUnits="userSpaceOnUse">
      <stop offset="0" stop-color="#12b9a3"/>
      <stop offset="1" stop-color="#1aaebe"/>
    </linearGradient>
    <linearGradient id="linear-gradient1" x1="135.5" y1="201.2" x2="29.1" y2="98.8" xlink:href="#linear-gradient"/>
    <linearGradient id="linear-gradient2" x1="147.8" y1="167.3" x2="255.9" y2="131.7" xlink:href="#linear-gradient"/>
    <mask id="mask" x="158" y="259.3" width="87.1" height="53.6" maskUnits="userSpaceOnUse">
      <g id="path-5-inside-1_37_65">
        <path class="st3" d="M233.6,269.3c.9,0,1.6.7,1.5,1.6-.2,3.9-1,7.7-2.5,11.3-1.7,4.1-4.2,7.8-7.3,10.9-3.1,3.1-6.8,5.6-10.9,7.3-4.1,1.7-8.4,2.6-12.9,2.6s-8.8-.9-12.9-2.6c-4.1-1.7-7.8-4.2-10.9-7.3-3.1-3.1-5.6-6.8-7.3-10.9-1.5-3.6-2.3-7.4-2.5-11.3,0-.9.7-1.6,1.5-1.6h64Z"/>
      </g>
    </mask>
    <mask id="mask-1" x="41" y="285" width="35.3" height="37.2" maskUnits="userSpaceOnUse">
      <g id="path-14-inside-2_37_65">
        <path class="st1" d="M72.7,298.1l-15.3-9.5-11.1,17.8,11.8-1.9,3.5,11.4,11.1-17.7Z"/>
      </g>
    </mask>
    <mask id="mask-2" x="87.5" y="285.6" width="35" height="37.1" maskUnits="userSpaceOnUse">
      <g id="path-16-inside-3_37_65">
        <path class="st1" d="M106.6,289.2l-15.5,9.2,10.7,18,3.8-11.4,11.7,2.2-10.6-18Z"/>
      </g>
    </mask>
    <linearGradient id="linear-gradient3" x1="136.7" y1="232.4" x2="30.1" y2="304.7" xlink:href="#linear-gradient"/>
    <mask id="mask-3" x="58" y="117.6" width="49.9" height="68.1" maskUnits="userSpaceOnUse">
      <g id="path-23-inside-4_37_65">
        <path class="st1" d="M61.8,171.4l18.6-50.2h5.1l18.6,50.2c0,.2,0,.3,0,.5.1.3.1.7,0,1l-3.3,9h-35.6l-3.3-9c0-.2-.1-.4,0-.6,0-.3,0-.6,0-.9ZM86.1,165.4c0,1.8-1.3,3.2-2.9,3.2s-2.9-1.4-2.9-3.2,1.1-3,2.5-3.2v-41h.8v41c1.4.2,2.5,1.6,2.5,3.2Z"/>
      </g>
    </mask>
  </defs>
  <rect class="st8" x="-.4" width="800.4" height="418"/>
  <g>
    <g>
      <g class="st9">
        <g class="st9">
          <text class="st2" transform="translate(276.6 200.8)"><tspan x="0" y="0">Bitcoin</tspan></text>
        </g>
        <g class="st9">
          <text class="st10" transform="translate(573.6 200.8)"><tspan x="0" y="0">Cash</tspan></text>
        </g>
      </g>
      <g class="st9">
        <g class="st9">
          <text class="st2" transform="translate(276.6 280)"><tspan x="0" y="0">Resources</tspan></text>
        </g>
      </g>
    </g>
    <g>
      <rect class="st7" x="145.3" y="92.9" width="112.2" height="113.2" rx="20" ry="20"/>
      <rect class="st5" x="26.2" y="211.4" width="112.2" height="113.2" rx="20" ry="20"/>
      <rect class="st4" x="145.8" y="211.9" width="112.2" height="113.2" rx="20" ry="20"/>
      <rect class="st15" x="150.8" y="217.5" width="101.6" height="102.1" rx="17.5" ry="17.5"/>
      <g class="st0">
        <path class="st14" d="M233.6,269.3c.9,0,1.6.7,1.5,1.6-.2,3.9-1,7.7-2.5,11.3-1.7,4.1-4.2,7.8-7.3,10.9-3.1,3.1-6.8,5.6-10.9,7.3-4.1,1.7-8.4,2.6-12.9,2.6s-8.8-.9-12.9-2.6c-4.1-1.7-7.8-4.2-10.9-7.3-3.1-3.1-5.6-6.8-7.3-10.9-1.5-3.6-2.3-7.4-2.5-11.3,0-.9.7-1.6,1.5-1.6h64Z"/>
      </g>
      <path class="st3" d="M169.8,252.6c-.9,0-1.7-.7-1.5-1.6.1-1,.4-2,.8-2.9.6-1.4,1.4-2.8,2.5-3.9,1.1-1.1,2.4-2,3.8-2.6,1.4-.6,3-.9,4.5-.9,1.6,0,3.1.3,4.6.9,1.4.6,2.8,1.4,3.9,2.5,1.1,1.1,2,2.4,2.6,3.8.4.9.7,1.9.8,2.9.1.9-.6,1.6-1.5,1.7-.9,0-1.6-.7-1.8-1.6-.1-.6-.3-1.1-.5-1.6-.4-1-1.1-2-1.9-2.8s-1.8-1.4-2.8-1.8c-1-.4-2.2-.6-3.3-.6-1.1,0-2.2.2-3.3.7-1,.4-2,1.1-2.8,1.9-.8.8-1.4,1.8-1.8,2.8-.2.5-.4,1.1-.5,1.7-.2.9-.9,1.6-1.8,1.7Z"/>
      <path class="st3" d="M211,252.6c-.9,0-1.7-.7-1.5-1.6.1-1,.4-2,.8-2.9.6-1.4,1.4-2.8,2.5-3.9,1.1-1.1,2.4-2,3.8-2.6,1.4-.6,3-.9,4.5-.9,1.6,0,3.1.3,4.6.9,1.4.6,2.8,1.4,3.9,2.5,1.1,1.1,2,2.4,2.6,3.8.4.9.7,1.9.8,2.9.1.9-.6,1.6-1.5,1.7-.9,0-1.6-.7-1.8-1.6-.1-.6-.3-1.1-.5-1.6-.4-1-1.1-2-1.9-2.8s-1.8-1.4-2.8-1.8c-1-.4-2.2-.6-3.3-.6-1.1,0-2.2.2-3.3.7-1,.4-2,1.1-2.8,1.9-.8.8-1.4,1.8-1.8,2.8-.2.5-.4,1.1-.5,1.7-.2.9-.9,1.6-1.8,1.7Z"/>
      <circle class="st16" cx="201.1" cy="149.7" r="34.1"/>
      <circle class="st16" cx="82" cy="265.6" r="34.1"/>
      <rect class="st3" x="195.5" y="136.8" width="11.6" height="34.4"/>
      <rect class="st3" x="189.7" y="136.8" width="17.5" height="5.8"/>
      <rect class="st3" x="189.7" y="165.4" width="21.2" height="5.8"/>
      <circle class="st3" cx="200.5" cy="129.6" r="6.1"/>
      <g class="st13">
        <path class="st3" d="M57.4,288.6l1.4-2.2-2.2-1.4-1.4,2.2,2.2,1.4ZM72.7,298.1l2.2,1.4,1.4-2.2-2.2-1.4-1.4,2.2ZM46.3,306.4l-2.2-1.4-3.1,4.9,5.7-.9-.4-2.6ZM58.1,304.5l2.5-.8-.7-2.2-2.3.4.4,2.6ZM61.6,315.8l-2.5.8,1.7,5.6,3.1-4.9-2.2-1.4ZM56,290.9l15.3,9.5,2.8-4.5-15.3-9.5-2.8,4.5ZM48.6,307.8l11.1-17.8-4.5-2.8-11.1,17.8,4.5,2.8ZM46.7,309l11.8-1.9-.8-5.2-11.8,1.9.8,5.2ZM55.6,305.3l3.5,11.4,5.1-1.5-3.5-11.4-5.1,1.5ZM70.4,296.7l-11.1,17.7,4.5,2.8,11.1-17.7-4.5-2.8Z"/>
      </g>
      <g class="st11">
        <path class="st3" d="M91.1,298.4l-1.3-2.3-2.3,1.3,1.3,2.3,2.3-1.3ZM106.6,289.2l2.3-1.3-1.3-2.3-2.3,1.3,1.3,2.3ZM101.7,316.4l-2.3,1.3,3,5,1.8-5.5-2.5-.8ZM105.5,305l.5-2.6-2.3-.4-.7,2.2,2.5.8ZM117.2,307.2l-.5,2.6,5.7,1.1-3-5-2.3,1.3ZM92.4,300.7l15.5-9.2-2.7-4.6-15.5,9.2,2.7,4.6ZM104,315l-10.7-18-4.6,2.7,10.7,18,4.6-2.7ZM104.3,317.2l3.8-11.4-5-1.7-3.8,11.4,5,1.7ZM105,307.6l11.7,2.2,1-5.2-11.7-2.2-1,5.2ZM104.3,290.6l10.6,18,4.6-2.7-10.6-18-4.6,2.7Z"/>
      </g>
      <rect class="st15" x="48.7" y="257.1" width="66.7" height="16.9"/>
      <path class="st17" d="M82,239.5l1.1,3.4c.1.4.5.7,1,.7h3.6l-2.9,2.1c-.4.3-.5.7-.4,1.2l1.1,3.4-2.9-2.1c-.4-.3-.9-.3-1.2,0l-2.9,2.1,1.1-3.4c.1-.4,0-.9-.4-1.2l-2.9-2.1h3.6c.5,0,.9-.3,1-.7l1.1-3.4Z"/>
      <rect class="st15" x="150.8" y="99" width="101.6" height="102.1" rx="17.5" ry="17.5"/>
      <rect class="st6" x="27.3" y="92.9" width="112.2" height="113.2" rx="20" ry="20"/>
      <path class="st3" d="M49.8,152.9c-.9,0-1.7-.7-1.6-1.6.1-4.5,1-9,2.5-13.3,1.7-4.7,4.2-9.1,7.5-12.7,3.2-3.6,7-6.5,11.3-8.5,4.2-2,8.7-3,13.3-3.1,4.6,0,9.1.9,13.4,2.8s8.1,4.8,11.4,8.3c3.3,3.6,5.9,7.9,7.7,12.6,1.6,4.2,2.5,8.7,2.7,13.2,0,.9-.7,1.7-1.6,1.7h0c-.9,0-1.7-.7-1.7-1.6-.2-4.1-1-8.1-2.5-11.8-1.6-4.3-4-8.1-7-11.4-3-3.2-6.5-5.8-10.3-7.5-3.9-1.7-8-2.6-12.1-2.6-4.2,0-8.3,1-12.1,2.8-3.8,1.8-7.3,4.4-10.2,7.7-2.9,3.3-5.2,7.2-6.7,11.5-1.4,3.8-2.1,7.8-2.3,11.9,0,.9-.8,1.7-1.7,1.7h0Z"/>
      <g class="st12">
        <path class="st3" d="M80.4,121.3v-3.7h-2.6l-.9,2.4,3.5,1.3ZM61.8,171.4l3.5,1.3h0l-3.5-1.3ZM85.5,121.3l3.5-1.3-.9-2.4h-2.6v3.7ZM104,171.4l-3.5,1.3h0l3.5-1.3ZM104.1,171.9l-3.7.2v.5s.2.5.2.5l3.5-1.1ZM104.1,172.9l-3.5-1.3h0l3.5,1.3ZM100.8,181.9v3.7h2.6l.9-2.4-3.5-1.3ZM65.2,181.9l-3.5,1.3.9,2.4h2.6v-3.7ZM61.8,173l-3.5,1.3h0l3.5-1.3ZM61.7,172.4h3.7c0,.1,0-.4,0-.4v-.5c-.1,0-3.7.9-3.7.9ZM82.7,162.2l.6,3.7,3.1-.5v-3.2h-3.7ZM82.7,121.3v-3.7h-3.7v3.7h3.7ZM83.5,121.3h3.7v-3.7h-3.7v3.7ZM83.5,162.2h-3.7v3.2l3.1.5.6-3.7ZM76.9,120l-18.6,50.2,6.9,2.6,18.6-50.1-6.9-2.6ZM85.5,117.6h-5.1v7.4h5.1v-7.4ZM107.5,170.1l-18.6-50.2-6.9,2.6,18.6,50.1,6.9-2.6ZM107.8,171.7c0-.5-.1-1.1-.3-1.6l-6.9,2.6c0-.2-.1-.4-.1-.6l7.4-.3ZM107.6,174.2c.4-1.2.4-2.4,0-3.4l-7.1,2.2c-.1-.4-.1-.9,0-1.4l6.9,2.6ZM104.3,183.2l3.3-9-6.9-2.6-3.3,9,6.9,2.6ZM65.2,185.6h35.6v-7.4h-35.6v7.4ZM58.4,174.2l3.3,9,6.9-2.6-3.3-9-6.9,2.6ZM58,172.2c0,.7,0,1.4.3,2l6.9-2.6c0,.3.1.5.1.8l-7.4-.3ZM58.3,170.1c-.4,1-.4,2.1-.2,3.1l7.2-1.8c.1.4,0,.8,0,1.2l-6.9-2.6ZM83.1,172.3c4,0,6.6-3.4,6.6-6.9h-7.4s0-.1.1-.2c.1-.1.3-.3.7-.3v7.4ZM76.5,165.4c0,3.5,2.7,6.9,6.6,6.9v-7.4c.3,0,.6.2.7.3,0,.1.1.2.1.2h-7.4ZM82.1,158.6c-3.4.5-5.6,3.6-5.6,6.8h7.4s0,.1,0,.2c0,0-.2.2-.5.3l-1.1-7.3ZM86.4,162.2v-41h-7.4v41h7.4ZM82.7,125h.8v-7.4h-.8v7.4ZM79.8,121.3v41h7.4v-41h-7.4ZM89.8,165.4c0-3.2-2.2-6.3-5.6-6.8l-1.1,7.3c-.3,0-.5-.2-.5-.3,0,0,0-.2,0-.2h7.4Z"/>
      </g>
      <rect class="st3" x="46.9" y="149.5" width="5.3" height="5.3"/>
      <rect class="st3" x="79.7" y="110.9" width="6.9" height="7.4"/>
      <rect class="st3" x="47.9" y="110.9" width="71.4" height="1.1"/>
      <rect class="st3" x="114" y="150" width="5.3" height="5.3"/>
      <circle class="st3" cx="48.7" cy="111.1" r="1.3"/>
      <circle class="st3" cx="118.5" cy="111.1" r="1.3"/>
      <rect class="st15" x="32.8" y="98.4" width="101.6" height="102.1" rx="17.5" ry="17.5"/>
      <rect class="st15" x="32.3" y="217.5" width="101.6" height="102.1" rx="17.5" ry="17.5"/>
    </g>
  </g>
</svg>