<?xml version="1.0" encoding="UTF-8"?>
<svg id="Layer_1" xmlns="http://www.w3.org/2000/svg" xmlns:xlink="http://www.w3.org/1999/xlink" version="1.1" viewBox="0 0 800 418">
  <!-- Generator: Adobe Illustrator 29.3.1, SVG Export Plug-In . SVG Version: 2.1.0 Build 151)  -->
  <defs>
    <style>
      .st0 {
        mask: url(#mask);
      }

      .st1 {
        fill-rule: evenodd;
      }

      .st1, .st2, .st3 {
        fill: #fff;
      }

      .st4 {
        fill: url(#linear-gradient2);
      }

      .st5 {
        fill: url(#linear-gradient1);
      }

      .st6 {
        fill: url(#linear-gradient3);
      }

      .st7 {
        fill: url(#linear-gradient);
      }

      .st8 {
        fill: #181818;
        stroke: #000;
        stroke-miterlimit: 10;
      }

      .st9, .st2, .st10 {
        isolation: isolate;
      }

      .st11 {
        mask: url(#mask-2);
      }

      .st12 {
        mask: url(#mask-3);
      }

      .st13 {
        mask: url(#mask-1);
      }

      .st14 {
        stroke-width: 5px;
      }

      .st14, .st15, .st16, .st17 {
        fill: none;
        stroke: #fff;
      }

      .st15 {
        stroke-width: 10px;
      }

      .st16 {
        stroke-width: 3px;
      }

      .st2, .st10 {
        font-family: Ubuntu-Bold, Ubuntu;
        font-size: 87.6px;
        font-weight: 700;
      }

      .st10 {
        fill: #0ac18e;
      }
    </style>
    <linearGradient id="linear-gradient" x1="146.7" y1="216.5" x2="257.8" y2="319.4" gradientTransform="translate(0 418) scale(1 -1)" gradientUnits="userSpaceOnUse">
      <stop offset="0" stop-color="#12b9a3"/>
      <stop offset="1" stop-color="#1aaebe"/>
    </linearGradient>
    <linearGradient id="linear-gradient1" x1="139.6" y1="204.2" x2="28.5" y2="97" xlink:href="#linear-gradient"/>
    <linearGradient id="linear-gradient2" x1="147.1" y1="168.4" x2="258.4" y2="131.7" xlink:href="#linear-gradient"/>
    <mask id="mask" x="164.3" y="263.7" width="76.4" height="43.3" maskUnits="userSpaceOnUse">
      <g id="path-5-inside-1_39_28">
        <path class="st3" d="M232.8,268.7c1.7,0,3,1.3,2.9,3-.3,3.3-1.1,6.6-2.4,9.7-1.7,4-4.1,7.7-7.2,10.8-3.1,3.1-6.8,5.5-10.8,7.2-4,1.7-8.4,2.5-12.8,2.5s-8.7-.9-12.8-2.5c-4-1.7-7.7-4.1-10.8-7.2-3.1-3.1-5.6-6.8-7.2-10.8-1.3-3.1-2.1-6.4-2.4-9.7-.1-1.7,1.2-3,2.9-3h60.7Z"/>
      </g>
    </mask>
    <mask id="mask-1" x="42.3" y="283.7" width="36.3" height="38.3" maskUnits="userSpaceOnUse">
      <g id="path-14-inside-2_39_28">
        <path class="st1" d="M74.5,297.3l-15.1-9.4-11,17.6,11.7-1.9,3.4,11.3,11-17.5Z"/>
      </g>
    </mask>
    <mask id="mask-2" x="88.7" y="284.3" width="36" height="38.2" maskUnits="userSpaceOnUse">
      <g id="path-16-inside-3_39_28">
        <path class="st1" d="M108.2,288.4l-15.4,9.1,10.6,17.8,3.7-11.3,11.6,2.1-10.5-17.8Z"/>
      </g>
    </mask>
    <linearGradient id="linear-gradient3" x1="140.7" y1="230.1" x2="29.5" y2="305.7" xlink:href="#linear-gradient"/>
    <mask id="mask-3" x="60.2" y="118.1" width="49" height="68.1" maskUnits="userSpaceOnUse">
      <g id="path-23-inside-4_39_28">
        <path class="st1" d="M81.9,122.9c.1-.3.2-.5.4-.7h4.8c.2.2.3.5.4.7l17.4,47c.3.9.2,1.9-.3,2.6.5.8.7,1.8.3,2.7l-2.6,7h-35.3l-2.6-7c-.3-.9-.2-1.9.3-2.7-.5-.8-.7-1.8-.3-2.7l17.4-47ZM87.8,165.8c0,1.8-1.3,3.2-2.9,3.2s-2.9-1.4-2.9-3.2,1.1-2.9,2.5-3.1v-40.6h.8v40.6c1.4.2,2.5,1.5,2.5,3.1Z"/>
      </g>
    </mask>
  </defs>
  <rect class="st8" x="-.4" width="800.4" height="418"/>
  <g>
    <g class="st9">
      <g class="st9">
        <g class="st9">
          <text class="st2" transform="translate(276.6 200.8)"><tspan x="0" y="0">Bitcoin</tspan></text>
        </g>
      </g>
      <g class="st9">
        <g class="st9">
          <text class="st10" transform="translate(573.6 200.8)"><tspan x="0" y="0">Cash</tspan></text>
        </g>
      </g>
    </g>
    <g class="st9">
      <g class="st9">
        <g class="st9">
          <text class="st2" transform="translate(276.6 280)"><tspan x="0" y="0">Resources</tspan></text>
        </g>
      </g>
    </g>
  </g>
  <rect class="st7" x="146.5" y="94" width="111.3" height="112.1" rx="20" ry="20"/>
  <rect class="st5" x="28.4" y="211.4" width="111.3" height="112.1" rx="20" ry="20"/>
  <rect class="st4" x="147.1" y="211.9" width="111.3" height="112.1" rx="20" ry="20"/>
  <rect class="st16" x="152.2" y="217.6" width="100.4" height="100.7" rx="18.5" ry="18.5"/>
  <g class="st0">
    <path class="st15" d="M232.8,268.7c1.7,0,3,1.3,2.9,3-.3,3.3-1.1,6.6-2.4,9.7-1.7,4-4.1,7.7-7.2,10.8-3.1,3.1-6.8,5.5-10.8,7.2-4,1.7-8.4,2.5-12.8,2.5s-8.7-.9-12.8-2.5c-4-1.7-7.7-4.1-10.8-7.2-3.1-3.1-5.6-6.8-7.2-10.8-1.3-3.1-2.1-6.4-2.4-9.7-.1-1.7,1.2-3,2.9-3h60.7Z"/>
  </g>
  <path class="st3" d="M170.9,252.1c-.9,0-1.7-.7-1.5-1.6.1-1,.4-2,.8-2.9.6-1.4,1.4-2.7,2.5-3.8,1.1-1.1,2.4-2,3.8-2.6,1.4-.6,3-.9,4.5-.9,1.6,0,3.1.3,4.5.9,1.4.6,2.7,1.4,3.9,2.5,1.1,1.1,2,2.4,2.6,3.8.4.9.7,1.9.8,2.9.1.9-.6,1.6-1.5,1.6h0c-.9,0-1.6-.7-1.8-1.6-.1-.6-.3-1.1-.5-1.6-.4-1-1.1-2-1.9-2.7-.8-.8-1.7-1.4-2.8-1.8-1-.4-2.1-.6-3.3-.6-1.1,0-2.2.2-3.3.7-1,.4-2,1.1-2.8,1.9-.8.8-1.4,1.7-1.8,2.8-.2.5-.4,1.1-.5,1.6-.2.9-.9,1.6-1.8,1.6h0Z"/>
  <path class="st3" d="M211.8,252.1c-.9,0-1.7-.7-1.5-1.6.1-1,.4-2,.8-2.9.6-1.4,1.4-2.7,2.5-3.8s2.4-2,3.8-2.6c1.4-.6,3-.9,4.5-.9,1.6,0,3.1.3,4.5.9,1.4.6,2.7,1.4,3.9,2.5,1.1,1.1,2,2.4,2.6,3.8.4.9.7,1.9.8,2.9.1.9-.6,1.6-1.5,1.6h0c-.9,0-1.6-.7-1.8-1.6-.1-.6-.3-1.1-.5-1.6-.4-1-1.1-2-1.9-2.7-.8-.8-1.7-1.4-2.8-1.8-1-.4-2.1-.6-3.3-.6-1.1,0-2.2.2-3.3.7-1,.4-2,1.1-2.8,1.9-.8.8-1.4,1.7-1.8,2.8-.2.5-.4,1.1-.5,1.6-.2.9-.9,1.6-1.8,1.6h0Z"/>
  <path class="st14" d="M235.9,150.3c0,18.7-15.2,33.9-34,33.9s-34-15.2-34-33.9,15.2-33.9,34-33.9,34,15.2,34,33.9Z"/>
  <path class="st14" d="M117.8,265.1c0,18.7-15.2,33.9-34,33.9s-34-15.2-34-33.9,15.2-33.9,34-33.9,34,15.2,34,33.9Z"/>
  <rect class="st3" x="197" y="137" width="11" height="35"/>
  <rect class="st3" x="190.7" y="136.5" width="17.3" height="5.8"/>
  <rect class="st3" x="190.7" y="166.8" width="21" height="5.8"/>
  <ellipse class="st3" cx="201.4" cy="129.4" rx="6" ry="6"/>
  <g class="st13">
    <path class="st3" d="M59.3,287.9l1.6-2.5-2.5-1.6-1.6,2.5,2.5,1.6ZM74.5,297.3l2.5,1.6,1.6-2.5-2.5-1.6-1.6,2.5ZM48.3,305.4l-2.5-1.6-3.5,5.6,6.5-1-.5-3ZM60.1,303.6l2.9-.9-.8-2.5-2.6.4.5,3ZM63.5,314.8l-2.9.9,1.9,6.3,3.5-5.6-2.5-1.6ZM57.8,290.4l15.1,9.4,3.2-5.1-15.1-9.4-3.2,5.1ZM50.9,307l11-17.6-5.1-3.2-11,17.6,5.1,3.2ZM48.8,308.4l11.7-1.9-.9-5.9-11.7,1.9.9,5.9ZM57.2,304.4l3.4,11.3,5.7-1.8-3.4-11.3-5.7,1.8ZM71.9,295.7l-11,17.5,5.1,3.2,11-17.5-5.1-3.2Z"/>
  </g>
  <g class="st11">
    <path class="st3" d="M92.8,297.5l-1.5-2.6-2.6,1.5,1.5,2.6,2.6-1.5ZM108.2,288.4l2.6-1.5-1.5-2.6-2.6,1.5,1.5,2.6ZM103.4,315.4l-2.6,1.5,3.4,5.7,2.1-6.2-2.9-.9ZM107.1,304.1l.5-2.9-2.6-.5-.8,2.5,2.9.9ZM118.7,306.2l-.5,2.9,6.5,1.2-3.4-5.7-2.6,1.5ZM94.3,300.1l15.4-9.1-3.1-5.2-15.4,9.1,3.1,5.2ZM105.9,313.8l-10.6-17.8-5.2,3,10.6,17.8,5.2-3.1ZM106.2,316.3l3.7-11.3-5.7-1.9-3.7,11.3,5.7,1.9ZM106.6,307l11.6,2.1,1.1-5.9-11.6-2.1-1.1,5.9ZM105.6,290l10.5,17.8,5.2-3.1-10.5-17.8-5.2,3Z"/>
  </g>
  <rect class="st16" x="50.9" y="256.9" width="65.8" height="16.4"/>
  <path class="st17" d="M84.3,240.6l.5,1.6c.2.6.8,1,1.4,1h1.7c.5,0,.7.6.3.9l-1.4,1c-.5.4-.7,1.1-.5,1.7l.5,1.6c.1.5-.4.8-.8.6l-1.4-1c-.5-.4-1.2-.4-1.8,0l-1.4,1c-.4.3-.9,0-.8-.6l.5-1.6c.2-.6,0-1.3-.5-1.7l-1.4-1c-.4-.3-.2-.9.3-.9h1.7c.6,0,1.2-.4,1.4-1l.5-1.6c.1-.5.8-.5,1,0Z"/>
  <rect class="st16" x="152.2" y="100.2" width="100.4" height="100.7" rx="18.5" ry="18.5"/>
  <rect class="st6" x="29.4" y="94" width="111.3" height="112.1" rx="20" ry="20"/>
  <path class="st3" d="M51.8,153.5c-.9,0-1.7-.7-1.6-1.6.1-4.5,1-9,2.5-13.1,1.7-4.7,4.2-9,7.4-12.6,3.2-3.6,7-6.5,11.2-8.5,4.2-2,8.7-3,13.2-3.1s9.1.9,13.3,2.8c4.2,1.9,8.1,4.7,11.3,8.3,3.3,3.6,5.8,7.8,7.6,12.4,1.6,4.2,2.5,8.6,2.7,13.1,0,.9-.7,1.7-1.6,1.7h0c-.9,0-1.6-.7-1.7-1.6-.2-4-1-8-2.5-11.7-1.6-4.2-4-8-6.9-11.3-2.9-3.2-6.4-5.8-10.2-7.5-3.8-1.7-7.9-2.6-12-2.5-4.1,0-8.2,1-12,2.8-3.8,1.8-7.2,4.4-10.1,7.7-2.9,3.3-5.2,7.1-6.7,11.4-1.4,3.7-2.1,7.7-2.2,11.7,0,.9-.8,1.7-1.7,1.7h0Z"/>
  <g class="st12">
    <path class="st3" d="M82.3,122.1v-4h-2l-1.2,1.7,3.2,2.3ZM81.9,122.9l3.8,1.4h0l-3.8-1.4ZM87.1,122.1l3.2-2.3-1.2-1.7h-2v4ZM87.5,122.9l3.8-1.4h0l-3.8,1.4ZM104.9,169.9l3.8-1.4h0l-3.8,1.4ZM104.7,172.5l-3.4-2.1-1.4,2.2,1.5,2.1,3.3-2.3ZM105,175.2l-3.8-1.4h0l3.8,1.4ZM102.4,182.2v4h2.8l1-2.6-3.8-1.4ZM67.1,182.2l-3.7,1.4,1,2.6h2.8v-4ZM64.5,175.2l3.7-1.4-3.7,1.4ZM64.8,172.6l3.4,2.1,1.4-2.2-1.5-2.2-3.3,2.2ZM64.4,169.9l3.8,1.4h0l-3.8-1.4ZM84.5,162.7l.6,4,3.4-.5v-3.4h-4ZM84.5,122.1v-4h-4v4h4ZM85.3,122.1h4v-4h-4v4ZM85.3,162.7h-4v3.4l3.4.5.6-4ZM79,119.8c-.4.5-.7,1.1-.9,1.7l7.5,2.8c0,0,0,.1-.1.2l-6.5-4.7ZM87.1,118.1h-4.8v8h4.8v-8ZM91.2,121.5c-.2-.6-.5-1.2-.9-1.7l-6.5,4.7c0,0,0-.2-.1-.2l7.5-2.8ZM108.7,168.5l-17.4-47-7.5,2.8,17.4,47,7.5-2.8ZM108.1,174.6c1.1-1.7,1.4-4,.6-6.1l-7.5,2.8c-.1-.3,0-.6,0-.9l6.8,4.2ZM108.7,176.6c.8-2.3.4-4.6-.8-6.4l-6.6,4.5c-.2-.2-.2-.6-.1-.9l7.5,2.8ZM106.2,183.6l2.6-7-7.5-2.8-2.6,7,7.5,2.8ZM67.1,186.2h35.3v-8h-35.3v8ZM60.7,176.6l2.6,7,7.5-2.8-2.6-7-7.5,2.8ZM61.4,170.4c-1.1,1.7-1.5,4-.7,6.2l7.5-2.8c.1.3,0,.6,0,.9l-6.8-4.3ZM60.7,168.5c-.8,2.2-.4,4.6.8,6.4l6.6-4.5c.2.2.2.6.1.9l-7.5-2.8ZM78.1,121.5l-17.4,47,7.5,2.8,17.4-47-7.5-2.8ZM84.9,173c4.1,0,6.9-3.6,6.9-7.2h-8c0-.1,0-.3.2-.5.2-.2.5-.4.9-.4v8ZM78,165.8c0,3.6,2.8,7.2,6.9,7.2v-8c.4,0,.7.2.9.4.2.2.2.3.2.5h-8ZM83.8,158.7c-3.6.6-5.9,3.8-5.9,7.1h8c0,.1,0,.3-.2.4-.1.2-.4.3-.7.4l-1.2-7.9ZM88.5,162.7v-40.6h-8v40.6h8ZM84.5,126.1h.8v-8h-.8v8ZM81.3,122.1v40.6h8v-40.6h-8ZM91.8,165.8c0-3.3-2.3-6.5-5.9-7.1l-1.2,7.9c-.4,0-.6-.2-.7-.4-.1-.2-.2-.3-.2-.4h8Z"/>
  </g>
  <rect class="st3" x="48.9" y="150.1" width="5.3" height="5.2"/>
  <rect class="st3" x="81.4" y="111.8" width="6.8" height="7.3"/>
  <rect class="st3" x="49.9" y="111.8" width="70.9" height="1"/>
  <rect class="st3" x="115.6" y="150.6" width="5.3" height="5.2"/>
  <circle class="st3" cx="50.7" cy="112.1" r="1.3"/>
  <circle class="st3" cx="120" cy="112.1" r="1.3"/>
  <rect class="st16" x="35.1" y="99.7" width="100.4" height="100.7" rx="18.5" ry="18.5"/>
  <rect class="st16" x="34.6" y="217.6" width="100.4" height="100.7" rx="18.5" ry="18.5"/>
</svg>