<?xml version="1.0" encoding="UTF-8"?>
<svg id="Layer_1" xmlns="http://www.w3.org/2000/svg" version="1.1" viewBox="0 0 34.8 24.1">
  <!-- Generator: Adobe Illustrator 29.1.0, SVG Export Plug-In . SVG Version: 2.1.0 Build 142)  -->
  <defs>
    <style>
      .st0, .st1 {
        fill: #12b76a;
      }

      .st1 {
        fill-rule: evenodd;
      }
    </style>
  </defs>
  <path class="st0" d="M24.2,12.1c0,6.7-5.4,12.1-12.1,12.1S0,18.7,0,12.1,5.4,0,12.1,0s12.1,5.4,12.1,12.1Z"/>
  <path class="st1" d="M19.2,23.6c3.9-2.4,6.5-6.7,6.5-11.6S23.1,2.9,19.2.5c1.1-.3,2.3-.5,3.5-.5,6.7,0,12.1,5.4,12.1,12.1s-5.4,12.1-12.1,12.1-2.4-.2-3.5-.5ZM17.4,22.9c4-2,6.8-6.1,6.8-10.8s-2.8-8.9-6.8-10.8c-4,2-6.8,6.1-6.8,10.8s2.8,8.9,6.8,10.8Z"/>
</svg>