<?xml version="1.0" encoding="UTF-8"?><svg id="a" xmlns="http://www.w3.org/2000/svg" xmlns:xlink="http://www.w3.org/1999/xlink" viewBox="0 0 1806.66 1932.6"><defs><style>.ak{fill:none;}.al{fill:url(#l);}.am{fill:url(#r);}.an{fill:url(#x);}.ao{fill:url(#ad);}.ap{fill:#fff;}.aq{clip-path:url(#d);}.ar{clip-path:url(#ag);}</style><clipPath id="d"><rect class="ak" x="-430" y="-364.55" width="2666.67" height="2666.67"/></clipPath><linearGradient id="l" x1="390.47" y1="1480.48" x2="391.47" y2="1480.48" gradientTransform="translate(-2971931.16 1983819.34) rotate(42.24) scale(2184.54 -2341.49) skewX(.25)" gradientUnits="userSpaceOnUse"><stop offset="0" stop-color="#ab2292"/><stop offset="1" stop-color="#170c66"/></linearGradient><linearGradient id="r" x1="390.59" y1="1480.09" x2="391.59" y2="1480.09" gradientTransform="translate(-3262989.58 -517767.12) rotate(88.07) scale(2181.84 -2192.08) skewX(-3.98)" gradientUnits="userSpaceOnUse"><stop offset="0" stop-color="#ffe200"/><stop offset=".45" stop-color="#ff9200"/><stop offset=".57" stop-color="#ff9200"/><stop offset="1" stop-color="#ff0093"/></linearGradient><linearGradient id="x" x1="390.37" y1="1479.85" x2="391.37" y2="1479.85" gradientTransform="translate(-2027613.75 -404312.73) rotate(90.28) scale(1372.83 -1371.9) skewX(-3.98)" gradientUnits="userSpaceOnUse"><stop offset="0" stop-color="#00e251"/><stop offset="1" stop-color="#00ace4"/></linearGradient><linearGradient id="ad" x1="390.37" y1="1479.85" x2="391.37" y2="1479.85" gradientTransform="translate(-2027194.93 -404339.81) rotate(90.28) scale(1372.83 -1371.9) skewX(-3.98)" gradientUnits="userSpaceOnUse"><stop offset="0" stop-color="#00e251"/><stop offset="1" stop-color="#00ace4"/></linearGradient><clipPath id="ag"><rect class="ak" x="-430" y="-364.55" width="2666.67" height="2666.67"/></clipPath></defs><g id="b"><g id="c"><g class="aq"><g id="e"><g id="f"><path id="g" class="ap" d="M1770.22,57.19c-14.29,1.13-28.59,2.25-42.88,3.37-38.99,3.07-77.98,6.14-116.97,9.2-57.86,4.55-115.71,9.1-173.57,13.66-70.6,5.55-141.2,11.11-211.8,16.67-78.07,6.14-156.15,12.29-234.22,18.43-79.47,6.25-158.93,12.51-238.39,18.76-74.75,5.88-149.5,11.76-224.25,17.65-64.8,5.1-129.6,10.2-194.4,15.3l-146.15,11.5c-26.8,2.11-53.6,4.22-80.4,6.33-5.55.44-11.54.5-16.95,1.82-21.03,5.12-29.59,24.22-29.59,43.8v1285.72c0,21.51,13.67,39.4,36.8,38.55,22.43-.82,44.91-3.12,67.31-4.68,38.56-2.68,77.11-5.36,115.67-8.04,21.87-1.52,43.88-3.92,65.8-4.57,28.31-.85,23.33,30.32,23.33,49.15v295.93c0,5.93-.41,12.12.76,17.96,4.4,22.09,29.27,32.84,49.17,23.72,11.71-5.37,20.96-18.14,29.58-27.35,17.43-18.65,34.87-37.29,52.3-55.93,51.72-55.31,103.44-110.63,155.15-165.94,43.5-46.53,87.01-93.06,130.51-139.58,7.14-7.64,14.03-15.65,21.49-22.98,9.15-8.99,20.17-8.56,31.88-9.57,42.23-3.62,84.46-7.24,126.69-10.86,69.44-5.95,138.88-11.91,208.31-17.86,79.05-6.78,158.09-13.55,237.13-20.33,70.23-6.02,140.45-12.04,210.68-18.06,43.21-3.71,86.42-7.41,129.63-11.11,7.88-.68,16.52-.63,24.25-2.51,21.01-5.11,29.59-24.22,29.59-43.8V96.51c0-21.52-12.89-39.95-36.43-39.32-8.56.23-8.6,13.57,0,13.33,13.59-.37,22.91,8.8,23.1,22.29.04,2.59,0,5.18,0,7.76v1283.02c0,14.96-8.15,27.68-24.31,29.49-9.18,1.03-18.43,1.58-27.63,2.37-47.43,4.07-94.87,8.13-142.3,12.2-71.81,6.16-143.62,12.31-215.43,18.47l-233.98,20.06c-66.85,5.73-133.69,11.46-200.54,17.19-38.19,3.27-76.39,6.55-114.58,9.82-13.39,1.15-25.38,2.81-35.68,13.18-8.54,8.59-16.58,17.73-24.85,26.58-43.97,47.03-87.95,94.06-131.92,141.09-51.06,54.61-102.12,109.22-153.17,163.82-16.81,17.98-33.62,35.95-50.43,53.93-8.74,9.35-19.51,25.01-33.31,25.63-27.16,1.2-22.31-31.07-22.31-48.7v-295.03c0-4.84.27-9.78-.11-14.61-1.53-19.73-18.36-32.78-37.61-31.72-24.1,1.33-48.19,3.35-72.27,5.02-37.96,2.64-75.92,5.28-113.87,7.92-20.57,1.43-41.28,3.7-61.89,4.3-13.7.4-22.67-8.7-23.15-22.09-.09-2.47,0-4.97,0-7.44V232.05c0-14.71,7.42-28.04,23.67-29.91,5.2-.6,10.47-.82,15.69-1.23l88.56-6.97c50.25-3.95,100.51-7.91,150.76-11.86,65.63-5.16,131.26-10.33,196.89-15.49,74.85-5.89,149.7-11.78,224.55-17.67,78.66-6.19,157.32-12.38,235.99-18.57,77.13-6.07,154.26-12.14,231.39-18.21l208.05-16.37c56.25-4.43,112.49-8.85,168.73-13.28,37.61-2.96,75.21-5.92,112.82-8.88,13.05-1.03,26.09-2.05,39.14-3.08,8.5-.67,8.57-14.01,0-13.33"/></g></g></g></g><g id="h"><g id="i"><g id="j"><g id="k"><path id="m" class="al" d="M1705.76,7.53L29.77,130.48c-16.44,1.14-29.77,15.4-29.77,31.84h0v1296.25c0,16.44,13.33,28.84,29.77,27.7h0l249.36-17.33c16.44-1.14,29.77,11.26,29.77,27.7h0v334.66c0,26.52,32.07,37.57,50.82,17.52h0l376.77-402.96c5.58-5.97,13.15-9.63,21.05-10.18h0l948.23-72.36c16.44-1.14,29.77-15.4,29.77-31.84h0V35.23c0-15.74-12.21-27.77-27.67-27.77h0c-.69,0-1.39.02-2.1.07"/></g></g></g></g><g id="n"><g id="o"><g id="p"><g id="q"><path id="s" class="am" d="M868.72,185.7c-54.47,1.77-111.35,12.51-163.79,30.95h0c-50.41,17.73-100.65,44.09-144.55,75.85h0c-43.49,31.47-83.19,70.3-117.64,112.82h0c-17.65,21.79-33.96,46.12-48.2,70.83h0c-14.52,25.18-27.27,51.78-37.18,78.18h0c-19.61,52.27-32.47,106.9-36.44,160.65h0c-4.05,54.87.82,111.79,13.75,164.04h0c12.42,50.19,33.65,99.84,60.87,142.96h0c26.9,42.61,61.79,82.31,100.61,114.22h0c38.8,31.89,83.89,57.74,131.6,77.17h0c24.88,10.13,51.95,18.09,79.08,23.77h0c27.95,5.85,57.03,9.44,85.27,10.15h0c55.57,1.41,112-4.65,165.73-19.39h0c51.67-14.18,103.62-37.33,149.73-66.24h0c45.43-28.48,88.72-65.03,124.69-105.14h0c35.87-40,67.49-86.71,90.7-134.71h0c23.74-49.1,40.08-102.36,49.37-156.17h0c4.73-27.37,6.96-56.01,7.09-84.09h0c.01-.58.02-1.17,0-1.76h0c0-.54-.01-1.08-.03-1.62h0c-1.23-54.66-8.83-108.81-25.27-158.75h0c-16-48.62-40.65-94.97-70.62-136.88h0c-15.33-21.45-33.7-42.06-53.01-60.74h0c-19.37-18.75-40.63-36.03-62.65-50.66h0c-42.81-28.43-89.91-51.32-138.92-65.67h0c-45.44-13.31-94.85-20.06-143.39-20.06h0c-5.61,0-11.2.09-16.79.27M909.51,266.7c40.31,4.71,75.93,11.93,114.51,23.22h0c36.01,14.86,67.27,30.95,100.1,51.5h0c30.18,23.7,55.65,47.39,81.44,75.78h0c22.84,31.25,41.1,61.24,58.47,96.05h0c14.35,38.63,24.19,74.46,31.78,115.61h0c2.15,18.69,3.24,37.56,3.26,56.53h0c-.03,18.97-1.11,37.99-3.26,56.98h0c-7.59,42.21-17.43,79.4-31.78,120.03h0c-17.37,37.23-35.63,69.75-58.47,104.18h0c-25.79,31.97-51.26,59.21-81.43,87.1h0c-32.84,25.13-64.09,45.56-100.11,65.43h0c-38.58,16.65-74.2,28.83-114.51,39.14h0c-41.38,6.25-78.78,8.85-120.16,8.35h0c-40.31-4.71-75.93-11.93-114.51-23.21h0c-36.01-14.86-67.27-30.95-100.11-51.51h0c-30.18-23.7-55.65-47.39-81.44-75.78h0c-22.84-31.25-41.1-61.22-58.46-96.03h0c-13.97-37.61-23.67-72.57-31.18-112.36h0c-3.37-41.14-3.37-78.54,0-120.14h0c7.51-40.84,17.21-77.14,31.18-116.7h0c17.36-37.21,35.62-69.74,58.46-104.15h0c25.8-31.98,51.27-59.22,81.45-87.11h0c32.83-25.12,64.08-45.55,100.1-65.42h0c38.58-16.65,74.2-28.82,114.51-39.14h0c41.38-6.25,78.78-8.85,120.17-8.35"/></g></g></g></g><g id="t"><g id="u"><g id="v"><g id="w"><path id="y" class="an" d="M741.48,377.29c-56.94,21.06-109.46,58.54-151.35,103.05h0c-41.9,44.52-71.97,101.12-89.35,158.34h0c-18.36,60.45-18.63,127.06-5.08,185.32h0c12.99,55.9,41.7,110.17,81.2,151.6h0c39.36,41.27,90.7,73.28,145.77,90.17h0c6.17,1.89,12.48,3.71,18.81,5.28h0c9.7,2.41,22.29-.53,30.95-6.2h0c8.33-5.46,16.28-15.56,18.46-25.29h0c4.99-22.26-6.6-42.14-28.05-47.46h0c-7.92-1.96-15.73-4.23-23.43-6.78h0c-22.3-8.33-43.41-19.21-62.97-32.43h0c-18.91-13.83-36.1-29.81-51.24-47.67h0c-14.57-18.53-26.91-38.77-36.79-60.37h0c-9.29-22.51-15.88-46.18-19.66-70.58h0c-2.93-25.1-2.93-50.67,0-76.17h0c3.78-24.92,10.37-49.52,19.66-73.32h0c9.88-22.97,22.22-44.92,36.78-65.47h0c15.14-19.96,32.32-38.34,51.23-54.79h0c19.56-15.94,40.68-29.76,62.99-41.2h0c7.7-3.63,15.51-6.98,23.43-10.04h0c9.87-3.82,18.7-10.7,24-20.13h0c5.04-8.96,7.17-21.8,4.05-31.23h0c-3.15-9.5-9.17-18.46-18.46-22.72h0c-5.63-2.58-11.94-4.2-18.34-4.2h0c-4.23,0-8.49.71-12.61,2.3"/></g></g></g></g><g id="z"><g id="aa"><g id="ab"><g id="ac"><path id="ae" class="ao" d="M926.42,368.48c-8.33,5.45-16.28,15.56-18.46,25.29h0c-4.99,22.26,6.6,42.14,28.05,47.46h0c7.92,1.96,15.74,4.23,23.44,6.79h0c22.3,8.33,43.42,19.22,62.98,32.44h0c18.91,13.83,36.09,29.82,51.23,47.68h0c14.57,18.53,26.91,38.78,36.79,60.38h0c9.28,22.49,15.87,46.16,19.64,70.54h0c2.94,25.11,2.94,50.69,0,76.21h0c-3.77,24.91-10.36,49.49-19.64,73.28h0c-9.88,22.97-22.22,44.93-36.78,65.48h0c-15.14,19.97-32.32,38.34-51.23,54.8h0c-19.57,15.94-40.69,29.77-63,41.21h0c-7.7,3.63-15.51,6.97-23.42,10.03h0c-9.87,3.82-18.7,10.7-24,20.13h0c-5.04,8.96-7.17,21.8-4.05,31.23h0c3.15,9.5,9.17,18.46,18.46,22.72h0c9.35,4.29,20.57,5.91,30.95,1.9h0c56.05-22.4,110.42-57.21,151.35-103.05h0c40.43-45.28,73.48-100.33,89.35-158.34h0c16.56-60.52,18.67-126.73,5.08-185.33h0c-12.99-56.04-43.33-109.41-81.2-151.59h0c-38.21-42.56-91.28-72.65-145.77-90.17h0c-6.16-1.98-12.48-3.71-18.81-5.27h0c-2.32-.57-4.8-.84-7.36-.84h0c-8.14,0-17,2.73-23.59,7.05M964.57,967.55h0"/></g></g></g></g><g id="af"><g class="ar"><g id="ah"><g id="ai"><path id="aj" class="ap" d="M891.62,807.6l-54.79,3.81c-4.91.34-8.9-3.37-8.9-8.28v-55.73c0-4.91,3.98-9.17,8.9-9.51l59.95-4.17c17.79-1.24,30.91.74,39.33,5.93,8.43,5.19,12.65,14.03,12.65,26.52,0,24.98-19.05,38.79-57.13,41.43M827.93,618.62c0-4.91,3.98-9.17,8.9-9.51l45.43-3.16c10.92-.76,20.44,1.47,28.57,6.68,8.12,5.22,12.17,14.37,12.17,27.48s-4.68,23.9-14.05,30.48c-9.37,6.59-22.95,10.49-40.74,11.73l-31.38,2.18c-4.91.34-8.9-3.36-8.9-8.28v-57.61ZM975.85,697.94c-5.91-2.11-7.08-9.98-2.25-14.56,16.84-15.99,25.26-35.45,25.26-58.38,0-25.91-9.6-46.16-28.8-60.75-8.86-6.73-19.59-11.62-32.15-14.7-3.67-.9-6.15-4.16-6.15-8.01v-34.86c0-4.91-3.98-8.62-8.89-8.28l-35.58,2.47c-4.91.34-8.89,4.6-8.89,9.51v27.46c0,4.91-3.98,9.17-8.9,9.51l-35.58,2.47c-4.91.34-8.89-3.36-8.89-8.28v-27.46c0-4.91-3.98-8.62-8.9-8.28l-35.58,2.47c-4.91.34-8.89,4.6-8.89,9.51v27.46c0,4.91-3.98,9.17-8.9,9.51l-52.85,3.67c-4.91.34-8.89,4.6-8.89,9.51v41.69c0,4.91,3.98,8.62,8.89,8.28l34.66-2.41c4.91-.34,8.89,3.36,8.89,8.28v184.51c0,4.91-3.98,9.17-8.89,9.51l-34.66,2.41c-4.91.34-8.89,4.6-8.89,9.51v41.69c0,4.91,3.98,8.62,8.89,8.28l52.85-3.67c4.91-.34,8.9,3.36,8.9,8.28v27.67c0,4.91,3.98,8.62,8.89,8.28l35.58-2.47c4.91-.34,8.9-4.6,8.9-9.51v-27.67c0-4.91,3.98-9.17,8.89-9.51l35.58-2.47c4.91-.34,8.9,3.36,8.9,8.28v27.67c0,4.91,3.98,8.62,8.89,8.28l35.58-2.47c4.91-.34,8.89-4.6,8.89-9.51v-31.15c0-4.29,3.08-8.22,7.31-9.24,21.46-5.21,39.05-13.28,52.77-24.23,21.85-17.44,32.78-40.52,32.78-69.24,0-34.42-16.26-57.43-48.76-69.03"/></g></g></g></g></g></svg>