<?xml version="1.0" encoding="UTF-8"?>
<svg id="BB_ART" xmlns="http://www.w3.org/2000/svg" version="1.1" viewBox="0 0 125.2 146.6">
  <!-- Generator: Adobe Illustrator 29.3.1, SVG Export Plug-In . SVG Version: 2.1.0 Build 151)  -->
  <defs>
    <style>
      .st0 {
        fill: #ff005c;
      }
    </style>
  </defs>
  <path class="st0" d="M122.6,90.9c-1.6-4.1-4-8.1-7.1-11.8-3.2-3.6-6.9-6.7-10.8-9.1-3.4-2.1-7.4-3.8-11.6-5.1-.1,0-.2-.1-.2-.2v-.2c0,0,0,0,0,0-4-11.4-13.4-20.8-25.8-25.7,0,0-.1,0-.2-.1l-1.6-.6c-.2,0-.3-.1-.4-.1l-1.5-.4c-8.5-2.7-17.6-3.1-26.4-1.4-.1,0-.2,0-.3,0,0,0-.1-.2-.1-.3V0H0v77.1c0,4.5.8,9,2.5,13.8,1.6,4.1,4,8.1,7.1,11.8,3.2,3.6,6.8,6.7,10.8,9.1,3.5,2.1,7.4,3.8,11.6,5.1,0,0,.2.1.2.2h0s0,0,0,.1c1.4,3.9,3.4,7.6,5.8,10.8,3,3.9,6.4,7.2,10.4,9.9,4.2,2.8,8.7,5,13.5,6.5,5.2,1.5,10.4,2.3,15.6,2.3s12.6-1.1,18.3-3.3c5.6-2,10.6-5,15.1-8.9,4.3-3.8,7.8-8.2,10.2-13.4,2.5-5.3,3.8-10.8,3.8-16.5s-.9-9.2-2.6-13.7h0ZM30.4,109.6c0,0-.2,0-.2,0s0,0-.1,0c-2.3-.9-4.4-2-6.4-3.2-3.6-2.3-6.7-4.9-9.3-7.9-2.7-3.1-4.7-6.5-6.1-10-1.4-3.7-2.2-7.6-2.2-11.5V6.5c0-.2.2-.4.4-.4h23.5c.2,0,.4.2.4.4v31c0,.1,0,.2,0,.3v66.8c0,1.4.1,3,.3,4.7,0,.1,0,.3-.2.4h0ZM66.7,45.9c0-.1,0-.3.2-.3s.2,0,.4,0c7.9,3.8,14.3,9.7,17.9,16.9,0,.1,0,.3,0,.4,0,.1-.2.2-.4.2-2.5-.3-4.9-.5-7-.5-3.6,0-7.2.4-10.6,1h0c0,0-.2,0-.2,0,0,0-.1-.2-.1-.3v-17.2h0ZM36.2,42.7c0-.2.1-.3.3-.4,3.4-.8,7-1.2,10.8-1.2s8.8.6,12.9,1.8c.2,0,.3.2.3.4v23c0,.2,0,.3-.2.4,0,0,0,0-.1,0-.1,0-.2,0-.3-.1-3.2-3.4-7.8-5.4-12.6-5.4s-7.4,1.2-10.4,3.4c-.1,0-.3.1-.4,0-.1,0-.2-.2-.2-.4v-21.6h0ZM58.1,77.1c0,5.5-4.9,10-10.8,10s-10.8-4.5-10.8-10,4.9-10,10.8-10,10.8,4.5,10.8,10ZM37.3,111.9c-.2,0-.3-.1-.3-.3-.5-2.4-.8-4.7-.8-7v-14.7c0-.1,0-.3.2-.4s.3,0,.4,0c3,2.3,6.6,3.4,10.4,3.4,9.2,0,16.8-7.1,16.8-15.9s-.4-3.8-1.1-5.7c0-.1,0-.2,0-.3,0-.1.1-.2.2-.2l1.2-.4c4.4-1.3,8.8-1.9,13.3-1.9s6.4.3,10,1c.1,0,.3.1.3.3.5,2.4.8,4.8.8,7,0,4.7-.9,9.2-2.9,13.5,0,.2-.3.3-.5.2-2.1-1-4.5-1.5-6.9-1.5-8.9,0-16.2,7-16.2,15.7s.3,3.3.8,5c0,.1,0,.2,0,.3,0,0-.1.2-.2.2h-.5c-4.8,1.8-9.9,2.6-15.1,2.6s-6.5-.3-10-1h0ZM88.9,104.9c0,5.5-4.7,10-10.4,10s-4.3-.6-6.1-1.9h0c-.1-.2-.3-.3-.4-.4-1.4-1.1-2.5-2.6-3.2-4.3h0c0-.3-.1-.4-.1-.5-.3-.9-.4-1.9-.4-2.9,0-5.5,4.7-10,10.4-10s2.8.3,4.1.8c.1,0,.3.1.4.2h.1c1.6.8,3,2,4,3.4,0,.1.2.2.2.4v.2c1.1,1.5,1.6,3.3,1.6,5.1h0ZM115.8,118.5c-2,4.2-5,8.1-8.8,11.4-3.9,3.4-8.3,6.1-13.2,7.8-5.1,1.9-10.5,2.8-15.9,2.8s-9.4-.7-14.1-2.1c-4.3-1.3-8.3-3.2-11.8-5.7-3.7-2.5-6.6-5.3-9-8.6-1.2-1.5-2.2-3.2-3.2-5.2,0-.1,0-.3,0-.4s.2-.2.4-.2c2.5.4,4.9.5,7.1.5,6.4,0,12.6-1.1,18.5-3.4l.5-.2c.1,0,.3,0,.4,0,3,3.1,7.3,4.9,11.7,4.9,8.9,0,16.2-7,16.2-15.7s-1.4-7.3-3.9-10.1c-.1-.1-.1-.3,0-.4h0c0-.2,0-.3.2-.5h0c2.5-5.4,3.8-10.9,3.8-16.6,0-1.5,0-3.1-.2-4.7,0-.1,0-.3.1-.4s.2-.1.4,0c2.4.9,4.4,2,6.4,3.1,3.6,2.3,6.7,4.9,9.3,7.9,2.7,3.1,4.7,6.5,6.1,10,1.4,3.7,2.1,7.6,2.1,11.5s-1.1,9.5-3.2,13.8h0Z"/>
</svg>