<?xml version="1.0" encoding="UTF-8"?>
<svg id="logotype" xmlns="http://www.w3.org/2000/svg" version="1.1" viewBox="0 0 89.5 105.5">
  <!-- Generator: Adobe Illustrator 29.3.1, SVG Export Plug-In . SVG Version: 2.1.0 Build 151)  -->
  <defs>
    <style>
      .st0 {
        fill: #555;
      }

      .st0, .st1 {
        fill-rule: evenodd;
      }

      .st1 {
        fill: #49bb7f;
      }
    </style>
  </defs>
  <path class="st0" d="M0,64C0,41.2,18.6,22.7,41.5,22.7c22.9,0,41.3,18.6,41.3,41.5,0,22.9-18.6,41.3-41.5,41.3-.1,0-.2,0-.4,0C18.2,105.3,0,86.7,0,64ZM72.7,64.4c.1-17.3-13.8-31.4-31.1-31.6s-31.4,13.8-31.6,31.1c-.1,17.3,13.8,31.4,31.1,31.6,0,0,0,0,0,0,17.3,0,31.4-13.8,31.6-31.1h0Z"/>
  <path id="Rectangle_1_copy" class="st1" d="M78.1,37c-7.2-9.8-18-16.3-30.1-17.9L59.4,0l30.1,17.8-11.4,19.2Z"/>
  <path id="B" class="st0" d="M50.9,63.9c2.3-1.2,3.8-3.6,3.7-6.2,0-2.1-1-4.1-2.7-5.3-1.8-1.3-4.5-2-7.9-2h-13.7v28.1h14.5c3.7,0,6.4-.7,8.4-2,1.9-1.3,3-3.4,2.9-5.7,0-1.6-.4-3.1-1.4-4.4-1-1.2-2.3-2.1-3.8-2.5h0ZM43.2,55.3c1.3,0,2.5.2,3.6.8.8.5,1.3,1.5,1.2,2.5,0,1-.4,1.9-1.2,2.5-1.1.6-2.4.9-3.6.8h-6.5v-6.6h6.5ZM44.4,73.6h-7.6v-6.9h7.6c3.4,0,5.2,1.2,5.2,3.5,0,1-.4,2-1.3,2.6-1.2.6-2.5.9-3.9.8h0Z"/>
</svg>