<?xml version="1.0" encoding="UTF-8" standalone="no"?>
<!-- Created with Inkscape (http://www.inkscape.org/) -->

<svg
   width="457.10898mm"
   height="289.64346mm"
   viewBox="0 0 457.10898 289.64346"
   version="1.1"
   id="svg1"
   xmlns="http://www.w3.org/2000/svg"
   xmlns:svg="http://www.w3.org/2000/svg">
  <defs
     id="defs1" />
  <g
     id="layer1"
     transform="translate(237.86042,38.364584)">
    <g
       id="g2"
       transform="matrix(0.26458333,0,0,0.26458333,-282.61599,-158.01644)"
       style="clip-rule:evenodd;fill-rule:evenodd;image-rendering:optimizeQuality;shape-rendering:geometricPrecision;text-rendering:geometricPrecision;fill:#000000;fill-opacity:1">
      <path
         style="opacity:0.987;fill:#000000;fill-opacity:1"
         fill="#fefffe"
         d="m 1463.5,536.5 c 8.85,5.33 17.35,11.33 25.5,18 8.64,5.383 17.14,11.716 25.5,19 7,5.182 13.66,10.849 20,17 4.45,3.411 8.78,7.078 13,11 7.66,7.98 14.99,15.647 22,23 5.73,5.728 11.07,11.728 16,18 6.01,6.679 11.67,13.679 17,21 35.19,44.94 63.02,95.273 83.5,151 3,11.165 6.5,22.165 10.5,33 21.66,0.833 43.33,1.333 65,1.5 42.84,5.939 77,24.439 102.5,55.5 35.54,48.479 42.21,100.81 20,157 -23.96,50.84 -64.46,80.34 -121.5,88.5 -22.22,0.98 -44.39,1.81 -66.5,2.5 -22.05,76.46 -58.88,144.46 -110.5,204 -4.6,5.94 -9.6,11.6 -15,17 -0.67,0 -1,0.33 -1,1 -12.36,12.03 -24.69,24.03 -37,36 -88.39,77.16 -191.39,122.33 -309,135.5 -26.67,0.67 -53.33,0.67 -80,0 -20.98,-5.15 -39.32,-14.99 -55,-29.5 -33.12,-33.45 -43.62,-73.12 -31.5,-119 9.79,-29.48 27.95,-51.98 54.5,-67.5 14.81,-8.7 30.81,-13.37 48,-14 96.95,-0.48 177.78,-34.98 242.5,-103.5 71.49,-81.93 96.49,-176.59 75,-284 -28.4,-107.08 -93.9,-181.913 -196.5,-224.5 -45.03,-15.291 -91.37,-22.958 -139,-23 -42,-11.88 -70.17,-38.38 -84.5,-79.5 -13.07,-53.793 2.26,-97.46 46,-131 12.93,-7.878 26.76,-13.711 41.5,-17.5 115.47,-5.894 221.81,21.939 319,83.5 z"
         id="path1" />
    </g>
    <g
       id="g3"
       transform="matrix(0.26458333,0,0,0.26458333,-264.95876,-158.01644)"
       style="clip-rule:evenodd;fill-rule:evenodd;image-rendering:optimizeQuality;shape-rendering:geometricPrecision;text-rendering:geometricPrecision">
      <path
         style="opacity:1"
         fill="#30e483"
         d="m 576.5,809.5 c -54.354,74.099 -73.854,156.765 -58.5,248 7.62,38.89 21.62,75.22 42,109 6.522,9.07 13.022,18.07 19.5,27 5.03,6.02 10.03,12.02 15,18 6.707,7.71 14.04,14.71 22,21 4.134,4.23 8.467,8.23 13,12 60.607,48.71 130.273,72.54 209,71.5 47.64,5.64 80.473,30.14 98.5,73.5 17.719,55.66 3.885,101.66 -41.5,138 -13.066,8.22 -27.066,14.39 -42,18.5 -98.085,5.64 -190.752,-14.02 -278,-59 -39.653,-20.98 -76.319,-46.15 -110,-75.5 -2.225,-3.39 -5.225,-5.89 -9,-7.5 -14.234,-13.73 -27.9,-27.9 -41,-42.5 -1.3,-2.93 -3.3,-5.27 -6,-7 -49.942,-59.69 -86.275,-127.19 -109,-202.5 -21.35,-0.22 -42.683,-0.89 -64,-2 -32.712,-3.7 -61.045,-16.53 -85,-38.5 -24.074,-22.08 -39.574,-49.74 -46.5,-83 -7.6918,-44.392 1.808,-84.559 28.5,-120.5 25.797,-33.891 60.463,-53.557 104,-59 21.008,-0.167 42.008,-0.667 63,-1.5 20.806,-68.953 53.139,-131.62 97,-188 4.303,-5.309 8.637,-10.642 13,-16 22.785,-25.455 47.119,-49.121 73,-71 107.614,-85.701 230.614,-125.534 369,-119.5 57.222,16.37 88.222,54.37 93,114 -3.937,57.483 -32.604,95.149 -86,113 -6.612,1.327 -13.278,2.327 -20,3 -98.377,0.038 -180.543,35.205 -246.5,105.5 -5.509,7.03 -11.009,14.03 -16.5,21 z"
         id="path2" />
    </g>
    <g
       id="g4"
       transform="matrix(0.26458333,0,0,0.26458333,-264.95876,-158.01644)"
       style="clip-rule:evenodd;fill-rule:evenodd;image-rendering:optimizeQuality;shape-rendering:geometricPrecision;text-rendering:geometricPrecision">
      <path
         style="opacity:0.00400002"
         fill="#fefffe"
         d="m 1463.5,535.5 c 1.33,0.667 1.33,0.667 0,0 z"
         id="path3" />
    </g>
    <g
       id="g5"
       transform="matrix(0.26458333,0,0,0.26458333,-264.95876,-158.01644)"
       style="clip-rule:evenodd;fill-rule:evenodd;image-rendering:optimizeQuality;shape-rendering:geometricPrecision;text-rendering:geometricPrecision">
      <path
         style="opacity:0.00400002"
         fill="#00fffe"
         d="m 483.5,572.5 c -0.667,-1.333 -0.667,-1.333 0,0 z"
         id="path4" />
    </g>
    <g
       id="g6"
       transform="matrix(0.26458333,0,0,0.26458333,-264.95876,-158.01644)"
       style="clip-rule:evenodd;fill-rule:evenodd;image-rendering:optimizeQuality;shape-rendering:geometricPrecision;text-rendering:geometricPrecision">
      <path
         style="opacity:0.00400002"
         fill="#fefffe"
         d="m 1514.5,572.5 c 1.33,0.667 1.33,0.667 0,0 z"
         id="path5" />
    </g>
    <g
       id="g7"
       transform="matrix(0.26458333,0,0,0.26458333,-264.95876,-158.01644)"
       style="clip-rule:evenodd;fill-rule:evenodd;image-rendering:optimizeQuality;shape-rendering:geometricPrecision;text-rendering:geometricPrecision">
      <path
         style="opacity:0.00400002"
         fill="#fefffe"
         d="m 1534.5,589.5 c 1.33,0.667 1.33,0.667 0,0 z"
         id="path6" />
    </g>
    <g
       id="g8"
       transform="matrix(0.26458333,0,0,0.26458333,-264.95876,-158.01644)"
       style="clip-rule:evenodd;fill-rule:evenodd;image-rendering:optimizeQuality;shape-rendering:geometricPrecision;text-rendering:geometricPrecision">
      <path
         style="opacity:0.00400002"
         fill="#fefffe"
         d="m 1569.5,623.5 c 1.33,0.667 1.33,0.667 0,0 z"
         id="path7" />
    </g>
    <g
       id="g9"
       transform="matrix(0.26458333,0,0,0.26458333,-264.95876,-158.01644)"
       style="clip-rule:evenodd;fill-rule:evenodd;image-rendering:optimizeQuality;shape-rendering:geometricPrecision;text-rendering:geometricPrecision">
      <path
         style="opacity:0.00400002"
         fill="#fefffe"
         d="m 1585.5,641.5 c 1.33,0.667 1.33,0.667 0,0 z"
         id="path8" />
    </g>
    <g
       id="g10"
       transform="matrix(0.26458333,0,0,0.26458333,-264.95876,-158.01644)"
       style="clip-rule:evenodd;fill-rule:evenodd;image-rendering:optimizeQuality;shape-rendering:geometricPrecision;text-rendering:geometricPrecision">
      <path
         style="opacity:0.00400002"
         fill="#00fffe"
         d="m 410.5,643.5 c -0.667,-1.333 -0.667,-1.333 0,0 z"
         id="path9" />
    </g>
    <g
       id="g11"
       transform="matrix(0.26458333,0,0,0.26458333,-264.95876,-158.01644)"
       style="clip-rule:evenodd;fill-rule:evenodd;image-rendering:optimizeQuality;shape-rendering:geometricPrecision;text-rendering:geometricPrecision">
      <path
         style="opacity:0.00400002"
         fill="#00fffe"
         d="m 397.5,659.5 c -0.667,-1.333 -0.667,-1.333 0,0 z"
         id="path10" />
    </g>
    <g
       id="g12"
       transform="matrix(0.26458333,0,0,0.26458333,-264.95876,-158.01644)"
       style="clip-rule:evenodd;fill-rule:evenodd;image-rendering:optimizeQuality;shape-rendering:geometricPrecision;text-rendering:geometricPrecision">
      <path
         style="opacity:0.00400002"
         fill="#fefffe"
         d="m 1602.5,662.5 c 1.33,0.667 1.33,0.667 0,0 z"
         id="path11" />
    </g>
    <g
       id="g13"
       transform="matrix(0.26458333,0,0,0.26458333,-264.95876,-158.01644)"
       style="clip-rule:evenodd;fill-rule:evenodd;image-rendering:optimizeQuality;shape-rendering:geometricPrecision;text-rendering:geometricPrecision">
      <path
         style="opacity:0.00400002"
         fill="#30e382"
         d="m 979.5,720.5 c 1.333,0.667 1.333,0.667 0,0 z"
         id="path12" />
    </g>
    <g
       id="g14"
       transform="matrix(0.26458333,0,0,0.26458333,-274.21456,-158.01644)"
       style="clip-rule:evenodd;fill-rule:evenodd;image-rendering:optimizeQuality;shape-rendering:geometricPrecision;text-rendering:geometricPrecision">
      <path
         style="opacity:0.998"
         fill="#30e483"
         d="m 983.5,721.5 c 90.12,-2.481 165.62,29.186 226.5,95 44.53,53.246 67.03,113.246 67.5,180 0.94,82.58 -30.73,153.74 -95,213.5 -61.82,50.96 -131.65,72.79 -209.5,65.5 -0.667,0.67 -1.333,1.33 -2,2 -2.038,-1.57 -4.371,-2.57 -7,-3 -0.333,0.67 -0.667,1.33 -1,2 -2.038,-1.57 -4.371,-2.57 -7,-3 -0.333,0.33 -0.667,0.67 -1,1 -93.13,-18.39 -161.963,-69.89 -206.5,-154.5 0.333,-0.33 0.667,-0.67 1,-1 -16.979,-33.75 -25.979,-69.92 -27,-108.5 -2.532,-74.945 20.968,-140.612 70.5,-197 52.216,-55.809 115.716,-86.476 190.5,-92 z"
         id="path13" />
    </g>
    <g
       id="g15"
       transform="matrix(0.26458333,0,0,0.26458333,-264.95876,-158.01644)"
       style="clip-rule:evenodd;fill-rule:evenodd;image-rendering:optimizeQuality;shape-rendering:geometricPrecision;text-rendering:geometricPrecision">
      <path
         style="opacity:0.00400002"
         fill="#00fffe"
         d="m 576.5,809.5 c 1.333,0.667 1.333,0.667 0,0 z"
         id="path14" />
    </g>
    <g
       id="g16"
       transform="matrix(0.26458333,0,0,0.26458333,-274.21456,-158.01644)"
       style="clip-rule:evenodd;fill-rule:evenodd;image-rendering:optimizeQuality;shape-rendering:geometricPrecision;text-rendering:geometricPrecision">
      <path
         style="opacity:1"
         fill="#fdfefe"
         d="m 952.5,830.5 c 3.142,0.299 5.309,1.966 6.5,5 6.884,13.147 14.05,26.147 21.5,39 15.239,-7.143 31.24,-11.476 48,-13 28.81,1.487 46.97,16.154 54.5,44 0.67,5.667 0.67,11.333 0,17 -1.6,7.456 -3.93,14.456 -7,21 23.8,-7.551 43.8,-1.884 60,17 10.29,14.265 15.79,30.265 16.5,48 -0.69,12.39 -4.52,23.72 -11.5,34 -12.85,14.85 -27.51,27.52 -44,38 -0.67,1.33 -0.67,2.67 0,4 7.67,13.33 15.33,26.67 23,40 0.75,1.14 0.58,2.14 -0.5,3 -7.06,3.18 -13.73,7.02 -20,11.5 -2.34,1.03 -4.68,1.69 -7,2 -7.52,-14.87 -15.69,-29.37 -24.5,-43.5 -7.3,3.81 -14.47,7.81 -21.5,12 8.46,14.75 16.79,29.59 25,44.5 -9,5.17 -18,10.33 -27,15.5 -7.59,-14.1 -15.42,-28.1 -23.5,-42 -0.78,-1.23 -1.78,-2.23 -3,-3 -15.65,7.65 -30.815,16.15 -45.5,25.5 -3.031,2.01 -6.364,3.18 -10,3.5 -3.342,-11.04 -7.009,-22.04 -11,-33 0.029,-1.53 0.696,-2.7 2,-3.5 8.265,-3.71 15.765,-8.54 22.5,-14.5 0.667,-3.33 0.667,-6.67 0,-10 -23,-41 -46,-82 -69,-123 -4.618,-5.553 -10.451,-7.386 -17.5,-5.5 -8.124,3.965 -16.124,8.132 -24,12.5 -3.633,-5.155 -7.133,-10.488 -10.5,-16 -1.851,-3.843 -3.684,-7.676 -5.5,-11.5 1.688,-2.019 3.688,-3.686 6,-5 16.409,-8.603 32.409,-17.769 48,-27.5 -7.594,-14.193 -15.427,-28.193 -23.5,-42 -0.749,-1.135 -0.583,-2.135 0.5,-3 8.297,-4.661 16.63,-9.328 25,-14 8.968,13.924 16.968,28.257 24,43 1.373,0.157 2.707,-0.01 4,-0.5 5.534,-3.698 11.201,-7.198 17,-10.5 0.333,-0.667 0.667,-1.333 1,-2 -6.399,-11.67 -12.899,-23.337 -19.5,-35 -1.722,-2.779 -2.889,-5.779 -3.5,-9 8.466,-3.59 16.466,-7.923 24,-13 z"
         id="path15" />
    </g>
    <g
       id="g17"
       transform="matrix(0.26458333,0,0,0.26458333,-274.21456,-158.01644)"
       style="clip-rule:evenodd;fill-rule:evenodd;image-rendering:optimizeQuality;shape-rendering:geometricPrecision;text-rendering:geometricPrecision">
      <path
         style="opacity:1"
         fill="#33e484"
         d="m 997.5,910.5 c 23.81,-1.023 34.98,10.31 33.5,34 -3.25,7.922 -8.08,14.755 -14.5,20.5 -11.56,8.276 -23.561,15.776 -36,22.5 -10.328,-17.96 -20.661,-35.96 -31,-54 14.518,-10.73 30.518,-18.397 48,-23 z"
         id="path16" />
    </g>
    <g
       id="g18"
       transform="matrix(0.26458333,0,0,0.26458333,-264.95876,-158.01644)"
       style="clip-rule:evenodd;fill-rule:evenodd;image-rendering:optimizeQuality;shape-rendering:geometricPrecision;text-rendering:geometricPrecision">
      <path
         style="opacity:0.00400002"
         fill="#30e382"
         d="m 1278.5,985.5 c 1.33,0.667 1.33,0.667 0,0 z"
         id="path17" />
    </g>
    <g
       id="g19"
       transform="matrix(0.26458333,0,0,0.26458333,-274.21456,-158.01644)"
       style="clip-rule:evenodd;fill-rule:evenodd;image-rendering:optimizeQuality;shape-rendering:geometricPrecision;text-rendering:geometricPrecision">
      <path
         style="opacity:1"
         fill="#33e484"
         d="m 1055.5,987.5 c 18.84,-1.846 31.01,6.154 36.5,24 0.51,9.32 -2.15,17.65 -8,25 -4.78,4.78 -9.61,9.61 -14.5,14.5 -13.31,9.48 -27.31,17.65 -42,24.5 -0.55,-2.4 -1.38,-4.73 -2.5,-7 -10.21,-17.24 -20.04,-34.74 -29.5,-52.5 18.09,-13.42 38.09,-22.923 60,-28.5 z"
         id="path18" />
    </g>
    <g
       id="g20"
       transform="matrix(0.26458333,0,0,0.26458333,-264.95876,-158.01644)"
       style="clip-rule:evenodd;fill-rule:evenodd;image-rendering:optimizeQuality;shape-rendering:geometricPrecision;text-rendering:geometricPrecision">
      <path
         style="opacity:0.00400002"
         fill="#30e482"
         d="m 1278.5,1004.5 c 1.33,0.67 1.33,0.67 0,0 z"
         id="path19" />
    </g>
    <g
       id="g21"
       transform="matrix(0.26458333,0,0,0.26458333,-264.95876,-158.01644)"
       style="clip-rule:evenodd;fill-rule:evenodd;image-rendering:optimizeQuality;shape-rendering:geometricPrecision;text-rendering:geometricPrecision">
      <path
         style="opacity:0.00400002"
         fill="#00fffe"
         d="m 151.5,1111.5 c -0.667,0.67 -0.667,0.67 0,0 z"
         id="path20" />
    </g>
    <g
       id="g22"
       transform="matrix(0.26458333,0,0,0.26458333,-264.95876,-158.01644)"
       style="clip-rule:evenodd;fill-rule:evenodd;image-rendering:optimizeQuality;shape-rendering:geometricPrecision;text-rendering:geometricPrecision">
      <path
         style="opacity:0.00400002"
         fill="#00fffe"
         d="m 579.5,1192.5 c 1.333,0.67 1.333,0.67 0,0 z"
         id="path21" />
    </g>
    <g
       id="g23"
       transform="matrix(0.26458333,0,0,0.26458333,-264.95876,-158.01644)"
       style="clip-rule:evenodd;fill-rule:evenodd;image-rendering:optimizeQuality;shape-rendering:geometricPrecision;text-rendering:geometricPrecision">
      <path
         style="opacity:0.00400002"
         fill="#00fffe"
         d="m 594.5,1210.5 c 1.333,0.67 1.333,0.67 0,0 z"
         id="path22" />
    </g>
    <g
       id="g24"
       transform="matrix(0.26458333,0,0,0.26458333,-264.95876,-158.01644)"
       style="clip-rule:evenodd;fill-rule:evenodd;image-rendering:optimizeQuality;shape-rendering:geometricPrecision;text-rendering:geometricPrecision">
      <path
         style="opacity:0.00400002"
         fill="#00fffe"
         d="m 629.5,1243.5 c 1.333,0.67 1.333,0.67 0,0 z"
         id="path23" />
    </g>
    <g
       id="g25"
       transform="matrix(0.26458333,0,0,0.26458333,-264.95876,-158.01644)"
       style="clip-rule:evenodd;fill-rule:evenodd;image-rendering:optimizeQuality;shape-rendering:geometricPrecision;text-rendering:geometricPrecision">
      <path
         style="opacity:0.00400002"
         fill="#30e483"
         d="m 1030.5,1276.5 c 1.33,0.67 1.33,0.67 0,0 z"
         id="path24" />
    </g>
    <g
       id="g26"
       transform="matrix(0.26458333,0,0,0.26458333,-264.95876,-158.01644)"
       style="clip-rule:evenodd;fill-rule:evenodd;image-rendering:optimizeQuality;shape-rendering:geometricPrecision;text-rendering:geometricPrecision">
      <path
         style="opacity:0.00400002"
         fill="#00fffe"
         d="m 409.5,1354.5 c -0.667,0.67 -0.667,0.67 0,0 z"
         id="path25" />
    </g>
    <g
       id="g27"
       transform="matrix(0.26458333,0,0,0.26458333,-264.95876,-158.01644)"
       style="clip-rule:evenodd;fill-rule:evenodd;image-rendering:optimizeQuality;shape-rendering:geometricPrecision;text-rendering:geometricPrecision">
      <path
         style="opacity:0.00400002"
         fill="#fefffe"
         d="m 1585.5,1356.5 c 1.33,0.67 1.33,0.67 0,0 z"
         id="path26" />
    </g>
    <g
       id="g28"
       transform="matrix(0.26458333,0,0,0.26458333,-264.95876,-158.01644)"
       style="clip-rule:evenodd;fill-rule:evenodd;image-rendering:optimizeQuality;shape-rendering:geometricPrecision;text-rendering:geometricPrecision">
      <path
         style="opacity:0.00400002"
         fill="#00fffe"
         d="m 415.5,1361.5 c -0.667,0.67 -0.667,0.67 0,0 z"
         id="path27" />
    </g>
    <g
       id="g29"
       transform="matrix(0.26458333,0,0,0.26458333,-264.95876,-158.01644)"
       style="clip-rule:evenodd;fill-rule:evenodd;image-rendering:optimizeQuality;shape-rendering:geometricPrecision;text-rendering:geometricPrecision">
      <path
         style="opacity:0.00400002"
         fill="#fefffe"
         d="m 1570.5,1373.5 c 1.33,0.67 1.33,0.67 0,0 z"
         id="path28" />
    </g>
    <g
       id="g30"
       transform="matrix(0.26458333,0,0,0.26458333,-264.95876,-158.01644)"
       style="clip-rule:evenodd;fill-rule:evenodd;image-rendering:optimizeQuality;shape-rendering:geometricPrecision;text-rendering:geometricPrecision">
      <path
         style="opacity:0.00400002"
         fill="#fefffe"
         d="m 1569.5,1374.5 c 0.33,0 0.67,0 1,0 -0.19,0.67 -0.52,0.67 -1,0 z"
         id="path29" />
    </g>
    <g
       id="g31"
       transform="matrix(0.26458333,0,0,0.26458333,-264.95876,-158.01644)"
       style="clip-rule:evenodd;fill-rule:evenodd;image-rendering:optimizeQuality;shape-rendering:geometricPrecision;text-rendering:geometricPrecision">
      <path
         style="opacity:0.00400002"
         fill="#fefffe"
         d="m 1532.5,1410.5 c 1.33,0.67 1.33,0.67 0,0 z"
         id="path30" />
    </g>
    <g
       id="g32"
       transform="matrix(0.26458333,0,0,0.26458333,-264.95876,-158.01644)"
       style="clip-rule:evenodd;fill-rule:evenodd;image-rendering:optimizeQuality;shape-rendering:geometricPrecision;text-rendering:geometricPrecision">
      <path
         style="opacity:0.00400002"
         fill="#00fffe"
         d="m 465.5,1411.5 c -0.667,0.67 -0.667,0.67 0,0 z"
         id="path31" />
    </g>
    <g
       id="g33"
       transform="matrix(0.26458333,0,0,0.26458333,-264.95876,-158.01644)"
       style="clip-rule:evenodd;fill-rule:evenodd;image-rendering:optimizeQuality;shape-rendering:geometricPrecision;text-rendering:geometricPrecision">
      <path
         style="opacity:0.00400002"
         fill="#fefffe"
         d="m 1088.5,1516.5 c -0.67,0.67 -0.67,0.67 0,0 z"
         id="path32" />
    </g>
  </g>
</svg>
