<?xml version="1.0" encoding="UTF-8"?>
<svg id="Layer_1" xmlns="http://www.w3.org/2000/svg" version="1.1" viewBox="0 0 44.2 24">
  <!-- Generator: Adobe Illustrator 29.3.1, SVG Export Plug-In . SVG Version: 2.1.0 Build 151)  -->
  <defs>
    <style>
      .st0 {
        fill: #5022ed;
      }
    </style>
  </defs>
  <path class="st0" d="M38.1,2.4l-2.4,3.5c-.7-.3-1.6-.5-2.5-.5s-1,0-1.5.2c0,0-.1,0-.2,0-.7.2-1.5.5-2.1,1,0,0-.1,0-.2.1-.5.4-1.1.9-1.5,1.5-1.6,2-2.8,4.8-4.9,7.9-.2.3-.4.6-.7.9-1.6,2.2-3.8,4.1-6.3,5.3-.1,0-.3.1-.4.2-.3.1-.7.3-1.1.4-.3,0-.5.1-.7.2-.7.1-1.4.3-2.1.3h-.5C4.9,23.4,0,18.5,0,12.4S4.9,1.3,11,1.3s5.6,1.1,7.6,3.1l-2.4,3.5c-2.4-3-6.8-3.3-9.6-.8-2.9,2.4-3.2,6.8-.8,9.7,1.3,1.6,3.2,2.4,5.2,2.4h.5c.9,0,1.8-.3,2.6-.7h0c2.4-1.1,4.3-3.5,7.5-9.2.1-.2.3-.5.4-.7,1.1-2,2.6-3.7,4.3-5.1,0,0,.1,0,.2-.1,0,0,.2-.1.3-.2.2-.1.4-.3.6-.4.3-.1.5-.3.8-.4h.2c.1-.2.3-.3.3-.3.1,0,.3-.1.5-.2,2.9-1,6-.8,8.7.5Z"/>
  <path class="st0" d="M44.2,10.2v2.1c0,.4,0,.7,0,1.2,0,.3,0,.6-.1,1-1.2,6.1-6.9,10-12.9,8.8-2-.4-3.9-1.4-5.4-2.7l2.4-3.5c2.6,2.8,6.9,3,9.7.4.9-.8,1.6-1.8,1.9-3h-6.8l2.9-4.2h8.5Z"/>
</svg>