<?xml version="1.0" encoding="UTF-8"?><svg id="a" xmlns="http://www.w3.org/2000/svg" viewBox="0 0 554.08 550"><defs><style>.b{fill:#777;}.c{fill:#0ac18e;}</style></defs><rect class="c" x="37.5" y="462.5" width="50" height="125" transform="translate(-462.5 587.5) rotate(-90)"/><rect class="c" x="0" width="50" height="550"/><rect class="c" x="504.08" width="50" height="550"/><rect class="c" x="327.04" y="322.96" width="50" height="404.08" transform="translate(-172.96 877.04) rotate(-90)"/><rect class="b" x="289.54" y="285.51" width="50" height="329.08" transform="translate(-135.51 764.59) rotate(-90)"/><rect class="b" x="150" y="475.05" width="50" height="24.95" transform="translate(350 975.05) rotate(180)"/><rect class="c" x="254.08" y="-250" width="50" height="550" transform="translate(254.08 304.08) rotate(-90)"/><rect class="b" x="429.08" y="310.19" width="50" height="114.85"/><rect class="b" x="289.54" y="-64.54" width="50" height="329.08" transform="translate(214.54 414.54) rotate(-90)"/><rect class="b" x="289.54" y="120.65" width="50" height="329.08" transform="translate(29.35 599.73) rotate(-90)"/><rect class="b" x="150" y="125" width="50" height="135.19"/><rect class="c" x="75" y="100" width="50" height="409.78"/><rect class="c" x="404.08" y="100" width="50" height="349.24"/><rect class="c" x="161.03" y="85.17" width="50" height="221.99" transform="translate(-84.22 189) rotate(-45)"/><rect class="c" x="309.44" y="81.47" width="50" height="247.26" transform="translate(242.98 -176.42) rotate(45)"/></svg>