<?xml version="1.0" encoding="UTF-8"?>
<svg id="Laag_1" xmlns="http://www.w3.org/2000/svg" version="1.1" viewBox="0 0 72.2 58.8">
  <!-- Generator: Adobe Illustrator 29.1.0, SVG Export Plug-In . SVG Version: 2.1.0 Build 142)  -->
  <defs>
    <style>
      .st0 {
        fill: #fdcf60;
      }

      .st1 {
        fill: #90e4b5;
      }

      .st2 {
        fill: #ff9d94;
      }

      .st3 {
        fill: #0b1088;
      }
    </style>
  </defs>
  <rect class="st3" x="33.7" y="42.1" width="8.7" height="16.7"/>
  <rect class="st0" x="33.7" width="8.7" height="19.6"/>
  <rect class="st1" x="33.7" y="19.6" width="8.7" height="22.5"/>
  <circle class="st2" cx="17.4" cy="30.7" r="5.2"/>
  <rect class="st0" y="17.5" width="8.7" height="4.4"/>
  <rect class="st1" x="17.5" width="9.8" height="8.7"/>
  <rect class="st1" y="42.1" width="8.7" height="16.7"/>
  <rect class="st3" y="21.9" width="8.7" height="20.2"/>
  <path class="st3" d="M17.5,0C7.9,0,0,7.9,0,17.5h8.7c0-4.8,3.9-8.8,8.8-8.8V0Z"/>
  <rect class="st0" x="46.9" width="7.7" height="8.7"/>
  <path class="st3" d="M54.7,0v8.7c4.8,0,8.8,3.9,8.8,8.8s-3.9,8.8-8.8,8.8v8.7c9.6,0,17.5-7.8,17.5-17.5S64.3,0,54.7,0Z"/>
  <rect class="st1" x="46.9" y="26.3" width="7.7" height="8.7"/>
</svg>