<?xml version="1.0" encoding="UTF-8"?>
<svg id="Layer_1" xmlns="http://www.w3.org/2000/svg" version="1.1" viewBox="0 0 100 100">
  <!-- Generator: Adobe Illustrator 29.1.0, SVG Export Plug-In . SVG Version: 2.1.0 Build 142)  -->
  <defs>
    <style>
      .st0 {
        fill: #3663e0;
      }

      .st1 {
        fill: #2a4dad;
      }

      .st2 {
        fill: #f6f7fa;
      }
    </style>
  </defs>
  <path class="st0" d="M50,100c-3.4,0-6.8-.3-10.1-1-6.4-1.3-12.5-3.9-17.9-7.5-8-5.4-14.3-13.1-18.1-22-1.3-3-2.3-6.2-2.9-9.4-1.4-6.6-1.4-13.5,0-20.2,1.3-6.4,3.9-12.5,7.5-17.9C14,14,21.6,7.7,30.5,3.9c3-1.3,6.2-2.3,9.4-2.9,6.6-1.4,13.5-1.4,20.2,0,6.4,1.3,12.5,3.9,17.9,7.5,8,5.4,14.3,13.1,18.1,22,1.3,3,2.3,6.2,2.9,9.4,1.4,6.6,1.4,13.5,0,20.2-1.3,6.4-3.9,12.5-7.5,17.9-5.4,8-13.1,14.3-22,18.1-3,1.3-6.2,2.3-9.4,2.9-3.3.7-6.7,1-10.1,1ZM50,12.9c-2.5,0-5,.3-7.5.8-4.7,1-9.3,2.9-13.3,5.6-6,4-10.6,9.7-13.4,16.3-.9,2.2-1.7,4.6-2.2,7-1,4.9-1,10,0,15,1,4.7,2.9,9.3,5.6,13.3,4,6,9.7,10.6,16.3,13.4,2.2.9,4.6,1.7,7,2.2,4.9,1,10,1,15,0,4.7-1,9.3-2.9,13.3-5.6,6-4,10.6-9.7,13.4-16.3.9-2.2,1.7-4.6,2.2-7,1-4.9,1-10,0-15-1-4.7-2.9-9.3-5.6-13.3-4-6-9.7-10.6-16.3-13.4-2.2-.9-4.6-1.7-7-2.2-2.5-.5-5-.8-7.5-.8Z"/>
  <path class="st1" d="M49.9,92.8c-2.9,0-5.8-.3-8.6-.9-5.5-1.1-10.7-3.3-15.3-6.5-6.9-4.7-12.3-11.2-15.5-18.9-1.1-2.6-1.9-5.3-2.5-8.1-1.2-5.7-1.2-11.6,0-17.3,1.1-5.5,3.3-10.7,6.5-15.3,4.7-6.9,11.2-12.3,18.9-15.5,2.6-1.1,5.3-1.9,8.1-2.5,5.7-1.2,11.6-1.2,17.3,0,5.5,1.1,10.7,3.3,15.3,6.5,6.9,4.7,12.3,11.2,15.5,18.9,1.1,2.6,1.9,5.3,2.5,8.1,1.2,5.7,1.2,11.6,0,17.3-1.1,5.5-3.3,10.7-6.5,15.3-4.7,6.9-11.2,12.3-18.9,15.5-2.6,1.1-5.3,1.9-8.1,2.5-2.8.6-5.7.9-8.6.9ZM49.9,12.8c-2.5,0-5,.3-7.5.8-4.7,1-9.3,2.9-13.3,5.6-6,4-10.6,9.7-13.4,16.3-.9,2.2-1.7,4.6-2.2,7-1,4.9-1,10,0,15,1,4.7,2.9,9.3,5.6,13.3,4,6,9.7,10.6,16.3,13.4,2.2.9,4.6,1.7,7,2.2,4.9,1,10,1,15,0,4.7-1,9.3-2.9,13.3-5.6,6-4,10.6-9.7,13.4-16.3.9-2.2,1.7-4.6,2.2-7,1-4.9,1-10,0-15-1-4.7-2.9-9.3-5.6-13.3-4-6-9.7-10.6-16.3-13.4-2.2-.9-4.6-1.7-7-2.2-2.5-.5-5-.8-7.5-.8h0Z"/>
  <g>
    <path class="st2" d="M74.9,39.1h0c-1.3-1.4-3.1-2.1-5-2.1h-16.5v26.1h4.7v-9.6h11.8c1.9,0,3.7-.8,5-2.1h0c1.3-1.4,2.1-3.2,2.1-5v-2.3c0-1.9-.7-3.7-2.1-5ZM72.4,46.4c0,.6-.3,1.3-.7,1.7-.4.4-1.1.7-1.7.7h-11.8v-7.1h11.8c.6,0,1.2.2,1.7.7.5.5.7,1.1.7,1.7v2.3Z"/>
    <path class="st2" d="M27.7,50.1c0,4.6,3.8,8.4,8.4,8.4h8.4v-5h-8.4v-4.7h13.1v14.4h-13.1c-7.2,0-13.1-5.9-13.1-13.1s5.9-13.1,13.1-13.1h13.1v4.7h-13.1c-4.6,0-8.4,3.8-8.4,8.4Z"/>
  </g>
</svg>