<?xml version="1.0" encoding="UTF-8"?>
<svg id="Layer_1" xmlns="http://www.w3.org/2000/svg" version="1.1" viewBox="0 0 37.7 23.6">
  <!-- Generator: Adobe Illustrator 29.3.1, SVG Export Plug-In . SVG Version: 2.1.0 Build 151)  -->
  <defs>
    <style>
      .st0 {
        fill: #777;
      }
    </style>
  </defs>
  <path class="st0" d="M12.9,17.3c-2.7,0-4.9,2.2-4.9,4.8s0,.5,0,.8h2.7c0-.2-.1-.5-.1-.8,0-1.2,1-2.2,2.3-2.2s2.3,1,2.3,2.2,0,.5-.1.8h2.7c0-.2,0-.5,0-.8,0-2.6-2.2-4.8-4.9-4.8Z"/>
  <path class="st0" d="M32.6,19c-1-.2-2,.3-2.5,1.1-.1.6-.2,1.2-.4,1.8-.2.7.2,1.4.9,1.6.1,0,.2,0,.4,0,.6,0,1.1-.4,1.3-.9.3-1.1.6-2.3.7-3.5,0,0-.2,0-.3,0Z"/>
  <path class="st0" d="M23.8,11.6c.7,0,1.3-.6,1.3-1.3s-.6-1.3-1.3-1.3-1.3.6-1.3,1.3.6,1.3,1.3,1.3Z"/>
  <path class="st0" d="M37.5,15.6c-.1-.4-.6-.6-1-.5h0c-1.2.4-2.4.7-3.6.8-.4-4.9-2.8-9.6-6.4-12.7C23.5.7,19.9-.4,16.3.1c-4.1.6-6.9,3.5-6.9,7.1s1.7,5.2,4.1,6.3l2-2c-2-.4-3.5-2.2-3.5-4.3s1.5-4.1,4.7-4.5c3.6-.5,6.4,1.1,8.1,2.6,3,2.6,5.1,6.6,5.5,10.7-2-.2-3.9-.8-5.5-1.7-.3-.1-.6-.2-.9-.1-.7.1-1.1.8-1,1.5h0c.4,2.1.4,4.1,0,6.1,0,.4-.2.8-.3,1.2h2.7c0-.2.1-.4.2-.6.4-1.6.5-3.3.4-4.9,1.5.4,3.1.7,4.6.7,2.3,0,4.6-.5,6.7-1.4.4-.2.6-.6.4-1Z"/>
  <path class="st0" d="M8,7.8c.2-.3.3-.7.3-1.1,0-.7-.2-1.3-.6-1.8C2.9,7.9,0,13,0,18.6s.2,2.9.6,4.3h2.7c-.5-1.4-.7-2.8-.7-4.3,0-4.3,2-8.2,5.4-10.7Z"/>
</svg>