<?xml version="1.0" encoding="UTF-8"?>
<svg id="Layer_1" xmlns="http://www.w3.org/2000/svg" version="1.1" viewBox="0 0 56.5 16.2">
  <!-- Generator: Adobe Illustrator 29.3.1, SVG Export Plug-In . SVG Version: 2.1.0 Build 151)  -->
  <defs>
    <style>
      .st0 {
        fill: #64acff;
      }
    </style>
  </defs>
  <path class="st0" d="M12.4,13.6l-.5.2V.8h1.8v15h-1.8L2.2,3l.5-.2v12.9H.8V.8h1.8s9.7,12.8,9.7,12.8ZM24.7,16c-1.4,0-2.6-.3-3.7-.9-1.1-.6-2-1.5-2.6-2.7-.7-1.1-1-2.5-1-4.1s.3-2.9,1-4.1c.7-1.2,1.5-2.1,2.6-2.7,1.1-.6,2.4-.9,3.7-.9s2.6.3,3.7.9c1.1.6,2,1.5,2.7,2.7.7,1.2,1,2.5,1,4.1s-.3,2.9-1,4.1c-.6,1.1-1.6,2.1-2.7,2.7-1.1.6-2.3.9-3.7.9ZM24.7,14.3c1,0,2-.2,2.8-.7.8-.5,1.5-1.1,2-2,.5-.9.7-2,.7-3.3s-.2-2.4-.7-3.3c-.5-.9-1.1-1.6-2-2-.8-.5-1.8-.7-2.8-.7s-2,.2-2.8.7c-.8.5-1.5,1.1-2,2-.5.9-.7,2-.7,3.3s.2,2.4.7,3.3c.5.9,1.1,1.6,2,2,.8.4,1.8.7,2.8.7ZM38.9,15.8L33.5.8h2l4.6,13h-.6L44,.8h2l4.4,13h-.6L54.5.8h1.9l-5.3,15h-1.9l-4.4-13.4h.5l-4.4,13.4h-1.9ZM0-.2"/>
</svg>