<?xml version="1.0" encoding="UTF-8"?><svg xmlns="http://www.w3.org/2000/svg" xmlns:xlink="http://www.w3.org/1999/xlink" width="480" height="480" viewBox="0 0 480 480"><defs><style>.a{fill:url(#a);}.b{fill:url(#b);}.c{opacity:0.5;}.d{fill:#fff;}</style><linearGradient id="a" y1="240" x2="480" y2="240" gradientUnits="userSpaceOnUse"><stop offset="0" stop-color="#ff6464"/><stop offset="1" stop-color="#ff0034"/></linearGradient><linearGradient id="b" x1="120" y1="240" x2="360" y2="240" gradientUnits="userSpaceOnUse"><stop offset="0" stop-color="#ff0034"/><stop offset="1" stop-color="#ff6464"/></linearGradient></defs><circle class="a" cx="240" cy="240" r="240"/><circle class="b" cx="240" cy="240" r="120"/><g class="c"><path class="d" d="M240,120A120,120,0,1,1,120,240,120,120,0,0,1,240,120m0-60a179.64,179.64,0,1,0,70.08,14.17A179,179,0,0,0,240,60Z"/></g><path class="d" d="M240,360a120,120,0,1,1,66.27-220.09A29.91,29.91,0,0,0,344,136.05h0a30,30,0,0,0-4.79-46.3A179.24,179.24,0,0,0,240.93,60C142.49,59.51,60.19,141.22,60,239.65A180,180,0,0,0,339.3,390.16,30,30,0,0,0,344,344h0A29.84,29.84,0,0,0,306.36,340,119.19,119.19,0,0,1,240,360Z"/></svg>