<?xml version="1.0" encoding="utf-8"?>
<!-- Generator: Adobe Illustrator 15.0.0, SVG Export Plug-In . SVG Version: 6.00 Build 0)  -->
<!DOCTYPE svg PUBLIC "-//W3C//DTD SVG 1.1//EN" "http://www.w3.org/Graphics/SVG/1.1/DTD/svg11.dtd">
<svg version="1.1" id="PurelyPeer" xmlns="http://www.w3.org/2000/svg" xmlns:xlink="http://www.w3.org/1999/xlink" x="0px" y="0px"
	 width="360px" height="360px" viewBox="0 0 360 360" enable-background="new 0 0 360 360" xml:space="preserve">
<g id="White_Background">
	<path id="Inner_P_1_" fill="#FFFFFF" d="M120.927,179.95c0.809-28.245,18.001-47.67,38.992-55.209
		c12.693-4.547,28.159-4.291,40.015,0c21.213,7.679,38.498,27.964,38.719,55.209c0.121,13.846-4.961,26.25-11.773,35.324
		c-12.609,16.796-37.55,30.325-66.703,20.399c0,16.913,0,33.834,0,50.757l-39.249,59.911
		C120.927,290.886,120.927,235.419,120.927,179.95z M199.154,189.918c7.022-14.325-3.483-31.549-19.659-31.342
		c-11.942,0.146-20.085,9.005-21.082,18.799c-2.28,22.271,22.825,30.132,35.604,18.805
		C196.113,194.319,198.152,191.944,199.154,189.918z"/>
	<path id="Outer_P_1_" fill="#FFFFFF" d="M72.249,320.354c-0.117-15.387-0.242-30.779-0.242-45.972c0-20.814,0-42.313,0-63.572
		c0-21.952-0.93-42.699,3.663-59.389c8.882-32.251,29.73-55.618,58.344-69.067c15.129-7.119,33.525-11.024,53.112-9.944
		c19.794,1.095,35.785,7.563,48.384,15.175c25.949,15.65,45.902,41.606,51.027,76.395c6.203,42.116-11.203,73.215-31.4,93.398
		c-19.856,19.86-53.912,36.191-94.959,29.054l-39.249,59.911c24.613,9.916,60.669,13.029,90,7.578
		c29.381-5.459,52.987-16.711,72.731-30.869c12.366-8.879,23.618-19.222,33.403-31.152c0.125-0.159,0.252-0.321,0.375-0.48
		c1.722-2.109,3.386-4.269,5.011-6.476c0.413-0.56,0.797-1.129,1.198-1.692c1.502-2.088,2.974-4.197,4.381-6.373
		c0.08-0.124,0.16-0.249,0.24-0.374c15.332-23.806,25.441-52.887,28.258-87.938c0.07-1.403,0.123-2.453,0.152-3.303
		c0.055-1.675,0.133-3.343,0.133-5.033c0-0.001,0-0.006,0-0.008c0-1.796-0.084-3.569-0.133-5.352
		c-0.041-0.803-0.092-1.764-0.152-3.049c-2.729-50.516-25.075-89.536-51.94-116.415C277.477,28.289,238.928,6.65,188.658,3.639
		c-2.867-0.137-5.748-0.219-8.649-0.219c-0.003,0-0.003,0-0.004,0c-3.197,0-6.369,0.094-9.527,0.256
		c-21.219,1.533-39.963,5.966-56.61,12.581c-0.847,0.34-1.708,0.647-2.549,1.008c-0.232,0.093-0.451,0.202-0.688,0.303
		c-10.109,4.312-19.741,9.556-28.783,15.603c-0.609,0.41-1.215,0.825-1.818,1.24c-1.236,0.854-2.452,1.729-3.664,2.604
		c-7.585,5.572-14.613,11.639-21.101,18.126c-6.501,6.501-12.621,13.542-18.255,21.147c-1.211,1.676-2.438,3.339-3.597,5.061
		c-0.009,0.009-0.014,0.021-0.024,0.032C14.331,109.594,3.201,143.61,3.201,180.226C3.201,237.304,30.272,288.03,72.249,320.354z"/>
</g>
<g id="Logo">
	<path id="Inner_P" fill="#0AC18E" d="M120.927,179.95c0.809-28.245,18.001-47.67,38.992-55.209c12.693-4.547,28.159-4.291,40.015,0
		c21.213,7.679,38.498,27.964,38.719,55.209c0.121,13.846-4.961,26.25-11.773,35.324c-12.609,16.796-37.55,30.325-66.703,20.399
		c0,16.913,0,33.834,0,50.757l-39.249,59.911C120.927,290.886,120.927,235.419,120.927,179.95z M199.154,189.918
		c7.022-14.325-3.483-31.549-19.659-31.342c-11.942,0.146-20.085,9.005-21.082,18.799c-2.28,22.271,22.825,30.132,35.604,18.805
		C196.113,194.319,198.152,191.944,199.154,189.918z"/>
	<path id="Outer_P" opacity="0.3" fill="#0AC18E" enable-background="new    " d="M72.249,320.354
		c-0.117-15.387-0.242-30.779-0.242-45.972c0-20.814,0-42.313,0-63.572c0-21.952-0.93-42.699,3.663-59.389
		c8.882-32.251,29.73-55.618,58.344-69.067c15.129-7.119,33.525-11.024,53.112-9.944c19.794,1.095,35.785,7.563,48.384,15.175
		c25.949,15.65,45.902,41.606,51.027,76.395c6.203,42.116-11.203,73.215-31.4,93.398c-19.856,19.86-53.912,36.191-94.959,29.054
		l-39.249,59.911c24.613,9.916,60.669,13.029,90,7.578c29.381-5.459,52.987-16.711,72.731-30.869
		c12.366-8.879,23.618-19.222,33.403-31.152c0.125-0.159,0.252-0.321,0.375-0.48c1.722-2.109,3.386-4.269,5.011-6.476
		c0.413-0.56,0.797-1.129,1.198-1.692c1.502-2.088,2.974-4.197,4.381-6.373c0.08-0.124,0.16-0.249,0.24-0.374
		c15.332-23.806,25.441-52.887,28.258-87.938c0.07-1.403,0.123-2.453,0.152-3.303c0.055-1.675,0.133-3.343,0.133-5.033
		c0-0.001,0-0.006,0-0.008c0-1.796-0.084-3.569-0.133-5.352c-0.041-0.803-0.092-1.764-0.152-3.049
		c-2.729-50.516-25.075-89.536-51.94-116.415C277.477,28.289,238.928,6.65,188.658,3.639c-2.867-0.137-5.748-0.219-8.649-0.219
		c-0.003,0-0.003,0-0.004,0c-3.197,0-6.369,0.094-9.527,0.256c-21.219,1.533-39.963,5.966-56.61,12.581
		c-0.847,0.34-1.708,0.647-2.549,1.008c-0.232,0.093-0.451,0.202-0.688,0.303c-10.109,4.312-19.741,9.556-28.783,15.603
		c-0.609,0.41-1.215,0.825-1.818,1.24c-1.236,0.854-2.452,1.729-3.664,2.604c-7.585,5.572-14.613,11.639-21.101,18.126
		c-6.501,6.501-12.621,13.542-18.255,21.147c-1.211,1.676-2.438,3.339-3.597,5.061c-0.009,0.009-0.014,0.021-0.024,0.032
		C14.331,109.594,3.201,143.61,3.201,180.226C3.201,237.304,30.272,288.03,72.249,320.354z"/>
</g>
</svg>
