<?xml version="1.0" encoding="UTF-8"?>
<svg id="Layer_1" xmlns="http://www.w3.org/2000/svg" version="1.1" viewBox="0 0 97.8 97.8">
  <!-- Generator: Adobe Illustrator 29.1.0, SVG Export Plug-In . SVG Version: 2.1.0 Build 142)  -->
  <defs>
    <style>
      .st0 {
        fill: #0bc2a6;
      }
    </style>
  </defs>
  <path class="st0" d="M90.3,89.5l-3.6,3.6c-4.4,4.4-11.5,4.4-15.9,0l-1.9-1.9-5.1-5.2-10.5-10.5c-3.4-3.4-8.9-3.4-12.3,0l-5.9,5.9c-4.4,4.4-11.5,4.4-15.9,0l-5.5-5.5,5.1-5.1,5.5,5.5c1.6,1.5,4.1,1.5,5.6,0l5.9-5.9c6.2-6.2,16.4-6.2,22.6,0l10.5,10.6,5.1,5.1,2,1.9c1.6,1.6,4.1,1.6,5.7,0l3.6-3.6c7.1-7.1,7.1-18.6,0-25.7l-5.4-5.4c-1.4-1.4-1.4-3.7,0-5.1,0,0,0,0,0,0l7.4-7.4c1.3-1.3,1.5-3.3.6-4.9l5.2-5.2c3.7,4.5,3.5,11-.6,15.2l-4.8,4.8,2.8,2.8c9.9,10,9.9,26,0,36Z"/>
  <path class="st0" d="M10.3,47.1l-4.8,4.8c-4.1,4.1-4.4,10.7-.6,15.1l5.2-5.1c-.9-1.6-.7-3.6.6-4.9l7.4-7.4c1.4-1.4,1.4-3.7,0-5.1,0,0,0,0,0,0l-5.4-5.4c-7.1-7.1-7.1-18.6,0-25.7,0,0,0,0,0,0l3.6-3.6c1.6-1.5,4.1-1.5,5.6,0l1.9,1.9,5.1,5.1,10.5,10.5c6.2,6.2,16.4,6.2,22.6,0l5.9-5.9c1.6-1.5,4.1-1.5,5.7,0l5.5,5.5,5.1-5.1-5.5-5.5c-4.4-4.4-11.5-4.4-15.9,0l-5.9,5.9c-3.4,3.4-8.9,3.4-12.3,0l-10.5-10.5-5.2-5.1-1.9-1.9C22.5.3,15.4.3,11,4.7l-3.6,3.6c-9.9,9.9-9.9,26.1,0,36l2.8,2.8Z"/>
  <path class="st0" d="M37.9,9.4c1.1,0,2.1.4,2.8,1.2l7.4,7.4c1.4,1.4,3.7,1.4,5.1,0,0,0,0,0,0,0l5.4-5.4c7.1-7.1,18.6-7.1,25.7,0l3.6,3.6c1.6,1.6,1.6,4.1,0,5.6l-1.9,1.9-5.1,5.1-10.5,10.6c-6.2,6.2-6.2,16.4,0,22.6l5.9,5.9c1.6,1.6,1.6,4.1,0,5.7l-5.5,5.5,5.1,5.1,5.5-5.5c4.4-4.4,4.4-11.5,0-15.9l-5.9-5.9c-3.4-3.4-3.4-8.9,0-12.3l10.5-10.5,5.1-5.1,1.9-1.9c4.4-4.4,4.4-11.5,0-15.9,0,0,0,0,0,0l-3.6-3.6c-9.9-9.9-26-10-35.9,0,0,0,0,0,0,0l-2.8,2.8-4.8-4.8c-4.1-4.1-10.7-4.4-15.2-.7l5.2,5.2c.6-.4,1.3-.6,2.1-.6Z"/>
  <path class="st0" d="M57,87.2l-7.4-7.4c-1.4-1.4-3.7-1.4-5.1,0,0,0,0,0,0,0l-5.4,5.4c-7.1,7.1-18.6,7.1-25.7,0l-3.6-3.6c-1.6-1.6-1.6-4.1,0-5.6l1.9-1.9,5.1-5.1,10.5-10.5c6.2-6.2,6.2-16.4,0-22.6l-5.9-5.9c-1.6-1.6-1.6-4.1,0-5.6l5.5-5.5-5.1-5.1-5.5,5.5c-4.4,4.4-4.4,11.5,0,15.9,0,0,0,0,0,0l5.9,5.9c3.4,3.4,3.4,8.9,0,12.3l-10.5,10.5-5.1,5.1-1.9,1.9c-4.4,4.4-4.4,11.5,0,15.9,0,0,0,0,0,0l3.6,3.6c9.9,9.9,26.1,9.9,36,0l2.8-2.8,4.8,4.8c4.1,4.1,10.7,4.4,15.2.7l-5.2-5.2c-1.6.9-3.6.6-4.9-.6Z"/>
</svg>