<svg width="474" height="694" viewBox="0 0 474 694" fill="none" xmlns="http://www.w3.org/2000/svg">
<path d="M395.593 471.23C479.994 519.959 479.964 598.981 395.527 647.73C311.091 696.48 174.221 696.497 89.8205 647.768C5.42008 599.039 5.44953 520.018 89.8863 471.268C174.323 422.519 311.193 422.502 395.593 471.23Z" fill="#13B3D3"/>
<path d="M373.943 467.73C446.377 509.55 446.365 577.379 373.877 619.23C301.388 661.081 183.906 661.088 111.471 619.268C39.0368 577.448 39.0487 509.619 111.537 467.768C184.025 425.917 301.508 425.91 373.943 467.73Z" fill="#68FFD5" stroke="url(#paint0_linear_154_173)" stroke-width="50"/>
<g style="mix-blend-mode:screen">
<path d="M368.324 471.532C437.712 511.592 437.755 576.511 368.438 616.532C299.12 656.552 186.678 656.527 117.291 616.466C47.9033 576.405 47.8596 511.486 117.177 471.466C186.494 431.446 298.937 431.471 368.324 471.532Z" stroke="white" stroke-width="10"/>
</g>
<path d="M88 267.999H398V543.162L396 559.159L390 572.486L382.5 583.251L373.5 592.478L364 599.655L354 606.318L343.5 611.957L331 618.108L317.5 622.722L303.5 626.823L290 629.386L263 632.974L235.5 633.999L203 630.411L187.5 627.848L174 624.26L159.5 619.133L145.5 613.495L137 608.881L129 603.755L115 594.016L110 589.402L105 583.764L97.5 571.461L92.5 562.747L91 557.354L88 543.162V267.999Z" fill="url(#paint1_linear_154_173)"/>
<path fill-rule="evenodd" clip-rule="evenodd" d="M344.362 238.423L346.074 239.457C372.542 255.456 393.999 293.498 393.999 324.426V432.712C393.999 463.64 372.542 475.742 346.074 459.743L155.48 344.538C129.012 328.539 107.555 290.497 107.555 259.569V151.283C107.555 120.355 129.012 108.253 155.48 124.252L157.892 125.71C157.952 103.301 160.361 82.5451 164.988 64.5997C169.673 46.4253 176.541 31.4894 185.199 20.6448C193.857 9.80025 204.135 3.25941 215.447 1.39573C226.759 -0.467956 238.883 2.38203 251.127 9.78295C263.371 17.1839 275.495 28.9908 286.807 44.5296C298.119 60.0684 308.397 79.0348 317.055 100.346C325.713 121.657 332.58 144.895 337.266 168.734C341.893 192.273 344.302 215.941 344.362 238.423ZM180.615 139.445C180.675 122.577 182.496 106.953 185.981 93.4373C189.525 79.6922 194.719 68.3964 201.266 60.1948C207.814 51.9932 215.588 47.0465 224.143 45.637C232.698 44.2275 241.867 46.3829 251.127 51.9802C260.387 57.5774 269.556 66.5068 278.111 78.2586C286.666 90.0104 294.44 104.354 300.987 120.472C307.535 136.589 312.729 154.164 316.273 172.193C319.757 189.921 321.579 207.748 321.639 224.687L180.615 139.445Z" fill="url(#paint2_linear_154_173)"/>
<path fill-rule="evenodd" clip-rule="evenodd" d="M328.807 254.708L330.519 255.743C356.988 271.742 378.445 309.784 378.445 340.712V448.997C378.445 479.925 356.988 492.028 330.519 476.029L139.925 360.823C113.457 344.824 92 306.783 92 275.855V167.569C92 136.641 113.457 124.539 139.925 140.537L142.337 141.995C142.397 119.587 144.807 98.8307 149.433 80.8853C154.119 62.7109 160.986 47.775 169.644 36.9305C178.302 26.0859 188.58 19.5451 199.892 17.6814C211.204 15.8177 223.328 18.6677 235.572 26.0686C247.816 33.4695 259.94 45.2765 271.252 60.8153C282.564 76.3541 292.842 95.3204 301.5 116.631C310.158 137.943 317.026 161.181 321.711 185.02C326.338 208.558 328.747 232.227 328.807 254.708ZM165.06 155.731C165.12 138.863 166.942 123.239 170.426 109.723C173.97 95.9779 179.164 84.6821 185.712 76.4805C192.26 68.2789 200.033 63.3321 208.588 61.9227C217.143 60.5132 226.312 62.6686 235.572 68.2658C244.832 73.863 254.001 82.7924 262.557 94.5442C271.112 106.296 278.885 120.64 285.433 136.757C291.98 152.875 297.174 170.449 300.718 188.478C304.203 206.207 306.024 224.033 306.084 240.973L165.06 155.731Z" fill="url(#paint3_linear_154_173)"/>
<mask id="path-7-inside-1_154_173" fill="white">
<path fill-rule="evenodd" clip-rule="evenodd" d="M328.807 253.851L330.519 254.886C356.988 270.885 378.445 308.926 378.445 339.854V448.14C378.445 479.068 356.988 491.17 330.519 475.171L139.925 359.966C113.457 343.967 92 305.925 92 274.997V166.711C92 135.784 113.457 123.681 139.925 139.68L142.337 141.138C142.397 118.729 144.807 97.9733 149.433 80.0279C154.119 61.8535 160.986 46.9176 169.644 36.073C178.302 25.2285 188.58 18.6876 199.892 16.8239C211.204 14.9603 223.328 17.8102 235.572 25.2112C247.816 32.6121 259.94 44.419 271.252 59.9578C282.564 75.4966 292.842 94.463 301.5 115.774C310.158 137.085 317.026 160.323 321.711 184.162C326.338 207.701 328.747 231.369 328.807 253.851ZM165.06 154.873C165.12 138.006 166.942 122.382 170.426 108.866C173.97 95.1205 179.164 83.8247 185.712 75.6231C192.26 67.4215 200.033 62.4747 208.588 61.0652C217.143 59.6558 226.312 61.8112 235.572 67.4084C244.832 73.0056 254.001 81.935 262.557 93.6868C271.112 105.439 278.885 119.783 285.433 135.9C291.98 152.017 297.174 169.592 300.718 187.621C304.203 205.35 306.024 223.176 306.084 240.116L165.06 154.873Z"/>
</mask>
<path d="M328.807 253.851L324.528 251.28L324.542 256.272L328.807 258.851V253.851ZM330.519 475.171L330.519 470.171L330.519 475.171ZM139.925 359.966L139.925 364.966L139.925 359.966ZM142.337 141.138V146.138L146.603 148.716L146.616 143.74L142.337 141.138ZM149.433 80.0279L145.292 76.264L145.292 76.264L149.433 80.0279ZM169.644 36.073L166.022 31.221L166.022 31.221L169.644 36.073ZM199.892 16.8239L202.245 22.4224L202.245 22.4224L199.892 16.8239ZM271.252 59.9578L273.605 57.2037L273.605 57.2037L271.252 59.9578ZM301.5 115.774L305.122 115.3L305.122 115.3L301.5 115.774ZM321.711 184.162L325.852 185.404L325.852 185.404L321.711 184.162ZM165.06 154.873L160.781 152.266L160.764 157.276L165.06 159.873L165.06 154.873ZM170.426 108.866L166.286 105.102L166.286 105.102L170.426 108.866ZM185.712 75.6231L189.333 80.4751L189.333 80.4751L185.712 75.6231ZM208.588 61.0652L210.941 66.6637L210.941 66.6637L208.588 61.0652ZM262.557 93.6868L260.204 96.441L260.204 96.441L262.557 93.6868ZM285.433 135.9L281.811 136.374L281.811 136.374L285.433 135.9ZM300.718 187.621L304.859 188.863L304.859 188.863L300.718 187.621ZM306.084 240.116L306.084 245.116L310.381 247.713L310.363 242.681L306.084 240.116ZM328.807 258.851L330.519 259.886V249.886L328.807 248.851V258.851ZM330.519 259.886C354.624 274.456 374.166 309.101 374.166 337.268L382.724 342.441C382.724 308.751 359.351 267.313 330.519 249.886V259.886ZM374.166 337.268V445.554L382.724 450.727V342.441L374.166 337.268ZM374.166 445.554C374.166 473.72 354.624 484.742 330.519 470.171V480.171C359.351 497.599 382.724 484.416 382.724 450.727L374.166 445.554ZM330.519 470.171L139.925 354.966L139.925 364.966L330.519 480.171L330.519 470.171ZM139.925 354.966C115.82 340.395 96.279 305.75 96.279 277.584L87.721 272.411C87.721 306.1 111.094 347.538 139.925 364.966V354.966ZM96.279 277.584V169.298L87.721 164.125V272.411L96.279 277.584ZM96.279 169.298C96.279 141.131 115.82 130.11 139.925 144.68V134.68C111.094 117.253 87.721 130.436 87.721 164.125L96.279 169.298ZM139.925 144.68L142.337 146.138V136.138L139.925 134.68V144.68ZM145.292 76.264C140.571 94.5776 138.119 115.727 138.058 138.536L146.616 143.74C146.675 121.731 149.042 101.369 153.574 83.7918L145.292 76.264ZM166.022 31.221C157.101 42.3963 150.073 57.7209 145.292 76.264L153.574 83.7918C158.164 65.986 164.872 51.4389 173.266 40.925L166.022 31.221ZM197.539 11.2255C185.625 13.1884 174.942 20.049 166.022 31.221L173.266 40.925C181.662 30.4079 191.536 24.1869 202.245 22.4224L197.539 11.2255ZM235.572 20.2112C222.404 12.2518 209.473 9.25936 197.539 11.2255L202.245 22.4224C212.935 20.6612 224.252 23.3687 235.572 30.2112V20.2112ZM273.605 57.2037C261.672 40.811 248.74 28.1706 235.572 20.2112V30.2112C246.892 37.0536 258.209 48.027 268.899 62.712L273.605 57.2037ZM305.122 115.3C296.203 93.3459 285.519 73.5701 273.605 57.2037L268.899 62.712C279.609 77.4231 289.482 95.5802 297.879 116.248L305.122 115.3ZM325.852 185.404C321.071 161.082 314.044 137.261 305.122 115.3L297.879 116.248C306.272 136.909 312.98 159.565 317.571 182.921L325.852 185.404ZM333.086 256.422C333.025 233.539 330.573 209.426 325.852 185.404L317.571 182.921C322.102 205.976 324.469 229.2 324.528 251.28L333.086 256.422ZM169.339 157.48C169.398 141.011 171.177 125.779 174.567 112.629L166.286 105.102C162.707 118.984 160.843 135.001 160.781 152.266L169.339 157.48ZM174.567 112.629C178.016 99.253 183.05 88.346 189.333 80.4751L182.09 70.7711C175.278 79.3034 169.924 90.9879 166.286 105.102L174.567 112.629ZM189.333 80.4751C195.62 72.6009 202.988 67.9739 210.941 66.6637L206.235 55.4667C197.078 56.9755 188.899 62.242 182.09 70.7711L189.333 80.4751ZM210.941 66.6637C218.874 65.3567 227.236 67.3696 235.572 72.4084V62.4084C225.388 56.2527 215.412 53.9549 206.235 55.4667L210.941 66.6637ZM235.572 72.4084C243.908 77.4471 252.27 85.543 260.204 96.441L264.909 90.9327C255.733 78.327 245.756 68.5641 235.572 62.4084V72.4084ZM260.204 96.441C268.156 107.365 275.525 120.9 281.811 136.374L289.054 135.426C282.245 118.665 274.067 103.512 264.909 90.9327L260.204 96.441ZM281.811 136.374C288.095 151.841 293.129 168.834 296.577 186.379L304.859 188.863C301.22 170.35 295.866 152.193 289.054 135.426L281.811 136.374ZM296.577 186.379C299.967 203.627 301.747 221.01 301.805 237.55L310.363 242.681C310.302 225.342 308.438 207.072 304.859 188.863L296.577 186.379ZM165.06 159.873L306.084 245.116L306.084 235.116L165.06 149.873L165.06 159.873Z" fill="white" mask="url(#path-7-inside-1_154_173)"/>
<g style="mix-blend-mode:screen">
<path fill-rule="evenodd" clip-rule="evenodd" d="M224.305 302.831C230.814 302.004 235.273 294.983 235.273 283.771C235.273 267.859 226.292 249.532 215.215 242.836C204.137 236.14 195.156 243.611 195.156 259.523C195.156 270.918 199.762 283.552 206.445 292.266C206.373 294.651 206.336 297.118 206.336 299.653C206.336 326.041 210.384 349.879 215.379 352.898C220.373 355.917 224.421 336.972 224.421 310.585C224.421 307.969 224.382 305.379 224.305 302.831Z" fill="white"/>
</g>
<g style="mix-blend-mode:screen">
<path fill-rule="evenodd" clip-rule="evenodd" d="M289.867 498.641C284.127 495.327 274.822 495.327 269.082 498.641L238.673 516.198L204.167 496.014C198.94 492.957 190.406 492.922 185.106 495.937L174.088 502.204C168.787 505.218 168.727 510.141 173.954 513.198L208.683 533.513L177.802 551.342C172.062 554.655 172.062 560.028 177.802 563.342L189.112 569.872C194.852 573.185 204.157 573.185 209.897 569.872L240.568 552.164L274.173 571.821C279.4 574.878 287.934 574.912 293.234 571.898L304.252 565.631C309.553 562.616 309.612 557.694 304.386 554.636L270.558 534.849L301.177 517.171C306.917 513.857 306.917 508.484 301.177 505.171L289.867 498.641Z" fill="white"/>
</g>
<defs>
<linearGradient id="paint0_linear_154_173" x1="89.8863" y1="455.268" x2="242.707" y2="719.961" gradientUnits="userSpaceOnUse">
<stop offset="1" stop-color="#13B3D3" stop-opacity="0.66"/>
</linearGradient>
<linearGradient id="paint1_linear_154_173" x1="243.113" y1="267.999" x2="243.041" y2="543.162" gradientUnits="userSpaceOnUse">
<stop offset="0.276474" stop-color="#9FFFD4" stop-opacity="0"/>
<stop offset="0.573136" stop-color="#9FFFD4" stop-opacity="0.129348"/>
<stop offset="1" stop-color="#9FFFD4" stop-opacity="0.53"/>
</linearGradient>
<linearGradient id="paint2_linear_154_173" x1="294.173" y1="50.3735" x2="91.0009" y2="266.51" gradientUnits="userSpaceOnUse">
<stop offset="1" stop-color="#13B3D3"/>
</linearGradient>
<linearGradient id="paint3_linear_154_173" x1="375.812" y1="146.404" x2="86.8117" y2="161.363" gradientUnits="userSpaceOnUse">
<stop stop-color="#13EDB1"/>
<stop offset="1" stop-color="#13B3D3"/>
</linearGradient>
</defs>
</svg>
