<?xml version="1.0" encoding="UTF-8"?>
<svg xmlns="http://www.w3.org/2000/svg" xmlns:xlink="http://www.w3.org/1999/xlink" version="1.1" viewBox="0 0 432.3 694">
  <defs>
    <style>
      .cls-1 {
        mask: url(#mask);
      }

      .cls-2 {
        fill: url(#linear-gradient-3);
      }

      .cls-2, .cls-3, .cls-4 {
        fill-rule: evenodd;
      }

      .cls-3 {
        fill: url(#linear-gradient-4);
      }

      .cls-4, .cls-5 {
        fill: #fff;
      }

      .cls-6 {
        fill: url(#linear-gradient-2);
      }

      .cls-7 {
        fill: #13b3d3;
      }

      .cls-8 {
        isolation: isolate;
      }

      .cls-9 {
        fill: none;
        stroke: #fff;
        stroke-width: 10px;
      }

      .cls-10 {
        mix-blend-mode: screen;
      }

      .cls-11 {
        fill: #68ffd5;
        stroke: url(#linear-gradient);
        stroke-width: 50px;
      }
    </style>
    <linearGradient id="linear-gradient" x1="139.8" y1="284.8" x2="292.6" y2="20.2" gradientTransform="translate(0 696) scale(1 -1)" gradientUnits="userSpaceOnUse">
      <stop offset="1" stop-color="#13b3d3" stop-opacity=".7"/>
      <stop offset="1" stop-color="#000"/>
    </linearGradient>
    <linearGradient id="linear-gradient-2" x1="216.5" y1="428" x2="216.4" y2="152.9" gradientTransform="translate(0 696) scale(1 -1)" gradientUnits="userSpaceOnUse">
      <stop offset=".3" stop-color="#9fffd4" stop-opacity="0"/>
      <stop offset=".6" stop-color="#9fffd4" stop-opacity=".1"/>
      <stop offset="1" stop-color="#9fffd4" stop-opacity=".5"/>
    </linearGradient>
    <linearGradient id="linear-gradient-3" x1="357.5" y1="561.1" x2="154.3" y2="345" gradientTransform="translate(0 696) scale(1 -1)" gradientUnits="userSpaceOnUse">
      <stop offset="1" stop-color="#13b3d3"/>
      <stop offset="1" stop-color="#000"/>
    </linearGradient>
    <linearGradient id="linear-gradient-4" x1="354.4" y1="451.1" x2="65.4" y2="436.2" gradientTransform="translate(0 696) scale(1 -1)" gradientUnits="userSpaceOnUse">
      <stop offset="0" stop-color="#13edb1"/>
      <stop offset="1" stop-color="#13b3d3"/>
    </linearGradient>
    <mask id="mask" x="61.2" y="10.6" width="295" height="477.2" maskUnits="userSpaceOnUse">
      <g id="path-7-inside-1_154_173">
        <path class="cls-4" d="M302.3,253.9l1.7,1c26.5,16,47.9,54,47.9,85v108.3c0,30.9-21.5,43-47.9,27l-190.6-115.2c-26.5-16-47.9-54-47.9-85v-108.3c0-30.9,21.5-43,47.9-27l2.4,1.5c0-22.4,2.5-43.2,7.1-61.1,4.7-18.2,11.6-33.1,20.2-44,8.7-10.8,18.9-17.4,30.2-19.2,11.3-1.9,23.4,1,35.7,8.4,12.2,7.4,24.4,19.2,35.7,34.7,11.3,15.5,21.6,34.5,30.2,55.8s15.5,44.5,20.2,68.4c4.6,23.5,7,47.2,7.1,69.7ZM138.5,154.9c0-16.9,1.9-32.5,5.4-46,3.5-13.7,8.7-25,15.3-33.2,6.5-8.2,14.3-13.1,22.9-14.6,8.6-1.4,17.7.7,27,6.3,9.3,5.6,18.4,14.5,27,26.3,8.6,11.8,16.3,26.1,22.9,42.2,6.5,16.1,11.7,33.7,15.3,51.7,3.5,17.7,5.3,35.6,5.4,52.5l-141-85.2Z"/>
      </g>
    </mask>
  </defs>
  <!-- Generator: Adobe Illustrator 28.7.1, SVG Export Plug-In . SVG Version: 1.2.0 Build 142)  -->
  <g class="cls-8">
    <g id="Layer_1">
      <path class="cls-7" d="M369.1,471.2c84.4,48.7,84.4,127.8,0,176.5-84.4,48.8-221.3,48.8-305.7,0-84.4-48.7-84.4-127.8,0-176.5,84.4-48.7,221.3-48.8,305.7,0Z"/>
      <path class="cls-11" d="M347.4,467.7c72.4,41.8,72.4,109.6,0,151.5-72.5,41.9-190,41.9-262.4,0-72.4-41.8-72.4-109.6,0-151.5,72.5-41.9,190-41.9,262.4,0Z"/>
      <g class="cls-10">
        <path class="cls-9" d="M341.8,471.5c69.4,40.1,69.4,105,.1,145-69.3,40-181.8,40-251.1,0-69.4-40.1-69.4-105-.1-145,69.3-40,181.8-40,251.1,0Z"/>
      </g>
      <path class="cls-6" d="M61.5,268h310v275.2l-2,16-6,13.3-7.5,10.8-9,9.2-9.5,7.2-10,6.7-10.5,5.6-12.5,6.2-13.5,4.6-14,4.1-13.5,2.6-27,3.6-27.5,1-32.5-3.6-15.5-2.6-13.5-3.6-14.5-5.1-14-5.6-8.5-4.6-8-5.1-14-9.7-5-4.6-5-5.6-7.5-12.3-5-8.7-1.5-5.4-3-14.2v-275.2Z"/>
      <path class="cls-2" d="M317.8,238.4l1.7,1c26.5,16,47.9,54,47.9,85v108.3c0,30.9-21.5,43-47.9,27l-190.6-115.2c-26.5-16-47.9-54-47.9-85v-108.3c0-30.9,21.5-43,47.9-27l2.4,1.5c0-22.4,2.5-43.2,7.1-61.1,4.7-18.2,11.6-33.1,20.2-44,8.7-10.8,18.9-17.4,30.2-19.2,11.3-1.9,23.4,1,35.7,8.4,12.2,7.4,24.4,19.2,35.7,34.7,11.3,15.5,21.6,34.5,30.2,55.8,8.7,21.3,15.5,44.5,20.2,68.4,4.6,23.5,7,47.2,7.1,69.7ZM154.1,139.4c0-16.9,1.9-32.5,5.4-46,3.5-13.7,8.7-25,15.3-33.2,6.5-8.2,14.3-13.1,22.9-14.6,8.6-1.4,17.7.7,27,6.3,9.3,5.6,18.4,14.5,27,26.3s16.3,26.1,22.9,42.2c6.5,16.1,11.7,33.7,15.3,51.7,3.5,17.7,5.3,35.6,5.4,52.5l-141-85.2Z"/>
      <path class="cls-3" d="M302.3,254.7l1.7,1c26.5,16,47.9,54,47.9,85v108.3c0,30.9-21.5,43-47.9,27l-190.6-115.2c-26.5-16-47.9-54-47.9-85v-108.3c0-30.9,21.5-43,47.9-27l2.4,1.5c0-22.4,2.5-43.2,7.1-61.1,4.7-18.2,11.6-33.1,20.2-44,8.7-10.8,18.9-17.4,30.2-19.2,11.3-1.9,23.4,1,35.7,8.4,12.2,7.4,24.4,19.2,35.7,34.7,11.3,15.5,21.6,34.5,30.2,55.8,8.7,21.3,15.5,44.6,20.2,68.4,4.6,23.5,7,47.2,7.1,69.7ZM138.5,155.7c0-16.9,1.9-32.5,5.4-46,3.5-13.7,8.7-25,15.3-33.2,6.5-8.2,14.3-13.1,22.9-14.6,8.6-1.4,17.7.7,27,6.3,9.3,5.6,18.4,14.5,27,26.3,8.6,11.8,16.3,26.1,22.9,42.2,6.5,16.1,11.7,33.7,15.3,51.7,3.5,17.7,5.3,35.6,5.4,52.5l-141-85.2Z"/>
      <g class="cls-1">
        <path class="cls-5" d="M302.3,253.9l-4.3-2.6v5s4.3,2.6,4.3,2.6v-5ZM304,475.2v-5,5ZM113.4,360v5-5ZM115.8,141.1v5l4.3,2.6v-5s-4.3-2.6-4.3-2.6ZM122.9,80l-4.1-3.8h0l4.1,3.8ZM143.1,36.1l-3.6-4.9h0l3.6,4.9ZM173.4,16.8l2.4,5.6h0l-2.4-5.6ZM244.7,60l2.4-2.8h0l-2.4,2.8ZM275,115.8l3.6-.5h0l-3.6.5ZM295.2,184.2l4.1,1.2h0l-4.1-1.2ZM138.5,154.9l-4.3-2.6v5s4.3,2.6,4.3,2.6v-5ZM143.9,108.9l-4.1-3.8h0l4.1,3.8ZM159.2,75.6l3.6,4.9h0l-3.6-4.9ZM182,61.1l2.4,5.6h0l-2.4-5.6ZM236,93.7l-2.4,2.8h0l2.4-2.8ZM258.9,135.9l-3.6.5h0l3.6-.5ZM274.2,187.6l4.1,1.2h0l-4.1-1.2ZM279.5,240.1v5l4.3,2.6v-5s-4.3-2.6-4.3-2.6ZM302.3,258.9l1.7,1v-10l-1.7-1v10ZM304,259.9c24.1,14.6,43.6,49.2,43.6,77.4l8.6,5.2c0-33.7-23.4-75.1-52.2-92.6v10ZM347.6,337.3v108.3l8.6,5.2v-108.3l-8.6-5.2ZM347.6,445.6c0,28.2-19.5,39.2-43.6,24.6v10c28.8,17.4,52.2,4.2,52.2-29.4l-8.6-5.2ZM304,470.2l-190.6-115.2v10l190.6,115.2v-10ZM113.4,355c-24.1-14.6-43.6-49.2-43.6-77.4l-8.6-5.2c0,33.7,23.4,75.1,52.2,92.6v-10ZM69.7,277.6v-108.3l-8.6-5.2v108.3l8.6,5.2ZM69.7,169.3c0-28.2,19.5-39.2,43.6-24.6v-10c-28.8-17.4-52.2-4.2-52.2,29.4l8.6,5.2ZM113.4,144.7l2.4,1.5v-10l-2.4-1.5v10ZM118.8,76.3c-4.7,18.3-7.2,39.5-7.2,62.3l8.6,5.2c0-22,2.4-42.4,7-59.9l-8.3-7.5ZM139.5,31.2c-8.9,11.2-15.9,26.5-20.7,45l8.3,7.5c4.6-17.8,11.3-32.4,19.7-42.9l-7.2-9.7ZM171,11.2c-11.9,2-22.6,8.8-31.5,20l7.2,9.7c8.4-10.5,18.3-16.7,29-18.5l-4.7-11.2ZM209,20.2c-13.2-8-26.1-11-38-9l4.7,11.2c10.7-1.8,22,.9,33.3,7.8v-10ZM247.1,57.2c-11.9-16.4-24.9-29-38-37v10c11.3,6.8,22.6,17.8,33.3,32.5l4.7-5.5ZM278.6,115.3c-8.9-22-19.6-41.7-31.5-58.1l-4.7,5.5c10.7,14.7,20.6,32.9,29,53.5l7.2-.9ZM299.3,185.4c-4.8-24.3-11.8-48.1-20.7-70.1l-7.2.9c8.4,20.7,15.1,43.3,19.7,66.7l8.3,2.5ZM306.5,256.4c0-22.9-2.5-47-7.2-71l-8.3-2.5c4.5,23.1,6.9,46.3,7,68.4l8.6,5.1ZM142.8,157.5c0-16.5,1.8-31.7,5.2-44.9l-8.3-7.5c-3.6,13.9-5.4,29.9-5.5,47.2l8.6,5.2ZM148,112.6c3.4-13.4,8.5-24.3,14.8-32.2l-7.2-9.7c-6.8,8.5-12.2,20.2-15.8,34.3l8.3,7.5ZM162.8,80.5c6.3-7.9,13.7-12.5,21.6-13.8l-4.7-11.2c-9.2,1.5-17.3,6.8-24.1,15.3l7.2,9.7ZM184.4,66.7c7.9-1.3,16.3.7,24.6,5.7v-10c-10.2-6.2-20.2-8.5-29.3-6.9l4.7,11.2ZM209,72.4c8.3,5,16.7,13.1,24.6,24l4.7-5.5c-9.2-12.6-19.2-22.4-29.3-28.5v10ZM233.7,96.4c8,10.9,15.3,24.5,21.6,39.9l7.2-.9c-6.8-16.8-15-31.9-24.1-44.5l-4.7,5.5ZM255.3,136.4c6.3,15.5,11.3,32.5,14.8,50l8.3,2.5c-3.6-18.5-9-36.7-15.8-53.4l-7.2.9ZM270,186.4c3.4,17.2,5.2,34.6,5.2,51.2l8.6,5.1c0-17.3-1.9-35.6-5.5-53.8l-8.3-2.5ZM138.5,159.9l141,85.2v-10l-141-85.2v10Z"/>
      </g>
      <g class="cls-10">
        <path class="cls-4" d="M197.8,302.8c6.5-.8,11-7.8,11-19.1,0-15.9-9-34.2-20.1-40.9-11.1-6.7-20.1.8-20.1,16.7s4.6,24,11.3,32.7c0,2.4-.1,4.9-.1,7.4,0,26.4,4,50.2,9,53.2,5,3,9-15.9,9-42.3s0-5.2-.1-7.8Z"/>
      </g>
      <g class="cls-10">
        <path class="cls-4" d="M263.3,498.6c-5.7-3.3-15-3.3-20.8,0l-30.4,17.6-34.5-20.2c-5.2-3.1-13.8-3.1-19.1,0l-11,6.3c-5.3,3-5.4,7.9-.1,11l34.7,20.3-30.9,17.8c-5.7,3.3-5.7,8.7,0,12l11.3,6.5c5.7,3.3,15,3.3,20.8,0l30.7-17.7,33.6,19.7c5.2,3.1,13.8,3.1,19.1,0l11-6.3c5.3-3,5.4-7.9.1-11l-33.8-19.8,30.6-17.7c5.7-3.3,5.7-8.7,0-12l-11.3-6.5Z"/>
      </g>
    </g>
  </g>
</svg>