<svg xmlns="http://www.w3.org/2000/svg" fill="none" viewBox="89.54 77.84 432.33 683.46">
<path d="M458.593 548.231C542.994 596.96 542.964 675.981 458.527 724.731C374.091 773.481 237.221 773.498 152.821 724.769C68.4201 676.04 68.4495 597.019 152.886 548.269C237.323 499.52 374.193 499.503 458.593 548.231Z" fill="#13B3D3"/>
<path d="M436.943 544.731C509.377 586.551 509.365 654.38 436.877 696.231C364.388 738.082 246.906 738.089 174.471 696.269C102.037 654.449 102.049 586.62 174.537 544.769C247.025 502.918 364.508 502.911 436.943 544.731Z" fill="#68FFD5" stroke="url(#paint0_linear_149_13)" stroke-width="50"/>
<g style="mix-blend-mode:screen">
<path d="M431.324 548.533C500.712 588.593 500.755 653.512 431.438 693.533C362.12 733.553 249.678 733.528 180.291 693.467C110.903 653.406 110.86 588.487 180.177 548.467C249.494 508.447 361.937 508.472 431.324 548.533Z" stroke="white" stroke-width="10"/>
</g>
<path d="M155 216H465V590.402L463 612.168L457 630.303L449.5 644.95L440.5 657.504L431 667.269L421 676.336L410.5 684.008L398 692.378L384.5 698.655L370.5 704.235L357 707.723L330 712.605L302.5 714L270 709.118L254.5 705.63L241 700.748L226.5 693.773L212.5 686.101L204 679.824L196 672.849L182 659.597L177 653.319L172 645.647L164.5 628.908L159.5 617.05L158 609.712L155 590.402V216Z" fill="url(#paint1_linear_149_13)"/>
<path fill-rule="evenodd" clip-rule="evenodd" d="M407.364 315.425L409.074 316.458C435.542 332.457 456.999 370.499 456.999 401.427V509.713C456.999 540.641 435.542 552.743 409.074 536.744L218.48 421.538C192.012 405.539 170.555 367.498 170.555 336.57V228.284C170.555 197.356 192.012 185.254 218.48 201.253L220.894 202.712C220.953 180.302 223.363 159.546 227.99 141.601C232.675 123.426 239.543 108.49 248.201 97.6459C256.858 86.8013 267.137 80.2605 278.449 78.3968C289.761 76.5331 301.885 79.3831 314.129 86.784C326.373 94.1849 338.497 105.992 349.809 121.531C361.121 137.069 371.399 156.036 380.057 177.347C388.714 198.658 395.582 221.896 400.268 245.735C404.894 269.274 407.304 292.943 407.364 315.425ZM243.617 216.447C243.677 199.579 245.498 183.955 248.983 170.438C252.526 156.693 257.72 145.397 264.268 137.196C270.816 128.994 278.589 124.048 287.144 122.638C295.699 121.229 304.869 123.384 314.129 128.981C323.389 134.578 332.558 143.508 341.113 155.26C349.668 167.011 357.441 181.355 363.989 197.473C370.537 213.59 375.731 231.165 379.275 249.194C382.759 266.923 384.581 284.749 384.641 301.689L243.617 216.447Z" fill="url(#paint2_linear_149_13)"/>
<path fill-rule="evenodd" clip-rule="evenodd" d="M391.809 331.71L393.519 332.744C419.988 348.743 441.445 386.785 441.445 417.713V525.998C441.445 556.926 419.988 569.029 393.519 553.03L202.925 437.824C176.457 421.825 155 383.783 155 352.855V244.57C155 213.642 176.457 201.539 202.925 217.538L205.339 218.997C205.399 196.588 207.808 175.832 212.435 157.886C217.12 139.712 223.988 124.776 232.646 113.932C241.304 103.087 251.582 96.5461 262.894 94.6824C274.206 92.8188 286.33 95.6687 298.574 103.07C310.818 110.471 322.942 122.278 334.254 137.816C345.566 153.355 355.844 172.322 364.502 193.633C373.16 214.944 380.028 238.182 384.713 262.021C389.34 285.56 391.749 309.229 391.809 331.71ZM228.062 232.732C228.122 215.865 229.944 200.24 233.428 186.724C236.972 172.979 242.166 161.683 248.713 153.482C255.261 145.28 263.035 140.333 271.59 138.924C280.145 137.514 289.314 139.67 298.574 145.267C307.834 150.864 317.003 159.794 325.558 171.545C334.113 183.297 341.887 197.641 348.434 213.758C354.982 229.876 360.176 247.451 363.72 265.48C367.204 283.208 369.026 301.035 369.086 317.975L228.062 232.732Z" fill="url(#paint3_linear_149_13)"/>
<mask id="path-7-inside-1_149_13" fill="white">
<path fill-rule="evenodd" clip-rule="evenodd" d="M391.809 330.853L393.519 331.886C419.988 347.885 441.445 385.927 441.445 416.855V525.141C441.445 556.069 419.988 568.171 393.519 552.172L202.925 436.967C176.457 420.968 155 382.926 155 351.998V243.712C155 212.784 176.457 200.682 202.925 216.681L205.339 218.14C205.399 195.731 207.808 174.975 212.435 157.029C217.12 138.855 223.988 123.919 232.646 113.074C241.304 102.23 251.582 95.6887 262.894 93.825C274.206 91.9613 286.33 94.8113 298.574 102.212C310.818 109.613 322.942 121.42 334.254 136.959C345.566 152.498 355.844 171.464 364.502 192.775C373.16 214.086 380.028 237.325 384.713 261.163C389.34 284.702 391.749 308.371 391.809 330.853ZM228.062 231.875C228.122 215.007 229.944 199.383 233.428 185.867C236.972 172.122 242.166 160.826 248.713 152.624C255.261 144.423 263.035 139.476 271.59 138.066C280.145 136.657 289.314 138.812 298.574 144.409C307.834 150.007 317.003 158.936 325.558 170.688C334.113 182.44 341.887 196.784 348.434 212.901C354.982 229.018 360.176 246.593 363.72 264.622C367.204 282.351 369.026 300.177 369.086 317.118L228.062 231.875Z"/>
</mask>
<path d="M391.809 330.853L387.53 328.282L387.543 333.274L391.809 335.853V330.853ZM205.339 218.14V223.14L209.605 225.718L209.618 220.742L205.339 218.14ZM212.435 157.029L216.576 160.793L212.435 157.029ZM262.894 93.825L260.541 88.2265L262.894 93.825ZM298.574 102.212V97.2122V102.212ZM334.254 136.959L336.607 134.205V134.205L334.254 136.959ZM364.502 192.775L368.124 192.301L364.502 192.775ZM384.713 261.163L380.572 259.922L384.713 261.163ZM228.062 231.875L223.783 229.268L223.765 234.278L228.062 236.875V231.875ZM233.428 185.867L237.569 189.631V189.631L233.428 185.867ZM248.713 152.624L245.092 147.772L248.713 152.624ZM271.59 138.066L273.943 143.665L273.943 143.665L271.59 138.066ZM325.558 170.688L323.205 173.442L323.205 173.442L325.558 170.688ZM348.434 212.901L352.056 212.427L348.434 212.901ZM363.72 264.622L359.579 263.38L363.72 264.622ZM369.086 317.118V322.118L373.383 324.715L373.365 319.683L369.086 317.118ZM391.809 335.853L393.519 336.886V326.886L391.809 325.853V335.853ZM393.519 336.886C417.624 351.457 437.166 386.102 437.166 414.269L445.724 419.442C445.724 385.752 422.351 344.314 393.519 326.886V336.886ZM437.166 414.269V522.554L445.724 527.727V419.442L437.166 414.269ZM437.166 522.554C437.166 550.721 417.625 561.743 393.519 547.172V557.172C422.351 574.6 445.724 561.417 445.724 527.727L437.166 522.554ZM393.519 547.172L202.925 431.967V441.967L393.519 557.172V547.172ZM202.925 431.967C178.82 417.396 159.279 382.751 159.279 354.584L150.721 349.411C150.721 383.101 174.094 424.539 202.925 441.967V431.967ZM159.279 354.584V246.299L150.721 241.126V349.411L159.279 354.584ZM159.279 246.299C159.279 218.132 178.82 207.11 202.925 221.681V211.681C174.094 194.253 150.721 207.436 150.721 241.126L159.279 246.299ZM202.925 221.681L205.339 223.14V213.14L202.925 211.681V221.681ZM208.294 153.265C203.573 171.579 201.121 192.729 201.06 215.538L209.618 220.742C209.677 198.732 212.044 178.37 216.576 160.793L208.294 153.265ZM229.024 108.222C220.102 119.397 213.075 134.722 208.294 153.265L216.576 160.793C221.166 142.987 227.874 128.44 236.268 117.926L229.024 108.222ZM260.541 88.2265C248.627 90.1895 237.943 97.0501 229.024 108.222L236.268 117.926C244.664 107.409 254.537 101.188 265.247 99.4235L260.541 88.2265ZM298.574 97.2122C285.406 89.2528 272.475 86.2604 260.541 88.2265L265.247 99.4235C275.937 97.6622 287.254 100.37 298.574 107.212V97.2122ZM336.607 134.205C324.673 117.812 311.742 105.172 298.574 97.2122V107.212C309.894 114.055 321.211 125.028 331.901 139.713L336.607 134.205ZM368.124 192.301C359.205 170.347 348.521 150.571 336.607 134.205L331.901 139.713C342.611 154.424 352.484 172.581 360.88 193.249L368.124 192.301ZM388.854 262.405C384.073 238.083 377.046 214.262 368.124 192.301L360.88 193.249C369.274 213.91 375.982 236.566 380.572 259.922L388.854 262.405ZM396.088 333.424C396.027 310.541 393.575 286.427 388.854 262.405L380.572 259.922C385.104 282.977 387.471 306.201 387.53 328.282L396.088 333.424ZM232.341 234.482C232.399 218.012 234.179 202.78 237.569 189.631L229.287 182.103C225.708 195.986 223.844 212.002 223.783 229.268L232.341 234.482ZM237.569 189.631C241.017 176.254 246.051 165.347 252.335 157.476L245.092 147.772C238.28 156.304 232.926 167.989 229.287 182.103L237.569 189.631ZM252.335 157.476C258.622 149.602 265.99 144.975 273.943 143.665L269.237 132.468C260.079 133.977 251.901 139.243 245.092 147.772L252.335 157.476ZM273.943 143.665C281.876 142.358 290.238 144.371 298.574 149.409V139.409C288.39 133.254 278.414 130.956 269.237 132.468L273.943 143.665ZM298.574 149.409C306.91 154.448 315.272 162.544 323.205 173.442L327.911 167.934C318.734 155.328 308.758 145.565 298.574 139.409V149.409ZM323.205 173.442C331.158 184.366 338.526 197.901 344.813 213.375L352.056 212.427C345.247 195.667 337.069 180.513 327.911 167.934L323.205 173.442ZM344.813 213.375C351.096 228.842 356.131 245.835 359.579 263.38L367.861 265.864C364.222 247.351 358.868 229.194 352.056 212.427L344.813 213.375ZM359.579 263.38C362.969 280.628 364.749 298.011 364.807 314.552L373.365 319.683C373.304 302.344 371.44 284.074 367.861 265.864L359.579 263.38ZM228.062 236.875L369.086 322.118V312.118L228.062 226.875V236.875Z" fill="white" mask="url(#path-7-inside-1_149_13)"/>
<g style="mix-blend-mode:screen">
<path fill-rule="evenodd" clip-rule="evenodd" d="M287.306 379.832C293.815 379.005 298.273 371.984 298.273 360.772C298.273 344.86 289.292 326.533 278.215 319.837C267.137 313.141 258.156 320.612 258.156 336.524C258.156 347.919 262.762 360.554 269.446 369.268C269.374 371.653 269.337 374.119 269.337 376.654C269.337 403.042 273.385 426.88 278.379 429.899C283.374 432.918 287.422 413.974 287.422 387.586C287.422 384.97 287.382 382.38 287.306 379.832Z" fill="white"/>
</g>
<g style="mix-blend-mode:screen">
<path fill-rule="evenodd" clip-rule="evenodd" d="M352.868 575.642C347.128 572.328 337.823 572.328 332.083 575.642L301.673 593.2L267.166 573.015C261.939 569.958 253.405 569.923 248.105 572.938L237.086 579.205C231.786 582.22 231.726 587.142 236.953 590.199L271.683 610.514L240.803 628.343C235.063 631.656 235.063 637.029 240.803 640.343L252.113 646.873C257.852 650.186 267.158 650.186 272.898 646.873L303.568 629.165L337.172 648.822C342.398 651.879 350.932 651.914 356.233 648.899L367.251 642.632C372.552 639.617 372.611 634.695 367.385 631.637L333.558 611.851L364.178 594.172C369.918 590.858 369.918 585.486 364.178 582.172L352.868 575.642Z" fill="white"/>
</g>
<defs>
<linearGradient id="paint0_linear_149_13" x1="152.886" y1="532.269" x2="305.707" y2="796.962" gradientUnits="userSpaceOnUse">
<stop offset="1" stop-color="#13B3D3" stop-opacity="0.66"/>
</linearGradient>
<linearGradient id="paint1_linear_149_13" x1="310.113" y1="216" x2="309.98" y2="590.402" gradientUnits="userSpaceOnUse">
<stop offset="0.276474" stop-color="#9FFFD4" stop-opacity="0"/>
<stop offset="0.573136" stop-color="#9FFFD4" stop-opacity="0.129348"/>
<stop offset="1" stop-color="#9FFFD4" stop-opacity="0.53"/>
</linearGradient>
<linearGradient id="paint2_linear_149_13" x1="357.173" y1="127.374" x2="154" y2="343.511" gradientUnits="userSpaceOnUse">
<stop offset="1" stop-color="#13B3D3"/>
</linearGradient>
<linearGradient id="paint3_linear_149_13" x1="438.812" y1="223.404" x2="149.812" y2="238.363" gradientUnits="userSpaceOnUse">
<stop stop-color="#13EDB1"/>
<stop offset="1" stop-color="#13B3D3"/>
</linearGradient>
</defs>
</svg>