<svg xmlns="http://www.w3.org/2000/svg" fill="none" viewBox="89.54 77.84 432.33 683.46" xmlns:v="https://vecta.io/nano"><path d="M458.593 548.23c84.401 48.729 84.371 127.75-.066 176.5s-221.306 48.767-305.706.038-84.371-127.75.065-176.5 221.307-48.766 305.707-.038z" fill="#13b3d3"/><path d="M436.943 544.73C509.377 586.55 509.365 654.379 436.877 696.23C364.388 738.081 246.906 738.088 174.471 696.268C102.037 654.448 102.049 586.619 174.537 544.768C247.025 502.917 364.508 502.91 436.943 544.73Z" fill="#68ffd5" stroke="url(#B)" stroke-width="50"/><path d="M431.324 548.532c69.388 40.06 69.431 104.979.114 145s-181.76 39.995-251.147-.066-69.431-104.98-.114-145 181.76-39.995 251.147.066z" stroke="#fff" stroke-width="10" style="mix-blend-mode:screen"/><path d="M151 344.999h310v275.163l-2 15.997-6 13.327-7.5 10.765-9 9.227-9.5 7.177-10 6.663-10.5 5.639-12.5 6.151-13.5 4.614-14 4.101-13.5 2.563-27 3.588-27.5 1.025-32.5-3.588-15.5-2.563-13.5-3.588-14.5-5.127-14-5.638-8.5-4.614-8-5.126-14-9.739-5-4.614-5-5.638-7.5-12.303-5-8.714-1.5-5.393-3-14.192V344.999z" fill="url(#C)"/><g fill-rule="evenodd"><path d="M407.362 315.423l1.712 1.034c26.468 15.999 47.925 54.041 47.925 84.969v108.286c0 30.928-21.457 43.03-47.925 27.031L218.48 421.538c-26.468-15.999-47.925-54.041-47.925-84.969V228.283c0-30.928 21.457-43.03 47.925-27.031l2.412 1.458c.06-22.409 2.469-43.165 7.096-61.11 4.685-18.175 11.553-33.111 20.211-43.955s18.936-17.385 30.248-19.249 23.436.986 35.68 8.387 24.368 19.208 35.68 34.747 21.59 34.505 30.248 55.816 15.525 44.549 20.211 68.388c4.627 23.539 7.036 47.207 7.096 69.689zm-163.747-98.978c.06-16.868 1.881-32.492 5.366-46.008 3.544-13.745 8.738-25.041 15.285-33.242s14.322-13.149 22.877-14.558 17.724.746 26.984 6.343 18.429 14.527 26.984 26.279 16.329 26.095 22.876 42.213 11.742 33.692 15.286 51.721c3.484 17.728 5.306 35.555 5.366 52.494l-141.024-85.242z" fill="url(#D)"/><path d="M391.807 331.708l1.712 1.035c26.469 15.999 47.926 54.041 47.926 84.969v108.285c0 30.928-21.457 43.031-47.926 27.032L202.925 437.823C176.457 421.824 155 383.783 155 352.855V244.569c0-30.928 21.457-43.03 47.925-27.032l2.412 1.458c.06-22.408 2.47-43.164 7.096-61.11 4.686-18.174 11.553-33.11 20.211-43.955s18.936-17.385 30.248-19.249 23.436.986 35.68 8.388 24.368 19.207 35.68 34.746 21.59 34.505 30.248 55.816 15.526 44.55 20.211 68.389c4.627 23.538 7.036 47.207 7.096 69.688zM228.06 232.731c.06-16.868 1.882-32.492 5.366-46.008 3.544-13.745 8.738-25.041 15.286-33.243s14.321-13.148 22.876-14.557 17.724.746 26.984 6.343 18.429 14.526 26.985 26.278 16.328 26.096 22.876 42.213 11.741 33.692 15.285 51.721c3.485 17.729 5.306 35.555 5.366 52.495L228.06 232.731z" fill="url(#E)"/></g><mask id="A" fill="#fff"><path fill-rule="evenodd" d="M391.807 330.851l1.712 1.035c26.469 15.999 47.926 54.04 47.926 84.968V525.14c0 30.928-21.457 43.03-47.926 27.031L202.925 436.966C176.457 420.967 155 382.925 155 351.997V243.711c0-30.927 21.457-43.03 47.925-27.031l2.412 1.458c.06-22.409 2.47-43.165 7.096-61.11 4.686-18.175 11.553-33.11 20.211-43.955s18.936-17.385 30.248-19.249 23.436.986 35.68 8.387 24.368 19.208 35.68 34.747 21.59 34.505 30.248 55.816 15.526 44.549 20.211 68.388c4.627 23.539 7.036 47.207 7.096 69.689zM228.06 231.873c.06-16.867 1.882-32.491 5.366-46.007 3.544-13.746 8.738-25.041 15.286-33.243s14.321-13.148 22.876-14.558 17.724.746 26.984 6.343 18.429 14.527 26.985 26.279 16.328 26.096 22.876 42.213 11.741 33.692 15.285 51.721c3.485 17.729 5.306 35.555 5.366 52.495L228.06 231.873z"/></mask><g fill="#fff"><path d="M391.807 330.851l-4.279-2.571.014 4.992 4.265 2.579v-5zm1.712 221.32v5-5zM202.925 436.966v-5 5zm0-220.286v5-5zm2.412 1.458v5l4.266 2.578.013-4.976-4.279-2.602zm7.096-61.11l-4.141-3.764h0l4.141 3.764zm20.211-43.955l-3.622-4.852 3.622 4.852zm30.248-19.249l2.353 5.599h0l-2.353-5.599zm71.36 43.134l2.353-2.754-2.353 2.754zm30.248 55.816l3.622-.474-3.622.474zm20.211 68.388l4.141 1.242h0l-4.141-1.242zM228.06 231.873l-4.279-2.607-.017 5.01 4.296 2.597v-5zm5.366-46.007l-4.14-3.764 4.14 3.764zm15.286-33.243l3.621 4.852-3.621-4.852zm22.876-14.558l2.353 5.599h0l-2.353-5.599zm53.969 32.622l-2.353 2.754h0l2.353-2.754zm22.876 42.213l-3.622.474 3.622-.474zm15.285 51.721l4.141 1.242h0l-4.141-1.242zm5.366 52.495v5l4.297 2.597-.018-5.032-4.279-2.565zm22.723 18.735l1.712 1.035v-10l-1.712-1.035v10zm1.712 1.035c24.105 14.57 43.647 49.215 43.647 77.382l8.558 5.173c0-33.69-23.373-75.128-52.205-92.555v10zm43.647 77.382v108.286l8.558 5.173V419.441l-8.558-5.173zm0 108.286c0 28.166-19.541 39.188-43.647 24.617v10c28.832 17.428 52.205 4.245 52.205-29.444l-8.558-5.173zm-43.647 24.617L202.925 431.966v10l190.594 115.205v-10zM202.925 431.966c-24.105-14.571-43.646-49.216-43.646-77.382l-8.558-5.173c0 33.689 23.373 75.127 52.204 92.555v-10zm-43.646-77.382V246.298l-8.558-5.173v108.286l8.558 5.173zm0-108.286c0-28.167 19.541-39.188 43.646-24.618v-10c-28.831-17.427-52.204-4.244-52.204 29.445l8.558 5.173zm43.646-24.618l2.412 1.458v-10l-2.412-1.458v10zm5.367-68.416c-4.721 18.314-7.173 39.463-7.234 62.272l8.558 5.204c.059-22.009 2.426-42.371 6.958-59.948l-8.282-7.528zm20.73-45.043c-8.921 11.175-15.949 26.5-20.73 45.043l8.282 7.528c4.59-17.806 11.298-32.353 19.692-42.867l-7.244-9.704zm31.517-19.996c-11.914 1.963-22.597 8.824-31.517 19.996l7.244 9.704c8.396-10.517 18.27-16.738 28.979-18.503l-4.706-11.197zm38.033 8.986c-13.168-7.959-26.099-10.952-38.033-8.986l4.706 11.197c10.69-1.761 22.007.947 33.327 7.789v-10zm38.033 36.993c-11.934-16.393-24.865-29.033-38.033-36.993v10c11.32 6.843 22.637 17.816 33.327 32.501l4.706-5.508zm31.517 58.096c-8.919-21.954-19.603-41.73-31.517-58.096l-4.706 5.508c10.71 14.711 20.583 32.868 28.98 53.536l7.243-.948zm20.73 70.104c-4.781-24.322-11.808-48.143-20.73-70.104l-7.243.948c8.393 20.661 15.101 43.317 19.692 66.673l8.281 2.483zm7.234 71.018c-.061-22.883-2.513-46.996-7.234-71.018l-8.281-2.483c4.531 23.055 6.898 46.279 6.957 68.359l8.558 5.142zM232.339 234.48c.059-16.469 1.838-31.701 5.228-44.851l-8.281-7.527c-3.579 13.882-5.443 29.899-5.505 47.164l8.558 5.214zm5.228-44.851c3.449-13.376 8.483-24.283 14.766-32.154l-7.243-9.704c-6.812 8.532-12.166 20.217-15.804 34.331l8.281 7.527zm14.766-32.154c6.287-7.874 13.655-12.501 21.608-13.811l-4.706-11.197c-9.157 1.508-17.336 6.775-24.145 15.304l7.243 9.704zm21.608-13.811c7.933-1.307 16.295.706 24.631 5.744v-10c-10.184-6.155-20.16-8.453-29.337-6.941l4.706 11.197zm24.631 5.744c8.336 5.039 16.698 13.135 24.632 24.033l4.705-5.508c-9.176-12.606-19.153-22.369-29.337-28.525v10zm24.632 24.033c7.952 10.924 15.321 24.459 21.607 39.933l7.243-.948c-6.809-16.761-14.987-31.914-24.145-44.493l-4.705 5.508zm21.607 39.933c6.284 15.467 11.318 32.46 14.766 50.005l8.282 2.484c-3.639-18.513-8.993-36.67-15.805-53.437l-7.243.948zm14.766 50.005c3.39 17.248 5.17 34.631 5.228 51.171l8.558 5.131c-.061-17.339-1.925-35.609-5.504-53.818l-8.282-2.484zM228.06 236.873l141.024 85.243v-10L228.06 226.873v10z" mask="url(#A)"/><path d="M287.305 379.831c6.509-.827 10.968-7.848 10.968-19.06 0-15.912-8.981-34.239-20.058-40.935s-20.059.775-20.059 16.687c0 11.395 4.606 24.029 11.289 32.743l-.109 7.387c0 26.388 4.048 50.226 9.043 53.245s9.042-15.926 9.042-42.313c0-2.616-.039-5.206-.116-7.754zm65.562 195.81c-5.74-3.314-15.045-3.314-20.785 0l-30.409 17.557-34.506-20.184c-5.227-3.057-13.761-3.092-19.061-.077l-11.018 6.267c-5.301 3.014-5.361 7.937-.134 10.994l34.729 20.315-30.881 17.829c-5.74 3.313-5.74 8.686 0 12l11.31 6.53c5.74 3.313 15.045 3.313 20.785 0l30.671-17.708 33.605 19.657c5.227 3.057 13.761 3.091 19.061.077l11.018-6.267c5.301-3.015 5.36-7.937.134-10.995l-33.828-19.787 30.619-17.678c5.74-3.314 5.74-8.687 0-12l-11.31-6.53z" style="mix-blend-mode:screen" fill-rule="evenodd"/></g><defs><linearGradient id="B" x1="152.886" y1="532.268" x2="305.707" y2="796.961" href="#F"><stop offset="1" stop-color="#13b3d3" stop-opacity=".66"/></linearGradient><linearGradient id="C" x1="306.113" y1="344.999" x2="306.041" y2="620.162" href="#F"><stop offset=".276" stop-color="#9fffd4" stop-opacity="0"/><stop offset=".573" stop-color="#9fffd4" stop-opacity=".129"/><stop offset="1" stop-color="#9fffd4" stop-opacity=".53"/></linearGradient><linearGradient id="D" x1="357.173" y1="127.373" x2="154.001" y2="343.51" href="#F"><stop offset="1" stop-color="#13b3d3"/></linearGradient><linearGradient id="E" x1="438.812" y1="223.404" x2="149.812" y2="238.363" href="#F"><stop stop-color="#13edb1"/><stop offset="1" stop-color="#13b3d3"/></linearGradient><linearGradient id="F" gradientUnits="userSpaceOnUse"/></defs></svg>