<?xml version="1.0" encoding="UTF-8"?>
<svg xmlns="http://www.w3.org/2000/svg" xmlns:xlink="http://www.w3.org/1999/xlink" version="1.1" viewBox="0 0 615 644.3">
  <defs>
    <style>
      .cls-1 {
        fill: url(#linear-gradient-8);
      }

      .cls-2 {
        fill: url(#linear-gradient-5);
      }

      .cls-3 {
        fill: url(#linear-gradient-6);
      }

      .cls-4 {
        fill: url(#linear-gradient-4);
      }

      .cls-5 {
        fill: url(#linear-gradient-3);
      }

      .cls-6 {
        fill: url(#linear-gradient-2);
      }

      .cls-7 {
        fill: url(#linear-gradient);
      }

      .cls-8 {
        isolation: isolate;
      }

      .cls-9 {
        fill: #fff;
      }

      .cls-10 {
        fill: url(#linear-gradient-9);
      }

      .cls-10, .cls-11, .cls-12 {
        stroke: #c2fffe;
      }

      .cls-10, .cls-11, .cls-12, .cls-13 {
        stroke-width: 3px;
      }

      .cls-11 {
        fill: url(#linear-gradient-7);
      }

      .cls-14 {
        mix-blend-mode: screen;
      }

      .cls-15 {
        fill: #fefefe;
      }

      .cls-12 {
        fill: url(#linear-gradient-10);
      }

      .cls-13 {
        fill: none;
        stroke: #c3fffe;
        stroke-linecap: round;
      }
    </style>
    <linearGradient id="linear-gradient" x1="297" y1="767.1" x2="297" y2="534.7" gradientTransform="translate(-539.3 673.5) rotate(28.7) scale(1 -.8) skewX(28.3)" gradientUnits="userSpaceOnUse">
      <stop offset="1" stop-color="#13b3d3" stop-opacity=".2"/>
      <stop offset="1" stop-color="#000"/>
    </linearGradient>
    <linearGradient id="linear-gradient-2" x1="297" y1="767.1" x2="297" y2="534.7" gradientTransform="translate(-551.5 589.9) rotate(28.7) scale(1 -.8) skewX(28.3)" gradientUnits="userSpaceOnUse">
      <stop offset="1" stop-color="#13b3d3"/>
      <stop offset="1" stop-color="#000"/>
    </linearGradient>
    <linearGradient id="linear-gradient-3" x1="297" y1="767.1" x2="297" y2="534.7" gradientTransform="translate(-551.5 631.7) rotate(28.7) scale(1 -.8) skewX(28.3)" gradientUnits="userSpaceOnUse">
      <stop offset="1" stop-color="#13b3d3" stop-opacity=".3"/>
      <stop offset="1" stop-color="#000"/>
    </linearGradient>
    <linearGradient id="linear-gradient-4" x1="300.7" y1="530.2" x2="293.3" y2="771.6" gradientTransform="translate(-551.5 568.2) rotate(28.7) scale(1 -.8) skewX(28.3)" gradientUnits="userSpaceOnUse">
      <stop offset="0" stop-color="#13edb1"/>
      <stop offset="1" stop-color="#13b3d3"/>
    </linearGradient>
    <linearGradient id="linear-gradient-5" x1="144.6" y1="707.4" x2="138.5" y2="769" gradientTransform="translate(-567.9 715.3) rotate(28.7) scale(1 -.8) skewX(28.3)" gradientUnits="userSpaceOnUse">
      <stop offset="1" stop-color="#13b3d3"/>
      <stop offset="1" stop-color="#000"/>
    </linearGradient>
    <linearGradient id="linear-gradient-6" x1="272.1" y1="641.2" x2="264.7" y2="771.6" gradientTransform="translate(-555.5 594.4) rotate(28.7) scale(1 -.8) skewX(28.3)" gradientUnits="userSpaceOnUse">
      <stop offset="1" stop-color="#13b3d3"/>
      <stop offset="1" stop-color="#000"/>
    </linearGradient>
    <linearGradient id="linear-gradient-7" x1="231.2" y1="769.6" x2="231.2" y2="546.1" gradientTransform="translate(178.4 756.9) rotate(28.7) scale(1 -.9) skewX(-25.7)" gradientUnits="userSpaceOnUse">
      <stop offset="0" stop-color="#13edb1" stop-opacity=".3"/>
      <stop offset="1" stop-color="#13b3d3" stop-opacity=".3"/>
    </linearGradient>
    <linearGradient id="linear-gradient-8" x1="231.4" y1="769.6" x2="231.4" y2="546.1" gradientTransform="translate(234.4 739.5) rotate(28.7) scale(1 -.9) skewX(-25.7)" gradientUnits="userSpaceOnUse">
      <stop offset="0" stop-color="#13edb1" stop-opacity=".1"/>
      <stop offset="1" stop-color="#13b3d3" stop-opacity=".3"/>
    </linearGradient>
    <linearGradient id="linear-gradient-9" x1="106.4" y1="545.8" x2="106.4" y2="373.8" gradientTransform="translate(-25 659.2) rotate(-28.7) scale(1 -.9) skewX(25.7)" gradientUnits="userSpaceOnUse">
      <stop offset="0" stop-color="#13edb1" stop-opacity=".3"/>
      <stop offset="1" stop-color="#13b3d3" stop-opacity=".3"/>
    </linearGradient>
    <linearGradient id="linear-gradient-10" x1="106.4" y1="545.8" x2="106.4" y2="373.8" gradientTransform="translate(343.8 868.2) rotate(-28.7) scale(1 -.9) skewX(25.7)" gradientUnits="userSpaceOnUse">
      <stop offset="0" stop-color="#13edb1" stop-opacity=".3"/>
      <stop offset="1" stop-color="#13b3d3" stop-opacity=".3"/>
    </linearGradient>
  </defs>
  <!-- Generator: Adobe Illustrator 28.7.1, SVG Export Plug-In . SVG Version: 1.2.0 Build 142)  -->
  <g class="cls-8">
    <g id="Layer_1">
      <path class="cls-7" d="M254.4,371.1l278.3,152.7c21.3,11.7,21.3,30.6,0,42.3l-126.6,69.4c-21.3,11.7-55.8,11.7-77.2,0L50.7,482.8c-21.3-11.7-21.3-30.6,0-42.3l126.6-69.4c21.3-11.7,55.8-11.7,77.2,0Z"/>
      <path class="cls-6" d="M242.3,287.4l278.3,152.7c21.3,11.7,21.3,30.6,0,42.3l-126.6,69.4c-21.3,11.7-55.8,11.7-77.2,0L38.6,399.2c-21.3-11.7-21.3-30.6,0-42.3l126.6-69.4c21.3-11.7,55.8-11.7,77.2,0Z"/>
      <path class="cls-5" d="M242.3,329.3l278.3,152.7c21.3,11.7,21.3,30.6,0,42.3l-126.6,69.4c-21.3,11.7-55.8,11.7-77.2,0L38.6,441c-21.3-11.7-21.3-30.6,0-42.3l126.6-69.4c21.3-11.7,55.8-11.7,77.2,0Z"/>
      <g class="cls-14">
        <path class="cls-9" d="M24,198c-2,1.1-3.8,1.5-5.4,1.3-1.6-.3-2.8-1.2-3.8-2.9-.9-1.7-1.4-4-1.4-7.1s.5-5.9,1.4-8.6c.9-2.7,2.2-5,3.8-7,1.6-2,3.4-3.6,5.4-4.7,2-1.1,3.8-1.5,5.4-1.2,1.6.2,2.8,1.2,3.8,2.9.9,1.7,1.4,4,1.4,7.1s-.5,5.9-1.4,8.6c-.9,2.7-2.2,5-3.8,7-1.6,2-3.4,3.5-5.4,4.6ZM24,192.5c1-.5,1.8-1.3,2.5-2.3.7-1,1.3-2.3,1.7-3.8.4-1.6.6-3.4.6-5.5s-.2-3.7-.6-4.8c-.4-1.1-1-1.8-1.7-2-.7-.2-1.5,0-2.5.4-.9.5-1.8,1.3-2.5,2.3-.7,1-1.3,2.3-1.7,3.8-.4,1.6-.6,3.4-.6,5.5s.2,3.7.6,4.8c.4,1.1,1,1.8,1.7,2,.7.2,1.6,0,2.5-.4ZM41,188.2v-25.6l2.5,1.5-7.4,4v-5.2l10.6-5.8v28l-5.7,3.1ZM61.4,177.5c-2,1.1-3.8,1.5-5.4,1.3-1.6-.3-2.8-1.2-3.8-2.9-.9-1.7-1.4-4-1.4-7.1s.5-5.9,1.4-8.6,2.2-5,3.8-7c1.6-2,3.4-3.6,5.4-4.7,2-1.1,3.8-1.5,5.4-1.2,1.6.2,2.8,1.2,3.8,2.9.9,1.7,1.4,4,1.4,7.1s-.5,5.9-1.4,8.6c-.9,2.7-2.2,5-3.8,7-1.6,2-3.4,3.5-5.4,4.6ZM61.4,172c1-.5,1.8-1.3,2.5-2.3.7-1,1.3-2.3,1.7-3.8.4-1.6.6-3.4.6-5.5s-.2-3.7-.6-4.8c-.4-1.1-1-1.8-1.7-2-.7-.2-1.5,0-2.5.4-.9.5-1.8,1.3-2.5,2.3-.7,1-1.3,2.3-1.7,3.8-.4,1.6-.6,3.4-.6,5.5s.2,3.7.6,4.8c.4,1.1,1,1.8,1.7,2,.7.2,1.6,0,2.5-.4ZM78.4,167.7v-25.6l2.5,1.5-7.4,4v-5.2l10.6-5.8v28l-5.7,3.1ZM98.8,157c-2,1.1-3.8,1.5-5.4,1.3-1.6-.3-2.8-1.2-3.8-2.9s-1.4-4-1.4-7.1.5-5.9,1.4-8.6c.9-2.7,2.2-5,3.8-7,1.6-2,3.4-3.6,5.4-4.7,2-1.1,3.8-1.5,5.4-1.2,1.6.2,2.8,1.2,3.8,2.9.9,1.7,1.4,4,1.4,7.1s-.5,5.9-1.4,8.6c-.9,2.7-2.2,5-3.8,7-1.6,2-3.4,3.5-5.4,4.6ZM98.8,151.5c1-.5,1.8-1.3,2.5-2.3.7-1,1.3-2.3,1.7-3.8.4-1.6.6-3.4.6-5.5s-.2-3.7-.6-4.8c-.4-1.1-1-1.8-1.7-2-.7-.2-1.5,0-2.5.4-.9.5-1.8,1.3-2.5,2.3-.7,1-1.3,2.3-1.7,3.8-.4,1.6-.6,3.4-.6,5.5s.2,3.7.6,4.8c.4,1.1,1,1.8,1.7,2,.7.2,1.6,0,2.5-.4ZM24,247c-2,1.1-3.8,1.5-5.4,1.3-1.6-.3-2.8-1.2-3.8-2.9-.9-1.7-1.4-4-1.4-7.1s.5-5.9,1.4-8.6c.9-2.7,2.2-5,3.8-7,1.6-2,3.4-3.6,5.4-4.7,2-1.1,3.8-1.5,5.4-1.2,1.6.2,2.8,1.2,3.8,2.9.9,1.7,1.4,4,1.4,7.1s-.5,5.9-1.4,8.6c-.9,2.7-2.2,5-3.8,7-1.6,2-3.4,3.5-5.4,4.6ZM24,241.5c1-.5,1.8-1.3,2.5-2.3.7-1,1.3-2.3,1.7-3.8.4-1.6.6-3.4.6-5.5s-.2-3.7-.6-4.8c-.4-1.1-1-1.8-1.7-2-.7-.2-1.5,0-2.5.4-.9.5-1.8,1.3-2.5,2.3-.7,1-1.3,2.3-1.7,3.8-.4,1.6-.6,3.4-.6,5.5s.2,3.7.6,4.8c.4,1.1,1,1.8,1.7,2,.7.2,1.6,0,2.5-.4ZM41,237.2v-25.6l2.5,1.5-7.4,4v-5.2l10.6-5.8v28l-5.7,3.1ZM54.7,229.7v-25.6l2.5,1.5-7.4,4v-5.2l10.6-5.8v28l-5.7,3.1Z"/>
      </g>
      <path class="cls-4" d="M242.3,265.8l278.3,152.7c21.3,11.7,21.3,30.6,0,42.3l-126.6,69.4c-21.3,11.7-55.8,11.7-77.2,0L38.6,377.6c-21.3-11.7-21.3-30.6,0-42.3l126.6-69.4c21.3-11.7,55.8-11.7,77.2,0Z"/>
      <g class="cls-14">
        <path class="cls-2" d="M200.4,398.9l56.6,31c7.3,4,7.3,10.4,0,14.4l-24.3,13.4c-7.3,4-19,4-26.3,0l-56.6-31c-7.3-4-7.3-10.4,0-14.4l24.3-13.4c7.3-4,19-4,26.3,0Z"/>
      </g>
      <g class="cls-14">
        <path class="cls-3" d="M224.2,284.2l256.2,140.6c13.6,7.4,13.6,19.5,0,26.9l-57.3,31.4c-13.6,7.4-35.5,7.4-49.1,0L117.8,342.6c-13.6-7.4-13.6-19.5,0-26.9l57.3-31.4c13.6-7.4,35.5-7.4,49.1,0Z"/>
      </g>
      <path class="cls-11" d="M241.9,24.4l278.3,152.7c20.6,11.3,37.3,39.5,37.3,62.9v135.5c0,23.5-16.7,33.3-37.3,22.1L241.9,244.9c-20.6-11.3-37.3-39.5-37.3-62.9V46.4c0-23.5,16.7-33.3,37.3-22.1Z"/>
      <path class="cls-1" d="M298.1,4.8l278.3,152.7c21.3,11.7,38.6,40.9,38.6,65.2v135.5c0,24.3-17.3,34.5-38.6,22.8l-278.3-152.7c-21.3-11.7-38.6-40.9-38.6-65.2V27.7c0-24.3,17.3-34.5,38.6-22.8Z"/>
      <path class="cls-10" d="M13.2,93.3l110.3-60.5c6.5-3.6,11.8-.4,11.8,7v142c0,7.5-5.3,16.4-11.8,20l-110.3,60.5c-6.5,3.6-11.8.4-11.8-7V113.2c0-7.5,5.3-16.4,11.8-20Z"/>
      <path class="cls-12" d="M381.9,302.3l110.3-60.5c6.5-3.6,11.8-.4,11.8,7v142c0,7.5-5.3,16.4-11.8,20l-110.3,60.5c-6.5,3.6-11.8.4-11.8-7v-142c0-7.5,5.3-16.4,11.8-20Z"/>
      <g class="cls-14">
        <polygon class="cls-15" points="218.5 75.2 543.3 253.4 543.3 257.3 218.5 79.2 218.5 75.2"/>
        <polygon class="cls-15" points="218.5 100 543.3 278.2 543.3 282.1 218.5 104 218.5 100"/>
        <polygon class="cls-15" points="218.5 87.6 543.3 265.8 543.3 269.7 218.5 91.6 218.5 87.6"/>
        <polygon class="cls-15" points="218.5 149.6 543.3 327.8 543.3 331.7 218.5 153.5 218.5 149.6"/>
        <polygon class="cls-15" points="218.5 174.4 543.3 352.5 543.3 356.5 218.5 178.3 218.5 174.4"/>
        <polygon class="cls-15" points="218.5 162 543.3 340.1 543.3 344.1 218.5 165.9 218.5 162"/>
        <polygon class="cls-15" points="218.5 112.4 543.3 290.6 543.3 294.5 218.5 116.4 218.5 112.4"/>
        <polygon class="cls-15" points="218.5 137.2 543.3 315.4 543.3 319.3 218.5 141.2 218.5 137.2"/>
        <polygon class="cls-15" points="218.5 124.8 543.3 303 543.3 306.9 218.5 128.8 218.5 124.8"/>
      </g>
      <path class="cls-13" d="M376.4,392.6c8-8.4,15.4-16,23-25,4.4-5.2,9.8-18.6,12.8-15.9,2.8,2.6,2.4,8.7,3.2,13.3,1.3,6.8,3.5,13.8,4.1,21.1.3,3.6-6.7,13.3-8.7,9.7-2.7-5,7.2-17.7,10.2-23.5,3.5-6.8,5.6-13.9,9.2-20.8,3.4-6.6,2.8-1.7,1.6,1.3-.9,2.2-2.1,1.3-1.7,1.1,1.7-.9,3.1-.5,5.3-2.4,6.8-5.9,13.8-5.7,21.1-9.6,8.3-4.4,7.8,2.2,14.3-7.9,1.2-1.8,7.3-12.8,9.2-12.3,2.8.8,5.3,2.4,8.3,2.9,2.8.4,8.1-2.7,9.5-.5"/>
    </g>
  </g>
</svg>