<?xml version="1.0" encoding="UTF-8"?>
<svg xmlns="http://www.w3.org/2000/svg" xmlns:xlink="http://www.w3.org/1999/xlink" version="1.1" viewBox="0 0 574.8 706">
  <!-- Generator: Adobe Illustrator 29.4.0, SVG Export Plug-In . SVG Version: 2.1.0 Build 152)  -->
  <defs>
    <style>
      .st0 {
        fill: url(#linear-gradient14);
      }

      .st0, .st1, .st2, .st3, .st4, .st5, .st6, .st7, .st8, .st9 {
        fill-rule: evenodd;
      }

      .st1 {
        fill: url(#linear-gradient15);
      }

      .st2 {
        fill: url(#linear-gradient11);
      }

      .st3 {
        fill: url(#linear-gradient10);
      }

      .st4 {
        fill: url(#linear-gradient12);
      }

      .st5 {
        fill: url(#linear-gradient13);
      }

      .st10 {
        fill: url(#linear-gradient2);
      }

      .st11 {
        fill: url(#linear-gradient3);
      }

      .st12 {
        fill: url(#linear-gradient6);
      }

      .st13 {
        fill: url(#linear-gradient7);
      }

      .st14 {
        fill: url(#linear-gradient5);
      }

      .st15 {
        fill: url(#linear-gradient4);
      }

      .st16 {
        isolation: isolate;
      }

      .st17 {
        fill: #fff;
      }

      .st18 {
        mix-blend-mode: screen;
      }

      .st6 {
        fill: url(#linear-gradient);
      }

      .st7 {
        fill: url(#linear-gradient1);
      }

      .st8 {
        fill: url(#linear-gradient8);
      }

      .st9 {
        fill: url(#linear-gradient9);
      }

      .st19 {
        fill: none;
        stroke: #13b3d3;
        stroke-width: 15px;
      }
    </style>
    <linearGradient id="linear-gradient" x1="544.9" y1="575.1" x2="377.9" y2="311.9" gradientTransform="translate(0 700) scale(1 -1)" gradientUnits="userSpaceOnUse">
      <stop offset="0" stop-color="#6cffd7" stop-opacity="0"/>
      <stop offset="1" stop-color="#13b3d3" stop-opacity=".2"/>
    </linearGradient>
    <linearGradient id="linear-gradient1" x1="544.9" y1="575.1" x2="377.9" y2="311.9" gradientTransform="translate(0 700) scale(1 -1)" gradientUnits="userSpaceOnUse">
      <stop offset="0" stop-color="#6cffd7" stop-opacity="0"/>
      <stop offset="1" stop-color="#13b3d3" stop-opacity=".2"/>
    </linearGradient>
    <linearGradient id="linear-gradient2" x1="192.6" y1="231" x2="127.4" y2="90.2" gradientTransform="translate(0 700) scale(1 -1)" gradientUnits="userSpaceOnUse">
      <stop offset="0" stop-color="#13edb1" stop-opacity=".3"/>
      <stop offset="1" stop-color="#13b3d3" stop-opacity=".4"/>
    </linearGradient>
    <linearGradient id="linear-gradient3" x1="236.6" y1="246" x2="171.4" y2="105.2" gradientTransform="translate(0 700) scale(1 -1)" gradientUnits="userSpaceOnUse">
      <stop offset="0" stop-color="#13edb1" stop-opacity="0"/>
      <stop offset="1" stop-color="#13b3d3" stop-opacity=".2"/>
    </linearGradient>
    <linearGradient id="linear-gradient4" x1="236.6" y1="246" x2="171.4" y2="105.2" gradientTransform="translate(0 700) scale(1 -1)" gradientUnits="userSpaceOnUse">
      <stop offset="0" stop-color="#13edb1" stop-opacity="0"/>
      <stop offset="1" stop-color="#13b3d3" stop-opacity=".2"/>
    </linearGradient>
    <linearGradient id="linear-gradient5" x1="161.6" y1="557" x2="96.4" y2="416.2" gradientTransform="translate(0 700) scale(1 -1)" gradientUnits="userSpaceOnUse">
      <stop offset="0" stop-color="#13edb1" stop-opacity="0"/>
      <stop offset="1" stop-color="#13b3d3" stop-opacity=".2"/>
    </linearGradient>
    <linearGradient id="linear-gradient6" x1="161.6" y1="557" x2="96.4" y2="416.2" gradientTransform="translate(0 700) scale(1 -1)" gradientUnits="userSpaceOnUse">
      <stop offset="0" stop-color="#13edb1" stop-opacity="0"/>
      <stop offset="1" stop-color="#13b3d3" stop-opacity=".2"/>
    </linearGradient>
    <linearGradient id="linear-gradient7" x1="130.4" y1="545.7" x2="59.8" y2="391.1" gradientTransform="translate(0 700) scale(1 -1)" gradientUnits="userSpaceOnUse">
      <stop offset="0" stop-color="#13edb1" stop-opacity=".3"/>
      <stop offset="1" stop-color="#13b3d3" stop-opacity=".4"/>
    </linearGradient>
    <linearGradient id="linear-gradient8" x1="398.9" y1="487.1" x2="231.9" y2="223.9" gradientTransform="translate(0 700) scale(1 -1)" gradientUnits="userSpaceOnUse">
      <stop offset="0" stop-color="#6cffd7" stop-opacity=".2"/>
      <stop offset="1" stop-color="#13b3d3" stop-opacity=".5"/>
    </linearGradient>
    <linearGradient id="linear-gradient9" x1="398.9" y1="487.1" x2="231.9" y2="223.9" gradientTransform="translate(0 700) scale(1 -1)" gradientUnits="userSpaceOnUse">
      <stop offset="0" stop-color="#6cffd7" stop-opacity=".2"/>
      <stop offset="1" stop-color="#13b3d3" stop-opacity=".5"/>
    </linearGradient>
    <linearGradient id="linear-gradient10" x1="188.4" y1="216.6" x2="464.8" y2="510.2" gradientTransform="translate(0 700) scale(1 -1)" gradientUnits="userSpaceOnUse">
      <stop offset="0" stop-color="#13edb1" stop-opacity=".5"/>
      <stop offset="1" stop-color="#13b3d3" stop-opacity=".5"/>
    </linearGradient>
    <linearGradient id="linear-gradient11" x1="188.4" y1="216.6" x2="464.8" y2="510.2" gradientTransform="translate(0 700) scale(1 -1)" gradientUnits="userSpaceOnUse">
      <stop offset="0" stop-color="#13edb1" stop-opacity=".5"/>
      <stop offset="1" stop-color="#13b3d3" stop-opacity=".5"/>
    </linearGradient>
    <linearGradient id="linear-gradient12" x1="487.9" y1="544.1" x2="320.9" y2="280.9" gradientTransform="translate(0 700) scale(1 -1)" gradientUnits="userSpaceOnUse">
      <stop offset="0" stop-color="#6cffd7" stop-opacity=".1"/>
      <stop offset="1" stop-color="#13b3d3" stop-opacity=".2"/>
    </linearGradient>
    <linearGradient id="linear-gradient13" x1="487.9" y1="544.1" x2="320.9" y2="280.9" gradientTransform="translate(0 700) scale(1 -1)" gradientUnits="userSpaceOnUse">
      <stop offset="0" stop-color="#6cffd7" stop-opacity=".1"/>
      <stop offset="1" stop-color="#13b3d3" stop-opacity=".2"/>
    </linearGradient>
    <linearGradient id="linear-gradient14" x1="398.9" y1="487.1" x2="231.9" y2="223.9" gradientTransform="translate(0 700) scale(1 -1)" gradientUnits="userSpaceOnUse">
      <stop offset="0" stop-color="#6cffd7" stop-opacity=".2"/>
      <stop offset="1" stop-color="#13b3d3" stop-opacity=".5"/>
    </linearGradient>
    <linearGradient id="linear-gradient15" x1="398.9" y1="487.1" x2="231.9" y2="223.9" gradientTransform="translate(0 700) scale(1 -1)" gradientUnits="userSpaceOnUse">
      <stop offset="0" stop-color="#6cffd7" stop-opacity=".2"/>
      <stop offset="1" stop-color="#13b3d3" stop-opacity=".5"/>
    </linearGradient>
  </defs>
  <g class="st16">
    <g id="Layer_1">
      <g id="Group_90">
        <g id="Group_51">
          <path id="Subtract" class="st6" d="M497.7,94.9L348.1,0v369.1l226.7,143.8V239.4l-77.1-144.5Z"/>
          <path id="Subtract_2" class="st7" d="M497.7,94.9L348.1,0v369.1l226.7,143.8V239.4l-77.1-144.5Z"/>
        </g>
        <g id="Rectangle_90" class="st18">
          <path class="st10" d="M80.1,448.5l-6.6-3.6v167.9l6.6,3.6,133,71.8,6.6,3.6v-167.9l-6.6-3.6-133-71.8Z"/>
          <path class="st19" d="M80.1,448.5l-6.6-3.6v167.9l6.6,3.6,133,71.8,6.6,3.6v-167.9l-6.6-3.6-133-71.8Z"/>
        </g>
        <g id="Rectangle_203" class="st18">
          <path class="st11" d="M124.1,441l133,71.8v152.9l-133-71.8v-152.9Z"/>
          <path class="st15" d="M124.1,441l133,71.8v152.9l-133-71.8v-152.9Z"/>
        </g>
        <g id="Rectangle_204" class="st18">
          <path class="st14" d="M49.1,130l133,71.8v152.9l-133-71.8v-152.9Z"/>
          <path class="st12" d="M49.1,130l133,71.8v152.9l-133-71.8v-152.9Z"/>
        </g>
        <g id="Rectangle_202" class="st18">
          <path class="st13" d="M14.1,136.5l-6.6-3.6v182.1l6.6,3.6,133,71.8,6.6,3.6v-182l-6.6-3.6L14.1,136.5Z"/>
          <path class="st19" d="M14.1,136.5l-6.6-3.6v182.1l6.6,3.6,133,71.8,6.6,3.6v-182l-6.6-3.6L14.1,136.5Z"/>
        </g>
        <g id="_x23_" class="st18">
          <path class="st17" d="M75.6,302.4l9-78.8,11.6,6.7-8.9,78.8-11.7-6.8ZM37.2,261v-13.1l67.1,38.8v13.1l-67.1-38.8ZM48.7,286.9l9-78.8,11.6,6.7-9,78.8-11.6-6.7ZM40.7,230.5v-13.1l67,38.7v13.1c.1,0-67-38.8-67-38.8Z"/>
        </g>
        <g id="SCRIPT" class="st18">
          <path class="st17" d="M223.5,210.4c-1-.6-1.9-1.2-2.8-2-.9-.8-1.6-1.6-2.1-2.4l1-1.9c.5.7,1.1,1.4,1.8,2.1.7.7,1.4,1.2,2.2,1.6.6.3,1,.5,1.3.6.3,0,.6,0,.8,0,.2-.1.2-.3.2-.6s-.1-.7-.4-1.1c-.3-.4-.6-.7-1-1.1-.4-.4-.9-.8-1.4-1.2-.5-.4-1-.9-1.5-1.4-.5-.5-1-1-1.4-1.5-.4-.5-.8-1.1-1-1.8-.3-.6-.4-1.3-.4-2.1s.2-1.4.6-1.9c.4-.4.9-.6,1.7-.6.8,0,1.7.4,2.9,1.1.8.4,1.5,1,2.3,1.6.7.6,1.4,1.3,2,2.1l-.9,2c-.6-.7-1.1-1.3-1.7-1.8-.6-.5-1.1-.9-1.7-1.2-.5-.3-1-.5-1.3-.6-.3,0-.6,0-.7.2-.1.1-.2.4-.2.7s.1.7.4,1.1c.3.4.6.7,1,1.1.4.4.9.8,1.4,1.2.5.4,1,.9,1.5,1.3.5.5,1,1,1.4,1.5.4.5.8,1.1,1,1.7.3.6.4,1.3.4,2.1s-.2,1.4-.6,1.8-1,.6-1.7.6c-.8,0-1.7-.4-2.9-1.1ZM236.4,217.8c-.9-.5-1.8-1.2-2.6-2-.8-.8-1.5-1.7-2.1-2.7-.6-1-1.1-2-1.4-3.1-.3-1.1-.5-2.1-.5-3.2s.2-1.9.5-2.6c.3-.7.8-1.2,1.4-1.5.6-.3,1.3-.4,2.1-.3.8.1,1.7.4,2.6,1,1.1.6,2,1.4,2.8,2.3.9.9,1.6,1.9,2.1,3.1l-1.8.9c-.4-.8-.9-1.5-1.4-2-.5-.6-1.1-1-1.7-1.4-.6-.3-1.1-.5-1.6-.6-.5,0-.9,0-1.2.2-.3.2-.6.5-.8.9-.2.4-.3,1-.3,1.7s0,1.3.3,2c.2.7.5,1.3.8,1.9.3.6.8,1.1,1.2,1.6.5.5,1,.9,1.6,1.2.6.3,1.2.5,1.7.6.5,0,1-.1,1.4-.5l1.8,3c-.6.5-1.3.7-2.1.6-.8,0-1.8-.4-2.9-1ZM243.3,221.5v-14l5.2,3c1.1.6,2,1.4,2.8,2.2.8.9,1.4,1.8,1.8,2.8.4,1,.6,2,.6,3.1s-.2,1.8-.6,2.3c-.4.5-1,.7-1.8.7-.8,0-1.7-.4-2.8-1l-3.7-2.1,1.2-.7v5.3l-2.8-1.6ZM251,226l-3-6.8,3,1.7,3.1,6.8-3-1.8ZM246.1,218.2l-1.2-2.2,3.5,2c.9.5,1.5.7,1.9.5.4-.2.6-.7.6-1.4s-.2-1.5-.6-2.2-1.1-1.3-1.9-1.8l-3.5-2,1.2-.8v7.9ZM256,228.9v-14l2.8,1.6v14l-2.8-1.6ZM261.7,232.2v-14l5.2,3c1.1.6,2,1.4,2.8,2.2.8.9,1.4,1.8,1.8,2.8.4,1,.6,2,.6,3.1s-.2,1.8-.6,2.3c-.4.5-1,.8-1.8.7-.8,0-1.7-.4-2.8-1l-3.7-2.1,1.2-.7v5.3l-2.8-1.6ZM264.5,228.8l-1.2-2.3,3.5,2c.9.5,1.5.7,1.9.5.4-.2.6-.6.6-1.4s-.2-1.5-.6-2.2c-.4-.7-1.1-1.3-1.9-1.8l-3.5-2,1.2-.8v7.9ZM276.4,240.7v-11.4l-3.9-2.2v-2.6l10.6,6.1v2.6l-3.9-2.2v11.4l-2.8-1.6Z"/>
        </g>
        <g id="_x24_" class="st18">
          <path class="st17" d="M129.9,617v-112.8l10.4,6v112.8l-10.4-6ZM133.6,606.2c-5.8-3.4-11.4-7.5-16.7-12.3-5.3-4.9-9.6-9.8-12.9-14.5l5.7-11.3c3.1,4.4,6.8,8.6,11,12.7,4.3,4.1,8.6,7.4,13,9.9,3.3,1.9,6,3.1,8,3.5,2.1.4,3.6.2,4.6-.6,1-.8,1.5-2.1,1.5-3.8s-.8-4.4-2.3-6.6c-1.5-2.2-3.5-4.5-6-6.7-2.5-2.3-5.3-4.7-8.3-7.2-3-2.5-6-5.2-9-8.1-3-2.8-5.7-5.9-8.2-9.1-2.5-3.2-4.5-6.7-6.1-10.5-1.5-3.8-2.3-7.9-2.3-12.4s1.1-8.5,3.3-11.2c2.3-2.7,5.7-3.9,10.2-3.6,4.6.2,10.3,2.3,17.1,6.3,4.6,2.6,9.1,5.9,13.5,9.7,4.4,3.8,8.3,7.9,11.7,12.3l-5.2,11.8c-3.4-4.2-6.8-7.8-10.2-10.8-3.4-3.1-6.7-5.6-10-7.4s-5.9-3-8-3.3c-2.1-.3-3.6,0-4.5.9-.9.8-1.4,2.2-1.4,4s.8,4.4,2.3,6.6c1.5,2.2,3.5,4.4,6,6.6,2.5,2.2,5.2,4.6,8.2,7.1,3,2.6,6.1,5.2,9,8,3,2.8,5.8,5.8,8.3,9,2.5,3.2,4.5,6.7,6,10.4,1.6,3.8,2.4,7.9,2.4,12.3s-1.1,8.4-3.4,11c-2.3,2.6-5.7,3.8-10.3,3.5-4.5-.2-10.2-2.3-17.1-6.3Z"/>
        </g>
        <g id="Group_29">
          <path id="Subtract_3" class="st8" d="M351.7,182.9l-149.6-94.9v369.1l226.7,143.8v-273.5l-77.1-144.5Z"/>
          <path id="Subtract_4" class="st9" d="M351.7,182.9l-149.6-94.9v369.1l226.7,143.8v-273.5l-77.1-144.5Z"/>
        </g>
        <path id="Union" class="st3" d="M202.1,88.9l25.1-15.9,143.2,93.8h0s80.5,144.7,80.5,144.7h.2c0-.1,0,272.8,0,272.8l-25.1,15.9v-272.8h0s-76.8-145.4-76.8-145.4h-.2c0,.1-146.9-93.1-146.9-93.1Z"/>
        <g id="Group_30">
          <g id="Rectangle_161" class="st18">
            <polygon class="st17" points="213.6 256 403.8 367 403.8 374.3 213.6 263.4 213.6 256"/>
          </g>
          <g id="Rectangle_164" class="st18">
            <polygon class="st17" points="213.6 297 321.8 360.1 321.8 367.5 213.6 304.4 213.6 297"/>
          </g>
          <g id="Rectangle_169" class="st18">
            <polygon class="st17" points="327.2 363.3 403.8 408 403.8 415.4 327.2 370.7 327.2 363.3"/>
          </g>
          <g id="Rectangle_170" class="st18">
            <polygon class="st17" points="327.2 390.6 403.8 435.3 403.8 442.7 327.2 398 327.2 390.6"/>
          </g>
          <g id="Rectangle_163" class="st18">
            <polygon class="st17" points="213.6 283.4 403.8 394.3 403.8 401.7 213.6 290.7 213.6 283.4"/>
          </g>
          <g id="Rectangle_162" class="st18">
            <polygon class="st17" points="213.6 269.7 403.8 380.7 403.8 388 213.6 277 213.6 269.7"/>
          </g>
          <g id="Rectangle_165" class="st18">
            <polygon class="st17" points="213.6 310.7 403.8 421.7 403.8 429 213.6 318.1 213.6 310.7"/>
          </g>
          <g id="Rectangle_166" class="st18">
            <polygon class="st17" points="213.6 351.7 403.8 462.7 403.8 470.1 213.6 359.1 213.6 351.7"/>
          </g>
          <g id="Rectangle_167" class="st18">
            <polygon class="st17" points="213.6 338.1 403.8 449 403.8 456.4 213.6 345.4 213.6 338.1"/>
          </g>
          <g id="Rectangle_168" class="st18">
            <polygon class="st17" points="213.6 324.4 321.8 387.5 321.8 394.8 213.6 331.7 213.6 324.4"/>
          </g>
        </g>
        <path id="Union_2" class="st2" d="M202.1,88.9l25.1-15.9,143.2,93.8h0s80.5,144.7,80.5,144.7h.2c0-.1,0,272.8,0,272.8l-25.1,15.9v-272.8h0s-76.8-145.4-76.8-145.4h-.2c0,.1-146.9-93.1-146.9-93.1Z"/>
        <g id="Group_41">
          <g id="Rectangle_161_x5F_2" class="st18">
            <polygon class="st17" points="213.6 256 403.8 367 403.8 374.3 213.6 263.4 213.6 256"/>
          </g>
          <g id="Rectangle_164_x5F_2" class="st18">
            <polygon class="st17" points="213.6 297 321.8 360.1 321.8 367.5 213.6 304.4 213.6 297"/>
          </g>
          <g id="Rectangle_169_x5F_2" class="st18">
            <polygon class="st17" points="327.2 363.3 403.8 408 403.8 415.4 327.2 370.7 327.2 363.3"/>
          </g>
          <g id="Rectangle_170_x5F_2" class="st18">
            <polygon class="st17" points="327.2 390.6 403.8 435.3 403.8 442.7 327.2 398 327.2 390.6"/>
          </g>
          <g id="Rectangle_163_x5F_2" class="st18">
            <polygon class="st17" points="213.6 283.4 403.8 394.3 403.8 401.7 213.6 290.7 213.6 283.4"/>
          </g>
          <g id="Rectangle_162_x5F_2" class="st18">
            <polygon class="st17" points="213.6 269.7 403.8 380.7 403.8 388 213.6 277 213.6 269.7"/>
          </g>
          <g id="Rectangle_165_x5F_2" class="st18">
            <polygon class="st17" points="213.6 310.7 403.8 421.7 403.8 429 213.6 318.1 213.6 310.7"/>
          </g>
          <g id="Rectangle_166_x5F_2" class="st18">
            <polygon class="st17" points="213.6 351.7 403.8 462.7 403.8 470.1 213.6 359.1 213.6 351.7"/>
          </g>
          <g id="Rectangle_167_x5F_2" class="st18">
            <polygon class="st17" points="213.6 338.1 403.8 449 403.8 456.4 213.6 345.4 213.6 338.1"/>
          </g>
          <g id="Rectangle_168_x5F_2" class="st18">
            <polygon class="st17" points="213.6 324.4 321.8 387.5 321.8 394.8 213.6 331.7 213.6 324.4"/>
          </g>
        </g>
        <g id="Group_50">
          <path id="Subtract_5" class="st4" d="M440.7,125.9L291.1,31v369.1l226.7,143.8v-273.5l-77.1-144.5Z"/>
          <path id="Subtract_6" class="st5" d="M440.7,125.9L291.1,31v369.1l226.7,143.8v-273.5l-77.1-144.5Z"/>
        </g>
        <g id="Group_40">
          <path id="Subtract_7" class="st0" d="M351.7,182.9l-149.6-94.9v369.1l226.7,143.8v-273.5l-77.1-144.5Z"/>
          <path id="Subtract_8" class="st1" d="M351.7,182.9l-149.6-94.9v369.1l226.7,143.8v-273.5l-77.1-144.5Z"/>
        </g>
      </g>
    </g>
  </g>
</svg>