<svg width="615" height="673" viewBox="0 0 615 673" fill="none" xmlns="http://www.w3.org/2000/svg">
<rect width="405.476" height="232.343" rx="44" transform="matrix(0.876746 0.480953 -0.876746 0.480953 215.852 366.238)" fill="url(#paint0_linear_149_3)"/>
<rect width="405.476" height="232.343" rx="44" transform="matrix(0.876746 0.480953 -0.876746 0.480953 203.703 282.609)" fill="url(#paint1_linear_149_3)"/>
<rect width="405.476" height="232.343" rx="44" transform="matrix(0.876746 0.480953 -0.876746 0.480953 203.703 324.424)" fill="url(#paint2_linear_149_3)"/>
<g style="mix-blend-mode:screen">
<path d="M24.0293 214.327C22.0186 215.43 20.2184 215.858 18.6285 215.61C17.0387 215.336 15.7879 214.368 14.8761 212.709C13.9643 211.049 13.5083 208.686 13.5083 205.619C13.5083 202.552 13.9643 199.689 14.8761 197.029C15.7879 194.368 17.0387 192.042 18.6285 190.05C20.2184 188.031 22.0186 186.47 24.0293 185.367C26.0634 184.252 27.8636 183.837 29.4301 184.125C31.0199 184.373 32.2707 185.326 33.1825 186.986C34.0944 188.646 34.5503 191.009 34.5503 194.076C34.5503 197.143 34.0944 200.006 33.1825 202.666C32.2707 205.326 31.0199 207.666 29.4301 209.685C27.8636 211.664 26.0634 213.212 24.0293 214.327ZM24.0293 208.847C24.9879 208.322 25.8179 207.56 26.5193 206.562C27.244 205.551 27.8052 204.269 28.2026 202.718C28.6235 201.154 28.8339 199.318 28.8339 197.212C28.8339 195.105 28.6235 193.501 28.2026 192.398C27.8052 191.283 27.244 190.617 26.5193 190.402C25.8179 190.173 24.9879 190.322 24.0293 190.847C23.0941 191.36 22.2641 192.122 21.5393 193.133C20.8379 194.131 20.2768 195.413 19.856 196.977C19.4585 198.528 19.2598 200.357 19.2598 202.464C19.2598 204.57 19.4585 206.181 19.856 207.297C20.2768 208.399 20.8379 209.065 21.5393 209.293C22.2641 209.509 23.0941 209.36 24.0293 208.847ZM40.9612 204.559V178.959L43.4161 180.412L36.0514 184.453V179.253L46.6425 173.443V201.443L40.9612 204.559ZM61.428 193.812C59.4173 194.915 57.6171 195.342 56.0273 195.094C54.4374 194.82 53.1866 193.853 52.2748 192.193C51.363 190.533 50.9071 188.17 50.9071 185.103C50.9071 182.037 51.363 179.173 52.2748 176.513C53.1866 173.853 54.4374 171.527 56.0273 169.534C57.6171 167.516 59.4173 165.955 61.428 164.852C63.4621 163.736 65.2623 163.322 66.8288 163.609C68.4186 163.857 69.6694 164.811 70.5813 166.471C71.4931 168.13 71.949 170.494 71.949 173.56C71.949 176.627 71.4931 179.49 70.5813 182.151C69.6694 184.811 68.4186 187.15 66.8288 189.169C65.2623 191.148 63.4621 192.696 61.428 193.812ZM61.428 188.332C62.3866 187.806 63.2166 187.044 63.918 186.046C64.6428 185.035 65.2039 183.754 65.6013 182.202C66.0222 180.638 66.2326 178.803 66.2326 176.696C66.2326 174.589 66.0222 172.985 65.6013 171.882C65.2039 170.767 64.6428 170.102 63.918 169.886C63.2166 169.657 62.3866 169.806 61.428 170.332C60.4928 170.845 59.6628 171.607 58.9381 172.618C58.2367 173.616 57.6755 174.897 57.2547 176.461C56.8572 178.012 56.6585 179.841 56.6585 181.948C56.6585 184.055 56.8572 185.666 57.2547 186.781C57.6755 187.884 58.2367 188.549 58.9381 188.778C59.6628 188.993 60.4928 188.845 61.428 188.332ZM78.3599 184.044V158.444L80.8148 159.897L73.4501 163.937V158.737L84.0412 152.927V180.927L78.3599 184.044ZM98.8267 173.296C96.8161 174.399 95.0158 174.827 93.426 174.579C91.8361 174.304 90.5853 173.337 89.6735 171.677C88.7617 170.017 88.3058 167.654 88.3058 164.588C88.3058 161.521 88.7617 158.657 89.6735 155.997C90.5853 153.337 91.8361 151.011 93.426 149.019C95.0158 147 96.8161 145.439 98.8267 144.336C100.861 143.22 102.661 142.806 104.227 143.093C105.817 143.341 107.068 144.295 107.98 145.955C108.892 147.615 109.348 149.978 109.348 153.045C109.348 156.111 108.892 158.975 107.98 161.635C107.068 164.295 105.817 166.635 104.227 168.653C102.661 170.633 100.861 172.18 98.8267 173.296ZM98.8267 167.816C99.7853 167.29 100.615 166.528 101.317 165.53C102.041 164.519 102.603 163.238 103 161.687C103.421 160.123 103.631 158.287 103.631 156.181C103.631 154.074 103.421 152.469 103 151.367C102.603 150.251 102.041 149.586 101.317 149.37C100.615 149.142 99.7853 149.29 98.8267 149.816C97.8915 150.329 97.0616 151.091 96.3368 152.102C95.6354 153.1 95.0743 154.381 94.6534 155.945C94.256 157.497 94.0572 159.326 94.0572 161.433C94.0572 163.539 94.256 165.15 94.6534 166.265C95.0743 167.368 95.6354 168.033 96.3368 168.262C97.0616 168.478 97.8915 168.329 98.8267 167.816ZM24.0293 263.327C22.0186 264.43 20.2184 264.858 18.6285 264.61C17.0387 264.336 15.7879 263.368 14.8761 261.709C13.9643 260.049 13.5083 257.686 13.5083 254.619C13.5083 251.552 13.9643 248.689 14.8761 246.029C15.7879 243.368 17.0387 241.042 18.6285 239.05C20.2184 237.031 22.0186 235.47 24.0293 234.367C26.0634 233.252 27.8636 232.837 29.4301 233.125C31.0199 233.373 32.2707 234.326 33.1825 235.986C34.0944 237.646 34.5503 240.009 34.5503 243.076C34.5503 246.143 34.0944 249.006 33.1825 251.666C32.2707 254.326 31.0199 256.666 29.4301 258.685C27.8636 260.664 26.0634 262.212 24.0293 263.327ZM24.0293 257.847C24.9879 257.322 25.8179 256.56 26.5193 255.562C27.244 254.551 27.8052 253.269 28.2026 251.718C28.6235 250.154 28.8339 248.318 28.8339 246.212C28.8339 244.105 28.6235 242.501 28.2026 241.398C27.8052 240.283 27.244 239.617 26.5193 239.402C25.8179 239.173 24.9879 239.322 24.0293 239.847C23.0941 240.36 22.2641 241.122 21.5393 242.133C20.8379 243.131 20.2768 244.413 19.856 245.977C19.4585 247.528 19.2598 249.357 19.2598 251.464C19.2598 253.57 19.4585 255.181 19.856 256.297C20.2768 257.399 20.8379 258.065 21.5393 258.293C22.2641 258.509 23.0941 258.36 24.0293 257.847ZM40.9612 253.559V227.959L43.4161 229.412L36.0514 233.453V228.253L46.6425 222.443V250.443L40.9612 253.559ZM54.6946 246.025V220.425L57.1495 221.879L49.7848 225.919V220.719L60.3759 214.909V242.909L54.6946 246.025Z" fill="white"/>
</g>
<rect width="405.476" height="232.343" rx="44" transform="matrix(0.876746 0.480953 -0.876746 0.480953 203.703 260.981)" fill="url(#paint3_linear_149_3)"/>
<g style="mix-blend-mode:screen">
<rect width="94.5467" height="57.7721" rx="15" transform="matrix(0.876746 0.480953 -0.876746 0.480953 187.242 408.054)" fill="url(#paint4_linear_149_3)"/>
</g>
<g style="mix-blend-mode:screen">
<rect width="348.24" height="121.342" rx="28" transform="matrix(0.876746 0.480953 -0.876746 0.480953 199.672 287.106)" fill="url(#paint5_linear_149_3)"/>
</g>
<rect x="1.31512" y="2.22143" width="402.476" height="220.492" rx="42.5" transform="matrix(0.876746 0.480953 0 1 203.514 17.3909)" fill="url(#paint6_linear_149_3)" stroke="#C2FFFE" stroke-width="3"/>
<rect width="405.476" height="223.492" rx="44" transform="matrix(0.876746 0.480953 0 1 259.5 0)" fill="url(#paint7_linear_149_3)"/>
<rect x="1.31512" y="0.778571" width="152.779" height="168.954" rx="13.5" transform="matrix(0.876746 -0.480953 0 1 0.162093 115.927)" fill="url(#paint8_linear_149_3)" stroke="#C2FFFE" stroke-width="3"/>
<rect x="1.31512" y="0.778571" width="152.779" height="168.954" rx="13.5" transform="matrix(0.876746 -0.480953 0 1 368.928 325.002)" fill="url(#paint9_linear_149_3)" stroke="#C2FFFE" stroke-width="3"/>
<g style="mix-blend-mode:screen">
<rect width="370.409" height="3.94402" transform="matrix(0.876746 0.480953 0 1 218.531 91.5586)" fill="#FEFEFE"/>
<rect width="370.409" height="3.94402" transform="matrix(0.876746 0.480953 0 1 218.531 116.35)" fill="#FEFEFE"/>
<rect width="370.409" height="3.94402" transform="matrix(0.876746 0.480953 0 1 218.531 103.955)" fill="#FEFEFE"/>
<rect width="370.409" height="3.94402" transform="matrix(0.876746 0.480953 0 1 218.531 165.932)" fill="#FEFEFE"/>
<rect width="370.409" height="3.94402" transform="matrix(0.876746 0.480953 0 1 218.531 190.723)" fill="#FEFEFE"/>
<rect width="370.409" height="3.94402" transform="matrix(0.876746 0.480953 0 1 218.531 178.326)" fill="#FEFEFE"/>
<rect width="370.409" height="3.94402" transform="matrix(0.876746 0.480953 0 1 218.531 128.745)" fill="#FEFEFE"/>
<rect width="370.409" height="3.94402" transform="matrix(0.876746 0.480953 0 1 218.531 153.536)" fill="#FEFEFE"/>
<rect width="370.409" height="3.94402" transform="matrix(0.876746 0.480953 0 1 218.531 141.141)" fill="#FEFEFE"/>
</g>
<path d="M376.359 408.974C384.323 400.545 391.744 392.944 399.341 383.993C403.718 378.836 409.157 365.347 412.164 368.133C414.981 370.744 414.53 376.858 415.412 381.456C416.717 388.262 418.914 395.233 419.492 402.601C419.777 406.242 412.805 415.886 410.832 412.265C408.128 407.302 418.033 394.519 420.991 388.768C424.475 381.992 426.611 374.866 430.15 368.002C433.555 361.4 432.93 366.261 431.732 369.318C430.851 371.567 429.652 370.641 429.983 370.459C431.687 369.525 433.107 370.006 435.313 368.082C442.109 362.154 449.109 362.34 456.462 358.482C464.801 354.105 464.23 360.667 470.784 350.625C471.955 348.832 478.038 337.805 479.944 338.322C482.786 339.092 485.285 340.765 488.271 341.215C491.108 341.643 496.376 338.468 497.763 340.739" stroke="#C3FFFE" stroke-width="3" stroke-linecap="round"/>
<defs>
<linearGradient id="paint0_linear_149_3" x1="202.738" y1="0" x2="202.738" y2="232.343" gradientUnits="userSpaceOnUse">
<stop offset="1" stop-color="#13B3D3" stop-opacity="0.21"/>
</linearGradient>
<linearGradient id="paint1_linear_149_3" x1="202.738" y1="0" x2="202.738" y2="232.343" gradientUnits="userSpaceOnUse">
<stop offset="1" stop-color="#13B3D3"/>
</linearGradient>
<linearGradient id="paint2_linear_149_3" x1="202.738" y1="0" x2="202.738" y2="232.343" gradientUnits="userSpaceOnUse">
<stop offset="1" stop-color="#13B3D3" stop-opacity="0.31"/>
</linearGradient>
<linearGradient id="paint3_linear_149_3" x1="353.609" y1="232.343" x2="346.168" y2="-9.0708" gradientUnits="userSpaceOnUse">
<stop stop-color="#13EDB1"/>
<stop offset="1" stop-color="#13B3D3"/>
</linearGradient>
<linearGradient id="paint4_linear_149_3" x1="69.8078" y1="57.7721" x2="63.6872" y2="-3.86745" gradientUnits="userSpaceOnUse">
<stop offset="1" stop-color="#13B3D3"/>
</linearGradient>
<linearGradient id="paint5_linear_149_3" x1="257.12" y1="121.342" x2="249.741" y2="-8.98166" gradientUnits="userSpaceOnUse">
<stop offset="1" stop-color="#13B3D3"/>
</linearGradient>
<linearGradient id="paint6_linear_149_3" x1="202.738" y1="0" x2="202.738" y2="223.492" gradientUnits="userSpaceOnUse">
<stop stop-color="#13EDB1" stop-opacity="0.31"/>
<stop offset="1" stop-color="#13B3D3" stop-opacity="0.31"/>
</linearGradient>
<linearGradient id="paint7_linear_149_3" x1="202.738" y1="0" x2="202.738" y2="223.492" gradientUnits="userSpaceOnUse">
<stop stop-color="#13EDB1" stop-opacity="0.13"/>
<stop offset="1" stop-color="#13B3D3" stop-opacity="0.31"/>
</linearGradient>
<linearGradient id="paint8_linear_149_3" x1="77.8897" y1="0" x2="77.8897" y2="171.954" gradientUnits="userSpaceOnUse">
<stop stop-color="#13EDB1" stop-opacity="0.31"/>
<stop offset="1" stop-color="#13B3D3" stop-opacity="0.31"/>
</linearGradient>
<linearGradient id="paint9_linear_149_3" x1="77.8897" y1="0" x2="77.8897" y2="171.954" gradientUnits="userSpaceOnUse">
<stop stop-color="#13EDB1" stop-opacity="0.31"/>
<stop offset="1" stop-color="#13B3D3" stop-opacity="0.31"/>
</linearGradient>
</defs>
</svg>
