<svg xmlns="http://www.w3.org/2000/svg" viewBox="0 0 574.8 706" xmlns:v="https://vecta.io/nano"><style>.A{isolation:isolate}.D{mix-blend-mode:screen}</style><defs><linearGradient id="A" x1="544.9" y1="124.9" x2="377.9" y2="388.1" href="#a"><stop offset="0" stop-color="#6cffd7" stop-opacity="0"/><stop offset="1" stop-color="#13b3d3" stop-opacity=".2"/></linearGradient><linearGradient id="B" x1="192.6" y1="469" x2="127.4" y2="609.8" href="#a"><stop offset="0" stop-color="#13edb1" stop-opacity=".3"/><stop offset="1" stop-color="#13b3d3" stop-opacity=".4"/></linearGradient><linearGradient id="C" x1="236.6" y1="454" x2="171.4" y2="594.8" href="#a"><stop offset="0" stop-color="#13edb1" stop-opacity="0"/><stop offset="1" stop-color="#13b3d3" stop-opacity=".2"/></linearGradient><linearGradient id="D" x1="161.6" y1="143" x2="96.4" y2="283.8" href="#a"><stop offset="0" stop-color="#13edb1" stop-opacity="0"/><stop offset="1" stop-color="#13b3d3" stop-opacity=".2"/></linearGradient><linearGradient id="E" x1="130.4" y1="154.3" x2="59.8" y2="308.9" href="#a"><stop offset="0" stop-color="#13edb1" stop-opacity=".3"/><stop offset="1" stop-color="#13b3d3" stop-opacity=".4"/></linearGradient><linearGradient id="F" x1="398.9" y1="212.9" x2="231.9" y2="476.1" href="#a"><stop offset="0" stop-color="#6cffd7" stop-opacity=".2"/><stop offset="1" stop-color="#13b3d3" stop-opacity=".5"/></linearGradient><linearGradient id="G" x1="188.4" y1="483.4" x2="464.8" y2="189.8" href="#a"><stop offset="0" stop-color="#13edb1" stop-opacity=".5"/><stop offset="1" stop-color="#13b3d3" stop-opacity=".5"/></linearGradient><linearGradient id="H" x1="487.9" y1="155.9" x2="320.9" y2="419.1" href="#a"><stop offset="0" stop-color="#6cffd7" stop-opacity=".1"/><stop offset="1" stop-color="#13b3d3" stop-opacity=".2"/></linearGradient><path id="I" d="M497.7 94.9L348.1 0v369.1l226.7 143.8V239.4L497.7 94.9z"/><path id="J" d="M80.1 448.5l-6.6-3.6v167.9l6.6 3.6 133 71.8 6.6 3.6V523.9l-6.6-3.6-133-71.8z"/><path id="K" d="M124.1 441l133 71.8v152.9l-133-71.8V441z"/><path id="L" d="M49.1 130l133 71.8v152.9l-133-71.8V130z"/><path id="M" d="M14.1 136.5l-6.6-3.6V315l6.6 3.6 133 71.8 6.6 3.6V212l-6.6-3.6-133-71.9z"/><path id="N" d="M351.7 182.9L202.1 88v369.1l226.7 143.8V327.4l-77.1-144.5z"/><path id="O" d="M202.1 88.9L227.2 73l143.2 93.8h0l80.5 144.7h.2c0-.1 0 272.8 0 272.8L426 600.2V327.4h0L349.2 182h-.2c0 .1-146.9-93.1-146.9-93.1z"/><path id="P" d="M213.6 256l190.2 111v7.3L213.6 263.4V256z"/><path id="Q" d="M213.6 297l108.2 63.1v7.4l-108.2-63.1V297z"/><path id="R" d="M327.2 363.3l76.6 44.7v7.4l-76.6-44.7v-7.4z"/><path id="S" d="M327.2 390.6l76.6 44.7v7.4L327.2 398v-7.4z"/><path id="T" d="M213.6 283.4l190.2 110.9v7.4l-190.2-111v-7.3z"/><path id="U" d="M213.6 269.7l190.2 111v7.3L213.6 277v-7.3z"/><path id="V" d="M213.6 310.7l190.2 111v7.3L213.6 318.1v-7.4z"/><path id="W" d="M213.6 351.7l190.2 111v7.4l-190.2-111v-7.4z"/><path id="X" d="M213.6 338.1L403.8 449v7.4l-190.2-111v-7.3z"/><path id="Y" d="M213.6 324.4l108.2 63.1v7.3l-108.2-63.1v-7.3z"/><path id="Z" d="M440.7 125.9L291.1 31v369.1l226.7 143.8V270.4l-77.1-144.5z"/><linearGradient id="a" gradientUnits="userSpaceOnUse"/></defs><g class="A"><g fill-rule="evenodd"><use href="#I" fill="url(#A)"/><use href="#I" fill="url(#A)"/></g><g class="D"><use href="#J" fill="url(#B)"/><use href="#J" fill="none" stroke="#13b3d3" stroke-width="15"/><use href="#K" fill="url(#C)"/><use href="#K" fill="url(#C)"/><use href="#L" fill="url(#D)"/><use href="#L" fill="url(#D)"/><use href="#M" fill="url(#E)"/><use href="#M" fill="none" stroke="#13b3d3" stroke-width="15"/></g><path d="M75.6 302.4l9-78.8 11.6 6.7-8.9 78.8-11.7-6.8zM37.2 261v-13.1l67.1 38.8v13.1L37.2 261zm11.5 25.9l9-78.8 11.6 6.7-9 78.8-11.6-6.7zm-8-56.4v-13.1l67 38.7v13.1c.1 0-67-38.8-67-38.8zm182.8-20.1c-1-.6-1.9-1.2-2.8-2s-1.6-1.6-2.1-2.4l1-1.9a16.8 16.8 0 0 0 1.8 2.1c.7.7 1.4 1.2 2.2 1.6l1.3.6h.8c.2-.1.2-.3.2-.6s-.1-.7-.4-1.1-.6-.7-1-1.1-.9-.8-1.4-1.2-1-.9-1.5-1.4l-1.4-1.5c-.4-.5-.8-1.1-1-1.8-.3-.6-.4-1.3-.4-2.1s.2-1.4.6-1.9c.4-.4.9-.6 1.7-.6s1.7.4 2.9 1.1c.8.4 1.5 1 2.3 1.6.7.6 1.4 1.3 2 2.1l-.9 2c-.6-.7-1.1-1.3-1.7-1.8s-1.1-.9-1.7-1.2c-.5-.3-1-.5-1.3-.6-.3 0-.6 0-.7.2-.1.1-.2.4-.2.7s.1.7.4 1.1.6.7 1 1.1.9.8 1.4 1.2l1.5 1.3 1.4 1.5c.4.5.8 1.1 1 1.7.3.6.4 1.3.4 2.1s-.2 1.4-.6 1.8-1 .6-1.7.6c-.8 0-1.7-.4-2.9-1.1zm12.9 7.4c-.9-.5-1.8-1.2-2.6-2s-1.5-1.7-2.1-2.7-1.1-2-1.4-3.1-.5-2.1-.5-3.2.2-1.9.5-2.6a2.94 2.94 0 0 1 1.4-1.5c.6-.3 1.3-.4 2.1-.3s1.7.4 2.6 1c1.1.6 2 1.4 2.8 2.3a9.45 9.45 0 0 1 2.1 3.1l-1.8.9c-.4-.8-.9-1.5-1.4-2-.5-.6-1.1-1-1.7-1.4-.6-.3-1.1-.5-1.6-.6-.5 0-.9 0-1.2.2a2.36 2.36 0 0 0-.8.9c-.2.4-.3 1-.3 1.7s0 1.3.3 2c.2.7.5 1.3.8 1.9s.8 1.1 1.2 1.6c.5.5 1 .9 1.6 1.2s1.2.5 1.7.6c.5 0 1-.1 1.4-.5l1.8 3c-.6.5-1.3.7-2.1.6-.8 0-1.8-.4-2.9-1zm6.9 3.7v-14l5.2 3c1.1.6 2 1.4 2.8 2.2.8.9 1.4 1.8 1.8 2.8a8.15 8.15 0 0 1 .6 3.1c0 1.1-.2 1.8-.6 2.3s-1 .7-1.8.7-1.7-.4-2.8-1l-3.7-2.1 1.2-.7v5.3l-2.8-1.6zm7.7 4.5l-3-6.8 3 1.7 3.1 6.8-3-1.8zm-4.9-7.8l-1.2-2.2 3.5 2c.9.5 1.5.7 1.9.5s.6-.7.6-1.4a4.56 4.56 0 0 0-.6-2.2c-.4-.7-1.1-1.3-1.9-1.8l-3.5-2 1.2-.8v7.9zm9.9 10.7v-14l2.8 1.6v14l-2.8-1.6zm5.7 3.3v-14l5.2 3c1.1.6 2 1.4 2.8 2.2.8.9 1.4 1.8 1.8 2.8a8.15 8.15 0 0 1 .6 3.1c0 1.1-.2 1.8-.6 2.3s-1 .8-1.8.7c-.8 0-1.7-.4-2.8-1l-3.7-2.1 1.2-.7v5.3l-2.8-1.6zm2.8-3.4l-1.2-2.3 3.5 2c.9.5 1.5.7 1.9.5s.6-.6.6-1.4-.2-1.5-.6-2.2-1.1-1.3-1.9-1.8l-3.5-2 1.2-.8v7.9zm11.9 11.9v-11.4l-3.9-2.2v-2.6l10.6 6.1v2.6l-3.9-2.2v11.4l-2.8-1.6zM129.9 617V504.2l10.4 6V623l-10.4-6zm3.7-10.8c-5.8-3.4-11.4-7.5-16.7-12.3-5.3-4.9-9.6-9.8-12.9-14.5l5.7-11.3c3.1 4.4 6.8 8.6 11 12.7 4.3 4.1 8.6 7.4 13 9.9 3.3 1.9 6 3.1 8 3.5 2.1.4 3.6.2 4.6-.6s1.5-2.1 1.5-3.8-.8-4.4-2.3-6.6-3.5-4.5-6-6.7c-2.5-2.3-5.3-4.7-8.3-7.2a164.38 164.38 0 0 1-9-8.1c-3-2.8-5.7-5.9-8.2-9.1s-4.5-6.7-6.1-10.5c-1.5-3.8-2.3-7.9-2.3-12.4s1.1-8.5 3.3-11.2c2.3-2.7 5.7-3.9 10.2-3.6 4.6.2 10.3 2.3 17.1 6.3 4.6 2.6 9.1 5.9 13.5 9.7s8.3 7.9 11.7 12.3l-5.2 11.8c-3.4-4.2-6.8-7.8-10.2-10.8-3.4-3.1-6.7-5.6-10-7.4s-5.9-3-8-3.3-3.6 0-4.5.9c-.9.8-1.4 2.2-1.4 4s.8 4.4 2.3 6.6 3.5 4.4 6 6.6l8.2 7.1c3 2.6 6.1 5.2 9 8 3 2.8 5.8 5.8 8.3 9s4.5 6.7 6 10.4c1.6 3.8 2.4 7.9 2.4 12.3s-1.1 8.4-3.4 11-5.7 3.8-10.3 3.5c-4.5-.2-10.2-2.3-17.1-6.3z" fill="#fff" class="D"/><g fill-rule="evenodd"><use href="#N" fill="url(#F)"/><use href="#N" fill="url(#F)"/><use href="#O" fill="url(#G)"/></g><g fill="#fff" class="D"><use href="#P"/><use href="#Q"/><use href="#R"/><use href="#S"/><use href="#T"/><use href="#U"/><use href="#V"/><use href="#W"/><use href="#X"/><use href="#Y"/></g><use href="#O" fill-rule="evenodd" fill="url(#G)"/><g fill="#fff" class="D"><use href="#P"/><use href="#Q"/><use href="#R"/><use href="#S"/><use href="#T"/><use href="#U"/><use href="#V"/><use href="#W"/><use href="#X"/><use href="#Y"/></g><g fill-rule="evenodd"><use href="#Z" fill="url(#H)"/><use href="#Z" fill="url(#H)"/><use href="#N" fill="url(#F)"/><use href="#N" fill="url(#F)"/></g></g></svg>