<svg width="605" height="714" viewBox="0 0 605 714" fill="none" xmlns="http://www.w3.org/2000/svg">
<rect width="344.386" height="344.386" rx="62" transform="matrix(0.878374 0.477974 -0.878374 0.477974 302.5 384.784)" fill="url(#paint0_linear_137_43)"/>
<rect width="344.386" height="344.386" rx="62" transform="matrix(0.878374 0.477974 -0.878374 0.477974 302.5 350.185)" fill="url(#paint1_linear_137_43)"/>
<rect width="344.386" height="344.386" rx="62" transform="matrix(0.878374 0.477974 -0.878374 0.477974 302.5 286.229)" fill="url(#paint2_linear_137_43)"/>
<rect width="344.386" height="344.386" rx="62" transform="matrix(0.878374 0.477974 -0.878374 0.477974 302.5 239.049)" fill="url(#paint3_linear_137_43)"/>
<ellipse cx="92.0365" cy="87.0722" rx="92.0365" ry="87.0722" transform="matrix(0.677975 0.735085 -0.343149 0.939281 326.5 155.172)" fill="#13B3D3"/>
<ellipse cx="92.0365" cy="87.0722" rx="92.0365" ry="87.0722" transform="matrix(0.677975 0.735085 -0.343149 0.939281 301.156 156.926)" fill="#13EDB1"/>
<ellipse cx="92.0365" cy="87.0722" rx="92.0365" ry="87.0722" transform="matrix(0.677975 0.735085 -0.343149 0.939281 287.562 166.704)" fill="#13B3D3"/>
<ellipse cx="92.0365" cy="87.0722" rx="92.0365" ry="87.0722" transform="matrix(0.677975 0.735085 -0.343149 0.939281 262.219 168.458)" fill="#13EDB1"/>
<ellipse cx="92.0365" cy="87.0722" rx="92.0365" ry="87.0722" transform="matrix(0.677975 0.735085 -0.343149 0.939281 239.727 180.335)" fill="#13B3D3"/>
<path d="M302.601 269.454C302.601 249.016 299.201 227.564 293.148 209.819C287.096 192.074 278.887 179.488 270.328 174.83C261.768 170.173 253.56 173.825 247.507 184.983C241.455 196.141 238.055 213.892 238.055 234.33L246.993 239.194C246.993 224.416 249.451 211.582 253.828 203.514C258.204 195.446 264.139 192.805 270.328 196.173C276.517 199.541 282.452 208.641 286.828 221.471C291.204 234.302 293.663 249.812 293.663 264.59L302.601 269.454Z" fill="white"/>
<ellipse cx="92.0365" cy="87.0722" rx="92.0365" ry="87.0722" transform="matrix(0.677975 0.735085 -0.343149 0.939281 214.383 182.089)" fill="#13EDB1"/>
<g filter="url(#filter0_d_137_43)">
<path d="M241.276 287.271V266.511L248.338 270.354V291.114L241.276 287.271ZM227.257 279.642V258.882L234.319 262.725V283.485L227.257 279.642ZM241.276 376.071V355.311L248.338 359.154V379.914L241.276 376.071ZM227.257 368.442V347.682L234.319 351.525V372.285L227.257 368.442ZM216.4 350.774V265.094L234.53 274.96C240.573 278.248 245.598 281.702 249.603 285.322C253.679 288.9 256.735 292.843 258.773 297.152C260.881 301.419 261.935 306.233 261.935 311.593C261.935 314.793 261.584 317.521 260.881 319.779C260.179 322.037 259.16 323.642 257.825 324.596C256.489 325.549 254.873 325.75 252.976 325.197V325.797C255.014 327.466 256.841 329.46 258.457 331.78C260.073 334.099 261.373 336.887 262.357 340.142C263.341 343.397 263.833 347.265 263.833 351.745C263.833 356.945 262.849 360.89 260.881 363.579C258.914 366.188 256.068 367.48 252.344 367.453C248.69 367.385 244.333 365.974 239.273 363.221L216.4 350.774ZM236.322 309.895C239.836 311.807 242.26 312.286 243.595 311.333C244.93 310.379 245.598 308.302 245.598 305.102C245.598 301.822 244.79 299.023 243.173 296.703C241.557 294.384 238.992 292.268 235.479 290.356L232.317 288.635V307.715L236.322 309.895ZM232.317 322.115V344.435L237.481 347.246C241.136 349.234 243.665 349.571 245.071 348.256C246.546 346.899 247.284 344.46 247.284 340.94C247.284 338.78 246.968 336.728 246.335 334.784C245.703 332.84 244.614 331.007 243.068 329.286C241.592 327.603 239.554 326.054 236.954 324.639L232.317 322.115Z" fill="white"/>
</g>
<rect width="287.399" height="287.31" transform="matrix(0.878374 0.477974 -0.878374 0.477974 302.5 0)" fill="url(#paint4_linear_137_43)"/>
<rect width="287.399" height="274.653" transform="matrix(0.878374 0.477974 0 1 50.0625 137.348)" fill="url(#paint5_linear_137_43)"/>
<rect width="287.399" height="274.653" transform="matrix(0.878374 -0.477974 0 1 302.578 274.718)" fill="url(#paint6_linear_137_43)"/>
<defs>
<filter id="filter0_d_137_43" x="212.398" y="252.975" width="55.4375" height="143.37" filterUnits="userSpaceOnUse" color-interpolation-filters="sRGB">
<feFlood flood-opacity="0" result="BackgroundImageFix"/>
<feColorMatrix in="SourceAlpha" type="matrix" values="0 0 0 0 0 0 0 0 0 0 0 0 0 0 0 0 0 0 127 0" result="hardAlpha"/>
<feOffset dy="4"/>
<feGaussianBlur stdDeviation="2"/>
<feComposite in2="hardAlpha" operator="out"/>
<feColorMatrix type="matrix" values="0 0 0 0 0 0 0 0 0 0 0 0 0 0 0 0 0 0 0.25 0"/>
<feBlend mode="normal" in2="BackgroundImageFix" result="effect1_dropShadow_137_43"/>
<feBlend mode="normal" in="SourceGraphic" in2="effect1_dropShadow_137_43" result="shape"/>
</filter>
<linearGradient id="paint0_linear_137_43" x1="215.827" y1="344.386" x2="214.38" y2="-0.360091" gradientUnits="userSpaceOnUse">
<stop stop-color="#13B3D3" stop-opacity="0.12"/>
</linearGradient>
<linearGradient id="paint1_linear_137_43" x1="215.827" y1="344.386" x2="214.38" y2="-0.360091" gradientUnits="userSpaceOnUse">
<stop stop-color="#13EDB1" stop-opacity="0.42"/>
</linearGradient>
<linearGradient id="paint2_linear_137_43" x1="215.827" y1="344.386" x2="214.38" y2="-0.360091" gradientUnits="userSpaceOnUse">
<stop stop-color="#13B3D3"/>
</linearGradient>
<linearGradient id="paint3_linear_137_43" x1="13.2057" y1="152.466" x2="319.793" y2="109.9" gradientUnits="userSpaceOnUse">
<stop stop-color="#13B3D3"/>
<stop offset="1" stop-color="#13EDB1"/>
</linearGradient>
<linearGradient id="paint4_linear_137_43" x1="11.0205" y1="127.197" x2="266.872" y2="91.664" gradientUnits="userSpaceOnUse">
<stop stop-color="#13B3D3" stop-opacity="0.22"/>
<stop offset="1" stop-color="#13EDB1" stop-opacity="0.35"/>
</linearGradient>
<linearGradient id="paint5_linear_137_43" x1="11.0205" y1="121.594" x2="266.416" y2="84.4896" gradientUnits="userSpaceOnUse">
<stop stop-color="#13B3D3" stop-opacity="0.22"/>
<stop offset="1" stop-color="#13EDB1" stop-opacity="0.35"/>
</linearGradient>
<linearGradient id="paint6_linear_137_43" x1="11.0205" y1="121.594" x2="266.416" y2="84.4896" gradientUnits="userSpaceOnUse">
<stop stop-color="#13B3D3" stop-opacity="0.22"/>
<stop offset="1" stop-color="#13EDB1" stop-opacity="0.35"/>
</linearGradient>
</defs>
</svg>
