<?xml version="1.0" encoding="UTF-8"?>
<svg xmlns="http://www.w3.org/2000/svg" xmlns:xlink="http://www.w3.org/1999/xlink" version="1.1" viewBox="0 0 541.2 696.6">
  <defs>
    <style>
      .cls-1 {
        fill: url(#linear-gradient-7);
      }

      .cls-2 {
        fill: url(#linear-gradient-5);
      }

      .cls-3 {
        fill: url(#linear-gradient-6);
      }

      .cls-4 {
        fill: url(#linear-gradient-4);
      }

      .cls-5 {
        fill: url(#linear-gradient-3);
      }

      .cls-6 {
        fill: url(#linear-gradient-2);
      }

      .cls-7 {
        fill: url(#linear-gradient);
      }

      .cls-8 {
        fill: #13edb1;
      }

      .cls-9 {
        fill: #13b3d3;
      }

      .cls-10 {
        fill: #fff;
      }
    </style>
    <linearGradient id="linear-gradient" x1="212.1" y1="483" x2="210.6" y2="827.8" gradientTransform="translate(-491 761.8) rotate(28.6) scale(1 -.8) skewX(28.5)" gradientUnits="userSpaceOnUse">
      <stop offset="0" stop-color="#13b3d3" stop-opacity=".1"/>
      <stop offset="1" stop-color="#000"/>
    </linearGradient>
    <linearGradient id="linear-gradient-2" x1="212.1" y1="483" x2="210.6" y2="827.8" gradientTransform="translate(-491 727.2) rotate(28.6) scale(1 -.8) skewX(28.5)" gradientUnits="userSpaceOnUse">
      <stop offset="0" stop-color="#13edb1" stop-opacity=".4"/>
      <stop offset="1" stop-color="#000"/>
    </linearGradient>
    <linearGradient id="linear-gradient-3" x1="212.1" y1="483" x2="210.6" y2="827.8" gradientTransform="translate(-491 663.2) rotate(28.6) scale(1 -.8) skewX(28.5)" gradientUnits="userSpaceOnUse">
      <stop offset="0" stop-color="#13b3d3"/>
      <stop offset="1" stop-color="#000"/>
    </linearGradient>
    <linearGradient id="linear-gradient-4" x1="58.1" y1="634.4" x2="364.7" y2="677" gradientTransform="translate(-491 616) rotate(28.6) scale(1 -.8) skewX(28.5)" gradientUnits="userSpaceOnUse">
      <stop offset="0" stop-color="#13b3d3"/>
      <stop offset="1" stop-color="#13edb1"/>
    </linearGradient>
    <linearGradient id="linear-gradient-5" x1="54.9" y1="666.5" x2="310.8" y2="702" gradientTransform="translate(-491 377) rotate(28.6) scale(1 -.8) skewX(28.5)" gradientUnits="userSpaceOnUse">
      <stop offset="0" stop-color="#13b3d3" stop-opacity=".2"/>
      <stop offset="1" stop-color="#13edb1" stop-opacity=".3"/>
    </linearGradient>
    <linearGradient id="linear-gradient-6" x1="13" y1="673.9" x2="268.4" y2="711" gradientTransform="translate(20.8 968.5) rotate(28.6) scale(1 -.9) skewX(-25.5)" gradientUnits="userSpaceOnUse">
      <stop offset="0" stop-color="#13b3d3" stop-opacity=".2"/>
      <stop offset="1" stop-color="#13edb1" stop-opacity=".3"/>
    </linearGradient>
    <linearGradient id="linear-gradient-7" x1="13" y1="446.4" x2="268.4" y2="483.5" gradientTransform="translate(273.3 875.6) rotate(-28.6) scale(1 -.9) skewX(25.5)" gradientUnits="userSpaceOnUse">
      <stop offset="0" stop-color="#13b3d3" stop-opacity=".2"/>
      <stop offset="1" stop-color="#13edb1" stop-opacity=".3"/>
    </linearGradient>
  </defs>
  <!-- Generator: Adobe Illustrator 28.7.1, SVG Export Plug-In . SVG Version: 1.2.0 Build 142)  -->
  <g>
    <g id="Layer_1">
      <path class="cls-7" d="M325.1,414.4l193.6,105.3c30.1,16.4,30.1,42.9,0,59.3l-193.6,105.3c-30.1,16.4-78.8,16.4-108.9,0l-193.6-105.3c-30.1-16.4-30.1-42.9,0-59.3l193.6-105.3c30.1-16.4,78.8-16.4,108.9,0Z"/>
      <path class="cls-6" d="M325.1,379.8l193.6,105.3c30.1,16.4,30.1,42.9,0,59.3l-193.6,105.3c-30.1,16.4-78.8,16.4-108.9,0l-193.6-105.3c-30.1-16.4-30.1-42.9,0-59.3l193.6-105.3c30.1-16.4,78.8-16.4,108.9,0Z"/>
      <path class="cls-5" d="M325.1,315.9l193.6,105.3c30.1,16.4,30.1,42.9,0,59.3l-193.6,105.3c-30.1,16.4-78.8,16.4-108.9,0L22.6,480.5c-30.1-16.4-30.1-42.9,0-59.3l193.6-105.3c30.1-16.4,78.8-16.4,108.9,0Z"/>
      <path class="cls-4" d="M325.1,268.7l193.6,105.3c30.1,16.4,30.1,42.9,0,59.3l-193.6,105.3c-30.1,16.4-78.8,16.4-108.9,0L22.6,433.3c-30.1-16.4-30.1-42.9,0-59.3l193.6-105.3c30.1-16.4,78.8-16.4,108.9,0Z"/>
      <path class="cls-9" d="M357,222.8c34.5,37.4,49,104.3,32.5,149.4-16.5,45.2-57.8,51.5-92.3,14.1-34.5-37.4-49-104.3-32.5-149.4s57.8-51.5,92.3-14.1Z"/>
      <path class="cls-8" d="M331.7,224.6c34.5,37.4,49,104.3,32.5,149.4-16.5,45.2-57.8,51.5-92.3,14.1-34.5-37.4-49-104.3-32.5-149.4,16.5-45.2,57.8-51.5,92.3-14.1Z"/>
      <path class="cls-9" d="M318.1,234.4c34.5,37.4,49,104.3,32.5,149.4-16.5,45.2-57.8,51.5-92.3,14.1-34.5-37.4-49-104.3-32.5-149.4,16.5-45.2,57.8-51.5,92.3-14.1Z"/>
      <path class="cls-8" d="M292.7,236.1c34.5,37.4,49,104.3,32.5,149.4-16.5,45.2-57.8,51.5-92.3,14.1s-49-104.3-32.5-149.4c16.5-45.2,57.8-51.5,92.3-14.1Z"/>
      <path class="cls-9" d="M270.2,248c34.5,37.4,49,104.3,32.5,149.4-16.5,45.2-57.8,51.5-92.3,14.1s-49-104.3-32.5-149.4c16.5-45.2,57.8-51.5,92.3-14.1Z"/>
      <path class="cls-10" d="M270.7,269.5c0-20.4-3.4-41.9-9.5-59.6-6.1-17.7-14.3-30.3-22.8-35-8.6-4.7-16.8-1-22.8,10.2-6.1,11.2-9.5,28.9-9.5,49.3l8.9,4.9c0-14.8,2.5-27.6,6.8-35.7,4.4-8.1,10.3-10.7,16.5-7.3,6.2,3.4,12.1,12.5,16.5,25.3,4.4,12.8,6.8,28.3,6.8,43.1l8.9,4.9Z"/>
      <path class="cls-8" d="M244.9,249.7c34.5,37.4,49,104.3,32.5,149.4-16.5,45.2-57.8,51.5-92.3,14.1s-49-104.3-32.5-149.4c16.5-45.2,57.8-51.5,92.3-14.1Z"/>
      <path class="cls-10" d="M209.4,287.3v-20.8l7.1,3.8v20.8l-7.1-3.8ZM195.4,279.6v-20.8l7.1,3.8v20.8l-7.1-3.8ZM209.4,376.1v-20.8l7.1,3.8v20.8l-7.1-3.8ZM195.4,368.4v-20.8l7.1,3.8v20.8l-7.1-3.8ZM184.5,350.8v-85.7l18.1,9.9c6,3.3,11.1,6.7,15.1,10.4,4.1,3.6,7.1,7.5,9.2,11.8,2.1,4.3,3.2,9.1,3.2,14.4s-.4,5.9-1.1,8.2c-.7,2.3-1.7,3.9-3.1,4.8-1.3,1-3,1.2-4.8.6v.6c2,1.7,3.9,3.7,5.5,6,1.6,2.3,2.9,5.1,3.9,8.4s1.5,7.1,1.5,11.6-1,9.1-3,11.8c-2,2.6-4.8,3.9-8.5,3.9-3.7,0-8-1.5-13.1-4.2l-22.9-12.4ZM204.4,309.9c3.5,1.9,5.9,2.4,7.3,1.4,1.3-1,2-3,2-6.2s-.8-6.1-2.4-8.4c-1.6-2.3-4.2-4.4-7.7-6.3l-3.2-1.7v19.1l4,2.2ZM200.4,322.1v22.3l5.2,2.8c3.7,2,6.2,2.3,7.6,1,1.5-1.4,2.2-3.8,2.2-7.3s-.3-4.2-.9-6.2c-.6-1.9-1.7-3.8-3.3-5.5-1.5-1.7-3.5-3.2-6.1-4.6l-4.6-2.5Z"/>
      <polygon class="cls-2" points="270.6 0 523 137.4 270.7 274.7 18.2 137.3 270.6 0"/>
      <polygon class="cls-3" points="18.2 137.3 270.6 274.7 270.6 549.4 18.2 412 18.2 137.3"/>
      <polygon class="cls-1" points="270.7 274.7 523.1 137.3 523.1 412 270.7 549.4 270.7 274.7"/>
    </g>
  </g>
</svg>