<svg xmlns="http://www.w3.org/2000/svg" fill="none" viewBox="0.5 0.91 570.06 691.09" xmlns:v="https://vecta.io/nano"><use href="#I" transform="matrix(.885556 .464533 -.885556 .464533 166.82 364.769)" fill="url(#A)"/><use href="#J" transform="matrix(.885556 .464533 0 1 47.7969 427.667)" fill="url(#B)"/><use href="#J" transform="matrix(.885556 -.464533 0 1 167.844 491.362)" fill="url(#C)"/><path transform="matrix(.885556 .464533 -.885556 .464533 167.852 374.322)" fill="url(#D)" d="M0 0h111.986v110.827H0z"/><use href="#I" transform="matrix(.885556 .464533 -.885556 .464533 310.531 289.927)" fill="url(#A)"/><use href="#J" transform="matrix(.885556 .464533 0 1 191.508 352.825)" fill="url(#B)"/><use href="#J" transform="matrix(.885556 -.464533 0 1 311.555 416.521)" fill="url(#C)"/><use href="#I" transform="matrix(.885556 .464533 -.885556 .464533 308.781 136.264)" fill="url(#A)"/><use href="#J" transform="matrix(.885556 .464533 0 1 189.758 199.162)" fill="url(#B)"/><use href="#J" transform="matrix(.885556 -.464533 0 1 309.805 262.857)" fill="url(#C)"/><use href="#I" transform="matrix(.885556 .464533 -.885556 .464533 448.117 363.176)" fill="url(#A)"/><use href="#J" transform="matrix(.885556 .464533 0 1 329.094 426.074)" fill="url(#B)"/><use href="#J" transform="matrix(.885556 -.464533 0 1 449.141 489.77)" fill="url(#C)"/><use href="#I" transform="matrix(.885556 .464533 -.885556 .464533 148.422 .912109)" fill="url(#E)"/><use href="#J" transform="matrix(.885556 .464533 0 1 29.3906 63.8105)" fill="url(#F)"/><use href="#J" transform="matrix(.885556 -.464533 0 1 149.445 127.505)" fill="url(#G)"/><use href="#I" transform="matrix(.885556 .464533 -.885556 .464533 310.531 439.609)" fill="url(#A)"/><use href="#J" transform="matrix(.885556 .464533 0 1 191.508 502.508)" fill="url(#B)"/><use href="#J" transform="matrix(.885556 -.464533 0 1 311.555 566.203)" fill="url(#C)"/><use href="#I" transform="matrix(.885556 .464533 -.885556 .464533 446.359 215.881)" fill="url(#A)"/><use href="#J" transform="matrix(.885556 .464533 0 1 327.336 278.779)" fill="url(#B)"/><use href="#J" transform="matrix(.885556 -.464533 0 1 447.383 342.475)" fill="url(#C)"/><path fill-rule="evenodd" d="M203.413 316.973c20.483-13.892 19.33-34.786-3.44-47.932-23.953-13.83-62.758-13.848-86.673-.041s-23.883 36.211.071 50.041c22.769 13.146 58.958 13.812 83.021 1.986l-19.953-11.519c-13.012 5.551-31.463 4.917-43.268-1.899-13.001-7.506-13.018-19.665-.038-27.159s34.04-7.484 47.04.022c11.805 6.816 12.905 17.469 3.288 24.982l19.952 11.519z" fill="#fff" style="mix-blend-mode:screen"/><path d="M.5 87.5H306l-40.882 337.168-96.831 52.362-99.022-52.362L.5 87.5z" fill="url(#H)" style="mix-blend-mode:screen"/><use href="#I" transform="matrix(.885556 .464533 -.885556 .464533 308.781 289.927)" fill="url(#A)"/><use href="#J" transform="matrix(.885556 .464533 0 1 189.758 352.825)" fill="url(#B)"/><use href="#J" transform="matrix(.885556 -.464533 0 1 309.805 416.521)" fill="url(#C)"/><defs><linearGradient id="A" x1="187.119" y1="183.697" x2="13.897" y2="17.037" href="#K"><stop stop-color="#13edb1"/><stop offset="1" stop-color="#13b3d3"/></linearGradient><linearGradient id="B" x1="136.303" y1="0" x2="10.758" y2="135.043" href="#K"><stop stop-color="#13edb1"/><stop offset=".546" stop-color="#13b3d3"/></linearGradient><linearGradient id="C" x1="-49.619" y1="-45.246" x2="173.175" y2="184.21" href="#K"><stop stop-color="#13edb1"/><stop offset=".691" stop-color="#13b3d3"/></linearGradient><linearGradient id="D" x1="152.825" y1="150.357" x2="11.055" y2="14.252" href="#K"><stop offset="1" stop-color="#a7fffe"/></linearGradient><linearGradient id="E" x1="187.119" y1="183.697" x2="13.897" y2="17.037" href="#K"><stop offset=".393" stop-color="#13edb1"/><stop offset="1" stop-color="#13b3d3"/></linearGradient><linearGradient id="F" x1="102.371" y1="110.605" x2="59.197" y2="5.178" href="#K"><stop stop-color="#13edb1"/><stop offset=".808" stop-color="#13b3d3"/></linearGradient><linearGradient id="G" x1="-9.885" y1="115.302" x2="123.744" y2="-13.612" href="#K"><stop stop-color="#13edb1"/><stop offset=".893" stop-color="#13b3d3"/></linearGradient><linearGradient id="H" x1="81.734" y1="424.668" x2="198.18" y2="-143.215" href="#K"><stop stop-color="#a8fffe" stop-opacity=".49"/><stop offset=".381" stop-color="#f9ffff" stop-opacity=".064"/><stop offset=".846" stop-color="#fff" stop-opacity="0"/></linearGradient><path id="I" d="M0 0h137.116v135.402H0z"/><path id="J" d="M0 0h137.116v125.797H0z"/><linearGradient id="K" gradientUnits="userSpaceOnUse"/></defs></svg>