<svg xmlns="http://www.w3.org/2000/svg" fill="none" viewBox="0 0 790.36 652.15" xmlns:v="https://vecta.io/nano"><rect width="169.486" height="169.486" rx="29" transform="matrix(.856088 .516831 -.856088 .516831 246.094 382)" fill="url(#B)"/><rect width="319.092" height="604.134" rx="52" transform="matrix(.856088 .516831 -.856088 .516831 517.195 175)" fill="url(#C)"/><rect width="319.092" height="604.134" rx="52" transform="matrix(.856088 .516831 -.856088 .516831 517.195 143)" fill="url(#D)"/><circle cx="80.927" cy="80.927" r="80.927" transform="matrix(.865855 .500294 -.865855 .500294 531.141 219.6)" fill="url(#E)"/><circle cx="80.927" cy="80.927" r="80.927" transform="matrix(.865855 .500294 -.865855 .500294 531.141 198.748)" fill="url(#F)"/><circle cx="80.927" cy="80.927" r="80.927" transform="matrix(.865855 .500294 -.865855 .500294 531.141 174.421)" fill="url(#E)"/><circle cx="80.927" cy="80.927" r="80.927" transform="matrix(.865855 .500294 -.865855 .500294 531.141 153.569)" fill="url(#F)"/><path d="M601.22 249.314c17.542-10.136 27.867-23.706 28.932-38.028s-7.205-28.353-23.177-39.322-38.485-18.077-63.088-19.92-49.509 1.714-69.794 9.968-34.473 20.603-39.762 34.608-1.293 28.648 11.197 41.034 32.567 21.613 56.263 25.86 49.287 3.203 71.715-2.924l-42.358-51.763 70.072 40.487z" fill="url(#G)"/><path d="M601.22 228.462c17.348-10.024 27.644-23.41 28.895-37.567s-6.632-28.08-22.123-39.073-37.488-18.275-61.736-20.436-49.02.952-69.524 8.736-35.282 19.687-41.472 33.405-3.355 28.273 7.959 40.852 30.301 22.285 53.287 27.241 48.337 4.808 71.146-.414l-36.504-53.231 70.072 40.487z" fill="url(#H)"/><mask id="A" fill="#fff"><path d="M601.22 228.462c17.348-10.024 27.644-23.41 28.895-37.567s-6.632-28.08-22.123-39.073-37.488-18.275-61.736-20.436-49.02.952-69.524 8.736-35.282 19.687-41.472 33.405-3.355 28.273 7.959 40.852 30.301 22.285 53.287 27.241 48.337 4.808 71.146-.414l-36.504-53.231 70.072 40.487z"/></mask><path d="M601.22 228.462c17.348-10.024 27.644-23.41 28.895-37.567s-6.632-28.08-22.123-39.073-37.488-18.275-61.736-20.436-49.02.952-69.524 8.736-35.282 19.687-41.472 33.405-3.355 28.273 7.959 40.852 30.301 22.285 53.287 27.241 48.337 4.808 71.146-.414l-36.504-53.231 70.072 40.487z" stroke="#fff" stroke-width="6" mask="url(#A)"/><rect width="169.486" height="169.486" rx="29" transform="matrix(.856088 .516831 -.856088 .516831 245.859 367.809)" fill="url(#I)"/><rect width="169.486" height="179.777" rx="29" transform="matrix(.856088 .516831 -.856088 .516831 249.906 338.277)" fill="url(#J)"/><rect width="169.486" height="169.486" rx="29" transform="matrix(.856088 .516831 -.856088 .516831 245.859 300.532)" fill="url(#I)"/><rect width="169.486" height="179.777" rx="29" transform="matrix(.856088 .516831 -.856088 .516831 249.906 271)" fill="url(#J)"/><rect y="2.067" width="146.573" height="151.136" rx="27" transform="matrix(.856088 .516831 -.856088 .516831 251.582 283.999)" stroke="#fff" stroke-width="4" style="mix-blend-mode:screen"/><path d="M360.117 363.5l-2.617 7-7.5 6-15.5 10-29.001 16-29.5 18.5-15 7.5-16.5 2-17-3.5-14.5-8-28.5-16.5L158 386l-14-8.5-7-7-1.98-8.505 1.101-186.997 223.996 1.318V363.5z" fill="url(#K)"/><path d="M628.5 178l-.006 9.5-1.5 10.5-8.5 16-17 14-71-40.5 35.5 52.5-13.5 2.5-19 1.5h-19l-17.491-2.499-35.484-14.499L449 217.5l-11-14-4.73-15v-9.13-7.87L432.523.002l198.894 1.17L628.5 178z" fill="url(#L)"/><path fill-rule="evenodd" d="M552.383 399.244c2.402-7.753-9.311-14.516-22.74-13.129l-55.846 5.767c-15.585 1.609-21.602 12.673-10.406 19.137l4.689 2.707-52.274 30.18c-10.073 5.816-10.073 15.245 0 21.061s26.406 5.816 36.48 0l52.273-30.18 4.689 2.708c11.196 6.463 30.359 2.99 33.147-6.008l9.988-32.243z" fill="#8dfff8" style="mix-blend-mode:screen"/><defs><linearGradient id="B" x1="109.513" y1="0" x2="38.396" y2="159.889" href="#M"><stop offset="1" stop-color="#a4fffe" stop-opacity=".51"/></linearGradient><linearGradient id="C" x1="323.156" y1="398.394" x2="-11.565" y2="384.336" href="#M"><stop offset="1" stop-color="#13edb1" stop-opacity=".22"/></linearGradient><linearGradient id="D" x1="323.156" y1="398.394" x2="-11.565" y2="384.336" href="#M"><stop offset="1" stop-color="#13b3d3" stop-opacity=".24"/></linearGradient><linearGradient id="E" x1="80.927" y1="0" x2="80.927" y2="161.854" href="#M"><stop offset="1" stop-color="#13b3d3"/></linearGradient><linearGradient id="F" x1="188.008" y1="161.854" x2="-27.291" y2="160.327" href="#M"><stop stop-color="#13edb1"/><stop offset="1" stop-color="#13b3d3"/></linearGradient><linearGradient id="G" x1="601.22" y1="168.339" x2="531.066" y2="289.754" href="#M"><stop offset="1" stop-color="#13b3d3"/></linearGradient><linearGradient id="H" x1="553.794" y1="282.034" x2="461.789" y2="120.526" href="#M"><stop stop-color="#13edb1"/><stop offset="1" stop-color="#13b3d3"/></linearGradient><linearGradient id="I" x1="109.513" y1="0" x2="38.396" y2="159.889" href="#M"><stop offset="1" stop-color="#13b3d3"/></linearGradient><linearGradient id="J" x1="171.645" y1="118.553" x2="-5.461" y2="105.277" href="#M"><stop stop-color="#13edb1"/><stop offset="1" stop-color="#13b3d3"/></linearGradient><linearGradient id="K" x1="247.002" y1="362.656" x2="248.102" y2="175.659" href="#M"><stop stop-color="#8dfff8" stop-opacity=".37"/><stop offset="1" stop-color="#559995" stop-opacity="0"/></linearGradient><linearGradient id="L" x1="530.927" y1="172.152" x2="531.936" y2=".587" href="#M"><stop stop-color="#8dfff8" stop-opacity=".37"/><stop offset="1" stop-color="#559995" stop-opacity="0"/></linearGradient><linearGradient id="M" gradientUnits="userSpaceOnUse"/></defs></svg>