<?xml version="1.0" encoding="UTF-8"?>
<svg xmlns="http://www.w3.org/2000/svg" xmlns:xlink="http://www.w3.org/1999/xlink" version="1.1" viewBox="0 0 776.8 597.6">
  <defs>
    <style>
      .cls-1 {
        fill-opacity: .3;
      }

      .cls-1, .cls-2 {
        fill: #13b3d3;
      }

      .cls-3 {
        fill-rule: evenodd;
      }

      .cls-3, .cls-4 {
        fill: #fff;
      }

      .cls-5 {
        fill: url(#linear-gradient-5);
      }

      .cls-6 {
        fill: url(#linear-gradient-4);
      }

      .cls-7 {
        fill: none;
        stroke: url(#linear-gradient-3);
        stroke-width: 3px;
      }

      .cls-8 {
        isolation: isolate;
      }

      .cls-9 {
        mix-blend-mode: screen;
      }

      .cls-10 {
        fill: url(#linear-gradient);
      }

      .cls-10, .cls-11 {
        fill-opacity: .4;
      }

      .cls-12 {
        fill: url(#linear-gradient-6);
      }

      .cls-12, .cls-13 {
        fill-opacity: .2;
      }

      .cls-13 {
        fill: url(#linear-gradient-7);
      }

      .cls-11 {
        fill: url(#linear-gradient-2);
      }
    </style>
    <linearGradient id="linear-gradient" x1="15.9" y1="550.5" x2="15.9" y2="180.4" gradientTransform="translate(691.2 564.1) rotate(-30) scale(1 -.9) skewX(-26.6)" gradientUnits="userSpaceOnUse">
      <stop offset="0" stop-color="#13edb1"/>
      <stop offset="1" stop-color="#13b3d3"/>
    </linearGradient>
    <linearGradient id="linear-gradient-2" x1="15.9" y1="550.5" x2="15.9" y2="180.4" gradientTransform="translate(691.2 541.3) rotate(-30) scale(1 -.9) skewX(-26.6)" gradientUnits="userSpaceOnUse">
      <stop offset="0" stop-color="#13edb1"/>
      <stop offset="1" stop-color="#13b3d3"/>
    </linearGradient>
    <linearGradient id="linear-gradient-3" x1="-71.1" y1="550.5" x2="-71.1" y2="293" gradientTransform="translate(812 527.3) rotate(-30) scale(1 -.9) skewX(-26.6)" gradientUnits="userSpaceOnUse">
      <stop offset="0" stop-color="#13edb1"/>
      <stop offset="1" stop-color="#13b3d3"/>
    </linearGradient>
    <linearGradient id="linear-gradient-4" x1="388.9" y1="177.3" x2="102.9" y2="287.7" gradientTransform="translate(0 610) scale(1 -1)" gradientUnits="userSpaceOnUse">
      <stop offset="0" stop-color="#13edb1"/>
      <stop offset="1" stop-color="#13b3d3"/>
    </linearGradient>
    <linearGradient id="linear-gradient-5" x1="674.9" y1="333.3" x2="388.9" y2="443.7" gradientTransform="translate(0 610) scale(1 -1)" gradientUnits="userSpaceOnUse">
      <stop offset="0" stop-color="#13edb1"/>
      <stop offset="1" stop-color="#13b3d3"/>
    </linearGradient>
    <linearGradient id="linear-gradient-6" x1="245.7" y1="232.8" x2="245.4" y2="452.8" gradientTransform="translate(0 610) scale(1 -1)" gradientUnits="userSpaceOnUse">
      <stop offset="0" stop-color="#8dfff8"/>
      <stop offset="1" stop-color="#559995" stop-opacity="0"/>
    </linearGradient>
    <linearGradient id="linear-gradient-7" x1="532" y1="389.8" x2="531.7" y2="609.8" gradientTransform="translate(0 610) scale(1 -1)" gradientUnits="userSpaceOnUse">
      <stop offset="0" stop-color="#8dfff8"/>
      <stop offset="1" stop-color="#559995" stop-opacity="0"/>
    </linearGradient>
  </defs>
  <!-- Generator: Adobe Illustrator 28.7.1, SVG Export Plug-In . SVG Version: 1.2.0 Build 142)  -->
  <g class="cls-8">
    <g id="Layer_1">
      <path class="cls-10" d="M13.6,404.7l429-247.7c18.2-10.5,47.6-10.5,65.8,0l254.7,147.1c18.2,10.5,18.2,27.5,0,38l-429,247.7c-18.2,10.5-47.6,10.5-65.8,0L13.6,442.7c-18.2-10.5-18.2-27.5,0-38Z"/>
      <path class="cls-11" d="M13.6,381.9l429-247.7c18.2-10.5,47.6-10.5,65.8,0l254.7,147.1c18.2,10.5,18.2,27.5,0,38l-429,247.7c-18.2,10.5-47.6,10.5-65.8,0L13.6,419.9c-18.2-10.5-18.2-27.5,0-38Z"/>
      <path class="cls-7" d="M135.4,367.4l276.5-159.6c17.5-10.1,45.8-10.1,63.2,0l157.2,90.8c17.5,10.1,17.5,26.4,0,36.5l-276.5,159.6c-17.5,10.1-45.8,10.1-63.2,0l-157.2-90.8c-17.5-10.1-17.5-26.4,0-36.5Z"/>
      <path class="cls-3" d="M382.9,277.9c3.3-8.2-9.4-15.5-23.5-13.6l-33.3,4.5c-15,2-20.3,12.7-9.4,19l1.4.8-30.7,17.7c-5.7,3.3-5.7,8.7,0,12l1.7,1c5.7,3.3,15,3.3,20.8,0l30.7-17.7,1.7,1c10.9,6.3,29.5,3.2,32.9-5.4l7.7-19.2Z"/>
      <path class="cls-3" d="M416.2,410.6c-3.3,8.2,9.4,15.4,23.6,13.5l33.3-4.6c15-2,20.3-12.8,9.4-19l-1.4-.8,30.7-17.8c5.7-3.3,5.7-8.7,0-12l-1.7-1c-5.7-3.3-15.1-3.3-20.8,0l-30.7,17.8-1.7-1c-10.9-6.2-29.5-3.1-32.9,5.5l-7.7,19.2Z"/>
      <ellipse class="cls-1" cx="245.9" cy="424.5" rx="143" ry="82.5"/>
      <ellipse class="cls-2" cx="245.9" cy="403.5" rx="143" ry="82.5"/>
      <ellipse class="cls-6" cx="245.9" cy="377.5" rx="143" ry="82.5"/>
      <g class="cls-9">
        <path class="cls-4" d="M214.4,349.8l-22.5-13,8.7-5,22.5,13-8.7,5ZM197.1,359.7l-22.5-13,8.7-5,22.5,13-8.7,5ZM310.5,405.3l-22.5-13,8.7-5,22.5,13-8.7,5ZM293.3,415.2l-22.5-13,8.7-5,22.5,13-8.7,5ZM267.2,415.6l-92.8-53.5,22.3-12.9c7.4-4.3,14.4-7.4,20.9-9.4,6.5-2,12.7-2.8,18.7-2.2,6,.5,11.9,2.4,17.7,5.7,3.5,2,6.2,4.1,8.2,6.2,2,2.1,3.1,4.2,3.2,6.2.2,2-.6,3.8-2.5,5.5l.6.4c3.1-1.1,6.5-1.8,10-2,3.6-.2,7.4.1,11.6,1.1,4.2,1,8.7,2.9,13.5,5.7,5.6,3.2,9.3,6.8,10.9,10.5,1.6,3.7,1.1,7.5-1.3,11.4-2.4,3.8-6.8,7.5-13,11.1l-28.2,16.3ZM235.7,369.1c4.3-2.5,6.4-4.8,6.2-6.8s-2-4-5.5-6c-3.6-2-7.1-3-10.7-2.7-3.6.2-7.5,1.6-11.8,4.1l-3.9,2.2,20.7,11.9,4.9-2.9ZM246.4,381l24.2,13.9,6.4-3.7c4.5-2.6,6.5-5,6-7.4-.5-2.4-2.7-4.7-6.5-6.9-2.3-1.4-4.8-2.3-7.3-2.9-2.5-.5-5.2-.5-8.1,0-2.8.5-5.8,1.7-9,3.5l-5.7,3.3Z"/>
      </g>
      <ellipse class="cls-1" cx="531.9" cy="268.5" rx="143" ry="82.5"/>
      <ellipse class="cls-2" cx="531.9" cy="247.5" rx="143" ry="82.5"/>
      <ellipse class="cls-5" cx="531.9" cy="221.5" rx="143" ry="82.5"/>
      <g class="cls-9">
        <path class="cls-4" d="M500.4,193.8l-22.5-13,8.7-5,22.5,13-8.7,5ZM483.1,203.7l-22.5-13,8.7-5,22.5,13-8.7,5ZM596.5,249.3l-22.5-13,8.7-5,22.5,13-8.7,5ZM579.3,259.2l-22.5-13,8.7-5,22.5,13-8.7,5ZM553.2,259.6l-92.8-53.6,22.3-12.9c7.4-4.3,14.4-7.4,20.9-9.4,6.5-2.1,12.7-2.8,18.7-2.2,6,.4,11.9,2.3,17.7,5.7,3.5,2,6.2,4.1,8.2,6.2,2,2.2,3.1,4.2,3.2,6.2.2,2-.6,3.8-2.5,5.5l.7.4c3.1-1.1,6.5-1.8,10-2,3.6-.2,7.4.1,11.6,1.1,4.2,1,8.7,2.9,13.5,5.7,5.6,3.2,9.3,6.8,10.9,10.5,1.6,3.7,1.1,7.5-1.3,11.4-2.4,3.8-6.8,7.5-13,11.1l-28.2,16.3ZM521.7,213.1c4.3-2.5,6.4-4.8,6.2-6.8-.2-2-2-4-5.5-6-3.6-2.1-7.1-2.9-10.7-2.7-3.6.2-7.5,1.6-11.8,4.1l-3.9,2.2,20.7,11.9,4.9-2.8ZM532.4,225l24.2,14,6.4-3.7c4.5-2.6,6.5-5.1,6-7.4-.5-2.4-2.7-4.7-6.5-6.9-2.3-1.4-4.8-2.3-7.3-2.9-2.5-.6-5.2-.6-8.1,0-2.8.5-5.8,1.7-9,3.5l-5.7,3.3Z"/>
      </g>
      <g class="cls-9">
        <path class="cls-2" d="M499.3,447.9c-1.5.8-3,1.5-4.8,2.1-1.7.5-3.3.9-4.8,1l-1.7-2.7c1.3-.1,2.7-.4,4.1-.8,1.4-.4,2.7-.9,3.8-1.6.8-.5,1.4-.9,1.8-1.3.3-.4.5-.8.4-1.1s-.3-.6-.6-.8c-.5-.3-1.1-.4-1.7-.3-.7,0-1.4.2-2.2.5-.8.2-1.7.5-2.6.9-.9.3-1.9.6-2.9.9-1,.3-2,.5-3,.6-1,.1-2,.1-3,0-1-.1-2-.5-3-1.1-1-.6-1.7-1.3-2-2.1-.3-.8-.1-1.7.5-2.7.6-1,1.8-1.9,3.5-2.9,1.1-.7,2.4-1.2,3.8-1.7,1.4-.5,2.7-.8,4.1-1l1.9,2.6c-1.3.2-2.5.5-3.6.9-1.1.4-2,.8-2.9,1.2-.8.5-1.4.9-1.7,1.3s-.5.8-.4,1.1c0,.3.3.6.7.8.5.3,1,.4,1.7.3.7,0,1.4-.2,2.2-.5.8-.3,1.7-.6,2.6-.9.9-.3,1.9-.7,2.9-1,1-.3,2-.5,3-.7,1-.1,2-.1,3,0,1,.1,2,.5,3,1,1,.6,1.7,1.3,1.9,2.1.3.8.1,1.7-.5,2.7-.6,1-1.8,1.9-3.5,2.9ZM516.4,437.8c-1.6.9-3.3,1.6-5.1,1.9-1.8.3-3.6.4-5.3.1-1.8-.2-3.3-.8-4.7-1.6-1.4-.8-2.3-1.7-2.8-2.7-.4-1-.4-2,.1-3,.5-1,1.5-1.9,2.9-2.7,1.4-.8,2.9-1.3,4.6-1.6,1.7-.3,3.4-.3,5.1,0,1.7.2,3.3.8,4.8,1.7.2,0,.3.2.5.3.2.1.3.2.5.3l-11.4,6.6-2.4-1.4,9.2-5.3-.9,1.3c-.7-.4-1.5-.7-2.3-.8-.8-.1-1.7-.1-2.5,0-.8.1-1.6.4-2.3.8-.7.4-1.2.8-1.4,1.3-.2.5-.2.9,0,1.4.2.5.7.9,1.5,1.4l.6.4c.8.4,1.6.7,2.5.9.9.1,1.8.1,2.8,0,.9-.2,1.8-.5,2.6-1,.7-.4,1.3-.9,1.6-1.3.3-.5.5-1,.5-1.5h4.5c0,.9-.2,1.7-.7,2.5-.6.8-1.5,1.5-2.8,2.3ZM520,419.2c1.1-.6,2.3-1.1,3.6-1.3,1.3-.3,2.7-.3,4.1,0,1.4.2,2.8.8,4.2,1.6l8,4.6-4.1,2.3-7.4-4.3c-1.1-.7-2.2-1-3.2-1-1,0-2,.2-2.9.7-.6.4-1.1.8-1.3,1.2-.2.4-.2.9,0,1.4.3.5.8,1,1.7,1.5l6.9,4-4.1,2.3-14-8.1,3.9-2.2,3.9,2.2-1.9-.3c-.4-.8-.4-1.7,0-2.5.4-.8,1.2-1.6,2.4-2.3ZM549.6,418.7c-1.6,1-3.3,1.5-5.1,1.5-1.8,0-3.5-.4-5.1-1.4l-12.3-7.1,4.1-2.3,12.2,7c.6.3,1.2.5,1.8.5.6,0,1.2-.2,1.7-.5.6-.4,1-.8,1.1-1.2l3.9,1c-.1.4-.4.8-.8,1.3-.4.4-1,.8-1.6,1.2ZM531.4,416.8l-3.1-1.8,9.7-5.6,3.1,1.8-9.7,5.6Z"/>
      </g>
      <g class="cls-9">
        <path class="cls-2" d="M232,293.1l-18.2-10.5,7.9-4.5c1.6-.9,3.3-1.6,5-2,1.7-.4,3.4-.5,5-.3,1.6.2,3.1.7,4.5,1.5,1.4.8,2.2,1.6,2.5,2.6.3.9.2,1.9-.4,2.9-.7,1-1.8,1.9-3.4,2.9l-5.5,3.2v-2.2s6.9,4,6.9,4l-4.2,2.4ZM229.8,287h-3.9c0,0,5.3-3.1,5.3-3.1,1.3-.8,2-1.5,2.1-2.2,0-.7-.4-1.3-1.4-1.9-1-.6-2.1-.8-3.3-.8-1.2,0-2.4.5-3.7,1.2l-5.3,3.1v-2.2c-.1,0,10.2,6,10.2,6ZM257.6,278.6c-1.6.9-3.3,1.6-5.1,1.9-1.8.3-3.6.4-5.3.1-1.8-.2-3.3-.8-4.7-1.6-1.4-.8-2.3-1.7-2.8-2.7-.4-1-.4-2,.1-3,.5-1,1.5-1.9,2.9-2.7,1.4-.8,2.9-1.3,4.6-1.6,1.7-.3,3.4-.3,5.1,0,1.7.2,3.3.8,4.8,1.7.2,0,.3.2.5.3.2.1.3.2.5.3l-11.4,6.6-2.4-1.4,9.2-5.3-.9,1.3c-.7-.4-1.5-.7-2.3-.8-.8-.1-1.7-.1-2.5,0-.8.1-1.6.4-2.3.8-.7.4-1.2.8-1.4,1.3-.2.5-.2.9,0,1.4.2.5.7.9,1.5,1.4l.6.4c.8.4,1.6.7,2.5.9.9.1,1.8.1,2.8,0,.9-.2,1.8-.5,2.6-1,.7-.4,1.3-.9,1.6-1.3.3-.5.5-1,.5-1.5h4.5c0,.9-.2,1.7-.7,2.5-.6.8-1.5,1.5-2.8,2.3ZM261.2,259.9c1.1-.6,2.3-1.1,3.6-1.3,1.3-.3,2.7-.3,4.1,0,1.4.2,2.8.8,4.2,1.6l8,4.6-4.1,2.3-7.4-4.3c-1.1-.6-2.2-1-3.2-1-1,0-2,.2-2.9.7-.6.4-1.1.8-1.3,1.2-.2.4-.2.9,0,1.4.3.5.8,1,1.7,1.5l6.9,4-4.1,2.3-14-8.1,3.9-2.2,3.9,2.2-1.9-.3c-.4-.8-.4-1.7,0-2.5.4-.8,1.2-1.6,2.4-2.3ZM291.1,259.2c-1.3.8-2.8,1.3-4.4,1.5-1.7.3-3.3.3-5,0-1.7-.3-3.2-.8-4.7-1.7-1.5-.9-2.4-1.8-2.9-2.7-.4-1-.4-1.9,0-2.9.5-.9,1.4-1.8,2.7-2.6,1.2-.7,2.5-1.1,3.9-1.3,1.4-.2,2.9-.1,4.4.2s3.1,1,4.8,1.9c1.6.9,2.7,1.9,3.4,2.7.6.9.7,1.7.3,2.5-.3.8-1.1,1.6-2.4,2.3ZM288.5,256.9c.7-.4,1.1-.8,1.3-1.3.2-.5.2-1,0-1.5-.3-.5-.8-1-1.6-1.5-.8-.5-1.7-.8-2.6-.9-.9-.1-1.8-.2-2.6,0-.8.1-1.6.4-2.3.8-.7.4-1.1.8-1.4,1.3-.2.5-.2,1,0,1.5.3.5.8,1,1.6,1.5.8.5,1.6.8,2.5.9.9.1,1.8.1,2.6,0,.8-.1,1.6-.4,2.3-.8ZM295.3,256.6l-2.9-1.7-4.1-2.4-4.4-2.2-8.1-4.7,4.1-2.3,19.3,11.1-3.9,2.2ZM302.9,252.2l-14-8.1,4.1-2.3,14,8.1-4.1,2.3ZM289,241.8c-.7.4-1.6.7-2.5.7-.9,0-1.7-.2-2.3-.5-.6-.4-.9-.8-.9-1.3,0-.5.4-1,1.2-1.4.7-.4,1.6-.7,2.4-.7.9,0,1.6.1,2.3.5.7.4,1,.9,1,1.4,0,.5-.4,1-1.2,1.4ZM305,234.6c1.1-.6,2.3-1.1,3.6-1.3,1.3-.3,2.7-.3,4.1,0,1.4.2,2.8.8,4.2,1.6l8,4.6-4.1,2.3-7.4-4.3c-1.1-.7-2.2-1-3.2-1-1,0-2,.2-2.9.7-.6.4-1.1.8-1.3,1.2-.2.4-.2.9,0,1.4.3.5.8,1,1.7,1.5l6.9,4-4.1,2.3-14-8.1,3.9-2.2,3.9,2.2-1.9-.3c-.4-.8-.4-1.7,0-2.5.4-.8,1.2-1.6,2.4-2.3ZM340.6,236.5c-1.3.8-2.8,1.4-4.3,1.9-1.5.5-3,.8-4.5.9l-1.3-2.6c1.1,0,2.2-.3,3.4-.6,1.2-.4,2.3-.8,3.1-1.3,1.4-.8,2.2-1.6,2.2-2.4,0-.8-.6-1.5-1.9-2.2l-2.1-1.2-3.2-2.2-3.6-2-3-1.7,3.8-2.2,11.6,6.7c2.6,1.5,3.8,3,3.7,4.5-.1,1.5-1.4,3-4,4.4ZM334.1,233.4c-1.3.8-2.8,1.3-4.4,1.6-1.6.3-3.2.3-4.9,0-1.6-.2-3.1-.7-4.5-1.5-1.4-.8-2.2-1.7-2.6-2.6-.4-1-.3-1.9.2-2.8.5-.9,1.4-1.8,2.7-2.5,1.2-.7,2.5-1.1,3.8-1.4,1.4-.2,2.8-.2,4.3,0,1.5.3,3,.9,4.6,1.8,1.5.9,2.6,1.8,3.1,2.6.5.9.5,1.7.1,2.5-.4.8-1.2,1.5-2.4,2.2ZM331.5,231c.7-.4,1.2-.9,1.5-1.3.3-.5.3-1,0-1.5s-.6-.9-1.3-1.3c-.7-.4-1.4-.7-2.3-.8-.8-.1-1.7,0-2.5,0-.8.2-1.6.4-2.3.8-.7.4-1.2.9-1.5,1.3-.3.5-.3,1-.1,1.5.2.5.6.9,1.3,1.3.7.4,1.4.6,2.3.8.8.1,1.7,0,2.5,0,.8-.2,1.6-.4,2.3-.9Z"/>
      </g>
      <path class="cls-12" d="M388.7,378l-3.5,17.5-10,16.5-13.5,14-15.5,10.5-27,11.5-27.5,7.5-28.5,3.5-28.5,1.5-26-3-23-5.5-12.5-3.5-13-4.5-19.5-11-16.5-11.5-11.5-13.5-7.5-13.5-2.5-16.5,1.9-220.6,281-.4,3.1,221Z"/>
      <path class="cls-13" d="M675,221l-3.5,17.5-10,16.5-13.5,14-15.5,10.5-27,11.5-27.5,7.5-28.5,3.5-28.5,1.5-26-3-23-5.5-12.5-3.5-13-4.5-19.5-11-16.5-11.5-11.5-13.5-7.5-13.5-2.5-16.5L391,.4,672,0l3.1,221Z"/>
    </g>
  </g>
</svg>