<svg xmlns="http://www.w3.org/2000/svg" fill="none" viewBox="0 0 815.38 608.75">
<rect width="571.419" height="370.1" rx="38" transform="matrix(0.866025 -0.5 0.866025 0.5 0 423.709)" fill="url(#paint0_linear_149_9)" fill-opacity="0.44"/>
<rect width="571.419" height="370.1" rx="38" transform="matrix(0.866025 -0.5 0.866025 0.5 0 400.931)" fill="url(#paint1_linear_149_9)" fill-opacity="0.44"/>
<rect x="2.59808" width="392.288" height="254.551" rx="36.5" transform="matrix(0.866025 -0.5 0.866025 0.5 120.856 386.938)" stroke="url(#paint2_linear_149_9)" stroke-width="3"/>
<path fill-rule="evenodd" clip-rule="evenodd" d="M402.207 277.948C405.487 269.791 392.816 262.475 378.688 264.369L345.409 268.829C330.428 270.837 325.109 281.571 335.984 287.85L337.357 288.642L306.64 306.377C300.9 309.69 300.9 315.063 306.64 318.377L308.347 319.362C314.086 322.676 323.392 322.676 329.131 319.362L359.848 301.628L361.537 302.603C372.413 308.882 391.004 305.811 394.482 297.161L402.207 277.948Z" fill="white"/>
<path fill-rule="evenodd" clip-rule="evenodd" d="M435.433 410.587C432.175 418.753 444.867 426.034 458.989 424.102L492.256 419.551C507.232 417.502 512.521 406.754 501.629 400.505L500.254 399.716L530.923 381.898C536.653 378.568 536.639 373.196 530.89 369.898L529.181 368.917C523.432 365.619 514.127 365.644 508.396 368.974L477.727 386.792L476.036 385.821C465.143 379.572 446.56 382.694 443.106 391.353L435.433 410.587Z" fill="white"/>
<ellipse cx="265.164" cy="424.5" rx="143" ry="82.5" fill="#13B3D3" fill-opacity="0.29"/>
<ellipse cx="265.164" cy="403.5" rx="143" ry="82.5" fill="#13B3D3"/>
<ellipse cx="265.164" cy="377.5" rx="143" ry="82.5" fill="url(#paint3_linear_149_9)"/>
<g style="mix-blend-mode:screen" filter="url(#filter0_d_149_9)">
<path d="M233.688 349.771L211.215 336.796L219.918 331.771L242.392 344.746L233.688 349.771ZM216.411 359.746L193.938 346.771L202.641 341.746L225.114 354.721L216.411 359.746ZM329.817 405.271L307.344 392.296L316.047 387.271L338.521 400.246L329.817 405.271ZM312.54 415.246L290.066 402.271L298.77 397.246L321.243 410.221L312.54 415.246ZM286.429 415.621L193.678 362.071L216.021 349.171C223.469 344.871 230.441 341.746 236.936 339.796C243.431 337.746 249.666 336.996 255.642 337.546C261.617 337.996 267.506 339.896 273.309 343.246C276.773 345.246 279.501 347.321 281.493 349.471C283.485 351.621 284.567 353.696 284.74 355.696C284.914 357.696 284.091 359.521 282.272 361.171L282.922 361.546C286.039 360.446 289.374 359.771 292.924 359.521C296.475 359.271 300.329 359.646 304.486 360.646C308.643 361.646 313.146 363.546 317.996 366.346C323.625 369.596 327.262 373.096 328.908 376.846C330.466 380.546 330.033 384.346 327.609 388.246C325.184 392.046 320.854 395.746 314.618 399.346L286.429 415.621ZM254.992 369.121C259.322 366.621 261.401 364.371 261.228 362.371C261.055 360.371 259.236 358.371 255.772 356.371C252.221 354.321 248.67 353.421 245.12 353.671C241.569 353.921 237.629 355.296 233.298 357.796L229.401 360.046L250.056 371.971L254.992 369.121ZM265.644 380.971L289.807 394.921L296.172 391.246C300.675 388.646 302.667 386.196 302.147 383.896C301.628 381.496 299.463 379.196 295.652 376.996C293.314 375.646 290.889 374.696 288.378 374.146C285.866 373.596 283.181 373.596 280.324 374.146C277.552 374.646 274.565 375.821 271.36 377.671L265.644 380.971Z" fill="white"/>
</g>
<ellipse cx="551.164" cy="268.5" rx="143" ry="82.5" fill="#13B3D3" fill-opacity="0.29"/>
<ellipse cx="551.164" cy="247.5" rx="143" ry="82.5" fill="#13B3D3"/>
<ellipse cx="551.164" cy="221.5" rx="143" ry="82.5" fill="url(#paint4_linear_149_9)"/>
<g style="mix-blend-mode:screen" filter="url(#filter1_d_149_9)">
<path d="M519.688 193.771L497.215 180.796L505.918 175.771L528.392 188.746L519.688 193.771ZM502.411 203.746L479.938 190.771L488.641 185.746L511.114 198.721L502.411 203.746ZM615.817 249.271L593.344 236.296L602.047 231.271L624.521 244.246L615.817 249.271ZM598.54 259.246L576.066 246.271L584.77 241.246L607.243 254.221L598.54 259.246ZM572.429 259.621L479.678 206.071L502.021 193.171C509.469 188.871 516.441 185.746 522.936 183.796C529.431 181.746 535.666 180.996 541.642 181.546C547.617 181.996 553.506 183.896 559.309 187.246C562.773 189.246 565.501 191.321 567.493 193.471C569.485 195.621 570.567 197.696 570.74 199.696C570.914 201.696 570.091 203.521 568.272 205.171L568.922 205.546C572.039 204.446 575.374 203.771 578.924 203.521C582.475 203.271 586.329 203.646 590.486 204.646C594.643 205.646 599.146 207.546 603.996 210.346C609.625 213.596 613.262 217.096 614.908 220.846C616.466 224.546 616.033 228.346 613.609 232.246C611.184 236.046 606.854 239.746 600.618 243.346L572.429 259.621ZM540.992 213.121C545.322 210.621 547.401 208.371 547.228 206.371C547.055 204.371 545.236 202.371 541.772 200.371C538.221 198.321 534.67 197.421 531.12 197.671C527.569 197.921 523.629 199.296 519.298 201.796L515.401 204.046L536.056 215.971L540.992 213.121ZM551.644 224.971L575.807 238.921L582.172 235.246C586.675 232.646 588.667 230.196 588.147 227.896C587.628 225.496 585.463 223.196 581.652 220.996C579.314 219.646 576.889 218.696 574.378 218.146C571.866 217.596 569.181 217.596 566.324 218.146C563.552 218.646 560.565 219.821 557.36 221.671L551.644 224.971Z" fill="white"/>
</g>
<g style="mix-blend-mode:screen" filter="url(#filter2_d_149_9)">
<path d="M518.558 447.856C517.104 448.696 515.519 449.391 513.804 449.941C512.072 450.481 510.487 450.806 509.05 450.916L507.309 448.261C508.642 448.131 510.019 447.866 511.44 447.466C512.86 447.046 514.116 446.521 515.207 445.891C516.038 445.411 516.627 444.981 516.974 444.601C517.32 444.201 517.467 443.846 517.415 443.536C517.363 443.226 517.147 442.961 516.766 442.741C516.281 442.461 515.709 442.351 515.051 442.411C514.376 442.461 513.639 442.616 512.843 442.876C512.029 443.126 511.163 443.426 510.245 443.776C509.327 444.106 508.365 444.421 507.361 444.721C506.374 445.011 505.378 445.226 504.373 445.366C503.368 445.506 502.355 445.511 501.333 445.381C500.329 445.241 499.341 444.891 498.371 444.331C497.332 443.731 496.665 443.026 496.371 442.216C496.076 441.386 496.241 440.501 496.865 439.561C497.488 438.601 498.657 437.626 500.372 436.636C501.515 435.976 502.78 435.406 504.165 434.926C505.533 434.436 506.91 434.101 508.296 433.921L510.193 436.516C508.859 436.726 507.655 437.011 506.581 437.371C505.49 437.721 504.538 438.131 503.723 438.601C502.909 439.071 502.338 439.511 502.009 439.921C501.68 440.331 501.558 440.691 501.645 441.001C501.714 441.301 501.948 441.566 502.346 441.796C502.814 442.066 503.386 442.176 504.061 442.126C504.719 442.066 505.447 441.906 506.244 441.646C507.04 441.386 507.898 441.091 508.816 440.761C509.751 440.421 510.704 440.101 511.674 439.801C512.661 439.491 513.657 439.266 514.661 439.126C515.666 438.986 516.671 438.986 517.675 439.126C518.697 439.256 519.684 439.596 520.637 440.146C521.659 440.736 522.308 441.441 522.586 442.261C522.863 443.081 522.689 443.971 522.066 444.931C521.46 445.881 520.291 446.856 518.558 447.856ZM535.698 437.84C534.104 438.76 532.39 439.39 530.554 439.73C528.735 440.06 526.96 440.105 525.228 439.865C523.478 439.615 521.911 439.09 520.525 438.29C519.122 437.48 518.204 436.58 517.771 435.59C517.338 434.58 517.381 433.575 517.901 432.575C518.403 431.565 519.365 430.65 520.785 429.83C522.153 429.04 523.677 428.5 525.358 428.21C527.038 427.9 528.744 427.875 530.476 428.135C532.19 428.385 533.801 428.945 535.308 429.815C535.464 429.905 535.637 430.015 535.828 430.145C536.001 430.265 536.166 430.38 536.321 430.49L524.968 437.045L522.604 435.68L531.827 430.355L530.969 431.66C530.242 431.24 529.462 430.96 528.631 430.82C527.8 430.68 526.977 430.675 526.163 430.805C525.332 430.925 524.569 431.185 523.877 431.585C523.184 431.985 522.725 432.43 522.5 432.92C522.274 433.39 522.292 433.87 522.552 434.36C522.794 434.84 523.288 435.295 524.033 435.725L524.656 436.085C525.418 436.525 526.258 436.82 527.176 436.97C528.094 437.1 529.012 437.08 529.93 436.91C530.848 436.72 531.723 436.385 532.554 435.905C533.299 435.475 533.836 435.035 534.165 434.585C534.511 434.125 534.693 433.63 534.711 433.1L539.205 433.205C539.292 433.995 539.049 434.785 538.478 435.575C537.889 436.355 536.962 437.11 535.698 437.84ZM539.254 419.167C540.362 418.527 541.575 418.087 542.891 417.847C544.207 417.587 545.576 417.577 546.996 417.817C548.399 418.047 549.81 418.572 551.231 419.392L559.233 424.012L555.18 426.352L547.801 422.092C546.675 421.442 545.593 421.107 544.554 421.087C543.532 421.057 542.57 421.302 541.67 421.822C541.029 422.192 540.587 422.607 540.345 423.067C540.102 423.507 540.111 423.972 540.371 424.462C540.648 424.942 541.219 425.432 542.085 425.932L548.996 429.922L544.943 432.262L530.966 424.192L534.837 421.957L538.708 424.192L536.811 423.937C536.378 423.107 536.378 422.277 536.811 421.447C537.244 420.617 538.058 419.857 539.254 419.167ZM568.83 418.711C567.185 419.661 565.487 420.161 563.738 420.211C561.971 420.251 560.257 419.791 558.594 418.831L546.331 411.751L550.384 409.411L562.595 416.461C563.184 416.801 563.799 416.976 564.439 416.986C565.063 416.986 565.643 416.831 566.18 416.521C566.821 416.151 567.193 415.736 567.297 415.276L571.246 416.296C571.125 416.706 570.848 417.126 570.415 417.556C569.982 417.966 569.454 418.351 568.83 418.711ZM550.696 416.761L547.578 414.961L557.269 409.366L560.386 411.166L550.696 416.761Z" fill="#13B3D3"/>
</g>
<g style="mix-blend-mode:screen" filter="url(#filter3_d_149_9)">
<path d="M251.271 293.126L233.085 282.626L240.957 278.081C242.585 277.141 244.256 276.486 245.971 276.116C247.668 275.736 249.331 275.646 250.959 275.846C252.587 276.046 254.086 276.541 255.454 277.331C256.805 278.111 257.654 278.971 258 279.911C258.347 280.851 258.199 281.816 257.558 282.806C256.9 283.786 255.757 284.746 254.129 285.686L248.595 288.881L248.569 286.706L255.48 290.696L251.271 293.126ZM249.037 286.976L245.166 286.901L250.466 283.841C251.765 283.091 252.458 282.371 252.544 281.681C252.631 280.991 252.18 280.361 251.193 279.791C250.189 279.211 249.089 278.946 247.894 278.996C246.699 279.046 245.451 279.446 244.152 280.196L238.852 283.256L238.722 281.021L249.037 286.976ZM276.88 278.58C275.286 279.5 273.572 280.13 271.736 280.47C269.917 280.8 268.142 280.845 266.41 280.605C264.66 280.355 263.093 279.83 261.707 279.03C260.304 278.22 259.386 277.32 258.953 276.33C258.52 275.32 258.563 274.315 259.083 273.315C259.585 272.305 260.547 271.39 261.967 270.57C263.335 269.78 264.859 269.24 266.54 268.95C268.22 268.64 269.926 268.615 271.658 268.875C273.372 269.125 274.983 269.685 276.49 270.555C276.646 270.645 276.819 270.755 277.01 270.885C277.183 271.005 277.348 271.12 277.503 271.23L266.15 277.785L263.786 276.42L273.009 271.095L272.151 272.4C271.424 271.98 270.644 271.7 269.813 271.56C268.982 271.42 268.159 271.415 267.345 271.545C266.514 271.665 265.751 271.925 265.059 272.325C264.366 272.725 263.907 273.17 263.682 273.66C263.456 274.13 263.474 274.61 263.734 275.1C263.976 275.58 264.47 276.035 265.214 276.465L265.838 276.825C266.6 277.265 267.44 277.56 268.358 277.71C269.276 277.84 270.194 277.82 271.112 277.65C272.03 277.46 272.905 277.125 273.736 276.645C274.481 276.215 275.018 275.775 275.347 275.325C275.693 274.865 275.875 274.37 275.893 273.84L280.387 273.945C280.474 274.735 280.231 275.525 279.66 276.315C279.071 277.095 278.144 277.85 276.88 278.58ZM280.436 259.908C281.544 259.268 282.757 258.828 284.073 258.588C285.389 258.328 286.758 258.318 288.178 258.558C289.581 258.788 290.992 259.313 292.413 260.133L300.415 264.753L296.362 267.093L288.983 262.833C287.857 262.183 286.775 261.848 285.736 261.828C284.714 261.798 283.752 262.043 282.852 262.563C282.211 262.933 281.769 263.348 281.527 263.808C281.284 264.248 281.293 264.713 281.553 265.203C281.83 265.683 282.401 266.173 283.267 266.673L290.178 270.663L286.125 273.003L272.148 264.933L276.019 262.698L279.89 264.933L277.993 264.678C277.56 263.848 277.56 263.018 277.993 262.188C278.426 261.358 279.24 260.598 280.436 259.908ZM310.399 259.228C309.083 259.988 307.602 260.503 305.957 260.773C304.294 261.033 302.614 261.033 300.917 260.773C299.236 260.503 297.669 259.948 296.214 259.108C294.742 258.258 293.772 257.348 293.304 256.378C292.854 255.398 292.862 254.433 293.33 253.483C293.798 252.533 294.69 251.678 296.006 250.918C297.184 250.238 298.474 249.793 299.877 249.583C301.28 249.373 302.752 249.433 304.294 249.763C305.836 250.093 307.429 250.733 309.074 251.683C310.703 252.623 311.82 253.538 312.426 254.428C313.015 255.308 313.127 256.153 312.764 256.963C312.417 257.763 311.629 258.518 310.399 259.228ZM307.775 256.903C308.434 256.523 308.875 256.088 309.1 255.598C309.326 255.108 309.308 254.608 309.048 254.098C308.789 253.568 308.26 253.073 307.464 252.613C306.65 252.143 305.792 251.838 304.892 251.698C304.008 251.548 303.142 251.538 302.293 251.668C301.445 251.798 300.691 252.053 300.033 252.433C299.358 252.823 298.907 253.263 298.682 253.753C298.457 254.243 298.466 254.748 298.708 255.268C298.968 255.778 299.505 256.268 300.319 256.738C301.116 257.198 301.964 257.508 302.865 257.668C303.766 257.808 304.64 257.813 305.489 257.683C306.338 257.553 307.1 257.293 307.775 256.903ZM314.556 256.588L311.699 254.938L307.62 252.493L303.229 250.258L295.097 245.563L299.15 243.223L318.428 254.353L314.556 256.588ZM322.179 252.187L308.201 244.117L312.254 241.777L326.232 249.847L322.179 252.187ZM308.279 241.822C307.534 242.252 306.712 242.477 305.811 242.497C304.91 242.517 304.139 242.342 303.499 241.972C302.858 241.602 302.555 241.157 302.589 240.637C302.624 240.117 303.014 239.642 303.758 239.212C304.503 238.782 305.317 238.552 306.201 238.522C307.067 238.482 307.82 238.647 308.461 239.017C309.136 239.407 309.465 239.867 309.448 240.397C309.431 240.907 309.041 241.382 308.279 241.822ZM324.303 234.58C325.412 233.94 326.624 233.5 327.941 233.26C329.257 233 330.625 232.99 332.046 233.23C333.449 233.46 334.86 233.985 336.281 234.805L344.283 239.425L340.23 241.765L332.851 237.505C331.725 236.855 330.643 236.52 329.604 236.5C328.582 236.47 327.62 236.715 326.72 237.235C326.079 237.605 325.637 238.02 325.395 238.48C325.152 238.92 325.161 239.385 325.421 239.875C325.698 240.355 326.269 240.845 327.135 241.345L334.046 245.335L329.993 247.675L316.016 239.605L319.887 237.37L323.758 239.605L321.861 239.35C321.428 238.52 321.428 237.69 321.861 236.86C322.294 236.03 323.108 235.27 324.303 234.58ZM359.879 236.481C358.563 237.241 357.125 237.881 355.566 238.401C354.042 238.921 352.553 239.231 351.098 239.331L349.799 236.721C350.873 236.661 351.998 236.451 353.176 236.091C354.389 235.731 355.437 235.296 356.32 234.786C357.757 233.956 358.476 233.171 358.476 232.431C358.494 231.681 357.87 230.941 356.606 230.211L354.501 228.996L351.254 226.821L347.668 224.811L344.655 223.071L348.5 220.851L360.139 227.571C362.737 229.071 363.976 230.566 363.854 232.056C363.733 233.546 362.408 235.021 359.879 236.481ZM353.332 233.421C352.033 234.171 350.578 234.691 348.967 234.981C347.357 235.251 345.728 235.281 344.083 235.071C342.437 234.841 340.939 234.336 339.588 233.556C338.22 232.766 337.345 231.901 336.964 230.961C336.583 230.001 336.635 229.061 337.12 228.141C337.622 227.211 338.523 226.371 339.822 225.621C341 224.941 342.282 224.481 343.667 224.241C345.036 223.991 346.473 224.011 347.98 224.301C349.47 224.581 350.994 225.171 352.553 226.071C354.094 226.961 355.116 227.841 355.618 228.711C356.103 229.571 356.138 230.401 355.722 231.201C355.307 232.001 354.51 232.741 353.332 233.421ZM350.812 231.036C351.522 230.626 352.016 230.181 352.293 229.701C352.553 229.211 352.579 228.726 352.371 228.246C352.163 227.766 351.721 227.331 351.046 226.941C350.353 226.541 349.6 226.286 348.785 226.176C347.954 226.056 347.123 226.076 346.291 226.236C345.443 226.386 344.663 226.666 343.953 227.076C343.243 227.486 342.758 227.936 342.498 228.426C342.221 228.906 342.178 229.391 342.368 229.881C342.559 230.351 343 230.786 343.693 231.186C344.369 231.576 345.122 231.831 345.954 231.951C346.802 232.061 347.651 232.041 348.5 231.891C349.331 231.731 350.102 231.446 350.812 231.036Z" fill="#13B3D3"/>
</g>
<path d="M408 378L404.46 395.5L394.46 412L381 426L365.5 436.5L338.5 448L310.96 455.5L282.5 459L253.962 460.5L228 457.5L204.96 452L192.5 448.5L179.539 444L160 433L143.5 421.5L131.96 408L124.5 394.5L122 378L123.934 157.4L404.934 157L408 378Z" fill="url(#paint5_linear_149_9)" fill-opacity="0.21"/>
<path d="M694.312 221.004L690.773 238.504L680.773 255.004L667.312 269.004L651.812 279.504L624.812 291.004L597.273 298.504L568.812 302.004L540.274 303.505L514.312 300.504L491.273 295.004L478.812 291.504L465.852 287.004L446.312 276.004L429.812 264.504L418.273 251.004L410.812 237.504L408.312 221.004L410.247 0.404845L691.247 0.00404741L694.312 221.004Z" fill="url(#paint6_linear_149_9)" fill-opacity="0.21"/>
<defs>
<filter id="filter0_d_149_9" x="176.555" y="320.746" width="185.062" height="110.225" filterUnits="userSpaceOnUse" color-interpolation-filters="sRGB">
<feFlood flood-opacity="0" result="BackgroundImageFix"/>
<feColorMatrix in="SourceAlpha" type="matrix" values="0 0 0 0 0 0 0 0 0 0 0 0 0 0 0 0 0 0 127 0" result="hardAlpha"/>
<feOffset dy="4"/>
<feGaussianBlur stdDeviation="2"/>
<feComposite in2="hardAlpha" operator="out"/>
<feColorMatrix type="matrix" values="0 0 0 0 0 0 0 0 0 0 0 0 0 0 0 0 0 0 0.25 0"/>
<feBlend mode="normal" in2="BackgroundImageFix" result="effect1_dropShadow_149_9"/>
<feBlend mode="normal" in="SourceGraphic" in2="effect1_dropShadow_149_9" result="shape"/>
</filter>
<filter id="filter1_d_149_9" x="462.555" y="164.746" width="185.062" height="110.225" filterUnits="userSpaceOnUse" color-interpolation-filters="sRGB">
<feFlood flood-opacity="0" result="BackgroundImageFix"/>
<feColorMatrix in="SourceAlpha" type="matrix" values="0 0 0 0 0 0 0 0 0 0 0 0 0 0 0 0 0 0 127 0" result="hardAlpha"/>
<feOffset dy="4"/>
<feGaussianBlur stdDeviation="2"/>
<feComposite in2="hardAlpha" operator="out"/>
<feColorMatrix type="matrix" values="0 0 0 0 0 0 0 0 0 0 0 0 0 0 0 0 0 0 0.25 0"/>
<feBlend mode="normal" in2="BackgroundImageFix" result="effect1_dropShadow_149_9"/>
<feBlend mode="normal" in="SourceGraphic" in2="effect1_dropShadow_149_9" result="shape"/>
</filter>
<filter id="filter2_d_149_9" x="488.344" y="406.006" width="87.8906" height="54.124" filterUnits="userSpaceOnUse" color-interpolation-filters="sRGB">
<feFlood flood-opacity="0" result="BackgroundImageFix"/>
<feColorMatrix in="SourceAlpha" type="matrix" values="0 0 0 0 0 0 0 0 0 0 0 0 0 0 0 0 0 0 127 0" result="hardAlpha"/>
<feOffset dy="4"/>
<feGaussianBlur stdDeviation="2"/>
<feComposite in2="hardAlpha" operator="out"/>
<feColorMatrix type="matrix" values="0 0 0 0 0 0 0 0 0 0 0 0 0 0 0 0 0 0 0.25 0"/>
<feBlend mode="normal" in2="BackgroundImageFix" result="effect1_dropShadow_149_9"/>
<feBlend mode="normal" in="SourceGraphic" in2="effect1_dropShadow_149_9" result="shape"/>
</filter>
<filter id="filter3_d_149_9" x="226.828" y="217.116" width="144.898" height="87.04" filterUnits="userSpaceOnUse" color-interpolation-filters="sRGB">
<feFlood flood-opacity="0" result="BackgroundImageFix"/>
<feColorMatrix in="SourceAlpha" type="matrix" values="0 0 0 0 0 0 0 0 0 0 0 0 0 0 0 0 0 0 127 0" result="hardAlpha"/>
<feOffset dy="4"/>
<feGaussianBlur stdDeviation="2"/>
<feComposite in2="hardAlpha" operator="out"/>
<feColorMatrix type="matrix" values="0 0 0 0 0 0 0 0 0 0 0 0 0 0 0 0 0 0 0.25 0"/>
<feBlend mode="normal" in2="BackgroundImageFix" result="effect1_dropShadow_149_9"/>
<feBlend mode="normal" in="SourceGraphic" in2="effect1_dropShadow_149_9" result="shape"/>
</filter>
<linearGradient id="paint0_linear_149_9" x1="285.709" y1="0" x2="285.709" y2="370.1" gradientUnits="userSpaceOnUse">
<stop stop-color="#13EDB1"/>
<stop offset="1" stop-color="#13B3D3"/>
</linearGradient>
<linearGradient id="paint1_linear_149_9" x1="285.709" y1="0" x2="285.709" y2="370.1" gradientUnits="userSpaceOnUse">
<stop stop-color="#13EDB1"/>
<stop offset="1" stop-color="#13B3D3"/>
</linearGradient>
<linearGradient id="paint2_linear_149_9" x1="197.644" y1="0" x2="197.644" y2="257.551" gradientUnits="userSpaceOnUse">
<stop stop-color="#13EDB1"/>
<stop offset="1" stop-color="#13B3D3"/>
</linearGradient>
<linearGradient id="paint3_linear_149_9" x1="408.164" y1="432.673" x2="122.164" y2="322.327" gradientUnits="userSpaceOnUse">
<stop stop-color="#13EDB1"/>
<stop offset="1" stop-color="#13B3D3"/>
</linearGradient>
<linearGradient id="paint4_linear_149_9" x1="694.164" y1="276.673" x2="408.164" y2="166.327" gradientUnits="userSpaceOnUse">
<stop stop-color="#13EDB1"/>
<stop offset="1" stop-color="#13B3D3"/>
</linearGradient>
<linearGradient id="paint5_linear_149_9" x1="264.813" y1="377.2" x2="264.499" y2="157.201" gradientUnits="userSpaceOnUse">
<stop stop-color="#8DFFF8"/>
<stop offset="1" stop-color="#559995" stop-opacity="0"/>
</linearGradient>
<linearGradient id="paint6_linear_149_9" x1="551.125" y1="220.205" x2="550.811" y2="0.205095" gradientUnits="userSpaceOnUse">
<stop stop-color="#8DFFF8"/>
<stop offset="1" stop-color="#559995" stop-opacity="0"/>
</linearGradient>
</defs>
</svg>