<svg xmlns="http://www.w3.org/2000/svg" viewBox="0 0 493.6 758" xmlns:v="https://vecta.io/nano"><style>.A{isolation:isolate}.V{mix-blend-mode:overlay}.C{mix-blend-mode:screen}</style><defs><linearGradient id="A" x1="349.2" y1="599.5" x2="240.4" y2="196" href="#Q"><stop offset="0" stop-color="#fff" stop-opacity=".3"/><stop offset=".5" stop-color="#13b3d3" stop-opacity=".3"/><stop offset=".8" stop-color="#13b3d3" stop-opacity="0"/></linearGradient><linearGradient id="B" x1="-318.2" y1="1098.5" x2="-125.6" y2="370.3" gradientTransform="translate(-206.6 1078.1) rotate(30) scale(1 -.9) skewX(26.6)" href="#Q"><stop offset="0" stop-color="#13e7b4"/><stop offset="1" stop-color="#12b9cf"/></linearGradient><linearGradient id="C" x1="383.6" y1="109.6" x2="237.1" y2="340.5" href="#Q"><stop offset="0" stop-color="#6cffd7" stop-opacity="0"/><stop offset="1" stop-color="#13b3d3" stop-opacity=".2"/></linearGradient><linearGradient id="D" x1="255.5" y1="186.9" x2="109" y2="417.8" href="#Q"><stop offset="0" stop-color="#6cffd7" stop-opacity=".2"/><stop offset="1" stop-color="#13b3d3" stop-opacity=".5"/></linearGradient><linearGradient id="E" x1="70.7" y1="424.2" x2="313.3" y2="166.5" href="#Q"><stop offset="0" stop-color="#13edb1" stop-opacity=".5"/><stop offset="1" stop-color="#13b3d3" stop-opacity=".5"/></linearGradient><linearGradient id="F" x1="333.6" y1="136.8" x2="187.1" y2="367.7" href="#Q"><stop offset="0" stop-color="#6cffd7" stop-opacity=".1"/><stop offset="1" stop-color="#13b3d3" stop-opacity=".2"/></linearGradient><path id="G" d="M418.7,464.2c94.9,54.8,94.9,143.7,0,198.5s-248.9,54.8-343.8,0-94.9-143.7,0-198.5,248.9-54.8,343.8,0Z"/><path id="H" d="M342.1 83.3L210.9 0v323.9l198.9 126.2v-240L342.1 83.3z"/><path id="I" d="M214 160.5L82.8 77.3v323.9l198.9 126.2v-240L214 160.6z"/><path id="J" d="M82.8 78l22-14 125.7 82.3h0l70.6 126.9h.2c0-.1 0 239.4 0 239.4l-22 14V287.3h0l-67.4-127.6h-.1L82.9 78z"/><path id="K" d="M92.8 224.6l167 97.4v6.5l-167-97.4v-6.5z"/><path id="L" d="M92.8 260.6l95 55.4v6.5l-95-55.4v-6.5z"/><path id="M" d="M192.5 318.8l67.3 39.2v6.5l-67.3-39.3v-6.4z"/><path id="N" d="M192.5 342.8l67.3 39.2v6.4l-67.3-39.2v-6.4z"/><path id="O" d="M92.8 308.6l167 97.4v6.4l-167-97.3v-6.5z"/><path id="P" d="M292.1,110.5L160.9,27.2v323.9l198.9,126.2v-240l-67.7-126.8Z"/><linearGradient id="Q" gradientUnits="userSpaceOnUse"/></defs><g class="A"><path d="M421.3,514.8c96.4,55.6,96.4,145.9,0,201.5s-252.6,55.6-349,0-96.4-145.9,0-201.5,252.6-55.6,349,0Z" fill="#13b3d3"/><path class="C" d="M13.8,184.9l459.3,44.3-101.5,366.7-53.5,44.9-65.6,14.4-71.9-10.5-45.5-52.3L13.8,184.9Z" fill="url(#A)"/><path d="M421.3,489.8c96.4,55.6,96.4,145.9,0,201.5s-252.6,55.6-349,0-96.4-145.9,0-201.5,252.6-55.6,349,0Z" fill="url(#B)"/><path class="C" d="M421.3,462.8c96.4,55.6,96.4,145.9,0,201.5s-252.6,55.6-349,0-96.4-145.9,0-201.5,252.6-55.6,349,0Z" fill="#fff" fill-opacity=".3"/><g class="C"><use href="#G" fill="#17edfe"/><use href="#G" fill="none" stroke="#fff" stroke-width="6"/></g><path d="M298.6,529.6c-5.7-3.3-15-3.3-20.8,0l-30.4,17.6-34.5-20.2c-5.2-3.1-13.8-3.1-19.1,0l-11,6.3c-5.3,3-5.4,7.9-.1,11l34.7,20.3-30.9,17.8c-5.7,3.3-5.7,8.7,0,12l11.3,6.5c5.7,3.3,15,3.3,20.8,0l30.7-17.7,33.6,19.7c5.2,3.1,13.8,3.1,19.1,0l11-6.3c5.3-3,5.4-7.9.1-11l-33.8-19.8,30.6-17.7c5.7-3.3,5.7-8.7,0-12l-11.3-6.5Z" fill-rule="evenodd" fill="#fff"/><path d="M346.5,505.6c55.1,31.8,55.1,83.4,0,115.2s-144.5,31.8-199.6,0-55.1-83.4,0-115.2,144.5-31.8,199.6,0Z" stroke-width="50" fill="none" stroke="#fff"/><g fill-rule="evenodd"><use href="#H" fill="url(#C)"/><use href="#H" fill="url(#C)"/></g><path class="C" d="M102.2 187.3c-1-.6-1.9-1.2-2.8-2s-1.6-1.6-2.1-2.4l1-1.9a16.8 16.8 0 0 0 1.8 2.1c.7.7 1.4 1.2 2.2 1.6l1.3.6h.8c.2-.1.2-.3.2-.6s-.1-.7-.4-1.1-.6-.7-1-1.1-.9-.8-1.4-1.2-1-.9-1.5-1.4l-1.4-1.5c-.4-.5-.8-1.1-1-1.8-.3-.6-.4-1.3-.4-2.1s.2-1.4.6-1.9c.4-.4.9-.6 1.7-.6s1.7.4 2.9 1c.8.4 1.5 1 2.3 1.6.7.6 1.4 1.3 2 2.1l-.9 2c-.6-.7-1.1-1.3-1.7-1.8s-1.1-.9-1.7-1.2c-.5-.3-1-.5-1.3-.5s-.6 0-.7.1-.2.4-.2.7.1.7.4 1.1.6.7 1 1.1.9.8 1.4 1.2l1.5 1.3 1.4 1.5c.4.5.8 1.1 1 1.7.3.6.4 1.3.4 2s-.2 1.4-.6 1.8-1 .6-1.7.6c-.8 0-1.7-.4-2.9-1.1zm12.9 7.5c-.9-.5-1.8-1.2-2.6-2s-1.5-1.7-2.1-2.7-1.1-2-1.4-3.1-.5-2.1-.5-3.2.2-1.9.5-2.6a2.94 2.94 0 0 1 1.4-1.5c.6-.3 1.3-.4 2.1-.3s1.7.4 2.6 1c1.1.6 2 1.4 2.8 2.3a9.45 9.45 0 0 1 2.1 3.1l-1.8.9c-.4-.8-.9-1.5-1.4-2-.5-.6-1.1-1-1.7-1.4-.6-.3-1.1-.5-1.6-.6-.5 0-.9 0-1.2.2s-.6.5-.8 1c-.2.4-.3 1-.3 1.7s0 1.3.3 2c.2.7.5 1.3.8 1.9s.8 1.1 1.2 1.6c.5.5 1 .9 1.6 1.2s1.2.5 1.7.6c.5 0 1-.1 1.4-.5l1.8 3c-.6.5-1.3.7-2.1.6-.8 0-1.8-.4-2.9-1zm6.9 3.7v-14l5.2 3c1.1.6 2 1.4 2.8 2.2.8.9 1.4 1.8 1.8 2.8a8.15 8.15 0 0 1 .6 3.1c0 1.1-.2 1.8-.6 2.3s-1 .7-1.8.7-1.7-.4-2.8-1l-3.7-2.1 1.2-.7v5.3l-2.8-1.6zm7.7 4.5l-3-6.8 3 1.7 3.1 6.8-3-1.8zm-4.9-7.8l-1.2-2.2 3.5 2c.9.5 1.5.7 1.9.5s.6-.7.6-1.4a4.56 4.56 0 0 0-.6-2.2c-.4-.7-1.1-1.3-1.9-1.8l-3.5-2 1.2-.8v7.9zm9.9 10.7v-14l2.8 1.6v14l-2.8-1.6zm5.7 3.2v-14l5.2 3c1.1.6 2 1.4 2.8 2.2.8.9 1.4 1.8 1.8 2.8a8.15 8.15 0 0 1 .6 3.1c0 1.1-.2 1.8-.6 2.3s-1 .8-1.8.7c-.8 0-1.7-.4-2.8-1l-3.7-2.1 1.2-.7v5.3l-2.8-1.6zm2.8-3.3l-1.2-2.3 3.5 2c.9.5 1.5.7 1.9.5s.6-.6.6-1.4-.2-1.5-.6-2.2-1.1-1.3-1.9-1.8l-3.5-2 1.2-.8v7.9zm11.9 11.8v-11.4l-3.9-2.2v-2.6l10.6 6.1v2.6l-3.9-2.2v11.4l-2.8-1.6z" fill="#fff"/><g fill-rule="evenodd"><use href="#I" fill="url(#D)"/><use href="#I" fill="url(#D)"/><use href="#J" fill="url(#E)"/></g><g fill="#fff" class="C"><use href="#K"/><use href="#L"/><use href="#M"/><use href="#N"/><use href="#K" y="24"/><use href="#K" y="12"/><use href="#K" y="48"/><use href="#O"/><use href="#O" y="-12"/><use href="#L" y="24"/></g><use href="#J" fill-rule="evenodd" fill="url(#E)"/><g fill="#fff" class="C"><use href="#K"/><use href="#L"/><use href="#M"/><use href="#N"/><use href="#K" y="24"/><use href="#K" y="12"/><use href="#K" y="48"/><use href="#O"/><use href="#O" y="-12"/><use href="#L" y="24"/></g><g fill-rule="evenodd"><use href="#P" fill="url(#F)"/><use href="#P" fill="url(#F)"/><use href="#I" fill="url(#D)"/><use href="#I" fill="url(#D)"/></g><path class="V" d="M184.1 88.5c-1-.6-1.8-1.2-2.7-2.1-.8-.8-1.5-1.7-2.1-2.7s-1.1-2-1.4-3.1-.5-2.1-.5-3.2.2-1.9.5-2.6a2.94 2.94 0 0 1 1.4-1.5c.6-.3 1.3-.4 2.1-.3s1.7.4 2.6 1c1 .6 1.8 1.2 2.6 2.1.8.8 1.5 1.7 2.1 2.7s1.1 2 1.4 3.1.5 2.1.5 3.2-.2 1.9-.5 2.6a2.94 2.94 0 0 1-1.4 1.5c-.6.3-1.3.4-2.1.3s-1.7-.4-2.6-1zm0-2.8c.5.3 1 .5 1.5.5s.9 0 1.2-.2.6-.5.8-1c.2-.4.3-1 .3-1.6s0-1.3-.3-2c-.2-.7-.5-1.3-.8-1.9s-.7-1.1-1.2-1.6-1-.9-1.5-1.2-1-.5-1.5-.6c-.5 0-.8 0-1.2.2a2.36 2.36 0 0 0-.8.9c-.2.4-.3 1-.3 1.7s0 1.3.3 2c.2.7.5 1.3.8 1.9s.8 1.1 1.2 1.6c.5.5 1 .9 1.5 1.2zm8.7 7.6v-14l5.2 3c1.1.6 2 1.4 2.8 2.2.8.9 1.4 1.8 1.8 2.8a8.15 8.15 0 0 1 .6 3.1c0 1.1-.2 1.8-.6 2.3s-1 .8-1.8.7c-.8 0-1.7-.4-2.8-1l-3.7-2.1 1.2-.7v5.3l-2.8-1.6zm2.8-3.4l-1.2-2.3 3.5 2c.9.5 1.5.7 1.9.5s.6-.6.6-1.4-.2-1.5-.6-2.2-1.1-1.3-1.9-1.8l-3.5-2 1.2-.8v7.9zm7.8 11.3v-1.8l8.7 5v1.8l-8.7-5zm15.4 7.3c-.9-.5-1.8-1.2-2.6-2s-1.5-1.7-2.1-2.7-1-2-1.4-3.1c-.3-1.1-.5-2.1-.5-3.2s.2-1.9.5-2.6a2.94 2.94 0 0 1 1.4-1.5c.6-.3 1.3-.4 2.1-.3s1.7.4 2.6 1c1.1.6 2 1.4 2.8 2.3a9.45 9.45 0 0 1 2.1 3.1l-1.8.9c-.4-.8-.9-1.5-1.4-2-.5-.6-1.1-1-1.7-1.4-.6-.3-1.1-.5-1.6-.6-.5 0-.9 0-1.2.2a2.36 2.36 0 0 0-.8.9c-.2.4-.3 1-.3 1.7s0 1.3.3 2c.2.7.5 1.3.8 1.9s.8 1.1 1.2 1.6c.5.5 1 .9 1.6 1.2s1.2.5 1.7.6c.5 0 1-.1 1.4-.5l1.8 3c-.6.5-1.3.7-2.1.6-.8 0-1.8-.4-2.9-1zm12.5 7.2c-1-.6-1.8-1.2-2.7-2.1-.8-.8-1.5-1.7-2.1-2.7s-1-2-1.4-3.1c-.3-1.1-.5-2.1-.5-3.2s.2-1.9.5-2.6a2.94 2.94 0 0 1 1.4-1.5c.6-.3 1.3-.4 2.1-.3s1.7.4 2.6 1c1 .6 1.8 1.2 2.6 2.1.8.8 1.5 1.7 2.1 2.7s1.1 2 1.4 3.1.5 2.1.5 3.2-.2 1.9-.5 2.6a2.94 2.94 0 0 1-1.4 1.5c-.6.3-1.3.4-2.1.3-.8 0-1.7-.4-2.6-1zm0-2.7c.5.3 1 .5 1.5.5s.9 0 1.2-.2.6-.5.8-1c.2-.4.3-1 .3-1.7s0-1.3-.3-2c-.2-.7-.4-1.3-.8-1.9-.3-.6-.7-1.1-1.2-1.6s-1-.9-1.5-1.2-1-.5-1.5-.6c-.5 0-.8 0-1.2.2a2.36 2.36 0 0 0-.8.9c-.2.4-.3 1-.3 1.7s0 1.3.3 2c.2.7.5 1.3.8 1.9s.8 1.1 1.2 1.6c.5.5 1 .9 1.5 1.2zm8.8 7.5v-14l5.5 3.2c1.3.8 2.5 1.7 3.5 2.9s1.8 2.4 2.4 3.8.8 2.8.8 4.2-.3 2.5-.8 3.2a3.04 3.04 0 0 1-2.4 1.1c-1 0-2.2-.4-3.5-1.1l-5.5-3.2zm2.8-1l2.6 1.5c.8.5 1.5.7 2.1.7a1.75 1.75 0 0 0 1.4-.7c.3-.5.5-1.1.5-2s-.2-1.8-.5-2.6-.8-1.6-1.4-2.3-1.3-1.3-2.1-1.8l-2.6-1.5v8.7zm14.1 2.4l5.8 3.4v2.5l-5.8-3.4v-2.5zm.2 5.9l6.6 3.8v2.6l-9.4-5.4v-14l9.2 5.3v2.6l-6.4-3.7v8.8z" fill="#fff"/></g></svg>