<svg xmlns="http://www.w3.org/2000/svg" fill="none" viewBox="9.82 0 579.18 575.5">
<g style="mix-blend-mode:screen" filter="url(#filter0_d_149_10)">
<path d="M430.989 147.05C426.774 144.617 422.588 141.567 418.432 137.9C414.332 134.2 410.811 130.3 407.866 126.2L413.409 117C415.718 120.267 418.374 123.333 421.376 126.2C424.436 129.1 427.525 131.45 430.642 133.25C434.164 135.283 436.936 136.083 438.956 135.65C440.977 135.217 441.987 133.567 441.987 130.7C441.987 128.9 441.583 127.067 440.775 125.2C439.967 123.333 438.523 121.433 436.445 119.5C434.424 117.6 431.566 115.583 427.871 113.45L412.369 104.5L415.487 66.9L452.466 88.25V101.25L420.51 82.8L427.785 79.6L425.62 106.45L418.345 94.85L431.162 102.25C437.167 105.717 441.987 109.467 445.625 113.5C449.32 117.5 452.004 121.617 453.679 125.85C455.353 130.083 456.19 134.267 456.19 138.4C456.19 142.533 455.295 145.85 453.506 148.35C451.716 150.783 448.944 152.017 445.192 152.05C441.497 152.05 436.762 150.383 430.989 147.05Z" fill="white"/>
</g>
<ellipse cx="121.553" cy="125.553" rx="121.553" ry="125.553" transform="matrix(0.866025 -0.5 0.866025 0.5 161 344.553)" fill="#8DFFF8"/>
<path fill-rule="evenodd" clip-rule="evenodd" d="M476.041 413.834C418.335 448.874 324.774 448.874 267.068 413.834C209.362 378.794 209.362 321.982 267.068 286.942C324.774 251.902 418.335 251.902 476.041 286.942C533.747 321.982 533.747 378.794 476.041 413.834ZM244.685 450.65C326.335 488.844 443.95 485.222 518.779 439.785C600.089 390.413 600.089 310.364 518.779 260.991C437.469 211.618 305.64 211.618 224.33 260.991C149.501 306.428 143.537 377.847 206.437 427.426L128.104 474.991L166.352 498.216L244.685 450.65Z" fill="#13B3D3"/>
<path fill-rule="evenodd" clip-rule="evenodd" d="M476.041 390.24C418.335 425.28 324.774 425.28 267.068 390.24C209.362 355.2 209.362 298.389 267.068 263.348C324.774 228.308 418.335 228.308 476.041 263.348C533.747 298.389 533.747 355.2 476.041 390.24ZM244.685 427.057C326.335 465.25 443.95 461.629 518.779 416.191C600.089 366.819 600.089 286.77 518.779 237.397C437.469 188.024 305.64 188.024 224.33 237.397C149.501 282.835 143.537 354.253 206.437 403.832L128.104 451.397L166.352 474.622L244.685 427.057Z" fill="#13EDB1"/>
<rect width="44.7471" height="24.1217" transform="matrix(0.85476 0.519024 0 1 128.289 451.029)" fill="#13B3D3"/>
<rect width="131.224" height="37.1979" transform="matrix(0.85476 -0.519024 0 1 67.3047 538.307)" fill="url(#paint0_linear_149_10)"/>
<rect width="131.448" height="35.7514" transform="matrix(0.85476 -0.519024 0 1 9.82031 503.77)" fill="url(#paint1_linear_149_10)"/>
<rect width="67.4758" height="130.69" transform="matrix(0.85476 0.519024 -0.85476 0.519024 121.531 435.545)" fill="url(#paint2_linear_149_10)"/>
<rect width="67.4758" height="35.7924" transform="matrix(0.85476 0.519024 0 1 9.82031 503.377)" fill="url(#paint3_linear_149_10)"/>
<path d="M221 0H517V335L518.5 338L516 346L510.5 357L498 373L478.5 388.5L456 399.5L412.5 413L367.5 416.5L322.5 411L280 396L261.5 386L245 373L231 355L224.5 337.5L221 0Z" fill="url(#paint4_linear_149_10)"/>
<path fill-rule="evenodd" clip-rule="evenodd" d="M469.994 333.967L446.086 312.755L360.745 329.322L333.301 304.974L284.871 314.375L336.279 359.984L384.71 350.583L384.653 350.533L469.994 333.967Z" fill="white"/>
<g style="mix-blend-mode:screen" filter="url(#filter1_d_149_10)">
<path d="M281.036 146.5C276.822 144.067 272.636 141.017 268.479 137.35C264.322 133.617 260.8 129.717 257.913 125.65L263.369 116.4C265.679 119.667 268.363 122.75 271.423 125.65C274.483 128.55 277.572 130.9 280.69 132.7C284.212 134.733 286.983 135.533 289.004 135.1C291.024 134.667 292.035 133.05 292.035 130.25C292.035 127.583 291.14 124.967 289.35 122.4C287.56 119.833 284.674 117.4 280.69 115.1L274.281 111.4V100.7L291.169 88.35L292.728 95.05L260.944 76.7V63.7L303.38 88.2V98.7L286.579 111.1L279.477 102.3L283.548 104.65C290.996 108.95 296.625 114.133 300.435 120.2C304.246 126.267 306.151 132.333 306.151 138.4C306.151 142.333 305.256 145.517 303.466 147.95C301.677 150.317 298.934 151.5 295.239 151.5C291.544 151.5 286.81 149.833 281.036 146.5Z" fill="white"/>
</g>
<g style="mix-blend-mode:screen" filter="url(#filter2_d_149_10)">
<path d="M381.492 238.65C376.412 235.717 371.966 232.283 368.155 228.35C364.345 224.35 361.372 220.133 359.235 215.7C357.099 211.2 356.031 206.783 356.031 202.45C356.031 198.117 357.07 195.05 359.149 193.25C361.285 191.417 364.258 190.833 368.069 191.5C371.879 192.1 376.354 193.883 381.492 196.85C386.688 199.85 391.192 203.25 395.002 207.05C398.87 210.817 401.844 214.833 403.922 219.1C406.058 223.333 407.127 227.617 407.127 231.95C407.127 236.283 406.058 239.467 403.922 241.5C401.786 243.467 398.784 244.233 394.916 243.8C391.105 243.333 386.631 241.617 381.492 238.65ZM381.492 226.75C385.014 228.783 387.785 229.483 389.806 228.85C391.885 228.25 392.924 226.383 392.924 223.25C392.924 220.117 391.885 217.083 389.806 214.15C387.785 211.183 385.014 208.683 381.492 206.65C378.028 204.65 375.286 203.967 373.265 204.6C371.244 205.167 370.234 207.017 370.234 210.15C370.234 213.283 371.244 216.333 373.265 219.3C375.286 222.267 378.028 224.75 381.492 226.75ZM381.492 205.05C376.816 202.35 372.717 199.25 369.195 195.75C365.731 192.283 363.017 188.583 361.054 184.65C359.149 180.683 358.196 176.733 358.196 172.8C358.196 168.667 359.178 165.7 361.141 163.9C363.104 162.033 365.846 161.317 369.368 161.75C372.89 162.117 376.931 163.617 381.492 166.25C386.169 168.95 390.239 172.133 393.703 175.8C397.225 179.433 399.967 183.317 401.93 187.45C403.951 191.55 404.962 195.667 404.962 199.8C404.962 203.733 403.98 206.567 402.017 208.3C400.112 210 397.398 210.567 393.876 210C390.355 209.433 386.227 207.783 381.492 205.05ZM381.492 195.55C384.437 197.25 386.746 197.817 388.42 197.25C390.152 196.717 391.019 195.117 391.019 192.45C391.019 189.65 390.124 186.967 388.334 184.4C386.602 181.867 384.321 179.783 381.492 178.15C378.721 176.55 376.469 176.017 374.737 176.55C373.005 177.083 372.139 178.75 372.139 181.55C372.139 184.217 372.976 186.8 374.651 189.3C376.325 191.8 378.605 193.883 381.492 195.55Z" fill="white"/>
</g>
<defs>
<filter id="filter0_d_149_10" x="403.867" y="62.5" width="56.3203" height="107.1" filterUnits="userSpaceOnUse" color-interpolation-filters="sRGB">
<feFlood flood-opacity="0" result="BackgroundImageFix"/>
<feColorMatrix in="SourceAlpha" type="matrix" values="0 0 0 0 0 0 0 0 0 0 0 0 0 0 0 0 0 0 127 0" result="hardAlpha"/>
<feOffset dy="4"/>
<feGaussianBlur stdDeviation="2"/>
<feComposite in2="hardAlpha" operator="out"/>
<feColorMatrix type="matrix" values="0 0 0 0 0 0 0 0 0 0 0 0 0 0 0 0 0 0 0.25 0"/>
<feBlend mode="normal" in2="BackgroundImageFix" result="effect1_dropShadow_149_10"/>
<feBlend mode="normal" in="SourceGraphic" in2="effect1_dropShadow_149_10" result="shape"/>
</filter>
<filter id="filter1_d_149_10" x="253.914" y="61.9502" width="56.2344" height="107.05" filterUnits="userSpaceOnUse" color-interpolation-filters="sRGB">
<feFlood flood-opacity="0" result="BackgroundImageFix"/>
<feColorMatrix in="SourceAlpha" type="matrix" values="0 0 0 0 0 0 0 0 0 0 0 0 0 0 0 0 0 0 127 0" result="hardAlpha"/>
<feOffset dy="4"/>
<feGaussianBlur stdDeviation="2"/>
<feComposite in2="hardAlpha" operator="out"/>
<feColorMatrix type="matrix" values="0 0 0 0 0 0 0 0 0 0 0 0 0 0 0 0 0 0 0.25 0"/>
<feBlend mode="normal" in2="BackgroundImageFix" result="effect1_dropShadow_149_10"/>
<feBlend mode="normal" in="SourceGraphic" in2="effect1_dropShadow_149_10" result="shape"/>
</filter>
<filter id="filter2_d_149_10" x="352.031" y="151.55" width="59.0938" height="109.9" filterUnits="userSpaceOnUse" color-interpolation-filters="sRGB">
<feFlood flood-opacity="0" result="BackgroundImageFix"/>
<feColorMatrix in="SourceAlpha" type="matrix" values="0 0 0 0 0 0 0 0 0 0 0 0 0 0 0 0 0 0 127 0" result="hardAlpha"/>
<feOffset dy="4"/>
<feGaussianBlur stdDeviation="2"/>
<feComposite in2="hardAlpha" operator="out"/>
<feColorMatrix type="matrix" values="0 0 0 0 0 0 0 0 0 0 0 0 0 0 0 0 0 0 0.25 0"/>
<feBlend mode="normal" in2="BackgroundImageFix" result="effect1_dropShadow_149_10"/>
<feBlend mode="normal" in="SourceGraphic" in2="effect1_dropShadow_149_10" result="shape"/>
</filter>
<linearGradient id="paint0_linear_149_10" x1="33.3299" y1="3.52373e-07" x2="44.5047" y2="49.2998" gradientUnits="userSpaceOnUse">
<stop stop-color="#13EDB1"/>
<stop offset="1" stop-color="#13B3D3"/>
</linearGradient>
<linearGradient id="paint1_linear_149_10" x1="33.3866" y1="3.3867e-07" x2="43.7318" y2="47.5672" gradientUnits="userSpaceOnUse">
<stop stop-color="#13EDB1"/>
<stop offset="1" stop-color="#13B3D3"/>
</linearGradient>
<linearGradient id="paint2_linear_149_10" x1="17.1383" y1="1.23802e-06" x2="100.124" y2="53.5822" gradientUnits="userSpaceOnUse">
<stop stop-color="#13EDB1"/>
<stop offset="1" stop-color="#13B3D3"/>
</linearGradient>
<linearGradient id="paint3_linear_149_10" x1="17.1383" y1="3.39059e-07" x2="35.0675" y2="42.2694" gradientUnits="userSpaceOnUse">
<stop stop-color="#13EDB1"/>
<stop offset="1" stop-color="#13B3D3"/>
</linearGradient>
<linearGradient id="paint4_linear_149_10" x1="366.902" y1="335" x2="371.098" y2="6.70642e-06" gradientUnits="userSpaceOnUse">
<stop stop-color="#8DFFF8" stop-opacity="0.47"/>
<stop offset="1" stop-color="#559995" stop-opacity="0"/>
</linearGradient>
</defs>
</svg>