<?xml version="1.0" encoding="UTF-8"?>
<svg xmlns="http://www.w3.org/2000/svg" xmlns:xlink="http://www.w3.org/1999/xlink" version="1.1" viewBox="0 0 493.6 758">
  <!-- Generator: Adobe Illustrator 29.4.0, SVG Export Plug-In . SVG Version: 2.1.0 Build 152)  -->
  <defs>
    <style>
      .st0 {
        fill: url(#linear-gradient11);
      }

      .st0, .st1, .st2, .st3, .st4, .st5, .st6, .st7, .st8, .st9, .st10 {
        fill-rule: evenodd;
      }

      .st1 {
        fill: url(#linear-gradient10);
      }

      .st2, .st11, .st12 {
        fill: #fff;
      }

      .st13 {
        fill: url(#linear-gradient1);
      }

      .st14 {
        fill: url(#linear-gradient);
      }

      .st15 {
        fill: #13b3d3;
      }

      .st16 {
        isolation: isolate;
      }

      .st17 {
        stroke-width: 50px;
      }

      .st17, .st18 {
        fill: none;
        stroke: #fff;
      }

      .st18 {
        stroke-width: 6px;
      }

      .st19 {
        fill: #17edfe;
      }

      .st20 {
        mix-blend-mode: overlay;
      }

      .st21 {
        mix-blend-mode: screen;
      }

      .st12 {
        fill-opacity: .3;
      }

      .st3 {
        fill: url(#linear-gradient2);
      }

      .st4 {
        fill: url(#linear-gradient8);
      }

      .st5 {
        fill: url(#linear-gradient7);
      }

      .st6 {
        fill: url(#linear-gradient4);
      }

      .st7 {
        fill: url(#linear-gradient5);
      }

      .st8 {
        fill: url(#linear-gradient3);
      }

      .st9 {
        fill: url(#linear-gradient6);
      }

      .st10 {
        fill: url(#linear-gradient9);
      }
    </style>
    <linearGradient id="linear-gradient" x1="349.2" y1="218.5" x2="240.4" y2="622" gradientTransform="translate(0 818) scale(1 -1)" gradientUnits="userSpaceOnUse">
      <stop offset="0" stop-color="#fff" stop-opacity=".3"/>
      <stop offset=".5" stop-color="#13b3d3" stop-opacity=".3"/>
      <stop offset=".8" stop-color="#13b3d3" stop-opacity="0"/>
    </linearGradient>
    <linearGradient id="linear-gradient1" x1="-318.2" y1="1098.5" x2="-125.6" y2="370.3" gradientTransform="translate(-206.6 1078.1) rotate(30) scale(1 -.9) skewX(26.6)" gradientUnits="userSpaceOnUse">
      <stop offset="0" stop-color="#13e7b4"/>
      <stop offset="1" stop-color="#12b9cf"/>
    </linearGradient>
    <linearGradient id="linear-gradient2" x1="383.6" y1="708.4" x2="237.1" y2="477.5" gradientTransform="translate(0 818) scale(1 -1)" gradientUnits="userSpaceOnUse">
      <stop offset="0" stop-color="#6cffd7" stop-opacity="0"/>
      <stop offset="1" stop-color="#13b3d3" stop-opacity=".2"/>
    </linearGradient>
    <linearGradient id="linear-gradient3" x1="383.6" y1="708.4" x2="237.1" y2="477.5" gradientTransform="translate(0 818) scale(1 -1)" gradientUnits="userSpaceOnUse">
      <stop offset="0" stop-color="#6cffd7" stop-opacity="0"/>
      <stop offset="1" stop-color="#13b3d3" stop-opacity=".2"/>
    </linearGradient>
    <linearGradient id="linear-gradient4" x1="255.5" y1="631.1" x2="109" y2="400.2" gradientTransform="translate(0 818) scale(1 -1)" gradientUnits="userSpaceOnUse">
      <stop offset="0" stop-color="#6cffd7" stop-opacity=".2"/>
      <stop offset="1" stop-color="#13b3d3" stop-opacity=".5"/>
    </linearGradient>
    <linearGradient id="linear-gradient5" x1="255.5" y1="631.1" x2="109" y2="400.2" gradientTransform="translate(0 818) scale(1 -1)" gradientUnits="userSpaceOnUse">
      <stop offset="0" stop-color="#6cffd7" stop-opacity=".2"/>
      <stop offset="1" stop-color="#13b3d3" stop-opacity=".5"/>
    </linearGradient>
    <linearGradient id="linear-gradient6" x1="70.7" y1="393.8" x2="313.3" y2="651.5" gradientTransform="translate(0 818) scale(1 -1)" gradientUnits="userSpaceOnUse">
      <stop offset="0" stop-color="#13edb1" stop-opacity=".5"/>
      <stop offset="1" stop-color="#13b3d3" stop-opacity=".5"/>
    </linearGradient>
    <linearGradient id="linear-gradient7" x1="70.7" y1="393.8" x2="313.3" y2="651.5" gradientTransform="translate(0 818) scale(1 -1)" gradientUnits="userSpaceOnUse">
      <stop offset="0" stop-color="#13edb1" stop-opacity=".5"/>
      <stop offset="1" stop-color="#13b3d3" stop-opacity=".5"/>
    </linearGradient>
    <linearGradient id="linear-gradient8" x1="333.6" y1="681.2" x2="187.1" y2="450.3" gradientTransform="translate(0 818) scale(1 -1)" gradientUnits="userSpaceOnUse">
      <stop offset="0" stop-color="#6cffd7" stop-opacity=".1"/>
      <stop offset="1" stop-color="#13b3d3" stop-opacity=".2"/>
    </linearGradient>
    <linearGradient id="linear-gradient9" x1="333.6" y1="681.2" x2="187.1" y2="450.3" gradientTransform="translate(0 818) scale(1 -1)" gradientUnits="userSpaceOnUse">
      <stop offset="0" stop-color="#6cffd7" stop-opacity=".1"/>
      <stop offset="1" stop-color="#13b3d3" stop-opacity=".2"/>
    </linearGradient>
    <linearGradient id="linear-gradient10" x1="255.5" y1="631.1" x2="109" y2="400.2" gradientTransform="translate(0 818) scale(1 -1)" gradientUnits="userSpaceOnUse">
      <stop offset="0" stop-color="#6cffd7" stop-opacity=".2"/>
      <stop offset="1" stop-color="#13b3d3" stop-opacity=".5"/>
    </linearGradient>
    <linearGradient id="linear-gradient11" x1="255.5" y1="631.1" x2="109" y2="400.2" gradientTransform="translate(0 818) scale(1 -1)" gradientUnits="userSpaceOnUse">
      <stop offset="0" stop-color="#6cffd7" stop-opacity=".2"/>
      <stop offset="1" stop-color="#13b3d3" stop-opacity=".5"/>
    </linearGradient>
  </defs>
  <g class="st16">
    <g id="Layer_1">
      <g id="Group_155">
        <path id="Ellipse_93" class="st15" d="M421.3,514.8c96.4,55.6,96.4,145.9,0,201.5s-252.6,55.6-349,0-96.4-145.9,0-201.5,252.6-55.6,349,0Z"/>
        <g id="Rectangle_320" class="st21">
          <path class="st14" d="M13.8,184.9l459.3,44.3-101.5,366.7-53.5,44.9-65.6,14.4-71.9-10.5-45.5-52.3L13.8,184.9Z"/>
        </g>
        <path id="Ellipse_91" class="st13" d="M421.3,489.8c96.4,55.6,96.4,145.9,0,201.5s-252.6,55.6-349,0-96.4-145.9,0-201.5,252.6-55.6,349,0Z"/>
        <g id="Ellipse_92" class="st21">
          <path class="st12" d="M421.3,462.8c96.4,55.6,96.4,145.9,0,201.5s-252.6,55.6-349,0-96.4-145.9,0-201.5,252.6-55.6,349,0Z"/>
        </g>
        <g id="Ellipse_94" class="st21">
          <path class="st19" d="M418.7,464.2c94.9,54.8,94.9,143.7,0,198.5s-248.9,54.8-343.8,0-94.9-143.7,0-198.5,248.9-54.8,343.8,0Z"/>
          <path class="st18" d="M418.7,464.2c94.9,54.8,94.9,143.7,0,198.5s-248.9,54.8-343.8,0-94.9-143.7,0-198.5,248.9-54.8,343.8,0Z"/>
        </g>
        <path id="Union" class="st2" d="M298.6,529.6c-5.7-3.3-15-3.3-20.8,0l-30.4,17.6-34.5-20.2c-5.2-3.1-13.8-3.1-19.1,0l-11,6.3c-5.3,3-5.4,7.9-.1,11l34.7,20.3-30.9,17.8c-5.7,3.3-5.7,8.7,0,12l11.3,6.5c5.7,3.3,15,3.3,20.8,0l30.7-17.7,33.6,19.7c5.2,3.1,13.8,3.1,19.1,0l11-6.3c5.3-3,5.4-7.9.1-11l-33.8-19.8,30.6-17.7c5.7-3.3,5.7-8.7,0-12l-11.3-6.5Z"/>
        <path id="Ellipse_95" class="st17" d="M346.5,505.6c55.1,31.8,55.1,83.4,0,115.2s-144.5,31.8-199.6,0-55.1-83.4,0-115.2,144.5-31.8,199.6,0Z"/>
        <g id="Group_51">
          <path id="Subtract" class="st3" d="M342.1,83.3L210.9,0v323.9l198.9,126.2v-240l-67.7-126.8Z"/>
          <path id="Subtract_2" class="st8" d="M342.1,83.3L210.9,0v323.9l198.9,126.2v-240l-67.7-126.8Z"/>
        </g>
        <g id="SCRIPT" class="st21">
          <path class="st11" d="M102.2,187.3c-1-.6-1.9-1.2-2.8-2-.9-.8-1.6-1.6-2.1-2.4l1-1.9c.5.7,1.1,1.4,1.8,2.1.7.7,1.4,1.2,2.2,1.6.6.3,1,.5,1.3.6.3,0,.6,0,.8,0,.2-.1.2-.3.2-.6s-.1-.7-.4-1.1c-.3-.4-.6-.7-1-1.1-.4-.4-.9-.8-1.4-1.2-.5-.4-1-.9-1.5-1.4-.5-.5-1-1-1.4-1.5-.4-.5-.8-1.1-1-1.8-.3-.6-.4-1.3-.4-2.1s.2-1.4.6-1.9c.4-.4.9-.6,1.7-.6.8,0,1.7.4,2.9,1,.8.4,1.5,1,2.3,1.6.7.6,1.4,1.3,2,2.1l-.9,2c-.6-.7-1.1-1.3-1.7-1.8-.6-.5-1.1-.9-1.7-1.2-.5-.3-1-.5-1.3-.5-.3,0-.6,0-.7.1-.1.1-.2.4-.2.7s.1.7.4,1.1c.3.4.6.7,1,1.1.4.4.9.8,1.4,1.2.5.4,1,.9,1.5,1.3.5.5,1,1,1.4,1.5.4.5.8,1.1,1,1.7.3.6.4,1.3.4,2s-.2,1.4-.6,1.8c-.4.4-1,.6-1.7.6-.8,0-1.7-.4-2.9-1.1ZM115.1,194.8c-.9-.5-1.8-1.2-2.6-2-.8-.8-1.5-1.7-2.1-2.7-.6-1-1.1-2-1.4-3.1-.3-1.1-.5-2.1-.5-3.2s.2-1.9.5-2.6c.3-.7.8-1.2,1.4-1.5.6-.3,1.3-.4,2.1-.3.8.1,1.7.4,2.6,1,1.1.6,2,1.4,2.8,2.3.9.9,1.6,1.9,2.1,3.1l-1.8.9c-.4-.8-.9-1.5-1.4-2-.5-.6-1.1-1-1.7-1.4-.6-.3-1.1-.5-1.6-.6-.5,0-.9,0-1.2.2-.3.2-.6.5-.8,1-.2.4-.3,1-.3,1.7s0,1.3.3,2c.2.7.5,1.3.8,1.9.3.6.8,1.1,1.2,1.6.5.5,1,.9,1.6,1.2.6.3,1.2.5,1.7.6.5,0,1-.1,1.4-.5l1.8,3c-.6.5-1.3.7-2.1.6-.8,0-1.8-.4-2.9-1ZM122,198.5v-14l5.2,3c1.1.6,2,1.4,2.8,2.2.8.9,1.4,1.8,1.8,2.8.4,1,.6,2,.6,3.1s-.2,1.8-.6,2.3c-.4.5-1,.7-1.8.7-.8,0-1.7-.4-2.8-1l-3.7-2.1,1.2-.7v5.3l-2.8-1.6ZM129.7,203l-3-6.8,3,1.7,3.1,6.8-3-1.8ZM124.8,195.2l-1.2-2.2,3.5,2c.9.5,1.5.7,1.9.5.4-.2.6-.7.6-1.4s-.2-1.5-.6-2.2c-.4-.7-1.1-1.3-1.9-1.8l-3.5-2,1.2-.8v7.9ZM134.7,205.9v-14l2.8,1.6v14l-2.8-1.6ZM140.4,209.1v-14l5.2,3c1.1.6,2,1.4,2.8,2.2.8.9,1.4,1.8,1.8,2.8.4,1,.6,2,.6,3.1s-.2,1.8-.6,2.3c-.4.5-1,.8-1.8.7-.8,0-1.7-.4-2.8-1l-3.7-2.1,1.2-.7v5.3l-2.8-1.6ZM143.2,205.8l-1.2-2.3,3.5,2c.9.5,1.5.7,1.9.5s.6-.6.6-1.4-.2-1.5-.6-2.2c-.4-.7-1.1-1.3-1.9-1.8l-3.5-2,1.2-.8v7.9ZM155.1,217.6v-11.4l-3.9-2.2v-2.6l10.6,6.1v2.6l-3.9-2.2v11.4l-2.8-1.6Z"/>
        </g>
        <g id="Group_29">
          <path id="Subtract_3" class="st6" d="M214,160.5L82.8,77.3v323.9l198.9,126.2v-240l-67.7-126.8Z"/>
          <path id="Subtract_4" class="st7" d="M214,160.5L82.8,77.3v323.9l198.9,126.2v-240l-67.7-126.8Z"/>
        </g>
        <path id="Union_2" class="st9" d="M82.8,78l22-14,125.7,82.3h0s70.6,126.9,70.6,126.9h.2c0-.1,0,239.4,0,239.4l-22,14v-239.3h0s-67.4-127.6-67.4-127.6h-.1c0,0-128.9-81.7-128.9-81.7Z"/>
        <g id="Group_30">
          <g id="Rectangle_161" class="st21">
            <polygon class="st11" points="92.8 224.6 259.8 322 259.8 328.5 92.8 231.1 92.8 224.6"/>
          </g>
          <g id="Rectangle_164" class="st21">
            <polygon class="st11" points="92.8 260.6 187.8 316 187.8 322.5 92.8 267.1 92.8 260.6"/>
          </g>
          <g id="Rectangle_169" class="st21">
            <polygon class="st11" points="192.5 318.8 259.8 358 259.8 364.5 192.5 325.2 192.5 318.8"/>
          </g>
          <g id="Rectangle_170" class="st21">
            <polygon class="st11" points="192.5 342.8 259.8 382 259.8 388.4 192.5 349.2 192.5 342.8"/>
          </g>
          <g id="Rectangle_163" class="st21">
            <polygon class="st11" points="92.8 248.6 259.8 346 259.8 352.5 92.8 255.1 92.8 248.6"/>
          </g>
          <g id="Rectangle_162" class="st21">
            <polygon class="st11" points="92.8 236.6 259.8 334 259.8 340.5 92.8 243.1 92.8 236.6"/>
          </g>
          <g id="Rectangle_165" class="st21">
            <polygon class="st11" points="92.8 272.6 259.8 370 259.8 376.5 92.8 279.1 92.8 272.6"/>
          </g>
          <g id="Rectangle_166" class="st21">
            <polygon class="st11" points="92.8 308.6 259.8 406 259.8 412.4 92.8 315.1 92.8 308.6"/>
          </g>
          <g id="Rectangle_167" class="st21">
            <polygon class="st11" points="92.8 296.6 259.8 394 259.8 400.4 92.8 303.1 92.8 296.6"/>
          </g>
          <g id="Rectangle_168" class="st21">
            <polygon class="st11" points="92.8 284.6 187.8 340 187.8 346.5 92.8 291.1 92.8 284.6"/>
          </g>
        </g>
        <path id="Union_3" class="st5" d="M82.8,78l22-14,125.7,82.3h0s70.6,126.9,70.6,126.9h.2c0-.1,0,239.4,0,239.4l-22,14v-239.3h0s-67.4-127.6-67.4-127.6h-.1c0,0-128.9-81.7-128.9-81.7Z"/>
        <g id="Group_41">
          <g id="Rectangle_161_x5F_2" class="st21">
            <polygon class="st11" points="92.8 224.6 259.8 322 259.8 328.5 92.8 231.1 92.8 224.6"/>
          </g>
          <g id="Rectangle_164_x5F_2" class="st21">
            <polygon class="st11" points="92.8 260.6 187.8 316 187.8 322.5 92.8 267.1 92.8 260.6"/>
          </g>
          <g id="Rectangle_169_x5F_2" class="st21">
            <polygon class="st11" points="192.5 318.8 259.8 358 259.8 364.5 192.5 325.2 192.5 318.8"/>
          </g>
          <g id="Rectangle_170_x5F_2" class="st21">
            <polygon class="st11" points="192.5 342.8 259.8 382 259.8 388.4 192.5 349.2 192.5 342.8"/>
          </g>
          <g id="Rectangle_163_x5F_2" class="st21">
            <polygon class="st11" points="92.8 248.6 259.8 346 259.8 352.5 92.8 255.1 92.8 248.6"/>
          </g>
          <g id="Rectangle_162_x5F_2" class="st21">
            <polygon class="st11" points="92.8 236.6 259.8 334 259.8 340.5 92.8 243.1 92.8 236.6"/>
          </g>
          <g id="Rectangle_165_x5F_2" class="st21">
            <polygon class="st11" points="92.8 272.6 259.8 370 259.8 376.5 92.8 279.1 92.8 272.6"/>
          </g>
          <g id="Rectangle_166_x5F_2" class="st21">
            <polygon class="st11" points="92.8 308.6 259.8 406 259.8 412.4 92.8 315.1 92.8 308.6"/>
          </g>
          <g id="Rectangle_167_x5F_2" class="st21">
            <polygon class="st11" points="92.8 296.6 259.8 394 259.8 400.4 92.8 303.1 92.8 296.6"/>
          </g>
          <g id="Rectangle_168_x5F_2" class="st21">
            <polygon class="st11" points="92.8 284.6 187.8 340 187.8 346.5 92.8 291.1 92.8 284.6"/>
          </g>
        </g>
        <g id="Group_50">
          <path id="Subtract_5" class="st4" d="M292.1,110.5L160.9,27.2v323.9l198.9,126.2v-240l-67.7-126.8Z"/>
          <path id="Subtract_6" class="st10" d="M292.1,110.5L160.9,27.2v323.9l198.9,126.2v-240l-67.7-126.8Z"/>
        </g>
        <path id="Subtract_7" class="st1" d="M214,160.5L82.8,77.3v323.9l198.9,126.2v-240l-67.7-126.8Z"/>
        <path id="Subtract_8" class="st0" d="M214,160.5L82.8,77.3v323.9l198.9,126.2v-240l-67.7-126.8Z"/>
        <g id="OP_CODE" class="st20">
          <path class="st11" d="M184.1,88.5c-1-.6-1.8-1.2-2.7-2.1-.8-.8-1.5-1.7-2.1-2.7-.6-1-1.1-2-1.4-3.1-.3-1.1-.5-2.1-.5-3.2s.2-1.9.5-2.6c.3-.7.8-1.2,1.4-1.5.6-.3,1.3-.4,2.1-.3.8.1,1.7.4,2.6,1,1,.6,1.8,1.2,2.6,2.1.8.8,1.5,1.7,2.1,2.7.6,1,1.1,2,1.4,3.1.3,1.1.5,2.1.5,3.2s-.2,1.9-.5,2.6c-.3.7-.8,1.2-1.4,1.5-.6.3-1.3.4-2.1.3-.8-.1-1.7-.4-2.6-1ZM184.1,85.7c.5.3,1,.5,1.5.5.5,0,.9,0,1.2-.2.3-.2.6-.5.8-1,.2-.4.3-1,.3-1.6s0-1.3-.3-2c-.2-.7-.5-1.3-.8-1.9-.3-.6-.7-1.1-1.2-1.6-.5-.5-1-.9-1.5-1.2-.5-.3-1-.5-1.5-.6-.5,0-.8,0-1.2.2-.3.2-.6.5-.8.9-.2.4-.3,1-.3,1.7s0,1.3.3,2c.2.7.5,1.3.8,1.9.3.6.8,1.1,1.2,1.6.5.5,1,.9,1.5,1.2ZM192.8,93.3v-14l5.2,3c1.1.6,2,1.4,2.8,2.2.8.9,1.4,1.8,1.8,2.8.4,1,.6,2,.6,3.1s-.2,1.8-.6,2.3c-.4.5-1,.8-1.8.7-.8,0-1.7-.4-2.8-1l-3.7-2.1,1.2-.7v5.3l-2.8-1.6ZM195.6,89.9l-1.2-2.3,3.5,2c.9.5,1.5.7,1.9.5.4-.2.6-.6.6-1.4s-.2-1.5-.6-2.2c-.4-.7-1.1-1.3-1.9-1.8l-3.5-2,1.2-.8v7.9ZM203.4,101.2v-1.8l8.7,5v1.8l-8.7-5ZM218.8,108.5c-.9-.5-1.8-1.2-2.6-2-.8-.8-1.5-1.7-2.1-2.7-.6-1-1-2-1.4-3.1-.3-1.1-.5-2.1-.5-3.2s.2-1.9.5-2.6c.3-.7.8-1.2,1.4-1.5.6-.3,1.3-.4,2.1-.3.8.1,1.7.4,2.6,1,1.1.6,2,1.4,2.8,2.3.9.9,1.6,1.9,2.1,3.1l-1.8.9c-.4-.8-.9-1.5-1.4-2-.5-.6-1.1-1-1.7-1.4-.6-.3-1.1-.5-1.6-.6-.5,0-.9,0-1.2.2-.3.2-.6.5-.8.9-.2.4-.3,1-.3,1.7s0,1.3.3,2c.2.7.5,1.3.8,1.9.3.6.8,1.1,1.2,1.6.5.5,1,.9,1.6,1.2.6.3,1.2.5,1.7.6.5,0,1-.1,1.4-.5l1.8,3c-.6.5-1.3.7-2.1.6-.8,0-1.8-.4-2.9-1ZM231.3,115.7c-1-.6-1.8-1.2-2.7-2.1-.8-.8-1.5-1.7-2.1-2.7-.6-1-1-2-1.4-3.1-.3-1.1-.5-2.1-.5-3.2s.2-1.9.5-2.6c.3-.7.8-1.2,1.4-1.5.6-.3,1.3-.4,2.1-.3.8.1,1.7.4,2.6,1,1,.6,1.8,1.2,2.6,2.1.8.8,1.5,1.7,2.1,2.7.6,1,1.1,2,1.4,3.1.3,1.1.5,2.1.5,3.2s-.2,1.9-.5,2.6c-.3.7-.8,1.2-1.4,1.5-.6.3-1.3.4-2.1.3-.8,0-1.7-.4-2.6-1ZM231.3,113c.5.3,1,.5,1.5.5.5,0,.9,0,1.2-.2.3-.2.6-.5.8-1,.2-.4.3-1,.3-1.7s0-1.3-.3-2c-.2-.7-.4-1.3-.8-1.9-.3-.6-.7-1.1-1.2-1.6-.5-.5-1-.9-1.5-1.2-.5-.3-1-.5-1.5-.6-.5,0-.8,0-1.2.2-.3.2-.6.5-.8.9-.2.4-.3,1-.3,1.7s0,1.3.3,2c.2.7.5,1.3.8,1.9.3.6.8,1.1,1.2,1.6.5.5,1,.9,1.5,1.2ZM240.1,120.5v-14l5.5,3.2c1.3.8,2.5,1.7,3.5,2.9,1,1.2,1.8,2.4,2.4,3.8.6,1.4.8,2.8.8,4.2s-.3,2.5-.8,3.2c-.6.7-1.4,1.1-2.4,1.1-1,0-2.2-.4-3.5-1.1l-5.5-3.2ZM242.9,119.5l2.6,1.5c.8.5,1.5.7,2.1.7.6,0,1.1-.3,1.4-.7.3-.5.5-1.1.5-2s-.2-1.8-.5-2.6c-.3-.8-.8-1.6-1.4-2.3-.6-.7-1.3-1.3-2.1-1.8l-2.6-1.5v8.7ZM257,121.9l5.8,3.4v2.5l-5.8-3.4v-2.5ZM257.2,127.8l6.6,3.8v2.6l-9.4-5.4v-14l9.2,5.3v2.6l-6.4-3.7v8.8Z"/>
        </g>
      </g>
    </g>
  </g>
</svg>