<?xml version="1.0" encoding="UTF-8"?>
<svg xmlns="http://www.w3.org/2000/svg" xmlns:xlink="http://www.w3.org/1999/xlink" version="1.1" viewBox="0 0 569.9 576">
  <defs>
    <style>
      .cls-1 {
        fill: #13edb1;
      }

      .cls-1, .cls-2, .cls-3 {
        fill-rule: evenodd;
      }

      .cls-2, .cls-4 {
        fill: #fff;
      }

      .cls-5 {
        fill: url(#linear-gradient-5);
      }

      .cls-6 {
        fill: url(#linear-gradient-4);
      }

      .cls-7 {
        fill: url(#linear-gradient-3);
      }

      .cls-8 {
        fill: url(#linear-gradient-2);
      }

      .cls-9 {
        fill: #8dfff8;
      }

      .cls-10 {
        fill: url(#linear-gradient);
      }

      .cls-11, .cls-3 {
        fill: #13b3d3;
      }

      .cls-12 {
        isolation: isolate;
      }

      .cls-13 {
        mix-blend-mode: screen;
      }
    </style>
    <linearGradient id="linear-gradient" x1="80.4" y1="476" x2="91.6" y2="426.7" gradientTransform="translate(40 1018.8) rotate(-31.3) scale(1 -.9) skewX(27.4)" gradientUnits="userSpaceOnUse">
      <stop offset="0" stop-color="#13edb1"/>
      <stop offset="1" stop-color="#13b3d3"/>
    </linearGradient>
    <linearGradient id="linear-gradient-2" x1="81" y1="475.8" x2="91.3" y2="428.3" gradientTransform="translate(-17.5 984.3) rotate(-31.3) scale(1 -.9) skewX(27.4)" gradientUnits="userSpaceOnUse">
      <stop offset="0" stop-color="#13edb1"/>
      <stop offset="1" stop-color="#13b3d3"/>
    </linearGradient>
    <linearGradient id="linear-gradient-3" x1="123.4" y1="651.7" x2="206.4" y2="598.2" gradientTransform="translate(-590.4 725.8) rotate(31.3) scale(1 -.9) skewX(24.8)" gradientUnits="userSpaceOnUse">
      <stop offset="0" stop-color="#13edb1"/>
      <stop offset="1" stop-color="#13b3d3"/>
    </linearGradient>
    <linearGradient id="linear-gradient-4" x1="45.2" y1="689.3" x2="63.1" y2="647.1" gradientTransform="translate(-17.5 1178.9) rotate(31.3) scale(1 -.9) skewX(-27.4)" gradientUnits="userSpaceOnUse">
      <stop offset="0" stop-color="#13edb1"/>
      <stop offset="1" stop-color="#13b3d3"/>
    </linearGradient>
    <linearGradient id="linear-gradient-5" x1="357.8" y1="243" x2="362" y2="578" gradientTransform="translate(0 578) scale(1 -1)" gradientUnits="userSpaceOnUse">
      <stop offset="0" stop-color="#8dfff8" stop-opacity=".5"/>
      <stop offset="1" stop-color="#559995" stop-opacity="0"/>
    </linearGradient>
  </defs>
  <!-- Generator: Adobe Illustrator 28.7.1, SVG Export Plug-In . SVG Version: 1.2.0 Build 142)  -->
  <g class="cls-12">
    <g id="Layer_1">
      <g class="cls-13">
        <path class="cls-4" d="M421.2,147.1c-4.2-2.4-8.4-5.5-12.6-9.2-4.1-3.7-7.6-7.6-10.6-11.7l5.5-9.2c2.3,3.3,5,6.3,8,9.2,3.1,2.9,6.1,5.2,9.3,7.1,3.5,2,6.3,2.8,8.3,2.4,2-.4,3-2.1,3-4.9s-.4-3.6-1.2-5.5c-.8-1.9-2.3-3.8-4.3-5.7-2-1.9-4.9-3.9-8.6-6.1l-15.5-8.9,3.1-37.6,37,21.3v13l-32-18.4,7.3-3.2-2.2,26.8-7.3-11.6,12.8,7.4c6,3.5,10.8,7.2,14.5,11.2,3.7,4,6.4,8.1,8.1,12.3,1.7,4.2,2.5,8.4,2.5,12.5s-.9,7.5-2.7,10c-1.8,2.4-4.6,3.7-8.3,3.7-3.7,0-8.4-1.7-14.2-5Z"/>
      </g>
      <path class="cls-9" d="M256.4,283.8c58.1-33.6,153.9-32.7,214,2s61.6,90,3.5,123.6-153.9,32.7-214-2-61.6-90-3.5-123.6Z"/>
      <path class="cls-3" d="M466.2,413.8c-57.7,35-151.3,35-209,0-57.7-35-57.7-91.9,0-126.9,57.7-35,151.3-35,209,0,57.7,35,57.7,91.9,0,126.9ZM234.9,450.6c81.6,38.2,199.3,34.6,274.1-10.9,81.3-49.4,81.3-129.4,0-178.8-81.3-49.4-213.1-49.4-294.4,0-74.8,45.4-80.8,116.9-17.9,166.4l-78.3,47.6,38.2,23.2,78.3-47.6Z"/>
      <path class="cls-1" d="M466.2,390.2c-57.7,35-151.3,35-209,0-57.7-35-57.7-91.9,0-126.9,57.7-35,151.3-35,209,0,57.7,35,57.7,91.9,0,126.9ZM234.9,427.1c81.6,38.2,199.3,34.6,274.1-10.9,81.3-49.4,81.3-129.4,0-178.8-81.3-49.4-213.1-49.4-294.4,0-74.8,45.4-80.8,116.9-17.9,166.4l-78.3,47.6,38.2,23.2,78.3-47.6Z"/>
      <polygon class="cls-11" points="118.5 451 156.7 474.3 156.7 498.4 118.5 475.2 118.5 451"/>
      <polygon class="cls-10" points="57.5 538.3 169.6 470.2 169.6 507.4 57.5 575.5 57.5 538.3"/>
      <polygon class="cls-8" points="0 503.8 112.4 435.5 112.4 471.3 0 539.5 0 503.8"/>
      <polygon class="cls-7" points="111.7 435.5 169.4 470.6 57.7 538.4 0 503.4 111.7 435.5"/>
      <polygon class="cls-6" points="0 503.4 57.7 538.4 57.7 574.2 0 539.2 0 503.4"/>
      <path class="cls-5" d="M211.2,0h296v335l1.5,3-2.5,8-5.5,11-12.5,16-19.5,15.5-22.5,11-43.5,13.5-45,3.5-45-5.5-42.5-15-18.5-10-16.5-13-14-18-6.5-17.5L211.2,0Z"/>
      <path class="cls-2" d="M460.2,334l-23.9-21.2-85.3,16.6-27.4-24.3-48.4,9.4,51.4,45.6,48.4-9.4h0c0,0,85.3-16.6,85.3-16.6Z"/>
      <g class="cls-13">
        <path class="cls-4" d="M271.2,146.5c-4.2-2.4-8.4-5.5-12.6-9.1-4.2-3.7-7.7-7.6-10.6-11.7l5.5-9.2c2.3,3.3,5,6.3,8.1,9.2s6.1,5.2,9.3,7c3.5,2,6.3,2.8,8.3,2.4,2-.4,3-2.1,3-4.9s-.9-5.3-2.7-7.8-4.7-5-8.7-7.3l-6.4-3.7v-10.7l16.9-12.3,1.6,6.7-31.8-18.4v-13l42.4,24.5v10.5l-16.8,12.4-7.1-8.8,4.1,2.3c7.4,4.3,13.1,9.5,16.9,15.5,3.8,6.1,5.7,12.1,5.7,18.2s-.9,7.1-2.7,9.6c-1.8,2.4-4.5,3.6-8.2,3.6s-8.4-1.7-14.2-5Z"/>
      </g>
      <g class="cls-13">
        <path class="cls-4" d="M371.7,238.6c-5.1-2.9-9.5-6.4-13.3-10.3-3.8-4-6.8-8.2-8.9-12.7-2.1-4.5-3.2-8.9-3.2-13.2s1-7.4,3.1-9.2c2.1-1.8,5.1-2.4,8.9-1.8,3.8.6,8.3,2.4,13.4,5.4,5.2,3,9.7,6.4,13.5,10.2,3.9,3.8,6.8,7.8,8.9,12.1,2.1,4.2,3.2,8.5,3.2,12.8s-1.1,7.5-3.2,9.6c-2.1,2-5.1,2.7-9,2.3-3.8-.5-8.3-2.2-13.4-5.2ZM371.7,226.8c3.5,2,6.3,2.7,8.3,2.1,2.1-.6,3.1-2.5,3.1-5.6s-1-6.2-3.1-9.1c-2-3-4.8-5.5-8.3-7.5-3.5-2-6.2-2.7-8.2-2-2,.6-3,2.4-3,5.5s1,6.2,3,9.2c2,3,4.8,5.4,8.2,7.4ZM371.7,205.1c-4.7-2.7-8.8-5.8-12.3-9.3-3.5-3.5-6.2-7.2-8.1-11.1-1.9-4-2.9-7.9-2.9-11.8s1-7.1,2.9-8.9c2-1.9,4.7-2.6,8.2-2.1,3.5.4,7.6,1.9,12.1,4.5,4.7,2.7,8.7,5.9,12.2,9.6,3.5,3.6,6.3,7.5,8.2,11.6,2,4.1,3,8.2,3,12.4s-1,6.8-2.9,8.5c-1.9,1.7-4.6,2.3-8.1,1.7-3.5-.6-7.6-2.2-12.4-4.9ZM371.7,195.6c2.9,1.7,5.3,2.3,6.9,1.7,1.7-.5,2.6-2.1,2.6-4.8s-.9-5.5-2.7-8.1c-1.7-2.5-4-4.6-6.8-6.2-2.8-1.6-5-2.1-6.8-1.6-1.7.5-2.6,2.2-2.6,5s.8,5.2,2.5,7.8c1.7,2.5,4,4.6,6.8,6.2Z"/>
      </g>
    </g>
  </g>
</svg>