<?xml version="1.0" encoding="UTF-8"?>
<svg xmlns="http://www.w3.org/2000/svg" xmlns:xlink="http://www.w3.org/1999/xlink" version="1.1" viewBox="0 0 502.2 561.5">
  <defs>
    <style>
      .cls-1 {
        fill: url(#linear-gradient-8);
      }

      .cls-2 {
        fill: url(#linear-gradient-7);
      }

      .cls-3 {
        fill: url(#linear-gradient-5);
      }

      .cls-4 {
        fill: url(#linear-gradient-6);
      }

      .cls-5 {
        fill: url(#linear-gradient-4);
      }

      .cls-6 {
        fill: url(#linear-gradient-3);
      }

      .cls-7 {
        fill: url(#linear-gradient-2);
      }

      .cls-8 {
        fill: #a2ffe5;
      }

      .cls-9 {
        fill: url(#linear-gradient);
      }

      .cls-10 {
        isolation: isolate;
      }

      .cls-11 {
        fill: none;
        stroke: #fff;
        stroke-width: 10px;
      }

      .cls-12 {
        fill: #fff;
      }

      .cls-13 {
        mix-blend-mode: screen;
      }
    </style>
    <linearGradient id="linear-gradient" x1="-228.5" y1="398.8" x2="-228.5" y2="168.6" gradientTransform="translate(708.4 228.9) rotate(-26.8) scale(1 -.8) skewX(-30.7)" gradientUnits="userSpaceOnUse">
      <stop offset="0" stop-color="#13edb1"/>
      <stop offset="1" stop-color="#13b3d3"/>
    </linearGradient>
    <linearGradient id="linear-gradient-2" x1="145.2" y1="689.1" x2="145.2" y2="481.7" gradientTransform="translate(18.8 879.2) rotate(26.8) scale(1 -.9) skewX(-24.2)" gradientUnits="userSpaceOnUse">
      <stop offset="0" stop-color="#13edb1"/>
      <stop offset="1" stop-color="#13b3d3"/>
    </linearGradient>
    <linearGradient id="linear-gradient-3" x1="145.2" y1="435.9" x2="145.2" y2="228.5" gradientTransform="translate(224.1 757.4) rotate(-26.8) scale(1 -.9) skewX(24.2)" gradientUnits="userSpaceOnUse">
      <stop offset="0" stop-color="#13edb1"/>
      <stop offset="1" stop-color="#13b3d3"/>
    </linearGradient>
    <linearGradient id="linear-gradient-4" x1="190.2" y1="467.2" x2="133.4" y2="321.7" gradientTransform="translate(0 520.9) scale(1 -1)" gradientUnits="userSpaceOnUse">
      <stop offset=".1" stop-color="#93e0cb" stop-opacity="0"/>
      <stop offset=".7" stop-color="#7fe2c7" stop-opacity=".2"/>
      <stop offset="1" stop-color="#13edb1" stop-opacity=".8"/>
    </linearGradient>
    <linearGradient id="linear-gradient-5" x1="-203.8" y1="398.2" x2="-203.8" y2="117.2" gradientTransform="translate(663.5 206.2) rotate(-26.7) scale(1 -.8) skewX(-30.8)" gradientUnits="userSpaceOnUse">
      <stop offset="0" stop-color="#13edb1" stop-opacity=".3"/>
      <stop offset="1" stop-color="#13b3d3" stop-opacity=".5"/>
    </linearGradient>
    <linearGradient id="linear-gradient-6" x1="170.4" y1="688.7" x2="170.4" y2="436.2" gradientTransform="translate(-26.6 856.8) rotate(26.7) scale(1 -.9) skewX(-24.2)" gradientUnits="userSpaceOnUse">
      <stop offset="0" stop-color="#13edb1" stop-opacity=".5"/>
      <stop offset="1" stop-color="#13b3d3" stop-opacity=".5"/>
    </linearGradient>
    <linearGradient id="linear-gradient-7" x1="170.4" y1="436.3" x2="170.4" y2="183.8" gradientTransform="translate(224.2 758.2) rotate(-26.7) scale(1 -.9) skewX(24.2)" gradientUnits="userSpaceOnUse">
      <stop offset="0" stop-color="#13edb1" stop-opacity=".6"/>
      <stop offset="1" stop-color="#13b3d3" stop-opacity=".7"/>
    </linearGradient>
    <linearGradient id="linear-gradient-8" x1="317.6" y1="470.9" x2="372.1" y2="305" gradientTransform="translate(0 520.9) scale(1 -1)" gradientUnits="userSpaceOnUse">
      <stop offset=".1" stop-color="#93e0cb" stop-opacity="0"/>
      <stop offset=".7" stop-color="#7fe2c7" stop-opacity=".2"/>
      <stop offset="1" stop-color="#13edb1" stop-opacity=".8"/>
    </linearGradient>
  </defs>
  <!-- Generator: Adobe Illustrator 28.7.1, SVG Export Plug-In . SVG Version: 1.2.0 Build 142)  -->
  <g class="cls-10">
    <g id="Layer_1">
      <polygon class="cls-9" points="45.6 204 251.2 100.3 456.7 204 251.2 307.7 45.6 204"/>
      <polygon class="cls-7" points="45.6 203.7 251.2 307.4 251.2 514.7 45.6 411.1 45.6 203.7"/>
      <polygon class="cls-6" points="251 307.9 456.5 204.3 456.5 411.6 251 515.3 251 307.9"/>
      <g class="cls-13">
        <path class="cls-5" d="M55.5,32l189,35,8.4,193-156.6-78.7L55.5,32Z"/>
      </g>
      <polygon class="cls-3" points=".1 182 251.2 55.7 502.2 182 251.2 308.2 .1 182"/>
      <polygon class="cls-4" points=".1 181.6 251.2 307.8 251.2 560.3 .1 434.1 .1 181.6"/>
      <polygon class="cls-2" points="251 308.5 502.1 182.3 502.1 434.7 251 561 251 308.5"/>
      <polygon class="cls-11" points="85.6 181.5 247.2 97.3 414.5 184.5 252.9 268.6 85.6 181.5"/>
      <g class="cls-13">
        <polygon class="cls-8" points="92.9 182.6 250.9 100.3 409.6 183 251.7 265.3 92.9 182.6"/>
      </g>
      <path class="cls-12" d="M125.7,396.1c-5.1-2.8-9.6-6.2-13.5-10-3.9-3.9-6.9-8.1-9-12.5-2.2-4.5-3.2-8.9-3.2-13.2s1.1-7.4,3.2-9.3c2.2-1.9,5.2-2.5,9-1.9,3.9.5,8.4,2.2,13.6,5.1,5.3,2.9,9.8,6.2,13.7,9.9,3.9,3.7,6.9,7.6,9,11.9,2.2,4.2,3.2,8.5,3.2,12.8s-1.1,7.5-3.2,9.6c-2.2,2-5.2,2.8-9.1,2.5-3.9-.4-8.4-2-13.6-4.9ZM125.7,384.2c3.6,2,6.4,2.6,8.4,1.9,2.1-.6,3.2-2.5,3.2-5.7s-1.1-6.1-3.2-9c-2-2.9-4.8-5.4-8.4-7.3-3.5-1.9-6.3-2.6-8.3-1.9-2,.6-3.1,2.5-3.1,5.6s1,6.2,3.1,9.1c2,2.9,4.8,5.4,8.3,7.3ZM125.7,362.5c-4.7-2.6-8.9-5.6-12.4-9.1-3.5-3.4-6.2-7-8.2-10.9-1.9-3.9-2.9-7.9-2.9-11.8s1-7.1,3-9c2-1.9,4.8-2.7,8.3-2.3,3.6.3,7.6,1.7,12.3,4.3,4.7,2.6,8.8,5.7,12.3,9.3,3.6,3.6,6.3,7.4,8.3,11.5,2,4.1,3.1,8.2,3.1,12.3s-1,6.8-3,8.6c-1.9,1.7-4.7,2.4-8.2,1.9s-7.7-2.1-12.5-4.7ZM125.7,353c3,1.6,5.3,2.2,7,1.6,1.8-.6,2.6-2.2,2.6-4.9s-.9-5.5-2.7-8c-1.8-2.5-4.1-4.5-6.9-6.1-2.8-1.5-5.1-2-6.8-1.5-1.8.6-2.6,2.3-2.6,5.1s.8,5.2,2.5,7.7c1.7,2.5,4,4.5,6.9,6.1Z"/>
      <path class="cls-12" d="M300,431.5v-70l11.7-6.5,26.1,35-6.2,3.4,25.7-63.5,11.6-6.4.2,69.9-13.3,7.3v-46.7c0,0,2.4-1.4,2.4-1.4l-20.5,50.6-6.4,3.5-20.9-27.8,3-1.6v46.7l-13.3,7.3ZM383.6,385.4v-70l29.9-16.5c7.7-4.2,13.5-5.8,17.3-4.6,3.9,1.2,5.9,4.5,5.9,10s-.8,7.3-2.4,10.9c-1.6,3.5-3.7,6.8-6.5,9.8-2.7,3-5.9,5.5-9.5,7.4l1.7-5c3.9-2.1,7.3-3.3,10.2-3.5,3-.2,5.3.6,6.9,2.5,1.7,1.9,2.5,4.8,2.5,8.9,0,6-2.1,11.8-6.2,17.5-4.1,5.6-10.2,10.7-18.3,15.1l-31.7,17.5ZM397.7,365.4l16.6-9.1c3.7-2,6.5-4.2,8.3-6.6,1.9-2.5,2.9-5.2,2.9-8.2s-1-4.6-2.9-4.9c-1.9-.4-4.6.4-8.3,2.4l-17.6,9.7v-11.8l15.1-8.4c3.4-1.9,6.1-4,7.9-6.3,1.9-2.4,2.8-5,2.8-7.8s-.9-4.3-2.8-4.6c-1.8-.4-4.4.3-7.9,2.2l-14.1,7.8v45.6Z"/>
      <g class="cls-13">
        <path class="cls-12" d="M333.3,37.2l37.9-20.9,14.7,8.1-37.9,20.9-14.7-8.1ZM304.2,21.1L342,.2l14.7,8.1-37.9,20.9-14.7-8.1ZM171.3,126.5l37.9-20.9,14.7,8.1-37.9,20.9-14.7-8.1ZM142.2,110.5l37.9-20.9,14.7,8.1-37.9,20.9-14.7-8.1ZM141.1,86.2L297.4,0l37.7,20.8c12.6,6.9,21.7,13.4,27.4,19.4,6,6,8.2,11.8,6.6,17.4-1.3,5.6-6.9,11-16.6,16.4-5.8,3.2-11.9,5.8-18.2,7.6-6.3,1.9-12.3,2.9-18.2,3-5.8.2-11.2-.6-16-2.3l-1.1.6c3.2,2.9,5.2,6,5.9,9.3.7,3.3-.4,6.9-3.3,10.7-2.9,3.9-8.5,8-16.6,12.6-9.5,5.2-19.7,8.6-30.6,10.1-10.8,1.4-21.9,1-33.3-1.2-11.1-2.3-21.9-6.3-32.4-12.1l-47.5-26.2ZM276.8,57c7.3,4,13.9,6,19.7,5.8,5.8-.2,11.7-1.9,17.5-5.1,6-3.3,8.6-6.6,7.9-9.9-.7-3.3-4.7-7-12-11l-6.6-3.6-34.8,19.2,8.3,4.6ZM242.2,66.9l-40.7,22.5,10.7,5.9c7.6,4.2,14.7,6,21.5,5.6,7-.5,13.7-2.5,20.1-6,3.9-2.2,6.7-4.4,8.3-6.8,1.6-2.3,1.6-4.8,0-7.5-1.5-2.6-4.9-5.4-10.3-8.3l-9.6-5.3Z"/>
      </g>
      <g class="cls-13">
        <path class="cls-1" d="M235.8,83.9l207.2-63.4-40.4,162.5-149.7,81.4-17.1-180.5Z"/>
      </g>
    </g>
  </g>
</svg>