<svg xmlns="http://www.w3.org/2000/svg" viewBox="0 0 615.2 647.7" xmlns:v="https://vecta.io/nano"><style>.A{isolation:isolate}.E{mix-blend-mode:screen}</style><defs><linearGradient id="A" x1="30.7" y1="714.7" x2="30.7" y2="482.4" gradientTransform="translate(-259.8 776.4) rotate(28.7) scale(1 -.8) skewX(28.3)" href="#K"><stop offset="1" stop-color="#13b3d3" stop-opacity=".2"/><stop offset="1"/></linearGradient><linearGradient id="B" x1="30.7" y1="714.7" x2="30.7" y2="482.4" gradientTransform="translate(-271.9 692.8) rotate(28.7) scale(1 -.8) skewX(28.3)" href="#K"><stop offset="1" stop-color="#13b3d3"/><stop offset="1"/></linearGradient><linearGradient id="C" x1="30.7" y1="714.7" x2="30.7" y2="482.4" gradientTransform="translate(-271.9 734.6) rotate(28.7) scale(1 -.8) skewX(28.3)" href="#K"><stop offset="1" stop-color="#13b3d3" stop-opacity=".3"/><stop offset="1"/></linearGradient><linearGradient id="D" x1="34.4" y1="477.9" x2="26.9" y2="719.3" gradientTransform="translate(-271.9 671.2) rotate(28.7) scale(1 -.8) skewX(28.3)" href="#K"><stop offset="0" stop-color="#13edb1"/><stop offset="1" stop-color="#13b3d3"/></linearGradient><linearGradient id="E" x1="-121.7" y1="655" x2="-127.9" y2="716.7" gradientTransform="translate(-288.4 818.2) rotate(28.7) scale(1 -.8) skewX(28.3)" href="#K"><stop offset="1" stop-color="#13b3d3"/><stop offset="1"/></linearGradient><linearGradient id="F" x1="5.7" y1="588.9" x2="-1.6" y2="719.2" gradientTransform="translate(-275.9 697.3) rotate(28.7) scale(1 -.8) skewX(28.3)" href="#K"><stop offset="1" stop-color="#13b3d3"/><stop offset="1"/></linearGradient><linearGradient id="G" x1="215.6" y1="707.7" x2="215.6" y2="484.2" gradientTransform="translate(192.3 702.5) rotate(28.7) scale(1 -.9) skewX(-25.7)" href="#K"><stop offset="0" stop-color="#13edb1" stop-opacity=".3"/><stop offset="1" stop-color="#13b3d3" stop-opacity=".3"/></linearGradient><linearGradient id="H" x1="215.7" y1="707.7" x2="215.7" y2="484.2" gradientTransform="translate(248.3 685.1) rotate(28.7) scale(1 -.9) skewX(-25.7)" href="#K"><stop offset="0" stop-color="#13edb1" stop-opacity=".1"/><stop offset="1" stop-color="#13b3d3" stop-opacity=".3"/></linearGradient><linearGradient id="I" x1="90.7" y1="607.7" x2="90.7" y2="435.7" gradientTransform="translate(-11.1 713.5) rotate(-28.7) scale(1 -.9) skewX(25.7)" href="#K"><stop offset="0" stop-color="#13edb1" stop-opacity=".3"/><stop offset="1" stop-color="#13b3d3" stop-opacity=".3"/></linearGradient><linearGradient id="J" x1="90.7" y1="607.7" x2="90.7" y2="435.7" gradientTransform="translate(357.7 922.6) rotate(-28.7) scale(1 -.9) skewX(25.7)" href="#K"><stop offset="0" stop-color="#13edb1" stop-opacity=".3"/><stop offset="1" stop-color="#13b3d3" stop-opacity=".3"/></linearGradient><linearGradient id="K" gradientUnits="userSpaceOnUse"/></defs><g class="A"><path d="M254.6,371.1l278.3,152.7c21.3,11.7,21.3,30.6,0,42.3l-126.6,69.4c-21.3,11.7-55.8,11.7-77.2,0L50.9,482.8c-21.3-11.7-21.3-30.6,0-42.3l126.6-69.4c21.3-11.7,55.8-11.7,77.2,0Z" fill="url(#A)"/><path d="M242.5,287.4l278.3,152.7c21.3,11.7,21.3,30.6,0,42.3l-126.6,69.4c-21.3,11.7-55.8,11.7-77.2,0L38.8,399.2c-21.3-11.7-21.3-30.6,0-42.3l126.6-69.4c21.3-11.7,55.8-11.7,77.2,0Z" fill="url(#B)"/><path d="M242.5 329.3L520.8 482c21.3 11.7 21.3 30.6 0 42.3l-126.6 69.4c-21.3 11.7-55.8 11.7-77.2 0L38.8 441c-21.3-11.7-21.3-30.6 0-42.3l126.6-69.4c21.3-11.7 55.8-11.7 77.2 0z" fill="url(#C)"/><path class="E" d="M24.2 198c-2 1.1-3.8 1.5-5.4 1.3-1.6-.3-2.8-1.2-3.8-2.9-.9-1.7-1.4-4-1.4-7.1a26.73 26.73 0 0 1 1.4-8.6 22.44 22.44 0 0 1 3.8-7c1.6-2 3.4-3.6 5.4-4.7s3.8-1.5 5.4-1.2c1.6.2 2.8 1.2 3.8 2.9.9 1.7 1.4 4 1.4 7.1a26.73 26.73 0 0 1-1.4 8.6 22.44 22.44 0 0 1-3.8 7c-1.6 2-3.4 3.5-5.4 4.6zm0-5.5c1-.5 1.8-1.3 2.5-2.3s1.3-2.3 1.7-3.8c.4-1.6.6-3.4.6-5.5s-.2-3.7-.6-4.8-1-1.8-1.7-2-1.5 0-2.5.4c-.9.5-1.8 1.3-2.5 2.3s-1.3 2.3-1.7 3.8c-.4 1.6-.6 3.4-.6 5.5s.2 3.7.6 4.8 1 1.8 1.7 2 1.6 0 2.5-.4zm16.9-4.3v-25.6l2.5 1.5-7.4 4v-5.2l10.6-5.8v28l-5.7 3.1zm20.5-10.7c-2 1.1-3.8 1.5-5.4 1.3-1.6-.3-2.8-1.2-3.8-2.9-.9-1.7-1.4-4-1.4-7.1a26.73 26.73 0 0 1 1.4-8.6 22.44 22.44 0 0 1 3.8-7c1.6-2 3.4-3.6 5.4-4.7s3.8-1.5 5.4-1.2c1.6.2 2.8 1.2 3.8 2.9.9 1.7 1.4 4 1.4 7.1a26.73 26.73 0 0 1-1.4 8.6 22.44 22.44 0 0 1-3.8 7c-1.6 2-3.4 3.5-5.4 4.6zm0-5.5c1-.5 1.8-1.3 2.5-2.3s1.3-2.3 1.7-3.8c.4-1.6.6-3.4.6-5.5s-.2-3.7-.6-4.8-1-1.8-1.7-2-1.5 0-2.5.4c-.9.5-1.8 1.3-2.5 2.3s-1.3 2.3-1.7 3.8c-.4 1.6-.6 3.4-.6 5.5s.2 3.7.6 4.8 1 1.8 1.7 2 1.6 0 2.5-.4zm16.9-4.3v-25.6l2.5 1.5-7.4 4v-5.2l10.6-5.8v28l-5.7 3.1zM99 157c-2 1.1-3.8 1.5-5.4 1.3-1.6-.3-2.8-1.2-3.8-2.9s-1.4-4-1.4-7.1a26.73 26.73 0 0 1 1.4-8.6 22.44 22.44 0 0 1 3.8-7c1.6-2 3.4-3.6 5.4-4.7s3.8-1.5 5.4-1.2c1.6.2 2.8 1.2 3.8 2.9.9 1.7 1.4 4 1.4 7.1a26.73 26.73 0 0 1-1.4 8.6 22.44 22.44 0 0 1-3.8 7c-1.6 2-3.4 3.5-5.4 4.6zm0-5.5c1-.5 1.8-1.3 2.5-2.3s1.3-2.3 1.7-3.8c.4-1.6.6-3.4.6-5.5s-.2-3.7-.6-4.8-1-1.8-1.7-2-1.5 0-2.5.4c-.9.5-1.8 1.3-2.5 2.3s-1.3 2.3-1.7 3.8c-.4 1.6-.6 3.4-.6 5.5s.2 3.7.6 4.8 1 1.8 1.7 2 1.6 0 2.5-.4zM24.2 247c-2 1.1-3.8 1.5-5.4 1.3-1.6-.3-2.8-1.2-3.8-2.9-.9-1.7-1.4-4-1.4-7.1a26.73 26.73 0 0 1 1.4-8.6 22.44 22.44 0 0 1 3.8-7c1.6-2 3.4-3.6 5.4-4.7s3.8-1.5 5.4-1.2c1.6.2 2.8 1.2 3.8 2.9.9 1.7 1.4 4 1.4 7.1a26.73 26.73 0 0 1-1.4 8.6 22.44 22.44 0 0 1-3.8 7c-1.6 2-3.4 3.5-5.4 4.6zm0-5.5c1-.5 1.8-1.3 2.5-2.3s1.3-2.3 1.7-3.8c.4-1.6.6-3.4.6-5.5s-.2-3.7-.6-4.8-1-1.8-1.7-2-1.5 0-2.5.4c-.9.5-1.8 1.3-2.5 2.3s-1.3 2.3-1.7 3.8c-.4 1.6-.6 3.4-.6 5.5s.2 3.7.6 4.8 1 1.8 1.7 2 1.6 0 2.5-.4zm16.9-4.3v-25.6l2.5 1.5-7.4 4v-5.2l10.6-5.8v28l-5.7 3.1zm13.8-7.5v-25.6l2.5 1.5-7.4 4v-5.2l10.6-5.8v28l-5.7 3.1z" fill="#fff"/><path d="M242.5,265.8l278.3,152.7c21.3,11.7,21.3,30.6,0,42.3l-126.6,69.4c-21.3,11.7-55.8,11.7-77.2,0L38.8,377.6c-21.3-11.7-21.3-30.6,0-42.3l126.6-69.4c21.3-11.7,55.8-11.7,77.2,0Z" fill="url(#D)"/><path class="E" d="M200.6,398.9l56.6,31c7.3,4,7.3,10.4,0,14.4l-24.3,13.4c-7.3,4-19,4-26.3,0l-56.6-31c-7.3-4-7.3-10.4,0-14.4l24.3-13.4c7.3-4,19-4,26.3,0Z" fill="url(#E)"/><path class="E" d="M224.4,284.2l256.2,140.6c13.6,7.4,13.6,19.5,0,26.9l-57.3,31.4c-13.6,7.4-35.5,7.4-49.1,0L118,342.6c-13.6-7.4-13.6-19.5,0-26.9l57.3-31.4c13.6-7.4,35.5-7.4,49.1,0Z" fill="url(#F)"/><path d="M242.1,24.4l278.3,152.7c20.6,11.3,37.3,39.5,37.3,62.9v135.5c0,23.5-16.7,33.3-37.3,22.1L242.1,244.9c-20.6-11.3-37.3-39.5-37.3-62.9V46.4c0-23.5,16.7-33.3,37.3-22.1Z" fill="url(#G)" stroke="#c2fffe" stroke-width="3"/><path d="M298.3 4.8l278.3 152.7c21.3 11.7 38.6 40.9 38.6 65.2v135.5c0 24.3-17.3 34.5-38.6 22.8L298.3 228.3c-21.3-11.7-38.6-40.9-38.6-65.2V27.7c0-24.3 17.3-34.5 38.6-22.8z" fill="url(#H)"/><g stroke="#c2fffe" stroke-width="3"><path d="M13.3 93.3l110.3-60.5c6.5-3.6 11.8-.4 11.8 7v142c0 7.5-5.3 16.4-11.8 20L13.3 262.3c-6.5 3.6-11.8.4-11.8-7V113.2c0-7.5 5.3-16.4 11.8-20z" fill="url(#I)"/><path d="M382.1,302.3l110.3-60.5c6.5-3.6,11.8-.4,11.8,7v142c0,7.5-5.3,16.4-11.8,20l-110.3,60.5c-6.5,3.6-11.8.4-11.8-7v-142c0-7.5,5.3-16.4,11.8-20Z" fill="url(#J)"/></g><path d="M218.7 75.2l324.8 178.2v3.9L218.7 79.2v-4zm0 24.8l324.8 178.2v3.9L218.7 104v-4zm0-12.4l324.8 178.2v3.9L218.7 91.6v-4zm0 62l324.8 178.2v3.9L218.7 153.5v-3.9zm0 24.8l324.8 178.1v4L218.7 178.3v-3.9zm0-12.4l324.8 178.1v4L218.7 165.9V162zm0-49.6l324.8 178.2v3.9L218.7 116.4v-4zm0 24.8l324.8 178.2v3.9L218.7 141.2v-4zm0-12.4L543.5 303v3.9L218.7 128.8v-4z" class="E" fill="#fefefe"/><path d="M376.5,392.6c8-8.4,15.4-16,23-25,4.4-5.2,9.8-18.6,12.8-15.9,2.8,2.6,2.4,8.7,3.2,13.3,1.3,6.8,3.5,13.8,4.1,21.1.3,3.6-6.7,13.3-8.7,9.7-2.7-5,7.2-17.7,10.2-23.5,3.5-6.8,5.6-13.9,9.2-20.8,3.4-6.6,2.8-1.7,1.6,1.3-.9,2.2-2.1,1.3-1.7,1.1,1.7-.9,3.1-.5,5.3-2.4,6.8-5.9,13.8-5.7,21.1-9.6,8.3-4.4,7.8,2.2,14.3-7.9,1.2-1.8,7.3-12.8,9.2-12.3,2.8.8,5.3,2.4,8.3,2.9,2.8.4,8.1-2.7,9.5-.5" stroke-width="3" fill="none" stroke="#c3fffe" stroke-linecap="round"/></g></svg>