<?xml version="1.0" encoding="UTF-8"?>
<svg xmlns="http://www.w3.org/2000/svg" xmlns:xlink="http://www.w3.org/1999/xlink" version="1.1" viewBox="0 0 615.2 647.7">
  <!-- Generator: Adobe Illustrator 29.4.0, SVG Export Plug-In . SVG Version: 2.1.0 Build 152)  -->
  <defs>
    <style>
      .st0 {
        fill: url(#linear-gradient2);
      }

      .st1 {
        fill: url(#linear-gradient1);
      }

      .st2 {
        fill: url(#linear-gradient3);
      }

      .st3 {
        fill: url(#linear-gradient7);
      }

      .st4 {
        fill: url(#linear-gradient5);
      }

      .st5 {
        fill: url(#linear-gradient4);
      }

      .st6 {
        fill: url(#linear-gradient);
      }

      .st7 {
        isolation: isolate;
      }

      .st8 {
        fill: #fff;
      }

      .st9 {
        mix-blend-mode: screen;
      }

      .st10 {
        fill: url(#linear-gradient6);
      }

      .st10, .st11, .st12 {
        stroke: #c2fffe;
      }

      .st10, .st11, .st12, .st13 {
        stroke-width: 3px;
      }

      .st11 {
        fill: url(#linear-gradient8);
      }

      .st12 {
        fill: url(#linear-gradient9);
      }

      .st14 {
        fill: #fefefe;
      }

      .st13 {
        fill: none;
        stroke: #c3fffe;
        stroke-linecap: round;
      }
    </style>
    <linearGradient id="linear-gradient" x1="30.7" y1="714.7" x2="30.7" y2="482.4" gradientTransform="translate(-259.8 776.4) rotate(28.7) scale(1 -.8) skewX(28.3)" gradientUnits="userSpaceOnUse">
      <stop offset="1" stop-color="#13b3d3" stop-opacity=".2"/>
      <stop offset="1" stop-color="#000"/>
    </linearGradient>
    <linearGradient id="linear-gradient1" x1="30.7" y1="714.7" x2="30.7" y2="482.4" gradientTransform="translate(-271.9 692.8) rotate(28.7) scale(1 -.8) skewX(28.3)" gradientUnits="userSpaceOnUse">
      <stop offset="1" stop-color="#13b3d3"/>
      <stop offset="1" stop-color="#000"/>
    </linearGradient>
    <linearGradient id="linear-gradient2" x1="30.7" y1="714.7" x2="30.7" y2="482.4" gradientTransform="translate(-271.9 734.6) rotate(28.7) scale(1 -.8) skewX(28.3)" gradientUnits="userSpaceOnUse">
      <stop offset="1" stop-color="#13b3d3" stop-opacity=".3"/>
      <stop offset="1" stop-color="#000"/>
    </linearGradient>
    <linearGradient id="linear-gradient3" x1="34.4" y1="477.9" x2="26.9" y2="719.3" gradientTransform="translate(-271.9 671.2) rotate(28.7) scale(1 -.8) skewX(28.3)" gradientUnits="userSpaceOnUse">
      <stop offset="0" stop-color="#13edb1"/>
      <stop offset="1" stop-color="#13b3d3"/>
    </linearGradient>
    <linearGradient id="linear-gradient4" x1="-121.7" y1="655" x2="-127.9" y2="716.7" gradientTransform="translate(-288.4 818.2) rotate(28.7) scale(1 -.8) skewX(28.3)" gradientUnits="userSpaceOnUse">
      <stop offset="1" stop-color="#13b3d3"/>
      <stop offset="1" stop-color="#000"/>
    </linearGradient>
    <linearGradient id="linear-gradient5" x1="5.7" y1="588.9" x2="-1.6" y2="719.2" gradientTransform="translate(-275.9 697.3) rotate(28.7) scale(1 -.8) skewX(28.3)" gradientUnits="userSpaceOnUse">
      <stop offset="1" stop-color="#13b3d3"/>
      <stop offset="1" stop-color="#000"/>
    </linearGradient>
    <linearGradient id="linear-gradient6" x1="215.6" y1="707.7" x2="215.6" y2="484.2" gradientTransform="translate(192.3 702.5) rotate(28.7) scale(1 -.9) skewX(-25.7)" gradientUnits="userSpaceOnUse">
      <stop offset="0" stop-color="#13edb1" stop-opacity=".3"/>
      <stop offset="1" stop-color="#13b3d3" stop-opacity=".3"/>
    </linearGradient>
    <linearGradient id="linear-gradient7" x1="215.7" y1="707.7" x2="215.7" y2="484.2" gradientTransform="translate(248.3 685.1) rotate(28.7) scale(1 -.9) skewX(-25.7)" gradientUnits="userSpaceOnUse">
      <stop offset="0" stop-color="#13edb1" stop-opacity=".1"/>
      <stop offset="1" stop-color="#13b3d3" stop-opacity=".3"/>
    </linearGradient>
    <linearGradient id="linear-gradient8" x1="90.7" y1="607.7" x2="90.7" y2="435.7" gradientTransform="translate(-11.1 713.5) rotate(-28.7) scale(1 -.9) skewX(25.7)" gradientUnits="userSpaceOnUse">
      <stop offset="0" stop-color="#13edb1" stop-opacity=".3"/>
      <stop offset="1" stop-color="#13b3d3" stop-opacity=".3"/>
    </linearGradient>
    <linearGradient id="linear-gradient9" x1="90.7" y1="607.7" x2="90.7" y2="435.7" gradientTransform="translate(357.7 922.6) rotate(-28.7) scale(1 -.9) skewX(25.7)" gradientUnits="userSpaceOnUse">
      <stop offset="0" stop-color="#13edb1" stop-opacity=".3"/>
      <stop offset="1" stop-color="#13b3d3" stop-opacity=".3"/>
    </linearGradient>
  </defs>
  <g class="st7">
    <g id="Layer_1">
      <g id="Group_112">
        <g id="Group_89">
          <g id="Group_88">
            <path id="Rectangle_230" class="st6" d="M254.6,371.1l278.3,152.7c21.3,11.7,21.3,30.6,0,42.3l-126.6,69.4c-21.3,11.7-55.8,11.7-77.2,0L50.9,482.8c-21.3-11.7-21.3-30.6,0-42.3l126.6-69.4c21.3-11.7,55.8-11.7,77.2,0Z"/>
            <path id="Rectangle_224" class="st1" d="M242.5,287.4l278.3,152.7c21.3,11.7,21.3,30.6,0,42.3l-126.6,69.4c-21.3,11.7-55.8,11.7-77.2,0L38.8,399.2c-21.3-11.7-21.3-30.6,0-42.3l126.6-69.4c21.3-11.7,55.8-11.7,77.2,0Z"/>
            <path id="Rectangle_229" class="st0" d="M242.5,329.3l278.3,152.7c21.3,11.7,21.3,30.6,0,42.3l-126.6,69.4c-21.3,11.7-55.8,11.7-77.2,0L38.8,441c-21.3-11.7-21.3-30.6,0-42.3l126.6-69.4c21.3-11.7,55.8-11.7,77.2,0Z"/>
            <g id="_x30_1010011" class="st9">
              <path class="st8" d="M24.2,198c-2,1.1-3.8,1.5-5.4,1.3-1.6-.3-2.8-1.2-3.8-2.9-.9-1.7-1.4-4-1.4-7.1s.5-5.9,1.4-8.6c.9-2.7,2.2-5,3.8-7,1.6-2,3.4-3.6,5.4-4.7,2-1.1,3.8-1.5,5.4-1.2,1.6.2,2.8,1.2,3.8,2.9.9,1.7,1.4,4,1.4,7.1s-.5,5.9-1.4,8.6c-.9,2.7-2.2,5-3.8,7-1.6,2-3.4,3.5-5.4,4.6ZM24.2,192.5c1-.5,1.8-1.3,2.5-2.3.7-1,1.3-2.3,1.7-3.8.4-1.6.6-3.4.6-5.5s-.2-3.7-.6-4.8c-.4-1.1-1-1.8-1.7-2-.7-.2-1.5,0-2.5.4-.9.5-1.8,1.3-2.5,2.3-.7,1-1.3,2.3-1.7,3.8-.4,1.6-.6,3.4-.6,5.5s.2,3.7.6,4.8c.4,1.1,1,1.8,1.7,2,.7.2,1.6,0,2.5-.4ZM41.1,188.2v-25.6l2.5,1.5-7.4,4v-5.2l10.6-5.8v28l-5.7,3.1ZM61.6,177.5c-2,1.1-3.8,1.5-5.4,1.3-1.6-.3-2.8-1.2-3.8-2.9-.9-1.7-1.4-4-1.4-7.1s.5-5.9,1.4-8.6,2.2-5,3.8-7c1.6-2,3.4-3.6,5.4-4.7,2-1.1,3.8-1.5,5.4-1.2,1.6.2,2.8,1.2,3.8,2.9.9,1.7,1.4,4,1.4,7.1s-.5,5.9-1.4,8.6c-.9,2.7-2.2,5-3.8,7-1.6,2-3.4,3.5-5.4,4.6ZM61.6,172c1-.5,1.8-1.3,2.5-2.3.7-1,1.3-2.3,1.7-3.8.4-1.6.6-3.4.6-5.5s-.2-3.7-.6-4.8c-.4-1.1-1-1.8-1.7-2-.7-.2-1.5,0-2.5.4-.9.5-1.8,1.3-2.5,2.3-.7,1-1.3,2.3-1.7,3.8-.4,1.6-.6,3.4-.6,5.5s.2,3.7.6,4.8c.4,1.1,1,1.8,1.7,2,.7.2,1.6,0,2.5-.4ZM78.5,167.7v-25.6l2.5,1.5-7.4,4v-5.2l10.6-5.8v28l-5.7,3.1ZM99,157c-2,1.1-3.8,1.5-5.4,1.3-1.6-.3-2.8-1.2-3.8-2.9s-1.4-4-1.4-7.1.5-5.9,1.4-8.6c.9-2.7,2.2-5,3.8-7,1.6-2,3.4-3.6,5.4-4.7,2-1.1,3.8-1.5,5.4-1.2,1.6.2,2.8,1.2,3.8,2.9.9,1.7,1.4,4,1.4,7.1s-.5,5.9-1.4,8.6c-.9,2.7-2.2,5-3.8,7-1.6,2-3.4,3.5-5.4,4.6ZM99,151.5c1-.5,1.8-1.3,2.5-2.3.7-1,1.3-2.3,1.7-3.8.4-1.6.6-3.4.6-5.5s-.2-3.7-.6-4.8c-.4-1.1-1-1.8-1.7-2-.7-.2-1.5,0-2.5.4-.9.5-1.8,1.3-2.5,2.3-.7,1-1.3,2.3-1.7,3.8-.4,1.6-.6,3.4-.6,5.5s.2,3.7.6,4.8c.4,1.1,1,1.8,1.7,2,.7.2,1.6,0,2.5-.4ZM24.2,247c-2,1.1-3.8,1.5-5.4,1.3-1.6-.3-2.8-1.2-3.8-2.9-.9-1.7-1.4-4-1.4-7.1s.5-5.9,1.4-8.6c.9-2.7,2.2-5,3.8-7,1.6-2,3.4-3.6,5.4-4.7,2-1.1,3.8-1.5,5.4-1.2,1.6.2,2.8,1.2,3.8,2.9.9,1.7,1.4,4,1.4,7.1s-.5,5.9-1.4,8.6c-.9,2.7-2.2,5-3.8,7-1.6,2-3.4,3.5-5.4,4.6ZM24.2,241.5c1-.5,1.8-1.3,2.5-2.3.7-1,1.3-2.3,1.7-3.8.4-1.6.6-3.4.6-5.5s-.2-3.7-.6-4.8c-.4-1.1-1-1.8-1.7-2-.7-.2-1.5,0-2.5.4-.9.5-1.8,1.3-2.5,2.3-.7,1-1.3,2.3-1.7,3.8-.4,1.6-.6,3.4-.6,5.5s.2,3.7.6,4.8c.4,1.1,1,1.8,1.7,2,.7.2,1.6,0,2.5-.4ZM41.1,237.2v-25.6l2.5,1.5-7.4,4v-5.2l10.6-5.8v28l-5.7,3.1ZM54.9,229.7v-25.6l2.5,1.5-7.4,4v-5.2l10.6-5.8v28l-5.7,3.1Z"/>
            </g>
            <path id="Rectangle_222" class="st2" d="M242.5,265.8l278.3,152.7c21.3,11.7,21.3,30.6,0,42.3l-126.6,69.4c-21.3,11.7-55.8,11.7-77.2,0L38.8,377.6c-21.3-11.7-21.3-30.6,0-42.3l126.6-69.4c21.3-11.7,55.8-11.7,77.2,0Z"/>
            <g id="Rectangle_225" class="st9">
              <path class="st5" d="M200.6,398.9l56.6,31c7.3,4,7.3,10.4,0,14.4l-24.3,13.4c-7.3,4-19,4-26.3,0l-56.6-31c-7.3-4-7.3-10.4,0-14.4l24.3-13.4c7.3-4,19-4,26.3,0Z"/>
            </g>
            <g id="Rectangle_226" class="st9">
              <path class="st4" d="M224.4,284.2l256.2,140.6c13.6,7.4,13.6,19.5,0,26.9l-57.3,31.4c-13.6,7.4-35.5,7.4-49.1,0L118,342.6c-13.6-7.4-13.6-19.5,0-26.9l57.3-31.4c13.6-7.4,35.5-7.4,49.1,0Z"/>
            </g>
            <path id="Rectangle_223" class="st10" d="M242.1,24.4l278.3,152.7c20.6,11.3,37.3,39.5,37.3,62.9v135.5c0,23.5-16.7,33.3-37.3,22.1L242.1,244.9c-20.6-11.3-37.3-39.5-37.3-62.9V46.4c0-23.5,16.7-33.3,37.3-22.1Z"/>
            <path id="Rectangle_231" class="st3" d="M298.3,4.8l278.3,152.7c21.3,11.7,38.6,40.9,38.6,65.2v135.5c0,24.3-17.3,34.5-38.6,22.8l-278.3-152.7c-21.3-11.7-38.6-40.9-38.6-65.2V27.7c0-24.3,17.3-34.5,38.6-22.8Z"/>
            <path id="Rectangle_227" class="st11" d="M13.3,93.3l110.3-60.5c6.5-3.6,11.8-.4,11.8,7v142c0,7.5-5.3,16.4-11.8,20l-110.3,60.5c-6.5,3.6-11.8.4-11.8-7V113.2c0-7.5,5.3-16.4,11.8-20Z"/>
            <path id="Rectangle_228" class="st12" d="M382.1,302.3l110.3-60.5c6.5-3.6,11.8-.4,11.8,7v142c0,7.5-5.3,16.4-11.8,20l-110.3,60.5c-6.5,3.6-11.8.4-11.8-7v-142c0-7.5,5.3-16.4,11.8-20Z"/>
            <g id="Group_72" class="st9">
              <polygon id="Rectangle_231_x5F_2" class="st14" points="218.7 75.2 543.5 253.4 543.5 257.3 218.7 79.2 218.7 75.2"/>
              <polygon id="Rectangle_233" class="st14" points="218.7 100 543.5 278.2 543.5 282.1 218.7 104 218.7 100"/>
              <polygon id="Rectangle_232" class="st14" points="218.7 87.6 543.5 265.8 543.5 269.7 218.7 91.6 218.7 87.6"/>
              <polygon id="Rectangle_237" class="st14" points="218.7 149.6 543.5 327.8 543.5 331.7 218.7 153.5 218.7 149.6"/>
              <polygon id="Rectangle_238" class="st14" points="218.7 174.4 543.5 352.5 543.5 356.5 218.7 178.3 218.7 174.4"/>
              <polygon id="Rectangle_239" class="st14" points="218.7 162 543.5 340.1 543.5 344.1 218.7 165.9 218.7 162"/>
              <polygon id="Rectangle_234" class="st14" points="218.7 112.4 543.5 290.6 543.5 294.5 218.7 116.4 218.7 112.4"/>
              <polygon id="Rectangle_235" class="st14" points="218.7 137.2 543.5 315.4 543.5 319.3 218.7 141.2 218.7 137.2"/>
              <polygon id="Rectangle_236" class="st14" points="218.7 124.8 543.5 303 543.5 306.9 218.7 128.8 218.7 124.8"/>
            </g>
            <path id="Vector_3" class="st13" d="M376.5,392.6c8-8.4,15.4-16,23-25,4.4-5.2,9.8-18.6,12.8-15.9,2.8,2.6,2.4,8.7,3.2,13.3,1.3,6.8,3.5,13.8,4.1,21.1.3,3.6-6.7,13.3-8.7,9.7-2.7-5,7.2-17.7,10.2-23.5,3.5-6.8,5.6-13.9,9.2-20.8,3.4-6.6,2.8-1.7,1.6,1.3-.9,2.2-2.1,1.3-1.7,1.1,1.7-.9,3.1-.5,5.3-2.4,6.8-5.9,13.8-5.7,21.1-9.6,8.3-4.4,7.8,2.2,14.3-7.9,1.2-1.8,7.3-12.8,9.2-12.3,2.8.8,5.3,2.4,8.3,2.9,2.8.4,8.1-2.7,9.5-.5"/>
          </g>
        </g>
      </g>
    </g>
  </g>
</svg>