<svg xmlns="http://www.w3.org/2000/svg" fill="none" viewBox="0 0 605 714" xmlns:v="https://vecta.io/nano"><rect width="344.386" height="344.386" rx="62" transform="matrix(.878374 .477974 -.878374 .477974 302.5 384.784)" fill="url(#A)"/><rect width="344.386" height="344.386" rx="62" transform="matrix(.878374 .477974 -.878374 .477974 302.5 350.185)" fill="url(#B)"/><rect width="344.386" height="344.386" rx="62" transform="matrix(.878374 .477974 -.878374 .477974 302.5 286.229)" fill="url(#C)"/><rect width="344.386" height="344.386" rx="62" transform="matrix(.878374 .477974 -.878374 .477974 302.5 239.049)" fill="url(#D)"/><ellipse cx="92.037" cy="87.072" rx="92.037" ry="87.072" transform="matrix(.677975 .735085 -.343149 .939281 326.5 155.172)" fill="#13b3d3"/><ellipse cx="92.037" cy="87.072" rx="92.037" ry="87.072" transform="matrix(.677975 .735085 -.343149 .939281 301.156 156.926)" fill="#13edb1"/><ellipse cx="92.037" cy="87.072" rx="92.037" ry="87.072" transform="matrix(.677975 .735085 -.343149 .939281 287.562 166.704)" fill="#13b3d3"/><ellipse cx="92.037" cy="87.072" rx="92.037" ry="87.072" transform="matrix(.677975 .735085 -.343149 .939281 262.219 168.458)" fill="#13edb1"/><ellipse cx="92.037" cy="87.072" rx="92.037" ry="87.072" transform="matrix(.677975 .735085 -.343149 .939281 239.727 180.335)" fill="#13b3d3"/><path d="M302.601 269.454c0-20.438-3.4-41.89-9.453-59.635s-14.261-30.331-22.82-34.989-16.768-1.005-22.821 10.153-9.452 28.909-9.452 49.347l8.938 4.864c0-14.778 2.458-27.612 6.835-35.68s10.311-10.709 16.5-7.341 12.124 12.468 16.5 25.298 6.835 28.341 6.835 43.119l8.938 4.864z" fill="#fff"/><ellipse cx="92.037" cy="87.072" rx="92.037" ry="87.072" transform="matrix(.677975 .735085 -.343149 .939281 214.383 182.089)" fill="#13edb1"/><path d="M241.276 287.271v-20.76l7.062 3.843v20.76l-7.062-3.843zm-14.019-7.629v-20.76l7.062 3.843v20.76l-7.062-3.843zm14.019 96.429v-20.76l7.062 3.843v20.76l-7.062-3.843zm-14.019-7.629v-20.76l7.062 3.843v20.76l-7.062-3.843zM216.4 350.774v-85.68l18.13 9.866c6.043 3.288 11.068 6.742 15.073 10.362 4.076 3.578 7.132 7.521 9.17 11.83 2.108 4.267 3.162 9.081 3.162 14.441 0 3.2-.351 5.928-1.054 8.186s-1.721 3.863-3.056 4.817-2.952 1.154-4.849.601v.6c2.038 1.669 3.865 3.663 5.481 5.983s2.916 5.107 3.9 8.362 1.476 7.123 1.476 11.603c0 5.2-.984 9.145-2.952 11.834-1.967 2.609-4.813 3.901-8.537 3.874-3.654-.068-8.011-1.479-13.071-4.232L216.4 350.774zm19.922-40.879c3.514 1.912 5.938 2.391 7.273 1.438s2.003-3.031 2.003-6.231c0-3.28-.808-6.079-2.425-8.399s-4.181-4.435-7.694-6.347l-3.162-1.721v19.08l4.005 2.18zm-4.005 12.22v22.32l5.164 2.811c3.655 1.988 6.184 2.325 7.59 1.01 1.475-1.357 2.213-3.796 2.213-7.316 0-2.16-.316-4.212-.949-6.156s-1.721-3.777-3.267-5.498c-1.476-1.683-3.514-3.232-6.114-4.647l-4.637-2.524z" fill="#fff"/><path transform="matrix(.878374 .477974 -.878374 .477974 302.5 0)" fill="url(#E)" d="M0 0h287.399v287.31H0z"/><path transform="matrix(.878374 .477974 0 1 50.0625 137.348)" fill="url(#F)" d="M0 0h287.399v274.653H0z"/><path transform="matrix(.878374 -.477974 0 1 302.578 274.718)" fill="url(#F)" d="M0 0h287.399v274.653H0z"/><defs><linearGradient id="A" x1="215.827" y1="344.386" x2="214.38" y2="-.36" href="#G"><stop stop-color="#13b3d3" stop-opacity=".12"/></linearGradient><linearGradient id="B" x1="215.827" y1="344.386" x2="214.38" y2="-.36" href="#G"><stop stop-color="#13edb1" stop-opacity=".42"/></linearGradient><linearGradient id="C" x1="215.827" y1="344.386" x2="214.38" y2="-.36" href="#G"><stop stop-color="#13b3d3"/></linearGradient><linearGradient id="D" x1="13.206" y1="152.466" x2="319.793" y2="109.9" href="#G"><stop stop-color="#13b3d3"/><stop offset="1" stop-color="#13edb1"/></linearGradient><linearGradient id="E" x1="11.021" y1="127.197" x2="266.872" y2="91.664" href="#G"><stop stop-color="#13b3d3" stop-opacity=".22"/><stop offset="1" stop-color="#13edb1" stop-opacity=".35"/></linearGradient><linearGradient id="F" x1="11.021" y1="121.594" x2="266.416" y2="84.49" href="#G"><stop stop-color="#13b3d3" stop-opacity=".22"/><stop offset="1" stop-color="#13edb1" stop-opacity=".35"/></linearGradient><linearGradient id="G" gradientUnits="userSpaceOnUse"/></defs></svg>