<?xml version="1.0" encoding="UTF-8"?>
<svg xmlns="http://www.w3.org/2000/svg" xmlns:xlink="http://www.w3.org/1999/xlink" version="1.1" viewBox="0 0 655 739.2">
  <defs>
    <style>
      .cls-1 {
        fill: url(#linear-gradient-5);
      }

      .cls-1, .cls-2 {
        fill-rule: evenodd;
      }

      .cls-2 {
        fill: url(#linear-gradient-4);
      }

      .cls-3 {
        fill: url(#linear-gradient-7);
      }

      .cls-4 {
        fill: url(#linear-gradient-6);
      }

      .cls-5 {
        fill: url(#linear-gradient-3);
      }

      .cls-6 {
        fill: url(#linear-gradient-2);
      }

      .cls-7 {
        fill: #a2ffe5;
      }

      .cls-8 {
        fill: url(#linear-gradient);
      }

      .cls-9 {
        fill: #13b3d3;
      }

      .cls-10 {
        isolation: isolate;
      }

      .cls-11 {
        stroke: #fff;
        stroke-width: 10px;
      }

      .cls-11, .cls-12 {
        fill: none;
      }

      .cls-13 {
        fill: #fff;
      }

      .cls-14 {
        mix-blend-mode: screen;
      }

      .cls-12 {
        stroke: #13b3d3;
        stroke-width: 5px;
      }
    </style>
    <linearGradient id="linear-gradient" x1="-165" y1="628.5" x2="-117.7" y2="492.4" gradientTransform="translate(967.8 736.4) rotate(-26.3) scale(1 -.8) skewX(-31.3)" gradientUnits="userSpaceOnUse">
      <stop offset="0" stop-color="#13b3d3"/>
      <stop offset="1" stop-color="#13edb1"/>
    </linearGradient>
    <linearGradient id="linear-gradient-2" x1="85" y1="842.2" x2="86.9" y2="813.5" gradientTransform="translate(193 1380.9) rotate(26.3) scale(1 -.9) skewX(-23.9)" gradientUnits="userSpaceOnUse">
      <stop offset="0" stop-color="#13b3d3"/>
      <stop offset="1" stop-color="#13edb1"/>
    </linearGradient>
    <linearGradient id="linear-gradient-3" x1="85" y1="660.5" x2="86.9" y2="631.7" gradientTransform="translate(308.8 1275.2) rotate(-26.3) scale(1 -.9) skewX(23.9)" gradientUnits="userSpaceOnUse">
      <stop offset="0" stop-color="#13b3d3"/>
      <stop offset="1" stop-color="#13edb1"/>
    </linearGradient>
    <linearGradient id="linear-gradient-4" x1="472.5" y1="558.5" x2="260.5" y2="519.1" gradientTransform="translate(0 704.1) scale(1 -1)" gradientUnits="userSpaceOnUse">
      <stop offset="0" stop-color="#13edb1" stop-opacity=".3"/>
      <stop offset="1" stop-color="#13b3d3" stop-opacity=".5"/>
    </linearGradient>
    <linearGradient id="linear-gradient-5" x1="381.4" y1="640.9" x2="283.7" y2="436.9" gradientTransform="translate(0 704.1) scale(1 -1)" gradientUnits="userSpaceOnUse">
      <stop offset="0" stop-color="#13edb1"/>
      <stop offset="1" stop-color="#13b3d3"/>
    </linearGradient>
    <linearGradient id="linear-gradient-6" x1="434.2" y1="404" x2="488.1" y2="166.8" gradientTransform="translate(0 704.1) scale(1 -1)" gradientUnits="userSpaceOnUse">
      <stop offset=".1" stop-color="#93e0cb" stop-opacity="0"/>
      <stop offset=".7" stop-color="#7fe2c7" stop-opacity=".2"/>
      <stop offset="1" stop-color="#13edb1" stop-opacity=".8"/>
    </linearGradient>
    <linearGradient id="linear-gradient-7" x1="202.4" y1="413.8" x2="148.5" y2="176.7" gradientTransform="translate(0 704.1) scale(1 -1)" gradientUnits="userSpaceOnUse">
      <stop offset=".1" stop-color="#93e0cb" stop-opacity="0"/>
      <stop offset=".7" stop-color="#7fe2c7" stop-opacity=".2"/>
      <stop offset="1" stop-color="#13edb1" stop-opacity=".8"/>
    </linearGradient>
  </defs>
  <!-- Generator: Adobe Illustrator 28.7.1, SVG Export Plug-In . SVG Version: 1.2.0 Build 142)  -->
  <g class="cls-10">
    <g id="Layer_1">
      <polygon class="cls-8" points="212 548.4 327.9 491.2 443.9 548.4 327.9 605.6 212 548.4"/>
      <g class="cls-14">
        <polygon class="cls-7" points="257.2 549 327.9 514 398.4 548.9 327.7 583.8 257.2 549"/>
      </g>
      <polygon class="cls-11" points="245 548.6 327.2 508 409.3 548.6 327.1 589.2 245 548.6"/>
      <polygon class="cls-6" points="212 548.4 327.9 605.6 327.9 630 212 572.8 212 548.4"/>
      <polygon class="cls-5" points="327.8 605.6 443.8 548.4 443.8 572.9 327.8 630.1 327.8 605.6"/>
      <path class="cls-2" d="M280.5,43.8c1.1-41.3,40.6-56,89.3-32.7,49.2,23.6,89.1,77.1,89.3,119.7,5,1.6,10.2,3.6,15.5,6.1,49.4,23.7,89.5,82,89.5,130.4s-40.1,68.4-89.5,44.7c-2.4-1.2-4.9-2.4-7.2-3.8-2.1-.8-4.2-1.7-6.3-2.7l-204.2-97.8c-1.7-.8-3.4-1.7-5.1-2.7-1.9-.8-3.9-1.7-5.8-2.6-49.3-23.6-89.3-83.6-89.3-133.9S196.6-3.4,245.9,20.2c12.2,5.9,23.9,14,34.6,23.6Z"/>
      <g class="cls-14">
        <path class="cls-9" d="M15.2,564.6l284-140.2c18.3-9,48-9,66.4,0l274,135.3c18.3,9,18.3,23.7,0,32.8l-284,140.2c-18.3,9-48,9-66.4,0L15.2,597.4c-18.3-9-18.3-23.7,0-32.8Z"/>
      </g>
      <path class="cls-1" d="M238.9,70.5c1.1-41.3,40.6-56,89.3-32.7,49.2,23.6,89.1,77.1,89.3,119.7,5,1.6,10.2,3.6,15.5,6.1,49.4,23.7,89.5,82,89.5,130.4s-40.1,68.4-89.5,44.7c-2.4-1.2-4.9-2.4-7.2-3.8-2.1-.8-4.2-1.7-6.3-2.7l-204.2-97.8c-1.7-.8-3.4-1.7-5.1-2.7-1.9-.8-3.9-1.7-5.8-2.6-49.3-23.6-89.3-83.6-89.3-133.9s40-72,89.3-48.4c12.2,5.9,23.9,14,34.6,23.6Z"/>
      <g class="cls-14">
        <path class="cls-13" d="M324.8,101.4c0,14.9-11.3,21.1-25.6,13.5-14.2-7.6-25.6-26-25.6-40.8s11.3-21.1,25.6-13.5c14.2,7.6,25.6,26,25.6,40.8Z"/>
        <path class="cls-12" d="M324.8,101.4c0,14.9-11.3,21.1-25.6,13.5-14.2-7.6-25.6-26-25.6-40.8s11.3-21.1,25.6-13.5c14.2,7.6,25.6,26,25.6,40.8Z"/>
      </g>
      <g class="cls-14">
        <path class="cls-13" d="M218.6,148.1l38.3,20.4v5.5l-38.3-20.4v-5.5Z"/>
      </g>
      <g class="cls-14">
        <path class="cls-13" d="M354.8,212.9l38.3,20.4v5.5l-38.3-20.4v-5.5Z"/>
      </g>
      <g class="cls-14">
        <path class="cls-13" d="M251.2,170.8l5.6,3v80.6l-5.6-3v-80.6Z"/>
      </g>
      <g class="cls-14">
        <path class="cls-13" d="M251.2,170.8l5.6,3v80.6l-5.6-3v-80.6Z"/>
      </g>
      <g class="cls-14">
        <path class="cls-13" d="M354.8,213.9l5.6,3v86.9l-5.6-3v-86.9Z"/>
      </g>
      <g class="cls-14">
        <path class="cls-13" d="M296.2,115.1l5.6,3v157.8l-5.6-3V115.1Z"/>
      </g>
      <g class="cls-14">
        <path class="cls-13" d="M219,145.1c0,14.9-11.3,21.1-25.6,13.5-14.2-7.6-25.6-26-25.6-40.8s11.3-21.1,25.6-13.5c14.2,7.6,25.6,26,25.6,40.8Z"/>
        <path class="cls-12" d="M219,145.1c0,14.9-11.3,21.1-25.6,13.5-14.2-7.6-25.6-26-25.6-40.8s11.3-21.1,25.6-13.5c14.2,7.6,25.6,26,25.6,40.8Z"/>
      </g>
      <path class="cls-13" d="M287,475.7l-21.2-12.2,9.6-5.6c2.3-1.3,4.8-2.2,7.4-2.7,2.6-.5,5.2-.6,7.8-.3,2.6.3,4.9,1.1,7.1,2.4,2.1,1.2,3.5,2.6,4.1,4.1.6,1.5.4,3-.4,4.5-.9,1.5-2.5,2.9-4.8,4.3l-9.6,5.6ZM287.8,470.6l4.5-2.6c1.4-.8,2.4-1.7,2.9-2.6.5-.9.5-1.8.1-2.7-.4-.9-1.3-1.8-2.6-2.5-1.4-.8-2.8-1.3-4.4-1.5-1.6-.2-3.1-.2-4.7,0-1.6.3-3.1.8-4.5,1.6l-4.5,2.6,13.2,7.6ZM308.9,463l-11.8-17.7,4.8-2.8,30.7,6.8-5.2,3-26.5-6.3,1.9-1.1,10.9,15.3-5,2.9ZM309.1,457.7l-2.4-2.9,10.9-6.3,5.1,1.4-13.5,7.8ZM332.8,449.2l-11.8-17.7,4.8-2.8,30.7,6.8-5.2,3-26.5-6.3,1.9-1.1,10.9,15.3-5,2.9ZM333,443.9l-2.4-2.9,10.9-6.3,5.1,1.4-13.5,7.8ZM369,428.8c-1.6.9-3.4,1.7-5.4,2.2-1.9.5-3.9.7-5.9.8-2,0-4-.2-5.9-.6-1.9-.4-3.6-1.1-5.2-2-1.6-.9-2.8-1.9-3.5-3-.7-1.1-1.1-2.2-1.1-3.4,0-1.2.5-2.3,1.4-3.4.8-1.1,2.1-2.2,3.8-3.1,1.8-1.1,3.8-1.8,5.9-2.3,2.1-.5,4.3-.7,6.5-.6l-.2,3.5c-1.6,0-3,0-4.3.3-1.3.3-2.5.7-3.5,1.3-1,.6-1.7,1.2-2.2,1.9-.5.7-.8,1.3-.8,2s.2,1.4.7,2.1c.5.7,1.3,1.3,2.3,1.9,1,.6,2.1,1,3.2,1.3,1.2.3,2.4.4,3.6.4s2.4-.1,3.5-.4c1.2-.3,2.2-.7,3.2-1.3,1.1-.6,1.8-1.3,2.3-2,.5-.8.6-1.6.5-2.5h6.1c.2,1.2,0,2.4-.9,3.7-.8,1.2-2.2,2.4-4,3.4Z"/>
      <g class="cls-14">
        <path class="cls-4" d="M350.8,315.4l230.7-140.5-191.3,369.5-68.7,33.8,29.3-262.8Z"/>
      </g>
      <g class="cls-14">
        <path class="cls-3" d="M359,282.5L55,165l191.3,369.5,68.7,33.8,44-285.8Z"/>
      </g>
      <g class="cls-14">
        <path class="cls-13" d="M436.1,263.1c0,14.9-11.3,21.1-25.6,13.5-14.2-7.6-25.6-26-25.6-40.8s11.3-21.1,25.6-13.5c14.2,7.6,25.6,26,25.6,40.8Z"/>
        <path class="cls-12" d="M436.1,263.1c0,14.9-11.3,21.1-25.6,13.5-14.2-7.6-25.6-26-25.6-40.8s11.3-21.1,25.6-13.5c14.2,7.6,25.6,26,25.6,40.8Z"/>
      </g>
    </g>
  </g>
</svg>