<svg xmlns="http://www.w3.org/2000/svg" viewBox="0 0 776.8 597.6" xmlns:v="https://vecta.io/nano"><style>.A{isolation:isolate}.I{mix-blend-mode:screen}</style><defs><linearGradient id="A" x1="364.8" y1="612.6" x2="364.8" y2="242.5" gradientTransform="translate(442.8 769.6) rotate(-30) scale(1 -.9) skewX(-26.6)" href="#H"><stop offset="0" stop-color="#13edb1"/><stop offset="1" stop-color="#13b3d3"/></linearGradient><linearGradient id="B" x1="364.8" y1="612.6" x2="364.8" y2="242.5" gradientTransform="translate(442.8 746.8) rotate(-30) scale(1 -.9) skewX(-26.6)" href="#H"><stop offset="0" stop-color="#13edb1"/><stop offset="1" stop-color="#13b3d3"/></linearGradient><linearGradient id="C" x1="277.8" y1="612.6" x2="277.8" y2="355.1" gradientTransform="translate(563.6 732.8) rotate(-30) scale(1 -.9) skewX(-26.6)" href="#H"><stop offset="0" stop-color="#13edb1"/><stop offset="1" stop-color="#13b3d3"/></linearGradient><linearGradient id="D" x1="388.9" y1="432.7" x2="102.9" y2="322.3" href="#H"><stop offset="0" stop-color="#13edb1"/><stop offset="1" stop-color="#13b3d3"/></linearGradient><linearGradient id="E" x1="674.9" y1="276.7" x2="388.9" y2="166.3" href="#H"><stop offset="0" stop-color="#13edb1"/><stop offset="1" stop-color="#13b3d3"/></linearGradient><linearGradient id="F" x1="245.7" y1="377.2" x2="245.4" y2="157.2" href="#H"><stop offset="0" stop-color="#8dfff8"/><stop offset="1" stop-color="#559995" stop-opacity="0"/></linearGradient><linearGradient id="G" x1="532" y1="220.2" x2="531.7" y2=".2" href="#H"><stop offset="0" stop-color="#8dfff8"/><stop offset="1" stop-color="#559995" stop-opacity="0"/></linearGradient><linearGradient id="H" gradientUnits="userSpaceOnUse"/></defs><g class="A"><path d="M13.6,404.7l429-247.7c18.2-10.5,47.6-10.5,65.8,0l254.7,147.1c18.2,10.5,18.2,27.5,0,38l-429,247.7c-18.2,10.5-47.6,10.5-65.8,0L13.6,442.7c-18.2-10.5-18.2-27.5,0-38Z" fill-opacity=".4" fill="url(#A)"/><path d="M13.6 381.9l429-247.7c18.2-10.5 47.6-10.5 65.8 0l254.7 147.1c18.2 10.5 18.2 27.5 0 38L334.1 567c-18.2 10.5-47.6 10.5-65.8 0L13.6 419.9c-18.2-10.5-18.2-27.5 0-38z" fill="url(#B)" fill-opacity=".4"/><path d="M135.4,367.4l276.5-159.6c17.5-10.1,45.8-10.1,63.2,0l157.2,90.8c17.5,10.1,17.5,26.4,0,36.5l-276.5,159.6c-17.5,10.1-45.8,10.1-63.2,0l-157.2-90.8c-17.5-10.1-17.5-26.4,0-36.5Z" fill="none" stroke="url(#C)" stroke-width="3"/><path d="M382.9 277.9c3.3-8.2-9.4-15.5-23.5-13.6l-33.3 4.5c-15 2-20.3 12.7-9.4 19l1.4.8-30.7 17.7c-5.7 3.3-5.7 8.7 0 12l1.7 1c5.7 3.3 15 3.3 20.8 0l30.7-17.7 1.7 1c10.9 6.3 29.5 3.2 32.9-5.4l7.7-19.2zm33.3 132.7c-3.3 8.2 9.4 15.4 23.6 13.5l33.3-4.6c15-2 20.3-12.8 9.4-19l-1.4-.8 30.7-17.8c5.7-3.3 5.7-8.7 0-12l-1.7-1c-5.7-3.3-15.1-3.3-20.8 0l-30.7 17.8-1.7-1c-10.9-6.2-29.5-3.1-32.9 5.5l-7.7 19.2z" fill-rule="evenodd" fill="#fff"/><g fill="#13b3d3"><ellipse cx="245.9" cy="424.5" rx="143" ry="82.5" fill-opacity=".3"/><ellipse cx="245.9" cy="403.5" rx="143" ry="82.5"/></g><ellipse cx="245.9" cy="377.5" rx="143" ry="82.5" fill="url(#D)"/><path class="I" d="M214.4 349.8l-22.5-13 8.7-5 22.5 13-8.7 5zm-17.3 9.9l-22.5-13 8.7-5 22.5 13-8.7 5zm113.4 45.6l-22.5-13 8.7-5 22.5 13-8.7 5zm-17.2 9.9l-22.5-13 8.7-5 22.5 13-8.7 5zm-26.1.4l-92.8-53.5 22.3-12.9c7.4-4.3 14.4-7.4 20.9-9.4s12.7-2.8 18.7-2.2c6 .5 11.9 2.4 17.7 5.7 3.5 2 6.2 4.1 8.2 6.2s3.1 4.2 3.2 6.2c.2 2-.6 3.8-2.5 5.5l.6.4c3.1-1.1 6.5-1.8 10-2 3.6-.2 7.4.1 11.6 1.1s8.7 2.9 13.5 5.7c5.6 3.2 9.3 6.8 10.9 10.5s1.1 7.5-1.3 11.4c-2.4 3.8-6.8 7.5-13 11.1L267 415.7zm-31.5-46.5c4.3-2.5 6.4-4.8 6.2-6.8s-2-4-5.5-6c-3.6-2-7.1-3-10.7-2.7-3.6.2-7.5 1.6-11.8 4.1l-3.9 2.2 20.7 11.9 4.9-2.9zm10.7 11.9l24.2 13.9 6.4-3.7c4.5-2.6 6.5-5 6-7.4s-2.7-4.7-6.5-6.9c-2.3-1.4-4.8-2.3-7.3-2.9-2.5-.5-5.2-.5-8.1 0-2.8.5-5.8 1.7-9 3.5l-5.7 3.3z" fill="#fff"/><g fill="#13b3d3"><ellipse cx="531.9" cy="268.5" rx="143" ry="82.5" fill-opacity=".3"/><ellipse cx="531.9" cy="247.5" rx="143" ry="82.5"/></g><ellipse cx="531.9" cy="221.5" rx="143" ry="82.5" fill="url(#E)"/><path class="I" d="M500.4 193.8l-22.5-13 8.7-5 22.5 13-8.7 5zm-17.3 9.9l-22.5-13 8.7-5 22.5 13-8.7 5zm113.4 45.6l-22.5-13 8.7-5 22.5 13-8.7 5zm-17.2 9.9l-22.5-13 8.7-5 22.5 13-8.7 5zm-26.1.4L460.4 206l22.3-12.9c7.4-4.3 14.4-7.4 20.9-9.4 6.5-2.1 12.7-2.8 18.7-2.2 6 .4 11.9 2.3 17.7 5.7 3.5 2 6.2 4.1 8.2 6.2 2 2.2 3.1 4.2 3.2 6.2.2 2-.6 3.8-2.5 5.5l.7.4c3.1-1.1 6.5-1.8 10-2 3.6-.2 7.4.1 11.6 1.1s8.7 2.9 13.5 5.7c5.6 3.2 9.3 6.8 10.9 10.5s1.1 7.5-1.3 11.4c-2.4 3.8-6.8 7.5-13 11.1l-28.2 16.3zm-31.5-46.5c4.3-2.5 6.4-4.8 6.2-6.8s-2-4-5.5-6c-3.6-2.1-7.1-2.9-10.7-2.7s-7.5 1.6-11.8 4.1l-3.9 2.2 20.7 11.9 4.9-2.8zm10.7 11.9l24.2 14 6.4-3.7c4.5-2.6 6.5-5.1 6-7.4-.5-2.4-2.7-4.7-6.5-6.9-2.3-1.4-4.8-2.3-7.3-2.9s-5.2-.6-8.1 0c-2.8.5-5.8 1.7-9 3.5l-5.7 3.3z" fill="#fff"/><path d="M499.3 447.9c-1.5.8-3 1.5-4.8 2.1-1.7.5-3.3.9-4.8 1l-1.7-2.7c1.3-.1 2.7-.4 4.1-.8s2.7-.9 3.8-1.6c.8-.5 1.4-.9 1.8-1.3.3-.4.5-.8.4-1.1s-.3-.6-.6-.8c-.5-.3-1.1-.4-1.7-.3-.7 0-1.4.2-2.2.5-.8.2-1.7.5-2.6.9l-2.9.9c-1 .3-2 .5-3 .6s-2 .1-3 0-2-.5-3-1.1-1.7-1.3-2-2.1-.1-1.7.5-2.7 1.8-1.9 3.5-2.9c1.1-.7 2.4-1.2 3.8-1.7a20.42 20.42 0 0 1 4.1-1l1.9 2.6c-1.3.2-2.5.5-3.6.9l-2.9 1.2c-.8.5-1.4.9-1.7 1.3s-.5.8-.4 1.1c0 .3.3.6.7.8.5.3 1 .4 1.7.3.7 0 1.4-.2 2.2-.5l2.6-.9 2.9-1c1-.3 2-.5 3-.7 1-.1 2-.1 3 0s2 .5 3 1c1 .6 1.7 1.3 1.9 2.1.3.8.1 1.7-.5 2.7s-1.8 1.9-3.5 2.9zm17.1-10.1c-1.6.9-3.3 1.6-5.1 1.9s-3.6.4-5.3.1c-1.8-.2-3.3-.8-4.7-1.6s-2.3-1.7-2.8-2.7c-.4-1-.4-2 .1-3s1.5-1.9 2.9-2.7 2.9-1.3 4.6-1.6a14.56 14.56 0 0 1 5.1 0c1.7.2 3.3.8 4.8 1.7.2 0 .3.2.5.3s.3.2.5.3l-11.4 6.6-2.4-1.4 9.2-5.3-.9 1.3c-.7-.4-1.5-.7-2.3-.8s-1.7-.1-2.5 0-1.6.4-2.3.8-1.2.8-1.4 1.3-.2.9 0 1.4.7.9 1.5 1.4l.6.4a10.64 10.64 0 0 0 2.5.9c.9.1 1.8.1 2.8 0 .9-.2 1.8-.5 2.6-1 .7-.4 1.3-.9 1.6-1.3.3-.5.5-1 .5-1.5h4.5c0 .9-.2 1.7-.7 2.5-.6.8-1.5 1.5-2.8 2.3zm3.6-18.6c1.1-.6 2.3-1.1 3.6-1.3 1.3-.3 2.7-.3 4.1 0 1.4.2 2.8.8 4.2 1.6l8 4.6-4.1 2.3-7.4-4.3c-1.1-.7-2.2-1-3.2-1s-2 .2-2.9.7c-.6.4-1.1.8-1.3 1.2s-.2.9 0 1.4c.3.5.8 1 1.7 1.5l6.9 4-4.1 2.3-14-8.1 3.9-2.2 3.9 2.2-1.9-.3c-.4-.8-.4-1.7 0-2.5s1.2-1.6 2.4-2.3zm29.6-.5c-1.6 1-3.3 1.5-5.1 1.5s-3.5-.4-5.1-1.4l-12.3-7.1 4.1-2.3 12.2 7c.6.3 1.2.5 1.8.5s1.2-.2 1.7-.5c.6-.4 1-.8 1.1-1.2l3.9 1c-.1.4-.4.8-.8 1.3-.4.4-1 .8-1.6 1.2zm-18.2-1.9l-3.1-1.8 9.7-5.6 3.1 1.8-9.7 5.6zM232 293.1l-18.2-10.5 7.9-4.5c1.6-.9 3.3-1.6 5-2s3.4-.5 5-.3 3.1.7 4.5 1.5 2.2 1.6 2.5 2.6c.3.9.2 1.9-.4 2.9-.7 1-1.8 1.9-3.4 2.9l-5.5 3.2v-2.2l6.9 4-4.2 2.4zm-2.2-6.1h-3.9l5.3-3.1c1.3-.8 2-1.5 2.1-2.2 0-.7-.4-1.3-1.4-1.9s-2.1-.8-3.3-.8-2.4.5-3.7 1.2l-5.3 3.1v-2.2c-.1 0 10.2 6 10.2 6zm27.8-8.4c-1.6.9-3.3 1.6-5.1 1.9s-3.6.4-5.3.1c-1.8-.2-3.3-.8-4.7-1.6s-2.3-1.7-2.8-2.7c-.4-1-.4-2 .1-3s1.5-1.9 2.9-2.7 2.9-1.3 4.6-1.6a14.56 14.56 0 0 1 5.1 0c1.7.2 3.3.8 4.8 1.7.2 0 .3.2.5.3s.3.2.5.3l-11.4 6.6-2.4-1.4 9.2-5.3-.9 1.3c-.7-.4-1.5-.7-2.3-.8s-1.7-.1-2.5 0-1.6.4-2.3.8-1.2.8-1.4 1.3-.2.9 0 1.4.7.9 1.5 1.4l.6.4a10.64 10.64 0 0 0 2.5.9c.9.1 1.8.1 2.8 0 .9-.2 1.8-.5 2.6-1 .7-.4 1.3-.9 1.6-1.3.3-.5.5-1 .5-1.5h4.5c0 .9-.2 1.7-.7 2.5-.6.8-1.5 1.5-2.8 2.3zm3.6-18.7c1.1-.6 2.3-1.1 3.6-1.3 1.3-.3 2.7-.3 4.1 0 1.4.2 2.8.8 4.2 1.6l8 4.6-4.1 2.3-7.4-4.3c-1.1-.6-2.2-1-3.2-1s-2 .2-2.9.7c-.6.4-1.1.8-1.3 1.2s-.2.9 0 1.4c.3.5.8 1 1.7 1.5l6.9 4-4.1 2.3-14-8.1 3.9-2.2 3.9 2.2-1.9-.3c-.4-.8-.4-1.7 0-2.5s1.2-1.6 2.4-2.3zm29.9-.7c-1.3.8-2.8 1.3-4.4 1.5a14 14 0 0 1-5 0c-1.7-.3-3.2-.8-4.7-1.7s-2.4-1.8-2.9-2.7a3.65 3.65 0 0 1 0-2.9c.5-.9 1.4-1.8 2.7-2.6 1.2-.7 2.5-1.1 3.9-1.3s2.9-.1 4.4.2 3.1 1 4.8 1.9c1.6.9 2.7 1.9 3.4 2.7.6.9.7 1.7.3 2.5-.3.8-1.1 1.6-2.4 2.3zm-2.6-2.3c.7-.4 1.1-.8 1.3-1.3a1.95 1.95 0 0 0 0-1.5c-.3-.5-.8-1-1.6-1.5a6.22 6.22 0 0 0-2.6-.9c-.9-.1-1.8-.2-2.6 0-.8.1-1.6.4-2.3.8s-1.1.8-1.4 1.3a1.95 1.95 0 0 0 0 1.5c.3.5.8 1 1.6 1.5s1.6.8 2.5.9 1.8.1 2.6 0 1.6-.4 2.3-.8zm6.8-.3l-2.9-1.7-4.1-2.4-4.4-2.2-8.1-4.7 4.1-2.3 19.3 11.1-3.9 2.2zm7.6-4.4l-14-8.1 4.1-2.3 14 8.1-4.1 2.3zM289 241.8c-.7.4-1.6.7-2.5.7s-1.7-.2-2.3-.5c-.6-.4-.9-.8-.9-1.3s.4-1 1.2-1.4c.7-.4 1.6-.7 2.4-.7.9 0 1.6.1 2.3.5s1 .9 1 1.4-.4 1-1.2 1.4zm16-7.2c1.1-.6 2.3-1.1 3.6-1.3 1.3-.3 2.7-.3 4.1 0 1.4.2 2.8.8 4.2 1.6l8 4.6-4.1 2.3-7.4-4.3c-1.1-.7-2.2-1-3.2-1s-2 .2-2.9.7c-.6.4-1.1.8-1.3 1.2s-.2.9 0 1.4c.3.5.8 1 1.7 1.5l6.9 4-4.1 2.3-14-8.1 3.9-2.2 3.9 2.2-1.9-.3c-.4-.8-.4-1.7 0-2.5s1.2-1.6 2.4-2.3zm35.6 1.9c-1.3.8-2.8 1.4-4.3 1.9s-3 .8-4.5.9l-1.3-2.6c1.1 0 2.2-.3 3.4-.6 1.2-.4 2.3-.8 3.1-1.3 1.4-.8 2.2-1.6 2.2-2.4s-.6-1.5-1.9-2.2l-2.1-1.2-3.2-2.2-3.6-2-3-1.7 3.8-2.2 11.6 6.7c2.6 1.5 3.8 3 3.7 4.5s-1.4 3-4 4.4zm-6.5-3.1c-1.3.8-2.8 1.3-4.4 1.6s-3.2.3-4.9 0c-1.6-.2-3.1-.7-4.5-1.5s-2.2-1.7-2.6-2.6c-.4-1-.3-1.9.2-2.8s1.4-1.8 2.7-2.5c1.2-.7 2.5-1.1 3.8-1.4 1.4-.2 2.8-.2 4.3 0 1.5.3 3 .9 4.6 1.8 1.5.9 2.6 1.8 3.1 2.6.5.9.5 1.7.1 2.5s-1.2 1.5-2.4 2.2zm-2.6-2.4c.7-.4 1.2-.9 1.5-1.3a1.36 1.36 0 0 0 0-1.5c-.3-.5-.6-.9-1.3-1.3s-1.4-.7-2.3-.8c-.8-.1-1.7 0-2.5 0-.8.2-1.6.4-2.3.8s-1.2.9-1.5 1.3c-.3.5-.3 1-.1 1.5s.6.9 1.3 1.3 1.4.6 2.3.8c.8.1 1.7 0 2.5 0 .8-.2 1.6-.4 2.3-.9z" fill="#13b3d3" class="I"/><path d="M388.7,378l-3.5,17.5-10,16.5-13.5,14-15.5,10.5-27,11.5-27.5,7.5-28.5,3.5-28.5,1.5-26-3-23-5.5-12.5-3.5-13-4.5-19.5-11-16.5-11.5-11.5-13.5-7.5-13.5-2.5-16.5,1.9-220.6,281-.4,3.1,221Z" fill="url(#F)" fill-opacity=".2"/><path d="M675 221l-3.5 17.5-10 16.5-13.5 14-15.5 10.5-27 11.5-27.5 7.5-28.5 3.5-28.5 1.5-26-3-23-5.5-12.5-3.5-13-4.5-19.5-11-16.5-11.5L399 251l-7.5-13.5L389 221 391 .4 672 0l3.1 221z" fill-opacity=".2" fill="url(#G)"/></g></svg>