<svg xmlns="http://www.w3.org/2000/svg" fill="none" viewBox="9.82 0 579.18 575.5" xmlns:v="https://vecta.io/nano"><path d="M430.989 147.05c-4.215-2.433-8.401-5.483-12.557-9.15-4.1-3.7-7.621-7.6-10.566-11.7l5.543-9.2c2.309 3.267 4.965 6.333 7.967 9.2 3.06 2.9 6.149 5.25 9.266 7.05 3.522 2.033 6.294 2.833 8.314 2.4s3.031-2.083 3.031-4.95c0-1.8-.404-3.633-1.212-5.5s-2.252-3.767-4.33-5.7c-2.021-1.9-4.879-3.917-8.574-6.05l-15.502-8.95 3.118-37.6 36.979 21.35v13L420.51 82.8l7.275-3.2-2.165 26.85-7.275-11.6 12.817 7.4c6.005 3.467 10.825 7.217 14.463 11.25 3.695 4 6.379 8.117 8.054 12.35s2.511 8.417 2.511 12.55-.895 7.45-2.684 9.95c-1.79 2.433-4.562 3.667-8.314 3.7-3.695 0-8.43-1.667-14.203-5z" fill="#fff" style="mix-blend-mode:screen"/><ellipse cx="121.553" cy="125.553" rx="121.553" ry="125.553" transform="matrix(.866025 -.5 .866025 .5 161 344.553)" fill="#8dfff8"/><g fill-rule="evenodd"><path d="M476.041 413.834c-57.706 35.04-151.267 35.04-208.973 0s-57.706-91.852 0-126.892 151.267-35.04 208.973 0 57.706 91.852 0 126.892zM244.685 450.65c81.65 38.194 199.265 34.572 274.094-10.865 81.31-49.372 81.31-129.421 0-178.794s-213.139-49.373-294.449 0c-74.829 45.437-80.793 116.856-17.893 166.435l-78.333 47.565 38.248 23.225 78.333-47.566z" fill="#13b3d3"/><path d="M476.041 390.24c-57.706 35.04-151.267 35.04-208.973 0s-57.706-91.851 0-126.892 151.267-35.04 208.973 0 57.706 91.852 0 126.892zm-231.356 36.817c81.65 38.193 199.265 34.572 274.094-10.866 81.31-49.372 81.31-129.421 0-178.794s-213.139-49.373-294.449 0c-74.829 45.438-80.793 116.856-17.893 166.435l-78.333 47.565 38.248 23.225 78.333-47.565z" fill="#13edb1"/></g><path fill="#13b3d3" d="M128.289 451.029l38.248 23.225v24.122l-38.248-23.225z"/><path transform="matrix(.85476 -.519024 0 1 67.3047 538.307)" fill="url(#A)" d="M0 0h131.224v37.198H0z"/><path transform="matrix(.85476 -.519024 0 1 9.82031 503.77)" fill="url(#B)" d="M0 0h131.448v35.751H0z"/><path transform="matrix(.85476 .519024 -.85476 .519024 121.531 435.545)" fill="url(#C)" d="M0 0h67.476v130.69H0z"/><path transform="matrix(.85476 .519024 0 1 9.82031 503.377)" fill="url(#D)" d="M0 0h67.476v35.792H0z"/><path d="M221 0h296v335l1.5 3-2.5 8-5.5 11-12.5 16-19.5 15.5-22.5 11-43.5 13.5-45 3.5-45-5.5-42.5-15-18.5-10-16.5-13-14-18-6.5-17.5L221 0z" fill="url(#E)"/><g fill="#fff"><path fill-rule="evenodd" d="M469.994 333.967l-23.908-21.212-85.341 16.567-27.444-24.348-48.43 9.401 51.408 45.609 48.431-9.401-.057-.05 85.341-16.566z"/><path d="M281.036 146.5c-4.214-2.433-8.4-5.483-12.557-9.15-4.157-3.733-7.679-7.633-10.566-11.7l5.456-9.25c2.31 3.267 4.994 6.35 8.054 9.25s6.149 5.25 9.267 7.05c3.522 2.033 6.293 2.833 8.314 2.4s3.031-2.05 3.031-4.85c0-2.667-.895-5.283-2.685-7.85s-4.676-5-8.66-7.3l-6.409-3.7v-10.7l16.888-12.35 1.559 6.7-31.784-18.35v-13l42.436 24.5v10.5l-16.801 12.4-7.102-8.8 4.071 2.35c7.448 4.3 13.077 9.483 16.887 15.55s5.716 12.133 5.716 18.2c0 3.933-.895 7.117-2.685 9.55-1.789 2.367-4.532 3.55-8.227 3.55s-8.429-1.667-14.203-5zm100.456 92.15c-5.08-2.933-9.526-6.367-13.337-10.3-3.81-4-6.783-8.217-8.92-12.65-2.136-4.5-3.204-8.917-3.204-13.25s1.039-7.4 3.118-9.2c2.136-1.833 5.109-2.417 8.92-1.75 3.81.6 8.285 2.383 13.423 5.35 5.196 3 9.7 6.4 13.51 10.2 3.868 3.767 6.842 7.783 8.92 12.05 2.136 4.233 3.205 8.517 3.205 12.85s-1.069 7.517-3.205 9.55c-2.136 1.967-5.138 2.733-9.006 2.3-3.811-.467-8.285-2.183-13.424-5.15zm0-11.9c3.522 2.033 6.293 2.733 8.314 2.1 2.079-.6 3.118-2.467 3.118-5.6s-1.039-6.167-3.118-9.1c-2.021-2.967-4.792-5.467-8.314-7.5-3.464-2-6.206-2.683-8.227-2.05-2.021.567-3.031 2.417-3.031 5.55s1.01 6.183 3.031 9.15 4.763 5.45 8.227 7.45zm0-21.7c-4.676-2.7-8.775-5.8-12.297-9.3-3.464-3.467-6.178-7.167-8.141-11.1-1.905-3.967-2.858-7.917-2.858-11.85 0-4.133.982-7.1 2.945-8.9 1.963-1.867 4.705-2.583 8.227-2.15 3.522.367 7.563 1.867 12.124 4.5 4.677 2.7 8.747 5.883 12.211 9.55 3.522 3.633 6.264 7.517 8.227 11.65 2.021 4.1 3.032 8.217 3.032 12.35 0 3.933-.982 6.767-2.945 8.5-1.905 1.7-4.619 2.267-8.141 1.7s-7.649-2.217-12.384-4.95zm0-9.5c2.945 1.7 5.254 2.267 6.928 1.7 1.732-.533 2.599-2.133 2.599-4.8 0-2.8-.895-5.483-2.685-8.05-1.732-2.533-4.013-4.617-6.842-6.25-2.771-1.6-5.023-2.133-6.755-1.6s-2.598 2.2-2.598 5c0 2.667.837 5.25 2.512 7.75s3.954 4.583 6.841 6.25z" style="mix-blend-mode:screen"/></g><defs><linearGradient id="A" x1="33.33" y1="0" x2="44.505" y2="49.3" href="#F"><stop stop-color="#13edb1"/><stop offset="1" stop-color="#13b3d3"/></linearGradient><linearGradient id="B" x1="33.387" y1="0" x2="43.732" y2="47.567" href="#F"><stop stop-color="#13edb1"/><stop offset="1" stop-color="#13b3d3"/></linearGradient><linearGradient id="C" x1="17.138" y1="0" x2="100.124" y2="53.582" href="#F"><stop stop-color="#13edb1"/><stop offset="1" stop-color="#13b3d3"/></linearGradient><linearGradient id="D" x1="17.138" y1="0" x2="35.068" y2="42.269" href="#F"><stop stop-color="#13edb1"/><stop offset="1" stop-color="#13b3d3"/></linearGradient><linearGradient id="E" x1="366.902" y1="335" x2="371.098" y2="0" href="#F"><stop stop-color="#8dfff8" stop-opacity=".47"/><stop offset="1" stop-color="#559995" stop-opacity="0"/></linearGradient><linearGradient id="F" gradientUnits="userSpaceOnUse"/></defs></svg>