<?xml version="1.0" encoding="UTF-8"?>
<svg xmlns="http://www.w3.org/2000/svg" xmlns:xlink="http://www.w3.org/1999/xlink" version="1.1" viewBox="0 0 781.1 564.1">
  <defs>
    <style>
      .cls-1 {
        fill: #fff;
        fill-rule: evenodd;
      }

      .cls-2 {
        fill: url(#linear-gradient-8);
      }

      .cls-3 {
        fill: url(#linear-gradient-7);
      }

      .cls-4 {
        fill: url(#linear-gradient-5);
      }

      .cls-5 {
        fill: url(#linear-gradient-6);
      }

      .cls-6 {
        fill: url(#linear-gradient-4);
      }

      .cls-7 {
        fill: url(#linear-gradient-3);
      }

      .cls-8 {
        fill: url(#linear-gradient-2);
      }

      .cls-9 {
        fill: url(#linear-gradient);
      }

      .cls-10 {
        isolation: isolate;
      }

      .cls-11 {
        fill: #13e5b6;
      }

      .cls-12 {
        mix-blend-mode: screen;
      }
    </style>
    <linearGradient id="linear-gradient" x1="243.9" y1="172.7" x2="353.2" y2="621.2" gradientTransform="translate(-210.3 378) rotate(29.9) scale(1 -.9) skewX(26.8)" gradientUnits="userSpaceOnUse">
      <stop offset="0" stop-color="#fff" stop-opacity=".5"/>
      <stop offset="1" stop-color="#13edb1" stop-opacity=".7"/>
    </linearGradient>
    <linearGradient id="linear-gradient-2" x1="298.5" y1="635.7" x2="298.5" y2="158.2" gradientTransform="translate(-215.3 355) rotate(29.9) scale(1 -.9) skewX(26.8)" gradientUnits="userSpaceOnUse">
      <stop offset="1" stop-color="#13b3d3"/>
      <stop offset="1" stop-color="#000"/>
    </linearGradient>
    <linearGradient id="linear-gradient-3" x1="244.7" y1="430" x2="97.6" y2="631.4" gradientTransform="translate(-238.6 369.1) rotate(29.2) scale(1 -.9) skewX(27.6)" gradientUnits="userSpaceOnUse">
      <stop offset="0" stop-color="#13edb1" stop-opacity=".9"/>
      <stop offset="1" stop-color="#13b3d3" stop-opacity=".9"/>
    </linearGradient>
    <linearGradient id="linear-gradient-4" x1="244.7" y1="430" x2="97.6" y2="631.4" gradientTransform="translate(-235 263.1) rotate(29.2) scale(1 -.9) skewX(27.6)" gradientUnits="userSpaceOnUse">
      <stop offset="0" stop-color="#13edb1" stop-opacity=".9"/>
      <stop offset="1" stop-color="#13b3d3" stop-opacity=".9"/>
    </linearGradient>
    <linearGradient id="linear-gradient-5" x1="244.7" y1="430" x2="97.6" y2="631.4" gradientTransform="translate(-221 514.1) rotate(29.2) scale(1 -.9) skewX(27.6)" gradientUnits="userSpaceOnUse">
      <stop offset="0" stop-color="#13edb1" stop-opacity=".9"/>
      <stop offset="1" stop-color="#13b3d3" stop-opacity=".9"/>
    </linearGradient>
    <linearGradient id="linear-gradient-6" x1="105.1" y1="500.1" x2="237.2" y2="561.3" gradientTransform="translate(-221.8 592.3) rotate(29.2) scale(1 -.9) skewX(27.6)" gradientUnits="userSpaceOnUse">
      <stop offset="0" stop-color="#13edb1" stop-opacity=".9"/>
      <stop offset="1" stop-color="#13b3d3" stop-opacity=".9"/>
    </linearGradient>
    <linearGradient id="linear-gradient-7" x1="244.7" y1="430" x2="97.6" y2="631.4" gradientTransform="translate(-420.4 472.9) rotate(29.2) scale(1 -.9) skewX(27.6)" gradientUnits="userSpaceOnUse">
      <stop offset="0" stop-color="#13edb1" stop-opacity=".9"/>
      <stop offset="1" stop-color="#13b3d3" stop-opacity=".9"/>
    </linearGradient>
    <linearGradient id="linear-gradient-8" x1="244.7" y1="430" x2="97.6" y2="631.4" gradientTransform="translate(-36.1 482) rotate(29.2) scale(1 -.9) skewX(27.6)" gradientUnits="userSpaceOnUse">
      <stop offset="0" stop-color="#13edb1" stop-opacity=".7"/>
      <stop offset="1" stop-color="#13b3d3" stop-opacity=".7"/>
    </linearGradient>
  </defs>
  <!-- Generator: Adobe Illustrator 28.7.1, SVG Export Plug-In . SVG Version: 1.2.0 Build 142)  -->
  <g class="cls-10">
    <g id="Layer_1">
      <path class="cls-11" d="M440,130.5l320.6,184.1c27.3,15.7,27.3,41.1,0,56.8l-315.3,181c-27.3,15.7-71.6,15.7-98.9,0L25.8,368.3c-27.3-15.7-27.3-41.1,0-56.8l315.3-181c27.3-15.7,71.6-15.7,98.9,0Z"/>
      <path class="cls-9" d="M439.6,118.1l320.6,184.1c27.3,15.7,27.3,41.1,0,56.8l-315.3,181c-27.3,15.7-71.6,15.7-98.9,0L25.5,355.8c-27.3-15.7-27.3-41.1,0-56.8L340.8,118.1c27.3-15.7,71.6-15.7,98.9,0Z"/>
      <path class="cls-8" d="M434.6,95.1l320.6,184.1c27.3,15.7,27.3,41.1,0,56.8l-315.3,181c-27.3,15.7-71.6,15.7-98.9,0L20.5,332.8c-27.3-15.7-27.3-41.1,0-56.8L335.8,95.1c27.3-15.7,71.6-15.7,98.9,0Z"/>
      <g class="cls-12">
        <path class="cls-7" d="M415.3,117.6l94,52.6c27.5,15.4,27.5,40.3,0,55.7l-77.7,43.5c-27.5,15.4-72,15.4-99.5,0l-94-52.6c-27.5-15.4-27.5-40.3,0-55.7l77.7-43.5c27.5-15.4,72-15.4,99.5,0Z"/>
      </g>
      <g class="cls-12">
        <path class="cls-6" d="M418.9,11.5l94,52.6c27.5,15.4,27.5,40.3,0,55.7l-77.7,43.5c-27.5,15.4-72,15.4-99.5,0l-94-52.6c-27.5-15.4-27.5-40.3,0-55.7l77.7-43.5c27.5-15.4,72-15.4,99.5,0Z"/>
        <g class="cls-12">
          <path class="cls-4" d="M432.9,262.5l94,52.6c27.5,15.4,27.5,40.3,0,55.7l-77.7,43.5c-27.5,15.4-72,15.4-99.5,0l-94-52.6c-27.5-15.4-27.5-40.3,0-55.7l77.7-43.5c27.5-15.4,72-15.4,99.5,0Z"/>
        </g>
      </g>
      <g class="cls-12">
        <path class="cls-5" d="M432.1,340.8l94,52.6c27.5,15.4,27.5,40.3,0,55.7l-77.7,43.5c-27.5,15.4-72,15.4-99.5,0l-94-52.6c-27.5-15.4-27.5-40.3,0-55.7l77.7-43.5c27.5-15.4,72-15.4,99.5,0Z"/>
      </g>
      <g class="cls-12">
        <path class="cls-3" d="M233.6,221.3l94,52.6c27.5,15.4,27.5,40.3,0,55.7l-77.7,43.5c-27.5,15.4-72,15.4-99.5,0l-94-52.6c-27.5-15.4-27.5-40.3,0-55.7l77.7-43.5c27.5-15.4,72-15.4,99.5,0Z"/>
      </g>
      <g class="cls-12">
        <path class="cls-2" d="M617.9,230.5l94,52.6c27.5,15.4,27.5,40.3,0,55.7l-77.7,43.5c-27.5,15.4-72,15.4-99.5,0l-94-52.6c-27.5-15.4-27.5-40.3,0-55.7l77.7-43.5c27.5-15.4,72-15.4,99.5,0Z"/>
      </g>
      <g class="cls-12">
        <path class="cls-1" d="M527.8,262.9c-16.3-1.9-30.6,6.4-27.4,15.8l8.1,23.5c3.6,10.5,26.1,14.5,39.3,6.9l1.4-.8,68.7,39.7,25.6-1.9,3.7-15.1-68.7-39.7,1.8-1.1c13.1-7.6,6.3-20.6-11.9-22.7l-40.7-4.7Z"/>
      </g>
      <g class="cls-12">
        <path class="cls-1" d="M241.9,333.3c16.3,1.1,30.3-7.8,26.6-17l-9.1-23.1c-4.1-10.4-26.8-13.3-39.5-5.1l-1.3.9-70.4-36.5-25.5,3-3,15.2,70.4,36.5-1.8,1.1c-12.8,8.2-5.4,20.8,12.9,22.1l40.8,2.8Z"/>
      </g>
    </g>
  </g>
</svg>