<svg width="1028" height="653" viewBox="0 0 1028 653" fill="none" xmlns="http://www.w3.org/2000/svg">
<g style="mix-blend-mode:screen">
<path d="M217.585 303.494L598.023 506.152L401.689 644.21L13.7382 437.048L217.585 303.494Z" fill="url(#paint0_linear_149_19)"/>
</g>
<g style="mix-blend-mode:screen">
<path d="M439.665 527.528L775.273 316.83L1012.81 430.309L669.72 645.157L439.665 527.528Z" fill="url(#paint1_linear_149_19)"/>
</g>
<rect width="483.705" height="477.538" rx="57" transform="matrix(0.867265 0.497847 -0.867265 0.497847 520.5 118.448)" fill="#13E5B6"/>
<rect width="483.705" height="477.538" rx="57" transform="matrix(0.867265 0.497847 -0.867265 0.497847 520.148 106)" fill="url(#paint2_linear_149_19)"/>
<rect width="483.705" height="477.538" rx="57" transform="matrix(0.867265 0.497847 -0.867265 0.497847 515.148 83)" fill="url(#paint3_linear_149_19)"/>
<g style="mix-blend-mode:screen">
<rect width="221.779" height="203.028" rx="57" transform="matrix(0.872565 0.488498 -0.872565 0.488498 495.516 106.041)" fill="url(#paint4_linear_149_19)"/>
</g>
<g style="mix-blend-mode:screen">
<rect width="221.779" height="203.028" rx="57" transform="matrix(0.872565 0.488498 -0.872565 0.488498 499.156 0)" fill="url(#paint5_linear_149_19)"/>
<g style="mix-blend-mode:screen">
<rect width="221.779" height="203.028" rx="57" transform="matrix(0.872565 0.488498 -0.872565 0.488498 513.156 251)" fill="url(#paint6_linear_149_19)"/>
</g>
</g>
<g style="mix-blend-mode:screen">
<rect width="221.779" height="203.028" rx="57" transform="matrix(0.872565 0.488498 -0.872565 0.488498 512.336 329.22)" fill="url(#paint7_linear_149_19)"/>
</g>
<g style="mix-blend-mode:screen">
<rect width="221.779" height="203.028" rx="57" transform="matrix(0.872565 0.488498 -0.872565 0.488498 313.805 209.8)" fill="url(#paint8_linear_149_19)"/>
</g>
<g style="mix-blend-mode:screen">
<rect width="221.779" height="203.028" rx="57" transform="matrix(0.872565 0.488498 -0.872565 0.488498 698.078 218.937)" fill="url(#paint9_linear_149_19)"/>
</g>
<g style="mix-blend-mode:screen">
<path fill-rule="evenodd" clip-rule="evenodd" d="M657.765 279.24C641.495 277.369 627.157 285.648 630.398 295.041L638.498 318.52C642.13 329.048 664.626 332.986 677.774 325.395L679.153 324.599L747.852 364.263L773.5 362.392L777.198 347.319L708.499 307.656L710.34 306.593C723.488 299.002 716.667 286.014 698.431 283.917L657.765 279.24Z" fill="white"/>
</g>
<g style="mix-blend-mode:screen">
<path fill-rule="evenodd" clip-rule="evenodd" d="M371.862 349.614C388.199 350.751 402.151 341.835 398.49 332.597L389.34 309.507C385.237 299.153 362.586 296.232 349.794 304.408L348.452 305.265L278.036 268.737L252.499 271.761L249.483 286.985L319.899 323.513L318.108 324.658C305.316 332.833 312.715 345.501 331.026 346.774L371.862 349.614Z" fill="white"/>
</g>
<defs>
<linearGradient id="paint0_linear_149_19" x1="217.344" y1="546.015" x2="331.785" y2="368.16" gradientUnits="userSpaceOnUse">
<stop offset="0.0816505" stop-color="white" stop-opacity="0"/>
<stop offset="0.257274" stop-color="white" stop-opacity="0"/>
<stop offset="0.629114" stop-color="#BBFAE9" stop-opacity="0.286412"/>
<stop offset="1" stop-color="#13EDB1"/>
</linearGradient>
<linearGradient id="paint1_linear_149_19" x1="850.191" y1="532.405" x2="758.744" y2="355.095" gradientUnits="userSpaceOnUse">
<stop offset="0.0816505" stop-color="white" stop-opacity="0"/>
<stop offset="0.257274" stop-color="white" stop-opacity="0"/>
<stop offset="0.629114" stop-color="#BBFAE9" stop-opacity="0.286412"/>
<stop offset="1" stop-color="#13EDB1"/>
</linearGradient>
<linearGradient id="paint2_linear_149_19" x1="246.922" y1="477.538" x2="356.204" y2="29.1025" gradientUnits="userSpaceOnUse">
<stop stop-color="white" stop-opacity="0.49"/>
<stop offset="1" stop-color="#13EDB1" stop-opacity="0.69"/>
</linearGradient>
<linearGradient id="paint3_linear_149_19" x1="241.852" y1="0" x2="241.852" y2="477.538" gradientUnits="userSpaceOnUse">
<stop offset="1" stop-color="#13B3D3"/>
</linearGradient>
<linearGradient id="paint4_linear_149_19" x1="183.297" y1="203.028" x2="36.1973" y2="1.6688" gradientUnits="userSpaceOnUse">
<stop stop-color="#13EDB1" stop-opacity="0.88"/>
<stop offset="1" stop-color="#13B3D3" stop-opacity="0.88"/>
</linearGradient>
<linearGradient id="paint5_linear_149_19" x1="183.297" y1="203.028" x2="36.1973" y2="1.6688" gradientUnits="userSpaceOnUse">
<stop stop-color="#13EDB1" stop-opacity="0.88"/>
<stop offset="1" stop-color="#13B3D3" stop-opacity="0.88"/>
</linearGradient>
<linearGradient id="paint6_linear_149_19" x1="183.297" y1="203.028" x2="36.1973" y2="1.6688" gradientUnits="userSpaceOnUse">
<stop stop-color="#13EDB1" stop-opacity="0.88"/>
<stop offset="1" stop-color="#13B3D3" stop-opacity="0.88"/>
</linearGradient>
<linearGradient id="paint7_linear_149_19" x1="77.7033" y1="203.028" x2="209.774" y2="141.866" gradientUnits="userSpaceOnUse">
<stop stop-color="#13EDB1" stop-opacity="0.88"/>
<stop offset="1" stop-color="#13B3D3" stop-opacity="0.88"/>
</linearGradient>
<linearGradient id="paint8_linear_149_19" x1="183.297" y1="203.028" x2="36.1973" y2="1.6688" gradientUnits="userSpaceOnUse">
<stop stop-color="#13EDB1" stop-opacity="0.88"/>
<stop offset="1" stop-color="#13B3D3" stop-opacity="0.88"/>
</linearGradient>
<linearGradient id="paint9_linear_149_19" x1="183.297" y1="203.028" x2="36.1973" y2="1.6688" gradientUnits="userSpaceOnUse">
<stop stop-color="#13EDB1" stop-opacity="0.71"/>
<stop offset="1" stop-color="#13B3D3" stop-opacity="0.71"/>
</linearGradient>
</defs>
</svg>
