<?xml version="1.0" encoding="UTF-8"?>
<svg xmlns="http://www.w3.org/2000/svg" xmlns:xlink="http://www.w3.org/1999/xlink" version="1.1" viewBox="0 0 694 702">
  <defs>
    <style>
      .cls-1 {
        fill: url(#linear-gradient-5);
      }

      .cls-1, .cls-2, .cls-3, .cls-4 {
        fill-rule: evenodd;
      }

      .cls-2 {
        fill: url(#linear-gradient-3);
      }

      .cls-3 {
        fill: url(#linear-gradient-4);
      }

      .cls-4 {
        fill: #fff;
      }

      .cls-5 {
        fill: url(#linear-gradient-6);
      }

      .cls-6 {
        fill: #13edb1;
        stroke: url(#linear-gradient-2);
        stroke-width: 50px;
      }

      .cls-7 {
        fill: #13b3d3;
      }

      .cls-8 {
        fill: none;
        stroke: url(#linear-gradient);
        stroke-width: 60px;
      }

      .cls-9 {
        isolation: isolate;
      }

      .cls-10 {
        mix-blend-mode: screen;
      }
    </style>
    <linearGradient id="linear-gradient" x1="-214.6" y1="493.7" x2="-214.6" y2="1064.7" gradientTransform="translate(-168.1 -37.6) rotate(-30) scale(1 .9) skewX(26.6)" gradientUnits="userSpaceOnUse">
      <stop offset="0" stop-color="#13edb1" stop-opacity=".4"/>
      <stop offset="1" stop-color="#13b3d3" stop-opacity=".7"/>
    </linearGradient>
    <linearGradient id="linear-gradient-2" x1="271.3" y1="677.2" x2="424.1" y2="941.8" gradientTransform="translate(0 -330)" gradientUnits="userSpaceOnUse">
      <stop offset="0" stop-color="#13edb1" stop-opacity=".4"/>
      <stop offset="1" stop-color="#13b3d3" stop-opacity=".7"/>
    </linearGradient>
    <linearGradient id="linear-gradient-3" x1="535.3" y1="411.8" x2="238" y2="621.3" gradientTransform="translate(0 -330)" gradientUnits="userSpaceOnUse">
      <stop offset="0" stop-color="#13edb1" stop-opacity=".6"/>
      <stop offset="1" stop-color="#13b3d3" stop-opacity="0"/>
    </linearGradient>
    <linearGradient id="linear-gradient-4" x1="497.8" y1="458.1" x2="200.5" y2="667.6" gradientTransform="translate(0 -330)" gradientUnits="userSpaceOnUse">
      <stop offset="0" stop-color="#13edb1" stop-opacity=".6"/>
      <stop offset="1" stop-color="#13b3d3" stop-opacity="0"/>
    </linearGradient>
    <linearGradient id="linear-gradient-5" x1="356.3" y1="446.8" x2="174.5" y2="764" gradientTransform="translate(0 -330)" gradientUnits="userSpaceOnUse">
      <stop offset="0" stop-color="#13edb1"/>
      <stop offset="1" stop-color="#13b3d3"/>
    </linearGradient>
    <linearGradient id="linear-gradient-6" x1="346" y1="542" x2="346" y2="810.4" gradientTransform="translate(0 -330)" gradientUnits="userSpaceOnUse">
      <stop offset=".3" stop-color="#9fffd4" stop-opacity="0"/>
      <stop offset=".6" stop-color="#9fffd4" stop-opacity=".1"/>
      <stop offset="1" stop-color="#9fffd4" stop-opacity=".5"/>
    </linearGradient>
  </defs>
  <!-- Generator: Adobe Illustrator 28.7.1, SVG Export Plug-In . SVG Version: 1.2.0 Build 142)  -->
  <g>
    <g id="Layer_1">
      <g class="cls-9">
        <g id="Layer_1-2" data-name="Layer_1">
          <path class="cls-8" d="M124.2,360.7c122.2-70.6,320.3-70.6,442.5,0s122.2,184.9,0,255.5-320.3,70.6-442.5,0-122.2-184.9,0-255.5h0Z"/>
          <path class="cls-6" d="M478.9,403.7c72.4,41.8,72.4,109.6,0,151.5-72.5,41.9-190,41.9-262.4,0-72.4-41.8-72.4-109.6,0-151.5,72.5-41.9,190-41.9,262.4,0Z"/>
          <path class="cls-2" d="M404.5,1v.3c.1,0,.1,1.4.1,1.4,20.6,77.4,82.8,160.7,156.2,202.8,4.8,2.7,9.5,5.3,14.2,7.6-.4,11.2-1.3,22.1-2.6,32.6-13.1,99.4-70.9,161.9-167.8,176.4v.3c0-.1-.2-.2-.2-.3h-.4v-.5c-96.9-125.6-154.7-254.5-167.8-368.9-1.4-12.1-2.3-23.9-2.6-35.6,4.7,3.1,9.4,6,14.2,8.8,73.5,42.1,135.6,30.1,156.2-23.6v-1.3h.1s.1.3.2.5c0-.2.1-.3.2-.5h0Z"/>
          <path class="cls-3" d="M367,47.3v.3c.1,0,.1,1.4.1,1.4,20.6,77.4,82.8,160.8,156.2,202.9,4.8,2.7,9.5,5.3,14.2,7.6-.4,11.2-1.3,22.1-2.6,32.6-13.1,99.4-70.9,161.9-167.8,176.4v.3c0-.1-.2-.2-.2-.3h-.4v-.5c-96.9-125.6-154.7-254.5-167.8-368.9-1.4-12.1-2.3-23.9-2.6-35.6,4.7,3.1,9.4,6,14.2,8.8,73.5,42.1,135.6,30.1,156.2-23.7v-1.2h.1s0,.3.1.5c0-.2.1-.3.2-.5h0Z"/>
          <path class="cls-1" d="M292.9,80.4v.3c.1,0,.1,1.4.1,1.4,20.6,77.4,82.8,160.8,156.2,202.9,4.8,2.7,9.5,5.3,14.2,7.6-.4,11.2-1.3,22.1-2.6,32.6-13.1,99.4-70.9,161.9-167.8,176.4v.3c0-.1-.2-.2-.2-.3h-.4v-.5c-96.9-125.6-154.7-254.5-167.8-368.9-1.4-12.1-2.3-23.9-2.6-35.6,4.7,3.1,9.4,6,14.2,8.8,73.5,42.1,135.6,30.1,156.2-23.7v-1.2h.1s0,.3.1.5c0-.2.1-.3.2-.5h0Z"/>
          <path class="cls-7" d="M293,80.7l4.3,2.5c0-1.2-.4-2.5-1-3.8l-3.3,1.3ZM292.9,80.4l3.3-1.3c-1-2-2.6-3.5-4.1-4.1s-2.8,0-3.3,1.4l4.1,4ZM293,82l-4.3-2.5c0,.6,0,1.2.3,1.8l4.1.6h-.1ZM463.5,292.5l4.3,2.7c0-1.4-.4-3-1.3-4.5s-2.1-2.7-3.3-3.3l.3,5.2h0ZM460.9,325.1l-4.3-3.2h0l4.3,3.2ZM293,501.5l-2.3-5.6c-1.3.2-2,1.3-2,3.1l4.3,2.5ZM293,501.8l-2.3,2.9c1.3,1.7,3,2.7,4.4,2.7s2.2-1.3,2.2-3.1l-4.3-2.5h0ZM292.8,501.5l2.3-2.9c-1.4-1.8-3.2-2.9-4.6-2.6l2.3,5.6h0ZM292.5,501.5l-4.3-2.5c0,1.8.9,4,2.2,5.7,1.4,1.7,3.1,2.6,4.4,2.4l-2.3-5.6h0ZM292.5,501l4.3,2.5c0-1.7-.8-3.8-2-5.4l-2.3,2.9ZM124.6,132.2l-4.3-1.8h0l4.3,1.8ZM122,96.5l.3-4.8c-1.2-.8-2.4-1-3.3-.5s-1.4,1.6-1.3,3l4.3,2.3ZM292.5,81.6l4.1,4c.2-.4.3-1,.3-1.6l-4.3-2.5h-.1ZM292.5,80.4l-3.3-5.1c-.6.5-1,1.5-1,2.6l4.3,2.5ZM292.6,80.3l4.1.7c-.5-2-1.8-4-3.3-5.2s-3.1-1.4-4.1-.6l3.3,5.1ZM292.7,80.9l-4.1-.7c.6,2.3,2.2,4.6,4.1,5.7,1.8,1.1,3.5.7,4.1-1l-4.1-4ZM296.4,79.4c-1.5-3-4.3-4.9-6.1-4.1-1.8.7-2.1,3.7-.6,6.7l6.7-2.6ZM289.7,81.9c1.5,3,4.3,4.9,6.1,4.1,1.8-.7,2.1-3.7.6-6.7l-6.7,2.6ZM296.3,79.2c-1.5-3-4.3-4.9-6.1-4.1-1.8.7-2.1,3.7-.6,6.7l6.7-2.6ZM289.6,81.7c1.5,3,4.3,4.9,6.1,4.1,1.8-.7,2.1-3.7.6-6.7l-6.7,2.6ZM288.8,76.4c-.8,2.2.4,5.7,2.7,7.9,2.3,2.2,4.7,2.3,5.5,0l-8.2-8ZM297,84.5c.8-2.2-.4-5.7-2.7-7.9-2.3-2.2-4.7-2.3-5.5,0l8.2,8ZM288.7,76.7c-.8,2.1.4,5.7,2.7,7.9,2.3,2.2,4.7,2.3,5.5,0l-8.2-8ZM296.8,84.9c.8-2.1-.4-5.7-2.6-7.9-2.3-2.2-4.7-2.3-5.5,0l8.2,8h-.1ZM296.8,81.5c-.8-3.1-3.3-5.8-5.5-6.2-2.3-.4-3.4,1.8-2.6,4.9l8.2,1.4h-.1ZM288.6,80c.8,3.1,3.3,5.8,5.5,6.2,2.3.4,3.4-1.8,2.6-4.9l-8.2-1.4h.1ZM296.8,81.3c-.8-3.1-3.3-5.9-5.5-6.2-2.3-.4-3.4,1.8-2.7,4.9l8.2,1.4h0ZM288.5,79.6c.8,3.1,3.3,5.9,5.5,6.2,2.3.4,3.5-1.8,2.7-4.8,0,0-8.2-1.4-8.2-1.4ZM289.3,75.2c-1.5,1.2-1.3,4.5.6,7.4s4.6,4.1,6.1,2.9l-6.7-10.2h0ZM295.9,85.4c1.5-1.2,1.3-4.5-.6-7.4-1.8-2.8-4.6-4.1-6.1-2.9l6.7,10.2h0ZM289.2,75.3c-1.5,1.2-1.3,4.5.6,7.4,1.8,2.8,4.6,4.1,6.1,2.9l-6.7-10.2h0ZM295.8,85.5c1.5-1.2,1.3-4.5-.6-7.4-1.8-2.8-4.6-4.1-6.1-2.9l6.7,10.2h0ZM288.1,78c0,2.8,1.9,6.1,4.3,7.5s4.3.2,4.3-2.5l-8.7-5h.1ZM296.8,83.2c0-2.8-1.9-6.1-4.3-7.5s-4.3-.2-4.3,2.5l8.7,5h-.1ZM288.1,78.6c0,2.8,1.9,6.1,4.3,7.5s4.3.2,4.3-2.5l-8.7-5h.1ZM296.8,84.1c0-2.8-1.9-6.1-4.3-7.5s-4.3-.2-4.3,2.5l8.7,5h-.1ZM288.1,78.4c-.8,2.1.3,5.6,2.6,7.9,2.2,2.2,4.7,2.4,5.6.2l-8.1-8.1h-.1ZM294.9,89.7c.9-2-.2-5.6-2.4-7.9-2.2-2.3-4.7-2.5-5.6-.5l8,8.4ZM284.8,85.7c-1,1.9,0,5.5,2.2,7.9s4.8,2.8,5.7.8l-7.9-8.7h0ZM289.5,100.1c1.1-1.8.3-5.3-1.8-7.8-2.1-2.5-4.7-3.1-5.9-1.2l7.7,9h0ZM281,92.4c-1.1,1.8-.4,5.3,1.8,7.8,2.1,2.5,4.7,3.1,5.9,1.3l-7.6-9.1h0ZM286.8,104.2c1.2-1.7.5-5.2-1.6-7.7-2.1-2.6-4.7-3.3-5.9-1.6,0,0,7.5,9.3,7.5,9.3ZM276.6,98.4c-1.3,1.6-.7,5,1.4,7.7,2,2.6,4.7,3.5,6,1.9l-7.3-9.5h-.1ZM279.9,112.7c1.4-1.5.9-4.8-1-7.6-2-2.7-4.7-3.7-6-2.3l7.1,9.8h-.1ZM271.8,103.9c-1.4,1.4-1,4.8,1,7.5,1.9,2.7,4.7,3.8,6.1,2.4l-7-9.9h-.1ZM276.6,116c1.5-1.4,1.1-4.7-.8-7.5s-4.6-3.9-6.1-2.6l6.9,10h0ZM266.5,108.7c-1.5,1.2-1.3,4.5.6,7.4,1.8,2.8,4.6,4.1,6.1,2.8,0,0-6.7-10.2-6.7-10.2ZM268.3,122.6c1.6-1.1,1.5-4.3-.3-7.2-1.8-2.9-4.5-4.3-6.1-3.2,0,0,6.4,10.4,6.4,10.4ZM260.7,112.9c-1.6,1.1-1.6,4.3.2,7.2,1.7,2.9,4.5,4.4,6.1,3.3l-6.3-10.5h0ZM264.5,125c1.7-1,1.7-4.2,0-7.1s-4.5-4.5-6.1-3.5l6.2,10.6h-.1ZM254.6,116.5c-1.7.9-1.8,4-.2,7,1.6,2.9,4.4,4.6,6.1,3.7l-6-10.7h.1ZM255.1,129.7c1.8-.8,2-3.8.5-6.8-1.6-3-4.3-4.8-6.1-4l5.7,10.8h0ZM248.2,119.4c-1.8.7-2.1,3.7-.5,6.7,1.5,3,4.3,4.8,6.1,4.1l-5.6-10.9h0ZM250.9,131.4c1.9-.7,2.2-3.6.7-6.6s-4.2-4.9-6.1-4.3l5.4,10.9h0ZM241.4,121.8c-1.9.6-2.3,3.5-.9,6.5,1.4,3,4.2,5,6.1,4.5l-5.2-11h0ZM240.6,134.2c2-.4,2.5-3.2,1.1-6.3-1.3-3.1-4-5.2-6-4.8l4.9,11.1ZM234.3,123.5c-2,.4-2.5,3.2-1.2,6.2,1.3,3.1,4,5.2,6,4.8l-4.8-11.1h0ZM236,135.1c2-.3,2.6-3.1,1.3-6.1-1.3-3.1-4-5.3-6-5l4.6,11.1h0ZM226.9,124.6c-2.1.2-2.7,2.9-1.5,6s3.9,5.4,5.9,5.2l-4.4-11.1h0ZM224.9,136.2c2.1,0,2.9-2.7,1.8-5.7-1.1-3.1-3.8-5.5-5.9-5.4l4.1,11.2h0ZM219.3,125.1c-2.1,0-2.9,2.6-1.8,5.7,1.1,3.1,3.7,5.5,5.9,5.5l-4-11.2h0ZM220.1,136.3c2.1,0,3-2.5,2-5.6-1.1-3.1-3.7-5.6-5.8-5.6l3.8,11.2ZM211.5,125c-2.2,0-3.1,2.3-2.1,5.4,1,3.1,3.6,5.7,5.7,5.8l-3.6-11.2h0ZM208.4,135.6c2.2.2,3.3-2.1,2.4-5.2-.9-3.1-3.4-5.8-5.7-6l3.3,11.1h0ZM203.5,124.3c-2.2-.3-3.3,2-2.4,5.1.9,3.1,3.4,5.8,5.6,6l-3.2-11.1h0ZM203.3,135c2.2.3,3.4-1.9,2.5-5-.8-3.1-3.3-5.8-5.6-6.1l3,11.1h.1ZM195.3,123.1c-2.3-.4-3.5,1.7-2.7,4.8.8,3.1,3.2,5.9,5.5,6.3l-2.8-11.1ZM191.2,132.7c2.3.5,3.6-1.5,2.9-4.5-.7-3-3.1-5.9-5.4-6.5l2.5,11ZM187,121.3c-2.3-.6-3.6,1.4-3,4.5.7,3,3.1,5.9,5.4,6.5l-2.4-11ZM185.9,131.4c2.3.6,3.7-1.3,3.1-4.3-.6-3-3-6-5.3-6.6l2.2,10.9ZM178.6,119c-2.3-.7-3.8,1.2-3.2,4.2.5,3,2.9,6,5.2,6.7,0,0-2-10.9-2-10.9ZM173.4,127.6c2.4.8,3.9-.9,3.4-3.9s-2.7-6-5.1-6.9l1.6,10.8h.1ZM170.1,116.2c-2.4-.9-3.9.9-3.5,3.8.4,3,2.7,6.1,5.1,6.9,0,0-1.6-10.7-1.6-10.7ZM168,125.6c2.4.9,4-.7,3.6-3.7-.4-2.9-2.6-6.1-5-7l1.4,10.7ZM161.4,112.8c-2.4-1-4,.6-3.7,3.5s2.5,6.1,4.9,7.1l-1.2-10.6ZM155.4,120.2c2.4,1.1,4.1-.3,3.9-3.2-.2-2.9-2.4-6.1-4.7-7.2,0,0,.8,10.4.8,10.4ZM152.8,109c-2.4-1.1-4.2.3-3.9,3.2.2,2.9,2.3,6.1,4.7,7.2,0,0-.8-10.4-.8-10.4ZM149.9,117.6c2.4,1.2,4.2-.2,4-3s-2.2-6.1-4.6-7.3l.6,10.3ZM144.1,104.6c-2.4-1.3-4.3,0-4.2,2.8s2.1,6.1,4.5,7.4l-.4-10.2h0ZM137.1,110.8c2.4,1.4,4.3.2,4.3-2.5s-2-6.1-4.4-7.5v10h0ZM135.5,99.9c-2.4-1.4-4.3-.3-4.4,2.5,0,2.8,1.9,6.1,4.3,7.5v-10h0ZM132.6,108.2c2.4,1.4,4.4.4,4.4-2.4s-1.9-6.1-4.3-7.5l-.2,9.9h.1ZM128.6,95.7c-2.4-1.5-4.4-.5-4.5,2.2,0,2.7,1.8,6.1,4.2,7.6,0,0,.3-9.8.3-9.8ZM122.4,101.8c2.4,1.6,4.5.7,4.6-2,.2-2.7-1.6-6.1-4-7.6l-.6,9.6ZM117.7,95.1c0,2.8,2.1,6.1,4.5,7.4s4.3,0,4.2-2.8l-8.7-4.6ZM126.5,103.1c0-2.8-2.2-6.1-4.6-7.3-2.4-1.2-4.2,0-4.1,2.9l8.7,4.5h0ZM118.1,104c.2,2.8,2.2,6.1,4.6,7.3,2.4,1.2,4.2-.2,4-3l-8.7-4.3h0ZM127.2,115.3c-.2-2.9-2.3-6.1-4.7-7.2-2.4-1.1-4.2.3-3.9,3.1l8.6,4.1ZM118.7,113.1c.2,2.9,2.3,6.1,4.7,7.2,2.4,1.1,4.1-.3,3.9-3.2l-8.6-4ZM127.6,120.6c-.2-2.9-2.4-6.1-4.8-7.2s-4.1.4-3.9,3.3l8.6,3.9h.1ZM119.5,122.2c.3,2.9,2.4,6.1,4.8,7.1s4.1-.5,3.8-3.4l-8.6-3.8h0ZM128.8,133c-.3-2.9-2.5-6.1-4.9-7.1s-4,.6-3.7,3.5l8.6,3.6ZM120.5,131.5c.3,2.9,2.5,6.1,4.9,7.1s4-.6,3.7-3.6c0,0-8.6-3.5-8.6-3.5ZM129.6,139.3c-.4-2.9-2.6-6.1-5-7s-4,.7-3.6,3.6l8.6,3.4ZM121.9,142.5c.4,3,2.7,6.1,5,6.9,2.4.9,3.9-.8,3.5-3.8l-8.5-3.2h0ZM131.7,154.3c-.5-3-2.8-6-5.1-6.8-2.3-.8-3.9,1-3.4,3.9l8.5,2.9h0ZM123.6,153.6c.5,3,2.8,6,5.1,6.8,2.3.8,3.9-1,3.4-4,0,0-8.5-2.8-8.5-2.8ZM132.8,160.8c-.5-3-2.8-6-5.2-6.8-2.3-.7-3.8,1.1-3.3,4.1l8.5,2.7ZM125.5,164.8c.6,3,2.9,6,5.2,6.7s3.8-1.2,3.2-4.2c0,0-8.4-2.5-8.4-2.5ZM135.7,176c-.6-3-3-6-5.3-6.6s-3.7,1.3-3.1,4.4l8.4,2.2h0ZM127.7,176c.6,3,3,6,5.3,6.6s3.7-1.4,3-4.4l-8.4-2.2h0ZM137,182.6c-.7-3-3.1-5.9-5.4-6.5-2.3-.6-3.6,1.4-3,4.5l8.3,2h0ZM130.2,187.4c.7,3,3.1,5.9,5.4,6.4,2.3.5,3.6-1.6,2.9-4.6l-8.3-1.8h0ZM140.6,198c-.8-3.1-3.2-5.9-5.5-6.3-2.3-.4-3.5,1.7-2.7,4.7l8.2,1.6ZM133,198.7c.8,3.1,3.2,5.9,5.5,6.3,2.3.4,3.5-1.7,2.7-4.8l-8.2-1.5ZM142.3,204.7c-.8-3.1-3.3-5.8-5.5-6.2-2.3-.4-3.4,1.8-2.6,4.9l8.2,1.4h0ZM136,210.2c.8,3.1,3.3,5.8,5.6,6.1,2.2.3,3.4-1.9,2.5-5l-8.1-1.2h0ZM146.6,220.2c-.9-3.1-3.4-5.8-5.6-6-2.2-.2-3.3,2-2.4,5.1l8.1.9h-.1ZM139.2,221.6c.9,3.1,3.4,5.8,5.7,6,2.2.2,3.3-2.1,2.4-5.2l-8-.8h0ZM148.6,226.9c-.9-3.1-3.5-5.7-5.7-5.9s-3.2,2.1-2.3,5.2l8,.7ZM142.7,233.1c1,3.1,3.5,5.7,5.7,5.8s3.2-2.3,2.2-5.3l-7.9-.5ZM153.6,242.6c-1-3.1-3.6-5.6-5.8-5.7-2.2,0-3.1,2.4-2.1,5.5l7.8.2h.1ZM146.5,244.6c1,3.1,3.6,5.6,5.8,5.7,2.2,0,3.1-2.4,2-5.5l-7.8-.2ZM155.8,249.3c-1.1-3.1-3.7-5.6-5.8-5.6s-3,2.5-2,5.6h7.8ZM150.5,256.1c1.1,3.1,3.7,5.5,5.8,5.5s3-2.6,1.9-5.7l-7.7.2ZM161.4,264.9c-1.1-3.1-3.8-5.5-5.9-5.4-2.1.1-2.9,2.7-1.7,5.8l7.6-.4h0ZM154.7,267.6c1.2,3.1,3.8,5.5,5.9,5.3,2.1-.1,2.9-2.7,1.7-5.8l-7.6.5h0ZM164,271.6c-1.2-3.1-3.8-5.4-5.9-5.3-2.1.2-2.8,2.8-1.6,5.9l7.5-.6ZM159.1,279.1c1.2,3.1,3.9,5.4,5.9,5.2s2.7-2.9,1.5-6l-7.5.8h.1ZM170.2,287.3c-1.3-3.1-3.9-5.3-6-5-2,.3-2.7,3-1.4,6.1l7.4-1h0ZM163.7,290.6c1.3,3.1,4,5.3,6,5s2.6-3,1.4-6.1l-7.3,1.1h0ZM173,293.9c-1.3-3.1-4-5.3-6-4.9-2,.3-2.6,3.1-1.3,6.2l7.3-1.2h0ZM168.6,302c1.3,3.1,4,5.2,6,4.8,2-.4,2.5-3.2,1.2-6.2l-7.2,1.4h0ZM179.7,309.5c-1.4-3-4.1-5.2-6-4.7-2,.5-2.4,3.3-1.1,6.3l7.1-1.7h0ZM173.7,313.4c1.4,3,4.1,5.1,6,4.7,2-.5,2.4-3.3,1-6.4l-7.1,1.7h.1ZM182.8,316.1c-1.4-3-4.1-5.1-6.1-4.6-1.9.5-2.4,3.4-1,6.4l7-1.8h.1ZM178.9,324.7c1.4,3,4.2,5,6.1,4.5,1.9-.6,2.3-3.5.9-6.5l-6.9,2h-.1ZM190.1,331.5c-1.5-3-4.2-5-6.1-4.4-1.9.6-2.2,3.6-.8,6.6l6.8-2.2h.1ZM184.3,336c1.5,3,4.2,5,6.1,4.3,1.9-.6,2.2-3.6.7-6.6l-6.8,2.3h0ZM193.3,338.1c-1.5-3-4.2-4.9-6.1-4.3-1.9.7-2.2,3.6-.7,6.7l6.8-2.4h0ZM189.9,347.2c1.5,3,4.3,4.9,6.1,4.2,1.8-.7,2.1-3.7.6-6.7l-6.7,2.6h0ZM201.1,353.4c-1.6-3-4.3-4.8-6.1-4s-2,3.8-.4,6.8l6.6-2.8h-.1ZM195.7,358.4c1.6,3,4.3,4.8,6.1,4s2-3.8.4-6.8l-6.5,2.8ZM204.6,359.9c-1.6-3-4.3-4.7-6.1-3.9-1.8.8-1.9,3.9-.4,6.9l6.5-2.9h0ZM201.7,369.4c1.6,3,4.4,4.7,6.1,3.8,1.8-.9,1.9-3.9.3-6.9l-6.4,3.1h0ZM212.8,374.9c-1.7-2.9-4.4-4.6-6.1-3.7-1.7.9-1.8,4-.1,7l6.3-3.3h0ZM207.8,380.4c1.7,2.9,4.4,4.6,6.1,3.7,1.7-.9,1.8-4.1.1-7l-6.3,3.3h0ZM216.5,381.4c-1.7-2.9-4.4-4.5-6.1-3.6-1.7,1-1.7,4.1,0,7l6.2-3.4h0ZM214,391.3c1.7,2.9,4.4,4.5,6.1,3.5,1.7-1,1.7-4.2,0-7.1l-6.1,3.6ZM225.1,396.2c-1.7-2.9-4.5-4.4-6.1-3.4-1.7,1-1.6,4.2.1,7.1l6-3.8h0ZM220.4,402.1c1.7,2.9,4.5,4.4,6.1,3.3s1.6-4.3-.2-7.2l-6,3.8h0ZM228.9,402.5c-1.8-2.9-4.5-4.3-6.1-3.3-1.6,1.1-1.5,4.3.2,7.2l5.9-3.9h0ZM227,412.9c1.8,2.9,4.5,4.3,6.1,3.2,1.6-1.1,1.5-4.4-.3-7.2l-5.8,4.1h0ZM238,417.1c-1.8-2.9-4.5-4.2-6.1-3s-1.4,4.4.4,7.3l5.7-4.2h0ZM233.6,423.5c1.8,2.8,4.5,4.2,6.1,3s1.4-4.5-.4-7.3l-5.7,4.3h0ZM242,423.3c-1.8-2.8-4.6-4.2-6.1-2.9-1.6,1.2-1.3,4.5.5,7.3l5.6-4.4ZM240.4,434c1.8,2.8,4.6,4.1,6.1,2.9s1.3-4.5-.6-7.4l-5.5,4.5ZM251.4,437.7c-1.9-2.8-4.6-4-6.1-2.7s-1.2,4.6.7,7.4l5.4-4.7h0ZM247.3,444.5c1.9,2.8,4.6,4,6.1,2.7s1.2-4.6-.7-7.4l-5.4,4.7h0ZM255.5,443.8c-1.9-2.8-4.6-4-6.1-2.6-1.5,1.3-1.1,4.7.7,7.4l5.4-4.8h0ZM254.3,454.8c1.9,2.8,4.6,3.9,6.1,2.6,1.5-1.4,1.1-4.7-.8-7.5l-5.3,4.9ZM265.2,457.9c-1.9-2.7-4.6-3.8-6.1-2.4-1.4,1.4-1,4.8.9,7.5l5.2-5.1ZM261.4,465c1.9,2.7,4.6,3.8,6.1,2.4s1-4.8-.9-7.5l-5.1,5.1h-.1ZM269.4,463.9c-1.9-2.7-4.7-3.8-6.1-2.3-1.4,1.4-1,4.8,1,7.5l5.1-5.2ZM268.7,475.2c2,2.7,4.7,3.7,6,2.3,1.4-1.5.9-4.9-1-7.6l-5,5.3h0ZM279.4,477.7c-2-2.7-4.7-3.6-6-2.1-1.4,1.5-.8,4.9,1.1,7.6l4.9-5.5ZM276,485.2c2,2.7,4.7,3.6,6,2.1s.8-4.9-1.2-7.6l-4.9,5.5h.1ZM283.8,483.6c-2-2.7-4.7-3.6-6-2.1s-.8,5,1.2,7.6l4.8-5.6h0ZM283.4,495.1c2,2.7,4.7,3.5,6,2,1.3-1.6.7-5-1.3-7.6l-4.7,5.7h0ZM294,497.2c-2-2.6-4.7-3.5-6-1.9s-.7,5,1.4,7.7l4.6-5.8h0ZM288.1,498.6c0,2.8,1.9,6.1,4.3,7.5s4.3.2,4.3-2.5l-8.7-5h.1ZM296.8,503.6c0-2.8-1.9-6.1-4.3-7.5s-4.3-.2-4.3,2.5l8.7,5h-.1ZM288.1,498.8c0,2.8,1.9,6.1,4.3,7.5s4.3.2,4.3-2.5l-8.7-5h.1ZM296.8,504c0-2.8-1.9-6.1-4.3-7.5s-4.3-.2-4.3,2.5l8.7,5h-.1ZM294.8,507.1c2-.3,2.6-3,1.4-6.1-1.3-3.1-3.9-5.3-6-5l4.6,11.1ZM290.2,496c-2,.3-2.6,3-1.4,6.1,1.3,3.1,3.9,5.3,6,5l-4.6-11.1ZM295,507.1c2-.3,2.6-3,1.4-6.1-1.3-3.1-3.9-5.3-6-5l4.6,11.1ZM290.5,495.9c-2,.3-2.6,3-1.4,6.1,1.3,3.1,3.9,5.3,6,5l-4.6-11.1ZM290.5,504.4c2,2.6,4.7,3.5,6,1.8,1.3-1.6.7-5-1.4-7.7l-4.6,5.8h0ZM295.2,498.7c-2-2.6-4.7-3.5-6-1.8-1.3,1.6-.7,5,1.4,7.7l4.6-5.8h0ZM290.6,504.6c2,2.6,4.7,3.5,6,1.8,1.3-1.6.7-5.1-1.4-7.7l-4.6,5.8h0ZM295.3,498.9c-2-2.6-4.7-3.5-6-1.8-1.3,1.6-.7,5.1,1.4,7.7l4.6-5.8h0ZM297.4,504.3c0-2.8-1.9-6.1-4.3-7.5s-4.3-.2-4.3,2.5l8.7,5h-.1ZM288.7,499.2c0,2.8,1.9,6.1,4.3,7.5s4.3.2,4.3-2.5l-8.7-5h.1ZM297.4,504.1c0-2.8-1.9-6.1-4.3-7.5s-4.3-.2-4.3,2.5l8.7,5h-.1ZM288.7,499c0,2.8,1.9,6.1,4.3,7.5s4.3.2,4.3-2.5l-8.7-5h.1ZM296.1,506.9c2-.3,2.6-3,1.4-6.1s-4-5.3-6-5l4.6,11.1ZM294.4,495.3c-2,.3-2.6,3.1-1.3,6.2,1.3,3.1,4,5.3,6,5l-4.7-11.1h0ZM303.6,505.6c2-.4,2.6-3.1,1.2-6.2-1.3-3.1-4-5.2-6-4.9l4.8,11.1ZM304.7,493.4c-2,.4-2.5,3.2-1.2,6.3,1.3,3.1,4,5.2,6,4.8l-4.9-11.1h.1ZM311,504.2c2-.4,2.5-3.2,1.1-6.3-1.4-3.1-4-5.2-6-4.8l4.9,11.1h0ZM309,492.5c-2,.4-2.5,3.3-1.1,6.3,1.4,3.1,4.1,5.2,6,4.7l-4.9-11.1h0ZM318.3,502.5c2-.5,2.4-3.3,1-6.4-1.4-3-4.1-5.1-6-4.6l5,11ZM318.9,490c-1.9.5-2.3,3.4-.9,6.5,1.4,3,4.1,5.1,6.1,4.6l-5.1-11h-.1ZM325.5,500.6c1.9-.5,2.3-3.4.9-6.5-1.4-3-4.1-5.1-6.1-4.5l5.2,11ZM323.1,488.8c-1.9.6-2.3,3.5-.9,6.5s4.2,5,6.1,4.5l-5.2-11ZM332.6,498.5c1.9-.6,2.2-3.5.8-6.6-1.5-3-4.2-5-6.1-4.4l5.3,11h0ZM332.8,485.8c-1.9.6-2.2,3.6-.7,6.6s4.2,4.9,6.1,4.3l-5.4-10.9ZM339.6,496.2c1.9-.7,2.2-3.6.7-6.6s-4.2-4.9-6.1-4.3l5.4,10.9ZM336.9,484.3c-1.9.7-2.1,3.7-.6,6.7s4.2,4.9,6.1,4.2l-5.5-10.9h0ZM346.5,493.6c1.8-.7,2.1-3.7.5-6.7-1.5-3-4.3-4.8-6.1-4.1l5.6,10.9h0ZM346.2,480.6c-1.8.8-2,3.8-.4,6.8s4.3,4.8,6.1,4l-5.7-10.8ZM353.2,490.8c1.8-.8,2-3.8.4-6.8s-4.3-4.8-6.1-4l5.7,10.8ZM350.1,478.9c-1.8.8-1.9,3.9-.4,6.9,1.6,3,4.3,4.7,6.1,3.9l-5.8-10.8h0ZM359.9,487.8c1.8-.9,1.9-3.9.3-6.9s-4.4-4.7-6.1-3.8l5.9,10.7h0ZM359.1,474.5c-1.7.9-1.8,4-.2,7,1.6,2.9,4.4,4.6,6.1,3.7l-6-10.7h.1ZM366.4,484.5c1.7-.9,1.8-4,.1-7-1.7-2.9-4.4-4.6-6.1-3.7l6,10.7ZM362.9,472.5c-1.7.9-1.8,4.1,0,7,1.7,2.9,4.4,4.6,6.1,3.6l-6.1-10.6ZM372.7,481c1.7-1,1.7-4.1,0-7.1-1.7-2.9-4.4-4.5-6.1-3.5l6.1,10.6ZM371.5,467.4c-1.7,1-1.6,4.2.1,7.1s4.5,4.4,6.1,3.4l-6.3-10.5h0ZM379,477.2c1.7-1.1,1.6-4.3-.1-7.2-1.7-2.9-4.5-4.4-6.1-3.3l6.3,10.5h0ZM375.1,465.1c-1.6,1.1-1.5,4.3.2,7.2,1.8,2.9,4.5,4.4,6.1,3.3l-6.3-10.5h0ZM385,473.1c1.6-1.1,1.5-4.4-.3-7.2-1.8-2.9-4.5-4.3-6.1-3.2l6.4,10.4h0ZM383.2,459.4c-1.6,1.2-1.4,4.4.4,7.3s4.5,4.2,6.1,3l-6.5-10.3ZM390.9,468.8c1.6-1.2,1.4-4.5-.4-7.3s-4.6-4.2-6.1-3l6.6,10.3h-.1ZM386.6,456.8c-1.5,1.2-1.3,4.5.5,7.3s4.6,4.1,6.1,2.9l-6.6-10.3h0ZM396.7,464.3c1.5-1.3,1.3-4.6-.6-7.4s-4.6-4.1-6.1-2.8l6.7,10.2h0ZM394.4,450.3c-1.5,1.3-1.2,4.6.7,7.4,1.9,2.8,4.6,4,6.1,2.7l-6.8-10.1h0ZM402.3,459.5c1.5-1.3,1.1-4.7-.8-7.4-1.9-2.8-4.6-4-6.1-2.6l6.8,10.1h.1ZM397.6,447.4c-1.5,1.4-1.1,4.7.8,7.5s4.6,3.9,6.1,2.5l-6.9-10ZM407.7,454.4c1.4-1.4,1-4.8-.9-7.5s-4.6-3.8-6.1-2.4l7,9.9ZM404.8,440.3c-1.4,1.5-.9,4.8,1,7.6,2,2.7,4.7,3.7,6,2.3l-7.1-9.8h.1ZM412.9,449c1.4-1.5.9-4.9-1.1-7.6s-4.7-3.7-6-2.2l7.1,9.8h0ZM407.7,437c-1.4,1.5-.8,4.9,1.1,7.6,2,2.7,4.7,3.7,6,2.1l-7.2-9.7h.1ZM417.9,443.4c1.3-1.5.8-5-1.2-7.6-2-2.7-4.7-3.6-6-2l7.2,9.7h0ZM414.4,429.1c-1.3,1.6-.7,5,1.4,7.7,2,2.6,4.7,3.5,6,1.9l-7.3-9.5h-.1ZM422.7,437.4c1.3-1.6.6-5.1-1.4-7.7s-4.7-3.4-6-1.8l7.4,9.5ZM417.2,425.6c-1.2,1.7-.6,5.1,1.5,7.7,2,2.6,4.7,3.4,6,1.7l-7.4-9.4h-.1ZM427.3,431.3c1.2-1.7.5-5.2-1.6-7.7-2.1-2.6-4.7-3.3-5.9-1.6l7.5,9.3h0ZM423.2,416.9c-1.2,1.8-.4,5.2,1.7,7.8,2.1,2.5,4.7,3.2,5.9,1.4l-7.6-9.2h0ZM431.7,424.8c1.1-1.8.4-5.2-1.7-7.8-2.1-2.5-4.7-3.1-5.9-1.4l7.6,9.2h0ZM425.7,413.1c-1.1,1.8-.3,5.3,1.8,7.8,2.1,2.5,4.7,3.1,5.9,1.3l-7.7-9.1h0ZM435.9,418.1c1.1-1.8.2-5.3-1.9-7.8s-4.7-3-5.8-1.2l7.7,9h0ZM431.2,403.7c-1,1.9-.1,5.4,2,7.8,2.2,2.4,4.8,2.9,5.8,1l-7.8-8.8ZM439.8,411.1c1-1.9,0-5.4-2.1-7.8-2.2-2.4-4.8-2.8-5.8-.9l7.8,8.8h.1ZM433.4,399.5c-1,1.9,0,5.5,2.1,7.9,2.2,2.4,4.8,2.8,5.7.8l-7.9-8.7h0ZM443.5,403.8c1-2,0-5.5-2.2-7.9s-4.8-2.7-5.7-.7l8,8.6h0ZM438.2,389.4c-.9,2,.2,5.6,2.4,7.9,2.2,2.3,4.8,2.5,5.7.5l-8-8.4h-.1ZM446.9,396.3c.9-2.1-.2-5.6-2.4-7.9-2.2-2.3-4.7-2.5-5.6-.5l8.1,8.3h-.1ZM440.2,385c-.9,2.1.2,5.6,2.5,7.9,2.2,2.3,4.7,2.4,5.6.4l-8.1-8.3ZM450.1,388.5c.8-2.1-.3-5.7-2.6-7.9-2.2-2.2-4.7-2.3-5.6-.2l8.1,8.1h.1ZM444.3,374.2c-.8,2.2.4,5.7,2.7,7.9,2.3,2.2,4.7,2.2,5.5,0l-8.2-7.9ZM453.1,380.5c.8-2.2-.5-5.7-2.7-7.9-2.3-2.2-4.7-2.2-5.5,0l8.2,7.9ZM445.9,369.4c-.7,2.2.5,5.7,2.8,7.9,2.3,2.1,4.7,2.1,5.4-.1l-8.3-7.8h.1ZM455.8,372.2c.7-2.3-.6-5.8-2.9-7.9s-4.7-2-5.4.3l8.3,7.6ZM449.4,357.9c-.6,2.3.7,5.8,3,7.9s4.7,1.8,5.3-.5l-8.4-7.4h.1ZM458.2,363.7c.6-2.3-.8-5.8-3.1-7.9-2.3-2-4.7-1.8-5.3.5l8.4,7.4ZM450.7,352.9c-.6,2.3.8,5.9,3.1,7.9,2.3,2,4.7,1.7,5.3-.6l-8.4-7.3ZM460.4,354.9c.5-2.4-.9-5.9-3.2-7.9-2.3-2-4.7-1.6-5.2.7l8.4,7.1h0ZM453.4,340.8c-.5,2.4,1,5.9,3.4,7.8,2.3,1.9,4.6,1.5,5.1-.9l-8.5-6.9ZM462.3,345.9c.5-2.4-1-5.9-3.4-7.8-2.3-1.9-4.6-1.4-5.1,1l8.5,6.8ZM454.5,335.5c-.4,2.5,1.1,6,3.5,7.8,2.4,1.9,4.6,1.4,5.1-1.1l-8.5-6.7h-.1ZM463.9,336.7c.4-2.5-1.2-6-3.6-7.8s-4.6-1.3-5,1.2l8.6,6.6h0ZM456.4,322.8c-.3,2.5,1.3,6,3.7,7.8s4.6,1.1,4.9-1.4l-8.6-6.4ZM465.3,327.4c.3-2.5-1.3-6-3.7-7.8-2.4-1.7-4.6-1.1-4.9,1.5l8.6,6.3ZM457.1,318c-.3,2.6,1.4,6,3.8,7.7s4.5,1,4.9-1.5l-8.6-6.2h0ZM466.2,319.4c.3-2.6-1.4-6-3.8-7.7s-4.5-.9-4.8,1.7l8.6,6.1h0ZM458.2,306.9c-.2,2.6,1.5,6.1,3.9,7.7s4.5.8,4.7-1.8l-8.6-5.9h0ZM466.9,311.1c.2-2.6-1.6-6.1-3.9-7.7-2.4-1.6-4.5-.8-4.7,1.9l8.6,5.8h0ZM458.5,302.1c-.2,2.6,1.6,6.1,4,7.7s4.5.7,4.7-1.9l-8.6-5.7h-.1ZM467.5,302.8c.1-2.7-1.7-6.1-4.1-7.6s-4.4-.6-4.6,2.1l8.7,5.6h0ZM459.1,290.6c0,2.7,1.8,6.1,4.2,7.6,2.4,1.5,4.4.5,4.5-2.2l-8.7-5.4ZM462.5,287c-2.4-1.2-4.2.2-4,3s2.2,6.1,4.6,7.3l-.6-10.3ZM460.2,295.8c2.4,1.2,4.2,0,4.1-2.9-.1-2.8-2.2-6.1-4.6-7.3l.5,10.3h0ZM455.5,283.4c-2.4-1.3-4.3,0-4.2,2.8,0,2.8,2.1,6.1,4.5,7.4l-.3-10.2h0ZM450,290.3c2.4,1.4,4.3.2,4.3-2.5s-2-6.1-4.4-7.5v10h.1ZM448.4,279.4c-2.4-1.4-4.3-.3-4.4,2.5,0,2.8,1.9,6.1,4.3,7.5v-10h.1ZM444.7,287.3c2.4,1.4,4.4.4,4.4-2.3s-1.8-6.1-4.2-7.5l-.2,9.9h0ZM439.7,274.1c-2.4-1.5-4.4-.6-4.6,2.1-.1,2.7,1.7,6.1,4.1,7.6l.4-9.7h.1ZM432,279.1c2.4,1.6,4.5.8,4.7-1.8.2-2.6-1.6-6.1-3.9-7.7l-.8,9.5h0ZM431,268.4c-2.4-1.6-4.5-.8-4.7,1.8-.2,2.6,1.5,6.1,3.9,7.7l.8-9.5h0ZM426.5,275.4c2.4,1.7,4.5,1,4.8-1.6s-1.4-6-3.8-7.7l-1,9.4h0ZM422.3,262.3c-2.4-1.8-4.6-1.1-4.9,1.4s1.3,6,3.7,7.8l1.2-9.2h0ZM413.9,265.9c2.4,1.9,4.6,1.4,5.1-1.1.4-2.5-1.1-6-3.5-7.8l-1.6,8.9ZM413.7,255.6c-2.4-1.9-4.6-1.4-5.1,1s1.1,6,3.4,7.8l1.7-8.9h0ZM408.5,261.6c2.3,1.9,4.6,1.5,5.1-.9s-1-5.9-3.3-7.8l-1.8,8.7h0ZM405.2,248.6c-2.3-2-4.7-1.7-5.2.7-.6,2.4.9,5.9,3.2,7.9l2.1-8.5h-.1ZM396.1,250.9c2.3,2.1,4.7,1.9,5.4-.4.7-2.3-.7-5.8-3-7.9l-2.4,8.2h0ZM396.8,241.2c-2.3-2.1-4.7-2-5.4.3s.6,5.8,2.9,7.9l2.5-8.2ZM390.9,246.1c2.3,2.1,4.7,2.1,5.4-.1.7-2.2-.5-5.8-2.8-7.9l-2.6,8ZM388.5,233.3c-2.3-2.2-4.7-2.3-5.5-.1-.8,2.1.4,5.7,2.7,7.9l2.9-7.8h-.1ZM378.8,234.2c2.2,2.3,4.7,2.5,5.6.4s-.2-5.6-2.4-7.9l-3.2,7.5ZM380.4,225.1c-2.2-2.3-4.8-2.5-5.7-.5-.9,2,.2,5.6,2.4,7.9l3.3-7.4h0ZM373.7,228.9c2.2,2.4,4.8,2.7,5.7.7,1-2,0-5.5-2.3-7.9l-3.4,7.2h0ZM372.4,216.5c-2.2-2.4-4.8-2.8-5.8-.9-1,1.9,0,5.4,2.1,7.8l3.7-6.9h0ZM362.2,215.9c2.1,2.5,4.7,3,5.9,1.2,1.1-1.8.3-5.3-1.8-7.8l-4,6.6h-.1ZM364.7,207.6c-2.1-2.5-4.7-3.1-5.9-1.3-1.1,1.8-.3,5.3,1.8,7.8l4.1-6.5ZM357.4,210.2c2.1,2.6,4.7,3.2,5.9,1.5,1.2-1.7.4-5.2-1.7-7.8l-4.2,6.3h0ZM357.1,198.3c-2-2.6-4.7-3.4-6-1.7-1.2,1.7-.6,5.1,1.5,7.7l4.5-6ZM346.4,196.2c2,2.7,4.7,3.6,6,2.1s.8-5-1.2-7.6l-4.8,5.6h0ZM349.8,188.7c-2-2.7-4.7-3.6-6-2.1s-.8,4.9,1.1,7.6l4.9-5.5ZM341.9,190c1.9,2.7,4.7,3.8,6,2.3s.9-4.8-1-7.6l-5,5.2h0ZM342.8,178.8c-1.9-2.8-4.6-3.9-6.1-2.6-1.5,1.4-1.1,4.7.8,7.5l5.3-4.9h0ZM331.8,175.1c1.8,2.8,4.6,4.1,6.1,2.9,1.5-1.2,1.3-4.5-.5-7.3l-5.6,4.5h0ZM336,168.6c-1.8-2.8-4.6-4.2-6.1-3-1.6,1.2-1.4,4.5.5,7.3l5.7-4.3h-.1ZM327.6,168.6c1.8,2.9,4.5,4.3,6.1,3.1,1.6-1.1,1.5-4.4-.3-7.2l-5.8,4.1h0ZM329.6,158.2c-1.7-2.9-4.5-4.4-6.1-3.4-1.7,1-1.6,4.2.1,7.1l6-3.7h0ZM318.4,152.9c1.6,3,4.4,4.6,6.1,3.7,1.7-.9,1.8-4,.2-7l-6.3,3.2h0ZM323.6,147.6c-1.6-3-4.4-4.7-6.1-3.8-1.8.9-1.9,3.9-.3,6.9l6.4-3.1h0ZM314.7,146.1c1.6,3,4.3,4.8,6.1,4,1.8-.8,2-3.8.4-6.8l-6.5,2.8ZM317.9,136.8c-1.5-3-4.2-4.9-6.1-4.2s-2.2,3.6-.6,6.7l6.7-2.4h0ZM306.7,129.9c1.4,3,4.1,5.1,6.1,4.6,1.9-.5,2.4-3.4,1-6.4l-7,1.9h-.1ZM312.7,125.8c-1.4-3-4.1-5.1-6-4.7-2,.5-2.4,3.3-1,6.4l7.1-1.7h-.1ZM303.6,122.9c1.3,3.1,4,5.2,6,4.8s2.5-3.2,1.2-6.2c0,0-7.2,1.4-7.2,1.4ZM308,114.8c-1.3-3.1-3.9-5.3-6-5.1-2,.3-2.7,3-1.4,6.1l7.4-1ZM296.9,106.3c1.1,3.1,3.8,5.5,5.9,5.4s2.9-2.7,1.8-5.8l-7.6.4h0ZM303.7,103.7c-1.1-3.1-3.7-5.5-5.9-5.5s-2.9,2.6-1.8,5.7l7.7-.2h0ZM294.4,99.2c1.1,3.1,3.6,5.6,5.8,5.6s3-2.5,2-5.5h-7.8ZM300,92.6c-1-3.1-3.5-5.7-5.7-5.9-2.2-.2-3.2,2.2-2.2,5.3l8,.6h0ZM289.3,82.6c.8,3.1,3.3,5.8,5.6,6.2,2.2.3,3.4-1.9,2.6-5l-8.1-1.2h-.1ZM297.4,84.5c0-2.8-1.9-6.1-4.3-7.5s-4.3-.2-4.3,2.5l8.7,5h-.1ZM288.7,79.2c0,2.8,1.9,6.1,4.3,7.5s4.3.2,4.3-2.5l-8.7-5h.1ZM297.4,83.8c0-2.8-1.9-6.1-4.3-7.5s-4.3-.2-4.3,2.5l8.7,5h-.1ZM288.7,78.3c0,2.8,1.9,6.1,4.3,7.5s4.3.2,4.3-2.5l-8.7-5h.1ZM296.4,79.4h0l-6.7,2.6h0l6.7-2.6ZM296.4,79.3h0l-6.7,2.5h0l6.7-2.5ZM296.3,79.1h0l-6.7,2.6h0l6.7-2.6ZM288.8,76.4h0l8.2,8h0l-8.2-8ZM288.8,76.5h0c0,0,8.2,8.1,8.2,8.1h0c0,0-8.2-8.1-8.2-8.1ZM288.7,76.8h0l8.2,8h0l-8.2-8ZM296.8,81.6h0l-8.2-1.4h0l8.2,1.4ZM296.8,81.4v-.2l-8.2-1.4v.2l8.2,1.4ZM296.7,81h0l-8.2-1.4h0l8.2,1.4ZM289.3,75.2h0l6.7,10.2h0l-6.7-10.2ZM289.2,75.2h0l6.7,10.3h0l-6.7-10.3ZM289.1,75.3h0l6.7,10.2h0l-6.7-10.2ZM288.1,77.9h0l8.7,5h0l-8.7-5ZM288.1,78.2v.4l8.7,5v-.4l-8.7-5ZM288.1,79.1h0l8.7,5h0l-8.7-5ZM288.4,77.6c0,.3-.2.5-.3.8l8.1,8.1c.1-.3.2-.5.3-.8l-8.2-8.1h.1ZM286.8,81.3c-.6,1.5-1.3,2.9-2,4.3l7.9,8.7c.8-1.5,1.5-3,2.2-4.6l-8-8.4h-.1ZM281.8,91.1c-.3.4-.5.9-.8,1.3l7.6,9.1c.3-.5.6-.9.9-1.4l-7.7-9ZM279.3,94.9c-.9,1.2-1.8,2.4-2.7,3.6l7.3,9.5c1-1.2,1.9-2.5,2.9-3.8l-7.5-9.3h0ZM272.8,102.9c-.3.4-.7.7-1,1l7,9.9c.4-.4.7-.7,1.1-1.1l-7.1-9.8ZM269.7,105.9c-1,1-2.1,1.9-3.2,2.8l6.7,10.2c1.2-1,2.3-2,3.4-3l-6.9-10ZM261.9,112.1c-.4.3-.8.5-1.2.8l6.3,10.5c.4-.3.8-.6,1.2-.8l-6.4-10.4h.1ZM258.3,114.4c-1.2.7-2.5,1.4-3.7,2.1l6,10.7c1.3-.7,2.7-1.4,3.9-2.2l-6.2-10.6h0ZM249.5,118.9c-.4.2-.9.4-1.3.5l5.6,10.9c.5-.2.9-.4,1.4-.6,0,0-5.7-10.8-5.7-10.8ZM245.5,120.4c-1.4.5-2.7.9-4.1,1.3l5.2,11c1.5-.4,2.9-.9,4.3-1.4l-5.4-10.9h0ZM235.7,123.2c-.5,0-1,.2-1.4.3l4.8,11.1c.5,0,1-.2,1.5-.3l-4.9-11.1h0ZM231.4,124c-1.5.2-2.9.4-4.4.6l4.4,11.1c1.6-.2,3.1-.4,4.7-.6l-4.6-11.1h0ZM220.8,125h-1.5l4,11.2h1.6l-4.1-11.2ZM216.2,125.1c-1.6,0-3.1,0-4.7,0l3.6,11.2c1.7,0,3.3.1,5,.1l-3.8-11.2h-.1ZM205.1,124.5c-.5,0-1.1,0-1.6-.2l3.2,11.1c.6,0,1.1.1,1.7.2l-3.3-11.1h0ZM200.2,123.9c-1.6-.2-3.3-.5-4.9-.8l2.8,11.1c1.7.3,3.5.6,5.2.8l-3-11.1h-.1ZM188.7,121.7c-.6,0-1.1-.3-1.7-.4l2.4,11c.6.1,1.2.3,1.8.4l-2.5-11h0ZM183.7,120.5c-1.7-.5-3.4-.9-5.1-1.5l2,10.9c1.8.5,3.6,1,5.3,1.5,0,0-2.2-10.9-2.2-10.9ZM171.8,116.8c-.6-.2-1.1-.4-1.7-.6l1.6,10.7c.6.2,1.2.4,1.8.6l-1.6-10.8h-.1ZM166.6,114.9c-1.7-.7-3.4-1.4-5.2-2.1l1.2,10.6c1.8.8,3.6,1.5,5.4,2.2l-1.4-10.7ZM154.5,109.8c-.6-.3-1.2-.5-1.7-.8l.8,10.4c.6.3,1.2.6,1.8.8l-.8-10.4h-.1ZM149.3,107.3c-1.7-.9-3.5-1.7-5.2-2.7l.4,10.2c1.8,1,3.6,1.9,5.5,2.8l-.6-10.3h0ZM137.1,100.8c-.3-.2-.6-.3-.9-.5v10c.3.2.6.3.9.5v-10ZM136.2,100.3c-.2,0-.5-.3-.7-.4v10c.2,0,.5.3.7.4v-10ZM132.7,98.3c-1.4-.8-2.8-1.7-4.2-2.5l-.3,9.8c1.5.9,2.9,1.8,4.4,2.7l.2-9.9h0ZM123,92.2c-.2-.2-.5-.3-.7-.5l-.6,9.6c.2.2.5.3.7.5l.6-9.6ZM117.7,94.3v.9l8.7,4.6v-.9l-8.7-4.6ZM117.8,98.7c0,1.8.2,3.6.3,5.4l8.7,4.3c0-1.7-.2-3.5-.3-5.2,0,0-8.7-4.5-8.7-4.5ZM118.6,111.2c0,.6,0,1.2,0,1.8l8.6,4c0-.6,0-1.2,0-1.8l-8.6-4.1h0ZM119,116.7c.2,1.8.3,3.6.5,5.5l8.6,3.8c-.2-1.8-.3-3.5-.5-5.3l-8.6-3.9h0ZM120.2,129.5c0,.3,0,.6,0,.9l8.6,3.5c0-.3,0-.6-.1-.9l-8.6-3.6h0ZM120.4,130.4c0,.4,0,.7,0,1.1l8.6,3.5c0-.4,0-.7-.1-1.1l-8.6-3.5ZM121,135.9c.3,2.2.6,4.4.9,6.6l8.5,3.2c-.3-2.1-.6-4.3-.9-6.4l-8.6-3.4h0ZM123.2,151.4c0,.7.2,1.5.4,2.2l8.5,2.8c-.1-.7-.2-1.4-.3-2.2l-8.5-2.9h-.1ZM124.3,158.1c.4,2.2.8,4.5,1.2,6.7l8.4,2.5c-.4-2.2-.8-4.3-1.2-6.5l-8.5-2.7h.1ZM127.3,173.8c.2.8.3,1.5.5,2.3l8.4,2.2c-.2-.7-.3-1.5-.5-2.2l-8.4-2.2h0ZM128.7,180.6c.5,2.3,1,4.5,1.5,6.8l8.3,1.8c-.5-2.2-1-4.4-1.5-6.6l-8.3-2ZM132.4,196.5c.2.8.4,1.5.6,2.3l8.2,1.5c-.2-.7-.4-1.5-.6-2.2l-8.2-1.6ZM134.1,203.3c.6,2.3,1.2,4.6,1.8,6.9l8.1,1.2c-.6-2.2-1.2-4.4-1.8-6.7l-8.2-1.4h0ZM138.6,219.4c.2.8.4,1.5.7,2.3l8,.8c-.2-.7-.4-1.5-.7-2.2l-8.1-.9h.1ZM140.6,226.2c.7,2.3,1.4,4.6,2.1,6.9l7.9.5c-.7-2.2-1.4-4.5-2.1-6.7l-8-.7h.1ZM145.7,242.3c.3.8.5,1.5.8,2.3l7.8.2c-.2-.7-.5-1.5-.7-2.2l-7.8-.2h-.1ZM148,249.2c.8,2.3,1.6,4.6,2.4,6.9l7.7-.2c-.8-2.2-1.6-4.5-2.3-6.7h-7.8,0ZM153.8,265.4c.3.8.6,1.5.9,2.3l7.6-.5c-.3-.7-.6-1.5-.8-2.2l-7.6.4h0ZM156.4,272.2c.9,2.3,1.8,4.6,2.7,6.9l7.5-.8c-.9-2.2-1.8-4.5-2.6-6.7l-7.5.6h0ZM162.8,288.3c.3.8.6,1.5.9,2.3l7.3-1.1c-.3-.7-.6-1.5-.9-2.2l-7.4,1h0ZM165.7,295.2c1,2.3,1.9,4.6,2.9,6.9l7.2-1.4c-1-2.2-1.9-4.5-2.9-6.7l-7.3,1.2h.1ZM172.6,311.1c.3.8.7,1.5,1,2.3l7.1-1.7c-.3-.7-.7-1.5-1-2.2l-7.1,1.7h0ZM175.7,317.9c1,2.3,2.1,4.5,3.2,6.8l6.9-2c-1-2.2-2.1-4.4-3.1-6.6l-7,1.8h0ZM183.2,333.8c.4.8.7,1.5,1.1,2.3l6.8-2.3c-.4-.7-.7-1.5-1.1-2.2l-6.8,2.2ZM186.6,340.5c1.1,2.2,2.2,4.5,3.4,6.7l6.7-2.6-3.3-6.6-6.8,2.4h0ZM194.6,356.1c.4.7.8,1.5,1.2,2.2l6.5-2.8c-.4-.7-.8-1.4-1.1-2.2l-6.6,2.8h0ZM198.1,362.8c1.2,2.2,2.4,4.4,3.6,6.6l6.4-3.1c-1.2-2.2-2.3-4.3-3.5-6.5l-6.5,2.9h0ZM206.5,378.2c.4.7.8,1.5,1.2,2.2l6.3-3.3c-.4-.7-.8-1.4-1.2-2.1l-6.3,3.3h0ZM210.3,384.8c1.2,2.2,2.5,4.3,3.8,6.5l6.1-3.6c-1.2-2.1-2.5-4.2-3.7-6.4l-6.2,3.4h0ZM219.1,400c.4.7.9,1.4,1.3,2.2l6-3.8c-.4-.7-.8-1.4-1.3-2.1l-6,3.8h0ZM223,406.4c1.3,2.1,2.6,4.3,3.9,6.4l5.8-4.1c-1.3-2.1-2.6-4.2-3.8-6.3l-5.9,3.9h0ZM232.3,421.4c.4.7.9,1.4,1.3,2.1l5.7-4.3c-.4-.7-.9-1.4-1.3-2.1l-5.7,4.2h0ZM236.3,427.7c1.4,2.1,2.7,4.2,4.1,6.3l5.5-4.5c-1.3-2.1-2.7-4.1-4-6.2l-5.6,4.4h0ZM245.9,442.4c.5.7.9,1.4,1.4,2.1l5.4-4.7c-.5-.7-.9-1.4-1.4-2l-5.4,4.7h0ZM250.1,448.6c1.4,2.1,2.8,4.1,4.2,6.2l5.3-4.9c-1.4-2-2.8-4-4.1-6.1l-5.4,4.8ZM260,463c.5.7,1,1.4,1.4,2l5.1-5.1c-.5-.7-.9-1.3-1.4-2l-5.2,5.1h.1ZM264.3,469.1c1.4,2,2.9,4,4.3,6.1l5-5.3c-1.4-2-2.8-4-4.3-5.9l-5.1,5.2h.1ZM274.5,483.2c.5.7,1,1.3,1.5,2l4.9-5.5c-.5-.7-1-1.3-1.4-2l-4.9,5.5h-.1ZM278.9,489.2c1.5,2,3,4,4.5,5.9l4.7-5.7c-1.5-1.9-2.9-3.9-4.4-5.8l-4.8,5.6h0ZM289.4,503c.3.3.5.7.8,1l4.6-5.8c-.2-.3-.5-.6-.7-1l-4.6,5.8h0ZM288.1,498.5h0l8.7,5h0l-8.7-5ZM288.1,498.7v.2l8.7,5v-.2l-8.7-5ZM288.1,499h0l8.7,5h0l-8.7-5ZM294.8,507.1h0l-4.6-11.1h0l4.6,11.1ZM294.8,507.1h.1l-4.6-11.1h-.1l4.6,11.1ZM295.1,507.1h0l-4.6-11.1h0l4.6,11.1ZM290.5,504.4h0l4.6-5.8h0l-4.6,5.8ZM290.6,504.5h0l4.6-5.8h0l-4.6,5.8ZM290.7,504.7h0l4.6-5.8h0l-4.6,5.8ZM297.4,504.3h0l-8.7-5h0l8.7,5ZM297.4,504.2h0c0-.1-8.7-5.1-8.7-5.1h0c0,.1,8.7,5.1,8.7,5.1ZM297.4,504h0l-8.7-5h0l8.7,5ZM295.4,507c.3,0,.5,0,.8-.1l-4.6-11.1c-.2,0-.5,0-.7.1l4.6,11.1h0ZM299.1,506.4c1.5-.2,3-.5,4.5-.8l-4.8-11.1c-1.5.3-2.9.5-4.4.8l4.7,11.1h0ZM309.5,504.5c.5-.1,1-.2,1.5-.3l-4.9-11.1c-.5.1-1,.2-1.4.3l4.9,11.1h-.1ZM313.9,503.5c1.5-.3,2.9-.7,4.4-1l-5-11c-1.4.3-2.9.7-4.3,1l4.9,11.1h0ZM324.1,501c.5-.1,1-.3,1.4-.4l-5.2-11c-.5.1-.9.3-1.4.4l5.1,11h.1ZM328.3,499.8c1.4-.4,2.8-.8,4.2-1.3l-5.3-11c-1.4.4-2.8.9-4.2,1.3l5.2,11h0ZM338.2,496.7c.5-.2.9-.3,1.4-.5l-5.4-10.9c-.5.2-.9.3-1.4.5l5.4,10.9ZM342.4,495.2c1.4-.5,2.7-1,4.1-1.6l-5.6-10.9c-1.3.5-2.7,1-4,1.5l5.5,10.9h0ZM351.9,491.4c.4-.2.9-.4,1.3-.6l-5.7-10.8c-.4.2-.9.4-1.3.6l5.7,10.8ZM355.9,489.6c1.3-.6,2.7-1.2,4-1.9l-5.9-10.7c-1.3.6-2.6,1.2-3.9,1.8l5.8,10.8h0ZM365.1,485.2c.4-.2.9-.4,1.3-.7l-6-10.7c-.4.2-.8.4-1.3.7l6,10.7ZM368.9,483.1c1.3-.7,2.6-1.4,3.8-2.2l-6.1-10.6c-1.2.7-2.5,1.4-3.7,2.1l6.1,10.6h0ZM377.7,478c.4-.3.8-.5,1.2-.8l-6.3-10.5c-.4.3-.8.5-1.2.8l6.3,10.5ZM381.4,475.6c1.2-.8,2.4-1.6,3.6-2.5l-6.4-10.4c-1.2.8-2.4,1.6-3.5,2.4l6.3,10.5ZM389.8,469.7c.4-.3.8-.6,1.2-.9l-6.6-10.3c-.4.3-.8.6-1.1.9l6.5,10.3ZM393.3,467.1c1.2-.9,2.3-1.8,3.4-2.8l-6.7-10.2c-1.1.9-2.2,1.8-3.3,2.7l6.6,10.3ZM401.2,460.4c.4-.3.7-.7,1.1-1l-6.8-10.1c-.4.3-.7.6-1.1,1l6.8,10.1ZM404.5,457.4c1.1-1,2.2-2,3.2-3.1l-7-9.9c-1,1-2.1,2-3.1,3l6.9,10ZM411.9,450.1c.3-.4.7-.7,1-1.1l-7.1-9.8c-.3.4-.7.7-1,1.1l7.1,9.8ZM414.9,446.8c1-1.1,2-2.3,3-3.4l-7.2-9.7c-1,1.1-1.9,2.2-2.9,3.3l7.2,9.7h-.1ZM421.8,438.6c.3-.4.6-.8.9-1.2l-7.4-9.5c-.3.4-.6.8-.9,1.2l7.3,9.5h.1ZM424.6,435c.9-1.2,1.8-2.5,2.7-3.7l-7.5-9.3c-.9,1.2-1.8,2.4-2.7,3.6l7.4,9.4h.1ZM430.8,426.1c.3-.4.6-.9.9-1.3l-7.6-9.2c-.3.4-.6.9-.8,1.3l7.6,9.2h-.1ZM433.4,422.1c.8-1.3,1.7-2.7,2.5-4.1l-7.7-9c-.8,1.3-1.6,2.6-2.4,4l7.7,9.1h-.1ZM439,412.5c.3-.5.5-.9.8-1.4l-7.8-8.8c-.2.5-.5.9-.7,1.4l7.8,8.8h0ZM441.3,408.2c.7-1.4,1.5-2.9,2.2-4.4l-8-8.6c-.7,1.4-1.4,2.9-2.1,4.3l7.9,8.7ZM446.3,397.8c.2-.5.4-1,.7-1.5l-8.1-8.3c-.2.5-.4,1-.7,1.5l8,8.4h.1ZM448.3,393.2c.6-1.6,1.3-3.1,1.9-4.7l-8.1-8.1c-.6,1.5-1.2,3.1-1.8,4.6l8.1,8.3h-.1ZM452.5,382.1c.2-.5.4-1.1.6-1.6l-8.2-7.9c-.2.5-.4,1.1-.6,1.6l8.2,7.9ZM454.2,377.2c.5-1.7,1.1-3.3,1.6-5l-8.3-7.6c-.5,1.6-1,3.2-1.5,4.9l8.3,7.8h-.1ZM457.8,365.4c.2-.6.3-1.1.5-1.7l-8.4-7.4c-.1.6-.3,1.1-.5,1.7l8.4,7.4ZM459.1,360.2c.4-1.7.9-3.5,1.3-5.3l-8.4-7.1c-.4,1.7-.8,3.4-1.2,5.1l8.4,7.3h0ZM461.9,347.7c.1-.6.2-1.2.4-1.8l-8.5-6.8c-.1.6-.2,1.2-.3,1.8l8.5,6.9h-.1ZM463,342.2c.3-1.8.6-3.7.9-5.5l-8.6-6.6c-.3,1.8-.6,3.6-.9,5.4l8.5,6.7h.1ZM465,329.2c0-.3,0-.6.1-.9l-8.6-6.3c0,.3,0,.6-.1.9l8.6,6.4h0ZM465.2,328.2c0-.3,0-.5.1-.8l-8.6-6.3c0,.3,0,.5-.1.8l8.6,6.3ZM465.7,324.2c.2-1.6.4-3.2.5-4.9l-8.6-6.1c-.2,1.6-.3,3.2-.5,4.7l8.6,6.2h0ZM466.8,312.8c0-.6,0-1.1.1-1.7l-8.6-5.8c0,.5,0,1.1-.1,1.6l8.6,5.9ZM467.2,307.8c.1-1.7.2-3.3.3-5l-8.7-5.6c0,1.6-.2,3.3-.3,4.9l8.6,5.7h.1ZM467.8,296v-.9l-8.7-5.4v.8l8.7,5.4h0ZM463.2,287.3c-.2-.1-.5-.2-.7-.3l.6,10.3c.2.1.5.2.7.4l-.6-10.3h0ZM459.7,285.6c-1.4-.7-2.8-1.4-4.2-2.2l.3,10.2c1.5.8,2.9,1.5,4.4,2.3l-.5-10.3h0ZM450,280.3c-.2-.1-.5-.3-.7-.4v10c.2.1.5.3.7.4v-10ZM449.3,279.9c-.3-.2-.6-.3-.9-.5v10c.3.2.6.4.9.5v-10ZM444.9,277.4c-1.8-1-3.5-2.1-5.2-3.2l-.4,9.7c1.8,1.1,3.6,2.3,5.5,3.4l.2-9.9h-.1ZM432.7,269.6c-.6-.4-1.2-.8-1.7-1.2l-.8,9.5c.6.4,1.2.8,1.8,1.2l.8-9.5h0ZM427.5,266c-1.7-1.2-3.5-2.5-5.2-3.8l-1.2,9.2c1.8,1.3,3.6,2.6,5.4,3.9l1-9.4h0ZM415.5,257c-.6-.4-1.1-.9-1.7-1.4l-1.7,8.9c.6.5,1.2,1,1.8,1.4l1.6-8.9h0ZM410.3,252.9c-1.7-1.4-3.4-2.8-5.1-4.3l-2.1,8.5c1.8,1.5,3.6,3,5.3,4.5l1.8-8.7h.1ZM398.5,242.7c-.6-.5-1.1-1-1.7-1.5l-2.5,8.2c.6.5,1.2,1.1,1.8,1.6l2.4-8.2h0ZM393.5,238.1c-1.7-1.6-3.3-3.2-5-4.8l-2.9,7.8c1.7,1.7,3.5,3.3,5.2,5l2.6-8h0ZM382,226.8c-.5-.6-1.1-1.1-1.6-1.7l-3.3,7.4c.6.6,1.1,1.2,1.7,1.8l3.2-7.5h0ZM377.2,221.7c-1.6-1.7-3.2-3.5-4.8-5.2l-3.7,6.9c1.7,1.8,3.3,3.7,5,5.5l3.4-7.2h.1ZM366.2,209.4c-.5-.6-1-1.2-1.5-1.8l-4.1,6.5c.5.6,1.1,1.3,1.6,1.9l4-6.6h0ZM361.6,203.9c-1.5-1.9-3-3.7-4.5-5.6l-4.5,6c1.6,2,3.1,4,4.7,5.9l4.2-6.3h0ZM351.2,190.6c-.5-.6-1-1.3-1.4-1.9l-4.9,5.5c.5.7,1,1.4,1.5,2l4.8-5.6ZM346.9,184.7c-1.4-2-2.8-4-4.2-6l-5.3,4.9c1.5,2.1,2.9,4.2,4.4,6.3l5-5.2h.1ZM337.3,170.7c-.4-.7-.9-1.4-1.3-2.1l-5.7,4.3c.5.7.9,1.4,1.4,2.2l5.6-4.5h0ZM333.4,164.5c-1.3-2.1-2.6-4.2-3.8-6.3l-6,3.7c1.3,2.2,2.7,4.4,4,6.6l5.8-4.1h0ZM324.8,149.7c-.4-.7-.8-1.4-1.2-2.1l-6.4,3.1c.4.8.8,1.5,1.2,2.3l6.3-3.2h.1ZM321.3,143.3c-1.1-2.2-2.3-4.3-3.3-6.5l-6.7,2.4c1.2,2.3,2.3,4.6,3.5,6.9l6.5-2.8h0ZM313.7,128c-.3-.7-.7-1.5-1-2.2l-7.1,1.7c.4.8.7,1.6,1.1,2.3l7-1.9h0ZM310.8,121.4c-1-2.2-1.9-4.4-2.8-6.6l-7.4,1c1,2.4,2,4.7,3,7.1l7.2-1.4h0ZM304.5,105.9c-.3-.7-.5-1.5-.8-2.2l-7.7.2c.3.8.6,1.6.9,2.4l7.6-.4ZM302.2,99.3c-.8-2.2-1.5-4.4-2.2-6.7l-8-.6c.7,2.4,1.5,4.7,2.3,7.1h7.8v.2ZM297.4,83.8c0-.4-.2-.7-.3-1.1l-8.2-1.3c.1.4.2.8.3,1.2l8.1,1.2h.1ZM297.4,84.5h0l-8.7-5h0l8.7,5ZM297.4,84.2v-.4l-8.7-5v.4l8.7,5ZM297.4,83.2h0l-8.7-5h0l8.7,5ZM293,80.7l8.7,5c0-2.3-.7-5-2-7.6l-6.7,2.6ZM292.9,80.4l6.7-2.6c-2-3.9-5.1-7-8.2-8.2-3.1-1.1-5.6,0-6.6,2.7l8.2,8h-.1ZM293,82l-8.7-5c0,1.2.2,2.4.5,3.7l8.2,1.3ZM463.5,292.5l8.7,5.4c0-2.8-.9-6.1-2.6-9.1-1.8-3-4.2-5.4-6.7-6.6l.6,10.3h0ZM460.9,325.1l-8.6-6.3h0l8.6,6.3ZM293,501.5l-4.6-11.1c-2.5.4-4.1,2.7-4.1,6.1l8.7,5ZM293,501.8l-4.6,5.8c2.7,3.5,6,5.5,8.8,5.3s4.5-2.5,4.5-6.2l-8.7-5h0ZM292.8,501.5l4.6-5.8c-2.8-3.6-6.4-5.7-9.2-5.3l4.6,11.1h0ZM292.5,501.5l-8.7-5c0,3.6,1.7,8,4.5,11.3s6.1,5.2,8.8,4.8l-4.6-11.1h0ZM292.5,501l8.7,5c0-3.4-1.5-7.5-4.1-10.8l-4.6,5.8ZM124.6,132.2l-8.6-3.5h0l8.6,3.5ZM122,96.5l.6-9.6c-2.5-1.6-4.9-2-6.7-1s-2.7,3.2-2.6,6.1l8.7,4.6h0ZM292.5,81.6l8.2,8.1c.3-.9.5-1.9.5-3.1l-8.7-5ZM292.5,80.4l-6.7-10.2c-1.3,1.1-2,2.9-2,5.2l8.7,5ZM292.6,80.3l8.2,1.4c-1-4-3.6-7.9-6.6-10.4-3.1-2.4-6.2-2.9-8.2-1.3l6.7,10.2h-.1ZM292.7,80.9l-8.2-1.4c1.2,4.7,4.5,9.2,8.2,11.4,3.7,2.1,7,1.3,8.2-2l-8.2-8ZM299.7,78.1c-3.1-6-8.5-9.7-12.2-8.3-3.7,1.4-4.2,7.4-1.1,13.4l13.3-5.2h0ZM286.4,83.2c3.1,6,8.5,9.7,12.2,8.3,3.7-1.4,4.2-7.4,1.1-13.4l-13.3,5.2h0ZM299.6,78c-3.1-6-8.5-9.7-12.2-8.3-3.7,1.4-4.2,7.4-1.1,13.4l13.3-5.2h0ZM286.3,83c3.1,6,8.5,9.7,12.2,8.3s4.2-7.4,1.1-13.4l-13.3,5.2h0ZM284.7,72.4c-1.6,4.3.8,11.4,5.3,15.8s9.5,4.5,11.1.2l-16.4-16ZM301.1,88.5c1.6-4.3-.8-11.4-5.3-15.8s-9.5-4.5-11.1-.2l16.4,16ZM284.6,72.7c-1.6,4.3.8,11.4,5.3,15.8s9.5,4.5,11.1.2l-16.4-16ZM300.9,88.9c1.6-4.3-.8-11.4-5.3-15.8s-9.5-4.6-11.1-.3c0,0,16.4,16.1,16.4,16.1ZM300.9,82.2c-1.6-6.1-6.6-11.7-11.1-12.4-4.5-.8-6.9,3.6-5.3,9.7,0,0,16.4,2.7,16.4,2.7ZM284.5,79.4c1.6,6.1,6.5,11.7,11.1,12.5,4.5.8,6.9-3.6,5.3-9.7l-16.4-2.7h0ZM300.8,81.9c-1.6-6.1-6.5-11.7-11.1-12.5-4.5-.8-6.9,3.6-5.3,9.7l16.4,2.8ZM284.4,78.9c1.6,6.1,6.5,11.7,11.1,12.5,4.5.8,6.9-3.6,5.3-9.7l-16.4-2.8ZM285.9,70.1c-3.1,2.5-2.6,9.1,1.1,14.7s9.2,8.2,12.2,5.7l-13.3-20.4h0ZM299.2,90.6c3.1-2.5,2.6-9.1-1.1-14.7s-9.2-8.2-12.2-5.7l13.3,20.4h0ZM285.9,70.1c-3.1,2.5-2.6,9.1,1.1,14.7s9.2,8.2,12.2,5.7l-13.3-20.4h0ZM299.1,90.6c3.1-2.5,2.6-9.1-1.1-14.7s-9.2-8.2-12.2-5.7l13.3,20.4h0ZM283.8,75.5c0,5.5,3.9,12.2,8.7,15,4.8,2.7,8.7.5,8.7-5l-17.3-9.9h-.1ZM301.1,85.7c0-5.5-3.9-12.2-8.7-15-4.8-2.7-8.7-.5-8.7,5l17.3,9.9h.1ZM283.8,76.1c0,5.5,3.9,12.2,8.7,15,4.8,2.7,8.7.5,8.7-5l-17.3-9.9h-.1ZM301.1,86.5c0-5.5-3.9-12.2-8.7-15-4.8-2.7-8.7-.5-8.7,5l17.3,9.9h.1ZM284,74.3c-1.7,4.2.6,11.3,5.1,15.8s9.5,4.7,11.1.5l-16.3-16.3h0ZM298.9,93.9c1.8-4.1-.4-11.2-4.8-15.8-4.4-4.6-9.5-5-11.3-.9l16.1,16.7h0ZM280.9,81.3c-2,3.9,0,10.9,4.3,15.7,4.4,4.8,9.5,5.5,11.5,1.6l-15.8-17.3ZM293.3,104.6c2.2-3.6.6-10.6-3.7-15.6-4.2-5-9.5-6.1-11.7-2.5l15.4,18.1h0ZM277.2,87.8c-2.3,3.6-.7,10.5,3.5,15.6,4.2,5,9.5,6.2,11.8,2.7l-15.3-18.3ZM290.6,108.8c2.4-3.4,1-10.3-3.2-15.5-4.2-5.1-9.5-6.5-11.8-3.1l15,18.6ZM273,93.7c-2.6,3.2-1.3,10.1,2.7,15.3,4.1,5.3,9.4,6.9,12,3.7l-14.7-19.1h0ZM283.4,117.6c2.8-2.9,1.8-9.7-2.1-15.1s-9.3-7.5-12.1-4.5l14.2,19.7h0ZM268.3,99c-2.8,2.9-2,9.6,1.9,15.1s9.3,7.6,12.1,4.7l-14-19.8ZM280,121c2.9-2.7,2.2-9.4-1.6-14.9-3.8-5.5-9.2-7.8-12.2-5.1l13.8,20.1h0ZM263.1,103.6c-3.1,2.5-2.5,9.1,1.1,14.7,3.7,5.6,9.2,8.2,12.2,5.7l-13.4-20.4h0ZM271.5,127.8c3.2-2.2,3-8.7-.5-14.4-3.5-5.8-9-8.6-12.3-6.4l12.8,20.8ZM257.6,107.7c-3.3,2.1-3.1,8.6.4,14.4s9,8.7,12.3,6.6l-12.6-20.9h0ZM267.6,130.3c3.4-2,3.3-8.4,0-14.2-3.4-5.8-8.9-8.9-12.3-6.9l12.4,21.1h-.1ZM251.7,111.2c-3.5,1.8-3.6,8-.3,13.9s8.8,9.2,12.3,7.4l-11.9-21.4h0ZM258,135.1c3.6-1.5,4-7.6.9-13.6s-8.6-9.6-12.2-8.1l11.3,21.7ZM245.4,114c-3.7,1.4-4.1,7.5-1.1,13.5,3.1,6,8.6,9.7,12.2,8.2l-11.2-21.7h0ZM253.6,136.8c3.7-1.3,4.3-7.3,1.3-13.3-3-6-8.5-9.8-12.2-8.5l10.9,21.8ZM238.8,116.3c-3.8,1.1-4.6,6.9-1.8,13,2.9,6.1,8.3,10.1,12.1,9l-10.4-22h0ZM243,139.8c4-.8,5-6.5,2.3-12.6s-8.1-10.4-12.1-9.5l9.8,22.1ZM231.9,117.9c-4,.8-5.1,6.4-2.4,12.5,2.7,6.1,8,10.5,12,9.7,0,0-9.6-22.2-9.6-22.2ZM238.3,140.6c4-.6,5.2-6.1,2.7-12.3-2.6-6.1-7.9-10.6-12-10l9.3,22.2h0ZM224.7,119c-4.1.4-5.5,5.8-3.1,11.9,2.4,6.2,7.8,10.8,11.9,10.3l-8.8-22.3h0ZM227,141.7c4.2-.2,5.8-5.3,3.6-11.5-2.3-6.2-7.5-11-11.7-10.8l8.2,22.3h-.1ZM217.3,119.5c-4.2,0-5.9,5.2-3.7,11.4s7.5,11.1,11.7,11l-8-22.3h0ZM222,141.8c4.3,0,6.1-5,3.9-11.1-2.1-6.2-7.3-11.2-11.6-11.2l7.7,22.3h0ZM209.7,119.4c-4.4-.2-6.3,4.6-4.3,10.8s7.1,11.3,11.5,11.5c0,0-7.2-22.3-7.2-22.3ZM210,141.2c4.4.5,6.6-4.2,4.8-10.3-1.8-6.2-6.9-11.5-11.3-12l6.6,22.3h-.1ZM201.9,118.8c-4.5-.5-6.6,4-4.9,10.2,1.8,6.1,6.8,11.5,11.3,12.1l-6.4-22.3h0ZM204.8,140.6c4.5.6,6.8-3.8,5.1-9.9-1.7-6.1-6.7-11.6-11.2-12.3l6.1,22.2h0ZM193.9,117.6c-4.5-.8-7,3.5-5.4,9.6,1.5,6.1,6.5,11.7,11,12.6l-5.6-22.1h0ZM192.4,138.2c4.6,1.1,7.2-3,5.8-9.1-1.4-6.1-6.2-11.9-10.8-12.9l4.9,22h.1ZM185.8,115.8c-4.6-1.1-7.3,2.9-6,8.9,1.3,6.1,6.1,11.9,10.7,13l-4.8-22h.1ZM187,136.9c4.6,1.2,7.4-2.7,6.2-8.7s-6-11.9-10.6-13.2l4.4,21.9h0ZM177.6,113.6c-4.7-1.4-7.6,2.3-6.5,8.3s5.8,12,10.4,13.4l-4-21.7h.1ZM174.2,132.9c4.7,1.6,7.8-1.8,6.9-7.8-.9-5.9-5.5-12.1-10.2-13.7l3.3,21.5ZM169.3,110.8c-4.7-1.7-7.8,1.7-7,7.7.9,5.9,5.4,12.1,10.1,13.8l-3.1-21.5ZM168.7,130.9c4.7,1.8,7.9-1.5,7.2-7.4-.8-5.9-5.2-12.1-10-14l2.8,21.3h0ZM160.9,107.5c-4.7-2-8.1,1.1-7.4,7,.6,5.8,5,12.2,9.8,14.2l-2.3-21.2h-.1ZM155.8,125.4c4.8,2.2,8.3-.7,7.8-6.5s-4.7-12.2-9.5-14.4l1.7,20.9ZM152.4,103.8c-4.8-2.3-8.3.6-7.9,6.3.4,5.7,4.6,12.2,9.4,14.5l-1.5-20.8ZM150.2,122.8c4.8,2.4,8.4-.3,8.1-6-.3-5.7-4.5-12.2-9.3-14.6l1.2,20.6ZM143.9,99.5c-4.8-2.5-8.5,0-8.3,5.6s4.2,12.2,9,14.8l-.7-20.4ZM137.2,115.8c4.8,2.7,8.7.4,8.6-5.1,0-5.5-3.9-12.2-8.7-15v20h0ZM135.5,94.9c-4.8-2.8-8.7-.5-8.7,5s3.9,12.2,8.6,15v-20h0ZM132.5,113.1c4.8,2.8,8.7.7,8.8-4.8,0-5.5-3.7-12.2-8.5-15.1l-.3,19.8h0ZM128.7,90.8c-4.8-3-8.8-1-9,4.4s3.5,12.2,8.3,15.2l.7-19.6ZM122.1,106.6c4.8,3.1,8.9,1.3,9.3-4,.3-5.3-3.3-12.2-8.1-15.3,0,0-1.2,19.3-1.2,19.3ZM113.4,92.9c.2,5.6,4.2,12.2,9,14.8,4.8,2.5,8.5,0,8.3-5.6l-17.3-9.1h0ZM130.8,105.4c-.2-5.7-4.3-12.2-9.1-14.7-4.8-2.5-8.5,0-8.2,5.8,0,0,17.3,8.9,17.3,8.9ZM113.8,101.9c.3,5.7,4.4,12.2,9.2,14.6,4.8,2.4,8.4-.3,8.1-6l-17.3-8.6ZM131.5,117.4c-.4-5.7-4.6-12.2-9.4-14.5s-8.3.6-7.9,6.3l17.3,8.2ZM114.4,111c.4,5.8,4.7,12.2,9.4,14.5,4.8,2.2,8.3-.6,7.8-6.4l-17.3-8.1h0ZM131.9,122.6c-.5-5.8-4.7-12.2-9.5-14.4-4.8-2.2-8.2.7-7.7,6.5l17.3,7.9h-.1ZM115.2,120.3c.6,5.8,4.9,12.2,9.6,14.3,4.8,2.1,8.2-.9,7.6-6.7l-17.2-7.5h0ZM133.1,134.8c-.7-5.8-5-12.2-9.8-14.1-4.7-2-8.1,1.2-7.4,7l17.2,7.1ZM116.2,129.8c.7,5.9,5.1,12.2,9.8,14.1,4.7,1.9,8-1.3,7.3-7.1l-17.2-7h0ZM133.9,140.9c-.7-5.9-5.2-12.2-9.9-14-4.7-1.9-8,1.4-7.2,7.3l17.1,6.7ZM117.6,140.9c.8,5.9,5.3,12.1,10,13.9,4.7,1.8,7.9-1.6,7-7.5l-17.1-6.3h0ZM136,155.7c-.9-6-5.5-12.1-10.2-13.7-4.7-1.6-7.7,1.9-6.8,7.9l17,5.8ZM119.3,152.2c1,6,5.6,12.1,10.3,13.6,4.7,1.6,7.7-2,6.7-8l-17-5.7h0ZM137,162.1c-1-6-5.7-12-10.3-13.5-4.7-1.5-7.6,2.1-6.6,8.1l16.9,5.4ZM121.3,163.5c1.1,6,5.8,12,10.5,13.4s7.5-2.4,6.4-8.4c0,0-16.9-5-16.9-5ZM139.9,177.1c-1.2-6-6-11.9-10.6-13.2-4.6-1.2-7.4,2.7-6.2,8.7l16.8,4.5ZM123.6,174.9c1.3,6.1,6,11.9,10.7,13.1,4.6,1.2,7.3-2.7,6.1-8.8l-16.7-4.3h-.1ZM141.2,183.6c-1.3-6.1-6.1-11.9-10.7-13-4.6-1.1-7.3,2.9-6,8.9l16.7,4.1ZM126.1,186.4c1.4,6.1,6.2,11.8,10.8,12.9,4.6,1,7.2-3.1,5.8-9.2l-16.6-3.7ZM144.8,198.8c-1.5-6.1-6.4-11.8-11-12.6-4.5-.9-7,3.4-5.5,9.5l16.5,3.1ZM128.9,198c1.5,6.1,6.5,11.7,11,12.6,4.5.8,7-3.5,5.4-9.6l-16.4-3ZM146.4,205.4c-1.6-6.1-6.6-11.7-11.1-12.4-4.5-.8-6.9,3.6-5.3,9.7l16.4,2.7h0ZM131.9,209.6c1.7,6.1,6.7,11.6,11.2,12.3,4.5.6,6.8-3.8,5.1-9.9l-16.3-2.3h0ZM150.6,220.7c-1.8-6.1-6.8-11.5-11.3-12-4.4-.5-6.6,4.1-4.8,10.2l16.1,1.8ZM135.2,221.2c1.8,6.2,6.9,11.5,11.3,12,4.4.5,6.6-4.2,4.8-10.3l-16.1-1.7ZM152.6,227.3c-1.9-6.2-7-11.5-11.4-11.8-4.4-.4-6.5,4.3-4.6,10.5l16,1.4h0ZM138.8,232.9c1.9,6.2,7.1,11.4,11.4,11.7,4.4.3,6.4-4.5,4.4-10.7l-15.9-1h.1ZM157.5,242.7c-2-6.2-7.2-11.3-11.5-11.4-4.3-.1-6.2,4.8-4.1,10.9l15.7.5h0ZM142.6,244.6c2.1,6.2,7.3,11.2,11.6,11.3,4.3,0,6.1-4.8,4.1-11l-15.6-.3h-.1ZM159.7,249.3c-2.1-6.2-7.3-11.2-11.6-11.2s-6.1,5-3.9,11.1h15.6-.1ZM146.6,256.2c2.2,6.2,7.4,11.1,11.7,11,4.3,0,5.9-5.2,3.7-11.3l-15.4.3ZM165.2,264.7c-2.3-6.2-7.6-11-11.8-10.7-4.2.2-5.8,5.4-3.5,11.6l15.2-.8h.1ZM150.9,267.9c2.3,6.2,7.6,10.9,11.8,10.7,4.2-.3,5.7-5.5,3.4-11.6l-15.2,1h0ZM167.7,271.3c-2.4-6.2-7.7-10.9-11.8-10.5-4.2.3-5.6,5.6-3.3,11.8l15.1-1.2h0ZM155.4,279.5c2.4,6.2,7.8,10.8,11.9,10.3,4.1-.4,5.5-5.8,3.1-11.9l-14.9,1.6h-.1ZM173.9,286.7c-2.5-6.1-7.9-10.7-11.9-10.1-4.1.6-5.3,6-2.8,12.2l14.7-2.1ZM160.1,291.1c2.5,6.1,7.9,10.6,12,10s5.3-6.1,2.7-12.2l-14.7,2.2ZM176.6,293.3c-2.6-6.1-8-10.6-12-9.9s-5.2,6.2-2.6,12.3l14.6-2.5h0ZM165,302.7c2.7,6.1,8,10.4,12,9.7s5.1-6.4,2.4-12.5l-14.4,2.8ZM183.3,308.6c-2.7-6.1-8.2-10.3-12.1-9.4-3.9.9-4.9,6.6-2.1,12.7l14.2-3.3h0ZM170.1,314.3c2.8,6.1,8.2,10.3,12.1,9.3,3.9-.9,4.8-6.7,2.1-12.7l-14.2,3.4h0ZM186.3,315.2c-2.8-6.1-8.2-10.2-12.1-9.2s-4.8,6.8-1.9,12.8l14.1-3.7h-.1ZM175.4,325.7c2.9,6.1,8.3,10.1,12.1,9s4.6-6.9,1.8-13l-13.9,4h0ZM193.5,330.4c-2.9-6-8.4-9.9-12.2-8.7-3.8,1.2-4.4,7.1-1.5,13.2l13.7-4.5ZM180.9,337.2c3,6,8.4,9.9,12.2,8.6s4.4-7.2,1.4-13.2l-13.6,4.6h0ZM196.7,336.9c-3-6-8.5-9.8-12.2-8.5s-4.3,7.3-1.3,13.3l13.5-4.8ZM186.6,348.5c3.1,6,8.5,9.7,12.2,8.3,3.7-1.4,4.2-7.4,1.1-13.4l-13.3,5.1ZM204.4,352c-3.1-6-8.6-9.6-12.2-8-3.6,1.5-4,7.6-.9,13.6l13.1-5.6h0ZM192.5,359.8c3.2,6,8.6,9.5,12.2,8,3.6-1.6,4-7.7.8-13.6l-13.1,5.7h.1ZM207.8,358.4c-3.2-6-8.7-9.5-12.2-7.8-3.6,1.6-3.9,7.8-.7,13.7l13-5.9h-.1ZM198.5,371c3.2,5.9,8.7,9.3,12.3,7.6,3.5-1.7,3.8-7.9.5-13.8l-12.8,6.2h0ZM216,373.3c-3.3-5.9-8.8-9.2-12.3-7.4-3.5,1.8-3.6,8.1-.3,14l12.6-6.6ZM204.7,382.1c3.3,5.9,8.8,9.2,12.3,7.3,3.5-1.8,3.6-8.1.2-14l-12.5,6.7ZM219.6,379.6c-3.4-5.9-8.8-9.1-12.3-7.2-3.4,1.9-3.5,8.2-.1,14.1l12.4-6.9h0ZM211,393.1c3.4,5.8,8.9,9,12.3,7,3.4-2,3.4-8.3,0-14.2l-12.2,7.2h-.1ZM228.1,394.3c-3.5-5.8-9-8.8-12.3-6.7-3.3,2.1-3.2,8.5.3,14.3l12-7.6h0ZM217.4,404.1c3.5,5.8,9,8.8,12.3,6.7,3.3-2.1,3.1-8.5-.3-14.3l-11.9,7.7h-.1ZM231.9,400.6c-3.5-5.8-9-8.7-12.3-6.5s-3.1,8.6.4,14.4l11.8-7.9h.1ZM224,414.9c3.5,5.7,9,8.6,12.3,6.3,3.2-2.2,3-8.7-.6-14.5l-11.7,8.1h0ZM240.9,415c-3.6-5.7-9.1-8.4-12.2-6.1-3.2,2.3-2.8,8.9.8,14.6l11.4-8.5ZM230.8,425.6c3.6,5.7,9.1,8.4,12.2,6,3.1-2.4,2.8-8.9-.9-14.6l-11.4,8.6h0ZM244.8,421.2c-3.6-5.7-9.1-8.3-12.2-5.9s-2.7,9,1,14.7l11.3-8.8h-.1ZM237.6,436.3c3.7,5.6,9.2,8.2,12.2,5.7,3.1-2.5,2.6-9.1-1.1-14.7l-11.1,9h0ZM254.1,435.4c-3.7-5.6-9.2-8-12.2-5.5-3,2.6-2.4,9.2,1.3,14.8l10.9-9.4h0ZM244.6,446.8c3.7,5.6,9.2,8,12.2,5.4,3-2.6,2.4-9.3-1.4-14.8l-10.8,9.4h0ZM258.1,441.4c-3.8-5.6-9.2-7.9-12.2-5.3-3,2.7-2.3,9.3,1.5,14.9l10.7-9.6ZM251.7,457.3c3.8,5.5,9.2,7.8,12.2,5.1,2.9-2.7,2.2-9.4-1.6-14.9l-10.5,9.8h0ZM267.8,455.4c-3.9-5.5-9.3-7.7-12.1-4.9s-2,9.5,1.8,15l10.3-10.2h0ZM258.9,467.6c3.9,5.5,9.3,7.6,12.1,4.8s2-9.6-1.9-15l-10.3,10.2h0ZM271.9,461.3c-3.9-5.5-9.3-7.6-12.1-4.7-2.8,2.9-1.9,9.6,2,15.1l10.2-10.4h-.1ZM266.2,477.8c3.9,5.4,9.3,7.4,12.1,4.5,2.8-2.9,1.8-9.7-2.1-15.1l-10,10.6ZM281.9,475c-4-5.4-9.4-7.3-12.1-4.3s-1.7,9.8,2.3,15.2l9.8-10.9h0ZM273.6,487.9c4,5.4,9.4,7.3,12,4.2,2.7-3,1.6-9.8-2.3-15.2l-9.7,11ZM286.2,480.8c-4-5.3-9.4-7.2-12-4.1-2.7,3.1-1.6,9.9,2.4,15.2l9.6-11.1ZM281,497.9c4,5.3,9.4,7.1,12,4s1.5-10-2.5-15.3l-9.5,11.3ZM296.3,494.3c-4.1-5.3-9.4-6.9-12-3.7-2.6,3.2-1.3,10.1,2.7,15.3l9.2-11.6h0ZM283.8,496.1c0,5.5,3.9,12.2,8.7,15,4.8,2.7,8.7.5,8.7-5l-17.3-9.9h-.1ZM301.1,506.1c0-5.5-3.9-12.2-8.7-15-4.8-2.7-8.7-.5-8.7,5l17.3,9.9h.1ZM283.8,496.3c0,5.5,3.9,12.2,8.7,15,4.8,2.7,8.7.5,8.7-5l-17.3-10h-.1ZM301.1,506.5c0-5.5-3.9-12.2-8.7-15-4.8-2.7-8.7-.5-8.7,5l17.3,9.9h.1ZM297.1,512.7c4.1-.6,5.3-6.1,2.8-12.2s-7.9-10.6-12-10l9.2,22.2ZM287.9,490.4c-4.1.6-5.3,6.1-2.8,12.2s7.9,10.6,12,10l-9.2-22.2h0ZM297.3,512.6c4.1-.6,5.3-6.1,2.7-12.2-2.5-6.1-7.9-10.6-12-10l9.2,22.2h0ZM288.2,490.4c-4.1.6-5.3,6.1-2.7,12.2,2.5,6.1,7.9,10.6,12,10l-9.2-22.2h0ZM288.2,507.3c4.1,5.3,9.4,6.9,12,3.7s1.3-10.1-2.7-15.4l-9.2,11.7h0ZM297.5,495.7c-4.1-5.3-9.4-6.9-12-3.7-2.5,3.2-1.3,10.1,2.7,15.4l9.2-11.7h0ZM288.3,507.5c4.1,5.3,9.4,6.9,12,3.7,2.5-3.2,1.3-10.1-2.8-15.4l-9.2,11.7h0ZM297.6,495.9c-4.1-5.3-9.4-6.9-12-3.7-2.5,3.2-1.3,10.1,2.8,15.4l9.2-11.7h0ZM301.7,506.8c0-5.5-3.9-12.2-8.7-15-4.8-2.7-8.7-.5-8.7,5l17.3,9.9h.1ZM284.4,496.7c0,5.5,3.9,12.2,8.7,15,4.8,2.7,8.7.5,8.7-5l-17.3-9.9h-.1ZM301.7,506.6c0-5.5-3.9-12.2-8.7-15-4.8-2.7-8.7-.5-8.7,5l17.3,10h.1ZM284.4,496.5c0,5.5,3.9,12.2,8.7,15,4.8,2.7,8.7.5,8.7-5l-17.3-10h-.1ZM298.4,512.5c4.1-.6,5.3-6.1,2.7-12.2-2.6-6.1-7.9-10.6-12-10l9.2,22.2h0ZM292.1,489.8c-4,.7-5.2,6.2-2.6,12.3,2.6,6.1,7.9,10.6,12,9.9l-9.4-22.2h0ZM306,511.2c4-.7,5.1-6.3,2.5-12.4s-8-10.5-12-9.8l9.5,22.2h0ZM302.2,487.9c-4,.8-5,6.4-2.3,12.6,2.7,6.1,8.1,10.4,12,9.6l-9.7-22.1h0ZM313.4,509.7c4-.8,5-6.5,2.3-12.6s-8.1-10.4-12.1-9.5l9.8,22.1h0ZM306.5,487c-3.9.9-4.9,6.6-2.2,12.7,2.7,6.1,8.1,10.3,12.1,9.4l-9.9-22.1ZM320.8,508c3.9-1,4.8-6.7,2.1-12.8-2.8-6.1-8.2-10.3-12.1-9.3l10,22.1h0ZM316.4,484.5c-3.9,1.1-4.7,6.8-1.9,12.9,2.8,6.1,8.3,10.2,12.1,9.1l-10.3-22h0ZM328.1,506.1c3.9-1.1,4.7-6.9,1.8-12.9-2.8-6.1-8.3-10.1-12.1-9.1l10.3,22h0ZM320.5,483.3c-3.8,1.1-4.6,7-1.7,13,2.9,6.1,8.3,10.1,12.1,8.9l-10.4-22h0ZM335.2,504c3.8-1.2,4.5-7.1,1.6-13.1-2.9-6.1-8.4-10-12.2-8.8l10.6,21.9ZM330.1,480.3c-3.7,1.3-4.4,7.2-1.4,13.3,3,6,8.4,9.9,12.2,8.6l-10.8-21.8h0ZM342.3,501.6c3.7-1.3,4.3-7.3,1.3-13.3s-8.5-9.8-12.2-8.5l10.9,21.8h0ZM334.1,478.9c-3.7,1.4-4.3,7.4-1.2,13.4,3,6,8.5,9.8,12.2,8.4l-11-21.8ZM349.2,499.1c3.7-1.4,4.2-7.5,1.1-13.5s-8.5-9.7-12.2-8.2l11.1,21.7ZM343.4,475.2c-3.6,1.5-4,7.6-.9,13.6s8.6,9.6,12.2,8l-11.4-21.6h0ZM356.1,496.2c3.6-1.6,4-7.7.8-13.6-3.2-6-8.6-9.5-12.2-8l11.4,21.6h0ZM347.2,473.5c-3.6,1.6-3.9,7.8-.7,13.7,3.2,6,8.7,9.5,12.2,7.8l-11.5-21.6h0ZM362.8,493.2c3.5-1.7,3.8-7.9.5-13.8-3.2-5.9-8.7-9.4-12.3-7.7l11.7,21.5h0ZM356.1,469.2c-3.5,1.8-3.6,8.1-.3,13.9,3.3,5.9,8.8,9.2,12.3,7.4l-11.9-21.4h-.1ZM369.4,489.8c3.5-1.8,3.6-8.1.3-14-3.3-5.9-8.8-9.2-12.3-7.3l12,21.3ZM359.8,467.2c-3.4,1.9-3.5,8.2-.2,14,3.3,5.9,8.8,9.1,12.3,7.2l-12.1-21.3h0ZM375.8,486.3c3.4-2,3.4-8.3,0-14.1-3.4-5.8-8.9-9-12.3-7l12.3,21.2h0ZM368.3,462.2c-3.3,2.1-3.2,8.5.2,14.3,3.5,5.8,8.9,8.8,12.3,6.8l-12.5-21h0ZM382.1,482.4c3.3-2.1,3.2-8.5-.3-14.3s-9-8.8-12.3-6.7l12.6,21h0ZM371.9,459.9c-3.3,2.2-3.1,8.6.4,14.4s9,8.7,12.3,6.6l-12.7-20.9h0ZM388.2,478.3c3.2-2.2,3-8.7-.6-14.5-3.5-5.7-9-8.6-12.3-6.3l12.8,20.8h.1ZM380,454.2c-3.2,2.4-2.8,8.9.8,14.6,3.6,5.7,9.1,8.4,12.2,6.1l-13.1-20.7h.1ZM394.2,474c3.1-2.4,2.7-8.9-.9-14.6s-9.1-8.4-12.2-6l13.1,20.6ZM383.3,451.7c-3.1,2.4-2.6,9,1,14.7,3.7,5.7,9.1,8.3,12.2,5.8l-13.2-20.5ZM400,469.4c3-2.5,2.5-9.1-1.2-14.8-3.7-5.6-9.2-8.1-12.2-5.6l13.4,20.4h0ZM391,445.3c-3,2.6-2.3,9.3,1.4,14.9,3.8,5.6,9.2,8,12.2,5.3l-13.6-20.2h0ZM405.7,464.5c2.9-2.7,2.3-9.3-1.5-14.9s-9.2-7.9-12.2-5.2l13.7,20.1ZM394.1,442.4c-2.9,2.7-2.2,9.4,1.6,15,3.8,5.5,9.3,7.8,12.2,5.1l-13.8-20h0ZM411.2,459.3c2.8-2.8,2-9.5-1.8-15-3.9-5.5-9.3-7.7-12.1-4.9l14,19.9h-.1ZM401.2,435.3c-2.8,2.9-1.8,9.7,2.1,15.1s9.3,7.5,12.1,4.5l-14.2-19.7h0ZM416.4,453.9c2.7-3,1.8-9.7-2.1-15.2-3.9-5.4-9.3-7.4-12.1-4.5l14.2,19.6h0ZM404.2,432.1c-2.7,3-1.7,9.8,2.3,15.2,4,5.4,9.4,7.3,12.1,4.3l-14.3-19.5h-.1ZM421.5,448.2c2.6-3.1,1.5-9.9-2.5-15.3-4-5.3-9.4-7.1-12-4l14.5,19.3ZM410.7,424.3c-2.5,3.2-1.3,10.1,2.7,15.4,4.1,5.3,9.4,6.9,12,3.7l-14.7-19.1ZM426.4,442.2c2.5-3.2,1.3-10.1-2.8-15.4-4.1-5.2-9.4-6.9-11.9-3.6l14.7,19h0ZM413.4,420.8c-2.5,3.3-1.2,10.2,2.9,15.4,4.1,5.2,9.4,6.8,11.9,3.5l-14.8-18.9ZM431.1,435.9c2.4-3.4,1-10.3-3.1-15.5s-9.4-6.6-11.9-3.2l15,18.7ZM419.4,412.3c-2.3,3.5-.8,10.5,3.4,15.5,4.2,5.1,9.5,6.3,11.8,2.8l-15.2-18.4h0ZM435.5,429.4c2.3-3.5.7-10.5-3.5-15.6s-9.5-6.3-11.8-2.8l15.2,18.3h0ZM421.9,408.5c-2.2,3.6-.6,10.6,3.6,15.6s9.5,6.2,11.7,2.6l-15.3-18.2h0ZM439.7,422.6c2.2-3.7.5-10.7-3.8-15.6-4.3-5-9.5-6-11.7-2.3l15.5,17.9ZM427.3,399.3c-2.1,3.8-.2,10.8,4.1,15.7,4.3,4.9,9.5,5.7,11.6,1.9l-15.6-17.6h-.1ZM443.7,415.5c2-3.8.2-10.8-4.1-15.7-4.3-4.8-9.5-5.7-11.5-1.8l15.7,17.5h-.1ZM429.5,395.2c-2,3.9,0,10.9,4.3,15.7,4.4,4.8,9.5,5.5,11.5,1.7l-15.8-17.4h0ZM447.5,408.1c1.9-4,0-11-4.5-15.7-4.4-4.7-9.5-5.3-11.4-1.4l15.9,17.1ZM434.2,385.2c-1.8,4.1.3,11.1,4.8,15.8,4.4,4.6,9.5,5.1,11.3,1l-16.1-16.8h0ZM451,400.5c1.8-4.1-.4-11.2-4.8-15.8-4.4-4.6-9.5-5-11.3-.9l16.1,16.7h0ZM436.1,380.8c-1.7,4.2.5,11.2,5,15.8,4.5,4.6,9.5,4.9,11.2.7l-16.2-16.5ZM454.2,392.6c1.7-4.2-.7-11.3-5.2-15.8s-9.5-4.7-11.1-.4l16.3,16.2h0ZM440.2,370.2c-1.5,4.3.9,11.4,5.4,15.8s9.5,4.4,11,0l-16.4-15.9h0ZM457.2,384.4c1.5-4.4-.9-11.4-5.5-15.8-4.5-4.4-9.5-4.3-11,0l16.5,15.8ZM441.8,365.5c-1.5,4.4,1.1,11.5,5.6,15.8s9.4,4.2,10.9-.2l-16.5-15.6h0ZM460,376c1.4-4.5-1.2-11.6-5.8-15.8s-9.4-4-10.8.5l16.6,15.3h0ZM445.2,354.2c-1.3,4.6,1.5,11.7,6.1,15.8,4.6,4.1,9.4,3.7,10.7-.9l-16.7-14.9h-.1ZM462.4,367.3c1.2-4.6-1.5-11.7-6.2-15.8-4.6-4.1-9.4-3.6-10.6,1l16.8,14.8h0ZM446.5,349.3c-1.2,4.7,1.6,11.7,6.3,15.8,4.6,4,9.4,3.5,10.5-1.2l-16.8-14.5h0ZM464.6,358.5c1.1-4.8-1.8-11.8-6.5-15.7-4.7-3.9-9.3-3.3-10.4,1.5l16.9,14.2ZM449.2,337.4c-1,4.8,2,11.9,6.7,15.7,4.7,3.8,9.3,3,10.3-1.9l-17-13.8h0ZM466.5,349.3c.9-4.9-2.1-11.9-6.8-15.7-4.7-3.8-9.3-2.9-10.2,2l17,13.7ZM450.2,332.1c-.9,4.9,2.2,11.9,6.9,15.6,4.7,3.7,9.2,2.8,10.1-2.2l-17.1-13.5h.1ZM468.2,340c.8-5-2.4-12-7.1-15.6s-9.2-2.5-10,2.5l17.1,13.2h0ZM452.2,319.7c-.7,5.1,2.6,12,7.3,15.5,4.7,3.5,9.1,2.2,9.8-2.8l-17.2-12.7h.1ZM469.6,330.6c.7-5.1-2.7-12-7.4-15.5-4.7-3.5-9.1-2.2-9.8,2.9l17.2,12.6h0ZM452.8,314.9c-.6,5.1,2.8,12.1,7.5,15.5,4.8,3.4,9.1,2,9.7-3.1l-17.2-12.4ZM470.5,322.4c.5-5.2-2.9-12.1-7.7-15.4-4.8-3.3-9.1-1.9-9.6,3.3l17.2,12.1h.1ZM453.9,304c-.4,5.2,3.1,12.1,7.8,15.4,4.8,3.2,9,1.6,9.4-3.6l-17.3-11.7h.1ZM471.3,314c.4-5.3-3.1-12.1-7.9-15.4-4.8-3.2-9-1.6-9.4,3.7l17.3,11.6h0ZM454.2,299.2c-.4,5.3,3.2,12.2,8,15.3,4.8,3.2,8.9,1.4,9.3-3.9l-17.3-11.4ZM471.8,305.6c.3-5.3-3.3-12.2-8.1-15.3-4.8-3.1-8.9-1.2-9.2,4.1l17.3,11.2h0ZM454.8,287.9c-.2,5.4,3.5,12.2,8.3,15.2s8.8,1,9-4.4l-17.3-10.8h0ZM462.2,281.8c-4.8-2.4-8.4.4-8,6.1.3,5.7,4.5,12.2,9.3,14.6l-1.2-20.6h0ZM460.4,301c4.8,2.4,8.4-.2,8.2-5.8-.3-5.7-4.4-12.2-9.1-14.7l1,20.5h-.1ZM455.4,278.3c-4.8-2.6-8.5,0-8.4,5.5.2,5.6,4.2,12.2,9,14.8l-.6-20.3ZM450,295.4c4.8,2.7,8.7.5,8.6-5.1,0-5.5-3.9-12.2-8.7-15v20h.1ZM448.4,274.4c-4.8-2.8-8.7-.6-8.7,5s3.8,12.2,8.6,15v-20h.1ZM444.6,292.2c4.8,2.9,8.8.8,8.9-4.7s-3.7-12.2-8.5-15.1l-.4,19.8h0ZM439.9,269.3c-4.8-3-8.9-1.1-9.1,4.3s3.4,12.2,8.2,15.2l.9-19.5ZM431.6,283.9c4.8,3.2,9,1.6,9.4-3.7.4-5.3-3.1-12.1-7.9-15.4l-1.5,19.1ZM431.4,263.7c-4.8-3.3-9-1.7-9.5,3.6-.5,5.2,3,12.1,7.8,15.4l1.7-18.9h0ZM426,280c4.8,3.4,9.1,1.9,9.6-3.3.6-5.2-2.9-12.1-7.6-15.5l-2,18.7h0ZM423,257.7c-4.7-3.5-9.1-2.2-9.8,2.8-.7,5.1,2.6,12,7.3,15.5l2.5-18.4h0ZM413.1,270.4c4.7,3.7,9.2,2.7,10.1-2.2.9-4.9-2.2-11.9-7-15.6l-3.1,17.9h0ZM414.6,251.2c-4.7-3.7-9.3-2.8-10.2,2.1-.9,4.9,2.2,11.9,6.9,15.7l3.3-17.7h0ZM407.6,266c4.7,3.8,9.3,3,10.3-1.8s-2-11.9-6.7-15.7l-3.6,17.5h0ZM406.3,244.4c-4.7-4-9.3-3.4-10.5,1.3-1.1,4.7,1.7,11.8,6.4,15.7l4.1-17.1h0ZM394.9,255.1c4.6,4.2,9.4,3.8,10.7-.7,1.3-4.6-1.3-11.6-6-15.8l-4.8,16.5h0ZM398.1,237.1c-4.6-4.2-9.4-4-10.8.6-1.4,4.5,1.3,11.6,5.9,15.8l4.9-16.3h0ZM389.5,250.1c4.6,4.3,9.4,4.2,10.9-.2s-1.1-11.5-5.6-15.8l-5.3,16ZM390,229.4c-4.5-4.4-9.5-4.5-11.1-.2s.8,11.4,5.3,15.8l5.7-15.6h.1ZM377.2,238c4.5,4.6,9.5,5,11.3.9s-.4-11.2-4.9-15.8l-6.4,14.9h0ZM382,221.4c-4.4-4.6-9.5-5.1-11.3-1s.3,11.1,4.8,15.8l6.6-14.8h-.1ZM372,232.5c4.4,4.7,9.5,5.3,11.4,1.3s-.1-11-4.5-15.7l-6.9,14.4ZM374.3,213c-4.3-4.8-9.5-5.6-11.5-1.8s-.2,10.9,4.2,15.7l7.4-13.9h-.1ZM360.2,219.2c4.2,5,9.5,6.1,11.7,2.5s.6-10.6-3.7-15.6l-8,13.1ZM366.7,204.3c-4.2-5-9.5-6.2-11.7-2.6-2.3,3.6-.7,10.6,3.6,15.6l8.2-12.9h-.1ZM355.2,213.3c4.2,5.1,9.5,6.4,11.8,3,2.3-3.5.9-10.4-3.3-15.5l-8.5,12.6h0ZM359.3,195.3c-4.1-5.2-9.4-6.8-11.9-3.4-2.5,3.3-1.2,10.2,2.9,15.4l9-12ZM344,199c4,5.3,9.4,7.2,12,4.1s1.6-9.9-2.4-15.3l-9.6,11.1h0ZM352.2,185.9c-4-5.4-9.4-7.3-12.1-4.3s-1.7,9.8,2.3,15.2l9.8-10.9h0ZM339.4,192.6c3.9,5.4,9.3,7.5,12.1,4.6,2.8-2.9,1.9-9.7-2-15.1l-10.1,10.5ZM345.4,176.3c-3.8-5.5-9.2-7.8-12.2-5.1-2.9,2.7-2.2,9.4,1.6,14.9l10.5-9.8h.1ZM329,177.3c3.7,5.7,9.1,8.2,12.2,5.8,3.1-2.5,2.6-9-1.1-14.7l-11.2,8.9h.1ZM338.9,166.4c-3.6-5.7-9.1-8.4-12.2-6s-2.7,8.9.9,14.6l11.3-8.7h0ZM324.7,170.6c3.6,5.7,9,8.6,12.3,6.3,3.2-2.3,2.9-8.7-.6-14.5l-11.6,8.2h0ZM332.6,156.3c-3.4-5.8-8.9-8.9-12.3-6.8-3.3,2.1-3.2,8.4.2,14.3l12.1-7.5h0ZM315.3,154.5c3.3,5.9,8.8,9.3,12.3,7.5s3.7-8,.4-13.9l-12.7,6.4h0ZM326.8,146c-3.2-5.9-8.7-9.4-12.3-7.7-3.5,1.7-3.8,7.9-.5,13.8l12.8-6.2h0ZM311.5,147.5c3.1,6,8.6,9.5,12.2,8,3.6-1.6,4-7.7.8-13.6l-13.1,5.6h.1ZM321.3,135.6c-3-6-8.5-9.8-12.2-8.5s-4.3,7.3-1.3,13.3l13.5-4.8ZM303.2,130.8c2.8,6.1,8.2,10.2,12.1,9.2s4.7-6.8,1.9-12.9l-14,3.7ZM316.3,125c-2.8-6.1-8.2-10.3-12.1-9.3-3.9.9-4.8,6.6-2.1,12.7,0,0,14.2-3.4,14.2-3.4ZM299.9,123.6c2.7,6.1,8,10.4,12,9.7,4-.8,5.1-6.4,2.4-12.5,0,0-14.4,2.8-14.4,2.8ZM311.7,114.3c-2.5-6.1-7.8-10.7-11.9-10.1-4.1.5-5.4,6-2.9,12.1l14.8-2ZM293.1,106.5c2.3,6.2,7.5,11,11.8,10.8,4.2-.2,5.8-5.4,3.5-11.5l-15.3.7ZM307.6,103.6c-2.2-6.2-7.5-11.1-11.7-10.9-4.2,0-5.9,5.2-3.7,11.4l15.4-.4h0ZM290.5,99.1c2.1,6.2,7.3,11.2,11.6,11.3,4.3,0,6.1-4.9,4-11.1,0,0-15.6-.2-15.6-.2ZM304,92.9c-1.9-6.2-7-11.4-11.4-11.7-4.4-.3-6.4,4.4-4.5,10.6l15.9,1.1ZM285.2,82c1.7,6.1,6.7,11.6,11.1,12.3,4.5.7,6.8-3.8,5.1-9.9l-16.3-2.4h0ZM301.7,86.9c0-5.5-3.9-12.2-8.7-15-4.8-2.7-8.7-.5-8.7,5l17.3,9.9h.1ZM284.4,76.7c0,5.5,3.9,12.2,8.7,15,4.8,2.7,8.7.5,8.7-5l-17.3-9.9h-.1ZM301.7,86.3c0-5.5-3.9-12.2-8.7-15-4.8-2.7-8.7-.5-8.7,5l17.3,10h.1ZM284.4,75.8c0,5.5,3.9,12.2,8.7,15,4.8,2.7,8.7.5,8.7-5l-17.3-9.9h-.1ZM299.7,78.1h0l-13.3,5.1h0l13.3-5.1ZM299.7,78h0l-13.3,5.1h0l13.3-5.1ZM299.6,77.8h0l-13.3,5.1h0l13.3-5.1ZM284.7,72.4h0l16.4,16h0l-16.4-16ZM284.7,72.5h0c0,0,16.4,16.1,16.4,16.1h0c0,0-16.4-16.1-16.4-16.1ZM284.6,72.8h0l16.4,16.1h0l-16.4-16.1ZM300.9,82.2h0l-16.4-2.7h0l16.4,2.7ZM300.9,82.1v-.2l-16.4-2.8v.2l16.4,2.7h0ZM300.8,81.7h0l-16.4-2.8h0l16.4,2.8ZM285.9,70.1h0l13.3,20.4h0l-13.3-20.4ZM285.9,70.1h0l13.3,20.5h0l-13.3-20.5ZM285.8,70.2h0l13.3,20.4h0l-13.3-20.4ZM283.8,75.4h0l17.3,10h0l-17.3-10ZM283.8,75.8v.4l17.3,9.9v-.4l-17.3-9.9ZM283.8,76.6h0l17.3,10h0l-17.3-10ZM284.3,73.6c0,.2-.2.5-.3.7l16.3,16.3c.1-.3.2-.6.3-.8,0,0-16.3-16.2-16.3-16.2ZM282.8,77.2c-.6,1.4-1.3,2.8-2,4.2l15.8,17.3c.8-1.6,1.5-3.1,2.3-4.8l-16.1-16.7h0ZM277.9,86.5c-.3.4-.5.8-.8,1.2l15.3,18.3c.3-.5.6-.9.9-1.4l-15.4-18.1ZM275.5,90.2c-.8,1.2-1.7,2.3-2.6,3.5l14.7,19.1c1-1.3,2-2.6,2.9-3.9l-15-18.6h0ZM269.2,98c-.3.3-.6.7-1,1l14,19.8c.4-.4.7-.8,1.1-1.1l-14.2-19.7h.1ZM266.3,100.9c-1,.9-2.1,1.9-3.1,2.7l13.4,20.4c1.2-1,2.4-2,3.5-3.1l-13.8-20.1h0ZM258.7,106.9c-.4.3-.8.5-1.1.8l12.6,20.9c.4-.3.9-.6,1.3-.9,0,0-12.8-20.8-12.8-20.8ZM255.3,109.2c-1.2.7-2.4,1.4-3.6,2l11.9,21.4c1.4-.7,2.7-1.5,4-2.2l-12.4-21.1h0ZM246.7,113.5c-.4.2-.9.4-1.3.5l11.2,21.7c.5-.2,1-.4,1.4-.6l-11.3-21.7h0ZM242.8,115c-1.3.5-2.6.9-4,1.3l10.4,22c1.5-.4,3-.9,4.5-1.4l-10.9-21.8h0ZM233.3,117.6c-.5,0-.9.2-1.4.3l9.6,22.2c.5-.1,1-.2,1.6-.3l-9.8-22.1h0ZM229,118.4c-1.4.2-2.9.4-4.3.6l8.8,22.3c1.6-.2,3.2-.4,4.8-.6l-9.3-22.2h0ZM218.8,119.4h-1.5l8,22.3h1.7s-8.2-22.3-8.2-22.3ZM214.3,119.5c-1.5,0-3,0-4.6,0l7.2,22.3c1.7,0,3.4.1,5.1.1l-7.7-22.3ZM203.5,118.9c-.5,0-1,0-1.6-.2l6.4,22.3c.6,0,1.2.1,1.7.2l-6.6-22.3h.1ZM198.7,118.3c-1.6-.2-3.2-.5-4.8-.8l5.6,22.1c1.8.3,3.5.6,5.3.9l-6.1-22.2ZM187.5,116.2c-.5,0-1.1-.3-1.6-.4l4.8,22c.6.1,1.2.3,1.8.4l-4.9-22h-.1ZM182.5,115c-1.6-.4-3.3-.9-4.9-1.4l4,21.7c1.8.6,3.6,1.1,5.4,1.6l-4.4-21.9h-.1ZM170.9,111.4c-.6-.2-1.1-.4-1.7-.6l3.1,21.5c.6.2,1.2.4,1.8.7l-3.3-21.5h0ZM165.9,109.6c-1.7-.6-3.4-1.3-5.1-2l2.3,21.2c1.9.8,3.7,1.5,5.5,2.2l-2.8-21.3h.1ZM154.1,104.6c-.6-.3-1.1-.5-1.7-.8l1.5,20.8c.6.3,1.2.6,1.9.9,0,0-1.7-20.9-1.7-20.9ZM149,102.1c-1.7-.8-3.4-1.7-5.1-2.6l.7,20.4c1.9,1,3.7,1.9,5.6,2.8,0,0-1.2-20.6-1.2-20.6ZM137.1,95.8c-.3-.2-.6-.3-.9-.5v20c.3.2.6.4.9.5v-20ZM136.2,95.3c-.2,0-.5-.3-.7-.4v20c.2,0,.4.3.7.4v-20ZM132.8,93.3c-1.4-.8-2.7-1.6-4.1-2.5l-.7,19.6c1.5.9,3,1.8,4.5,2.7l.3-19.8ZM123.3,87.4c-.2,0-.5-.3-.7-.4l-1.3,19.2c.2.2.5.3.7.5l1.2-19.3h.1ZM113.3,92v.9l17.3,9.1v-.8l-17.3-9.2ZM113.5,96.5c0,1.8.2,3.6.3,5.4l17.3,8.6c0-1.7-.2-3.4-.3-5.1l-17.3-8.9ZM114.2,109.2c0,.6,0,1.2,0,1.8l17.3,8.1c0-.6,0-1.2-.1-1.7l-17.3-8.2h0ZM114.7,114.7c.2,1.8.3,3.7.5,5.5l17.2,7.5c-.2-1.7-.3-3.5-.5-5.2l-17.3-7.9h.1ZM115.9,127.7c0,.3,0,.6,0,.9l17.2,7.1v-.9l-17.2-7.1h0ZM116.1,128.6c0,.4,0,.7,0,1.1l17.2,7c0-.3,0-.7-.1-1,0,0-17.2-7.1-17.2-7.1ZM116.7,134.2c.3,2.2.6,4.5.9,6.7l17.1,6.3c-.3-2.1-.6-4.2-.8-6.3l-17.1-6.7h0ZM119,149.9c0,.8.2,1.5.4,2.3l17,5.7c-.1-.7-.2-1.4-.3-2.1l-17-5.8h0ZM120.1,156.7c.4,2.3.8,4.5,1.2,6.8l16.9,5c-.4-2.1-.8-4.3-1.1-6.4l-16.9-5.4h0ZM123.1,172.7c.2.8.3,1.5.5,2.3l16.7,4.3c-.1-.7-.3-1.4-.4-2.2l-16.8-4.5h0ZM124.5,179.5c.5,2.3,1,4.6,1.5,6.9l16.6,3.7c-.5-2.2-1-4.3-1.5-6.5l-16.7-4.1h0ZM128.3,195.7c.2.8.4,1.5.6,2.3l16.4,3c-.2-.7-.4-1.5-.5-2.2l-16.5-3.1ZM130.1,202.6c.6,2.3,1.2,4.6,1.9,7l16.3,2.3c-.6-2.2-1.2-4.4-1.8-6.6l-16.4-2.7ZM134.5,218.9c.2.8.5,1.6.7,2.3l16.1,1.7c-.2-.7-.4-1.5-.6-2.2l-16.1-1.8h0ZM136.6,225.9c.7,2.3,1.4,4.7,2.2,7l15.9,1c-.7-2.2-1.4-4.4-2-6.6l-16-1.4h0ZM141.8,242.2c.3.8.5,1.6.8,2.3l15.6.3c-.2-.7-.5-1.5-.7-2.2l-15.7-.5h0ZM144.2,249.2c.8,2.3,1.6,4.7,2.5,7l15.4-.3c-.8-2.2-1.6-4.4-2.3-6.6h-15.6,0ZM150,265.6c.3.8.6,1.6.9,2.3l15.2-1c-.3-.7-.6-1.5-.8-2.2l-15.2.8h0ZM152.6,272.5c.9,2.3,1.8,4.7,2.7,7l14.9-1.6c-.9-2.2-1.7-4.4-2.6-6.6l-15.1,1.2h.1ZM159.1,288.8c.3.8.6,1.5,1,2.3l14.7-2.2c-.3-.7-.6-1.5-.9-2.2l-14.7,2.1h-.1ZM162,295.8c1,2.3,2,4.6,3,6.9l14.4-2.8c-1-2.2-1.9-4.4-2.8-6.6l-14.6,2.5h0ZM169.1,311.9c.3.8.7,1.5,1,2.3l14.2-3.4c-.3-.7-.7-1.5-1-2.2l-14.2,3.3h0ZM172.2,318.8c1.1,2.3,2.1,4.6,3.2,6.9l13.9-4c-1-2.2-2-4.4-3.1-6.5l-14.1,3.7h.1ZM179.8,334.9c.4.8.7,1.5,1.1,2.3l13.6-4.6c-.4-.7-.7-1.4-1.1-2.2l-13.7,4.5h0ZM183.2,341.7c1.1,2.3,2.3,4.5,3.4,6.8l13.3-5.1c-1.1-2.2-2.2-4.3-3.3-6.5l-13.5,4.8h.1ZM191.3,357.5c.4.8.8,1.5,1.2,2.3l13.1-5.7c-.4-.7-.8-1.4-1.1-2.1l-13.1,5.6h0ZM194.9,364.3c1.2,2.2,2.4,4.5,3.6,6.7l12.8-6.2c-1.2-2.1-2.3-4.3-3.5-6.4l-13,5.9h0ZM203.4,379.9c.4.7.8,1.5,1.2,2.2l12.5-6.7c-.4-.7-.8-1.4-1.2-2.1l-12.6,6.6h.1ZM207.2,386.5c1.3,2.2,2.5,4.4,3.8,6.6l12.2-7.2c-1.2-2.1-2.4-4.2-3.6-6.3l-12.4,6.9ZM216.1,401.9c.4.7.9,1.5,1.3,2.2l11.9-7.7c-.4-.7-.8-1.4-1.2-2.1l-12,7.6ZM220.1,408.4c1.3,2.2,2.6,4.3,4,6.5l11.7-8.1c-1.3-2.1-2.5-4.1-3.8-6.2l-11.8,7.9h0ZM229.4,423.5c.4.7.9,1.4,1.4,2.1l11.4-8.6c-.4-.7-.9-1.4-1.3-2l-11.4,8.5h0ZM233.5,429.9c1.4,2.1,2.7,4.3,4.1,6.4l11.1-9c-1.3-2-2.7-4.1-4-6.1l-11.3,8.8h0ZM243.2,444.7c.5.7.9,1.4,1.4,2.1l10.8-9.4c-.5-.7-.9-1.4-1.4-2l-10.9,9.4h0ZM247.4,451c1.4,2.1,2.8,4.2,4.3,6.3l10.5-9.8c-1.4-2-2.7-4-4.1-6l-10.7,9.6h0ZM257.4,465.5c.5.7,1,1.4,1.4,2.1l10.3-10.2c-.5-.7-.9-1.3-1.4-2l-10.3,10.2h0ZM261.8,471.7c1.4,2,2.9,4.1,4.4,6.1l10-10.6c-1.4-2-2.8-3.9-4.2-5.9l-10.2,10.4h0ZM272.1,485.9c.5.7,1,1.3,1.5,2l9.7-11c-.5-.6-1-1.3-1.4-1.9l-9.8,10.9h0ZM276.5,492l4.5,6,9.5-11.3c-1.5-1.9-2.9-3.9-4.3-5.8l-9.6,11.1h-.1ZM287.1,505.9c.3.3.5.7.8,1l9.2-11.7c-.2-.3-.5-.6-.7-1l-9.2,11.6h0ZM283.8,496.1h0l17.3,10h0l-17.3-10ZM283.8,496.2v.2l17.3,10v-.2l-17.3-9.9h0ZM283.8,496.5h0l17.3,10h0l-17.3-10ZM297.1,512.7h0l-9.2-22.2h0l9.2,22.2ZM297.1,512.6h.1l-9.2-22.2h-.1l9.2,22.2ZM297.4,512.6h0l-9.2-22.2h0l9.2,22.2ZM288.2,507.3h0l9.2-11.7h0l-9.2,11.7ZM288.3,507.4h0l9.2-11.7h0l-9.2,11.7ZM288.4,507.6h0l9.2-11.7h0l-9.2,11.7ZM301.7,506.8h0l-17.3-10h0l17.3,10ZM301.7,506.7h0c0-.1-17.3-10.1-17.3-10.1h0c0,.1,17.3,10.1,17.3,10.1ZM301.7,506.4h0l-17.3-10h0l17.3,10ZM297.7,512.6c.3,0,.5,0,.8,0l-9.2-22.2c-.2,0-.5,0-.7.1l9.2,22.2h0ZM301.5,512c1.5-.2,3-.5,4.5-.8l-9.5-22.2c-1.4.3-2.9.5-4.4.8l9.4,22.2ZM312,510c.5-.1,1-.2,1.5-.3l-9.8-22.1c-.5.1-1,.2-1.4.3l9.7,22.1h0ZM316.4,509.1c1.5-.3,3-.7,4.4-1l-10-22.1c-1.4.3-2.8.7-4.3,1l9.9,22.1ZM326.6,506.5c.5-.1,1-.3,1.4-.4l-10.3-22c-.5.1-.9.3-1.4.4l10.3,22ZM330.9,505.3c1.4-.4,2.9-.9,4.3-1.3l-10.6-21.9c-1.4.4-2.7.8-4.1,1.3l10.4,22h0ZM340.9,502.1c.5-.2.9-.3,1.4-.5l-10.9-21.8c-.4.2-.9.3-1.4.5l10.8,21.8h.1ZM345.1,500.6c1.4-.5,2.8-1,4.1-1.6l-11.1-21.7c-1.3.5-2.6,1-4,1.5l11,21.8h0ZM354.7,496.8c.5-.2.9-.4,1.4-.6l-11.4-21.6c-.4.2-.9.4-1.3.6l11.4,21.6h-.1ZM358.8,495c1.3-.6,2.7-1.2,4-1.9l-11.7-21.5c-1.3.6-2.5,1.2-3.8,1.8l11.5,21.6ZM368.1,490.5c.4-.2.9-.5,1.3-.7l-12-21.3c-.4.2-.8.4-1.2.7l11.9,21.4h0ZM372,488.4c1.3-.7,2.6-1.4,3.9-2.2l-12.3-21.2c-1.2.7-2.4,1.4-3.7,2.1l12.1,21.3h0ZM380.9,483.2c.4-.3.8-.5,1.2-.8l-12.6-21c-.4.3-.8.5-1.2.8l12.5,21h.1ZM384.6,480.8c1.2-.8,2.5-1.6,3.7-2.5l-12.8-20.8c-1.2.8-2.3,1.6-3.5,2.4l12.7,20.9h-.1ZM393,474.9c.4-.3.8-.6,1.2-.9l-13.1-20.6c-.4.3-.8.6-1.1.9l13.1,20.7h-.1ZM396.6,472.2c1.2-.9,2.3-1.9,3.5-2.8l-13.4-20.4c-1.1.9-2.2,1.8-3.3,2.7l13.2,20.5h0ZM404.6,465.5c.4-.3.7-.7,1.1-1l-13.7-20.1c-.4.3-.7.6-1.1,1l13.6,20.2h.1ZM407.9,462.5c1.1-1,2.2-2.1,3.3-3.1l-14-19.9c-1,1-2,2-3.1,3l13.8,20h0ZM415.4,455c.3-.4.7-.7,1-1.1l-14.2-19.6c-.3.4-.7.7-1,1.1l14.2,19.7h0ZM418.5,451.6c1-1.1,2-2.3,3-3.5l-14.5-19.3c-.9,1.1-1.9,2.2-2.9,3.3l14.3,19.5h.1ZM425.4,443.4c.3-.4.6-.8,1-1.2l-14.7-19c-.3.4-.6.8-.9,1.2l14.7,19.1h-.1ZM428.3,439.7c.9-1.2,1.9-2.5,2.8-3.8l-15-18.7c-.9,1.2-1.7,2.4-2.6,3.6l14.8,18.9h0ZM434.6,430.7c.3-.4.6-.9.9-1.3l-15.2-18.3c-.3.4-.5.8-.8,1.3l15.2,18.4h-.1ZM437.2,426.7c.9-1.4,1.7-2.7,2.5-4.1l-15.5-17.9c-.8,1.3-1.6,2.6-2.4,3.9l15.3,18.2h.1ZM442.9,416.9c.3-.5.5-1,.8-1.4l-15.7-17.5c-.2.5-.5.9-.7,1.4l15.6,17.6h0ZM445.2,412.5c.8-1.5,1.5-3,2.2-4.4l-15.9-17.1c-.7,1.4-1.4,2.8-2.1,4.2l15.8,17.4h0ZM450.3,402c.2-.5.5-1,.7-1.5l-16.1-16.7c-.2.5-.4,1-.6,1.5l16.1,16.8h-.1ZM452.3,397.3c.7-1.6,1.3-3.2,1.9-4.8l-16.3-16.2c-.6,1.5-1.2,3-1.8,4.5l16.2,16.5h0ZM456.6,386.1c.2-.5.4-1.1.6-1.7l-16.5-15.8c-.2.5-.4,1-.5,1.6l16.4,15.9ZM458.3,381.1c.6-1.7,1.1-3.4,1.6-5.1l-16.6-15.3c-.5,1.6-1,3.2-1.5,4.8l16.5,15.6ZM461.9,369.1c.2-.6.3-1.2.5-1.8l-16.8-14.8c-.1.5-.3,1.1-.4,1.6l16.7,14.9h0ZM463.3,363.8c.4-1.8.9-3.6,1.3-5.4l-16.9-14.2c-.4,1.7-.8,3.4-1.2,5l16.8,14.5h0ZM466.2,351.2c.1-.6.2-1.2.4-1.8l-17-13.7c-.1.6-.2,1.2-.3,1.7l17,13.8h-.1ZM467.2,345.6c.3-1.9.7-3.7,1-5.6l-17.1-13.2c-.3,1.8-.6,3.5-.9,5.3l17.1,13.5h-.1ZM469.3,332.4c0-.3,0-.6.1-1l-17.2-12.6c0,.3,0,.6-.1.9l17.2,12.7ZM469.5,331.4c0-.3,0-.5.1-.8l-17.2-12.6v.8l17.2,12.6h-.1ZM470,327.3c.2-1.6.4-3.3.5-4.9l-17.2-12.1c-.2,1.6-.3,3.1-.5,4.7l17.2,12.4h0ZM471.1,315.7c0-.6,0-1.1.1-1.7l-17.3-11.6c0,.5,0,1.1-.1,1.6l17.3,11.7ZM471.5,310.7c.1-1.7.2-3.4.3-5.1l-17.3-11.2c0,1.6-.2,3.2-.3,4.8l17.3,11.4h0ZM472.1,298.7v-.9l-17.3-10.7v.8l17.3,10.8h0ZM462.9,282.1c-.2-.1-.5-.2-.7-.3l1.2,20.6c.2.1.5.2.7.4l-1.3-20.7h0ZM459.5,280.5c-1.4-.7-2.7-1.4-4.1-2.1l.6,20.3c1.5.8,3,1.6,4.5,2.3l-1-20.5h0ZM450,275.3c-.2-.1-.5-.3-.7-.4v20c.2.1.5.3.7.4v-20ZM449.3,274.9c-.3-.2-.6-.3-.9-.5v20c.2.2.5.4.9.5v-20ZM445,272.4c-1.7-1-3.4-2.1-5.1-3.1l-.9,19.5c1.9,1.2,3.7,2.3,5.6,3.4l.4-19.8ZM433.1,264.8c-.6-.4-1.1-.8-1.7-1.2l-1.7,18.9c.6.4,1.2.8,1.9,1.3l1.5-19.1h0ZM428,261.3c-1.7-1.2-3.4-2.4-5.1-3.7l-2.5,18.4c1.8,1.4,3.7,2.7,5.5,4l2-18.7h.1ZM416.2,252.5c-.6-.4-1.1-.9-1.7-1.3l-3.3,17.7c.6.5,1.2,1,1.8,1.5l3.1-17.9h.1ZM411.2,248.5c-1.7-1.4-3.3-2.8-5-4.2l-4.1,17.1c1.8,1.5,3.6,3.1,5.5,4.6l3.6-17.5ZM399.7,238.6c-.5-.5-1.1-1-1.6-1.5l-4.9,16.3c.6.5,1.2,1.1,1.8,1.6l4.8-16.5h0ZM394.8,234.1c-1.6-1.5-3.2-3.1-4.8-4.6l-5.7,15.6c1.8,1.7,3.5,3.4,5.3,5.1l5.3-16h0ZM383.6,223.1c-.5-.5-1-1.1-1.6-1.6l-6.6,14.8c.6.6,1.2,1.2,1.7,1.8l6.4-14.9h.1ZM378.9,218.1c-1.6-1.7-3.1-3.4-4.6-5.1l-7.4,13.9c1.7,1.9,3.4,3.8,5.1,5.6l6.9-14.4ZM368.2,206.1c-.5-.6-1-1.2-1.5-1.8l-8.2,12.9c.6.7,1.1,1.3,1.7,2l8-13.1h0ZM363.7,200.7c-1.5-1.8-2.9-3.6-4.4-5.5l-9,12c1.6,2,3.2,4.1,4.9,6.1l8.5-12.6ZM353.6,187.8c-.5-.6-.9-1.3-1.4-1.9l-9.8,10.9c.5.7,1,1.4,1.6,2.1l9.6-11.1h0ZM349.5,182.1c-1.4-1.9-2.7-3.9-4.1-5.8l-10.5,9.8c1.5,2.2,3,4.3,4.5,6.5l10.1-10.5ZM340.1,168.4c-.4-.7-.9-1.3-1.3-2l-11.3,8.7c.5.7,1,1.5,1.4,2.2l11.2-8.9h0ZM336.3,162.4c-1.3-2-2.5-4.1-3.7-6.1l-12.1,7.5c1.4,2.3,2.7,4.6,4.1,6.8l11.6-8.2h.1ZM327.9,148.1c-.4-.7-.8-1.4-1.1-2.1l-12.8,6.2c.4.8.9,1.6,1.3,2.3l12.7-6.4h-.1ZM324.5,141.9c-1.1-2.1-2.2-4.2-3.2-6.3l-13.5,4.8c1.2,2.4,2.4,4.7,3.6,7.1l13.1-5.6ZM317.2,127.1c-.3-.7-.7-1.4-1-2.1l-14.2,3.4c.4.8.7,1.6,1.1,2.4l14-3.7h.1ZM314.4,120.7c-.9-2.1-1.8-4.3-2.7-6.4l-14.8,2c1,2.4,2,4.9,3.1,7.3l14.4-2.8h0ZM308.3,105.7c-.3-.7-.5-1.4-.8-2.1l-15.4.4c.3.8.6,1.6.9,2.4,0,0,15.3-.7,15.3-.7ZM306.1,99.3c-.7-2.1-1.4-4.3-2.1-6.4l-15.9-1.1c.8,2.5,1.6,4.9,2.4,7.4l15.6.2h0ZM301.5,84.4c0-.4-.2-.7-.3-1.1l-16.3-2.6c.1.4.2.8.3,1.2l16.3,2.4h0ZM301.7,87h0l-17.3-10h0l17.3,10ZM301.7,86.7v-.4l-17.3-10v.4l17.3,9.9h0ZM301.7,85.7h0l-17.3-10h0l17.3,10Z"/>
          <g class="cls-10">
            <path class="cls-4" d="M186,281.7l79.8,75.6.4-.3.2.2,88.7-56.4-39.8-38.1-57.8,36.7-40.4-38.3-31.1,20.5h0Z"/>
          </g>
          <path class="cls-5" d="M191,212h310v268.4l-2,15.6-6,13-7.5,10.5-9,9-9.5,7-10,6.5-10.5,5.5-12.5,6-13.5,4.5-14,4-13.5,2.5-27,3.5-27.5,1-32.5-3.5-15.5-2.5-13.5-3.5-14.5-5-14-5.5-8.5-4.5-8-5-14-9.5-5-4.5-5-5.5-7.5-12-5-8.5-1.5-5.3-3-13.8V212Z"/>
        </g>
      </g>
    </g>
  </g>
</svg>