<svg xmlns="http://www.w3.org/2000/svg" fill="none" viewBox="0.1 41.53 502.12 560.97" xmlns:v="https://vecta.io/nano"><path transform="matrix(.892836 -.450382 .892836 .450382 45.6484 245.528)" fill="url(#A)" d="M0 0h230.186v230.186H0z"/><path transform="matrix(.892836 .450382 0 1 45.6484 245.254)" fill="url(#B)" d="M0 0h230.186v207.343H0z"/><path transform="matrix(.892836 -.450382 0 1 251.023 349.473)" fill="url(#B)" d="M0 0h230.186v207.343H0z"/><path d="M55.5 73.499l189 35.001 8.371 193.047-156.558-78.659L55.5 73.499z" fill="url(#C)" style="mix-blend-mode:screen"/><path transform="matrix(.893435 -.449193 .893435 .449193 .101562 223.487)" fill="url(#D)" d="M0 0h281.008v281.008H0z"/><path transform="matrix(.893435 .449193 0 1 .101562 223.154)" fill="url(#E)" d="M0 0h281.008v252.453H0z"/><path transform="matrix(.893435 -.449193 0 1 250.992 350.047)" fill="url(#F)" d="M0 0h281.008v252.453H0z"/><path transform="matrix(.886918 -.461928 .886918 .461928 77.6904 227.135)" stroke="#fff" stroke-width="10" d="M8.869 0h182.23v188.652H8.869z"/><path fill="#a2ffe5" d="M92.891 224.128l157.965-82.272 158.78 82.697-157.965 82.272z" style="mix-blend-mode:screen"/><g fill="#fff"><path d="M125.692 437.593c-5.138-2.834-9.633-6.18-13.485-10.038-3.853-3.925-6.86-8.083-9.02-12.474-2.159-4.458-3.239-8.854-3.239-13.187s1.05-7.421 3.152-9.262c2.16-1.875 5.166-2.517 9.019-1.925 3.853.525 8.377 2.22 13.573 5.086 5.253 2.897 9.807 6.209 13.66 9.934 3.911 3.69 6.917 7.648 9.019 11.874 2.16 4.191 3.24 8.454 3.24 12.787s-1.08 7.538-3.24 9.613c-2.16 2.009-5.196 2.835-9.107 2.477-3.853-.391-8.377-2.02-13.572-4.885zm0-11.9c3.561 1.964 6.363 2.609 8.406 1.936 2.101-.641 3.152-2.528 3.152-5.661s-1.051-6.147-3.152-9.039c-2.043-2.927-4.845-5.372-8.406-7.336-3.503-1.932-6.276-2.562-8.319-1.888-2.043.606-3.065 2.476-3.065 5.609s1.022 6.164 3.065 9.091 4.816 5.356 8.319 7.288zm0-21.7c-4.729-2.608-8.874-5.628-12.435-9.058-3.502-3.399-6.246-7.045-8.231-10.94-1.926-3.929-2.889-7.861-2.889-11.794 0-4.133.992-7.119 2.977-8.958 1.985-1.905 4.758-2.676 8.319-2.312 3.56.298 7.647 1.718 12.259 4.262 4.728 2.608 8.844 5.711 12.346 9.309 3.561 3.564 6.334 7.394 8.319 11.488 2.043 4.061 3.065 8.157 3.065 12.291 0 3.933-.993 6.786-2.978 8.558-1.926 1.737-4.67 2.357-8.231 1.86s-7.735-2.066-12.521-4.706zm0-9.5c2.977 1.642 5.312 2.163 7.005 1.563 1.751-.567 2.627-2.184 2.627-4.851 0-2.8-.905-5.466-2.715-7.997-1.751-2.499-4.057-4.538-6.917-6.115-2.803-1.546-5.079-2.035-6.83-1.467s-2.627 2.251-2.627 5.051c0 2.666.846 5.233 2.539 7.7s3.999 4.506 6.918 6.116zm174.295 78.524v-70l11.733-6.472 26.094 35.008-6.217 3.429 25.657-63.55 11.646-6.424.175 69.904-13.31 7.341-.087-46.652 2.451-1.352-20.49 50.601-6.392 3.525-20.928-27.757 2.977-1.642v46.7l-13.309 7.341zm83.631-46.126v-70l29.947-16.517c7.705-4.25 13.485-5.771 17.337-4.563 3.912 1.176 5.867 4.498 5.867 9.965 0 3.666-.788 7.301-2.364 10.904-1.576 3.536-3.736 6.793-6.48 9.773s-5.896 5.452-9.457 7.416l1.664-5.017c3.853-2.125 7.268-3.275 10.245-3.451 2.977-.242 5.283.586 6.918 2.485 1.693 1.866 2.539 4.833 2.539 8.899 0 6-2.072 11.843-6.217 17.529-4.145 5.62-10.245 10.651-18.301 15.094l-31.698 17.483zm14.097-19.976l16.55-9.128c3.678-2.028 6.451-4.224 8.319-6.588 1.926-2.462 2.889-5.193 2.889-8.193 0-2.934-.963-4.569-2.889-4.907-1.868-.436-4.641.36-8.319 2.388l-17.6 9.708v-11.8l15.148-8.355c3.445-1.9 6.071-4.015 7.881-6.347 1.868-2.43 2.802-5.045 2.802-7.845 0-2.734-.934-4.252-2.802-4.555-1.81-.402-4.436.347-7.881 2.247l-14.098 7.775v45.6z"/><path d="M333.273 78.722l37.872-20.888 14.667 8.09-37.871 20.888-14.668-8.09zm-29.115-16.058l37.872-20.888 14.667 8.09-37.872 20.888-14.667-8.089zM171.279 168.068l37.872-20.888 14.667 8.09-37.872 20.888-14.667-8.09zm-29.115-16.058l37.872-20.888 14.667 8.09-37.872 20.887-14.667-8.089zm-1.095-24.268l156.303-86.208 37.653 20.767c12.551 6.922 21.672 13.402 27.364 19.439 5.983 6.037 8.172 11.832 6.567 17.386-1.313 5.554-6.859 11.028-16.637 16.421-5.838 3.22-11.894 5.755-18.17 7.606s-12.332 2.858-18.17 3.019-11.164-.604-15.98-2.294l-1.095.604c3.211 2.897 5.181 5.996 5.911 9.296s-.365 6.883-3.284 10.746-8.464 8.049-16.637 12.557c-9.486 5.232-19.702 8.613-30.648 10.142-10.799 1.449-21.891 1.046-33.274-1.207-11.092-2.254-21.891-6.279-32.399-12.074l-47.504-26.2zm135.725-29.219c7.297 4.024 13.865 5.956 19.702 5.795s11.676-1.851 17.513-5.071c5.984-3.3 8.611-6.6 7.881-9.901s-4.743-6.963-12.04-10.987l-6.567-3.622-34.807 19.198 8.318 4.588zm-34.588 9.9l-40.717 22.458 10.726 5.916c7.589 4.186 14.741 6.037 21.454 5.554 7.005-.483 13.718-2.495 20.14-6.037 3.94-2.173 6.713-4.427 8.318-6.761s1.606-4.83 0-7.486c-1.459-2.576-4.889-5.353-10.289-8.331l-9.632-5.313z" style="mix-blend-mode:screen"/></g><path d="M235.789 125.408L443 62l-40.405 162.522-149.727 81.351-17.079-180.465z" fill="url(#G)" style="mix-blend-mode:screen"/><defs><linearGradient id="A" x1="115.093" y1="0" x2="115.093" y2="230.186" href="#H"><stop stop-color="#13edb1"/><stop offset="1" stop-color="#13b3d3"/></linearGradient><linearGradient id="B" x1="115.093" y1="0" x2="115.093" y2="207.343" href="#H"><stop stop-color="#13edb1"/><stop offset="1" stop-color="#13b3d3"/></linearGradient><linearGradient id="C" x1="237.448" y1="113.759" x2="180.682" y2="259.262" href="#H"><stop offset=".148" stop-color="#93e0cb" stop-opacity="0"/><stop offset=".693" stop-color="#7fe2c7" stop-opacity=".157"/><stop offset="1" stop-color="#13edb1" stop-opacity=".76"/></linearGradient><linearGradient id="D" x1="140.504" y1="0" x2="140.504" y2="281.008" href="#H"><stop stop-color="#13edb1" stop-opacity=".32"/><stop offset="1" stop-color="#13b3d3" stop-opacity=".51"/></linearGradient><linearGradient id="E" x1="140.504" y1="0" x2="140.504" y2="252.453" href="#H"><stop stop-color="#13edb1" stop-opacity=".54"/><stop offset="1" stop-color="#13b3d3" stop-opacity=".54"/></linearGradient><linearGradient id="F" x1="140.504" y1="0" x2="140.504" y2="252.453" href="#H"><stop stop-color="#13edb1" stop-opacity=".58"/><stop offset="1" stop-color="#13b3d3" stop-opacity=".7"/></linearGradient><linearGradient id="G" x1="358.325" y1="78.177" x2="412.785" y2="244.11" href="#H"><stop offset=".148" stop-color="#93e0cb" stop-opacity="0"/><stop offset=".693" stop-color="#7fe2c7" stop-opacity=".157"/><stop offset="1" stop-color="#13edb1" stop-opacity=".76"/></linearGradient><linearGradient id="H" gradientUnits="userSpaceOnUse"/></defs></svg>