<?xml version="1.0" encoding="UTF-8"?>
<svg xmlns="http://www.w3.org/2000/svg" xmlns:xlink="http://www.w3.org/1999/xlink" version="1.1" viewBox="0 0 761 657.2">
  <defs>
    <style>
      .cls-1 {
        fill: url(#linear-gradient-8);
      }

      .cls-2 {
        fill: url(#linear-gradient-7);
      }

      .cls-3 {
        fill: url(#linear-gradient-5);
      }

      .cls-4 {
        fill: url(#linear-gradient-6);
      }

      .cls-5 {
        fill: url(#linear-gradient-4);
      }

      .cls-6 {
        fill: url(#linear-gradient-3);
      }

      .cls-7 {
        fill: url(#linear-gradient-2);
      }

      .cls-8 {
        fill: url(#linear-gradient);
      }

      .cls-9 {
        fill: #13edb1;
      }

      .cls-10 {
        isolation: isolate;
      }

      .cls-11, .cls-12 {
        fill: #fff;
      }

      .cls-13 {
        fill: url(#linear-gradient-9);
        fill-rule: evenodd;
      }

      .cls-13, .cls-12 {
        fill-opacity: .6;
      }

      .cls-14 {
        fill: url(#linear-gradient-10);
      }

      .cls-15 {
        fill: url(#linear-gradient-11);
      }

      .cls-16 {
        fill: url(#linear-gradient-12);
      }

      .cls-17 {
        mix-blend-mode: screen;
      }
    </style>
    <linearGradient id="linear-gradient" x1="271.2" y1="1025.9" x2="414.1" y2="715.6" gradientTransform="translate(0 -348)" gradientUnits="userSpaceOnUse">
      <stop offset="1" stop-color="#13b3d3"/>
      <stop offset="1" stop-color="#000"/>
    </linearGradient>
    <linearGradient id="linear-gradient-2" x1="525.4" y1="599.5" x2="481.2" y2="195" gradientTransform="translate(315.1 -55.1) rotate(30) scale(1 .9) skewX(-26.6)" gradientUnits="userSpaceOnUse">
      <stop offset="0" stop-color="#13edb1"/>
      <stop offset="1" stop-color="#13b3d3"/>
    </linearGradient>
    <linearGradient id="linear-gradient-3" x1="282.7" y1="207.5" x2="282.7" y2="303.3" gradientTransform="translate(411 -136.2) rotate(30) scale(1 .9) skewX(-26.6)" gradientUnits="userSpaceOnUse">
      <stop offset="0" stop-color="#13edb1"/>
      <stop offset="1" stop-color="#13b3d3"/>
    </linearGradient>
    <linearGradient id="linear-gradient-4" x1="426.7" y1="642.9" x2="341.9" y2="644.2" gradientTransform="translate(0 -348)" gradientUnits="userSpaceOnUse">
      <stop offset="0" stop-color="#13edb1"/>
      <stop offset="1" stop-color="#13b3d3"/>
    </linearGradient>
    <linearGradient id="linear-gradient-5" x1="65" y1="475.4" x2="65" y2="711.4" gradientTransform="translate(382.5 -301.8) rotate(-30) scale(1 .9) skewX(-26.6)" gradientUnits="userSpaceOnUse">
      <stop offset="0" stop-color="#13edb1"/>
      <stop offset="1" stop-color="#13b3d3"/>
    </linearGradient>
    <linearGradient id="linear-gradient-6" x1="282.7" y1="207.5" x2="282.7" y2="303.3" gradientTransform="translate(577 -51.2) rotate(30) scale(1 .9) skewX(-26.6)" gradientUnits="userSpaceOnUse">
      <stop offset="0" stop-color="#13edb1"/>
      <stop offset="1" stop-color="#13b3d3"/>
    </linearGradient>
    <linearGradient id="linear-gradient-7" x1="592.7" y1="727.6" x2="507.9" y2="728.9" gradientTransform="translate(0 -348)" gradientUnits="userSpaceOnUse">
      <stop offset="0" stop-color="#13edb1"/>
      <stop offset="1" stop-color="#13b3d3"/>
    </linearGradient>
    <linearGradient id="linear-gradient-8" x1="65" y1="475.4" x2="65" y2="711.2" gradientTransform="translate(548.5 -216.8) rotate(-30) scale(1 .9) skewX(-26.6)" gradientUnits="userSpaceOnUse">
      <stop offset="0" stop-color="#13edb1"/>
      <stop offset="1" stop-color="#13b3d3"/>
    </linearGradient>
    <linearGradient id="linear-gradient-9" x1="222.1" y1="694" x2="160.1" y2="801.3" gradientTransform="translate(0 -348)" gradientUnits="userSpaceOnUse">
      <stop offset="0" stop-color="#13edb1"/>
      <stop offset="1" stop-color="#13b3d3"/>
    </linearGradient>
    <linearGradient id="linear-gradient-10" x1="282.7" y1="207.5" x2="282.7" y2="303.3" gradientTransform="translate(245 -242.2) rotate(30) scale(1 .9) skewX(-26.6)" gradientUnits="userSpaceOnUse">
      <stop offset="0" stop-color="#13edb1"/>
      <stop offset="1" stop-color="#13b3d3"/>
    </linearGradient>
    <linearGradient id="linear-gradient-11" x1="260.8" y1="550.2" x2="175.9" y2="551.4" gradientTransform="translate(0 -348)" gradientUnits="userSpaceOnUse">
      <stop offset="0" stop-color="#13edb1"/>
      <stop offset="1" stop-color="#13b3d3"/>
    </linearGradient>
    <linearGradient id="linear-gradient-12" x1="64.8" y1="475.4" x2="64.8" y2="737.6" gradientTransform="translate(216.5 -407.8) rotate(-30) scale(1 .9) skewX(-26.6)" gradientUnits="userSpaceOnUse">
      <stop offset="0" stop-color="#13edb1"/>
      <stop offset="1" stop-color="#13b3d3"/>
    </linearGradient>
  </defs>
  <!-- Generator: Adobe Illustrator 28.7.1, SVG Export Plug-In . SVG Version: 1.2.0 Build 142)  -->
  <g>
    <g id="Layer_1">
      <g class="cls-10">
        <g id="Layer_1-2" data-name="Layer_1">
          <path class="cls-8" d="M264.7,235.9c27.3-15.7,71.5-15.7,98.7,0l371.7,214.6c27.3,15.7,27.3,41.3,0,57l-238.9,137.9c-27.3,15.7-71.5,15.7-98.7,0L25.8,430.8c-27.3-15.7-27.3-41.3,0-57l238.9-137.9h0Z"/>
          <path class="cls-7" d="M360.4,215.6l375.3,216.7c27.3,15.7,27.3,41.3,0,57l-231.6,133.7c-27.3,15.7-71.5,15.7-98.7,0L30.1,406.3c-27.3-15.7-27.3-41.3,0-57l231.6-133.7c27.3-15.7,71.5-15.7,98.7,0h0Z"/>
          <polygon class="cls-6" points="407 106 490.3 154.1 407.3 202 324 153.9 407 106"/>
          <path class="cls-5" d="M324.3,154l83,47.9v235.8l-83-47.9v-235.8h0Z"/>
          <polygon class="cls-3" points="407.3 202 490.3 154.1 490.3 390.1 407.3 438.1 407.3 202"/>
          <polygon class="cls-4" points="573 191 656.3 239.1 573.3 287 490 238.9 573 191"/>
          <path class="cls-2" d="M490.3,239l83,47.9v235.1l-83-47.9v-235.1Z"/>
          <polygon class="cls-1" points="573.3 287 656.3 239.1 656.3 475 573.3 522.9 573.3 287"/>
          <g class="cls-17">
            <path class="cls-13" d="M150,340.3l-43.9-1.4-22.5,13h.2c0,.1-49.6,28.7-49.6,28.7l189.9,109.6,71.4-41.2h0l52.5-30.3-80-10.3-8.3-10.1-33.4-11.1-17.9-13.2-38.3-11.3-20.1-22.4h0Z"/>
          </g>
          <polygon class="cls-14" points="241 0 324.3 48.1 241.3 96 158 47.9 241 0"/>
          <path class="cls-15" d="M158.3,48l83,47.9v262.2l-83-47.9V48Z"/>
          <polygon class="cls-16" points="241.3 96 324.3 48.1 324.3 310.3 241.3 358.2 241.3 96"/>
          <g class="cls-17">
            <path class="cls-12" d="M491.3,568.2c16.2-9.4,25.9-21.9,27.6-35.6,1.6-13.7-5-27.7-18.6-39.7-13.7-12-33.7-21.3-56.7-26.4s-47.6-5.6-69.9-1.6c-22.2,4.1-40.8,12.5-52.5,24s-16,25.2-12.1,39,15.7,26.9,33.6,37c17.8,10.1,40.6,16.7,64.6,18.8l6.2-60.4,77.9,45h0Z"/>
          </g>
          <g class="cls-17">
            <path class="cls-9" d="M491.3,568.2c-9.4,5.4-20.7,9.6-33.3,12.4-12.6,2.7-26.2,4-40.1,3.6-13.9-.3-27.7-2.3-40.8-5.7-13-3.4-25-8.2-35.3-14.1l71.4-41.2,77.9,45h.2Z"/>
          </g>
          <path class="cls-11" d="M249.3,507c.5-.1.9-.7.7-1.2l-2.3-8.7c-.1-.5-.7-.8-1.2-.7-.5.1-.9.7-.7,1.2l2.1,7.7-7.7,2.1c-.5.1-.8.7-.7,1.2s.7.9,1.2.7l8.7-2.3h-.1ZM32.5,381.9l216,125,1-1.7-216-125-1,1.7Z"/>
        </g>
      </g>
    </g>
  </g>
</svg>