<svg width="810" height="674" viewBox="0 0 810 674" fill="none" xmlns="http://www.w3.org/2000/svg">
<path d="M288.691 235.888C315.954 220.148 360.155 220.148 387.418 235.888L759.137 450.5C786.4 466.24 786.4 491.76 759.137 507.5L520.214 645.442C492.951 661.182 448.75 661.182 421.487 645.442L49.7683 430.83C22.5056 415.09 22.5056 389.57 49.7683 373.83L288.691 235.888Z" fill="url(#paint0_linear_149_12)"/>
<rect width="547.392" height="381.39" rx="57" transform="matrix(0.866025 0.5 -0.866025 0.5 335.023 187.116)" fill="url(#paint1_linear_149_12)"/>
<rect width="96.2165" height="95.7835" transform="matrix(0.866025 0.5 -0.866025 0.5 430.953 106)" fill="url(#paint2_linear_149_12)"/>
<path d="M348.328 154L431.328 201.92V437.687L348.328 389.767V154Z" fill="url(#paint3_linear_149_12)"/>
<rect width="95.8401" height="236.022" transform="matrix(0.866025 -0.5 0 1 431.328 202.044)" fill="url(#paint4_linear_149_12)"/>
<rect width="96.2165" height="95.7835" transform="matrix(0.866025 0.5 -0.866025 0.5 596.953 191)" fill="url(#paint5_linear_149_12)"/>
<path d="M514.328 239L597.328 286.92V522.033L514.328 474.113V239Z" fill="url(#paint6_linear_149_12)"/>
<rect width="95.8401" height="235.828" transform="matrix(0.866025 -0.5 0 1 597.328 287.044)" fill="url(#paint7_linear_149_12)"/>
<g style="mix-blend-mode:screen">
<path fill-rule="evenodd" clip-rule="evenodd" d="M174.026 340.328L130.129 338.921L107.579 351.94L107.747 352.045L58.1716 380.667L248.041 490.288L319.474 449.046L319.474 449.046L371.997 418.722L291.954 408.414L283.686 398.303L250.24 387.241L232.381 374.019L194.08 362.743L174.026 340.328Z" fill="url(#paint8_linear_149_12)" fill-opacity="0.62"/>
</g>
<rect width="96.2165" height="95.7835" transform="matrix(0.866025 0.5 -0.866025 0.5 264.953 0)" fill="url(#paint9_linear_149_12)"/>
<path d="M182.328 48L265.328 95.9201V358.119L182.328 310.199V48Z" fill="url(#paint10_linear_149_12)"/>
<rect width="95.8401" height="262.184" transform="matrix(0.866025 -0.5 0 1 265.328 96.0439)" fill="url(#paint11_linear_149_12)"/>
<g style="mix-blend-mode:screen">
<path d="M515.328 568.25C531.545 558.887 541.261 546.329 542.879 532.638C544.498 518.947 537.922 504.938 524.234 492.914C510.546 480.891 490.559 471.567 467.558 466.475C444.557 461.384 419.91 460.828 397.669 464.898C375.427 468.969 356.914 477.424 345.172 488.874C333.43 500.324 329.158 514.087 333.057 527.903C336.956 541.718 348.794 554.763 366.627 564.894C384.46 575.025 407.226 581.64 431.184 583.65L437.386 523.25L515.328 568.25Z" fill="white" fill-opacity="0.57"/>
</g>
<g style="mix-blend-mode:screen">
<path d="M515.328 568.25C505.946 573.667 494.639 577.867 482.053 580.61C469.468 583.353 455.851 584.586 441.979 584.238C428.107 583.89 414.251 581.967 401.205 578.581C388.158 575.194 376.174 570.409 365.939 564.5L437.386 523.25L515.328 568.25Z" fill="#13EDB1"/>
</g>
<path d="M273.258 506.966C273.791 506.824 274.109 506.276 273.966 505.742L271.646 497.046C271.503 496.513 270.955 496.196 270.422 496.338C269.888 496.481 269.571 497.029 269.713 497.562L271.776 505.292L264.046 507.354C263.513 507.497 263.196 508.045 263.338 508.578C263.481 509.112 264.029 509.429 264.562 509.287L273.258 506.966ZM56.4991 381.866L272.499 506.866L273.501 505.134L57.5009 380.134L56.4991 381.866Z" fill="white"/>
<defs>
<linearGradient id="paint0_linear_149_12" x1="304.787" y1="682.248" x2="447.653" y2="371.949" gradientUnits="userSpaceOnUse">
<stop offset="1" stop-color="#13B3D3"/>
</linearGradient>
<linearGradient id="paint1_linear_149_12" x1="401.44" y1="381.39" x2="357.192" y2="-23.1075" gradientUnits="userSpaceOnUse">
<stop stop-color="#13EDB1"/>
<stop offset="1" stop-color="#13B3D3"/>
</linearGradient>
<linearGradient id="paint2_linear_149_12" x1="48.1083" y1="0" x2="48.1083" y2="95.7835" gradientUnits="userSpaceOnUse">
<stop stop-color="#13EDB1"/>
<stop offset="1" stop-color="#13B3D3"/>
</linearGradient>
<linearGradient id="paint3_linear_149_12" x1="450.894" y1="305.57" x2="366.085" y2="306.846" gradientUnits="userSpaceOnUse">
<stop stop-color="#13EDB1"/>
<stop offset="1" stop-color="#13B3D3"/>
</linearGradient>
<linearGradient id="paint4_linear_149_12" x1="47.9201" y1="0" x2="47.9201" y2="236.022" gradientUnits="userSpaceOnUse">
<stop stop-color="#13EDB1"/>
<stop offset="1" stop-color="#13B3D3"/>
</linearGradient>
<linearGradient id="paint5_linear_149_12" x1="48.1083" y1="0" x2="48.1083" y2="95.7835" gradientUnits="userSpaceOnUse">
<stop stop-color="#13EDB1"/>
<stop offset="1" stop-color="#13B3D3"/>
</linearGradient>
<linearGradient id="paint6_linear_149_12" x1="616.894" y1="390.314" x2="532.087" y2="391.594" gradientUnits="userSpaceOnUse">
<stop stop-color="#13EDB1"/>
<stop offset="1" stop-color="#13B3D3"/>
</linearGradient>
<linearGradient id="paint7_linear_149_12" x1="47.9201" y1="0" x2="47.9201" y2="235.828" gradientUnits="userSpaceOnUse">
<stop stop-color="#13EDB1"/>
<stop offset="1" stop-color="#13B3D3"/>
</linearGradient>
<linearGradient id="paint8_linear_149_12" x1="276.975" y1="363.861" x2="214.997" y2="471.21" gradientUnits="userSpaceOnUse">
<stop stop-color="#13EDB1"/>
<stop offset="1" stop-color="#13B3D3"/>
</linearGradient>
<linearGradient id="paint9_linear_149_12" x1="48.1083" y1="0" x2="48.1083" y2="95.7835" gradientUnits="userSpaceOnUse">
<stop stop-color="#13EDB1"/>
<stop offset="1" stop-color="#13B3D3"/>
</linearGradient>
<linearGradient id="paint10_linear_149_12" x1="284.894" y1="209.924" x2="200.007" y2="211.074" gradientUnits="userSpaceOnUse">
<stop stop-color="#13EDB1"/>
<stop offset="1" stop-color="#13B3D3"/>
</linearGradient>
<linearGradient id="paint11_linear_149_12" x1="47.9201" y1="0" x2="47.9201" y2="262.184" gradientUnits="userSpaceOnUse">
<stop stop-color="#13EDB1"/>
<stop offset="1" stop-color="#13B3D3"/>
</linearGradient>
</defs>
</svg>
