<svg xmlns="http://www.w3.org/2000/svg" fill="none" viewBox="-18 46.96 690.67 749.01" xmlns:v="https://vecta.io/nano"><path transform="matrix(.89668 -.44268 .89668 .44268 212 595.359)" fill="url(#A)" d="M0 0h129.304v129.304H0z"/><path fill="#a2ffe5" d="M257.156 595.921l70.706-34.907 70.584 34.846-70.706 34.907z" style="mix-blend-mode:screen"/><path transform="matrix(.89668 -.44268 .89668 .44268 236.919 599.549)" stroke="#fff" stroke-width="10" d="M8.967 0h91.706v91.571H8.967z"/><path transform="matrix(.89668 .44268 0 1 212 595.359)" fill="url(#B)" d="M0 0h129.304v24.412H0z"/><path transform="matrix(.89668 -.44268 0 1 327.836 652.599)" fill="url(#C)" d="M0 0h129.304v24.506H0z"/><path fill-rule="evenodd" d="M280.476 90.762c1.076-41.336 40.644-56.028 89.298-32.728 49.202 23.561 89.111 77.076 89.32 119.681 5.046 1.552 10.237 3.587 15.535 6.125 49.415 23.663 89.474 82.045 89.474 130.398s-40.059 68.369-89.474 44.705a132.8 132.8 0 0 1-7.248-3.754 90.52 90.52 0 0 1-6.292-2.731l-204.206-97.79c-1.728-.828-3.443-1.712-5.142-2.651-1.924-.795-3.864-1.66-5.818-2.596-49.331-23.624-89.321-83.578-89.321-133.912s39.99-71.986 89.321-48.363c12.25 5.866 23.924 13.973 34.553 23.616z" fill="url(#D)"/><rect width="390.703" height="379.551" rx="37" transform="matrix(.89668 -.44268 .89668 .44268 -18 627.957)" fill="#13b3d3" style="mix-blend-mode:screen"/><path fill-rule="evenodd" d="M238.921 117.446c1.076-41.336 40.645-56.028 89.299-32.728 49.201 23.561 89.111 77.076 89.32 119.681 5.045 1.552 10.236 3.587 15.535 6.125 49.415 23.664 89.473 82.045 89.473 130.398s-40.058 68.369-89.473 44.705c-2.44-1.169-4.858-2.422-7.249-3.754a90.29 90.29 0 0 1-6.291-2.731l-204.207-97.79c-1.728-.828-3.443-1.712-5.142-2.651a116.92 116.92 0 0 1-5.818-2.596c-49.331-23.623-89.321-83.578-89.321-133.911s39.99-71.987 89.321-48.364c12.25 5.866 23.924 13.973 34.553 23.617z" fill="url(#E)"/><g style="mix-blend-mode:screen"><use href="#H" fill="#fff"/><use href="#H" stroke="#13b3d3" stroke-width="5"/></g><g fill="#fff"><use href="#I" style="mix-blend-mode:screen"/><use href="#I" x="136.18" y="64.749" style="mix-blend-mode:screen"/><use href="#J" style="mix-blend-mode:screen"/><use href="#J" style="mix-blend-mode:screen"/><path d="M354.766 260.903l5.627 3.004v86.915l-5.627-3.005v-86.914zm-58.524-98.878l5.627 3.005v157.833l-5.627-3.005V162.025z" style="mix-blend-mode:screen"/></g><g style="mix-blend-mode:screen"><use href="#K" fill="#fff"/><use href="#K" stroke="#13b3d3" stroke-width="5"/></g><path d="M286.961 522.678l-21.218-12.25 9.639-5.565c2.304-1.33 4.779-2.246 7.426-2.748 2.627-.513 5.224-.6 7.79-.262s4.931 1.132 7.093 2.38c2.142 1.237 3.516 2.602 4.122 4.095.586 1.482.445 2.987-.424 4.515-.889 1.517-2.486 2.94-4.789 4.27l-9.639 5.565zm.879-5.163l4.486-2.59c1.414-.816 2.374-1.674 2.879-2.572.505-.922.546-1.832.121-2.73-.404-.91-1.273-1.75-2.606-2.52a12.05 12.05 0 0 0-4.365-1.505c-1.556-.245-3.122-.216-4.698.087-1.576.28-3.072.829-4.486 1.645l-4.486 2.59 13.155 7.595zm21.078-7.514l-11.761-17.71 4.85-2.8 30.705 6.772-5.153 2.975-26.491-6.335 1.939-1.12 10.943 15.313-5.032 2.905zm.182-5.355l-2.425-2.905 10.912-6.3 5.062 1.382-13.549 7.823zm23.706-8.437l-11.761-17.71 4.85-2.8 30.705 6.773-5.153 2.975-26.492-6.335 1.94-1.12 10.942 15.312-5.031 2.905zm.182-5.355l-2.425-2.905 10.912-6.3 5.061 1.383-13.548 7.822zm36.035-15.135c-1.637.945-3.425 1.674-5.365 2.188-1.94.49-3.92.746-5.941.77a25.51 25.51 0 0 1-5.911-.613c-1.899-.443-3.647-1.126-5.243-2.047s-2.779-1.931-3.547-3.028c-.748-1.108-1.101-2.246-1.061-3.412.061-1.179.526-2.322 1.395-3.43.848-1.12 2.101-2.159 3.758-3.115 1.839-1.062 3.819-1.832 5.941-2.31a22.64 22.64 0 0 1 6.547-.56l-.242 3.5c-1.556-.059-2.981.052-4.274.332-1.314.269-2.496.706-3.546 1.313-.991.571-1.738 1.19-2.243 1.855s-.758 1.347-.758 2.047.242 1.389.727 2.065c.505.665 1.263 1.289 2.274 1.873s2.091 1.021 3.243 1.312c1.172.28 2.364.42 3.576.42s2.395-.146 3.547-.437 2.223-.724 3.213-1.295c1.051-.607 1.818-1.284 2.303-2.03.465-.759.637-1.593.516-2.503l6.062-.14c.222 1.295-.091 2.561-.94 3.798-.828 1.225-2.172 2.374-4.031 3.447z" fill="#fff"/><path d="M350.824 362.382l230.717-140.51-191.326 369.489-68.653 33.827 29.262-262.806z" fill="url(#F)" style="mix-blend-mode:screen"/><path d="M359 329.5L54.998 212l191.326 369.49 68.653 33.826L359 329.5z" fill="url(#G)" style="mix-blend-mode:screen"/><g style="mix-blend-mode:screen"><use href="#L" fill="#fff"/><use href="#L" stroke="#13b3d3" stroke-width="5"/></g><defs><linearGradient id="A" x1="41.613" y1="6.13" x2="88.902" y2="142.199" href="#M"><stop stop-color="#13b3d3"/><stop offset="1" stop-color="#13edb1"/></linearGradient><linearGradient id="B" x1="41.613" y1="1.157" x2="43.494" y2="29.826" href="#M"><stop stop-color="#13b3d3"/><stop offset="1" stop-color="#13edb1"/></linearGradient><linearGradient id="C" x1="41.613" y1="1.162" x2="43.509" y2="29.94" href="#M"><stop stop-color="#13b3d3"/><stop offset="1" stop-color="#13edb1"/></linearGradient><linearGradient id="D" x1="455.16" y1="98.923" x2="243.165" y2="138.284" href="#M"><stop stop-color="#13edb1" stop-opacity=".3"/><stop offset="1" stop-color="#13b3d3" stop-opacity=".52"/></linearGradient><linearGradient id="E" x1="318.797" y1="80.205" x2="221.139" y2="284.136" href="#M"><stop stop-color="#13edb1"/><stop offset="1" stop-color="#13b3d3"/></linearGradient><linearGradient id="F" x1="447.747" y1="343.969" x2="501.662" y2="581.108" href="#M"><stop offset=".148" stop-color="#93e0cb" stop-opacity="0"/><stop offset=".693" stop-color="#7fe2c7" stop-opacity=".157"/><stop offset="1" stop-color="#13edb1" stop-opacity=".76"/></linearGradient><linearGradient id="G" x1="188.792" y1="334.098" x2="134.876" y2="571.236" href="#M"><stop offset=".148" stop-color="#93e0cb" stop-opacity="0"/><stop offset=".693" stop-color="#7fe2c7" stop-opacity=".157"/><stop offset="1" stop-color="#13edb1" stop-opacity=".76"/></linearGradient><path id="H" d="M324.835 148.358c0 14.863-11.323 21.118-25.573 13.509s-25.572-25.954-25.572-40.817 11.323-21.117 25.572-13.509 25.573 25.954 25.573 40.817z"/><path id="I" d="M218.586 195.113l38.265 20.431v5.507l-38.265-20.431v-5.507z"/><path id="J" d="M251.227 217.789l5.627 3.005v80.649l-5.627-3.004v-80.65z"/><path id="K" d="M219.046 192.073c0 14.863-11.323 21.117-25.573 13.509s-25.572-25.954-25.572-40.818 11.323-21.117 25.572-13.509 25.573 25.954 25.573 40.818z"/><path id="L" d="M436.069 310.061c0 14.864-11.323 21.118-25.572 13.509s-25.573-25.954-25.573-40.817 11.323-21.117 25.573-13.509 25.572 25.954 25.572 40.817z"/><linearGradient id="M" gradientUnits="userSpaceOnUse"/></defs></svg>