<svg xmlns="http://www.w3.org/2000/svg" viewBox="0 0 494.6 687.6" xmlns:v="https://vecta.io/nano"><style>.A{isolation:isolate}.B{mix-blend-mode:screen}</style><defs><linearGradient id="A" x1="325.9" y1="556.4" x2="245.3" y2="200.3" href="#E"><stop offset="0" stop-color="#fff" stop-opacity=".3"/><stop offset=".5" stop-color="#13b3d3" stop-opacity=".3"/><stop offset=".8" stop-color="#13b3d3" stop-opacity="0"/></linearGradient><linearGradient id="B" x1="-276" y1="303.3" x2="-70.8" y2="807.1" gradientTransform="translate(-174.3 892.6) rotate(30) scale(1 -.9) skewX(26.6)" href="#E"><stop offset="0" stop-color="#13e7b4"/><stop offset="1" stop-color="#12b9cf"/></linearGradient><linearGradient id="C" x1="265.6" y1="446.8" x2="224.2" y2="548.5" href="#E"><stop offset="0" stop-color="#13b3d3"/><stop offset="1" stop-color="#13d9bc"/></linearGradient><linearGradient id="D" x1="315.9" y1="91.2" x2="86.3" y2="330.2" href="#E"><stop offset="0" stop-color="#12d4bf"/><stop offset="1" stop-color="#13b3d3"/></linearGradient><linearGradient id="E" gradientUnits="userSpaceOnUse"/></defs><g class="A"><path class="B" d="M37.8 184.8l419.5 50.5-112.5 319-51.5 38-61 11-65.5-11-39-47-90-360.5z" fill="url(#A)"/><path d="M421.3,444.3c96.4,55.6,96.4,145.9,0,201.5s-252.6,55.6-349,0-96.4-145.9,0-201.5,252.6-55.6,349,0Z" fill="#13b3d3"/><path d="M422.3,405.3c96.4,55.6,96.4,145.9,0,201.5s-252.6,55.6-349,0-96.4-145.9,0-201.5,252.6-55.6,349,0Z" fill="url(#B)"/><path d="M368.5,435.9c67.1,38.8,67.1,101.6,0,140.4s-176,38.8-243.1,0-67.1-101.6,0-140.4,176-38.8,243.1,0Z" fill="#fff"/><g fill-rule="evenodd"><path d="M295.6,462.2c-5.7-3.3-15-3.3-20.8,0l-30.4,17.6-34.5-20.2c-5.2-3.1-13.8-3.1-19.1,0l-11,6.3c-5.3,3-5.4,7.9-.1,11l34.7,20.3-30.9,17.8c-5.7,3.3-5.7,8.7,0,12l11.3,6.5c5.7,3.3,15,3.3,20.8,0l30.7-17.7,33.6,19.7c5.2,3.1,13.8,3.1,19.1,0l11-6.3c5.3-3,5.4-7.9.1-11l-33.8-19.8,30.6-17.7c5.7-3.3,5.7-8.7,0-12l-11.3-6.5Z" fill="url(#C)"/><path d="M360 304.5c17.3-14.5 27.6-39.8 27.6-73.9 0-78.7-55.3-174.4-123.4-213.7C196-22.5 140.8 9.4 140.8 88.1s10.8 73 28.8 108.1l96.1 235.4L360 304.5z" fill="#13b3d3"/><path d="M322 315.5c17.3-14.5 27.6-39.8 27.6-73.9 0-78.7-55.3-174.4-123.4-213.7-68.2-39.4-123.4-7.5-123.4 71.2s10.8 73 28.8 108.1l96.1 235.4L322 315.5z" fill="url(#D)"/></g><path d="M226.2,97.6c29.9,17.3,54.1,59.3,54.1,93.8s-24.2,48.5-54.1,31.3-54.1-59.3-54.1-93.8,24.2-48.5,54.1-31.3Z" fill="#fff"/></g></svg>