<?xml version="1.0" encoding="UTF-8"?>
<svg xmlns="http://www.w3.org/2000/svg" xmlns:xlink="http://www.w3.org/1999/xlink" version="1.1" viewBox="0 0 432.3 678.3">
  <defs>
    <style>
      .cls-1 {
        fill: url(#linear-gradient-5);
      }

      .cls-1, .cls-2, .cls-3, .cls-4, .cls-5, .cls-6 {
        fill-rule: evenodd;
      }

      .cls-2 {
        fill: url(#linear-gradient-7);
      }

      .cls-3 {
        fill: url(#linear-gradient-3);
      }

      .cls-4 {
        fill: url(#linear-gradient-4);
      }

      .cls-5 {
        fill: url(#linear-gradient-6);
      }

      .cls-6, .cls-7 {
        fill: #fff;
      }

      .cls-8 {
        fill: url(#linear-gradient-2);
      }

      .cls-9 {
        fill: #13b3d3;
      }

      .cls-10 {
        isolation: isolate;
      }

      .cls-11 {
        mix-blend-mode: screen;
      }

      .cls-12 {
        fill: #68ffd5;
        stroke: url(#linear-gradient);
        stroke-width: 50px;
      }
    </style>
    <linearGradient id="linear-gradient" x1="139.8" y1="336.8" x2="292.6" y2="72.2" gradientTransform="translate(0 732) scale(1 -1)" gradientUnits="userSpaceOnUse">
      <stop offset="1" stop-color="#13b3d3" stop-opacity=".7"/>
      <stop offset="1" stop-color="#000"/>
    </linearGradient>
    <linearGradient id="linear-gradient-2" x1="212.5" y1="617.1" x2="212.4" y2="242.7" gradientTransform="translate(0 732) scale(1 -1)" gradientUnits="userSpaceOnUse">
      <stop offset=".3" stop-color="#9fffd4" stop-opacity="0"/>
      <stop offset=".6" stop-color="#9fffd4" stop-opacity=".1"/>
      <stop offset="1" stop-color="#9fffd4" stop-opacity=".5"/>
    </linearGradient>
    <linearGradient id="linear-gradient-3" x1="295.4" y1="599.7" x2="137.3" y2="348" gradientTransform="translate(0 732) scale(1 -1)" gradientUnits="userSpaceOnUse">
      <stop offset="0" stop-color="#13edb1"/>
      <stop offset="1" stop-color="#13b3d3"/>
    </linearGradient>
    <linearGradient id="linear-gradient-4" x1="295.4" y1="599.7" x2="137.3" y2="348" gradientTransform="translate(0 732) scale(1 -1)" gradientUnits="userSpaceOnUse">
      <stop offset="0" stop-color="#13edb1"/>
      <stop offset="1" stop-color="#13b3d3"/>
    </linearGradient>
    <linearGradient id="linear-gradient-5" x1="295.4" y1="599.7" x2="137.3" y2="348" gradientTransform="translate(0 732) scale(1 -1)" gradientUnits="userSpaceOnUse">
      <stop offset="0" stop-color="#13edb1"/>
      <stop offset="1" stop-color="#13b3d3"/>
    </linearGradient>
    <linearGradient id="linear-gradient-6" x1="295.4" y1="599.7" x2="137.3" y2="348" gradientTransform="translate(0 732) scale(1 -1)" gradientUnits="userSpaceOnUse">
      <stop offset="0" stop-color="#13edb1"/>
      <stop offset="1" stop-color="#13b3d3"/>
    </linearGradient>
    <linearGradient id="linear-gradient-7" x1="95.7" y1="340.4" x2="358.4" y2="622.3" gradientTransform="translate(0 732) scale(1 -1)" gradientUnits="userSpaceOnUse">
      <stop offset="0" stop-color="#13edb1"/>
      <stop offset="1" stop-color="#13b3d3"/>
    </linearGradient>
  </defs>
  <!-- Generator: Adobe Illustrator 28.7.1, SVG Export Plug-In . SVG Version: 1.2.0 Build 142)  -->
  <g class="cls-10">
    <g id="Layer_1">
      <path class="cls-9" d="M369.1,465.2c84.4,48.7,84.4,127.8,0,176.5-84.4,48.8-221.3,48.8-305.7,0-84.4-48.7-84.4-127.8,0-176.5,84.4-48.7,221.3-48.8,305.7,0Z"/>
      <path class="cls-12" d="M347.4,451.7c72.4,41.8,72.4,109.6,0,151.5-72.5,41.9-190,41.9-262.4,0-72.4-41.8-72.4-109.6,0-151.5,72.5-41.9,190-41.9,262.4,0Z"/>
      <path class="cls-8" d="M57.5,115h310v374.4l-2,21.8-6,18.1-7.5,14.6-9,12.6-9.5,9.8-10,9.1-10.5,7.7-12.5,8.4-13.5,6.3-14,5.6-13.5,3.5-27,4.9-27.5,1.4-32.5-4.9-15.5-3.5-13.5-4.9-14.5-7-14-7.7-8.5-6.3-8-7-14-13.3-5-6.3-5-7.7-7.5-16.7-5-11.9-1.5-7.3-3-19.3V115Z"/>
      <g class="cls-11">
        <path class="cls-6" d="M263.3,474.6c-5.7-3.3-15-3.3-20.8,0l-30.4,17.6-34.5-20.2c-5.2-3.1-13.8-3.1-19.1,0l-11,6.3c-5.3,3-5.4,7.9-.1,11l34.7,20.3-30.9,17.8c-5.7,3.3-5.7,8.7,0,12l11.3,6.5c5.7,3.3,15,3.3,20.8,0l30.7-17.7,33.6,19.7c5.2,3.1,13.8,3.1,19.1,0l11-6.3c5.3-3,5.4-7.9.1-11l-33.8-19.8,30.6-17.7c5.7-3.3,5.7-8.7,0-12l-11.3-6.5Z"/>
      </g>
      <path class="cls-3" d="M251.1,104.5L107.5,14.3v350.9l217.7,136.8V241.9l-74.1-137.4Z"/>
      <path class="cls-4" d="M251.1,104.5L107.5,14.3v350.9l217.7,136.8V241.9l-74.1-137.4Z"/>
      <path class="cls-1" d="M251.1,104.5L107.5,14.3v350.9l217.7,136.8V241.9l-74.1-137.4Z"/>
      <path class="cls-5" d="M251.1,104.5L107.5,14.3v350.9l217.7,136.8V241.9l-74.1-137.4Z"/>
      <path class="cls-2" d="M107.5,15.1L131.6,0l137.6,89.2h0s0,0,0,0l77.3,137.5h.2c0-.1,0,259.4,0,259.4l-24.1,15.1V241.9h0s-73.8-138.3-73.8-138.3h-.1c0,.1-141.1-88.5-141.1-88.5Z"/>
      <g class="cls-11">
        <polygon class="cls-7" points="118.5 174 301.2 279.5 301.2 286.5 118.5 181 118.5 174"/>
      </g>
      <g class="cls-11">
        <polygon class="cls-7" points="118.5 213 222.4 273 222.4 280 118.5 220 118.5 213"/>
      </g>
      <g class="cls-11">
        <polygon class="cls-7" points="227.6 276 301.2 318.5 301.2 325.5 227.6 283 227.6 276"/>
      </g>
      <g class="cls-11">
        <polygon class="cls-7" points="227.6 302 301.2 344.5 301.2 351.5 227.6 309 227.6 302"/>
      </g>
      <g class="cls-11">
        <polygon class="cls-7" points="118.5 200 301.2 305.5 301.2 312.5 118.5 207 118.5 200"/>
      </g>
      <g class="cls-11">
        <polygon class="cls-7" points="118.5 187 301.2 292.5 301.2 299.5 118.5 194 118.5 187"/>
      </g>
      <g class="cls-11">
        <polygon class="cls-7" points="118.5 226 301.2 331.5 301.2 338.5 118.5 233 118.5 226"/>
      </g>
      <g class="cls-11">
        <polygon class="cls-7" points="118.5 265 301.2 370.5 301.2 377.5 118.5 272 118.5 265"/>
      </g>
      <g class="cls-11">
        <polygon class="cls-7" points="118.5 252 301.2 357.5 301.2 364.5 118.5 259 118.5 252"/>
      </g>
      <g class="cls-11">
        <polygon class="cls-7" points="118.5 239 222.4 299 222.4 306 118.5 246 118.5 239"/>
      </g>
      <path class="cls-7" d="M125.8,96.5c-1-.6-1.8-1.2-2.7-2.1-.8-.8-1.5-1.7-2.1-2.7-.6-1-1.1-2-1.4-3.1-.3-1.1-.5-2.1-.5-3.2s.2-1.9.5-2.6c.3-.7.8-1.2,1.4-1.5.6-.3,1.3-.4,2.1-.3.8.1,1.7.4,2.6,1,1,.6,1.8,1.2,2.6,2.1.8.8,1.5,1.7,2.1,2.7.6,1,1.1,2,1.4,3.1.3,1.1.5,2.1.5,3.2s-.2,1.9-.5,2.6c-.3.7-.8,1.2-1.4,1.5-.6.3-1.3.4-2.1.3-.8-.1-1.7-.4-2.6-1ZM125.8,93.7c.5.3,1,.5,1.5.5.5,0,.9,0,1.2-.2.3-.2.6-.5.8-1,.2-.4.3-1,.3-1.6s0-1.3-.3-2c-.2-.7-.4-1.3-.8-1.9-.3-.6-.7-1.1-1.2-1.6-.5-.5-1-.9-1.5-1.2-.5-.3-1-.5-1.5-.5-.4,0-.8,0-1.2.2-.3.2-.6.5-.8,1-.2.4-.3,1-.3,1.7s0,1.3.3,2c.2.7.5,1.3.8,1.9.3.6.8,1.1,1.2,1.6.5.5,1,.9,1.5,1.2ZM134.5,101.3v-14l5.2,3c1.1.6,2,1.4,2.8,2.2.8.9,1.4,1.8,1.8,2.8.4,1,.6,2,.6,3.1s-.2,1.8-.6,2.3c-.4.5-1,.8-1.8.7-.8,0-1.7-.4-2.8-1l-3.7-2.1,1.2-.7v5.3l-2.8-1.6ZM137.3,97.9l-1.2-2.3,3.5,2c.9.5,1.5.7,1.9.5s.6-.7.6-1.4-.2-1.5-.6-2.2-1.1-1.3-1.9-1.8l-3.5-2,1.2-.8v7.9ZM145.1,109.2v-1.8l8.7,5v1.8l-8.7-5ZM155.7,113.5v-14l2.3,1.3,7.2,14.2-1.1-.7v-10.1l2.8,1.6v14l-2.3-1.3-7.2-14.2,1.1.7v10.1l-2.8-1.6ZM175.6,125.2c-1-.6-1.8-1.2-2.7-2.1-.8-.8-1.5-1.7-2.1-2.7-.6-1-1.1-2-1.4-3.1-.3-1.1-.5-2.1-.5-3.2s.2-1.9.5-2.6c.3-.7.8-1.2,1.4-1.5.6-.3,1.3-.4,2.1-.3.8.1,1.7.4,2.6,1,1,.6,1.8,1.2,2.6,2.1.8.8,1.5,1.7,2.1,2.7.6,1,1.1,2,1.4,3.1.3,1.1.5,2.1.5,3.2s-.2,1.9-.5,2.6c-.3.7-.8,1.2-1.4,1.5-.6.3-1.3.4-2.1.3-.8,0-1.7-.4-2.6-1ZM175.6,122.5c.5.3,1,.5,1.5.5.5,0,.9,0,1.2-.2.3-.2.6-.5.8-1,.2-.4.3-1,.3-1.7s0-1.3-.3-2c-.2-.7-.5-1.3-.8-1.9-.3-.6-.7-1.1-1.2-1.6-.5-.5-1-.9-1.5-1.2-.5-.3-1-.5-1.5-.6-.5,0-.8,0-1.2.2-.3.2-.6.5-.8.9-.2.4-.3,1-.3,1.7s0,1.3.3,2c.2.7.5,1.3.8,1.9.3.6.8,1.1,1.2,1.6.5.5,1,.9,1.5,1.2ZM184.3,130v-14l5.2,3c1.1.6,2,1.4,2.8,2.2.8.9,1.4,1.8,1.8,2.8.4,1,.6,2,.6,3.1s-.2,1.8-.6,2.3-1,.8-1.8.7c-.8,0-1.7-.4-2.8-1l-3.7-2.1,1.2-.7v5.3l-2.8-1.6ZM187.1,126.7l-1.2-2.3,3.5,2c.9.5,1.5.7,1.9.5s.6-.7.6-1.4-.2-1.5-.6-2.2c-.4-.7-1.1-1.3-1.9-1.8l-3.5-2,1.2-.8v7.9ZM122.5,110.6l5.8,3.4v2.6l-5.8-3.4v-2.6ZM122.7,118.4l-2.8-1.6v-14l9.2,5.3v2.6l-6.4-3.7v11.4ZM134.5,125.4c-.8-.4-1.5-1-2.1-1.7-.6-.7-1.1-1.5-1.4-2.4-.3-.9-.5-1.9-.5-3v-6.1l2.7,1.6v5.6c0,.9.2,1.6.5,2.3.3.6.8,1.1,1.4,1.4.4.2.8.4,1.1.3.3,0,.6-.2.8-.5.2-.3.3-.8.3-1.5v-5.3l2.7,1.6v10.8l-2.6-1.5v-3l.5,1.1c-.3.6-.8.9-1.4.9-.6,0-1.3-.2-2-.6ZM148.1,122.2c.7.4,1.4,1,2,1.7.6.7,1.1,1.5,1.4,2.4.3.9.5,1.9.5,3v6.2l-2.7-1.6v-5.7c0-.9-.2-1.6-.5-2.2-.3-.6-.8-1.1-1.4-1.4-.4-.2-.8-.4-1.2-.3-.3,0-.6.2-.8.5-.2.3-.3.8-.3,1.5v5.3l-2.7-1.6v-10.8l2.6,1.5v3l-.5-1.2c.3-.5.8-.8,1.4-.8.6,0,1.3.2,2.1.7ZM159,139.6c-1-.6-1.9-1.3-2.7-2.2-.8-.9-1.4-1.9-1.9-3.1-.4-1.1-.7-2.2-.7-3.2s.2-1.9.7-2.5c.4-.6,1.1-.9,1.9-.9.8,0,1.7.2,2.7.8,1,.6,1.8,1.3,2.6,2.2.7.9,1.3,1.9,1.6,3h-2.1c-.2-.6-.5-1.1-.9-1.6-.4-.4-.8-.8-1.2-1-.5-.3-.9-.4-1.2-.4-.4,0-.7.2-.9.5-.2.3-.3.8-.3,1.4s.1,1.2.3,1.8c.2.6.5,1.1.9,1.5.4.5.8.8,1.2,1.1.4.2.8.4,1.2.3.4,0,.7-.2.9-.6l2.1,2.5c-.3.7-.9,1-1.6,1.1-.7,0-1.6-.2-2.6-.8ZM168.7,145.1c-1.1-.6-2-1.4-2.6-2.4-.6-1-.9-2.1-.9-3.4v-9.4l2.7,1.6v9.4c0,.5.1.9.3,1.2.2.4.5.6.8.9.4.2.8.3,1.1.2l.7,2.6c-.3,0-.6,0-1,0-.4-.1-.8-.3-1.2-.5ZM163.7,134v-2.4l6.5,3.7v2.4l-6.5-3.7ZM172.4,147.1v-10.8l2.7,1.6v10.8l-2.7-1.6ZM173.7,135.6c-.5-.3-.9-.7-1.2-1.2-.3-.5-.5-1-.5-1.5s.2-.8.5-1c.3-.2.7,0,1.2.2.5.3.9.7,1.2,1.2.3.5.5,1,.5,1.5s-.2.9-.5,1c-.3.2-.7,0-1.2-.2ZM182,152.9c-1-.6-1.9-1.3-2.6-2.2-.8-.9-1.4-1.9-1.8-3-.4-1.1-.7-2.2-.7-3.2s.2-1.9.7-2.5c.5-.6,1.1-.9,1.8-.9.8,0,1.7.2,2.6.8,1,.6,1.9,1.3,2.6,2.2.8.9,1.4,1.9,1.8,3s.7,2.2.7,3.3-.2,1.9-.7,2.5c-.4.6-1,.9-1.8.9-.8,0-1.7-.2-2.6-.8ZM182,150.3c.5.3.9.4,1.2.3s.6-.2.8-.5c.2-.3.3-.8.3-1.4s-.1-1.2-.3-1.8-.5-1.1-.8-1.5c-.4-.4-.8-.8-1.2-1.1-.5-.3-.9-.4-1.2-.3s-.6.2-.9.5c-.2.3-.3.8-.3,1.4s.1,1.2.3,1.8c.2.6.5,1.1.9,1.5.4.4.8.8,1.2,1.1ZM194.6,149c.7.4,1.4,1,2,1.7.6.7,1,1.5,1.4,2.4.3.9.5,1.9.5,3v6.2l-2.7-1.6v-5.7c0-.9-.2-1.6-.5-2.2-.3-.6-.8-1.1-1.4-1.4-.4-.2-.8-.4-1.2-.4-.3,0-.6.2-.8.5-.2.3-.3.8-.3,1.5v5.3l-2.7-1.6v-10.8l2.6,1.5v3l-.5-1.2c.3-.5.8-.8,1.4-.8.6,0,1.3.2,2.1.6ZM204,165.6c-.8-.5-1.6-1-2.3-1.6-.7-.6-1.3-1.3-1.7-1.8l.9-1.7c.4.6.9,1.1,1.5,1.6.6.5,1.2,1,1.7,1.3.6.4,1.1.5,1.3.5.3,0,.4-.2.4-.5s-.1-.5-.3-.7c-.2-.2-.5-.5-.8-.8-.3-.3-.7-.5-1.1-.8-.4-.3-.8-.6-1.2-1-.4-.4-.8-.7-1.1-1.2-.3-.4-.6-.9-.8-1.4-.2-.5-.3-1.1-.3-1.7s.2-1.2.5-1.5c.3-.3.8-.4,1.5-.4.6,0,1.4.4,2.3.9.6.4,1.3.8,1.9,1.4.7.5,1.2,1.1,1.6,1.6l-.9,1.7c-.5-.6-.9-1-1.4-1.4-.5-.4-.9-.7-1.3-.9-.6-.3-1-.5-1.3-.5-.3,0-.4.2-.4.5s0,.5.3.8c.2.3.5.5.8.8.3.3.7.6,1.1.8.4.3.8.6,1.2,1,.4.4.8.7,1.1,1.1.3.4.6.9.8,1.4.2.5.3,1,.3,1.7s-.2,1.2-.5,1.5c-.3.3-.8.4-1.5.3-.6,0-1.4-.4-2.4-.9Z"/>
    </g>
  </g>
</svg>