<svg width="612" height="730" viewBox="0 0 612 730" fill="none" xmlns="http://www.w3.org/2000/svg">
<path d="M458.593 465.231C542.994 513.96 542.964 592.981 458.527 641.731C374.091 690.481 237.221 690.498 152.821 641.769C68.4201 593.04 68.4495 514.019 152.886 465.269C237.323 416.52 374.193 416.503 458.593 465.231Z" fill="#13B3D3"/>
<path d="M436.943 451.731C509.377 493.551 509.365 561.38 436.877 603.231C364.388 645.082 246.906 645.089 174.471 603.269C102.037 561.449 102.049 493.62 174.537 451.769C247.025 409.918 364.508 409.911 436.943 451.731Z" fill="#68FFD5" stroke="url(#paint0_linear_149_20)" stroke-width="50"/>
<path d="M147 115H457V489.402L455 511.168L449 529.303L441.5 543.95L432.5 556.504L423 566.269L413 575.336L402.5 583.008L390 591.378L376.5 597.655L362.5 603.235L349 606.723L322 611.605L294.5 613L262 608.118L246.5 604.63L233 599.748L218.5 592.773L204.5 585.101L196 578.824L188 571.849L174 558.597L169 552.319L164 544.647L156.5 527.908L151.5 516.05L150 508.712L147 489.402V115Z" fill="url(#paint1_linear_149_20)"/>
<g style="mix-blend-mode:screen">
<path fill-rule="evenodd" clip-rule="evenodd" d="M352.868 474.642C347.128 471.328 337.823 471.328 332.083 474.642L301.673 492.2L267.166 472.015C261.939 468.958 253.405 468.923 248.105 471.938L237.086 478.205C231.786 481.22 231.726 486.142 236.953 489.199L271.683 509.514L240.803 527.343C235.063 530.656 235.063 536.029 240.803 539.343L252.113 545.873C257.852 549.186 267.158 549.186 272.898 545.873L303.568 528.165L337.172 547.822C342.398 550.879 350.932 550.914 356.233 547.899L367.251 541.632C372.552 538.617 372.611 533.695 367.385 530.637L333.558 510.851L364.178 493.172C369.918 489.858 369.918 484.486 364.178 481.172L352.868 474.642Z" fill="white"/>
</g>
<path fill-rule="evenodd" clip-rule="evenodd" d="M340.654 104.534L197 14.3066V365.244L414.734 502V241.946L340.654 104.534Z" fill="url(#paint2_linear_149_20)"/>
<path fill-rule="evenodd" clip-rule="evenodd" d="M340.654 104.534L197 14.3066V365.244L414.734 502V241.946L340.654 104.534Z" fill="url(#paint3_linear_149_20)"/>
<path fill-rule="evenodd" clip-rule="evenodd" d="M340.654 104.534L197 14.3066V365.244L414.734 502V241.946L340.654 104.534Z" fill="url(#paint4_linear_149_20)"/>
<path fill-rule="evenodd" clip-rule="evenodd" d="M340.654 104.534L197 14.3066V365.244L414.734 502V241.946L340.654 104.534Z" fill="url(#paint5_linear_149_20)"/>
<path fill-rule="evenodd" clip-rule="evenodd" d="M197 15.1484L221.118 0L358.68 89.2063L358.681 89.207L358.68 89.2074L435.984 226.738L436.177 226.617V486.111L412.059 501.259V241.942L412.048 241.949L338.254 103.669L338.105 103.775L197 15.1484Z" fill="url(#paint6_linear_149_20)"/>
<g style="mix-blend-mode:screen">
<rect width="211" height="7" transform="matrix(0.866025 0.5 0 1 208 174)" fill="white"/>
</g>
<g style="mix-blend-mode:screen">
<rect width="120" height="7" transform="matrix(0.866025 0.5 0 1 208 213)" fill="white"/>
</g>
<g style="mix-blend-mode:screen">
<rect width="85" height="7" transform="matrix(0.866025 0.5 0 1 317.117 276)" fill="white"/>
</g>
<g style="mix-blend-mode:screen">
<rect width="85" height="7" transform="matrix(0.866025 0.5 0 1 317.117 302)" fill="white"/>
</g>
<g style="mix-blend-mode:screen">
<rect width="211" height="7" transform="matrix(0.866025 0.5 0 1 208 200)" fill="white"/>
</g>
<g style="mix-blend-mode:screen">
<rect width="211" height="7" transform="matrix(0.866025 0.5 0 1 208 187)" fill="white"/>
</g>
<g style="mix-blend-mode:screen">
<rect width="211" height="7" transform="matrix(0.866025 0.5 0 1 208 226)" fill="white"/>
</g>
<g style="mix-blend-mode:screen">
<rect width="211" height="7" transform="matrix(0.866025 0.5 0 1 208 265)" fill="white"/>
</g>
<g style="mix-blend-mode:screen">
<rect width="211" height="7" transform="matrix(0.866025 0.5 0 1 208 252)" fill="white"/>
</g>
<g style="mix-blend-mode:screen">
<rect width="120" height="7" transform="matrix(0.866025 0.5 0 1 208 239)" fill="white"/>
</g>
<g filter="url(#filter0_d_149_20)">
<path d="M215.327 96.47C214.368 95.9167 213.479 95.2233 212.659 94.39C211.851 93.5633 211.147 92.65 210.546 91.65C209.957 90.6567 209.495 89.6233 209.16 88.55C208.837 87.4833 208.675 86.43 208.675 85.39C208.675 84.35 208.837 83.4833 209.16 82.79C209.495 82.1033 209.963 81.6067 210.563 81.3C211.164 80.9933 211.868 80.8933 212.677 81C213.485 81.1067 214.362 81.4333 215.309 81.98C216.268 82.5333 217.145 83.22 217.942 84.04C218.75 84.8667 219.449 85.7767 220.038 86.77C220.638 87.77 221.106 88.8067 221.441 89.88C221.776 90.94 221.943 91.9967 221.943 93.05C221.943 94.09 221.776 94.96 221.441 95.66C221.106 96.3467 220.638 96.8433 220.038 97.15C219.449 97.45 218.75 97.5467 217.942 97.44C217.145 97.34 216.273 97.0167 215.327 96.47ZM215.309 93.7C215.852 94.0133 216.348 94.1933 216.799 94.24C217.261 94.2933 217.665 94.22 218.011 94.02C218.358 93.82 218.623 93.5 218.808 93.06C219.004 92.6267 219.102 92.0767 219.102 91.41C219.102 90.7433 219.004 90.08 218.808 89.42C218.623 88.7667 218.358 88.14 218.011 87.54C217.676 86.9467 217.278 86.41 216.816 85.93C216.354 85.45 215.852 85.0533 215.309 84.74C214.767 84.4267 214.264 84.2433 213.802 84.19C213.352 84.1433 212.954 84.22 212.607 84.42C212.261 84.62 211.989 84.9367 211.793 85.37C211.608 85.81 211.516 86.3633 211.516 87.03C211.516 87.6833 211.608 88.3433 211.793 89.01C211.989 89.67 212.255 90.2967 212.59 90.89C212.936 91.49 213.34 92.03 213.802 92.51C214.264 92.99 214.767 93.3867 215.309 93.7ZM224.052 101.268V87.2675L229.3 90.2975C230.385 90.9242 231.321 91.6708 232.106 92.5375C232.891 93.3908 233.497 94.3208 233.924 95.3275C234.352 96.3342 234.565 97.3642 234.565 98.4175C234.565 99.4575 234.352 100.234 233.924 100.748C233.497 101.261 232.891 101.498 232.106 101.458C231.321 101.404 230.385 101.064 229.3 100.438L225.611 98.3075L226.858 97.5675V102.888L224.052 101.268ZM226.858 97.9275L225.611 95.6675L229.144 97.7075C230.01 98.2075 230.657 98.3675 231.084 98.1875C231.511 98.0075 231.725 97.5375 231.725 96.7775C231.725 96.0042 231.511 95.2808 231.084 94.6075C230.657 93.9342 230.01 93.3475 229.144 92.8475L225.611 90.8075L226.858 89.9875V97.9275ZM234.657 109.191V107.391L243.318 112.391V114.191L234.657 109.191ZM245.28 113.523V99.5234L247.6 100.863L254.754 115.073L253.628 114.423V104.343L256.399 105.943V119.943L254.096 118.613L246.925 104.393L248.051 105.043V115.123L245.28 113.523ZM265.157 125.24C264.198 124.686 263.309 123.993 262.49 123.16C261.681 122.333 260.977 121.42 260.376 120.42C259.788 119.426 259.326 118.393 258.991 117.32C258.667 116.253 258.506 115.2 258.506 114.16C258.506 113.12 258.667 112.253 258.991 111.56C259.326 110.873 259.793 110.376 260.394 110.07C260.994 109.763 261.699 109.663 262.507 109.77C263.315 109.876 264.193 110.203 265.14 110.75C266.098 111.303 266.976 111.99 267.772 112.81C268.581 113.636 269.279 114.546 269.868 115.54C270.468 116.54 270.936 117.576 271.271 118.65C271.606 119.71 271.773 120.766 271.773 121.82C271.773 122.86 271.606 123.73 271.271 124.43C270.936 125.116 270.468 125.613 269.868 125.92C269.279 126.22 268.581 126.316 267.772 126.21C266.976 126.11 266.104 125.786 265.157 125.24ZM265.14 122.47C265.682 122.783 266.179 122.963 266.629 123.01C267.091 123.063 267.495 122.99 267.842 122.79C268.188 122.59 268.454 122.27 268.638 121.83C268.835 121.396 268.933 120.846 268.933 120.18C268.933 119.513 268.835 118.85 268.638 118.19C268.454 117.536 268.188 116.91 267.842 116.31C267.507 115.716 267.108 115.18 266.646 114.7C266.185 114.22 265.682 113.823 265.14 113.51C264.597 113.196 264.095 113.013 263.633 112.96C263.182 112.913 262.784 112.99 262.438 113.19C262.091 113.39 261.82 113.706 261.623 114.14C261.439 114.58 261.346 115.133 261.346 115.8C261.346 116.453 261.439 117.113 261.623 117.78C261.82 118.44 262.085 119.066 262.42 119.66C262.767 120.26 263.171 120.8 263.633 121.28C264.095 121.76 264.597 122.156 265.14 122.47ZM273.882 130.037V116.037L279.13 119.067C280.216 119.694 281.151 120.44 281.936 121.307C282.721 122.16 283.328 123.09 283.755 124.097C284.182 125.104 284.396 126.134 284.396 127.187C284.396 128.227 284.182 129.004 283.755 129.517C283.328 130.03 282.721 130.267 281.936 130.227C281.151 130.174 280.216 129.834 279.13 129.207L275.441 127.077L276.688 126.337V131.657L273.882 130.037ZM276.688 126.697L275.441 124.437L278.974 126.477C279.84 126.977 280.487 127.137 280.914 126.957C281.341 126.777 281.555 126.307 281.555 125.547C281.555 124.774 281.341 124.05 280.914 123.377C280.487 122.704 279.84 122.117 278.974 121.617L275.441 119.577L276.688 118.757V126.697ZM212.036 110.63L217.855 113.99V116.59L212.036 113.23V110.63ZM212.244 118.45L209.438 116.83V102.83L218.6 108.12V110.72L212.244 107.05V118.45ZM224.021 125.41C223.247 124.963 222.555 124.39 221.943 123.69C221.342 122.996 220.875 122.2 220.54 121.3C220.205 120.386 220.037 119.376 220.037 118.27V112.19L222.739 113.75V119.37C222.739 120.263 222.901 121.016 223.224 121.63C223.559 122.236 224.027 122.713 224.627 123.06C225.043 123.3 225.412 123.413 225.736 123.4C226.059 123.373 226.313 123.2 226.498 122.88C226.683 122.546 226.775 122.053 226.775 121.4V116.08L229.477 117.64V128.4L226.914 126.92V123.96L227.381 125.09C227.069 125.656 226.608 125.956 225.996 125.99C225.395 126.016 224.737 125.823 224.021 125.41ZM237.644 122.195C238.383 122.622 239.041 123.175 239.619 123.855C240.207 124.528 240.669 125.315 241.004 126.215C241.339 127.102 241.507 128.092 241.507 129.185V135.345L238.805 133.785V128.105C238.805 127.238 238.637 126.502 238.302 125.895C237.979 125.295 237.517 124.822 236.917 124.475C236.489 124.228 236.103 124.112 235.756 124.125C235.421 124.132 235.156 124.292 234.959 124.605C234.775 124.925 234.682 125.418 234.682 126.085V131.405L231.98 129.845V119.085L234.561 120.575V123.555L234.076 122.375C234.411 121.848 234.89 121.572 235.514 121.545C236.137 121.518 236.847 121.735 237.644 122.195ZM248.527 139.558C247.522 138.978 246.627 138.228 245.842 137.308C245.057 136.375 244.439 135.358 243.989 134.258C243.55 133.165 243.331 132.085 243.331 131.018C243.331 129.938 243.55 129.111 243.989 128.538C244.439 127.958 245.057 127.661 245.842 127.648C246.627 127.621 247.522 127.898 248.527 128.478C249.508 129.045 250.363 129.778 251.09 130.678C251.818 131.565 252.355 132.548 252.701 133.628L250.605 133.718C250.363 133.071 250.057 132.521 249.687 132.068C249.329 131.621 248.937 131.275 248.509 131.028C248.048 130.761 247.632 130.641 247.262 130.668C246.893 130.695 246.598 130.865 246.379 131.178C246.171 131.498 246.067 131.971 246.067 132.598C246.067 133.225 246.171 133.818 246.379 134.378C246.598 134.945 246.893 135.455 247.262 135.908C247.632 136.361 248.048 136.721 248.509 136.988C248.937 137.235 249.329 137.348 249.687 137.328C250.057 137.301 250.363 137.098 250.605 136.718L252.701 139.248C252.355 139.915 251.818 140.278 251.09 140.338C250.363 140.385 249.508 140.125 248.527 139.558ZM258.203 145.144C257.106 144.511 256.251 143.698 255.639 142.704C255.027 141.698 254.721 140.554 254.721 139.274V129.834L257.423 131.394V140.794C257.423 141.248 257.527 141.661 257.735 142.034C257.943 142.394 258.226 142.678 258.584 142.884C259.011 143.131 259.375 143.208 259.675 143.114L260.402 145.734C260.125 145.801 259.79 145.781 259.398 145.674C259.017 145.561 258.618 145.384 258.203 145.144ZM253.284 134.024V131.624L259.744 135.354V137.754L253.284 134.024ZM261.919 147.13V136.37L264.621 137.93V148.69L261.919 147.13ZM263.27 135.65C262.773 135.363 262.369 134.963 262.058 134.45C261.746 133.937 261.59 133.433 261.59 132.94C261.59 132.447 261.746 132.123 262.058 131.97C262.369 131.817 262.773 131.883 263.27 132.17C263.767 132.457 264.171 132.85 264.482 133.35C264.794 133.837 264.95 134.327 264.95 134.82C264.95 135.34 264.794 135.683 264.482 135.85C264.182 136.01 263.778 135.943 263.27 135.65ZM271.563 152.858C270.57 152.285 269.686 151.535 268.913 150.608C268.151 149.688 267.544 148.685 267.094 147.598C266.655 146.505 266.436 145.425 266.436 144.358C266.436 143.278 266.655 142.451 267.094 141.878C267.544 141.298 268.151 140.995 268.913 140.968C269.686 140.935 270.57 141.205 271.563 141.778C272.544 142.345 273.422 143.091 274.195 144.018C274.969 144.931 275.575 145.928 276.014 147.008C276.453 148.088 276.672 149.175 276.672 150.268C276.672 151.335 276.453 152.161 276.014 152.748C275.575 153.321 274.969 153.625 274.195 153.658C273.422 153.691 272.544 153.425 271.563 152.858ZM271.563 150.298C272.013 150.558 272.417 150.671 272.775 150.638C273.133 150.605 273.416 150.428 273.624 150.108C273.832 149.775 273.936 149.301 273.936 148.688C273.936 148.061 273.832 147.468 273.624 146.908C273.416 146.348 273.133 145.845 272.775 145.398C272.417 144.951 272.013 144.598 271.563 144.338C271.112 144.078 270.708 143.965 270.35 143.998C269.992 144.031 269.704 144.205 269.484 144.518C269.276 144.838 269.173 145.311 269.173 145.938C269.173 146.551 269.276 147.145 269.484 147.718C269.704 148.285 269.992 148.791 270.35 149.238C270.708 149.685 271.112 150.038 271.563 150.298ZM284.142 149.041C284.881 149.467 285.539 150.021 286.117 150.701C286.706 151.374 287.167 152.161 287.502 153.061C287.837 153.947 288.005 154.937 288.005 156.031V162.191L285.303 160.631V154.951C285.303 154.084 285.135 153.347 284.8 152.741C284.477 152.141 284.015 151.667 283.415 151.321C282.987 151.074 282.601 150.957 282.254 150.971C281.919 150.977 281.654 151.137 281.457 151.451C281.273 151.771 281.18 152.264 281.18 152.931V158.251L278.478 156.691V145.931L281.059 147.421V150.401L280.574 149.221C280.909 148.694 281.388 148.417 282.012 148.391C282.635 148.364 283.345 148.581 284.142 149.041ZM293.589 165.575C292.792 165.115 292.024 164.565 291.285 163.925C290.558 163.278 289.98 162.665 289.553 162.085L290.454 160.365C290.881 160.918 291.383 161.461 291.961 161.995C292.55 162.521 293.127 162.948 293.693 163.275C294.316 163.635 294.755 163.801 295.009 163.775C295.275 163.755 295.408 163.591 295.408 163.285C295.408 163.031 295.304 162.785 295.096 162.545C294.899 162.298 294.634 162.045 294.299 161.785C293.964 161.525 293.595 161.245 293.191 160.945C292.798 160.651 292.4 160.335 291.995 159.995C291.591 159.641 291.222 159.255 290.887 158.835C290.552 158.415 290.281 157.951 290.073 157.445C289.877 156.945 289.778 156.388 289.778 155.775C289.778 155.095 289.946 154.591 290.281 154.265C290.627 153.945 291.124 153.825 291.77 153.905C292.417 153.971 293.191 154.265 294.091 154.785C294.726 155.151 295.373 155.605 296.031 156.145C296.689 156.685 297.238 157.235 297.677 157.795L296.776 159.495C296.326 158.928 295.869 158.458 295.408 158.085C294.957 157.705 294.518 157.391 294.091 157.145C293.491 156.798 293.052 156.638 292.775 156.665C292.498 156.691 292.359 156.851 292.359 157.145C292.359 157.411 292.457 157.668 292.654 157.915C292.861 158.168 293.133 158.431 293.468 158.705C293.803 158.978 294.166 159.261 294.559 159.555C294.963 159.841 295.367 160.161 295.771 160.515C296.175 160.868 296.539 161.251 296.862 161.665C297.197 162.071 297.469 162.528 297.677 163.035C297.884 163.528 297.988 164.081 297.988 164.695C297.988 165.361 297.815 165.855 297.469 166.175C297.122 166.481 296.62 166.591 295.962 166.505C295.315 166.425 294.524 166.115 293.589 165.575Z" fill="white"/>
</g>
<defs>
<filter id="filter0_d_149_20" x="204.672" y="78.1499" width="97.3203" height="97.9648" filterUnits="userSpaceOnUse" color-interpolation-filters="sRGB">
<feFlood flood-opacity="0" result="BackgroundImageFix"/>
<feColorMatrix in="SourceAlpha" type="matrix" values="0 0 0 0 0 0 0 0 0 0 0 0 0 0 0 0 0 0 127 0" result="hardAlpha"/>
<feOffset dy="4"/>
<feGaussianBlur stdDeviation="2"/>
<feComposite in2="hardAlpha" operator="out"/>
<feColorMatrix type="matrix" values="0 0 0 0 0 0 0 0 0 0 0 0 0 0 0 0 0 0 0.25 0"/>
<feBlend mode="normal" in2="BackgroundImageFix" result="effect1_dropShadow_149_20"/>
<feBlend mode="normal" in="SourceGraphic" in2="effect1_dropShadow_149_20" result="shape"/>
</filter>
<linearGradient id="paint0_linear_149_20" x1="152.886" y1="439.269" x2="305.707" y2="703.962" gradientUnits="userSpaceOnUse">
<stop offset="1" stop-color="#13B3D3" stop-opacity="0.66"/>
</linearGradient>
<linearGradient id="paint1_linear_149_20" x1="302.113" y1="115" x2="301.98" y2="489.402" gradientUnits="userSpaceOnUse">
<stop offset="0.276474" stop-color="#9FFFD4" stop-opacity="0"/>
<stop offset="0.573136" stop-color="#9FFFD4" stop-opacity="0.129348"/>
<stop offset="1" stop-color="#9FFFD4" stop-opacity="0.53"/>
</linearGradient>
<linearGradient id="paint2_linear_149_20" x1="305.867" y1="82.6847" x2="147.803" y2="334.344" gradientUnits="userSpaceOnUse">
<stop stop-color="#13EDB1"/>
<stop offset="1" stop-color="#13B3D3"/>
</linearGradient>
<linearGradient id="paint3_linear_149_20" x1="305.867" y1="82.6847" x2="147.803" y2="334.344" gradientUnits="userSpaceOnUse">
<stop stop-color="#13EDB1"/>
<stop offset="1" stop-color="#13B3D3"/>
</linearGradient>
<linearGradient id="paint4_linear_149_20" x1="305.867" y1="82.6847" x2="147.803" y2="334.344" gradientUnits="userSpaceOnUse">
<stop stop-color="#13EDB1"/>
<stop offset="1" stop-color="#13B3D3"/>
</linearGradient>
<linearGradient id="paint5_linear_149_20" x1="305.867" y1="82.6847" x2="147.803" y2="334.344" gradientUnits="userSpaceOnUse">
<stop stop-color="#13EDB1"/>
<stop offset="1" stop-color="#13B3D3"/>
</linearGradient>
<linearGradient id="paint6_linear_149_20" x1="197" y1="402.498" x2="459.666" y2="120.652" gradientUnits="userSpaceOnUse">
<stop stop-color="#13EDB1"/>
<stop offset="1" stop-color="#13B3D3"/>
</linearGradient>
</defs>
</svg>
