<?xml version="1.0" encoding="UTF-8"?>
<svg xmlns="http://www.w3.org/2000/svg" xmlns:xlink="http://www.w3.org/1999/xlink" version="1.1" viewBox="0 0 494.6 687.6">
  <!-- Generator: Adobe Illustrator 29.4.0, SVG Export Plug-In . SVG Version: 2.1.0 Build 152)  -->
  <defs>
    <style>
      .st0 {
        fill: url(#linear-gradient1);
      }

      .st1 {
        fill: url(#linear-gradient);
      }

      .st2, .st3 {
        fill: #13b3d3;
      }

      .st4 {
        isolation: isolate;
      }

      .st5 {
        fill: #fff;
      }

      .st6 {
        mix-blend-mode: screen;
      }

      .st7 {
        fill: url(#linear-gradient2);
      }

      .st7, .st8, .st3 {
        fill-rule: evenodd;
      }

      .st8 {
        fill: url(#linear-gradient3);
      }
    </style>
    <linearGradient id="linear-gradient" x1="325.9" y1="189.6" x2="245.3" y2="545.7" gradientTransform="translate(0 746) scale(1 -1)" gradientUnits="userSpaceOnUse">
      <stop offset="0" stop-color="#fff" stop-opacity=".3"/>
      <stop offset=".5" stop-color="#13b3d3" stop-opacity=".3"/>
      <stop offset=".8" stop-color="#13b3d3" stop-opacity="0"/>
    </linearGradient>
    <linearGradient id="linear-gradient1" x1="-276" y1="303.3" x2="-70.8" y2="807.1" gradientTransform="translate(-174.3 892.6) rotate(30) scale(1 -.9) skewX(26.6)" gradientUnits="userSpaceOnUse">
      <stop offset="0" stop-color="#13e7b4"/>
      <stop offset="1" stop-color="#12b9cf"/>
    </linearGradient>
    <linearGradient id="linear-gradient2" x1="265.6" y1="299.2" x2="224.2" y2="197.5" gradientTransform="translate(0 746) scale(1 -1)" gradientUnits="userSpaceOnUse">
      <stop offset="0" stop-color="#13b3d3"/>
      <stop offset="1" stop-color="#13d9bc"/>
    </linearGradient>
    <linearGradient id="linear-gradient3" x1="315.9" y1="654.8" x2="86.3" y2="415.8" gradientTransform="translate(0 746) scale(1 -1)" gradientUnits="userSpaceOnUse">
      <stop offset="0" stop-color="#12d4bf"/>
      <stop offset="1" stop-color="#13b3d3"/>
    </linearGradient>
  </defs>
  <g class="st4">
    <g id="Layer_1">
      <g id="Group_146">
        <g id="Rectangle_78" class="st6">
          <path class="st1" d="M37.8,184.8l419.5,50.5-112.5,319-51.5,38-61,11-65.5-11-39-47L37.8,184.8Z"/>
        </g>
        <path id="Ellipse_83" class="st2" d="M421.3,444.3c96.4,55.6,96.4,145.9,0,201.5s-252.6,55.6-349,0-96.4-145.9,0-201.5,252.6-55.6,349,0Z"/>
        <path id="Ellipse_84" class="st0" d="M422.3,405.3c96.4,55.6,96.4,145.9,0,201.5s-252.6,55.6-349,0-96.4-145.9,0-201.5,252.6-55.6,349,0Z"/>
        <path id="Ellipse_85" class="st5" d="M368.5,435.9c67.1,38.8,67.1,101.6,0,140.4s-176,38.8-243.1,0-67.1-101.6,0-140.4,176-38.8,243.1,0Z"/>
        <path id="Union" class="st7" d="M295.6,462.2c-5.7-3.3-15-3.3-20.8,0l-30.4,17.6-34.5-20.2c-5.2-3.1-13.8-3.1-19.1,0l-11,6.3c-5.3,3-5.4,7.9-.1,11l34.7,20.3-30.9,17.8c-5.7,3.3-5.7,8.7,0,12l11.3,6.5c5.7,3.3,15,3.3,20.8,0l30.7-17.7,33.6,19.7c5.2,3.1,13.8,3.1,19.1,0l11-6.3c5.3-3,5.4-7.9.1-11l-33.8-19.8,30.6-17.7c5.7-3.3,5.7-8.7,0-12l-11.3-6.5Z"/>
        <g id="Group_145">
          <path id="Union_2" class="st3" d="M360,304.5c17.3-14.5,27.6-39.8,27.6-73.9,0-78.7-55.3-174.4-123.4-213.7-68.2-39.4-123.4-7.5-123.4,71.2s10.8,73,28.8,108.1l96.1,235.4,94.3-127.1Z"/>
          <g id="Group_144">
            <path id="Union_3" class="st8" d="M322,315.5c17.3-14.5,27.6-39.8,27.6-73.9,0-78.7-55.3-174.4-123.4-213.7-68.2-39.4-123.4-7.5-123.4,71.2s10.8,73,28.8,108.1l96.1,235.4,94.3-127.1Z"/>
            <path id="Ellipse_87" class="st5" d="M226.2,97.6c29.9,17.3,54.1,59.3,54.1,93.8s-24.2,48.5-54.1,31.3-54.1-59.3-54.1-93.8,24.2-48.5,54.1-31.3Z"/>
          </g>
        </g>
      </g>
    </g>
  </g>
</svg>