<?xml version="1.0" encoding="UTF-8"?>
<svg xmlns="http://www.w3.org/2000/svg" xmlns:xlink="http://www.w3.org/1999/xlink" version="1.1" viewBox="0 0 641.7 584.6">
  <defs>
    <style>
      .cls-1 {
        fill: #fff;
        fill-rule: evenodd;
      }

      .cls-2 {
        fill: url(#linear-gradient-4);
      }

      .cls-3 {
        fill: url(#linear-gradient-3);
      }

      .cls-4 {
        fill: url(#linear-gradient-2);
      }

      .cls-5 {
        fill: url(#linear-gradient);
      }

      .cls-6 {
        isolation: isolate;
      }

      .cls-7 {
        mix-blend-mode: screen;
      }
    </style>
    <linearGradient id="linear-gradient" x1="186.3" y1="693.8" x2="186.3" y2="299.2" gradientTransform="translate(-273 555.9) rotate(30) scale(1 -.9) skewX(26.6)" gradientUnits="userSpaceOnUse">
      <stop offset="1" stop-color="#13b3d3"/>
      <stop offset="1" stop-color="#000"/>
    </linearGradient>
    <linearGradient id="linear-gradient-2" x1="331.5" y1="308.6" x2="41.1" y2="684.4" gradientTransform="translate(-268 520.9) rotate(30) scale(1 -.9) skewX(26.6)" gradientUnits="userSpaceOnUse">
      <stop offset="0" stop-color="#13edb1"/>
      <stop offset="1" stop-color="#13b3d3"/>
    </linearGradient>
    <linearGradient id="linear-gradient-3" x1="279.2" y1="366.7" x2="34.1" y2="687" gradientTransform="translate(-273.5 469.9) rotate(30) scale(1 -.9) skewX(26.6)" gradientUnits="userSpaceOnUse">
      <stop offset="0" stop-color="#13edb1" stop-opacity=".7"/>
      <stop offset="1" stop-color="#13b3d3" stop-opacity=".7"/>
    </linearGradient>
    <linearGradient id="linear-gradient-4" x1="279.2" y1="366.7" x2="34.1" y2="687" gradientTransform="translate(-279.5 338.9) rotate(30) scale(1 -.9) skewX(26.6)" gradientUnits="userSpaceOnUse">
      <stop offset="0" stop-color="#13edb1" stop-opacity=".7"/>
      <stop offset="1" stop-color="#13b3d3" stop-opacity=".7"/>
    </linearGradient>
  </defs>
  <!-- Generator: Adobe Illustrator 28.7.1, SVG Export Plug-In . SVG Version: 1.2.0 Build 142)  -->
  <g class="cls-6">
    <g id="Layer_1">
      <path class="cls-5" d="M362.1,228.8l254.1,146.7c27.3,15.7,27.3,41.3,0,57l-243,140.3c-27.3,15.7-71.5,15.7-98.7,0L20.4,426.1c-27.3-15.7-27.3-41.3,0-57l243-140.3c27.3-15.7,71.5-15.7,98.7,0Z"/>
      <path class="cls-4" d="M367.1,193.8l254.1,146.7c27.3,15.7,27.3,41.3,0,57l-243,140.3c-27.3,15.7-71.5,15.7-98.7,0L25.4,391.1c-27.3-15.7-27.3-41.3,0-57l243-140.3c27.3-15.7,71.5-15.7,98.7,0Z"/>
      <path class="cls-3" d="M361.6,142.8l202.7,117.1c27.3,15.7,27.3,41.3,0,57l-190.4,109.9c-27.3,15.7-71.5,15.7-98.7,0l-202.7-117.1c-27.3-15.7-27.3-41.3,0-57l190.4-109.9c27.3-15.7,71.5-15.7,98.7,0Z"/>
      <path class="cls-2" d="M355.6,11.8l202.7,117.1c27.3,15.7,27.3,41.3,0,57l-190.4,109.9c-27.3,15.7-71.5,15.7-98.7,0l-202.7-117.1c-27.3-15.7-27.3-41.3,0-57L256.9,11.8c27.3-15.7,71.5-15.7,98.7,0Z"/>
      <g class="cls-7">
        <path class="cls-1" d="M291.9,199.1c-16.5-2.1-31.2,6.4-27.6,16l17,45.6c3.9,10.4,26.2,14.2,39.2,6.7l11.6-6.7,92.4,53.3,33.8-2.1,4.3-19.9-92.4-53.3,12.2-7c13-7.5,6.5-20.4-11.6-22.6l-78.9-9.8Z"/>
      </g>
      <g class="cls-7">
        <path class="cls-1" d="M374.1,375.4c16.6,1.3,30.9-7.8,26.9-17.2l-19-44.8c-4.3-10.2-26.8-13-39.5-4.9l-11.3,7.2-94.7-49-33.7,3.7-3.4,20.1,94.7,49-11.9,7.6c-12.7,8.1-5.5,20.7,12.6,22.1l79.3,6.2Z"/>
      </g>
    </g>
  </g>
</svg>