<svg xmlns="http://www.w3.org/2000/svg" fill="none" viewBox="0 0.01 597.56 871.72" xmlns:v="https://vecta.io/nano"><path transform="matrix(.866025 -.5 .866025 .5 157 80.8389)" fill="url(#A)" d="M0 0h161.658v163.136H0z"/><path transform="matrix(.866025 -.5 0 1 297 807.844)" fill="url(#B)" d="M0 0h343.689v63.884H0z"/><path d="M315 321.429L542.188 332V630.522L315 761.689V321.429Z" fill="url(#C)" style="mix-blend-mode:screen"/><path d="M57.992 204.002l241.029 99.057V770.43L58.011 631.282l-.019-427.28z" fill="url(#D)" style="mix-blend-mode:screen"/><path transform="matrix(.866025 -.5 .866025 .5 0 634.854)" fill="url(#E)" d="M0 0h343.689v346.311H0z"/><path transform="matrix(.866025 -.5 .866025 .5 43.4708 637.885)" stroke="#fff" stroke-width="5" d="M4.33 0h288.422v289.579H4.33z" style="mix-blend-mode:screen"/><path transform="matrix(.866025 .5 0 1 1 635.009)" fill="url(#B)" d="M0 0h343.689v63.884H0z"/><path transform="matrix(.866025 -.5 0 1 297 161.839)" fill="url(#F)" d="M0 0h161.658v563.916H0z"/><path transform="matrix(.866025 .5 0 1 157 81.0098)" fill="url(#G)" d="M0 0h161.658v563.916H0z"/><path d="M268.405 109.551c-1.686.973-3.579 1.813-5.681 2.52-2.125.693-4.18 1.133-6.166 1.32l-2.113-3.74c1.593-.147 3.198-.46 4.815-.94s3.048-1.08 4.295-1.8c1.409-.813 2.241-1.613 2.495-2.4s-.104-1.46-1.074-2.02c-.924-.533-2.009-.747-3.257-.64s-2.667.62-4.26 1.54l-2.564 1.48-3.706-2.14-.901-8.32 2.633.8-12.714 7.34-4.503-2.6 16.974-9.8 3.637 2.1.936 8.3-4.469.7 1.628-.94c2.979-1.72 5.901-2.634 8.764-2.74s5.347.447 7.448 1.66c1.363.787 2.287 1.733 2.771 2.84.462 1.093.324 2.28-.415 3.56s-2.263 2.587-4.573 3.92zm11.844-7.318l-3.637-2.1.52-10.5c.069-.813.011-1.473-.173-1.98s-.439-.92-.763-1.24c-.3-.333-.635-.607-1.004-.82-.97-.56-2.044-.793-3.222-.7-1.178.067-2.402.467-3.672 1.2-1.016.587-1.766 1.247-2.251 1.98-.462.72-.578 1.493-.347 2.32l-6.72.84c-.462-1.333-.266-2.713.589-4.14s2.367-2.767 4.538-4.02c1.801-1.04 3.672-1.773 5.612-2.2 1.939-.453 3.81-.587 5.611-.4 1.825.173 3.476.687 4.954 1.54.785.453 1.467.967 2.044 1.54.577.547.993 1.24 1.247 2.08.277.827.381 1.873.312 3.14l-.451 8.7-3.117-.56 13.683-7.9 4.573 2.64-18.326 10.58zm22.165-12.797l-24.248-14 4.641-2.68 27.436 3.92-2.459 1.42-6.963-15.74 4.607-2.66 24.318 13.96-5.265 3.04-16.212-9.32.97-.56 5.507 12.54-2.528 1.46-21.893-3.08 1.177-.68 16.178 9.34-5.266 3.04zm33.085-19.102l-24.249-14 11.848-6.84c3.048-1.76 5.912-2.747 8.591-2.96 2.702-.227 4.999.207 6.893 1.3 1.27.733 2.067 1.553 2.39 2.46.301.893.162 1.8-.415 2.72s-1.571 1.787-2.979 2.6l-.762-1.2c1.524-.88 3.129-1.513 4.815-1.9 1.662-.4 3.302-.507 4.919-.32a11.45 11.45 0 0 1 4.572 1.48c2.079 1.2 2.887 2.613 2.425 4.24-.485 1.613-2.321 3.34-5.508 5.18l-12.54 7.24zm1.351-5.66l6.547-3.78c1.455-.84 2.321-1.607 2.598-2.3.278-.72-.104-1.38-1.143-1.98-1.016-.587-2.148-.8-3.395-.64-1.247.133-2.598.62-4.053 1.46l-6.962 4.02-4.088-2.36 5.993-3.46c1.362-.787 2.171-1.52 2.425-2.2.254-.707-.104-1.34-1.074-1.9-.947-.547-2.021-.74-3.222-.58-1.201.133-2.482.593-3.845 1.38l-5.577 3.22 15.796 9.12z" fill="#fff"/><defs><linearGradient id="A" x1="3.03" y1="175.755" x2="128.379" y2="-30.961" href="#H"><stop stop-color="#13b3d3"/><stop offset="1" stop-color="#13edb1"/></linearGradient><linearGradient id="B" x1="6.442" y1="68.826" x2="18.655" y2="-40.526" href="#H"><stop stop-color="#13b3d3"/><stop offset="1" stop-color="#13edb1"/></linearGradient><linearGradient id="C" x1="39.502" y1="749.346" x2="-46.434" y2="497.721" href="#H"><stop stop-color="#13eeb0" stop-opacity=".26"/><stop offset=".501" stop-color="#13b3d3" stop-opacity=".26"/><stop offset=".757" stop-color="#13b3d3" stop-opacity="0"/></linearGradient><linearGradient id="D" x1="-112.86" y1="627.233" x2="20.647" y2="174.594" href="#H"><stop stop-color="#13eeb0" stop-opacity=".26"/><stop offset=".501" stop-color="#13b3d3" stop-opacity=".26"/><stop offset=".757" stop-color="#13b3d3" stop-opacity="0"/></linearGradient><linearGradient id="E" x1="6.442" y1="373.098" x2="272.352" y2="-66.079" href="#H"><stop stop-color="#13b3d3"/></linearGradient><linearGradient id="F" x1="3.03" y1="607.535" x2="382.835" y2="426.339" href="#H"><stop stop-color="#13b3d3"/><stop offset="1" stop-color="#13edb1"/></linearGradient><linearGradient id="G" x1="-104.065" y1="621.557" x2="248.412" y2="630.425" href="#H"><stop stop-color="#13b3d3"/><stop offset="1" stop-color="#13edb1"/></linearGradient><linearGradient id="H" gradientUnits="userSpaceOnUse"/></defs></svg>