<?xml version="1.0" encoding="UTF-8"?>
<svg xmlns="http://www.w3.org/2000/svg" xmlns:xlink="http://www.w3.org/1999/xlink" version="1.1" viewBox="0 0 536.3 745.8">
  <defs>
    <style>
      .cls-1 {
        fill: none;
        stroke: #9fffd4;
        stroke-width: 5px;
      }

      .cls-2 {
        fill: url(#linear-gradient-5);
      }

      .cls-3 {
        fill: url(#linear-gradient-4);
      }

      .cls-4 {
        fill: url(#linear-gradient-3);
      }

      .cls-5 {
        fill: url(#linear-gradient-2);
      }

      .cls-6 {
        fill: url(#linear-gradient);
      }

      .cls-7 {
        fill: #13b3d3;
      }

      .cls-8 {
        isolation: isolate;
      }

      .cls-9 {
        fill: #fff;
      }

      .cls-10 {
        mix-blend-mode: screen;
      }

      .cls-11 {
        fill: #33ffa3;
      }

      .cls-12 {
        fill: #9fffd4;
      }
    </style>
    <linearGradient id="linear-gradient" x1="152.1" y1="479.5" x2="142.9" y2="895.7" gradientTransform="translate(-435.4 838.8) rotate(30.3) scale(1 -.9) skewX(26.1)" gradientUnits="userSpaceOnUse">
      <stop offset="0" stop-color="#13edb1"/>
      <stop offset="1" stop-color="#13b3d3"/>
    </linearGradient>
    <linearGradient id="linear-gradient-2" x1="55.2" y1="749.6" x2="-6" y2="643.2" gradientTransform="translate(-26.8 794.1) rotate(-10.8) scale(1 -.9) skewX(27.2)" gradientUnits="userSpaceOnUse">
      <stop offset="0" stop-color="#13edb1"/>
      <stop offset="1" stop-color="#13b3d3"/>
    </linearGradient>
    <linearGradient id="linear-gradient-3" x1="-88" y1="752.3" x2="-147.9" y2="646.7" gradientTransform="translate(825.4 758.6) rotate(-10.8) scale(1 -.9) skewX(-26.2)" gradientUnits="userSpaceOnUse">
      <stop offset="0" stop-color="#13edb1"/>
      <stop offset="1" stop-color="#13b3d3"/>
    </linearGradient>
    <linearGradient id="linear-gradient-4" x1="-88" y1="699" x2="-147.9" y2="593.4" gradientTransform="translate(803.1 555.2) rotate(-69.8) scale(1 -.9) skewX(26.2)" gradientUnits="userSpaceOnUse">
      <stop offset="0" stop-color="#13edb1"/>
      <stop offset="1" stop-color="#13b3d3"/>
    </linearGradient>
    <linearGradient id="linear-gradient-5" x1="284.1" y1="568.1" x2="283.9" y2="219.1" gradientTransform="translate(0 786) scale(1 -1)" gradientUnits="userSpaceOnUse">
      <stop offset=".3" stop-color="#9fffd4" stop-opacity="0"/>
      <stop offset=".6" stop-color="#9fffd4" stop-opacity=".1"/>
      <stop offset="1" stop-color="#9fffd4" stop-opacity=".5"/>
    </linearGradient>
  </defs>
  <!-- Generator: Adobe Illustrator 28.7.1, SVG Export Plug-In . SVG Version: 1.2.0 Build 142)  -->
  <g class="cls-8">
    <g id="Layer_1">
      <path class="cls-7" d="M461.4,703.2c-97.6,57.1-256.3,56.7-354.6-.7-98.2-57.4-98.7-150.2-1.2-207.3,97.6-57.1,256.3-56.7,354.6.7,98.2,57.4,98.7,150.2,1.2,207.3Z"/>
      <path class="cls-6" d="M462.3,463c98.2,57.4,98.7,150.2,1.2,207.3-97.6,57.1-256.3,56.7-354.6-.7-98.2-57.4-98.7-150.2-1.2-207.3,97.6-57.1,256.3-56.7,354.6.7Z"/>
      <g class="cls-10">
        <path class="cls-11" d="M362.8,520c43.4,25.4,43.4,66.5,0,91.9-43.4,25.4-113.8,25.4-157.2,0s-43.4-66.5,0-91.9c43.4-25.4,113.8-25.4,157.2,0Z"/>
      </g>
      <g class="cls-10">
        <path class="cls-12" d="M362.8,520c43.4,25.4,43.4,66.5,0,91.9-43.4,25.4-113.8,25.4-157.2,0s-43.4-66.5,0-91.9c43.4-25.4,113.8-25.4,157.2,0Z"/>
      </g>
      <g class="cls-10">
        <path class="cls-1" d="M391.9,358c-117.1,17.7-272.4-45.2-347-140.7C-29.6,121.8,5,30.2,122.1,12.4,239.1-5.3,394.5,57.7,469.1,153.1c74.5,95.5,39.9,187.1-77.1,204.9Z"/>
      </g>
      <g class="cls-10">
        <path class="cls-1" d="M498.9,197.1c-63,100.2-212.1,176.8-333.1,171-121-5.9-167.8-92-104.8-192.2C124,75.6,273.1-1,394.1,4.9c121,5.9,167.8,92,104.8,192.2Z"/>
      </g>
      <polygon class="cls-5" points="195.6 86.2 325.1 61.5 279.6 185.4 150.1 210.1 195.6 86.2"/>
      <polygon class="cls-4" points="150.2 210 279.8 185.3 363.9 284.4 234.3 309.1 150.2 210"/>
      <polygon class="cls-3" points="279.6 185.4 325.1 61.6 409.2 160.8 363.7 284.6 279.6 185.4"/>
      <path class="cls-2" d="M173,218h222v349l-4.5,18-12,15.5-29,18-33.5,9-33.5,4-35-4.5-17-4.5-16-6.5-14.5-8-13.5-11.5-9-13.5-4.5-16V218Z"/>
      <path class="cls-9" d="M170.3,151.2l19.6-24.5,5.5-.9,2,21.2-5.9.9-1-18.8,2.2-.3-16.7,21.6-5.7.9ZM177.6,145.4l3-4.2,12.5-1.9v3.8s-15.5,2.4-15.5,2.4ZM207.8,145.7c-1.9.3-3.7.4-5.3.1-1.6-.2-2.8-.6-3.5-1.3l3.4-4.3c.8.5,1.8.9,3,1.2,1.3.2,2.6.2,4.1,0,1.1-.2,2-.4,2.8-.7.8-.3,1.4-.7,1.9-1.1s.8-.9,1-1.3c.2-.6.2-1-.2-1.3-.4-.3-.9-.5-1.7-.6-.7-.1-1.6-.2-2.5-.2-.9,0-1.8-.2-2.7-.3-.9-.2-1.6-.4-2.3-.8-.6-.3-1.1-.9-1.3-1.6-.2-.7,0-1.7.4-2.9.5-1.3,1.3-2.5,2.5-3.7,1.2-1.2,2.6-2.2,4.4-3.1,1.8-.9,3.8-1.5,6.1-1.9,1.5-.2,3-.3,4.3-.2,1.3,0,2.5.4,3.3.9l-3.3,4.3c-.9-.4-1.9-.7-2.9-.8-1-.1-2.1-.1-3.1,0-1.1.2-2,.4-2.8.8-.8.3-1.4.7-1.9,1.2-.4.4-.8.9-1,1.4-.2.6-.2,1,.2,1.3.4.3.9.4,1.7.5.7,0,1.6.2,2.5.2.9,0,1.8.2,2.7.3.9.1,1.7.4,2.3.7.6.3,1.1.9,1.3,1.6.2.7.1,1.6-.4,2.8-.5,1.3-1.3,2.5-2.5,3.7-1.2,1.2-2.6,2.2-4.4,3.1-1.8.9-3.8,1.5-6.1,1.9ZM232.5,128.7l11.7-1.8-1.6,4.1-11.7,1.8,1.6-4.1ZM229.3,138l13.2-2-1.6,4.2-18.7,2.9,8.8-22.8,18.3-2.8-1.6,4.2-12.7,2-5.6,14.4ZM245.3,139.5l8.8-22.8,10.5-1.6c2.2-.3,3.9-.3,5.2.1,1.3.4,2.2,1.2,2.5,2.3.4,1.1.2,2.5-.4,4.2-.7,1.7-1.7,3.2-3,4.6-1.3,1.4-2.9,2.5-4.7,3.4-1.8.9-3.8,1.5-6,1.8l-7.4,1.1,3.4-2.7-3.4,8.7-5.6.9ZM260.6,137.1l-2.8-7.4,6-.9,2.9,7.3-6.1.9ZM254,130.6l-1.5-2.1,7.1-1.1c1.7-.3,3.2-.8,4.3-1.6,1.1-.9,1.9-1.9,2.4-3.1.5-1.3.4-2.2-.1-2.7-.6-.6-1.7-.7-3.5-.4l-7.1,1.1,3.5-2.9-5,13ZM275.4,134.8l7.2-18.5-7.7,1.2,1.7-4.3,21.1-3.3-1.7,4.3-7.7,1.2-7.2,18.5-5.6.9Z"/>
    </g>
  </g>
</svg>