<?xml version="1.0" encoding="UTF-8"?>
<svg xmlns="http://www.w3.org/2000/svg" xmlns:xlink="http://www.w3.org/1999/xlink" version="1.1" viewBox="0 0 713 597">
  <defs>
    <style>
      .cls-1 {
        fill: url(#linear-gradient-8);
      }

      .cls-2 {
        fill: url(#linear-gradient-7);
      }

      .cls-3 {
        fill: url(#linear-gradient-5);
      }

      .cls-4 {
        fill: url(#linear-gradient-6);
      }

      .cls-5 {
        fill: url(#linear-gradient-9);
      }

      .cls-6 {
        fill: url(#linear-gradient-4);
      }

      .cls-7 {
        fill: url(#linear-gradient-3);
      }

      .cls-8 {
        fill: url(#linear-gradient-2);
      }

      .cls-9 {
        fill: url(#linear-gradient);
      }

      .cls-10 {
        isolation: isolate;
      }

      .cls-11 {
        fill: #fff;
      }

      .cls-12 {
        mix-blend-mode: screen;
      }
    </style>
    <linearGradient id="linear-gradient" x1="-170.4" y1="508.4" x2="-170.4" y2="211.8" gradientTransform="translate(825.5 284) rotate(-26.5) scale(1 -.8) skewX(-31)" gradientUnits="userSpaceOnUse">
      <stop offset="1" stop-color="#13b3d3"/>
      <stop offset="1" stop-color="#000"/>
    </linearGradient>
    <linearGradient id="linear-gradient-2" x1="-170.4" y1="508.4" x2="-170.4" y2="211.8" gradientTransform="translate(825.5 284) rotate(-26.5) scale(1 -.8) skewX(-31)" gradientUnits="userSpaceOnUse">
      <stop offset="1" stop-color="#13b3d3"/>
      <stop offset="1" stop-color="#000"/>
    </linearGradient>
    <linearGradient id="linear-gradient-3" x1="-203.4" y1="508.4" x2="-203.4" y2="277.3" gradientTransform="translate(883.5 283.5) rotate(-26.5) scale(1 -.8) skewX(-31)" gradientUnits="userSpaceOnUse">
      <stop offset="0" stop-color="#29f7f5"/>
      <stop offset="1" stop-color="#13b3d3"/>
    </linearGradient>
    <linearGradient id="linear-gradient-4" x1="-136.4" y1="317.3" x2="-270.5" y2="468.4" gradientTransform="translate(883.5 236.5) rotate(-26.5) scale(1 -.8) skewX(-31)" gradientUnits="userSpaceOnUse">
      <stop offset="0" stop-color="#29f7f5" stop-opacity=".4"/>
      <stop offset="1" stop-color="#13edb1" stop-opacity=".3"/>
    </linearGradient>
    <linearGradient id="linear-gradient-5" x1="-81.5" y1="413.7" x2="-325.4" y2="372" gradientTransform="translate(893.5 187.5) rotate(-26.5) scale(1 -.8) skewX(-31)" gradientUnits="userSpaceOnUse">
      <stop offset="0" stop-color="#29f7f5" stop-opacity=".5"/>
      <stop offset="1" stop-color="#13edb1" stop-opacity=".4"/>
    </linearGradient>
    <linearGradient id="linear-gradient-6" x1="261" y1="595.4" x2="-12.6" y2="455.5" gradientTransform="translate(106.8 867.9) rotate(26.5) scale(1 -.9) skewX(-24)" gradientUnits="userSpaceOnUse">
      <stop offset="0" stop-color="#13edb1"/>
      <stop offset="1" stop-color="#13b3d3"/>
    </linearGradient>
    <linearGradient id="linear-gradient-7" x1="189.3" y1="480.6" x2="59" y2="335" gradientTransform="translate(372.3 861.2) rotate(-26.5) scale(1 -.9) skewX(24)" gradientUnits="userSpaceOnUse">
      <stop offset="0" stop-color="#13edb1"/>
      <stop offset="1" stop-color="#13b3d3"/>
    </linearGradient>
    <linearGradient id="linear-gradient-8" x1="96.5" y1="133.5" x2="171.7" y2="248.2" gradientTransform="translate(4.3 584.7) rotate(-1.1) scale(1 -1)" gradientUnits="userSpaceOnUse">
      <stop offset="0" stop-color="#fff" stop-opacity="0"/>
      <stop offset=".3" stop-color="#fff" stop-opacity="0"/>
      <stop offset=".6" stop-color="#bbfae9" stop-opacity=".3"/>
      <stop offset="1" stop-color="#13edb1"/>
    </linearGradient>
    <linearGradient id="linear-gradient-9" x1="590.1" y1="137.1" x2="534.7" y2="244.8" gradientTransform="translate(-15.5 525.7) rotate(5.6) scale(1 -1)" gradientUnits="userSpaceOnUse">
      <stop offset="0" stop-color="#fff" stop-opacity="0"/>
      <stop offset=".3" stop-color="#fff" stop-opacity="0"/>
      <stop offset=".6" stop-color="#bbfae9" stop-opacity=".3"/>
      <stop offset="1" stop-color="#13edb1"/>
    </linearGradient>
  </defs>
  <!-- Generator: Adobe Illustrator 28.7.1, SVG Export Plug-In . SVG Version: 1.2.0 Build 142)  -->
  <g class="cls-10">
    <g id="Layer_1">
      <polygon class="cls-9" points="85.2 199.3 350.7 67 616.2 199.3 350.7 331.7 85.2 199.3"/>
      <polygon class="cls-8" points="85.2 199.3 350.7 67 616.2 199.3 350.7 331.7 85.2 199.3"/>
      <polygon class="cls-7" points="143.2 198.9 349.6 96 556.5 199.1 350.1 302 143.2 198.9"/>
      <polygon class="cls-6" points="143.2 151.9 349.6 49 556.5 152.1 350.1 255 143.2 151.9"/>
      <polygon class="cls-3" points="153.2 102.9 359.6 0 566.5 103.1 360.1 206 153.2 102.9"/>
      <polygon class="cls-4" points="85.2 199.3 350.7 331.7 350.7 596.4 85.2 464 85.2 199.3"/>
      <g class="cls-12">
        <polygon class="cls-11" points="97.2 291.2 314.2 399.4 314.2 463.9 97.2 355.8 97.2 291.2"/>
      </g>
      <polygon class="cls-2" points="350.7 331.8 616.2 199.5 616.2 464.2 350.7 596.5 350.7 331.8"/>
      <g class="cls-12">
        <polygon class="cls-11" points="389.2 398.2 599.2 293.5 599.2 358.9 389.2 463.6 389.2 398.2"/>
      </g>
      <g class="cls-12">
        <path class="cls-1" d="M96.6,291.2l216.8,106.8-129.1,90.5-221.1-109.2,133.3-88.1Z"/>
      </g>
      <g class="cls-12">
        <path class="cls-5" d="M388.3,399.2l210.5-105.2,136.6,82.8-215.1,107.2-131.9-84.8Z"/>
      </g>
      <path class="cls-11" d="M306.3,142.9l-29.5-17-11.6,6.7-6.9-4,31.7-18.3,6.9,4-11.6,6.7,29.5,17-8.4,4.9ZM330.9,128.8l-36.4-21,15.7-9.1c3.3-1.9,6.6-3.2,10-3.9,3.4-.8,6.7-.9,10-.5,3.3.4,6.3,1.4,9,3,2.7,1.6,4.4,3.3,5.1,5.2.7,1.9.3,3.8-1,5.7-1.3,2-3.6,3.9-6.9,5.8l-11.1,6.4v-4.3c0,0,13.9,8,13.9,8l-8.4,4.9ZM354,115.4l-22.3-2.4,9-5.2,22.4,2.3-9.1,5.2ZM326.4,116.5h-7.7c0-.1,10.6-6.2,10.6-6.2,2.6-1.5,4-2.9,4.2-4.3.1-1.4-.8-2.7-2.8-3.8-2-1.2-4.2-1.7-6.6-1.6-2.4.1-4.9.9-7.5,2.4l-10.6,6.1-.3-4.5,20.6,11.9ZM385.9,97.7c-5.2,3-10.6,4.5-16.4,4.5s-11.3-1.5-16.7-4.6l-20.4-11.8,8.4-4.9,20.1,11.6c3.5,2,6.7,3,9.6,3.1,2.9,0,5.7-.7,8.3-2.1,2.6-1.5,3.8-3.1,3.7-4.8-.1-1.7-1.9-3.5-5.4-5.5l-20.1-11.6,8.3-4.8,20.4,11.8c5.3,3.1,8,6.3,7.9,9.6,0,3.3-2.6,6.5-7.8,9.5ZM396.1,66l17.5-10.1,6.5,3.8-17.5,10.1-6.5-3.8ZM411.6,74.3l19.8-11.4,6.8,3.9-28.2,16.3-36.4-21,27.5-15.9,6.8,3.9-19.1,11,22.9,13.2Z"/>
    </g>
  </g>
</svg>