<svg xmlns="http://www.w3.org/2000/svg" viewBox="0 0 691 706" xmlns:v="https://vecta.io/nano"><style>.C{isolation:isolate}.K{mix-blend-mode:screen}</style><defs><linearGradient id="A" x1="435.1" y1="896.2" x2="435.1" y2="325.2" gradientTransform="translate(497.7 1015) rotate(-30) scale(1 -.9) skewX(-26.6)" href="#H"><stop offset="0" stop-color="#13edb1" stop-opacity=".4"/><stop offset="1" stop-color="#13b3d3" stop-opacity=".7"/></linearGradient><linearGradient id="B" x1="271.3" y1="350.7" x2="424.2" y2="615.4" href="#H"><stop offset="0" stop-color="#13edb1" stop-opacity=".4"/><stop offset="1" stop-color="#13b3d3" stop-opacity=".7"/></linearGradient><linearGradient id="C" x1="535.3" y1="85.4" x2="238" y2="294.9" href="#H"><stop offset="0" stop-color="#13edb1" stop-opacity=".6"/><stop offset="1" stop-color="#13b3d3" stop-opacity="0"/></linearGradient><linearGradient id="D" x1="497.8" y1="131.7" x2="200.6" y2="341.2" href="#H"><stop offset="0" stop-color="#13edb1" stop-opacity=".6"/><stop offset="1" stop-color="#13b3d3" stop-opacity="0"/></linearGradient><linearGradient id="E" x1="356.4" y1="120.4" x2="174.5" y2="437.5" href="#H"><stop offset="0" stop-color="#13edb1"/><stop offset="1" stop-color="#13b3d3"/></linearGradient><mask id="F" x="113.4" y="-30" width="359.1" height="649" maskUnits="userSpaceOnUse"><path d="M113.4-30h359.1v649H113.4z" fill="#fff"/><path d="M293 84v.3c.1 0 .1 1.3.1 1.3 20.6 77.4 82.8 160.8 156.2 202.9 4.8 2.7 9.5 5.3 14.2 7.6-.4 11.2-1.3 22.1-2.6 32.6-13.1 99.4-70.9 161.9-167.8 176.4v.3c0-.1-.2-.2-.2-.3h-.3v-.5C195.7 379 137.9 250.1 124.8 135.7c-1.4-12.1-2.3-23.9-2.6-35.6 4.7 3.1 9.4 6 14.2 8.8C209.9 151 272 139 292.6 85.2V84h.1s0 .3.1.4c0-.1.1-.3.2-.5z" fill-rule="evenodd"/></mask><linearGradient id="G" x1="346.1" y1="215.6" x2="346" y2="483.9" href="#H"><stop offset=".3" stop-color="#9fffd4" stop-opacity="0"/><stop offset=".6" stop-color="#9fffd4" stop-opacity=".1"/><stop offset="1" stop-color="#9fffd4" stop-opacity=".5"/></linearGradient><linearGradient id="H" gradientUnits="userSpaceOnUse"/></defs><g class="C"><path d="M124.3,364.3c122.2-70.6,320.3-70.6,442.5,0s122.2,184.9,0,255.5-320.3,70.6-442.5,0-122.2-184.9,0-255.5Z" fill="none" stroke="url(#A)" stroke-width="60"/><path d="M479,407.3c72.4,41.8,72.4,109.6,0,151.5-72.5,41.9-190,41.9-262.4,0-72.4-41.8-72.4-109.6,0-151.5,72.5-41.9,190-41.9,262.4,0Z" fill="#13edb1" stroke="url(#B)" stroke-width="50"/><g fill-rule="evenodd"><path d="M404.5 4.6v.3c.1 0 .1 1.4.1 1.4 20.6 77.4 82.8 160.7 156.2 202.9 4.8 2.7 9.5 5.3 14.2 7.6-.4 11.2-1.3 22.1-2.6 32.6-13.1 99.4-70.9 161.9-167.8 176.4v.3c0-.1-.2-.2-.2-.3h-.4v-.5C307.1 299.7 249.3 170.8 236.2 56.4c-1.4-12.1-2.3-23.9-2.6-35.6 4.7 3.1 9.4 6 14.2 8.8C321.3 71.7 383.4 59.7 404 5.9V4.7h.1a4.71 4.71 0 0 0 .2.5c0-.2.1-.3.2-.5z" fill="url(#C)"/><path d="M367 50.9v.3c.1 0 .1 1.3.1 1.3 20.6 77.4 82.8 160.8 156.2 202.9 4.8 2.7 9.5 5.3 14.2 7.6-.4 11.2-1.3 22.1-2.6 32.6C521.8 395 464 457.5 367.1 472v.3c0-.1-.2-.2-.2-.3h-.3v-.5C269.7 345.9 211.9 217 198.8 102.6c-1.4-12.1-2.3-23.9-2.6-35.6 4.7 3.1 9.4 6 14.2 8.8 73.5 42.1 135.6 30.1 156.2-23.7v-1.2h.1s0 .3.1.4c0-.2.1-.3.2-.5z" fill="url(#D)"/><path d="M293 84v.3c.1 0 .1 1.3.1 1.3 20.6 77.4 82.8 160.8 156.2 202.9 4.8 2.7 9.5 5.3 14.2 7.6-.4 11.2-1.3 22.1-2.6 32.6-13.1 99.4-70.9 161.9-167.8 176.4v.3c0-.1-.2-.2-.2-.3h-.3v-.5C195.7 379 137.9 250.1 124.8 135.7c-1.4-12.1-2.3-23.9-2.6-35.6 4.7 3.1 9.4 6 14.2 8.8C209.9 151 272 139 292.6 85.2V84h.1s0 .3.1.4c0-.1.1-.3.2-.5z" fill="url(#E)"/></g><g mask="url(#F)"><path d="M293.1 84.3l4.3 2.5c0-1.2-.4-2.5-1-3.8l-3.3 1.3zm-.1-.3l3.3-1.3c-1-2-2.6-3.5-4.1-4.1s-2.8 0-3.3 1.4l4.1 4zm.1 1.6l-4.3-2.5c0 .6 0 1.2.3 1.8l4.1.6zm170.5 210.5l4.3 2.7c0-1.4-.4-3-1.3-4.5s-2.1-2.7-3.3-3.3l.3 5.2zm-2.7 32.6l-4.3-3.2h0l4.3 3.2zM293.1 505l-2.3-5.6c-1.3.2-2 1.3-2 3.1l4.3 2.5zm0 .4l-2.3 2.9c1.3 1.7 3 2.7 4.4 2.7s2.2-1.3 2.2-3.1l-4.3-2.5zm-.3-.3l2.3-2.9c-1.4-1.8-3.2-2.8-4.6-2.6l2.3 5.6zm-.3 0l-4.3-2.5c0 1.8.9 4 2.2 5.7s3.1 2.6 4.4 2.4l-2.3-5.6zm0-.5l4.3 2.5c0-1.7-.8-3.8-2-5.4l-2.3 2.9zM124.7 135.8l-4.3-1.8h0l4.3 1.8zm-2.7-35.7l.3-4.8c-1.2-.8-2.4-1-3.3-.5s-1.4 1.6-1.3 3l4.3 2.3zm170.5-14.9l4.1 4c.2-.4.3-1 .3-1.6l-4.3-2.5zm0-1.2l-3.3-5.1c-.6.5-1 1.5-1 2.6l4.3 2.5zm.1-.1l4.1.7c-.5-2-1.8-4-3.3-5.2s-3.1-1.4-4.1-.6l3.3 5.1zm.2.6l-4.1-.7c.6 2.3 2.3 4.6 4.1 5.7s3.5.7 4.1-1l-4.1-4zm3.6-1.5c-1.5-3-4.3-4.9-6.1-4.1s-2.1 3.7-.6 6.7l6.7-2.6zm-6.7 2.5c1.5 3 4.3 4.9 6.1 4.1 1.8-.7 2.1-3.7.6-6.7l-6.7 2.6zm6.6-2.7c-1.5-3-4.3-4.9-6.1-4.1s-2.1 3.7-.6 6.7l6.7-2.6zm-6.7 2.5c1.5 3 4.3 4.9 6.1 4.1 1.8-.7 2.1-3.7.6-6.7l-6.7 2.6zm-.7-5.3c-.8 2.2.4 5.7 2.7 7.9s4.7 2.3 5.5.1l-8.2-8zm8.1 8.1c.8-2.2-.4-5.7-2.7-7.9s-4.7-2.3-5.5-.1l8.2 8zm-8.2-7.9c-.8 2.1.4 5.7 2.6 7.9 2.3 2.2 4.7 2.3 5.5.1l-8.2-8zm8.1 8.2c.8-2.1-.4-5.7-2.6-7.9-2.3-2.2-4.7-2.3-5.5-.1l8.2 8zm0-3.3c-.8-3.1-3.3-5.8-5.5-6.2-2.3-.4-3.4 1.8-2.6 4.9l8.2 1.4zm-8.2-1.5c.8 3.1 3.3 5.8 5.5 6.2 2.3.4 3.4-1.8 2.6-4.9l-8.2-1.4zm8.1 1.2c-.8-3.1-3.3-5.9-5.5-6.2s-3.4 1.8-2.7 4.9l8.2 1.4zm-8.2-1.6c.8 3.1 3.3 5.9 5.5 6.2 2.3.4 3.5-1.8 2.7-4.8l-8.2-1.4zm.7-4.4c-1.5 1.2-1.3 4.5.6 7.4 1.8 2.8 4.6 4.1 6.1 2.9l-6.7-10.2zm6.6 10.2c1.5-1.2 1.3-4.5-.6-7.4s-4.6-4.1-6.1-2.9l6.7 10.2zm-6.7-10.2c-1.5 1.2-1.3 4.5.6 7.4 1.8 2.8 4.6 4.1 6.1 2.9l-6.7-10.2zm6.6 10.3c1.5-1.2 1.3-4.5-.6-7.4-1.8-2.8-4.6-4.1-6.1-2.9l6.7 10.2zm-7.6-7.5c0 2.8 1.9 6.1 4.3 7.5s4.3.2 4.3-2.5l-8.7-5zm8.6 5.2c0-2.8-1.9-6.1-4.3-7.5s-4.3-.2-4.3 2.5l8.7 5zm-8.6-4.6c0 2.8 1.9 6.1 4.3 7.5s4.3.2 4.3-2.5l-8.7-5zm8.6 5.4c0-2.8-1.9-6.1-4.3-7.5s-4.3-.2-4.3 2.5l8.7 5zm-8.7-5.7c-.8 2.1.3 5.6 2.6 7.9 2.2 2.2 4.7 2.4 5.6.2l-8.1-8.1zm6.8 11.4c.9-2-.2-5.6-2.4-7.9s-4.7-2.5-5.6-.5l8 8.4zm-10-4.1c-1 1.9 0 5.5 2.2 7.9s4.8 2.8 5.7.8l-7.9-8.7zm4.6 14.5c1.1-1.8.3-5.3-1.8-7.8s-4.7-3.1-5.9-1.2l7.7 9zm-8.5-7.8c-1.1 1.8-.4 5.3 1.8 7.8 2.1 2.5 4.7 3.1 5.9 1.3l-7.6-9.1zm5.9 11.8c1.2-1.7.5-5.2-1.6-7.7-2.1-2.6-4.7-3.3-5.9-1.6l7.5 9.3zm-10.2-5.7c-1.3 1.6-.7 5 1.4 7.7 2 2.6 4.7 3.5 6 1.9l-7.3-9.5zm3.2 14.3c1.4-1.5.9-4.8-1-7.6s-4.7-3.7-6-2.3l7.1 9.8zm-8.1-8.8c-1.4 1.4-1 4.8 1 7.5 1.9 2.7 4.7 3.8 6.1 2.4l-7-9.9zm4.8 12c1.5-1.4 1.1-4.7-.8-7.5s-4.6-3.9-6.1-2.6l6.9 10zm-10.1-7.2c-1.5 1.2-1.3 4.5.6 7.4 1.8 2.8 4.6 4.1 6.1 2.8l-6.7-10.2zm1.9 13.9c1.6-1.1 1.5-4.3-.3-7.2s-4.5-4.3-6.1-3.2l6.4 10.4zm-7.6-9.7c-1.6 1.1-1.6 4.3.2 7.2 1.7 2.9 4.5 4.4 6.1 3.3l-6.3-10.5zm3.8 12.1c1.7-1 1.7-4.2 0-7.1s-4.5-4.5-6.1-3.5l6.2 10.6zm-9.9-8.5c-1.7.9-1.8 4-.2 7s4.4 4.6 6.1 3.7l-6-10.7zm.5 13.2c1.8-.8 2-3.8.5-6.8-1.6-3-4.3-4.8-6.1-4l5.7 10.8zm-7-10.3c-1.8.7-2.1 3.7-.5 6.7 1.5 3 4.3 4.8 6.1 4.1l-5.6-10.9zm2.8 11.9c1.9-.7 2.2-3.6.7-6.6s-4.2-4.9-6.1-4.3l5.4 10.9zm-9.6-9.6c-1.9.6-2.3 3.5-.9 6.5s4.2 5 6.1 4.5l-5.2-11zm-.8 12.5c2-.4 2.5-3.2 1.1-6.3-1.3-3.1-4-5.2-6-4.8l4.9 11.1zm-6.3-10.8c-2 .4-2.5 3.2-1.2 6.2 1.3 3.1 4 5.2 6 4.8l-4.8-11.1zm1.8 11.7c2-.3 2.6-3.1 1.3-6.1-1.3-3.1-4-5.3-6-5l4.6 11.1zm-9.1-10.6c-2.1.2-2.7 2.9-1.5 6s3.9 5.4 5.9 5.2l-4.4-11.1zm-2 11.7c2.1 0 2.9-2.7 1.8-5.7-1.1-3.1-3.8-5.5-5.9-5.4l4.1 11.2zm-5.6-11.2c-2.1 0-2.9 2.6-1.8 5.7s3.7 5.5 5.9 5.5l-4-11.2zm.7 11.2c2.1 0 3-2.5 2-5.6-1.1-3.1-3.7-5.6-5.8-5.6l3.8 11.2zm-8.6-11.2c-2.2-.1-3.1 2.3-2.1 5.4s3.6 5.7 5.7 5.8l-3.6-11.2zm-3.1 10.6c2.2.2 3.3-2.1 2.4-5.2s-3.4-5.8-5.7-6l3.3 11.1zm-4.9-11.3c-2.2-.3-3.3 2-2.4 5.1s3.4 5.8 5.6 6l-3.2-11.1zm-.2 10.7c2.2.3 3.4-1.9 2.5-5-.8-3.1-3.3-5.8-5.6-6.1l3 11.1zm-7.9-11.9c-2.3-.4-3.5 1.7-2.7 4.8s3.2 5.9 5.5 6.3l-2.8-11.1zm-4.2 9.6c2.3.5 3.6-1.5 2.9-4.5s-3.1-5.9-5.4-6.5l2.5 11zm-4.1-11.4c-2.3-.6-3.6 1.4-3 4.5.7 3 3.1 5.9 5.4 6.5l-2.4-11zm-1.2 10.1c2.3.6 3.7-1.3 3.1-4.3s-3-6-5.3-6.6l2.2 10.9zm-7.3-12.4c-2.3-.7-3.8 1.2-3.2 4.2s2.9 6 5.2 6.7l-2-10.9zm-5.1 8.5c2.4.8 3.9-.9 3.4-3.9s-2.7-6.1-5.1-6.9l1.6 10.8zm-3.4-11.3c-2.4-.9-3.9.9-3.5 3.8.4 3 2.7 6.1 5 6.9l-1.6-10.7zm-2 9.4c2.4.9 4-.7 3.6-3.7-.4-2.9-2.6-6.1-5-7l1.4 10.7zm-6.6-12.8c-2.4-1-4 .6-3.7 3.5s2.5 6.1 4.9 7.1l-1.2-10.6zm-6.1 7.4c2.4 1.1 4.1-.3 3.9-3.2s-2.4-6.1-4.7-7.2l.8 10.4zm-2.6-11.2c-2.4-1.1-4.2.3-3.9 3.2s2.3 6.1 4.7 7.2l-.8-10.4zm-2.9 8.6c2.4 1.2 4.2-.2 4-3s-2.2-6.1-4.6-7.3l.6 10.3zm-5.8-13c-2.4-1.3-4.3 0-4.2 2.8 0 2.8 2.1 6.1 4.5 7.4l-.4-10.2zm-6.9 6.2c2.4 1.4 4.3.2 4.3-2.5 0-2.8-2-6.1-4.4-7.5v10zm-1.6-10.9c-2.4-1.4-4.3-.3-4.4 2.5 0 2.8 1.9 6.1 4.3 7.5v-10zm-3 8.3c2.4 1.4 4.4.4 4.4-2.4 0-2.7-1.9-6.1-4.3-7.5l-.2 9.9zm-4-12.5c-2.4-1.5-4.4-.5-4.5 2.2 0 2.7 1.8 6.1 4.2 7.6l.3-9.8zm-6.2 6.1c2.4 1.6 4.5.7 4.6-2 .2-2.7-1.6-6.1-4-7.6l-.6 9.6zm-4.7-6.7c0 2.8 2.1 6.1 4.5 7.4s4.3 0 4.2-2.8l-8.7-4.6zm8.8 8c-.1-2.8-2.2-6.1-4.6-7.3s-4.2 0-4.1 2.9l8.7 4.5zm-8.4.9c.2 2.8 2.2 6.1 4.6 7.3s4.2-.2 4-3l-8.7-4.3zm9.1 11.3c-.2-2.9-2.3-6.1-4.7-7.2s-4.2.3-3.9 3.1l8.6 4.1zm-8.5-2.3c.2 2.9 2.3 6.1 4.7 7.2s4.1-.3 3.9-3.2l-8.6-4zm9 7.6c-.2-2.9-2.4-6.1-4.8-7.2s-4.1.4-3.9 3.3l8.6 3.9zm-8.2 1.5c.3 2.9 2.4 6.1 4.8 7.1s4.1-.5 3.8-3.4l-8.6-3.8zm9.4 10.9c-.3-2.9-2.5-6.1-4.9-7.1s-4 .6-3.7 3.5l8.6 3.6zm-8.4-1.5c.3 2.9 2.5 6.1 4.9 7.1s4-.6 3.7-3.6l-8.6-3.5zm9.1 7.7c-.4-2.9-2.6-6.1-5-7s-4 .7-3.6 3.6l8.6 3.4zm-7.7 3.3c.4 3 2.7 6.1 5 6.9 2.4.9 3.9-.8 3.5-3.8l-8.5-3.2zm9.9 11.8c-.5-3-2.8-6-5.1-6.8s-3.9 1-3.4 3.9l8.5 2.9zm-8.2-.7c.5 3 2.8 6 5.1 6.8s3.9-1 3.4-4l-8.5-2.8zm9.2 7.1c-.5-3-2.8-6-5.2-6.8-2.3-.7-3.8 1.1-3.3 4.1l8.5 2.7zm-7.2 4.1c.6 3 2.9 6 5.2 6.7s3.8-1.2 3.2-4.2l-8.4-2.5zm10.1 11.2c-.6-3-3-6-5.3-6.6s-3.7 1.3-3.1 4.4l8.4 2.2zm-7.9 0c.6 3 3 6 5.3 6.6s3.7-1.4 3-4.4l-8.4-2.2zm9.3 6.6c-.7-3-3.1-5.9-5.4-6.5s-3.6 1.4-3 4.5l8.3 2zm-6.8 4.8c.7 3 3.1 5.9 5.4 6.4s3.6-1.5 2.9-4.6l-8.3-1.8zm10.4 10.6c-.8-3.1-3.2-5.9-5.5-6.3s-3.5 1.7-2.7 4.7l8.2 1.6zm-7.7.7c.8 3.1 3.2 5.9 5.5 6.3s3.5-1.7 2.7-4.8l-8.2-1.5zm9.4 6c-.8-3.1-3.3-5.8-5.5-6.2-2.3-.4-3.4 1.8-2.6 4.9l8.2 1.4zm-6.4 5.5c.8 3.1 3.3 5.8 5.6 6.1 2.2.3 3.4-1.9 2.5-5l-8.1-1.2zm10.7 10c-.9-3.1-3.4-5.8-5.6-6s-3.3 2-2.4 5.1l8.1.9zm-7.4 1.4c.9 3.1 3.4 5.8 5.7 6 2.2.2 3.3-2.1 2.4-5.2l-8-.8zm9.3 5.3c-.9-3.1-3.5-5.7-5.7-5.9s-3.2 2.1-2.3 5.2l8 .7zm-5.8 6.2c1 3.1 3.5 5.7 5.7 5.8s3.2-2.3 2.2-5.3l-7.9-.5zm10.8 9.5c-1-3.1-3.6-5.6-5.8-5.7-2.2 0-3.1 2.4-2.1 5.5l7.8.2zm-7.1 2c1 3.1 3.6 5.6 5.8 5.7 2.2 0 3.1-2.4 2-5.5l-7.8-.2zm9.4 4.7c-1.1-3.1-3.7-5.6-5.8-5.6s-3 2.5-2 5.6h7.8zm-5.4 6.8c1.1 3.1 3.7 5.5 5.8 5.5s3-2.6 1.9-5.7l-7.7.2zm11 8.8c-1.1-3.1-3.8-5.5-5.9-5.4s-2.9 2.7-1.7 5.8l7.6-.4zm-6.8 2.7c1.2 3.1 3.8 5.5 5.9 5.3 2.1-.1 2.9-2.7 1.7-5.8l-7.6.5zm9.3 4c-1.2-3.1-3.8-5.4-5.9-5.3-2.1.2-2.8 2.8-1.6 5.9l7.5-.6zm-4.9 7.5c1.2 3.1 3.9 5.4 5.9 5.2 2.1-.2 2.7-2.9 1.5-6l-7.5.8zm11.1 8.2c-1.3-3.1-3.9-5.3-6-5-2 .3-2.7 3-1.4 6.1l7.4-1zm-6.4 3.3c1.3 3.1 4 5.3 6 5s2.6-3 1.4-6.1l-7.3 1.1zm9.2 3.3c-1.3-3.1-4-5.3-6-4.9s-2.6 3.1-1.3 6.2l7.3-1.2zm-4.4 8.1c1.3 3.1 4 5.2 6 4.8s2.5-3.2 1.2-6.2l-7.2 1.4zm11.2 7.5c-1.4-3.1-4.1-5.2-6-4.7-2 .5-2.4 3.3-1.1 6.3l7.1-1.7zm-6.1 3.9c1.4 3 4.1 5.1 6 4.7 2-.5 2.4-3.3 1-6.4l-7.1 1.7zm9.1 2.7c-1.4-3-4.1-5.1-6.1-4.6-1.9.5-2.4 3.4-1 6.4l7-1.8zm-3.9 8.6c1.4 3 4.2 5 6.1 4.5 1.9-.6 2.3-3.5.9-6.5l-6.9 2zm11.2 6.8c-1.5-3-4.2-5-6.1-4.4s-2.2 3.6-.8 6.6l6.8-2.2zm-5.7 4.5c1.5 3 4.2 5 6.1 4.3 1.9-.6 2.2-3.6.7-6.6l-6.8 2.3zm9 2.1c-1.5-3-4.2-4.9-6.1-4.3-1.9.7-2.2 3.6-.7 6.7l6.8-2.4zm-3.4 9.1c1.5 3 4.3 4.9 6.1 4.2s2.1-3.7.6-6.7l-6.7 2.6zm11.2 6.2c-1.6-3-4.3-4.8-6.1-4s-2 3.8-.4 6.8l6.6-2.8zm-5.4 5c1.6 3 4.3 4.8 6.1 4s2-3.8.4-6.8l-6.5 2.8zm8.8 1.5c-1.6-3-4.3-4.7-6.1-3.9s-1.9 3.9-.4 6.9l6.5-2.9zm-2.9 9.5c1.6 3 4.4 4.7 6.1 3.8 1.8-.9 1.9-3.9.3-6.9l-6.4 3.1zm11.2 5.5c-1.7-2.9-4.4-4.6-6.1-3.7s-1.8 4-.1 7l6.3-3.3zm-5.1 5.5c1.7 2.9 4.4 4.6 6.1 3.7s1.8-4.1.1-7l-6.3 3.3zm8.7 1c-1.7-2.9-4.4-4.5-6.1-3.6-1.7 1-1.7 4.1 0 7l6.2-3.4zm-2.4 9.9c1.7 2.9 4.4 4.5 6.1 3.5s1.7-4.2 0-7.1l-6.1 3.6zm11.1 4.9c-1.7-2.9-4.5-4.4-6.1-3.4-1.7 1-1.6 4.2.1 7.1l6-3.8zm-4.7 5.9c1.7 2.9 4.5 4.4 6.1 3.3s1.6-4.3-.2-7.2l-6 3.8zm8.5.4c-1.8-2.9-4.5-4.3-6.1-3.3-1.6 1.1-1.5 4.3.2 7.2l5.9-3.9zm-2 10.4c1.8 2.9 4.5 4.3 6.1 3.2s1.5-4.4-.3-7.2l-5.8 4.1zm11 4.2c-1.8-2.9-4.5-4.2-6.1-3s-1.4 4.4.4 7.3l5.7-4.2zm-4.3 6.4c1.8 2.8 4.5 4.2 6.1 3s1.4-4.5-.4-7.3l-5.7 4.3zm8.3-.2c-1.8-2.8-4.6-4.2-6.1-2.9-1.6 1.2-1.3 4.5.5 7.3l5.6-4.4zm-1.5 10.7c1.8 2.8 4.6 4.1 6.1 2.9s1.3-4.5-.6-7.4l-5.5 4.5zm10.9 3.7c-1.9-2.8-4.6-4-6.1-2.7s-1.2 4.6.7 7.4l5.4-4.7zm-4 6.8c1.9 2.8 4.6 4 6.1 2.7s1.2-4.6-.7-7.4l-5.4 4.7zm8.1-.7c-1.9-2.8-4.6-4-6.1-2.6-1.5 1.3-1.1 4.7.7 7.4l5.4-4.8zm-1.1 11c1.9 2.8 4.6 3.9 6.1 2.6 1.5-1.4 1.1-4.7-.8-7.5l-5.3 4.9zm10.8 3.1c-1.9-2.7-4.6-3.8-6.1-2.4-1.4 1.4-1 4.8.9 7.5l5.2-5.1zm-3.7 7.1c1.9 2.7 4.6 3.8 6.1 2.4 1.4-1.4 1-4.8-.9-7.5l-5.1 5.1zm8-1.1c-1.9-2.7-4.7-3.8-6.1-2.3-1.4 1.4-1 4.8 1 7.5l5.1-5.2zm-.8 11.3c2 2.7 4.7 3.7 6 2.3 1.4-1.5.9-4.9-1-7.6l-5 5.3zm10.8 2.5c-2-2.7-4.7-3.7-6-2.1-1.4 1.5-.8 4.9 1.1 7.6l4.9-5.5zm-3.5 7.5c2 2.7 4.7 3.6 6 2.1s.8-4.9-1.2-7.6l-4.9 5.5zm7.8-1.6c-2-2.7-4.7-3.6-6-2.1s-.8 5 1.2 7.6l4.8-5.6zm-.4 11.5c2 2.7 4.7 3.5 6 2 1.3-1.6.7-5-1.3-7.6l-4.7 5.7zm10.7 2.1c-2-2.6-4.7-3.5-6-1.9s-.7 5 1.4 7.7l4.6-5.8zm-5.9 1.4c0 2.8 1.9 6.1 4.3 7.5s4.3.2 4.3-2.5l-8.7-5zm8.6 5c0-2.8-1.9-6.1-4.3-7.5s-4.3-.2-4.3 2.5l8.7 5zm-8.6-4.8c0 2.8 1.9 6.1 4.3 7.5s4.3.2 4.3-2.5l-8.7-5zm8.6 5.2c0-2.8-1.9-6.1-4.3-7.5s-4.3-.2-4.3 2.5l8.7 5zm-2 3.1c2-.3 2.6-3 1.4-6.1s-3.9-5.3-6-5l4.6 11.1zm-4.5-11.1c-2 .3-2.6 3-1.4 6.1 1.3 3.1 3.9 5.3 6 5l-4.6-11.1zm4.7 11.1c2-.3 2.6-3 1.4-6.1-1.3-3.1-3.9-5.3-6-5l4.6 11.1zm-4.5-11.2c-2 .3-2.6 3-1.4 6.1 1.3 3.1 3.9 5.3 6 5l-4.6-11.1zm.1 8.5c2 2.6 4.7 3.5 6 1.8 1.3-1.6.7-5-1.4-7.7l-4.6 5.8zm4.6-5.8c-2-2.6-4.7-3.5-6-1.8-1.3 1.6-.7 5 1.4 7.7l4.6-5.8zm-4.5 6c2 2.6 4.7 3.5 6 1.8 1.3-1.6.7-5.1-1.4-7.7l-4.6 5.8zm4.7-5.7c-2-2.6-4.7-3.5-6-1.8-1.3 1.6-.7 5.1 1.4 7.7l4.6-5.8zm2 5.4c0-2.8-1.9-6.1-4.3-7.5s-4.3-.2-4.3 2.5l8.7 5zm-8.6-5.1c0 2.8 1.9 6.1 4.3 7.5s4.3.2 4.3-2.5l-8.7-5zm8.6 4.9c0-2.8-1.9-6.1-4.3-7.5s-4.3-.2-4.3 2.5l8.7 5zm-8.6-5.1c0 2.8 1.9 6.1 4.3 7.5s4.3.2 4.3-2.5l-8.7-5zm7.4 7.9c2-.3 2.6-3 1.4-6.1-1.3-3.1-4-5.3-6-5l4.6 11.1zm-1.7-11.6c-2 .3-2.6 3.1-1.3 6.2s4 5.3 6 5l-4.7-11.1zm9.1 10.3c2-.4 2.6-3.1 1.3-6.2s-4-5.2-6-4.9l4.8 11.1zm1.1-12.2c-2 .4-2.5 3.2-1.2 6.3s4 5.2 6 4.8l-4.9-11.1zm6.3 10.8c2-.4 2.5-3.2 1.1-6.3-1.3-3.1-4-5.2-6-4.8l4.9 11.1zm-2-11.7c-2 .4-2.5 3.3-1.1 6.3 1.4 3.1 4.1 5.2 6 4.7L309 496zm9.3 10c2-.5 2.4-3.3 1-6.4-1.4-3-4.1-5.1-6-4.7l5 11zm.7-12.5c-1.9.5-2.3 3.4-.9 6.5 1.4 3 4.1 5.1 6.1 4.6l-5.1-11zm6.5 10.6c1.9-.5 2.3-3.4.9-6.5-1.4-3-4.1-5.1-6.1-4.5l5.2 11zm-2.3-11.8c-1.9.6-2.3 3.5-.9 6.5s4.2 5 6.1 4.5l-5.2-11zm9.4 9.7c1.9-.6 2.2-3.5.8-6.6-1.5-3-4.2-5-6.1-4.4l5.3 11zm.2-12.7c-1.9.6-2.2 3.6-.7 6.6s4.2 4.9 6.1 4.3l-5.4-10.9zm6.8 10.4c1.9-.7 2.2-3.6.7-6.6s-4.2-4.9-6.1-4.3l5.4 10.9zm-2.7-11.9c-1.9.7-2.1 3.7-.6 6.7s4.2 4.9 6.1 4.2l-5.5-10.9zm9.6 9.3c1.8-.7 2.1-3.7.5-6.7-1.5-3-4.3-4.8-6.1-4.1l5.6 10.9zm-.3-13c-1.8.8-2 3.8-.4 6.8s4.3 4.8 6.1 4l-5.7-10.8zm7.1 10.2c1.8-.8 2-3.8.4-6.8s-4.3-4.8-6.1-4l5.7 10.8zm-3.1-11.9c-1.8.8-1.9 3.9-.4 6.9 1.6 3 4.3 4.7 6.1 3.9l-5.8-10.8zm9.7 8.9c1.8-.8 1.9-3.9.3-6.9s-4.4-4.7-6.1-3.8l5.9 10.7zm-.7-13.3c-1.7.9-1.8 4-.2 7 1.6 2.9 4.4 4.6 6.1 3.7l-6-10.7zm7.2 10c1.7-.9 1.8-4 .1-7s-4.4-4.6-6.1-3.7l6 10.7zm-3.5-12c-1.7.9-1.8 4.1 0 7 1.7 2.9 4.4 4.6 6.1 3.6l-6.1-10.6zm9.9 8.5c1.7-1 1.7-4.2 0-7.1s-4.4-4.5-6.1-3.5l6.1 10.6zm-1.3-13.6c-1.7 1-1.6 4.2.1 7.1s4.5 4.4 6.1 3.4l-6.3-10.5zm7.5 9.8c1.7-1.1 1.6-4.3-.1-7.2s-4.5-4.4-6.1-3.3l6.3 10.5zm-3.9-12.1c-1.6 1.1-1.5 4.3.2 7.2s4.5 4.4 6.1 3.3l-6.3-10.5zm10 8c1.6-1.1 1.5-4.4-.3-7.2-1.8-2.9-4.5-4.3-6.1-3.2l6.4 10.4zm-1.8-13.7c-1.6 1.2-1.4 4.4.4 7.3s4.5 4.2 6.1 3l-6.5-10.3zm7.7 9.4c1.6-1.2 1.4-4.5-.4-7.3s-4.6-4.2-6.1-3l6.6 10.3zm-4.3-12c-1.5 1.2-1.3 4.5.5 7.3s4.6 4.1 6.1 2.9l-6.6-10.3zm10 7.5c1.5-1.3 1.3-4.6-.6-7.4s-4.6-4.1-6.1-2.8l6.7 10.2zm-2.3-14c-1.5 1.3-1.2 4.6.7 7.4s4.6 4 6.1 2.7l-6.8-10.1zm7.9 9.1c1.5-1.3 1.1-4.7-.8-7.4-1.9-2.8-4.6-4-6.1-2.6l6.8 10.1zm-4.7-12c-1.5 1.4-1.1 4.7.8 7.5s4.6 3.9 6.1 2.5l-6.9-10zm10.1 6.9c1.4-1.4 1-4.8-.9-7.5s-4.6-3.8-6.1-2.4l7 9.9zm-2.9-14.1c-1.4 1.5-.9 4.8 1 7.6s4.7 3.7 6 2.3l-7.1-9.8zm8.1 8.8c1.4-1.5.9-4.9-1.1-7.6s-4.7-3.7-6-2.2l7.1 9.8zm-5.1-12c-1.4 1.5-.8 4.9 1.1 7.6 2 2.7 4.7 3.7 6 2.1l-7.2-9.7zm10.1 6.3c1.3-1.5.8-5-1.2-7.6s-4.7-3.6-6-2l7.2 9.7zm-3.4-14.2c-1.3 1.6-.7 5 1.4 7.7 2 2.6 4.7 3.5 6 1.9l-7.3-9.5zm8.3 8.3c1.3-1.6.6-5.1-1.4-7.7s-4.7-3.4-6-1.8l7.4 9.5zm-5.6-11.8c-1.2 1.7-.6 5.1 1.5 7.7 2 2.6 4.7 3.4 6 1.7l-7.4-9.4zm10.2 5.7c1.2-1.7.5-5.2-1.6-7.7s-4.7-3.3-5.9-1.6l7.5 9.3zm-4.1-14.4c-1.2 1.8-.4 5.2 1.7 7.8 2.1 2.5 4.7 3.2 5.9 1.4l-7.6-9.2zm8.4 7.9c1.1-1.8.4-5.2-1.7-7.8-2.1-2.5-4.7-3.1-5.9-1.4l7.6 9.2zm-5.9-11.7c-1.1 1.8-.3 5.3 1.8 7.8s4.7 3.1 5.9 1.3l-7.7-9.1zm10.1 5c1.1-1.8.2-5.3-1.9-7.8s-4.7-3-5.8-1.2l7.7 9zm-4.6-14.4c-1 1.9-.1 5.4 2 7.8 2.2 2.4 4.8 2.9 5.8 1l-7.8-8.8zm8.5 7.4c1-1.9 0-5.4-2.1-7.8-2.2-2.4-4.8-2.8-5.8-.9l7.8 8.8zm-6.3-11.6c-1 1.9 0 5.5 2.1 7.9 2.2 2.4 4.8 2.8 5.7.8l-7.9-8.7zm10 4.3c1-2 0-5.5-2.2-7.9s-4.8-2.7-5.7-.7l8 8.6zm-5.2-14.4c-.9 2 .2 5.6 2.4 7.9s4.7 2.5 5.7.5l-8-8.4zm8.7 6.9c.9-2.1-.2-5.6-2.4-7.9s-4.7-2.5-5.6-.5l8.1 8.3zm-6.8-11.4c-.9 2.1.2 5.6 2.5 7.9 2.2 2.3 4.7 2.4 5.6.4l-8.1-8.3zm10 3.6c.8-2.1-.3-5.7-2.6-7.9s-4.7-2.3-5.6-.2l8.1 8.1zm-5.8-14.3c-.8 2.2.4 5.7 2.7 7.9s4.7 2.2 5.5 0l-8.2-7.9zm8.7 6.3c.8-2.2-.5-5.7-2.7-7.9-2.3-2.2-4.7-2.2-5.5 0l8.2 7.9zM446 373c-.7 2.2.5 5.7 2.8 7.9 2.3 2.1 4.7 2.1 5.5-.1L446 373zm9.8 2.8c.7-2.3-.6-5.8-2.9-7.9s-4.7-2-5.4.3l8.3 7.6zm-6.4-14.3c-.6 2.3.7 5.8 3 7.9s4.7 1.8 5.3-.5l-8.4-7.4zm8.9 5.7c.6-2.3-.8-5.8-3.1-7.9-2.3-2-4.7-1.8-5.3.5l8.4 7.4zm-7.5-10.7c-.6 2.3.8 5.9 3.1 7.9s4.7 1.7 5.3-.6l-8.4-7.3zm9.6 2c.5-2.4-.9-5.9-3.2-7.9s-4.7-1.6-5.2.7l8.4 7.1zm-6.9-14.1c-.5 2.4 1 5.9 3.4 7.8 2.3 1.9 4.6 1.5 5.1-.9l-8.5-6.9zm8.8 5.1c.5-2.4-1-5.9-3.4-7.8-2.3-1.9-4.6-1.5-5.1 1l8.5 6.9zm-7.8-10.4c-.4 2.5 1.1 6 3.5 7.8 2.4 1.9 4.6 1.4 5.1-1.1l-8.5-6.7zm9.5 1.2c.4-2.5-1.2-6-3.6-7.8s-4.6-1.3-5 1.2l8.6 6.6zm-7.5-13.9c-.3 2.5 1.3 6 3.7 7.8s4.6 1.1 4.9-1.4l-8.6-6.4zm8.8 4.6c.3-2.5-1.3-6-3.7-7.8s-4.6-1.1-4.9 1.5l8.6 6.3zm-8.2-9.4c-.3 2.6 1.4 6 3.8 7.7s4.5 1 4.9-1.5l-8.6-6.2zm9.1 1.3c.3-2.6-1.4-6-3.8-7.7s-4.5-.9-4.8 1.7l8.6 6.1zm-8-12.4c-.2 2.6 1.5 6.1 3.9 7.7s4.5.8 4.7-1.8l-8.6-5.9zm8.8 4.2c.2-2.6-1.6-6.1-3.9-7.7-2.4-1.6-4.5-.8-4.7 1.9l8.6 5.8zm-8.4-9c-.2 2.6 1.6 6.1 4 7.7s4.5.7 4.7-1.9l-8.7-5.7zm9 .7c.1-2.7-1.7-6.1-4.1-7.6s-4.4-.6-4.6 2.1l8.7 5.6zm-8.4-12.2c0 2.7 1.8 6.1 4.2 7.6s4.4.5 4.5-2.2l-8.7-5.4zm3.3-3.6c-2.4-1.2-4.2.2-4 3s2.2 6.1 4.6 7.3l-.6-10.3zm-2.3 8.8c2.4 1.2 4.2 0 4.1-2.9-.1-2.8-2.2-6.1-4.6-7.3l.5 10.3zm-4.6-12.4c-2.4-1.3-4.3 0-4.2 2.8 0 2.8 2.1 6.1 4.5 7.4l-.3-10.2zm-5.5 6.9c2.4 1.4 4.3.2 4.3-2.5 0-2.8-2-6.1-4.4-7.5v10zm-1.6-10.9c-2.4-1.4-4.3-.3-4.4 2.5 0 2.8 1.9 6.1 4.3 7.5v-10zm-3.7 7.8c2.4 1.4 4.4.4 4.4-2.3s-1.8-6.1-4.2-7.5l-.2 9.9zm-5.1-13.1c-2.4-1.5-4.4-.6-4.5 2.1s1.7 6.1 4.1 7.6l.4-9.7zm-7.7 5c2.4 1.6 4.5.8 4.7-1.8s-1.6-6.1-3.9-7.7l-.8 9.5zm-1-10.7c-2.4-1.6-4.5-.8-4.7 1.8s1.5 6.1 3.9 7.7l.8-9.5zm-4.4 7c2.4 1.7 4.5 1 4.8-1.6s-1.4-6-3.8-7.7l-1 9.4zm-4.2-13.2c-2.4-1.8-4.6-1.1-4.9 1.4s1.3 6 3.7 7.8l1.2-9.2zm-8.5 3.7c2.4 1.9 4.6 1.4 5-1.1s-1.1-6-3.5-7.8l-1.6 8.9zm-.1-10.3c-2.4-1.9-4.6-1.4-5.1 1-.5 2.5 1.1 6 3.4 7.8l1.6-8.9zm-5.2 6c2.3 1.9 4.6 1.5 5.1-.9s-1-5.9-3.3-7.8l-1.8 8.7zm-3.3-13c-2.3-2-4.7-1.7-5.2.7-.6 2.4.9 5.9 3.2 7.9l2.1-8.5zm-9.1 2.3c2.3 2.1 4.7 1.9 5.4-.4s-.7-5.8-3-7.9l-2.4 8.2zm.7-9.7c-2.3-2.1-4.7-2-5.4.3s.6 5.8 2.9 7.9l2.5-8.2zm-6 4.9c2.3 2.1 4.7 2.1 5.4-.1s-.5-5.8-2.8-7.9l-2.6 8zm-2.3-12.8c-2.3-2.2-4.7-2.3-5.5-.1-.8 2.1.4 5.7 2.7 7.9l2.9-7.8zm-9.7.9c2.2 2.3 4.7 2.5 5.6.4s-.2-5.6-2.4-7.9l-3.2 7.5zm1.5-9.1c-2.2-2.3-4.8-2.5-5.7-.5s.2 5.6 2.4 7.9l3.3-7.4zm-6.6 3.8c2.2 2.4 4.8 2.7 5.7.7 1-2 0-5.5-2.3-7.9l-3.4 7.2zm-1.3-12.4c-2.2-2.4-4.8-2.8-5.8-.9s0 5.4 2.1 7.8l3.7-6.9zm-10.3-.6c2.1 2.5 4.7 3 5.9 1.2 1.1-1.8.3-5.3-1.8-7.8l-4 6.6zm2.5-8.4c-2.1-2.5-4.7-3.1-5.9-1.3-1.1 1.8-.3 5.3 1.8 7.8l4.1-6.5zm-7.3 2.6c2.1 2.5 4.7 3.2 5.9 1.5s.4-5.2-1.7-7.8l-4.2 6.3zm-.3-11.9c-2.1-2.6-4.7-3.4-6-1.7-1.2 1.7-.6 5.1 1.5 7.7l4.5-6zm-10.6-2c2 2.7 4.7 3.6 6 2.1s.8-5-1.2-7.6l-4.8 5.6zm3.3-7.6c-2-2.7-4.7-3.6-6-2.1s-.8 4.9 1.1 7.6l4.9-5.5zm-7.9 1.4c1.9 2.7 4.7 3.8 6.1 2.3 1.4-1.4.9-4.8-1-7.6l-5 5.2zm.9-11.3c-1.9-2.8-4.6-3.9-6.1-2.6-1.5 1.4-1.1 4.7.8 7.5l5.3-4.9zm-11-3.6c1.8 2.8 4.6 4.1 6.1 2.9s1.3-4.5-.5-7.3l-5.6 4.5zm4.3-6.5c-1.8-2.8-4.6-4.2-6.1-3-1.6 1.2-1.4 4.5.5 7.3l5.7-4.3zm-8.5-.1c1.8 2.9 4.5 4.3 6.1 3.1 1.6-1.1 1.5-4.4-.3-7.2l-5.8 4.1zm2.1-10.3c-1.7-2.9-4.5-4.4-6.1-3.4-1.7 1-1.6 4.2 0 7.1l6-3.7zm-11.2-5.3c1.6 3 4.4 4.6 6.1 3.7s1.8-4 .2-7l-6.3 3.2zm5.1-5.4c-1.6-3-4.4-4.7-6.1-3.8-1.8.9-1.9 3.9-.3 6.9l6.4-3.1zm-8.8-1.4c1.6 3 4.3 4.8 6.1 4s2-3.8.4-6.8l-6.5 2.8zm3.2-9.4c-1.5-3-4.2-4.9-6.1-4.2s-2.2 3.6-.7 6.7l6.8-2.4zm-11.3-6.8c1.4 3 4.1 5.1 6.1 4.6 1.9-.5 2.4-3.4 1-6.4l-7 1.8zm6.1-4.1c-1.4-3-4.1-5.1-6-4.7-2 .5-2.4 3.3-1 6.4l7.1-1.7zm-9.2-3c1.3 3.1 4 5.2 6 4.8s2.5-3.2 1.2-6.2l-7.2 1.4zm4.4-8c-1.2-3.1-3.9-5.3-6-5.1-2 .3-2.7 3-1.4 6.1l7.4-1zm-11.1-8.5c1.1 3.1 3.8 5.5 5.9 5.4s2.9-2.7 1.8-5.8l-7.6.4zm6.9-2.6c-1.1-3.1-3.7-5.5-5.9-5.5-2.1 0-2.9 2.6-1.8 5.7l7.7-.2zm-9.4-4.6c1 3.1 3.6 5.6 5.8 5.6s3-2.5 2-5.5h-7.8zm5.6-6.5c-1-3.1-3.5-5.7-5.7-5.9s-3.2 2.2-2.2 5.3l8 .6zm-10.7-10.1c.8 3.1 3.3 5.8 5.6 6.2 2.2.3 3.4-1.9 2.6-5l-8.1-1.2zm8.1 1.9c0-2.8-1.9-6.1-4.3-7.5s-4.3-.2-4.3 2.5l8.7 5zm-8.6-5.2c0 2.8 1.9 6.1 4.3 7.5s4.3.2 4.3-2.5l-8.7-5zm8.6 4.6c0-2.8-1.9-6.1-4.3-7.5s-4.3-.2-4.3 2.5l8.7 5zm-8.6-5.6c0 2.8 1.9 6.1 4.3 7.5s4.3.2 4.3-2.5l-8.7-5zm7.6 1.2h0l-6.7 2.6h0l6.7-2.6zm0-.1h0l-6.7 2.5h0l6.7-2.5zm-.1-.2h0l-6.7 2.6h0l6.7-2.6zm-7.4-2.7l8.2 8-8.2-8zm-.1.1v.1l8.2 8v-.1l-8.2-8zm-.1.3l8.2 8-8.2-8zm8.2 4.7l-8.2-1.4 8.2 1.4zm-.1-.1v-.2l-8.2-1.4v.2l8.2 1.4zm-.1-.4l-8.2-1.4 8.2 1.4zm-7.4-5.8h0L296 89h0l-6.7-10.2zm0 0h0l6.7 10.3h0l-6.7-10.3zm-.1.1h0l6.7 10.2h0l-6.7-10.2zm-1 2.6h0l8.7 5h0l-8.7-5zm0 .3v.4l8.7 5v-.4l-8.7-5zm0 .9h0l8.7 5h0l-8.7-5zm.2-1.5c0 .3-.2.5-.3.8l8.1 8.1.3-.8-8.2-8.1zm-1.5 3.7c-.6 1.5-1.3 2.9-2 4.3l7.9 8.7 2.2-4.6-8-8.4zm-5.1 9.7c-.3.4-.5.9-.8 1.3l7.6 9.1.9-1.4-7.7-9zm-2.5 3.8l-2.7 3.6 7.3 9.5 2.9-3.8-7.5-9.3zm-6.5 8c-.3.4-.7.7-1 1l7 9.9 1.1-1.1-7.1-9.8zm-3 3.1c-1 1-2.1 1.9-3.2 2.8l6.7 10.2 3.4-3-6.9-10zm-7.8 6.2c-.4.3-.8.5-1.2.8l6.3 10.5c.4-.3.8-.6 1.2-.8l-6.4-10.4zm-3.6 2.3l-3.7 2.1 6 10.7 3.9-2.2-6.2-10.6zm-8.9 4.5c-.4.2-.9.4-1.3.5l5.6 10.9 1.4-.6-5.7-10.8zm-4 1.5l-4.1 1.3 5.2 11 4.4-1.4-5.4-10.9zm-9.7 2.7l-1.4.3 4.8 11.1c.5 0 1-.2 1.5-.3l-4.9-11.1zm-4.4.9l-4.4.6 4.4 11.1 4.7-.6-4.6-11.1zm-10.5 1h-1.5l4 11.2h1.6l-4.1-11.2zm-4.6.1c-1.6 0-3.1 0-4.7-.1l3.6 11.2 5 .1-3.8-11.2zm-11.1-.6c-.5 0-1.1-.1-1.6-.2l3.2 11.1c.6 0 1.1.1 1.7.2l-3.3-11.1zm-4.9-.6l-4.9-.8 2.8 11.1 5.2.8-3-11.1zm-11.6-2.2c-.6-.1-1.1-.3-1.7-.4l2.4 11c.6.1 1.2.3 1.8.4l-2.5-11zm-5-1.2c-1.7-.4-3.4-.9-5.1-1.5l2 10.9 5.3 1.5-2.2-10.9zm-11.9-3.7l-1.7-.6 1.6 10.7 1.8.6-1.6-10.8zm-5.1-1.9l-5.2-2.1 1.2 10.6 5.4 2.2-1.4-10.7zm-12.1-5.1l-1.7-.8.8 10.4 1.8.8-.8-10.4zm-5.3-2.5l-5.2-2.7.4 10.2 5.5 2.8-.6-10.3zm-12.2-6.5c-.3-.2-.6-.3-.9-.5v10c.3.2.6.4.9.5v-10zm-.8-.5c-.2-.1-.5-.3-.7-.4v10c.2.1.5.3.7.4v-10zm-3.5-2l-4.2-2.5-.3 9.8 4.4 2.6.2-9.9zm-9.7-6.1c-.2-.2-.5-.3-.7-.5l-.6 9.6c.2.2.5.3.7.5l.6-9.6zm-5.4 2v.9l8.7 4.6v-.9l-8.7-4.6zm.2 4.5c0 1.8.2 3.6.3 5.4l8.7 4.3c0-1.7-.2-3.5-.3-5.2l-8.7-4.5zm.7 12.5c0 .6 0 1.2.1 1.8l8.6 4c0-.6 0-1.2-.1-1.8l-8.6-4.1zm.4 5.5l.5 5.5 8.6 3.8-.5-5.3-8.6-3.9zm1.3 12.8c0 .3 0 .6.1.9l8.6 3.5c0-.3 0-.6-.1-.9l-8.6-3.6zm.1.9c0 .4 0 .7.1 1.1l8.6 3.5c0-.4 0-.7-.1-1.1l-8.6-3.5zm.6 5.5l.9 6.6 8.5 3.2-.9-6.4-8.6-3.4zm2.3 15.5l.4 2.2 8.5 2.8-.3-2.2-8.5-2.9zm1.1 6.6l1.2 6.7 8.4 2.5-1.2-6.5-8.5-2.7zm2.9 15.8l.5 2.3 8.4 2.2c-.2-.7-.3-1.5-.5-2.2l-8.4-2.2zm1.4 6.7l1.5 6.8 8.3 1.8-1.5-6.6-8.3-2zm3.7 16l.6 2.3 8.2 1.5-.6-2.2-8.2-1.6zm1.8 6.8l1.8 6.9 8.1 1.2-1.8-6.7-8.2-1.4zm4.4 16c.2.8.4 1.5.7 2.3l8 .8-.7-2.2-8.1-.9zm2 6.9l2.1 6.9 7.9.5-2.1-6.7-8-.7zm5.2 16.1l.8 2.3 7.8.2-.7-2.2-7.8-.2zm2.3 6.9l2.4 6.9 7.7-.2-2.3-6.7h-7.8zm5.7 16.1l.9 2.3 7.6-.5c-.3-.7-.6-1.5-.8-2.2l-7.6.4zm2.7 6.9l2.7 6.9 7.5-.8a184.69 184.69 0 0 1-2.6-6.7l-7.5.6zm6.3 16.1l.9 2.3 7.3-1.1-.9-2.2-7.4 1zm2.9 6.9l2.9 6.9 7.2-1.4-2.9-6.7-7.3 1.2zm7 15.9c.3.8.7 1.5 1 2.3l7.1-1.7-1-2.2-7.1 1.7zm3.1 6.8l3.2 6.8 6.9-2-3.1-6.6-7 1.8zm7.5 15.8l1.1 2.3 6.8-2.3c-.4-.7-.7-1.5-1.1-2.2l-6.8 2.2zm3.3 6.8l3.4 6.7 6.7-2.6-3.3-6.6-6.8 2.4zm8 15.6l1.2 2.2 6.5-2.8c-.4-.7-.8-1.4-1.1-2.2l-6.6 2.8zm3.5 6.7l3.6 6.6 6.4-3.1-3.5-6.5-6.5 2.9zm8.5 15.4l1.2 2.2 6.3-3.3-1.2-2.1-6.3 3.3zm3.7 6.6l3.8 6.5 6.1-3.6-3.7-6.4-6.2 3.4zm8.9 15.2l1.3 2.2 6-3.8-1.3-2.1-6 3.8zm3.9 6.4l3.9 6.4 5.8-4.1-3.8-6.3-5.9 3.9zm9.2 15l1.3 2.1 5.7-4.3-1.3-2.1-5.7 4.2zm4.1 6.3l4.1 6.3 5.5-4.5-4-6.2-5.6 4.4zM246 446l1.4 2.1 5.4-4.7-1.4-2-5.4 4.7zm4.2 6.2l4.2 6.2 5.3-4.9-4.1-6.1-5.4 4.8zm9.9 14.4l1.4 2 5.1-5.1-1.4-2-5.2 5.1zm4.3 6.1l4.3 6.1 5-5.3-4.3-5.9-5.1 5.2zm10.2 14.1l1.5 2 4.9-5.5-1.4-2-4.9 5.5zm4.4 6l4.5 5.9 4.7-5.7-4.4-5.8-4.8 5.6zm10.4 13.8c.3.3.5.7.8 1l4.6-5.8c-.2-.3-.5-.6-.7-1l-4.6 5.8zm-1.2-4.5h0l8.7 5h0l-8.7-5zm0 .2h0c0 .1 8.7 5.1 8.7 5.1h0c0-.1-8.7-5.1-8.7-5.1zm0 .3h0l8.7 5h0l-8.7-5zm6.6 8.1l-4.6-11.1 4.6 11.1zm.1 0h.1l-4.6-11.1h-.1l4.6 11.1zm.2-.1l-4.6-11.1 4.6 11.1zm-4.6-2.6l4.6-5.8h0l-4.6 5.8zm.1.1l4.6-5.8-4.6 5.8zm.2.2h0l4.6-5.8-4.6 5.8zm6.6-.4h0l-8.7-5h0l8.7 5zm0-.1h0c0-.1-8.7-5.1-8.7-5.1h0c0 .1 8.7 5.1 8.7 5.1zm0-.2h0l-8.7-5h0l8.7 5zm-2 3c.3 0 .5 0 .8-.1l-4.6-11.1c-.2 0-.5 0-.7.1l4.6 11.1zm3.8-.6c1.5-.2 3-.5 4.5-.8l-4.8-11.1c-1.5.3-2.9.5-4.4.8l4.7 11.1zm10.4-1.9l1.5-.3-4.9-11.1-1.4.3 4.9 11.1zm4.4-1c1.5-.3 2.9-.7 4.4-1l-5-11c-1.4.3-2.9.7-4.3 1l4.9 11.1zm10.1-2.5c.5-.1 1-.3 1.4-.4l-5.2-11c-.5.1-.9.3-1.4.4l5.1 11zm4.3-1.2c1.4-.4 2.8-.8 4.2-1.3l-5.3-11c-1.4.4-2.8.9-4.2 1.3l5.2 11zm9.8-3.1c.5-.2.9-.3 1.4-.5l-5.4-10.9c-.5.2-.9.3-1.4.5l5.4 10.9zm4.2-1.5c1.4-.5 2.7-1 4.1-1.6l-5.6-10.9-4 1.5 5.5 10.9zm9.5-3.8c.4-.2.9-.4 1.3-.6l-5.7-10.8c-.4.2-.9.4-1.3.6l5.7 10.8zm4-1.8c1.3-.6 2.7-1.2 4-1.9l-5.9-10.7-3.9 1.8 5.8 10.8zm9.2-4.4c.4-.2.9-.4 1.3-.7l-6-10.7c-.4.2-.8.4-1.3.7l6 10.7zm3.9-2.1c1.3-.7 2.6-1.4 3.8-2.2l-6.1-10.6-3.7 2.1 6.1 10.6zm8.8-5.1c.4-.3.8-.5 1.2-.8l-6.3-10.5c-.4.3-.8.5-1.2.8l6.3 10.5zm3.6-2.4c1.2-.8 2.4-1.6 3.6-2.5l-6.4-10.4-3.5 2.4 6.3 10.5zm8.4-5.9l1.2-.9-6.6-10.3c-.4.3-.8.6-1.1.9l6.5 10.3zm3.5-2.7c1.2-.9 2.3-1.8 3.4-2.8l-6.7-10.2-3.3 2.7 6.6 10.3zm7.9-6.6c.4-.3.7-.7 1.1-1l-6.8-10.1c-.4.3-.7.6-1.1 1l6.8 10.1zm3.3-3c1.1-1 2.2-2 3.2-3.1l-7-9.9c-1 1-2.1 2-3.1 3l6.9 10zm7.4-7.3c.3-.4.7-.7 1-1.1l-7.1-9.8c-.3.4-.7.7-1 1.1l7.1 9.8zm3.1-3.3c1-1.1 2-2.3 3-3.4l-7.2-9.7c-1 1.1-1.9 2.2-2.9 3.3l7.2 9.7zm6.8-8.2l.9-1.2-7.4-9.5-.9 1.2 7.3 9.5zm2.8-3.6l2.7-3.7-7.5-9.3-2.7 3.6 7.4 9.4zm6.3-8.9c.3-.4.6-.9.9-1.3l-7.6-9.2a9.13 9.13 0 0 0-.8 1.3l7.6 9.2zm2.5-4l2.5-4.1-7.7-9-2.4 4 7.7 9.1zm5.7-9.6c.3-.5.5-.9.8-1.4l-7.8-8.8c-.2.5-.5.9-.7 1.4l7.8 8.8zm2.2-4.3l2.2-4.4-8-8.6-2.1 4.3 7.9 8.7zm5-10.4c.2-.5.4-1 .7-1.5l-8.1-8.3c-.2.5-.4 1-.7 1.5l8 8.4zm2-4.6c.6-1.6 1.3-3.1 1.9-4.7l-8.1-8.1-1.8 4.6 8.1 8.3zm4.3-11.1c.2-.5.4-1.1.6-1.6l-8.2-7.9c-.2.5-.4 1.1-.6 1.6l8.2 7.9zm1.7-4.9c.5-1.7 1.1-3.3 1.6-5l-8.3-7.6-1.5 4.9 8.3 7.8zm3.5-11.8c.2-.6.3-1.1.5-1.7l-8.4-7.4c-.1.6-.3 1.1-.5 1.7l8.4 7.4zm1.4-5.2l1.3-5.3-8.4-7.1-1.2 5.1 8.4 7.3zm2.8-12.5c.1-.6.2-1.2.4-1.8l-8.5-6.9-.3 1.8 8.5 6.9zm1-5.5l.9-5.5-8.6-6.6-.9 5.4 8.5 6.7zm2.1-13c0-.3 0-.6.1-.9l-8.6-6.3c0 .3 0 .6-.1.9l8.6 6.4zm.1-1c0-.3 0-.5.1-.8l-8.6-6.3c0 .3 0 .5-.1.8l8.6 6.3zm.5-4c.2-1.6.4-3.2.5-4.9l-8.6-6.1c-.2 1.6-.3 3.2-.5 4.7l8.6 6.2zm1.2-11.4c0-.6 0-1.1.1-1.7l-8.6-5.8c0 .5 0 1.1-.1 1.6l8.6 5.9zm.3-5l.3-5-8.7-5.6c0 1.6-.2 3.3-.3 4.9l8.7 5.7zm.7-11.8v-.9l-8.7-5.4v.8l8.7 5.4zm-4.7-8.7c-.2-.1-.5-.2-.7-.3l.6 10.3c.2.1.5.2.7.4l-.6-10.3zm-3.4-1.7c-1.4-.7-2.8-1.4-4.2-2.2l.3 10.2 4.4 2.3-.5-10.3zm-9.8-5.3c-.2-.1-.5-.3-.7-.4v10c.2.1.5.3.7.4v-10zm-.7-.4c-.3-.2-.6-.3-.9-.5v10c.3.2.6.4.9.5v-10zM445 281l-5.2-3.2-.4 9.7 5.5 3.4.2-9.9zm-12.2-7.8c-.6-.4-1.2-.8-1.7-1.2l-.8 9.5 1.8 1.2.8-9.5zm-5.2-3.6c-1.7-1.2-3.5-2.5-5.2-3.8l-1.2 9.2 5.4 3.9 1-9.4zm-12.1-9l-1.7-1.4-1.6 8.9c.6.5 1.2 1 1.8 1.4l1.6-8.9zm-5.1-4.1l-5.1-4.3-2.1 8.5 5.3 4.5 1.8-8.7zm-11.9-10.2c-.6-.5-1.1-1-1.7-1.5l-2.5 8.2c.6.5 1.2 1.1 1.8 1.6l2.4-8.2zm-5-4.6l-5-4.8-2.9 7.8c1.7 1.7 3.5 3.3 5.2 5l2.6-8zm-11.4-11.3c-.5-.6-1.1-1.1-1.6-1.7l-3.3 7.4c.6.6 1.1 1.2 1.7 1.8l3.2-7.5zm-4.9-5.1l-4.8-5.2-3.7 6.9c1.7 1.8 3.3 3.7 5 5.5l3.4-7.2zm-11-12.3l-1.5-1.8-4.1 6.5 1.6 1.9 4-6.6zm-4.6-5.5l-4.5-5.6-4.5 6 4.7 5.9 4.2-6.3zm-10.3-13.3a23.07 23.07 0 0 1-1.4-1.9l-4.9 5.5c.5.7 1 1.4 1.5 2l4.8-5.6zm-4.3-5.9l-4.2-6-5.3 4.9 4.4 6.3 5-5.2zm-9.6-14.1c-.4-.7-.9-1.4-1.3-2.1l-5.7 4.3c.5.7.9 1.4 1.4 2.2l5.6-4.5zm-3.9-6.2l-3.8-6.3-6 3.7 4 6.6 5.8-4.1zm-8.7-14.7l-1.2-2.1-6.4 3.1c.4.8.8 1.5 1.2 2.3l6.3-3.2zm-3.5-6.5c-1.1-2.2-2.3-4.3-3.3-6.5l-6.8 2.4 3.5 6.9 6.5-2.8zm-7.5-15.2c-.3-.7-.7-1.5-1-2.2l-7.1 1.7c.4.8.7 1.6 1.1 2.3l7-1.8zm-3-6.6c-1-2.2-1.9-4.4-2.8-6.6l-7.4 1 3 7.1 7.2-1.4zm-6.2-15.5c-.3-.7-.5-1.5-.8-2.2l-7.7.2.9 2.4 7.6-.4zm-2.4-6.7c-.8-2.2-1.5-4.4-2.2-6.7l-8-.6c.7 2.4 1.5 4.7 2.3 7.1h7.8zm-4.7-15.5c0-.4-.2-.7-.3-1.1l-8.2-1.3.3 1.2 8.1 1.2zm-.1.8h0l-8.7-5h0l8.7 5zm0-.3v-.4l-8.7-5v.4l8.7 5zm0-1h0l-8.7-5h0l8.7 5zm-4.3-2.5l8.7 5c0-2.3-.7-5-2-7.6l-6.7 2.6zm-.1-.3l6.7-2.6c-2-3.9-5.1-7-8.2-8.2-3.1-1.1-5.6 0-6.6 2.7l8.2 8zm.1 1.6l-8.7-5c0 1.2.2 2.4.5 3.7l8.2 1.3zm170.5 210.5l8.7 5.4c0-2.8-.9-6.1-2.6-9.1-1.8-3-4.2-5.4-6.7-6.6l.6 10.3zm-2.7 32.6l-8.6-6.3h0l8.6 6.3zM293.1 505l-4.6-11.1c-2.5.4-4.1 2.7-4.1 6.1l8.7 5zm0 .4l-4.6 5.8c2.7 3.5 6 5.5 8.8 5.3s4.5-2.5 4.5-6.2l-8.7-5zm-.3-.3l4.6-5.8c-2.8-3.6-6.4-5.7-9.2-5.3l4.6 11.1zm-.3 0l-8.7-5c0 3.6 1.7 8 4.5 11.3s6.1 5.2 8.8 4.8l-4.6-11.1zm0-.5l8.7 5c0-3.4-1.5-7.5-4.1-10.8l-4.6 5.8zM124.7 135.8l-8.6-3.5 8.6 3.5zm-2.7-35.7l.6-9.6c-2.5-1.6-4.9-2-6.7-1s-2.7 3.2-2.6 6.1l8.7 4.6zm170.5-14.9l8.2 8.1c.3-.9.5-1.9.5-3.1l-8.7-5zm0-1.2l-6.7-10.2c-1.3 1.1-2 2.9-2 5.2l8.7 5zm.1-.1l8.2 1.4c-1-4-3.6-7.9-6.6-10.4-3.1-2.4-6.2-2.9-8.2-1.3l6.7 10.2zm.2.6l-8.2-1.4c1.2 4.7 4.5 9.2 8.2 11.4s7 1.3 8.2-2l-8.2-8zm6.9-2.8c-3.1-6-8.5-9.7-12.2-8.3s-4.2 7.4-1.1 13.4l13.3-5.2zm-13.3 5.1c3.1 6 8.5 9.7 12.2 8.3s4.2-7.4 1.1-13.4l-13.3 5.2zm13.3-5.3c-3.1-6-8.5-9.7-12.2-8.3s-4.2 7.4-1.1 13.4l13.3-5.2zm-13.4 5.1c3.1 6 8.5 9.7 12.2 8.3s4.2-7.4 1.1-13.4l-13.3 5.2zM284.8 76c-1.6 4.3.8 11.4 5.3 15.8s9.5 4.5 11.1.2l-16.4-16zm16.3 16.1c1.6-4.3-.8-11.4-5.3-15.8s-9.5-4.5-11.1-.2l16.4 16zm-16.4-15.9c-1.6 4.3.8 11.4 5.3 15.8s9.5 4.5 11.1.2l-16.4-16zM301 92.5c1.6-4.3-.8-11.4-5.3-15.8s-9.5-4.5-11.1-.3L301 92.5zm0-6.7c-1.6-6.1-6.6-11.7-11.1-12.4-4.5-.8-6.9 3.6-5.3 9.7l16.4 2.7zm-16.4-2.9c1.6 6.1 6.5 11.7 11.1 12.5 4.5.8 6.9-3.6 5.3-9.7L284.6 83zm16.3 2.6c-1.6-6.1-6.5-11.7-11.1-12.5-4.5-.8-6.9 3.6-5.3 9.7l16.4 2.8zm-16.4-3c1.6 6.1 6.5 11.7 11.1 12.5 4.5.8 6.9-3.6 5.3-9.7l-16.4-2.8zm1.5-8.8c-3.1 2.5-2.6 9.1 1.1 14.7s9.2 8.2 12.2 5.7L286 73.7zm13.3 20.4c3.1-2.5 2.6-9.1-1.1-14.7s-9.2-8.2-12.2-5.7l13.3 20.4zm-13.4-20.4c-3.1 2.5-2.6 9.1 1.1 14.7s9.2 8.2 12.2 5.7l-13.3-20.4zm13.3 20.5c3.1-2.5 2.6-9.1-1.1-14.7s-9.2-8.2-12.2-5.7l13.3 20.4zm-15.4-15.1c0 5.5 3.9 12.2 8.7 15 4.8 2.7 8.7.5 8.7-5l-17.3-9.9zm17.4 10.2c0-5.5-3.9-12.2-8.7-15-4.8-2.7-8.7-.5-8.7 5l17.3 10zm-17.4-9.6c0 5.5 3.9 12.2 8.7 15 4.8 2.7 8.7.5 8.7-5l-17.3-9.9zm17.4 10.4c0-5.5-3.9-12.2-8.7-15-4.8-2.7-8.7-.5-8.7 5l17.3 10zm-17.1-12.2c-1.7 4.2.6 11.3 5.1 15.8s9.5 4.7 11.1.5L284 77.9zM299 97.4c1.8-4.1-.4-11.2-4.8-15.8s-9.5-5-11.3-.9L299 97.4zm-18.1-12.5c-2 3.9 0 10.9 4.3 15.7 4.4 4.8 9.5 5.5 11.5 1.6l-15.8-17.3zm12.5 23.3c2.2-3.6.6-10.6-3.7-15.6-4.2-5-9.5-6.1-11.7-2.5l15.4 18.1zm-16.2-16.8c-2.3 3.6-.7 10.5 3.5 15.6 4.2 5 9.5 6.2 11.8 2.7l-15.3-18.3zm13.4 21c2.4-3.4 1-10.3-3.2-15.5-4.2-5.1-9.5-6.5-11.8-3.1l15 18.6zM273 97.3c-2.6 3.2-1.3 10.1 2.7 15.3 4.1 5.3 9.4 6.9 12 3.7L273 97.2zm10.5 23.9c2.8-2.9 1.8-9.7-2.1-15.1s-9.3-7.5-12.1-4.5l14.2 19.7zm-15.2-18.7c-2.8 2.9-2 9.6 1.9 15.1s9.3 7.6 12.1 4.7l-14-19.8zm11.8 22c2.9-2.7 2.2-9.4-1.6-14.9s-9.2-7.8-12.2-5.1l13.8 20.1zm-16.9-17.3c-3.1 2.5-2.5 9.1 1.1 14.7 3.7 5.6 9.2 8.2 12.2 5.7l-13.4-20.4zm8.4 24.2c3.2-2.2 3-8.7-.5-14.4-3.5-5.8-9-8.6-12.3-6.4l12.8 20.8zm-14-20.1c-3.3 2.1-3.1 8.6.4 14.4s9 8.7 12.3 6.6l-12.7-20.9zm10.1 22.6c3.4-2 3.3-8.4 0-14.2-3.4-5.8-8.9-8.9-12.3-6.9l12.4 21.1zm-16-19.2c-3.5 1.8-3.6 8-.3 13.9s8.8 9.2 12.3 7.4l-11.9-21.4zm6.3 24c3.6-1.5 4-7.6.9-13.6s-8.6-9.6-12.2-8.1l11.3 21.6zm-12.6-21.1c-3.7 1.4-4.1 7.5-1.1 13.5 3.1 6 8.6 9.7 12.2 8.2l-11.2-21.7zm8.3 22.8c3.7-1.3 4.3-7.3 1.3-13.3s-8.5-9.8-12.2-8.5l10.9 21.8zm-14.9-20.6c-3.8 1.1-4.6 6.9-1.7 13s8.3 10.1 12.1 9l-10.4-22zm4.3 23.5c4-.8 5-6.5 2.3-12.6s-8.1-10.4-12.1-9.5l9.8 22.1zm-11.2-21.8c-4 .8-5.1 6.4-2.4 12.5s8 10.5 12 9.7l-9.6-22.2zm6.5 22.7c4-.6 5.2-6.1 2.7-12.3-2.6-6.1-7.9-10.6-12-10l9.3 22.2zm-13.6-21.6c-4.1.4-5.5 5.8-3.1 11.9 2.4 6.2 7.8 10.8 11.9 10.3l-8.8-22.3zm2.2 22.7c4.2-.2 5.8-5.3 3.6-11.5-2.3-6.2-7.5-11-11.7-10.8l8.2 22.3zm-9.6-22.2c-4.2.1-5.9 5.2-3.7 11.4s7.5 11.1 11.7 11l-8-22.3zm4.6 22.3c4.3 0 6.1-5 3.9-11.1-2.1-6.2-7.3-11.2-11.6-11.2l7.7 22.3zM209.7 123c-4.4-.2-6.3 4.6-4.3 10.8s7.1 11.3 11.5 11.5l-7.2-22.3zm.4 21.8c4.4.5 6.6-4.2 4.7-10.3-1.8-6.2-6.9-11.5-11.3-12l6.6 22.3zm-8.2-22.5c-4.5-.5-6.6 4-4.9 10.2 1.8 6.1 6.8 11.5 11.3 12.1l-6.4-22.3zm2.9 21.8c4.5.6 6.8-3.8 5.1-9.9s-6.7-11.6-11.2-12.3l6.1 22.2zM194 121.2c-4.5-.8-7 3.5-5.4 9.6 1.5 6.1 6.5 11.7 11 12.6l-5.6-22.1zm-1.6 20.6c4.6 1.1 7.2-3 5.8-9.1s-6.2-11.9-10.8-12.9l4.9 22zm-6.5-22.4c-4.6-1.1-7.3 2.9-6 8.9 1.3 6.1 6.1 11.9 10.7 13l-4.8-22zm1.1 21.1c4.6 1.2 7.4-2.7 6.2-8.7s-6-11.9-10.6-13.2l4.4 21.9zm-9.4-23.3c-4.7-1.4-7.6 2.3-6.5 8.3s5.8 12 10.4 13.4l-4-21.7zm-3.3 19.3c4.7 1.6 7.8-1.8 6.9-7.8-.9-5.9-5.5-12.1-10.2-13.7l3.3 21.5zm-5-22.1c-4.7-1.7-7.8 1.7-7 7.7s5.4 12.1 10.1 13.8l-3.1-21.5zm-.5 20.1c4.7 1.8 7.9-1.5 7.2-7.4-.8-5.9-5.2-12.1-10-14l2.8 21.3zm-7.9-23.4c-4.7-2-8.1 1.1-7.4 7 .6 5.8 5 12.2 9.8 14.2l-2.3-21.2zm-5.1 17.9c4.8 2.2 8.3-.7 7.8-6.5s-4.7-12.2-9.5-14.4l1.7 20.9zm-3.4-21.6c-4.8-2.3-8.3.6-7.9 6.3s4.6 12.2 9.4 14.5l-1.5-20.8zm-2.2 19c4.8 2.4 8.4-.3 8.1-6s-4.5-12.2-9.3-14.6l1.2 20.6zm-6.3-23.3c-4.8-2.5-8.5 0-8.3 5.6s4.2 12.2 9 14.8l-.7-20.4zm-6.7 16.3c4.8 2.7 8.7.4 8.6-5.1 0-5.5-3.9-12.2-8.7-15v20zm-1.6-20.9c-4.8-2.8-8.7-.5-8.7 5s3.9 12.2 8.6 15v-20zm-3.1 18.2c4.8 2.8 8.7.7 8.8-4.8 0-5.5-3.7-12.2-8.5-15.1l-.3 19.8zm-3.7-22.3c-4.8-3-8.8-1-9 4.4s3.5 12.2 8.3 15.2l.7-19.6zm-6.7 15.8c4.8 3.1 8.9 1.3 9.3-4 .3-5.3-3.3-12.2-8.1-15.3l-1.2 19.3zm-8.7-13.8c.2 5.6 4.2 12.2 9 14.8 4.8 2.5 8.5 0 8.3-5.6l-17.3-9.1zm17.5 12.6c-.2-5.7-4.3-12.2-9.1-14.7s-8.5.1-8.2 5.8l17.3 8.9zm-17.1-3.5c.3 5.7 4.4 12.2 9.2 14.6s8.4-.3 8.1-6l-17.3-8.6zm17.8 15.5c-.4-5.7-4.6-12.2-9.4-14.5s-8.3.6-7.9 6.3l17.3 8.2zm-17.2-6.4c.4 5.8 4.7 12.2 9.4 14.5 4.8 2.2 8.3-.6 7.8-6.4l-17.3-8.1zm17.6 11.6c-.5-5.8-4.7-12.2-9.5-14.4s-8.2.7-7.7 6.5l17.3 7.9zm-16.8-2.3c.6 5.8 4.9 12.2 9.6 14.3 4.8 2.1 8.2-.9 7.6-6.7l-17.2-7.5zm18 14.5c-.7-5.8-5-12.2-9.8-14.1-4.7-2-8.1 1.2-7.4 7l17.2 7.1zm-17-5.1c.7 5.9 5.1 12.2 9.8 14.1s8-1.3 7.3-7.1l-17.2-7zm17.7 11.2c-.7-5.9-5.2-12.2-9.9-14-4.7-1.9-8 1.4-7.2 7.3l17.1 6.7zm-16.2 0c.8 5.9 5.3 12.1 10 13.9s7.9-1.6 7-7.5l-17.1-6.3zm18.3 14.8c-.9-6-5.5-12.1-10.2-13.7s-7.7 1.9-6.8 7.9l17 5.8zm-16.6-3.5c1 6 5.6 12.1 10.3 13.6 4.7 1.6 7.7-2 6.7-8l-17-5.7zm17.7 9.9c-1-6-5.7-12-10.3-13.5-4.7-1.5-7.6 2.1-6.6 8.1l16.9 5.4zm-15.8 1.4c1.1 6 5.8 12 10.5 13.4s7.5-2.4 6.4-8.4l-16.9-5zm18.6 13.6c-1.2-6-6-11.9-10.6-13.2-4.6-1.2-7.4 2.7-6.2 8.7l16.8 4.5zm-16.3-2.2c1.3 6.1 6 11.9 10.7 13.1 4.6 1.2 7.3-2.7 6.1-8.8l-16.7-4.3zm17.7 8.7c-1.3-6.1-6.1-11.9-10.7-13s-7.3 2.9-6 8.9l16.7 4.1zm-15.2 2.8c1.4 6.1 6.3 11.8 10.8 12.8 4.6 1 7.2-3.1 5.8-9.2l-16.6-3.7zm18.7 12.4c-1.5-6.1-6.4-11.8-11-12.6-4.5-.9-7 3.4-5.5 9.5l16.5 3.1zm-15.9-.8c1.5 6.1 6.5 11.7 11 12.6 4.5.8 7-3.5 5.4-9.6l-16.4-3zm17.6 7.3c-1.6-6.1-6.6-11.7-11.1-12.4-4.5-.8-6.9 3.6-5.3 9.7l16.4 2.7zm-14.5 4.3c1.7 6.1 6.7 11.6 11.2 12.3s6.8-3.8 5.1-9.9l-16.3-2.3zm18.7 11.1c-1.8-6.1-6.8-11.5-11.3-12-4.4-.5-6.6 4.1-4.8 10.2l16.1 1.8zm-15.4.5c1.8 6.2 6.9 11.5 11.3 12s6.6-4.2 4.8-10.3l-16.1-1.7zm17.3 6.1c-1.9-6.2-7-11.5-11.4-11.8-4.4-.4-6.5 4.3-4.6 10.5l16 1.4zm-13.8 5.6c1.9 6.2 7.1 11.4 11.4 11.7 4.4.3 6.4-4.5 4.4-10.7l-15.9-1zm18.7 9.8c-2-6.2-7.2-11.3-11.5-11.4s-6.2 4.8-4.1 10.9l15.7.5zm-14.9 1.9c2.1 6.2 7.3 11.2 11.6 11.3 4.3 0 6.1-4.8 4.1-11l-15.6-.3zm17.2 4.7c-2.1-6.2-7.3-11.2-11.6-11.2s-6.1 5-3.9 11.1h15.6zm-13.2 6.9c2.2 6.2 7.4 11.1 11.7 11 4.3 0 5.9-5.2 3.7-11.3l-15.4.3zm18.7 8.5c-2.3-6.2-7.6-11-11.8-10.7-4.2.2-5.8 5.4-3.5 11.6l15.2-.8zm-14.4 3.2c2.3 6.2 7.6 10.9 11.8 10.7 4.2-.3 5.7-5.5 3.4-11.6l-15.2 1zm16.9 3.4c-2.4-6.2-7.7-10.9-11.8-10.5-4.2.3-5.6 5.6-3.3 11.8l15.1-1.2zm-12.4 8.2c2.4 6.2 7.8 10.8 11.9 10.3 4.1-.4 5.5-5.8 3.1-11.9l-14.9 1.6zm18.5 7.2c-2.5-6.1-7.9-10.7-11.9-10.1-4.1.6-5.3 6-2.8 12.2l14.7-2.1zm-13.8 4.4c2.5 6.1 7.9 10.6 12 10s5.3-6.1 2.7-12.2l-14.7 2.2zm16.5 2.2c-2.6-6.1-8-10.6-12-9.9s-5.2 6.2-2.6 12.3l14.6-2.5zm-11.6 9.4c2.7 6.1 8 10.4 12 9.7 4-.8 5.1-6.4 2.4-12.5l-14.4 2.8zm18.3 5.9c-2.7-6.1-8.2-10.3-12.1-9.4s-4.9 6.6-2.1 12.7l14.2-3.3zm-13.1 5.7c2.8 6.1 8.2 10.3 12.1 9.3 3.9-.9 4.8-6.7 2.1-12.7l-14.2 3.4zm16.1.9c-2.8-6.1-8.2-10.2-12.1-9.2s-4.8 6.8-1.9 12.8l14.1-3.7zm-10.8 10.5c2.9 6.1 8.3 10.1 12.1 9s4.6-6.9 1.8-13l-13.9 4zm18 4.7c-2.9-6-8.4-9.9-12.2-8.7s-4.5 7.1-1.5 13.2l13.7-4.5zm-12.5 6.7c3 6 8.4 9.9 12.2 8.6s4.4-7.2 1.4-13.2l-13.6 4.6zm15.7-.2c-3-6-8.5-9.8-12.2-8.5s-4.3 7.3-1.3 13.3l13.5-4.8zm-10 11.6c3.1 6 8.5 9.7 12.2 8.3s4.2-7.4 1.1-13.4l-13.3 5.1zm17.7 3.5c-3.1-6-8.6-9.6-12.2-8-3.6 1.5-4 7.6-.9 13.6l13.1-5.6zm-11.9 7.8c3.2 6 8.6 9.5 12.2 8 3.6-1.6 4-7.7.8-13.6l-13.1 5.7zm15.4-1.4c-3.2-6-8.7-9.5-12.2-7.8s-3.9 7.8-.7 13.7l13-5.9zm-9.4 12.6c3.2 5.9 8.7 9.3 12.3 7.6 3.5-1.7 3.8-7.9.5-13.8l-12.8 6.2zm17.5 2.3c-3.3-5.9-8.8-9.2-12.3-7.4s-3.6 8.1-.3 14l12.6-6.6zm-11.3 8.8c3.3 5.9 8.8 9.2 12.3 7.3 3.5-1.8 3.6-8.1.2-14l-12.5 6.7zm14.9-2.5c-3.4-5.9-8.8-9.1-12.3-7.2-3.4 1.9-3.5 8.2-.1 14.1l12.4-6.9zm-8.6 13.5c3.4 5.8 8.9 9 12.3 7s3.4-8.3 0-14.2l-12.2 7.2zm17.2 1.2c-3.5-5.8-9-8.8-12.3-6.7s-3.2 8.5.3 14.3l12-7.6zm-10.7 9.8c3.5 5.8 9 8.8 12.3 6.7s3.1-8.5-.3-14.3l-11.9 7.7zm14.4-3.5c-3.5-5.8-9-8.7-12.3-6.5s-3.1 8.6.4 14.4l11.8-7.9zm-7.8 14.3c3.5 5.7 9 8.6 12.3 6.3 3.2-2.2 3-8.7-.6-14.5l-11.7 8.1zm16.8.1c-3.6-5.7-9.1-8.4-12.2-6.1-3.2 2.3-2.8 8.9.8 14.6l11.4-8.5zm-10.1 10.6c3.6 5.7 9.1 8.4 12.2 6s2.8-8.9-.9-14.6l-11.4 8.6zm14-4.4c-3.6-5.7-9.1-8.3-12.2-5.9s-2.7 9 1 14.7l11.3-8.8zm-7.1 15.1c3.7 5.6 9.2 8.2 12.2 5.7 3.1-2.5 2.6-9.1-1.1-14.7l-11.1 9zm16.4-.9c-3.7-5.6-9.2-8-12.2-5.5-3 2.6-2.4 9.2 1.3 14.8l10.9-9.4zm-9.4 11.4c3.7 5.6 9.2 8 12.2 5.4s2.4-9.3-1.4-14.8l-10.8 9.4zm13.5-5.4c-3.8-5.6-9.2-7.9-12.2-5.3-3 2.7-2.3 9.3 1.5 14.9l10.7-9.6zm-6.5 15.9c3.8 5.5 9.3 7.8 12.2 5.1s2.2-9.4-1.6-14.9l-10.5 9.8zm16.1-1.9c-3.9-5.5-9.3-7.7-12.1-4.9s-2 9.5 1.8 15l10.3-10.2zm-8.9 12.2c3.9 5.5 9.3 7.6 12.1 4.8s2-9.6-1.9-15l-10.3 10.2zm13.1-6.3c-3.9-5.5-9.3-7.6-12.1-4.7s-1.9 9.6 2 15.1l10.2-10.4zm-5.8 16.5c3.9 5.4 9.3 7.4 12.1 4.5s1.8-9.7-2.1-15.1l-10 10.6zm15.7-2.8c-4-5.4-9.4-7.3-12.1-4.3s-1.7 9.8 2.3 15.2l9.8-10.9zm-8.3 12.9c4 5.4 9.4 7.3 12 4.2 2.7-3 1.6-9.8-2.3-15.2l-9.7 11zm12.6-7.1c-4-5.3-9.4-7.2-12-4.1-2.7 3.1-1.6 9.9 2.4 15.2l9.6-11.1zm-5.1 17.1c4 5.3 9.4 7.1 12 4s1.5-10-2.5-15.3l-9.5 11.3zm15.3-3.6c-4.1-5.3-9.4-6.9-12-3.7s-1.3 10.1 2.7 15.3l9.2-11.6zm-12.6 1.8c0 5.5 3.9 12.2 8.7 15 4.8 2.7 8.7.5 8.7-5l-17.3-10zm17.4 10c0-5.5-3.9-12.2-8.7-15-4.8-2.7-8.7-.5-8.7 5l17.3 10zm-17.4-9.8c0 5.5 3.9 12.2 8.7 15 4.8 2.7 8.7.5 8.7-5l-17.3-10zm17.4 10.2c0-5.5-3.9-12.2-8.7-15-4.8-2.7-8.7-.5-8.7 5l17.3 10zm-4.1 6.1c4.1-.6 5.3-6.1 2.8-12.2s-7.9-10.6-12-10l9.2 22.2zM288 494c-4.1.6-5.3 6.1-2.8 12.2s7.9 10.6 12 10L288 494zm9.3 22.2c4.1-.6 5.3-6.1 2.7-12.2-2.5-6.1-7.9-10.6-12-10l9.2 22.2zm-9.1-22.2c-4.1.6-5.3 6.1-2.7 12.2 2.5 6.1 7.9 10.6 12 10l-9.2-22.2zm.1 16.9c4.1 5.3 9.4 6.9 12 3.7 2.5-3.2 1.3-10.1-2.7-15.4l-9.2 11.7zm9.2-11.6c-4.1-5.3-9.4-6.9-12-3.7-2.5 3.2-1.3 10.1 2.7 15.4l9.2-11.7zm-9.1 11.8c4.1 5.3 9.4 6.9 12 3.7 2.5-3.2 1.3-10.1-2.8-15.4l-9.2 11.7zm9.3-11.6c-4.1-5.3-9.4-6.9-12-3.7-2.5 3.2-1.3 10.1 2.8 15.4l9.2-11.7zm4.1 10.9c0-5.5-3.9-12.2-8.7-15-4.8-2.7-8.7-.5-8.7 5l17.3 10zm-17.4-10.1c0 5.5 3.9 12.2 8.7 15 4.8 2.7 8.7.5 8.7-5l-17.3-10zm17.4 9.9c0-5.5-3.9-12.2-8.7-15-4.8-2.7-8.7-.5-8.7 5l17.3 10zm-17.4-10.1c0 5.5 3.9 12.2 8.7 15 4.8 2.7 8.7.5 8.7-5l-17.3-10zm14.1 15.9c4.1-.6 5.3-6.1 2.7-12.2s-7.9-10.6-12-10l9.2 22.2zm-6.4-22.6c-4 .7-5.2 6.2-2.6 12.3s7.9 10.6 12 9.9l-9.4-22.2zm13.9 21.4c4-.7 5.1-6.3 2.5-12.4s-8-10.5-12-9.8l9.5 22.2zm-3.7-23.3c-4 .8-5 6.4-2.3 12.6s8.1 10.4 12 9.6l-9.7-22.1zm11.2 21.8c4-.8 5-6.5 2.3-12.6s-8.1-10.4-12.1-9.5l9.8 22.1zm-7-22.7c-3.9.9-4.9 6.6-2.2 12.7s8.1 10.3 12.1 9.4l-9.9-22.1zm14.3 21c3.9-1 4.8-6.7 2-12.8s-8.2-10.3-12.1-9.3l10 22.1zm-4.4-23.5c-3.9 1.1-4.7 6.8-1.9 12.9s8.3 10.2 12.1 9.1l-10.3-22zm11.7 21.6c3.9-1.1 4.7-6.9 1.8-12.9-2.8-6.1-8.3-10.1-12.1-9.1l10.3 22zm-7.5-22.8c-3.8 1.1-4.6 7-1.7 13 2.9 6.1 8.3 10.1 12.1 8.9l-10.4-22zm14.7 20.7c3.8-1.2 4.5-7.1 1.6-13.1-2.9-6.1-8.4-10-12.2-8.8l10.6 21.9zm-5.2-23.7c-3.7 1.3-4.4 7.2-1.4 13.3 3 6 8.4 9.9 12.2 8.6L330.1 484zm12.2 21.3c3.7-1.3 4.3-7.3 1.3-13.3s-8.5-9.8-12.2-8.5l10.9 21.8zm-8.1-22.8c-3.7 1.4-4.3 7.4-1.2 13.4 3 6 8.5 9.8 12.2 8.4l-11-21.8zm15.1 20.2c3.7-1.4 4.2-7.5 1.1-13.5s-8.5-9.7-12.2-8.2l11.1 21.7zm-5.9-23.8c-3.6 1.5-4 7.6-.9 13.6s8.6 9.6 12.2 8l-11.4-21.6zm12.7 21c3.6-1.6 4-7.7.8-13.6-3.2-6-8.6-9.5-12.2-8l11.4 21.6zm-8.8-22.7c-3.6 1.6-3.9 7.8-.7 13.7 3.2 6 8.7 9.5 12.2 7.8L347.3 477zm15.5 19.6c3.5-1.7 3.8-7.9.5-13.8-3.2-5.9-8.7-9.4-12.3-7.7l11.7 21.5zm-6.6-24c-3.5 1.8-3.6 8.1-.3 13.9 3.3 5.9 8.8 9.2 12.3 7.4l-11.9-21.4zm13.2 20.7c3.5-1.8 3.6-8.1.3-14s-8.8-9.2-12.3-7.3l12 21.3zm-9.5-22.6c-3.4 1.9-3.5 8.2-.2 14 3.3 5.9 8.8 9.1 12.3 7.2l-12.1-21.3zm15.9 19.1c3.4-2 3.4-8.3 0-14.1s-8.9-9-12.3-7l12.3 21.2zm-7.4-24.1c-3.3 2.1-3.2 8.5.2 14.3 3.5 5.8 8.9 8.8 12.3 6.8l-12.5-21zm13.7 20.2c3.3-2.1 3.2-8.5-.3-14.3s-9-8.8-12.3-6.7l12.6 21zm-10.2-22.5c-3.3 2.2-3.1 8.6.4 14.4s9 8.7 12.3 6.6l-12.7-20.9zm16.4 18.4c3.2-2.2 3-8.7-.6-14.5-3.5-5.7-9-8.6-12.3-6.3l12.8 20.8zm-8.3-24.1c-3.2 2.4-2.8 8.9.8 14.6s9.1 8.4 12.2 6.1l-13.1-20.6zm14.3 19.8c3.1-2.4 2.7-8.9-.9-14.6s-9.1-8.4-12.2-6l13.1 20.6zm-10.9-22.3c-3.1 2.4-2.6 9 1 14.7 3.7 5.7 9.1 8.3 12.2 5.8l-13.2-20.5zm16.7 17.7c3-2.5 2.5-9.1-1.2-14.8-3.7-5.6-9.2-8.1-12.2-5.6l13.4 20.4zm-9.1-24.1c-3 2.6-2.3 9.3 1.4 14.9 3.8 5.6 9.2 8 12.2 5.3L391 448.9zm14.7 19.2c2.9-2.7 2.3-9.3-1.5-14.9s-9.2-7.9-12.2-5.2l13.7 20.1zM394.2 446c-2.9 2.7-2.2 9.4 1.6 15 3.8 5.5 9.3 7.8 12.2 5.1l-13.8-20zm17 16.9c2.8-2.8 2-9.5-1.8-15-3.9-5.5-9.3-7.7-12.1-4.9l14 19.9zm-9.9-24c-2.8 2.9-1.8 9.7 2.1 15.1s9.3 7.5 12.1 4.5l-14.2-19.7zm15.2 18.6c2.7-3 1.8-9.7-2.1-15.2-3.9-5.4-9.3-7.4-12.1-4.5l14.2 19.6zm-12.3-21.8c-2.7 3-1.7 9.8 2.3 15.2s9.4 7.3 12.1 4.3l-14.3-19.5zm17.4 16.1c2.6-3.1 1.5-9.9-2.5-15.3-4-5.3-9.4-7.1-12-4l14.5 19.3zm-10.8-23.9c-2.5 3.2-1.3 10.1 2.7 15.4 4.1 5.3 9.4 6.9 12 3.7l-14.7-19.1zm15.6 17.9c2.5-3.2 1.3-10.1-2.8-15.4-4.1-5.2-9.4-6.9-11.9-3.6l14.7 19zm-12.9-21.4c-2.5 3.3-1.2 10.2 2.9 15.4s9.4 6.8 11.9 3.5l-14.8-18.9zm17.6 15.1c2.4-3.4 1-10.3-3.1-15.5s-9.5-6.6-11.9-3.2l15 18.7zm-11.6-23.6c-2.3 3.5-.8 10.5 3.4 15.5 4.2 5.1 9.5 6.3 11.8 2.8l-15.2-18.4zm16.1 17.1c2.3-3.5.7-10.5-3.5-15.6s-9.5-6.3-11.8-2.8l15.2 18.3zm-13.7-20.9c-2.2 3.6-.6 10.6 3.6 15.6s9.5 6.2 11.7 2.6l-15.3-18.2zm17.9 14.1c2.2-3.7.5-10.7-3.8-15.6s-9.5-6-11.7-2.3l15.5 17.9zm-12.5-23.3c-2.1 3.8-.2 10.8 4.1 15.7s9.5 5.7 11.6 1.9l-15.6-17.6zm16.5 16.2c2-3.8.2-10.8-4.1-15.7-4.3-4.8-9.5-5.7-11.5-1.8l15.7 17.5zm-14.3-20.3c-2 3.9 0 10.9 4.3 15.7 4.4 4.8 9.5 5.5 11.5 1.7l-15.8-17.4zm18 12.9c1.9-4 0-11-4.5-15.7-4.4-4.7-9.5-5.3-11.4-1.4l15.9 17.1zm-13.2-22.9c-1.8 4.1.3 11.1 4.8 15.8 4.4 4.6 9.5 5.1 11.3 1l-16.1-16.8zm16.7 15.3c1.8-4.1-.4-11.2-4.8-15.8s-9.5-5-11.3-.9l16.1 16.7zm-14.8-19.7c-1.7 4.2.5 11.2 5 15.8s9.5 4.9 11.2.7l-16.2-16.5zm18.1 11.8c1.7-4.2-.7-11.3-5.2-15.8s-9.5-4.7-11.1-.4l16.3 16.2zm-14-22.4c-1.5 4.3.9 11.4 5.4 15.8s9.5 4.4 11 0l-16.4-15.9zm17 14.2c1.5-4.4-.9-11.4-5.5-15.8-4.5-4.4-9.5-4.3-11 0l16.5 15.8zm-15.4-18.9c-1.5 4.4 1.1 11.5 5.6 15.8s9.4 4.2 10.9-.2l-16.5-15.6zm18.1 10.5c1.4-4.5-1.2-11.6-5.8-15.8s-9.4-4-10.8.5l16.6 15.3zm-14.7-21.8c-1.3 4.6 1.5 11.7 6.1 15.8s9.4 3.7 10.7-.9l-16.7-14.9zm17.2 13.1c1.2-4.6-1.5-11.7-6.2-15.8-4.6-4.1-9.4-3.6-10.6 1l16.8 14.8zm-15.9-18c-1.2 4.7 1.6 11.7 6.3 15.8 4.6 4 9.4 3.5 10.5-1.2L446.6 353zm18.1 9.1c1.1-4.8-1.8-11.8-6.5-15.7s-9.3-3.3-10.4 1.5l16.9 14.2zm-15.5-21c-1 4.8 2 11.9 6.7 15.7s9.3 3 10.3-1.9l-17-13.8zm17.4 11.9c.9-4.9-2.1-11.9-6.8-15.7s-9.3-2.9-10.2 2l17 13.7zm-16.4-17.2c-.9 4.9 2.2 11.9 6.9 15.6s9.2 2.8 10.1-2.2l-17-13.5zm18 7.9c.8-5-2.4-12-7.1-15.6s-9.2-2.5-10 2.5l17.1 13.2zm-16-20.3c-.7 5.1 2.6 12 7.3 15.5s9.1 2.2 9.8-2.8l-17.2-12.7zm17.4 10.9c.7-5.1-2.7-12-7.4-15.5s-9.1-2.2-9.8 2.9l17.2 12.6zm-16.8-15.7c-.6 5.1 2.8 12.1 7.5 15.5s9.1 2 9.7-3.1l-17.2-12.4zm17.8 7.5c.5-5.2-2.9-12.1-7.7-15.4s-9.1-1.9-9.6 3.3l17.2 12.1zm-16.7-18.4c-.4 5.2 3.1 12.1 7.8 15.4s9 1.6 9.4-3.6l-17.3-11.7zm17.4 10c.4-5.3-3.1-12.1-7.9-15.4-4.8-3.2-9-1.6-9.4 3.7l17.3 11.6zm-17-14.8c-.4 5.3 3.2 12.2 8 15.3 4.8 3.2 8.9 1.4 9.3-3.9l-17.3-11.4zm17.6 6.4c.3-5.3-3.3-12.2-8.1-15.3s-8.9-1.2-9.2 4.1l17.3 11.2zm-17-17.7c-.2 5.4 3.5 12.2 8.3 15.2s8.8 1 9-4.4l-17.3-10.8zm7.3-6.1c-4.8-2.4-8.4.4-8 6.1.3 5.7 4.5 12.2 9.3 14.6l-1.2-20.6zm-1.7 19.2c4.8 2.4 8.4-.2 8.2-5.8-.3-5.7-4.4-12.2-9.1-14.7l1 20.5zm-5-22.7c-4.8-2.6-8.5 0-8.4 5.5.2 5.6 4.2 12.2 9 14.8l-.6-20.3zm-5.4 17c4.8 2.7 8.7.5 8.6-5.1 0-5.5-3.9-12.2-8.7-15v20zm-1.6-20.9c-4.8-2.8-8.7-.6-8.7 5 0 5.5 3.8 12.2 8.6 15v-20zm-3.8 17.8c4.8 2.9 8.8.8 8.9-4.7s-3.7-12.2-8.5-15.1l-.4 19.8zm-4.7-22.9c-4.8-3-8.9-1.1-9.1 4.3s3.4 12.2 8.2 15.2l.9-19.5zm-8.4 14.6c4.8 3.2 9 1.6 9.4-3.7s-3.1-12.1-7.9-15.4l-1.5 19.1zm-.1-20.2c-4.8-3.3-9-1.7-9.5 3.6-.5 5.2 3 12.1 7.8 15.4l1.7-18.9zm-5.4 16.3c4.8 3.4 9.1 1.9 9.6-3.3s-2.9-12.1-7.6-15.5l-2 18.7zm-3.1-22.3c-4.7-3.5-9.1-2.2-9.8 2.8-.7 5.1 2.6 12 7.3 15.5l2.5-18.4zm-9.9 12.7c4.7 3.7 9.2 2.7 10.1-2.2s-2.2-11.9-7-15.6l-3.1 17.9zm1.5-19.2c-4.7-3.7-9.3-2.8-10.2 2.1s2.2 11.9 6.9 15.7l3.3-17.7zm-6.9 14.8c4.7 3.8 9.3 3 10.3-1.8s-2-11.9-6.7-15.7l-3.6 17.5zm-1.4-21.7c-4.7-4-9.3-3.4-10.5 1.3-1.1 4.7 1.7 11.8 6.4 15.7l4.1-17.1zM395 258.7c4.6 4.2 9.4 3.8 10.7-.7s-1.3-11.6-6-15.8l-4.8 16.5zm3.1-18c-4.6-4.2-9.4-4-10.8.6-1.4 4.5 1.3 11.6 5.8 15.8l4.9-16.3zm-8.5 13c4.6 4.3 9.4 4.2 10.9-.2s-1.1-11.5-5.6-15.8l-5.3 16zm.4-20.7c-4.5-4.4-9.5-4.5-11.1-.2s.8 11.4 5.3 15.8l5.7-15.6zm-12.7 8.6c4.5 4.6 9.5 5 11.3.9s-.4-11.2-4.9-15.8l-6.4 14.9zm4.8-16.6c-4.4-4.6-9.5-5.1-11.3-1s.3 11.1 4.7 15.8l6.6-14.8zm-10 11.1c4.4 4.7 9.5 5.3 11.4 1.3s-.1-11-4.5-15.7l-6.9 14.4zm2.2-19.5c-4.3-4.8-9.5-5.6-11.5-1.8s-.2 10.9 4.2 15.7l7.4-13.9zm-14.1 6.2c4.2 5 9.5 6.1 11.7 2.5s.6-10.6-3.7-15.6l-8 13.1zm6.5-14.9c-4.2-5-9.5-6.2-11.7-2.6-2.3 3.6-.7 10.5 3.6 15.6l8.2-12.9zm-11.4 9c4.2 5.1 9.5 6.4 11.8 3 2.3-3.5.9-10.4-3.3-15.5l-8.5 12.6zm4.1-18c-4.1-5.2-9.4-6.8-11.9-3.5s-1.2 10.2 2.9 15.4l9-12zm-15.3 3.6c4 5.3 9.4 7.2 12 4.1 2.7-3.1 1.6-9.9-2.4-15.2l-9.6 11.1zm8.2-13c-4-5.4-9.4-7.3-12.1-4.3s-1.7 9.8 2.3 15.2l9.8-10.9zm-12.9 6.7c3.9 5.4 9.3 7.5 12.1 4.6s1.9-9.7-2-15.1l-10.1 10.5zm6-16.3c-3.8-5.5-9.2-7.8-12.2-5.1-2.9 2.7-2.2 9.4 1.6 14.9l10.5-9.8zm-16.4 1c3.7 5.7 9.1 8.2 12.2 5.8 3.1-2.5 2.6-9-1.1-14.7l-11.2 8.9zm9.9-10.9c-3.6-5.7-9.1-8.4-12.2-6s-2.7 8.9.9 14.6l11.3-8.7zm-14.2 4.2c3.6 5.7 9 8.6 12.3 6.3 3.2-2.3 2.9-8.7-.6-14.5l-11.6 8.2zm8-14.3c-3.4-5.8-8.9-8.9-12.3-6.8-3.3 2.1-3.2 8.4.2 14.3l12.1-7.4zm-17.4-1.8c3.3 5.9 8.8 9.3 12.3 7.5s3.7-8 .4-13.9l-12.7 6.4zm11.5-8.5c-3.2-5.9-8.7-9.4-12.3-7.7-3.5 1.7-3.8 7.9-.5 13.8l12.8-6.2zm-15.3 1.5c3.1 6 8.6 9.5 12.2 8 3.6-1.6 4-7.7.8-13.6l-13.1 5.6zm9.8-12c-3-6-8.5-9.8-12.2-8.5s-4.3 7.3-1.3 13.3l13.5-4.8zm-18.1-4.7c2.8 6.1 8.2 10.2 12.1 9.2s4.7-6.8 1.9-12.9l-14 3.7zm13.1-5.8c-2.8-6.1-8.2-10.3-12.1-9.3-3.9.9-4.8 6.6-2.1 12.7l14.2-3.4zm-16.3-1.5c2.7 6.1 8 10.4 12 9.7 4-.8 5.1-6.4 2.4-12.5l-14.4 2.8zm11.7-9.2c-2.5-6.1-7.8-10.7-11.9-10.2s-5.4 6-2.9 12.1l14.8-2zm-18.6-7.8c2.3 6.2 7.5 11 11.8 10.8 4.2-.2 5.8-5.4 3.5-11.5l-15.3.7zm14.5-2.9c-2.2-6.2-7.5-11.1-11.7-10.9-4.2.1-5.9 5.2-3.7 11.4l15.4-.4zm-17.1-4.5c2.1 6.2 7.3 11.2 11.6 11.3 4.3 0 6.1-4.9 4-11.1l-15.6-.2zm13.5-6.2c-1.9-6.2-7-11.4-11.4-11.7s-6.4 4.4-4.5 10.6l15.9 1.1zm-18.7-11c1.7 6.1 6.7 11.6 11.1 12.3 4.5.7 6.8-3.8 5.1-9.9l-16.3-2.4zm16.5 5c0-5.5-3.9-12.2-8.7-15-4.8-2.7-8.7-.5-8.7 5l17.3 9.9zm-17.4-10.2c0 5.5 3.9 12.2 8.7 15 4.8 2.7 8.7.5 8.7-5l-17.3-9.9zm17.4 9.5c0-5.5-3.9-12.2-8.7-15-4.8-2.7-8.7-.5-8.7 5l17.3 9.9zm-17.4-10.4c0 5.5 3.9 12.2 8.7 15 4.8 2.7 8.7.5 8.7-5l-17.3-9.9zm15.4 2.3h0l-13.3 5.1h0l13.3-5.1zm-.1-.1h0l-13.3 5.1h0l13.3-5.1zm-.1-.2h0l-13.3 5.1h0l13.3-5.1zM284.8 76l16.4 16-16.4-16zm-.1.1v.1l16.4 16v-.1l-16.4-16zm-.1.3L301 92.5l-16.4-16.1zm16.4 9.4l-16.4-2.7 16.4 2.7zm-.1-.1v-.2l-16.4-2.8v.2l16.4 2.7zm-.1-.4l-16.4-2.8 16.4 2.8zM286 73.7h0l13.3 20.4h0L286 73.7zm-.1 0h0l13.3 20.5h0l-13.3-20.5zm-.1.1h0l13.3 20.4h0l-13.3-20.4zm-2 5.2h0l17.3 10h0l-17.3-10zm0 .3v.4l17.3 9.9v-.4l-17.3-10zm0 .9h0l17.3 10h0l-17.3-10zm.5-3.1c0 .2-.2.5-.3.7l16.3 16.3c.1-.3.2-.6.3-.8l-16.3-16.2zm-1.4 3.6c-.6 1.4-1.3 2.8-2 4.2l15.8 17.3c.8-1.6 1.5-3.1 2.3-4.8l-16.1-16.7zm-4.9 9.4c-.3.4-.5.8-.8 1.2l15.3 18.3c.3-.5.6-.9.9-1.4L278 90.1zm-2.4 3.7c-.8 1.2-1.7 2.3-2.6 3.5l14.7 19.1c1-1.3 2-2.6 2.9-3.9l-15-18.6zm-6.3 7.7c-.3.3-.6.7-1 1l14 19.8c.4-.4.7-.8 1.1-1.1l-14.2-19.7zm-3 3c-1 .9-2.1 1.9-3.1 2.7l13.4 20.4c1.2-1 2.4-2 3.5-3.1l-13.8-20.1zm-7.5 6c-.4.3-.8.5-1.1.8l12.7 20.9c.4-.3.9-.6 1.3-.9l-12.8-20.8zm-3.5 2.2c-1.2.7-2.4 1.4-3.6 2l11.9 21.4c1.4-.7 2.7-1.5 4-2.2l-12.4-21.1zm-8.6 4.4c-.4.2-.9.4-1.3.5l11.2 21.7c.5-.2 1-.4 1.4-.6l-11.3-21.6zm-3.9 1.5c-1.3.5-2.6.9-4 1.3l10.4 22c1.5-.4 3-.9 4.5-1.4l-10.9-21.8zm-9.5 2.6c-.5 0-.9.2-1.4.3l9.6 22.2 1.6-.3-9.8-22.1zm-4.2.8l-4.3.6 8.8 22.3 4.8-.6-9.3-22.2zm-10.2 1h-1.5l8 22.3h1.7l-8.2-22.3zm-4.6.1c-1.5 0-3 0-4.6-.1l7.2 22.3c1.7 0 3.4.1 5.1.1l-7.7-22.3zm-10.8-.6c-.5 0-1-.1-1.6-.2l6.4 22.3c.6 0 1.2.1 1.7.2l-6.6-22.3zm-4.7-.6c-1.6-.2-3.2-.5-4.8-.8l5.6 22.1 5.3.9-6.1-22.2zm-11.3-2.1c-.5-.1-1.1-.3-1.6-.4l4.8 22c.6.1 1.2.3 1.8.4l-4.9-22zm-4.9-1.2c-1.6-.4-3.3-.9-4.9-1.4l4 21.7c1.8.6 3.6 1.1 5.4 1.6l-4.4-21.9zM171 115c-.6-.2-1.1-.4-1.7-.6l3.1 21.5c.6.2 1.2.4 1.8.7l-3.3-21.5zm-5-1.8c-1.7-.6-3.4-1.3-5.1-2l2.3 21.2c1.9.8 3.7 1.5 5.5 2.2l-2.8-21.3zm-11.9-5c-.6-.3-1.1-.5-1.7-.8l1.5 20.8c.6.3 1.2.6 1.9.9l-1.7-20.9zm-5.1-2.5c-1.7-.8-3.4-1.7-5.1-2.6l.7 20.4a146.1 146.1 0 0 0 5.6 2.8l-1.2-20.6zm-11.9-6.3c-.3-.2-.6-.3-.9-.5v20c.3.2.6.4.9.5v-20zm-.8-.5c-.2-.1-.5-.3-.7-.4v20c.2.1.4.3.7.4v-20zm-3.4-2a90.04 90.04 0 0 1-4.1-2.5l-.7 19.6 4.5 2.7.3-19.8zm-9.5-5.9c-.2-.1-.5-.3-.7-.4l-1.3 19.2c.2.2.5.3.7.5l1.2-19.3zm-10 4.6v.9l17.3 9.1v-.8l-17.3-9.2zm.1 4.5c0 1.8.2 3.6.3 5.4l17.3 8.6c0-1.7-.2-3.4-.3-5.1l-17.3-8.9zm.8 12.7c0 .6 0 1.2.1 1.8l17.3 8.1c0-.6 0-1.2-.1-1.7l-17.3-8.2zm.4 5.5c.2 1.8.3 3.7.5 5.5l17.2 7.5c-.2-1.7-.3-3.5-.5-5.2l-17.3-7.9zm1.3 13c0 .3 0 .6.1.9l17.2 7.1c0-.3 0-.6-.1-.9l-17.2-7.1zm.1.9c0 .4 0 .7.1 1.1l17.2 7c0-.3 0-.7-.1-1l-17.2-7.1zm.7 5.6l.9 6.7 17.1 6.3c-.3-2.1-.6-4.2-.8-6.3l-17.1-6.7zm2.2 15.7c.1.8.2 1.5.4 2.3l17 5.7-.3-2.1-17-5.8zm1.1 6.8l1.2 6.8 16.9 5c-.4-2.1-.8-4.3-1.1-6.4l-16.9-5.4zm3 15.9c.2.8.3 1.5.5 2.3l16.7 4.3c-.2-.7-.3-1.4-.4-2.2l-16.8-4.5zm1.5 6.9l1.5 6.9 16.6 3.7-1.5-6.5-16.7-4.1zm3.7 16.2l.6 2.3 16.4 3c-.2-.7-.4-1.5-.5-2.2l-16.5-3.1zm1.8 6.9l1.9 7 16.3 2.3-1.8-6.6-16.4-2.7zm4.5 16.3c.2.8.5 1.6.7 2.3l16.1 1.7-.6-2.2-16.1-1.8zm2 7l2.2 7 15.9 1-2-6.6-16-1.4zm5.2 16.3c.3.8.5 1.6.8 2.3l15.6.3c-.2-.7-.5-1.5-.7-2.2l-15.7-.5zm2.4 7c.8 2.3 1.6 4.7 2.5 7l15.4-.3-2.3-6.6h-15.6zm5.8 16.4l.9 2.3 15.2-1c-.3-.7-.6-1.5-.8-2.2l-15.2.8zm2.7 6.9l2.7 7 14.9-1.6-2.6-6.6-15.1 1.2zm6.5 16.3c.3.8.6 1.5 1 2.3l14.7-2.2c-.3-.7-.6-1.5-.9-2.2l-14.7 2.1zm2.9 7l3 6.9 14.4-2.8c-1-2.2-1.9-4.4-2.8-6.6l-14.6 2.5zm7 16.1c.3.8.7 1.5 1 2.3l14.2-3.4c-.3-.7-.7-1.5-1-2.2l-14.2 3.3zm3.2 6.9l3.2 6.9 13.9-4c-1-2.2-2-4.4-3.1-6.5l-14.1 3.7zm7.6 16.1c.4.8.7 1.5 1.1 2.3l13.6-4.6c-.4-.7-.7-1.4-1.1-2.2l-13.7 4.5zm3.3 6.8c1.1 2.3 2.3 4.5 3.4 6.8l13.3-5.1-3.3-6.5-13.5 4.8zm8.1 15.8c.4.8.8 1.5 1.2 2.3l13.1-5.7c-.4-.7-.8-1.4-1.1-2.1l-13.1 5.6zm3.6 6.8l3.6 6.7 12.8-6.2c-1.2-2.1-2.3-4.3-3.5-6.4l-13 5.9zm8.6 15.6c.4.7.8 1.5 1.2 2.2l12.5-6.7-1.2-2.1-12.6 6.6zm3.7 6.6l3.8 6.6 12.2-7.2-3.6-6.3-12.4 6.9zm9 15.4c.4.7.9 1.5 1.3 2.2l11.9-7.7-1.2-2.1-12 7.6zm3.9 6.5c1.3 2.2 2.6 4.3 4 6.5l11.7-8.1-3.8-6.2-11.8 7.9zm9.4 15.1c.5.7.9 1.4 1.4 2.1l11.4-8.6c-.4-.7-.9-1.4-1.3-2l-11.4 8.5zm4.1 6.4c1.4 2.1 2.7 4.3 4.1 6.4l11.1-9-4-6.1-11.3 8.8zm9.7 14.8c.5.7.9 1.4 1.4 2.1l10.8-9.4c-.5-.7-.9-1.4-1.4-2l-10.9 9.4zm4.2 6.3l4.3 6.3 10.5-9.8-4.1-6-10.7 9.6zm10 14.5c.5.7 1 1.4 1.4 2.1l10.3-10.2-1.4-2-10.3 10.2zm4.3 6.2l4.4 6.1 10-10.6-4.2-5.9-10.2 10.4zm10.3 14.2c.5.7 1 1.3 1.5 2l9.7-11a23.07 23.07 0 0 1-1.4-1.9l-9.8 10.9zm4.5 6.1l4.5 6 9.5-11.3c-1.5-1.9-2.9-3.9-4.3-5.8l-9.6 11.1zm10.5 13.9c.3.3.5.7.8 1l9.2-11.7c-.2-.3-.5-.6-.7-1l-9.2 11.6zm-3.3-9.8h0l17.3 10h0l-17.3-10zm0 .1h0c0 .1 17.3 10.1 17.3 10.1h0c0-.1-17.3-10.1-17.3-10.1zm0 .3h0l17.3 10h0l-17.3-10zm13.3 16.2l-9.2-22.2 9.2 22.2zm.1-.1h.1l-9.2-22.2h-.1l9.2 22.2zm.2 0l-9.2-22.2 9.2 22.2zm-9.2-5.3h0l9.2-11.7-9.2 11.7zm.1.1l9.2-11.7-9.2 11.7zm.2.2l9.2-11.7h0l-9.2 11.7zm13.3-.8h0l-17.3-10h0l17.3 10zm0-.1h0c0-.1-17.3-10.1-17.3-10.1h0c0 .1 17.3 10.1 17.3 10.1zm0-.3h0l-17.3-10h0l17.3 10zm-4.1 6.2c.3 0 .5 0 .8-.1l-9.2-22.2c-.2 0-.5 0-.7.1l9.2 22.2zm3.8-.6c1.5-.2 3-.5 4.5-.8l-9.5-22.2c-1.4.3-2.9.5-4.4.8l9.4 22.2zm10.5-2l1.5-.3-9.8-22.1-1.4.3 9.7 22.1zm4.4-.9c1.5-.3 3-.7 4.4-1l-10-22.1c-1.4.3-2.8.7-4.3 1l9.9 22.1zm10.3-2.6c.5-.1 1-.3 1.4-.4l-10.3-22c-.5.1-.9.3-1.4.4l10.3 22zm4.3-1.2c1.4-.4 2.9-.9 4.3-1.3l-10.6-21.9c-1.4.4-2.7.8-4.1 1.3l10.4 22zm9.9-3.2c.5-.2.9-.3 1.4-.5l-10.9-21.8c-.5.2-.9.3-1.4.5l10.8 21.8zm4.2-1.5c1.4-.5 2.8-1 4.1-1.6l-11.1-21.7-4 1.5 11 21.8zm9.7-3.8c.5-.2.9-.4 1.4-.6l-11.4-21.6c-.4.2-.9.4-1.3.6l11.4 21.6zm4-1.8c1.3-.6 2.7-1.2 4-1.9l-11.7-21.5-3.8 1.8 11.5 21.6zm9.3-4.5c.4-.2.9-.5 1.3-.7l-12-21.3c-.4.2-.8.4-1.2.7l11.9 21.4zm3.9-2.1c1.3-.7 2.6-1.4 3.9-2.2l-12.3-21.2-3.7 2.1L372 492zm8.9-5.2c.4-.3.8-.5 1.2-.8l-12.6-21c-.4.3-.8.5-1.2.8l12.5 21zm3.7-2.4c1.2-.8 2.5-1.6 3.7-2.5l-12.8-20.8-3.5 2.4 12.7 20.9zm8.5-5.9l1.2-.9-13.1-20.6c-.4.3-.8.6-1.1.9l13.1 20.6zm3.5-2.7c1.2-.9 2.3-1.9 3.5-2.8l-13.4-20.4-3.3 2.7 13.2 20.5zm8-6.7c.4-.3.7-.7 1.1-1L392 448c-.4.3-.7.6-1.1 1l13.6 20.2zm3.3-3c1.1-1 2.2-2.1 3.3-3.1l-14-19.9c-1 1-2 2-3.1 3l13.8 20zm7.5-7.5c.3-.4.7-.7 1-1.1l-14.2-19.6c-.3.4-.7.7-1 1.1l14.2 19.7zm3.1-3.4c1-1.1 2-2.3 3-3.5L407 432.4c-.9 1.1-1.9 2.2-2.9 3.3l14.3 19.5zm7-8.2c.3-.4.6-.8 1-1.2l-14.7-19-.9 1.2 14.7 19.1zm2.8-3.7c.9-1.2 1.9-2.5 2.8-3.8l-15-18.7c-.9 1.2-1.7 2.4-2.6 3.6l14.8 18.9zm6.4-9c.3-.4.6-.9.9-1.3l-15.2-18.3c-.3.4-.5.8-.8 1.3l15.2 18.4zm2.6-4c.8-1.4 1.7-2.7 2.5-4.1l-15.5-17.9-2.4 3.9 15.3 18.2zm5.7-9.8c.3-.5.5-1 .8-1.4l-15.7-17.5c-.2.5-.5.9-.7 1.4l15.6 17.6zm2.3-4.4c.8-1.5 1.5-3 2.2-4.4l-15.9-17.1-2.1 4.2 15.8 17.4zm5-10.5c.2-.5.5-1 .7-1.5l-16.1-16.7-.6 1.5 16.1 16.8zm2-4.7c.7-1.6 1.3-3.2 1.9-4.8l-16.3-16.2-1.8 4.5 16.2 16.5zm4.4-11.3c.2-.5.4-1.1.6-1.7l-16.5-15.8c-.2.5-.4 1-.5 1.6l16.4 15.9zm1.7-4.9c.6-1.7 1.1-3.4 1.6-5.1l-16.6-15.3-1.5 4.8 16.5 15.6zm3.6-12c.2-.6.3-1.2.5-1.8l-16.8-14.8c-.1.5-.3 1.1-.4 1.6l16.7 14.9zm1.4-5.3c.4-1.8.9-3.6 1.3-5.4l-16.9-14.2-1.2 5 16.8 14.5zm2.8-12.6c.1-.6.2-1.2.4-1.8l-17-13.7-.3 1.7 17 13.8zm1.1-5.6c.3-1.9.7-3.7 1-5.6l-17.1-13.2-.9 5.3 17 13.5zm2.1-13.2c0-.3 0-.6.1-1l-17.2-12.6c0 .3 0 .6-.1.9l17.2 12.7zm.1-1c0-.3 0-.5.1-.8l-17.2-12.6v.8l17.2 12.6zm.5-4.1c.2-1.6.4-3.3.5-4.9l-17.2-12.1c-.2 1.6-.3 3.1-.5 4.7L470 331zm1.2-11.6c0-.6 0-1.1.1-1.7L454 306c0 .5 0 1.1-.1 1.6l17.3 11.7zm.4-5l.3-5.1-17.3-11.2c0 1.6-.2 3.2-.3 4.8l17.3 11.4zm.6-12v-.9l-17.3-10.7v.8l17.3 10.8zm-9.3-16.6c-.2-.1-.5-.2-.7-.3l1.2 20.6c.2.1.5.2.7.4l-1.3-20.7zm-3.4-1.7l-4.1-2.1.6 20.3c1.5.8 3 1.6 4.5 2.3l-1-20.5zm-9.5-5.1c-.2-.1-.5-.3-.7-.4v20c.2.1.5.3.7.4v-20zm-.7-.4c-.3-.2-.6-.3-.9-.5v20c.2.2.5.4.9.5v-20zm-4.2-2.5l-5.1-3.1-.9 19.5a167.38 167.38 0 0 0 5.6 3.4l.4-19.8zm-11.9-7.6c-.6-.4-1.1-.8-1.7-1.2l-1.7 18.9 1.9 1.3 1.5-19.1zm-5.1-3.5l-5.1-3.7-2.5 18.4c1.8 1.4 3.7 2.7 5.5 4l2-18.7zm-11.8-8.8c-.6-.4-1.1-.9-1.7-1.3l-3.3 17.7 1.8 1.5 3.1-17.9zm-5-4l-5-4.2-4.1 17.1 5.5 4.6 3.6-17.5zm-11.6-9.9c-.5-.5-1.1-1-1.6-1.5l-4.9 16.3c.6.5 1.2 1.1 1.8 1.6l4.8-16.5zm-4.9-4.5l-4.8-4.6-5.7 15.6 5.3 5.1 5.3-16zm-11.1-11.1c-.5-.5-1-1.1-1.6-1.6l-6.6 14.8c.6.6 1.2 1.2 1.7 1.8l6.4-14.9zm-4.7-4.9c-1.6-1.7-3.1-3.4-4.6-5.1l-7.4 13.9 5.1 5.6 6.9-14.4zm-10.8-12l-1.5-1.8-8.2 12.9c.5.7 1.1 1.3 1.7 2l8-13.1zm-4.4-5.4c-1.5-1.8-2.9-3.6-4.4-5.5l-9 12 4.9 6.1 8.5-12.6zm-10.1-12.9c-.5-.6-.9-1.3-1.4-1.9l-9.8 10.9c.5.7 1 1.4 1.6 2.1l9.6-11.1zm-4.2-5.7c-1.4-1.9-2.7-3.9-4.1-5.8l-10.5 9.8 4.5 6.5 10.1-10.5zm-9.3-13.7c-.4-.7-.9-1.3-1.3-2l-11.3 8.7c.5.7 1 1.5 1.4 2.2l11.2-8.9zm-3.8-6c-1.3-2-2.5-4.1-3.7-6.1l-12.1 7.4 4.1 6.8 11.6-8.2zm-8.4-14.3c-.4-.7-.8-1.4-1.1-2.1l-12.8 6.2c.4.8.9 1.6 1.3 2.3l12.7-6.4zm-3.4-6.3l-3.2-6.3-13.5 4.8 3.6 7.1 13.1-5.6zm-7.3-14.7c-.3-.7-.7-1.4-1-2.1l-14.2 3.4c.4.8.7 1.6 1.1 2.4l14-3.7zm-2.9-6.4l-2.7-6.4-14.8 2 3.1 7.3 14.4-2.8zm-6-15c-.3-.7-.5-1.4-.8-2.1l-15.4.4.9 2.4 15.3-.7zm-2.3-6.4l-2.1-6.4-15.9-1.1 2.4 7.4 15.6.2zm-4.6-15c0-.4-.2-.7-.3-1.1l-16.3-2.6.3 1.2 16.3 2.4zm.3 2.7h0l-17.3-10h0l17.3 10zm0-.4v-.4l-17.3-9.9v.4l17.3 9.9zm0-.9h0l-17.3-10h0l17.3 10z" fill="#13b3d3"/></g><path class="K" d="M186.1,285.3l79.8,75.6.4-.3.2.2,88.7-56.4-39.8-38.1-57.8,36.7-40.4-38.3-31.1,20.5Z" fill-rule="evenodd" fill="#fff"/><path d="M191 215.6h310V484l-2 15.6-6 13-7.5 10.5-9 9-9.5 7-10 6.5-10.5 5.5-12.5 6-13.5 4.5-14 4-13.5 2.5-27 3.5-27.5 1-32.5-3.5-15.5-2.5-13.5-3.5-14.5-5-14-5.5-8.5-4.5-8-5-14-9.5-5-4.5-5-5.5-7.5-12-5-8.5-1.5-5.3-3-13.8V215.6z" fill="url(#G)"/></g></svg>