<svg width="786" height="614" viewBox="0 0 786 614" fill="none" xmlns="http://www.w3.org/2000/svg">
<rect width="296.655" height="296.656" transform="matrix(0.894978 -0.446111 0.894978 0.446111 123.211 216.341)" fill="url(#paint0_linear_153_30)"/>
<rect width="296.655" height="296.656" transform="matrix(0.894978 -0.446111 0.894978 0.446111 123.211 216.341)" fill="url(#paint1_linear_153_30)"/>
<rect width="230.605" height="231.164" transform="matrix(0.894978 -0.446111 0.894978 0.446111 181.211 215.875)" fill="url(#paint2_linear_153_30)"/>
<rect width="230.605" height="231.164" transform="matrix(0.894978 -0.446111 0.894978 0.446111 181.211 168.875)" fill="url(#paint3_linear_153_30)"/>
<rect width="230.605" height="231.164" transform="matrix(0.894978 -0.446111 0.894978 0.446111 191.211 119.875)" fill="url(#paint4_linear_153_30)"/>
<rect width="296.655" height="264.683" transform="matrix(0.894978 0.446111 0 1 123.211 216.341)" fill="url(#paint5_linear_153_30)"/>
<g style="mix-blend-mode:screen">
<rect width="242.464" height="64.5776" transform="matrix(0.894978 0.446111 0 1 135.211 308.191)" fill="white"/>
</g>
<rect width="296.655" height="264.683" transform="matrix(0.894978 -0.446111 0 1 388.703 348.809)" fill="url(#paint6_linear_153_30)"/>
<g style="mix-blend-mode:screen">
<rect width="234.643" height="65.3517" transform="matrix(0.894978 -0.446111 0 1 427.211 415.206)" fill="white"/>
</g>
<g style="mix-blend-mode:screen">
<path d="M140.442 305.487L351.713 416.5L222.981 504.453L7.57788 390.948L140.442 305.487Z" fill="url(#paint7_linear_153_30)"/>
</g>
<g style="mix-blend-mode:screen">
<path d="M433.118 434.143L632.29 308.865L776.285 377.945L572.669 505.687L433.118 434.143Z" fill="url(#paint8_linear_153_30)"/>
</g>
<g filter="url(#filter0_d_153_30)">
<path d="M344.288 159.948L314.773 142.908L303.134 149.628L296.275 145.668L327.972 127.368L334.831 131.328L323.191 138.048L352.705 155.088L344.288 159.948ZM368.874 145.753L332.501 124.753L348.245 115.663C351.501 113.783 354.844 112.473 358.274 111.733C361.669 110.973 364.994 110.793 368.25 111.193C371.507 111.593 374.503 112.583 377.24 114.163C379.942 115.723 381.639 117.443 382.332 119.323C382.99 121.183 382.661 123.093 381.345 125.053C380.028 127.013 377.742 128.933 374.486 130.813L363.418 137.203L363.47 132.913L377.292 140.893L368.874 145.753ZM391.997 132.403L369.705 130.033L378.695 124.843L401.09 127.153L391.997 132.403ZM364.405 133.453L356.715 133.333L367.315 127.213C369.913 125.713 371.299 124.273 371.472 122.893C371.611 121.493 370.693 120.223 368.718 119.083C366.709 117.923 364.509 117.393 362.119 117.493C359.729 117.593 357.235 118.393 354.637 119.893L344.036 126.013L343.777 121.543L364.405 133.453ZM423.868 114.723C418.706 117.703 413.233 119.203 407.448 119.223C401.663 119.243 396.103 117.713 390.768 114.633L370.399 102.873L378.817 98.0126L398.874 109.593C402.338 111.593 405.542 112.623 408.487 112.683C411.431 112.743 414.185 112.033 416.749 110.553C419.312 109.073 420.542 107.483 420.438 105.783C420.334 104.083 418.55 102.233 415.086 100.233L395.029 88.6526L403.343 83.8526L423.712 95.6126C429.046 98.6926 431.696 101.903 431.662 105.243C431.627 108.583 429.029 111.743 423.868 114.723ZM434.056 83.04L451.567 72.93L458.115 76.71L440.604 86.82L434.056 83.04ZM449.645 91.32L469.442 79.89L476.197 83.79L448.034 100.05L411.661 79.05L439.149 63.18L445.904 67.08L426.782 78.12L449.645 91.32Z" fill="white"/>
</g>
<defs>
<filter id="filter0_d_153_30" x="292.273" y="62.79" width="188.547" height="112.238" filterUnits="userSpaceOnUse" color-interpolation-filters="sRGB">
<feFlood flood-opacity="0" result="BackgroundImageFix"/>
<feColorMatrix in="SourceAlpha" type="matrix" values="0 0 0 0 0 0 0 0 0 0 0 0 0 0 0 0 0 0 127 0" result="hardAlpha"/>
<feOffset dy="4"/>
<feGaussianBlur stdDeviation="2"/>
<feComposite in2="hardAlpha" operator="out"/>
<feColorMatrix type="matrix" values="0 0 0 0 0 0 0 0 0 0 0 0 0 0 0 0 0 0 0.25 0"/>
<feBlend mode="normal" in2="BackgroundImageFix" result="effect1_dropShadow_153_30"/>
<feBlend mode="normal" in="SourceGraphic" in2="effect1_dropShadow_153_30" result="shape"/>
</filter>
<linearGradient id="paint0_linear_153_30" x1="148.327" y1="0" x2="148.327" y2="296.656" gradientUnits="userSpaceOnUse">
<stop offset="1" stop-color="#13B3D3"/>
</linearGradient>
<linearGradient id="paint1_linear_153_30" x1="148.327" y1="0" x2="148.327" y2="296.656" gradientUnits="userSpaceOnUse">
<stop offset="1" stop-color="#13B3D3"/>
</linearGradient>
<linearGradient id="paint2_linear_153_30" x1="115.302" y1="0" x2="115.302" y2="231.164" gradientUnits="userSpaceOnUse">
<stop stop-color="#29F7F5"/>
<stop offset="1" stop-color="#13B3D3"/>
</linearGradient>
<linearGradient id="paint3_linear_153_30" x1="138.303" y1="230.228" x2="4.18576" y2="79.1683" gradientUnits="userSpaceOnUse">
<stop stop-color="#29F7F5" stop-opacity="0.39"/>
<stop offset="1" stop-color="#13EDB1" stop-opacity="0.3"/>
</linearGradient>
<linearGradient id="paint4_linear_153_30" x1="221.045" y1="-1.35264e-05" x2="-22.877" y2="41.7771" gradientUnits="userSpaceOnUse">
<stop stop-color="#29F7F5" stop-opacity="0.51"/>
<stop offset="1" stop-color="#13EDB1" stop-opacity="0.4"/>
</linearGradient>
<linearGradient id="paint5_linear_153_30" x1="253.244" y1="-1.83552e-05" x2="-20.3892" y2="139.862" gradientUnits="userSpaceOnUse">
<stop stop-color="#13EDB1"/>
<stop offset="1" stop-color="#13B3D3"/>
</linearGradient>
<linearGradient id="paint6_linear_153_30" x1="258.636" y1="99.9605" x2="128.343" y2="245.555" gradientUnits="userSpaceOnUse">
<stop stop-color="#13EDB1"/>
<stop offset="1" stop-color="#13B3D3"/>
</linearGradient>
<linearGradient id="paint7_linear_153_30" x1="120.607" y1="450.664" x2="195.762" y2="336.001" gradientUnits="userSpaceOnUse">
<stop offset="0.0816505" stop-color="white" stop-opacity="0"/>
<stop offset="0.257274" stop-color="white" stop-opacity="0"/>
<stop offset="0.629114" stop-color="#BBFAE9" stop-opacity="0.286412"/>
<stop offset="1" stop-color="#13EDB1"/>
</linearGradient>
<linearGradient id="paint8_linear_153_30" x1="679.779" y1="438.65" x2="624.386" y2="330.973" gradientUnits="userSpaceOnUse">
<stop offset="0.0816505" stop-color="white" stop-opacity="0"/>
<stop offset="0.257274" stop-color="white" stop-opacity="0"/>
<stop offset="0.629114" stop-color="#BBFAE9" stop-opacity="0.286412"/>
<stop offset="1" stop-color="#13EDB1"/>
</linearGradient>
</defs>
</svg>
