<?xml version="1.0" encoding="UTF-8"?>
<svg xmlns="http://www.w3.org/2000/svg" xmlns:xlink="http://www.w3.org/1999/xlink" version="1.1" viewBox="0 0 691 706">
  <!-- Generator: Adobe Illustrator 29.4.0, SVG Export Plug-In . SVG Version: 2.1.0 Build 152)  -->
  <defs>
    <style>
      .st0 {
        mask: url(#mask);
      }

      .st1 {
        fill: #13edb1;
        stroke: url(#linear-gradient1);
        stroke-width: 50px;
      }

      .st2, .st3, .st4, .st5, .st6 {
        fill-rule: evenodd;
      }

      .st2, .st7 {
        fill: #fff;
      }

      .st8 {
        fill: url(#linear-gradient5);
      }

      .st9 {
        fill: #13b3d3;
      }

      .st10 {
        fill: none;
        stroke: url(#linear-gradient);
        stroke-width: 60px;
      }

      .st11 {
        isolation: isolate;
      }

      .st12 {
        mix-blend-mode: screen;
      }

      .st4 {
        fill: url(#linear-gradient2);
      }

      .st5 {
        fill: url(#linear-gradient4);
      }

      .st6 {
        fill: url(#linear-gradient3);
      }
    </style>
    <linearGradient id="linear-gradient" x1="435.1" y1="896.2" x2="435.1" y2="325.2" gradientTransform="translate(497.7 1015) rotate(-30) scale(1 -.9) skewX(-26.6)" gradientUnits="userSpaceOnUse">
      <stop offset="0" stop-color="#13edb1" stop-opacity=".4"/>
      <stop offset="1" stop-color="#13b3d3" stop-opacity=".7"/>
    </linearGradient>
    <linearGradient id="linear-gradient1" x1="271.3" y1="397.3" x2="424.2" y2="132.6" gradientTransform="translate(0 748) scale(1 -1)" gradientUnits="userSpaceOnUse">
      <stop offset="0" stop-color="#13edb1" stop-opacity=".4"/>
      <stop offset="1" stop-color="#13b3d3" stop-opacity=".7"/>
    </linearGradient>
    <linearGradient id="linear-gradient2" x1="535.3" y1="662.6" x2="238" y2="453.1" gradientTransform="translate(0 748) scale(1 -1)" gradientUnits="userSpaceOnUse">
      <stop offset="0" stop-color="#13edb1" stop-opacity=".6"/>
      <stop offset="1" stop-color="#13b3d3" stop-opacity="0"/>
    </linearGradient>
    <linearGradient id="linear-gradient3" x1="497.8" y1="616.3" x2="200.6" y2="406.8" gradientTransform="translate(0 748) scale(1 -1)" gradientUnits="userSpaceOnUse">
      <stop offset="0" stop-color="#13edb1" stop-opacity=".6"/>
      <stop offset="1" stop-color="#13b3d3" stop-opacity="0"/>
    </linearGradient>
    <linearGradient id="linear-gradient4" x1="356.4" y1="627.6" x2="174.5" y2="310.5" gradientTransform="translate(0 748) scale(1 -1)" gradientUnits="userSpaceOnUse">
      <stop offset="0" stop-color="#13edb1"/>
      <stop offset="1" stop-color="#13b3d3"/>
    </linearGradient>
    <mask id="mask" x="113.4" y="-30" width="359.1" height="649" maskUnits="userSpaceOnUse">
      <g id="path-5-outside-1_195_353">
        <rect class="st7" x="113.4" y="-30" width="359.1" height="649"/>
        <path class="st3" d="M293,84v.3c.1,0,.1,1.3.1,1.3,20.6,77.4,82.8,160.8,156.2,202.9,4.8,2.7,9.5,5.3,14.2,7.6-.4,11.2-1.3,22.1-2.6,32.6-13.1,99.4-70.9,161.9-167.8,176.4v.3c0-.1-.2-.2-.2-.3-.1,0-.2,0-.3,0v-.5c-96.9-125.6-154.7-254.5-167.8-368.9-1.4-12.1-2.3-23.9-2.6-35.6,4.7,3.1,9.4,6,14.2,8.8,73.5,42.1,135.6,30.1,156.2-23.7v-1.2h.1c0,0,0,.3.1.4,0-.1.1-.3.2-.5Z"/>
      </g>
    </mask>
    <linearGradient id="linear-gradient5" x1="346.1" y1="532.4" x2="346" y2="264.1" gradientTransform="translate(0 748) scale(1 -1)" gradientUnits="userSpaceOnUse">
      <stop offset=".3" stop-color="#9fffd4" stop-opacity="0"/>
      <stop offset=".6" stop-color="#9fffd4" stop-opacity=".1"/>
      <stop offset="1" stop-color="#9fffd4" stop-opacity=".5"/>
    </linearGradient>
  </defs>
  <g class="st11">
    <g id="Layer_1">
      <g id="Group_159">
        <g id="Group_129">
          <path id="Ellipse_19" class="st10" d="M124.3,364.3c122.2-70.6,320.3-70.6,442.5,0s122.2,184.9,0,255.5-320.3,70.6-442.5,0-122.2-184.9,0-255.5Z"/>
          <path id="Ellipse_20" class="st1" d="M479,407.3c72.4,41.8,72.4,109.6,0,151.5-72.5,41.9-190,41.9-262.4,0-72.4-41.8-72.4-109.6,0-151.5,72.5-41.9,190-41.9,262.4,0Z"/>
          <path id="Union" class="st4" d="M404.5,4.6v.3c.1,0,.1,1.4.1,1.4,20.6,77.4,82.8,160.7,156.2,202.9,4.8,2.7,9.5,5.3,14.2,7.6-.4,11.2-1.3,22.1-2.6,32.6-13.1,99.4-70.9,161.9-167.8,176.4v.3c0-.1-.2-.2-.2-.3-.1,0-.2,0-.4,0v-.5c-96.9-125.6-154.7-254.5-167.8-368.9-1.4-12.1-2.3-23.9-2.6-35.6,4.7,3.1,9.4,6,14.2,8.8,73.5,42.1,135.6,30.1,156.2-23.7v-1.2h.1c0,0,.1.3.2.5,0-.2.1-.3.2-.5Z"/>
          <path id="Union_2" class="st6" d="M367,50.9v.3c.1,0,.1,1.3.1,1.3,20.6,77.4,82.8,160.8,156.2,202.9,4.8,2.7,9.5,5.3,14.2,7.6-.4,11.2-1.3,22.1-2.6,32.6-13.1,99.4-70.9,161.9-167.8,176.4v.3c0-.1-.2-.2-.2-.3-.1,0-.2,0-.3,0v-.5c-96.9-125.6-154.7-254.5-167.8-368.9-1.4-12.1-2.3-23.9-2.6-35.6,4.7,3.1,9.4,6,14.2,8.8,73.5,42.1,135.6,30.1,156.2-23.7v-1.2h.1c0,0,0,.3.1.4,0-.2.1-.3.2-.5Z"/>
          <g id="Union_3">
            <path class="st5" d="M293,84v.3c.1,0,.1,1.3.1,1.3,20.6,77.4,82.8,160.8,156.2,202.9,4.8,2.7,9.5,5.3,14.2,7.6-.4,11.2-1.3,22.1-2.6,32.6-13.1,99.4-70.9,161.9-167.8,176.4v.3c0-.1-.2-.2-.2-.3-.1,0-.2,0-.3,0v-.5c-96.9-125.6-154.7-254.5-167.8-368.9-1.4-12.1-2.3-23.9-2.6-35.6,4.7,3.1,9.4,6,14.2,8.8,73.5,42.1,135.6,30.1,156.2-23.7v-1.2h.1c0,0,0,.3.1.4,0-.1.1-.3.2-.5Z"/>
            <g class="st0">
              <path class="st9" d="M293.1,84.3l4.3,2.5c0-1.2-.4-2.5-1-3.8l-3.3,1.3ZM293,84l3.3-1.3c-1-2-2.6-3.5-4.1-4.1-1.5-.6-2.8,0-3.3,1.4l4.1,4ZM293.1,85.6l-4.3-2.5c0,.6,0,1.2.3,1.8l4.1.6ZM463.6,296.1l4.3,2.7c0-1.4-.4-3-1.3-4.5-.9-1.5-2.1-2.7-3.3-3.3l.3,5.2ZM460.9,328.7l-4.3-3.2h0l4.3,3.2ZM293.1,505l-2.3-5.6c-1.3.2-2,1.3-2,3.1l4.3,2.5ZM293.1,505.4l-2.3,2.9c1.3,1.7,3,2.7,4.4,2.7,1.4,0,2.2-1.3,2.2-3.1l-4.3-2.5ZM292.8,505.1l2.3-2.9c-1.4-1.8-3.2-2.8-4.6-2.6l2.3,5.6ZM292.5,505.1l-4.3-2.5c0,1.8.9,4,2.2,5.7s3.1,2.6,4.4,2.4l-2.3-5.6ZM292.5,504.6l4.3,2.5c0-1.7-.8-3.8-2-5.4l-2.3,2.9ZM124.7,135.8l-4.3-1.8h0l4.3,1.8ZM122,100.1l.3-4.8c-1.2-.8-2.4-1-3.3-.5-.9.5-1.4,1.6-1.3,3l4.3,2.3ZM292.5,85.2l4.1,4c.2-.4.3-1,.3-1.6l-4.3-2.5ZM292.5,84l-3.3-5.1c-.6.5-1,1.5-1,2.6l4.3,2.5ZM292.6,83.9l4.1.7c-.5-2-1.8-4-3.3-5.2-1.5-1.2-3.1-1.4-4.1-.6l3.3,5.1ZM292.8,84.5l-4.1-.7c.6,2.3,2.3,4.6,4.1,5.7,1.8,1.1,3.5.7,4.1-1l-4.1-4ZM296.4,83c-1.5-3-4.3-4.9-6.1-4.1s-2.1,3.7-.6,6.7l6.7-2.6ZM289.7,85.5c1.5,3,4.3,4.9,6.1,4.1,1.8-.7,2.1-3.7.6-6.7l-6.7,2.6ZM296.3,82.8c-1.5-3-4.3-4.9-6.1-4.1s-2.1,3.7-.6,6.7l6.7-2.6ZM289.6,85.3c1.5,3,4.3,4.9,6.1,4.1,1.8-.7,2.1-3.7.6-6.7l-6.7,2.6ZM288.9,80c-.8,2.2.4,5.7,2.7,7.9,2.3,2.2,4.7,2.3,5.5.1l-8.2-8ZM297,88.1c.8-2.2-.4-5.7-2.7-7.9-2.3-2.2-4.7-2.3-5.5-.1l8.2,8ZM288.8,80.2c-.8,2.1.4,5.7,2.6,7.9,2.3,2.2,4.7,2.3,5.5.1l-8.2-8ZM296.9,88.4c.8-2.1-.4-5.7-2.6-7.9-2.3-2.2-4.7-2.3-5.5-.1l8.2,8ZM296.9,85.1c-.8-3.1-3.3-5.8-5.5-6.2-2.3-.4-3.4,1.8-2.6,4.9l8.2,1.4ZM288.7,83.6c.8,3.1,3.3,5.8,5.5,6.2,2.3.4,3.4-1.8,2.6-4.9l-8.2-1.4ZM296.8,84.8c-.8-3.1-3.3-5.9-5.5-6.2s-3.4,1.8-2.7,4.9l8.2,1.4ZM288.6,83.2c.8,3.1,3.3,5.9,5.5,6.2,2.3.4,3.5-1.8,2.7-4.8l-8.2-1.4ZM289.3,78.8c-1.5,1.2-1.3,4.5.6,7.4,1.8,2.8,4.6,4.1,6.1,2.9l-6.7-10.2ZM295.9,89c1.5-1.2,1.3-4.5-.6-7.4s-4.6-4.1-6.1-2.9l6.7,10.2ZM289.2,78.8c-1.5,1.2-1.3,4.5.6,7.4,1.8,2.8,4.6,4.1,6.1,2.9l-6.7-10.2ZM295.8,89.1c1.5-1.2,1.3-4.5-.6-7.4-1.8-2.8-4.6-4.1-6.1-2.9l6.7,10.2ZM288.2,81.6c0,2.8,1.9,6.1,4.3,7.5,2.4,1.4,4.3.2,4.3-2.5l-8.7-5ZM296.8,86.8c0-2.8-1.9-6.1-4.3-7.5-2.4-1.4-4.3-.2-4.3,2.5l8.7,5ZM288.2,82.2c0,2.8,1.9,6.1,4.3,7.5,2.4,1.4,4.3.2,4.3-2.5l-8.7-5ZM296.8,87.6c0-2.8-1.9-6.1-4.3-7.5-2.4-1.4-4.3-.2-4.3,2.5l8.7,5ZM288.1,81.9c-.8,2.1.3,5.6,2.6,7.9,2.2,2.2,4.7,2.4,5.6.2l-8.1-8.1ZM294.9,93.3c.9-2-.2-5.6-2.4-7.9-2.2-2.3-4.7-2.5-5.6-.5l8,8.4ZM284.9,89.2c-1,1.9,0,5.5,2.2,7.9,2.2,2.4,4.8,2.8,5.7.8l-7.9-8.7ZM289.5,103.7c1.1-1.8.3-5.3-1.8-7.8-2.1-2.5-4.7-3.1-5.9-1.2l7.7,9ZM281,95.9c-1.1,1.8-.4,5.3,1.8,7.8,2.1,2.5,4.7,3.1,5.9,1.3l-7.6-9.1ZM286.9,107.7c1.2-1.7.5-5.2-1.6-7.7-2.1-2.6-4.7-3.3-5.9-1.6l7.5,9.3ZM276.7,102c-1.3,1.6-.7,5,1.4,7.7,2,2.6,4.7,3.5,6,1.9l-7.3-9.5ZM279.9,116.3c1.4-1.5.9-4.8-1-7.6s-4.7-3.7-6-2.3l7.1,9.8ZM271.8,107.5c-1.4,1.4-1,4.8,1,7.5,1.9,2.7,4.7,3.8,6.1,2.4l-7-9.9ZM276.6,119.5c1.5-1.4,1.1-4.7-.8-7.5-1.9-2.8-4.6-3.9-6.1-2.6l6.9,10ZM266.5,112.3c-1.5,1.2-1.3,4.5.6,7.4,1.8,2.8,4.6,4.1,6.1,2.8l-6.7-10.2ZM268.4,126.2c1.6-1.1,1.5-4.3-.3-7.2-1.8-2.9-4.5-4.3-6.1-3.2l6.4,10.4ZM260.8,116.5c-1.6,1.1-1.6,4.3.2,7.2,1.7,2.9,4.5,4.4,6.1,3.3l-6.3-10.5ZM264.6,128.6c1.7-1,1.7-4.2,0-7.1-1.7-2.9-4.5-4.5-6.1-3.5l6.2,10.6ZM254.7,120.1c-1.7.9-1.8,4-.2,7,1.6,3,4.4,4.6,6.1,3.7l-6-10.7ZM255.2,133.3c1.8-.8,2-3.8.5-6.8-1.6-3-4.3-4.8-6.1-4l5.7,10.8ZM248.2,123c-1.8.7-2.1,3.7-.5,6.7,1.5,3,4.3,4.8,6.1,4.1l-5.6-10.9ZM251,134.9c1.9-.7,2.2-3.6.7-6.6-1.5-3-4.2-4.9-6.1-4.3l5.4,10.9ZM241.4,125.3c-1.9.6-2.3,3.5-.9,6.5s4.2,5,6.1,4.5l-5.2-11ZM240.6,137.8c2-.4,2.5-3.2,1.1-6.3-1.3-3.1-4-5.2-6-4.8l4.9,11.1ZM234.3,127c-2,.4-2.5,3.2-1.2,6.2,1.3,3.1,4,5.2,6,4.8l-4.8-11.1ZM236.1,138.7c2-.3,2.6-3.1,1.3-6.1-1.3-3.1-4-5.3-6-5l4.6,11.1ZM227,128.1c-2.1.2-2.7,2.9-1.5,6,1.2,3.1,3.9,5.4,5.9,5.2l-4.4-11.1ZM225,139.8c2.1,0,2.9-2.7,1.8-5.7-1.1-3.1-3.8-5.5-5.9-5.4l4.1,11.2ZM219.4,128.6c-2.1,0-2.9,2.6-1.8,5.7s3.7,5.5,5.9,5.5l-4-11.2ZM220.1,139.8c2.1,0,3-2.5,2-5.6-1.1-3.1-3.7-5.6-5.8-5.6l3.8,11.2ZM211.5,128.6c-2.2-.1-3.1,2.3-2.1,5.4,1,3.1,3.6,5.7,5.7,5.8l-3.6-11.2ZM208.4,139.2c2.2.2,3.3-2.1,2.4-5.2-.9-3.1-3.4-5.8-5.7-6l3.3,11.1ZM203.5,127.9c-2.2-.3-3.3,2-2.4,5.1.9,3.1,3.4,5.8,5.6,6l-3.2-11.1ZM203.3,138.6c2.2.3,3.4-1.9,2.5-5-.8-3.1-3.3-5.8-5.6-6.1l3,11.1ZM195.4,126.7c-2.3-.4-3.5,1.7-2.7,4.8.8,3.1,3.2,5.9,5.5,6.3l-2.8-11.1ZM191.2,136.3c2.3.5,3.6-1.5,2.9-4.5-.7-3-3.1-5.9-5.4-6.5l2.5,11ZM187.1,124.9c-2.3-.6-3.6,1.4-3,4.5.7,3,3.1,5.9,5.4,6.5l-2.4-11ZM185.9,135c2.3.6,3.7-1.3,3.1-4.3-.6-3-3-6-5.3-6.6l2.2,10.9ZM178.6,122.6c-2.3-.7-3.8,1.2-3.2,4.2s2.9,6,5.2,6.7l-2-10.9ZM173.5,131.1c2.4.8,3.9-.9,3.4-3.9-.5-3-2.7-6.1-5.1-6.9l1.6,10.8ZM170.1,119.8c-2.4-.9-3.9.9-3.5,3.8.4,3,2.7,6.1,5,6.9l-1.6-10.7ZM168.1,129.2c2.4.9,4-.7,3.6-3.7-.4-2.9-2.6-6.1-5-7l1.4,10.7ZM161.5,116.4c-2.4-1-4,.6-3.7,3.5.3,2.9,2.5,6.1,4.9,7.1l-1.2-10.6ZM155.4,123.8c2.4,1.1,4.1-.3,3.9-3.2-.2-2.9-2.4-6.1-4.7-7.2l.8,10.4ZM152.8,112.6c-2.4-1.1-4.2.3-3.9,3.2s2.3,6.1,4.7,7.2l-.8-10.4ZM149.9,121.2c2.4,1.2,4.2-.2,4-3-.2-2.8-2.2-6.1-4.6-7.3l.6,10.3ZM144.1,108.2c-2.4-1.3-4.3,0-4.2,2.8,0,2.8,2.1,6.1,4.5,7.4l-.4-10.2ZM137.2,114.4c2.4,1.4,4.3.2,4.3-2.5,0-2.8-2-6.1-4.4-7.5v10ZM135.6,103.5c-2.4-1.4-4.3-.3-4.4,2.5,0,2.8,1.9,6.1,4.3,7.5v-10ZM132.6,111.8c2.4,1.4,4.4.4,4.4-2.4,0-2.7-1.9-6.1-4.3-7.5l-.2,9.9ZM128.6,99.3c-2.4-1.5-4.4-.5-4.5,2.2,0,2.7,1.8,6.1,4.2,7.6l.3-9.8ZM122.4,105.4c2.4,1.6,4.5.7,4.6-2,.2-2.7-1.6-6.1-4-7.6l-.6,9.6ZM117.7,98.7c0,2.8,2.1,6.1,4.5,7.4,2.4,1.3,4.3,0,4.2-2.8l-8.7-4.6ZM126.5,106.7c-.1-2.8-2.2-6.1-4.6-7.3s-4.2,0-4.1,2.9l8.7,4.5ZM118.1,107.6c.2,2.8,2.2,6.1,4.6,7.3,2.4,1.2,4.2-.2,4-3l-8.7-4.3ZM127.2,118.9c-.2-2.9-2.3-6.1-4.7-7.2-2.4-1.1-4.2.3-3.9,3.1l8.6,4.1ZM118.7,116.6c.2,2.9,2.3,6.1,4.7,7.2,2.4,1.1,4.1-.3,3.9-3.2l-8.6-4ZM127.7,124.2c-.2-2.9-2.4-6.1-4.8-7.2s-4.1.4-3.9,3.3l8.6,3.9ZM119.5,125.7c.3,2.9,2.4,6.1,4.8,7.1,2.4,1,4.1-.5,3.8-3.4l-8.6-3.8ZM128.9,136.6c-.3-2.9-2.5-6.1-4.9-7.1-2.4-1-4,.6-3.7,3.5l8.6,3.6ZM120.5,135.1c.3,2.9,2.5,6.1,4.9,7.1,2.4,1,4-.6,3.7-3.6l-8.6-3.5ZM129.6,142.8c-.4-2.9-2.6-6.1-5-7-2.4-.9-4,.7-3.6,3.6l8.6,3.4ZM121.9,146.1c.4,3,2.7,6.1,5,6.9,2.4.9,3.9-.8,3.5-3.8l-8.5-3.2ZM131.8,157.9c-.5-3-2.8-6-5.1-6.8-2.3-.8-3.9,1-3.4,3.9l8.5,2.9ZM123.6,157.2c.5,3,2.8,6,5.1,6.8,2.3.8,3.9-1,3.4-4l-8.5-2.8ZM132.8,164.3c-.5-3-2.8-6-5.2-6.8-2.3-.7-3.8,1.1-3.3,4.1l8.5,2.7ZM125.6,168.4c.6,3,2.9,6,5.2,6.7,2.3.7,3.8-1.2,3.2-4.2l-8.4-2.5ZM135.7,179.6c-.6-3-3-6-5.3-6.6-2.3-.6-3.7,1.3-3.1,4.4l8.4,2.2ZM127.8,179.6c.6,3,3,6,5.3,6.6,2.3.6,3.7-1.4,3-4.4l-8.4-2.2ZM137.1,186.2c-.7-3-3.1-5.9-5.4-6.5-2.3-.6-3.6,1.4-3,4.5l8.3,2ZM130.3,191c.7,3,3.1,5.9,5.4,6.4,2.3.5,3.6-1.5,2.9-4.6l-8.3-1.8ZM140.7,201.6c-.8-3.1-3.2-5.9-5.5-6.3-2.3-.4-3.5,1.7-2.7,4.7l8.2,1.6ZM133,202.3c.8,3.1,3.2,5.9,5.5,6.3,2.3.4,3.5-1.7,2.7-4.8l-8.2-1.5ZM142.4,208.3c-.8-3.1-3.3-5.8-5.5-6.2-2.3-.4-3.4,1.8-2.6,4.9l8.2,1.4ZM136,213.8c.8,3.1,3.3,5.8,5.6,6.1,2.2.3,3.4-1.9,2.5-5l-8.1-1.2ZM146.7,223.8c-.9-3.1-3.4-5.8-5.6-6-2.2-.2-3.3,2-2.4,5.1l8.1.9ZM139.3,225.2c.9,3.1,3.4,5.8,5.7,6,2.2.2,3.3-2.1,2.4-5.2l-8-.8ZM148.6,230.5c-.9-3.1-3.5-5.7-5.7-5.9-2.2-.2-3.2,2.1-2.3,5.2l8,.7ZM142.8,236.7c1,3.1,3.5,5.7,5.7,5.8,2.2.1,3.2-2.3,2.2-5.3l-7.9-.5ZM153.6,246.2c-1-3.1-3.6-5.6-5.8-5.7-2.2,0-3.1,2.4-2.1,5.5l7.8.2ZM146.5,248.2c1,3.1,3.6,5.6,5.8,5.7,2.2,0,3.1-2.4,2-5.5l-7.8-.2ZM155.9,252.9c-1.1-3.1-3.7-5.6-5.8-5.6s-3,2.5-2,5.6h7.8ZM150.5,259.7c1.1,3.1,3.7,5.5,5.8,5.5,2.1,0,3-2.6,1.9-5.7l-7.7.2ZM161.5,268.5c-1.1-3.1-3.8-5.5-5.9-5.4-2.1.1-2.9,2.7-1.7,5.8l7.6-.4ZM154.7,271.2c1.2,3.1,3.8,5.5,5.9,5.3,2.1-.1,2.9-2.7,1.7-5.8l-7.6.5ZM164,275.2c-1.2-3.1-3.8-5.4-5.9-5.3-2.1.2-2.8,2.8-1.6,5.9l7.5-.6ZM159.1,282.7c1.2,3.1,3.9,5.4,5.9,5.2,2.1-.2,2.7-2.9,1.5-6l-7.5.8ZM170.2,290.9c-1.3-3.1-3.9-5.3-6-5-2,.3-2.7,3-1.4,6.1l7.4-1ZM163.8,294.2c1.3,3.1,4,5.3,6,5,2-.3,2.6-3,1.4-6.1l-7.3,1.1ZM173,297.5c-1.3-3.1-4-5.3-6-4.9s-2.6,3.1-1.3,6.2l7.3-1.2ZM168.6,305.6c1.3,3.1,4,5.2,6,4.8,2-.4,2.5-3.2,1.2-6.2l-7.2,1.4ZM179.8,313.1c-1.4-3.1-4.1-5.2-6-4.7-2,.5-2.4,3.3-1.1,6.3l7.1-1.7ZM173.7,317c1.4,3,4.1,5.1,6,4.7,2-.5,2.4-3.3,1-6.4l-7.1,1.7ZM182.8,319.7c-1.4-3-4.1-5.1-6.1-4.6-1.9.5-2.4,3.4-1,6.4l7-1.8ZM178.9,328.3c1.4,3,4.2,5,6.1,4.5,1.9-.6,2.3-3.5.9-6.5l-6.9,2ZM190.1,335.1c-1.5-3-4.2-5-6.1-4.4-1.9.6-2.2,3.6-.8,6.6l6.8-2.2ZM184.4,339.6c1.5,3,4.2,5,6.1,4.3,1.9-.6,2.2-3.6.7-6.6l-6.8,2.3ZM193.4,341.7c-1.5-3-4.2-4.9-6.1-4.3-1.9.7-2.2,3.6-.7,6.7l6.8-2.4ZM190,350.8c1.5,3,4.3,4.9,6.1,4.2,1.8-.7,2.1-3.7.6-6.7l-6.7,2.6ZM201.2,357c-1.6-3-4.3-4.8-6.1-4-1.8.8-2,3.8-.4,6.8l6.6-2.8ZM195.8,362c1.6,3,4.3,4.8,6.1,4,1.8-.8,2-3.8.4-6.8l-6.5,2.8ZM204.6,363.5c-1.6-3-4.3-4.7-6.1-3.9-1.8.8-1.9,3.9-.4,6.9l6.5-2.9ZM201.7,373c1.6,3,4.4,4.7,6.1,3.8,1.8-.9,1.9-3.9.3-6.9l-6.4,3.1ZM212.9,378.5c-1.7-2.9-4.4-4.6-6.1-3.7-1.7.9-1.8,4-.1,7l6.3-3.3ZM207.8,384c1.7,2.9,4.4,4.6,6.1,3.7,1.7-.9,1.8-4.1.1-7l-6.3,3.3ZM216.5,385c-1.7-2.9-4.4-4.5-6.1-3.6-1.7,1-1.7,4.1,0,7l6.2-3.4ZM214.1,394.9c1.7,2.9,4.4,4.5,6.1,3.5,1.7-1,1.7-4.2,0-7.1l-6.1,3.6ZM225.2,399.8c-1.7-2.9-4.5-4.4-6.1-3.4-1.7,1-1.6,4.2.1,7.1l6-3.8ZM220.5,405.7c1.7,2.9,4.5,4.4,6.1,3.3,1.6-1.1,1.6-4.3-.2-7.2l-6,3.8ZM229,406.1c-1.8-2.9-4.5-4.3-6.1-3.3-1.6,1.1-1.5,4.3.2,7.2l5.9-3.9ZM227,416.5c1.8,2.9,4.5,4.3,6.1,3.2,1.6-1.1,1.5-4.4-.3-7.2l-5.8,4.1ZM238,420.7c-1.8-2.9-4.5-4.2-6.1-3-1.6,1.2-1.4,4.4.4,7.3l5.7-4.2ZM233.7,427.1c1.8,2.8,4.5,4.2,6.1,3s1.4-4.5-.4-7.3l-5.7,4.3ZM242,426.9c-1.8-2.8-4.6-4.2-6.1-2.9-1.6,1.2-1.3,4.5.5,7.3l5.6-4.4ZM240.5,437.6c1.8,2.8,4.6,4.1,6.1,2.9s1.3-4.5-.6-7.4l-5.5,4.5ZM251.4,441.3c-1.9-2.8-4.6-4-6.1-2.7-1.5,1.3-1.2,4.6.7,7.4l5.4-4.7ZM247.4,448.1c1.9,2.8,4.6,4,6.1,2.7,1.5-1.3,1.2-4.6-.7-7.4l-5.4,4.7ZM255.5,447.4c-1.9-2.8-4.6-4-6.1-2.6-1.5,1.3-1.1,4.7.7,7.4l5.4-4.8ZM254.4,458.4c1.9,2.8,4.6,3.9,6.1,2.6,1.5-1.4,1.1-4.7-.8-7.5l-5.3,4.9ZM265.2,461.5c-1.9-2.7-4.6-3.8-6.1-2.4-1.4,1.4-1,4.8.9,7.5l5.2-5.1ZM261.5,468.6c1.9,2.7,4.6,3.8,6.1,2.4,1.4-1.4,1-4.8-.9-7.5l-5.1,5.1ZM269.5,467.5c-1.9-2.7-4.7-3.8-6.1-2.3-1.4,1.4-1,4.8,1,7.5l5.1-5.2ZM268.7,478.8c2,2.7,4.7,3.7,6,2.3,1.4-1.5.9-4.9-1-7.6l-5,5.3ZM279.5,481.3c-2-2.7-4.7-3.7-6-2.1-1.4,1.5-.8,4.9,1.1,7.6l4.9-5.5ZM276,488.8c2,2.7,4.7,3.6,6,2.1,1.3-1.5.8-4.9-1.2-7.6l-4.9,5.5ZM283.8,487.2c-2-2.7-4.7-3.6-6-2.1-1.3,1.5-.8,5,1.2,7.6l4.8-5.6ZM283.4,498.7c2,2.7,4.7,3.5,6,2,1.3-1.6.7-5-1.3-7.6l-4.7,5.7ZM294.1,500.8c-2-2.6-4.7-3.5-6-1.9-1.3,1.6-.7,5,1.4,7.7l4.6-5.8ZM288.2,502.2c0,2.8,1.9,6.1,4.3,7.5,2.4,1.4,4.3.2,4.3-2.5l-8.7-5ZM296.8,507.2c0-2.8-1.9-6.1-4.3-7.5-2.4-1.4-4.3-.2-4.3,2.5l8.7,5ZM288.2,502.4c0,2.8,1.9,6.1,4.3,7.5,2.4,1.4,4.3.2,4.3-2.5l-8.7-5ZM296.8,507.6c0-2.8-1.9-6.1-4.3-7.5-2.4-1.4-4.3-.2-4.3,2.5l8.7,5ZM294.8,510.7c2-.3,2.6-3,1.4-6.1s-3.9-5.3-6-5l4.6,11.1ZM290.3,499.6c-2,.3-2.6,3-1.4,6.1,1.3,3.1,3.9,5.3,6,5l-4.6-11.1ZM295,510.7c2-.3,2.6-3,1.4-6.1-1.3-3.1-3.9-5.3-6-5l4.6,11.1ZM290.5,499.5c-2,.3-2.6,3-1.4,6.1,1.3,3.1,3.9,5.3,6,5l-4.6-11.1ZM290.6,508c2,2.6,4.7,3.5,6,1.8,1.3-1.6.7-5-1.4-7.7l-4.6,5.8ZM295.2,502.2c-2-2.6-4.7-3.5-6-1.8-1.3,1.6-.7,5,1.4,7.7l4.6-5.8ZM290.7,508.2c2,2.6,4.7,3.5,6,1.8,1.3-1.6.7-5.1-1.4-7.7l-4.6,5.8ZM295.4,502.5c-2-2.6-4.7-3.5-6-1.8-1.3,1.6-.7,5.1,1.4,7.7l4.6-5.8ZM297.4,507.9c0-2.8-1.9-6.1-4.3-7.5-2.4-1.4-4.3-.2-4.3,2.5l8.7,5ZM288.8,502.8c0,2.8,1.9,6.1,4.3,7.5,2.4,1.4,4.3.2,4.3-2.5l-8.7-5ZM297.4,507.7c0-2.8-1.9-6.1-4.3-7.5-2.4-1.4-4.3-.2-4.3,2.5l8.7,5ZM288.8,502.6c0,2.8,1.9,6.1,4.3,7.5,2.4,1.4,4.3.2,4.3-2.5l-8.7-5ZM296.2,510.5c2-.3,2.6-3,1.4-6.1-1.3-3.1-4-5.3-6-5l4.6,11.1ZM294.5,498.9c-2,.3-2.6,3.1-1.3,6.2,1.3,3.1,4,5.3,6,5l-4.7-11.1ZM303.6,509.2c2-.4,2.6-3.1,1.3-6.2-1.3-3.1-4-5.2-6-4.9l4.8,11.1ZM304.7,497c-2,.4-2.5,3.2-1.2,6.3,1.3,3.1,4,5.2,6,4.8l-4.9-11.1ZM311,507.8c2-.4,2.5-3.2,1.1-6.3-1.3-3.1-4-5.2-6-4.8l4.9,11.1ZM309,496.1c-2,.4-2.5,3.3-1.1,6.3,1.4,3.1,4.1,5.2,6,4.7l-4.9-11.1ZM318.3,506.1c2-.5,2.4-3.3,1-6.4-1.4-3-4.1-5.1-6-4.7l5,11ZM319,493.6c-1.9.5-2.3,3.4-.9,6.5,1.4,3,4.1,5.1,6.1,4.6l-5.1-11ZM325.5,504.2c1.9-.5,2.3-3.4.9-6.5-1.4-3-4.1-5.1-6.1-4.5l5.2,11ZM323.2,492.4c-1.9.6-2.3,3.5-.9,6.5,1.4,3,4.2,5,6.1,4.5l-5.2-11ZM332.6,502.1c1.9-.6,2.2-3.5.8-6.6-1.5-3-4.2-5-6.1-4.4l5.3,11ZM332.8,489.4c-1.9.6-2.2,3.6-.7,6.6,1.5,3,4.2,4.9,6.1,4.3l-5.4-10.9ZM339.6,499.8c1.9-.7,2.2-3.6.7-6.6s-4.2-4.9-6.1-4.3l5.4,10.9ZM336.9,487.9c-1.9.7-2.1,3.7-.6,6.7,1.5,3,4.2,4.9,6.1,4.2l-5.5-10.9ZM346.5,497.2c1.8-.7,2.1-3.7.5-6.7-1.5-3-4.3-4.8-6.1-4.1l5.6,10.9ZM346.2,484.2c-1.8.8-2,3.8-.4,6.8,1.6,3,4.3,4.8,6.1,4l-5.7-10.8ZM353.3,494.4c1.8-.8,2-3.8.4-6.8-1.6-3-4.3-4.8-6.1-4l5.7,10.8ZM350.2,482.5c-1.8.8-1.9,3.9-.4,6.9,1.6,3,4.3,4.7,6.1,3.9l-5.8-10.8ZM359.9,491.4c1.8-.8,1.9-3.9.3-6.9-1.6-3-4.4-4.7-6.1-3.8l5.9,10.7ZM359.2,478.1c-1.7.9-1.8,4-.2,7,1.6,2.9,4.4,4.6,6.1,3.7l-6-10.7ZM366.4,488.1c1.7-.9,1.8-4,.1-7s-4.4-4.6-6.1-3.7l6,10.7ZM362.9,476.1c-1.7.9-1.8,4.1,0,7,1.7,2.9,4.4,4.6,6.1,3.6l-6.1-10.6ZM372.8,484.6c1.7-1,1.7-4.2,0-7.1-1.7-2.9-4.4-4.5-6.1-3.5l6.1,10.6ZM371.5,471c-1.7,1-1.6,4.2.1,7.1,1.7,2.9,4.5,4.4,6.1,3.4l-6.3-10.5ZM379,480.8c1.7-1.1,1.6-4.3-.1-7.2-1.7-2.9-4.5-4.4-6.1-3.3l6.3,10.5ZM375.1,468.7c-1.6,1.1-1.5,4.3.2,7.2,1.7,2.9,4.5,4.4,6.1,3.3l-6.3-10.5ZM385.1,476.7c1.6-1.1,1.5-4.4-.3-7.2-1.8-2.9-4.5-4.3-6.1-3.2l6.4,10.4ZM383.3,463c-1.6,1.2-1.4,4.4.4,7.3,1.8,2.9,4.5,4.2,6.1,3l-6.5-10.3ZM391,472.4c1.6-1.2,1.4-4.5-.4-7.3-1.8-2.8-4.6-4.2-6.1-3l6.6,10.3ZM386.7,460.4c-1.5,1.2-1.3,4.5.5,7.3,1.8,2.8,4.6,4.1,6.1,2.9l-6.6-10.3ZM396.7,467.9c1.5-1.3,1.3-4.6-.6-7.4-1.9-2.8-4.6-4.1-6.1-2.8l6.7,10.2ZM394.4,453.9c-1.5,1.3-1.2,4.6.7,7.4,1.9,2.8,4.6,4,6.1,2.7l-6.8-10.1ZM402.3,463c1.5-1.3,1.1-4.7-.8-7.4-1.9-2.8-4.6-4-6.1-2.6l6.8,10.1ZM397.6,451c-1.5,1.4-1.1,4.7.8,7.5,1.9,2.8,4.6,3.9,6.1,2.5l-6.9-10ZM407.7,457.9c1.4-1.4,1-4.8-.9-7.5-1.9-2.7-4.6-3.8-6.1-2.4l7,9.9ZM404.8,443.8c-1.4,1.5-.9,4.8,1,7.6s4.7,3.7,6,2.3l-7.1-9.8ZM412.9,452.6c1.4-1.5.9-4.9-1.1-7.6-2-2.7-4.7-3.7-6-2.2l7.1,9.8ZM407.8,440.6c-1.4,1.5-.8,4.9,1.1,7.6,2,2.7,4.7,3.7,6,2.1l-7.2-9.7ZM417.9,446.9c1.3-1.5.8-5-1.2-7.6s-4.7-3.6-6-2l7.2,9.7ZM414.5,432.7c-1.3,1.6-.7,5,1.4,7.7,2,2.6,4.7,3.5,6,1.9l-7.3-9.5ZM422.8,441c1.3-1.6.6-5.1-1.4-7.7-2-2.6-4.7-3.4-6-1.8l7.4,9.5ZM417.2,429.2c-1.2,1.7-.6,5.1,1.5,7.7,2,2.6,4.7,3.4,6,1.7l-7.4-9.4ZM427.4,434.9c1.2-1.7.5-5.2-1.6-7.7s-4.7-3.3-5.9-1.6l7.5,9.3ZM423.3,420.5c-1.2,1.8-.4,5.2,1.7,7.8,2.1,2.5,4.7,3.2,5.9,1.4l-7.6-9.2ZM431.7,428.4c1.1-1.8.4-5.2-1.7-7.8-2.1-2.5-4.7-3.1-5.9-1.4l7.6,9.2ZM425.8,416.7c-1.1,1.8-.3,5.3,1.8,7.8,2.1,2.5,4.7,3.1,5.9,1.3l-7.7-9.1ZM435.9,421.7c1.1-1.8.2-5.3-1.9-7.8-2.1-2.5-4.7-3-5.8-1.2l7.7,9ZM431.3,407.3c-1,1.9-.1,5.4,2,7.8,2.2,2.4,4.8,2.9,5.8,1l-7.8-8.8ZM439.8,414.7c1-1.9,0-5.4-2.1-7.8-2.2-2.4-4.8-2.8-5.8-.9l7.8,8.8ZM433.5,403.1c-1,1.9,0,5.5,2.1,7.9,2.2,2.4,4.8,2.8,5.7.8l-7.9-8.7ZM443.5,407.4c1-2,0-5.5-2.2-7.9-2.2-2.4-4.8-2.7-5.7-.7l8,8.6ZM438.3,393c-.9,2,.2,5.6,2.4,7.9,2.2,2.3,4.7,2.5,5.7.5l-8-8.4ZM447,399.9c.9-2.1-.2-5.6-2.4-7.9-2.2-2.3-4.7-2.5-5.6-.5l8.1,8.3ZM440.2,388.5c-.9,2.1.2,5.6,2.5,7.9,2.2,2.3,4.7,2.4,5.6.4l-8.1-8.3ZM450.2,392.1c.8-2.1-.3-5.7-2.6-7.9s-4.7-2.3-5.6-.2l8.1,8.1ZM444.4,377.8c-.8,2.2.4,5.7,2.7,7.9,2.3,2.2,4.7,2.2,5.5,0l-8.2-7.9ZM453.1,384.1c.8-2.2-.5-5.7-2.7-7.9-2.3-2.2-4.7-2.2-5.5,0l8.2,7.9ZM446,373c-.7,2.2.5,5.7,2.8,7.9,2.3,2.1,4.7,2.1,5.5-.1l-8.3-7.8ZM455.8,375.8c.7-2.3-.6-5.8-2.9-7.9-2.3-2.1-4.7-2-5.4.3l8.3,7.6ZM449.4,361.5c-.6,2.3.7,5.8,3,7.9,2.3,2.1,4.7,1.8,5.3-.5l-8.4-7.4ZM458.3,367.2c.6-2.3-.8-5.8-3.1-7.9-2.3-2-4.7-1.8-5.3.5l8.4,7.4ZM450.8,356.5c-.6,2.3.8,5.9,3.1,7.9,2.3,2,4.7,1.7,5.3-.6l-8.4-7.3ZM460.4,358.5c.5-2.4-.9-5.9-3.2-7.9-2.3-2-4.7-1.6-5.2.7l8.4,7.1ZM453.5,344.4c-.5,2.4,1,5.9,3.4,7.8,2.3,1.9,4.6,1.5,5.1-.9l-8.5-6.9ZM462.3,349.5c.5-2.4-1-5.9-3.4-7.8-2.3-1.9-4.6-1.5-5.1,1l8.5,6.9ZM454.5,339.1c-.4,2.5,1.1,6,3.5,7.8,2.4,1.9,4.6,1.4,5.1-1.1l-8.5-6.7ZM464,340.3c.4-2.5-1.2-6-3.6-7.8-2.4-1.8-4.6-1.3-5,1.2l8.6,6.6ZM456.5,326.4c-.3,2.5,1.3,6,3.7,7.8,2.4,1.8,4.6,1.1,4.9-1.4l-8.6-6.4ZM465.3,331c.3-2.5-1.3-6-3.7-7.8s-4.6-1.1-4.9,1.5l8.6,6.3ZM457.1,321.6c-.3,2.6,1.4,6,3.8,7.7,2.4,1.7,4.5,1,4.9-1.5l-8.6-6.2ZM466.2,322.9c.3-2.6-1.4-6-3.8-7.7-2.4-1.7-4.5-.9-4.8,1.7l8.6,6.1ZM458.2,310.5c-.2,2.6,1.5,6.1,3.9,7.7,2.4,1.6,4.5.8,4.7-1.8l-8.6-5.9ZM467,314.7c.2-2.6-1.6-6.1-3.9-7.7-2.4-1.6-4.5-.8-4.7,1.9l8.6,5.8ZM458.6,305.7c-.2,2.6,1.6,6.1,4,7.7,2.4,1.6,4.5.7,4.7-1.9l-8.7-5.7ZM467.6,306.4c.1-2.7-1.7-6.1-4.1-7.6s-4.4-.6-4.6,2.1l8.7,5.6ZM459.2,294.2c0,2.7,1.8,6.1,4.2,7.6,2.4,1.5,4.4.5,4.5-2.2l-8.7-5.4ZM462.5,290.6c-2.4-1.2-4.2.2-4,3,.2,2.8,2.2,6.1,4.6,7.3l-.6-10.3ZM460.2,299.4c2.4,1.2,4.2,0,4.1-2.9-.1-2.8-2.2-6.1-4.6-7.3l.5,10.3ZM455.6,287c-2.4-1.3-4.3,0-4.2,2.8,0,2.8,2.1,6.1,4.5,7.4l-.3-10.2ZM450.1,293.9c2.4,1.4,4.3.2,4.3-2.5,0-2.8-2-6.1-4.4-7.5v10ZM448.5,283c-2.4-1.4-4.3-.3-4.4,2.5,0,2.8,1.9,6.1,4.3,7.5v-10ZM444.8,290.8c2.4,1.4,4.4.4,4.4-2.3,0-2.7-1.8-6.1-4.2-7.5l-.2,9.9ZM439.7,277.7c-2.4-1.5-4.4-.6-4.5,2.1-.1,2.7,1.7,6.1,4.1,7.6l.4-9.7ZM432,282.7c2.4,1.6,4.5.8,4.7-1.8.2-2.6-1.6-6.1-3.9-7.7l-.8,9.5ZM431,272c-2.4-1.6-4.5-.8-4.7,1.8-.2,2.6,1.5,6.1,3.9,7.7l.8-9.5ZM426.6,279c2.4,1.7,4.5,1,4.8-1.6.3-2.6-1.4-6-3.8-7.7l-1,9.4ZM422.4,265.8c-2.4-1.8-4.6-1.1-4.9,1.4-.3,2.5,1.3,6,3.7,7.8l1.2-9.2ZM413.9,269.5c2.4,1.9,4.6,1.4,5-1.1.4-2.5-1.1-6-3.5-7.8l-1.6,8.9ZM413.8,259.2c-2.4-1.9-4.6-1.4-5.1,1-.5,2.5,1.1,6,3.4,7.8l1.6-8.9ZM408.6,265.2c2.3,1.9,4.6,1.5,5.1-.9.5-2.4-1-5.9-3.3-7.8l-1.8,8.7ZM405.3,252.2c-2.3-2-4.7-1.7-5.2.7-.6,2.4.9,5.9,3.2,7.9l2.1-8.5ZM396.2,254.5c2.3,2.1,4.7,1.9,5.4-.4.7-2.3-.7-5.8-3-7.9l-2.4,8.2ZM396.9,244.8c-2.3-2.1-4.7-2-5.4.3-.7,2.3.6,5.8,2.9,7.9l2.5-8.2ZM390.9,249.7c2.3,2.1,4.7,2.1,5.4-.1.7-2.2-.5-5.8-2.8-7.9l-2.6,8ZM388.6,236.9c-2.3-2.2-4.7-2.3-5.5-.1-.8,2.1.4,5.7,2.7,7.9l2.9-7.8ZM378.9,237.8c2.2,2.3,4.7,2.5,5.6.4.9-2.1-.2-5.6-2.4-7.9l-3.2,7.5ZM380.4,228.7c-2.2-2.3-4.8-2.5-5.7-.5-.9,2,.2,5.6,2.4,7.9l3.3-7.4ZM373.8,232.5c2.2,2.4,4.8,2.7,5.7.7,1-2,0-5.5-2.3-7.9l-3.4,7.2ZM372.5,220.1c-2.2-2.4-4.8-2.8-5.8-.9-1,1.9,0,5.4,2.1,7.8l3.7-6.9ZM362.2,219.5c2.1,2.5,4.7,3,5.9,1.2,1.1-1.8.3-5.3-1.8-7.8l-4,6.6ZM364.7,211.1c-2.1-2.5-4.7-3.1-5.9-1.3-1.1,1.8-.3,5.3,1.8,7.8l4.1-6.5ZM357.4,213.7c2.1,2.5,4.7,3.2,5.9,1.5,1.2-1.7.4-5.2-1.7-7.8l-4.2,6.3ZM357.1,201.8c-2.1-2.6-4.7-3.4-6-1.7-1.2,1.7-.6,5.1,1.5,7.7l4.5-6ZM346.5,199.8c2,2.7,4.7,3.6,6,2.1,1.3-1.5.8-5-1.2-7.6l-4.8,5.6ZM349.8,192.2c-2-2.7-4.7-3.6-6-2.1-1.3,1.5-.8,4.9,1.1,7.6l4.9-5.5ZM341.9,193.6c1.9,2.7,4.7,3.8,6.1,2.3,1.4-1.4.9-4.8-1-7.6l-5,5.2ZM342.8,182.3c-1.9-2.8-4.6-3.9-6.1-2.6-1.5,1.4-1.1,4.7.8,7.5l5.3-4.9ZM331.8,178.7c1.8,2.8,4.6,4.1,6.1,2.9,1.5-1.2,1.3-4.5-.5-7.3l-5.6,4.5ZM336.1,172.2c-1.8-2.8-4.6-4.2-6.1-3-1.6,1.2-1.4,4.5.5,7.3l5.7-4.3ZM327.6,172.1c1.8,2.9,4.5,4.3,6.1,3.1,1.6-1.1,1.5-4.4-.3-7.2l-5.8,4.1ZM329.7,161.8c-1.7-2.9-4.5-4.4-6.1-3.4-1.7,1-1.6,4.2,0,7.1l6-3.7ZM318.5,156.5c1.6,3,4.4,4.6,6.1,3.7,1.7-.9,1.8-4,.2-7l-6.3,3.2ZM323.6,151.1c-1.6-3-4.4-4.7-6.1-3.8-1.8.9-1.9,3.9-.3,6.9l6.4-3.1ZM314.8,149.7c1.6,3,4.3,4.8,6.1,4,1.8-.8,2-3.8.4-6.8l-6.5,2.8ZM318,140.3c-1.5-3-4.2-4.9-6.1-4.2-1.9.7-2.2,3.6-.7,6.7l6.8-2.4ZM306.7,133.5c1.4,3,4.1,5.1,6.1,4.6,1.9-.5,2.4-3.4,1-6.4l-7,1.8ZM312.8,129.4c-1.4-3-4.1-5.1-6-4.7-2,.5-2.4,3.3-1,6.4l7.1-1.7ZM303.6,126.4c1.3,3.1,4,5.2,6,4.8,2-.4,2.5-3.2,1.2-6.2l-7.2,1.4ZM308,118.4c-1.2-3.1-3.9-5.3-6-5.1-2,.3-2.7,3-1.4,6.1l7.4-1ZM296.9,109.9c1.1,3.1,3.8,5.5,5.9,5.4,2.1-.1,2.9-2.7,1.8-5.8l-7.6.4ZM303.8,107.3c-1.1-3.1-3.7-5.5-5.9-5.5-2.1,0-2.9,2.6-1.8,5.7l7.7-.2ZM294.4,102.7c1,3.1,3.6,5.6,5.8,5.6,2.2,0,3-2.5,2-5.5h-7.8ZM300,96.2c-1-3.1-3.5-5.7-5.7-5.9-2.2-.2-3.2,2.2-2.2,5.3l8,.6ZM289.3,86.1c.8,3.1,3.3,5.8,5.6,6.2,2.2.3,3.4-1.9,2.6-5l-8.1-1.2ZM297.4,88c0-2.8-1.9-6.1-4.3-7.5-2.4-1.4-4.3-.2-4.3,2.5l8.7,5ZM288.8,82.8c0,2.8,1.9,6.1,4.3,7.5,2.4,1.4,4.3.2,4.3-2.5l-8.7-5ZM297.4,87.4c0-2.8-1.9-6.1-4.3-7.5-2.4-1.4-4.3-.2-4.3,2.5l8.7,5ZM288.8,81.8c0,2.8,1.9,6.1,4.3,7.5,2.4,1.4,4.3.2,4.3-2.5l-8.7-5ZM296.4,83h0s-6.7,2.6-6.7,2.6h0s6.7-2.6,6.7-2.6ZM296.4,82.9h0c0,0-6.7,2.5-6.7,2.5h0c0,0,6.7-2.5,6.7-2.5ZM296.3,82.7h0s-6.7,2.6-6.7,2.6h0s6.7-2.6,6.7-2.6ZM288.9,80s0,0,0,0l8.2,8s0,0,0,0l-8.2-8ZM288.8,80.1s0,0,0,.1l8.2,8s0,0,0-.1l-8.2-8ZM288.7,80.4s0,0,0,0l8.2,8s0,0,0,0l-8.2-8ZM296.9,85.1s0,0,0,0l-8.2-1.4s0,0,0,0l8.2,1.4ZM296.8,85c0,0,0-.1,0-.2l-8.2-1.4c0,0,0,.1,0,.2l8.2,1.4ZM296.7,84.6s0,0,0,0l-8.2-1.4s0,0,0,0l8.2,1.4ZM289.3,78.8h0s6.7,10.2,6.7,10.2h0s-6.7-10.2-6.7-10.2ZM289.3,78.8h0s6.7,10.3,6.7,10.3h0s-6.7-10.3-6.7-10.3ZM289.2,78.9h0s6.7,10.2,6.7,10.2h0s-6.7-10.2-6.7-10.2ZM288.2,81.5h0c0,0,8.7,5,8.7,5h0c0,0-8.7-5-8.7-5ZM288.2,81.8v.4l8.7,5v-.4l-8.7-5ZM288.2,82.7h0c0,0,8.7,5,8.7,5h0c0,0-8.7-5-8.7-5ZM288.4,81.2c0,.3-.2.5-.3.8l8.1,8.1c.1-.3.2-.5.3-.8l-8.2-8.1ZM286.9,84.9c-.6,1.5-1.3,2.9-2,4.3l7.9,8.7c.8-1.5,1.5-3,2.2-4.6l-8-8.4ZM281.8,94.6c-.3.4-.5.9-.8,1.3l7.6,9.1c.3-.5.6-.9.9-1.4l-7.7-9ZM279.3,98.4c-.9,1.2-1.8,2.4-2.7,3.6l7.3,9.5c1-1.2,1.9-2.5,2.9-3.8l-7.5-9.3ZM272.8,106.4c-.3.4-.7.7-1,1l7,9.9c.4-.4.7-.7,1.1-1.1l-7.1-9.8ZM269.8,109.5c-1,1-2.1,1.9-3.2,2.8l6.7,10.2c1.2-1,2.3-2,3.4-3l-6.9-10ZM262,115.7c-.4.3-.8.5-1.2.8l6.3,10.5c.4-.3.8-.6,1.2-.8l-6.4-10.4ZM258.4,118c-1.2.7-2.5,1.4-3.7,2.1l6,10.7c1.3-.7,2.7-1.4,3.9-2.2l-6.2-10.6ZM249.5,122.5c-.4.2-.9.4-1.3.5l5.6,10.9c.5-.2.9-.4,1.4-.6l-5.7-10.8ZM245.5,124c-1.4.5-2.7.9-4.1,1.3l5.2,11c1.5-.4,2.9-.9,4.4-1.4l-5.4-10.9ZM235.8,126.7c-.5.1-1,.2-1.4.3l4.8,11.1c.5,0,1-.2,1.5-.3l-4.9-11.1ZM231.4,127.6c-1.5.2-2.9.4-4.4.6l4.4,11.1c1.6-.2,3.1-.4,4.7-.6l-4.6-11.1ZM220.9,128.6c-.5,0-1,0-1.5,0l4,11.2c.5,0,1.1,0,1.6,0l-4.1-11.2ZM216.3,128.7c-1.6,0-3.1,0-4.7-.1l3.6,11.2c1.7,0,3.3.1,5,.1l-3.8-11.2ZM205.2,128.1c-.5,0-1.1-.1-1.6-.2l3.2,11.1c.6,0,1.1.1,1.7.2l-3.3-11.1ZM200.3,127.5c-1.6-.2-3.3-.5-4.9-.8l2.8,11.1c1.7.3,3.5.6,5.2.8l-3-11.1ZM188.7,125.3c-.6-.1-1.1-.3-1.7-.4l2.4,11c.6.1,1.2.3,1.8.4l-2.5-11ZM183.7,124.1c-1.7-.4-3.4-.9-5.1-1.5l2,10.9c1.8.5,3.6,1,5.3,1.5l-2.2-10.9ZM171.8,120.4c-.6-.2-1.1-.4-1.7-.6l1.6,10.7c.6.2,1.2.4,1.8.6l-1.6-10.8ZM166.7,118.5c-1.7-.7-3.4-1.4-5.2-2.1l1.2,10.6c1.8.8,3.6,1.5,5.4,2.2l-1.4-10.7ZM154.6,113.4c-.6-.3-1.2-.5-1.7-.8l.8,10.4c.6.3,1.2.6,1.8.8l-.8-10.4ZM149.3,110.9c-1.7-.9-3.5-1.7-5.2-2.7l.4,10.2c1.8,1,3.6,1.9,5.5,2.8l-.6-10.3ZM137.1,104.4c-.3-.2-.6-.3-.9-.5v10c.3.2.6.4.9.5v-10ZM136.3,103.9c-.2-.1-.5-.3-.7-.4v10c.2.1.5.3.7.4v-10ZM132.8,101.9c-1.4-.8-2.8-1.7-4.2-2.5l-.3,9.8c1.5.9,2.9,1.8,4.4,2.6l.2-9.9ZM123.1,95.8c-.2-.2-.5-.3-.7-.5l-.6,9.6c.2.2.5.3.7.5l.6-9.6ZM117.7,97.8c0,.3,0,.6,0,.9l8.7,4.6c0-.3,0-.6,0-.9l-8.7-4.6ZM117.9,102.3c0,1.8.2,3.6.3,5.4l8.7,4.3c0-1.7-.2-3.5-.3-5.2l-8.7-4.5ZM118.6,114.8c0,.6,0,1.2.1,1.8l8.6,4c0-.6,0-1.2-.1-1.8l-8.6-4.1ZM119,120.3c.2,1.8.3,3.6.5,5.5l8.6,3.8c-.2-1.8-.3-3.5-.5-5.3l-8.6-3.9ZM120.3,133.1c0,.3,0,.6.1.9l8.6,3.5c0-.3,0-.6-.1-.9l-8.6-3.6ZM120.4,134c0,.4,0,.7.1,1.1l8.6,3.5c0-.4,0-.7-.1-1.1l-8.6-3.5ZM121,139.5c.3,2.2.6,4.4.9,6.6l8.5,3.2c-.3-2.1-.6-4.3-.9-6.4l-8.6-3.4ZM123.3,155c.1.7.2,1.5.4,2.2l8.5,2.8c-.1-.7-.2-1.4-.3-2.2l-8.5-2.9ZM124.4,161.6c.4,2.2.8,4.5,1.2,6.7l8.4,2.5c-.4-2.2-.8-4.4-1.2-6.5l-8.5-2.7ZM127.3,177.4c.2.8.3,1.5.5,2.3l8.4,2.2c-.2-.7-.3-1.5-.5-2.2l-8.4-2.2ZM128.7,184.1c.5,2.3,1,4.5,1.5,6.8l8.3,1.8c-.5-2.2-1-4.4-1.5-6.6l-8.3-2ZM132.4,200.1c.2.8.4,1.5.6,2.3l8.2,1.5c-.2-.7-.4-1.5-.6-2.2l-8.2-1.6ZM134.2,206.9c.6,2.3,1.2,4.6,1.8,6.9l8.1,1.2c-.6-2.2-1.2-4.4-1.8-6.7l-8.2-1.4ZM138.6,222.9c.2.8.4,1.5.7,2.3l8,.8c-.2-.7-.4-1.5-.7-2.2l-8.1-.9ZM140.6,229.8c.7,2.3,1.4,4.6,2.1,6.9l7.9.5c-.7-2.2-1.4-4.5-2.1-6.7l-8-.7ZM145.8,245.9c.3.8.5,1.5.8,2.3l7.8.2c-.2-.7-.5-1.5-.7-2.2l-7.8-.2ZM148.1,252.8c.8,2.3,1.6,4.6,2.4,6.9l7.7-.2c-.8-2.2-1.6-4.5-2.3-6.7h-7.8ZM153.8,268.9c.3.8.6,1.5.9,2.3l7.6-.5c-.3-.7-.6-1.5-.8-2.2l-7.6.4ZM156.5,275.8c.9,2.3,1.8,4.6,2.7,6.9l7.5-.8c-.9-2.2-1.8-4.5-2.6-6.7l-7.5.6ZM162.8,291.9c.3.8.6,1.5.9,2.3l7.3-1.1c-.3-.7-.6-1.5-.9-2.2l-7.4,1ZM165.7,298.8c1,2.3,1.9,4.6,2.9,6.9l7.2-1.4c-1-2.2-1.9-4.5-2.9-6.7l-7.3,1.2ZM172.7,314.7c.3.8.7,1.5,1,2.3l7.1-1.7c-.3-.7-.7-1.5-1-2.2l-7.1,1.7ZM175.8,321.5c1,2.3,2.1,4.5,3.2,6.8l6.9-2c-1-2.2-2.1-4.4-3.1-6.6l-7,1.8ZM183.3,337.3c.4.8.7,1.5,1.1,2.3l6.8-2.3c-.4-.7-.7-1.5-1.1-2.2l-6.8,2.2ZM186.6,344.1c1.1,2.2,2.2,4.5,3.4,6.7l6.7-2.6c-1.1-2.2-2.2-4.4-3.3-6.6l-6.8,2.4ZM194.6,359.7c.4.7.8,1.5,1.2,2.2l6.5-2.8c-.4-.7-.8-1.4-1.1-2.2l-6.6,2.8ZM198.1,366.4c1.2,2.2,2.4,4.4,3.6,6.6l6.4-3.1c-1.2-2.2-2.3-4.3-3.5-6.5l-6.5,2.9ZM206.6,381.8c.4.7.8,1.5,1.2,2.2l6.3-3.3c-.4-.7-.8-1.4-1.2-2.1l-6.3,3.3ZM210.3,388.4c1.2,2.2,2.5,4.3,3.8,6.5l6.1-3.6c-1.2-2.1-2.5-4.2-3.7-6.4l-6.2,3.4ZM219.2,403.6c.4.7.9,1.4,1.3,2.2l6-3.8c-.4-.7-.8-1.4-1.3-2.1l-6,3.8ZM223.1,410c1.3,2.1,2.6,4.3,3.9,6.4l5.8-4.1c-1.3-2.1-2.6-4.2-3.8-6.3l-5.9,3.9ZM232.3,425c.4.7.9,1.4,1.3,2.1l5.7-4.3c-.4-.7-.9-1.4-1.3-2.1l-5.7,4.2ZM236.4,431.3c1.4,2.1,2.7,4.2,4.1,6.3l5.5-4.5c-1.3-2.1-2.7-4.1-4-6.2l-5.6,4.4ZM246,446c.5.7.9,1.4,1.4,2.1l5.4-4.7c-.5-.7-.9-1.4-1.4-2l-5.4,4.7ZM250.2,452.2c1.4,2.1,2.8,4.1,4.2,6.2l5.3-4.9c-1.4-2-2.8-4-4.1-6.1l-5.4,4.8ZM260.1,466.6c.5.7,1,1.4,1.4,2l5.1-5.1c-.5-.7-.9-1.3-1.4-2l-5.2,5.1ZM264.4,472.7c1.4,2,2.9,4,4.3,6.1l5-5.3c-1.4-2-2.8-4-4.3-5.9l-5.1,5.2ZM274.6,486.8c.5.7,1,1.3,1.5,2l4.9-5.5c-.5-.7-1-1.3-1.4-2l-4.9,5.5ZM279,492.8c1.5,2,3,4,4.5,5.9l4.7-5.7c-1.5-1.9-2.9-3.9-4.4-5.8l-4.8,5.6ZM289.4,506.6c.3.3.5.7.8,1l4.6-5.8c-.2-.3-.5-.6-.7-1l-4.6,5.8ZM288.2,502.1h0s8.7,5,8.7,5h0s-8.7-5-8.7-5ZM288.2,502.3h0c0,.1,8.7,5.1,8.7,5.1h0c0-.1-8.7-5.1-8.7-5.1ZM288.2,502.6h0s8.7,5,8.7,5h0s-8.7-5-8.7-5ZM294.8,510.7s0,0,0,0l-4.6-11.1s0,0,0,0l4.6,11.1ZM294.9,510.7s0,0,.1,0l-4.6-11.1s0,0-.1,0l4.6,11.1ZM295.1,510.6s0,0,0,0l-4.6-11.1s0,0,0,0l4.6,11.1ZM290.5,508s0,0,0,0l4.6-5.8h0s-4.6,5.8-4.6,5.8ZM290.6,508.1s0,0,0,0l4.6-5.8s0,0,0,0l-4.6,5.8ZM290.8,508.3h0s4.6-5.8,4.6-5.8c0,0,0,0,0,0l-4.6,5.8ZM297.4,507.9h0s-8.7-5-8.7-5h0s8.7,5,8.7,5ZM297.4,507.8h0c0-.1-8.7-5.1-8.7-5.1h0c0,.1,8.7,5.1,8.7,5.1ZM297.4,507.6h0s-8.7-5-8.7-5h0s8.7,5,8.7,5ZM295.4,510.6c.3,0,.5,0,.8-.1l-4.6-11.1c-.2,0-.5,0-.7.1l4.6,11.1ZM299.2,510c1.5-.2,3-.5,4.5-.8l-4.8-11.1c-1.5.3-2.9.5-4.4.8l4.7,11.1ZM309.6,508.1c.5-.1,1-.2,1.5-.3l-4.9-11.1c-.5.1-1,.2-1.4.3l4.9,11.1ZM314,507.1c1.5-.3,2.9-.7,4.4-1l-5-11c-1.4.3-2.9.7-4.3,1l4.9,11.1ZM324.1,504.6c.5-.1,1-.3,1.4-.4l-5.2-11c-.5.1-.9.3-1.4.4l5.1,11ZM328.4,503.4c1.4-.4,2.8-.8,4.2-1.3l-5.3-11c-1.4.4-2.8.9-4.2,1.3l5.2,11ZM338.2,500.3c.5-.2.9-.3,1.4-.5l-5.4-10.9c-.5.2-.9.3-1.4.5l5.4,10.9ZM342.4,498.8c1.4-.5,2.7-1,4.1-1.6l-5.6-10.9c-1.3.5-2.7,1-4,1.5l5.5,10.9ZM351.9,495c.4-.2.9-.4,1.3-.6l-5.7-10.8c-.4.2-.9.4-1.3.6l5.7,10.8ZM355.9,493.2c1.3-.6,2.7-1.2,4-1.9l-5.9-10.7c-1.3.6-2.6,1.2-3.9,1.8l5.8,10.8ZM365.1,488.8c.4-.2.9-.4,1.3-.7l-6-10.7c-.4.2-.8.4-1.3.7l6,10.7ZM369,486.7c1.3-.7,2.6-1.4,3.8-2.2l-6.1-10.6c-1.2.7-2.5,1.4-3.7,2.1l6.1,10.6ZM377.8,481.6c.4-.3.8-.5,1.2-.8l-6.3-10.5c-.4.3-.8.5-1.2.8l6.3,10.5ZM381.4,479.2c1.2-.8,2.4-1.6,3.6-2.5l-6.4-10.4c-1.2.8-2.4,1.6-3.5,2.4l6.3,10.5ZM389.8,473.3c.4-.3.8-.6,1.2-.9l-6.6-10.3c-.4.3-.8.6-1.1.9l6.5,10.3ZM393.3,470.6c1.2-.9,2.3-1.8,3.4-2.8l-6.7-10.2c-1.1.9-2.2,1.8-3.3,2.7l6.6,10.3ZM401.2,464c.4-.3.7-.7,1.1-1l-6.8-10.1c-.4.3-.7.6-1.1,1l6.8,10.1ZM404.5,461c1.1-1,2.2-2,3.2-3.1l-7-9.9c-1,1-2.1,2-3.1,3l6.9,10ZM411.9,453.7c.3-.4.7-.7,1-1.1l-7.1-9.8c-.3.4-.7.7-1,1.1l7.1,9.8ZM415,450.4c1-1.1,2-2.3,3-3.4l-7.2-9.7c-1,1.1-1.9,2.2-2.9,3.3l7.2,9.7ZM421.8,442.2c.3-.4.6-.8.9-1.2l-7.4-9.5c-.3.4-.6.8-.9,1.2l7.3,9.5ZM424.6,438.6c.9-1.2,1.8-2.5,2.7-3.7l-7.5-9.3c-.9,1.2-1.8,2.4-2.7,3.6l7.4,9.4ZM430.9,429.7c.3-.4.6-.9.9-1.3l-7.6-9.2c-.3.4-.6.9-.8,1.3l7.6,9.2ZM433.4,425.7c.8-1.3,1.7-2.7,2.5-4.1l-7.7-9c-.8,1.3-1.6,2.6-2.4,4l7.7,9.1ZM439.1,416.1c.3-.5.5-.9.8-1.4l-7.8-8.8c-.2.5-.5.9-.7,1.4l7.8,8.8ZM441.3,411.8c.7-1.4,1.5-2.9,2.2-4.4l-8-8.6c-.7,1.4-1.4,2.9-2.1,4.3l7.9,8.7ZM446.3,401.4c.2-.5.4-1,.7-1.5l-8.1-8.3c-.2.5-.4,1-.7,1.5l8,8.4ZM448.3,396.8c.6-1.6,1.3-3.1,1.9-4.7l-8.1-8.1c-.6,1.5-1.2,3.1-1.8,4.6l8.1,8.3ZM452.6,385.7c.2-.5.4-1.1.6-1.6l-8.2-7.9c-.2.5-.4,1.1-.6,1.6l8.2,7.9ZM454.3,380.8c.5-1.7,1.1-3.3,1.6-5l-8.3-7.6c-.5,1.6-1,3.2-1.5,4.9l8.3,7.8ZM457.8,369c.2-.6.3-1.1.5-1.7l-8.4-7.4c-.1.6-.3,1.1-.5,1.7l8.4,7.4ZM459.2,363.8c.4-1.7.9-3.5,1.3-5.3l-8.4-7.1c-.4,1.7-.8,3.4-1.2,5.1l8.4,7.3ZM462,351.3c.1-.6.2-1.2.4-1.8l-8.5-6.9c-.1.6-.2,1.2-.3,1.8l8.5,6.9ZM463,345.8c.3-1.8.6-3.7.9-5.5l-8.6-6.6c-.3,1.8-.6,3.6-.9,5.4l8.5,6.7ZM465.1,332.8c0-.3,0-.6.1-.9l-8.6-6.3c0,.3,0,.6-.1.9l8.6,6.4ZM465.2,331.8c0-.3,0-.5.1-.8l-8.6-6.3c0,.3,0,.5-.1.8l8.6,6.3ZM465.7,327.8c.2-1.6.4-3.2.5-4.9l-8.6-6.1c-.2,1.6-.3,3.2-.5,4.7l8.6,6.2ZM466.9,316.4c0-.6,0-1.1.1-1.7l-8.6-5.8c0,.5,0,1.1-.1,1.6l8.6,5.9ZM467.2,311.4c.1-1.7.2-3.3.3-5l-8.7-5.6c0,1.6-.2,3.3-.3,4.9l8.7,5.7ZM467.9,299.6c0-.3,0-.6,0-.9l-8.7-5.4c0,.3,0,.6,0,.8l8.7,5.4ZM463.2,290.9c-.2-.1-.5-.2-.7-.3l.6,10.3c.2.1.5.2.7.4l-.6-10.3ZM459.8,289.2c-1.4-.7-2.8-1.4-4.2-2.2l.3,10.2c1.5.8,2.9,1.5,4.4,2.3l-.5-10.3ZM450,283.9c-.2-.1-.5-.3-.7-.4v10c.2.1.5.3.7.4v-10ZM449.3,283.5c-.3-.2-.6-.3-.9-.5v10c.3.2.6.4.9.5v-10ZM445,281c-1.8-1.1-3.5-2.1-5.2-3.2l-.4,9.7c1.8,1.1,3.6,2.3,5.5,3.4l.2-9.9ZM432.8,273.2c-.6-.4-1.2-.8-1.7-1.2l-.8,9.5c.6.4,1.2.8,1.8,1.2l.8-9.5ZM427.6,269.6c-1.7-1.2-3.5-2.5-5.2-3.8l-1.2,9.2c1.8,1.3,3.6,2.6,5.4,3.9l1-9.4ZM415.5,260.6c-.6-.5-1.1-.9-1.7-1.4l-1.6,8.9c.6.5,1.2,1,1.8,1.4l1.6-8.9ZM410.4,256.5c-1.7-1.4-3.4-2.8-5.1-4.3l-2.1,8.5c1.8,1.5,3.6,3,5.3,4.5l1.8-8.7ZM398.5,246.3c-.6-.5-1.1-1-1.7-1.5l-2.5,8.2c.6.5,1.2,1.1,1.8,1.6l2.4-8.2ZM393.5,241.7c-1.7-1.6-3.3-3.2-5-4.8l-2.9,7.8c1.7,1.7,3.5,3.3,5.2,5l2.6-8ZM382.1,230.4c-.5-.6-1.1-1.1-1.6-1.7l-3.3,7.4c.6.6,1.1,1.2,1.7,1.8l3.2-7.5ZM377.2,225.3c-1.6-1.7-3.2-3.5-4.8-5.2l-3.7,6.9c1.7,1.8,3.3,3.7,5,5.5l3.4-7.2ZM366.2,213c-.5-.6-1-1.2-1.5-1.8l-4.1,6.5c.5.6,1.1,1.3,1.6,1.9l4-6.6ZM361.6,207.5c-1.5-1.9-3-3.7-4.5-5.6l-4.5,6c1.6,2,3.1,4,4.7,5.9l4.2-6.3ZM351.3,194.2c-.5-.6-1-1.3-1.4-1.9l-4.9,5.5c.5.7,1,1.4,1.5,2l4.8-5.6ZM347,188.3c-1.4-2-2.8-4-4.2-6l-5.3,4.9c1.5,2.1,2.9,4.2,4.4,6.3l5-5.2ZM337.4,174.2c-.4-.7-.9-1.4-1.3-2.1l-5.7,4.3c.5.7.9,1.4,1.4,2.2l5.6-4.5ZM333.5,168c-1.3-2.1-2.6-4.2-3.8-6.3l-6,3.7c1.3,2.2,2.7,4.4,4,6.6l5.8-4.1ZM324.8,153.3c-.4-.7-.8-1.4-1.2-2.1l-6.4,3.1c.4.8.8,1.5,1.2,2.3l6.3-3.2ZM321.3,146.8c-1.1-2.2-2.3-4.3-3.3-6.5l-6.8,2.4c1.2,2.3,2.3,4.6,3.5,6.9l6.5-2.8ZM313.8,131.6c-.3-.7-.7-1.5-1-2.2l-7.1,1.7c.4.8.7,1.6,1.1,2.3l7-1.8ZM310.8,125c-1-2.2-1.9-4.4-2.8-6.6l-7.4,1c1,2.4,2,4.7,3,7.1l7.2-1.4ZM304.6,109.5c-.3-.7-.5-1.5-.8-2.2l-7.7.2c.3.8.6,1.6.9,2.4l7.6-.4ZM302.2,102.8c-.8-2.2-1.5-4.4-2.2-6.7l-8-.6c.7,2.4,1.5,4.7,2.3,7.1h7.8ZM297.5,87.3c0-.4-.2-.7-.3-1.1l-8.2-1.3c.1.4.2.8.3,1.2l8.1,1.2ZM297.4,88.1h0c0,0-8.7-5-8.7-5h0c0,0,8.7,5,8.7,5ZM297.4,87.8v-.4l-8.7-5v.4l8.7,5ZM297.4,86.8h0c0,0-8.7-5-8.7-5h0c0,0,8.7,5,8.7,5ZM293.1,84.3l8.7,5c0-2.3-.7-5-2-7.6l-6.7,2.6ZM293,84l6.7-2.6c-2-3.9-5.1-7-8.2-8.2-3.1-1.1-5.6,0-6.6,2.7l8.2,8ZM293.1,85.6l-8.7-5c0,1.2.2,2.4.5,3.7l8.2,1.3ZM463.6,296.1l8.7,5.4c0-2.8-.9-6.1-2.6-9.1-1.8-3-4.2-5.4-6.7-6.6l.6,10.3ZM460.9,328.7l-8.6-6.3h0l8.6,6.3ZM293.1,505l-4.6-11.1c-2.5.4-4.1,2.7-4.1,6.1l8.7,5ZM293.1,505.4l-4.6,5.8c2.7,3.5,6,5.5,8.8,5.3,2.8-.2,4.5-2.5,4.5-6.2l-8.7-5ZM292.8,505.1l4.6-5.8c-2.8-3.6-6.4-5.7-9.2-5.3l4.6,11.1ZM292.5,505.1l-8.7-5c0,3.6,1.7,8,4.5,11.3,2.8,3.3,6.1,5.2,8.8,4.8l-4.6-11.1ZM292.5,504.6l8.7,5c0-3.4-1.5-7.5-4.1-10.8l-4.6,5.8ZM124.7,135.8l-8.6-3.5,8.6,3.5ZM122,100.1l.6-9.6c-2.5-1.6-4.9-2-6.7-1s-2.7,3.2-2.6,6.1l8.7,4.6ZM292.5,85.2l8.2,8.1c.3-.9.5-1.9.5-3.1l-8.7-5ZM292.5,84l-6.7-10.2c-1.3,1.1-2,2.9-2,5.2l8.7,5ZM292.6,83.9l8.2,1.4c-1-4-3.6-7.9-6.6-10.4-3.1-2.4-6.2-2.9-8.2-1.3l6.7,10.2ZM292.8,84.5l-8.2-1.4c1.2,4.7,4.5,9.2,8.2,11.4s7,1.3,8.2-2l-8.2-8ZM299.7,81.7c-3.1-6-8.5-9.7-12.2-8.3-3.7,1.4-4.2,7.4-1.1,13.4l13.3-5.2ZM286.4,86.8c3.1,6,8.5,9.7,12.2,8.3,3.7-1.4,4.2-7.4,1.1-13.4l-13.3,5.2ZM299.7,81.5c-3.1-6-8.5-9.7-12.2-8.3-3.7,1.4-4.2,7.4-1.1,13.4l13.3-5.2ZM286.3,86.6c3.1,6,8.5,9.7,12.2,8.3,3.7-1.4,4.2-7.4,1.1-13.4l-13.3,5.2ZM284.8,76c-1.6,4.3.8,11.4,5.3,15.8,4.5,4.4,9.5,4.5,11.1.2l-16.4-16ZM301.1,92.1c1.6-4.3-.8-11.4-5.3-15.8-4.5-4.4-9.5-4.5-11.1-.2l16.4,16ZM284.7,76.2c-1.6,4.3.8,11.4,5.3,15.8,4.5,4.4,9.5,4.5,11.1.2l-16.4-16ZM301,92.5c1.6-4.3-.8-11.4-5.3-15.8-4.5-4.4-9.5-4.5-11.1-.3l16.4,16.1ZM301,85.8c-1.6-6.1-6.6-11.7-11.1-12.4-4.5-.8-6.9,3.6-5.3,9.7l16.4,2.7ZM284.6,82.9c1.6,6.1,6.5,11.7,11.1,12.5,4.5.8,6.9-3.6,5.3-9.7l-16.4-2.7ZM300.9,85.5c-1.6-6.1-6.5-11.7-11.1-12.5-4.5-.8-6.9,3.6-5.3,9.7l16.4,2.8ZM284.5,82.5c1.6,6.1,6.5,11.7,11.1,12.5,4.5.8,6.9-3.6,5.3-9.7l-16.4-2.8ZM286,73.7c-3.1,2.5-2.6,9.1,1.1,14.7,3.7,5.6,9.2,8.2,12.2,5.7l-13.3-20.4ZM299.3,94.1c3.1-2.5,2.6-9.1-1.1-14.7-3.7-5.6-9.2-8.2-12.2-5.7l13.3,20.4ZM285.9,73.7c-3.1,2.5-2.6,9.1,1.1,14.7,3.7,5.6,9.2,8.2,12.2,5.7l-13.3-20.4ZM299.2,94.2c3.1-2.5,2.6-9.1-1.1-14.7-3.7-5.6-9.2-8.2-12.2-5.7l13.3,20.4ZM283.8,79.1c0,5.5,3.9,12.2,8.7,15,4.8,2.7,8.7.5,8.7-5l-17.3-9.9ZM301.2,89.3c0-5.5-3.9-12.2-8.7-15-4.8-2.7-8.7-.5-8.7,5l17.3,10ZM283.8,79.7c0,5.5,3.9,12.2,8.7,15,4.8,2.7,8.7.5,8.7-5l-17.3-9.9ZM301.2,90.1c0-5.5-3.9-12.2-8.7-15-4.8-2.7-8.7-.5-8.7,5l17.3,10ZM284.1,77.9c-1.7,4.2.6,11.3,5.1,15.8,4.5,4.5,9.5,4.7,11.1.5l-16.3-16.3ZM299,97.4c1.8-4.1-.4-11.2-4.8-15.8-4.4-4.6-9.5-5-11.3-.9l16.1,16.7ZM280.9,84.9c-2,3.9,0,10.9,4.3,15.7,4.4,4.8,9.5,5.5,11.5,1.6l-15.8-17.3ZM293.4,108.2c2.2-3.6.6-10.6-3.7-15.6-4.2-5-9.5-6.1-11.7-2.5l15.4,18.1ZM277.2,91.4c-2.3,3.6-.7,10.5,3.5,15.6,4.2,5,9.5,6.2,11.8,2.7l-15.3-18.3ZM290.6,112.4c2.4-3.4,1-10.3-3.2-15.5-4.2-5.1-9.5-6.5-11.8-3.1l15,18.6ZM273,97.3c-2.6,3.2-1.3,10.1,2.7,15.3,4.1,5.3,9.4,6.9,12,3.7l-14.7-19.1ZM283.5,121.2c2.8-2.9,1.8-9.7-2.1-15.1-3.9-5.4-9.3-7.5-12.1-4.5l14.2,19.7ZM268.3,102.5c-2.8,2.9-2,9.6,1.9,15.1,3.9,5.5,9.3,7.6,12.1,4.7l-14-19.8ZM280.1,124.5c2.9-2.7,2.2-9.4-1.6-14.9-3.8-5.5-9.2-7.8-12.2-5.1l13.8,20.1ZM263.2,107.2c-3.1,2.5-2.5,9.1,1.1,14.7,3.7,5.6,9.2,8.2,12.2,5.7l-13.4-20.4ZM271.6,131.4c3.2-2.2,3-8.7-.5-14.4-3.5-5.8-9-8.6-12.3-6.4l12.8,20.8ZM257.6,111.3c-3.3,2.1-3.1,8.6.4,14.4,3.5,5.8,9,8.7,12.3,6.6l-12.7-20.9ZM267.7,133.9c3.4-2,3.3-8.4,0-14.2-3.4-5.8-8.9-8.9-12.3-6.9l12.4,21.1ZM251.7,114.7c-3.5,1.8-3.6,8-.3,13.9,3.3,5.9,8.8,9.2,12.3,7.4l-11.9-21.4ZM258,138.7c3.6-1.5,4-7.6.9-13.6-3.1-6-8.6-9.6-12.2-8.1l11.3,21.6ZM245.4,117.6c-3.7,1.4-4.1,7.5-1.1,13.5,3.1,6,8.6,9.7,12.2,8.2l-11.2-21.7ZM253.7,140.4c3.7-1.3,4.3-7.3,1.3-13.3-3-6-8.5-9.8-12.2-8.5l10.9,21.8ZM238.8,119.8c-3.8,1.1-4.6,6.9-1.7,13,2.9,6.1,8.3,10.1,12.1,9l-10.4-22ZM243.1,143.3c4-.8,5-6.5,2.3-12.6-2.7-6.1-8.1-10.4-12.1-9.5l9.8,22.1ZM231.9,121.5c-4,.8-5.1,6.4-2.4,12.5,2.7,6.1,8,10.5,12,9.7l-9.6-22.2ZM238.4,144.2c4-.6,5.2-6.1,2.7-12.3-2.6-6.1-7.9-10.6-12-10l9.3,22.2ZM224.8,122.6c-4.1.4-5.5,5.8-3.1,11.9,2.4,6.2,7.8,10.8,11.9,10.3l-8.8-22.3ZM227,145.3c4.2-.2,5.8-5.3,3.6-11.5-2.3-6.2-7.5-11-11.7-10.8l8.2,22.3ZM217.4,123.1c-4.2.1-5.9,5.2-3.7,11.4,2.2,6.2,7.5,11.1,11.7,11l-8-22.3ZM222,145.4c4.3,0,6.1-5,3.9-11.1-2.1-6.2-7.3-11.2-11.6-11.2l7.7,22.3ZM209.7,123c-4.4-.2-6.3,4.6-4.3,10.8,2,6.2,7.1,11.3,11.5,11.5l-7.2-22.3ZM210.1,144.8c4.4.5,6.6-4.2,4.7-10.3-1.8-6.2-6.9-11.5-11.3-12l6.6,22.3ZM201.9,122.3c-4.5-.5-6.6,4-4.9,10.2,1.8,6.1,6.8,11.5,11.3,12.1l-6.4-22.3ZM204.8,144.1c4.5.6,6.8-3.8,5.1-9.9-1.7-6.1-6.7-11.6-11.2-12.3l6.1,22.2ZM194,121.2c-4.5-.8-7,3.5-5.4,9.6,1.5,6.1,6.5,11.7,11,12.6l-5.6-22.1ZM192.4,141.8c4.6,1.1,7.2-3,5.8-9.1-1.4-6.1-6.2-11.9-10.8-12.9l4.9,22ZM185.9,119.4c-4.6-1.1-7.3,2.9-6,8.9,1.3,6.1,6.1,11.9,10.7,13l-4.8-22ZM187,140.5c4.6,1.2,7.4-2.7,6.2-8.7-1.2-6-6-11.9-10.6-13.2l4.4,21.9ZM177.6,117.2c-4.7-1.4-7.6,2.3-6.5,8.3,1.1,6,5.8,12,10.4,13.4l-4-21.7ZM174.3,136.5c4.7,1.6,7.8-1.8,6.9-7.8-.9-5.9-5.5-12.1-10.2-13.7l3.3,21.5ZM169.3,114.4c-4.7-1.7-7.8,1.7-7,7.7s5.4,12.1,10.1,13.8l-3.1-21.5ZM168.8,134.5c4.7,1.8,7.9-1.5,7.2-7.4-.8-5.9-5.2-12.1-10-14l2.8,21.3ZM160.9,111.1c-4.7-2-8.1,1.1-7.4,7,.6,5.8,5,12.2,9.8,14.2l-2.3-21.2ZM155.8,129c4.8,2.2,8.3-.7,7.8-6.5-.5-5.8-4.7-12.2-9.5-14.4l1.7,20.9ZM152.4,107.4c-4.8-2.3-8.3.6-7.9,6.3.4,5.7,4.6,12.2,9.4,14.5l-1.5-20.8ZM150.2,126.4c4.8,2.4,8.4-.3,8.1-6-.3-5.7-4.5-12.2-9.3-14.6l1.2,20.6ZM143.9,103.1c-4.8-2.5-8.5,0-8.3,5.6.2,5.6,4.2,12.2,9,14.8l-.7-20.4ZM137.2,119.4c4.8,2.7,8.7.4,8.6-5.1,0-5.5-3.9-12.2-8.7-15v20ZM135.6,98.5c-4.8-2.8-8.7-.5-8.7,5,0,5.5,3.9,12.2,8.6,15v-20ZM132.5,116.7c4.8,2.8,8.7.7,8.8-4.8,0-5.5-3.7-12.2-8.5-15.1l-.3,19.8ZM128.8,94.4c-4.8-3-8.8-1-9,4.4s3.5,12.2,8.3,15.2l.7-19.6ZM122.1,110.2c4.8,3.1,8.9,1.3,9.3-4,.3-5.3-3.3-12.2-8.1-15.3l-1.2,19.3ZM113.4,96.4c.2,5.6,4.2,12.2,9,14.8,4.8,2.5,8.5,0,8.3-5.6l-17.3-9.1ZM130.9,109c-.2-5.7-4.3-12.2-9.1-14.7-4.8-2.5-8.5.1-8.2,5.8l17.3,8.9ZM113.8,105.5c.3,5.7,4.4,12.2,9.2,14.6,4.8,2.4,8.4-.3,8.1-6l-17.3-8.6ZM131.6,121c-.4-5.7-4.6-12.2-9.4-14.5-4.8-2.3-8.3.6-7.9,6.3l17.3,8.2ZM114.4,114.6c.4,5.8,4.7,12.2,9.4,14.5,4.8,2.2,8.3-.6,7.8-6.4l-17.3-8.1ZM132,126.2c-.5-5.8-4.7-12.2-9.5-14.4-4.8-2.2-8.2.7-7.7,6.5l17.3,7.9ZM115.2,123.9c.6,5.8,4.9,12.2,9.6,14.3,4.8,2.1,8.2-.9,7.6-6.7l-17.2-7.5ZM133.2,138.4c-.7-5.8-5-12.2-9.8-14.1-4.7-2-8.1,1.2-7.4,7l17.2,7.1ZM116.2,133.3c.7,5.9,5.1,12.2,9.8,14.1,4.7,1.9,8-1.3,7.3-7.1l-17.2-7ZM133.9,144.5c-.7-5.9-5.2-12.2-9.9-14-4.7-1.9-8,1.4-7.2,7.3l17.1,6.7ZM117.7,144.5c.8,5.9,5.3,12.1,10,13.9,4.7,1.8,7.9-1.6,7-7.5l-17.1-6.3ZM136,159.3c-.9-6-5.5-12.1-10.2-13.7-4.7-1.6-7.7,1.9-6.8,7.9l17,5.8ZM119.4,155.8c1,6,5.6,12.1,10.3,13.6,4.7,1.6,7.7-2,6.7-8l-17-5.7ZM137.1,165.7c-1-6-5.7-12-10.3-13.5-4.7-1.5-7.6,2.1-6.6,8.1l16.9,5.4ZM121.3,167.1c1.1,6,5.8,12,10.5,13.4,4.7,1.4,7.5-2.4,6.4-8.4l-16.9-5ZM139.9,180.7c-1.2-6-6-11.9-10.6-13.2-4.6-1.2-7.4,2.7-6.2,8.7l16.8,4.5ZM123.6,178.5c1.3,6.1,6,11.9,10.7,13.1,4.6,1.2,7.3-2.7,6.1-8.8l-16.7-4.3ZM141.3,187.2c-1.3-6.1-6.1-11.9-10.7-13-4.6-1.1-7.3,2.9-6,8.9l16.7,4.1ZM126.1,190c1.4,6.1,6.3,11.8,10.8,12.8,4.6,1,7.2-3.1,5.8-9.2l-16.6-3.7ZM144.8,202.4c-1.5-6.1-6.4-11.8-11-12.6-4.5-.9-7,3.4-5.5,9.5l16.5,3.1ZM128.9,201.6c1.5,6.1,6.5,11.7,11,12.6,4.5.8,7-3.5,5.4-9.6l-16.4-3ZM146.5,208.9c-1.6-6.1-6.6-11.7-11.1-12.4-4.5-.8-6.9,3.6-5.3,9.7l16.4,2.7ZM132,213.2c1.7,6.1,6.7,11.6,11.2,12.3s6.8-3.8,5.1-9.9l-16.3-2.3ZM150.7,224.3c-1.8-6.1-6.8-11.5-11.3-12-4.4-.5-6.6,4.1-4.8,10.2l16.1,1.8ZM135.3,224.8c1.8,6.2,6.9,11.5,11.3,12,4.4.5,6.6-4.2,4.8-10.3l-16.1-1.7ZM152.6,230.9c-1.9-6.2-7-11.5-11.4-11.8-4.4-.4-6.5,4.3-4.6,10.5l16,1.4ZM138.8,236.5c1.9,6.2,7.1,11.4,11.4,11.7,4.4.3,6.4-4.5,4.4-10.7l-15.9-1ZM157.5,246.3c-2-6.2-7.2-11.3-11.5-11.4-4.3-.1-6.2,4.8-4.1,10.9l15.7.5ZM142.6,248.2c2.1,6.2,7.3,11.2,11.6,11.3,4.3,0,6.1-4.8,4.1-11l-15.6-.3ZM159.8,252.9c-2.1-6.2-7.3-11.2-11.6-11.2-4.3,0-6.1,5-3.9,11.1h15.6ZM146.6,259.8c2.2,6.2,7.4,11.1,11.7,11,4.3,0,5.9-5.2,3.7-11.3l-15.4.3ZM165.3,268.3c-2.3-6.2-7.6-11-11.8-10.7-4.2.2-5.8,5.4-3.5,11.6l15.2-.8ZM150.9,271.5c2.3,6.2,7.6,10.9,11.8,10.7,4.2-.3,5.7-5.5,3.4-11.6l-15.2,1ZM167.8,274.9c-2.4-6.2-7.7-10.9-11.8-10.5-4.2.3-5.6,5.6-3.3,11.8l15.1-1.2ZM155.4,283.1c2.4,6.2,7.8,10.8,11.9,10.3,4.1-.4,5.5-5.8,3.1-11.9l-14.9,1.6ZM173.9,290.3c-2.5-6.1-7.9-10.7-11.9-10.1-4.1.6-5.3,6-2.8,12.2l14.7-2.1ZM160.1,294.7c2.5,6.1,7.9,10.6,12,10,4.1-.6,5.3-6.1,2.7-12.2l-14.7,2.2ZM176.6,296.9c-2.6-6.1-8-10.6-12-9.9-4,.7-5.2,6.2-2.6,12.3l14.6-2.5ZM165,306.3c2.7,6.1,8,10.4,12,9.7,4-.8,5.1-6.4,2.4-12.5l-14.4,2.8ZM183.3,312.2c-2.7-6.1-8.2-10.3-12.1-9.4-3.9.9-4.9,6.6-2.1,12.7l14.2-3.3ZM170.2,317.9c2.8,6.1,8.2,10.3,12.1,9.3,3.9-.9,4.8-6.7,2.1-12.7l-14.2,3.4ZM186.3,318.8c-2.8-6.1-8.2-10.2-12.1-9.2-3.9,1-4.8,6.8-1.9,12.8l14.1-3.7ZM175.5,329.3c2.9,6.1,8.3,10.1,12.1,9,3.8-1.1,4.6-6.9,1.8-13l-13.9,4ZM193.5,334c-2.9-6-8.4-9.9-12.2-8.7-3.8,1.2-4.5,7.1-1.5,13.2l13.7-4.5ZM181,340.7c3,6,8.4,9.9,12.2,8.6,3.8-1.3,4.4-7.2,1.4-13.2l-13.6,4.6ZM196.7,340.5c-3-6-8.5-9.8-12.2-8.5-3.7,1.3-4.3,7.3-1.3,13.3l13.5-4.8ZM186.7,352.1c3.1,6,8.5,9.7,12.2,8.3,3.7-1.4,4.2-7.4,1.1-13.4l-13.3,5.1ZM204.4,355.6c-3.1-6-8.6-9.6-12.2-8-3.6,1.5-4,7.6-.9,13.6l13.1-5.6ZM192.5,363.4c3.2,6,8.6,9.5,12.2,8,3.6-1.6,4-7.7.8-13.6l-13.1,5.7ZM207.9,362c-3.2-6-8.7-9.5-12.2-7.8s-3.9,7.8-.7,13.7l13-5.9ZM198.5,374.6c3.2,5.9,8.7,9.3,12.3,7.6,3.5-1.7,3.8-7.9.5-13.8l-12.8,6.2ZM216,376.9c-3.3-5.9-8.8-9.2-12.3-7.4-3.5,1.8-3.6,8.1-.3,14l12.6-6.6ZM204.7,385.7c3.3,5.9,8.8,9.2,12.3,7.3,3.5-1.8,3.6-8.1.2-14l-12.5,6.7ZM219.6,383.2c-3.4-5.9-8.8-9.1-12.3-7.2-3.4,1.9-3.5,8.2-.1,14.1l12.4-6.9ZM211,396.7c3.4,5.8,8.9,9,12.3,7,3.4-2,3.4-8.3,0-14.2l-12.2,7.2ZM228.2,397.9c-3.5-5.8-9-8.8-12.3-6.7-3.3,2.1-3.2,8.5.3,14.3l12-7.6ZM217.5,407.7c3.5,5.8,9,8.8,12.3,6.7,3.3-2.1,3.1-8.5-.3-14.3l-11.9,7.7ZM231.9,404.2c-3.5-5.8-9-8.7-12.3-6.5-3.3,2.2-3.1,8.6.4,14.4l11.8-7.9ZM224.1,418.5c3.5,5.7,9,8.6,12.3,6.3,3.2-2.2,3-8.7-.6-14.5l-11.7,8.1ZM240.9,418.6c-3.6-5.7-9.1-8.4-12.2-6.1-3.2,2.3-2.8,8.9.8,14.6l11.4-8.5ZM230.8,429.2c3.6,5.7,9.1,8.4,12.2,6,3.1-2.4,2.8-8.9-.9-14.6l-11.4,8.6ZM244.8,424.8c-3.6-5.7-9.1-8.3-12.2-5.9-3.1,2.4-2.7,9,1,14.7l11.3-8.8ZM237.7,439.9c3.7,5.6,9.2,8.2,12.2,5.7,3.1-2.5,2.6-9.1-1.1-14.7l-11.1,9ZM254.1,439c-3.7-5.6-9.2-8-12.2-5.5-3,2.6-2.4,9.2,1.3,14.8l10.9-9.4ZM244.7,450.4c3.7,5.6,9.2,8,12.2,5.4,3-2.6,2.4-9.3-1.4-14.8l-10.8,9.4ZM258.2,445c-3.8-5.6-9.2-7.9-12.2-5.3-3,2.7-2.3,9.3,1.5,14.9l10.7-9.6ZM251.7,460.9c3.8,5.5,9.3,7.8,12.2,5.1,2.9-2.7,2.2-9.4-1.6-14.9l-10.5,9.8ZM267.8,459c-3.9-5.5-9.3-7.7-12.1-4.9-2.8,2.8-2,9.5,1.8,15l10.3-10.2ZM258.9,471.2c3.9,5.5,9.3,7.6,12.1,4.8,2.8-2.8,2-9.6-1.9-15l-10.3,10.2ZM272,464.9c-3.9-5.5-9.3-7.6-12.1-4.7-2.8,2.9-1.9,9.6,2,15.1l10.2-10.4ZM266.2,481.4c3.9,5.4,9.3,7.4,12.1,4.5s1.8-9.7-2.1-15.1l-10,10.6ZM281.9,478.6c-4-5.4-9.4-7.3-12.1-4.3-2.7,3-1.7,9.8,2.3,15.2l9.8-10.9ZM273.6,491.5c4,5.4,9.4,7.3,12,4.2,2.7-3,1.6-9.8-2.3-15.2l-9.7,11ZM286.2,484.4c-4-5.3-9.4-7.2-12-4.1-2.7,3.1-1.6,9.9,2.4,15.2l9.6-11.1ZM281.1,501.5c4,5.3,9.4,7.1,12,4,2.6-3.1,1.5-10-2.5-15.3l-9.5,11.3ZM296.4,497.9c-4.1-5.3-9.4-6.9-12-3.7-2.6,3.2-1.3,10.1,2.7,15.3l9.2-11.6ZM283.8,499.7c0,5.5,3.9,12.2,8.7,15,4.8,2.7,8.7.5,8.7-5l-17.3-10ZM301.2,509.7c0-5.5-3.9-12.2-8.7-15-4.8-2.7-8.7-.5-8.7,5l17.3,10ZM283.8,499.9c0,5.5,3.9,12.2,8.7,15,4.8,2.7,8.7.5,8.7-5l-17.3-10ZM301.2,510.1c0-5.5-3.9-12.2-8.7-15-4.8-2.7-8.7-.5-8.7,5l17.3,10ZM297.1,516.2c4.1-.6,5.3-6.1,2.8-12.2-2.5-6.1-7.9-10.6-12-10l9.2,22.2ZM288,494c-4.1.6-5.3,6.1-2.8,12.2,2.5,6.1,7.9,10.6,12,10l-9.2-22.2ZM297.3,516.2c4.1-.6,5.3-6.1,2.7-12.2-2.5-6.1-7.9-10.6-12-10l9.2,22.2ZM288.2,494c-4.1.6-5.3,6.1-2.7,12.2,2.5,6.1,7.9,10.6,12,10l-9.2-22.2ZM288.3,510.9c4.1,5.3,9.4,6.9,12,3.7,2.5-3.2,1.3-10.1-2.7-15.4l-9.2,11.7ZM297.5,499.3c-4.1-5.3-9.4-6.9-12-3.7-2.5,3.2-1.3,10.1,2.7,15.4l9.2-11.7ZM288.4,511.1c4.1,5.3,9.4,6.9,12,3.7,2.5-3.2,1.3-10.1-2.8-15.4l-9.2,11.7ZM297.7,499.5c-4.1-5.3-9.4-6.9-12-3.7-2.5,3.2-1.3,10.1,2.8,15.4l9.2-11.7ZM301.8,510.4c0-5.5-3.9-12.2-8.7-15-4.8-2.7-8.7-.5-8.7,5l17.3,10ZM284.4,500.3c0,5.5,3.9,12.2,8.7,15,4.8,2.7,8.7.5,8.7-5l-17.3-10ZM301.8,510.2c0-5.5-3.9-12.2-8.7-15-4.8-2.7-8.7-.5-8.7,5l17.3,10ZM284.4,500.1c0,5.5,3.9,12.2,8.7,15,4.8,2.7,8.7.5,8.7-5l-17.3-10ZM298.5,516c4.1-.6,5.3-6.1,2.7-12.2-2.6-6.1-7.9-10.6-12-10l9.2,22.2ZM292.1,493.4c-4,.7-5.2,6.2-2.6,12.3,2.6,6.1,7.9,10.6,12,9.9l-9.4-22.2ZM306,514.8c4-.7,5.1-6.3,2.5-12.4s-8-10.5-12-9.8l9.5,22.2ZM302.3,491.5c-4,.8-5,6.4-2.3,12.6s8.1,10.4,12,9.6l-9.7-22.1ZM313.5,513.3c4-.8,5-6.5,2.3-12.6-2.7-6.1-8.1-10.4-12.1-9.5l9.8,22.1ZM306.5,490.6c-3.9.9-4.9,6.6-2.2,12.7,2.7,6.1,8.1,10.3,12.1,9.4l-9.9-22.1ZM320.8,511.6c3.9-1,4.8-6.7,2-12.8-2.8-6.1-8.2-10.3-12.1-9.3l10,22.1ZM316.4,488.1c-3.9,1.1-4.7,6.8-1.9,12.9,2.8,6.1,8.3,10.2,12.1,9.1l-10.3-22ZM328.1,509.7c3.9-1.1,4.7-6.9,1.8-12.9-2.8-6.1-8.3-10.1-12.1-9.1l10.3,22ZM320.6,486.9c-3.8,1.1-4.6,7-1.7,13,2.9,6.1,8.3,10.1,12.1,8.9l-10.4-22ZM335.3,507.6c3.8-1.2,4.5-7.1,1.6-13.1-2.9-6.1-8.4-10-12.2-8.8l10.6,21.9ZM330.1,483.9c-3.7,1.3-4.4,7.2-1.4,13.3,3,6,8.4,9.9,12.2,8.6l-10.8-21.8ZM342.3,505.2c3.7-1.3,4.3-7.3,1.3-13.3-3-6-8.5-9.8-12.2-8.5l10.9,21.8ZM334.2,482.4c-3.7,1.4-4.3,7.4-1.2,13.4,3,6,8.5,9.8,12.2,8.4l-11-21.8ZM349.3,502.6c3.7-1.4,4.2-7.5,1.1-13.5-3.1-6-8.5-9.7-12.2-8.2l11.1,21.7ZM343.4,478.8c-3.6,1.5-4,7.6-.9,13.6,3.1,6,8.6,9.6,12.2,8l-11.4-21.6ZM356.1,499.8c3.6-1.6,4-7.7.8-13.6-3.2-6-8.6-9.5-12.2-8l11.4,21.6ZM347.3,477.1c-3.6,1.6-3.9,7.8-.7,13.7,3.2,6,8.7,9.5,12.2,7.8l-11.5-21.6ZM362.8,496.7c3.5-1.7,3.8-7.9.5-13.8-3.2-5.9-8.7-9.4-12.3-7.7l11.7,21.5ZM356.2,472.7c-3.5,1.8-3.6,8.1-.3,13.9,3.3,5.9,8.8,9.2,12.3,7.4l-11.9-21.4ZM369.4,493.4c3.5-1.8,3.6-8.1.3-14s-8.8-9.2-12.3-7.3l12,21.3ZM359.9,470.8c-3.4,1.9-3.5,8.2-.2,14,3.3,5.9,8.8,9.1,12.3,7.2l-12.1-21.3ZM375.8,489.9c3.4-2,3.4-8.3,0-14.1-3.4-5.8-8.9-9-12.3-7l12.3,21.2ZM368.4,465.8c-3.3,2.1-3.2,8.5.2,14.3,3.5,5.8,8.9,8.8,12.3,6.8l-12.5-21ZM382.1,486c3.3-2.1,3.2-8.5-.3-14.3-3.5-5.8-9-8.8-12.3-6.7l12.6,21ZM371.9,463.5c-3.3,2.2-3.1,8.6.4,14.4,3.5,5.8,9,8.7,12.3,6.6l-12.7-20.9ZM388.3,481.9c3.2-2.2,3-8.7-.6-14.5-3.5-5.7-9-8.6-12.3-6.3l12.8,20.8ZM380,457.8c-3.2,2.4-2.8,8.9.8,14.6,3.6,5.7,9.1,8.4,12.2,6.1l-13.1-20.6ZM394.3,477.6c3.1-2.4,2.7-8.9-.9-14.6-3.6-5.7-9.1-8.4-12.2-6l13.1,20.6ZM383.4,455.3c-3.1,2.4-2.6,9,1,14.7,3.7,5.7,9.1,8.3,12.2,5.8l-13.2-20.5ZM400.1,473c3-2.5,2.5-9.1-1.2-14.8-3.7-5.6-9.2-8.1-12.2-5.6l13.4,20.4ZM391,448.9c-3,2.6-2.3,9.3,1.4,14.9,3.8,5.6,9.2,8,12.2,5.3l-13.6-20.2ZM405.7,468.1c2.9-2.7,2.3-9.3-1.5-14.9-3.8-5.6-9.2-7.9-12.2-5.2l13.7,20.1ZM394.2,446c-2.9,2.7-2.2,9.4,1.6,15,3.8,5.5,9.3,7.8,12.2,5.1l-13.8-20ZM411.2,462.9c2.8-2.8,2-9.5-1.8-15-3.9-5.5-9.3-7.7-12.1-4.9l14,19.9ZM401.3,438.9c-2.8,2.9-1.8,9.7,2.1,15.1,3.9,5.4,9.3,7.5,12.1,4.5l-14.2-19.7ZM416.5,457.5c2.7-3,1.8-9.7-2.1-15.2-3.9-5.4-9.3-7.4-12.1-4.5l14.2,19.6ZM404.2,435.7c-2.7,3-1.7,9.8,2.3,15.2,4,5.4,9.4,7.3,12.1,4.3l-14.3-19.5ZM421.6,451.8c2.6-3.1,1.5-9.9-2.5-15.3-4-5.3-9.4-7.1-12-4l14.5,19.3ZM410.8,427.9c-2.5,3.2-1.3,10.1,2.7,15.4,4.1,5.3,9.4,6.9,12,3.7l-14.7-19.1ZM426.4,445.8c2.5-3.2,1.3-10.1-2.8-15.4-4.1-5.2-9.4-6.9-11.9-3.6l14.7,19ZM413.5,424.4c-2.5,3.3-1.2,10.2,2.9,15.4,4.1,5.2,9.4,6.8,11.9,3.5l-14.8-18.9ZM431.1,439.5c2.4-3.4,1-10.3-3.1-15.5-4.1-5.2-9.5-6.6-11.9-3.2l15,18.7ZM419.5,415.9c-2.3,3.5-.8,10.5,3.4,15.5,4.2,5.1,9.5,6.3,11.8,2.8l-15.2-18.4ZM435.6,433c2.3-3.5.7-10.5-3.5-15.6-4.2-5.1-9.5-6.3-11.8-2.8l15.2,18.3ZM421.9,412.1c-2.2,3.6-.6,10.6,3.6,15.6,4.2,5,9.5,6.2,11.7,2.6l-15.3-18.2ZM439.8,426.2c2.2-3.7.5-10.7-3.8-15.6s-9.5-6-11.7-2.3l15.5,17.9ZM427.3,402.9c-2.1,3.8-.2,10.8,4.1,15.7,4.3,4.9,9.5,5.7,11.6,1.9l-15.6-17.6ZM443.8,419.1c2-3.8.2-10.8-4.1-15.7-4.3-4.8-9.5-5.7-11.5-1.8l15.7,17.5ZM429.5,398.8c-2,3.9,0,10.9,4.3,15.7,4.4,4.8,9.5,5.5,11.5,1.7l-15.8-17.4ZM447.5,411.7c1.9-4,0-11-4.5-15.7-4.4-4.7-9.5-5.3-11.4-1.4l15.9,17.1ZM434.3,388.8c-1.8,4.1.3,11.1,4.8,15.8,4.4,4.6,9.5,5.1,11.3,1l-16.1-16.8ZM451,404.1c1.8-4.1-.4-11.2-4.8-15.8-4.4-4.6-9.5-5-11.3-.9l16.1,16.7ZM436.2,384.4c-1.7,4.2.5,11.2,5,15.8,4.5,4.6,9.5,4.9,11.2.7l-16.2-16.5ZM454.3,396.2c1.7-4.2-.7-11.3-5.2-15.8-4.5-4.5-9.5-4.7-11.1-.4l16.3,16.2ZM440.3,373.8c-1.5,4.3.9,11.4,5.4,15.8,4.5,4.4,9.5,4.4,11,0l-16.4-15.9ZM457.3,388c1.5-4.4-.9-11.4-5.5-15.8-4.5-4.4-9.5-4.3-11,0l16.5,15.8ZM441.9,369.1c-1.5,4.4,1.1,11.5,5.6,15.8s9.4,4.2,10.9-.2l-16.5-15.6ZM460,379.6c1.4-4.5-1.2-11.6-5.8-15.8-4.6-4.2-9.4-4-10.8.5l16.6,15.3ZM445.3,357.8c-1.3,4.6,1.5,11.7,6.1,15.8,4.6,4.1,9.4,3.7,10.7-.9l-16.7-14.9ZM462.5,370.9c1.2-4.6-1.5-11.7-6.2-15.8-4.6-4.1-9.4-3.6-10.6,1l16.8,14.8ZM446.6,352.9c-1.2,4.7,1.6,11.7,6.3,15.8,4.6,4,9.4,3.5,10.5-1.2l-16.8-14.5ZM464.7,362c1.1-4.8-1.8-11.8-6.5-15.7-4.7-3.9-9.3-3.3-10.4,1.5l16.9,14.2ZM449.2,341c-1,4.8,2,11.9,6.7,15.7,4.7,3.8,9.3,3,10.3-1.9l-17-13.8ZM466.6,352.9c.9-4.9-2.1-11.9-6.8-15.7-4.7-3.8-9.3-2.9-10.2,2l17,13.7ZM450.2,335.7c-.9,4.9,2.2,11.9,6.9,15.6,4.7,3.7,9.2,2.8,10.1-2.2l-17-13.5ZM468.2,343.6c.8-5-2.4-12-7.1-15.6-4.7-3.6-9.2-2.5-10,2.5l17.1,13.2ZM452.2,323.3c-.7,5.1,2.6,12,7.3,15.5,4.7,3.5,9.1,2.2,9.8-2.8l-17.2-12.7ZM469.6,334.2c.7-5.1-2.7-12-7.4-15.5-4.7-3.5-9.1-2.2-9.8,2.9l17.2,12.6ZM452.8,318.5c-.6,5.1,2.8,12.1,7.5,15.5s9.1,2,9.7-3.1l-17.2-12.4ZM470.6,326c.5-5.2-2.9-12.1-7.7-15.4s-9.1-1.9-9.6,3.3l17.2,12.1ZM453.9,307.6c-.4,5.2,3.1,12.1,7.8,15.4s9,1.6,9.4-3.6l-17.3-11.7ZM471.3,317.6c.4-5.3-3.1-12.1-7.9-15.4-4.8-3.2-9-1.6-9.4,3.7l17.3,11.6ZM454.3,302.8c-.4,5.3,3.2,12.2,8,15.3,4.8,3.2,8.9,1.4,9.3-3.9l-17.3-11.4ZM471.9,309.2c.3-5.3-3.3-12.2-8.1-15.3-4.8-3.1-8.9-1.2-9.2,4.1l17.3,11.2ZM454.9,291.5c-.2,5.4,3.5,12.2,8.3,15.2,4.8,3,8.8,1,9-4.4l-17.3-10.8ZM462.2,285.4c-4.8-2.4-8.4.4-8,6.1.3,5.7,4.5,12.2,9.3,14.6l-1.2-20.6ZM460.5,304.6c4.8,2.4,8.4-.2,8.2-5.8-.3-5.7-4.4-12.2-9.1-14.7l1,20.5ZM455.5,281.9c-4.8-2.6-8.5,0-8.4,5.5.2,5.6,4.2,12.2,9,14.8l-.6-20.3ZM450.1,298.9c4.8,2.7,8.7.5,8.6-5.1,0-5.5-3.9-12.2-8.7-15v20ZM448.5,278c-4.8-2.8-8.7-.6-8.7,5,0,5.5,3.8,12.2,8.6,15v-20ZM444.7,295.8c4.8,2.9,8.8.8,8.9-4.7.1-5.5-3.7-12.2-8.5-15.1l-.4,19.8ZM440,272.9c-4.8-3-8.9-1.1-9.1,4.3s3.4,12.2,8.2,15.2l.9-19.5ZM431.6,287.5c4.8,3.2,9,1.6,9.4-3.7.4-5.3-3.1-12.1-7.9-15.4l-1.5,19.1ZM431.5,267.3c-4.8-3.3-9-1.7-9.5,3.6-.5,5.2,3,12.1,7.8,15.4l1.7-18.9ZM426.1,283.6c4.8,3.4,9.1,1.9,9.6-3.3s-2.9-12.1-7.6-15.5l-2,18.7ZM423,261.3c-4.7-3.5-9.1-2.2-9.8,2.8-.7,5.1,2.6,12,7.3,15.5l2.5-18.4ZM413.1,274c4.7,3.7,9.2,2.7,10.1-2.2.9-4.9-2.2-11.9-7-15.6l-3.1,17.9ZM414.6,254.8c-4.7-3.7-9.3-2.8-10.2,2.1-.9,4.9,2.2,11.9,6.9,15.7l3.3-17.7ZM407.7,269.6c4.7,3.8,9.3,3,10.3-1.8,1-4.8-2-11.9-6.7-15.7l-3.6,17.5ZM406.3,247.9c-4.7-4-9.3-3.4-10.5,1.3-1.1,4.7,1.7,11.8,6.4,15.7l4.1-17.1ZM395,258.7c4.6,4.2,9.4,3.8,10.7-.7s-1.3-11.6-6-15.8l-4.8,16.5ZM398.1,240.7c-4.6-4.2-9.4-4-10.8.6-1.4,4.5,1.3,11.6,5.8,15.8l4.9-16.3ZM389.6,253.7c4.6,4.3,9.4,4.2,10.9-.2,1.5-4.4-1.1-11.5-5.6-15.8l-5.3,16ZM390,233c-4.5-4.4-9.5-4.5-11.1-.2-1.6,4.3.8,11.4,5.3,15.8l5.7-15.6ZM377.3,241.6c4.5,4.6,9.5,5,11.3.9,1.8-4.1-.4-11.2-4.9-15.8l-6.4,14.9ZM382.1,225c-4.4-4.6-9.5-5.1-11.3-1-1.8,4.1.3,11.1,4.7,15.8l6.6-14.8ZM372.1,236.1c4.4,4.7,9.5,5.3,11.4,1.3,1.9-4-.1-11-4.5-15.7l-6.9,14.4ZM374.3,216.6c-4.3-4.8-9.5-5.6-11.5-1.8-2,3.8-.2,10.9,4.2,15.7l7.4-13.9ZM360.2,222.8c4.2,5,9.5,6.1,11.7,2.5,2.2-3.6.6-10.6-3.7-15.6l-8,13.1ZM366.7,207.9c-4.2-5-9.5-6.2-11.7-2.6-2.3,3.6-.7,10.5,3.6,15.6l8.2-12.9ZM355.3,216.9c4.2,5.1,9.5,6.4,11.8,3,2.3-3.5.9-10.4-3.3-15.5l-8.5,12.6ZM359.4,198.9c-4.1-5.2-9.4-6.8-11.9-3.5-2.5,3.3-1.2,10.2,2.9,15.4l9-12ZM344.1,202.5c4,5.3,9.4,7.2,12,4.1,2.7-3.1,1.6-9.9-2.4-15.2l-9.6,11.1ZM352.3,189.5c-4-5.4-9.4-7.3-12.1-4.3-2.7,3-1.7,9.8,2.3,15.2l9.8-10.9ZM339.4,196.2c3.9,5.4,9.3,7.5,12.1,4.6,2.8-2.9,1.9-9.7-2-15.1l-10.1,10.5ZM345.4,179.9c-3.8-5.5-9.2-7.8-12.2-5.1-2.9,2.7-2.2,9.4,1.6,14.9l10.5-9.8ZM329,180.9c3.7,5.7,9.1,8.2,12.2,5.8,3.1-2.5,2.6-9-1.1-14.7l-11.2,8.9ZM338.9,170c-3.6-5.7-9.1-8.4-12.2-6-3.1,2.4-2.7,8.9.9,14.6l11.3-8.7ZM324.7,174.2c3.6,5.7,9,8.6,12.3,6.3,3.2-2.3,2.9-8.7-.6-14.5l-11.6,8.2ZM332.7,159.9c-3.4-5.8-8.9-8.9-12.3-6.8-3.3,2.1-3.2,8.4.2,14.3l12.1-7.4ZM315.3,158.1c3.3,5.9,8.8,9.3,12.3,7.5,3.5-1.8,3.7-8,.4-13.9l-12.7,6.4ZM326.8,149.6c-3.2-5.9-8.7-9.4-12.3-7.7-3.5,1.7-3.8,7.9-.5,13.8l12.8-6.2ZM311.5,151.1c3.1,6,8.6,9.5,12.2,8,3.6-1.6,4-7.7.8-13.6l-13.1,5.6ZM321.3,139.1c-3-6-8.5-9.8-12.2-8.5-3.7,1.3-4.3,7.3-1.3,13.3l13.5-4.8ZM303.2,134.4c2.8,6.1,8.2,10.2,12.1,9.2,3.9-1,4.7-6.8,1.9-12.9l-14,3.7ZM316.3,128.6c-2.8-6.1-8.2-10.3-12.1-9.3-3.9.9-4.8,6.6-2.1,12.7l14.2-3.4ZM300,127.1c2.7,6.1,8,10.4,12,9.7,4-.8,5.1-6.4,2.4-12.5l-14.4,2.8ZM311.7,117.9c-2.5-6.1-7.8-10.7-11.9-10.2-4.1.5-5.4,6-2.9,12.1l14.8-2ZM293.1,110.1c2.3,6.2,7.5,11,11.8,10.8,4.2-.2,5.8-5.4,3.5-11.5l-15.3.7ZM307.6,107.2c-2.2-6.2-7.5-11.1-11.7-10.9-4.2.1-5.9,5.2-3.7,11.4l15.4-.4ZM290.5,102.7c2.1,6.2,7.3,11.2,11.6,11.3,4.3,0,6.1-4.9,4-11.1l-15.6-.2ZM304,96.5c-1.9-6.2-7-11.4-11.4-11.7-4.4-.3-6.4,4.4-4.5,10.6l15.9,1.1ZM285.3,85.5c1.7,6.1,6.7,11.6,11.1,12.3,4.5.7,6.8-3.8,5.1-9.9l-16.3-2.4ZM301.8,90.5c0-5.5-3.9-12.2-8.7-15-4.8-2.7-8.7-.5-8.7,5l17.3,9.9ZM284.4,80.3c0,5.5,3.9,12.2,8.7,15,4.8,2.7,8.7.5,8.7-5l-17.3-9.9ZM301.8,89.8c0-5.5-3.9-12.2-8.7-15-4.8-2.7-8.7-.5-8.7,5l17.3,9.9ZM284.4,79.4c0,5.5,3.9,12.2,8.7,15,4.8,2.7,8.7.5,8.7-5l-17.3-9.9ZM299.8,81.7h0s-13.3,5.1-13.3,5.1h0s13.3-5.1,13.3-5.1ZM299.7,81.6h0c0,0-13.3,5.1-13.3,5.1h0c0,0,13.3-5.1,13.3-5.1ZM299.6,81.4h0s-13.3,5.1-13.3,5.1h0s13.3-5.1,13.3-5.1ZM284.8,76s0,0,0,0l16.4,16s0,0,0,0l-16.4-16ZM284.7,76.1s0,0,0,.1l16.4,16s0,0,0-.1l-16.4-16ZM284.6,76.4s0,0,0,0l16.4,16.1s0,0,0,0l-16.4-16.1ZM301,85.8s0,0,0,0l-16.4-2.7s0,0,0,0l16.4,2.7ZM300.9,85.7c0,0,0-.1,0-.2l-16.4-2.8c0,0,0,.1,0,.2l16.4,2.7ZM300.8,85.3s0,0,0,0l-16.4-2.8s0,0,0,0l16.4,2.8ZM286,73.7h0s13.3,20.4,13.3,20.4h0s-13.3-20.4-13.3-20.4ZM285.9,73.7h0s13.3,20.5,13.3,20.5h0s-13.3-20.5-13.3-20.5ZM285.8,73.8h0s13.3,20.4,13.3,20.4h0s-13.3-20.4-13.3-20.4ZM283.8,79h0c0,0,17.3,10,17.3,10h0c0,0-17.3-10-17.3-10ZM283.8,79.3v.4l17.3,9.9v-.4l-17.3-10ZM283.8,80.2h0c0,0,17.3,10,17.3,10h0c0,0-17.3-10-17.3-10ZM284.3,77.1c0,.2-.2.5-.3.7l16.3,16.3c.1-.3.2-.6.3-.8l-16.3-16.2ZM282.9,80.7c-.6,1.4-1.3,2.8-2,4.2l15.8,17.3c.8-1.6,1.5-3.1,2.3-4.8l-16.1-16.7ZM278,90.1c-.3.4-.5.8-.8,1.2l15.3,18.3c.3-.5.6-.9.9-1.4l-15.4-18.1ZM275.6,93.8c-.8,1.2-1.7,2.3-2.6,3.5l14.7,19.1c1-1.3,2-2.6,2.9-3.9l-15-18.6ZM269.3,101.5c-.3.3-.6.7-1,1l14,19.8c.4-.4.7-.8,1.1-1.1l-14.2-19.7ZM266.3,104.5c-1,.9-2.1,1.9-3.1,2.7l13.4,20.4c1.2-1,2.4-2,3.5-3.1l-13.8-20.1ZM258.8,110.5c-.4.3-.8.5-1.1.8l12.7,20.9c.4-.3.9-.6,1.3-.9l-12.8-20.8ZM255.3,112.7c-1.2.7-2.4,1.4-3.6,2l11.9,21.4c1.4-.7,2.7-1.5,4-2.2l-12.4-21.1ZM246.7,117.1c-.4.2-.9.4-1.3.5l11.2,21.7c.5-.2,1-.4,1.4-.6l-11.3-21.6ZM242.8,118.6c-1.3.5-2.6.9-4,1.3l10.4,22c1.5-.4,3-.9,4.5-1.4l-10.9-21.8ZM233.3,121.2c-.5,0-.9.2-1.4.3l9.6,22.2c.5-.1,1-.2,1.6-.3l-9.8-22.1ZM229.1,122c-1.4.2-2.9.4-4.3.6l8.8,22.3c1.6-.2,3.2-.4,4.8-.6l-9.3-22.2ZM218.9,123c-.5,0-1,0-1.5,0l8,22.3c.6,0,1.1,0,1.7,0l-8.2-22.3ZM214.3,123.1c-1.5,0-3,0-4.6-.1l7.2,22.3c1.7,0,3.4.1,5.1.1l-7.7-22.3ZM203.5,122.5c-.5,0-1-.1-1.6-.2l6.4,22.3c.6,0,1.2.1,1.7.2l-6.6-22.3ZM198.8,121.9c-1.6-.2-3.2-.5-4.8-.8l5.6,22.1c1.8.3,3.5.6,5.3.9l-6.1-22.2ZM187.5,119.8c-.5-.1-1.1-.3-1.6-.4l4.8,22c.6.1,1.2.3,1.8.4l-4.9-22ZM182.6,118.6c-1.6-.4-3.3-.9-4.9-1.4l4,21.7c1.8.6,3.6,1.1,5.4,1.6l-4.4-21.9ZM171,115c-.6-.2-1.1-.4-1.7-.6l3.1,21.5c.6.2,1.2.4,1.8.7l-3.3-21.5ZM166,113.2c-1.7-.6-3.4-1.3-5.1-2l2.3,21.2c1.9.8,3.7,1.5,5.5,2.2l-2.8-21.3ZM154.1,108.2c-.6-.3-1.1-.5-1.7-.8l1.5,20.8c.6.3,1.2.6,1.9.9l-1.7-20.9ZM149,105.7c-1.7-.8-3.4-1.7-5.1-2.6l.7,20.4c1.9,1,3.7,1.9,5.6,2.8l-1.2-20.6ZM137.1,99.4c-.3-.2-.6-.3-.9-.5v20c.3.2.6.4.9.5v-20ZM136.3,98.9c-.2-.1-.5-.3-.7-.4v20c.2.1.4.3.7.4v-20ZM132.9,96.9c-1.4-.8-2.7-1.6-4.1-2.5l-.7,19.6c1.5.9,3,1.8,4.5,2.7l.3-19.8ZM123.4,91c-.2-.1-.5-.3-.7-.4l-1.3,19.2c.2.2.5.3.7.5l1.2-19.3ZM113.4,95.6c0,.3,0,.6,0,.9l17.3,9.1c0-.3,0-.6,0-.8l-17.3-9.2ZM113.5,100.1c0,1.8.2,3.6.3,5.4l17.3,8.6c0-1.7-.2-3.4-.3-5.1l-17.3-8.9ZM114.3,112.8c0,.6,0,1.2.1,1.8l17.3,8.1c0-.6,0-1.2-.1-1.7l-17.3-8.2ZM114.7,118.3c.2,1.8.3,3.7.5,5.5l17.2,7.5c-.2-1.7-.3-3.5-.5-5.2l-17.3-7.9ZM116,131.3c0,.3,0,.6.1.9l17.2,7.1c0-.3,0-.6-.1-.9l-17.2-7.1ZM116.1,132.2c0,.4,0,.7.1,1.1l17.2,7c0-.3,0-.7-.1-1l-17.2-7.1ZM116.8,137.8c.3,2.2.6,4.5.9,6.7l17.1,6.3c-.3-2.1-.6-4.2-.8-6.3l-17.1-6.7ZM119,153.5c.1.8.2,1.5.4,2.3l17,5.7c-.1-.7-.2-1.4-.3-2.1l-17-5.8ZM120.1,160.3c.4,2.3.8,4.5,1.2,6.8l16.9,5c-.4-2.1-.8-4.3-1.1-6.4l-16.9-5.4ZM123.1,176.2c.2.8.3,1.5.5,2.3l16.7,4.3c-.2-.7-.3-1.4-.4-2.2l-16.8-4.5ZM124.6,183.1c.5,2.3,1,4.6,1.5,6.9l16.6,3.7c-.5-2.2-1-4.3-1.5-6.5l-16.7-4.1ZM128.3,199.3c.2.8.4,1.5.6,2.3l16.4,3c-.2-.7-.4-1.5-.5-2.2l-16.5-3.1ZM130.1,206.2c.6,2.3,1.2,4.6,1.9,7l16.3,2.3c-.6-2.2-1.2-4.4-1.8-6.6l-16.4-2.7ZM134.6,222.5c.2.8.5,1.6.7,2.3l16.1,1.7c-.2-.7-.4-1.5-.6-2.2l-16.1-1.8ZM136.6,229.5c.7,2.3,1.4,4.7,2.2,7l15.9,1c-.7-2.2-1.4-4.4-2-6.6l-16-1.4ZM141.8,245.8c.3.8.5,1.6.8,2.3l15.6.3c-.2-.7-.5-1.5-.7-2.2l-15.7-.5ZM144.2,252.8c.8,2.3,1.6,4.7,2.5,7l15.4-.3c-.8-2.2-1.6-4.4-2.3-6.6h-15.6ZM150,269.2c.3.8.6,1.6.9,2.3l15.2-1c-.3-.7-.6-1.5-.8-2.2l-15.2.8ZM152.7,276.1c.9,2.3,1.8,4.7,2.7,7l14.9-1.6c-.9-2.2-1.7-4.4-2.6-6.6l-15.1,1.2ZM159.2,292.4c.3.8.6,1.5,1,2.3l14.7-2.2c-.3-.7-.6-1.5-.9-2.2l-14.7,2.1ZM162.1,299.4c1,2.3,2,4.6,3,6.9l14.4-2.8c-1-2.2-1.9-4.4-2.8-6.6l-14.6,2.5ZM169.1,315.5c.3.8.7,1.5,1,2.3l14.2-3.4c-.3-.7-.7-1.5-1-2.2l-14.2,3.3ZM172.3,322.4c1.1,2.3,2.1,4.6,3.2,6.9l13.9-4c-1-2.2-2-4.4-3.1-6.5l-14.1,3.7ZM179.9,338.5c.4.8.7,1.5,1.1,2.3l13.6-4.6c-.4-.7-.7-1.4-1.1-2.2l-13.7,4.5ZM183.2,345.3c1.1,2.3,2.3,4.5,3.4,6.8l13.3-5.1c-1.1-2.2-2.2-4.3-3.3-6.5l-13.5,4.8ZM191.3,361.1c.4.8.8,1.5,1.2,2.3l13.1-5.7c-.4-.7-.8-1.4-1.1-2.1l-13.1,5.6ZM194.9,367.9c1.2,2.2,2.4,4.5,3.6,6.7l12.8-6.2c-1.2-2.1-2.3-4.3-3.5-6.4l-13,5.9ZM203.5,383.5c.4.7.8,1.5,1.2,2.2l12.5-6.7c-.4-.7-.8-1.4-1.2-2.1l-12.6,6.6ZM207.2,390.1c1.3,2.2,2.5,4.4,3.8,6.6l12.2-7.2c-1.2-2.1-2.4-4.2-3.6-6.3l-12.4,6.9ZM216.2,405.5c.4.7.9,1.5,1.3,2.2l11.9-7.7c-.4-.7-.8-1.4-1.2-2.1l-12,7.6ZM220.1,412c1.3,2.2,2.6,4.3,4,6.5l11.7-8.1c-1.3-2.1-2.5-4.1-3.8-6.2l-11.8,7.9ZM229.5,427.1c.5.7.9,1.4,1.4,2.1l11.4-8.6c-.4-.7-.9-1.4-1.3-2l-11.4,8.5ZM233.6,433.5c1.4,2.1,2.7,4.3,4.1,6.4l11.1-9c-1.3-2-2.7-4.1-4-6.1l-11.3,8.8ZM243.3,448.3c.5.7.9,1.4,1.4,2.1l10.8-9.4c-.5-.7-.9-1.4-1.4-2l-10.9,9.4ZM247.5,454.6c1.4,2.1,2.8,4.2,4.3,6.3l10.5-9.8c-1.4-2-2.7-4-4.1-6l-10.7,9.6ZM257.5,469.1c.5.7,1,1.4,1.4,2.1l10.3-10.2c-.5-.7-.9-1.3-1.4-2l-10.3,10.2ZM261.8,475.3c1.4,2,2.9,4.1,4.4,6.1l10-10.6c-1.4-2-2.8-3.9-4.2-5.9l-10.2,10.4ZM272.1,489.5c.5.7,1,1.3,1.5,2l9.7-11c-.5-.6-1-1.3-1.4-1.9l-9.8,10.9ZM276.6,495.6c1.5,2,3,4,4.5,6l9.5-11.3c-1.5-1.9-2.9-3.9-4.3-5.8l-9.6,11.1ZM287.1,509.5c.3.3.5.7.8,1l9.2-11.7c-.2-.3-.5-.6-.7-1l-9.2,11.6ZM283.8,499.7h0s17.3,10,17.3,10h0s-17.3-10-17.3-10ZM283.8,499.8h0c0,.1,17.3,10.1,17.3,10.1h0c0-.1-17.3-10.1-17.3-10.1ZM283.8,500.1h0s17.3,10,17.3,10h0s-17.3-10-17.3-10ZM297.1,516.3s0,0,0,0l-9.2-22.2s0,0,0,0l9.2,22.2ZM297.2,516.2s0,0,.1,0l-9.2-22.2h-.1s9.2,22.2,9.2,22.2ZM297.4,516.2s0,0,0,0l-9.2-22.2s0,0,0,0l9.2,22.2ZM288.2,510.9h0s9.2-11.7,9.2-11.7c0,0,0,0,0,0l-9.2,11.7ZM288.3,511s0,0,0,0l9.2-11.7s0,0,0,0l-9.2,11.7ZM288.5,511.2s0,0,0,0l9.2-11.7h0s-9.2,11.7-9.2,11.7ZM301.8,510.4h0s-17.3-10-17.3-10h0s17.3,10,17.3,10ZM301.8,510.3h0c0-.1-17.3-10.1-17.3-10.1h0c0,.1,17.3,10.1,17.3,10.1ZM301.8,510h0s-17.3-10-17.3-10h0s17.3,10,17.3,10ZM297.7,516.2c.3,0,.5,0,.8-.1l-9.2-22.2c-.2,0-.5,0-.7.1l9.2,22.2ZM301.5,515.6c1.5-.2,3-.5,4.5-.8l-9.5-22.2c-1.4.3-2.9.5-4.4.8l9.4,22.2ZM312,513.6c.5-.1,1-.2,1.5-.3l-9.8-22.1c-.5.1-1,.2-1.4.3l9.7,22.1ZM316.4,512.7c1.5-.3,3-.7,4.4-1l-10-22.1c-1.4.3-2.8.7-4.3,1l9.9,22.1ZM326.7,510.1c.5-.1,1-.3,1.4-.4l-10.3-22c-.5.1-.9.3-1.4.4l10.3,22ZM331,508.9c1.4-.4,2.9-.9,4.3-1.3l-10.6-21.9c-1.4.4-2.7.8-4.1,1.3l10.4,22ZM340.9,505.7c.5-.2.9-.3,1.4-.5l-10.9-21.8c-.5.2-.9.3-1.4.5l10.8,21.8ZM345.1,504.2c1.4-.5,2.8-1,4.1-1.6l-11.1-21.7c-1.3.5-2.6,1-4,1.5l11,21.8ZM354.8,500.4c.5-.2.9-.4,1.4-.6l-11.4-21.6c-.4.2-.9.4-1.3.6l11.4,21.6ZM358.8,498.6c1.3-.6,2.7-1.2,4-1.9l-11.7-21.5c-1.3.6-2.5,1.2-3.8,1.8l11.5,21.6ZM368.1,494.1c.4-.2.9-.5,1.3-.7l-12-21.3c-.4.2-.8.4-1.2.7l11.9,21.4ZM372,492c1.3-.7,2.6-1.4,3.9-2.2l-12.3-21.2c-1.2.7-2.4,1.4-3.7,2.1l12.1,21.3ZM380.9,486.8c.4-.3.8-.5,1.2-.8l-12.6-21c-.4.3-.8.5-1.2.8l12.5,21ZM384.6,484.4c1.2-.8,2.5-1.6,3.7-2.5l-12.8-20.8c-1.2.8-2.3,1.6-3.5,2.4l12.7,20.9ZM393.1,478.5c.4-.3.8-.6,1.2-.9l-13.1-20.6c-.4.3-.8.6-1.1.9l13.1,20.6ZM396.6,475.8c1.2-.9,2.3-1.9,3.5-2.8l-13.4-20.4c-1.1.9-2.2,1.8-3.3,2.7l13.2,20.5ZM404.6,469.1c.4-.3.7-.7,1.1-1l-13.7-20.1c-.4.3-.7.6-1.1,1l13.6,20.2ZM407.9,466.1c1.1-1,2.2-2.1,3.3-3.1l-14-19.9c-1,1-2,2-3.1,3l13.8,20ZM415.4,458.6c.3-.4.7-.7,1-1.1l-14.2-19.6c-.3.4-.7.7-1,1.1l14.2,19.7ZM418.5,455.2c1-1.1,2-2.3,3-3.5l-14.5-19.3c-.9,1.1-1.9,2.2-2.9,3.3l14.3,19.5ZM425.5,447c.3-.4.6-.8,1-1.2l-14.7-19c-.3.4-.6.8-.9,1.2l14.7,19.1ZM428.3,443.3c.9-1.2,1.9-2.5,2.8-3.8l-15-18.7c-.9,1.2-1.7,2.4-2.6,3.6l14.8,18.9ZM434.7,434.3c.3-.4.6-.9.9-1.3l-15.2-18.3c-.3.4-.5.8-.8,1.3l15.2,18.4ZM437.3,430.3c.8-1.4,1.7-2.7,2.5-4.1l-15.5-17.9c-.8,1.3-1.6,2.6-2.4,3.9l15.3,18.2ZM443,420.5c.3-.5.5-1,.8-1.4l-15.7-17.5c-.2.5-.5.9-.7,1.4l15.6,17.6ZM445.3,416.1c.8-1.5,1.5-3,2.2-4.4l-15.9-17.1c-.7,1.4-1.4,2.8-2.1,4.2l15.8,17.4ZM450.3,405.6c.2-.5.5-1,.7-1.5l-16.1-16.7c-.2.5-.4,1-.6,1.5l16.1,16.8ZM452.3,400.9c.7-1.6,1.3-3.2,1.9-4.8l-16.3-16.2c-.6,1.5-1.2,3-1.8,4.5l16.2,16.5ZM456.7,389.6c.2-.5.4-1.1.6-1.7l-16.5-15.8c-.2.5-.4,1-.5,1.6l16.4,15.9ZM458.4,384.7c.6-1.7,1.1-3.4,1.6-5.1l-16.6-15.3c-.5,1.6-1,3.2-1.5,4.8l16.5,15.6ZM462,372.7c.2-.6.3-1.2.5-1.8l-16.8-14.8c-.1.5-.3,1.1-.4,1.6l16.7,14.9ZM463.4,367.4c.4-1.8.9-3.6,1.3-5.4l-16.9-14.2c-.4,1.7-.8,3.4-1.2,5l16.8,14.5ZM466.2,354.8c.1-.6.2-1.2.4-1.8l-17-13.7c-.1.6-.2,1.2-.3,1.7l17,13.8ZM467.3,349.2c.3-1.9.7-3.7,1-5.6l-17.1-13.2c-.3,1.8-.6,3.5-.9,5.3l17,13.5ZM469.4,336c0-.3,0-.6.1-1l-17.2-12.6c0,.3,0,.6-.1.9l17.2,12.7ZM469.5,335c0-.3,0-.5.1-.8l-17.2-12.6c0,.3,0,.5,0,.8l17.2,12.6ZM470,330.9c.2-1.6.4-3.3.5-4.9l-17.2-12.1c-.2,1.6-.3,3.1-.5,4.7l17.2,12.4ZM471.2,319.3c0-.6,0-1.1.1-1.7l-17.3-11.6c0,.5,0,1.1-.1,1.6l17.3,11.7ZM471.6,314.3c.1-1.7.2-3.4.3-5.1l-17.3-11.2c0,1.6-.2,3.2-.3,4.8l17.3,11.4ZM472.2,302.3c0-.3,0-.6,0-.9l-17.3-10.7c0,.3,0,.5,0,.8l17.3,10.8ZM462.9,285.7c-.2-.1-.5-.2-.7-.3l1.2,20.6c.2.1.5.2.7.4l-1.3-20.7ZM459.5,284c-1.4-.7-2.7-1.4-4.1-2.1l.6,20.3c1.5.8,3,1.6,4.5,2.3l-1-20.5ZM450,278.9c-.2-.1-.5-.3-.7-.4v20c.2.1.5.3.7.4v-20ZM449.3,278.5c-.3-.2-.6-.3-.9-.5v20c.2.2.5.4.9.5v-20ZM445.1,276c-1.7-1-3.4-2.1-5.1-3.1l-.9,19.5c1.9,1.2,3.7,2.3,5.6,3.4l.4-19.8ZM433.2,268.4c-.6-.4-1.1-.8-1.7-1.2l-1.7,18.9c.6.4,1.2.8,1.9,1.3l1.5-19.1ZM428.1,264.9c-1.7-1.2-3.4-2.4-5.1-3.7l-2.5,18.4c1.8,1.4,3.7,2.7,5.5,4l2-18.7ZM416.3,256.1c-.6-.4-1.1-.9-1.7-1.3l-3.3,17.7c.6.5,1.2,1,1.8,1.5l3.1-17.9ZM411.3,252.1c-1.7-1.4-3.3-2.8-5-4.2l-4.1,17.1c1.8,1.5,3.6,3.1,5.5,4.6l3.6-17.5ZM399.7,242.2c-.5-.5-1.1-1-1.6-1.5l-4.9,16.3c.6.5,1.2,1.1,1.8,1.6l4.8-16.5ZM394.8,237.7c-1.6-1.5-3.2-3.1-4.8-4.6l-5.7,15.6c1.8,1.7,3.5,3.4,5.3,5.1l5.3-16ZM383.7,226.6c-.5-.5-1-1.1-1.6-1.6l-6.6,14.8c.6.6,1.2,1.2,1.7,1.8l6.4-14.9ZM379,221.7c-1.6-1.7-3.1-3.4-4.6-5.1l-7.4,13.9c1.7,1.9,3.4,3.8,5.1,5.6l6.9-14.4ZM368.2,209.7c-.5-.6-1-1.2-1.5-1.8l-8.2,12.9c.5.7,1.1,1.3,1.7,2l8-13.1ZM363.8,204.3c-1.5-1.8-2.9-3.6-4.4-5.5l-9,12c1.6,2,3.2,4.1,4.9,6.1l8.5-12.6ZM353.7,191.4c-.5-.6-.9-1.3-1.4-1.9l-9.8,10.9c.5.7,1,1.4,1.6,2.1l9.6-11.1ZM349.5,185.7c-1.4-1.9-2.7-3.9-4.1-5.8l-10.5,9.8c1.5,2.2,3,4.3,4.5,6.5l10.1-10.5ZM340.2,172c-.4-.7-.9-1.3-1.3-2l-11.3,8.7c.5.7,1,1.5,1.4,2.2l11.2-8.9ZM336.4,166c-1.3-2-2.5-4.1-3.7-6.1l-12.1,7.4c1.4,2.3,2.7,4.6,4.1,6.8l11.6-8.2ZM328,151.7c-.4-.7-.8-1.4-1.1-2.1l-12.8,6.2c.4.8.9,1.6,1.3,2.3l12.7-6.4ZM324.6,145.4c-1.1-2.1-2.2-4.2-3.2-6.3l-13.5,4.8c1.2,2.4,2.4,4.7,3.6,7.1l13.1-5.6ZM317.3,130.7c-.3-.7-.7-1.4-1-2.1l-14.2,3.4c.4.8.7,1.6,1.1,2.4l14-3.7ZM314.4,124.3c-.9-2.1-1.8-4.3-2.7-6.4l-14.8,2c1,2.4,2,4.9,3.1,7.3l14.4-2.8ZM308.4,109.3c-.3-.7-.5-1.4-.8-2.1l-15.4.4c.3.8.6,1.6.9,2.4l15.3-.7ZM306.1,102.9c-.7-2.1-1.4-4.3-2.1-6.4l-15.9-1.1c.8,2.5,1.6,4.9,2.4,7.4l15.6.2ZM301.5,87.9c0-.4-.2-.7-.3-1.1l-16.3-2.6c.1.4.2.8.3,1.2l16.3,2.4ZM301.8,90.6h0c0,0-17.3-10-17.3-10h0c0,0,17.3,10,17.3,10ZM301.8,90.2v-.4l-17.3-9.9v.4l17.3,9.9ZM301.8,89.3h0c0,0-17.3-10-17.3-10h0c0,0,17.3,10,17.3,10Z"/>
            </g>
          </g>
          <g id="Union_4" class="st12">
            <path class="st2" d="M186.1,285.3l79.8,75.6.4-.3.2.2,88.7-56.4-39.8-38.1-57.8,36.7-40.4-38.3-31.1,20.5Z"/>
          </g>
        </g>
        <path id="Rectangle_128" class="st8" d="M191,215.6h310v268.4l-2,15.6-6,13-7.5,10.5-9,9-9.5,7-10,6.5-10.5,5.5-12.5,6-13.5,4.5-14,4-13.5,2.5-27,3.5-27.5,1-32.5-3.5-15.5-2.5-13.5-3.5-14.5-5-14-5.5-8.5-4.5-8-5-14-9.5-5-4.5-5-5.5-7.5-12-5-8.5-1.5-5.3-3-13.8V215.6Z"/>
      </g>
    </g>
  </g>
</svg>