<svg width="762" height="1157" viewBox="0 0 762 1157" fill="none" xmlns="http://www.w3.org/2000/svg">
<g style="mix-blend-mode:screen">
<path d="M95 385.002L761 409.501L510.5 906.502L459 944.5L398 955.502L332.5 944.5L293.5 897.502L95 385.002Z" fill="url(#paint0_linear_149_18)"/>
</g>
<rect width="402.033" height="266.359" rx="46" transform="matrix(0.879736 0.475462 0 1 237.312 273)" fill="url(#paint1_linear_149_18)"/>
<rect width="402.033" height="266.359" rx="46" transform="matrix(0.879736 0.475462 0 1 215 284.49)" fill="url(#paint2_linear_149_18)"/>
<path d="M583.44 1053.7C485.846 1110.75 327.098 1110.45 228.867 1053.03C130.636 995.602 130.119 902.803 227.713 845.752C325.306 788.702 484.054 789.004 582.285 846.427C680.517 903.85 681.033 996.65 583.44 1053.7Z" fill="#13B3D3"/>
<ellipse cx="206.024" cy="204.687" rx="206.024" ry="204.687" transform="matrix(0.863313 0.504669 -0.863313 0.504669 406.273 704)" fill="url(#paint3_linear_149_18)"/>
<g style="mix-blend-mode:screen">
<ellipse cx="91.0711" cy="91.0544" rx="91.0711" ry="91.0544" transform="matrix(0.863313 0.504669 -0.863313 0.504669 402.742 802.478)" fill="white"/>
</g>
<g style="mix-blend-mode:screen">
<path d="M573.716 1008.87C483.44 1061.65 335.26 1060.69 242.745 1006.6C150.23 952.522 148.586 865.9 238.862 813.127C329.138 760.354 477.319 761.315 569.833 815.397C662.348 869.478 663.992 956.1 573.716 1008.87Z" stroke="#FFD7D7" stroke-width="5"/>
</g>
<g filter="url(#filter0_d_149_18)">
<path d="M327.182 528.35C314.278 520.9 304.189 510.925 296.915 498.425C289.64 485.925 286.003 471.975 286.003 456.575V397.775L307.047 409.925V467.825C307.047 477.825 308.822 486.05 312.373 492.5C315.924 498.95 320.903 504.025 327.312 507.725C333.721 511.425 338.7 512.1 342.251 509.75C345.802 507.4 347.577 501.225 347.577 491.225V433.325L368.362 445.325V504.125C368.362 519.525 364.724 529.275 357.45 533.375C350.175 537.475 340.086 535.8 327.182 528.35ZM421.114 582.581C413.493 578.181 406.824 573.031 401.109 567.131C395.393 561.131 390.933 554.806 387.728 548.156C384.524 541.406 382.922 534.781 382.922 528.281C382.922 521.781 384.481 517.181 387.599 514.481C390.803 511.731 395.263 510.856 400.979 511.856C406.694 512.756 413.406 515.431 421.114 519.881C428.908 524.381 435.663 529.481 441.379 535.181C447.181 540.831 451.641 546.856 454.759 553.256C457.963 559.606 459.565 566.031 459.565 572.531C459.565 579.031 457.963 583.806 454.759 586.856C451.555 589.806 447.051 590.956 441.249 590.306C435.533 589.606 428.821 587.031 421.114 582.581ZM421.114 564.731C426.396 567.781 430.553 568.831 433.584 567.881C436.702 566.981 438.261 564.181 438.261 559.481C438.261 554.781 436.702 550.231 433.584 545.831C430.553 541.381 426.396 537.631 421.114 534.581C415.918 531.581 411.804 530.556 408.773 531.506C405.742 532.356 404.226 535.131 404.226 539.831C404.226 544.531 405.742 549.106 408.773 553.556C411.804 558.006 415.918 561.731 421.114 564.731ZM421.114 532.181C414.099 528.131 407.95 523.481 402.667 518.231C397.471 513.031 393.401 507.481 390.456 501.581C387.599 495.631 386.17 489.706 386.17 483.806C386.17 477.606 387.642 473.156 390.586 470.456C393.531 467.656 397.644 466.581 402.927 467.231C408.21 467.781 414.272 470.031 421.114 473.981C428.129 478.031 434.234 482.806 439.43 488.306C444.713 493.756 448.827 499.581 451.771 505.781C454.802 511.931 456.318 518.106 456.318 524.306C456.318 530.206 454.845 534.456 451.901 537.056C449.043 539.606 444.973 540.456 439.69 539.606C434.407 538.756 428.215 536.281 421.114 532.181ZM421.114 517.931C425.53 520.481 428.995 521.331 431.506 520.481C434.104 519.681 435.403 517.281 435.403 513.281C435.403 509.081 434.061 505.056 431.376 501.206C428.778 497.406 425.357 494.281 421.114 491.831C416.957 489.431 413.579 488.631 410.981 489.431C408.383 490.231 407.084 492.731 407.084 496.931C407.084 500.931 408.34 504.806 410.851 508.556C413.363 512.306 416.784 515.431 421.114 517.931Z" fill="white"/>
</g>
<defs>
<filter id="filter0_d_149_18" x="282" y="395.975" width="181.562" height="216.807" filterUnits="userSpaceOnUse" color-interpolation-filters="sRGB">
<feFlood flood-opacity="0" result="BackgroundImageFix"/>
<feColorMatrix in="SourceAlpha" type="matrix" values="0 0 0 0 0 0 0 0 0 0 0 0 0 0 0 0 0 0 127 0" result="hardAlpha"/>
<feOffset dy="4"/>
<feGaussianBlur stdDeviation="2"/>
<feComposite in2="hardAlpha" operator="out"/>
<feColorMatrix type="matrix" values="0 0 0 0 0 0 0 0 0 0 0 0 0 0 0 0 0 0 0.25 0"/>
<feBlend mode="normal" in2="BackgroundImageFix" result="effect1_dropShadow_149_18"/>
<feBlend mode="normal" in="SourceGraphic" in2="effect1_dropShadow_149_18" result="shape"/>
</filter>
<linearGradient id="paint0_linear_149_18" x1="-404.861" y1="1111.49" x2="-552.46" y2="707.835" gradientUnits="userSpaceOnUse">
<stop stop-color="#13EEB0" stop-opacity="0.26"/>
<stop offset="0.501061" stop-color="#13B3D3" stop-opacity="0.26"/>
<stop offset="0.756675" stop-color="#13B3D3" stop-opacity="0"/>
</linearGradient>
<linearGradient id="paint1_linear_149_18" x1="201.017" y1="0" x2="201.017" y2="266.359" gradientUnits="userSpaceOnUse">
<stop offset="1" stop-color="#13B3D3"/>
</linearGradient>
<linearGradient id="paint2_linear_149_18" x1="201.017" y1="0" x2="201.017" y2="266.359" gradientUnits="userSpaceOnUse">
<stop stop-color="#13EDB1"/>
<stop offset="1" stop-color="#13B3D3"/>
</linearGradient>
<linearGradient id="paint3_linear_149_18" x1="364.376" y1="409.375" x2="355.144" y2="-6.82" gradientUnits="userSpaceOnUse">
<stop stop-color="#13EDB1"/>
<stop offset="1" stop-color="#13B3D3"/>
</linearGradient>
</defs>
</svg>
