<svg xmlns="http://www.w3.org/2000/svg" fill="none" viewBox="4.73 0 804.35 657.25" xmlns:v="https://vecta.io/nano"><path d="M288.691 235.888c27.263-15.74 71.464-15.74 98.727 0L759.137 450.5c27.263 15.74 27.263 41.26 0 57L520.214 645.442c-27.263 15.74-71.464 15.74-98.727 0L49.768 430.83c-27.263-15.74-27.263-41.26 0-57l238.923-137.942z" fill="url(#A)"/><rect width="547.392" height="381.39" rx="57" transform="matrix(.866025 .5 -.866025 .5 335.023 187.116)" fill="url(#B)"/><use href="#K" transform="matrix(.866025 .5 -.866025 .5 430.953 106)" fill="url(#C)"/><path d="M348.328 154l83 47.92v235.767l-83-47.92V154z" fill="url(#D)"/><path transform="matrix(.866025 -.5 0 1 431.328 202.044)" fill="url(#E)" d="M0 0h95.84v236.022H0z"/><use href="#K" transform="matrix(.866025 .5 -.866025 .5 596.953 191)" fill="url(#C)"/><path d="M514.328 239l83 47.92v235.113l-83-47.92V239z" fill="url(#F)"/><path transform="matrix(.866025 -.5 0 1 597.328 287.044)" fill="url(#G)" d="M0 0h95.84v235.828H0z"/><path fill-rule="evenodd" d="M174.026 340.328l-43.897-1.407-22.55 13.019.168.105-49.575 28.622 189.869 109.621 71.433-41.242h0l52.523-30.324-80.043-10.308-8.268-10.111-33.446-11.062-17.859-13.222-38.301-11.276-20.054-22.415z" fill="url(#H)" fill-opacity=".62" style="mix-blend-mode:screen"/><use href="#K" transform="matrix(.866025 .5 -.866025 .5 264.953 0)" fill="url(#C)"/><path d="M182.328 48l83 47.92v262.199l-83-47.92V48z" fill="url(#I)"/><path transform="matrix(.866025 -.5 0 1 265.328 96.0439)" fill="url(#J)" d="M0 0h95.84v262.184H0z"/><path d="M515.328 568.25c16.217-9.363 25.933-21.921 27.551-35.612s-4.957-27.7-18.645-39.724-33.675-21.347-56.676-26.439-47.648-5.647-69.889-1.577-40.755 12.526-52.497 23.976-16.014 25.213-12.115 39.029 15.737 26.86 33.57 36.991 40.599 16.746 64.557 18.756l6.202-60.4 77.942 45z" fill="#fff" fill-opacity=".57" style="mix-blend-mode:screen"/><path d="M515.328 568.25c-9.382 5.417-20.689 9.617-33.275 12.36s-26.202 3.976-40.074 3.628-27.728-2.271-40.774-5.657-25.031-8.172-35.266-14.081l71.447-41.25 77.942 45z" fill="#13edb1" style="mix-blend-mode:screen"/><path d="M273.258 506.966a1 1 0 0 0 .708-1.224l-2.32-8.696a1 1 0 1 0-1.933.516l2.063 7.73-7.73 2.062a1 1 0 1 0 .516 1.933l8.696-2.321zm-216.759-125.1l216 125 1.002-1.732-216-125-1.002 1.732z" fill="#fff"/><defs><linearGradient id="A" x1="304.787" y1="682.248" x2="447.653" y2="371.949" href="#L"><stop offset="1" stop-color="#13b3d3"/></linearGradient><linearGradient id="B" x1="401.44" y1="381.39" x2="357.192" y2="-23.107" href="#L"><stop stop-color="#13edb1"/><stop offset="1" stop-color="#13b3d3"/></linearGradient><linearGradient id="C" x1="48.108" y1="0" x2="48.108" y2="95.784" href="#L"><stop stop-color="#13edb1"/><stop offset="1" stop-color="#13b3d3"/></linearGradient><linearGradient id="D" x1="450.894" y1="305.57" x2="366.085" y2="306.846" href="#L"><stop stop-color="#13edb1"/><stop offset="1" stop-color="#13b3d3"/></linearGradient><linearGradient id="E" x1="47.92" y1="0" x2="47.92" y2="236.022" href="#L"><stop stop-color="#13edb1"/><stop offset="1" stop-color="#13b3d3"/></linearGradient><linearGradient id="F" x1="616.894" y1="390.314" x2="532.087" y2="391.594" href="#L"><stop stop-color="#13edb1"/><stop offset="1" stop-color="#13b3d3"/></linearGradient><linearGradient id="G" x1="47.92" y1="0" x2="47.92" y2="235.828" href="#L"><stop stop-color="#13edb1"/><stop offset="1" stop-color="#13b3d3"/></linearGradient><linearGradient id="H" x1="276.975" y1="363.861" x2="214.997" y2="471.21" href="#L"><stop stop-color="#13edb1"/><stop offset="1" stop-color="#13b3d3"/></linearGradient><linearGradient id="I" x1="284.894" y1="209.924" x2="200.007" y2="211.074" href="#L"><stop stop-color="#13edb1"/><stop offset="1" stop-color="#13b3d3"/></linearGradient><linearGradient id="J" x1="47.92" y1="0" x2="47.92" y2="262.184" href="#L"><stop stop-color="#13edb1"/><stop offset="1" stop-color="#13b3d3"/></linearGradient><path id="K" d="M0 0h96.216v95.784H0z"/><linearGradient id="L" gradientUnits="userSpaceOnUse"/></defs></svg>