<?xml version="1.0" encoding="UTF-8"?>
<svg xmlns="http://www.w3.org/2000/svg" xmlns:xlink="http://www.w3.org/1999/xlink" version="1.1" viewBox="0 0 501.4 806.1">
  <defs>
    <style>
      .cls-1 {
        fill: url(#linear-gradient-4);
      }

      .cls-2 {
        fill: url(#linear-gradient-3);
      }

      .cls-3 {
        fill: url(#linear-gradient-2);
      }

      .cls-4 {
        fill: url(#linear-gradient);
      }

      .cls-5 {
        fill: #13b3d3;
      }

      .cls-6 {
        isolation: isolate;
      }

      .cls-7 {
        fill: #fff;
      }

      .cls-8 {
        fill: none;
        stroke: #ffd7d7;
        stroke-width: 5px;
      }

      .cls-9 {
        mix-blend-mode: screen;
      }
    </style>
    <linearGradient id="linear-gradient" x1="334.9" y1="233.4" x2="254.3" y2="589.6" gradientTransform="translate(0 852.2) scale(1 -1)" gradientUnits="userSpaceOnUse">
      <stop offset="0" stop-color="#13eeb0" stop-opacity=".3"/>
      <stop offset=".5" stop-color="#13b3d3" stop-opacity=".3"/>
      <stop offset=".8" stop-color="#13b3d3" stop-opacity="0"/>
    </linearGradient>
    <linearGradient id="linear-gradient-2" x1="116.6" y1="953.4" x2="116.6" y2="687" gradientTransform="translate(154.8 976.6) rotate(28.4) scale(1 -.9) skewX(-25.4)" gradientUnits="userSpaceOnUse">
      <stop offset="1" stop-color="#13b3d3"/>
      <stop offset="1" stop-color="#000"/>
    </linearGradient>
    <linearGradient id="linear-gradient-3" x1="116.6" y1="953.4" x2="116.6" y2="687" gradientTransform="translate(132.5 988.1) rotate(28.4) scale(1 -.9) skewX(-25.4)" gradientUnits="userSpaceOnUse">
      <stop offset="0" stop-color="#13edb1"/>
      <stop offset="1" stop-color="#13b3d3"/>
    </linearGradient>
    <linearGradient id="linear-gradient-4" x1="107.6" y1="547.3" x2="98.4" y2="963.5" gradientTransform="translate(-490.4 950.6) rotate(30.3) scale(1 -.9) skewX(26.1)" gradientUnits="userSpaceOnUse">
      <stop offset="0" stop-color="#13edb1"/>
      <stop offset="1" stop-color="#13b3d3"/>
    </linearGradient>
  </defs>
  <!-- Generator: Adobe Illustrator 28.7.1, SVG Export Plug-In . SVG Version: 1.2.0 Build 142)  -->
  <g class="cls-6">
    <g id="Layer_1">
      <g class="cls-9">
        <path class="cls-4" d="M46.8,247.1l419.5,50.5-112.5,319-51.5,38-61,11-65.5-11-39-47L46.8,247.1Z"/>
      </g>
      <path class="cls-3" d="M121.1,4.9l272.7,147.4c22.3,12.1,40.5,42.5,40.5,67.9v174.4c0,25.4-18.1,36.2-40.5,24.1L121.1,271.3c-22.3-12.1-40.5-42.5-40.5-67.9V29.1c0-25.4,18.1-36.2,40.5-24.1Z"/>
      <path class="cls-2" d="M98.8,16.4l272.7,147.4c22.3,12.1,40.5,42.5,40.5,67.9v174.4c0,25.4-18.1,36.2-40.5,24.1L98.8,282.8c-22.3-12.1-40.5-42.5-40.5-67.9V40.6c0-25.4,18.1-36.2,40.5-24.1Z"/>
      <path class="cls-5" d="M426.7,763.8c-97.6,57.1-256.3,56.7-354.6-.7-98.2-57.4-98.7-150.2-1.2-207.3,97.6-57,256.3-56.7,354.6.7,98.2,57.4,98.7,150.2,1.2,207.3Z"/>
      <path class="cls-1" d="M427.4,518c98.2,57.4,98.7,150.2,1.2,207.3-97.6,57.1-256.3,56.7-354.6-.7-98.2-57.4-98.7-150.2-1.2-207.3,97.6-57.1,256.3-56.7,354.6.7Z"/>
      <g class="cls-9">
        <path class="cls-7" d="M324.7,558.5c43.4,25.4,43.4,66.5,0,91.9-43.4,25.4-113.8,25.4-157.2,0s-43.4-66.5,0-91.9c43.4-25.4,113.8-25.4,157.2,0Z"/>
      </g>
      <g class="cls-9">
        <path class="cls-8" d="M417,718.9c-90.3,52.8-238.5,51.8-331-2.3-92.5-54.1-94.2-140.7-3.9-193.5,90.3-52.8,238.5-51.8,331,2.3,92.5,54.1,94.2,140.7,3.9,193.5Z"/>
      </g>
      <path class="cls-7" d="M170.5,238.4c-12.9-7.5-23-17.4-30.3-29.9-7.3-12.5-10.9-26.4-10.9-41.9v-58.8l21,12.2v57.9c0,10,1.8,18.2,5.3,24.7,3.6,6.4,8.5,11.5,14.9,15.2,6.4,3.7,11.4,4.4,14.9,2s5.3-8.5,5.3-18.5v-57.9l20.8,12v58.8c0,15.4-3.6,25.1-10.9,29.2-7.3,4.1-17.4,2.4-30.3-5ZM264.4,292.7c-7.6-4.4-14.3-9.5-20-15.4-5.7-6-10.2-12.3-13.4-19-3.2-6.8-4.8-13.4-4.8-19.9s1.6-11.1,4.7-13.8c3.2-2.8,7.7-3.6,13.4-2.6,5.7.9,12.4,3.6,20.1,8,7.8,4.5,14.5,9.6,20.3,15.3,5.8,5.6,10.3,11.7,13.4,18.1,3.2,6.3,4.8,12.8,4.8,19.3s-1.6,11.3-4.8,14.3c-3.2,3-7.7,4.1-13.5,3.5-5.7-.7-12.4-3.3-20.1-7.7ZM264.4,274.8c5.3,3.1,9.4,4.1,12.5,3.2,3.1-.9,4.7-3.7,4.7-8.4s-1.6-9.2-4.7-13.6c-3-4.4-7.2-8.2-12.5-11.2-5.2-3-9.3-4-12.3-3.1-3,.8-4.5,3.6-4.5,8.3s1.5,9.3,4.5,13.7c3,4.5,7.1,8.2,12.3,11.2ZM264.4,242.3c-7-4.1-13.2-8.7-18.4-13.9-5.2-5.2-9.3-10.8-12.2-16.7-2.9-5.9-4.3-11.9-4.3-17.8s1.5-10.6,4.4-13.4c2.9-2.8,7.1-3.9,12.3-3.2,5.3.6,11.3,2.8,18.2,6.8,7,4.1,13.1,8.8,18.3,14.3,5.3,5.4,9.4,11.3,12.3,17.5,3,6.1,4.5,12.3,4.5,18.5s-1.5,10.1-4.4,12.8c-2.9,2.5-6.9,3.4-12.2,2.5-5.3-.8-11.5-3.3-18.6-7.4ZM264.4,228c4.4,2.6,7.9,3.4,10.4,2.6,2.6-.8,3.9-3.2,3.9-7.2s-1.3-8.2-4-12.1c-2.6-3.8-6-6.9-10.3-9.4-4.2-2.4-7.5-3.2-10.1-2.4-2.6.8-3.9,3.3-3.9,7.5s1.3,7.9,3.8,11.6c2.5,3.8,5.9,6.9,10.3,9.4Z"/>
    </g>
  </g>
</svg>