<svg width="711" height="884" viewBox="0 0 711 884" fill="none" xmlns="http://www.w3.org/2000/svg">
<g style="mix-blend-mode:screen">
<path d="M152.5 264L572 314.5L459.5 633.502L408 671.5L347 682.502L281.5 671.5L242.5 624.502L152.5 264Z" fill="url(#paint0_linear_153_31)"/>
</g>
<rect width="402.033" height="266.359" rx="46" transform="matrix(0.879736 0.475462 0 1 186.312 0)" fill="url(#paint1_linear_153_31)"/>
<rect width="402.033" height="266.359" rx="46" transform="matrix(0.879736 0.475462 0 1 164 11.4902)" fill="url(#paint2_linear_153_31)"/>
<path d="M532.44 780.7C434.846 837.751 276.098 837.449 177.867 780.026C79.6356 722.602 79.1188 629.803 176.713 572.752C274.306 515.702 433.054 516.004 531.285 573.427C629.517 630.85 630.033 723.65 532.44 780.7Z" fill="#13B3D3"/>
<ellipse cx="206.024" cy="204.687" rx="206.024" ry="204.687" transform="matrix(0.863313 0.504669 -0.863313 0.504669 355.273 431)" fill="url(#paint3_linear_153_31)"/>
<g style="mix-blend-mode:screen">
<ellipse cx="91.0711" cy="91.0544" rx="91.0711" ry="91.0544" transform="matrix(0.863313 0.504669 -0.863313 0.504669 351.742 529.478)" fill="white"/>
</g>
<g style="mix-blend-mode:screen">
<path d="M522.716 735.873C432.44 788.646 284.26 787.685 191.745 733.603C99.2299 679.522 97.5857 592.9 187.862 540.127C278.138 487.354 426.319 488.315 518.833 542.397C611.348 596.478 612.992 683.1 522.716 735.873Z" stroke="#FFD7D7" stroke-width="5"/>
</g>
<g filter="url(#filter0_d_153_31)">
<path d="M276.182 255.35C263.278 247.9 253.189 237.925 245.915 225.425C238.64 212.925 235.003 198.975 235.003 183.575V124.775L256.047 136.925V194.825C256.047 204.825 257.822 213.05 261.373 219.5C264.924 225.95 269.903 231.025 276.312 234.725C282.721 238.425 287.7 239.1 291.251 236.75C294.802 234.4 296.577 228.225 296.577 218.225V160.325L317.362 172.325V231.125C317.362 246.525 313.724 256.275 306.45 260.375C299.175 264.475 289.086 262.8 276.182 255.35ZM370.114 309.581C362.493 305.181 355.824 300.031 350.109 294.131C344.393 288.131 339.933 281.806 336.728 275.156C333.524 268.406 331.922 261.781 331.922 255.281C331.922 248.781 333.481 244.181 336.599 241.481C339.803 238.731 344.263 237.856 349.979 238.856C355.694 239.756 362.406 242.431 370.114 246.881C377.908 251.381 384.663 256.481 390.379 262.181C396.181 267.831 400.641 273.856 403.759 280.256C406.963 286.606 408.565 293.031 408.565 299.531C408.565 306.031 406.963 310.806 403.759 313.856C400.555 316.806 396.051 317.956 390.249 317.306C384.533 316.606 377.821 314.031 370.114 309.581ZM370.114 291.731C375.396 294.781 379.553 295.831 382.584 294.881C385.702 293.981 387.261 291.181 387.261 286.481C387.261 281.781 385.702 277.231 382.584 272.831C379.553 268.381 375.396 264.631 370.114 261.581C364.918 258.581 360.804 257.556 357.773 258.506C354.742 259.356 353.226 262.131 353.226 266.831C353.226 271.531 354.742 276.106 357.773 280.556C360.804 285.006 364.918 288.731 370.114 291.731ZM370.114 259.181C363.099 255.131 356.95 250.481 351.667 245.231C346.471 240.031 342.401 234.481 339.456 228.581C336.599 222.631 335.17 216.706 335.17 210.806C335.17 204.606 336.642 200.156 339.586 197.456C342.531 194.656 346.644 193.581 351.927 194.231C357.21 194.781 363.272 197.031 370.114 200.981C377.129 205.031 383.234 209.806 388.43 215.306C393.713 220.756 397.827 226.581 400.771 232.781C403.802 238.931 405.318 245.106 405.318 251.306C405.318 257.206 403.845 261.456 400.901 264.056C398.043 266.606 393.973 267.456 388.69 266.606C383.407 265.756 377.215 263.281 370.114 259.181ZM370.114 244.931C374.53 247.481 377.995 248.331 380.506 247.481C383.104 246.681 384.403 244.281 384.403 240.281C384.403 236.081 383.061 232.056 380.376 228.206C377.778 224.406 374.357 221.281 370.114 218.831C365.957 216.431 362.579 215.631 359.981 216.431C357.383 217.231 356.084 219.731 356.084 223.931C356.084 227.931 357.34 231.806 359.851 235.556C362.363 239.306 365.784 242.431 370.114 244.931Z" fill="white"/>
</g>
<defs>
<filter id="filter0_d_153_31" x="231" y="122.975" width="181.562" height="216.807" filterUnits="userSpaceOnUse" color-interpolation-filters="sRGB">
<feFlood flood-opacity="0" result="BackgroundImageFix"/>
<feColorMatrix in="SourceAlpha" type="matrix" values="0 0 0 0 0 0 0 0 0 0 0 0 0 0 0 0 0 0 127 0" result="hardAlpha"/>
<feOffset dy="4"/>
<feGaussianBlur stdDeviation="2"/>
<feComposite in2="hardAlpha" operator="out"/>
<feColorMatrix type="matrix" values="0 0 0 0 0 0 0 0 0 0 0 0 0 0 0 0 0 0 0.25 0"/>
<feBlend mode="normal" in2="BackgroundImageFix" result="effect1_dropShadow_153_31"/>
<feBlend mode="normal" in="SourceGraphic" in2="effect1_dropShadow_153_31" result="shape"/>
</filter>
<linearGradient id="paint0_linear_153_31" x1="-455.86" y1="838.49" x2="-536.448" y2="482.351" gradientUnits="userSpaceOnUse">
<stop stop-color="#13EEB0" stop-opacity="0.26"/>
<stop offset="0.501061" stop-color="#13B3D3" stop-opacity="0.26"/>
<stop offset="0.761597" stop-color="#13B3D3" stop-opacity="0"/>
</linearGradient>
<linearGradient id="paint1_linear_153_31" x1="201.017" y1="0" x2="201.017" y2="266.359" gradientUnits="userSpaceOnUse">
<stop offset="1" stop-color="#13B3D3"/>
</linearGradient>
<linearGradient id="paint2_linear_153_31" x1="201.017" y1="0" x2="201.017" y2="266.359" gradientUnits="userSpaceOnUse">
<stop stop-color="#13EDB1"/>
<stop offset="1" stop-color="#13B3D3"/>
</linearGradient>
<linearGradient id="paint3_linear_153_31" x1="364.376" y1="409.375" x2="355.144" y2="-6.82" gradientUnits="userSpaceOnUse">
<stop stop-color="#13EDB1"/>
<stop offset="1" stop-color="#13B3D3"/>
</linearGradient>
</defs>
</svg>
