<?xml version="1.0" encoding="UTF-8"?><svg xmlns="http://www.w3.org/2000/svg" xmlns:xlink="http://www.w3.org/1999/xlink" viewBox="0 0 641.719 584.61"><defs><linearGradient id="linear-gradient" x1="-65.485" y1="620.63" x2="-65.485" y2="226.08" gradientTransform="translate(8.435 645.225) rotate(30) scale(1 -.866) skewX(26.565)" gradientUnits="userSpaceOnUse"><stop offset="1" stop-color="#13b3d3"/><stop offset="1" stop-color="#000"/></linearGradient><linearGradient id="linear-gradient-2" x1="79.699" y1="235.474" x2="-210.668" y2="611.236" gradientTransform="translate(13.435 610.225) rotate(30) scale(1 -.866) skewX(26.565)" gradientUnits="userSpaceOnUse"><stop offset="0" stop-color="#13edb1"/><stop offset="1" stop-color="#13b3d3"/></linearGradient><linearGradient id="linear-gradient-3" x1="27.408" y1="293.559" x2="-217.718" y2="613.81" gradientTransform="translate(7.903 559.225) rotate(30) scale(1 -.866) skewX(26.565)" gradientUnits="userSpaceOnUse"><stop offset="0" stop-color="#13edb1" stop-opacity=".66"/><stop offset="1" stop-color="#13b3d3" stop-opacity=".68"/></linearGradient><linearGradient id="linear-gradient-4" x1="27.408" y1="293.559" x2="-217.718" y2="613.81" gradientTransform="translate(1.903 428.225) rotate(30) scale(1 -.866) skewX(26.565)" gradientUnits="userSpaceOnUse"><stop offset="0" stop-color="#13edb1" stop-opacity=".66"/><stop offset="1" stop-color="#13b3d3" stop-opacity=".68"/></linearGradient></defs><g style="isolation:isolate;"><g id="Layer_1"><g id="Group_110"><path id="Rectangle_119" d="M362.137,228.805l254.135,146.725c27.263,15.74,27.263,41.26,0,57l-242.963,140.275c-27.263,15.74-71.464,15.74-98.727,0L20.447,426.08c-27.263-15.74-27.263-41.26,0-57l242.963-140.275c27.263-15.74,71.464-15.74,98.727,0Z" style="fill:url(#linear-gradient);"/><path id="Rectangle_118" d="M367.137,193.805l254.135,146.725c27.263,15.74,27.263,41.26,0,57l-242.963,140.275c-27.263,15.74-71.464,15.74-98.727,0L25.447,391.08c-27.263-15.74-27.263-41.26,0-57l242.963-140.275c27.263-15.74,71.464-15.74,98.727,0Z" style="fill:url(#linear-gradient-2);"/><path id="Rectangle_120" d="M361.605,142.805l202.744,117.055c27.263,15.74,27.263,41.26,0,57l-190.431,109.945c-27.263,15.74-71.464,15.74-98.727,0l-202.744-117.055c-27.263-15.74-27.263-41.26,0-57l190.431-109.945c27.263-15.74,71.464-15.74,98.727,0Z" style="fill:url(#linear-gradient-3);"/><path id="Rectangle_152" d="M355.605,11.805l202.744,117.055c27.263,15.74,27.263,41.26,0,57l-190.431,109.945c-27.263,15.74-71.464,15.74-98.727,0l-202.744-117.055c-27.263-15.74-27.263-41.26,0-57L256.878,11.805c27.263-15.74,71.464-15.74,98.727,0Z" style="fill:url(#linear-gradient-4);"/><g id="Union" style="mix-blend-mode:screen;"><path d="M291.898,199.074c-16.516-2.05-31.193,6.424-27.642,15.959l16.972,45.577c3.875,10.405,26.17,14.202,39.205,6.676l11.599-6.697,92.356,53.322,33.849-2.15,4.321-19.887-92.356-53.322,12.2-7.044c13.035-7.526,6.459-20.397-11.563-22.635l-78.941-9.799Z" style="fill:#fff; fill-rule:evenodd;"/></g><g id="Union_2" style="mix-blend-mode:screen;"><path d="M374.147,375.444c16.593,1.294,30.867-7.842,26.884-17.205l-19.037-44.753c-4.347-10.218-26.792-12.992-39.469-4.878l-11.281,7.22-94.696-49.046-33.715,3.695-3.408,20.063,94.696,49.046-11.865,7.594c-12.678,8.113-5.521,20.671,12.585,22.083l79.306,6.181Z" style="fill:#fff; fill-rule:evenodd;"/></g></g></g></g></svg>