<svg width="664" height="772" viewBox="0 0 664 772" fill="none" xmlns="http://www.w3.org/2000/svg">
<rect width="372" height="112" transform="matrix(0.866025 0.5 0 1 18.5 473.996)" fill="url(#paint0_linear_154_43)"/>
<path d="M125 596L188 632.373V649.417L125 613.044V596Z" fill="white"/>
<path d="M125 596L188 632.373V649.417L125 613.044V596Z" fill="white"/>
<path d="M125 573L188 609.373V626.417L125 590.044V573Z" fill="white"/>
<path d="M125 573L188 609.373V626.417L125 590.044V573Z" fill="white"/>
<rect width="372" height="372.312" transform="matrix(0.866025 -0.5 0.866025 0.5 18.5 473.996)" fill="url(#paint1_linear_154_43)"/>
<g style="mix-blend-mode:screen">
<rect width="288.001" height="287.999" transform="matrix(0.866025 -0.5 0.866025 0.5 91.0859 472.997)" fill="url(#paint2_linear_154_43)"/>
</g>
<g style="mix-blend-mode:screen">
<path d="M340.5 261.5L659 127.5L589.917 474.046L340.5 618.047V261.5Z" fill="url(#paint3_linear_154_43)"/>
</g>
<rect width="372" height="112" transform="matrix(0.866025 -0.5 0 1 340.5 659.996)" fill="url(#paint4_linear_154_43)"/>
<g style="mix-blend-mode:screen">
<mask id="path-8-inside-1_154_43" fill="white">
<rect width="339.208" height="342.229" rx="4" transform="matrix(0.861504 -0.50775 0.861504 0.50775 46.1719 470.232)"/>
</mask>
<rect width="339.208" height="342.229" rx="4" transform="matrix(0.861504 -0.50775 0.861504 0.50775 46.1719 470.232)" stroke="white" stroke-width="12" mask="url(#path-8-inside-1_154_43)"/>
</g>
<ellipse cx="184.89" cy="170.99" rx="184.89" ry="170.99" transform="matrix(0.872324 -0.488929 0.872324 0.488929 19 223.796)" fill="url(#paint5_linear_154_43)"/>
<ellipse cx="182.411" cy="176.536" rx="182.411" ry="176.536" transform="matrix(0.872324 -0.488929 0.872324 0.488929 10 178.372)" fill="url(#paint6_linear_154_43)"/>
<path d="M459.796 94.1928C535.859 136.825 536.166 205.773 460.483 248.193C384.8 290.613 261.786 290.44 185.723 247.808C109.661 205.176 109.353 136.227 185.036 93.8077C260.719 51.3881 383.734 51.5605 459.796 94.1928Z" fill="#29F3F7"/>
<g style="mix-blend-mode:screen">
<path d="M0.5 89L340.917 273.5V617.449L91.4999 473.448L0.5 89Z" fill="url(#paint7_linear_154_43)"/>
</g>
<path d="M468 617.373L531 581V598.044L468 634.417V617.373Z" fill="white"/>
<path d="M468 617.373L531 581V598.044L468 634.417V617.373Z" fill="white"/>
<path d="M468 642.373L531 606V623.044L468 659.417V642.373Z" fill="white"/>
<path d="M468 642.373L531 606V623.044L468 659.417V642.373Z" fill="white"/>
<g style="mix-blend-mode:screen" filter="url(#filter0_i_154_43)">
<path d="M361.626 148.8L384.1 135.825L392.803 140.85L370.33 153.825L361.626 148.8ZM344.349 138.825L366.822 125.85L375.526 130.875L353.053 143.85L344.349 138.825ZM265.498 204.3L287.971 191.325L296.674 196.35L274.201 209.325L265.498 204.3ZM248.22 194.325L270.694 181.35L279.397 186.375L256.924 199.35L248.22 194.325ZM247.571 179.25L340.322 125.7L362.666 138.6C370.113 142.9 375.526 146.925 378.904 150.675C382.454 154.425 383.753 158.025 382.801 161.475C382.021 164.925 378.73 168.325 372.928 171.675C369.464 173.675 365.87 175.25 362.146 176.4C358.422 177.55 354.828 178.175 351.364 178.275C347.9 178.375 344.739 177.9 341.881 176.85L341.231 177.225C343.137 179.025 344.306 180.95 344.739 183C345.172 185.05 344.522 187.275 342.79 189.675C341.058 192.075 337.767 194.675 332.918 197.475C327.288 200.725 321.226 202.825 314.731 203.775C308.322 204.675 301.741 204.425 294.986 203.025C288.404 201.625 281.995 199.125 275.76 195.525L247.571 179.25ZM328.111 161.1C332.441 163.6 336.338 164.8 339.802 164.7C343.267 164.6 346.731 163.55 350.195 161.55C353.746 159.5 355.304 157.45 354.871 155.4C354.438 153.35 352.057 151.075 347.727 148.575L343.83 146.325L323.175 158.25L328.111 161.1ZM307.586 167.25L283.424 181.2L289.79 184.875C294.293 187.475 298.536 188.625 302.52 188.325C306.677 188.025 310.661 186.775 314.471 184.575C316.81 183.225 318.455 181.825 319.408 180.375C320.36 178.925 320.36 177.375 319.408 175.725C318.542 174.125 316.506 172.4 313.302 170.55L307.586 167.25Z" fill="white"/>
</g>
<path d="M297.418 62.223C253.072 65.9923 212.198 78.3318 181.785 97.1312L237.199 125.677C255.713 114.232 280.597 106.72 307.595 104.425L297.418 62.223Z" fill="white" fill-opacity="0.64"/>
<path d="M366.424 63.4031C353.94 61.894 341.202 61.0928 328.401 61.0112L326.457 103.687C334.25 103.737 342.004 104.225 349.605 105.144L366.424 63.4031Z" fill="white" fill-opacity="0.64"/>
<path d="M453.764 88.555C437.773 80.4188 419.432 73.8823 399.51 69.2196L369.747 108.685C381.875 111.523 393.041 115.503 402.777 120.456L453.764 88.555Z" fill="white" fill-opacity="0.64"/>
<path d="M516.38 164.633C515.073 143.939 503.357 123.969 482.603 107.058L420.333 131.721C432.968 142.015 440.101 154.173 440.896 166.772L516.38 164.633Z" fill="white" fill-opacity="0.64"/>
<path d="M504.061 207.147C510.481 197.486 514.467 187.381 515.901 177.131L440.605 174.38C439.732 180.62 437.305 186.772 433.397 192.653L504.061 207.147Z" fill="white" fill-opacity="0.64"/>
<path d="M488.455 225.372C491.902 222.137 495.054 218.805 497.899 215.391L429.645 197.672C427.913 199.751 425.994 201.779 423.896 203.748L488.455 225.372Z" fill="white" fill-opacity="0.64"/>
<path d="M428.824 260.634C448.323 253.297 465.364 244.048 479.126 233.333L418.217 208.595C409.839 215.118 399.464 220.749 387.593 225.216L428.824 260.634Z" fill="white" fill-opacity="0.64"/>
<path d="M169.748 105.326C155.662 115.907 145.04 127.813 138.396 140.468L210.784 152.06C214.828 144.356 221.295 137.108 229.871 130.666L169.748 105.326Z" fill="white" fill-opacity="0.64"/>
<path d="M135.047 147.749C131.652 156.323 130.091 165.082 130.398 173.837L205.914 172.375C205.728 167.045 206.678 161.712 208.745 156.493L135.047 147.749Z" fill="white" fill-opacity="0.64"/>
<path d="M132.615 188.281C137.07 204.57 148.029 220.022 164.667 233.469L226.777 208.678C216.649 200.491 209.976 191.085 207.264 181.168L132.615 188.281Z" fill="white" fill-opacity="0.64"/>
<path d="M169.374 237.108C175.474 241.621 182.2 245.851 189.49 249.758L241.889 218.595C237.451 216.216 233.357 213.641 229.643 210.893L169.374 237.108Z" fill="white" fill-opacity="0.64"/>
<path d="M203.536 256.58C219.096 263.418 236.464 268.844 255.028 272.665L281.788 232.54C270.487 230.214 259.913 226.911 250.44 222.748L203.536 256.58Z" fill="white" fill-opacity="0.64"/>
<path d="M337.359 278.784C364.542 277.451 391.001 272.885 414.996 265.386L379.175 228.108C364.567 232.674 348.459 235.453 331.91 236.265L337.359 278.784Z" fill="white" fill-opacity="0.64"/>
<path d="M275.876 276.21C291.51 278.327 307.579 279.324 323.71 279.179L323.601 236.506C313.781 236.594 303.998 235.987 294.48 234.698L275.876 276.21Z" fill="white" fill-opacity="0.64"/>
<defs>
<filter id="filter0_i_154_43" x="234.844" y="118.125" width="177.055" height="106.225" filterUnits="userSpaceOnUse" color-interpolation-filters="sRGB">
<feFlood flood-opacity="0" result="BackgroundImageFix"/>
<feBlend mode="normal" in="SourceGraphic" in2="BackgroundImageFix" result="shape"/>
<feColorMatrix in="SourceAlpha" type="matrix" values="0 0 0 0 0 0 0 0 0 0 0 0 0 0 0 0 0 0 127 0" result="hardAlpha"/>
<feOffset dy="4"/>
<feGaussianBlur stdDeviation="2"/>
<feComposite in2="hardAlpha" operator="arithmetic" k2="-1" k3="1"/>
<feColorMatrix type="matrix" values="0 0 0 0 0 0 0 0 0 0 0 0 0 0 0 0 0 0 0.25 0"/>
<feBlend mode="normal" in2="shape" result="effect1_innerShadow_154_43"/>
</filter>
<linearGradient id="paint0_linear_154_43" x1="6.97221" y1="120.663" x2="40.975" y2="-67.2884" gradientUnits="userSpaceOnUse">
<stop stop-color="#13B3D3"/>
<stop offset="1" stop-color="#13EDB1"/>
</linearGradient>
<linearGradient id="paint1_linear_154_43" x1="6.97221" y1="401.11" x2="291.947" y2="-72.7487" gradientUnits="userSpaceOnUse">
<stop stop-color="#13B3D3"/>
</linearGradient>
<linearGradient id="paint2_linear_154_43" x1="5.39787" y1="310.276" x2="225.75" y2="-56.4389" gradientUnits="userSpaceOnUse">
<stop stop-color="#13EEB0"/>
<stop offset="1" stop-color="#13B3D3"/>
</linearGradient>
<linearGradient id="paint3_linear_154_43" x1="7.87056" y1="512.634" x2="-36.3891" y2="193.843" gradientUnits="userSpaceOnUse">
<stop stop-color="#13EEB0" stop-opacity="0"/>
<stop offset="0.501061" stop-color="#13B3D3" stop-opacity="0.26"/>
<stop offset="0.756675" stop-color="#13B3D3" stop-opacity="0"/>
</linearGradient>
<linearGradient id="paint4_linear_154_43" x1="295.059" y1="120.663" x2="285.564" y2="-22.4991" gradientUnits="userSpaceOnUse">
<stop stop-color="#13B3D3"/>
<stop offset="1" stop-color="#12EBB2"/>
</linearGradient>
<linearGradient id="paint5_linear_154_43" x1="-11.841" y1="240.4" x2="391.801" y2="144.372" gradientUnits="userSpaceOnUse">
<stop stop-color="#0993C7"/>
</linearGradient>
<linearGradient id="paint6_linear_154_43" x1="-11.6823" y1="248.198" x2="388.41" y2="157.241" gradientUnits="userSpaceOnUse">
<stop stop-color="#0EB9DA"/>
<stop offset="1" stop-color="#33FFA3"/>
</linearGradient>
<linearGradient id="paint7_linear_154_43" x1="89.8156" y1="609.031" x2="-92.5164" y2="-8.78026" gradientUnits="userSpaceOnUse">
<stop stop-color="#13EEB0" stop-opacity="0.26"/>
<stop offset="0.501061" stop-color="#13B3D3" stop-opacity="0.26"/>
<stop offset="0.756675" stop-color="#13B3D3" stop-opacity="0"/>
</linearGradient>
</defs>
</svg>
