<svg xmlns="http://www.w3.org/2000/svg" viewBox="0 0 641.719 584.61" xmlns:v="https://vecta.io/nano"><defs><linearGradient id="A" x1="-65.485" y1="620.63" x2="-65.485" y2="226.08" gradientTransform="translate(8.435 645.225) rotate(30) scale(1 -.866) skewX(26.565)" href="#E"><stop offset="1" stop-color="#13b3d3"/><stop offset="1"/></linearGradient><linearGradient id="B" x1="79.699" y1="235.474" x2="-210.668" y2="611.236" gradientTransform="translate(13.435 610.225) rotate(30) scale(1 -.866) skewX(26.565)" href="#E"><stop offset="0" stop-color="#13edb1"/><stop offset="1" stop-color="#13b3d3"/></linearGradient><linearGradient id="C" x1="27.408" y1="293.559" x2="-217.718" y2="613.81" gradientTransform="translate(7.903 559.225) rotate(30) scale(1 -.866) skewX(26.565)" href="#E"><stop offset="0" stop-color="#13edb1" stop-opacity=".66"/><stop offset="1" stop-color="#13b3d3" stop-opacity=".68"/></linearGradient><linearGradient id="D" x1="27.408" y1="293.559" x2="-217.718" y2="613.81" gradientTransform="translate(1.903 428.225) rotate(30) scale(1 -.866) skewX(26.565)" href="#E"><stop offset="0" stop-color="#13edb1" stop-opacity=".66"/><stop offset="1" stop-color="#13b3d3" stop-opacity=".68"/></linearGradient><linearGradient id="E" gradientUnits="userSpaceOnUse"/></defs><path d="M362.137 228.805L616.272 375.53c27.263 15.74 27.263 41.26 0 57L373.309 572.805c-27.263 15.74-71.464 15.74-98.727 0L20.447 426.08c-27.263-15.74-27.263-41.26 0-57L263.41 228.805c27.263-15.74 71.464-15.74 98.727 0z" fill="url(#A)"/><path d="M367.137 193.805L621.272 340.53c27.263 15.74 27.263 41.26 0 57L378.309 537.805c-27.263 15.74-71.464 15.74-98.727 0L25.447 391.08c-27.263-15.74-27.263-41.26 0-57L268.41 193.805c27.263-15.74 71.464-15.74 98.727 0z" fill="url(#B)"/><path d="M361.605 142.805L564.349 259.86c27.263 15.74 27.263 41.26 0 57L373.918 426.805c-27.263 15.74-71.464 15.74-98.727 0L72.447 309.75c-27.263-15.74-27.263-41.26 0-57l190.431-109.945c27.263-15.74 71.464-15.74 98.727 0z" fill="url(#C)"/><path d="M355.605 11.805L558.349 128.86c27.263 15.74 27.263 41.26 0 57L367.918 295.805c-27.263 15.74-71.464 15.74-98.727 0L66.447 178.75c-27.263-15.74-27.263-41.26 0-57L256.878 11.805c27.263-15.74 71.464-15.74 98.727 0z" fill="url(#D)"/><path d="M291.898 199.074c-16.516-2.05-31.193 6.424-27.642 15.959l16.972 45.577c3.875 10.405 26.17 14.202 39.205 6.676l11.599-6.697 92.356 53.322 33.849-2.15 4.321-19.887-92.356-53.322 12.2-7.044c13.035-7.526 6.459-20.397-11.563-22.635l-78.941-9.799zm82.249 176.37c16.593 1.294 30.867-7.842 26.884-17.205l-19.037-44.753c-4.347-10.218-26.792-12.992-39.469-4.878l-11.281 7.22-94.696-49.046-33.715 3.695-3.408 20.063 94.696 49.046-11.865 7.594c-12.678 8.113-5.521 20.671 12.585 22.083l79.306 6.181z" style="mix-blend-mode:screen" fill="#fff" fill-rule="evenodd"/></svg>