<svg xmlns="http://www.w3.org/2000/svg" fill="none" viewBox="0 172.5 794 839.5">
<rect width="372" height="112" transform="matrix(0.866025 0.5 0 1 90.5 713.996)" fill="url(#paint0_linear_149_11)"/>
<path d="M197 836L260 872.373V889.417L197 853.044V836Z" fill="white"/>
<path d="M197 836L260 872.373V889.417L197 853.044V836Z" fill="white"/>
<path d="M197 813L260 849.373V866.417L197 830.044V813Z" fill="white"/>
<path d="M197 813L260 849.373V866.417L197 830.044V813Z" fill="white"/>
<rect width="372" height="372.312" transform="matrix(0.866025 -0.5 0.866025 0.5 90.5 713.996)" fill="url(#paint1_linear_149_11)"/>
<g style="mix-blend-mode:screen">
<rect width="288.001" height="287.999" transform="matrix(0.866025 -0.5 0.866025 0.5 163.086 712.997)" fill="url(#paint2_linear_149_11)"/>
</g>
<g style="mix-blend-mode:screen">
<path d="M412.5 238.997L794 278.496L661.917 714.046L412.5 858.047V238.997Z" fill="url(#paint3_linear_149_11)"/>
</g>
<rect width="372" height="112" transform="matrix(0.866025 -0.5 0 1 412.5 899.996)" fill="url(#paint4_linear_149_11)"/>
<g style="mix-blend-mode:screen">
<mask id="path-8-inside-1_149_11" fill="white">
<rect width="339.208" height="342.229" rx="4" transform="matrix(0.861504 -0.50775 0.861504 0.50775 118.172 710.232)"/>
</mask>
<rect width="339.208" height="342.229" rx="4" transform="matrix(0.861504 -0.50775 0.861504 0.50775 118.172 710.232)" stroke="white" stroke-width="12" mask="url(#path-8-inside-1_149_11)"/>
</g>
<ellipse cx="184.89" cy="170.99" rx="184.89" ry="170.99" transform="matrix(0.872324 -0.488929 0.872324 0.488929 91 463.796)" fill="url(#paint5_linear_149_11)"/>
<ellipse cx="182.411" cy="176.536" rx="182.411" ry="176.536" transform="matrix(0.872324 -0.488929 0.872324 0.488929 82 418.372)" fill="url(#paint6_linear_149_11)"/>
<path d="M531.796 334.193C607.859 376.825 608.166 445.773 532.483 488.193C456.8 530.613 333.786 530.44 257.723 487.808C181.661 445.176 181.353 376.227 257.036 333.808C332.719 291.388 455.734 291.561 531.796 334.193Z" fill="#29F3F7"/>
<g style="mix-blend-mode:screen">
<path d="M0 172.496L412.917 238.398V857.447L163.5 713.447L0 172.496Z" fill="url(#paint7_linear_149_11)"/>
</g>
<path d="M540 857.373L603 821V838.044L540 874.417V857.373Z" fill="white"/>
<path d="M540 857.373L603 821V838.044L540 874.417V857.373Z" fill="white"/>
<path d="M540 882.373L603 846V863.044L540 899.417V882.373Z" fill="white"/>
<path d="M540 882.373L603 846V863.044L540 899.417V882.373Z" fill="white"/>
<g style="mix-blend-mode:screen" filter="url(#filter0_i_149_11)">
<path d="M433.626 388.8L456.1 375.825L464.803 380.85L442.33 393.825L433.626 388.8ZM416.349 378.825L438.822 365.85L447.526 370.875L425.053 383.85L416.349 378.825ZM337.498 444.3L359.971 431.325L368.674 436.35L346.201 449.325L337.498 444.3ZM320.22 434.325L342.694 421.35L351.397 426.375L328.924 439.35L320.22 434.325ZM319.571 419.25L412.322 365.7L434.666 378.6C442.113 382.9 447.526 386.925 450.904 390.675C454.454 394.425 455.753 398.025 454.801 401.475C454.021 404.925 450.73 408.325 444.928 411.675C441.464 413.675 437.87 415.25 434.146 416.4C430.422 417.55 426.828 418.175 423.364 418.275C419.9 418.375 416.739 417.9 413.881 416.85L413.231 417.225C415.137 419.025 416.306 420.95 416.739 423C417.172 425.05 416.522 427.275 414.79 429.675C413.058 432.075 409.767 434.675 404.918 437.475C399.288 440.725 393.226 442.825 386.731 443.775C380.322 444.675 373.741 444.425 366.986 443.025C360.404 441.625 353.995 439.125 347.76 435.525L319.571 419.25ZM400.111 401.1C404.441 403.6 408.338 404.8 411.802 404.7C415.267 404.6 418.731 403.55 422.195 401.55C425.746 399.5 427.304 397.45 426.871 395.4C426.438 393.35 424.057 391.075 419.727 388.575L415.83 386.325L395.175 398.25L400.111 401.1ZM379.586 407.25L355.424 421.2L361.79 424.875C366.293 427.475 370.536 428.625 374.52 428.325C378.677 428.025 382.661 426.775 386.471 424.575C388.81 423.225 390.455 421.825 391.408 420.375C392.36 418.925 392.36 417.375 391.408 415.725C390.542 414.125 388.506 412.4 385.302 410.55L379.586 407.25Z" fill="white"/>
</g>
<path d="M369.418 302.223C325.072 305.992 284.198 318.332 253.785 337.131L309.199 365.677C327.713 354.232 352.597 346.72 379.595 344.425L369.418 302.223Z" fill="white" fill-opacity="0.64"/>
<path d="M438.424 303.403C425.94 301.894 413.202 301.093 400.401 301.011L398.457 343.687C406.25 343.737 414.004 344.225 421.605 345.144L438.424 303.403Z" fill="white" fill-opacity="0.64"/>
<path d="M525.764 328.555C509.773 320.419 491.432 313.882 471.51 309.22L441.747 348.685C453.875 351.523 465.041 355.503 474.777 360.456L525.764 328.555Z" fill="white" fill-opacity="0.64"/>
<path d="M588.38 404.633C587.073 383.939 575.357 363.969 554.603 347.058L492.333 371.72C504.968 382.015 512.101 394.173 512.896 406.772L588.38 404.633Z" fill="white" fill-opacity="0.64"/>
<path d="M576.061 447.147C582.481 437.486 586.467 427.381 587.901 417.131L512.605 414.38C511.732 420.62 509.305 426.772 505.397 432.653L576.061 447.147Z" fill="white" fill-opacity="0.64"/>
<path d="M560.455 465.372C563.902 462.137 567.054 458.805 569.899 455.391L501.645 437.672C499.913 439.751 497.994 441.779 495.896 443.748L560.455 465.372Z" fill="white" fill-opacity="0.64"/>
<path d="M500.824 500.634C520.323 493.297 537.364 484.048 551.126 473.333L490.217 448.595C481.839 455.118 471.464 460.749 459.593 465.216L500.824 500.634Z" fill="white" fill-opacity="0.64"/>
<path d="M241.748 345.326C227.662 355.907 217.04 367.813 210.396 380.468L282.784 392.06C286.828 384.356 293.295 377.108 301.871 370.666L241.748 345.326Z" fill="white" fill-opacity="0.64"/>
<path d="M207.047 387.749C203.652 396.323 202.091 405.082 202.398 413.837L277.914 412.375C277.728 407.045 278.678 401.712 280.745 396.493L207.047 387.749Z" fill="white" fill-opacity="0.64"/>
<path d="M204.615 428.281C209.07 444.57 220.029 460.022 236.667 473.469L298.777 448.678C288.649 440.491 281.976 431.085 279.264 421.168L204.615 428.281Z" fill="white" fill-opacity="0.64"/>
<path d="M241.374 477.108C247.474 481.621 254.2 485.851 261.49 489.758L313.889 458.595C309.451 456.216 305.357 453.641 301.643 450.893L241.374 477.108Z" fill="white" fill-opacity="0.64"/>
<path d="M275.536 496.58C291.096 503.418 308.464 508.844 327.028 512.665L353.788 472.54C342.487 470.214 331.913 466.911 322.44 462.748L275.536 496.58Z" fill="white" fill-opacity="0.64"/>
<path d="M409.359 518.784C436.542 517.451 463.001 512.885 486.996 505.386L451.175 468.108C436.567 472.674 420.459 475.453 403.91 476.265L409.359 518.784Z" fill="white" fill-opacity="0.64"/>
<path d="M347.876 516.21C363.51 518.327 379.58 519.324 395.71 519.179L395.601 476.506C385.781 476.594 375.998 475.987 366.48 474.698L347.876 516.21Z" fill="white" fill-opacity="0.64"/>
<defs>
<filter id="filter0_i_149_11" x="306.844" y="358.125" width="177.055" height="106.225" filterUnits="userSpaceOnUse" color-interpolation-filters="sRGB">
<feFlood flood-opacity="0" result="BackgroundImageFix"/>
<feBlend mode="normal" in="SourceGraphic" in2="BackgroundImageFix" result="shape"/>
<feColorMatrix in="SourceAlpha" type="matrix" values="0 0 0 0 0 0 0 0 0 0 0 0 0 0 0 0 0 0 127 0" result="hardAlpha"/>
<feOffset dy="4"/>
<feGaussianBlur stdDeviation="2"/>
<feComposite in2="hardAlpha" operator="arithmetic" k2="-1" k3="1"/>
<feColorMatrix type="matrix" values="0 0 0 0 0 0 0 0 0 0 0 0 0 0 0 0 0 0 0.25 0"/>
<feBlend mode="normal" in2="shape" result="effect1_innerShadow_149_11"/>
</filter>
<linearGradient id="paint0_linear_149_11" x1="6.97221" y1="120.663" x2="40.975" y2="-67.2884" gradientUnits="userSpaceOnUse">
<stop stop-color="#13B3D3"/>
<stop offset="1" stop-color="#13EDB1"/>
</linearGradient>
<linearGradient id="paint1_linear_149_11" x1="6.97221" y1="401.11" x2="291.947" y2="-72.7487" gradientUnits="userSpaceOnUse">
<stop stop-color="#13B3D3"/>
</linearGradient>
<linearGradient id="paint2_linear_149_11" x1="5.39787" y1="310.276" x2="225.75" y2="-56.4389" gradientUnits="userSpaceOnUse">
<stop stop-color="#13EEB0"/>
<stop offset="1" stop-color="#13B3D3"/>
</linearGradient>
<linearGradient id="paint3_linear_149_11" x1="79.8703" y1="752.634" x2="12.2707" y2="377.341" gradientUnits="userSpaceOnUse">
<stop stop-color="#13EEB0" stop-opacity="0.26"/>
<stop offset="0.501061" stop-color="#13B3D3" stop-opacity="0.26"/>
<stop offset="0.756675" stop-color="#13B3D3" stop-opacity="0"/>
</linearGradient>
<linearGradient id="paint4_linear_149_11" x1="295.059" y1="120.663" x2="285.564" y2="-22.4991" gradientUnits="userSpaceOnUse">
<stop stop-color="#13B3D3"/>
<stop offset="1" stop-color="#12EBB2"/>
</linearGradient>
<linearGradient id="paint5_linear_149_11" x1="-11.841" y1="240.4" x2="391.801" y2="144.372" gradientUnits="userSpaceOnUse">
<stop stop-color="#0993C7"/>
</linearGradient>
<linearGradient id="paint6_linear_149_11" x1="-11.6823" y1="248.198" x2="388.41" y2="157.241" gradientUnits="userSpaceOnUse">
<stop stop-color="#0EB9DA"/>
<stop offset="1" stop-color="#33FFA3"/>
</linearGradient>
<linearGradient id="paint7_linear_149_11" x1="161.816" y1="849.031" x2="-20.5166" y2="231.22" gradientUnits="userSpaceOnUse">
<stop stop-color="#13EEB0" stop-opacity="0.26"/>
<stop offset="0.501061" stop-color="#13B3D3" stop-opacity="0.26"/>
<stop offset="0.756675" stop-color="#13B3D3" stop-opacity="0"/>
</linearGradient>
</defs>
</svg>