<?xml version="1.0" encoding="UTF-8"?>
<svg xmlns="http://www.w3.org/2000/svg" xmlns:xlink="http://www.w3.org/1999/xlink" version="1.1" viewBox="0 0 536.3 743.8">
  <!-- Generator: Adobe Illustrator 29.4.0, SVG Export Plug-In . SVG Version: 2.1.0 Build 152)  -->
  <defs>
    <style>
      .st0 {
        fill: url(#linear-gradient2);
      }

      .st1 {
        fill: url(#linear-gradient1);
      }

      .st2 {
        fill: url(#linear-gradient3);
      }

      .st3 {
        fill: url(#linear-gradient4);
      }

      .st4 {
        fill: none;
        stroke: #9fffd4;
        stroke-width: 5px;
      }

      .st5 {
        fill: url(#linear-gradient);
      }

      .st6 {
        fill: #13b3d3;
      }

      .st7 {
        isolation: isolate;
      }

      .st8 {
        fill: #fff;
      }

      .st9 {
        mix-blend-mode: screen;
      }

      .st10 {
        fill: #33ffa3;
      }

      .st11 {
        fill: #9fffd4;
      }
    </style>
    <linearGradient id="linear-gradient" x1="-90.5" y1="392.4" x2="-99.8" y2="808.6" gradientTransform="translate(-150.7 915.3) rotate(30.3) scale(1 -.9) skewX(26.1)" gradientUnits="userSpaceOnUse">
      <stop offset="0" stop-color="#13edb1"/>
      <stop offset="1" stop-color="#13b3d3"/>
    </linearGradient>
    <linearGradient id="linear-gradient1" x1="-76.5" y1="808.4" x2="-137.8" y2="702" gradientTransform="translate(82.3 822.6) rotate(-10.8) scale(1 -.9) skewX(27.2)" gradientUnits="userSpaceOnUse">
      <stop offset="0" stop-color="#13edb1"/>
      <stop offset="1" stop-color="#13b3d3"/>
    </linearGradient>
    <linearGradient id="linear-gradient2" x1="149" y1="805.6" x2="89.1" y2="700" gradientTransform="translate(627.1 841.6) rotate(-10.8) scale(1 -.9) skewX(-26.2)" gradientUnits="userSpaceOnUse">
      <stop offset="0" stop-color="#13edb1"/>
      <stop offset="1" stop-color="#13b3d3"/>
    </linearGradient>
    <linearGradient id="linear-gradient3" x1="149" y1="642" x2="89.1" y2="536.4" gradientTransform="translate(684.5 732.1) rotate(-69.8) scale(1 -.9) skewX(26.2)" gradientUnits="userSpaceOnUse">
      <stop offset="0" stop-color="#13edb1"/>
      <stop offset="1" stop-color="#13b3d3"/>
    </linearGradient>
    <linearGradient id="linear-gradient4" x1="284.1" y1="556.1" x2="283.9" y2="207.1" gradientTransform="translate(0 772) scale(1 -1)" gradientUnits="userSpaceOnUse">
      <stop offset=".3" stop-color="#9fffd4" stop-opacity="0"/>
      <stop offset=".6" stop-color="#9fffd4" stop-opacity=".1"/>
      <stop offset="1" stop-color="#9fffd4" stop-opacity=".5"/>
    </linearGradient>
  </defs>
  <g class="st7">
    <g id="Layer_1">
      <g id="Group_139">
        <path id="Ellipse_8" class="st6" d="M461.4,701.2c-97.6,57.1-256.3,56.7-354.6-.7-98.2-57.4-98.7-150.2-1.2-207.3,97.6-57.1,256.3-56.7,354.6.7,98.2,57.4,98.7,150.2,1.2,207.3Z"/>
        <path id="Ellipse_9" class="st5" d="M462.3,460.9c98.2,57.4,98.7,150.2,1.2,207.3-97.6,57.1-256.3,56.7-354.6-.7-98.2-57.4-98.7-150.2-1.2-207.3,97.6-57.1,256.3-56.7,354.6.7Z"/>
        <g id="Ellipse_10" class="st9">
          <path class="st10" d="M362.8,517.9c43.4,25.4,43.4,66.5,0,91.9-43.4,25.4-113.8,25.4-157.2,0s-43.4-66.5,0-91.9c43.4-25.4,113.8-25.4,157.2,0Z"/>
        </g>
        <g id="Ellipse_11" class="st9">
          <path class="st11" d="M362.8,517.9c43.4,25.4,43.4,66.5,0,91.9-43.4,25.4-113.8,25.4-157.2,0s-43.4-66.5,0-91.9c43.4-25.4,113.8-25.4,157.2,0Z"/>
        </g>
        <g id="Ellipse_13" class="st9">
          <path class="st4" d="M391.9,355.9c-117.1,17.7-272.4-45.2-347-140.7C-29.6,119.8,5,28.1,122.1,10.4,239.1-7.3,394.5,55.6,469.1,151.1c74.5,95.5,39.9,187.1-77.1,204.9Z"/>
        </g>
        <g id="Ellipse_14" class="st9">
          <path class="st4" d="M498.9,195c-63,100.2-212.1,176.8-333.1,171-121-5.9-167.8-92-104.8-192.2C124,73.5,273.1-3,394.1,2.8c121,5.9,167.8,92,104.8,192.2Z"/>
        </g>
        <g id="Group_9">
          <polygon id="Rectangle_114" class="st1" points="195.6 84.2 325.1 59.5 279.6 183.4 150.1 208.1 195.6 84.2"/>
          <polygon id="Rectangle_115" class="st0" points="150.2 207.9 279.8 183.2 363.9 282.4 234.3 307.1 150.2 207.9"/>
          <polygon id="Rectangle_116" class="st2" points="279.6 183.4 325.1 59.6 409.2 158.7 363.7 282.5 279.6 183.4"/>
        </g>
        <path id="Rectangle_117" class="st3" d="M173,216h222v349l-4.5,18-12,15.5-29,18-33.5,9-33.5,4-35-4.5-17-4.5-16-6.5-14.5-8-13.5-11.5-9-13.5-4.5-16V216Z"/>
        <g id="ASERT">
          <path class="st8" d="M175.3,149.1l19.6-24.5,5.5-.9,2,21.2-5.9.9-1-18.8,2.2-.3-16.7,21.6-5.7.9ZM182.6,143.4l3-4.2,12.5-1.9v3.8s-15.5,2.4-15.5,2.4ZM212.8,143.7c-1.9.3-3.7.4-5.3.1-1.6-.2-2.8-.6-3.5-1.3l3.4-4.3c.8.5,1.8.9,3,1.2,1.3.2,2.6.2,4.1,0,1.1-.2,2-.4,2.8-.7.8-.3,1.4-.7,1.9-1.1s.8-.9,1-1.3c.2-.6.2-1-.2-1.3-.4-.3-.9-.5-1.7-.6-.7-.1-1.6-.2-2.5-.2-.9,0-1.8-.2-2.7-.3-.9-.2-1.6-.4-2.3-.8-.6-.3-1.1-.9-1.3-1.6-.2-.7,0-1.7.4-2.9.5-1.3,1.3-2.5,2.5-3.7,1.2-1.2,2.6-2.2,4.4-3.1,1.8-.9,3.8-1.5,6.1-1.9,1.5-.2,3-.3,4.3-.2,1.3,0,2.5.4,3.3.9l-3.3,4.3c-.9-.4-1.9-.7-2.9-.8-1-.1-2.1-.1-3.1,0-1.1.2-2,.4-2.8.8-.8.3-1.4.7-1.9,1.2-.4.4-.8.9-1,1.4-.2.6-.2,1,.2,1.3.4.3.9.4,1.7.5.7,0,1.6.2,2.5.2.9,0,1.8.2,2.7.3.9.1,1.7.4,2.3.7.6.3,1.1.9,1.3,1.6.2.7.1,1.6-.4,2.8-.5,1.3-1.3,2.5-2.5,3.7-1.2,1.2-2.6,2.2-4.4,3.1-1.8.9-3.8,1.5-6.1,1.9ZM237.5,126.6l11.7-1.8-1.6,4.1-11.7,1.8,1.6-4.1ZM234.3,136l13.2-2-1.6,4.2-18.7,2.9,8.8-22.8,18.3-2.8-1.6,4.2-12.7,2-5.6,14.4ZM250.3,137.5l8.8-22.8,10.5-1.6c2.2-.3,3.9-.3,5.2.1,1.3.4,2.2,1.2,2.5,2.3.4,1.1.2,2.5-.4,4.2-.7,1.7-1.7,3.2-3,4.6-1.3,1.4-2.9,2.5-4.7,3.4-1.8.9-3.8,1.5-6,1.8l-7.4,1.1,3.4-2.7-3.4,8.7-5.6.9ZM265.6,135.1l-2.8-7.4,6-.9,2.9,7.3-6.1.9ZM259,128.5l-1.5-2.1,7.1-1.1c1.7-.3,3.2-.8,4.3-1.6,1.1-.9,1.9-1.9,2.4-3.1.5-1.3.4-2.2-.1-2.7-.6-.6-1.7-.7-3.5-.4l-7.1,1.1,3.5-2.9-5,13ZM280.4,132.8l7.2-18.5-7.7,1.2,1.7-4.3,21.1-3.3-1.7,4.3-7.7,1.2-7.2,18.5-5.6.9Z"/>
        </g>
      </g>
    </g>
  </g>
</svg>