<svg xmlns="http://www.w3.org/2000/svg" viewBox="0 0 536.3 743.8" xmlns:v="https://vecta.io/nano"><style>.A{isolation:isolate}.D{mix-blend-mode:screen}</style><defs><linearGradient id="A" x1="-90.5" y1="392.4" x2="-99.8" y2="808.6" gradientTransform="translate(-150.7 915.3) rotate(30.3) scale(1 -.9) skewX(26.1)" href="#G"><stop offset="0" stop-color="#13edb1"/><stop offset="1" stop-color="#13b3d3"/></linearGradient><linearGradient id="B" x1="-76.5" y1="808.4" x2="-137.8" y2="702" gradientTransform="translate(82.3 822.6) rotate(-10.8) scale(1 -.9) skewX(27.2)" href="#G"><stop offset="0" stop-color="#13edb1"/><stop offset="1" stop-color="#13b3d3"/></linearGradient><linearGradient id="C" x1="149" y1="805.6" x2="89.1" y2="700" gradientTransform="translate(627.1 841.6) rotate(-10.8) scale(1 -.9) skewX(-26.2)" href="#G"><stop offset="0" stop-color="#13edb1"/><stop offset="1" stop-color="#13b3d3"/></linearGradient><linearGradient id="D" x1="149" y1="642" x2="89.1" y2="536.4" gradientTransform="translate(684.5 732.1) rotate(-69.8) scale(1 -.9) skewX(26.2)" href="#G"><stop offset="0" stop-color="#13edb1"/><stop offset="1" stop-color="#13b3d3"/></linearGradient><linearGradient id="E" x1="284.1" y1="215.9" x2="283.9" y2="564.9" href="#G"><stop offset=".3" stop-color="#9fffd4" stop-opacity="0"/><stop offset=".6" stop-color="#9fffd4" stop-opacity=".1"/><stop offset="1" stop-color="#9fffd4" stop-opacity=".5"/></linearGradient><path id="F" d="M362.8 517.9c43.4 25.4 43.4 66.5 0 91.9s-113.8 25.4-157.2 0-43.4-66.5 0-91.9 113.8-25.4 157.2 0z"/><linearGradient id="G" gradientUnits="userSpaceOnUse"/></defs><g class="A"><path d="M461.4,701.2c-97.6,57.1-256.3,56.7-354.6-.7-98.2-57.4-98.7-150.2-1.2-207.3,97.6-57.1,256.3-56.7,354.6.7,98.2,57.4,98.7,150.2,1.2,207.3Z" fill="#13b3d3"/><path d="M462.3,460.9c98.2,57.4,98.7,150.2,1.2,207.3-97.6,57.1-256.3,56.7-354.6-.7-98.2-57.4-98.7-150.2-1.2-207.3,97.6-57.1,256.3-56.7,354.6.7Z" fill="url(#A)"/><use href="#F" class="D" fill="#33ffa3"/><use href="#F" class="D" fill="#9fffd4"/><g fill="none" stroke="#9fffd4" stroke-width="5" class="D"><path d="M391.9 355.9c-117.1 17.7-272.4-45.2-347-140.7C-29.6 119.8 5 28.1 122.1 10.4c117-17.7 272.4 45.2 347 140.7C543.6 246.6 509 338.2 392 356z"/><path d="M498.9 195c-63 100.2-212.1 176.8-333.1 171C44.8 360.1-2 274 61 173.8 124 73.5 273.1-3 394.1 2.8c121 5.9 167.8 92 104.8 192.2z"/></g><path d="M195.6 84.2l129.5-24.7-45.5 123.9-129.5 24.7 45.5-123.9z" fill="url(#B)"/><path d="M150.2 207.9l129.6-24.7 84.1 99.2-129.6 24.7-84.1-99.2z" fill="url(#C)"/><path d="M279.6 183.4l45.5-123.8 84.1 99.1-45.5 123.8-84.1-99.1z" fill="url(#D)"/><path d="M173,216h222v349l-4.5,18-12,15.5-29,18-33.5,9-33.5,4-35-4.5-17-4.5-16-6.5-14.5-8-13.5-11.5-9-13.5-4.5-16V216Z" fill="url(#E)"/><path d="M175.3 149.1l19.6-24.5 5.5-.9 2 21.2-5.9.9-1-18.8 2.2-.3-16.7 21.6-5.7.9zm7.3-5.7l3-4.2 12.5-1.9v3.8l-15.5 2.4zm30.2.3c-1.9.3-3.7.4-5.3.1-1.6-.2-2.8-.6-3.5-1.3l3.4-4.3c.8.5 1.8.9 3 1.2 1.3.2 2.6.2 4.1 0 1.1-.2 2-.4 2.8-.7s1.4-.7 1.9-1.1.8-.9 1-1.3c.2-.6.2-1-.2-1.3s-.9-.5-1.7-.6c-.7-.1-1.6-.2-2.5-.2s-1.8-.2-2.7-.3c-.9-.2-1.6-.4-2.3-.8-.6-.3-1.1-.9-1.3-1.6s0-1.7.4-2.9c.5-1.3 1.3-2.5 2.5-3.7s2.6-2.2 4.4-3.1 3.8-1.5 6.1-1.9c1.5-.2 3-.3 4.3-.2 1.3 0 2.5.4 3.3.9l-3.3 4.3c-.9-.4-1.9-.7-2.9-.8s-2.1-.1-3.1 0c-1.1.2-2 .4-2.8.8-.8.3-1.4.7-1.9 1.2-.4.4-.8.9-1 1.4-.2.6-.2 1 .2 1.3s.9.4 1.7.5c.7 0 1.6.2 2.5.2s1.8.2 2.7.3 1.7.4 2.3.7 1.1.9 1.3 1.6.1 1.6-.4 2.8c-.5 1.3-1.3 2.5-2.5 3.7s-2.6 2.2-4.4 3.1-3.8 1.5-6.1 1.9zm24.7-17.1l11.7-1.8-1.6 4.1-11.7 1.8 1.6-4.1zm-3.2 9.4l13.2-2-1.6 4.2-18.7 2.9 8.8-22.8 18.3-2.8-1.6 4.2-12.7 2-5.6 14.4zm16 1.5l8.8-22.8 10.5-1.6c2.2-.3 3.9-.3 5.2.1s2.2 1.2 2.5 2.3c.4 1.1.2 2.5-.4 4.2-.7 1.7-1.7 3.2-3 4.6s-2.9 2.5-4.7 3.4-3.8 1.5-6 1.8l-7.4 1.1 3.4-2.7-3.4 8.7-5.6.9zm15.3-2.4l-2.8-7.4 6-.9 2.9 7.3-6.1.9zm-6.6-6.6l-1.5-2.1 7.1-1.1c1.7-.3 3.2-.8 4.3-1.6 1.1-.9 1.9-1.9 2.4-3.1.5-1.3.4-2.2-.1-2.7-.6-.6-1.7-.7-3.5-.4l-7.1 1.1 3.5-2.9-5 13zm21.4 4.3l7.2-18.5-7.7 1.2 1.7-4.3 21.1-3.3-1.7 4.3-7.7 1.2-7.2 18.5-5.6.9z" fill="#fff"/></g></svg>