<svg width="710" height="747" viewBox="0 0 710 747" fill="none" xmlns="http://www.w3.org/2000/svg">
<path d="M0 518.218L393.662 288.255L710 473.048L316.338 703.011L0 518.218Z" fill="url(#paint0_linear_154_47)"/>
<path d="M0 518.218L393.662 288.255L710 473.048L316.338 703.011L0 518.218Z" fill="url(#paint1_linear_154_47)"/>
<path d="M59.3516 517.598L174.808 450.153L180.15 453.273L64.6928 520.718L59.3516 517.598Z" fill="url(#paint2_linear_154_47)"/>
<path d="M59.3516 517.598L174.808 450.153L180.15 453.273L64.6928 520.718L59.3516 517.598Z" fill="url(#paint3_linear_154_47)"/>
<path d="M278.062 388.794L393.519 321.348L398.861 324.468L283.404 391.914L278.062 388.794Z" fill="url(#paint4_linear_154_47)"/>
<path d="M278.062 388.794L393.519 321.348L398.861 324.468L283.404 391.914L278.062 388.794Z" fill="url(#paint5_linear_154_47)"/>
<path d="M316.531 672.942L431.988 605.496L437.329 608.616L321.872 676.062L316.531 672.942Z" fill="url(#paint6_linear_154_47)"/>
<path d="M316.531 672.942L431.988 605.496L437.329 608.616L321.872 676.062L316.531 672.942Z" fill="url(#paint7_linear_154_47)"/>
<path d="M538.547 545.132L654.004 477.687L659.345 480.807L543.888 548.252L538.547 545.132Z" fill="url(#paint8_linear_154_47)"/>
<path d="M538.547 545.132L654.004 477.687L659.345 480.807L543.888 548.252L538.547 545.132Z" fill="url(#paint9_linear_154_47)"/>
<path d="M59.3516 517.598L174.079 586.372L168.772 589.554L54.0441 520.78L59.3516 517.598Z" fill="url(#paint10_linear_154_47)"/>
<path d="M59.3516 517.598L174.079 586.372L168.772 589.554L54.0441 520.78L59.3516 517.598Z" fill="url(#paint11_linear_154_47)"/>
<path d="M393.281 321.349L508.009 390.123L502.701 393.304L387.974 324.53L393.281 321.349Z" fill="url(#paint12_linear_154_47)"/>
<path d="M393.281 321.349L508.009 390.123L502.701 393.304L387.974 324.53L393.281 321.349Z" fill="url(#paint13_linear_154_47)"/>
<path d="M539.453 409.218L654.181 477.992L648.873 481.174L534.146 412.399L539.453 409.218Z" fill="url(#paint14_linear_154_47)"/>
<path d="M539.453 409.218L654.181 477.992L648.873 481.174L534.146 412.399L539.453 409.218Z" fill="url(#paint15_linear_154_47)"/>
<path d="M210.836 605.496L325.563 674.27L320.256 677.452L205.528 608.678L210.836 605.496Z" fill="url(#paint16_linear_154_47)"/>
<path d="M210.836 605.496L325.563 674.27L320.256 677.452L205.528 608.678L210.836 605.496Z" fill="url(#paint17_linear_154_47)"/>
<path d="M0 518.181L317.019 703.372V747L0 561.809V518.181Z" fill="url(#paint18_linear_154_47)"/>
<path d="M0 518.181L317.019 703.372V747L0 561.809V518.181Z" fill="url(#paint19_linear_154_47)"/>
<path d="M317.023 702.204L709.791 472.763V516.391L317.023 745.831V702.204Z" fill="url(#paint20_linear_154_47)"/>
<path d="M317.023 702.204L709.791 472.763V516.391L317.023 745.831V702.204Z" fill="url(#paint21_linear_154_47)"/>
<ellipse cx="10.5425" cy="9.98768" rx="10.5425" ry="9.98768" transform="matrix(0.857698 -0.514154 0.857698 0.514154 164.859 448.587)" fill="#FFFEFE"/>
<ellipse cx="10.5425" cy="9.98768" rx="10.5425" ry="9.98768" transform="matrix(0.857698 -0.514154 0.857698 0.514154 148.375 584.385)" fill="#FFFEFE"/>
<ellipse cx="10.5425" cy="9.98768" rx="10.5425" ry="9.98768" transform="matrix(0.857698 -0.514154 0.857698 0.514154 419.844 604.926)" fill="#FFFEFE"/>
<ellipse cx="10.5425" cy="9.98768" rx="10.5425" ry="9.98768" transform="matrix(0.857698 -0.514154 0.857698 0.514154 520.961 549.009)" fill="#FFFEFE"/>
<ellipse cx="10.5425" cy="9.98768" rx="10.5425" ry="9.98768" transform="matrix(0.857698 -0.514154 0.857698 0.514154 519.859 412.07)" fill="#FFFEFE"/>
<ellipse cx="10.5425" cy="9.98768" rx="10.5425" ry="9.98768" transform="matrix(0.857698 -0.514154 0.857698 0.514154 484.688 389.247)" fill="#FFFEFE"/>
<ellipse cx="10.5425" cy="9.98768" rx="10.5425" ry="9.98768" transform="matrix(0.857698 -0.514154 0.857698 0.514154 260.477 391.529)" fill="#FFFEFE"/>
<ellipse cx="10.5425" cy="9.98768" rx="10.5425" ry="9.98768" transform="matrix(0.857698 -0.514154 0.857698 0.514154 187.938 606.067)" fill="#FFFEFE"/>
<rect width="48.8286" height="48.8286" transform="matrix(0.857698 0.514154 -0.857698 0.514154 125.406 495.945)" fill="#A6FFFE"/>
<rect width="48.8286" height="48.8286" transform="matrix(0.857698 0.514154 -0.857698 0.514154 125.406 337.325)" fill="url(#paint22_linear_154_47)"/>
<rect width="48.8286" height="50.2108" transform="matrix(0.857698 0.514154 0 1 83.5234 362.431)" fill="url(#paint23_linear_154_47)"/>
<rect width="48.8286" height="50.2108" transform="matrix(0.857698 -0.514154 0 1 125.289 387.536)" fill="url(#paint24_linear_154_47)"/>
<rect width="48.8286" height="48.8286" transform="matrix(0.857698 0.514154 -0.857698 0.514154 390.281 166.151)" fill="url(#paint25_linear_154_47)"/>
<rect width="48.8286" height="50.2108" transform="matrix(0.857698 0.514154 0 1 348.398 191.257)" fill="url(#paint26_linear_154_47)"/>
<rect width="48.8286" height="50.2108" transform="matrix(0.857698 -0.514154 0 1 390.164 216.362)" fill="url(#paint27_linear_154_47)"/>
<rect width="48.8286" height="48.8286" transform="matrix(0.857698 0.514154 -0.857698 0.514154 583.719 256.303)" fill="url(#paint28_linear_154_47)"/>
<rect width="48.8286" height="50.2108" transform="matrix(0.857698 0.514154 0 1 541.836 281.408)" fill="url(#paint29_linear_154_47)"/>
<rect width="48.8286" height="50.2108" transform="matrix(0.857698 -0.514154 0 1 583.602 306.514)" fill="url(#paint30_linear_154_47)"/>
<rect width="48.8286" height="48.8286" transform="matrix(0.857698 0.514154 -0.857698 0.514154 322.141 608.92)" fill="#A6FFFE"/>
<rect width="48.8286" height="48.8286" transform="matrix(0.857698 0.514154 -0.857698 0.514154 390.281 338.466)" fill="#A6FFFE"/>
<rect width="243.661" height="48.8286" transform="matrix(0.857698 0.514154 -0.857698 0.514154 270.484 420.629)" fill="#A6FFFE"/>
<rect width="243.661" height="431.963" transform="matrix(0.857698 0.514154 0 1 228.609 11.4883)" fill="url(#paint31_linear_154_47)"/>
<rect width="243.661" height="421.048" transform="matrix(0.857698 0.514154 0 1 267.078 0.273438)" fill="url(#paint32_linear_154_47)"/>
<rect width="48.8286" height="48.8286" transform="matrix(0.857698 0.514154 -0.857698 0.514154 583.719 456.005)" fill="#A6FFFE"/>
<rect width="48.8286" height="48.8286" transform="matrix(0.857698 0.514154 -0.857698 0.514154 322.141 477.687)" fill="url(#paint33_linear_154_47)"/>
<rect width="48.8286" height="50.2108" transform="matrix(0.857698 0.514154 0 1 280.258 502.792)" fill="url(#paint34_linear_154_47)"/>
<rect width="48.8286" height="50.2108" transform="matrix(0.857698 -0.514154 0 1 322.023 527.897)" fill="url(#paint35_linear_154_47)"/>
<path d="M83.5312 362.43H165.962L167.061 521.05L125.845 546.156L83.5312 521.05V362.43Z" fill="url(#paint36_linear_154_47)"/>
<path d="M280.266 475.404H362.696L363.795 634.025L322.58 659.13L280.266 634.025V475.404Z" fill="url(#paint37_linear_154_47)"/>
<path d="M348.406 204.95H430.837L431.936 363.571L390.72 388.676L348.406 363.571V204.95Z" fill="url(#paint38_linear_154_47)"/>
<path d="M541.844 322.489H624.274L625.373 481.11L584.158 506.215L541.844 481.11V322.489Z" fill="url(#paint39_linear_154_47)"/>
<g style="mix-blend-mode:screen" filter="url(#filter0_d_154_47)">
<path d="M222.337 223.889L249.098 169.93L262.821 178.157L289.667 264.25L275.086 255.509L253.129 180.547L258.618 183.838L236.575 232.424L222.337 223.889ZM235.718 216.91L239.406 206.82L270.283 225.33L274.057 239.892L235.718 216.91ZM295.896 267.984V197.984L325.229 215.568C332.777 220.093 338.438 225.153 342.211 230.748C346.043 236.378 347.958 241.926 347.958 247.393C347.958 251.06 347.186 253.797 345.642 255.605C344.098 257.346 341.983 258.144 339.295 258C336.608 257.856 333.52 256.738 330.032 254.647L331.662 251.524C335.436 253.786 338.781 256.525 341.697 259.74C344.613 262.888 346.872 266.342 348.473 270.102C350.131 273.896 350.96 277.826 350.96 281.893C350.96 287.893 348.93 291.376 344.87 292.342C340.811 293.242 334.835 291.326 326.944 286.596L295.896 267.984ZM309.705 264.062L325.915 273.779C329.518 275.939 332.234 276.9 334.063 276.664C335.95 276.395 336.894 274.76 336.894 271.76C336.894 268.827 335.95 266.095 334.063 263.564C332.234 261 329.518 258.639 325.915 256.479L308.675 246.145V234.345L323.514 243.24C326.887 245.262 329.46 246.138 331.233 245.867C333.063 245.564 333.978 244.012 333.978 241.212C333.978 238.479 333.063 235.897 331.233 233.467C329.46 231.004 326.887 228.762 323.514 226.74L309.705 218.462V264.062ZM361.48 307.299V237.299L375.374 245.628V302.428L405.479 320.475V333.675L361.48 307.299ZM405.687 333.799L432.447 279.841L446.171 288.067L473.016 374.16L458.436 365.42L436.479 290.457L441.968 293.748L419.925 342.334L405.687 333.799ZM419.067 326.82L422.755 316.731L453.632 335.24L457.406 349.803L419.067 326.82Z" fill="white"/>
</g>
<defs>
<filter id="filter0_d_154_47" x="218.336" y="153.889" width="258.68" height="228.271" filterUnits="userSpaceOnUse" color-interpolation-filters="sRGB">
<feFlood flood-opacity="0" result="BackgroundImageFix"/>
<feColorMatrix in="SourceAlpha" type="matrix" values="0 0 0 0 0 0 0 0 0 0 0 0 0 0 0 0 0 0 127 0" result="hardAlpha"/>
<feOffset dy="4"/>
<feGaussianBlur stdDeviation="2"/>
<feComposite in2="hardAlpha" operator="out"/>
<feColorMatrix type="matrix" values="0 0 0 0 0 0 0 0 0 0 0 0 0 0 0 0 0 0 0.25 0"/>
<feBlend mode="normal" in2="BackgroundImageFix" result="effect1_dropShadow_154_47"/>
<feBlend mode="normal" in="SourceGraphic" in2="effect1_dropShadow_154_47" result="shape"/>
</filter>
<linearGradient id="paint0_linear_154_47" x1="649.002" y1="441.17" x2="279.507" y2="243.415" gradientUnits="userSpaceOnUse">
<stop stop-color="#13EDB1"/>
<stop offset="1" stop-color="#13B3D3"/>
</linearGradient>
<linearGradient id="paint1_linear_154_47" x1="649.002" y1="441.17" x2="279.507" y2="243.415" gradientUnits="userSpaceOnUse">
<stop stop-color="#13EDB1"/>
<stop offset="1" stop-color="#13B3D3"/>
</linearGradient>
<linearGradient id="paint2_linear_154_47" x1="178.231" y1="453.253" x2="174.932" y2="447.935" gradientUnits="userSpaceOnUse">
<stop stop-color="white"/>
</linearGradient>
<linearGradient id="paint3_linear_154_47" x1="178.231" y1="453.253" x2="174.932" y2="447.935" gradientUnits="userSpaceOnUse">
<stop stop-color="white"/>
</linearGradient>
<linearGradient id="paint4_linear_154_47" x1="396.942" y1="324.449" x2="393.643" y2="319.131" gradientUnits="userSpaceOnUse">
<stop stop-color="white"/>
</linearGradient>
<linearGradient id="paint5_linear_154_47" x1="396.942" y1="324.449" x2="393.643" y2="319.131" gradientUnits="userSpaceOnUse">
<stop stop-color="white"/>
</linearGradient>
<linearGradient id="paint6_linear_154_47" x1="435.411" y1="608.597" x2="432.111" y2="603.279" gradientUnits="userSpaceOnUse">
<stop stop-color="white"/>
</linearGradient>
<linearGradient id="paint7_linear_154_47" x1="435.411" y1="608.597" x2="432.111" y2="603.279" gradientUnits="userSpaceOnUse">
<stop stop-color="white"/>
</linearGradient>
<linearGradient id="paint8_linear_154_47" x1="657.427" y1="480.787" x2="654.127" y2="475.469" gradientUnits="userSpaceOnUse">
<stop stop-color="white"/>
</linearGradient>
<linearGradient id="paint9_linear_154_47" x1="657.427" y1="480.787" x2="654.127" y2="475.469" gradientUnits="userSpaceOnUse">
<stop stop-color="white"/>
</linearGradient>
<linearGradient id="paint10_linear_154_47" x1="168.804" y1="588.411" x2="171.831" y2="583.049" gradientUnits="userSpaceOnUse">
<stop stop-color="white"/>
</linearGradient>
<linearGradient id="paint11_linear_154_47" x1="168.804" y1="588.411" x2="171.831" y2="583.049" gradientUnits="userSpaceOnUse">
<stop stop-color="white"/>
</linearGradient>
<linearGradient id="paint12_linear_154_47" x1="502.734" y1="392.162" x2="505.761" y2="386.799" gradientUnits="userSpaceOnUse">
<stop stop-color="white"/>
</linearGradient>
<linearGradient id="paint13_linear_154_47" x1="502.734" y1="392.162" x2="505.761" y2="386.799" gradientUnits="userSpaceOnUse">
<stop stop-color="white"/>
</linearGradient>
<linearGradient id="paint14_linear_154_47" x1="648.906" y1="480.031" x2="651.933" y2="474.668" gradientUnits="userSpaceOnUse">
<stop stop-color="white"/>
</linearGradient>
<linearGradient id="paint15_linear_154_47" x1="648.906" y1="480.031" x2="651.933" y2="474.668" gradientUnits="userSpaceOnUse">
<stop stop-color="white"/>
</linearGradient>
<linearGradient id="paint16_linear_154_47" x1="320.289" y1="676.309" x2="323.315" y2="670.947" gradientUnits="userSpaceOnUse">
<stop stop-color="white"/>
</linearGradient>
<linearGradient id="paint17_linear_154_47" x1="320.289" y1="676.309" x2="323.315" y2="670.947" gradientUnits="userSpaceOnUse">
<stop stop-color="white"/>
</linearGradient>
<linearGradient id="paint18_linear_154_47" x1="288.521" y1="672.105" x2="231.453" y2="729.498" gradientUnits="userSpaceOnUse">
<stop offset="1" stop-color="#13B3D3"/>
</linearGradient>
<linearGradient id="paint19_linear_154_47" x1="288.521" y1="672.105" x2="231.453" y2="729.498" gradientUnits="userSpaceOnUse">
<stop offset="1" stop-color="#13B3D3"/>
</linearGradient>
<linearGradient id="paint20_linear_154_47" x1="674.483" y1="478.769" x2="701.633" y2="586.034" gradientUnits="userSpaceOnUse">
<stop offset="1" stop-color="#13B3D3"/>
</linearGradient>
<linearGradient id="paint21_linear_154_47" x1="674.483" y1="478.769" x2="701.633" y2="586.034" gradientUnits="userSpaceOnUse">
<stop offset="1" stop-color="#13B3D3"/>
</linearGradient>
<linearGradient id="paint22_linear_154_47" x1="34.9657" y1="3.23016" x2="12.3419" y2="44.7701" gradientUnits="userSpaceOnUse">
<stop stop-color="#13EDB1"/>
<stop offset="1" stop-color="#13B3D3"/>
</linearGradient>
<linearGradient id="paint23_linear_154_47" x1="34.9657" y1="3.3216" x2="11.3531" y2="45.4836" gradientUnits="userSpaceOnUse">
<stop stop-color="#13EDB1"/>
<stop offset="1" stop-color="#13B3D3"/>
</linearGradient>
<linearGradient id="paint24_linear_154_47" x1="34.9657" y1="3.3216" x2="11.3531" y2="45.4836" gradientUnits="userSpaceOnUse">
<stop stop-color="#13EDB1"/>
<stop offset="1" stop-color="#13B3D3"/>
</linearGradient>
<linearGradient id="paint25_linear_154_47" x1="34.9657" y1="3.23016" x2="12.3419" y2="44.7701" gradientUnits="userSpaceOnUse">
<stop stop-color="#13EDB1"/>
<stop offset="1" stop-color="#13B3D3"/>
</linearGradient>
<linearGradient id="paint26_linear_154_47" x1="34.9657" y1="3.3216" x2="11.3531" y2="45.4836" gradientUnits="userSpaceOnUse">
<stop stop-color="#13EDB1"/>
<stop offset="1" stop-color="#13B3D3"/>
</linearGradient>
<linearGradient id="paint27_linear_154_47" x1="34.9657" y1="3.3216" x2="11.3531" y2="45.4836" gradientUnits="userSpaceOnUse">
<stop stop-color="#13EDB1"/>
<stop offset="1" stop-color="#13B3D3"/>
</linearGradient>
<linearGradient id="paint28_linear_154_47" x1="34.9657" y1="3.23016" x2="12.3419" y2="44.7701" gradientUnits="userSpaceOnUse">
<stop stop-color="#13EDB1"/>
<stop offset="1" stop-color="#13B3D3"/>
</linearGradient>
<linearGradient id="paint29_linear_154_47" x1="34.9657" y1="3.3216" x2="11.3531" y2="45.4836" gradientUnits="userSpaceOnUse">
<stop stop-color="#13EDB1"/>
<stop offset="1" stop-color="#13B3D3"/>
</linearGradient>
<linearGradient id="paint30_linear_154_47" x1="34.9657" y1="3.3216" x2="11.3531" y2="45.4836" gradientUnits="userSpaceOnUse">
<stop stop-color="#13EDB1"/>
<stop offset="1" stop-color="#13B3D3"/>
</linearGradient>
<linearGradient id="paint31_linear_154_47" x1="127.266" y1="431.963" x2="-80.8731" y2="141.223" gradientUnits="userSpaceOnUse">
<stop stop-color="#A6FFFE" stop-opacity="0.54"/>
<stop offset="1" stop-color="#649998" stop-opacity="0"/>
</linearGradient>
<linearGradient id="paint32_linear_154_47" x1="127.266" y1="421.048" x2="-73.8884" y2="132.78" gradientUnits="userSpaceOnUse">
<stop stop-color="#A6FFFE" stop-opacity="0.54"/>
<stop offset="1" stop-color="#649998" stop-opacity="0"/>
</linearGradient>
<linearGradient id="paint33_linear_154_47" x1="34.9657" y1="3.23016" x2="12.3419" y2="44.7701" gradientUnits="userSpaceOnUse">
<stop stop-color="#13EDB1"/>
<stop offset="1" stop-color="#13B3D3"/>
</linearGradient>
<linearGradient id="paint34_linear_154_47" x1="34.9657" y1="3.3216" x2="11.3531" y2="45.4836" gradientUnits="userSpaceOnUse">
<stop stop-color="#13EDB1"/>
<stop offset="1" stop-color="#13B3D3"/>
</linearGradient>
<linearGradient id="paint35_linear_154_47" x1="34.9657" y1="3.3216" x2="11.3531" y2="45.4836" gradientUnits="userSpaceOnUse">
<stop stop-color="#13EDB1"/>
<stop offset="1" stop-color="#13B3D3"/>
</linearGradient>
<linearGradient id="paint36_linear_154_47" x1="123.239" y1="521.05" x2="126.489" y2="362.435" gradientUnits="userSpaceOnUse">
<stop stop-color="#A6FFFE" stop-opacity="0.38"/>
<stop offset="1" stop-color="#649998" stop-opacity="0"/>
</linearGradient>
<linearGradient id="paint37_linear_154_47" x1="319.974" y1="634.025" x2="323.223" y2="475.409" gradientUnits="userSpaceOnUse">
<stop stop-color="#A6FFFE" stop-opacity="0.38"/>
<stop offset="1" stop-color="#649998" stop-opacity="0"/>
</linearGradient>
<linearGradient id="paint38_linear_154_47" x1="388.114" y1="363.571" x2="391.364" y2="204.955" gradientUnits="userSpaceOnUse">
<stop stop-color="#A6FFFE" stop-opacity="0.38"/>
<stop offset="1" stop-color="#649998" stop-opacity="0"/>
</linearGradient>
<linearGradient id="paint39_linear_154_47" x1="581.552" y1="481.11" x2="584.801" y2="322.494" gradientUnits="userSpaceOnUse">
<stop stop-color="#A6FFFE" stop-opacity="0.38"/>
<stop offset="1" stop-color="#649998" stop-opacity="0"/>
</linearGradient>
</defs>
</svg>
