<svg width="710" height="823" viewBox="0 0 710 823" fill="none" xmlns="http://www.w3.org/2000/svg">
<path d="M0 594.218L393.662 364.255L710 549.048L316.338 779.011L0 594.218Z" fill="url(#paint0_linear_149_25)"/>
<path d="M0 594.218L393.662 364.255L710 549.048L316.338 779.011L0 594.218Z" fill="url(#paint1_linear_149_25)"/>
<path d="M59.3516 593.598L174.808 526.153L180.15 529.273L64.6928 596.718L59.3516 593.598Z" fill="url(#paint2_linear_149_25)"/>
<path d="M59.3516 593.598L174.808 526.153L180.15 529.273L64.6928 596.718L59.3516 593.598Z" fill="url(#paint3_linear_149_25)"/>
<path d="M278.062 464.794L393.519 397.348L398.861 400.468L283.404 467.914L278.062 464.794Z" fill="url(#paint4_linear_149_25)"/>
<path d="M278.062 464.794L393.519 397.348L398.861 400.468L283.404 467.914L278.062 464.794Z" fill="url(#paint5_linear_149_25)"/>
<path d="M316.531 748.942L431.988 681.496L437.329 684.616L321.872 752.062L316.531 748.942Z" fill="url(#paint6_linear_149_25)"/>
<path d="M316.531 748.942L431.988 681.496L437.329 684.616L321.872 752.062L316.531 748.942Z" fill="url(#paint7_linear_149_25)"/>
<path d="M538.547 621.132L654.004 553.687L659.345 556.807L543.888 624.252L538.547 621.132Z" fill="url(#paint8_linear_149_25)"/>
<path d="M538.547 621.132L654.004 553.687L659.345 556.807L543.888 624.252L538.547 621.132Z" fill="url(#paint9_linear_149_25)"/>
<path d="M59.3516 593.598L174.079 662.372L168.772 665.554L54.0441 596.78L59.3516 593.598Z" fill="url(#paint10_linear_149_25)"/>
<path d="M59.3516 593.598L174.079 662.372L168.772 665.554L54.0441 596.78L59.3516 593.598Z" fill="url(#paint11_linear_149_25)"/>
<path d="M393.281 397.349L508.009 466.123L502.701 469.304L387.974 400.53L393.281 397.349Z" fill="url(#paint12_linear_149_25)"/>
<path d="M393.281 397.349L508.009 466.123L502.701 469.304L387.974 400.53L393.281 397.349Z" fill="url(#paint13_linear_149_25)"/>
<path d="M539.453 485.218L654.181 553.992L648.873 557.174L534.146 488.399L539.453 485.218Z" fill="url(#paint14_linear_149_25)"/>
<path d="M539.453 485.218L654.181 553.992L648.873 557.174L534.146 488.399L539.453 485.218Z" fill="url(#paint15_linear_149_25)"/>
<path d="M210.836 681.496L325.563 750.27L320.256 753.452L205.528 684.678L210.836 681.496Z" fill="url(#paint16_linear_149_25)"/>
<path d="M210.836 681.496L325.563 750.27L320.256 753.452L205.528 684.678L210.836 681.496Z" fill="url(#paint17_linear_149_25)"/>
<path d="M0 594.181L317.019 779.372V823L0 637.809V594.181Z" fill="url(#paint18_linear_149_25)"/>
<path d="M0 594.181L317.019 779.372V823L0 637.809V594.181Z" fill="url(#paint19_linear_149_25)"/>
<path d="M317.023 778.204L709.791 548.763V592.391L317.023 821.831V778.204Z" fill="url(#paint20_linear_149_25)"/>
<path d="M317.023 778.204L709.791 548.763V592.391L317.023 821.831V778.204Z" fill="url(#paint21_linear_149_25)"/>
<ellipse cx="10.5425" cy="9.98768" rx="10.5425" ry="9.98768" transform="matrix(0.857698 -0.514154 0.857698 0.514154 164.859 524.587)" fill="#FFFEFE"/>
<ellipse cx="10.5425" cy="9.98768" rx="10.5425" ry="9.98768" transform="matrix(0.857698 -0.514154 0.857698 0.514154 148.375 660.385)" fill="#FFFEFE"/>
<ellipse cx="10.5425" cy="9.98768" rx="10.5425" ry="9.98768" transform="matrix(0.857698 -0.514154 0.857698 0.514154 419.844 680.926)" fill="#FFFEFE"/>
<ellipse cx="10.5425" cy="9.98768" rx="10.5425" ry="9.98768" transform="matrix(0.857698 -0.514154 0.857698 0.514154 520.961 625.009)" fill="#FFFEFE"/>
<ellipse cx="10.5425" cy="9.98768" rx="10.5425" ry="9.98768" transform="matrix(0.857698 -0.514154 0.857698 0.514154 519.859 488.07)" fill="#FFFEFE"/>
<ellipse cx="10.5425" cy="9.98768" rx="10.5425" ry="9.98768" transform="matrix(0.857698 -0.514154 0.857698 0.514154 484.688 465.247)" fill="#FFFEFE"/>
<ellipse cx="10.5425" cy="9.98768" rx="10.5425" ry="9.98768" transform="matrix(0.857698 -0.514154 0.857698 0.514154 260.477 467.529)" fill="#FFFEFE"/>
<ellipse cx="10.5425" cy="9.98768" rx="10.5425" ry="9.98768" transform="matrix(0.857698 -0.514154 0.857698 0.514154 187.938 682.067)" fill="#FFFEFE"/>
<rect width="48.8286" height="48.8286" transform="matrix(0.857698 0.514154 -0.857698 0.514154 125.406 571.945)" fill="#A6FFFE"/>
<rect width="48.8286" height="48.8286" transform="matrix(0.857698 0.514154 -0.857698 0.514154 125.406 413.325)" fill="url(#paint22_linear_149_25)"/>
<rect width="48.8286" height="50.2108" transform="matrix(0.857698 0.514154 0 1 83.5234 438.431)" fill="url(#paint23_linear_149_25)"/>
<rect width="48.8286" height="50.2108" transform="matrix(0.857698 -0.514154 0 1 125.289 463.536)" fill="url(#paint24_linear_149_25)"/>
<rect width="48.8286" height="48.8286" transform="matrix(0.857698 0.514154 -0.857698 0.514154 390.281 242.151)" fill="url(#paint25_linear_149_25)"/>
<rect width="48.8286" height="50.2108" transform="matrix(0.857698 0.514154 0 1 348.398 267.257)" fill="url(#paint26_linear_149_25)"/>
<rect width="48.8286" height="50.2108" transform="matrix(0.857698 -0.514154 0 1 390.164 292.362)" fill="url(#paint27_linear_149_25)"/>
<rect width="48.8286" height="48.8286" transform="matrix(0.857698 0.514154 -0.857698 0.514154 583.719 332.303)" fill="url(#paint28_linear_149_25)"/>
<rect width="48.8286" height="50.2108" transform="matrix(0.857698 0.514154 0 1 541.836 357.408)" fill="url(#paint29_linear_149_25)"/>
<rect width="48.8286" height="50.2108" transform="matrix(0.857698 -0.514154 0 1 583.602 382.514)" fill="url(#paint30_linear_149_25)"/>
<rect width="48.8286" height="48.8286" transform="matrix(0.857698 0.514154 -0.857698 0.514154 322.141 684.92)" fill="#A6FFFE"/>
<rect width="48.8286" height="48.8286" transform="matrix(0.857698 0.514154 -0.857698 0.514154 390.281 414.466)" fill="#A6FFFE"/>
<rect width="243.661" height="48.8286" transform="matrix(0.857698 0.514154 -0.857698 0.514154 270.484 496.629)" fill="#A6FFFE"/>
<rect width="243.661" height="506.792" transform="matrix(0.857698 0.514154 0 1 228.609 12.6602)" fill="url(#paint31_linear_149_25)"/>
<rect width="243.661" height="496.937" transform="matrix(0.857698 0.514154 0 1 267.078 0.384766)" fill="url(#paint32_linear_149_25)"/>
<rect width="48.8286" height="48.8286" transform="matrix(0.857698 0.514154 -0.857698 0.514154 583.719 532.005)" fill="#A6FFFE"/>
<rect width="48.8286" height="48.8286" transform="matrix(0.857698 0.514154 -0.857698 0.514154 322.141 553.687)" fill="url(#paint33_linear_149_25)"/>
<rect width="48.8286" height="50.2108" transform="matrix(0.857698 0.514154 0 1 280.258 578.792)" fill="url(#paint34_linear_149_25)"/>
<rect width="48.8286" height="50.2108" transform="matrix(0.857698 -0.514154 0 1 322.023 603.897)" fill="url(#paint35_linear_149_25)"/>
<path d="M83.5312 438.43H165.962L167.061 597.05L125.845 622.156L83.5312 597.05V438.43Z" fill="url(#paint36_linear_149_25)"/>
<path d="M280.266 551.404H362.696L363.795 710.025L322.58 735.13L280.266 710.025V551.404Z" fill="url(#paint37_linear_149_25)"/>
<path d="M348.406 280.95H430.837L431.936 439.571L390.72 464.676L348.406 439.571V280.95Z" fill="url(#paint38_linear_149_25)"/>
<path d="M541.844 398.489H624.274L625.373 557.11L584.158 582.215L541.844 557.11V398.489Z" fill="url(#paint39_linear_149_25)"/>
<g style="mix-blend-mode:screen" filter="url(#filter0_d_149_25)">
<path d="M222.337 299.889L249.098 245.93L262.821 254.157L289.667 340.25L275.086 331.509L253.129 256.547L258.618 259.838L236.575 308.424L222.337 299.889ZM235.718 292.91L239.406 282.82L270.283 301.33L274.057 315.892L235.718 292.91ZM295.896 343.984V273.984L325.229 291.568C332.777 296.093 338.438 301.153 342.211 306.748C346.043 312.378 347.958 317.926 347.958 323.393C347.958 327.06 347.186 329.797 345.642 331.605C344.098 333.346 341.983 334.144 339.295 334C336.608 333.856 333.52 332.738 330.032 330.647L331.662 327.524C335.436 329.786 338.781 332.525 341.697 335.74C344.613 338.888 346.872 342.342 348.473 346.102C350.131 349.896 350.96 353.826 350.96 357.893C350.96 363.893 348.93 367.376 344.87 368.342C340.811 369.242 334.835 367.326 326.944 362.596L295.896 343.984ZM309.705 340.062L325.915 349.779C329.518 351.939 332.234 352.9 334.063 352.664C335.95 352.395 336.894 350.76 336.894 347.76C336.894 344.827 335.95 342.095 334.063 339.564C332.234 337 329.518 334.639 325.915 332.479L308.675 322.145V310.345L323.514 319.24C326.887 321.262 329.46 322.138 331.233 321.867C333.063 321.564 333.978 320.012 333.978 317.212C333.978 314.479 333.063 311.897 331.233 309.467C329.46 307.004 326.887 304.762 323.514 302.74L309.705 294.462V340.062ZM361.48 383.299V313.299L375.374 321.628V378.428L405.479 396.475V409.675L361.48 383.299ZM405.687 409.799L432.447 355.841L446.171 364.067L473.016 450.16L458.436 441.42L436.479 366.457L441.968 369.748L419.925 418.334L405.687 409.799ZM419.067 402.82L422.755 392.731L453.632 411.24L457.406 425.803L419.067 402.82Z" fill="white"/>
</g>
<defs>
<filter id="filter0_d_149_25" x="218.336" y="229.889" width="258.68" height="228.271" filterUnits="userSpaceOnUse" color-interpolation-filters="sRGB">
<feFlood flood-opacity="0" result="BackgroundImageFix"/>
<feColorMatrix in="SourceAlpha" type="matrix" values="0 0 0 0 0 0 0 0 0 0 0 0 0 0 0 0 0 0 127 0" result="hardAlpha"/>
<feOffset dy="4"/>
<feGaussianBlur stdDeviation="2"/>
<feComposite in2="hardAlpha" operator="out"/>
<feColorMatrix type="matrix" values="0 0 0 0 0 0 0 0 0 0 0 0 0 0 0 0 0 0 0.25 0"/>
<feBlend mode="normal" in2="BackgroundImageFix" result="effect1_dropShadow_149_25"/>
<feBlend mode="normal" in="SourceGraphic" in2="effect1_dropShadow_149_25" result="shape"/>
</filter>
<linearGradient id="paint0_linear_149_25" x1="649.002" y1="517.17" x2="279.507" y2="319.415" gradientUnits="userSpaceOnUse">
<stop stop-color="#13EDB1"/>
<stop offset="1" stop-color="#13B3D3"/>
</linearGradient>
<linearGradient id="paint1_linear_149_25" x1="649.002" y1="517.17" x2="279.507" y2="319.415" gradientUnits="userSpaceOnUse">
<stop stop-color="#13EDB1"/>
<stop offset="1" stop-color="#13B3D3"/>
</linearGradient>
<linearGradient id="paint2_linear_149_25" x1="178.231" y1="529.253" x2="174.932" y2="523.935" gradientUnits="userSpaceOnUse">
<stop stop-color="white"/>
</linearGradient>
<linearGradient id="paint3_linear_149_25" x1="178.231" y1="529.253" x2="174.932" y2="523.935" gradientUnits="userSpaceOnUse">
<stop stop-color="white"/>
</linearGradient>
<linearGradient id="paint4_linear_149_25" x1="396.942" y1="400.449" x2="393.643" y2="395.131" gradientUnits="userSpaceOnUse">
<stop stop-color="white"/>
</linearGradient>
<linearGradient id="paint5_linear_149_25" x1="396.942" y1="400.449" x2="393.643" y2="395.131" gradientUnits="userSpaceOnUse">
<stop stop-color="white"/>
</linearGradient>
<linearGradient id="paint6_linear_149_25" x1="435.411" y1="684.597" x2="432.111" y2="679.279" gradientUnits="userSpaceOnUse">
<stop stop-color="white"/>
</linearGradient>
<linearGradient id="paint7_linear_149_25" x1="435.411" y1="684.597" x2="432.111" y2="679.279" gradientUnits="userSpaceOnUse">
<stop stop-color="white"/>
</linearGradient>
<linearGradient id="paint8_linear_149_25" x1="657.427" y1="556.787" x2="654.127" y2="551.469" gradientUnits="userSpaceOnUse">
<stop stop-color="white"/>
</linearGradient>
<linearGradient id="paint9_linear_149_25" x1="657.427" y1="556.787" x2="654.127" y2="551.469" gradientUnits="userSpaceOnUse">
<stop stop-color="white"/>
</linearGradient>
<linearGradient id="paint10_linear_149_25" x1="168.804" y1="664.411" x2="171.831" y2="659.049" gradientUnits="userSpaceOnUse">
<stop stop-color="white"/>
</linearGradient>
<linearGradient id="paint11_linear_149_25" x1="168.804" y1="664.411" x2="171.831" y2="659.049" gradientUnits="userSpaceOnUse">
<stop stop-color="white"/>
</linearGradient>
<linearGradient id="paint12_linear_149_25" x1="502.734" y1="468.162" x2="505.761" y2="462.799" gradientUnits="userSpaceOnUse">
<stop stop-color="white"/>
</linearGradient>
<linearGradient id="paint13_linear_149_25" x1="502.734" y1="468.162" x2="505.761" y2="462.799" gradientUnits="userSpaceOnUse">
<stop stop-color="white"/>
</linearGradient>
<linearGradient id="paint14_linear_149_25" x1="648.906" y1="556.031" x2="651.933" y2="550.668" gradientUnits="userSpaceOnUse">
<stop stop-color="white"/>
</linearGradient>
<linearGradient id="paint15_linear_149_25" x1="648.906" y1="556.031" x2="651.933" y2="550.668" gradientUnits="userSpaceOnUse">
<stop stop-color="white"/>
</linearGradient>
<linearGradient id="paint16_linear_149_25" x1="320.289" y1="752.309" x2="323.315" y2="746.947" gradientUnits="userSpaceOnUse">
<stop stop-color="white"/>
</linearGradient>
<linearGradient id="paint17_linear_149_25" x1="320.289" y1="752.309" x2="323.315" y2="746.947" gradientUnits="userSpaceOnUse">
<stop stop-color="white"/>
</linearGradient>
<linearGradient id="paint18_linear_149_25" x1="288.521" y1="748.105" x2="231.453" y2="805.498" gradientUnits="userSpaceOnUse">
<stop offset="1" stop-color="#13B3D3"/>
</linearGradient>
<linearGradient id="paint19_linear_149_25" x1="288.521" y1="748.105" x2="231.453" y2="805.498" gradientUnits="userSpaceOnUse">
<stop offset="1" stop-color="#13B3D3"/>
</linearGradient>
<linearGradient id="paint20_linear_149_25" x1="674.483" y1="554.769" x2="701.633" y2="662.034" gradientUnits="userSpaceOnUse">
<stop offset="1" stop-color="#13B3D3"/>
</linearGradient>
<linearGradient id="paint21_linear_149_25" x1="674.483" y1="554.769" x2="701.633" y2="662.034" gradientUnits="userSpaceOnUse">
<stop offset="1" stop-color="#13B3D3"/>
</linearGradient>
<linearGradient id="paint22_linear_149_25" x1="34.9657" y1="3.23016" x2="12.3419" y2="44.7701" gradientUnits="userSpaceOnUse">
<stop stop-color="#13EDB1"/>
<stop offset="1" stop-color="#13B3D3"/>
</linearGradient>
<linearGradient id="paint23_linear_149_25" x1="34.9657" y1="3.3216" x2="11.3531" y2="45.4836" gradientUnits="userSpaceOnUse">
<stop stop-color="#13EDB1"/>
<stop offset="1" stop-color="#13B3D3"/>
</linearGradient>
<linearGradient id="paint24_linear_149_25" x1="34.9657" y1="3.3216" x2="11.3531" y2="45.4836" gradientUnits="userSpaceOnUse">
<stop stop-color="#13EDB1"/>
<stop offset="1" stop-color="#13B3D3"/>
</linearGradient>
<linearGradient id="paint25_linear_149_25" x1="34.9657" y1="3.23016" x2="12.3419" y2="44.7701" gradientUnits="userSpaceOnUse">
<stop stop-color="#13EDB1"/>
<stop offset="1" stop-color="#13B3D3"/>
</linearGradient>
<linearGradient id="paint26_linear_149_25" x1="34.9657" y1="3.3216" x2="11.3531" y2="45.4836" gradientUnits="userSpaceOnUse">
<stop stop-color="#13EDB1"/>
<stop offset="1" stop-color="#13B3D3"/>
</linearGradient>
<linearGradient id="paint27_linear_149_25" x1="34.9657" y1="3.3216" x2="11.3531" y2="45.4836" gradientUnits="userSpaceOnUse">
<stop stop-color="#13EDB1"/>
<stop offset="1" stop-color="#13B3D3"/>
</linearGradient>
<linearGradient id="paint28_linear_149_25" x1="34.9657" y1="3.23016" x2="12.3419" y2="44.7701" gradientUnits="userSpaceOnUse">
<stop stop-color="#13EDB1"/>
<stop offset="1" stop-color="#13B3D3"/>
</linearGradient>
<linearGradient id="paint29_linear_149_25" x1="34.9657" y1="3.3216" x2="11.3531" y2="45.4836" gradientUnits="userSpaceOnUse">
<stop stop-color="#13EDB1"/>
<stop offset="1" stop-color="#13B3D3"/>
</linearGradient>
<linearGradient id="paint30_linear_149_25" x1="34.9657" y1="3.3216" x2="11.3531" y2="45.4836" gradientUnits="userSpaceOnUse">
<stop stop-color="#13EDB1"/>
<stop offset="1" stop-color="#13B3D3"/>
</linearGradient>
<linearGradient id="paint31_linear_149_25" x1="127.266" y1="506.792" x2="-126.819" y2="204.277" gradientUnits="userSpaceOnUse">
<stop stop-color="#A6FFFE" stop-opacity="0.54"/>
<stop offset="1" stop-color="#649998" stop-opacity="0"/>
</linearGradient>
<linearGradient id="paint32_linear_149_25" x1="127.266" y1="496.937" x2="-120.988" y2="195.502" gradientUnits="userSpaceOnUse">
<stop stop-color="#A6FFFE" stop-opacity="0.54"/>
<stop offset="1" stop-color="#649998" stop-opacity="0"/>
</linearGradient>
<linearGradient id="paint33_linear_149_25" x1="34.9657" y1="3.23016" x2="12.3419" y2="44.7701" gradientUnits="userSpaceOnUse">
<stop stop-color="#13EDB1"/>
<stop offset="1" stop-color="#13B3D3"/>
</linearGradient>
<linearGradient id="paint34_linear_149_25" x1="34.9657" y1="3.3216" x2="11.3531" y2="45.4836" gradientUnits="userSpaceOnUse">
<stop stop-color="#13EDB1"/>
<stop offset="1" stop-color="#13B3D3"/>
</linearGradient>
<linearGradient id="paint35_linear_149_25" x1="34.9657" y1="3.3216" x2="11.3531" y2="45.4836" gradientUnits="userSpaceOnUse">
<stop stop-color="#13EDB1"/>
<stop offset="1" stop-color="#13B3D3"/>
</linearGradient>
<linearGradient id="paint36_linear_149_25" x1="123.239" y1="597.05" x2="126.489" y2="438.435" gradientUnits="userSpaceOnUse">
<stop stop-color="#A6FFFE" stop-opacity="0.38"/>
<stop offset="1" stop-color="#649998" stop-opacity="0"/>
</linearGradient>
<linearGradient id="paint37_linear_149_25" x1="319.974" y1="710.025" x2="323.223" y2="551.409" gradientUnits="userSpaceOnUse">
<stop stop-color="#A6FFFE" stop-opacity="0.38"/>
<stop offset="1" stop-color="#649998" stop-opacity="0"/>
</linearGradient>
<linearGradient id="paint38_linear_149_25" x1="388.114" y1="439.571" x2="391.364" y2="280.955" gradientUnits="userSpaceOnUse">
<stop stop-color="#A6FFFE" stop-opacity="0.38"/>
<stop offset="1" stop-color="#649998" stop-opacity="0"/>
</linearGradient>
<linearGradient id="paint39_linear_149_25" x1="581.552" y1="557.11" x2="584.801" y2="398.494" gradientUnits="userSpaceOnUse">
<stop stop-color="#A6FFFE" stop-opacity="0.38"/>
<stop offset="1" stop-color="#649998" stop-opacity="0"/>
</linearGradient>
</defs>
</svg>
