<svg xmlns="http://www.w3.org/2000/svg" fill="none" viewBox="7.58 0 768.71 596.49" xmlns:v="https://vecta.io/nano"><g transform="matrix(.894978 -.446111 .894978 .446111 123.211 199.34)"><path fill="url(#A)" d="M0 0h296.655v296.656H0z"/><path fill="url(#A)" d="M0 0h296.655v296.656H0z"/></g><use href="#I" transform="matrix(.894978 -.446111 .894978 .446111 181.211 198.874)" fill="url(#B)"/><use href="#I" transform="matrix(.894978 -.446111 .894978 .446111 181.211 151.874)" fill="url(#C)"/><use href="#I" transform="matrix(.894978 -.446111 .894978 .446111 191.211 102.874)" fill="url(#D)"/><path transform="matrix(.894978 .446111 0 1 123.211 199.34)" fill="url(#E)" d="M0 0h296.655v264.683H0z"/><path fill="#fff" d="M135.211 291.19l217 108.166v64.578l-217-108.166z" style="mix-blend-mode:screen"/><path transform="matrix(.894978 -.446111 0 1 388.703 331.808)" fill="url(#F)" d="M0 0h296.655v264.683H0z"/><path fill="#fff" d="M427.211 398.205l210-104.677v65.352l-210 104.677z" style="mix-blend-mode:screen"/><path d="M140.442 288.486l211.271 111.013-128.732 87.953L7.578 373.947l132.864-85.461z" fill="url(#G)" style="mix-blend-mode:screen"/><path d="M433.118 417.142L632.29 291.864l143.995 69.08-203.616 127.742-139.551-71.544z" fill="url(#H)" style="mix-blend-mode:screen"/><path d="M344.288 142.947l-29.515-17.04-11.639 6.72-6.859-3.96 31.697-18.3 6.859 3.96-11.64 6.72 29.514 17.04-8.417 4.86zm24.586-14.195l-36.373-21 15.744-9.09c3.256-1.88 6.599-3.19 10.029-3.93 3.395-.76 6.72-.94 9.976-.54s6.253 1.39 8.99 2.97c2.702 1.56 4.399 3.28 5.092 5.16.658 1.86.329 3.77-.987 5.73s-3.603 3.88-6.859 5.76l-11.068 6.39.052-4.29 13.822 7.98-8.418 4.86zm23.123-13.35l-22.292-2.37 8.99-5.19 22.395 2.31-9.093 5.25zm-27.592 1.05l-7.69-.12 10.6-6.12c2.598-1.5 3.984-2.94 4.157-4.32.139-1.4-.779-2.67-2.754-3.81-2.009-1.16-4.209-1.69-6.599-1.59s-4.884.9-7.482 2.4l-10.601 6.12-.259-4.47 20.628 11.91zm59.463-18.73c-5.162 2.98-10.635 4.48-16.42 4.5s-11.345-1.51-16.68-4.59l-20.369-11.76 8.418-4.86 20.057 11.58c3.464 2 6.668 3.03 9.613 3.09s5.698-.65 8.262-2.13 3.793-3.07 3.689-4.77-1.888-3.55-5.352-5.55l-20.057-11.58 8.314-4.8 20.369 11.76c5.334 3.08 7.984 6.29 7.95 9.63s-2.633 6.5-7.794 9.48zm10.188-31.682l17.511-10.11 6.548 3.78-17.511 10.11-6.548-3.78zm15.589 8.28l19.797-11.43 6.755 3.9-28.163 16.26-36.373-21 27.488-15.87 6.755 3.9-19.122 11.04 22.863 13.2z" fill="#fff"/><defs><linearGradient id="A" x1="148.327" y1="0" x2="148.327" y2="296.656" href="#J"><stop offset="1" stop-color="#13b3d3"/></linearGradient><linearGradient id="B" x1="115.302" y1="0" x2="115.302" y2="231.164" href="#J"><stop stop-color="#29f7f5"/><stop offset="1" stop-color="#13b3d3"/></linearGradient><linearGradient id="C" x1="138.303" y1="230.228" x2="4.186" y2="79.168" href="#J"><stop stop-color="#29f7f5" stop-opacity=".39"/><stop offset="1" stop-color="#13edb1" stop-opacity=".3"/></linearGradient><linearGradient id="D" x1="221.045" y1="0" x2="-22.877" y2="41.777" href="#J"><stop stop-color="#29f7f5" stop-opacity=".51"/><stop offset="1" stop-color="#13edb1" stop-opacity=".4"/></linearGradient><linearGradient id="E" x1="253.244" y1="0" x2="-20.389" y2="139.862" href="#J"><stop stop-color="#13edb1"/><stop offset="1" stop-color="#13b3d3"/></linearGradient><linearGradient id="F" x1="258.636" y1="99.961" x2="128.343" y2="245.555" href="#J"><stop stop-color="#13edb1"/><stop offset="1" stop-color="#13b3d3"/></linearGradient><linearGradient id="G" x1="120.607" y1="433.663" x2="195.762" y2="319" href="#J"><stop offset=".082" stop-color="#fff" stop-opacity="0"/><stop offset=".257" stop-color="#fff" stop-opacity="0"/><stop offset=".629" stop-color="#bbfae9" stop-opacity=".286"/><stop offset="1" stop-color="#13edb1"/></linearGradient><linearGradient id="H" x1="679.779" y1="421.649" x2="624.386" y2="313.972" href="#J"><stop offset=".082" stop-color="#fff" stop-opacity="0"/><stop offset=".257" stop-color="#fff" stop-opacity="0"/><stop offset=".629" stop-color="#bbfae9" stop-opacity=".286"/><stop offset="1" stop-color="#13edb1"/></linearGradient><path id="I" d="M0 0h230.605v231.164H0z"/><linearGradient id="J" gradientUnits="userSpaceOnUse"/></defs></svg>