<svg xmlns="http://www.w3.org/2000/svg" viewBox="0 0 503.295 806.367" xmlns:v="https://vecta.io/nano"><defs><linearGradient id="A" x1="336.776" y1="618.706" x2="256.188" y2="262.567" href="#E"><stop offset="0" stop-color="#13eeb0" stop-opacity=".26"/><stop offset=".501" stop-color="#13b3d3" stop-opacity=".26"/><stop offset=".762" stop-color="#13b3d3" stop-opacity="0"/></linearGradient><linearGradient id="B" x1="102.923" y1="851.85" x2="102.923" y2="585.491" gradientTransform="translate(168.754 881.565) rotate(28.389) scale(1 -.88) skewX(-25.429)" href="#E"><stop offset="1" stop-color="#13b3d3"/><stop offset="1"/></linearGradient><linearGradient id="C" x1="102.923" y1="851.85" x2="102.923" y2="585.491" gradientTransform="translate(146.442 893.056) rotate(28.389) scale(1 -.88) skewX(-25.429)" href="#E"><stop offset="0" stop-color="#13edb1"/><stop offset="1" stop-color="#13b3d3"/></linearGradient><linearGradient id="D" x1="-122.968" y1="438.716" x2="-132.2" y2="854.911" gradientTransform="translate(-195.685 1012.164) rotate(30.309) scale(1 -.871) skewX(26.133)" href="#E"><stop offset="0" stop-color="#13edb1"/><stop offset="1" stop-color="#13b3d3"/></linearGradient><linearGradient id="E" gradientUnits="userSpaceOnUse"/></defs><path d="M48.646 247.075l419.5 50.5-112.5 319.002-51.5 37.998-61 11.002-65.5-11.002-39-46.998-90-360.502z" fill="url(#A)" style="mix-blend-mode:screen"/><path d="M122.926,4.947l272.747,147.409c22.35,12.079,40.468,42.466,40.468,67.871v174.359c0,25.405-18.118,36.208-40.468,24.129L122.926,271.306c-22.35-12.079-40.468-42.466-40.468-67.871V29.075c0-25.405,18.118-36.208,40.468-24.129Z" fill="url(#B)"/><path d="M100.614,16.437l272.747,147.409c22.35,12.079,40.468,42.466,40.468,67.871v174.359c0,25.405-18.118,36.208-40.468,24.129L100.614,282.796c-22.35-12.079-40.468-42.466-40.468-67.871V40.566c0-25.405,18.118-36.208,40.468-24.129Z" fill="url(#C)"/><path d="M428.586 763.775c-97.594 57.051-256.342 56.749-354.573-.674s-98.748-150.223-1.154-207.274 256.341-56.748 354.572.675 98.748 150.223 1.155 207.273z" fill="#13b3d3"/><path d="M429.282 518.049c98.231 57.423 98.748 150.223 1.154 207.273s-256.341 56.748-354.572-.675-98.748-150.223-1.154-207.273 256.341-56.748 354.572.675z" fill="url(#D)"/><path d="M326.511 558.514c43.422 25.383 43.429 66.534.014 91.913s-113.809 25.375-157.231-.008-43.429-66.534-.014-91.913 113.809-25.375 157.231.008z" fill="#fff" style="mix-blend-mode:screen"/><path d="M418.862 718.948c-90.276 52.773-238.456 51.812-330.971-2.27s-94.159-140.703-3.883-193.476 238.457-51.812 330.971 2.27 94.159 140.703 3.883 193.476z" fill="none" stroke="#ffd7d7" stroke-width="5" style="mix-blend-mode:screen"/><path d="M172.328 238.425c-12.904-7.45-22.993-17.425-30.267-29.925s-10.912-26.45-10.912-41.85v-58.8L152.193 120v57.9c0 10 1.775 18.225 5.326 24.675s8.53 11.525 14.939 15.225 11.388 4.375 14.939 2.025 5.326-8.525 5.326-18.525v-57.9l20.785 12v58.8c0 15.4-3.638 25.15-10.912 29.25s-17.364 2.425-30.268-5.025zm93.932 54.231c-7.621-4.4-14.29-9.55-20.005-15.45-5.716-6-10.176-12.325-13.381-18.975-3.204-6.75-4.806-13.375-4.806-19.875s1.559-11.1 4.677-13.8c3.204-2.75 7.664-3.625 13.38-2.625 5.715.9 12.427 3.575 20.135 8.025 7.794 4.5 14.549 9.6 20.265 15.3 5.802 5.65 10.262 11.675 13.38 18.075 3.204 6.35 4.806 12.775 4.806 19.275s-1.602 11.275-4.806 14.325c-3.204 2.95-7.708 4.1-13.51 3.45-5.716-.7-12.428-3.275-20.135-7.725zm0-17.85c5.282 3.05 9.439 4.1 12.47 3.15 3.118-.9 4.677-3.7 4.677-8.4s-1.559-9.25-4.677-13.65c-3.031-4.45-7.188-8.2-12.47-11.25-5.196-3-9.31-4.025-12.341-3.075-3.031.85-4.547 3.625-4.547 8.325s1.516 9.275 4.547 13.725 7.145 8.175 12.341 11.175zm0-32.55c-7.015-4.05-13.164-8.7-18.447-13.95-5.196-5.2-9.266-10.75-12.211-16.65-2.857-5.95-4.286-11.875-4.286-17.775 0-6.2 1.472-10.65 4.416-13.35 2.945-2.8 7.058-3.875 12.341-3.225 5.283.55 11.345 2.8 18.187 6.75 7.015 4.05 13.12 8.825 18.316 14.325 5.283 5.45 9.397 11.275 12.341 17.475 3.031 6.15 4.547 12.325 4.547 18.525 0 5.9-1.473 10.15-4.417 12.75-2.858 2.55-6.928 3.4-12.211 2.55s-11.475-3.325-18.576-7.425zm0-14.25c4.416 2.55 7.881 3.4 10.392 2.55 2.598-.8 3.897-3.2 3.897-7.2 0-4.2-1.342-8.225-4.027-12.075-2.598-3.8-6.019-6.925-10.262-9.375-4.157-2.4-7.535-3.2-10.133-2.4s-3.897 3.3-3.897 7.5c0 4 1.256 7.875 3.767 11.625s5.933 6.875 10.263 9.375z" fill="#fff"/></svg>