<svg xmlns="http://www.w3.org/2000/svg" fill="none" viewBox="0 0.27 710 746.73" xmlns:v="https://vecta.io/nano"><use href="#T" fill="url(#A)"/><use href="#T" fill="url(#A)"/><use href="#U" fill="url(#B)"/><use href="#U" fill="url(#B)"/><use href="#V" fill="url(#C)"/><use href="#V" fill="url(#C)"/><use href="#W" fill="url(#D)"/><use href="#W" fill="url(#D)"/><use href="#X" fill="url(#E)"/><use href="#X" fill="url(#E)"/><use href="#Y" fill="url(#F)"/><use href="#Y" fill="url(#F)"/><use href="#Z" fill="url(#G)"/><use href="#Z" fill="url(#G)"/><use href="#a" fill="url(#H)"/><use href="#a" fill="url(#H)"/><use href="#b" fill="url(#I)"/><use href="#b" fill="url(#I)"/><use href="#c" fill="url(#J)"/><use href="#c" fill="url(#J)"/><use href="#d" fill="url(#K)"/><use href="#d" fill="url(#K)"/><g fill="#fffefe"><ellipse cx="10.543" cy="9.988" rx="10.543" ry="9.988" transform="matrix(.857698 -.514154 .857698 .514154 164.859 448.587)"/><ellipse cx="10.543" cy="9.988" rx="10.543" ry="9.988" transform="matrix(.857698 -.514154 .857698 .514154 148.375 584.385)"/><ellipse cx="10.543" cy="9.988" rx="10.543" ry="9.988" transform="matrix(.857698 -.514154 .857698 .514154 419.844 604.926)"/><ellipse cx="10.543" cy="9.988" rx="10.543" ry="9.988" transform="matrix(.857698 -.514154 .857698 .514154 520.961 549.009)"/><ellipse cx="10.543" cy="9.988" rx="10.543" ry="9.988" transform="matrix(.857698 -.514154 .857698 .514154 519.859 412.07)"/><ellipse cx="10.543" cy="9.988" rx="10.543" ry="9.988" transform="matrix(.857698 -.514154 .857698 .514154 484.688 389.247)"/><ellipse cx="10.543" cy="9.988" rx="10.543" ry="9.988" transform="matrix(.857698 -.514154 .857698 .514154 260.477 391.529)"/><ellipse cx="10.543" cy="9.988" rx="10.543" ry="9.988" transform="matrix(.857698 -.514154 .857698 .514154 187.938 606.067)"/></g><use href="#e" fill="#a6fffe"/><use href="#f" transform="matrix(.857698 .514154 -.857698 .514154 125.406 337.325)" fill="url(#L)"/><use href="#g" transform="matrix(.857698 .514154 0 1 83.5234 362.431)" fill="url(#M)"/><use href="#g" transform="matrix(.857698 -.514154 0 1 125.289 387.536)" fill="url(#M)"/><use href="#f" transform="matrix(.857698 .514154 -.857698 .514154 390.281 166.151)" fill="url(#L)"/><use href="#g" transform="matrix(.857698 .514154 0 1 348.398 191.257)" fill="url(#M)"/><use href="#g" transform="matrix(.857698 -.514154 0 1 390.164 216.362)" fill="url(#M)"/><use href="#f" transform="matrix(.857698 .514154 -.857698 .514154 583.719 256.303)" fill="url(#L)"/><use href="#g" transform="matrix(.857698 .514154 0 1 541.836 281.408)" fill="url(#M)"/><use href="#g" transform="matrix(.857698 -.514154 0 1 583.602 306.514)" fill="url(#M)"/><g fill="#a6fffe"><use href="#e" x="196.735" y="112.975"/><use href="#e" x="264.875" y="-157.479"/><path d="M270.484 420.629l208.988 125.279-41.88 25.105-208.988-125.279z"/></g><path transform="matrix(.857698 .514154 0 1 228.609 11.4883)" fill="url(#N)" d="M0 0h243.661v431.963H0z"/><path transform="matrix(.857698 .514154 0 1 267.078 .273438)" fill="url(#O)" d="M0 0h243.661v421.048H0z"/><use href="#e" x="458.313" y="-39.94" fill="#a6fffe"/><use href="#f" transform="matrix(.857698 .514154 -.857698 .514154 322.141 477.687)" fill="url(#L)"/><use href="#g" transform="matrix(.857698 .514154 0 1 280.258 502.792)" fill="url(#M)"/><use href="#g" transform="matrix(.857698 -.514154 0 1 322.023 527.897)" fill="url(#M)"/><path d="M83.531 362.43h82.431l1.099 158.62-41.216 25.106-42.314-25.106V362.43z" fill="url(#P)"/><path d="M280.266 475.404h82.43l1.099 158.621-41.215 25.105-42.314-25.105V475.404z" fill="url(#Q)"/><path d="M348.406 204.95h82.431l1.099 158.621-41.216 25.105-42.314-25.105V204.95z" fill="url(#R)"/><path d="M541.844 322.489h82.43l1.099 158.621-41.215 25.105-42.314-25.105V322.489z" fill="url(#S)"/><path d="M222.337 223.889l26.761-53.959 13.723 8.227 26.846 86.093-14.581-8.741-21.957-74.962 5.489 3.291-22.043 48.586-14.238-8.535zm13.381-6.979l3.688-10.09 30.877 18.51 3.774 14.562-38.339-22.982zm60.178 51.074v-70l29.333 17.584c7.548 4.525 13.209 9.585 16.982 15.18 3.832 5.63 5.747 11.178 5.747 16.645 0 3.667-.772 6.404-2.316 8.212-1.544 1.741-3.659 2.539-6.347 2.395s-5.775-1.262-9.263-3.353l1.63-3.123a44.01 44.01 0 0 1 10.035 8.216c2.916 3.148 5.175 6.602 6.776 10.362 1.658 3.794 2.487 7.724 2.487 11.791 0 6-2.03 9.483-6.09 10.449-4.059.9-10.035-1.016-17.926-5.746l-31.048-18.612zm13.809-3.922l16.21 9.717c3.603 2.16 6.319 3.121 8.148 2.885 1.887-.269 2.831-1.904 2.831-4.904 0-2.933-.944-5.665-2.831-8.196-1.829-2.564-4.545-4.925-8.148-7.085l-17.24-10.334v-11.8l14.839 8.895c3.373 2.022 5.946 2.898 7.719 2.627 1.83-.303 2.745-1.855 2.745-4.655 0-2.733-.915-5.315-2.745-7.745-1.773-2.463-4.346-4.705-7.719-6.727l-13.809-8.278v45.6zm51.775 43.237v-70l13.894 8.329v56.8l30.105 18.047v13.2l-43.999-26.376zm44.207 26.5l26.76-53.958 13.724 8.226 26.845 86.093-14.58-8.74-21.957-74.963 5.489 3.291-22.043 48.586-14.238-8.535zm13.38-6.979l3.688-10.089 30.877 18.509 3.774 14.563-38.339-22.983z" fill="#fff" style="mix-blend-mode:screen"/><defs><linearGradient id="A" x1="649.002" y1="441.17" x2="279.507" y2="243.415" href="#h"><stop stop-color="#13edb1"/><stop offset="1" stop-color="#13b3d3"/></linearGradient><linearGradient id="B" x1="178.231" y1="453.253" x2="174.932" y2="447.935" href="#h"><stop stop-color="#fff"/></linearGradient><linearGradient id="C" x1="396.942" y1="324.449" x2="393.643" y2="319.131" href="#h"><stop stop-color="#fff"/></linearGradient><linearGradient id="D" x1="435.411" y1="608.597" x2="432.111" y2="603.279" href="#h"><stop stop-color="#fff"/></linearGradient><linearGradient id="E" x1="657.427" y1="480.787" x2="654.127" y2="475.469" href="#h"><stop stop-color="#fff"/></linearGradient><linearGradient id="F" x1="168.804" y1="588.411" x2="171.831" y2="583.049" href="#h"><stop stop-color="#fff"/></linearGradient><linearGradient id="G" x1="502.734" y1="392.162" x2="505.761" y2="386.799" href="#h"><stop stop-color="#fff"/></linearGradient><linearGradient id="H" x1="648.906" y1="480.031" x2="651.933" y2="474.668" href="#h"><stop stop-color="#fff"/></linearGradient><linearGradient id="I" x1="320.289" y1="676.309" x2="323.315" y2="670.947" href="#h"><stop stop-color="#fff"/></linearGradient><linearGradient id="J" x1="288.521" y1="672.105" x2="231.453" y2="729.498" href="#h"><stop offset="1" stop-color="#13b3d3"/></linearGradient><linearGradient id="K" x1="674.483" y1="478.769" x2="701.633" y2="586.034" href="#h"><stop offset="1" stop-color="#13b3d3"/></linearGradient><linearGradient id="L" x1="34.966" y1="3.23" x2="12.342" y2="44.77" href="#h"><stop stop-color="#13edb1"/><stop offset="1" stop-color="#13b3d3"/></linearGradient><linearGradient id="M" x1="34.966" y1="3.322" x2="11.353" y2="45.484" href="#h"><stop stop-color="#13edb1"/><stop offset="1" stop-color="#13b3d3"/></linearGradient><linearGradient id="N" x1="127.266" y1="431.963" x2="-80.873" y2="141.223" href="#h"><stop stop-color="#a6fffe" stop-opacity=".54"/><stop offset="1" stop-color="#649998" stop-opacity="0"/></linearGradient><linearGradient id="O" x1="127.266" y1="421.048" x2="-73.888" y2="132.78" href="#h"><stop stop-color="#a6fffe" stop-opacity=".54"/><stop offset="1" stop-color="#649998" stop-opacity="0"/></linearGradient><linearGradient id="P" x1="123.239" y1="521.05" x2="126.489" y2="362.435" href="#h"><stop stop-color="#a6fffe" stop-opacity=".38"/><stop offset="1" stop-color="#649998" stop-opacity="0"/></linearGradient><linearGradient id="Q" x1="319.974" y1="634.025" x2="323.223" y2="475.409" href="#h"><stop stop-color="#a6fffe" stop-opacity=".38"/><stop offset="1" stop-color="#649998" stop-opacity="0"/></linearGradient><linearGradient id="R" x1="388.114" y1="363.571" x2="391.364" y2="204.955" href="#h"><stop stop-color="#a6fffe" stop-opacity=".38"/><stop offset="1" stop-color="#649998" stop-opacity="0"/></linearGradient><linearGradient id="S" x1="581.552" y1="481.11" x2="584.801" y2="322.494" href="#h"><stop stop-color="#a6fffe" stop-opacity=".38"/><stop offset="1" stop-color="#649998" stop-opacity="0"/></linearGradient><path id="T" d="M0 518.218L393.662 288.255L710 473.048L316.338 703.011L0 518.218Z"/><path id="U" d="M59.352 517.598l115.456-67.445 5.342 3.12-115.457 67.445-5.341-3.12z"/><path id="V" d="M278.062 388.794l115.457-67.446 5.342 3.12-115.457 67.446-5.342-3.12z"/><path id="W" d="M316.531 672.942l115.457-67.446 5.341 3.12-115.457 67.446-5.341-3.12z"/><path id="X" d="M538.547 545.132l115.457-67.445 5.341 3.12-115.457 67.445-5.341-3.12z"/><path id="Y" d="M59.352 517.598l114.727 68.774-5.307 3.182L54.044 520.78l5.307-3.182z"/><path id="Z" d="M393.281 321.349l114.728 68.774-5.308 3.181-114.727-68.774 5.307-3.181z"/><path id="a" d="M539.453 409.218l114.728 68.774-5.308 3.182-114.727-68.775 5.307-3.181z"/><path id="b" d="M210.836 605.496l114.727 68.774-5.307 3.182-114.728-68.774 5.308-3.182z"/><path id="c" d="M0 518.181L317.019 703.372V747L0 561.809V518.181Z"/><path id="d" d="M317.023 702.204l392.768-229.441v43.628l-392.768 229.44v-43.627z"/><path id="e" d="M125.406 495.945l41.88 25.105-41.88 25.105-41.88-25.105z"/><path id="f" d="M0 0h48.829v48.829H0z"/><path id="g" d="M0 0h48.829v50.211H0z"/><linearGradient id="h" gradientUnits="userSpaceOnUse"/></defs></svg>