<svg xmlns="http://www.w3.org/2000/svg" viewBox="0 0 555.2 469.3" xmlns:v="https://vecta.io/nano"><style>.A{isolation:isolate}.B{mix-blend-mode:hard-light}.K{mix-blend-mode:screen}</style><defs><linearGradient id="A" x1="100.8" y1="356.9" x2="86.3" y2="538.2" gradientTransform="translate(331.8 571.6) rotate(30) scale(1 -.9) skewX(-26.6)" href="#I"><stop offset="0" stop-color="#fff" stop-opacity=".4"/><stop offset="1" stop-color="#fff" stop-opacity="0"/></linearGradient><linearGradient id="B" x1="136.7" y1="528.7" x2="19.8" y2="213" gradientTransform="translate(-111.4 416.6) rotate(30) scale(1 -.9) skewX(26.6)" href="#I"><stop offset="0" stop-color="#12bacf"/><stop offset="1" stop-color="#12d8bd"/></linearGradient><linearGradient id="C" x1="136.4" y1="528.7" x2="53.2" y2="334.6" gradientTransform="translate(71.9 538) rotate(30) scale(1 -.9) skewX(-26.6)" href="#I"><stop offset="0" stop-color="#12bacf" stop-opacity=".4"/><stop offset="1" stop-color="#12d8bd" stop-opacity=".4"/></linearGradient><linearGradient id="D" x1="136.4" y1="528.7" x2="53.2" y2="334.6" gradientTransform="translate(316.9 546) rotate(30) scale(1 -.9) skewX(-26.6)" href="#I"><stop offset="0" stop-color="#12bacf" stop-opacity=".4"/><stop offset="1" stop-color="#12d8bd" stop-opacity=".4"/></linearGradient><linearGradient id="E" x1="100.8" y1="356.9" x2="86.3" y2="538.2" gradientTransform="translate(58.8 584) rotate(30) scale(1 -.9) skewX(-26.6)" href="#I"><stop offset="0" stop-color="#fff" stop-opacity=".4"/><stop offset="1" stop-color="#fff" stop-opacity="0"/></linearGradient><linearGradient id="F" x1="100.8" y1="356.9" x2="86.3" y2="538.2" gradientTransform="translate(296.8 591.6) rotate(30) scale(1 -.9) skewX(-26.6)" href="#I"><stop offset="0" stop-color="#fff" stop-opacity=".4"/><stop offset="1" stop-color="#fff" stop-opacity="0"/></linearGradient><path id="G" d="M74.1 1.5l159.4 92V307L74.1 215V1.5z"/><path id="H" d="M319.1 9.5l159.4 92V315l-159.4-92V9.5z"/><linearGradient id="I" gradientUnits="userSpaceOnUse"/></defs><g class="A"><path class="B" d="M333.6,32.8l158.3,91.4c.5.3.9.9.9,1.5v182.8c0,.6-.4.8-.9.5l-158.3-91.4c-.5-.3-.9-.9-.9-1.5V33.2c0-.6.4-.8.9-.5Z" fill="url(#A)"/><path d="M304.4 155.8l239.1 138.1c14.8 8.6 14.8 22.4 0 31L304.4 463c-14.8 8.6-38.9 8.6-53.7 0L11.6 324.8c-14.8-8.6-14.8-22.4 0-31l239.1-138.1c14.8-8.6 38.9-8.6 53.7 0z" fill="#13b3d3"/><path d="M303.6 116.2l240.9 139.1c14.3 8.3 14.3 21.7 0 30L303.6 424.4c-14.3 8.3-37.6 8.3-52 0L10.8 285.3c-14.3-8.3-14.3-21.7 0-30l240.8-139.1c14.3-8.3 37.6-8.3 52 0z" fill="url(#B)"/><path d="M302.3 117l240.9 139.1c13.6 7.9 13.6 20.6 0 28.5L302.3 423.7c-13.6 7.9-35.7 7.9-49.4 0L12.1 284.6c-13.6-7.9-13.6-20.6 0-28.5L252.9 117c13.6-7.9 35.7-7.9 49.4 0z" stroke="#fff" fill="none" stroke-width="3"/><g fill="#fff" class="B"><path d="M104.6 204.1L263 295.6c1.4.8 1.4 2.2 0 3l-42.6 24.6c-1.4.8-3.8.8-5.2 0L56.8 231.7c-1.4-.8-1.4-2.2 0-3l42.6-24.6c1.4-.8 3.8-.8 5.2 0z"/><path d="M304.5 241.1l4.2 2.5-68.5 39.5-4.2-2.4 68.5-39.6zm72.8 46.1l4.2 2.5-93.1 53.7-4.2-2.4 93.1-53.8z"/><path d="M228.8 309.7l4.1-2.5 59.1 34.1-4.2 2.5-59-34.1zM268 182.4l4.1 2.4-101.2 58.4-4.1-2.4L268 182.4z"/><path d="M268 182.4l4.1-2.4 101.2 58.4-4.2 2.4L268 182.4z"/><path d="M343.2 210.8l158.4 91.5c1.4.8 1.4 2.2 0 3L459 329.9c-1.4.8-3.8.8-5.2 0l-158.4-91.5c-1.4-.8-1.4-2.2 0-3l42.6-24.6c1.4-.8 3.8-.8 5.2 0z"/></g><g class="B"><use href="#G" fill="url(#C)"/><use href="#G" fill="none" stroke-width="3" stroke="#13b3d3"/><use href="#H" fill="url(#D)"/><use href="#H" fill="none" stroke-width="3" stroke="#13b3d3"/></g><g class="K" fill="#d9d9d9"><path d="M154 102.2l11.6 12.7-35.8 70.9-11.6-12.8 35.8-70.8zm28.6 22.6l11.6 12.8-35.8 70.8-11.6-12.7 35.8-70.9z"/><path d="M110.8 126.2v-14.6l87 50.6-.1 14.7-86.9-50.7zm0 25.7v-14.6l87 50.7-.1 14.6-86.9-50.7z"/></g><g class="K" fill="#d9d9d9"><path d="M355.8 143.2l6.8-12.9 52.8 59-6.8 13-52.8-59.1z"/><path d="M428.3 125.1l14.5 16.6-34 59.9-14.5-16.6 34-59.9z"/></g><path class="B" d="M60.6,45.2l158.3,91.4c.5.3.9.9.9,1.5v182.8c0,.6-.4.8-.9.5L60.6,230c-.5-.3-.9-.9-.9-1.5V45.7c0-.6.4-.8.9-.5Z" fill="url(#E)"/><path class="B" d="M298.6,52.8l158.3,91.4c.5.3.9.9.9,1.5v182.8c0,.6-.4.8-.9.5l-158.3-91.4c-.5-.3-.9-.9-.9-1.5V53.2c0-.6.4-.8.9-.5Z" fill="url(#F)"/><path d="M278.4 178.8c3.8 2.2 3.8 5.8 0 8s-10 2.2-13.9 0-3.8-5.8 0-8 10-2.2 13.9 0zm0 79c3.8 2.2 3.8 5.8 0 8s-10 2.2-13.9 0-3.8-5.8 0-8 10-2.2 13.9 0zm14 77c3.8 2.2 3.8 5.8 0 8s-10 2.2-13.9 0-3.8-5.8 0-8 10-2.2 13.9 0z" stroke="#fff" fill="#fff"/></g></svg>