<svg width="575" height="685" viewBox="0 0 575 685" fill="none" xmlns="http://www.w3.org/2000/svg">
<g style="mix-blend-mode:screen">
<rect width="221.779" height="203.028" rx="57" transform="matrix(0.872565 0.488498 -0.872565 0.488498 381.156 373)" fill="url(#paint0_linear_149_21)"/>
</g>
<g style="mix-blend-mode:screen">
<rect width="221.779" height="203.028" rx="57" transform="matrix(0.872565 0.488498 -0.872565 0.488498 177.156 477)" fill="url(#paint1_linear_149_21)"/>
</g>
<g style="mix-blend-mode:screen">
<rect width="221.779" height="203.028" rx="57" transform="matrix(0.872565 0.488498 -0.872565 0.488498 381.156 323)" fill="url(#paint2_linear_149_21)"/>
</g>
<g style="mix-blend-mode:screen">
<rect width="221.779" height="203.028" rx="57" transform="matrix(0.872565 0.488498 -0.872565 0.488498 375.156 254)" fill="url(#paint3_linear_149_21)"/>
</g>
<g style="mix-blend-mode:screen">
<rect width="221.779" height="203.028" rx="57" transform="matrix(0.872565 0.488498 -0.872565 0.488498 178.156 334)" fill="url(#paint4_linear_149_21)"/>
</g>
<g style="mix-blend-mode:screen">
<rect width="221.779" height="203.028" rx="57" transform="matrix(0.872565 0.488498 -0.872565 0.488498 177.156 427)" fill="url(#paint5_linear_149_21)"/>
</g>
<g style="mix-blend-mode:screen">
<rect width="221.779" height="203.028" rx="57" transform="matrix(0.872565 0.488498 -0.872565 0.488498 177.156 363)" fill="url(#paint6_linear_149_21)"/>
</g>
<g style="mix-blend-mode:screen">
<rect width="221.779" height="203.028" rx="57" transform="matrix(0.872565 0.488498 -0.872565 0.488498 371.156 230)" fill="url(#paint7_linear_149_21)"/>
</g>
<g style="mix-blend-mode:screen">
<path d="M412.681 285.627C431.331 283.059 448.116 292.75 443.667 303.517L417.033 367.975C412.365 379.272 388.053 383.241 373.829 375.029L288.819 325.949C274.595 317.737 281.471 303.7 301.038 301.005L412.681 285.627Z" fill="white"/>
</g>
<g style="mix-blend-mode:screen">
<path d="M142.403 473.8C123.664 475.599 107.291 465.226 112.179 454.651L141.442 391.343C146.571 380.248 171.025 377.281 184.9 386.072L267.818 438.606C281.693 447.396 274.246 461.138 254.585 463.026L142.403 473.8Z" fill="white"/>
</g>
<path fill-rule="evenodd" clip-rule="evenodd" d="M199.885 164.926L117 105.433V336.828L242.628 427V255.53L199.885 164.926Z" fill="url(#paint8_linear_149_21)"/>
<path fill-rule="evenodd" clip-rule="evenodd" d="M199.885 164.926L117 105.433V336.828L242.628 427V255.53L199.885 164.926Z" fill="url(#paint9_linear_149_21)"/>
<path fill-rule="evenodd" clip-rule="evenodd" d="M117 105.988L130.916 96L210.286 154.82L210.287 154.819L254.89 245.503L255.002 245.423V416.523L241.086 426.511V255.527L241.08 255.532L198.502 164.354L198.414 164.425L117 105.988Z" fill="url(#paint10_linear_149_21)"/>
<g style="mix-blend-mode:screen">
<rect width="126.313" height="4.61554" transform="matrix(0.834691 0.550719 0 1 123.352 210.729)" fill="white"/>
</g>
<g style="mix-blend-mode:screen">
<rect width="71.8366" height="4.61554" transform="matrix(0.834691 0.550719 0 1 123.352 236.444)" fill="white"/>
</g>
<g style="mix-blend-mode:screen">
<rect width="50.8843" height="4.61554" transform="matrix(0.834691 0.550719 0 1 186.312 277.984)" fill="white"/>
</g>
<g style="mix-blend-mode:screen">
<rect width="50.8843" height="4.61554" transform="matrix(0.834691 0.550719 0 1 186.312 295.127)" fill="white"/>
</g>
<g style="mix-blend-mode:screen">
<rect width="126.313" height="4.61554" transform="matrix(0.834691 0.550719 0 1 123.352 227.873)" fill="white"/>
</g>
<g style="mix-blend-mode:screen">
<rect width="126.313" height="4.61554" transform="matrix(0.834691 0.550719 0 1 123.352 219.301)" fill="white"/>
</g>
<g style="mix-blend-mode:screen">
<rect width="126.313" height="4.61554" transform="matrix(0.834691 0.550719 0 1 123.352 245.016)" fill="white"/>
</g>
<g style="mix-blend-mode:screen">
<rect width="126.313" height="4.61554" transform="matrix(0.834691 0.550719 0 1 123.352 270.731)" fill="white"/>
</g>
<g style="mix-blend-mode:screen">
<rect width="126.313" height="4.61554" transform="matrix(0.834691 0.550719 0 1 123.352 262.159)" fill="white"/>
</g>
<g style="mix-blend-mode:screen">
<rect width="71.8366" height="4.61554" transform="matrix(0.834691 0.550719 0 1 123.352 253.587)" fill="white"/>
</g>
<path fill-rule="evenodd" clip-rule="evenodd" d="M199.885 164.926L117 105.433V336.828L242.628 427V255.53L199.885 164.926Z" fill="url(#paint11_linear_149_21)"/>
<path fill-rule="evenodd" clip-rule="evenodd" d="M199.885 164.926L117 105.433V336.828L242.628 427V255.53L199.885 164.926Z" fill="url(#paint12_linear_149_21)"/>
<path fill-rule="evenodd" clip-rule="evenodd" d="M117 105.988L130.916 96L210.286 154.82L210.287 154.819L254.89 245.503L255.002 245.423V416.523L241.086 426.511V255.527L241.08 255.532L198.502 164.354L198.414 164.425L117 105.988Z" fill="url(#paint13_linear_149_21)"/>
<g style="mix-blend-mode:screen">
<rect width="126.313" height="4.61554" transform="matrix(0.834691 0.550719 0 1 123.352 210.729)" fill="white"/>
</g>
<g style="mix-blend-mode:screen">
<rect width="71.8366" height="4.61554" transform="matrix(0.834691 0.550719 0 1 123.352 236.444)" fill="white"/>
</g>
<g style="mix-blend-mode:screen">
<rect width="50.8843" height="4.61554" transform="matrix(0.834691 0.550719 0 1 186.312 277.984)" fill="white"/>
</g>
<g style="mix-blend-mode:screen">
<rect width="50.8843" height="4.61554" transform="matrix(0.834691 0.550719 0 1 186.312 295.127)" fill="white"/>
</g>
<g style="mix-blend-mode:screen">
<rect width="126.313" height="4.61554" transform="matrix(0.834691 0.550719 0 1 123.352 227.873)" fill="white"/>
</g>
<g style="mix-blend-mode:screen">
<rect width="126.313" height="4.61554" transform="matrix(0.834691 0.550719 0 1 123.352 219.301)" fill="white"/>
</g>
<g style="mix-blend-mode:screen">
<rect width="126.313" height="4.61554" transform="matrix(0.834691 0.550719 0 1 123.352 245.016)" fill="white"/>
</g>
<g style="mix-blend-mode:screen">
<rect width="126.313" height="4.61554" transform="matrix(0.834691 0.550719 0 1 123.352 270.731)" fill="white"/>
</g>
<g style="mix-blend-mode:screen">
<rect width="126.313" height="4.61554" transform="matrix(0.834691 0.550719 0 1 123.352 262.159)" fill="white"/>
</g>
<g style="mix-blend-mode:screen">
<rect width="71.8366" height="4.61554" transform="matrix(0.834691 0.550719 0 1 123.352 253.587)" fill="white"/>
</g>
<path fill-rule="evenodd" clip-rule="evenodd" d="M396.885 68.9257L314 9.43311V240.828L439.628 331V159.53L396.885 68.9257Z" fill="url(#paint14_linear_149_21)"/>
<path fill-rule="evenodd" clip-rule="evenodd" d="M396.885 68.9257L314 9.43311V240.828L439.628 331V159.53L396.885 68.9257Z" fill="url(#paint15_linear_149_21)"/>
<path fill-rule="evenodd" clip-rule="evenodd" d="M314 9.98827L327.916 0L407.286 58.8198L407.287 58.8192L451.89 149.503L452.002 149.423V320.523L438.086 330.511V159.527L438.08 159.532L395.502 68.3543L395.414 68.4251L314 9.98827Z" fill="url(#paint16_linear_149_21)"/>
<g style="mix-blend-mode:screen">
<rect width="126.313" height="4.61554" transform="matrix(0.834691 0.550719 0 1 320.352 114.729)" fill="white"/>
</g>
<g style="mix-blend-mode:screen">
<rect width="71.8366" height="4.61554" transform="matrix(0.834691 0.550719 0 1 320.352 140.444)" fill="white"/>
</g>
<g style="mix-blend-mode:screen">
<rect width="50.8843" height="4.61554" transform="matrix(0.834691 0.550719 0 1 383.312 181.984)" fill="white"/>
</g>
<g style="mix-blend-mode:screen">
<rect width="50.8843" height="4.61554" transform="matrix(0.834691 0.550719 0 1 383.312 199.127)" fill="white"/>
</g>
<g style="mix-blend-mode:screen">
<rect width="126.313" height="4.61554" transform="matrix(0.834691 0.550719 0 1 320.352 131.873)" fill="white"/>
</g>
<g style="mix-blend-mode:screen">
<rect width="126.313" height="4.61554" transform="matrix(0.834691 0.550719 0 1 320.352 123.301)" fill="white"/>
</g>
<g style="mix-blend-mode:screen">
<rect width="126.313" height="4.61554" transform="matrix(0.834691 0.550719 0 1 320.352 149.016)" fill="white"/>
</g>
<g style="mix-blend-mode:screen">
<rect width="126.313" height="4.61554" transform="matrix(0.834691 0.550719 0 1 320.352 174.731)" fill="white"/>
</g>
<g style="mix-blend-mode:screen">
<rect width="126.313" height="4.61554" transform="matrix(0.834691 0.550719 0 1 320.352 166.159)" fill="white"/>
</g>
<g style="mix-blend-mode:screen">
<rect width="71.8366" height="4.61554" transform="matrix(0.834691 0.550719 0 1 320.352 157.587)" fill="white"/>
</g>
<path fill-rule="evenodd" clip-rule="evenodd" d="M396.885 68.9257L314 9.43311V240.828L439.628 331V159.53L396.885 68.9257Z" fill="url(#paint17_linear_149_21)"/>
<path fill-rule="evenodd" clip-rule="evenodd" d="M396.885 68.9257L314 9.43311V240.828L439.628 331V159.53L396.885 68.9257Z" fill="url(#paint18_linear_149_21)"/>
<path fill-rule="evenodd" clip-rule="evenodd" d="M314 9.98827L327.916 0L407.286 58.8198L407.287 58.8192L451.89 149.503L452.002 149.423V320.523L438.086 330.511V159.527L438.08 159.532L395.502 68.3543L395.414 68.4251L314 9.98827Z" fill="url(#paint19_linear_149_21)"/>
<g style="mix-blend-mode:screen">
<rect width="126.313" height="4.61554" transform="matrix(0.834691 0.550719 0 1 320.352 114.729)" fill="white"/>
</g>
<g style="mix-blend-mode:screen">
<rect width="71.8366" height="4.61554" transform="matrix(0.834691 0.550719 0 1 320.352 140.444)" fill="white"/>
</g>
<g style="mix-blend-mode:screen">
<rect width="50.8843" height="4.61554" transform="matrix(0.834691 0.550719 0 1 383.312 181.984)" fill="white"/>
</g>
<g style="mix-blend-mode:screen">
<rect width="50.8843" height="4.61554" transform="matrix(0.834691 0.550719 0 1 383.312 199.127)" fill="white"/>
</g>
<g style="mix-blend-mode:screen">
<rect width="126.313" height="4.61554" transform="matrix(0.834691 0.550719 0 1 320.352 131.873)" fill="white"/>
</g>
<g style="mix-blend-mode:screen">
<rect width="126.313" height="4.61554" transform="matrix(0.834691 0.550719 0 1 320.352 123.301)" fill="white"/>
</g>
<g style="mix-blend-mode:screen">
<rect width="126.313" height="4.61554" transform="matrix(0.834691 0.550719 0 1 320.352 149.016)" fill="white"/>
</g>
<g style="mix-blend-mode:screen">
<rect width="126.313" height="4.61554" transform="matrix(0.834691 0.550719 0 1 320.352 174.731)" fill="white"/>
</g>
<g style="mix-blend-mode:screen">
<rect width="126.313" height="4.61554" transform="matrix(0.834691 0.550719 0 1 320.352 166.159)" fill="white"/>
</g>
<g style="mix-blend-mode:screen">
<rect width="71.8366" height="4.61554" transform="matrix(0.834691 0.550719 0 1 320.352 157.587)" fill="white"/>
</g>
<g filter="url(#filter0_d_149_21)">
<path d="M127.382 206.69C126.585 206.23 125.817 205.68 125.078 205.04C124.351 204.393 123.774 203.78 123.346 203.2L124.247 201.48C124.674 202.033 125.177 202.577 125.754 203.11C126.343 203.637 126.92 204.063 127.486 204.39C128.11 204.75 128.548 204.917 128.802 204.89C129.068 204.87 129.201 204.707 129.201 204.4C129.201 204.147 129.097 203.9 128.889 203.66C128.693 203.413 128.427 203.16 128.092 202.9C127.757 202.64 127.388 202.36 126.984 202.06C126.591 201.767 126.193 201.45 125.789 201.11C125.384 200.757 125.015 200.37 124.68 199.95C124.345 199.53 124.074 199.067 123.866 198.56C123.67 198.06 123.572 197.503 123.572 196.89C123.572 196.21 123.739 195.707 124.074 195.38C124.42 195.06 124.917 194.94 125.563 195.02C126.21 195.087 126.984 195.38 127.884 195.9C128.519 196.267 129.166 196.72 129.824 197.26C130.482 197.8 131.031 198.35 131.47 198.91L130.569 200.61C130.119 200.043 129.663 199.573 129.201 199.2C128.75 198.82 128.312 198.507 127.884 198.26C127.284 197.913 126.845 197.753 126.568 197.78C126.291 197.807 126.152 197.967 126.152 198.26C126.152 198.527 126.25 198.783 126.447 199.03C126.655 199.283 126.926 199.547 127.261 199.82C127.596 200.093 127.959 200.377 128.352 200.67C128.756 200.957 129.16 201.277 129.564 201.63C129.969 201.983 130.332 202.367 130.656 202.78C130.991 203.187 131.262 203.643 131.47 204.15C131.678 204.643 131.781 205.197 131.781 205.81C131.781 206.477 131.608 206.97 131.262 207.29C130.915 207.597 130.413 207.707 129.755 207.62C129.108 207.54 128.317 207.23 127.382 206.69ZM137.952 212.793C136.947 212.213 136.052 211.463 135.267 210.542C134.482 209.609 133.864 208.593 133.414 207.492C132.975 206.399 132.756 205.319 132.756 204.252C132.756 203.172 132.975 202.346 133.414 201.772C133.864 201.192 134.482 200.896 135.267 200.882C136.052 200.856 136.947 201.133 137.952 201.713C138.933 202.279 139.788 203.012 140.515 203.912C141.243 204.799 141.78 205.782 142.126 206.862L140.03 206.952C139.788 206.306 139.482 205.756 139.112 205.303C138.754 204.856 138.362 204.509 137.935 204.263C137.473 203.996 137.057 203.876 136.688 203.902C136.318 203.929 136.024 204.099 135.804 204.412C135.596 204.732 135.492 205.206 135.492 205.832C135.492 206.459 135.596 207.052 135.804 207.612C136.024 208.179 136.318 208.689 136.688 209.142C137.057 209.596 137.473 209.956 137.935 210.223C138.362 210.469 138.754 210.583 139.112 210.562C139.482 210.536 139.788 210.333 140.03 209.953L142.126 212.483C141.78 213.149 141.243 213.513 140.515 213.573C139.788 213.619 138.933 213.359 137.952 212.793ZM143.682 215.941V205.181L146.263 206.671V209.711L145.899 208.621C146.176 208.021 146.621 207.704 147.233 207.671C147.845 207.624 148.589 207.854 149.467 208.361V211.241C149.351 211.161 149.248 211.094 149.155 211.041C149.063 210.974 148.965 210.911 148.861 210.851C148.122 210.424 147.521 210.324 147.059 210.551C146.609 210.771 146.384 211.394 146.384 212.421V217.501L143.682 215.941ZM151.09 220.218V209.458L153.792 211.018V221.778L151.09 220.218ZM152.441 208.738C151.945 208.451 151.541 208.051 151.229 207.538C150.917 207.025 150.761 206.521 150.761 206.028C150.761 205.535 150.917 205.211 151.229 205.058C151.541 204.905 151.945 204.971 152.441 205.258C152.938 205.545 153.342 205.938 153.654 206.438C153.966 206.925 154.122 207.415 154.122 207.908C154.122 208.428 153.966 208.771 153.654 208.938C153.354 209.098 152.95 209.031 152.441 208.738ZM161.808 226.566C161.023 226.113 160.336 225.516 159.747 224.776C159.158 224.036 158.696 223.163 158.361 222.156C158.038 221.143 157.876 220.009 157.876 218.756C157.876 217.489 158.032 216.539 158.344 215.906C158.656 215.273 159.106 214.926 159.695 214.866C160.284 214.806 160.988 215.013 161.808 215.486C162.686 215.993 163.471 216.679 164.164 217.546C164.868 218.406 165.422 219.366 165.826 220.426C166.242 221.493 166.45 222.586 166.45 223.706C166.45 224.839 166.242 225.699 165.826 226.286C165.422 226.879 164.868 227.199 164.164 227.246C163.471 227.299 162.686 227.073 161.808 226.566ZM156.3 227.106V212.466L158.881 213.956V216.156L158.829 219.326L159.002 222.606V228.666L156.3 227.106ZM161.34 223.736C161.791 223.996 162.189 224.106 162.536 224.066C162.894 224.033 163.176 223.856 163.384 223.536C163.604 223.209 163.713 222.739 163.713 222.126C163.713 221.499 163.604 220.903 163.384 220.336C163.176 219.776 162.894 219.273 162.536 218.826C162.189 218.386 161.791 218.036 161.34 217.776C160.89 217.516 160.486 217.403 160.128 217.436C159.77 217.469 159.487 217.646 159.279 217.966C159.071 218.286 158.968 218.759 158.968 219.386C158.968 219.999 159.071 220.593 159.279 221.166C159.487 221.726 159.77 222.229 160.128 222.676C160.486 223.123 160.89 223.476 161.34 223.736ZM172.069 232.49C170.972 231.857 170.118 231.043 169.506 230.05C168.894 229.043 168.588 227.9 168.588 226.62V217.18L171.29 218.74V228.14C171.29 228.593 171.394 229.007 171.602 229.38C171.809 229.74 172.092 230.023 172.45 230.23C172.878 230.477 173.241 230.553 173.542 230.46L174.269 233.08C173.992 233.147 173.657 233.127 173.264 233.02C172.883 232.907 172.485 232.73 172.069 232.49ZM167.15 221.37V218.97L173.611 222.7V225.1L167.15 221.37ZM179.96 237.126C178.99 236.566 178.06 235.883 177.171 235.076C176.282 234.256 175.566 233.449 175.024 232.656L175.976 230.766C176.496 231.493 177.108 232.199 177.812 232.886C178.528 233.566 179.25 234.116 179.977 234.536C180.532 234.856 180.976 235.053 181.311 235.126C181.657 235.193 181.911 235.159 182.073 235.026C182.235 234.893 182.316 234.679 182.316 234.386C182.316 234.013 182.189 233.646 181.935 233.286C181.68 232.913 181.346 232.539 180.93 232.166C180.514 231.779 180.052 231.379 179.544 230.966C179.048 230.546 178.545 230.096 178.037 229.616C177.541 229.143 177.085 228.639 176.669 228.106C176.253 227.573 175.913 226.989 175.647 226.356C175.393 225.729 175.266 225.043 175.266 224.296C175.266 223.496 175.451 222.876 175.82 222.436C176.201 221.989 176.767 221.789 177.518 221.836C178.28 221.876 179.233 222.226 180.376 222.886C181.138 223.326 181.888 223.866 182.627 224.506C183.366 225.133 184.019 225.816 184.585 226.556L183.719 228.516C183.153 227.816 182.587 227.216 182.021 226.716C181.455 226.203 180.901 225.789 180.358 225.476C179.816 225.163 179.371 224.979 179.025 224.926C178.678 224.873 178.43 224.923 178.28 225.076C178.13 225.216 178.055 225.439 178.055 225.746C178.055 226.106 178.182 226.473 178.436 226.846C178.69 227.206 179.025 227.573 179.44 227.946C179.856 228.319 180.312 228.716 180.809 229.136C181.317 229.563 181.819 230.006 182.316 230.466C182.824 230.933 183.286 231.433 183.701 231.966C184.117 232.499 184.452 233.079 184.706 233.706C184.971 234.339 185.104 235.023 185.104 235.756C185.104 236.543 184.914 237.153 184.533 237.586C184.152 238.019 183.58 238.216 182.818 238.176C182.067 238.143 181.115 237.793 179.96 237.126ZM186.831 240.853V230.093L189.533 231.653V242.413L186.831 240.853ZM188.182 229.373C187.685 229.086 187.281 228.686 186.97 228.173C186.658 227.659 186.502 227.156 186.502 226.663C186.502 226.169 186.658 225.846 186.97 225.693C187.281 225.539 187.685 225.606 188.182 225.893C188.678 226.179 189.083 226.573 189.394 227.073C189.706 227.559 189.862 228.049 189.862 228.543C189.862 229.063 189.706 229.406 189.394 229.573C189.094 229.733 188.69 229.666 188.182 229.373ZM196.423 250.431C195.545 249.924 194.696 249.307 193.877 248.581C193.068 247.874 192.393 247.117 191.85 246.311L192.924 244.691C193.317 245.291 193.813 245.871 194.414 246.431C195.026 247.011 195.626 247.471 196.215 247.811C197.173 248.364 197.866 248.517 198.293 248.271C198.732 248.031 198.952 247.424 198.952 246.451V244.831L199.125 242.231L199.09 239.491V237.171L201.654 238.651V247.611C201.654 249.611 201.203 250.824 200.303 251.251C199.402 251.677 198.109 251.404 196.423 250.431ZM196.007 245.631C195.141 245.131 194.356 244.464 193.651 243.631C192.959 242.791 192.399 241.861 191.971 240.841C191.556 239.814 191.348 238.781 191.348 237.741C191.348 236.687 191.556 235.894 191.971 235.361C192.399 234.821 192.959 234.537 193.651 234.511C194.356 234.491 195.141 234.731 196.007 235.231C196.792 235.684 197.485 236.271 198.085 236.991C198.686 237.697 199.154 238.534 199.488 239.501C199.823 240.454 199.991 241.531 199.991 242.731C199.991 243.917 199.823 244.801 199.488 245.381C199.154 245.947 198.686 246.244 198.085 246.271C197.485 246.297 196.792 246.084 196.007 245.631ZM196.544 243.381C197.017 243.654 197.439 243.791 197.808 243.791C198.178 243.777 198.467 243.631 198.674 243.351C198.882 243.071 198.986 242.671 198.986 242.151C198.986 241.617 198.882 241.097 198.674 240.591C198.467 240.071 198.178 239.597 197.808 239.171C197.439 238.731 197.017 238.374 196.544 238.101C196.071 237.827 195.649 237.697 195.28 237.711C194.91 237.711 194.616 237.847 194.396 238.121C194.188 238.387 194.084 238.787 194.084 239.321C194.084 239.841 194.188 240.361 194.396 240.881C194.616 241.407 194.91 241.891 195.28 242.331C195.649 242.757 196.071 243.107 196.544 243.381Z" fill="white"/>
</g>
<g filter="url(#filter1_d_149_21)">
<path d="M325.287 109.018C324.689 108.673 324.113 108.26 323.559 107.78C323.013 107.295 322.58 106.835 322.26 106.4L322.935 105.11C323.256 105.525 323.632 105.932 324.065 106.332C324.507 106.727 324.94 107.047 325.365 107.292C325.832 107.563 326.161 107.688 326.352 107.668C326.551 107.652 326.651 107.53 326.651 107.3C326.651 107.11 326.573 106.925 326.417 106.745C326.27 106.56 326.07 106.37 325.819 106.175C325.568 105.98 325.291 105.77 324.988 105.545C324.693 105.325 324.395 105.087 324.091 104.832C323.788 104.567 323.511 104.277 323.26 103.962C323.009 103.647 322.805 103.3 322.65 102.92C322.502 102.545 322.429 102.127 322.429 101.667C322.429 101.157 322.554 100.78 322.805 100.535C323.065 100.295 323.438 100.205 323.923 100.265C324.408 100.315 324.988 100.535 325.663 100.925C326.14 101.2 326.625 101.54 327.118 101.945C327.612 102.35 328.023 102.763 328.352 103.182L327.677 104.457C327.339 104.032 326.997 103.68 326.651 103.4C326.313 103.115 325.984 102.88 325.663 102.695C325.213 102.435 324.884 102.315 324.676 102.335C324.468 102.355 324.364 102.475 324.364 102.695C324.364 102.895 324.438 103.087 324.585 103.272C324.741 103.462 324.944 103.66 325.196 103.865C325.447 104.07 325.72 104.282 326.014 104.502C326.317 104.718 326.62 104.957 326.923 105.222C327.226 105.487 327.499 105.775 327.742 106.085C327.993 106.39 328.196 106.733 328.352 107.112C328.508 107.483 328.586 107.898 328.586 108.358C328.586 108.858 328.456 109.228 328.196 109.468C327.937 109.698 327.56 109.78 327.066 109.715C326.581 109.655 325.988 109.423 325.287 109.018ZM333.214 113.594C332.461 113.159 331.789 112.597 331.2 111.907C330.612 111.207 330.148 110.444 329.81 109.619C329.481 108.799 329.317 107.989 329.317 107.189C329.317 106.379 329.481 105.759 329.81 105.329C330.148 104.894 330.612 104.672 331.2 104.662C331.789 104.642 332.461 104.849 333.214 105.284C333.95 105.709 334.591 106.259 335.137 106.934C335.682 107.599 336.085 108.337 336.345 109.147L334.773 109.214C334.591 108.729 334.361 108.317 334.084 107.977C333.816 107.642 333.521 107.382 333.201 107.197C332.855 106.997 332.543 106.907 332.266 106.927C331.989 106.947 331.768 107.074 331.603 107.309C331.447 107.549 331.369 107.904 331.369 108.374C331.369 108.844 331.447 109.289 331.603 109.709C331.768 110.134 331.989 110.517 332.266 110.857C332.543 111.197 332.855 111.467 333.201 111.667C333.521 111.852 333.816 111.937 334.084 111.922C334.361 111.902 334.591 111.749 334.773 111.464L336.345 113.362C336.085 113.862 335.682 114.134 335.137 114.179C334.591 114.214 333.95 114.019 333.214 113.594ZM337.511 115.956V107.886L339.447 109.003V111.283L339.174 110.466C339.382 110.016 339.715 109.778 340.174 109.753C340.633 109.718 341.192 109.891 341.85 110.271V112.431C341.764 112.371 341.686 112.321 341.616 112.281C341.547 112.231 341.473 112.183 341.396 112.138C340.841 111.818 340.391 111.743 340.045 111.913C339.707 112.078 339.538 112.546 339.538 113.316V117.126L337.511 115.956ZM343.068 119.164V111.094L345.094 112.264V120.334L343.068 119.164ZM344.081 110.554C343.709 110.339 343.406 110.039 343.172 109.654C342.938 109.269 342.821 108.891 342.821 108.521C342.821 108.151 342.938 107.909 343.172 107.794C343.406 107.679 343.709 107.729 344.081 107.944C344.454 108.159 344.757 108.454 344.99 108.829C345.224 109.194 345.341 109.561 345.341 109.931C345.341 110.321 345.224 110.579 344.99 110.704C344.765 110.824 344.462 110.774 344.081 110.554ZM351.106 123.924C350.517 123.584 350.002 123.137 349.56 122.582C349.119 122.027 348.772 121.372 348.521 120.617C348.278 119.857 348.157 119.007 348.157 118.067C348.157 117.117 348.274 116.404 348.508 115.929C348.742 115.454 349.08 115.194 349.521 115.149C349.963 115.104 350.491 115.259 351.106 115.614C351.764 115.994 352.353 116.509 352.873 117.159C353.401 117.804 353.817 118.524 354.12 119.319C354.432 120.119 354.587 120.939 354.587 121.779C354.587 122.629 354.432 123.274 354.12 123.714C353.817 124.159 353.401 124.399 352.873 124.434C352.353 124.474 351.764 124.304 351.106 123.924ZM346.975 124.329V113.349L348.911 114.467V116.117L348.872 118.494L349.002 120.954V125.499L346.975 124.329ZM350.755 121.802C351.093 121.997 351.392 122.079 351.652 122.049C351.92 122.024 352.132 121.892 352.288 121.652C352.453 121.407 352.535 121.054 352.535 120.594C352.535 120.124 352.453 119.677 352.288 119.252C352.132 118.832 351.92 118.454 351.652 118.119C351.392 117.789 351.093 117.527 350.755 117.332C350.418 117.137 350.114 117.052 349.846 117.077C349.578 117.102 349.365 117.234 349.209 117.474C349.054 117.714 348.976 118.069 348.976 118.539C348.976 118.999 349.054 119.444 349.209 119.874C349.365 120.294 349.578 120.672 349.846 121.007C350.114 121.342 350.418 121.607 350.755 121.802ZM358.802 128.368C357.979 127.893 357.338 127.283 356.879 126.538C356.42 125.783 356.191 124.925 356.191 123.965V116.885L358.217 118.055V125.105C358.217 125.445 358.295 125.755 358.451 126.035C358.607 126.305 358.819 126.518 359.088 126.673C359.408 126.858 359.681 126.915 359.906 126.845L360.452 128.81C360.244 128.86 359.993 128.845 359.698 128.765C359.412 128.68 359.114 128.548 358.802 128.368ZM355.113 120.028V118.228L359.958 121.025V122.825L355.113 120.028ZM361.732 129.939V119.439L365.668 121.712C366.482 122.182 367.184 122.742 367.773 123.392C368.362 124.032 368.816 124.729 369.137 125.484C369.457 126.239 369.617 127.012 369.617 127.802C369.617 128.582 369.457 129.164 369.137 129.549C368.816 129.934 368.362 130.112 367.773 130.082C367.184 130.042 366.482 129.787 365.668 129.317L362.901 127.719L363.837 127.164V131.154L361.732 129.939ZM363.837 127.434L362.901 125.739L365.551 127.269C366.201 127.644 366.686 127.764 367.006 127.629C367.327 127.494 367.487 127.142 367.487 126.572C367.487 125.992 367.327 125.449 367.006 124.944C366.686 124.439 366.201 123.999 365.551 123.624L362.901 122.094L363.837 121.479V127.434ZM374.053 137.173C373.472 136.838 372.953 136.408 372.494 135.883C372.043 135.363 371.693 134.765 371.441 134.09C371.19 133.405 371.065 132.648 371.065 131.818V127.258L373.091 128.428V132.643C373.091 133.313 373.213 133.878 373.455 134.338C373.706 134.793 374.057 135.15 374.507 135.41C374.819 135.59 375.096 135.675 375.339 135.665C375.581 135.645 375.772 135.515 375.91 135.275C376.049 135.025 376.118 134.655 376.118 134.165V130.175L378.145 131.345V139.415L376.222 138.305V136.085L376.573 136.933C376.339 137.358 375.992 137.583 375.533 137.608C375.083 137.628 374.589 137.483 374.053 137.173ZM384.153 143.004C383.538 142.649 383.01 142.194 382.568 141.639C382.126 141.084 381.789 140.434 381.555 139.689C381.321 138.934 381.204 138.086 381.204 137.146C381.204 136.196 381.325 135.486 381.568 135.016C381.819 134.551 382.165 134.296 382.607 134.251C383.049 134.206 383.564 134.354 384.153 134.694C384.811 135.074 385.4 135.584 385.92 136.224C386.448 136.869 386.864 137.589 387.167 138.384C387.478 139.184 387.634 140.009 387.634 140.859C387.634 141.699 387.478 142.339 387.167 142.779C386.864 143.224 386.448 143.469 385.92 143.514C385.4 143.554 384.811 143.384 384.153 143.004ZM380.022 140.499V129.369L382.048 130.539V135.234L381.919 137.544L381.958 139.966V141.616L380.022 140.499ZM383.802 140.881C384.14 141.076 384.439 141.159 384.698 141.129C384.967 141.104 385.179 140.971 385.335 140.731C385.5 140.486 385.582 140.134 385.582 139.674C385.582 139.204 385.5 138.756 385.335 138.331C385.179 137.911 384.967 137.534 384.698 137.199C384.439 136.869 384.14 136.606 383.802 136.411C383.464 136.216 383.161 136.131 382.893 136.156C382.624 136.181 382.412 136.314 382.256 136.554C382.1 136.794 382.022 137.149 382.022 137.619C382.022 138.079 382.1 138.524 382.256 138.954C382.412 139.374 382.624 139.751 382.893 140.086C383.161 140.421 383.464 140.686 383.802 140.881ZM391.017 144.447L390.9 141.575L395.252 138.792L397.591 140.142L393.667 142.752L392.498 143.517L391.017 144.447ZM389.134 145.76V135.26L391.225 136.467V146.967L389.134 145.76ZM395.356 149.352L392.122 142.91L393.499 141.98L397.811 150.77L395.356 149.352ZM401.783 153.183C400.987 152.723 400.285 152.138 399.679 151.428C399.081 150.723 398.618 149.966 398.289 149.156C397.96 148.336 397.795 147.526 397.795 146.726C397.795 145.916 397.956 145.293 398.276 144.858C398.605 144.418 399.051 144.186 399.614 144.161C400.177 144.126 400.814 144.313 401.524 144.723C402.208 145.118 402.823 145.643 403.368 146.298C403.923 146.948 404.36 147.681 404.68 148.496C405.001 149.301 405.161 150.138 405.161 151.008C405.161 151.098 405.157 151.201 405.148 151.316C405.139 151.421 405.131 151.521 405.122 151.616L399.445 148.338V146.973L404.057 149.636L403.277 149.591C403.277 149.171 403.204 148.763 403.057 148.368C402.909 147.973 402.706 147.616 402.446 147.296C402.186 146.966 401.883 146.701 401.537 146.501C401.19 146.301 400.883 146.213 400.614 146.238C400.355 146.258 400.151 146.386 400.004 146.621C399.857 146.846 399.783 147.173 399.783 147.603V147.963C399.783 148.403 399.865 148.841 400.03 149.276C400.203 149.706 400.441 150.098 400.744 150.453C401.056 150.803 401.42 151.098 401.835 151.338C402.208 151.553 402.533 151.676 402.81 151.706C403.095 151.741 403.355 151.696 403.589 151.571L404.667 153.543C404.347 153.778 403.944 153.871 403.459 153.821C402.974 153.761 402.416 153.548 401.783 153.183ZM407.267 159.259C406.903 159.049 406.543 158.776 406.188 158.441C405.833 158.106 405.543 157.759 405.318 157.399L406.059 156.161C406.214 156.411 406.392 156.639 406.591 156.844C406.799 157.054 407.002 157.216 407.202 157.331C407.487 157.496 407.713 157.546 407.877 157.481C408.05 157.431 408.206 157.266 408.345 156.986L408.709 156.206L408.864 156.041L411.372 150.529L413.32 151.654L410.163 158.396C409.938 158.916 409.679 159.276 409.384 159.476C409.098 159.681 408.778 159.756 408.423 159.701C408.076 159.651 407.691 159.504 407.267 159.259ZM408.462 157.234L405.344 147.049L407.436 148.256L409.852 156.401L408.462 157.234Z" fill="white"/>
</g>
<defs>
<filter id="filter0_d_149_21" x="119.344" y="188.46" width="86.3125" height="72.9907" filterUnits="userSpaceOnUse" color-interpolation-filters="sRGB">
<feFlood flood-opacity="0" result="BackgroundImageFix"/>
<feColorMatrix in="SourceAlpha" type="matrix" values="0 0 0 0 0 0 0 0 0 0 0 0 0 0 0 0 0 0 127 0" result="hardAlpha"/>
<feOffset dy="4"/>
<feGaussianBlur stdDeviation="2"/>
<feComposite in2="hardAlpha" operator="out"/>
<feColorMatrix type="matrix" values="0 0 0 0 0 0 0 0 0 0 0 0 0 0 0 0 0 0 0.25 0"/>
<feBlend mode="normal" in2="BackgroundImageFix" result="effect1_dropShadow_149_21"/>
<feBlend mode="normal" in="SourceGraphic" in2="effect1_dropShadow_149_21" result="shape"/>
</filter>
<filter id="filter1_d_149_21" x="318.258" y="95.3452" width="99.0625" height="75.4087" filterUnits="userSpaceOnUse" color-interpolation-filters="sRGB">
<feFlood flood-opacity="0" result="BackgroundImageFix"/>
<feColorMatrix in="SourceAlpha" type="matrix" values="0 0 0 0 0 0 0 0 0 0 0 0 0 0 0 0 0 0 127 0" result="hardAlpha"/>
<feOffset dy="4"/>
<feGaussianBlur stdDeviation="2"/>
<feComposite in2="hardAlpha" operator="out"/>
<feColorMatrix type="matrix" values="0 0 0 0 0 0 0 0 0 0 0 0 0 0 0 0 0 0 0.25 0"/>
<feBlend mode="normal" in2="BackgroundImageFix" result="effect1_dropShadow_149_21"/>
<feBlend mode="normal" in="SourceGraphic" in2="effect1_dropShadow_149_21" result="shape"/>
</filter>
<linearGradient id="paint0_linear_149_21" x1="221.779" y1="39.251" x2="9.48579" y2="24.7647" gradientUnits="userSpaceOnUse">
<stop stop-color="#13EDB1" stop-opacity="0.37"/>
<stop offset="1" stop-color="#13B3D3" stop-opacity="0.64"/>
</linearGradient>
<linearGradient id="paint1_linear_149_21" x1="221.779" y1="39.251" x2="9.48579" y2="24.7647" gradientUnits="userSpaceOnUse">
<stop stop-color="#13EDB1" stop-opacity="0.37"/>
<stop offset="1" stop-color="#13B3D3" stop-opacity="0.64"/>
</linearGradient>
<linearGradient id="paint2_linear_149_21" x1="221.779" y1="39.251" x2="9.48579" y2="24.7647" gradientUnits="userSpaceOnUse">
<stop stop-color="#13EDB1" stop-opacity="0.37"/>
<stop offset="1" stop-color="#13B3D3" stop-opacity="0.64"/>
</linearGradient>
<linearGradient id="paint3_linear_149_21" x1="183.297" y1="203.028" x2="36.1973" y2="1.6688" gradientUnits="userSpaceOnUse">
<stop offset="1" stop-color="#13B3D3" stop-opacity="0.88"/>
</linearGradient>
<linearGradient id="paint4_linear_149_21" x1="183.297" y1="203.028" x2="36.1973" y2="1.6688" gradientUnits="userSpaceOnUse">
<stop stop-color="#13EDB1" stop-opacity="0.88"/>
<stop offset="1" stop-color="#13B3D3" stop-opacity="0.88"/>
</linearGradient>
<linearGradient id="paint5_linear_149_21" x1="221.779" y1="39.251" x2="9.48579" y2="24.7647" gradientUnits="userSpaceOnUse">
<stop stop-color="#13EDB1" stop-opacity="0.37"/>
<stop offset="1" stop-color="#13B3D3" stop-opacity="0.64"/>
</linearGradient>
<linearGradient id="paint6_linear_149_21" x1="183.297" y1="203.028" x2="36.1973" y2="1.6688" gradientUnits="userSpaceOnUse">
<stop offset="1" stop-color="#13B3D3" stop-opacity="0.88"/>
</linearGradient>
<linearGradient id="paint7_linear_149_21" x1="183.297" y1="203.028" x2="36.1973" y2="1.6688" gradientUnits="userSpaceOnUse">
<stop stop-color="#13EDB1" stop-opacity="0.88"/>
<stop offset="1" stop-color="#13B3D3" stop-opacity="0.88"/>
</linearGradient>
<linearGradient id="paint8_linear_149_21" x1="179.814" y1="150.519" x2="70.1987" y2="303.235" gradientUnits="userSpaceOnUse">
<stop stop-color="#6CFFD7" stop-opacity="0.15"/>
<stop offset="1" stop-color="#13B3D3" stop-opacity="0.46"/>
</linearGradient>
<linearGradient id="paint9_linear_149_21" x1="179.814" y1="150.519" x2="70.1987" y2="303.235" gradientUnits="userSpaceOnUse">
<stop stop-color="#6CFFD7" stop-opacity="0.15"/>
<stop offset="1" stop-color="#13B3D3" stop-opacity="0.46"/>
</linearGradient>
<linearGradient id="paint10_linear_149_21" x1="117" y1="361.392" x2="290.279" y2="198.689" gradientUnits="userSpaceOnUse">
<stop stop-color="#13EDB1" stop-opacity="0.46"/>
<stop offset="1" stop-color="#13B3D3" stop-opacity="0.46"/>
</linearGradient>
<linearGradient id="paint11_linear_149_21" x1="179.814" y1="150.519" x2="70.1987" y2="303.235" gradientUnits="userSpaceOnUse">
<stop stop-color="#6CFFD7" stop-opacity="0.15"/>
<stop offset="1" stop-color="#13B3D3" stop-opacity="0.46"/>
</linearGradient>
<linearGradient id="paint12_linear_149_21" x1="179.814" y1="150.519" x2="70.1987" y2="303.235" gradientUnits="userSpaceOnUse">
<stop stop-color="#6CFFD7" stop-opacity="0.15"/>
<stop offset="1" stop-color="#13B3D3" stop-opacity="0.46"/>
</linearGradient>
<linearGradient id="paint13_linear_149_21" x1="117" y1="361.392" x2="290.279" y2="198.689" gradientUnits="userSpaceOnUse">
<stop stop-color="#13EDB1" stop-opacity="0.46"/>
<stop offset="1" stop-color="#13B3D3" stop-opacity="0.46"/>
</linearGradient>
<linearGradient id="paint14_linear_149_21" x1="376.814" y1="54.519" x2="267.199" y2="207.235" gradientUnits="userSpaceOnUse">
<stop stop-color="#6CFFD7" stop-opacity="0.15"/>
<stop offset="1" stop-color="#13B3D3" stop-opacity="0.46"/>
</linearGradient>
<linearGradient id="paint15_linear_149_21" x1="376.814" y1="54.519" x2="267.199" y2="207.235" gradientUnits="userSpaceOnUse">
<stop stop-color="#6CFFD7" stop-opacity="0.15"/>
<stop offset="1" stop-color="#13B3D3" stop-opacity="0.46"/>
</linearGradient>
<linearGradient id="paint16_linear_149_21" x1="314" y1="265.392" x2="487.279" y2="102.689" gradientUnits="userSpaceOnUse">
<stop stop-color="#13EDB1" stop-opacity="0.46"/>
<stop offset="1" stop-color="#13B3D3" stop-opacity="0.46"/>
</linearGradient>
<linearGradient id="paint17_linear_149_21" x1="376.814" y1="54.519" x2="267.199" y2="207.235" gradientUnits="userSpaceOnUse">
<stop stop-color="#6CFFD7" stop-opacity="0.15"/>
<stop offset="1" stop-color="#13B3D3" stop-opacity="0.46"/>
</linearGradient>
<linearGradient id="paint18_linear_149_21" x1="376.814" y1="54.519" x2="267.199" y2="207.235" gradientUnits="userSpaceOnUse">
<stop stop-color="#6CFFD7" stop-opacity="0.15"/>
<stop offset="1" stop-color="#13B3D3" stop-opacity="0.46"/>
</linearGradient>
<linearGradient id="paint19_linear_149_21" x1="314" y1="265.392" x2="487.279" y2="102.689" gradientUnits="userSpaceOnUse">
<stop stop-color="#13EDB1" stop-opacity="0.46"/>
<stop offset="1" stop-color="#13B3D3" stop-opacity="0.46"/>
</linearGradient>
</defs>
</svg>
