<?xml version="1.0" encoding="UTF-8"?>
<svg xmlns="http://www.w3.org/2000/svg" xmlns:xlink="http://www.w3.org/1999/xlink" version="1.1" viewBox="0 0 555.2 469.3">
  <!-- Generator: Adobe Illustrator 29.4.0, SVG Export Plug-In . SVG Version: 2.1.0 Build 152)  -->
  <defs>
    <style>
      .st0 {
        fill: url(#linear-gradient2);
      }

      .st1 {
        fill: url(#linear-gradient1);
      }

      .st2 {
        fill: url(#linear-gradient3);
      }

      .st3 {
        fill: url(#linear-gradient5);
      }

      .st4 {
        fill: url(#linear-gradient4);
      }

      .st5 {
        fill: #d9d9d9;
      }

      .st6 {
        fill: url(#linear-gradient);
      }

      .st7 {
        fill: #13b3d3;
      }

      .st8 {
        isolation: isolate;
      }

      .st9, .st10 {
        stroke: #fff;
      }

      .st9, .st11 {
        fill: #fff;
      }

      .st10, .st12 {
        fill: none;
        stroke-width: 3px;
      }

      .st13 {
        mix-blend-mode: hard-light;
      }

      .st14 {
        mix-blend-mode: screen;
      }

      .st12 {
        stroke: #13b3d3;
      }
    </style>
    <linearGradient id="linear-gradient" x1="100.8" y1="356.9" x2="86.3" y2="538.2" gradientTransform="translate(331.8 571.6) rotate(30) scale(1 -.9) skewX(-26.6)" gradientUnits="userSpaceOnUse">
      <stop offset="0" stop-color="#fff" stop-opacity=".4"/>
      <stop offset="1" stop-color="#fff" stop-opacity="0"/>
    </linearGradient>
    <linearGradient id="linear-gradient1" x1="136.7" y1="528.7" x2="19.8" y2="213" gradientTransform="translate(-111.4 416.6) rotate(30) scale(1 -.9) skewX(26.6)" gradientUnits="userSpaceOnUse">
      <stop offset="0" stop-color="#12bacf"/>
      <stop offset="1" stop-color="#12d8bd"/>
    </linearGradient>
    <linearGradient id="linear-gradient2" x1="136.4" y1="528.7" x2="53.2" y2="334.6" gradientTransform="translate(71.9 538) rotate(30) scale(1 -.9) skewX(-26.6)" gradientUnits="userSpaceOnUse">
      <stop offset="0" stop-color="#12bacf" stop-opacity=".4"/>
      <stop offset="1" stop-color="#12d8bd" stop-opacity=".4"/>
    </linearGradient>
    <linearGradient id="linear-gradient3" x1="136.4" y1="528.7" x2="53.2" y2="334.6" gradientTransform="translate(316.9 546) rotate(30) scale(1 -.9) skewX(-26.6)" gradientUnits="userSpaceOnUse">
      <stop offset="0" stop-color="#12bacf" stop-opacity=".4"/>
      <stop offset="1" stop-color="#12d8bd" stop-opacity=".4"/>
    </linearGradient>
    <linearGradient id="linear-gradient4" x1="100.8" y1="356.9" x2="86.3" y2="538.2" gradientTransform="translate(58.8 584) rotate(30) scale(1 -.9) skewX(-26.6)" gradientUnits="userSpaceOnUse">
      <stop offset="0" stop-color="#fff" stop-opacity=".4"/>
      <stop offset="1" stop-color="#fff" stop-opacity="0"/>
    </linearGradient>
    <linearGradient id="linear-gradient5" x1="100.8" y1="356.9" x2="86.3" y2="538.2" gradientTransform="translate(296.8 591.6) rotate(30) scale(1 -.9) skewX(-26.6)" gradientUnits="userSpaceOnUse">
      <stop offset="0" stop-color="#fff" stop-opacity=".4"/>
      <stop offset="1" stop-color="#fff" stop-opacity="0"/>
    </linearGradient>
  </defs>
  <g class="st8">
    <g id="Layer_1">
      <g id="Group_158">
        <g id="Rectangle_318" class="st13">
          <path class="st6" d="M333.6,32.8l158.3,91.4c.5.3.9.9.9,1.5v182.8c0,.6-.4.8-.9.5l-158.3-91.4c-.5-.3-.9-.9-.9-1.5V33.2c0-.6.4-.8.9-.5Z"/>
        </g>
        <path id="Rectangle_305" class="st7" d="M304.4,155.8l239.1,138.1c14.8,8.6,14.8,22.4,0,31l-239.1,138.1c-14.8,8.6-38.9,8.6-53.7,0L11.6,324.8c-14.8-8.6-14.8-22.4,0-31l239.1-138.1c14.8-8.6,38.9-8.6,53.7,0Z"/>
        <path id="Rectangle_306" class="st1" d="M303.6,116.2l240.9,139.1c14.3,8.3,14.3,21.7,0,30l-240.9,139.1c-14.3,8.3-37.6,8.3-52,0L10.8,285.3c-14.3-8.3-14.3-21.7,0-30L251.6,116.2c14.3-8.3,37.6-8.3,52,0Z"/>
        <path id="Rectangle_319" class="st10" d="M302.3,117l240.9,139.1c13.6,7.9,13.6,20.6,0,28.5l-240.9,139.1c-13.6,7.9-35.7,7.9-49.4,0L12.1,284.6c-13.6-7.9-13.6-20.6,0-28.5L252.9,117c13.6-7.9,35.7-7.9,49.4,0Z"/>
        <g id="Rectangle_309" class="st13">
          <path class="st11" d="M104.6,204.1l158.4,91.5c1.4.8,1.4,2.2,0,3l-42.6,24.6c-1.4.8-3.8.8-5.2,0L56.8,231.7c-1.4-.8-1.4-2.2,0-3l42.6-24.6c1.4-.8,3.8-.8,5.2,0Z"/>
        </g>
        <g id="Rectangle_313" class="st13">
          <polygon class="st11" points="304.5 241.1 308.7 243.6 240.2 283.1 236 280.7 304.5 241.1"/>
        </g>
        <g id="Rectangle_316" class="st13">
          <polygon class="st11" points="377.3 287.2 381.5 289.7 288.4 343.4 284.2 341 377.3 287.2"/>
        </g>
        <g id="Rectangle_317" class="st13">
          <polygon class="st11" points="228.8 309.7 232.9 307.2 292 341.3 287.8 343.8 228.8 309.7"/>
        </g>
        <g id="Rectangle_314" class="st13">
          <polygon class="st11" points="268 182.4 272.1 184.8 170.9 243.2 166.8 240.8 268 182.4"/>
        </g>
        <g id="Rectangle_315" class="st13">
          <polygon class="st11" points="268 182.4 272.1 180 373.3 238.4 369.1 240.8 268 182.4"/>
        </g>
        <g id="Rectangle_310" class="st13">
          <path class="st11" d="M343.2,210.8l158.4,91.5c1.4.8,1.4,2.2,0,3l-42.6,24.6c-1.4.8-3.8.8-5.2,0l-158.4-91.5c-1.4-.8-1.4-2.2,0-3l42.6-24.6c1.4-.8,3.8-.8,5.2,0Z"/>
        </g>
        <g id="Rectangle_307" class="st13">
          <polygon class="st0" points="74.1 1.5 233.5 93.5 233.5 307 74.1 215 74.1 1.5"/>
          <polygon class="st12" points="74.1 1.5 233.5 93.5 233.5 307 74.1 215 74.1 1.5"/>
        </g>
        <g id="Rectangle_308" class="st13">
          <polygon class="st2" points="319.1 9.5 478.5 101.5 478.5 315 319.1 223 319.1 9.5"/>
          <polygon class="st12" points="319.1 9.5 478.5 101.5 478.5 315 319.1 223 319.1 9.5"/>
        </g>
        <g id="Group_147" class="st14">
          <polygon id="Rectangle_312" class="st5" points="154 102.2 165.6 114.9 129.8 185.8 118.2 173 154 102.2"/>
          <polygon id="Rectangle_313_x5F_2" class="st5" points="182.6 124.8 194.2 137.6 158.4 208.4 146.8 195.7 182.6 124.8"/>
          <polygon id="Rectangle_314_x5F_2" class="st5" points="110.8 126.2 110.8 111.6 197.8 162.2 197.7 176.9 110.8 126.2"/>
          <polygon id="Rectangle_315_x5F_2" class="st5" points="110.8 151.9 110.8 137.3 197.8 188 197.7 202.6 110.8 151.9"/>
        </g>
        <g id="Group_148" class="st14">
          <polygon id="Rectangle_312_x5F_2" class="st5" points="355.8 143.2 362.6 130.3 415.4 189.3 408.6 202.3 355.8 143.2"/>
          <polygon id="Rectangle_313_x5F_3" class="st5" points="428.3 125.1 442.8 141.7 408.8 201.6 394.3 185 428.3 125.1"/>
        </g>
        <g id="Rectangle_311" class="st13">
          <path class="st4" d="M60.6,45.2l158.3,91.4c.5.3.9.9.9,1.5v182.8c0,.6-.4.8-.9.5L60.6,230c-.5-.3-.9-.9-.9-1.5V45.7c0-.6.4-.8.9-.5Z"/>
        </g>
        <g id="Rectangle_312_x5F_3" class="st13">
          <path class="st3" d="M298.6,52.8l158.3,91.4c.5.3.9.9.9,1.5v182.8c0,.6-.4.8-.9.5l-158.3-91.4c-.5-.3-.9-.9-.9-1.5V53.2c0-.6.4-.8.9-.5Z"/>
        </g>
        <path id="Ellipse_88" class="st9" d="M278.4,178.8c3.8,2.2,3.8,5.8,0,8s-10,2.2-13.9,0-3.8-5.8,0-8,10-2.2,13.9,0Z"/>
        <path id="Ellipse_89" class="st9" d="M278.4,257.8c3.8,2.2,3.8,5.8,0,8s-10,2.2-13.9,0-3.8-5.8,0-8,10-2.2,13.9,0Z"/>
        <path id="Ellipse_90" class="st9" d="M292.4,334.8c3.8,2.2,3.8,5.8,0,8s-10,2.2-13.9,0-3.8-5.8,0-8,10-2.2,13.9,0Z"/>
      </g>
    </g>
  </g>
</svg>