<svg xmlns="http://www.w3.org/2000/svg" fill="none" viewBox="0 22.53 650.69 629.95" xmlns:v="https://vecta.io/nano"><use href="#S" transform="matrix(.866025 .5 -.866025 .5 325.297 161.209)" fill="url(#A)"/><use href="#T" transform="matrix(.866025 .5 -.866025 .5 73.375 69.9185)" fill="url(#B)"/><use href="#T" transform="matrix(.866025 .5 0 1 34.6719 92.123)" fill="url(#C)"/><use href="#U" fill="url(#D)"/><use href="#S" transform="matrix(.866025 .5 -.866025 .5 325.297 250.213)" fill="url(#E)"/><use href="#S" transform="matrix(.866025 .5 -.866025 .5 325.297 276.799)" fill="url(#F)"/><path transform="matrix(.866025 .5 0 1 0 348.564)" fill="url(#G)" d="M0 0h375.737v46.238H0z"/><path transform="matrix(.866025 -.5 0 1 324.68 537.342)" fill="url(#G)" d="M0 0h375.737v46.238H0z"/><path fill-rule="evenodd" d="M167.676 273.455c2.271-2.782 1.367-6.238-2.682-8.575-5.134-2.964-13.38-3.009-18.417-.101s-4.96 7.669.174 10.633c4.045 2.336 10.023 2.859 14.841 1.552l123.941 71.558-125.344 71.656c-5.148-2.334-12.549-2.17-17.208.52-5.037 2.908-4.96 7.669.174 10.633s13.379 3.008 18.417.1c3.211-1.854 4.344-4.461 3.413-6.875l126.745-72.457 13.575 7.838-125.786 71.909c-4.872-1.38-10.869-.928-14.856 1.373-5.037 2.909-4.959 7.669.174 10.633s13.379 3.009 18.417.101c3.956-2.284 4.758-5.711 2.433-8.512l125.815-71.926 139.3 80.425c-2.268 2.782-1.364 6.237 2.684 8.574 5.134 2.964 13.38 3.009 18.417.1s4.96-7.669-.174-10.633c-4.046-2.336-10.026-2.859-14.844-1.551l-139.272-80.409 18.335-10.481 139.182 80.356c-2.268 2.783-1.364 6.237 2.684 8.574 5.134 2.964 13.38 3.009 18.417.101s4.96-7.669-.174-10.633c-4.046-2.337-10.026-2.859-14.844-1.552l-139.154-80.34 135.626-77.535c4.389.727 9.267.111 12.676-1.857 5.038-2.909 4.96-7.67-.173-10.633s-13.38-3.009-18.417-.101c-4.49 2.592-4.917 6.656-1.322 9.607l-134.587 76.941-13.575-7.838 137.051-78.349c3.386.043 6.773-.673 9.332-2.15 5.038-2.909 4.96-7.669-.174-10.633s-13.379-3.009-18.416-.101-4.96 7.669.173 10.633c.095.055.19.108.286.16L316.09 331.053l-124.086-71.641c2.27-2.783 1.366-6.238-2.682-8.575-5.134-2.964-13.38-3.009-18.417-.101s-4.96 7.669.174 10.633c4.045 2.336 10.024 2.859 14.842 1.552l124.058 71.625-18.335 10.482-123.968-71.573zm130.165 75.151l18.335-10.482 13.575 7.838-18.335 10.482-13.575-7.838z" fill="#a5fffe"/><path transform="matrix(.866025 .5 -.866025 .5 323.188 250.213)" fill="url(#H)" d="M0 0h196.353v194.34H0z"/><path transform="matrix(.866025 .5 -.866025 .5 321.617 262.928)" fill="url(#I)" d="M0 0h170.362v167.16H0z"/><rect x="2.598" width="268.041" height="273.26" rx="16.5" transform="matrix(.866025 -.5 .866025 .5 84.8012 349.395)" stroke="#a5fffe" stroke-width="3"/><g fill="#a5fffe"><g transform="matrix(.866025 -.5 .866025 .5 78.6016 347.887)"><ellipse cx="12.137" cy="11.559" rx="12.137" ry="11.559"/><ellipse cx="12.137" cy="11.559" rx="12.137" ry="11.559"/><ellipse cx="12.137" cy="11.559" rx="12.137" ry="11.559"/></g><g transform="matrix(.866025 -.5 .866025 .5 521.312 350.198)"><ellipse cx="12.137" cy="11.559" rx="12.137" ry="11.559"/><ellipse cx="12.137" cy="11.559" rx="12.137" ry="11.559"/><ellipse cx="12.137" cy="11.559" rx="12.137" ry="11.559"/></g><g transform="matrix(.866025 -.5 .866025 .5 302.844 478.503)"><ellipse cx="12.137" cy="11.559" rx="12.137" ry="11.559"/><ellipse cx="12.137" cy="11.559" rx="12.137" ry="11.559"/><ellipse cx="12.137" cy="11.559" rx="12.137" ry="11.559"/></g><g transform="matrix(.866025 -.5 .866025 .5 301.688 219.582)"><ellipse cx="12.137" cy="11.559" rx="12.137" ry="11.559"/><ellipse cx="12.137" cy="11.559" rx="12.137" ry="11.559"/><ellipse cx="12.137" cy="11.559" rx="12.137" ry="11.559"/></g></g><path d="M324.257 429.359l-147.228-82.118-3.941-265.901 151.21 62.695-.041 285.324z" fill="url(#J)"/><path transform="matrix(-.873235 .4873 .014603 -.999893 465.688 351.894)" fill="url(#K)" d="M0 0h163.98v275.818H0z"/><path d="M315.156 278.196c-5.08-2.933-9.526-6.366-13.336-10.3-3.811-4-6.784-8.216-8.921-12.65-2.136-4.5-3.204-8.916-3.204-13.25s1.039-7.4 3.118-9.2c2.136-1.833 5.109-2.416 8.92-1.75 3.81.6 8.285 2.384 13.423 5.35 5.196 3 9.7 6.4 13.51 10.2 3.869 3.767 6.842 7.784 8.92 12.05 2.137 4.234 3.205 8.517 3.205 12.85s-1.068 7.517-3.205 9.55c-2.136 1.967-5.138 2.734-9.006 2.3-3.811-.466-8.285-2.183-13.424-5.15zm0-11.9c3.522 2.034 6.293 2.734 8.314 2.1 2.079-.6 3.118-2.466 3.118-5.6s-1.039-6.166-3.118-9.1c-2.021-2.966-4.792-5.466-8.314-7.5-3.464-2-6.206-2.683-8.227-2.05-2.021.567-3.031 2.417-3.031 5.55s1.01 6.184 3.031 9.15 4.763 5.45 8.227 7.45zm0-21.7c-4.676-2.7-8.775-5.8-12.297-9.3-3.464-3.466-6.178-7.166-8.141-11.1-1.905-3.966-2.858-7.916-2.858-11.85 0-4.133.982-7.1 2.945-8.9 1.963-1.866 4.705-2.583 8.227-2.15 3.522.367 7.563 1.867 12.124 4.5 4.677 2.7 8.747 5.884 12.211 9.55 3.522 3.634 6.265 7.517 8.227 11.65 2.021 4.1 3.032 8.217 3.032 12.35 0 3.934-.982 6.767-2.945 8.5-1.905 1.7-4.619 2.267-8.141 1.7s-7.649-2.216-12.384-4.95zm0-9.5c2.945 1.7 5.254 2.267 6.929 1.7 1.732-.533 2.598-2.133 2.598-4.8 0-2.8-.895-5.483-2.685-8.05-1.732-2.533-4.013-4.616-6.842-6.25-2.771-1.6-5.023-2.133-6.755-1.6s-2.598 2.2-2.598 5c0 2.667.837 5.25 2.512 7.75s3.955 4.584 6.841 6.25zM184.334 135.048v-10.5l23.383-12c1.848-.867 3.204-1.817 4.07-2.85s1.444-2.1 1.733-3.2a10.32 10.32 0 0 0 .519-3.2c0-2.8-.837-5.417-2.511-7.85-1.617-2.467-4.013-4.617-7.188-6.45-2.541-1.467-4.908-2.267-7.102-2.4-2.136-.1-3.955.617-5.456 2.15l-10.219-13.5c2.31-2.667 5.543-3.967 9.7-3.9s8.949 1.667 14.376 4.8c4.503 2.6 8.429 5.733 11.778 9.4 3.406 3.633 6.033 7.517 7.88 11.65 1.906 4.167 2.858 8.383 2.858 12.65 0 2.267-.259 4.383-.779 6.35-.462 1.933-1.443 3.7-2.945 5.3-1.443 1.633-3.579 3.167-6.408 4.6l-19.399 9.9-2.685-7.45 34.208 19.75v13.2l-45.813-26.45zm220.292 151.839l19.537-39.76 2.91 7.28-26.119-15.08 4.988-3.2v15.2l-9.977-5.76v-19.68l38.868 22.44v8.4l-18.014 37.2-12.193-7.04zm-45.486 82.845c-2.483-1.433-4.705-3.416-6.668-5.95-1.963-2.566-3.508-5.525-4.634-8.875s-1.688-6.941-1.688-10.775.563-6.775 1.688-8.825 2.671-3.208 4.634-3.475c1.963-.3 4.185.267 6.668 1.7 2.512 1.45 4.734 3.45 6.668 6 1.963 2.534 3.508 5.475 4.634 8.825s1.688 6.942 1.688 10.775-.562 6.775-1.688 8.825-2.671 3.225-4.634 3.525c-1.934.284-4.156-.3-6.668-1.75zm0-6.85c1.184.684 2.208.892 3.074.625.895-.25 1.588-1.066 2.079-2.45.52-1.366.779-3.366.779-6s-.259-4.933-.779-6.9c-.491-1.95-1.184-3.566-2.079-4.85-.866-1.266-1.89-2.241-3.074-2.925-1.155-.666-2.179-.875-3.074-.625-.866.267-1.559 1.084-2.079 2.45-.491 1.384-.736 3.392-.736 6.025s.245 4.925.736 6.875c.52 1.967 1.213 3.584 2.079 4.85.895 1.284 1.919 2.259 3.074 2.925zm-89.228 1.45v-32l3.031 5.25-9.093-5.25v-6.5l13.077 7.55v35l-7.015-4.05zm-52.892-81.8c-4.215-2.433-8.4-5.483-12.557-9.15-4.099-3.7-7.621-7.6-10.566-11.7l5.543-9.2c2.309 3.267 4.965 6.333 7.967 9.2 3.06 2.9 6.149 5.25 9.267 7.05 3.522 2.033 6.293 2.833 8.314 2.4s3.031-2.083 3.031-4.95c0-1.8-.404-3.633-1.213-5.5s-2.251-3.767-4.33-5.7c-2.021-1.9-4.878-3.917-8.574-6.05l-15.501-8.95 3.117-37.6 36.98 21.35v13l-31.957-18.45 7.275-3.2-2.165 26.85-7.275-11.6 12.817 7.4c6.005 3.467 10.826 7.217 14.463 11.25 3.695 4 6.38 8.117 8.054 12.35s2.511 8.417 2.511 12.55-.894 7.45-2.684 9.95c-1.79 2.433-4.561 3.667-8.314 3.7-3.695 0-8.429-1.667-14.203-5z" style="mix-blend-mode:screen" fill="#fff"/><use href="#T" transform="matrix(.866025 .5 -.866025 .5 78 250.238)" fill="url(#B)"/><use href="#T" transform="matrix(.866025 .5 0 1 39.2969 272.443)" fill="url(#C)"/><use href="#U" x="4.625" y="180.32" fill="url(#D)"/><use href="#T" transform="matrix(.866025 .5 -.866025 .5 320.742 421.312)" fill="url(#L)"/><use href="#T" transform="matrix(.866025 .5 0 1 282.039 443.516)" fill="url(#C)"/><use href="#U" x="247.367" y="351.393" fill="url(#M)"/><use href="#T" transform="matrix(.866025 .5 -.866025 .5 591.227 276.824)" fill="url(#B)"/><use href="#T" transform="matrix(.866025 .5 0 1 552.516 299.029)" fill="url(#N)"/><path d="M591.375 321.52l38.859-22.277.094 44.481-38.953 22.49V321.52z" fill="url(#O)"/><use href="#T" transform="matrix(.866025 .5 0 1 513.219 44.7319)" fill="url(#P)"/><use href="#T" transform="matrix(.866025 .5 -.866025 .5 551.922 22.5273)" fill="url(#Q)"/><path d="M552.078 67.222l38.859-22.276.095 44.481-38.954 22.49V67.222z" fill="url(#R)"/><path d="M348.14 59.575c8.4 4.85 15.632 11.025 21.694 18.525s10.738 16.05 14.029 25.65c3.291 9.5 4.937 19.95 4.937 31.35 0 12.1-1.992 21.2-5.976 27.3-3.897 6.15-9.31 9.425-16.238 9.825s-14.982-2.05-24.162-7.35c-4.763-2.75-9.353-6-13.77-9.75s-8.227-7.75-11.431-12l7.794-13.35c2.511 3.45 5.196 6.4 8.054 8.85 2.858 2.35 5.846 4.425 8.963 6.225 7.795 4.5 13.987 5.325 18.577 2.475 4.676-2.8 7.014-9.6 7.014-20.4a158.63 158.63 0 0 0-.13-6.075c-.086-2.25-.303-4.575-.649-6.975l5.716 9.6c-1.473 3.05-3.551 5.15-6.236 6.3-2.684 1.05-5.802 1.25-9.353.6-3.55-.75-7.534-2.4-11.951-4.95-5.802-3.35-11.085-7.75-15.848-13.2-4.677-5.4-8.444-11.375-11.302-17.925-2.771-6.5-4.157-13.05-4.157-19.65 0-7.2 1.516-12.525 4.547-15.975 3.118-3.4 7.275-5 12.471-4.8 5.282.15 11.085 2.05 17.407 5.7zm1.299 18.9c-3.031-1.75-5.673-2.625-7.924-2.625-2.252-.1-4.027.675-5.326 2.325-1.299 1.55-1.949 3.925-1.949 7.125 0 4.8 1.386 9.45 4.157 13.95 2.858 4.45 6.625 8.025 11.302 10.725 3.031 1.75 5.715 2.65 8.054 2.7 2.425 0 4.286-.825 5.586-2.475s1.948-3.975 1.948-6.975-.649-6.025-1.948-9.075c-1.213-3.1-2.988-5.975-5.327-8.625-2.338-2.75-5.196-5.1-8.573-7.05z" fill="#fff" style="mix-blend-mode:screen"/><defs><linearGradient id="A" x1="409.314" y1="-152.705" x2="112.052" y2="358.35" href="#V"><stop stop-color="#13edb1"/><stop offset="1" stop-color="#13b3d3"/></linearGradient><linearGradient id="B" x1="79.099" y1="28.774" x2="11.41" y2="59.023" href="#V"><stop stop-color="#13edb1"/><stop offset="1" stop-color="#13b3d3"/></linearGradient><linearGradient id="C" x1="48.999" y1="-18.17" x2="13.734" y2="42.825" href="#V"><stop offset="1" stop-color="#13b3d3"/></linearGradient><linearGradient id="D" x1="138.725" y1="129.093" x2="58.582" y2="116.972" href="#V"><stop stop-color="#13edb1"/><stop offset="1" stop-color="#13b3d3"/></linearGradient><linearGradient id="E" x1="409.314" y1="-152.705" x2="112.052" y2="358.35" href="#V"><stop stop-color="#13edb1" stop-opacity=".65"/><stop offset="1" stop-color="#13b3d3" stop-opacity=".69"/></linearGradient><linearGradient id="F" x1="409.314" y1="-152.705" x2="112.052" y2="358.35" href="#V"><stop stop-color="#13edb1" stop-opacity=".25"/><stop offset="1" stop-color="#13b3d3" stop-opacity=".31"/></linearGradient><linearGradient id="G" x1="265.969" y1="2.289" x2="262.61" y2="53.899" href="#V"><stop stop-color="#13edb1"/><stop offset="1" stop-color="#13b3d3"/></linearGradient><linearGradient id="H" x1="138.99" y1="9.622" x2="49.476" y2="180.589" href="#V"><stop stop-color="#13edb1"/></linearGradient><linearGradient id="I" x1="120.592" y1="8.276" x2="43.978" y2="155.878" href="#V"><stop stop-color="#a5fffe"/></linearGradient><linearGradient id="J" x1="250.614" y1="388.296" x2="362.797" y2="187.163" href="#V"><stop stop-color="#fff" stop-opacity=".29"/><stop offset="1" stop-color="#639998" stop-opacity="0"/></linearGradient><linearGradient id="K" x1="81.99" y1="0" x2="81.99" y2="275.818" href="#V"><stop stop-color="#fff" stop-opacity=".29"/><stop offset="1" stop-color="#639998" stop-opacity="0"/></linearGradient><linearGradient id="L" x1="1.825" y1="-36.281" x2="64.063" y2="58.121" href="#V"><stop stop-color="#13edb1"/><stop offset="1" stop-color="#13b3d3"/></linearGradient><linearGradient id="M" x1="138.726" y1="129.093" x2="58.583" y2="116.973" href="#V"><stop offset="1" stop-color="#13b3d3"/></linearGradient><linearGradient id="N" x1="17.145" y1="42.612" x2="35.621" y2="-21.022" href="#V"><stop stop-color="#13edb1"/><stop offset="1" stop-color="#13b3d3"/></linearGradient><linearGradient id="O" x1="656.569" y1="335.999" x2="576.426" y2="323.879" href="#V"><stop stop-color="#13edb1"/><stop offset="1" stop-color="#13b3d3"/></linearGradient><linearGradient id="P" x1="43.984" y1="29.621" x2="20.344" y2="-6.734" href="#V"><stop stop-color="#13edb1"/><stop offset="1" stop-color="#13b3d3"/></linearGradient><linearGradient id="Q" x1="55.378" y1="-12.319" x2="16.077" y2="43.222" href="#V"><stop stop-color="#13edb1"/><stop offset=".753" stop-color="#13b3d3"/></linearGradient><linearGradient id="R" x1="617.272" y1="81.702" x2="537.129" y2="69.581" href="#V"><stop offset="1" stop-color="#13b3d3"/></linearGradient><path id="S" d="M0 0h375.737v375.618H0z"/><path id="T" d="M0 0h44.979v44.694H0z"/><path id="U" d="M73.531 114.613l38.859-22.276.095 44.481-38.954 22.49v-44.695z"/><linearGradient id="V" gradientUnits="userSpaceOnUse"/></defs></svg>