<svg xmlns="http://www.w3.org/2000/svg" fill="none" viewBox="0 22.53 650.69 629.95">
<g id="Group 137">
<rect id="Rectangle 287" width="375.737" height="375.618" transform="matrix(0.866025 0.5 -0.866025 0.5 325.297 161.209)" fill="url(#paint0_linear_160_123)"/>
<g id="Group 132">
<rect id="Rectangle 302" width="44.9795" height="44.6944" transform="matrix(0.866025 0.5 -0.866025 0.5 73.375 69.9185)" fill="url(#paint1_linear_160_123)"/>
<rect id="Rectangle 303" width="44.9795" height="44.6944" transform="matrix(0.866025 0.5 0 1 34.6719 92.123)" fill="url(#paint2_linear_160_123)"/>
<path id="Rectangle 304" d="M73.5312 114.613L112.39 92.337L112.485 136.818L73.5312 159.308V114.613Z" fill="url(#paint3_linear_160_123)"/>
</g>
<rect id="Rectangle 297" width="375.737" height="375.618" transform="matrix(0.866025 0.5 -0.866025 0.5 325.297 250.213)" fill="url(#paint4_linear_160_123)"/>
<rect id="Rectangle 298" width="375.737" height="375.618" transform="matrix(0.866025 0.5 -0.866025 0.5 325.297 276.799)" fill="url(#paint5_linear_160_123)"/>
<rect id="Rectangle 288" width="375.737" height="46.2381" transform="matrix(0.866025 0.5 0 1 0 348.564)" fill="url(#paint6_linear_160_123)"/>
<rect id="Rectangle 289" width="375.737" height="46.2381" transform="matrix(0.866025 -0.5 0 1 324.68 537.342)" fill="url(#paint7_linear_160_123)"/>
<path id="Union" fill-rule="evenodd" clip-rule="evenodd" d="M167.676 273.455C169.947 270.673 169.043 267.217 164.994 264.88C159.86 261.916 151.614 261.871 146.577 264.779C141.539 267.688 141.617 272.448 146.751 275.412C150.796 277.748 156.774 278.271 161.592 276.964L285.533 348.522L160.189 420.178C155.041 417.844 147.64 418.008 142.981 420.698C137.944 423.606 138.021 428.367 143.155 431.331C148.289 434.295 156.534 434.339 161.572 431.431C164.783 429.577 165.916 426.97 164.985 424.556L291.73 352.099L305.305 359.937L179.519 431.846C174.647 430.466 168.65 430.918 164.663 433.219C159.626 436.128 159.704 440.888 164.837 443.852C169.971 446.816 178.216 446.861 183.254 443.953C187.21 441.669 188.012 438.242 185.687 435.441L311.502 363.515L450.802 443.94C448.534 446.722 449.438 450.177 453.486 452.514C458.62 455.478 466.866 455.523 471.903 452.614C476.941 449.706 476.863 444.945 471.729 441.981C467.683 439.645 461.703 439.122 456.885 440.43L317.613 360.021L335.948 349.54L475.13 429.896C472.862 432.679 473.766 436.133 477.814 438.47C482.948 441.434 491.194 441.479 496.231 438.571C501.269 435.662 501.191 430.902 496.057 427.938C492.011 425.601 486.031 425.079 481.213 426.386L342.059 346.046L477.685 268.511C482.074 269.238 486.952 268.622 490.361 266.654C495.399 263.745 495.321 258.984 490.188 256.021C485.054 253.057 476.808 253.012 471.771 255.92C467.281 258.512 466.854 262.576 470.449 265.527L335.862 342.468L322.287 334.63L459.338 256.281C462.724 256.324 466.111 255.608 468.67 254.131C473.708 251.222 473.63 246.462 468.496 243.498C463.363 240.534 455.117 240.489 450.08 243.397C445.042 246.306 445.12 251.066 450.253 254.03C450.348 254.085 450.443 254.138 450.539 254.19L316.09 331.053L192.004 259.412C194.274 256.629 193.37 253.174 189.322 250.837C184.188 247.873 175.942 247.828 170.905 250.736C165.867 253.645 165.945 258.405 171.079 261.369C175.124 263.705 181.103 264.228 185.921 262.921L309.979 334.546L291.644 345.028L167.676 273.455ZM297.841 348.606L316.176 338.124L329.751 345.962L311.416 356.444L297.841 348.606Z" fill="#A5FFFE"/>
<rect id="Rectangle 290" width="196.353" height="194.34" transform="matrix(0.866025 0.5 -0.866025 0.5 323.188 250.213)" fill="url(#paint8_linear_160_123)"/>
<rect id="Rectangle 292" width="170.362" height="167.16" transform="matrix(0.866025 0.5 -0.866025 0.5 321.617 262.928)" fill="url(#paint9_linear_160_123)"/>
<rect id="Rectangle 296" x="2.59808" width="268.041" height="273.26" rx="16.5" transform="matrix(0.866025 -0.5 0.866025 0.5 84.8012 349.395)" stroke="#A5FFFE" stroke-width="3"/>
<g id="Ellipse 79">
<ellipse cx="12.1369" cy="11.559" rx="12.1369" ry="11.559" transform="matrix(0.866025 -0.5 0.866025 0.5 78.6016 347.887)" fill="#A5FFFE"/>
<ellipse cx="12.1369" cy="11.559" rx="12.1369" ry="11.559" transform="matrix(0.866025 -0.5 0.866025 0.5 78.6016 347.887)" fill="#A5FFFE"/>
<ellipse cx="12.1369" cy="11.559" rx="12.1369" ry="11.559" transform="matrix(0.866025 -0.5 0.866025 0.5 78.6016 347.887)" fill="#A5FFFE"/>
</g>
<g id="Ellipse 82">
<ellipse cx="12.1369" cy="11.559" rx="12.1369" ry="11.559" transform="matrix(0.866025 -0.5 0.866025 0.5 521.312 350.198)" fill="#A5FFFE"/>
<ellipse cx="12.1369" cy="11.559" rx="12.1369" ry="11.559" transform="matrix(0.866025 -0.5 0.866025 0.5 521.312 350.198)" fill="#A5FFFE"/>
<ellipse cx="12.1369" cy="11.559" rx="12.1369" ry="11.559" transform="matrix(0.866025 -0.5 0.866025 0.5 521.312 350.198)" fill="#A5FFFE"/>
</g>
<g id="Ellipse 81">
<ellipse cx="12.1369" cy="11.559" rx="12.1369" ry="11.559" transform="matrix(0.866025 -0.5 0.866025 0.5 302.844 478.503)" fill="#A5FFFE"/>
<ellipse cx="12.1369" cy="11.559" rx="12.1369" ry="11.559" transform="matrix(0.866025 -0.5 0.866025 0.5 302.844 478.503)" fill="#A5FFFE"/>
<ellipse cx="12.1369" cy="11.559" rx="12.1369" ry="11.559" transform="matrix(0.866025 -0.5 0.866025 0.5 302.844 478.503)" fill="#A5FFFE"/>
</g>
<g id="Ellipse 80">
<ellipse cx="12.1369" cy="11.559" rx="12.1369" ry="11.559" transform="matrix(0.866025 -0.5 0.866025 0.5 301.688 219.582)" fill="#A5FFFE"/>
<ellipse cx="12.1369" cy="11.559" rx="12.1369" ry="11.559" transform="matrix(0.866025 -0.5 0.866025 0.5 301.688 219.582)" fill="#A5FFFE"/>
<ellipse cx="12.1369" cy="11.559" rx="12.1369" ry="11.559" transform="matrix(0.866025 -0.5 0.866025 0.5 301.688 219.582)" fill="#A5FFFE"/>
</g>
<path id="Rectangle 299" d="M324.257 429.359L177.029 347.241L173.088 81.3398L324.298 144.035L324.257 429.359Z" fill="url(#paint10_linear_160_123)"/>
<rect id="Rectangle 300" width="163.98" height="275.818" transform="matrix(-0.873235 0.4873 0.0146029 -0.999893 465.688 351.894)" fill="url(#paint11_linear_160_123)"/>
<g id="8" style="mix-blend-mode:screen" filter="url(#filter0_d_160_123)">
<path d="M315.156 278.196C310.076 275.263 305.63 271.83 301.82 267.896C298.009 263.896 295.036 259.68 292.899 255.246C290.763 250.746 289.695 246.33 289.695 241.996C289.695 237.663 290.734 234.596 292.813 232.796C294.949 230.963 297.922 230.38 301.733 231.046C305.543 231.646 310.018 233.43 315.156 236.396C320.352 239.396 324.856 242.796 328.666 246.596C332.535 250.363 335.508 254.38 337.586 258.646C339.723 262.88 340.791 267.163 340.791 271.496C340.791 275.83 339.723 279.013 337.586 281.046C335.45 283.013 332.448 283.78 328.58 283.346C324.769 282.88 320.295 281.163 315.156 278.196ZM315.156 266.296C318.678 268.33 321.449 269.03 323.47 268.396C325.549 267.796 326.588 265.93 326.588 262.796C326.588 259.663 325.549 256.63 323.47 253.696C321.449 250.73 318.678 248.23 315.156 246.196C311.692 244.196 308.95 243.513 306.929 244.146C304.908 244.713 303.898 246.563 303.898 249.696C303.898 252.83 304.908 255.88 306.929 258.846C308.95 261.813 311.692 264.296 315.156 266.296ZM315.156 244.596C310.48 241.896 306.381 238.796 302.859 235.296C299.395 231.83 296.681 228.13 294.718 224.196C292.813 220.23 291.86 216.28 291.86 212.346C291.86 208.213 292.842 205.246 294.805 203.446C296.768 201.58 299.51 200.863 303.032 201.296C306.554 201.663 310.595 203.163 315.156 205.796C319.833 208.496 323.903 211.68 327.367 215.346C330.889 218.98 333.632 222.863 335.594 226.996C337.615 231.096 338.626 235.213 338.626 239.346C338.626 243.28 337.644 246.113 335.681 247.846C333.776 249.546 331.062 250.113 327.54 249.546C324.019 248.98 319.891 247.33 315.156 244.596ZM315.156 235.096C318.101 236.796 320.41 237.363 322.085 236.796C323.817 236.263 324.683 234.663 324.683 231.996C324.683 229.196 323.788 226.513 321.998 223.946C320.266 221.413 317.985 219.33 315.156 217.696C312.385 216.096 310.133 215.563 308.401 216.096C306.669 216.63 305.803 218.296 305.803 221.096C305.803 223.763 306.64 226.346 308.315 228.846C309.989 231.346 312.27 233.43 315.156 235.096Z" fill="white"/>
</g>
<g id="2" style="mix-blend-mode:screen" filter="url(#filter1_d_160_123)">
<path d="M184.334 135.048V124.548L207.717 112.548C209.565 111.681 210.921 110.731 211.787 109.698C212.653 108.665 213.231 107.598 213.52 106.498C213.866 105.431 214.039 104.365 214.039 103.298C214.039 100.498 213.202 97.8813 211.528 95.4479C209.911 92.9813 207.515 90.8313 204.34 88.9979C201.799 87.5313 199.432 86.7313 197.238 86.5979C195.102 86.4979 193.283 87.2146 191.782 88.7479L181.563 75.2479C183.873 72.5813 187.106 71.2813 191.263 71.3479C195.42 71.4146 200.212 73.0146 205.639 76.1479C210.142 78.7479 214.068 81.8813 217.417 85.5479C220.823 89.1813 223.45 93.0646 225.297 97.198C227.203 101.365 228.155 105.581 228.155 109.848C228.155 112.115 227.896 114.231 227.376 116.198C226.914 118.131 225.933 119.898 224.431 121.498C222.988 123.131 220.852 124.665 218.023 126.098L198.624 135.998L195.939 128.548L230.147 148.298V161.498L184.334 135.048Z" fill="white"/>
</g>
<g id="7" style="mix-blend-mode:screen" filter="url(#filter2_d_160_123)">
<path d="M404.626 286.887L424.163 247.127L427.073 254.407L400.954 239.327L405.942 236.127V251.327L395.965 245.567V225.887L434.833 248.327V256.727L416.819 293.927L404.626 286.887Z" fill="white"/>
</g>
<g id="0" style="mix-blend-mode:screen" filter="url(#filter3_d_160_123)">
<path d="M359.14 369.732C356.657 368.299 354.435 366.316 352.472 363.782C350.509 361.216 348.964 358.257 347.838 354.907C346.713 351.557 346.15 347.966 346.15 344.132C346.15 340.299 346.713 337.357 347.838 335.307C348.964 333.257 350.509 332.099 352.472 331.832C354.435 331.532 356.657 332.099 359.14 333.532C361.652 334.982 363.874 336.982 365.808 339.532C367.771 342.066 369.316 345.007 370.442 348.357C371.568 351.707 372.13 355.299 372.13 359.132C372.13 362.966 371.568 365.907 370.442 367.957C369.316 370.007 367.771 371.182 365.808 371.482C363.874 371.766 361.652 371.182 359.14 369.732ZM359.14 362.882C360.324 363.566 361.348 363.774 362.214 363.507C363.109 363.257 363.802 362.441 364.293 361.057C364.813 359.691 365.072 357.691 365.072 355.057C365.072 352.424 364.813 350.124 364.293 348.157C363.802 346.207 363.109 344.591 362.214 343.307C361.348 342.041 360.324 341.066 359.14 340.382C357.985 339.716 356.961 339.507 356.066 339.757C355.2 340.024 354.507 340.841 353.987 342.207C353.496 343.591 353.251 345.599 353.251 348.232C353.251 350.866 353.496 353.157 353.987 355.107C354.507 357.074 355.2 358.691 356.066 359.957C356.961 361.241 357.985 362.216 359.14 362.882Z" fill="white"/>
</g>
<g id="1" style="mix-blend-mode:screen" filter="url(#filter4_d_160_123)">
<path d="M269.912 364.332V332.332L272.943 337.582L263.85 332.332V325.832L276.927 333.382V368.382L269.912 364.332Z" fill="white"/>
</g>
<g id="5" style="mix-blend-mode:screen" filter="url(#filter5_d_160_123)">
<path d="M217.02 282.532C212.805 280.099 208.62 277.049 204.463 273.382C200.364 269.682 196.842 265.782 193.897 261.682L199.44 252.482C201.749 255.749 204.405 258.815 207.407 261.682C210.467 264.582 213.556 266.932 216.674 268.732C220.196 270.765 222.967 271.565 224.988 271.132C227.008 270.699 228.019 269.049 228.019 266.182C228.019 264.382 227.615 262.549 226.806 260.682C225.998 258.815 224.555 256.915 222.476 254.982C220.455 253.082 217.598 251.065 213.902 248.932L198.401 239.982L201.518 202.382L238.498 223.732V236.732L206.541 218.282L213.816 215.082L211.651 241.932L204.376 230.332L217.193 237.732C223.198 241.199 228.019 244.949 231.656 248.982C235.351 252.982 238.036 257.099 239.71 261.332C241.384 265.565 242.221 269.749 242.221 273.882C242.221 278.015 241.327 281.332 239.537 283.832C237.747 286.265 234.976 287.499 231.223 287.532C227.528 287.532 222.794 285.865 217.02 282.532Z" fill="white"/>
</g>
<g id="Group 134">
<rect id="Rectangle 302_2" width="44.9795" height="44.6944" transform="matrix(0.866025 0.5 -0.866025 0.5 78 250.238)" fill="url(#paint12_linear_160_123)"/>
<rect id="Rectangle 303_2" width="44.9795" height="44.6944" transform="matrix(0.866025 0.5 0 1 39.2969 272.443)" fill="url(#paint13_linear_160_123)"/>
<path id="Rectangle 304_2" d="M78.1562 294.933L117.015 272.657L117.11 317.138L78.1562 339.628V294.933Z" fill="url(#paint14_linear_160_123)"/>
</g>
<rect id="Rectangle 302_3" width="44.9795" height="44.6944" transform="matrix(0.866025 0.5 -0.866025 0.5 320.742 421.312)" fill="url(#paint15_linear_160_123)"/>
<rect id="Rectangle 303_3" width="44.9795" height="44.6944" transform="matrix(0.866025 0.5 0 1 282.039 443.516)" fill="url(#paint16_linear_160_123)"/>
<path id="Rectangle 304_3" d="M320.898 466.006L359.757 443.73L359.852 488.211L320.898 510.701V466.006Z" fill="url(#paint17_linear_160_123)"/>
<rect id="Rectangle 302_4" width="44.9795" height="44.6944" transform="matrix(0.866025 0.5 -0.866025 0.5 591.227 276.824)" fill="url(#paint18_linear_160_123)"/>
<rect id="Rectangle 303_4" width="44.9795" height="44.6944" transform="matrix(0.866025 0.5 0 1 552.516 299.029)" fill="url(#paint19_linear_160_123)"/>
<path id="Rectangle 304_4" d="M591.375 321.52L630.234 299.243L630.328 343.724L591.375 366.214V321.52Z" fill="url(#paint20_linear_160_123)"/>
<g id="Group 136">
<rect id="Rectangle 303_5" width="44.9795" height="44.6944" transform="matrix(0.866025 0.5 0 1 513.219 44.7319)" fill="url(#paint21_linear_160_123)"/>
<g id="Group 135">
<rect id="Rectangle 302_5" width="44.9795" height="44.6944" transform="matrix(0.866025 0.5 -0.866025 0.5 551.922 22.5273)" fill="url(#paint22_linear_160_123)"/>
<path id="Rectangle 304_5" d="M552.078 67.2222L590.937 44.9459L591.032 89.4269L552.078 111.917V67.2222Z" fill="url(#paint23_linear_160_123)"/>
</g>
</g>
<g id="9" style="mix-blend-mode:screen">
<path d="M348.14 59.575C356.54 64.425 363.772 70.6 369.834 78.1C375.896 85.6 380.572 94.15 383.863 103.75C387.154 113.25 388.8 123.7 388.8 135.1C388.8 147.2 386.808 156.3 382.824 162.4C378.927 168.55 373.514 171.825 366.586 172.225C359.658 172.625 351.604 170.175 342.424 164.875C337.661 162.125 333.071 158.875 328.654 155.125C324.237 151.375 320.427 147.375 317.223 143.125L325.017 129.775C327.528 133.225 330.213 136.175 333.071 138.625C335.929 140.975 338.917 143.05 342.034 144.85C349.829 149.35 356.021 150.175 360.611 147.325C365.287 144.525 367.625 137.725 367.625 126.925C367.625 125.125 367.582 123.1 367.495 120.85C367.409 118.6 367.192 116.275 366.846 113.875L372.562 123.475C371.089 126.525 369.011 128.625 366.326 129.775C363.642 130.825 360.524 131.025 356.973 130.375C353.423 129.625 349.439 127.975 345.022 125.425C339.22 122.075 333.937 117.675 329.174 112.225C324.497 106.825 320.73 100.85 317.872 94.3C315.101 87.8 313.715 81.25 313.715 74.65C313.715 67.45 315.231 62.125 318.262 58.675C321.38 55.275 325.537 53.675 330.733 53.875C336.015 54.025 341.818 55.925 348.14 59.575ZM349.439 78.475C346.408 76.725 343.766 75.85 341.515 75.85C339.263 75.75 337.488 76.525 336.189 78.175C334.89 79.725 334.24 82.1 334.24 85.3C334.24 90.1 335.626 94.75 338.397 99.25C341.255 103.7 345.022 107.275 349.699 109.975C352.73 111.725 355.414 112.625 357.753 112.675C360.178 112.675 362.039 111.85 363.339 110.2C364.638 108.55 365.287 106.225 365.287 103.225C365.287 100.225 364.638 97.2 363.339 94.15C362.126 91.05 360.351 88.175 358.012 85.525C355.674 82.775 352.816 80.425 349.439 78.475Z" fill="white"/>
</g>
</g>
<defs>
<filter id="filter0_d_160_123" x="285.695" y="191.096" width="59.0938" height="109.9" filterUnits="userSpaceOnUse" color-interpolation-filters="sRGB">
<feFlood flood-opacity="0" result="BackgroundImageFix"/>
<feColorMatrix in="SourceAlpha" type="matrix" values="0 0 0 0 0 0 0 0 0 0 0 0 0 0 0 0 0 0 127 0" result="hardAlpha"/>
<feOffset dy="4"/>
<feGaussianBlur stdDeviation="2"/>
<feComposite in2="hardAlpha" operator="out"/>
<feColorMatrix type="matrix" values="0 0 0 0 0 0 0 0 0 0 0 0 0 0 0 0 0 0 0.25 0"/>
<feBlend mode="normal" in2="BackgroundImageFix" result="effect1_dropShadow_160_123"/>
<feBlend mode="normal" in="SourceGraphic" in2="effect1_dropShadow_160_123" result="shape"/>
</filter>
<filter id="filter1_d_160_123" x="177.562" y="62.248" width="56.5859" height="107.25" filterUnits="userSpaceOnUse" color-interpolation-filters="sRGB">
<feFlood flood-opacity="0" result="BackgroundImageFix"/>
<feColorMatrix in="SourceAlpha" type="matrix" values="0 0 0 0 0 0 0 0 0 0 0 0 0 0 0 0 0 0 127 0" result="hardAlpha"/>
<feOffset dy="4"/>
<feGaussianBlur stdDeviation="2"/>
<feComposite in2="hardAlpha" operator="out"/>
<feColorMatrix type="matrix" values="0 0 0 0 0 0 0 0 0 0 0 0 0 0 0 0 0 0 0.25 0"/>
<feBlend mode="normal" in2="BackgroundImageFix" result="effect1_dropShadow_160_123"/>
<feBlend mode="normal" in="SourceGraphic" in2="effect1_dropShadow_160_123" result="shape"/>
</filter>
<filter id="filter2_d_160_123" x="391.969" y="225.887" width="46.8672" height="86.4399" filterUnits="userSpaceOnUse" color-interpolation-filters="sRGB">
<feFlood flood-opacity="0" result="BackgroundImageFix"/>
<feColorMatrix in="SourceAlpha" type="matrix" values="0 0 0 0 0 0 0 0 0 0 0 0 0 0 0 0 0 0 127 0" result="hardAlpha"/>
<feOffset dy="4"/>
<feGaussianBlur stdDeviation="2"/>
<feComposite in2="hardAlpha" operator="out"/>
<feColorMatrix type="matrix" values="0 0 0 0 0 0 0 0 0 0 0 0 0 0 0 0 0 0 0.25 0"/>
<feBlend mode="normal" in2="BackgroundImageFix" result="effect1_dropShadow_160_123"/>
<feBlend mode="normal" in="SourceGraphic" in2="effect1_dropShadow_160_123" result="shape"/>
</filter>
<filter id="filter3_d_160_123" x="342.148" y="326.032" width="33.9844" height="59.2002" filterUnits="userSpaceOnUse" color-interpolation-filters="sRGB">
<feFlood flood-opacity="0" result="BackgroundImageFix"/>
<feColorMatrix in="SourceAlpha" type="matrix" values="0 0 0 0 0 0 0 0 0 0 0 0 0 0 0 0 0 0 127 0" result="hardAlpha"/>
<feOffset dy="4"/>
<feGaussianBlur stdDeviation="2"/>
<feComposite in2="hardAlpha" operator="out"/>
<feColorMatrix type="matrix" values="0 0 0 0 0 0 0 0 0 0 0 0 0 0 0 0 0 0 0.25 0"/>
<feBlend mode="normal" in2="BackgroundImageFix" result="effect1_dropShadow_160_123"/>
<feBlend mode="normal" in="SourceGraphic" in2="effect1_dropShadow_160_123" result="shape"/>
</filter>
<filter id="filter4_d_160_123" x="259.852" y="325.832" width="21.0781" height="50.5503" filterUnits="userSpaceOnUse" color-interpolation-filters="sRGB">
<feFlood flood-opacity="0" result="BackgroundImageFix"/>
<feColorMatrix in="SourceAlpha" type="matrix" values="0 0 0 0 0 0 0 0 0 0 0 0 0 0 0 0 0 0 127 0" result="hardAlpha"/>
<feOffset dy="4"/>
<feGaussianBlur stdDeviation="2"/>
<feComposite in2="hardAlpha" operator="out"/>
<feColorMatrix type="matrix" values="0 0 0 0 0 0 0 0 0 0 0 0 0 0 0 0 0 0 0.25 0"/>
<feBlend mode="normal" in2="BackgroundImageFix" result="effect1_dropShadow_160_123"/>
<feBlend mode="normal" in="SourceGraphic" in2="effect1_dropShadow_160_123" result="shape"/>
</filter>
<filter id="filter5_d_160_123" x="189.898" y="197.982" width="56.3203" height="107.1" filterUnits="userSpaceOnUse" color-interpolation-filters="sRGB">
<feFlood flood-opacity="0" result="BackgroundImageFix"/>
<feColorMatrix in="SourceAlpha" type="matrix" values="0 0 0 0 0 0 0 0 0 0 0 0 0 0 0 0 0 0 127 0" result="hardAlpha"/>
<feOffset dy="4"/>
<feGaussianBlur stdDeviation="2"/>
<feComposite in2="hardAlpha" operator="out"/>
<feColorMatrix type="matrix" values="0 0 0 0 0 0 0 0 0 0 0 0 0 0 0 0 0 0 0.25 0"/>
<feBlend mode="normal" in2="BackgroundImageFix" result="effect1_dropShadow_160_123"/>
<feBlend mode="normal" in="SourceGraphic" in2="effect1_dropShadow_160_123" result="shape"/>
</filter>
<linearGradient id="paint0_linear_160_123" x1="409.314" y1="-152.705" x2="112.052" y2="358.35" gradientUnits="userSpaceOnUse">
<stop stop-color="#13EDB1"/>
<stop offset="1" stop-color="#13B3D3"/>
</linearGradient>
<linearGradient id="paint1_linear_160_123" x1="79.0993" y1="28.7739" x2="11.4099" y2="59.0226" gradientUnits="userSpaceOnUse">
<stop stop-color="#13EDB1"/>
<stop offset="1" stop-color="#13B3D3"/>
</linearGradient>
<linearGradient id="paint2_linear_160_123" x1="48.999" y1="-18.1702" x2="13.7341" y2="42.8249" gradientUnits="userSpaceOnUse">
<stop offset="1" stop-color="#13B3D3"/>
</linearGradient>
<linearGradient id="paint3_linear_160_123" x1="138.725" y1="129.093" x2="58.5824" y2="116.972" gradientUnits="userSpaceOnUse">
<stop stop-color="#13EDB1"/>
<stop offset="1" stop-color="#13B3D3"/>
</linearGradient>
<linearGradient id="paint4_linear_160_123" x1="409.314" y1="-152.705" x2="112.052" y2="358.35" gradientUnits="userSpaceOnUse">
<stop stop-color="#13EDB1" stop-opacity="0.65"/>
<stop offset="1" stop-color="#13B3D3" stop-opacity="0.69"/>
</linearGradient>
<linearGradient id="paint5_linear_160_123" x1="409.314" y1="-152.705" x2="112.052" y2="358.35" gradientUnits="userSpaceOnUse">
<stop stop-color="#13EDB1" stop-opacity="0.25"/>
<stop offset="1" stop-color="#13B3D3" stop-opacity="0.31"/>
</linearGradient>
<linearGradient id="paint6_linear_160_123" x1="265.969" y1="2.28928" x2="262.61" y2="53.8986" gradientUnits="userSpaceOnUse">
<stop stop-color="#13EDB1"/>
<stop offset="1" stop-color="#13B3D3"/>
</linearGradient>
<linearGradient id="paint7_linear_160_123" x1="265.969" y1="2.28928" x2="262.61" y2="53.8986" gradientUnits="userSpaceOnUse">
<stop stop-color="#13EDB1"/>
<stop offset="1" stop-color="#13B3D3"/>
</linearGradient>
<linearGradient id="paint8_linear_160_123" x1="138.99" y1="9.62193" x2="49.4758" y2="180.589" gradientUnits="userSpaceOnUse">
<stop stop-color="#13EDB1"/>
</linearGradient>
<linearGradient id="paint9_linear_160_123" x1="120.592" y1="8.27623" x2="43.9781" y2="155.878" gradientUnits="userSpaceOnUse">
<stop stop-color="#A5FFFE"/>
</linearGradient>
<linearGradient id="paint10_linear_160_123" x1="250.614" y1="388.296" x2="362.797" y2="187.163" gradientUnits="userSpaceOnUse">
<stop stop-color="white" stop-opacity="0.29"/>
<stop offset="1" stop-color="#639998" stop-opacity="0"/>
</linearGradient>
<linearGradient id="paint11_linear_160_123" x1="81.9899" y1="0" x2="81.9899" y2="275.818" gradientUnits="userSpaceOnUse">
<stop stop-color="white" stop-opacity="0.29"/>
<stop offset="1" stop-color="#639998" stop-opacity="0"/>
</linearGradient>
<linearGradient id="paint12_linear_160_123" x1="79.0993" y1="28.7739" x2="11.4099" y2="59.0226" gradientUnits="userSpaceOnUse">
<stop stop-color="#13EDB1"/>
<stop offset="1" stop-color="#13B3D3"/>
</linearGradient>
<linearGradient id="paint13_linear_160_123" x1="48.999" y1="-18.1702" x2="13.7341" y2="42.8249" gradientUnits="userSpaceOnUse">
<stop offset="1" stop-color="#13B3D3"/>
</linearGradient>
<linearGradient id="paint14_linear_160_123" x1="143.35" y1="309.413" x2="63.2074" y2="297.292" gradientUnits="userSpaceOnUse">
<stop stop-color="#13EDB1"/>
<stop offset="1" stop-color="#13B3D3"/>
</linearGradient>
<linearGradient id="paint15_linear_160_123" x1="1.82513" y1="-36.281" x2="64.0633" y2="58.1206" gradientUnits="userSpaceOnUse">
<stop stop-color="#13EDB1"/>
<stop offset="1" stop-color="#13B3D3"/>
</linearGradient>
<linearGradient id="paint16_linear_160_123" x1="48.999" y1="-18.1702" x2="13.7341" y2="42.8249" gradientUnits="userSpaceOnUse">
<stop offset="1" stop-color="#13B3D3"/>
</linearGradient>
<linearGradient id="paint17_linear_160_123" x1="386.093" y1="480.486" x2="305.95" y2="468.366" gradientUnits="userSpaceOnUse">
<stop offset="1" stop-color="#13B3D3"/>
</linearGradient>
<linearGradient id="paint18_linear_160_123" x1="79.0993" y1="28.7739" x2="11.4099" y2="59.0226" gradientUnits="userSpaceOnUse">
<stop stop-color="#13EDB1"/>
<stop offset="1" stop-color="#13B3D3"/>
</linearGradient>
<linearGradient id="paint19_linear_160_123" x1="17.1453" y1="42.6122" x2="35.6211" y2="-21.0222" gradientUnits="userSpaceOnUse">
<stop stop-color="#13EDB1"/>
<stop offset="1" stop-color="#13B3D3"/>
</linearGradient>
<linearGradient id="paint20_linear_160_123" x1="656.569" y1="335.999" x2="576.426" y2="323.879" gradientUnits="userSpaceOnUse">
<stop stop-color="#13EDB1"/>
<stop offset="1" stop-color="#13B3D3"/>
</linearGradient>
<linearGradient id="paint21_linear_160_123" x1="43.9844" y1="29.6212" x2="20.3443" y2="-6.73353" gradientUnits="userSpaceOnUse">
<stop stop-color="#13EDB1"/>
<stop offset="1" stop-color="#13B3D3"/>
</linearGradient>
<linearGradient id="paint22_linear_160_123" x1="55.3776" y1="-12.3194" x2="16.0766" y2="43.222" gradientUnits="userSpaceOnUse">
<stop stop-color="#13EDB1"/>
<stop offset="0.753012" stop-color="#13B3D3"/>
</linearGradient>
<linearGradient id="paint23_linear_160_123" x1="617.272" y1="81.702" x2="537.129" y2="69.5813" gradientUnits="userSpaceOnUse">
<stop offset="1" stop-color="#13B3D3"/>
</linearGradient>
</defs>
</svg>