<svg width="927" height="665" viewBox="0 0 927 665" fill="none" xmlns="http://www.w3.org/2000/svg">
<path d="M853.894 341.382C858.17 340.894 861.935 343.068 861.09 345.537L852.99 369.18C852.039 371.953 846.115 372.993 842.652 370.993L809.802 352.027C806.339 350.028 808.14 346.607 812.943 346.059L853.894 341.382Z" fill="#00CDFB"/>
<rect width="20.3063" height="31.5876" rx="4" transform="matrix(0.866025 0.5 -0.866025 0.5 818.898 355.587)" fill="#00CDFB"/>
<rect width="244" height="302" transform="matrix(0.866025 0.5 0 1 188 84)" fill="url(#paint0_linear_2002_6)"/>
<rect width="244" height="302" transform="matrix(0.866025 -0.5 0 1 516 240)" fill="url(#paint1_linear_2002_6)"/>
<rect width="522.314" height="522.314" transform="matrix(0.887397 -0.461006 0.887397 0.461006 0 363.017)" fill="#13B3D3"/>
<rect width="522.314" height="60.9321" transform="matrix(0.887397 0.461006 0 1 0 363.017)" fill="url(#paint2_linear_2002_6)"/>
<rect width="522.314" height="60.9321" transform="matrix(0.887397 -0.461006 0 1 462.383 603.807)" fill="url(#paint3_linear_2002_6)"/>
<g style="mix-blend-mode:screen">
<rect width="319.386" height="321.936" rx="32" transform="matrix(0.887397 -0.461006 0.887397 0.461006 176.141 362.43)" fill="#D2FFEF"/>
</g>
<g style="mix-blend-mode:overlay">
<rect width="90.0301" height="90.7488" rx="11" transform="matrix(0.887397 -0.461006 0.887397 0.461006 24 359.504)" fill="#D2FFEF"/>
</g>
<g style="mix-blend-mode:overlay">
<rect width="90.0301" height="90.7488" rx="11" transform="matrix(0.887397 -0.461006 0.887397 0.461006 380 552.504)" fill="#D2FFEF"/>
</g>
<g style="mix-blend-mode:overlay">
<rect width="90.0301" height="90.7488" rx="11" transform="matrix(0.887397 -0.461006 0.887397 0.461006 749 359.504)" fill="#D2FFEF"/>
</g>
<circle cx="118.5" cy="118.5" r="118.5" transform="matrix(0.866025 0.5 -0.866025 0.5 454.25 248)" fill="#04A9D7"/>
<path d="M523.653 322.274C527.929 321.786 531.694 323.96 530.849 326.429L508.034 393.021C507.084 395.795 501.159 396.834 497.696 394.835L405.169 341.415C401.707 339.416 403.508 335.995 408.311 335.446L523.653 322.274Z" fill="white"/>
<rect width="45" height="70" rx="4" transform="matrix(0.866025 0.5 -0.866025 0.5 435.195 355)" fill="white"/>
<g style="mix-blend-mode:overlay">
<rect width="319.386" height="321.936" rx="32" transform="matrix(0.887397 -0.461006 0.887397 0.461006 175.016 214.239)" fill="#D2FFEF"/>
</g>
<path d="M482.894 531.382C487.17 530.894 490.935 533.068 490.09 535.537L481.99 559.18C481.039 561.953 475.115 562.993 471.652 560.993L438.802 542.027C435.339 540.028 437.14 536.607 441.943 536.059L482.894 531.382Z" fill="#00CDFB"/>
<rect width="20.3063" height="31.5876" rx="4" transform="matrix(0.866025 0.5 -0.866025 0.5 447.898 545.587)" fill="#00CDFB"/>
<path d="M853.894 340.382C858.17 339.894 861.935 342.068 861.09 344.537L852.99 368.18C852.039 370.953 846.115 371.993 842.652 369.993L809.802 351.027C806.339 349.028 808.14 345.607 812.943 345.059L853.894 340.382Z" fill="#00CDFB"/>
<rect width="20.3063" height="31.5876" rx="4" transform="matrix(0.866025 0.5 -0.866025 0.5 818.898 354.587)" fill="#00CDFB"/>
<path d="M128.894 337.382C133.17 336.894 136.935 339.068 136.09 341.537L127.99 365.18C127.039 367.953 121.115 368.993 117.652 366.993L84.8015 348.027C81.3389 346.028 83.1396 342.607 87.9434 342.059L128.894 337.382Z" fill="#00CDFB"/>
<rect width="20.3063" height="31.5876" rx="4" transform="matrix(0.866025 0.5 -0.866025 0.5 93.8984 351.587)" fill="#00CDFB"/>
<rect width="319.386" height="321.936" rx="32" transform="matrix(0.887397 -0.461006 0.887397 0.461006 171 147.239)" fill="#D2FFEF"/>
<g filter="url(#filter0_d_2002_6)">
<path d="M316.325 89.382V27.782L328.672 34.91V84.894L355.421 100.338V111.954L316.325 89.382ZM355.68 112.104L379.458 64.2315L391.652 71.2715L415.505 146.644L402.55 139.164L383.04 73.5155L387.917 76.3315L368.331 119.408L355.68 112.104ZM367.569 105.768L370.846 96.8355L398.282 112.676L401.635 125.436L367.569 105.768ZM431.026 155.604V130.436L433.846 140.688L410.373 82.0804L423.481 89.6484L441.467 134.616L433.922 130.26L451.984 106.104L464.101 113.1L440.629 144.604L443.372 137.564V162.732L431.026 155.604ZM468.82 177.425V115.825L481.166 122.953V172.937L507.916 188.381V199.997L468.82 177.425ZM508.175 200.146L531.953 152.274L544.146 159.314L568 234.686L555.044 227.206L535.535 161.558L540.412 164.374L520.826 207.45L508.175 200.146ZM520.064 193.81L523.341 184.878L550.777 200.718L554.13 213.478L520.064 193.81Z" fill="#007F98"/>
</g>
<defs>
<filter id="filter0_d_2002_6" x="312.328" y="27.7817" width="259.672" height="214.905" filterUnits="userSpaceOnUse" color-interpolation-filters="sRGB">
<feFlood flood-opacity="0" result="BackgroundImageFix"/>
<feColorMatrix in="SourceAlpha" type="matrix" values="0 0 0 0 0 0 0 0 0 0 0 0 0 0 0 0 0 0 127 0" result="hardAlpha"/>
<feOffset dy="4"/>
<feGaussianBlur stdDeviation="2"/>
<feComposite in2="hardAlpha" operator="out"/>
<feColorMatrix type="matrix" values="0 0 0 0 0 0 0 0 0 0 0 0 0 0 0 0 0 0 0.25 0"/>
<feBlend mode="normal" in2="BackgroundImageFix" result="effect1_dropShadow_2002_6"/>
<feBlend mode="normal" in="SourceGraphic" in2="effect1_dropShadow_2002_6" result="shape"/>
</filter>
<linearGradient id="paint0_linear_2002_6" x1="127.443" y1="302" x2="4.49484" y2="56.0096" gradientUnits="userSpaceOnUse">
<stop stop-color="#A6FFFE" stop-opacity="0.54"/>
<stop offset="1" stop-color="#649998" stop-opacity="0"/>
</linearGradient>
<linearGradient id="paint1_linear_2002_6" x1="127.443" y1="302" x2="4.49484" y2="56.0096" gradientUnits="userSpaceOnUse">
<stop stop-color="#A6FFFE" stop-opacity="0.54"/>
<stop offset="1" stop-color="#649998" stop-opacity="0"/>
</linearGradient>
<linearGradient id="paint2_linear_2002_6" x1="-0.405133" y1="31.2131" x2="41.0146" y2="-110.788" gradientUnits="userSpaceOnUse">
<stop stop-color="#13B3D3"/>
<stop offset="1" stop-color="#13EDB1"/>
</linearGradient>
<linearGradient id="paint3_linear_2002_6" x1="-0.405133" y1="31.2131" x2="41.0146" y2="-110.788" gradientUnits="userSpaceOnUse">
<stop stop-color="#13B3D3"/>
<stop offset="1" stop-color="#13EDB1"/>
</linearGradient>
</defs>
</svg>
