<svg width="927" height="729" viewBox="0 0 927 729" fill="none" xmlns="http://www.w3.org/2000/svg">
<path d="M853.894 405.382C858.17 404.894 861.935 407.068 861.09 409.537L852.99 433.18C852.039 435.953 846.115 436.993 842.652 434.993L809.802 416.027C806.339 414.028 808.14 410.607 812.943 410.059L853.894 405.382Z" fill="#00CDFB"/>
<rect width="20.3063" height="31.5876" rx="4" transform="matrix(0.866025 0.5 -0.866025 0.5 818.898 419.587)" fill="#00CDFB"/>
<rect width="244" height="302" transform="matrix(0.866025 0.5 0 1 188 148)" fill="url(#paint0_linear_2001_215)"/>
<rect width="244" height="302" transform="matrix(0.866025 -0.5 0 1 516 304)" fill="url(#paint1_linear_2001_215)"/>
<rect width="522.314" height="522.314" transform="matrix(0.887397 -0.461006 0.887397 0.461006 0 427.017)" fill="#13B3D3"/>
<rect width="522.314" height="60.9321" transform="matrix(0.887397 0.461006 0 1 0 427.017)" fill="url(#paint2_linear_2001_215)"/>
<rect width="522.314" height="60.9321" transform="matrix(0.887397 -0.461006 0 1 462.383 667.807)" fill="url(#paint3_linear_2001_215)"/>
<g style="mix-blend-mode:screen">
<rect width="319.386" height="321.936" rx="32" transform="matrix(0.887397 -0.461006 0.887397 0.461006 176.141 426.43)" fill="#D2FFEF"/>
</g>
<g style="mix-blend-mode:overlay">
<rect width="90.0301" height="90.7488" rx="11" transform="matrix(0.887397 -0.461006 0.887397 0.461006 24 423.504)" fill="#D2FFEF"/>
</g>
<g style="mix-blend-mode:overlay">
<rect width="90.0301" height="90.7488" rx="11" transform="matrix(0.887397 -0.461006 0.887397 0.461006 380 616.504)" fill="#D2FFEF"/>
</g>
<g style="mix-blend-mode:overlay">
<rect width="90.0301" height="90.7488" rx="11" transform="matrix(0.887397 -0.461006 0.887397 0.461006 749 423.504)" fill="#D2FFEF"/>
</g>
<circle cx="118.5" cy="118.5" r="118.5" transform="matrix(0.866025 0.5 -0.866025 0.5 454.25 312)" fill="#04A9D7"/>
<path d="M523.653 386.274C527.929 385.786 531.694 387.96 530.849 390.429L508.034 457.021C507.084 459.795 501.159 460.834 497.696 458.835L405.169 405.415C401.707 403.416 403.508 399.995 408.311 399.446L523.653 386.274Z" fill="white"/>
<rect width="45" height="70" rx="4" transform="matrix(0.866025 0.5 -0.866025 0.5 435.195 419)" fill="white"/>
<g style="mix-blend-mode:overlay">
<rect width="319.386" height="321.936" rx="32" transform="matrix(0.887397 -0.461006 0.887397 0.461006 175.016 278.239)" fill="#D2FFEF"/>
</g>
<g filter="url(#filter0_d_2001_215)">
<path d="M313.9 184.984V117.784L327.369 125.56V180.088L356.551 196.936V209.608L313.9 184.984ZM356.752 209.724L382.691 157.5L395.993 165.18L422.016 247.404L407.882 239.244L386.599 167.628L391.919 170.7L370.553 217.692L356.752 209.724ZM369.721 202.812L373.296 193.068L403.226 210.348L406.884 224.268L369.721 202.812ZM438.947 257.18V229.724L442.023 240.908L416.417 176.972L430.716 185.228L450.337 234.284L442.106 229.532L461.81 203.18L475.029 210.812L449.423 245.18L452.416 237.5V264.956L438.947 257.18ZM480.177 280.984V213.784L493.646 221.56V276.088L522.827 292.936V305.608L480.177 280.984ZM523.029 305.724L548.968 253.5L562.27 261.18L588.292 343.404L574.159 335.244L552.875 263.628L558.196 266.7L536.83 313.692L523.029 305.724ZM535.998 298.812L539.573 289.068L569.503 306.348L573.161 320.268L535.998 298.812Z" fill="white"/>
</g>
<path d="M482.894 595.382C487.17 594.894 490.935 597.068 490.09 599.537L481.99 623.18C481.039 625.953 475.115 626.993 471.652 624.993L438.802 606.027C435.339 604.028 437.14 600.607 441.943 600.059L482.894 595.382Z" fill="#00CDFB"/>
<rect width="20.3063" height="31.5876" rx="4" transform="matrix(0.866025 0.5 -0.866025 0.5 447.898 609.587)" fill="#00CDFB"/>
<path d="M853.894 404.382C858.17 403.894 861.935 406.068 861.09 408.537L852.99 432.18C852.039 434.953 846.115 435.993 842.652 433.993L809.802 415.027C806.339 413.028 808.14 409.607 812.943 409.059L853.894 404.382Z" fill="#00CDFB"/>
<rect width="20.3063" height="31.5876" rx="4" transform="matrix(0.866025 0.5 -0.866025 0.5 818.898 418.587)" fill="#00CDFB"/>
<path d="M128.894 401.382C133.17 400.894 136.935 403.068 136.09 405.537L127.99 429.18C127.039 431.953 121.115 432.993 117.652 430.993L84.8015 412.027C81.3389 410.028 83.1396 406.607 87.9434 406.059L128.894 401.382Z" fill="#00CDFB"/>
<rect width="20.3063" height="31.5876" rx="4" transform="matrix(0.866025 0.5 -0.866025 0.5 93.8984 415.587)" fill="#00CDFB"/>
<g style="mix-blend-mode:overlay">
<rect width="319.386" height="321.936" rx="32" transform="matrix(0.887397 -0.461006 0.887397 0.461006 166 147.239)" fill="#D2FFEF"/>
</g>
<defs>
<filter id="filter0_d_2001_215" x="309.898" y="117.784" width="282.391" height="233.62" filterUnits="userSpaceOnUse" color-interpolation-filters="sRGB">
<feFlood flood-opacity="0" result="BackgroundImageFix"/>
<feColorMatrix in="SourceAlpha" type="matrix" values="0 0 0 0 0 0 0 0 0 0 0 0 0 0 0 0 0 0 127 0" result="hardAlpha"/>
<feOffset dy="4"/>
<feGaussianBlur stdDeviation="2"/>
<feComposite in2="hardAlpha" operator="out"/>
<feColorMatrix type="matrix" values="0 0 0 0 0 0 0 0 0 0 0 0 0 0 0 0 0 0 0.25 0"/>
<feBlend mode="normal" in2="BackgroundImageFix" result="effect1_dropShadow_2001_215"/>
<feBlend mode="normal" in="SourceGraphic" in2="effect1_dropShadow_2001_215" result="shape"/>
</filter>
<linearGradient id="paint0_linear_2001_215" x1="127.443" y1="302" x2="4.49484" y2="56.0096" gradientUnits="userSpaceOnUse">
<stop stop-color="#A6FFFE" stop-opacity="0.54"/>
<stop offset="1" stop-color="#649998" stop-opacity="0"/>
</linearGradient>
<linearGradient id="paint1_linear_2001_215" x1="127.443" y1="302" x2="4.49484" y2="56.0096" gradientUnits="userSpaceOnUse">
<stop stop-color="#A6FFFE" stop-opacity="0.54"/>
<stop offset="1" stop-color="#649998" stop-opacity="0"/>
</linearGradient>
<linearGradient id="paint2_linear_2001_215" x1="-0.405133" y1="31.2131" x2="41.0146" y2="-110.788" gradientUnits="userSpaceOnUse">
<stop stop-color="#13B3D3"/>
<stop offset="1" stop-color="#13EDB1"/>
</linearGradient>
<linearGradient id="paint3_linear_2001_215" x1="-0.405133" y1="31.2131" x2="41.0146" y2="-110.788" gradientUnits="userSpaceOnUse">
<stop stop-color="#13B3D3"/>
<stop offset="1" stop-color="#13EDB1"/>
</linearGradient>
</defs>
</svg>
