<?xml version="1.0" encoding="UTF-8"?>
<svg xmlns="http://www.w3.org/2000/svg" xmlns:xlink="http://www.w3.org/1999/xlink" version="1.1" viewBox="0 0 529.7 684">
  <defs>
    <style>
      .cls-1 {
        fill: url(#linear-gradient-5);
      }

      .cls-2 {
        fill: url(#linear-gradient-4);
      }

      .cls-3 {
        fill: url(#linear-gradient-3);
      }

      .cls-4 {
        fill: url(#linear-gradient-2);
      }

      .cls-5 {
        fill: url(#linear-gradient);
      }

      .cls-6 {
        fill: #13b3d3;
      }

      .cls-7 {
        isolation: isolate;
      }

      .cls-8, .cls-9 {
        fill: #fff;
      }

      .cls-10 {
        fill: #84ffd4;
      }

      .cls-11 {
        mix-blend-mode: screen;
      }

      .cls-9 {
        fill-opacity: .2;
      }

      .cls-12 {
        fill: url(#linear-gradient-6);
      }

      .cls-12, .cls-13 {
        fill-opacity: .4;
      }

      .cls-13 {
        fill: url(#linear-gradient-7);
      }
    </style>
    <linearGradient id="linear-gradient" x1="163.7" y1="735.6" x2="187.3" y2="816.7" gradientTransform="translate(-23.3 1292.6) rotate(27.5) scale(1 -.9) skewX(-24.7)" gradientUnits="userSpaceOnUse">
      <stop offset="0" stop-color="#13b3d3"/>
      <stop offset="1" stop-color="#13edb1"/>
    </linearGradient>
    <linearGradient id="linear-gradient-2" x1="163.7" y1="520.5" x2="187.3" y2="601.6" gradientTransform="translate(240.9 1239.3) rotate(-27.5) scale(1 -.9) skewX(24.7)" gradientUnits="userSpaceOnUse">
      <stop offset="0" stop-color="#13b3d3"/>
      <stop offset="1" stop-color="#13edb1"/>
    </linearGradient>
    <linearGradient id="linear-gradient-3" x1="-216.4" y1="543.9" x2="-216.4" y2="399.2" gradientTransform="translate(887.2 441.1) rotate(-25.5) scale(1 -.8) skewX(-32.2)" gradientUnits="userSpaceOnUse">
      <stop offset="0" stop-color="#13edb1"/>
      <stop offset="1" stop-color="#13b3d3"/>
    </linearGradient>
    <linearGradient id="linear-gradient-4" x1="94.7" y1="784.6" x2="94.7" y2="660.1" gradientTransform="translate(116.3 1106.4) rotate(25.5) scale(1 -.9) skewX(-23.3)" gradientUnits="userSpaceOnUse">
      <stop offset="0" stop-color="#13edb1"/>
      <stop offset="1" stop-color="#13b3d3"/>
    </linearGradient>
    <linearGradient id="linear-gradient-5" x1="94.7" y1="587.4" x2="94.7" y2="462.8" gradientTransform="translate(245.7 990.1) rotate(-25.5) scale(1 -.9) skewX(23.3)" gradientUnits="userSpaceOnUse">
      <stop offset="0" stop-color="#13edb1"/>
      <stop offset="1" stop-color="#13b3d3"/>
    </linearGradient>
    <linearGradient id="linear-gradient-6" x1="175.5" y1="793.5" x2="175.5" y2="419.2" gradientTransform="translate(-23.3 918.1) rotate(27.5) scale(1 -.9) skewX(-24.7)" gradientUnits="userSpaceOnUse">
      <stop offset="0" stop-color="#13edb1"/>
      <stop offset="1" stop-color="#17edfe"/>
    </linearGradient>
    <linearGradient id="linear-gradient-7" x1="175.5" y1="578.5" x2="175.5" y2="204.1" gradientTransform="translate(240.9 865.7) rotate(-27.5) scale(1 -.9) skewX(24.7)" gradientUnits="userSpaceOnUse">
      <stop offset="0" stop-color="#13edb1"/>
      <stop offset="1" stop-color="#17edfe"/>
    </linearGradient>
  </defs>
  <!-- Generator: Adobe Illustrator 28.7.1, SVG Export Plug-In . SVG Version: 1.2.0 Build 142)  -->
  <g class="cls-7">
    <g id="Layer_1">
      <polygon class="cls-6" points="0 511.1 264.8 373.6 529.7 511.1 264.8 648.7 0 511.1"/>
      <polygon class="cls-5" points="0 511.1 264.8 648.7 264.8 683.5 0 545.9 0 511.1"/>
      <polygon class="cls-4" points="264.2 648.7 529 511.1 529 545.9 264.2 683.5 264.2 648.7"/>
      <g class="cls-11">
        <path class="cls-10" d="M129,496l105.1-54.6c15.7-8.1,41.1-8.1,56.8,0l106.4,55.3c15.7,8.1,15.7,21.4,0,29.5l-105.1,54.6c-15.7,8.1-41.1,8.1-56.8,0l-106.4-55.3c-15.7-8.1-15.7-21.4,0-29.5Z"/>
      </g>
      <polygon class="cls-3" points="135.5 331.3 266.1 269.1 396.8 331.3 266.1 393.6 135.5 331.3"/>
      <polygon class="cls-2" points="136.4 331.3 267.1 393.6 267.1 518.1 136.4 455.8 136.4 331.3"/>
      <polygon class="cls-1" points="265.8 393.2 396.4 330.9 396.4 455.4 265.8 517.7 265.8 393.2"/>
      <path class="cls-8" d="M155.9,413.3v-14l6.1,3.2c1.6.8,2.7,1.8,3.5,2.8.8,1.1,1.2,2.2,1.2,3.3s-.2,1.3-.5,1.7c-.3.4-.8.6-1.3.6-.6,0-1.2-.2-1.9-.6l.3-.6c.8.4,1.5.9,2.1,1.5.6.6,1.1,1.3,1.4,2,.3.7.5,1.5.5,2.3,0,1.2-.4,1.9-1.3,2.2-.8.2-2.1,0-3.7-.9l-6.4-3.3ZM158.7,412.3l3.4,1.7c.7.4,1.3.5,1.7.5.4,0,.6-.4.6-1s-.2-1.1-.6-1.6c-.4-.5-.9-.9-1.7-1.3l-3.6-1.9v-2.4l3.1,1.6c.7.4,1.2.5,1.6.4.4,0,.6-.4.6-1s-.2-1.1-.6-1.5c-.4-.5-.9-.9-1.6-1.2l-2.9-1.5v9.1ZM169.4,420.3v-14l2.9,1.5v11.4l6.2,3.2v2.6l-9.1-4.7ZM186,429.2c-1-.5-1.9-1.2-2.7-2-.8-.8-1.6-1.7-2.2-2.6-.6-1-1.1-2-1.4-3-.3-1.1-.5-2.1-.5-3.1s.2-1.9.5-2.6c.3-.7.8-1.2,1.4-1.6.6-.3,1.3-.5,2.2-.4.8,0,1.7.4,2.7.9,1,.5,1.9,1.2,2.7,1.9.8.8,1.5,1.7,2.1,2.6.6,1,1.1,2,1.4,3,.3,1,.5,2.1.5,3.1s-.2,1.9-.5,2.6c-.3.7-.8,1.2-1.4,1.6-.6.3-1.3.5-2.1.4-.8,0-1.7-.3-2.7-.9ZM186,426.4c.6.3,1.1.4,1.5.5.5,0,.9,0,1.2-.3.4-.2.6-.5.8-1,.2-.4.3-1,.3-1.7s-.1-1.3-.3-2c-.2-.6-.5-1.3-.8-1.8-.3-.6-.8-1.1-1.2-1.6-.5-.5-1-.8-1.5-1.1s-1.1-.5-1.5-.5c-.5,0-.9,0-1.2.3-.4.2-.6.5-.8,1-.2.4-.3,1-.3,1.7s0,1.3.3,2c.2.7.5,1.3.8,1.8.4.6.8,1.1,1.2,1.6.5.5,1,.8,1.5,1.1ZM200.9,436.9c-1-.5-1.9-1.1-2.7-1.9-.8-.8-1.5-1.7-2.1-2.6-.6-1-1.1-2-1.4-3-.3-1.1-.5-2.1-.5-3.2s.2-1.9.5-2.6c.3-.7.8-1.2,1.4-1.6.6-.3,1.3-.5,2.1-.4.8,0,1.7.3,2.7.9,1.1.6,2,1.3,2.9,2.2.9.9,1.6,1.9,2.2,3l-1.8,1c-.4-.8-.9-1.4-1.4-2-.5-.6-1.1-1-1.7-1.3-.6-.3-1.1-.5-1.6-.5-.5,0-.9,0-1.3.3-.4.2-.6.5-.8,1-.2.4-.3,1-.3,1.7s0,1.3.3,2c.2.7.5,1.3.8,1.9.4.6.8,1.1,1.3,1.6.5.5,1,.8,1.6,1.1.6.3,1.2.5,1.7.5.5,0,1-.2,1.4-.5l1.8,2.9c-.6.5-1.3.7-2.2.7-.9,0-1.8-.3-2.9-.9ZM210.5,438.5l-.2-3.8,5.9-4,3.2,1.7-5.4,3.7-1.6,1.1-2,1.3ZM207.9,440.3v-14l2.9,1.5v14l-2.9-1.5ZM216.4,444.7l-4.4-8.4,1.9-1.3,5.9,11.5-3.4-1.7Z"/>
      <path class="cls-8" d="M292.6,446.9l5-15.4.7,1-6.7,3.5,1.3-2.2v3.8l-2.5,1.3v-4.9l9.9-5.2v2.1l-4.6,14.3-3.1,1.6ZM300.3,439.9v-2.2l5.8-12,3-1.6-5.7,11.9-1.4.3,9.8-5.1v2.6l-11.5,6ZM307,439.3v-5.6c0,0,0-2.6,0-2.6l2.7-1.4v8.2l-2.8,1.5ZM318.2,433.7c-1.1.6-2.1.8-3,.8-.8,0-1.5-.5-1.9-1.3-.4-.8-.7-1.9-.7-3.4s.3-3.1.8-4.5c.5-1.4,1.3-2.6,2.2-3.7,1-1.1,2.1-2,3.3-2.6.7-.3,1.3-.6,1.9-.8.6-.2,1.1-.2,1.6,0l-1.1,2.9c-.3,0-.7,0-1.1,0-.4,0-.8.3-1.2.5-1.1.6-1.9,1.4-2.5,2.4-.6,1.1-.9,2.3-.9,3.8v.8c0,.3,0,.6.1.8l-.8-.4c.2-.6.5-1.2.9-1.8.4-.5.8-1,1.3-1.5.5-.4,1-.8,1.6-1.1.8-.4,1.5-.6,2.2-.6.6,0,1.1.3,1.5.7.4.4.6,1.1.6,2s-.2,1.9-.6,2.8c-.4.9-1,1.7-1.7,2.5-.7.7-1.5,1.3-2.4,1.8ZM318.1,431.3c.4-.2.8-.5,1.1-.8.3-.3.6-.7.7-1.1.2-.4.3-.8.3-1.2,0-.6-.2-1-.6-1.2-.4-.2-.9-.1-1.5.2-.4.2-.8.5-1.1.9-.3.3-.6.7-.8,1.1-.2.4-.3.8-.3,1.2s0,.7.3.9c.2.2.4.3.7.3.3,0,.7-.1,1.2-.4ZM328,428.5c-.9.5-1.7.8-2.6,1-.9.2-1.6.2-2.2,0l1.1-3.1c.5.1,1,.2,1.6,0,.6-.1,1.3-.3,1.9-.7.7-.4,1.3-.8,1.7-1.4.4-.5.6-1.1.6-1.6s-.2-.9-.5-1c-.4-.1-1,0-1.8.5l-1.3.7v-2.1l3.5-6.2.3,1-6.5,3.4v-2.6l8.7-4.6v2.1l-3.4,6.2-1.5-.2.8-.4c1.5-.8,2.7-1,3.5-.7.8.4,1.2,1.2,1.2,2.4s-.2,1.6-.5,2.5c-.4.9-.9,1.7-1.7,2.5-.8.8-1.7,1.5-2.9,2.2ZM339.5,422.4c-1,.5-1.9.9-2.7.9-.8,0-1.4-.1-1.8-.5-.4-.4-.7-1.1-.7-1.9s.2-1.7.6-2.5c.4-.8,1-1.6,1.8-2.3.8-.7,1.7-1.4,2.7-1.9,1.1-.6,2-.9,2.8-1,.8-.1,1.4,0,1.8.4.4.4.7,1,.7,1.9s-.2,1.7-.7,2.6c-.4.9-1,1.7-1.8,2.5-.8.8-1.7,1.4-2.7,2ZM339.5,420.1c.7-.4,1.3-.9,1.7-1.4.4-.6.6-1.2.6-1.8s-.2-1-.6-1.1c-.4-.1-1,0-1.7.4-.7.4-1.3.8-1.7,1.4-.4.6-.6,1.2-.6,1.8s.2,1,.6,1.2c.4.1,1,0,1.7-.3ZM339.5,415.7c-1,.5-1.8.8-2.5.9-.7,0-1.3,0-1.7-.4-.4-.4-.6-.9-.6-1.7s.2-1.6.6-2.4c.4-.8,1-1.6,1.7-2.3.7-.7,1.5-1.3,2.5-1.8,1-.5,1.8-.8,2.5-.8.7,0,1.3.1,1.7.5.4.4.6,1,.6,1.8s-.2,1.6-.6,2.4c-.4.8-.9,1.5-1.7,2.2s-1.6,1.3-2.5,1.8ZM339.5,413.8c.6-.3,1.1-.7,1.4-1.2.4-.5.5-1,.5-1.5s-.2-.9-.5-1c-.4-.1-.8,0-1.4.3-.6.3-1,.7-1.4,1.2-.4.5-.5,1-.5,1.6s.2.9.5,1c.3.1.8,0,1.4-.3Z"/>
      <path class="cls-9" d="M125.4,137l136.2,72.1,142.4-72.1v377.6l-3.8,8-7.5,5.7-16.9,9.2-35.8,17.7-36.4,19.5-18.8,7.4-18.8,2.9-20.1-1.1-18.8-7.4-37.6-20-35.1-18.3-20.1-9.7-8.8-6.9-4.4-8.6,4.4-375.9Z"/>
      <polygon class="cls-6" points="0 137.6 264.8 0 529.7 137.6 264.8 275.2 0 137.6"/>
      <g class="cls-11">
        <path class="cls-10" d="M127.6,122l105.1-54.6c15.7-8.1,41.1-8.1,56.8,0l106.4,55.3c15.7,8.1,15.7,21.4,0,29.5l-105.1,54.6c-15.7,8.1-41.1,8.1-56.8,0l-106.4-55.3c-15.7-8.1-15.7-21.4,0-29.5Z"/>
      </g>
      <polygon class="cls-12" points="0 136.7 264.8 274.3 264.8 648.6 0 511.1 0 136.7"/>
      <polygon class="cls-13" points="264.2 275.2 529 137.6 529 511.9 264.2 649.5 264.2 275.2"/>
    </g>
  </g>
</svg>