<svg xmlns="http://www.w3.org/2000/svg" fill="none" viewBox="89.54 0 432.33 678.3" xmlns:v="https://vecta.io/nano"><path d="M458.593 465.231c84.401 48.729 84.371 127.75-.066 176.5s-221.306 48.767-305.706.038-84.371-127.75.065-176.5 221.307-48.766 305.707-.038z" fill="#13b3d3"/><path d="M436.943 451.731C509.377 493.551 509.365 561.38 436.877 603.231C364.388 645.082 246.906 645.089 174.471 603.269C102.037 561.449 102.049 493.62 174.537 451.769C247.025 409.918 364.508 409.911 436.943 451.731Z" fill="#68ffd5" stroke="url(#A)" stroke-width="50"/><path d="M147 115h310v374.402l-2 21.766-6 18.135-7.5 14.647-9 12.554-9.5 9.765-10 9.067-10.5 7.672-12.5 8.37-13.5 6.277-14 5.58-13.5 3.488-27 4.882L294.5 613l-32.5-4.882-15.5-3.488-13.5-4.882-14.5-6.975-14-7.672-8.5-6.277-8-6.975-14-13.252-5-6.278-5-7.672-7.5-16.739-5-11.858-1.5-7.338-3-19.31V115z" fill="url(#B)"/><g fill-rule="evenodd"><path d="M352.868 474.642c-5.74-3.314-15.045-3.314-20.785 0l-30.41 17.558-34.507-20.185c-5.227-3.057-13.761-3.092-19.061-.077l-11.019 6.267c-5.3 3.015-5.36 7.937-.133 10.994l34.73 20.315-30.88 17.829c-5.74 3.313-5.74 8.686 0 12l11.31 6.53c5.739 3.313 15.045 3.313 20.785 0l30.67-17.708 33.604 19.657c5.226 3.057 13.76 3.092 19.061.077l11.018-6.267c5.301-3.015 5.36-7.937.134-10.995l-33.827-19.786 30.62-17.679c5.74-3.314 5.74-8.686 0-12l-11.31-6.53z" fill="#fff" style="mix-blend-mode:screen"/><use href="#E" fill="url(#C)"/><use href="#E" fill="url(#C)"/><use href="#E" fill="url(#C)"/><use href="#E" fill="url(#C)"/><path d="M197 15.148L221.118 0 358.68 89.206l.001.001h-.001l77.304 137.531.193-.121v259.494l-24.118 15.148V241.942l-.011.007-73.794-138.28-.149.106L197 15.148z" fill="url(#D)"/></g><g fill="#fff"><path d="M208 174l182.731 105.5v7L208 181zm0 39l103.923 60v7L208 220zm109.117 63l73.612 42.5v7L317.117 283zm0 26l73.612 42.5v7L317.117 309zM208 200l182.731 105.5v7L208 207zm0-13l182.731 105.5v7L208 194zm0 39l182.731 105.5v7L208 233zm0 39l182.731 105.5v7L208 272zm0-13l182.731 105.5v7L208 259zm0-13l103.923 60v7L208 246z" style="mix-blend-mode:screen"/><path d="M215.327 96.47a12.51 12.51 0 0 1-2.668-2.08c-.808-.827-1.512-1.74-2.113-2.74a14.58 14.58 0 0 1-1.386-3.1c-.323-1.067-.485-2.12-.485-3.16s.162-1.907.485-2.6c.335-.687.803-1.183 1.403-1.49s1.305-.407 2.114-.3 1.685.433 2.632.98a12.08 12.08 0 0 1 2.633 2.06 14.4 14.4 0 0 1 2.096 2.73 14.33 14.33 0 0 1 1.403 3.11 10.47 10.47 0 0 1 .502 3.17c0 1.04-.167 1.91-.502 2.61-.335.687-.803 1.183-1.403 1.49-.589.3-1.288.397-2.096.29-.797-.1-1.669-.423-2.615-.97zm-.018-2.77c.543.313 1.039.493 1.49.54.462.053.866-.02 1.212-.22s.612-.52.797-.96c.196-.433.294-.983.294-1.65s-.098-1.33-.294-1.99a8.21 8.21 0 0 0-.797-1.88c-.335-.593-.733-1.13-1.195-1.61a6.82 6.82 0 0 0-1.507-1.19c-.542-.313-1.045-.497-1.507-.55-.45-.047-.848.03-1.195.23s-.618.517-.814.95c-.185.44-.277.993-.277 1.66a7.38 7.38 0 0 0 .277 1.98c.196.66.462 1.287.797 1.88a8.31 8.31 0 0 0 1.212 1.62c.462.48.965.877 1.507 1.19zm8.743 7.568V87.268l5.248 3.03c1.085.627 2.021 1.373 2.806 2.24.785.853 1.391 1.783 1.818 2.79s.641 2.037.641 3.09c0 1.04-.213 1.816-.641 2.331s-1.033.75-1.818.71c-.785-.054-1.721-.394-2.806-1.02l-3.689-2.13 1.247-.74v5.321l-2.806-1.62zm2.806-3.341l-1.247-2.26 3.533 2.04c.866.5 1.513.66 1.94.48s.641-.65.641-1.41a3.98 3.98 0 0 0-.641-2.17c-.427-.673-1.074-1.26-1.94-1.76l-3.533-2.04 1.247-.82v7.94zm7.799 11.264v-1.8l8.661 5v1.8l-8.661-5zm10.623 4.332v-14l2.32 1.34 7.154 14.21-1.126-.65v-10.08l2.771 1.6v14l-2.303-1.33-7.171-14.22 1.126.65v10.08l-2.771-1.6zm19.877 11.717c-.959-.554-1.848-1.247-2.667-2.08-.809-.827-1.513-1.74-2.114-2.74-.588-.994-1.05-2.027-1.385-3.1-.324-1.067-.485-2.12-.485-3.16s.161-1.907.485-2.6c.335-.687.802-1.184 1.403-1.49s1.305-.407 2.113-.3 1.686.433 2.633.98c.958.553 1.836 1.24 2.632 2.06.809.826 1.507 1.736 2.096 2.73.6 1 1.068 2.036 1.403 3.11.335 1.06.502 2.116.502 3.17 0 1.04-.167 1.91-.502 2.61-.335.686-.803 1.183-1.403 1.49-.589.3-1.287.396-2.096.29-.796-.1-1.668-.424-2.615-.97zm-.017-2.77c.542.313 1.039.493 1.489.54.462.053.866-.02 1.213-.22s.612-.52.796-.96c.197-.434.295-.984.295-1.65s-.098-1.33-.295-1.99c-.184-.654-.45-1.28-.796-1.88a7.92 7.92 0 0 0-1.196-1.61c-.461-.48-.964-.877-1.506-1.19s-1.045-.497-1.507-.55c-.451-.047-.849.03-1.195.23s-.618.516-.815.95c-.184.44-.277.993-.277 1.66 0 .653.093 1.313.277 1.98.197.66.462 1.286.797 1.88.347.6.751 1.14 1.213 1.62s.964.876 1.507 1.19zm8.742 7.567v-14l5.248 3.03c1.086.627 2.021 1.373 2.806 2.24.785.853 1.392 1.783 1.819 2.79s.641 2.037.641 3.09c0 1.04-.214 1.817-.641 2.33s-1.034.75-1.819.71c-.785-.053-1.72-.393-2.806-1.02l-3.689-2.13 1.247-.74v5.32l-2.806-1.62zm2.806-3.34l-1.247-2.26 3.533 2.04c.866.5 1.513.66 1.94.48s.641-.65.641-1.41a3.98 3.98 0 0 0-.641-2.17c-.427-.673-1.074-1.26-1.94-1.76l-3.533-2.04 1.247-.82v7.94zm-64.652-16.067l5.819 3.36v2.6l-5.819-3.36v-2.6zm.208 7.82l-2.806-1.62v-14l9.162 5.29v2.6l-6.356-3.67v11.4zm11.777 6.96a8.19 8.19 0 0 1-2.078-1.72c-.601-.694-1.068-1.49-1.403-2.39-.335-.914-.503-1.924-.503-3.03v-6.08l2.702 1.56v5.62c0 .893.162 1.646.485 2.26a3.68 3.68 0 0 0 1.403 1.43c.416.24.785.353 1.109.34.323-.027.577-.2.762-.52.185-.334.277-.827.277-1.48v-5.32l2.702 1.56v10.76l-2.563-1.48v-2.96l.467 1.13c-.312.566-.773.866-1.385.9-.601.026-1.259-.167-1.975-.58zm13.623-3.215c.739.427 1.397.98 1.975 1.66.588.673 1.05 1.46 1.385 2.36.335.887.503 1.877.503 2.97v6.16l-2.702-1.56v-5.68c0-.867-.168-1.603-.503-2.21-.323-.6-.785-1.073-1.385-1.42-.428-.247-.814-.363-1.161-.35-.335.007-.6.167-.797.48-.184.32-.277.813-.277 1.48v5.32l-2.702-1.56v-10.76l2.581 1.49v2.98l-.485-1.18c.335-.527.814-.803 1.438-.83s1.333.19 2.13.65zm10.883 17.363c-1.005-.58-1.9-1.33-2.685-2.25a11.45 11.45 0 0 1-1.853-3.05c-.439-1.093-.658-2.173-.658-3.24 0-1.08.219-1.907.658-2.48.45-.58 1.068-.877 1.853-.89.785-.027 1.68.25 2.685.83.981.567 1.836 1.3 2.563 2.2.728.887 1.265 1.87 1.611 2.95l-2.096.09c-.242-.647-.548-1.197-.918-1.65-.358-.447-.75-.793-1.178-1.04-.461-.267-.877-.387-1.247-.36s-.664.197-.883.51c-.208.32-.312.793-.312 1.42a5.07 5.07 0 0 0 .312 1.78 5.6 5.6 0 0 0 .883 1.53c.37.453.786.813 1.247 1.08.428.247.82.36 1.178.34.37-.027.676-.23.918-.61l2.096 2.53a1.89 1.89 0 0 1-1.611 1.09c-.727.047-1.582-.213-2.563-.78zm9.676 5.586c-1.097-.633-1.952-1.446-2.564-2.44-.612-1.006-.918-2.15-.918-3.43v-9.44l2.702 1.56v9.4a2.5 2.5 0 0 0 .312 1.24 2.28 2.28 0 0 0 .849.85c.427.247.791.324 1.091.23l.727 2.62c-.277.067-.612.047-1.004-.06-.381-.113-.78-.29-1.195-.53zm-4.919-11.12v-2.4l6.46 3.73v2.4l-6.46-3.73zm8.635 13.106v-10.76l2.702 1.56v10.76l-2.702-1.56zm1.351-11.48a3.38 3.38 0 0 1-1.212-1.2c-.312-.513-.468-1.017-.468-1.51s.156-.817.468-.97.715-.087 1.212.2a3.43 3.43 0 0 1 1.212 1.18c.312.487.468.977.468 1.47 0 .52-.156.863-.468 1.03-.3.16-.704.093-1.212-.2zm8.293 17.208c-.993-.573-1.877-1.323-2.65-2.25-.762-.92-1.369-1.923-1.819-3.01-.439-1.093-.658-2.173-.658-3.24 0-1.08.219-1.907.658-2.48.45-.58 1.057-.883 1.819-.91.773-.033 1.657.237 2.65.81a9.81 9.81 0 0 1 2.632 2.24c.774.913 1.38 1.91 1.819 2.99s.658 2.167.658 3.26c0 1.067-.219 1.893-.658 2.48-.439.573-1.045.877-1.819.91s-1.651-.233-2.632-.8zm0-2.56c.45.26.854.373 1.212.34s.641-.21.849-.53c.208-.333.312-.807.312-1.42a5.07 5.07 0 0 0-.312-1.78 5.41 5.41 0 0 0-.849-1.51c-.358-.447-.762-.8-1.212-1.06s-.855-.373-1.213-.34a1.15 1.15 0 0 0-.866.52c-.208.32-.311.793-.311 1.42a5.18 5.18 0 0 0 .311 1.78 5.72 5.72 0 0 0 .866 1.52c.358.447.762.8 1.213 1.06zm12.579-1.257a7.5 7.5 0 0 1 1.975 1.66c.589.673 1.05 1.46 1.385 2.36.335.886.503 1.876.503 2.97v6.16l-2.702-1.56v-5.68c0-.867-.168-1.604-.503-2.21a3.56 3.56 0 0 0-1.385-1.42c-.428-.247-.814-.364-1.161-.35-.335.006-.6.166-.797.48-.184.32-.277.813-.277 1.48v5.32l-2.702-1.56v-10.76l2.581 1.49v2.98l-.485-1.18c.335-.527.814-.804 1.438-.83s1.333.19 2.13.65zm9.447 16.534c-.797-.46-1.565-1.01-2.304-1.65-.727-.647-1.305-1.26-1.732-1.84l.901-1.72c.427.553.929 1.096 1.507 1.63.589.526 1.166.953 1.732 1.28.623.36 1.062.526 1.316.5.266-.02.399-.184.399-.49 0-.254-.104-.5-.312-.74a4.7 4.7 0 0 0-.797-.76l-1.108-.84-1.196-.95a9 9 0 0 1-1.108-1.16 5.68 5.68 0 0 1-.814-1.39c-.196-.5-.295-1.057-.295-1.67 0-.68.168-1.184.503-1.51.346-.32.843-.44 1.489-.36.647.066 1.421.36 2.321.88.635.366 1.282.82 1.94 1.36s1.207 1.09 1.646 1.65l-.901 1.7c-.45-.567-.907-1.037-1.368-1.41-.451-.38-.89-.694-1.317-.94-.6-.347-1.039-.507-1.316-.48s-.416.186-.416.48c0 .266.098.523.295.77.207.253.479.516.814.79l1.091.85c.404.286.808.606 1.212.96s.768.736 1.091 1.15c.335.406.607.863.815 1.37.207.493.311 1.046.311 1.66 0 .666-.173 1.16-.519 1.48-.347.306-.849.416-1.507.33-.647-.08-1.438-.39-2.373-.93z"/></g><defs><linearGradient id="A" x1="152.886" y1="439.269" x2="305.707" y2="703.962" href="#F"><stop offset="1" stop-color="#13b3d3" stop-opacity=".66"/></linearGradient><linearGradient id="B" x1="302.113" y1="115" x2="301.98" y2="489.402" href="#F"><stop offset=".276" stop-color="#9fffd4" stop-opacity="0"/><stop offset=".573" stop-color="#9fffd4" stop-opacity=".129"/><stop offset="1" stop-color="#9fffd4" stop-opacity=".53"/></linearGradient><linearGradient id="C" x1="305.867" y1="82.685" x2="147.803" y2="334.344" href="#F"><stop stop-color="#13edb1"/><stop offset="1" stop-color="#13b3d3"/></linearGradient><linearGradient id="D" x1="197" y1="402.498" x2="459.666" y2="120.652" href="#F"><stop stop-color="#13edb1"/><stop offset="1" stop-color="#13b3d3"/></linearGradient><path id="E" d="M340.654 104.534L197 14.307v350.937L414.734 502V241.946l-74.08-137.412z"/><linearGradient id="F" gradientUnits="userSpaceOnUse"/></defs></svg>