<svg xmlns="http://www.w3.org/2000/svg" fill="none" viewBox="0.5 172.5 794 839.5">
<rect width="72.7461" height="17.0437" transform="matrix(0.866025 0.5 0 1 329 892)" fill="white"/>
<rect width="72.7461" height="17.0437" transform="matrix(0.866025 0.5 0 1 329 918)" fill="white"/>
<rect width="72.7461" height="17.0437" transform="matrix(0.866025 0.5 0 1 101 793)" fill="white"/>
<rect width="372" height="112" transform="matrix(0.866025 0.5 0 1 91 714)" fill="url(#paint0_linear_149_16)"/>
<rect width="72.7461" height="17.0437" transform="matrix(0.866025 0.5 0 1 101 763.824)" fill="white"/>
<rect width="372" height="372.312" transform="matrix(0.866025 -0.5 0.866025 0.5 91 714)" fill="url(#paint1_linear_149_16)"/>
<g style="mix-blend-mode:screen">
<rect width="288.001" height="287.999" transform="matrix(0.866025 -0.5 0.866025 0.5 163.586 713.001)" fill="url(#paint2_linear_149_16)"/>
</g>
<g style="mix-blend-mode:screen">
<path d="M413 239.001L794.5 278.5L662.417 714.05L413 858.051V239.001Z" fill="url(#paint3_linear_149_16)"/>
</g>
<rect width="372" height="112" transform="matrix(0.866025 -0.5 0 1 413 900)" fill="url(#paint4_linear_149_16)"/>
<rect width="202.486" height="203.753" transform="matrix(0.898826 -0.438306 0.898826 0.438306 231 343.751)" fill="url(#paint5_linear_149_16)"/>
<rect width="202.486" height="177.502" transform="matrix(0.898826 0.438306 0 1 231 343.751)" fill="url(#paint6_linear_149_16)"/>
<rect width="202.486" height="177.502" transform="matrix(0.898826 -0.438306 0 1 412.953 432.727)" fill="url(#paint7_linear_149_16)"/>
<g filter="url(#filter0_d_149_16)">
<path d="M436.188 543.85V473.85L447.793 467.15L473.6 501.65L467.452 505.2L492.826 441.15L504.344 434.5L504.517 504.4L491.354 512L491.267 465.35L493.692 463.95L473.427 514.95L467.105 518.6L446.407 491.25L449.352 489.55V536.25L436.188 543.85ZM518.9 496.096V426.096L548.518 408.996C556.139 404.596 561.855 402.963 565.666 404.096C569.534 405.196 571.468 408.479 571.468 413.946C571.468 417.613 570.689 421.263 569.13 424.896C567.571 428.463 565.435 431.763 562.721 434.796C560.008 437.829 556.89 440.363 553.368 442.396L555.013 437.346C558.824 435.146 562.201 433.929 565.146 433.696C568.09 433.396 570.371 434.179 571.988 436.046C573.662 437.879 574.499 440.829 574.499 444.896C574.499 450.896 572.449 456.779 568.35 462.546C564.251 468.246 558.218 473.396 550.25 477.996L518.9 496.096ZM532.843 475.846L549.211 466.396C552.848 464.296 555.591 462.046 557.438 459.646C559.344 457.146 560.296 454.396 560.296 451.396C560.296 448.463 559.344 446.846 557.438 446.546C555.591 446.146 552.848 446.996 549.211 449.096L531.804 459.146V447.346L546.786 438.696C550.193 436.729 552.791 434.563 554.58 432.196C556.428 429.729 557.352 427.096 557.352 424.296C557.352 421.563 556.428 420.063 554.58 419.796C552.791 419.429 550.193 420.229 546.786 422.196L532.843 430.246V475.846Z" fill="white"/>
</g>
<g filter="url(#filter1_d_149_16)">
<path d="M311.731 506.35V442.35L317.793 452.85L299.606 442.35V429.35L325.76 444.45V514.45L311.731 506.35Z" fill="white"/>
</g>
<rect width="77.4985" height="77.4985" transform="matrix(0.89034 -0.455297 0.89034 0.455297 77 273.285)" fill="url(#paint8_linear_149_16)"/>
<rect width="77.4985" height="70.5696" transform="matrix(0.89034 0.455297 0 1 77 273.285)" fill="url(#paint9_linear_149_16)"/>
<rect width="77.4985" height="70.5696" transform="matrix(0.89034 -0.455297 0 1 145.984 308.659)" fill="url(#paint10_linear_149_16)"/>
<g style="mix-blend-mode:screen">
<path d="M0.5 172.5L413.417 238.401V857.451L164 713.451L0.5 172.5Z" fill="url(#paint11_linear_149_16)"/>
</g>
<rect width="72.7461" height="17.0437" transform="matrix(0.866025 -0.5 0 1 662 774.373)" fill="white"/>
<rect width="72.7461" height="17.0437" transform="matrix(0.866025 -0.5 0 1 662 774.373)" fill="white"/>
<rect width="72.7461" height="17.0437" transform="matrix(0.866025 -0.5 0 1 662 801.373)" fill="white"/>
<rect width="72.7461" height="17.0437" transform="matrix(0.866025 -0.5 0 1 662 828.373)" fill="white"/>
<defs>
<filter id="filter0_d_149_16" x="432.188" y="393.996" width="146.312" height="157.854" filterUnits="userSpaceOnUse" color-interpolation-filters="sRGB">
<feFlood flood-opacity="0" result="BackgroundImageFix"/>
<feColorMatrix in="SourceAlpha" type="matrix" values="0 0 0 0 0 0 0 0 0 0 0 0 0 0 0 0 0 0 127 0" result="hardAlpha"/>
<feOffset dy="4"/>
<feGaussianBlur stdDeviation="2"/>
<feComposite in2="hardAlpha" operator="out"/>
<feColorMatrix type="matrix" values="0 0 0 0 0 0 0 0 0 0 0 0 0 0 0 0 0 0 0.25 0"/>
<feBlend mode="normal" in2="BackgroundImageFix" result="effect1_dropShadow_149_16"/>
<feBlend mode="normal" in="SourceGraphic" in2="effect1_dropShadow_149_16" result="shape"/>
</filter>
<filter id="filter1_d_149_16" x="295.609" y="429.35" width="34.1484" height="93.1006" filterUnits="userSpaceOnUse" color-interpolation-filters="sRGB">
<feFlood flood-opacity="0" result="BackgroundImageFix"/>
<feColorMatrix in="SourceAlpha" type="matrix" values="0 0 0 0 0 0 0 0 0 0 0 0 0 0 0 0 0 0 127 0" result="hardAlpha"/>
<feOffset dy="4"/>
<feGaussianBlur stdDeviation="2"/>
<feComposite in2="hardAlpha" operator="out"/>
<feColorMatrix type="matrix" values="0 0 0 0 0 0 0 0 0 0 0 0 0 0 0 0 0 0 0.25 0"/>
<feBlend mode="normal" in2="BackgroundImageFix" result="effect1_dropShadow_149_16"/>
<feBlend mode="normal" in="SourceGraphic" in2="effect1_dropShadow_149_16" result="shape"/>
</filter>
<linearGradient id="paint0_linear_149_16" x1="6.97221" y1="120.663" x2="40.975" y2="-67.2884" gradientUnits="userSpaceOnUse">
<stop stop-color="#13B3D3"/>
<stop offset="1" stop-color="#13EDB1"/>
</linearGradient>
<linearGradient id="paint1_linear_149_16" x1="6.97221" y1="401.11" x2="291.947" y2="-72.7487" gradientUnits="userSpaceOnUse">
<stop stop-color="#13B3D3"/>
</linearGradient>
<linearGradient id="paint2_linear_149_16" x1="5.39787" y1="310.276" x2="225.75" y2="-56.4389" gradientUnits="userSpaceOnUse">
<stop stop-color="#13EEB0"/>
<stop offset="1" stop-color="#13B3D3"/>
</linearGradient>
<linearGradient id="paint3_linear_149_16" x1="80.3703" y1="752.638" x2="12.7707" y2="377.345" gradientUnits="userSpaceOnUse">
<stop stop-color="#13EEB0" stop-opacity="0.26"/>
<stop offset="0.501061" stop-color="#13B3D3" stop-opacity="0.26"/>
<stop offset="0.756675" stop-color="#13B3D3" stop-opacity="0"/>
</linearGradient>
<linearGradient id="paint4_linear_149_16" x1="295.059" y1="120.663" x2="285.564" y2="-22.4991" gradientUnits="userSpaceOnUse">
<stop stop-color="#13B3D3"/>
<stop offset="1" stop-color="#12EBB2"/>
</linearGradient>
<linearGradient id="paint5_linear_149_16" x1="208.758" y1="56.5408" x2="96.6026" y2="-14.7135" gradientUnits="userSpaceOnUse">
<stop stop-color="#13EFAF"/>
<stop offset="1" stop-color="#0EB3DF"/>
</linearGradient>
<linearGradient id="paint6_linear_149_16" x1="176.018" y1="-3.40912e-06" x2="15.6065" y2="167.074" gradientUnits="userSpaceOnUse">
<stop stop-color="#13EFAF"/>
<stop offset="1" stop-color="#0EB3DF"/>
</linearGradient>
<linearGradient id="paint7_linear_149_16" x1="162.925" y1="43.1716" x2="82.934" y2="163.228" gradientUnits="userSpaceOnUse">
<stop stop-color="#13EFAF"/>
<stop offset="1" stop-color="#0EB3DF"/>
</linearGradient>
<linearGradient id="paint8_linear_149_16" x1="38.7492" y1="0" x2="38.7492" y2="77.4985" gradientUnits="userSpaceOnUse">
<stop stop-color="#13EFAF"/>
<stop offset="1" stop-color="#0EB3DF"/>
</linearGradient>
<linearGradient id="paint9_linear_149_16" x1="67.3683" y1="-1.35537e-06" x2="3.54063" y2="63.9975" gradientUnits="userSpaceOnUse">
<stop stop-color="#13EFAF"/>
<stop offset="1" stop-color="#0EB3DF"/>
</linearGradient>
<linearGradient id="paint10_linear_149_16" x1="62.357" y1="17.1638" x2="30.1057" y2="63.7626" gradientUnits="userSpaceOnUse">
<stop stop-color="#13EFAF"/>
<stop offset="1" stop-color="#0EB3DF"/>
</linearGradient>
<linearGradient id="paint11_linear_149_16" x1="162.316" y1="849.034" x2="-20.0166" y2="231.224" gradientUnits="userSpaceOnUse">
<stop stop-color="#13EEB0" stop-opacity="0.26"/>
<stop offset="0.501061" stop-color="#13B3D3" stop-opacity="0.26"/>
<stop offset="0.756675" stop-color="#13B3D3" stop-opacity="0"/>
</linearGradient>
</defs>
</svg>