<svg xmlns="http://www.w3.org/2000/svg" viewBox="0 0 516.4 668.2" xmlns:v="https://vecta.io/nano"><style>.A{isolation:isolate}.B{mix-blend-mode:screen}</style><defs><linearGradient id="A" x1="3.9" y1="642.6" x2="-208.3" y2="657" gradientTransform="translate(-117.6 844.1) rotate(29.2) scale(1 -.9) skewX(27.6)" href="#f"><stop offset="0" stop-color="#13edb1" stop-opacity=".4"/><stop offset="1" stop-color="#13b3d3" stop-opacity=".6"/></linearGradient><linearGradient id="B" x1="3.9" y1="642.6" x2="-208.3" y2="657" gradientTransform="translate(-321.6 948.1) rotate(29.2) scale(1 -.9) skewX(27.6)" href="#f"><stop offset="0" stop-color="#13edb1" stop-opacity=".4"/><stop offset="1" stop-color="#13b3d3" stop-opacity=".6"/></linearGradient><linearGradient id="C" x1="3.9" y1="642.6" x2="-208.3" y2="657" gradientTransform="translate(-117.6 794.1) rotate(29.2) scale(1 -.9) skewX(27.6)" href="#f"><stop offset="0" stop-color="#13edb1" stop-opacity=".4"/><stop offset="1" stop-color="#13b3d3" stop-opacity=".6"/></linearGradient><linearGradient id="D" x1="-28.6" y1="549.1" x2="-175.8" y2="750.5" gradientTransform="translate(-123.6 725.1) rotate(29.2) scale(1 -.9) skewX(27.6)" href="#f"><stop offset="1" stop-color="#13b3d3" stop-opacity=".9"/><stop offset="1"/></linearGradient><linearGradient id="E" x1="-28.6" y1="549.1" x2="-175.8" y2="750.5" gradientTransform="translate(-320.6 805.1) rotate(29.2) scale(1 -.9) skewX(27.6)" href="#f"><stop offset="0" stop-color="#13edb1" stop-opacity=".9"/><stop offset="1" stop-color="#13b3d3" stop-opacity=".9"/></linearGradient><linearGradient id="F" x1="3.9" y1="642.6" x2="-208.3" y2="657" gradientTransform="translate(-321.6 898.1) rotate(29.2) scale(1 -.9) skewX(27.6)" href="#f"><stop offset="0" stop-color="#13edb1" stop-opacity=".4"/><stop offset="1" stop-color="#13b3d3" stop-opacity=".6"/></linearGradient><linearGradient id="G" x1="-28.6" y1="549.1" x2="-175.8" y2="750.5" gradientTransform="translate(-321.6 834.1) rotate(29.2) scale(1 -.9) skewX(27.6)" href="#f"><stop offset="1" stop-color="#13b3d3" stop-opacity=".9"/><stop offset="1"/></linearGradient><linearGradient id="H" x1="-28.6" y1="549.1" x2="-175.8" y2="750.5" gradientTransform="translate(-127.6 701.1) rotate(29.2) scale(1 -.9) skewX(27.6)" href="#f"><stop offset="0" stop-color="#13edb1" stop-opacity=".9"/><stop offset="1" stop-color="#13b3d3" stop-opacity=".9"/></linearGradient><linearGradient id="I" x1="205.5" y1="189.9" x2="95.9" y2="342.6" href="#f"><stop offset="0" stop-color="#6cffd7" stop-opacity=".2"/><stop offset="1" stop-color="#13b3d3" stop-opacity=".5"/></linearGradient><linearGradient id="J" x1="70.2" y1="342.6" x2="243.5" y2="179.9" href="#f"><stop offset="0" stop-color="#13edb1" stop-opacity=".5"/><stop offset="1" stop-color="#13b3d3" stop-opacity=".5"/></linearGradient><linearGradient id="K" x1="402.5" y1="93.9" x2="292.9" y2="246.6" href="#f"><stop offset="0" stop-color="#6cffd7" stop-opacity=".2"/><stop offset="1" stop-color="#13b3d3" stop-opacity=".5"/></linearGradient><linearGradient id="L" x1="267.2" y1="246.6" x2="440.5" y2="83.9" href="#f"><stop offset="0" stop-color="#13edb1" stop-opacity=".5"/><stop offset="1" stop-color="#13b3d3" stop-opacity=".5"/></linearGradient><path id="M" d="M170.7 164.9l-82.9-59.5v231.4L213.4 427V255.5l-42.7-90.6z"/><path id="N" d="M87.9 106l13.9-10 79.4 58.8h0l44.6 90.7h.1v171l-13.9 10v-171h0l-42.6-91.2h0L88 105.9z"/><path id="O" d="M94.2 210.7l105.4 69.6v4.6L94.2 215.3v-4.6z"/><path id="P" d="M94.2 236.4l60 39.6v4.6l-60-39.5v-4.7z"/><path id="Q" d="M157.2 278l42.4 28v4.6l-42.4-28V278z"/><path id="R" d="M157.2 295.1l42.4 28v4.7l-42.4-28.1v-4.6z"/><path id="S" d="M94.2 227.9l105.4 69.5v4.7L94.2 232.5v-4.6z"/><path id="T" d="M94.2 219.3l105.4 69.6v4.6L94.2 223.9v-4.6z"/><path id="U" d="M94.2 245l105.4 69.6v4.6L94.2 249.6V245z"/><path id="V" d="M94.2 270.7l105.4 69.6v4.6L94.2 275.3v-4.6z"/><path id="W" d="M94.2 262.2l105.4 69.5v4.6L94.2 266.8v-4.6z"/><path id="X" d="M94.2 253.6l60 39.5v4.7l-60-39.6v-4.6z"/><path id="Y" d="M367.7 68.9L284.8 9.4v231.4L410.4 331V159.5l-42.7-90.6z"/><path id="Z" d="M284.9 10l13.9-10 79.4 58.8h0l44.6 90.7h.1v171l-13.9 10v-171h0l-42.6-91.2h0L285 9.9z"/><path id="a" d="M291.2 114.7l105.4 69.6v4.6l-105.4-69.6v-4.6z"/><path id="b" d="M354.2 182l42.4 28v4.6l-42.4-28V182z"/><path id="c" d="M291.2 131.9l105.4 69.5v4.7l-105.4-69.6v-4.6z"/><path id="d" d="M291.2 149l105.4 69.6v4.6l-105.4-69.6V149z"/><path id="e" d="M291.2 166.2l105.4 69.5v4.6l-105.4-69.5v-4.6z"/><linearGradient id="f" gradientUnits="userSpaceOnUse"/></defs><g class="A"><path class="B" d="M401.8,400.8l94,52.6c27.5,15.4,27.5,40.3,0,55.7l-77.7,43.5c-27.5,15.4-72,15.4-99.5,0l-94-52.6c-27.5-15.4-27.5-40.3,0-55.7l77.7-43.5c27.5-15.4,72-15.4,99.5,0Z" fill="url(#A)"/><path class="B" d="M197.8,504.8l94,52.6c27.5,15.4,27.5,40.3,0,55.7l-77.7,43.5c-27.5,15.4-72,15.4-99.5,0l-94-52.6c-27.5-15.4-27.5-40.3,0-55.7l77.7-43.5c27.5-15.4,72-15.4,99.5,0Z" fill="url(#B)"/><path class="B" d="M401.8,350.8l94,52.6c27.5,15.4,27.5,40.3,0,55.7l-77.7,43.5c-27.5,15.4-72,15.4-99.5,0l-94-52.6c-27.5-15.4-27.5-40.3,0-55.7l77.7-43.5c27.5-15.4,72-15.4,99.5,0Z" fill="url(#C)"/><path class="B" d="M395.8,281.8l94,52.6c27.5,15.4,27.5,40.3,0,55.7l-77.7,43.5c-27.5,15.4-72,15.4-99.5,0l-94-52.6c-27.5-15.4-27.5-40.3,0-55.7l77.7-43.5c27.5-15.4,72-15.4,99.5,0Z" fill="url(#D)"/><path class="B" d="M198.8,361.8l94,52.6c27.5,15.4,27.5,40.3,0,55.7l-77.7,43.5c-27.5,15.4-72,15.4-99.5,0l-94-52.6c-27.5-15.4-27.5-40.3,0-55.7l77.7-43.5c27.5-15.4,72-15.4,99.5,0Z" fill="url(#E)"/><path class="B" d="M197.8,454.8l94,52.6c27.5,15.4,27.5,40.3,0,55.7l-77.7,43.5c-27.5,15.4-72,15.4-99.5,0l-94-52.6c-27.5-15.4-27.5-40.3,0-55.7l77.7-43.5c27.5-15.4,72-15.4,99.5,0Z" fill="url(#F)"/><path class="B" d="M197.8,390.8l94,52.6c27.5,15.4,27.5,40.3,0,55.7l-77.7,43.5c-27.5,15.4-72,15.4-99.5,0l-94-52.6c-27.5-15.4-27.5-40.3,0-55.7l77.7-43.5c27.5-15.4,72-15.4,99.5,0Z" fill="url(#G)"/><path class="B" d="M391.8,257.8l94,52.6c27.5,15.4,27.5,40.3,0,55.7l-77.7,43.5c-27.5,15.4-72,15.4-99.5,0l-94-52.6c-27.5-15.4-27.5-40.3,0-55.7l77.7-43.5c27.5-15.4,72-15.4,99.5,0Z" fill="url(#H)"/><path d="M383.5 285.6c18.6-2.6 35.4 7.1 31 17.9L387.9 368c-4.7 11.3-29 15.3-43.2 7.1l-85-49.1c-14.2-8.2-7.3-22.2 12.2-24.9l111.6-15.4zM113.3 473.8c-18.7 1.8-35.1-8.6-30.2-19.1l29.3-63.3c5.1-11.1 29.6-14.1 43.5-5.3l82.9 52.5c13.9 8.8 6.4 22.5-13.2 24.4l-112.2 10.8z" fill="#fff" class="B"/><g fill-rule="evenodd"><use href="#M" fill="url(#I)"/><use href="#M" fill="url(#I)"/><use href="#N" fill="url(#J)"/></g><g fill="#fff" class="B"><use href="#O"/><use href="#P"/><use href="#Q"/><use href="#R"/><use href="#S"/><use href="#T"/><use href="#U"/><use href="#V"/><use href="#W"/><use href="#X"/></g><g fill-rule="evenodd"><use href="#M" fill="url(#I)"/><use href="#M" fill="url(#I)"/><use href="#N" fill="url(#J)"/></g><g fill="#fff" class="B"><use href="#O"/><use href="#P"/><use href="#Q"/><use href="#R"/><use href="#S"/><use href="#T"/><use href="#U"/><use href="#V"/><use href="#W"/><use href="#X"/></g><g fill-rule="evenodd"><use href="#Y" fill="url(#K)"/><use href="#Y" fill="url(#K)"/><use href="#Z" fill="url(#L)"/></g><g fill="#fff" class="B"><use href="#a"/><use href="#P" x="197" y="-96"/><use href="#b"/><use href="#R" x="197" y="-96"/><use href="#c"/><use href="#a" y="8.6"/><use href="#d"/><use href="#a" y="60"/><use href="#e"/><use href="#X" x="197" y="-96"/></g><g fill-rule="evenodd"><use href="#Y" fill="url(#K)"/><use href="#Y" fill="url(#K)"/><use href="#Z" fill="url(#L)"/></g><g fill="#fff"><use href="#a" class="B"/><use href="#P" x="197" y="-96" class="B"/><use href="#b" class="B"/><use href="#R" x="197" y="-96" class="B"/><use href="#c" class="B"/><use href="#a" y="8.6" class="B"/><use href="#d" class="B"/><use href="#a" y="60" class="B"/><use href="#e" class="B"/><use href="#X" x="197" y="-96" class="B"/><path d="M98.2 206.7c-.8-.5-1.6-1-2.3-1.7-.7-.6-1.3-1.3-1.7-1.8l.9-1.7c.4.6.9 1.1 1.5 1.6l1.7 1.3c.6.4 1.1.5 1.3.5.3 0 .4-.2.4-.5s-.1-.5-.3-.7l-.8-.8c-.3-.3-.7-.5-1.1-.8l-1.2-.9c-.4-.4-.8-.7-1.1-1.2s-.6-.9-.8-1.4-.3-1.1-.3-1.7.2-1.2.5-1.5.8-.4 1.5-.4c.6 0 1.4.4 2.3.9.6.4 1.3.8 1.9 1.4.7.5 1.2 1.1 1.6 1.7l-.9 1.7c-.4-.6-.9-1-1.4-1.4s-.9-.7-1.3-.9c-.6-.3-1-.5-1.3-.5s-.4.2-.4.5 0 .5.3.8c.2.3.5.5.8.8a4.44 4.44 0 0 0 1.1.8c.4.3.8.6 1.2 1s.8.7 1.1 1.1.6.9.8 1.4.3 1 .3 1.7-.2 1.2-.5 1.5-.8.4-1.5.3c-.6 0-1.4-.4-2.4-.9zm10.6 6.1c-1-.6-1.9-1.3-2.7-2.3-.8-.9-1.4-1.9-1.9-3.1-.4-1.1-.7-2.2-.7-3.2s.2-1.9.7-2.5c.4-.6 1.1-.9 1.9-.9s1.7.3 2.7.8c1 .6 1.8 1.3 2.6 2.2.7.9 1.3 1.9 1.6 2.9h-2.1c-.2-.6-.5-1.1-.9-1.6-.4-.4-.8-.8-1.2-1-.5-.3-.9-.4-1.2-.4-.4 0-.7.2-.9.5s-.3.8-.3 1.4.1 1.2.3 1.8.5 1.1.9 1.5c.4.5.8.8 1.2 1.1.4.2.8.4 1.2.3.4 0 .7-.2.9-.6l2.1 2.5c-.3.7-.9 1-1.6 1.1-.7 0-1.6-.2-2.6-.8zm5.7 3.1v-10.8l2.6 1.5v3l-.4-1.1c.3-.6.7-.9 1.3-.9s1.4.2 2.2.7v2.9c-.1 0-.2-.1-.3-.2 0 0-.2-.1-.3-.2-.7-.4-1.3-.5-1.8-.3s-.7.8-.7 1.9v5.1l-2.7-1.6zm7.5 4.3v-10.8l2.7 1.6v10.8l-2.7-1.6zm1.3-11.5c-.5-.3-.9-.7-1.2-1.2s-.5-1-.5-1.5.2-.8.5-1 .7 0 1.2.2c.5.3.9.7 1.2 1.2s.5 1 .5 1.5-.2.9-.5 1c-.3.2-.7 0-1.2-.2zm9.4 17.9c-.8-.5-1.5-1-2.1-1.8-.6-.7-1.1-1.6-1.4-2.6a11.59 11.59 0 0 1-.5-3.4c0-1.3.2-2.2.5-2.8s.8-1 1.4-1 1.3.1 2.1.6c.9.5 1.7 1.2 2.4 2.1s1.3 1.8 1.7 2.9a9.6 9.6 0 0 1 .6 3.3c0 1.1-.2 2-.6 2.6s-1 .9-1.7 1c-.7 0-1.5-.2-2.4-.7zm-5.5.5v-14.6l2.6 1.5v5.4l.1 3.3v6.1l-2.7-1.6zm5-3.4c.5.3.8.4 1.2.3.4 0 .6-.2.8-.5s.3-.8.3-1.4-.1-1.2-.3-1.8a5.3 5.3 0 0 0-.8-1.5c-.3-.4-.7-.8-1.2-1.1-.4-.3-.9-.4-1.2-.3-.4 0-.6.2-.8.5s-.3.8-.3 1.4.1 1.2.3 1.8a5.3 5.3 0 0 0 .8 1.5l1.2 1.1zm10.7 8.8c-1.1-.6-2-1.4-2.6-2.4s-.9-2.2-.9-3.4v-9.4l2.7 1.6v9.4c0 .5.1.9.3 1.2.2.4.5.6.8.8.4.2.8.3 1.1.2l.7 2.6h-1c-.4-.1-.8-.3-1.2-.5zm-4.9-11.1V219l6.5 3.7v2.4l-6.5-3.7zm12.8 15.7c-1-.6-1.9-1.2-2.8-2.1-.9-.8-1.6-1.6-2.1-2.4l1-1.9a16.8 16.8 0 0 0 1.8 2.1c.7.7 1.4 1.2 2.2 1.6l1.3.6c.3 0 .6 0 .8-.1s.2-.3.2-.6-.1-.7-.4-1.1-.6-.7-1-1.1-.9-.8-1.4-1.2-1-.9-1.5-1.4l-1.4-1.5c-.4-.5-.8-1.1-1-1.8-.3-.6-.4-1.3-.4-2.1s.2-1.4.6-1.9c.4-.4.9-.6 1.7-.6s1.7.4 2.9 1.1c.8.4 1.5 1 2.3 1.6.7.6 1.4 1.3 2 2.1l-.9 2c-.6-.7-1.1-1.3-1.7-1.8s-1.1-.9-1.7-1.2c-.5-.3-1-.5-1.3-.6-.3 0-.6 0-.7.2-.1.1-.2.4-.2.7s.1.7.4 1.1.6.7 1 1.1.9.8 1.4 1.2l1.5 1.3 1.4 1.5c.4.5.8 1.1 1 1.7.3.6.4 1.3.4 2.1s-.2 1.4-.6 1.8-1 .6-1.7.6c-.8 0-1.7-.4-2.9-1zm6.9 3.8v-10.8l2.7 1.6v10.8l-2.7-1.6zm1.3-11.5c-.5-.3-.9-.7-1.2-1.2s-.5-1-.5-1.5.2-.8.5-1 .7 0 1.2.2c.5.3.9.7 1.2 1.2s.5 1 .5 1.5-.2.9-.5 1c-.3.2-.7 0-1.2-.2zm8.3 21c-.9-.5-1.7-1.1-2.5-1.9-.8-.7-1.5-1.5-2-2.3l1.1-1.6c.4.6.9 1.2 1.5 1.7.6.6 1.2 1 1.8 1.4 1 .6 1.7.7 2.1.5s.7-.8.7-1.8v-1.6l.2-2.6v-2.7-2.3l2.6 1.5v9c0 2-.5 3.2-1.4 3.6s-2.2.2-3.9-.8zm-.4-4.8c-.9-.5-1.7-1.2-2.4-2s-1.3-1.8-1.7-2.8-.6-2.1-.6-3.1.2-1.8.6-2.4c.4-.5 1-.8 1.7-.8s1.5.2 2.4.7c.8.5 1.5 1 2.1 1.8.6.7 1.1 1.5 1.4 2.5s.5 2 .5 3.2-.2 2.1-.5 2.6c-.3.6-.8.9-1.4.9s-1.3-.2-2.1-.6zm.5-2.2c.5.3.9.4 1.3.4s.7-.2.9-.4c.2-.3.3-.7.3-1.2a4.53 4.53 0 0 0-.3-1.6c-.2-.5-.5-1-.9-1.4s-.8-.8-1.3-1.1-.9-.4-1.3-.4-.7.1-.9.4-.3.7-.3 1.2.1 1 .3 1.6c.2.5.5 1 .9 1.4s.8.8 1.3 1.1zM296.2 109c-.6-.3-1.2-.8-1.7-1.2-.5-.5-1-.9-1.3-1.4l.7-1.3c.3.4.7.8 1.1 1.2s.9.7 1.3 1c.5.3.8.4 1 .4s.3-.1.3-.4 0-.4-.2-.6c-.1-.2-.3-.4-.6-.6s-.5-.4-.8-.6-.6-.5-.9-.7c-.3-.3-.6-.6-.8-.9-.3-.3-.5-.7-.6-1-.1-.4-.2-.8-.2-1.3s.1-.9.4-1.1.6-.3 1.1-.3 1.1.3 1.7.7l1.5 1c.5.4.9.8 1.2 1.2l-.7 1.3c-.3-.4-.7-.8-1-1.1s-.7-.5-1-.7c-.4-.3-.8-.4-1-.4s-.3.1-.3.4 0 .4.2.6l.6.6c.3.2.5.4.8.6s.6.5.9.7.6.6.8.9c.3.3.5.6.6 1 .2.4.2.8.2 1.2s-.1.9-.4 1.1-.6.3-1.1.2c-.5 0-1.1-.3-1.8-.7zm7.9 4.6c-.8-.4-1.4-1-2-1.7s-1.1-1.5-1.4-2.3-.5-1.6-.5-2.4.2-1.4.5-1.9a1.75 1.75 0 0 1 1.4-.7c.6 0 1.3.2 2 .6s1.4 1 1.9 1.7.9 1.4 1.2 2.2h-1.6c-.2-.4-.4-.8-.7-1.2-.3-.3-.6-.6-.9-.8a1.9 1.9 0 0 0-.9-.3c-.3 0-.5.1-.7.4-.2.2-.2.6-.2 1.1s0 .9.2 1.3.4.8.7 1.1.6.6.9.8.6.3.9.3.5-.2.7-.5l1.6 1.9c-.3.5-.7.8-1.2.8s-1.2-.2-1.9-.6zm4.3 2.4v-8.1l1.9 1.1v2.3l-.3-.8c.2-.5.5-.7 1-.7s1 .1 1.7.5v2.2s-.2-.1-.2-.2c0 0-.1 0-.2-.1-.6-.3-1-.4-1.4-.2-.3.2-.5.6-.5 1.4v3.8l-2-1.2zm5.5 3.2v-8.1l2 1.2v8.1l-2-1.2zm1-8.6a1.96 1.96 0 0 1-.9-.9c-.2-.4-.4-.8-.4-1.1s.1-.6.4-.7.5 0 .9.2a1.96 1.96 0 0 1 .9.9c.2.4.4.7.4 1.1s-.1.6-.4.8c-.2.1-.5 0-.9-.2zm7.1 13.3c-.6-.3-1.1-.8-1.5-1.3-.4-.6-.8-1.2-1-2s-.4-1.6-.4-2.5.1-1.7.4-2.1.6-.7 1-.8c.4 0 1 .1 1.6.5.7.4 1.2.9 1.8 1.5.5.6.9 1.4 1.2 2.2s.5 1.6.5 2.5-.2 1.5-.5 1.9-.7.7-1.2.7-1.1-.1-1.8-.5zm-4.2.4v-11l1.9 1.1v4 2.5 4.5l-2-1.2zm3.8-2.5c.3.2.6.3.9.2.3 0 .5-.2.6-.4.2-.2.2-.6.2-1.1s0-.9-.2-1.3l-.6-1.1c-.3-.3-.6-.6-.9-.8s-.6-.3-.9-.3-.5.2-.6.4c-.2.2-.2.6-.2 1.1s0 .9.2 1.3l.6 1.1c.3.3.6.6.9.8zm8.1 6.6c-.8-.5-1.5-1.1-1.9-1.8-.5-.8-.7-1.6-.7-2.6v-7.1l2 1.2v7.1c0 .3 0 .6.2.9s.4.5.6.6c.3.2.6.2.8.2l.5 2h-.8c-.3 0-.6-.2-.9-.4zM326 120v-1.8l4.8 2.8v1.8L326 120zm6.6 9.9v-10.5l3.9 2.3c.8.5 1.5 1 2.1 1.7.6.6 1 1.3 1.4 2.1.3.8.5 1.5.5 2.3s-.2 1.4-.5 1.7c-.3.4-.8.6-1.4.5-.6 0-1.3-.3-2.1-.8l-2.8-1.6.9-.6v4l-2.1-1.2zm2.1-2.5l-.9-1.7 2.6 1.5c.6.4 1.1.5 1.5.4.3-.1.5-.5.5-1.1s-.2-1.1-.5-1.6-.8-.9-1.5-1.3l-2.6-1.5.9-.6v6zm10.2 9.8c-.6-.3-1.1-.8-1.6-1.3s-.8-1.1-1.1-1.8-.4-1.4-.4-2.3v-4.6l2 1.2v4.2c0 .7.1 1.2.4 1.7s.6.8 1.1 1.1c.3.2.6.3.8.3s.4-.1.6-.4c.1-.2.2-.6.2-1.1v-4l2 1.2v8.1l-1.9-1.1v-2.2l.4.8c-.2.4-.6.6-1 .7-.4 0-.9-.1-1.5-.4zM355 143c-.6-.4-1.1-.8-1.6-1.4-.4-.6-.8-1.2-1-2s-.4-1.6-.4-2.5.1-1.7.4-2.1c.3-.5.6-.7 1-.8.4 0 1 .1 1.5.4.7.4 1.2.9 1.8 1.5.5.6.9 1.4 1.2 2.2s.5 1.6.5 2.5-.2 1.5-.5 1.9-.7.7-1.2.7-1.1-.1-1.8-.5zm-4.1-2.5v-11.1l2 1.2v7c-.1 0 0 2.4 0 2.4v1.6l-1.9-1.1zm3.8.4c.3.2.6.3.9.2.3 0 .5-.2.6-.4.2-.2.2-.6.2-1.1s0-.9-.2-1.3l-.6-1.1c-.3-.3-.6-.6-.9-.8s-.6-.3-.9-.3-.5.2-.6.4c-.2.2-.2.6-.2 1.1s0 .9.2 1.3l.6 1.1c.3.3.6.6.9.8zm7.2 3.5v-2.9c-.1 0 4.2-2.8 4.2-2.8l2.3 1.3-3.9 2.6-1.2.8-1.5.9zm-1.9 1.4v-10.5l2.1 1.2V147l-2.1-1.2zm6.2 3.6L363 143l1.4-.9 4.3 8.8-2.5-1.4zm6.4 3.8c-.8-.5-1.5-1-2.1-1.8-.6-.7-1.1-1.5-1.4-2.3s-.5-1.6-.5-2.4.2-1.4.5-1.9c.3-.4.8-.7 1.3-.7.6 0 1.2.2 1.9.6s1.3.9 1.8 1.6c.6.6 1 1.4 1.3 2.2s.5 1.6.5 2.5v.3.3l-5.7-3.3v-1.4l4.6 2.7h-.8c0-.5 0-.9-.2-1.3-.1-.4-.4-.8-.6-1.1-.3-.3-.6-.6-.9-.8a1.9 1.9 0 0 0-.9-.3c-.3 0-.5.1-.6.4-.1.2-.2.6-.2 1v.4c0 .4 0 .9.2 1.3s.4.8.7 1.2c.3.3.7.6 1.1.9.4.2.7.3 1 .4.3 0 .5 0 .8-.1l1.1 2c-.3.2-.7.3-1.2.3s-1-.3-1.7-.6zm5.5 6.1c-.4-.2-.7-.5-1.1-.8s-.6-.7-.9-1l.7-1.2c.2.2.3.5.5.7s.4.4.6.5c.3.2.5.2.7.2s.3-.2.5-.5l.4-.8.2-.2 2.5-5.5 1.9 1.1-3.2 6.7c-.2.5-.5.9-.8 1.1s-.6.3-1 .2c-.3 0-.7-.2-1.2-.4zm1.2-2.1l-3.1-10.2 2.1 1.2 2.4 8.1-1.4.8z"/></g></g></svg>