<?xml version="1.0" encoding="UTF-8"?>
<svg xmlns="http://www.w3.org/2000/svg" xmlns:xlink="http://www.w3.org/1999/xlink" version="1.1" viewBox="0 0 659 774">
  <defs>
    <style>
      .cls-1 {
        fill: url(#linear-gradient-8);
      }

      .cls-2 {
        fill: url(#linear-gradient-7);
      }

      .cls-3 {
        fill: url(#linear-gradient-5);
      }

      .cls-4 {
        fill: url(#linear-gradient-6);
      }

      .cls-5 {
        fill: url(#linear-gradient-9);
      }

      .cls-6 {
        fill: url(#linear-gradient-4);
      }

      .cls-7 {
        fill: url(#linear-gradient-3);
      }

      .cls-8 {
        fill: url(#linear-gradient-2);
      }

      .cls-9 {
        fill: url(#linear-gradient);
      }

      .cls-10 {
        isolation: isolate;
      }

      .cls-11 {
        fill: #fff;
      }

      .cls-12 {
        fill: url(#linear-gradient-10);
      }

      .cls-13 {
        fill: url(#linear-gradient-11);
      }

      .cls-14 {
        fill: url(#linear-gradient-12);
      }

      .cls-15 {
        mix-blend-mode: screen;
      }
    </style>
    <linearGradient id="linear-gradient" x1="197.2" y1="731.1" x2="231.2" y2="919.1" gradientTransform="translate(-10.4 1343) rotate(30) scale(1 -.9) skewX(-26.6)" gradientUnits="userSpaceOnUse">
      <stop offset="0" stop-color="#13b3d3"/>
      <stop offset="1" stop-color="#13edb1"/>
    </linearGradient>
    <linearGradient id="linear-gradient-2" x1="-157.4" y1="247.8" x2="127.6" y2="721.7" gradientTransform="translate(769 711) rotate(-30) scale(1 -.9) skewX(-26.6)" gradientUnits="userSpaceOnUse">
      <stop offset="0" stop-color="#13b3d3"/>
      <stop offset="1" stop-color="#000"/>
    </linearGradient>
    <linearGradient id="linear-gradient-3" x1="-167.1" y1="343.6" x2="53.3" y2="710.3" gradientTransform="translate(841.6 710) rotate(-30) scale(1 -.9) skewX(-26.6)" gradientUnits="userSpaceOnUse">
      <stop offset="0" stop-color="#13eeb0"/>
      <stop offset="1" stop-color="#13b3d3"/>
    </linearGradient>
    <linearGradient id="linear-gradient-4" x1="514.9" y1="332.3" x2="439.4" y2="612.2" gradientTransform="translate(0 776) scale(1 -1)" gradientUnits="userSpaceOnUse">
      <stop offset="0" stop-color="#13eeb0" stop-opacity=".3"/>
      <stop offset=".5" stop-color="#13b3d3" stop-opacity=".3"/>
      <stop offset=".8" stop-color="#13b3d3" stop-opacity="0"/>
    </linearGradient>
    <linearGradient id="linear-gradient-5" x1="218.9" y1="543.3" x2="209.4" y2="686.5" gradientTransform="translate(311.6 1347) rotate(-30) scale(1 -.9) skewX(26.6)" gradientUnits="userSpaceOnUse">
      <stop offset="0" stop-color="#13b3d3"/>
      <stop offset="1" stop-color="#12ebb2"/>
    </linearGradient>
    <linearGradient id="linear-gradient-6" x1="-64.9" y1="519.8" x2="-177" y2="591.1" gradientTransform="translate(944.5 296.5) rotate(-26) scale(1 -.8) skewX(-31.6)" gradientUnits="userSpaceOnUse">
      <stop offset="0" stop-color="#13efaf"/>
      <stop offset="1" stop-color="#0eb3df"/>
    </linearGradient>
    <linearGradient id="linear-gradient-7" x1="201.9" y1="859.5" x2="41.5" y2="692.5" gradientTransform="translate(135.6 961.5) rotate(26) scale(1 -.9) skewX(-23.7)" gradientUnits="userSpaceOnUse">
      <stop offset="0" stop-color="#13efaf"/>
      <stop offset="1" stop-color="#0eb3df"/>
    </linearGradient>
    <linearGradient id="linear-gradient-8" x1="161.7" y1="658.5" x2="81.7" y2="538.5" gradientTransform="translate(317.5 891) rotate(-26) scale(1 -.9) skewX(23.7)" gradientUnits="userSpaceOnUse">
      <stop offset="0" stop-color="#13efaf"/>
      <stop offset="1" stop-color="#0eb3df"/>
    </linearGradient>
    <linearGradient id="linear-gradient-9" x1="-177.2" y1="661.6" x2="-177.2" y2="584.1" gradientTransform="translate(781.3 238.2) rotate(-27.1) scale(1 -.8) skewX(-30.3)" gradientUnits="userSpaceOnUse">
      <stop offset="0" stop-color="#13efaf"/>
      <stop offset="1" stop-color="#0eb3df"/>
    </linearGradient>
    <linearGradient id="linear-gradient-10" x1="93.1" y1="865.8" x2="29.3" y2="801.8" gradientTransform="translate(-20 894.1) rotate(27.1) scale(1 -.9) skewX(-24.5)" gradientUnits="userSpaceOnUse">
      <stop offset="0" stop-color="#13efaf"/>
      <stop offset="1" stop-color="#0eb3df"/>
    </linearGradient>
    <linearGradient id="linear-gradient-11" x1="77.3" y1="670.9" x2="45" y2="624.3" gradientTransform="translate(49 763.8) rotate(-27.1) scale(1 -.9) skewX(24.5)" gradientUnits="userSpaceOnUse">
      <stop offset="0" stop-color="#13efaf"/>
      <stop offset="1" stop-color="#0eb3df"/>
    </linearGradient>
    <linearGradient id="linear-gradient-12" x1="186.6" y1="209.9" x2="176.3" y2="671.4" gradientTransform="translate(0 776) scale(1 -1)" gradientUnits="userSpaceOnUse">
      <stop offset="0" stop-color="#13eeb0" stop-opacity=".3"/>
      <stop offset=".5" stop-color="#13b3d3" stop-opacity=".3"/>
      <stop offset=".8" stop-color="#13b3d3" stop-opacity="0"/>
    </linearGradient>
  </defs>
  <!-- Generator: Adobe Illustrator 28.7.1, SVG Export Plug-In . SVG Version: 1.2.0 Build 142)  -->
  <g class="cls-10">
    <g id="Layer_1">
      <polygon class="cls-11" points="252 680 315 716.4 315 733.4 252 697 252 680"/>
      <polygon class="cls-11" points="252 654 315 690.4 315 707.4 252 671 252 654"/>
      <polygon class="cls-11" points="24 555 87 591.4 87 608.4 24 572 24 555"/>
      <polygon class="cls-9" points="14 476 336.2 662 336.2 774 14 588 14 476"/>
      <polygon class="cls-11" points="24 525.8 87 562.2 87 579.2 24 542.9 24 525.8"/>
      <polygon class="cls-8" points="14 476 336.2 290 658.6 476.2 336.4 662.2 14 476"/>
      <g class="cls-15">
        <polygon class="cls-7" points="86.6 475 336 331 585.4 475 336 619 86.6 475"/>
      </g>
      <g class="cls-15">
        <path class="cls-6" d="M336,303l321.5-170-72.1,343.1-249.4,144v-317.1Z"/>
      </g>
      <polygon class="cls-3" points="336 662 658.2 476 658.2 588 336 774 336 662"/>
      <polygon class="cls-4" points="154 105.8 336 17 519.1 106.3 337.1 195.1 154 105.8"/>
      <polygon class="cls-2" points="154 105.8 336 194.5 336 372 154 283.3 154 105.8"/>
      <polygon class="cls-1" points="336 194.7 518 106 518 283.5 336 372.2 336 194.7"/>
      <path class="cls-11" d="M356.7,296.7l4.5-69.9,12-5.9,23.5,36.1-6.4,3.1,29.4-62.3,11.9-5.9-4.3,69.8-13.6,6.7,2.9-46.6,2.5-1.2-23.5,49.6-6.5,3.2-18.9-28.6,3-1.5-3,46.6-13.6,6.7ZM442.3,254.4l4.5-69.9,30.7-15.2c7.9-3.9,13.7-5.2,17.4-3.8,3.8,1.3,5.5,4.7,5.2,10.2s-1.2,7.3-3,10.8c-1.8,3.5-4.1,6.6-7,9.5-2.9,2.9-6.2,5.2-9.8,7l2-4.9c3.9-2,7.4-2.9,10.3-3,3-.1,5.2.8,6.7,2.8,1.6,1.9,2.2,4.9,1.9,9-.4,6-2.8,11.7-7.3,17.2-4.5,5.4-10.8,10.2-19.1,14.3l-32.4,16.1ZM457.6,235.1l16.9-8.4c3.8-1.9,6.6-3.9,8.6-6.2,2.1-2.4,3.2-5.1,3.4-8s-.7-4.6-2.5-5c-1.8-.5-4.6.2-8.4,2l-18,8.9.8-11.8,15.5-7.7c3.5-1.7,6.3-3.7,8.2-6,2-2.3,3.1-4.9,3.3-7.7s-.7-4.3-2.5-4.7c-1.8-.5-4.4.2-7.9,1.9l-14.4,7.1-2.9,45.5Z"/>
      <path class="cls-11" d="M234.7,272.4v-64l6.1,10.5-18.2-10.5v-13l26.2,15.1v70l-14-8.1Z"/>
      <polygon class="cls-5" points="0 35.3 69 0 138 35.3 69 70.6 0 35.3"/>
      <polygon class="cls-12" points="0 35.3 69 70.6 69 141.1 0 105.9 0 35.3"/>
      <polygon class="cls-13" points="69 70.7 138 35.4 138 105.9 69 141.2 69 70.7"/>
      <g class="cls-15">
        <path class="cls-14" d="M21,178.5l315.4,71.5v369.5l-249.4-144L21,178.5Z"/>
      </g>
      <polygon class="cls-11" points="585 536.4 648 500 648 517 585 553.4 585 536.4"/>
      <polygon class="cls-11" points="585 536.4 648 500 648 517 585 553.4 585 536.4"/>
      <polygon class="cls-11" points="585 563.4 648 527 648 544 585 580.4 585 563.4"/>
      <polygon class="cls-11" points="585 590.4 648 554 648 571 585 607.4 585 590.4"/>
    </g>
  </g>
</svg>