<?xml version="1.0" encoding="UTF-8"?>
<svg id="Layer_1" xmlns="http://www.w3.org/2000/svg" xmlns:xlink="http://www.w3.org/1999/xlink" version="1.1" viewBox="0 0 502.6 637.3">
  <!-- Generator: Adobe Illustrator 29.4.0, SVG Export Plug-In . SVG Version: 2.1.0 Build 152)  -->
  <defs>
    <style>
      .st0 {
        fill-opacity: .4;
      }

      .st0, .st1 {
        fill: #13b3d3;
      }

      .st1 {
        fill-opacity: .3;
      }

      .st2 {
        fill: url(#linear-gradient1);
      }

      .st3 {
        fill: #13edb1;
        fill-opacity: .2;
      }

      .st4 {
        fill: url(#linear-gradient);
      }

      .st5 {
        fill: url(#linear-gradient3);
        stroke: #fff;
        stroke-width: 5px;
      }

      .st6 {
        isolation: isolate;
      }

      .st7 {
        fill: #fff;
      }

      .st8 {
        mix-blend-mode: screen;
      }

      .st9 {
        fill: url(#linear-gradient2);
        fill-rule: evenodd;
      }
    </style>
    <linearGradient id="linear-gradient" x1="264.1" y1="223" x2="192.5" y2="-57" gradientTransform="translate(0 274)" gradientUnits="userSpaceOnUse">
      <stop offset="0" stop-color="#fff" stop-opacity=".3"/>
      <stop offset=".5" stop-color="#13b3d3" stop-opacity=".3"/>
      <stop offset=".8" stop-color="#13b3d3" stop-opacity="0"/>
    </linearGradient>
    <linearGradient id="linear-gradient1" x1="-404.5" y1="-622.9" x2="-211.8" y2="105.3" gradientTransform="translate(296.3 738.9) rotate(30) scale(1 .9) skewX(-26.6)" gradientUnits="userSpaceOnUse">
      <stop offset="0" stop-color="#13e7b4"/>
      <stop offset="1" stop-color="#12b9cf"/>
    </linearGradient>
    <linearGradient id="linear-gradient2" x1="269.8" y1="120.8" x2="228.4" y2="222.5" gradientTransform="translate(0 274)" gradientUnits="userSpaceOnUse">
      <stop offset="0" stop-color="#13b3d3"/>
      <stop offset="1" stop-color="#13d9bc"/>
    </linearGradient>
    <linearGradient id="linear-gradient3" x1="396.8" y1="-135.2" x2="141.3" y2="99.6" gradientTransform="translate(0 274)" gradientUnits="userSpaceOnUse">
      <stop offset="0" stop-color="#13b7d0"/>
      <stop offset="1" stop-color="#12d9bc"/>
    </linearGradient>
  </defs>
  <g class="st6">
    <g id="Layer_11" data-name="Layer_1">
      <g id="Group_156">
        <g id="Rectangle_78" class="st8">
          <path class="st4" d="M12,213.4l365,22.5-97.9,259-44.8,32.5-53.1,11.3-57-6-33.9-35.8L12,213.4Z"/>
        </g>
        <path id="Ellipse_83" class="st0" d="M425.5,392.4c96.4,55.6,96.4,145.9,0,201.5s-252.6,55.6-349,0-96.4-145.9,0-201.5c96.4-55.6,252.6-55.6,349,0h0Z"/>
        <path id="Ellipse_84" class="st2" d="M426.5,353.4c96.4,55.6,96.4,145.9,0,201.5s-252.6,55.6-349,0-96.4-145.9,0-201.5c96.4-55.6,252.6-55.6,349,0h0Z"/>
        <path id="Ellipse_85" class="st7" d="M372.7,384c67.1,38.8,67.1,101.6,0,140.4-67.1,38.8-176,38.8-243.1,0s-67.1-101.6,0-140.4c67.1-38.8,176-38.8,243.1,0h0Z"/>
        <path id="Union" class="st9" d="M299.8,410.3c-5.7-3.3-15-3.3-20.8,0l-30.4,17.6-34.5-20.2c-5.2-3.1-13.8-3.1-19.1,0l-11,6.3c-5.3,3-5.4,7.9-.1,11l34.7,20.3-30.9,17.8c-5.7,3.3-5.7,8.7,0,12l11.3,6.5c5.7,3.3,15,3.3,20.8,0l30.7-17.7,33.6,19.7c5.2,3.1,13.8,3.1,19.1,0l11-6.3c5.3-3,5.4-7.9.1-11l-33.8-19.8,30.6-17.7c5.7-3.3,5.7-8.7,0-12l-11.3-6.5h0Z"/>
        <g id="Group_151" class="st8">
          <path id="Polygon_7" class="st1" d="M306.9,4.8c1.5-3.1,6.4-.3,7.9,4.6l125.7,396c1.3,4.1-.8,6.6-4,4.8l-251.3-145.1c-3.1-1.8-5.2-6.8-4-9.3L306.9,4.8Z"/>
        </g>
        <g id="Group_149">
          <path id="Polygon_7_x5F_2" class="st5" d="M250.8,19.2l125.7,396c.6,2-.4,3.3-2,2.4l-251.3-145.1c-1.6-.9-2.6-3.4-2-4.7L246.8,16.9c.8-1.5,3.2-.1,4,2.3Z"/>
          <path id="Rectangle_320" class="st7" d="M245,144.7l7.6,4.4c2.9,1.7,5.2,5.7,5.2,9v96.4c0,3.3-2.3,4.7-5.2,3l-7.6-4.4c-2.9-1.7-5.2-5.7-5.2-9v-96.4c0-3.3,2.3-4.7,5.2-3h0Z"/>
          <path id="Ellipse_91" class="st7" d="M248.4,264.8c5.2,3,9.4,11.4,9.4,18.8s-4.2,11-9.4,8-9.4-11.4-9.4-18.8,4.2-11,9.4-8Z"/>
        </g>
        <g id="Group_150" class="st8">
          <path id="Polygon_7_x5F_3" class="st3" d="M189.9,40.8c1.5-3.1,6.4-.3,7.9,4.6l125.7,396c1.3,4-.8,6.6-4,4.8l-251.4-145.2c-3.1-1.8-5.2-6.8-4-9.3L189.9,40.8Z"/>
        </g>
      </g>
    </g>
  </g>
</svg>