<svg xmlns="http://www.w3.org/2000/svg" viewBox="0 0 502.6 637.3" xmlns:v="https://vecta.io/nano"><style>.A{isolation:isolate}.B{mix-blend-mode:screen}</style><defs><linearGradient id="A" x1="264.1" y1="497" x2="192.5" y2="217" href="#E"><stop offset="0" stop-color="#fff" stop-opacity=".3"/><stop offset=".5" stop-color="#13b3d3" stop-opacity=".3"/><stop offset=".8" stop-color="#13b3d3" stop-opacity="0"/></linearGradient><linearGradient id="B" x1="-404.5" y1="-622.9" x2="-211.8" y2="105.3" gradientTransform="translate(296.3 738.9) rotate(30) scale(1 .9) skewX(-26.6)" href="#E"><stop offset="0" stop-color="#13e7b4"/><stop offset="1" stop-color="#12b9cf"/></linearGradient><linearGradient id="C" x1="269.8" y1="394.8" x2="228.4" y2="496.5" href="#E"><stop offset="0" stop-color="#13b3d3"/><stop offset="1" stop-color="#13d9bc"/></linearGradient><linearGradient id="D" x1="396.8" y1="138.8" x2="141.3" y2="373.6" href="#E"><stop offset="0" stop-color="#13b7d0"/><stop offset="1" stop-color="#12d9bc"/></linearGradient><linearGradient id="E" gradientUnits="userSpaceOnUse"/></defs><g class="A"><path class="B" d="M12,213.4l365,22.5-97.9,259-44.8,32.5-53.1,11.3-57-6-33.9-35.8L12,213.4Z" fill="url(#A)"/><path d="M425.5 392.4c96.4 55.6 96.4 145.9 0 201.5s-252.6 55.6-349 0-96.4-145.9 0-201.5 252.6-55.6 349 0h0z" fill-opacity=".4" fill="#13b3d3"/><path d="M426.5 353.4c96.4 55.6 96.4 145.9 0 201.5s-252.6 55.6-349 0-96.4-145.9 0-201.5 252.6-55.6 349 0h0z" fill="url(#B)"/><path d="M372.7 384c67.1 38.8 67.1 101.6 0 140.4s-176 38.8-243.1 0-67.1-101.6 0-140.4 176-38.8 243.1 0h0z" fill="#fff"/><path d="M299.8,410.3c-5.7-3.3-15-3.3-20.8,0l-30.4,17.6-34.5-20.2c-5.2-3.1-13.8-3.1-19.1,0l-11,6.3c-5.3,3-5.4,7.9-.1,11l34.7,20.3-30.9,17.8c-5.7,3.3-5.7,8.7,0,12l11.3,6.5c5.7,3.3,15,3.3,20.8,0l30.7-17.7,33.6,19.7c5.2,3.1,13.8,3.1,19.1,0l11-6.3c5.3-3,5.4-7.9.1-11l-33.8-19.8,30.6-17.7c5.7-3.3,5.7-8.7,0-12l-11.3-6.5h0Z" fill="url(#C)" fill-rule="evenodd"/><path class="B" d="M306.9 4.8c1.5-3.1 6.4-.3 7.9 4.6l125.7 396c1.3 4.1-.8 6.6-4 4.8L185.2 265.1c-3.1-1.8-5.2-6.8-4-9.3l125.7-251z" fill="#13b3d3" fill-opacity=".3"/><path d="M250.8 19.2l125.7 396c.6 2-.4 3.3-2 2.4L123.2 272.5c-1.6-.9-2.6-3.4-2-4.7L246.8 16.9c.8-1.5 3.2-.1 4 2.3z" fill="url(#D)" stroke="#fff" stroke-width="5"/><path d="M245 144.7l7.6 4.4c2.9 1.7 5.2 5.7 5.2 9v96.4c0 3.3-2.3 4.7-5.2 3l-7.6-4.4c-2.9-1.7-5.2-5.7-5.2-9v-96.4c0-3.3 2.3-4.7 5.2-3h0zm3.4 120.1c5.2 3 9.4 11.4 9.4 18.8s-4.2 11-9.4 8-9.4-11.4-9.4-18.8 4.2-11 9.4-8z" fill="#fff"/><path class="B" d="M189.9 40.8c1.5-3.1 6.4-.3 7.9 4.6l125.7 396c1.3 4-.8 6.6-4 4.8L68.1 301c-3.1-1.8-5.2-6.8-4-9.3L189.9 40.8z" fill="#13edb1" fill-opacity=".2"/></g></svg>