<svg width="841" height="599" viewBox="0 0 841 599" fill="none" xmlns="http://www.w3.org/2000/svg">
<rect width="456.83" height="441.17" rx="50" transform="matrix(0.866025 0.5 -0.866025 0.5 395.062 149.5)" fill="#13B3D3"/>
<rect width="456.83" height="441.17" rx="50" transform="matrix(0.866025 0.5 -0.866025 0.5 402.062 110.5)" fill="url(#paint0_linear_149_6)"/>
<rect y="5" width="446.83" height="431.17" rx="45" transform="matrix(0.866025 0.5 -0.866025 0.5 406.393 113)" stroke="white" stroke-opacity="0.47" stroke-width="10"/>
<g style="mix-blend-mode:screen">
<rect width="357.707" height="324.293" rx="50" transform="matrix(0.866025 0.5 -0.866025 0.5 387.844 153.5)" fill="#8DFFF8"/>
</g>
<rect width="354.509" height="175" rx="33" transform="matrix(0.866025 0.5 -0.866025 0.5 398.555 28.5)" fill="url(#paint1_linear_149_6)"/>
<rect width="354.509" height="175" rx="33" transform="matrix(0.866025 0.5 -0.866025 0.5 398.555 14.5)" fill="url(#paint2_linear_149_6)"/>
<rect width="211.662" height="52.7971" rx="26.3986" transform="matrix(0.866025 0.5 -0.866025 0.5 477.031 86.0732)" fill="url(#paint3_linear_149_6)"/>
<rect width="211.662" height="52.7971" rx="26.3986" transform="matrix(0.866025 0.5 -0.866025 0.5 421.727 120.5)" fill="url(#paint4_linear_149_6)"/>
<g style="mix-blend-mode:screen">
<path fill-rule="evenodd" clip-rule="evenodd" d="M385.207 93.324C402.77 103.464 429.119 104.692 444.059 96.0662C458.999 87.4407 456.872 72.2282 439.309 62.0882C421.746 51.9482 395.397 50.7205 380.458 59.346C365.518 67.9715 367.644 83.184 385.207 93.324ZM340.842 85.3631C325.775 85.2824 311.445 88.6636 301.004 94.7631L341.975 118.192L382.946 141.621C393.387 135.522 399.084 127.204 398.784 118.497C398.483 109.79 392.21 101.408 381.344 95.1939C370.478 88.9802 355.909 85.4439 340.842 85.3631Z" fill="white"/>
</g>
<g filter="url(#filter0_d_149_6)">
<path d="M489.99 112.095L477.502 109.995L479.078 109.085L482.776 116.26L474.834 117.415L471.803 110.485L473.198 110.66L464.892 115.595L459.194 112.305L467.681 107.475L467.984 108.28L455.981 106.53L458.042 101.98L470.47 104.115L468.893 105.025L465.256 97.815L473.137 96.625L476.107 103.59L474.774 103.38L483.14 98.48L488.838 101.77L480.29 106.565L479.927 105.795L491.99 107.51L489.99 112.095ZM517.459 127.954L504.971 125.854L506.547 124.944L510.245 132.119L502.304 133.274L499.272 126.344L500.667 126.519L492.362 131.454L486.663 128.164L495.15 123.334L495.453 124.139L483.45 122.389L485.511 117.839L497.939 119.974L496.363 120.884L492.725 113.674L500.606 112.484L503.577 119.449L502.243 119.239L510.609 114.339L516.307 117.629L507.76 122.424L507.396 121.654L519.46 123.369L517.459 127.954ZM544.928 143.814L532.44 141.714L534.016 140.804L537.714 147.979L529.773 149.134L526.742 142.204L528.136 142.379L519.831 147.314L514.132 144.024L522.619 139.194L522.923 139.999L510.919 138.249L512.981 133.699L525.408 135.834L523.832 136.744L520.195 129.534L528.075 128.344L531.046 135.309L529.712 135.099L538.078 130.199L543.776 133.489L535.229 138.284L534.865 137.514L546.929 139.229L544.928 143.814ZM572.398 159.673L559.909 157.573L561.486 156.663L565.184 163.838L557.242 164.993L554.211 158.063L555.605 158.238L547.3 163.173L541.602 159.883L550.089 155.053L550.392 155.858L538.389 154.108L540.45 149.558L552.877 151.693L551.301 152.603L547.664 145.393L555.545 144.203L558.515 151.168L557.181 150.958L565.547 146.058L571.246 149.348L562.698 154.143L562.334 153.373L574.398 155.088L572.398 159.673ZM599.867 175.533L587.379 173.432L588.955 172.522L592.653 179.698L584.711 180.852L581.68 173.922L583.075 174.097L574.769 179.032L569.071 175.742L577.558 170.912L577.861 171.717L565.858 169.967L567.919 165.417L580.347 167.552L578.77 168.462L575.133 161.252L583.014 160.062L585.984 167.028L584.651 166.817L593.016 161.917L598.715 165.207L590.167 170.002L589.804 169.233L601.867 170.947L599.867 175.533ZM627.336 191.392L614.848 189.292L616.424 188.382L620.122 195.557L612.181 196.712L609.149 189.782L610.544 189.957L602.239 194.892L596.54 191.602L605.027 186.772L605.33 187.577L593.327 185.827L595.388 181.277L607.816 183.412L606.24 184.322L602.602 177.112L610.483 175.922L613.454 182.887L612.12 182.677L620.486 177.777L626.184 181.067L617.637 185.862L617.273 185.092L629.337 186.807L627.336 191.392Z" fill="#13EDB1"/>
</g>
<g filter="url(#filter1_d_149_6)">
<path d="M433.99 148.095L421.502 145.995L423.078 145.085L426.776 152.26L418.834 153.415L415.803 146.485L417.198 146.66L408.892 151.595L403.194 148.305L411.681 143.475L411.984 144.28L399.981 142.53L402.042 137.98L414.47 140.115L412.893 141.025L409.256 133.815L417.137 132.625L420.107 139.59L418.774 139.38L427.14 134.48L432.838 137.77L424.29 142.565L423.927 141.795L435.99 143.51L433.99 148.095ZM461.459 163.954L448.971 161.854L450.547 160.944L454.245 168.119L446.304 169.274L443.272 162.344L444.667 162.519L436.362 167.454L430.663 164.164L439.15 159.334L439.453 160.139L427.45 158.389L429.511 153.839L441.939 155.974L440.363 156.884L436.725 149.674L444.606 148.484L447.577 155.449L446.243 155.239L454.609 150.339L460.307 153.629L451.76 158.424L451.396 157.654L463.46 159.369L461.459 163.954ZM488.928 179.814L476.44 177.714L478.016 176.804L481.714 183.979L473.773 185.134L470.742 178.204L472.136 178.379L463.831 183.314L458.132 180.024L466.619 175.194L466.923 175.999L454.919 174.249L456.981 169.699L469.408 171.834L467.832 172.744L464.195 165.534L472.075 164.344L475.046 171.309L473.712 171.099L482.078 166.199L487.776 169.489L479.229 174.284L478.865 173.514L490.929 175.229L488.928 179.814ZM516.398 195.673L503.909 193.573L505.486 192.663L509.184 199.838L501.242 200.993L498.211 194.063L499.605 194.238L491.3 199.173L485.602 195.883L494.089 191.053L494.392 191.858L482.389 190.108L484.45 185.558L496.877 187.693L495.301 188.603L491.664 181.393L499.545 180.203L502.515 187.168L501.181 186.958L509.547 182.058L515.246 185.348L506.698 190.143L506.334 189.373L518.398 191.088L516.398 195.673ZM543.867 211.533L531.379 209.432L532.955 208.522L536.653 215.698L528.711 216.852L525.68 209.922L527.075 210.097L518.769 215.032L513.071 211.742L521.558 206.912L521.861 207.717L509.858 205.967L511.919 201.417L524.347 203.552L522.77 204.462L519.133 197.252L527.014 196.062L529.984 203.028L528.651 202.817L537.016 197.917L542.715 201.207L534.167 206.002L533.804 205.233L545.867 206.947L543.867 211.533ZM571.336 227.392L558.848 225.292L560.424 224.382L564.122 231.557L556.181 232.712L553.149 225.782L554.544 225.957L546.239 230.892L540.54 227.602L549.027 222.772L549.33 223.577L537.327 221.827L539.388 217.277L551.816 219.412L550.24 220.322L546.602 213.112L554.483 211.922L557.454 218.887L556.12 218.677L564.486 213.777L570.184 217.067L561.637 221.862L561.273 221.092L573.337 222.807L571.336 227.392Z" fill="#13EDB1"/>
</g>
<rect width="354.509" height="175" rx="33" transform="matrix(0.866025 0.5 -0.866025 0.5 233.555 144.5)" fill="url(#paint5_linear_149_6)"/>
<rect width="354.509" height="175" rx="33" transform="matrix(0.866025 0.5 -0.866025 0.5 233.555 130.5)" fill="url(#paint6_linear_149_6)"/>
<rect width="211.662" height="52.7971" rx="26.3986" transform="matrix(0.866025 0.5 -0.866025 0.5 312.031 202.073)" fill="url(#paint7_linear_149_6)"/>
<rect width="211.662" height="52.7971" rx="26.3986" transform="matrix(0.866025 0.5 -0.866025 0.5 256.727 236.5)" fill="url(#paint8_linear_149_6)"/>
<g style="mix-blend-mode:screen">
<path fill-rule="evenodd" clip-rule="evenodd" d="M220.207 209.324C237.77 219.464 264.119 220.692 279.059 212.066C293.999 203.441 291.872 188.228 274.309 178.088C256.746 167.948 230.397 166.721 215.458 175.346C200.518 183.972 202.644 199.184 220.207 209.324ZM175.842 201.363C160.775 201.282 146.445 204.664 136.004 210.763L176.975 234.192L217.946 257.621C228.387 251.522 234.084 243.204 233.784 234.497C233.483 225.79 227.21 217.408 216.344 211.194C205.478 204.98 190.909 201.444 175.842 201.363Z" fill="white"/>
</g>
<g filter="url(#filter2_d_149_6)">
<path d="M324.99 228.095L312.502 225.995L314.078 225.085L317.776 232.26L309.834 233.415L306.803 226.485L308.198 226.66L299.892 231.595L294.194 228.305L302.681 223.475L302.984 224.28L290.981 222.53L293.042 217.98L305.47 220.115L303.893 221.025L300.256 213.815L308.137 212.625L311.107 219.59L309.774 219.38L318.14 214.48L323.838 217.77L315.29 222.565L314.927 221.795L326.99 223.51L324.99 228.095ZM352.459 243.954L339.971 241.854L341.547 240.944L345.245 248.119L337.304 249.274L334.272 242.344L335.667 242.519L327.362 247.454L321.663 244.164L330.15 239.334L330.453 240.139L318.45 238.389L320.511 233.839L332.939 235.974L331.363 236.884L327.725 229.674L335.606 228.484L338.577 235.449L337.243 235.239L345.609 230.339L351.307 233.629L342.76 238.424L342.396 237.654L354.46 239.369L352.459 243.954ZM379.928 259.814L367.44 257.714L369.016 256.804L372.714 263.979L364.773 265.134L361.742 258.204L363.136 258.379L354.831 263.314L349.132 260.024L357.619 255.194L357.923 255.999L345.919 254.249L347.981 249.699L360.408 251.834L358.832 252.744L355.195 245.534L363.075 244.344L366.046 251.309L364.712 251.099L373.078 246.199L378.776 249.489L370.229 254.284L369.865 253.514L381.929 255.229L379.928 259.814ZM407.398 275.673L394.909 273.573L396.486 272.663L400.184 279.838L392.242 280.993L389.211 274.063L390.605 274.238L382.3 279.173L376.602 275.883L385.089 271.053L385.392 271.858L373.389 270.108L375.45 265.558L387.877 267.693L386.301 268.603L382.664 261.393L390.545 260.203L393.515 267.168L392.181 266.958L400.547 262.058L406.246 265.348L397.698 270.143L397.334 269.373L409.398 271.088L407.398 275.673ZM434.867 291.533L422.379 289.432L423.955 288.522L427.653 295.698L419.711 296.852L416.68 289.922L418.075 290.097L409.769 295.032L404.071 291.742L412.558 286.912L412.861 287.717L400.858 285.967L402.919 281.417L415.347 283.552L413.77 284.462L410.133 277.252L418.014 276.062L420.984 283.028L419.651 282.817L428.016 277.917L433.715 281.207L425.167 286.002L424.804 285.233L436.867 286.947L434.867 291.533ZM462.336 307.392L449.848 305.292L451.424 304.382L455.122 311.557L447.181 312.712L444.149 305.782L445.544 305.957L437.239 310.892L431.54 307.602L440.027 302.772L440.33 303.577L428.327 301.827L430.388 297.277L442.816 299.412L441.24 300.322L437.602 293.112L445.483 291.922L448.454 298.887L447.12 298.677L455.486 293.777L461.184 297.067L452.637 301.862L452.273 301.092L464.337 302.807L462.336 307.392Z" fill="#13EDB1"/>
</g>
<g filter="url(#filter3_d_149_6)">
<path d="M268.99 264.095L256.502 261.995L258.078 261.085L261.776 268.26L253.834 269.415L250.803 262.485L252.198 262.66L243.892 267.595L238.194 264.305L246.681 259.475L246.984 260.28L234.981 258.53L237.042 253.98L249.47 256.115L247.893 257.025L244.256 249.815L252.137 248.625L255.107 255.59L253.774 255.38L262.14 250.48L267.838 253.77L259.29 258.565L258.927 257.795L270.99 259.51L268.99 264.095ZM296.459 279.954L283.971 277.854L285.547 276.944L289.245 284.119L281.304 285.274L278.272 278.344L279.667 278.519L271.362 283.454L265.663 280.164L274.15 275.334L274.453 276.139L262.45 274.389L264.511 269.839L276.939 271.974L275.363 272.884L271.725 265.674L279.606 264.484L282.577 271.449L281.243 271.239L289.609 266.339L295.307 269.629L286.76 274.424L286.396 273.654L298.46 275.369L296.459 279.954ZM323.928 295.814L311.44 293.714L313.016 292.804L316.714 299.979L308.773 301.134L305.742 294.204L307.136 294.379L298.831 299.314L293.132 296.024L301.619 291.194L301.923 291.999L289.919 290.249L291.981 285.699L304.408 287.834L302.832 288.744L299.195 281.534L307.075 280.344L310.046 287.309L308.712 287.099L317.078 282.199L322.776 285.489L314.229 290.284L313.865 289.514L325.929 291.229L323.928 295.814ZM351.398 311.673L338.909 309.573L340.486 308.663L344.184 315.838L336.242 316.993L333.211 310.063L334.605 310.238L326.3 315.173L320.602 311.883L329.089 307.053L329.392 307.858L317.389 306.108L319.45 301.558L331.877 303.693L330.301 304.603L326.664 297.393L334.545 296.203L337.515 303.168L336.181 302.958L344.547 298.058L350.246 301.348L341.698 306.143L341.334 305.373L353.398 307.088L351.398 311.673ZM378.867 327.533L366.379 325.432L367.955 324.522L371.653 331.698L363.711 332.852L360.68 325.922L362.075 326.097L353.769 331.032L348.071 327.742L356.558 322.912L356.861 323.717L344.858 321.967L346.919 317.417L359.347 319.552L357.77 320.462L354.133 313.252L362.014 312.062L364.984 319.028L363.651 318.817L372.016 313.917L377.715 317.207L369.167 322.002L368.804 321.233L380.867 322.947L378.867 327.533ZM406.336 343.392L393.848 341.292L395.424 340.382L399.122 347.557L391.181 348.712L388.149 341.782L389.544 341.957L381.239 346.892L375.54 343.602L384.027 338.772L384.33 339.577L372.327 337.827L374.388 333.277L386.816 335.412L385.24 336.322L381.602 329.112L389.483 327.922L392.454 334.887L391.12 334.677L399.486 329.777L405.184 333.067L396.637 337.862L396.273 337.092L408.337 338.807L406.336 343.392Z" fill="#13EDB1"/>
</g>
<g style="mix-blend-mode:screen">
<path d="M0 25.5L398 36V476.5L139 330L0 25.5Z" fill="url(#paint9_linear_149_6)" fill-opacity="0.44"/>
</g>
<g style="mix-blend-mode:screen">
<path d="M840.5 0L398 119.5V494.5L662.5 348L840.5 0Z" fill="url(#paint10_linear_149_6)" fill-opacity="0.44"/>
</g>
<defs>
<filter id="filter0_d_149_6" x="445.68" y="92.9849" width="194.023" height="115.402" filterUnits="userSpaceOnUse" color-interpolation-filters="sRGB">
<feFlood flood-opacity="0" result="BackgroundImageFix"/>
<feColorMatrix in="SourceAlpha" type="matrix" values="0 0 0 0 0 0 0 0 0 0 0 0 0 0 0 0 0 0 127 0" result="hardAlpha"/>
<feOffset dy="4"/>
<feGaussianBlur stdDeviation="2"/>
<feComposite in2="hardAlpha" operator="out"/>
<feColorMatrix type="matrix" values="0 0 0 0 0 0 0 0 0 0 0 0 0 0 0 0 0 0 0.25 0"/>
<feBlend mode="normal" in2="BackgroundImageFix" result="effect1_dropShadow_149_6"/>
<feBlend mode="normal" in="SourceGraphic" in2="effect1_dropShadow_149_6" result="shape"/>
</filter>
<filter id="filter1_d_149_6" x="389.68" y="128.985" width="194.023" height="115.402" filterUnits="userSpaceOnUse" color-interpolation-filters="sRGB">
<feFlood flood-opacity="0" result="BackgroundImageFix"/>
<feColorMatrix in="SourceAlpha" type="matrix" values="0 0 0 0 0 0 0 0 0 0 0 0 0 0 0 0 0 0 127 0" result="hardAlpha"/>
<feOffset dy="4"/>
<feGaussianBlur stdDeviation="2"/>
<feComposite in2="hardAlpha" operator="out"/>
<feColorMatrix type="matrix" values="0 0 0 0 0 0 0 0 0 0 0 0 0 0 0 0 0 0 0.25 0"/>
<feBlend mode="normal" in2="BackgroundImageFix" result="effect1_dropShadow_149_6"/>
<feBlend mode="normal" in="SourceGraphic" in2="effect1_dropShadow_149_6" result="shape"/>
</filter>
<filter id="filter2_d_149_6" x="280.68" y="208.985" width="194.023" height="115.402" filterUnits="userSpaceOnUse" color-interpolation-filters="sRGB">
<feFlood flood-opacity="0" result="BackgroundImageFix"/>
<feColorMatrix in="SourceAlpha" type="matrix" values="0 0 0 0 0 0 0 0 0 0 0 0 0 0 0 0 0 0 127 0" result="hardAlpha"/>
<feOffset dy="4"/>
<feGaussianBlur stdDeviation="2"/>
<feComposite in2="hardAlpha" operator="out"/>
<feColorMatrix type="matrix" values="0 0 0 0 0 0 0 0 0 0 0 0 0 0 0 0 0 0 0.25 0"/>
<feBlend mode="normal" in2="BackgroundImageFix" result="effect1_dropShadow_149_6"/>
<feBlend mode="normal" in="SourceGraphic" in2="effect1_dropShadow_149_6" result="shape"/>
</filter>
<filter id="filter3_d_149_6" x="224.68" y="244.985" width="194.023" height="115.402" filterUnits="userSpaceOnUse" color-interpolation-filters="sRGB">
<feFlood flood-opacity="0" result="BackgroundImageFix"/>
<feColorMatrix in="SourceAlpha" type="matrix" values="0 0 0 0 0 0 0 0 0 0 0 0 0 0 0 0 0 0 127 0" result="hardAlpha"/>
<feOffset dy="4"/>
<feGaussianBlur stdDeviation="2"/>
<feComposite in2="hardAlpha" operator="out"/>
<feColorMatrix type="matrix" values="0 0 0 0 0 0 0 0 0 0 0 0 0 0 0 0 0 0 0.25 0"/>
<feBlend mode="normal" in2="BackgroundImageFix" result="effect1_dropShadow_149_6"/>
<feBlend mode="normal" in="SourceGraphic" in2="effect1_dropShadow_149_6" result="shape"/>
</filter>
<linearGradient id="paint0_linear_149_6" x1="411.157" y1="441.17" x2="-36.4687" y2="111.549" gradientUnits="userSpaceOnUse">
<stop stop-color="#13EDB1"/>
<stop offset="1" stop-color="#13B3D3"/>
</linearGradient>
<linearGradient id="paint1_linear_149_6" x1="312.802" y1="-62" x2="34.5756" y2="125.403" gradientUnits="userSpaceOnUse">
<stop offset="1" stop-color="#13B3D3"/>
</linearGradient>
<linearGradient id="paint2_linear_149_6" x1="-22.3915" y1="-147.74" x2="142.769" y2="347.572" gradientUnits="userSpaceOnUse">
<stop stop-color="#13EDB1"/>
<stop offset="1" stop-color="#13B3D3"/>
</linearGradient>
<linearGradient id="paint3_linear_149_6" x1="-13.369" y1="-44.5729" x2="13.8371" y2="116.893" gradientUnits="userSpaceOnUse">
<stop offset="1" stop-color="#13B3D3"/>
</linearGradient>
<linearGradient id="paint4_linear_149_6" x1="-13.369" y1="-44.5729" x2="13.8371" y2="116.893" gradientUnits="userSpaceOnUse">
<stop offset="1" stop-color="#13B3D3"/>
</linearGradient>
<linearGradient id="paint5_linear_149_6" x1="312.802" y1="-62" x2="34.5756" y2="125.403" gradientUnits="userSpaceOnUse">
<stop offset="1" stop-color="#13B3D3"/>
</linearGradient>
<linearGradient id="paint6_linear_149_6" x1="-22.3915" y1="-147.74" x2="142.769" y2="347.572" gradientUnits="userSpaceOnUse">
<stop stop-color="#13EDB1"/>
<stop offset="1" stop-color="#13B3D3"/>
</linearGradient>
<linearGradient id="paint7_linear_149_6" x1="-13.369" y1="-44.5729" x2="13.8371" y2="116.893" gradientUnits="userSpaceOnUse">
<stop offset="1" stop-color="#13B3D3"/>
</linearGradient>
<linearGradient id="paint8_linear_149_6" x1="-13.369" y1="-44.5729" x2="13.8371" y2="116.893" gradientUnits="userSpaceOnUse">
<stop offset="1" stop-color="#13B3D3"/>
</linearGradient>
<linearGradient id="paint9_linear_149_6" x1="229.679" y1="398.81" x2="406.581" y2="4.34347" gradientUnits="userSpaceOnUse">
<stop stop-color="#95FFFD"/>
<stop offset="0.505695" stop-color="#1B9577" stop-opacity="0.116568"/>
<stop offset="0.74535" stop-color="#0B8765" stop-opacity="0"/>
</linearGradient>
<linearGradient id="paint10_linear_149_6" x1="566.723" y1="418.551" x2="396.672" y2="29.7406" gradientUnits="userSpaceOnUse">
<stop stop-color="#95FFFD"/>
<stop offset="0.505695" stop-color="#1B9577" stop-opacity="0.116568"/>
<stop offset="0.74535" stop-color="#0B8765" stop-opacity="0"/>
</linearGradient>
</defs>
</svg>
