<?xml version="1.0" encoding="UTF-8"?>
<svg xmlns="http://www.w3.org/2000/svg" xmlns:xlink="http://www.w3.org/1999/xlink" version="1.1" viewBox="0 0 579 706">
  <defs>
    <style>
      .cls-1 {
        fill: url(#linear-gradient-2);
      }

      .cls-1, .cls-2, .cls-3, .cls-4, .cls-5, .cls-6, .cls-7, .cls-8, .cls-9, .cls-10 {
        fill-rule: evenodd;
      }

      .cls-2 {
        fill: url(#linear-gradient-9);
      }

      .cls-11 {
        fill: url(#linear-gradient-8);
      }

      .cls-12 {
        fill: url(#linear-gradient-7);
      }

      .cls-13 {
        fill: url(#linear-gradient-5);
      }

      .cls-14 {
        fill: url(#linear-gradient-6);
      }

      .cls-15 {
        fill: url(#linear-gradient-4);
      }

      .cls-16 {
        fill: url(#linear-gradient-3);
      }

      .cls-17 {
        isolation: isolate;
      }

      .cls-18 {
        fill: #fff;
      }

      .cls-19 {
        mix-blend-mode: screen;
      }

      .cls-3 {
        fill: url(#linear-gradient-14);
      }

      .cls-4 {
        fill: url(#linear-gradient-16);
      }

      .cls-5 {
        fill: url(#linear-gradient-15);
      }

      .cls-6 {
        fill: url(#linear-gradient-10);
      }

      .cls-7 {
        fill: url(#linear-gradient-11);
      }

      .cls-8 {
        fill: url(#linear-gradient-13);
      }

      .cls-9 {
        fill: url(#linear-gradient-12);
      }

      .cls-10 {
        fill: url(#linear-gradient);
      }

      .cls-20 {
        fill: none;
        stroke: #13b3d3;
        stroke-width: 15px;
      }
    </style>
    <linearGradient id="linear-gradient" x1="548.8" y1="569.1" x2="381.8" y2="305.9" gradientTransform="translate(0 694) scale(1 -1)" gradientUnits="userSpaceOnUse">
      <stop offset="0" stop-color="#6cffd7" stop-opacity="0"/>
      <stop offset="1" stop-color="#13b3d3" stop-opacity=".2"/>
    </linearGradient>
    <linearGradient id="linear-gradient-2" x1="548.8" y1="569.1" x2="381.8" y2="305.9" gradientTransform="translate(0 694) scale(1 -1)" gradientUnits="userSpaceOnUse">
      <stop offset="0" stop-color="#6cffd7" stop-opacity="0"/>
      <stop offset="1" stop-color="#13b3d3" stop-opacity=".2"/>
    </linearGradient>
    <linearGradient id="linear-gradient-3" x1="196.5" y1="225" x2="131.3" y2="84.2" gradientTransform="translate(0 694) scale(1 -1)" gradientUnits="userSpaceOnUse">
      <stop offset="0" stop-color="#13edb1" stop-opacity=".3"/>
      <stop offset="1" stop-color="#13b3d3" stop-opacity=".4"/>
    </linearGradient>
    <linearGradient id="linear-gradient-4" x1="240.5" y1="240" x2="175.3" y2="99.2" gradientTransform="translate(0 694) scale(1 -1)" gradientUnits="userSpaceOnUse">
      <stop offset="0" stop-color="#13edb1" stop-opacity="0"/>
      <stop offset="1" stop-color="#13b3d3" stop-opacity=".2"/>
    </linearGradient>
    <linearGradient id="linear-gradient-5" x1="240.5" y1="240" x2="175.3" y2="99.2" gradientTransform="translate(0 694) scale(1 -1)" gradientUnits="userSpaceOnUse">
      <stop offset="0" stop-color="#13edb1" stop-opacity="0"/>
      <stop offset="1" stop-color="#13b3d3" stop-opacity=".2"/>
    </linearGradient>
    <linearGradient id="linear-gradient-6" x1="165.5" y1="551" x2="100.3" y2="410.2" gradientTransform="translate(0 694) scale(1 -1)" gradientUnits="userSpaceOnUse">
      <stop offset="0" stop-color="#13edb1" stop-opacity="0"/>
      <stop offset="1" stop-color="#13b3d3" stop-opacity=".2"/>
    </linearGradient>
    <linearGradient id="linear-gradient-7" x1="165.5" y1="551" x2="100.3" y2="410.2" gradientTransform="translate(0 694) scale(1 -1)" gradientUnits="userSpaceOnUse">
      <stop offset="0" stop-color="#13edb1" stop-opacity="0"/>
      <stop offset="1" stop-color="#13b3d3" stop-opacity=".2"/>
    </linearGradient>
    <linearGradient id="linear-gradient-8" x1="134.3" y1="539.7" x2="63.7" y2="385.1" gradientTransform="translate(0 694) scale(1 -1)" gradientUnits="userSpaceOnUse">
      <stop offset="0" stop-color="#13edb1" stop-opacity=".3"/>
      <stop offset="1" stop-color="#13b3d3" stop-opacity=".4"/>
    </linearGradient>
    <linearGradient id="linear-gradient-9" x1="402.8" y1="481.1" x2="235.8" y2="217.9" gradientTransform="translate(0 694) scale(1 -1)" gradientUnits="userSpaceOnUse">
      <stop offset="0" stop-color="#6cffd7" stop-opacity=".2"/>
      <stop offset="1" stop-color="#13b3d3" stop-opacity=".5"/>
    </linearGradient>
    <linearGradient id="linear-gradient-10" x1="402.8" y1="481.1" x2="235.8" y2="217.9" gradientTransform="translate(0 694) scale(1 -1)" gradientUnits="userSpaceOnUse">
      <stop offset="0" stop-color="#6cffd7" stop-opacity=".2"/>
      <stop offset="1" stop-color="#13b3d3" stop-opacity=".5"/>
    </linearGradient>
    <linearGradient id="linear-gradient-11" x1="192.3" y1="210.6" x2="468.7" y2="504.2" gradientTransform="translate(0 694) scale(1 -1)" gradientUnits="userSpaceOnUse">
      <stop offset="0" stop-color="#13edb1" stop-opacity=".5"/>
      <stop offset="1" stop-color="#13b3d3" stop-opacity=".5"/>
    </linearGradient>
    <linearGradient id="linear-gradient-12" x1="192.3" y1="210.6" x2="468.7" y2="504.2" gradientTransform="translate(0 694) scale(1 -1)" gradientUnits="userSpaceOnUse">
      <stop offset="0" stop-color="#13edb1" stop-opacity=".5"/>
      <stop offset="1" stop-color="#13b3d3" stop-opacity=".5"/>
    </linearGradient>
    <linearGradient id="linear-gradient-13" x1="491.8" y1="538.1" x2="324.8" y2="274.9" gradientTransform="translate(0 694) scale(1 -1)" gradientUnits="userSpaceOnUse">
      <stop offset="0" stop-color="#6cffd7" stop-opacity=".1"/>
      <stop offset="1" stop-color="#13b3d3" stop-opacity=".2"/>
    </linearGradient>
    <linearGradient id="linear-gradient-14" x1="491.8" y1="538.1" x2="324.8" y2="274.9" gradientTransform="translate(0 694) scale(1 -1)" gradientUnits="userSpaceOnUse">
      <stop offset="0" stop-color="#6cffd7" stop-opacity=".1"/>
      <stop offset="1" stop-color="#13b3d3" stop-opacity=".2"/>
    </linearGradient>
    <linearGradient id="linear-gradient-15" x1="402.8" y1="481.1" x2="235.8" y2="217.9" gradientTransform="translate(0 694) scale(1 -1)" gradientUnits="userSpaceOnUse">
      <stop offset="0" stop-color="#6cffd7" stop-opacity=".2"/>
      <stop offset="1" stop-color="#13b3d3" stop-opacity=".5"/>
    </linearGradient>
    <linearGradient id="linear-gradient-16" x1="402.8" y1="481.1" x2="235.8" y2="217.9" gradientTransform="translate(0 694) scale(1 -1)" gradientUnits="userSpaceOnUse">
      <stop offset="0" stop-color="#6cffd7" stop-opacity=".2"/>
      <stop offset="1" stop-color="#13b3d3" stop-opacity=".5"/>
    </linearGradient>
  </defs>
  <!-- Generator: Adobe Illustrator 28.7.1, SVG Export Plug-In . SVG Version: 1.2.0 Build 142)  -->
  <g class="cls-17">
    <g id="Layer_1">
      <path class="cls-10" d="M501.6,94.9L352,0v369.1l226.7,143.8V239.4l-77.1-144.5Z"/>
      <path class="cls-1" d="M501.6,94.9L352,0v369.1l226.7,143.8V239.4l-77.1-144.5Z"/>
      <g class="cls-19">
        <path class="cls-16" d="M84,448.5l-6.6-3.6v167.9l6.6,3.6,133,71.8,6.6,3.6v-167.9l-6.6-3.6-133-71.8Z"/>
        <path class="cls-20" d="M84,448.5l-6.6-3.6v167.9l6.6,3.6,133,71.8,6.6,3.6v-167.9l-6.6-3.6-133-71.8Z"/>
      </g>
      <g class="cls-19">
        <path class="cls-15" d="M128,441l133,71.8v152.9l-133-71.8v-152.9Z"/>
        <path class="cls-13" d="M128,441l133,71.8v152.9l-133-71.8v-152.9Z"/>
      </g>
      <g class="cls-19">
        <path class="cls-14" d="M53,130l133,71.8v152.9l-133-71.8v-152.9Z"/>
        <path class="cls-12" d="M53,130l133,71.8v152.9l-133-71.8v-152.9Z"/>
      </g>
      <g class="cls-19">
        <path class="cls-11" d="M18,136.5l-6.6-3.6v182.1l6.6,3.6,133,71.8,6.6,3.6v-182l-6.6-3.6L18,136.5Z"/>
        <path class="cls-20" d="M18,136.5l-6.6-3.6v182.1l6.6,3.6,133,71.8,6.6,3.6v-182l-6.6-3.6L18,136.5Z"/>
      </g>
      <g class="cls-19">
        <path class="cls-18" d="M79.5,302.4l9-78.8,11.6,6.7-8.9,78.8-11.7-6.8ZM41.1,261v-13.1l67.1,38.8v13.1l-67.1-38.8ZM52.6,286.9l9-78.8,11.6,6.7-9,78.8-11.6-6.7ZM44.6,230.5v-13.1l67,38.7v13.1c.1,0-67-38.8-67-38.8Z"/>
      </g>
      <g class="cls-19">
        <path class="cls-18" d="M227.4,210.4c-1-.6-1.9-1.2-2.8-2-.9-.8-1.6-1.6-2.1-2.4l1-1.9c.5.7,1.1,1.4,1.8,2.1.7.7,1.4,1.2,2.2,1.6.6.3,1,.5,1.3.6.3,0,.6,0,.8,0,.2-.1.2-.3.2-.6s-.1-.7-.4-1.1c-.3-.4-.6-.7-1-1.1-.4-.4-.9-.8-1.4-1.2-.5-.4-1-.9-1.5-1.4-.5-.5-1-1-1.4-1.5-.4-.5-.8-1.1-1-1.8-.3-.6-.4-1.3-.4-2.1s.2-1.4.6-1.9c.4-.4.9-.6,1.7-.6.8,0,1.7.4,2.9,1.1.8.4,1.5,1,2.3,1.6.7.6,1.4,1.3,2,2.1l-.9,2c-.6-.7-1.1-1.3-1.7-1.8-.6-.5-1.1-.9-1.7-1.2-.5-.3-1-.5-1.3-.6-.3,0-.6,0-.7.2-.1.1-.2.4-.2.7s.1.7.4,1.1c.3.4.6.7,1,1.1.4.4.9.8,1.4,1.2.5.4,1,.9,1.5,1.3.5.5,1,1,1.4,1.5.4.5.8,1.1,1,1.7.3.6.4,1.3.4,2.1s-.2,1.4-.6,1.8-1,.6-1.7.6c-.8,0-1.7-.4-2.9-1.1ZM240.3,217.8c-.9-.5-1.8-1.2-2.6-2-.8-.8-1.5-1.7-2.1-2.7-.6-1-1.1-2-1.4-3.1-.3-1.1-.5-2.1-.5-3.2s.2-1.9.5-2.6c.3-.7.8-1.2,1.4-1.5.6-.3,1.3-.4,2.1-.3.8.1,1.7.4,2.6,1,1.1.6,2,1.4,2.8,2.3.9.9,1.6,1.9,2.1,3.1l-1.8.9c-.4-.8-.9-1.5-1.4-2-.5-.6-1.1-1-1.7-1.4-.6-.3-1.1-.5-1.6-.6-.5,0-.9,0-1.2.2-.3.2-.6.5-.8.9-.2.4-.3,1-.3,1.7s0,1.3.3,2c.2.7.5,1.3.8,1.9.3.6.8,1.1,1.2,1.6.5.5,1,.9,1.6,1.2.6.3,1.2.5,1.7.6.5,0,1-.1,1.4-.5l1.8,3c-.6.5-1.3.7-2.1.6-.8,0-1.8-.4-2.9-1ZM247.2,221.5v-14l5.2,3c1.1.6,2,1.4,2.8,2.2.8.9,1.4,1.8,1.8,2.8.4,1,.6,2,.6,3.1s-.2,1.8-.6,2.3c-.4.5-1,.7-1.8.7-.8,0-1.7-.4-2.8-1l-3.7-2.1,1.2-.7v5.3l-2.8-1.6ZM254.9,226l-3-6.8,3,1.7,3.1,6.8-3-1.8ZM250,218.2l-1.2-2.2,3.5,2c.9.5,1.5.7,1.9.5.4-.2.6-.7.6-1.4s-.2-1.5-.6-2.2-1.1-1.3-1.9-1.8l-3.5-2,1.2-.8v7.9ZM259.9,228.9v-14l2.8,1.6v14l-2.8-1.6ZM265.6,232.2v-14l5.2,3c1.1.6,2,1.4,2.8,2.2.8.9,1.4,1.8,1.8,2.8.4,1,.6,2,.6,3.1s-.2,1.8-.6,2.3c-.4.5-1,.8-1.8.7-.8,0-1.7-.4-2.8-1l-3.7-2.1,1.2-.7v5.3l-2.8-1.6ZM268.4,228.8l-1.2-2.3,3.5,2c.9.5,1.5.7,1.9.5.4-.2.6-.6.6-1.4s-.2-1.5-.6-2.2c-.4-.7-1.1-1.3-1.9-1.8l-3.5-2,1.2-.8v7.9ZM280.3,240.7v-11.4l-3.9-2.2v-2.6l10.6,6.1v2.6l-3.9-2.2v11.4l-2.8-1.6Z"/>
      </g>
      <g class="cls-19">
        <path class="cls-18" d="M133.8,617v-112.8l10.4,6v112.8l-10.4-6ZM137.5,606.2c-5.8-3.4-11.4-7.5-16.7-12.3-5.3-4.9-9.6-9.8-12.9-14.5l5.7-11.3c3.1,4.4,6.8,8.6,11,12.7,4.3,4.1,8.6,7.4,13,9.9,3.3,1.9,6,3.1,8,3.5,2.1.4,3.6.2,4.6-.6,1-.8,1.5-2.1,1.5-3.8s-.8-4.4-2.3-6.6c-1.5-2.2-3.5-4.5-6-6.7-2.5-2.3-5.3-4.7-8.3-7.2-3-2.5-6-5.2-9-8.1-3-2.8-5.7-5.9-8.2-9.1-2.5-3.2-4.5-6.7-6.1-10.5-1.5-3.8-2.3-7.9-2.3-12.4s1.1-8.5,3.3-11.2c2.3-2.7,5.7-3.9,10.2-3.6,4.6.2,10.3,2.3,17.1,6.3,4.6,2.6,9.1,5.9,13.5,9.7,4.4,3.8,8.3,7.9,11.7,12.3l-5.2,11.8c-3.4-4.2-6.8-7.8-10.2-10.8-3.4-3.1-6.7-5.6-10-7.4s-5.9-3-8-3.3c-2.1-.3-3.6,0-4.5.9-.9.8-1.4,2.2-1.4,4s.8,4.4,2.3,6.6c1.5,2.2,3.5,4.4,6,6.6,2.5,2.2,5.2,4.6,8.2,7.1,3,2.6,6.1,5.2,9,8,3,2.8,5.8,5.8,8.3,9,2.5,3.2,4.5,6.7,6,10.4,1.6,3.8,2.4,7.9,2.4,12.3s-1.1,8.4-3.4,11c-2.3,2.6-5.7,3.8-10.3,3.5-4.5-.2-10.2-2.3-17.1-6.3Z"/>
      </g>
      <path class="cls-2" d="M355.6,182.9l-149.6-94.9v369.1l226.7,143.8v-273.5l-77.1-144.5Z"/>
      <path class="cls-6" d="M355.6,182.9l-149.6-94.9v369.1l226.7,143.8v-273.5l-77.1-144.5Z"/>
      <path class="cls-7" d="M206,88.9l25.1-15.9,143.2,93.8h0s80.5,144.7,80.5,144.7h.2c0-.1,0,272.8,0,272.8l-25.1,15.9v-272.8h0s-76.8-145.4-76.8-145.4h-.2c0,.1-146.9-93.1-146.9-93.1Z"/>
      <g class="cls-19">
        <polygon class="cls-18" points="217.5 256 407.7 367 407.7 374.3 217.5 263.4 217.5 256"/>
      </g>
      <g class="cls-19">
        <polygon class="cls-18" points="217.5 297 325.7 360.1 325.7 367.5 217.5 304.4 217.5 297"/>
      </g>
      <g class="cls-19">
        <polygon class="cls-18" points="331.1 363.3 407.7 408 407.7 415.4 331.1 370.7 331.1 363.3"/>
      </g>
      <g class="cls-19">
        <polygon class="cls-18" points="331.1 390.6 407.7 435.3 407.7 442.7 331.1 398 331.1 390.6"/>
      </g>
      <g class="cls-19">
        <polygon class="cls-18" points="217.5 283.4 407.7 394.3 407.7 401.7 217.5 290.7 217.5 283.4"/>
      </g>
      <g class="cls-19">
        <polygon class="cls-18" points="217.5 269.7 407.7 380.7 407.7 388 217.5 277 217.5 269.7"/>
      </g>
      <g class="cls-19">
        <polygon class="cls-18" points="217.5 310.7 407.7 421.7 407.7 429 217.5 318.1 217.5 310.7"/>
      </g>
      <g class="cls-19">
        <polygon class="cls-18" points="217.5 351.7 407.7 462.7 407.7 470.1 217.5 359.1 217.5 351.7"/>
      </g>
      <g class="cls-19">
        <polygon class="cls-18" points="217.5 338.1 407.7 449 407.7 456.4 217.5 345.4 217.5 338.1"/>
      </g>
      <g class="cls-19">
        <polygon class="cls-18" points="217.5 324.4 325.7 387.5 325.7 394.8 217.5 331.7 217.5 324.4"/>
      </g>
      <path class="cls-9" d="M206,88.9l25.1-15.9,143.2,93.8h0s80.5,144.7,80.5,144.7h.2c0-.1,0,272.8,0,272.8l-25.1,15.9v-272.8h0s-76.8-145.4-76.8-145.4h-.2c0,.1-146.9-93.1-146.9-93.1Z"/>
      <g class="cls-19">
        <polygon class="cls-18" points="217.5 256 407.7 367 407.7 374.3 217.5 263.4 217.5 256"/>
      </g>
      <g class="cls-19">
        <polygon class="cls-18" points="217.5 297 325.7 360.1 325.7 367.5 217.5 304.4 217.5 297"/>
      </g>
      <g class="cls-19">
        <polygon class="cls-18" points="331.1 363.3 407.7 408 407.7 415.4 331.1 370.7 331.1 363.3"/>
      </g>
      <g class="cls-19">
        <polygon class="cls-18" points="331.1 390.6 407.7 435.3 407.7 442.7 331.1 398 331.1 390.6"/>
      </g>
      <g class="cls-19">
        <polygon class="cls-18" points="217.5 283.4 407.7 394.3 407.7 401.7 217.5 290.7 217.5 283.4"/>
      </g>
      <g class="cls-19">
        <polygon class="cls-18" points="217.5 269.7 407.7 380.7 407.7 388 217.5 277 217.5 269.7"/>
      </g>
      <g class="cls-19">
        <polygon class="cls-18" points="217.5 310.7 407.7 421.7 407.7 429 217.5 318.1 217.5 310.7"/>
      </g>
      <g class="cls-19">
        <polygon class="cls-18" points="217.5 351.7 407.7 462.7 407.7 470.1 217.5 359.1 217.5 351.7"/>
      </g>
      <g class="cls-19">
        <polygon class="cls-18" points="217.5 338.1 407.7 449 407.7 456.4 217.5 345.4 217.5 338.1"/>
      </g>
      <g class="cls-19">
        <polygon class="cls-18" points="217.5 324.4 325.7 387.5 325.7 394.8 217.5 331.7 217.5 324.4"/>
      </g>
      <path class="cls-8" d="M444.6,125.9L295,31v369.1l226.7,143.8v-273.5l-77.1-144.5Z"/>
      <path class="cls-3" d="M444.6,125.9L295,31v369.1l226.7,143.8v-273.5l-77.1-144.5Z"/>
      <path class="cls-5" d="M355.6,182.9l-149.6-94.9v369.1l226.7,143.8v-273.5l-77.1-144.5Z"/>
      <path class="cls-4" d="M355.6,182.9l-149.6-94.9v369.1l226.7,143.8v-273.5l-77.1-144.5Z"/>
    </g>
  </g>
</svg>