<svg xmlns="http://www.w3.org/2000/svg" fill="none" viewBox="0 0 658.59 774" xmlns:v="https://vecta.io/nano"><g fill="#fff"><use href="#M"/><use href="#M" y="-26"/><use href="#M" x="-228" y="-125"/></g><path transform="matrix(.866025 .5 0 1 14 476)" fill="url(#A)" d="M0 0h372v112H0z"/><use href="#M" x="-228" y="-154.176" fill="#fff"/><path transform="matrix(.866025 -.5 .866025 .5 14 476)" fill="url(#B)" d="M0 0h372v372.312H0z"/><path transform="matrix(.866025 -.5 .866025 .5 86.5859 475.001)" fill="url(#C)" d="M0 0h288.001v287.999H0z" style="mix-blend-mode:screen"/><path d="M336 303.002L657.5 133L585.417 476.052L336 620.053V303.002Z" fill="url(#D)" style="mix-blend-mode:screen"/><path transform="matrix(.866025 -.5 0 1 336 662)" fill="url(#E)" d="M0 0h372v112H0z"/><path transform="matrix(.898826 -.438306 .898826 .438306 154 105.751)" fill="url(#F)" d="M0 0h202.486v203.753H0z"/><path transform="matrix(.898826 .438306 0 1 154 105.751)" fill="url(#G)" d="M0 0h202.486v177.502H0z"/><path transform="matrix(.898826 -.438306 0 1 335.953 194.727)" fill="url(#H)" d="M0 0h202.486v177.502H0z"/><path d="M359.188 305.85v-70l11.605-6.7 25.807 34.5-6.148 3.55 25.374-64.05 11.518-6.65.173 69.9-13.163 7.6-.087-46.65 2.425-1.4-20.265 51-6.322 3.65-20.698-27.35 2.945-1.7v46.7l-13.164 7.6zm82.712-47.754v-70l29.618-17.1c7.621-4.4 13.337-6.033 17.148-4.9 3.868 1.1 5.802 4.383 5.802 9.85 0 3.667-.779 7.317-2.338 10.95-1.559 3.567-3.695 6.867-6.409 9.9a37.88 37.88 0 0 1-9.353 7.6l1.645-5.05c3.811-2.2 7.188-3.417 10.133-3.65 2.944-.3 5.225.483 6.842 2.35 1.674 1.833 2.511 4.783 2.511 8.85 0 6-2.05 11.883-6.149 17.65-4.099 5.7-10.132 10.85-18.1 15.45l-31.35 18.1zm13.943-20.25l16.368-9.45c3.637-2.1 6.38-4.35 8.227-6.75 1.906-2.5 2.858-5.25 2.858-8.25 0-2.933-.952-4.55-2.858-4.85-1.847-.4-4.59.45-8.227 2.55l-17.407 10.05v-11.8l14.982-8.65c3.407-1.967 6.005-4.133 7.794-6.5 1.848-2.467 2.772-5.1 2.772-7.9 0-2.733-.924-4.233-2.772-4.5-1.789-.367-4.387.433-7.794 2.4l-13.943 8.05v45.6zM234.731 268.35v-64l6.062 10.5-18.187-10.5v-13l26.154 15.1v70l-14.029-8.1z" fill="#fff"/><path transform="matrix(.89034 -.455297 .89034 .455297 0 35.2852)" fill="url(#I)" d="M0 0h77.498v77.498H0z"/><path transform="matrix(.89034 .455297 0 1 0 35.2852)" fill="url(#J)" d="M0 0h77.498v70.57H0z"/><path transform="matrix(.89034 -.455297 0 1 68.9844 70.6592)" fill="url(#K)" d="M0 0h77.498v70.57H0z"/><path d="M21 178.5l315.417 71.497v369.451L87 475.447 21 178.5z" fill="url(#L)" style="mix-blend-mode:screen"/><g fill="#fff"><use href="#N"/><use href="#N"/><path d="M585 563.373L648 527v17.044l-63 36.373zm0 27L648 554v17.044l-63 36.373z"/></g><defs><linearGradient id="A" x1="6.972" y1="120.663" x2="40.975" y2="-67.288" href="#O"><stop stop-color="#13b3d3"/><stop offset="1" stop-color="#13edb1"/></linearGradient><linearGradient id="B" x1="6.972" y1="401.11" x2="291.947" y2="-72.749" href="#O"><stop stop-color="#13b3d3"/></linearGradient><linearGradient id="C" x1="5.398" y1="310.276" x2="225.75" y2="-56.439" href="#O"><stop stop-color="#13eeb0"/><stop offset="1" stop-color="#13b3d3"/></linearGradient><linearGradient id="D" x1="3.371" y1="581.605" x2="-72.077" y2="301.706" href="#O"><stop stop-color="#13eeb0" stop-opacity=".26"/><stop offset=".501" stop-color="#13b3d3" stop-opacity=".26"/><stop offset=".757" stop-color="#13b3d3" stop-opacity="0"/></linearGradient><linearGradient id="E" x1="295.059" y1="120.663" x2="285.564" y2="-22.499" href="#O"><stop stop-color="#13b3d3"/><stop offset="1" stop-color="#12ebb2"/></linearGradient><linearGradient id="F" x1="208.758" y1="56.541" x2="96.603" y2="-14.713" href="#O"><stop stop-color="#13efaf"/><stop offset="1" stop-color="#0eb3df"/></linearGradient><linearGradient id="G" x1="176.018" y1="0" x2="15.607" y2="167.074" href="#O"><stop stop-color="#13efaf"/><stop offset="1" stop-color="#0eb3df"/></linearGradient><linearGradient id="H" x1="162.925" y1="43.172" x2="82.934" y2="163.228" href="#O"><stop stop-color="#13efaf"/><stop offset="1" stop-color="#0eb3df"/></linearGradient><linearGradient id="I" x1="38.749" y1="0" x2="38.749" y2="77.499" href="#O"><stop stop-color="#13efaf"/><stop offset="1" stop-color="#0eb3df"/></linearGradient><linearGradient id="J" x1="67.368" y1="0" x2="3.541" y2="63.998" href="#O"><stop stop-color="#13efaf"/><stop offset="1" stop-color="#0eb3df"/></linearGradient><linearGradient id="K" x1="62.357" y1="17.164" x2="30.106" y2="63.763" href="#O"><stop stop-color="#13efaf"/><stop offset="1" stop-color="#0eb3df"/></linearGradient><linearGradient id="L" x1="85.316" y1="568.349" x2="74.979" y2="106.9" href="#O"><stop stop-color="#13eeb0" stop-opacity=".26"/><stop offset=".501" stop-color="#13b3d3" stop-opacity=".26"/><stop offset=".757" stop-color="#13b3d3" stop-opacity="0"/></linearGradient><path id="M" d="M252 680l63 36.373v17.044l-63-36.373z"/><path id="N" d="M585 536.373L648 500v17.044l-63 36.373z"/><linearGradient id="O" gradientUnits="userSpaceOnUse"/></defs></svg>