<svg xmlns="http://www.w3.org/2000/svg" viewBox="0 0 524.1 417.3" xmlns:v="https://vecta.io/nano"><style>.A{isolation:isolate}.D{mix-blend-mode:screen}.F{mix-blend-mode:soft-light}</style><defs><linearGradient id="A" x1="136.3" y1="353.1" x2="136.3" y2="108.7" gradientTransform="translate(344 413.1) rotate(-30) scale(1 -.9) skewX(-26.6)" gradientUnits="userSpaceOnUse"><stop offset="0" stop-color="#13dbbb"/><stop offset="1" stop-color="#12c8c6"/></linearGradient><linearGradient id="B" x1="-4.3" y1="353.1" x2="-4.3" y2="250.1" gradientTransform="translate(469 294.5) rotate(-30) scale(1 -.9) skewX(-26.6)" gradientUnits="userSpaceOnUse"><stop offset="0" stop-color="#13b3d3"/><stop offset="1" stop-color="#13edb1"/></linearGradient><linearGradient id="C" x1="349.3" y1="15.8" x2="373.3" y2="119" gradientUnits="userSpaceOnUse"><stop offset="0" stop-color="#13b7d0"/><stop offset="1" stop-color="#12d9bc"/></linearGradient><path id="D" d="M201.9,122.4l107.4,62c12.4,7.2,12.4,18.8,0,26l-80.5,46.5c-12.4,7.2-32.6,7.2-45,0l-107.4-62c-12.4-7.2-12.4-18.8,0-26l80.5-46.5c12.4-7.2,32.6-7.2,45,0Z"/></defs><g class="A"><path d="M17.6 288.5l277.3-160.1c15.3-8.8 40.1-8.8 55.4 0l156.2 90.2c15.3 8.8 15.3 23.2 0 32L229.2 410.7c-15.3 8.8-40.1 8.8-55.4 0L17.6 320.5c-15.3-8.8-15.3-23.2 0-32z" fill="#13b3d3"/><path d="M7.2 254.5l298-172.1c9.6-5.5 25.1-5.5 34.6 0l177 102.2c9.6 5.5 9.6 14.5 0 20L218.7 376.7c-9.6 5.5-25.1 5.5-34.6 0L7.2 274.5c-9.6-5.5-9.6-14.5 0-20z" fill="url(#A)"/><g fill="#fff"><path class="D" d="M201.9,202.4l107.4,62c12.4,7.2,12.4,18.8,0,26l-80.5,46.5c-12.4,7.2-32.6,7.2-45,0l-107.4-62c-12.4-7.2-12.4-18.8,0-26l80.5-46.5c12.4-7.2,32.6-7.2,45,0Z"/><use href="#D" class="F" fill-opacity=".2"/><path class="F" d="M212.9 82.4l107.4 62c12.4 7.2 12.4 18.8 0 26l-80.5 46.5c-12.4 7.2-32.6 7.2-45 0l-107.4-62c-12.4-7.2-12.4-18.8 0-26l80.5-46.5c12.4-7.2 32.6-7.2 45 0zm138-77l107.4 62c12.4 7.2 12.4 18.8 0 26l-80.5 46.5c-12.4 7.2-32.6 7.2-45 0l-107.4-62c-12.4-7.2-12.4-18.8 0-26l80.5-46.5c12.4-7.2 32.6-7.2 45 0z" fill-opacity=".2"/><path class="F" d="M344.9,42.4l107.4,62c12.4,7.2,12.4,18.8,0,26l-80.5,46.5c-12.4,7.2-32.6,7.2-45,0l-107.4-62c-12.4-7.2-12.4-18.8,0-26l80.5-46.5c12.4-7.2,32.6-7.2,45,0Z" fill-opacity=".2"/><use href="#D" x="143" class="D"/></g><path d="M201.9 210.4l107.4 62c12.4 7.2 12.4 18.8 0 26l-80.5 46.5c-12.4 7.2-32.6 7.2-45 0l-107.4-62c-12.4-7.2-12.4-18.8 0-26l80.5-46.5c12.4-7.2 32.6-7.2 45 0zm143-80l107.4 62c12.4 7.2 12.4 18.8 0 26l-80.5 46.5c-12.4 7.2-32.6 7.2-45 0l-107.4-62c-12.4-7.2-12.4-18.8 0-26l80.5-46.5c12.4-7.2 32.6-7.2 45 0z" fill-opacity=".8" fill="#13edb1" class="D"/><path d="M161.6,121.4c23.4-13.5,61.4-13.5,84.9,0s23.4,35.5,0,49-61.4,13.5-84.9,0-23.4-35.5,0-49Z" fill="url(#B)" stroke="#fff" stroke-width="5"/><path d="M183.3 134.4c-3.2 1.8-3.2 4.8 0 6.6l8.9 5.1-10.6 6c-3 1.7-3 4.5 0 6.2 2.9 1.7 7.8 1.7 10.7 0l10.6-6.1 9 5.2c3.2 1.8 8.3 1.8 11.5 0s3.2-4.8 0-6.6l-9-5.2 10.2-5.8c3-1.7 3-4.5 0-6.2-2.9-1.7-7.8-1.7-10.7 0l-10.3 5.9-9-5.2c-3.2-1.8-8.3-1.8-11.5 0z" fill-rule="evenodd" fill="#fff"/><path d="M297.4,42.3c-1.8-2.8,3-5.6,7.8-4.5l109.4,23c4.2.9,5.4,4,2.2,5.8l-69.7,40.2c-3.2,1.8-8.6,1.1-10.1-1.3l-39.8-63.2Z" fill="url(#C)"/><path d="M329.6 56.3h0c1.6-.9 4.1-.9 5.7 0L358 69.4c1.6.9 1.6 2.4 0 3.3h0c-1.6.9-4.1.9-5.7 0l-22.7-13.1c-1.6-.9-1.6-2.4 0-3.3zm30.7 17.9c1.6-.9 4.5-.8 6.5.3s2.2 2.8.5 3.7-4.5.8-6.5-.3-2.2-2.8-.5-3.7z" fill="#fff"/></g></svg>