<svg width="638" height="793" viewBox="0 0 638 793" fill="none" xmlns="http://www.w3.org/2000/svg">
<rect width="137.116" height="135.402" transform="matrix(0.885556 0.464533 -0.885556 0.464533 233.82 465.769)" fill="url(#paint0_linear_149_5)"/>
<rect width="137.116" height="125.797" transform="matrix(0.885556 0.464533 0 1 114.797 528.667)" fill="url(#paint1_linear_149_5)"/>
<rect width="137.116" height="125.797" transform="matrix(0.885556 -0.464533 0 1 234.844 592.362)" fill="url(#paint2_linear_149_5)"/>
<rect width="111.986" height="110.827" transform="matrix(0.885556 0.464533 -0.885556 0.464533 234.852 475.322)" fill="url(#paint3_linear_149_5)"/>
<rect width="137.116" height="135.402" transform="matrix(0.885556 0.464533 -0.885556 0.464533 377.531 390.927)" fill="url(#paint4_linear_149_5)"/>
<rect width="137.116" height="125.797" transform="matrix(0.885556 0.464533 0 1 258.508 453.825)" fill="url(#paint5_linear_149_5)"/>
<rect width="137.116" height="125.797" transform="matrix(0.885556 -0.464533 0 1 378.555 517.521)" fill="url(#paint6_linear_149_5)"/>
<rect width="137.116" height="135.402" transform="matrix(0.885556 0.464533 -0.885556 0.464533 375.781 237.264)" fill="url(#paint7_linear_149_5)"/>
<rect width="137.116" height="125.797" transform="matrix(0.885556 0.464533 0 1 256.758 300.162)" fill="url(#paint8_linear_149_5)"/>
<rect width="137.116" height="125.797" transform="matrix(0.885556 -0.464533 0 1 376.805 363.857)" fill="url(#paint9_linear_149_5)"/>
<rect width="137.116" height="135.402" transform="matrix(0.885556 0.464533 -0.885556 0.464533 515.117 464.176)" fill="url(#paint10_linear_149_5)"/>
<rect width="137.116" height="125.797" transform="matrix(0.885556 0.464533 0 1 396.094 527.074)" fill="url(#paint11_linear_149_5)"/>
<rect width="137.116" height="125.797" transform="matrix(0.885556 -0.464533 0 1 516.141 590.77)" fill="url(#paint12_linear_149_5)"/>
<rect width="137.116" height="135.402" transform="matrix(0.885556 0.464533 -0.885556 0.464533 215.422 101.912)" fill="url(#paint13_linear_149_5)"/>
<rect width="137.116" height="125.797" transform="matrix(0.885556 0.464533 0 1 96.3906 164.811)" fill="url(#paint14_linear_149_5)"/>
<rect width="137.116" height="125.797" transform="matrix(0.885556 -0.464533 0 1 216.445 228.505)" fill="url(#paint15_linear_149_5)"/>
<rect width="137.116" height="135.402" transform="matrix(0.885556 0.464533 -0.885556 0.464533 377.531 540.609)" fill="url(#paint16_linear_149_5)"/>
<rect width="137.116" height="125.797" transform="matrix(0.885556 0.464533 0 1 258.508 603.508)" fill="url(#paint17_linear_149_5)"/>
<rect width="137.116" height="125.797" transform="matrix(0.885556 -0.464533 0 1 378.555 667.203)" fill="url(#paint18_linear_149_5)"/>
<rect width="137.116" height="135.402" transform="matrix(0.885556 0.464533 -0.885556 0.464533 513.359 316.881)" fill="url(#paint19_linear_149_5)"/>
<rect width="137.116" height="125.797" transform="matrix(0.885556 0.464533 0 1 394.336 379.779)" fill="url(#paint20_linear_149_5)"/>
<rect width="137.116" height="125.797" transform="matrix(0.885556 -0.464533 0 1 514.383 443.475)" fill="url(#paint21_linear_149_5)"/>
<g style="mix-blend-mode:screen">
<path fill-rule="evenodd" clip-rule="evenodd" d="M270.413 417.973C290.896 404.081 289.743 383.187 266.973 370.041C243.02 356.211 204.215 356.193 180.3 370C156.386 383.807 156.417 406.211 180.371 420.041C203.14 433.187 239.329 433.853 263.392 422.027L243.439 410.508C230.427 416.059 211.976 415.425 200.171 408.609C187.17 401.103 187.153 388.944 200.133 381.45C213.112 373.957 234.173 373.966 247.173 381.472C258.978 388.288 260.078 398.941 250.461 406.454L270.413 417.973Z" fill="white"/>
</g>
<g style="mix-blend-mode:screen">
<path d="M0 6.95436L433.769 0L332.118 525.668L235.287 578.03L136.265 525.668L0 6.95436Z" fill="url(#paint22_linear_149_5)"/>
</g>
<rect width="137.116" height="135.402" transform="matrix(0.885556 0.464533 -0.885556 0.464533 375.781 390.927)" fill="url(#paint23_linear_149_5)"/>
<rect width="137.116" height="125.797" transform="matrix(0.885556 0.464533 0 1 256.758 453.825)" fill="url(#paint24_linear_149_5)"/>
<rect width="137.116" height="125.797" transform="matrix(0.885556 -0.464533 0 1 376.805 517.521)" fill="url(#paint25_linear_149_5)"/>
<defs>
<linearGradient id="paint0_linear_149_5" x1="187.119" y1="183.697" x2="13.8968" y2="17.0372" gradientUnits="userSpaceOnUse">
<stop stop-color="#13EDB1"/>
<stop offset="1" stop-color="#13B3D3"/>
</linearGradient>
<linearGradient id="paint1_linear_149_5" x1="136.303" y1="-2.91329e-06" x2="10.7578" y2="135.043" gradientUnits="userSpaceOnUse">
<stop stop-color="#13EDB1"/>
<stop offset="0.546187" stop-color="#13B3D3"/>
</linearGradient>
<linearGradient id="paint2_linear_149_5" x1="-49.6192" y1="-45.2464" x2="173.175" y2="184.21" gradientUnits="userSpaceOnUse">
<stop stop-color="#13EDB1"/>
<stop offset="0.690568" stop-color="#13B3D3"/>
</linearGradient>
<linearGradient id="paint3_linear_149_5" x1="152.825" y1="150.357" x2="11.0549" y2="14.2524" gradientUnits="userSpaceOnUse">
<stop offset="1" stop-color="#A7FFFE"/>
</linearGradient>
<linearGradient id="paint4_linear_149_5" x1="187.119" y1="183.697" x2="13.8968" y2="17.0372" gradientUnits="userSpaceOnUse">
<stop stop-color="#13EDB1"/>
<stop offset="1" stop-color="#13B3D3"/>
</linearGradient>
<linearGradient id="paint5_linear_149_5" x1="136.303" y1="-2.91329e-06" x2="10.7578" y2="135.043" gradientUnits="userSpaceOnUse">
<stop stop-color="#13EDB1"/>
<stop offset="0.546187" stop-color="#13B3D3"/>
</linearGradient>
<linearGradient id="paint6_linear_149_5" x1="-49.6192" y1="-45.2464" x2="173.175" y2="184.21" gradientUnits="userSpaceOnUse">
<stop stop-color="#13EDB1"/>
<stop offset="0.690568" stop-color="#13B3D3"/>
</linearGradient>
<linearGradient id="paint7_linear_149_5" x1="187.119" y1="183.697" x2="13.8968" y2="17.0372" gradientUnits="userSpaceOnUse">
<stop stop-color="#13EDB1"/>
<stop offset="1" stop-color="#13B3D3"/>
</linearGradient>
<linearGradient id="paint8_linear_149_5" x1="136.303" y1="-2.91329e-06" x2="10.7578" y2="135.043" gradientUnits="userSpaceOnUse">
<stop stop-color="#13EDB1"/>
<stop offset="0.546187" stop-color="#13B3D3"/>
</linearGradient>
<linearGradient id="paint9_linear_149_5" x1="-49.6192" y1="-45.2464" x2="173.175" y2="184.21" gradientUnits="userSpaceOnUse">
<stop stop-color="#13EDB1"/>
<stop offset="0.690568" stop-color="#13B3D3"/>
</linearGradient>
<linearGradient id="paint10_linear_149_5" x1="187.119" y1="183.697" x2="13.8968" y2="17.0372" gradientUnits="userSpaceOnUse">
<stop stop-color="#13EDB1"/>
<stop offset="1" stop-color="#13B3D3"/>
</linearGradient>
<linearGradient id="paint11_linear_149_5" x1="136.303" y1="-2.91329e-06" x2="10.7578" y2="135.043" gradientUnits="userSpaceOnUse">
<stop stop-color="#13EDB1"/>
<stop offset="0.546187" stop-color="#13B3D3"/>
</linearGradient>
<linearGradient id="paint12_linear_149_5" x1="-49.6192" y1="-45.2464" x2="173.175" y2="184.21" gradientUnits="userSpaceOnUse">
<stop stop-color="#13EDB1"/>
<stop offset="0.690568" stop-color="#13B3D3"/>
</linearGradient>
<linearGradient id="paint13_linear_149_5" x1="187.119" y1="183.697" x2="13.8968" y2="17.0372" gradientUnits="userSpaceOnUse">
<stop offset="0.393448" stop-color="#13EDB1"/>
<stop offset="1" stop-color="#13B3D3"/>
</linearGradient>
<linearGradient id="paint14_linear_149_5" x1="102.371" y1="110.605" x2="59.1971" y2="5.17834" gradientUnits="userSpaceOnUse">
<stop stop-color="#13EDB1"/>
<stop offset="0.807768" stop-color="#13B3D3"/>
</linearGradient>
<linearGradient id="paint15_linear_149_5" x1="-9.88454" y1="115.302" x2="123.744" y2="-13.6116" gradientUnits="userSpaceOnUse">
<stop stop-color="#13EDB1"/>
<stop offset="0.89266" stop-color="#13B3D3"/>
</linearGradient>
<linearGradient id="paint16_linear_149_5" x1="187.119" y1="183.697" x2="13.8968" y2="17.0372" gradientUnits="userSpaceOnUse">
<stop stop-color="#13EDB1"/>
<stop offset="1" stop-color="#13B3D3"/>
</linearGradient>
<linearGradient id="paint17_linear_149_5" x1="136.303" y1="-2.91329e-06" x2="10.7578" y2="135.043" gradientUnits="userSpaceOnUse">
<stop stop-color="#13EDB1"/>
<stop offset="0.546187" stop-color="#13B3D3"/>
</linearGradient>
<linearGradient id="paint18_linear_149_5" x1="-49.6192" y1="-45.2464" x2="173.175" y2="184.21" gradientUnits="userSpaceOnUse">
<stop stop-color="#13EDB1"/>
<stop offset="0.690568" stop-color="#13B3D3"/>
</linearGradient>
<linearGradient id="paint19_linear_149_5" x1="187.119" y1="183.697" x2="13.8968" y2="17.0372" gradientUnits="userSpaceOnUse">
<stop stop-color="#13EDB1"/>
<stop offset="1" stop-color="#13B3D3"/>
</linearGradient>
<linearGradient id="paint20_linear_149_5" x1="136.303" y1="-2.91329e-06" x2="10.7578" y2="135.043" gradientUnits="userSpaceOnUse">
<stop stop-color="#13EDB1"/>
<stop offset="0.546187" stop-color="#13B3D3"/>
</linearGradient>
<linearGradient id="paint21_linear_149_5" x1="-49.6192" y1="-45.2464" x2="173.175" y2="184.21" gradientUnits="userSpaceOnUse">
<stop stop-color="#13EDB1"/>
<stop offset="0.690568" stop-color="#13B3D3"/>
</linearGradient>
<linearGradient id="paint22_linear_149_5" x1="148.734" y1="525.668" x2="265.18" y2="-42.2152" gradientUnits="userSpaceOnUse">
<stop stop-color="#A8FFFE" stop-opacity="0.49"/>
<stop offset="0.381024" stop-color="#F9FFFF" stop-opacity="0.0639424"/>
<stop offset="0.845698" stop-color="white" stop-opacity="0"/>
</linearGradient>
<linearGradient id="paint23_linear_149_5" x1="187.119" y1="183.697" x2="13.8968" y2="17.0372" gradientUnits="userSpaceOnUse">
<stop stop-color="#13EDB1"/>
<stop offset="1" stop-color="#13B3D3"/>
</linearGradient>
<linearGradient id="paint24_linear_149_5" x1="136.303" y1="-2.91329e-06" x2="10.7578" y2="135.043" gradientUnits="userSpaceOnUse">
<stop stop-color="#13EDB1"/>
<stop offset="0.546187" stop-color="#13B3D3"/>
</linearGradient>
<linearGradient id="paint25_linear_149_5" x1="-49.6192" y1="-45.2464" x2="173.175" y2="184.21" gradientUnits="userSpaceOnUse">
<stop stop-color="#13EDB1"/>
<stop offset="0.690568" stop-color="#13B3D3"/>
</linearGradient>
</defs>
</svg>
