<?xml version="1.0" encoding="UTF-8"?>
<svg xmlns="http://www.w3.org/2000/svg" xmlns:xlink="http://www.w3.org/1999/xlink" version="1.1" viewBox="0 0 524.1 417.3">
  <!-- Generator: Adobe Illustrator 29.4.0, SVG Export Plug-In . SVG Version: 2.1.0 Build 152)  -->
  <defs>
    <style>
      .st0 {
        fill-rule: evenodd;
      }

      .st0, .st1, .st2 {
        fill: #fff;
      }

      .st3 {
        fill: url(#linear-gradient2);
      }

      .st4 {
        fill: #13edb1;
        fill-opacity: .8;
      }

      .st5 {
        fill: url(#linear-gradient);
      }

      .st6 {
        fill: url(#linear-gradient1);
        stroke: #fff;
        stroke-width: 5px;
      }

      .st7 {
        fill: #13b3d3;
      }

      .st8 {
        isolation: isolate;
      }

      .st9 {
        mix-blend-mode: screen;
      }

      .st2 {
        fill-opacity: .2;
      }

      .st10 {
        mix-blend-mode: soft-light;
      }
    </style>
    <linearGradient id="linear-gradient" x1="136.3" y1="353.1" x2="136.3" y2="108.7" gradientTransform="translate(344 413.1) rotate(-30) scale(1 -.9) skewX(-26.6)" gradientUnits="userSpaceOnUse">
      <stop offset="0" stop-color="#13dbbb"/>
      <stop offset="1" stop-color="#12c8c6"/>
    </linearGradient>
    <linearGradient id="linear-gradient1" x1="-4.3" y1="353.1" x2="-4.3" y2="250.1" gradientTransform="translate(469 294.5) rotate(-30) scale(1 -.9) skewX(-26.6)" gradientUnits="userSpaceOnUse">
      <stop offset="0" stop-color="#13b3d3"/>
      <stop offset="1" stop-color="#13edb1"/>
    </linearGradient>
    <linearGradient id="linear-gradient2" x1="349.3" y1="403" x2="373.3" y2="299.8" gradientTransform="translate(0 418.8) scale(1 -1)" gradientUnits="userSpaceOnUse">
      <stop offset="0" stop-color="#13b7d0"/>
      <stop offset="1" stop-color="#12d9bc"/>
    </linearGradient>
  </defs>
  <g class="st8">
    <g id="Layer_1">
      <g id="Group_157">
        <g id="Group_154">
          <path id="Rectangle_323" class="st7" d="M17.6,288.5l277.3-160.1c15.3-8.8,40.1-8.8,55.4,0l156.2,90.2c15.3,8.8,15.3,23.2,0,32l-277.3,160.1c-15.3,8.8-40.1,8.8-55.4,0L17.6,320.5c-15.3-8.8-15.3-23.2,0-32Z"/>
          <path id="Rectangle_321" class="st5" d="M7.2,254.5L305.2,82.4c9.6-5.5,25.1-5.5,34.6,0l177,102.2c9.6,5.5,9.6,14.5,0,20l-298.1,172.1c-9.6,5.5-25.1,5.5-34.6,0L7.2,274.5c-9.6-5.5-9.6-14.5,0-20Z"/>
          <g id="Rectangle_322" class="st9">
            <path class="st1" d="M201.9,202.4l107.4,62c12.4,7.2,12.4,18.8,0,26l-80.5,46.5c-12.4,7.2-32.6,7.2-45,0l-107.4-62c-12.4-7.2-12.4-18.8,0-26l80.5-46.5c12.4-7.2,32.6-7.2,45,0Z"/>
          </g>
          <g id="Rectangle_327" class="st10">
            <path class="st2" d="M201.9,122.4l107.4,62c12.4,7.2,12.4,18.8,0,26l-80.5,46.5c-12.4,7.2-32.6,7.2-45,0l-107.4-62c-12.4-7.2-12.4-18.8,0-26l80.5-46.5c12.4-7.2,32.6-7.2,45,0Z"/>
          </g>
          <g id="Rectangle_329" class="st10">
            <path class="st2" d="M212.9,82.4l107.4,62c12.4,7.2,12.4,18.8,0,26l-80.5,46.5c-12.4,7.2-32.6,7.2-45,0l-107.4-62c-12.4-7.2-12.4-18.8,0-26l80.5-46.5c12.4-7.2,32.6-7.2,45,0Z"/>
          </g>
          <g id="Rectangle_330" class="st10">
            <path class="st2" d="M350.9,5.4l107.4,62c12.4,7.2,12.4,18.8,0,26l-80.5,46.5c-12.4,7.2-32.6,7.2-45,0l-107.4-62c-12.4-7.2-12.4-18.8,0-26L305.9,5.4c12.4-7.2,32.6-7.2,45,0Z"/>
          </g>
          <g id="Rectangle_328" class="st10">
            <path class="st2" d="M344.9,42.4l107.4,62c12.4,7.2,12.4,18.8,0,26l-80.5,46.5c-12.4,7.2-32.6,7.2-45,0l-107.4-62c-12.4-7.2-12.4-18.8,0-26l80.5-46.5c12.4-7.2,32.6-7.2,45,0Z"/>
          </g>
          <g id="Rectangle_324" class="st9">
            <path class="st1" d="M344.9,122.4l107.4,62c12.4,7.2,12.4,18.8,0,26l-80.5,46.5c-12.4,7.2-32.6,7.2-45,0l-107.4-62c-12.4-7.2-12.4-18.8,0-26l80.5-46.5c12.4-7.2,32.6-7.2,45,0Z"/>
          </g>
          <g id="Rectangle_325" class="st9">
            <path class="st4" d="M201.9,210.4l107.4,62c12.4,7.2,12.4,18.8,0,26l-80.5,46.5c-12.4,7.2-32.6,7.2-45,0l-107.4-62c-12.4-7.2-12.4-18.8,0-26l80.5-46.5c12.4-7.2,32.6-7.2,45,0Z"/>
          </g>
          <g id="Rectangle_326" class="st9">
            <path class="st4" d="M344.9,130.4l107.4,62c12.4,7.2,12.4,18.8,0,26l-80.5,46.5c-12.4,7.2-32.6,7.2-45,0l-107.4-62c-12.4-7.2-12.4-18.8,0-26l80.5-46.5c12.4-7.2,32.6-7.2,45,0Z"/>
          </g>
          <g id="Group_153">
            <path id="Ellipse_92" class="st6" d="M161.6,121.4c23.4-13.5,61.4-13.5,84.9,0s23.4,35.5,0,49-61.4,13.5-84.9,0-23.4-35.5,0-49Z"/>
            <path id="Union" class="st0" d="M183.3,134.4c-3.2,1.8-3.2,4.8,0,6.6l8.9,5.1-10.6,6c-3,1.7-3,4.5,0,6.2,2.9,1.7,7.8,1.7,10.7,0l10.6-6.1,9,5.2c3.2,1.8,8.3,1.8,11.5,0,3.2-1.8,3.2-4.8,0-6.6l-9-5.2,10.2-5.8c3-1.7,3-4.5,0-6.2-2.9-1.7-7.8-1.7-10.7,0l-10.3,5.9-9-5.2c-3.2-1.8-8.3-1.8-11.5,0Z"/>
          </g>
        </g>
        <g id="Group_152">
          <path id="Polygon_7" class="st3" d="M297.4,42.3c-1.8-2.8,3-5.6,7.8-4.5l109.4,23c4.2.9,5.4,4,2.2,5.8l-69.7,40.2c-3.2,1.8-8.6,1.1-10.1-1.3l-39.8-63.2Z"/>
          <path id="Rectangle_320" class="st1" d="M329.6,56.3h0c1.6-.9,4.1-.9,5.7,0l22.7,13.1c1.6.9,1.6,2.4,0,3.3h0c-1.6.9-4.1.9-5.7,0l-22.7-13.1c-1.6-.9-1.6-2.4,0-3.3Z"/>
          <path id="Ellipse_91" class="st1" d="M360.3,74.2c1.6-.9,4.5-.8,6.5.3s2.2,2.8.5,3.7-4.5.8-6.5-.3-2.2-2.8-.5-3.7Z"/>
        </g>
      </g>
    </g>
  </g>
</svg>