<svg xmlns="http://www.w3.org/2000/svg" width="491" height="414" fill="none" xmlns:v="https://vecta.io/nano"><path d="M37.177 292c-17.219-9.941-17.219-26.059 0-36L217.31 152c17.219-9.941 45.135-9.941 62.354 0l180.133 104c17.219 9.941 17.219 26.059 0 36L279.664 396c-17.219 9.941-45.135 9.941-62.354 0L37.177 292z" fill="url(#A)"/><path d="M37.177 252c-17.219-9.941-17.219-26.059 0-36L217.31 112c17.219-9.941 45.135-9.941 62.354 0l180.133 104c17.219 9.941 17.219 26.059 0 36L279.664 356c-17.219 9.941-45.135 9.941-62.354 0L37.177 252z" fill="#dc3545"/><path d="M76.177 245.359c-17.219-9.941-17.219-26.058 0-36L217.096 128c17.218-9.941 45.135-9.941 62.353 0l141.406 81.641c17.219 9.941 17.219 26.058 0 36L279.936 327c-17.218 9.941-45.135 9.941-62.353 0L76.177 245.359z" fill="#ff5d6c" style="mix-blend-mode:screen"/><g fill="#ff959f"><path d="M75.177 152.359c-17.219-9.941-17.219-26.058 0-36L216.096 35c17.218-9.941 45.135-9.941 62.353 0l141.406 81.641c17.219 9.941 17.219 26.058 0 36L278.936 234c-17.218 9.941-45.135 9.941-62.353 0L75.177 152.359z" fill-opacity=".73" style="mix-blend-mode:lighten"/><path d="M79.177 201.359c-17.219-9.941-17.219-26.058 0-36L220.096 84c17.218-9.941 45.135-9.941 62.353 0l141.406 81.641c17.219 9.941 17.219 26.058 0 36L282.936 283c-17.218 9.941-45.135 9.941-62.353 0L79.177 201.359z" fill-opacity=".7" style="mix-blend-mode:lighten"/></g><g style="mix-blend-mode:hard-light" fill="#fff"><path d="M375.847 132.939c3.284 1.87 3.342 4.94-.158 6.674-8.223 4.074-17.56 7.364-27.681 9.742-12.718 2.989-26.425 4.481-40.337 4.39s-27.757-1.763-40.746-4.92-24.865-7.738-34.952-13.481-18.188-12.534-23.838-19.988-8.741-15.423-9.094-23.453 2.037-15.964 7.034-23.348c3.977-5.876 9.544-11.313 16.483-16.117 2.954-2.045 8.272-2.055 11.556-.185h0c3.284 1.87 3.285 4.909.385 6.98-5.484 3.917-9.906 8.312-13.109 13.045-4.224 6.241-6.244 12.946-5.946 19.733s2.911 13.522 7.686 19.822 11.622 12.04 20.147 16.893 18.563 8.725 29.541 11.393 22.679 4.082 34.437 4.158 23.342-1.183 34.09-3.709c8.152-1.916 15.701-4.531 22.408-7.752 3.546-1.703 8.809-1.745 12.094.124h0zm-77.303-76.224c.096-.847 1.368-1.497 2.814-1.346 2.412.252 4.755.721 6.954 1.395 2.994.918 5.664 2.199 7.857 3.77s3.867 3.4 4.925 5.383 1.481 4.083 1.243 6.178-1.131 4.144-2.629 6.031-3.57 3.575-6.099 4.966-5.467 2.461-8.643 3.146c-2.333.503-4.761.792-7.209.859-1.468.041-2.582-.7-2.486-1.546h0c.096-.847 1.367-1.477 2.833-1.54a31.8 31.8 0 0 0 5.313-.676c2.566-.553 4.938-1.417 6.981-2.541s3.718-2.487 4.928-4.012 1.931-3.18 2.123-4.872-.149-3.388-1.004-4.99-2.207-3.08-3.978-4.349-3.929-2.303-6.347-3.045a29.6 29.6 0 0 0-5.115-1.071c-1.439-.173-2.557-.894-2.461-1.741h0zm19.092 44.47c-1.395.267-2.916-.169-3.218-.999-.503-1.385-.631-2.815-.375-4.245.348-1.947 1.4-3.857 3.097-5.621s4.002-3.347 6.788-4.659 5.996-2.327 9.448-2.987a50.31 50.31 0 0 1 10.667-.861c3.592.092 7.08.566 10.265 1.396s6.004 1.999 8.297 3.441c1.685 1.059 3.061 2.25 4.09 3.534.617.77-.152 1.644-1.547 1.911h0c-1.395.267-2.885-.176-3.538-.936-.803-.936-1.839-1.807-3.082-2.588-1.853-1.165-4.13-2.109-6.703-2.779s-5.39-1.054-8.291-1.128a40.64 40.64 0 0 0-8.617.696c-2.788.533-5.382 1.353-7.632 2.413s-4.114 2.338-5.484 3.763-2.22 2.968-2.501 4.54c-.189 1.056-.119 2.111.205 3.139.263.835-.474 1.704-1.869 1.971h0z"/><path d="M92.965 137.73c-3.284-1.87-3.341-4.94.16-6.674 8.224-4.072 17.562-7.361 27.684-9.739 12.719-2.987 26.426-4.477 40.338-4.385s27.757 1.766 40.744 4.924 24.863 7.741 34.949 13.484 18.183 12.537 23.831 19.991 8.736 15.424 9.087 23.454-2.042 15.964-7.042 23.347c-3.979 5.876-9.546 11.312-16.487 16.116-2.955 2.044-8.273 2.053-11.556.183h0c-3.284-1.87-3.284-4.909-.384-6.98 5.486-3.916 9.91-8.311 13.114-13.043 4.226-6.24 6.248-12.945 5.951-19.732s-2.906-13.522-7.679-19.823-11.618-12.041-20.142-16.895-18.56-8.727-29.537-11.396-22.677-4.083-34.435-4.162-23.343 1.182-34.092 3.707c-8.152 1.914-15.703 4.528-22.41 7.749-3.547 1.702-8.81 1.744-12.094-.126h0z"/><path fill-rule="evenodd" d="M252.04 76.513c-25.803 1.343-53.155 8.664-75.366 21.487-38.994 22.513-48.612 54.177-24.4 74.088l54.711-31.588c4.305-2.485 11.284-2.485 15.589 0l.866.5c4.304 2.485 4.304 6.515 0 9l-54.712 31.588c34.486 13.978 89.33 8.425 128.324-14.088 22.21-12.823 34.89-28.615 37.217-43.513L252.04 76.513z"/><path d="M332.992 117.75c9.138-5.276 14.116-12.522 13.838-20.144S344.689 80.503 335.157 75s-25.952-6.579-39.154-6.739-25.753 2.713-34.891 7.989L297.052 97l35.94 20.75z"/><rect width="40" height="12" rx="6" transform="matrix(.866025 .5 -.866025 .5 154.158 80)"/><rect width="40" height="12" rx="6" transform="matrix(.866025 .5 -.866025 .5 290.124 157.5)"/></g><path d="M48 50.326L248.467 148V332.5L65 227.063L48 50.326Z" fill="url(#B)"/><path d="M248.5 130.5L451 40.5L432 235L248.5 332V130.5Z" fill="url(#C)"/><defs><linearGradient id="A" x1="311.892" y1="455.288" x2="261.254" y2="173.976" gradientUnits="userSpaceOnUse"><stop offset=".441" stop-color="#ff5d6c"/><stop offset="1" stop-color="#b61322"/></linearGradient><linearGradient id="B" x1="172.615" y1="51.077" x2="74.52" y2="231.728" gradientUnits="userSpaceOnUse"><stop offset=".147" stop-color="#fff" stop-opacity=".01"/><stop offset=".155" stop-color="#fff" stop-opacity="0"/><stop offset=".336" stop-color="#fff" stop-opacity=".01"/><stop offset=".498" stop-color="#fff" stop-opacity=".056"/><stop offset=".658" stop-color="#fff" stop-opacity=".1"/><stop offset="1" stop-color="#ff7f94"/></linearGradient><linearGradient id="C" x1="364.615" y1="25.134" x2="468.739" y2="195.358" gradientUnits="userSpaceOnUse"><stop offset=".147" stop-color="#fff" stop-opacity=".01"/><stop offset=".155" stop-color="#fff" stop-opacity="0"/><stop offset=".336" stop-color="#fff" stop-opacity=".01"/><stop offset=".498" stop-color="#fff" stop-opacity=".056"/><stop offset=".658" stop-color="#fff" stop-opacity=".1"/><stop offset="1" stop-color="#ff7f94"/></linearGradient></defs></svg>