<svg xmlns="http://www.w3.org/2000/svg" fill="none" viewBox="0 0 529.66 683.53" xmlns:v="https://vecta.io/nano"><path fill="#13b3d3" d="M0 511.135l264.829-137.58 264.829 137.58-264.829 137.58z"/><path transform="matrix(.887397 .461006 0 1 0 511.135)" fill="url(#C)" d="M0 0h298.434v34.815H0z"/><path transform="matrix(.887397 -.461006 0 1 264.188 648.714)" fill="url(#C)" d="M0 0h298.434v34.815H0z"/><rect width="182.487" height="183.944" rx="32" transform="matrix(.887397 -.461006 .887397 .461006 100.641 510.799)" fill="#84ffd4" style="mix-blend-mode:screen"/><path transform="matrix(.902729 -.430209 .902729 .430209 135.477 331.323)" fill="url(#D)" d="M0 0h144.718v144.718H0z"/><path transform="matrix(.902729 .430209 0 1 136.43 331.323)" fill="url(#E)" d="M0 0h144.718v124.518H0z"/><path transform="matrix(.902729 -.430209 0 1 265.805 393.188)" fill="url(#E)" d="M0 0h144.718v124.518H0z"/><g filter="url(#A)"><path d="M155.864 413.276v-14l6.069 3.153c1.562.811 2.734 1.753 3.515 2.825.792 1.079 1.189 2.165 1.189 3.258 0 .733-.16 1.29-.479 1.671-.32.368-.758.553-1.314.558s-1.195-.181-1.917-.556l.338-.645a8.3 8.3 0 0 1 2.076 1.519c.604.594 1.071 1.256 1.402 1.988.343.739.515 1.515.515 2.328 0 1.2-.42 1.922-1.26 2.165-.84.23-2.077-.079-3.71-.927l-6.424-3.337zm2.857-.956l3.354 1.743c.746.387 1.308.545 1.687.475.39-.077.585-.415.585-1.015 0-.587-.195-1.122-.585-1.605-.379-.49-.941-.928-1.687-1.315l-3.567-1.854v-2.36l3.071 1.595c.698.363 1.23.506 1.597.43.378-.083.568-.405.568-.965 0-.546-.19-1.051-.568-1.515-.367-.47-.899-.887-1.597-1.25l-2.858-1.484v9.12zm10.714 8.006v-14l2.875 1.493v11.36l6.229 3.237v2.64l-9.104-4.73zm16.537 8.831a12.02 12.02 0 0 1-2.733-1.96c-.828-.79-1.55-1.672-2.165-2.645-.604-.967-1.077-1.979-1.42-3.037-.331-1.053-.497-2.099-.497-3.139s.166-1.914.497-2.621c.343-.702.822-1.22 1.437-1.554s1.337-.465 2.166-.395 1.727.358 2.697.862a11.59 11.59 0 0 1 2.698 1.941c.828.79 1.544 1.669 2.148 2.636.615.973 1.094 1.988 1.437 3.047.343 1.045.515 2.094.515 3.147 0 1.04-.172 1.918-.515 2.633-.343.701-.822 1.219-1.437 1.553-.604.326-1.32.454-2.148.384-.816-.064-1.71-.348-2.68-.852zm-.018-2.769c.556.289 1.065.446 1.527.473.473.032.887-.059 1.242-.275s.627-.547.816-.996c.202-.442.302-.996.302-1.663s-.1-1.326-.302-1.977c-.189-.645-.461-1.26-.816-1.844-.343-.578-.751-1.097-1.225-1.556a6.55 6.55 0 0 0-1.544-1.122c-.556-.289-1.07-.45-1.544-.482-.461-.027-.869.068-1.224.283s-.633.545-.834.987c-.19.448-.284 1.006-.284 1.673 0 .653.094 1.309.284 1.967.201.651.473 1.266.816 1.844a7.86 7.86 0 0 0 1.242 1.566 6.57 6.57 0 0 0 1.544 1.122zm14.904 10.502c-.958-.498-1.852-1.135-2.68-1.912-.816-.784-1.526-1.659-2.13-2.626s-1.076-1.98-1.419-3.038c-.332-1.052-.497-2.105-.497-3.158s.165-1.934.497-2.642c.343-.702.816-1.222 1.419-1.562.616-.334 1.332-.462 2.148-.385.816.064 1.71.349 2.68.853a11.52 11.52 0 0 1 2.911 2.152 12.16 12.16 0 0 1 2.2 2.983l-1.845.961c-.426-.768-.9-1.42-1.42-1.958-.521-.55-1.089-.985-1.704-1.305-.58-.301-1.112-.471-1.597-.509s-.906.049-1.26.265-.634.544-.835.987c-.189.448-.284 1.005-.284 1.672s.095 1.323.284 1.968a8.25 8.25 0 0 0 .835 1.853c.354.584.774 1.109 1.26 1.575s1.017.848 1.597 1.149c.615.32 1.183.482 1.704.485.52-.009.994-.183 1.42-.522l1.845 2.879c-.591.506-1.325.745-2.2.717-.864-.022-1.84-.316-2.929-.882zm9.644 1.571l-.159-3.823 5.945-3.972 3.195 1.66-5.36 3.715-1.597 1.091-2.024 1.329zm-2.573 1.863v-14l2.857 1.484v14l-2.857-1.484zm8.501 4.416l-4.419-8.396 1.881-1.322 5.893 11.461-3.355-1.743z" fill="#fff"/></g><g filter="url(#B)"><path d="M292.634 446.891l4.991-15.387.743 1.009-6.673 3.511 1.275-2.19v3.8l-2.549 1.341v-4.92l9.93-5.225v2.1l-4.602 14.322-3.115 1.639zm7.693-6.988v-2.18l5.841-11.954 3.009-1.583-5.717 11.888-1.398.276 9.752-5.131v2.64l-11.487 6.044zm6.673-.571v-2.94l.089-2.687v-2.62l2.708-1.425v8.2L307 439.332zm11.212-5.659c-1.133.596-2.118.847-2.956.755-.826-.099-1.463-.544-1.911-1.334s-.673-1.94-.673-3.447c0-1.613.265-3.119.796-4.519.543-1.405 1.287-2.65 2.231-3.733.955-1.09 2.053-1.96 3.292-2.612a8.91 8.91 0 0 1 1.894-.757c.601-.156 1.121-.189 1.557-.099l-1.062 2.939a2.07 2.07 0 0 0-1.097.037c-.39.098-.797.259-1.222.483-1.073.565-1.923 1.378-2.548 2.441s-.938 2.313-.938 3.753v.8c.011.287.047.562.106.824l-.797-.421c.225-.638.514-1.223.868-1.756.354-.546.773-1.033 1.256-1.461a7.91 7.91 0 0 1 1.629-1.137c.802-.422 1.522-.621 2.159-.596s1.145.264 1.522.719c.39.448.584 1.113.584 1.993 0 .946-.212 1.885-.637 2.815a9.28 9.28 0 0 1-1.681 2.505c-.697.739-1.487 1.342-2.372 1.808zm-.159-2.337a4.1 4.1 0 0 0 1.062-.798 3.9 3.9 0 0 0 .743-1.132c.177-.413.265-.826.265-1.239 0-.64-.194-1.044-.584-1.213-.377-.188-.885-.114-1.522.221a3.96 3.96 0 0 0-1.115.867c-.318.341-.572.721-.761 1.14-.177.4-.265.806-.265 1.22 0 .4.088.713.265.94.177.214.425.33.743.349.319.006.708-.113 1.169-.355zm9.906-2.792c-.861.453-1.716.777-2.566.97-.85.181-1.569.186-2.159.016l1.115-3.066c.472.138 1.02.156 1.646.054s1.256-.322 1.894-.657c.719-.379 1.286-.837 1.699-1.374s.619-1.086.619-1.646c0-.533-.183-.857-.548-.971s-.956.043-1.77.471l-1.31.689v-2.14l3.451-6.236.319.993-6.496 3.417v-2.6l8.673-4.563v2.1l-3.434 6.227-1.451-.176.832-.438c1.522-.801 2.672-1.02 3.451-.656s1.168 1.152 1.168 2.365c0 .787-.183 1.623-.548 2.509-.366.872-.927 1.721-1.682 2.545s-1.723 1.546-2.903 2.167zm11.59-6.098c-1.038.546-1.947.851-2.726.914-.779.05-1.386-.13-1.823-.541-.436-.423-.655-1.068-.655-1.935s.213-1.712.638-2.535c.436-.843 1.044-1.623 1.823-2.34.778-.729 1.693-1.37 2.743-1.923 1.062-.559 1.982-.883 2.761-.973.791-.109 1.398.031 1.823.421.437.37.655.989.655 1.855s-.218 1.742-.655 2.625c-.436.87-1.05 1.693-1.841 2.469-.778.756-1.693 1.41-2.743 1.963zm0-2.38c.72-.379 1.286-.857 1.699-1.434.425-.584.637-1.189.637-1.815s-.212-1.002-.637-1.125c-.413-.143-.979-.025-1.699.354-.708.372-1.268.847-1.681 1.425-.413.564-.62 1.159-.62 1.786s.207 1.011.62 1.154.973.027 1.681-.345zm0-4.34c-.956.503-1.794.797-2.513.882-.708.08-1.263-.055-1.664-.404-.389-.369-.584-.946-.584-1.733a5.36 5.36 0 0 1 .602-2.437c.401-.811.961-1.566 1.681-2.264a10.35 10.35 0 0 1 2.478-1.804c.956-.503 1.788-.774 2.496-.813.719-.059 1.28.106 1.681.495.413.37.62.968.62 1.794 0 .787-.201 1.572-.602 2.357-.39.765-.944 1.483-1.664 2.155s-1.563 1.263-2.531 1.772zm0-1.9c.602-.317 1.074-.718 1.416-1.205.354-.493.531-1.006.531-1.539 0-.56-.183-.898-.549-1.012-.354-.12-.82-.028-1.398.276-.566.298-1.027.693-1.381 1.186a2.66 2.66 0 0 0-.531 1.58c0 .533.172.863.514.99s.808.034 1.398-.276z" fill="#fff"/></g><path d="M125.392 137l136.167 72.092L404 137v377.625l-3.765 8.01-7.53 5.721-16.942 9.155-35.767 17.737-36.395 19.453-18.825 7.438L265.951 585l-20.08-1.144-18.824-7.438-37.65-20.026-35.14-18.309-20.08-9.727-8.785-6.866-4.392-8.582L125.392 137z" fill="#fff" fill-opacity=".21"/><path fill="#13b3d3" d="M0 137.58L264.829 0l264.829 137.58-264.829 137.58z"/><rect width="182.487" height="183.944" rx="32" transform="matrix(.887397 -.461006 .887397 .461006 99.1641 136.748)" fill="#84ffd4" style="mix-blend-mode:screen"/><path transform="matrix(.887397 .461006 0 1 0 136.709)" fill="url(#F)" fill-opacity=".39" d="M0 0h298.434v374.353H0z"/><path transform="matrix(.887397 -.461006 0 1 264.188 275.159)" fill="url(#F)" fill-opacity=".39" d="M0 0h298.434v374.353H0z"/><defs><filter id="A" x="151.867" y="399.036" width="71.914" height="55.687" filterUnits="userSpaceOnUse" color-interpolation-filters="sRGB"><feFlood flood-opacity="0" result="A"/><feColorMatrix in="SourceAlpha" values="0 0 0 0 0 0 0 0 0 0 0 0 0 0 0 0 0 0 127 0" result="B"/><feOffset dy="4"/><feGaussianBlur stdDeviation="2"/><feComposite in2="B" operator="out"/><feColorMatrix values="0 0 0 0 0 0 0 0 0 0 0 0 0 0 0 0 0 0 0.25 0"/><feBlend in2="A"/><feBlend in="SourceGraphic"/></filter><filter id="B" x="286.422" y="405.209" width="62.367" height="51.085" filterUnits="userSpaceOnUse" color-interpolation-filters="sRGB"><feFlood flood-opacity="0" result="A"/><feColorMatrix in="SourceAlpha" values="0 0 0 0 0 0 0 0 0 0 0 0 0 0 0 0 0 0 127 0" result="B"/><feOffset dy="4"/><feGaussianBlur stdDeviation="2"/><feComposite in2="B" operator="out"/><feColorMatrix values="0 0 0 0 0 0 0 0 0 0 0 0 0 0 0 0 0 0 0.25 0"/><feBlend in2="A"/><feBlend in="SourceGraphic"/></filter><linearGradient id="C" x1="-.231" y1="17.834" x2="23.434" y2="-63.301" href="#G"><stop stop-color="#13b3d3"/><stop offset="1" stop-color="#13edb1"/></linearGradient><linearGradient id="D" x1="72.359" y1="0" x2="72.359" y2="144.718" href="#G"><stop stop-color="#13edb1"/><stop offset="1" stop-color="#13b3d3"/></linearGradient><linearGradient id="E" x1="72.359" y1="0" x2="72.359" y2="124.518" href="#G"><stop stop-color="#13edb1"/><stop offset="1" stop-color="#13b3d3"/></linearGradient><linearGradient id="F" x1="149.217" y1="0" x2="149.217" y2="374.353" href="#G"><stop stop-color="#13edb1"/><stop offset="1" stop-color="#17edfe"/></linearGradient><linearGradient id="G" gradientUnits="userSpaceOnUse"/></defs></svg>