<?xml version="1.0" encoding="UTF-8"?>
<svg xmlns="http://www.w3.org/2000/svg" xmlns:xlink="http://www.w3.org/1999/xlink" version="1.1" viewBox="0 0 652 630.5">
  <defs>
    <style>
      .cls-1 {
        fill: url(#linear-gradient-8);
      }

      .cls-2 {
        fill: url(#linear-gradient-7);
      }

      .cls-3 {
        fill: url(#linear-gradient-5);
      }

      .cls-4 {
        fill: url(#linear-gradient-6);
      }

      .cls-5 {
        fill: url(#linear-gradient-9);
      }

      .cls-6 {
        fill: url(#linear-gradient-4);
      }

      .cls-7 {
        fill: url(#linear-gradient-3);
      }

      .cls-8 {
        fill: url(#linear-gradient-2);
      }

      .cls-9 {
        fill: none;
        stroke: #a5fffe;
        stroke-width: 3px;
      }

      .cls-10 {
        fill: url(#linear-gradient);
      }

      .cls-11 {
        isolation: isolate;
      }

      .cls-12 {
        fill: #fff;
      }

      .cls-13 {
        fill: url(#linear-gradient-10);
      }

      .cls-14 {
        fill: url(#linear-gradient-11);
      }

      .cls-15 {
        fill: url(#linear-gradient-12);
      }

      .cls-16 {
        fill: url(#linear-gradient-13);
      }

      .cls-17 {
        fill: url(#linear-gradient-19);
      }

      .cls-18 {
        fill: url(#linear-gradient-14);
      }

      .cls-19 {
        fill: url(#linear-gradient-21);
      }

      .cls-20 {
        fill: url(#linear-gradient-20);
      }

      .cls-21 {
        fill: url(#linear-gradient-22);
      }

      .cls-22 {
        fill: url(#linear-gradient-23);
      }

      .cls-23 {
        fill: url(#linear-gradient-15);
      }

      .cls-24 {
        fill: url(#linear-gradient-16);
      }

      .cls-25 {
        fill: url(#linear-gradient-17);
      }

      .cls-26 {
        fill: url(#linear-gradient-18);
      }

      .cls-27 {
        fill: url(#linear-gradient-24);
      }

      .cls-28 {
        mix-blend-mode: screen;
      }

      .cls-29 {
        fill-rule: evenodd;
      }

      .cls-29, .cls-30 {
        fill: #a5fffe;
      }
    </style>
    <linearGradient id="linear-gradient" x1="498.7" y1="901.1" x2="201.4" y2="390.1" gradientTransform="translate(-406.6 454.4) rotate(30) scale(1 -.9) skewX(26.6)" gradientUnits="userSpaceOnUse">
      <stop offset="0" stop-color="#13edb1"/>
      <stop offset="1" stop-color="#13b3d3"/>
    </linearGradient>
    <linearGradient id="linear-gradient-2" x1="174.1" y1="736" x2="106.4" y2="705.7" gradientTransform="translate(-658.5 363.1) rotate(30) scale(1 -.9) skewX(26.6)" gradientUnits="userSpaceOnUse">
      <stop offset="0" stop-color="#13edb1"/>
      <stop offset="1" stop-color="#13b3d3"/>
    </linearGradient>
    <linearGradient id="linear-gradient-3" x1="75.3" y1="757.8" x2="40" y2="696.8" gradientTransform="translate(9.9 793.6) rotate(30) scale(1 -.9) skewX(-26.6)" gradientUnits="userSpaceOnUse">
      <stop offset="1" stop-color="#13b3d3"/>
      <stop offset="1" stop-color="#000"/>
    </linearGradient>
    <linearGradient id="linear-gradient-4" x1="138.2" y1="498.8" x2="58" y2="510.9" gradientTransform="translate(0 608.9) scale(1 -1)" gradientUnits="userSpaceOnUse">
      <stop offset="0" stop-color="#13edb1"/>
      <stop offset="1" stop-color="#13b3d3"/>
    </linearGradient>
    <linearGradient id="linear-gradient-5" x1="498.7" y1="901.1" x2="201.4" y2="390.1" gradientTransform="translate(-406.6 543.4) rotate(30) scale(1 -.9) skewX(26.6)" gradientUnits="userSpaceOnUse">
      <stop offset="0" stop-color="#13edb1" stop-opacity=".6"/>
      <stop offset="1" stop-color="#13b3d3" stop-opacity=".7"/>
    </linearGradient>
    <linearGradient id="linear-gradient-6" x1="498.7" y1="901.1" x2="201.4" y2="390.1" gradientTransform="translate(-406.6 570) rotate(30) scale(1 -.9) skewX(26.6)" gradientUnits="userSpaceOnUse">
      <stop offset="0" stop-color="#13edb1" stop-opacity=".2"/>
      <stop offset="1" stop-color="#13b3d3" stop-opacity=".3"/>
    </linearGradient>
    <linearGradient id="linear-gradient-7" x1="218.2" y1="741" x2="214.8" y2="689.4" gradientTransform="translate(-24.8 1050) rotate(30) scale(1 -.9) skewX(-26.6)" gradientUnits="userSpaceOnUse">
      <stop offset="0" stop-color="#13edb1"/>
      <stop offset="1" stop-color="#13b3d3"/>
    </linearGradient>
    <linearGradient id="linear-gradient-8" x1="218.2" y1="527.3" x2="214.8" y2="475.7" gradientTransform="translate(299.9 1053.8) rotate(-30) scale(1 -.9) skewX(26.6)" gradientUnits="userSpaceOnUse">
      <stop offset="0" stop-color="#13edb1"/>
      <stop offset="1" stop-color="#13b3d3"/>
    </linearGradient>
    <linearGradient id="linear-gradient-9" x1="249.7" y1="726.6" x2="160.2" y2="555.6" gradientTransform="translate(-408.7 543.4) rotate(30) scale(1 -.9) skewX(26.6)" gradientUnits="userSpaceOnUse">
      <stop offset="0" stop-color="#13edb1"/>
      <stop offset="1" stop-color="#000"/>
    </linearGradient>
    <linearGradient id="linear-gradient-10" x1="230.3" y1="728.5" x2="153.7" y2="580.9" gradientTransform="translate(-410.3 556.1) rotate(30) scale(1 -.9) skewX(26.6)" gradientUnits="userSpaceOnUse">
      <stop offset="0" stop-color="#a5fffe"/>
      <stop offset="1" stop-color="#000"/>
    </linearGradient>
    <linearGradient id="linear-gradient-11" x1="192.6" y1="275.6" x2="304.8" y2="476.7" gradientTransform="translate(0 608.9) scale(1 -1)" gradientUnits="userSpaceOnUse">
      <stop offset="0" stop-color="#fff" stop-opacity=".3"/>
      <stop offset="1" stop-color="#639998" stop-opacity="0"/>
    </linearGradient>
    <linearGradient id="linear-gradient-12" x1="-319.7" y1="1107.1" x2="-319.7" y2="831.3" gradientTransform="translate(131.1 -581.9) rotate(150.8) scale(1 -.9) skewX(26.6)" gradientUnits="userSpaceOnUse">
      <stop offset="0" stop-color="#fff" stop-opacity=".3"/>
      <stop offset="1" stop-color="#639998" stop-opacity="0"/>
    </linearGradient>
    <linearGradient id="linear-gradient-13" x1="174.1" y1="736" x2="106.4" y2="705.7" gradientTransform="translate(-653.9 543.4) rotate(30) scale(1 -.9) skewX(26.6)" gradientUnits="userSpaceOnUse">
      <stop offset="0" stop-color="#13edb1"/>
      <stop offset="1" stop-color="#13b3d3"/>
    </linearGradient>
    <linearGradient id="linear-gradient-14" x1="75.3" y1="757.8" x2="40" y2="696.8" gradientTransform="translate(14.5 973.9) rotate(30) scale(1 -.9) skewX(-26.6)" gradientUnits="userSpaceOnUse">
      <stop offset="1" stop-color="#13b3d3"/>
      <stop offset="1" stop-color="#000"/>
    </linearGradient>
    <linearGradient id="linear-gradient-15" x1="142.8" y1="318.5" x2="62.7" y2="330.6" gradientTransform="translate(0 608.9) scale(1 -1)" gradientUnits="userSpaceOnUse">
      <stop offset="0" stop-color="#13edb1"/>
      <stop offset="1" stop-color="#13b3d3"/>
    </linearGradient>
    <linearGradient id="linear-gradient-16" x1="96.1" y1="766.3" x2="158.3" y2="671.9" gradientTransform="translate(-411.1 714.5) rotate(30) scale(1 -.9) skewX(26.6)" gradientUnits="userSpaceOnUse">
      <stop offset="0" stop-color="#13edb1"/>
      <stop offset="1" stop-color="#13b3d3"/>
    </linearGradient>
    <linearGradient id="linear-gradient-17" x1="75.3" y1="757.8" x2="40" y2="696.8" gradientTransform="translate(257.3 1145) rotate(30) scale(1 -.9) skewX(-26.6)" gradientUnits="userSpaceOnUse">
      <stop offset="1" stop-color="#13b3d3"/>
      <stop offset="1" stop-color="#000"/>
    </linearGradient>
    <linearGradient id="linear-gradient-18" x1="385.6" y1="147.4" x2="305.4" y2="159.5" gradientTransform="translate(0 608.9) scale(1 -1)" gradientUnits="userSpaceOnUse">
      <stop offset="1" stop-color="#13b3d3"/>
      <stop offset="1" stop-color="#000"/>
    </linearGradient>
    <linearGradient id="linear-gradient-19" x1="174.1" y1="736" x2="106.4" y2="705.7" gradientTransform="translate(-140.6 570) rotate(30) scale(1 -.9) skewX(26.6)" gradientUnits="userSpaceOnUse">
      <stop offset="0" stop-color="#13edb1"/>
      <stop offset="1" stop-color="#13b3d3"/>
    </linearGradient>
    <linearGradient id="linear-gradient-20" x1="45.3" y1="695.8" x2="63.7" y2="759.4" gradientTransform="translate(527.7 1000.5) rotate(30) scale(1 -.9) skewX(-26.6)" gradientUnits="userSpaceOnUse">
      <stop offset="0" stop-color="#13edb1"/>
      <stop offset="1" stop-color="#13b3d3"/>
    </linearGradient>
    <linearGradient id="linear-gradient-21" x1="656" y1="291.9" x2="575.9" y2="304" gradientTransform="translate(0 608.9) scale(1 -1)" gradientUnits="userSpaceOnUse">
      <stop offset="0" stop-color="#13edb1"/>
      <stop offset="1" stop-color="#13b3d3"/>
    </linearGradient>
    <linearGradient id="linear-gradient-22" x1="60.8" y1="701" x2="37.2" y2="737.4" gradientTransform="translate(488.4 746.2) rotate(30) scale(1 -.9) skewX(-26.6)" gradientUnits="userSpaceOnUse">
      <stop offset="0" stop-color="#13edb1"/>
      <stop offset="1" stop-color="#13b3d3"/>
    </linearGradient>
    <linearGradient id="linear-gradient-23" x1="156.6" y1="754.5" x2="117.3" y2="699" gradientTransform="translate(-179.9 315.7) rotate(30) scale(1 -.9) skewX(26.6)" gradientUnits="userSpaceOnUse">
      <stop offset="0" stop-color="#13edb1"/>
      <stop offset=".8" stop-color="#13b3d3"/>
    </linearGradient>
    <linearGradient id="linear-gradient-24" x1="616.7" y1="546.2" x2="536.6" y2="558.3" gradientTransform="translate(0 608.9) scale(1 -1)" gradientUnits="userSpaceOnUse">
      <stop offset="1" stop-color="#13b3d3"/>
      <stop offset="1" stop-color="#000"/>
    </linearGradient>
  </defs>
  <!-- Generator: Adobe Illustrator 28.7.1, SVG Export Plug-In . SVG Version: 1.2.0 Build 142)  -->
  <g class="cls-11">
    <g id="Layer_1">
      <polygon class="cls-10" points="325.3 138.7 650.7 326.6 325.4 514.4 0 326.5 325.3 138.7"/>
      <polygon class="cls-8" points="73.4 47.4 112.3 69.9 73.6 92.2 34.7 69.7 73.4 47.4"/>
      <polygon class="cls-7" points="34.7 69.6 73.6 92.1 73.6 136.8 34.7 114.3 34.7 69.6"/>
      <path class="cls-6" d="M73.5,92.1l38.9-22.3v44.5c0,0-38.9,22.5-38.9,22.5v-44.7Z"/>
      <polygon class="cls-3" points="325.3 227.7 650.7 415.6 325.4 603.4 0 415.5 325.3 227.7"/>
      <polygon class="cls-4" points="325.3 254.3 650.7 442.1 325.4 629.9 0 442.1 325.3 254.3"/>
      <polygon class="cls-2" points="0 326 325.4 513.9 325.4 560.1 0 372.3 0 326"/>
      <polygon class="cls-1" points="324.7 514.8 650.1 326.9 650.1 373.2 324.7 561.1 324.7 514.8"/>
      <path class="cls-29" d="M167.7,250.9c2.3-2.8,1.4-6.2-2.7-8.6-5.1-3-13.4-3-18.4-.1-5,2.9-5,7.7.2,10.6,4,2.3,10,2.9,14.8,1.6l123.9,71.6-125.3,71.7c-5.1-2.3-12.5-2.2-17.2.5-5,2.9-5,7.7.2,10.6,5.1,3,13.4,3,18.4.1,3.2-1.9,4.3-4.5,3.4-6.9l126.7-72.5,13.6,7.8-125.8,71.9c-4.9-1.4-10.9-.9-14.9,1.4-5,2.9-5,7.7.2,10.6,5.1,3,13.4,3,18.4.1,4-2.3,4.8-5.7,2.4-8.5l125.8-71.9,139.3,80.4c-2.3,2.8-1.4,6.2,2.7,8.6,5.1,3,13.4,3,18.4.1,5-2.9,5-7.7-.2-10.6-4-2.3-10-2.9-14.8-1.6l-139.3-80.4,18.3-10.5,139.2,80.4c-2.3,2.8-1.4,6.2,2.7,8.6,5.1,3,13.4,3,18.4.1,5-2.9,5-7.7-.2-10.6-4-2.3-10-2.9-14.8-1.6l-139.2-80.3,135.6-77.5c4.4.7,9.3.1,12.7-1.9,5-2.9,5-7.7-.2-10.6-5.1-3-13.4-3-18.4-.1-4.5,2.6-4.9,6.7-1.3,9.6l-134.6,76.9-13.6-7.8,137.1-78.3c3.4,0,6.8-.7,9.3-2.2,5-2.9,5-7.7-.2-10.6-5.1-3-13.4-3-18.4-.1-5,2.9-5,7.7.2,10.6,0,0,.2.1.3.2l-134.4,76.9-124.1-71.6c2.3-2.8,1.4-6.2-2.7-8.6-5.1-3-13.4-3-18.4-.1-5,2.9-5,7.7.2,10.6,4,2.3,10,2.9,14.8,1.6l124.1,71.6-18.3,10.5-124-71.6ZM297.8,326.1l18.3-10.5,13.6,7.8-18.3,10.5-13.6-7.8Z"/>
      <polygon class="cls-5" points="323.2 227.7 493.2 325.9 324.9 423 154.9 324.9 323.2 227.7"/>
      <polygon class="cls-13" points="321.6 240.4 469.2 325.6 324.4 409.2 176.9 324 321.6 240.4"/>
      <path class="cls-9" d="M101.3,317.3l203.6-117.5c7.9-4.6,20.7-4.6,28.6,0l208.1,120.1c7.9,4.6,7.9,11.9,0,16.5l-203.6,117.5c-7.9,4.6-20.7,4.6-28.6,0l-208.1-120.1c-7.9-4.6-7.9-11.9,0-16.5Z"/>
      <path class="cls-30" d="M89.1,319.3c5.8-3.4,15-3.5,20.5-.3s5.3,8.5-.5,11.8-15,3.5-20.5.3-5.3-8.5.5-11.8Z"/>
      <path class="cls-30" d="M89.1,319.3c5.8-3.4,15-3.5,20.5-.3s5.3,8.5-.5,11.8-15,3.5-20.5.3-5.3-8.5.5-11.8Z"/>
      <path class="cls-30" d="M89.1,319.3c5.8-3.4,15-3.5,20.5-.3s5.3,8.5-.5,11.8-15,3.5-20.5.3-5.3-8.5.5-11.8Z"/>
      <path class="cls-30" d="M531.8,321.6c5.8-3.4,15-3.5,20.5-.3s5.3,8.5-.5,11.8-15,3.5-20.5.3-5.3-8.5.5-11.8Z"/>
      <path class="cls-30" d="M531.8,321.6c5.8-3.4,15-3.5,20.5-.3s5.3,8.5-.5,11.8-15,3.5-20.5.3-5.3-8.5.5-11.8Z"/>
      <path class="cls-30" d="M531.8,321.6c5.8-3.4,15-3.5,20.5-.3s5.3,8.5-.5,11.8-15,3.5-20.5.3-5.3-8.5.5-11.8Z"/>
      <path class="cls-30" d="M313.4,449.9c5.8-3.4,15-3.5,20.5-.3s5.3,8.5-.5,11.8-15,3.5-20.5.3-5.3-8.5.5-11.8Z"/>
      <path class="cls-30" d="M313.4,449.9c5.8-3.4,15-3.5,20.5-.3s5.3,8.5-.5,11.8-15,3.5-20.5.3-5.3-8.5.5-11.8Z"/>
      <path class="cls-30" d="M313.4,449.9c5.8-3.4,15-3.5,20.5-.3s5.3,8.5-.5,11.8-15,3.5-20.5.3-5.3-8.5.5-11.8Z"/>
      <path class="cls-30" d="M312.2,191c5.8-3.4,15-3.5,20.5-.3s5.3,8.5-.5,11.8-15,3.5-20.5.3-5.3-8.5.5-11.8Z"/>
      <path class="cls-30" d="M312.2,191c5.8-3.4,15-3.5,20.5-.3s5.3,8.5-.5,11.8-15,3.5-20.5.3-5.3-8.5.5-11.8Z"/>
      <path class="cls-30" d="M312.2,191c5.8-3.4,15-3.5,20.5-.3s5.3,8.5-.5,11.8-15,3.5-20.5.3-5.3-8.5.5-11.8Z"/>
      <path class="cls-14" d="M324.3,406.8l-147.2-82.1-3.9-265.9,151.2,62.7v285.3Z"/>
      <polygon class="cls-15" points="465.7 329.4 322.5 409.3 326.5 133.5 469.7 53.6 465.7 329.4"/>
      <g class="cls-28">
        <path class="cls-12" d="M315.2,255.7c-5.1-2.9-9.5-6.4-13.3-10.3-3.8-4-6.8-8.2-8.9-12.6-2.1-4.5-3.2-8.9-3.2-13.2s1-7.4,3.1-9.2c2.1-1.8,5.1-2.4,8.9-1.8,3.8.6,8.3,2.4,13.4,5.3,5.2,3,9.7,6.4,13.5,10.2,3.9,3.8,6.8,7.8,8.9,12.1,2.1,4.2,3.2,8.5,3.2,12.9s-1.1,7.5-3.2,9.5c-2.1,2-5.1,2.7-9,2.3-3.8-.5-8.3-2.2-13.4-5.1ZM315.2,243.8c3.5,2,6.3,2.7,8.3,2.1,2.1-.6,3.1-2.5,3.1-5.6s-1-6.2-3.1-9.1c-2-3-4.8-5.5-8.3-7.5-3.5-2-6.2-2.7-8.2-2.1-2,.6-3,2.4-3,5.6s1,6.2,3,9.2c2,3,4.8,5.4,8.2,7.4ZM315.2,222.1c-4.7-2.7-8.8-5.8-12.3-9.3-3.5-3.5-6.2-7.2-8.1-11.1-1.9-4-2.9-7.9-2.9-11.9s1-7.1,2.9-8.9c2-1.9,4.7-2.6,8.2-2.1,3.5.4,7.6,1.9,12.1,4.5,4.7,2.7,8.7,5.9,12.2,9.5,3.5,3.6,6.3,7.5,8.2,11.7,2,4.1,3,8.2,3,12.3s-1,6.8-2.9,8.5c-1.9,1.7-4.6,2.3-8.1,1.7-3.5-.6-7.6-2.2-12.4-5ZM315.2,212.6c2.9,1.7,5.3,2.3,6.9,1.7,1.7-.5,2.6-2.1,2.6-4.8s-.9-5.5-2.7-8.1c-1.7-2.5-4-4.6-6.8-6.2-2.8-1.6-5-2.1-6.8-1.6-1.7.5-2.6,2.2-2.6,5s.8,5.2,2.5,7.8c1.7,2.5,4,4.6,6.8,6.2Z"/>
      </g>
      <g class="cls-28">
        <path class="cls-12" d="M184.3,112.5v-10.5l23.4-12c1.8-.9,3.2-1.8,4.1-2.8.9-1,1.4-2.1,1.7-3.2.3-1.1.5-2.1.5-3.2,0-2.8-.8-5.4-2.5-7.9-1.6-2.5-4-4.6-7.2-6.4-2.5-1.5-4.9-2.3-7.1-2.4-2.1,0-4,.6-5.5,2.2l-10.2-13.5c2.3-2.7,5.5-4,9.7-3.9,4.2,0,8.9,1.7,14.4,4.8,4.5,2.6,8.4,5.7,11.8,9.4,3.4,3.6,6,7.5,7.9,11.7,1.9,4.2,2.9,8.4,2.9,12.7s-.3,4.4-.8,6.3c-.5,1.9-1.4,3.7-2.9,5.3-1.4,1.6-3.6,3.2-6.4,4.6l-19.4,9.9-2.7-7.4,34.2,19.8v13.2l-45.8-26.4Z"/>
      </g>
      <g class="cls-28">
        <path class="cls-12" d="M404.6,264.4l19.5-39.8,2.9,7.3-26.1-15.1,5-3.2v15.2l-10-5.8v-19.7l38.9,22.4v8.4l-18,37.2-12.2-7Z"/>
      </g>
      <g class="cls-28">
        <path class="cls-12" d="M359.1,347.2c-2.5-1.4-4.7-3.4-6.7-5.9-2-2.6-3.5-5.5-4.6-8.9-1.1-3.4-1.7-6.9-1.7-10.8s.6-6.8,1.7-8.8c1.1-2.1,2.7-3.2,4.6-3.5,2-.3,4.2.3,6.7,1.7,2.5,1.4,4.7,3.4,6.7,6,2,2.5,3.5,5.5,4.6,8.8,1.1,3.4,1.7,6.9,1.7,10.8s-.6,6.8-1.7,8.8c-1.1,2-2.7,3.2-4.6,3.5-1.9.3-4.2-.3-6.7-1.8ZM359.1,340.4c1.2.7,2.2.9,3.1.6.9-.2,1.6-1.1,2.1-2.4.5-1.4.8-3.4.8-6s-.3-4.9-.8-6.9c-.5-2-1.2-3.6-2.1-4.9-.9-1.3-1.9-2.2-3.1-2.9-1.2-.7-2.2-.9-3.1-.6-.9.3-1.6,1.1-2.1,2.5-.5,1.4-.7,3.4-.7,6s.2,4.9.7,6.9c.5,2,1.2,3.6,2.1,4.9.9,1.3,1.9,2.3,3.1,2.9Z"/>
      </g>
      <g class="cls-28">
        <path class="cls-12" d="M269.9,341.8v-32l3,5.2-9.1-5.2v-6.5l13.1,7.5v35l-7-4Z"/>
      </g>
      <g class="cls-28">
        <path class="cls-12" d="M217,260c-4.2-2.4-8.4-5.5-12.6-9.2-4.1-3.7-7.6-7.6-10.6-11.7l5.5-9.2c2.3,3.3,5,6.3,8,9.2,3.1,2.9,6.1,5.2,9.3,7,3.5,2,6.3,2.8,8.3,2.4,2-.4,3-2.1,3-4.9s-.4-3.6-1.2-5.5c-.8-1.9-2.3-3.8-4.3-5.7-2-1.9-4.9-3.9-8.6-6l-15.5-9,3.1-37.6,37,21.3v13l-32-18.4,7.3-3.2-2.2,26.9-7.3-11.6,12.8,7.4c6,3.5,10.8,7.2,14.5,11.2,3.7,4,6.4,8.1,8.1,12.4,1.7,4.2,2.5,8.4,2.5,12.5s-.9,7.5-2.7,10c-1.8,2.4-4.6,3.7-8.3,3.7-3.7,0-8.4-1.7-14.2-5Z"/>
      </g>
      <polygon class="cls-16" points="78 227.7 117 250.2 78.2 272.5 39.3 250.1 78 227.7"/>
      <polygon class="cls-18" points="39.3 249.9 78.3 272.4 78.3 317.1 39.3 294.6 39.3 249.9"/>
      <path class="cls-23" d="M78.2,272.4l38.9-22.3v44.5c0,0-38.9,22.5-38.9,22.5v-44.7Z"/>
      <polygon class="cls-24" points="320.7 398.8 359.7 421.3 321 443.6 282 421.1 320.7 398.8"/>
      <polygon class="cls-25" points="282 421 321 443.5 321 488.2 282 465.7 282 421"/>
      <path class="cls-26" d="M320.9,443.5l38.9-22.3v44.5c0,0-38.9,22.5-38.9,22.5v-44.7Z"/>
      <polygon class="cls-17" points="591.2 254.3 630.2 276.8 591.5 299.1 552.5 276.6 591.2 254.3"/>
      <polygon class="cls-20" points="552.5 276.5 591.5 299 591.5 343.7 552.5 321.2 552.5 276.5"/>
      <path class="cls-19" d="M591.4,299l38.9-22.3v44.5c0,0-38.9,22.5-38.9,22.5v-44.7Z"/>
      <polygon class="cls-21" points="513.2 22.2 552.2 44.7 552.2 89.4 513.2 66.9 513.2 22.2"/>
      <polygon class="cls-22" points="551.9 0 590.9 22.5 552.2 44.8 513.2 22.3 551.9 0"/>
      <path class="cls-27" d="M552.1,44.7l38.9-22.3v44.5c0,0-38.9,22.5-38.9,22.5v-44.7Z"/>
      <g class="cls-28">
        <path class="cls-12" d="M348.1,37c8.4,4.9,15.6,11,21.7,18.5,6.1,7.5,10.7,16.1,14,25.7,3.3,9.5,4.9,19.9,4.9,31.4s-2,21.2-6,27.3c-3.9,6.2-9.3,9.4-16.2,9.8-6.9.4-15-2.1-24.2-7.4-4.8-2.8-9.4-6-13.8-9.8-4.4-3.8-8.2-7.8-11.4-12l7.8-13.4c2.5,3.5,5.2,6.4,8.1,8.9,2.9,2.4,5.8,4.4,9,6.2,7.8,4.5,14,5.3,18.6,2.5,4.7-2.8,7-9.6,7-20.4s0-3.8-.1-6.1c0-2.2-.3-4.6-.6-7l5.7,9.6c-1.5,3.1-3.6,5.2-6.2,6.3-2.7,1.1-5.8,1.2-9.4.6-3.5-.8-7.5-2.4-12-4.9-5.8-3.4-11.1-7.8-15.8-13.2-4.7-5.4-8.4-11.4-11.3-17.9-2.8-6.5-4.2-13.1-4.2-19.7s1.5-12.5,4.5-16c3.1-3.4,7.3-5,12.5-4.8,5.3.2,11.1,2,17.4,5.7ZM349.4,55.9c-3-1.8-5.7-2.6-7.9-2.6-2.3,0-4,.7-5.3,2.3-1.3,1.5-1.9,3.9-1.9,7.1,0,4.8,1.4,9.4,4.2,13.9,2.9,4.4,6.6,8,11.3,10.7,3,1.8,5.7,2.7,8.1,2.7,2.4,0,4.3-.8,5.6-2.5,1.3-1.6,1.9-4,1.9-7s-.6-6-1.9-9.1c-1.2-3.1-3-6-5.3-8.6-2.3-2.8-5.2-5.1-8.6-7.1Z"/>
      </g>
    </g>
  </g>
</svg>