<svg xmlns="http://www.w3.org/2000/svg" viewBox="0 0 652 630.5" xmlns:v="https://vecta.io/nano"><style>.A{isolation:isolate}.Q{mix-blend-mode:screen}</style><defs><linearGradient id="A" x1="498.7" y1="901.1" x2="201.4" y2="390.1" gradientTransform="translate(-406.6 454.4) rotate(30) scale(1 -.9) skewX(26.6)" href="#c"><stop offset="0" stop-color="#13edb1"/><stop offset="1" stop-color="#13b3d3"/></linearGradient><linearGradient id="B" x1="174.1" y1="736" x2="106.4" y2="705.7" gradientTransform="translate(-658.5 363.1) rotate(30) scale(1 -.9) skewX(26.6)" href="#c"><stop offset="0" stop-color="#13edb1"/><stop offset="1" stop-color="#13b3d3"/></linearGradient><linearGradient id="C" x1="75.3" y1="757.8" x2="40" y2="696.8" gradientTransform="translate(9.9 793.6) rotate(30) scale(1 -.9) skewX(-26.6)" href="#c"><stop offset="1" stop-color="#13b3d3"/><stop offset="1"/></linearGradient><linearGradient id="D" x1="138.2" y1="110.1" x2="58" y2="98" href="#c"><stop offset="0" stop-color="#13edb1"/><stop offset="1" stop-color="#13b3d3"/></linearGradient><linearGradient id="E" x1="498.7" y1="901.1" x2="201.4" y2="390.1" gradientTransform="translate(-406.6 543.4) rotate(30) scale(1 -.9) skewX(26.6)" href="#c"><stop offset="0" stop-color="#13edb1" stop-opacity=".6"/><stop offset="1" stop-color="#13b3d3" stop-opacity=".7"/></linearGradient><linearGradient id="F" x1="498.7" y1="901.1" x2="201.4" y2="390.1" gradientTransform="translate(-406.6 570) rotate(30) scale(1 -.9) skewX(26.6)" href="#c"><stop offset="0" stop-color="#13edb1" stop-opacity=".2"/><stop offset="1" stop-color="#13b3d3" stop-opacity=".3"/></linearGradient><linearGradient id="G" x1="218.2" y1="741" x2="214.8" y2="689.4" gradientTransform="translate(-24.8 1050) rotate(30) scale(1 -.9) skewX(-26.6)" href="#c"><stop offset="0" stop-color="#13edb1"/><stop offset="1" stop-color="#13b3d3"/></linearGradient><linearGradient id="H" x1="218.2" y1="527.3" x2="214.8" y2="475.7" gradientTransform="translate(299.9 1053.8) rotate(-30) scale(1 -.9) skewX(26.6)" href="#c"><stop offset="0" stop-color="#13edb1"/><stop offset="1" stop-color="#13b3d3"/></linearGradient><linearGradient id="I" x1="249.7" y1="726.6" x2="160.2" y2="555.6" gradientTransform="translate(-408.7 543.4) rotate(30) scale(1 -.9) skewX(26.6)" href="#c"><stop offset="0" stop-color="#13edb1"/><stop offset="1"/></linearGradient><linearGradient id="J" x1="230.3" y1="728.5" x2="153.7" y2="580.9" gradientTransform="translate(-410.3 556.1) rotate(30) scale(1 -.9) skewX(26.6)" href="#c"><stop offset="0" stop-color="#a5fffe"/><stop offset="1"/></linearGradient><linearGradient id="K" x1="192.6" y1="333.3" x2="304.8" y2="132.2" href="#c"><stop offset="0" stop-color="#fff" stop-opacity=".3"/><stop offset="1" stop-color="#639998" stop-opacity="0"/></linearGradient><linearGradient id="L" x1="-319.7" y1="1107.1" x2="-319.7" y2="831.3" gradientTransform="translate(131.1 -581.9) rotate(150.8) scale(1 -.9) skewX(26.6)" href="#c"><stop offset="0" stop-color="#fff" stop-opacity=".3"/><stop offset="1" stop-color="#639998" stop-opacity="0"/></linearGradient><linearGradient id="M" x1="174.1" y1="736" x2="106.4" y2="705.7" gradientTransform="translate(-653.9 543.4) rotate(30) scale(1 -.9) skewX(26.6)" href="#c"><stop offset="0" stop-color="#13edb1"/><stop offset="1" stop-color="#13b3d3"/></linearGradient><linearGradient id="N" x1="75.3" y1="757.8" x2="40" y2="696.8" gradientTransform="translate(14.5 973.9) rotate(30) scale(1 -.9) skewX(-26.6)" href="#c"><stop offset="1" stop-color="#13b3d3"/><stop offset="1"/></linearGradient><linearGradient id="O" x1="142.8" y1="290.4" x2="62.7" y2="278.3" href="#c"><stop offset="0" stop-color="#13edb1"/><stop offset="1" stop-color="#13b3d3"/></linearGradient><linearGradient id="P" x1="96.1" y1="766.3" x2="158.3" y2="671.9" gradientTransform="translate(-411.1 714.5) rotate(30) scale(1 -.9) skewX(26.6)" href="#c"><stop offset="0" stop-color="#13edb1"/><stop offset="1" stop-color="#13b3d3"/></linearGradient><linearGradient id="Q" x1="75.3" y1="757.8" x2="40" y2="696.8" gradientTransform="translate(257.3 1145) rotate(30) scale(1 -.9) skewX(-26.6)" href="#c"><stop offset="1" stop-color="#13b3d3"/><stop offset="1"/></linearGradient><linearGradient id="R" x1="385.6" y1="461.5" x2="305.4" y2="449.4" href="#c"><stop offset="1" stop-color="#13b3d3"/><stop offset="1"/></linearGradient><linearGradient id="S" x1="174.1" y1="736" x2="106.4" y2="705.7" gradientTransform="translate(-140.6 570) rotate(30) scale(1 -.9) skewX(26.6)" href="#c"><stop offset="0" stop-color="#13edb1"/><stop offset="1" stop-color="#13b3d3"/></linearGradient><linearGradient id="T" x1="45.3" y1="695.8" x2="63.7" y2="759.4" gradientTransform="translate(527.7 1000.5) rotate(30) scale(1 -.9) skewX(-26.6)" href="#c"><stop offset="0" stop-color="#13edb1"/><stop offset="1" stop-color="#13b3d3"/></linearGradient><linearGradient id="U" x1="656" y1="317" x2="575.9" y2="304.9" href="#c"><stop offset="0" stop-color="#13edb1"/><stop offset="1" stop-color="#13b3d3"/></linearGradient><linearGradient id="V" x1="60.8" y1="701" x2="37.2" y2="737.4" gradientTransform="translate(488.4 746.2) rotate(30) scale(1 -.9) skewX(-26.6)" href="#c"><stop offset="0" stop-color="#13edb1"/><stop offset="1" stop-color="#13b3d3"/></linearGradient><linearGradient id="W" x1="156.6" y1="754.5" x2="117.3" y2="699" gradientTransform="translate(-179.9 315.7) rotate(30) scale(1 -.9) skewX(26.6)" href="#c"><stop offset="0" stop-color="#13edb1"/><stop offset=".8" stop-color="#13b3d3"/></linearGradient><linearGradient id="X" x1="616.7" y1="62.7" x2="536.6" y2="50.6" href="#c"><stop offset="1" stop-color="#13b3d3"/><stop offset="1"/></linearGradient><path id="Y" d="M89.1,319.3c5.8-3.4,15-3.5,20.5-.3s5.3,8.5-.5,11.8-15,3.5-20.5.3-5.3-8.5.5-11.8Z"/><path id="Z" d="M531.8,321.6c5.8-3.4,15-3.5,20.5-.3s5.3,8.5-.5,11.8-15,3.5-20.5.3-5.3-8.5.5-11.8Z"/><path id="a" d="M313.4,449.9c5.8-3.4,15-3.5,20.5-.3s5.3,8.5-.5,11.8-15,3.5-20.5.3-5.3-8.5.5-11.8Z"/><path id="b" d="M312.2,191c5.8-3.4,15-3.5,20.5-.3s5.3,8.5-.5,11.8-15,3.5-20.5.3-5.3-8.5.5-11.8Z"/><linearGradient id="c" gradientUnits="userSpaceOnUse"/></defs><g class="A"><path d="M325.3 138.7l325.4 187.9-325.3 187.8L0 326.5l325.3-187.8z" fill="url(#A)"/><path d="M73.4 47.4l38.9 22.5-38.7 22.3-38.9-22.5 38.7-22.3z" fill="url(#B)"/><path d="M34.7 69.6l38.9 22.5v44.7l-38.9-22.5V69.6z" fill="url(#C)"/><path d="M73.5 92.1l38.9-22.3v44.5l-38.9 22.5V92.1z" fill="url(#D)"/><path d="M325.3 227.7l325.4 187.9-325.3 187.8L0 415.5l325.3-187.8z" fill="url(#E)"/><path d="M325.3 254.3l325.4 187.8-325.3 187.8L0 442.1l325.3-187.8z" fill="url(#F)"/><path d="M0 326l325.4 187.9v46.2L0 372.3V326z" fill="url(#G)"/><path d="M324.7 514.8l325.4-187.9v46.3L324.7 561.1v-46.3z" fill="url(#H)"/><path d="M167.7 250.9c2.3-2.8 1.4-6.2-2.7-8.6-5.1-3-13.4-3-18.4-.1s-5 7.7.2 10.6c4 2.3 10 2.9 14.8 1.6L285.5 326l-125.3 71.7c-5.1-2.3-12.5-2.2-17.2.5-5 2.9-5 7.7.2 10.6 5.1 3 13.4 3 18.4.1 3.2-1.9 4.3-4.5 3.4-6.9l126.7-72.5 13.6 7.8-125.8 71.9c-4.9-1.4-10.9-.9-14.9 1.4-5 2.9-5 7.7.2 10.6 5.1 3 13.4 3 18.4.1 4-2.3 4.8-5.7 2.4-8.5l125.8-71.9 139.3 80.4c-2.3 2.8-1.4 6.2 2.7 8.6 5.1 3 13.4 3 18.4.1s5-7.7-.2-10.6c-4-2.3-10-2.9-14.8-1.6l-139.3-80.4 18.3-10.5L475 407.3c-2.3 2.8-1.4 6.2 2.7 8.6 5.1 3 13.4 3 18.4.1s5-7.7-.2-10.6c-4-2.3-10-2.9-14.8-1.6l-139.2-80.3L477.5 246c4.4.7 9.3.1 12.7-1.9 5-2.9 5-7.7-.2-10.6-5.1-3-13.4-3-18.4-.1-4.5 2.6-4.9 6.7-1.3 9.6l-134.6 76.9-13.6-7.8 137.1-78.3c3.4 0 6.8-.7 9.3-2.2 5-2.9 5-7.7-.2-10.6-5.1-3-13.4-3-18.4-.1s-5 7.7.2 10.6a1.44 1.44 0 0 0 .3.2L316 308.6 191.9 237c2.3-2.8 1.4-6.2-2.7-8.6-5.1-3-13.4-3-18.4-.1s-5 7.7.2 10.6c4 2.3 10 2.9 14.8 1.6l124.1 71.6-18.3 10.5-124-71.6zm130.1 75.2l18.3-10.5 13.6 7.8-18.3 10.5-13.6-7.8z" fill-rule="evenodd" fill="#a5fffe"/><path d="M323.2 227.7l170 98.2L324.9 423l-170-98.1 168.3-97.2z" fill="url(#I)"/><path d="M321.6 240.4l147.6 85.2-144.8 83.6L176.9 324l144.7-83.6z" fill="url(#J)"/><path d="M101.3 317.3l203.6-117.5c7.9-4.6 20.7-4.6 28.6 0l208.1 120.1c7.9 4.6 7.9 11.9 0 16.5L338 453.9c-7.9 4.6-20.7 4.6-28.6 0L101.3 333.8c-7.9-4.6-7.9-11.9 0-16.5z" fill="none" stroke="#a5fffe" stroke-width="3"/><g fill="#a5fffe"><use href="#Y"/><use href="#Y"/><use href="#Y"/><use href="#Z"/><use href="#Z"/><use href="#Z"/><use href="#a"/><use href="#a"/><use href="#a"/><use href="#b"/><use href="#b"/><use href="#b"/></g><path d="M324.3,406.8l-147.2-82.1-3.9-265.9,151.2,62.7v285.3Z" fill="url(#K)"/><path d="M465.7 329.4l-143.2 79.9 4-275.8 143.2-79.9-4 275.8z" fill="url(#L)"/><path d="M315.2 255.7c-5.1-2.9-9.5-6.4-13.3-10.3-3.8-4-6.8-8.2-8.9-12.6-2.1-4.5-3.2-8.9-3.2-13.2s1-7.4 3.1-9.2 5.1-2.4 8.9-1.8 8.3 2.4 13.4 5.3c5.2 3 9.7 6.4 13.5 10.2 3.9 3.8 6.8 7.8 8.9 12.1 2.1 4.2 3.2 8.5 3.2 12.9s-1.1 7.5-3.2 9.5-5.1 2.7-9 2.3c-3.8-.5-8.3-2.2-13.4-5.1zm0-11.9c3.5 2 6.3 2.7 8.3 2.1 2.1-.6 3.1-2.5 3.1-5.6s-1-6.2-3.1-9.1c-2-3-4.8-5.5-8.3-7.5s-6.2-2.7-8.2-2.1-3 2.4-3 5.6 1 6.2 3 9.2 4.8 5.4 8.2 7.4zm0-21.7c-4.7-2.7-8.8-5.8-12.3-9.3s-6.2-7.2-8.1-11.1c-1.9-4-2.9-7.9-2.9-11.9s1-7.1 2.9-8.9c2-1.9 4.7-2.6 8.2-2.1 3.5.4 7.6 1.9 12.1 4.5 4.7 2.7 8.7 5.9 12.2 9.5s6.3 7.5 8.2 11.7c2 4.1 3 8.2 3 12.3s-1 6.8-2.9 8.5-4.6 2.3-8.1 1.7-7.6-2.2-12.4-5zm0-9.5c2.9 1.7 5.3 2.3 6.9 1.7 1.7-.5 2.6-2.1 2.6-4.8s-.9-5.5-2.7-8.1c-1.7-2.5-4-4.6-6.8-6.2s-5-2.1-6.8-1.6c-1.7.5-2.6 2.2-2.6 5s.8 5.2 2.5 7.8c1.7 2.5 4 4.6 6.8 6.2zM184.3 112.5V102l23.4-12c1.8-.9 3.2-1.8 4.1-2.8s1.4-2.1 1.7-3.2.5-2.1.5-3.2c0-2.8-.8-5.4-2.5-7.9-1.6-2.5-4-4.6-7.2-6.4-2.5-1.5-4.9-2.3-7.1-2.4-2.1 0-4 .6-5.5 2.2l-10.2-13.5c2.3-2.7 5.5-4 9.7-3.9 4.2 0 8.9 1.7 14.4 4.8 4.5 2.6 8.4 5.7 11.8 9.4 3.4 3.6 6 7.5 7.9 11.7s2.9 8.4 2.9 12.7-.3 4.4-.8 6.3-1.4 3.7-2.9 5.3c-1.4 1.6-3.6 3.2-6.4 4.6l-19.4 9.9-2.7-7.4 34.2 19.8v13.2l-45.8-26.4zm220.3 151.9l19.5-39.8 2.9 7.3-26.1-15.1 5-3.2v15.2l-10-5.8v-19.7l38.9 22.4v8.4l-18 37.2-12.2-7zm-45.5 82.8c-2.5-1.4-4.7-3.4-6.7-5.9-2-2.6-3.5-5.5-4.6-8.9a34.42 34.42 0 0 1-1.7-10.8c0-3.9.6-6.8 1.7-8.8 1.1-2.1 2.7-3.2 4.6-3.5 2-.3 4.2.3 6.7 1.7s4.7 3.4 6.7 6c2 2.5 3.5 5.5 4.6 8.8a34.42 34.42 0 0 1 1.7 10.8c0 3.9-.6 6.8-1.7 8.8s-2.7 3.2-4.6 3.5-4.2-.3-6.7-1.8zm0-6.8c1.2.7 2.2.9 3.1.6.9-.2 1.6-1.1 2.1-2.4.5-1.4.8-3.4.8-6s-.3-4.9-.8-6.9-1.2-3.6-2.1-4.9-1.9-2.2-3.1-2.9-2.2-.9-3.1-.6-1.6 1.1-2.1 2.5-.7 3.4-.7 6 .2 4.9.7 6.9 1.2 3.6 2.1 4.9 1.9 2.3 3.1 2.9zm-89.2 1.4v-32l3 5.2-9.1-5.2v-6.5l13.1 7.5v35l-7-4zM217 260c-4.2-2.4-8.4-5.5-12.6-9.2-4.1-3.7-7.6-7.6-10.6-11.7l5.5-9.2c2.3 3.3 5 6.3 8 9.2 3.1 2.9 6.1 5.2 9.3 7 3.5 2 6.3 2.8 8.3 2.4s3-2.1 3-4.9-.4-3.6-1.2-5.5-2.3-3.8-4.3-5.7-4.9-3.9-8.6-6l-15.5-9 3.1-37.6 37 21.3v13l-32-18.4 7.3-3.2-2.2 26.9-7.3-11.6 12.8 7.4c6 3.5 10.8 7.2 14.5 11.2s6.4 8.1 8.1 12.4c1.7 4.2 2.5 8.4 2.5 12.5s-.9 7.5-2.7 10c-1.8 2.4-4.6 3.7-8.3 3.7s-8.4-1.7-14.2-5z" fill="#fff" class="Q"/><path d="M78 227.7l39 22.5-38.8 22.3-38.9-22.4L78 227.7z" fill="url(#M)"/><path d="M39.3 249.9l39 22.5v44.7l-39-22.5v-44.7z" fill="url(#N)"/><path d="M78.2 272.4l38.9-22.3v44.5l-38.9 22.5v-44.7z" fill="url(#O)"/><path d="M320.7 398.8l39 22.5-38.7 22.3-39-22.5 38.7-22.3z" fill="url(#P)"/><path d="M282 421l39 22.5v44.7l-39-22.5V421z" fill="url(#Q)"/><path d="M320.9 443.5l38.9-22.3v44.5l-38.9 22.5v-44.7z" fill="url(#R)"/><path d="M591.2 254.3l39 22.5-38.7 22.3-39-22.5 38.7-22.3z" fill="url(#S)"/><path d="M552.5 276.5l39 22.5v44.7l-39-22.5v-44.7z" fill="url(#T)"/><path d="M591.4 299l38.9-22.3v44.5l-38.9 22.5V299z" fill="url(#U)"/><path d="M513.2 22.2l39 22.5v44.7l-39-22.5V22.2z" fill="url(#V)"/><path d="M551.9 0l39 22.5-38.7 22.3-39-22.5L551.9 0z" fill="url(#W)"/><path d="M552.1 44.7L591 22.4v44.5l-38.9 22.5V44.7z" fill="url(#X)"/><path class="Q" d="M348.1 37c8.4 4.9 15.6 11 21.7 18.5s10.7 16.1 14 25.7c3.3 9.5 4.9 19.9 4.9 31.4s-2 21.2-6 27.3c-3.9 6.2-9.3 9.4-16.2 9.8s-15-2.1-24.2-7.4c-4.8-2.8-9.4-6-13.8-9.8s-8.2-7.8-11.4-12l7.8-13.4a49.96 49.96 0 0 0 8.1 8.9c2.9 2.4 5.8 4.4 9 6.2 7.8 4.5 14 5.3 18.6 2.5 4.7-2.8 7-9.6 7-20.4s0-3.8-.1-6.1c0-2.2-.3-4.6-.6-7l5.7 9.6c-1.5 3.1-3.6 5.2-6.2 6.3-2.7 1.1-5.8 1.2-9.4.6-3.5-.8-7.5-2.4-12-4.9-5.8-3.4-11.1-7.8-15.8-13.2s-8.4-11.4-11.3-17.9c-2.8-6.5-4.2-13.1-4.2-19.7s1.5-12.5 4.5-16c3.1-3.4 7.3-5 12.5-4.8 5.3.2 11.1 2 17.4 5.7zm1.3 18.9c-3-1.8-5.7-2.6-7.9-2.6-2.3 0-4 .7-5.3 2.3-1.3 1.5-1.9 3.9-1.9 7.1 0 4.8 1.4 9.4 4.2 13.9 2.9 4.4 6.6 8 11.3 10.7 3 1.8 5.7 2.7 8.1 2.7s4.3-.8 5.6-2.5c1.3-1.6 1.9-4 1.9-7s-.6-6-1.9-9.1c-1.2-3.1-3-6-5.3-8.6-2.3-2.8-5.2-5.1-8.6-7.1z" fill="#fff"/></g></svg>