<svg xmlns="http://www.w3.org/2000/svg" viewBox="0 0 596 700.5" xmlns:v="https://vecta.io/nano"><style>.A{isolation:isolate}.B{mix-blend-mode:hard-light}.G{mix-blend-mode:screen}</style><defs><linearGradient id="A" x1="262.5" y1="261" x2="238.3" y2="-24.3" gradientTransform="translate(39.9 97.8) rotate(30) scale(1 .9) skewX(26.6)" href="#P"><stop offset="0" stop-color="#fff" stop-opacity=".4"/><stop offset="1" stop-color="#fff" stop-opacity="0"/></linearGradient><linearGradient id="B" x1="262.5" y1="261" x2="238.3" y2="-24.3" gradientTransform="translate(103.9 69) rotate(30) scale(1 .9) skewX(26.6)" href="#P"><stop offset="0" stop-color="#fff" stop-opacity=".4"/><stop offset="1" stop-color="#fff" stop-opacity="0"/></linearGradient><linearGradient id="C" x1="324.5" y1="-16" x2="207.6" y2="299.7" gradientTransform="translate(190.1 282) rotate(30) scale(1 .9) skewX(-26.6)" href="#P"><stop offset="0" stop-color="#12bacf" stop-opacity=".3"/><stop offset="1" stop-color="#12d8bd" stop-opacity=".4"/></linearGradient><linearGradient id="D" x1="324.5" y1="-16" x2="207.6" y2="299.7" gradientTransform="translate(190.1 252) rotate(30) scale(1 .9) skewX(-26.6)" href="#P"><stop offset="0" stop-color="#12bacf"/><stop offset="1" stop-color="#12d8bd"/></linearGradient><linearGradient id="E" x1="361.5" y1="196.4" x2="215" y2="427.3" href="#P"><stop offset="0" stop-color="#6cffd7" stop-opacity=".2"/><stop offset="1" stop-color="#13b3d3" stop-opacity=".5"/></linearGradient><linearGradient id="F" x1="176.7" y1="434" x2="419.3" y2="176.4" href="#P"><stop offset="0" stop-color="#13edb1" stop-opacity=".5"/><stop offset="1" stop-color="#13b3d3" stop-opacity=".5"/></linearGradient><linearGradient id="G" x1="335.5" y1="131" x2="189" y2="361.9" href="#P"><stop offset="0" stop-color="#6cffd7" stop-opacity=".2"/><stop offset="1" stop-color="#13b3d3" stop-opacity=".5"/></linearGradient><path id="H" d="M320 170.1L188.8 86.8v323.9l198.9 126.2v-240L320 170.1h0z"/><path id="I" d="M188.8 87.9l22-14 125.7 82.3h0l70.6 126.9h.2c0-.1 0 239.4 0 239.4l-22 14V297.2h0l-67.4-127.6h-.1L188.9 87.9h0z"/><path id="J" d="M198.8 234.5l167 97.4v6.4l-167-97.3v-6.5z"/><path id="K" d="M198.8 270.5l95 55.4v6.4l-95-55.3v-6.5z"/><path id="L" d="M298.5 328.6l67.3 39.3v6.4l-67.3-39.2v-6.5z"/><path id="M" d="M198.8 318.5l167 97.3v6.5l-167-97.4v-6.4z"/><path id="N" d="M198.8 306.5l167 97.4v6.4l-167-97.4v-6.4z"/><path id="O" d="M198.8 294.5l95 55.4v6.4l-95-55.4v-6.4z"/><linearGradient id="P" gradientUnits="userSpaceOnUse"/></defs><g class="A"><path class="B" d="M139.6 128.2l234.3 135.3c.5.3.9.9.9 1.5v289c0 .6-.4.8-.9.5L139.6 419.2c-.5-.3-.9-.9-.9-1.5v-289c0-.6.4-.8.9-.5z" fill="url(#A)"/><path class="B" d="M203.6 99.4l234.3 135.3c.5.3.9.9.9 1.5v289c0 .6-.4.8-.9.5L203.6 390.4c-.5-.3-.9-.9-.9-1.5v-289c0-.6.4-.8.9-.5z" fill="url(#B)"/><path d="M324.4 360.4l239.1 138.1c14.8 8.6 14.8 22.4 0 31L324.4 667.6c-14.8 8.6-38.9 8.6-53.7 0L31.6 529.5c-14.8-8.6-14.8-22.4 0-31l239.1-138.1c14.8-8.6 38.9-8.6 53.7 0h0z" fill="#13b3d3"/><path d="M323.6 331.9L564.5 471c14.3 8.3 14.3 21.7 0 30L323.6 640.1c-14.3 8.3-37.6 8.3-52 0L30.8 501c-14.3-8.3-14.3-21.7 0-30l240.9-139.1c14.3-8.3 37.6-8.3 52 0h0z" fill="url(#C)"/><path class="G" d="M323.6 301.9L564.5 441c14.3 8.3 14.3 21.7 0 30L323.6 610.1c-14.3 8.3-37.6 8.3-52 0L30.8 471c-14.3-8.3-14.3-21.7 0-30l240.9-139.1c14.3-8.3 37.6-8.3 52 0h0z" fill="url(#D)"/><path class="B" d="M238 367.9l216.8 125.2c14.3 8.3 14.3 21.7 0 30l-41.3 23.8c-14.3 8.3-37.6 8.3-52 0L144.7 421.7c-14.3-8.3-14.3-21.7 0-30l41.3-23.8c14.3-8.3 37.6-8.3 52 0h0z" fill="#12b9cf"/><g fill="#fff"><path class="B" d="M229 372.9l216.8 125.2c14.3 8.3 14.3 21.7 0 30l-41.3 23.8c-14.3 8.3-37.6 8.3-52 0L135.7 426.7c-14.3-8.3-14.3-21.7 0-30l41.3-23.8c14.3-8.3 37.6-8.3 52 0h0z"/><path class="G" d="M207.2 196.3l-4-16.3 2.9 1.7 3.4 14.4-1.5-.8 3.6-10.3 2.6 1.5 3.5 14.4-1.4-.8 3.5-10.4 2.7 1.6-4 11.7-3-1.7-3.1-12.6.8.5-3.2 9.1-3-1.7zm22.7 2.2c.7.4 1.4 1 2 1.7s1 1.5 1.4 2.4c.3.9.5 1.9.5 3v6.2l-2.7-1.6v-5.7c0-.9-.2-1.6-.5-2.2a3.16 3.16 0 0 0-1.4-1.4c-.4-.2-.8-.4-1.2-.4-.3 0-.6.2-.8.5s-.3.8-.3 1.5v5.3l-2.7-1.6v-14.8l2.7 1.6v7.1l-.6-1.2c.3-.5.8-.8 1.4-.8s1.3.2 2.1.6zm6.3 14.6v-10.8l2.7 1.6v10.8l-2.7-1.6zm1.3-11.5c-.5-.3-.9-.7-1.2-1.2s-.5-1-.5-1.5.2-.8.5-1 .7 0 1.2.2c.5.3.9.7 1.2 1.2s.5 1 .5 1.5-.2.9-.5 1c-.3.2-.7 0-1.2-.2zm7.7 16.9c-1.1-.6-2-1.4-2.6-2.4s-.9-2.1-.9-3.4v-9.4l2.7 1.6v9.4c0 .5.1.9.3 1.2.2.4.5.6.8.9.4.2.8.3 1.1.2l.7 2.6h-1c-.4-.1-.8-.3-1.2-.5zm-4.9-11.2v-2.4l6.5 3.7v2.4l-6.5-3.7zm13 15.8c-1.1-.6-2-1.4-2.8-2.3s-1.4-1.9-1.9-3c-.4-1.1-.7-2.2-.7-3.2s.2-1.9.6-2.5 1-.9 1.8-.9 1.6.2 2.5.8c.9.5 1.7 1.2 2.5 2.1.7.9 1.3 1.8 1.7 2.9s.6 2.2.6 3.4v.4.4l-7.6-4.4V215l6.1 3.6h-1c0-.6 0-1.2-.3-1.7-.2-.5-.5-1-.8-1.4s-.8-.8-1.2-1.1c-.5-.3-.9-.4-1.2-.4s-.6.2-.8.5-.3.7-.3 1.3v.5c0 .6.1 1.2.3 1.8s.5 1.1 1 1.6c.4.5.9.9 1.5 1.2.5.3.9.4 1.3.5.4 0 .7 0 1-.2l1.4 2.6c-.4.3-1 .4-1.6.4s-1.4-.4-2.2-.9zm11.8 6.8c-.8-.5-1.5-1.1-2.1-1.8s-1.1-1.6-1.4-2.6a11.59 11.59 0 0 1-.5-3.4c0-1.3.2-2.2.5-2.9.3-.6.8-1 1.4-1s1.3.1 2.1.6c.9.5 1.7 1.2 2.4 2.1s1.3 1.8 1.7 2.9a9.6 9.6 0 0 1 .6 3.3c0 1.1-.2 2-.6 2.6s-1 .9-1.7 1c-.7 0-1.5-.2-2.4-.7zm-5.5.6v-14.6l2.6 1.5v5.4l.1 3.3v6.1l-2.7-1.6zm5-3.4c.5.3.8.4 1.2.3.4 0 .6-.2.8-.5s.3-.8.3-1.4-.1-1.2-.3-1.8a5.3 5.3 0 0 0-.8-1.5c-.3-.4-.7-.8-1.2-1.1s-.9-.4-1.2-.3c-.4 0-.6.2-.8.5s-.3.8-.3 1.4.1 1.2.3 1.8a5.3 5.3 0 0 0 .8 1.5l1.2 1.1zm12.5 9.6v-2.1l-.2-.6v-3.8c0-.7-.2-1.3-.5-1.9s-.9-1.1-1.6-1.5c-.5-.3-1-.5-1.5-.6s-.9 0-1.2 0l-1-2.7c.5-.1 1.1 0 1.8 0 .7.2 1.4.5 2.2.9 1.4.8 2.5 1.8 3.3 3.1.8 1.2 1.2 2.7 1.2 4.3v6.1l-2.5-1.5zm-2.9-1.5c-.7-.4-1.4-.9-1.9-1.5s-.9-1.2-1.2-1.9-.4-1.3-.4-1.9.1-1.1.4-1.4.7-.4 1.3-.4 1.4.4 2.3.9l2.5 1.4v1.8l-2.2-1.3c-.6-.4-1.1-.5-1.3-.4s-.3.3-.3.7a1.92 1.92 0 0 0 .4 1.2c.3.4.7.7 1.1 1s.9.4 1.2.3c.4 0 .6-.3.8-.7l.4 1.7c-.2.6-.6.9-1.1 1-.5 0-1.2-.1-2-.6zm13.4 7.7c-.8-.5-1.5-1.1-2.1-1.8s-1.1-1.6-1.4-2.6a11.59 11.59 0 0 1-.5-3.4c0-1.3.2-2.2.5-2.9.3-.6.8-1 1.4-1s1.3.1 2.1.6c.9.5 1.7 1.2 2.4 2.1s1.3 1.8 1.7 2.9a9.6 9.6 0 0 1 .6 3.3c0 1.1-.2 2-.6 2.6s-1 .9-1.7 1c-.7 0-1.5-.2-2.4-.7zm-5.5.6v-14.6l2.6 1.5v5.4l.1 3.3v6.1l-2.7-1.6zm5-3.4c.5.3.8.4 1.2.3.4 0 .6-.2.8-.5s.3-.8.3-1.4-.1-1.2-.3-1.8a5.3 5.3 0 0 0-.8-1.5c-.3-.4-.7-.8-1.2-1.1s-.9-.4-1.2-.3c-.4 0-.6.2-.8.5s-.3.8-.3 1.4.1 1.2.3 1.8a5.3 5.3 0 0 0 .8 1.5l1.2 1.1zm11.5 9.2c-1.1-.6-2-1.4-2.8-2.3s-1.4-1.9-1.9-3c-.4-1.1-.7-2.2-.7-3.2s.2-1.9.6-2.5 1-.9 1.8-.9 1.6.2 2.5.8c.9.5 1.7 1.2 2.5 2.1.7.9 1.3 1.8 1.8 2.9.4 1.1.6 2.2.6 3.4v.4.4l-7.6-4.4v-1.8l6.1 3.6h-1c0-.6 0-1.2-.3-1.7-.2-.5-.5-1-.8-1.4s-.8-.8-1.2-1.1c-.5-.3-.9-.4-1.2-.3-.3 0-.6.2-.8.5s-.3.7-.3 1.3v.5c0 .6.1 1.2.3 1.8s.5 1.1 1 1.6c.4.5.9.9 1.5 1.2.5.3.9.5 1.3.5s.7 0 1-.2l1.4 2.6c-.4.3-1 .4-1.6.4s-1.4-.4-2.2-.9zm6.3 3.5V242l2.6 1.5v3l-.4-1.1c.3-.6.7-.9 1.3-.9s1.4.2 2.2.7v2.9c-.1 0-.2-.1-.3-.2 0 0-.2-.1-.3-.2-.7-.4-1.3-.5-1.8-.3-.4.2-.7.8-.7 1.9v5.1l-2.7-1.6z"/></g><g fill-rule="evenodd"><use href="#H" fill="url(#E)"/><use href="#H" fill="url(#E)"/><use href="#I" fill="url(#F)"/></g><g fill="#fff" class="G"><use href="#J"/><use href="#K"/><use href="#L"/><use href="#L" y="24"/><use href="#J" y="24"/><use href="#J" y="12"/><use href="#J" y="48"/><use href="#M"/><use href="#N"/><use href="#O"/></g><use href="#I" fill-rule="evenodd" fill="url(#F)"/><g fill="#fff" class="G"><use href="#J"/><use href="#K"/><use href="#L"/><use href="#L" y="24"/><use href="#J" y="24"/><use href="#J" y="12"/><use href="#J" y="48"/><use href="#M"/><use href="#N"/><use href="#O"/></g><g fill-rule="evenodd"><use href="#H" fill="url(#E)"/><path d="M294 104.7L162.8 21.5v323.9l198.9 126.2v-240L294 104.8z" fill="url(#G)"/></g></g></svg>